<svg width="24" height="24" viewBox="0 0 24 24" fill="none" xmlns="http://www.w3.org/2000/svg">
<g clip-path="url(#clip0_27639_8520)">
<path d="M23.7142 11.9999C23.7142 5.53031 18.4696 0.285645 11.9999 0.285645C5.53031 0.285645 0.285645 5.53031 0.285645 11.9999C0.285645 18.4696 5.53031 23.7142 11.9999 23.7142C18.4696 23.7142 23.7142 18.4696 23.7142 11.9999Z" fill="#1B1C22"/>
<path d="M23.7142 11.9999C23.7142 5.53031 18.4696 0.285645 11.9999 0.285645C5.53031 0.285645 0.285645 5.53031 0.285645 11.9999C0.285645 18.4696 5.53031 23.7142 11.9999 23.7142C18.4696 23.7142 23.7142 18.4696 23.7142 11.9999Z" stroke="#363843"/>
<path d="M13.2682 13.7261L11.4936 8.03263C11.3894 7.69823 11.0798 7.47046 10.7296 7.47046C10.3035 7.47046 9.95207 7.8044 9.93041 8.23L9.7203 12.3531C9.71116 12.5327 9.73281 12.7126 9.78436 12.885L10.7294 16.0439C10.8042 16.2941 11.0344 16.4655 11.2955 16.4655H12.2621C12.5193 16.4655 12.7469 16.2991 12.825 16.0541L13.2652 14.6737C13.3634 14.3656 13.3645 14.0347 13.2682 13.7261Z" fill="#464852"/>
<path d="M15.8482 8.28686L18.2562 15.6918C18.3803 16.0737 18.0958 16.4655 17.6942 16.4655H15.5749C15.2315 16.4655 14.9278 16.2433 14.8239 15.9161L12.4682 8.4968C12.3069 7.98874 12.6861 7.47046 13.2191 7.47046H14.7243C15.2362 7.47046 15.6899 7.80006 15.8482 8.28686Z" fill="#B5B7C8"/>
<path d="M9.14551 7.47046H10.7368C11.2681 7.47046 11.6471 7.98554 11.489 8.49274L9.15677 15.9777C9.0542 16.3069 8.7494 16.5311 8.40454 16.5311H6.30569C5.90877 16.5311 5.62469 16.1476 5.74043 15.7679L8.01506 8.30766C8.16666 7.81029 8.62551 7.47046 9.14551 7.47046Z" fill="#B5B7C8"/>
</g>
<defs>
<clipPath id="clip0_27639_8520">
<rect width="24" height="24" fill="white"/>
</clipPath>
</defs>
</svg>
