<svg width="24" height="24" viewBox="0 0 24 24" fill="none" xmlns="http://www.w3.org/2000/svg">
<path d="M14.421 15.295L11.033 4.42563C10.834 3.78729 10.2431 3.35249 9.57445 3.35249C8.76091 3.35249 8.09007 3.99002 8.04867 4.80251L7.64757 12.6739C7.6301 13.0169 7.67146 13.3602 7.76987 13.6892L9.57396 19.72C9.71684 20.1976 10.1562 20.5248 10.6548 20.5248H12.5C12.991 20.5248 13.4257 20.2072 13.5748 19.7394L14.4151 17.104C14.6026 16.5159 14.6047 15.8843 14.421 15.295Z" fill="#C4CADA"/>
<path d="M19.3468 4.911L23.9439 19.0478C24.1809 19.7768 23.6376 20.5248 22.8711 20.5248H18.8249C18.1696 20.5248 17.5896 20.1005 17.3913 19.4759L12.894 5.31184C12.586 4.34193 13.31 3.35249 14.3276 3.35249H17.2012C18.1784 3.35249 19.0446 3.98164 19.3468 4.911Z" fill="#252F4A"/>
<path d="M6.55032 3.35249H9.58827C10.6025 3.35249 11.326 4.33579 11.0243 5.30411L6.57184 19.5935C6.37599 20.222 5.79414 20.6502 5.13579 20.6502H1.12887C0.371078 20.6502 -0.171203 19.9179 0.0497985 19.1931L4.39217 4.95072C4.68166 4.00124 5.55769 3.35249 6.55032 3.35249Z" fill="#252F4A"/>
</svg>
