<svg width="24" height="24" viewBox="0 0 24 24" fill="none" xmlns="http://www.w3.org/2000/svg">
<g clip-path="url(#clip0_28287_9936)">
<path d="M24 12C24 5.37258 18.6274 0 12 0C5.37258 0 0 5.37258 0 12C0 18.6274 5.37258 24 12 24C18.6274 24 24 18.6274 24 12Z" fill="#172331"/>
<path d="M23.6467 12.0001C23.6467 5.56759 18.4321 0.353027 11.9996 0.353027C5.5671 0.353027 0.352539 5.56759 0.352539 12.0001C0.352539 18.4326 5.5671 23.6471 11.9996 23.6471C18.4321 23.6471 23.6467 18.4326 23.6467 12.0001Z" stroke="#006AE6" stroke-opacity="0.2"/>
<path d="M13.4242 13.9386L11.4312 7.54481C11.3141 7.16935 10.9666 6.91357 10.5732 6.91357C10.0946 6.91357 9.70006 7.28857 9.67571 7.76653L9.4398 12.3968C9.4295 12.5985 9.45385 12.8005 9.51173 12.994L10.573 16.5416C10.657 16.8225 10.9154 17.0149 11.2087 17.0149H12.2942C12.583 17.0149 12.8386 16.8281 12.9264 16.5529L13.4207 15.0027C13.531 14.6567 13.5322 14.2852 13.4242 13.9386Z" fill="#006AE6" fill-opacity="0.2"/>
<path d="M16.3213 7.83034L19.0254 16.1461C19.1649 16.5749 18.8453 17.0149 18.3944 17.0149H16.0143C15.6288 17.0149 15.2877 16.7653 15.171 16.3979L12.5255 8.0661C12.3443 7.49561 12.7702 6.91357 13.3689 6.91357H15.0592C15.634 6.91357 16.1435 7.28363 16.3213 7.83034Z" fill="#006AE6"/>
<path d="M8.79454 6.91357H10.5815C11.1782 6.91357 11.6038 7.49201 11.4263 8.06159L8.80717 16.4671C8.69197 16.8368 8.34969 17.0887 7.96244 17.0887H5.60545C5.15969 17.0887 4.8407 16.658 4.9707 16.2315L7.52501 7.8537C7.69534 7.29521 8.21063 6.91357 8.79454 6.91357Z" fill="#006AE6"/>
</g>
<defs>
<clipPath id="clip0_28287_9936">
<rect width="24" height="24" fill="white"/>
</clipPath>
</defs>
</svg>
