<svg width="24" height="24" viewBox="0 0 24 24" fill="none" xmlns="http://www.w3.org/2000/svg">
<path d="M14.4208 15.295L11.0329 4.42568C10.8339 3.78733 10.243 3.35254 9.57433 3.35254C8.76079 3.35254 8.08994 3.99007 8.04854 4.80256L7.64745 12.674C7.62998 13.0169 7.67134 13.3603 7.76975 13.6892L9.57384 19.7201C9.71671 20.1977 10.1561 20.5249 10.6546 20.5249H12.4999C12.9909 20.5249 13.4255 20.2073 13.5747 19.7394L14.415 17.104C14.6025 16.5159 14.6045 15.8843 14.4208 15.295Z" fill="#464852"/>
<path d="M19.3468 4.91104L23.9439 19.0479C24.1809 19.7768 23.6376 20.5249 22.8711 20.5249H18.8249C18.1696 20.5249 17.5896 20.1005 17.3913 19.4759L12.894 5.31189C12.586 4.34197 13.31 3.35254 14.3276 3.35254H17.2012C18.1784 3.35254 19.0446 3.98169 19.3468 4.91104Z" fill="#006AE6"/>
<path d="M6.55032 3.35254H9.58827C10.6025 3.35254 11.326 4.33584 11.0243 5.30416L6.57184 19.5935C6.37599 20.2221 5.79414 20.6502 5.13579 20.6502H1.12887C0.371078 20.6502 -0.171203 19.9179 0.0497985 19.1931L4.39217 4.95076C4.68166 4.00129 5.55769 3.35254 6.55032 3.35254Z" fill="#006AE6"/>
</svg>
