<svg width="24" height="24" viewBox="0 0 24 24" fill="none" xmlns="http://www.w3.org/2000/svg">
<g clip-path="url(#clip0_28384_9947)">
<path d="M23.6467 12.0001C23.6467 5.56759 18.4321 0.353027 11.9996 0.353027C5.5671 0.353027 0.352539 5.56759 0.352539 12.0001C0.352539 18.4326 5.5671 23.6471 11.9996 23.6471C18.4321 23.6471 23.6467 18.4326 23.6467 12.0001Z" fill="#1B1C22"/>
<path d="M23.6467 12.0001C23.6467 5.56759 18.4321 0.353027 11.9996 0.353027C5.5671 0.353027 0.352539 5.56759 0.352539 12.0001C0.352539 18.4326 5.5671 23.6471 11.9996 23.6471C18.4321 23.6471 23.6467 18.4326 23.6467 12.0001Z" stroke="#363843"/>
<path d="M13.4242 13.938L11.4312 7.54436C11.3141 7.16883 10.9666 6.91309 10.5732 6.91309C10.0946 6.91309 9.70006 7.28812 9.67571 7.76607L9.4398 12.3963C9.4295 12.598 9.45385 12.8 9.51173 12.9935L10.573 16.541C10.657 16.822 10.9154 17.0145 11.2087 17.0145H12.2942C12.583 17.0145 12.8386 16.8276 12.9264 16.5525L13.4207 15.0022C13.531 14.6563 13.5322 14.2848 13.4242 13.938Z" fill="#C4CADA"/>
<path d="M16.3213 7.82989L19.0254 16.1457C19.1649 16.5744 18.8453 17.0145 18.3944 17.0145H16.0143C15.6288 17.0145 15.2877 16.7649 15.171 16.3974L12.5255 8.06565C12.3443 7.49509 12.7702 6.91309 13.3689 6.91309H15.0592C15.634 6.91309 16.1435 7.28318 16.3213 7.82989Z" fill="#17C653"/>
<path d="M8.79454 6.91309H10.5815C11.1782 6.91309 11.6038 7.49149 11.4263 8.06113L8.80717 16.4666C8.69197 16.8363 8.34969 17.0882 7.96244 17.0882H5.60545C5.15969 17.0882 4.8407 16.6574 4.9707 16.2311L7.52501 7.85325C7.69534 7.29469 8.21063 6.91309 8.79454 6.91309Z" fill="#17C653"/>
</g>
<defs>
<clipPath id="clip0_28384_9947">
<rect width="24" height="24" fill="white"/>
</clipPath>
</defs>
</svg>
