<svg width="30" height="30" viewBox="0 0 30 30" fill="none" xmlns="http://www.w3.org/2000/svg">
<path d="M18.0263 19.1187L13.7913 5.53209C13.5426 4.73417 12.8039 4.19067 11.9682 4.19067C10.9512 4.19067 10.1127 4.98759 10.0609 6.0032L9.55956 15.8425C9.53772 16.2711 9.58942 16.7003 9.71243 17.1115L11.9675 24.6501C12.1461 25.2471 12.6954 25.6561 13.3185 25.6561H15.6251C16.2389 25.6561 16.7822 25.2591 16.9686 24.6743L18.0189 21.3801C18.2533 20.6449 18.2559 19.8554 18.0263 19.1187Z" fill="#464852"/>
<path d="M24.1835 6.1388L29.9298 23.8099C30.2261 24.721 29.547 25.6561 28.5888 25.6561H23.5312C22.712 25.6561 21.987 25.1257 21.7391 24.3449L16.1175 6.63986C15.7325 5.42746 16.6374 4.19067 17.9095 4.19067H21.5015C22.723 4.19067 23.8057 4.97711 24.1835 6.1388Z" fill="#B5B7C8"/>
<path d="M8.1879 4.19067H11.9853C13.2531 4.19067 14.1576 5.41979 13.7804 6.6302L8.2148 24.4919C7.96998 25.2776 7.24267 25.8128 6.41973 25.8128H1.41109C0.463848 25.8128 -0.214003 24.8974 0.0622481 23.9914L5.49021 6.18846C5.85207 5.00161 6.94711 4.19067 8.1879 4.19067Z" fill="#B5B7C8"/>
</svg>
