<svg width="24" height="24" viewBox="0 0 24 24" fill="none" xmlns="http://www.w3.org/2000/svg">
<g clip-path="url(#clip0_27614_27818)">
<path d="M23.7142 12C23.7142 5.53037 18.4696 0.285706 11.9999 0.285706C5.53031 0.285706 0.285645 5.53037 0.285645 12C0.285645 18.4696 5.53031 23.7143 11.9999 23.7143C18.4696 23.7143 23.7142 18.4696 23.7142 12Z" fill="#F9F9F9"/>
<path d="M23.7142 12C23.7142 5.53037 18.4696 0.285706 11.9999 0.285706C5.53031 0.285706 0.285645 5.53037 0.285645 12C0.285645 18.4696 5.53031 23.7143 11.9999 23.7143C18.4696 23.7143 23.7142 18.4696 23.7142 12Z" stroke="#DBDFE9"/>
<path d="M13.268 13.7259L11.4934 8.03245C11.3891 7.69811 11.0796 7.47034 10.7294 7.47034C10.3032 7.47034 9.95183 7.80428 9.93017 8.22988L9.72006 12.353C9.71091 12.5326 9.73257 12.7125 9.78411 12.8848L10.7291 16.0438C10.8039 16.294 11.0341 16.4654 11.2953 16.4654H12.2618C12.519 16.4654 12.7467 16.299 12.8248 16.0539L13.2649 14.6735C13.3631 14.3654 13.3642 14.0346 13.268 13.7259Z" fill="#C4CADA"/>
<path d="M15.8482 8.28668L18.2562 15.6917C18.3803 16.0735 18.0958 16.4654 17.6942 16.4654H15.5749C15.2315 16.4654 14.9278 16.2431 14.8239 15.9159L12.4682 8.49668C12.3069 7.98862 12.6861 7.47034 13.2191 7.47034H14.7243C15.2362 7.47034 15.6899 7.79988 15.8482 8.28668Z" fill="#252F4A"/>
<path d="M9.14551 7.47034H10.7368C11.2681 7.47034 11.6471 7.98542 11.489 8.49262L9.15677 15.9775C9.0542 16.3068 8.7494 16.531 8.40454 16.531H6.30569C5.90877 16.531 5.62469 16.1475 5.74043 15.7678L8.01506 8.30754C8.16666 7.81017 8.62551 7.47034 9.14551 7.47034Z" fill="#252F4A"/>
</g>
<defs>
<clipPath id="clip0_27614_27818">
<rect width="24" height="24" fill="white"/>
</clipPath>
</defs>
</svg>
