<svg width="210" height="40" viewBox="0 0 210 40" fill="none" xmlns="http://www.w3.org/2000/svg">
<g filter="url(#filter0_ii_28297_62991)">
<rect width="210" height="40" rx="8" fill="#F14F41"/>
<rect x="0.5" y="0.5" width="209" height="39" rx="7.5" stroke="white" stroke-opacity="0.3"/>
<path fill-rule="evenodd" clip-rule="evenodd" d="M34 20C34 26.6274 28.6274 32 22 32C15.3726 32 10 26.6274 10 20C10 13.3726 15.3726 8 22 8C28.6274 8 34 13.3726 34 20Z" fill="white"/>
<path fill-rule="evenodd" clip-rule="evenodd" d="M23.4966 20.3525L20.1366 20.3526V16.7526H23.4966C24.4791 16.7526 25.2755 17.5584 25.2755 18.5525C25.2755 19.5466 24.4791 20.3525 23.4966 20.3525ZM23.4966 14.3525H17.7649V26.3525H20.1366V22.7526H23.4966C25.7889 22.7526 27.6472 20.8721 27.6472 18.5525C27.6472 16.2329 25.7889 14.3525 23.4966 14.3525Z" fill="#F14F41"/>
<path d="M43.2432 14.3636L46.6978 24.1591H46.8341L50.2887 14.3636H51.766L47.4932 26H46.0387L41.766 14.3636H43.2432ZM52.9166 26V17.2727H54.2576V26H52.9166ZM53.5985 15.8182C53.3371 15.8182 53.1117 15.7292 52.9223 15.5511C52.7367 15.3731 52.6439 15.1591 52.6439 14.9091C52.6439 14.6591 52.7367 14.4451 52.9223 14.267C53.1117 14.089 53.3371 14 53.5985 14C53.8598 14 54.0833 14.089 54.2689 14.267C54.4583 14.4451 54.553 14.6591 54.553 14.9091C54.553 15.1591 54.4583 15.3731 54.2689 15.5511C54.0833 15.7292 53.8598 15.8182 53.5985 15.8182ZM59.8926 26.1818C59.0517 26.1818 58.3263 25.9962 57.7165 25.625C57.1104 25.25 56.6426 24.7273 56.3131 24.0568C55.9873 23.3826 55.8244 22.5985 55.8244 21.7045C55.8244 20.8106 55.9873 20.0227 56.3131 19.3409C56.6426 18.6553 57.1009 18.1212 57.6881 17.7386C58.279 17.3523 58.9684 17.1591 59.7562 17.1591C60.2108 17.1591 60.6597 17.2348 61.1028 17.3864C61.546 17.5379 61.9494 17.7841 62.3131 18.125C62.6767 18.4621 62.9665 18.9091 63.1824 19.4659C63.3983 20.0227 63.5062 20.7083 63.5062 21.5227V22.0909H56.779V20.9318H62.1426C62.1426 20.4394 62.0441 20 61.8472 19.6136C61.654 19.2273 61.3775 18.9223 61.0176 18.6989C60.6616 18.4754 60.2411 18.3636 59.7562 18.3636C59.2222 18.3636 58.76 18.4962 58.3699 18.7614C57.9835 19.0227 57.6862 19.3636 57.4778 19.7841C57.2695 20.2045 57.1653 20.6553 57.1653 21.1364V21.9091C57.1653 22.5682 57.279 23.1269 57.5062 23.5852C57.7373 24.0398 58.0574 24.3864 58.4665 24.625C58.8756 24.8598 59.3509 24.9773 59.8926 24.9773C60.2449 24.9773 60.5631 24.928 60.8472 24.8295C61.135 24.7273 61.3831 24.5758 61.5915 24.375C61.7998 24.1705 61.9608 23.9167 62.0744 23.6136L63.3699 23.9773C63.2335 24.4167 63.0044 24.803 62.6824 25.1364C62.3604 25.4659 61.9627 25.7235 61.4892 25.9091C61.0157 26.0909 60.4835 26.1818 59.8926 26.1818ZM67.0433 26L64.3842 17.2727H65.7933L67.6797 23.9545H67.7706L69.6342 17.2727H71.066L72.9069 23.9318H72.9978L74.8842 17.2727H76.2933L73.6342 26H72.316L70.4069 19.2955H70.2706L68.3615 26H67.0433ZM85.1515 26.1818C84.3636 26.1818 83.6723 25.9943 83.0776 25.6193C82.4867 25.2443 82.0246 24.7197 81.6912 24.0455C81.3617 23.3712 81.1969 22.5833 81.1969 21.6818C81.1969 20.7727 81.3617 19.9792 81.6912 19.3011C82.0246 18.6231 82.4867 18.0966 83.0776 17.7216C83.6723 17.3466 84.3636 17.1591 85.1515 17.1591C85.9394 17.1591 86.6287 17.3466 87.2197 17.7216C87.8144 18.0966 88.2765 18.6231 88.606 19.3011C88.9394 19.9792 89.106 20.7727 89.106 21.6818C89.106 22.5833 88.9394 23.3712 88.606 24.0455C88.2765 24.7197 87.8144 25.2443 87.2197 25.6193C86.6287 25.9943 85.9394 26.1818 85.1515 26.1818ZM85.1515 24.9773C85.75 24.9773 86.2424 24.8239 86.6287 24.517C87.0151 24.2102 87.3011 23.8068 87.4867 23.3068C87.6723 22.8068 87.7651 22.2652 87.7651 21.6818C87.7651 21.0985 87.6723 20.5549 87.4867 20.0511C87.3011 19.5473 87.0151 19.1402 86.6287 18.8295C86.2424 18.5189 85.75 18.3636 85.1515 18.3636C84.553 18.3636 84.0606 18.5189 83.6742 18.8295C83.2878 19.1402 83.0019 19.5473 82.8162 20.0511C82.6306 20.5549 82.5378 21.0985 82.5378 21.6818C82.5378 22.2652 82.6306 22.8068 82.8162 23.3068C83.0019 23.8068 83.2878 24.2102 83.6742 24.517C84.0606 24.8239 84.553 24.9773 85.1515 24.9773ZM92.0138 20.75V26H90.6729V17.2727H91.9683V18.6364H92.082C92.2865 18.1932 92.5971 17.8371 93.0138 17.5682C93.4305 17.2955 93.9683 17.1591 94.6274 17.1591C95.2183 17.1591 95.7354 17.2803 96.1786 17.5227C96.6218 17.7614 96.9665 18.125 97.2127 18.6136C97.4589 19.0985 97.582 19.7121 97.582 20.4545V26H96.2411V20.5455C96.2411 19.8598 96.063 19.3258 95.707 18.9432C95.3509 18.5568 94.8623 18.3636 94.2411 18.3636C93.813 18.3636 93.4305 18.4564 93.0933 18.642C92.76 18.8277 92.4968 19.0985 92.3036 19.4545C92.1104 19.8106 92.0138 20.2424 92.0138 20.75ZM103.493 26V14.3636H107.856C108.75 14.3636 109.5 14.5303 110.106 14.8636C110.716 15.197 111.176 15.6553 111.487 16.2386C111.801 16.8182 111.959 17.4773 111.959 18.2159C111.959 18.9621 111.801 19.625 111.487 20.2045C111.173 20.7841 110.709 21.2405 110.095 21.5739C109.481 21.9034 108.726 22.0682 107.828 22.0682H104.936V20.3352H107.544C108.067 20.3352 108.495 20.2443 108.828 20.0625C109.161 19.8807 109.407 19.6307 109.567 19.3125C109.729 18.9943 109.811 18.6288 109.811 18.2159C109.811 17.803 109.729 17.4394 109.567 17.125C109.407 16.8106 109.159 16.5663 108.822 16.392C108.489 16.214 108.059 16.125 107.532 16.125H105.601V26H103.493ZM113.219 26V17.2727H115.213V18.7273H115.304C115.463 18.2235 115.736 17.8352 116.122 17.5625C116.512 17.286 116.957 17.1477 117.457 17.1477C117.571 17.1477 117.698 17.1534 117.838 17.1648C117.982 17.1723 118.101 17.1856 118.196 17.2045V19.0966C118.109 19.0663 117.971 19.0398 117.781 19.017C117.596 18.9905 117.416 18.9773 117.241 18.9773C116.866 18.9773 116.529 19.0587 116.23 19.2216C115.935 19.3807 115.702 19.6023 115.531 19.8864C115.361 20.1705 115.276 20.4981 115.276 20.8693V26H113.219ZM122.53 26.1705C121.678 26.1705 120.939 25.983 120.314 25.608C119.689 25.233 119.204 24.7083 118.859 24.0341C118.519 23.3598 118.348 22.572 118.348 21.6705C118.348 20.7689 118.519 19.9792 118.859 19.3011C119.204 18.6231 119.689 18.0966 120.314 17.7216C120.939 17.3466 121.678 17.1591 122.53 17.1591C123.382 17.1591 124.121 17.3466 124.746 17.7216C125.371 18.0966 125.854 18.6231 126.195 19.3011C126.539 19.9792 126.712 20.7689 126.712 21.6705C126.712 22.572 126.539 23.3598 126.195 24.0341C125.854 24.7083 125.371 25.233 124.746 25.608C124.121 25.983 123.382 26.1705 122.53 26.1705ZM122.541 24.5227C123.003 24.5227 123.39 24.3958 123.7 24.142C124.011 23.8845 124.242 23.5398 124.394 23.108C124.549 22.6761 124.626 22.1951 124.626 21.6648C124.626 21.1307 124.549 20.6477 124.394 20.2159C124.242 19.7803 124.011 19.4337 123.7 19.1761C123.39 18.9186 123.003 18.7898 122.541 18.7898C122.068 18.7898 121.674 18.9186 121.359 19.1761C121.049 19.4337 120.816 19.7803 120.661 20.2159C120.509 20.6477 120.433 21.1307 120.433 21.6648C120.433 22.1951 120.509 22.6761 120.661 23.108C120.816 23.5398 121.049 23.8845 121.359 24.142C121.674 24.3958 122.068 24.5227 122.541 24.5227ZM131.216 26.1534C130.53 26.1534 129.917 25.9773 129.375 25.625C128.834 25.2727 128.405 24.7614 128.091 24.0909C127.777 23.4205 127.619 22.6061 127.619 21.6477C127.619 20.678 127.779 19.8598 128.097 19.1932C128.419 18.5227 128.852 18.017 129.398 17.6761C129.943 17.3314 130.551 17.1591 131.222 17.1591C131.733 17.1591 132.154 17.2462 132.483 17.4205C132.813 17.5909 133.074 17.7973 133.267 18.0398C133.46 18.2784 133.61 18.5038 133.716 18.7159H133.801V14.3636H135.864V26H133.841V24.625H133.716C133.61 24.8371 133.457 25.0625 133.256 25.3011C133.055 25.536 132.79 25.7367 132.46 25.9034C132.131 26.0701 131.716 26.1534 131.216 26.1534ZM131.79 24.4659C132.226 24.4659 132.597 24.3485 132.904 24.1136C133.21 23.875 133.443 23.5436 133.602 23.1193C133.762 22.6951 133.841 22.2008 133.841 21.6364C133.841 21.072 133.762 20.5814 133.602 20.1648C133.447 19.7481 133.216 19.4242 132.909 19.1932C132.606 18.9621 132.233 18.8466 131.79 18.8466C131.332 18.8466 130.949 18.9659 130.642 19.2045C130.335 19.4432 130.104 19.7727 129.949 20.1932C129.794 20.6136 129.716 21.0947 129.716 21.6364C129.716 22.1818 129.794 22.6686 129.949 23.0966C130.108 23.5208 130.341 23.8561 130.648 24.1023C130.959 24.3447 131.339 24.4659 131.79 24.4659ZM143.138 22.3295V17.2727H145.195V26H143.201V24.4489H143.11C142.913 24.9375 142.589 25.3371 142.138 25.6477C141.691 25.9583 141.14 26.1136 140.485 26.1136C139.913 26.1136 139.407 25.9867 138.968 25.733C138.532 25.4754 138.191 25.1023 137.945 24.6136C137.699 24.1212 137.576 23.5265 137.576 22.8295V17.2727H139.632V22.5114C139.632 23.0644 139.784 23.5038 140.087 23.8295C140.39 24.1553 140.788 24.3182 141.28 24.3182C141.583 24.3182 141.877 24.2443 142.161 24.0966C142.445 23.9489 142.678 23.7292 142.86 23.4375C143.045 23.142 143.138 22.7727 143.138 22.3295ZM150.637 26.1705C149.766 26.1705 149.017 25.9792 148.392 25.5966C147.771 25.214 147.292 24.6856 146.955 24.0114C146.622 23.3333 146.455 22.553 146.455 21.6705C146.455 20.7841 146.625 20.0019 146.966 19.3239C147.307 18.642 147.788 18.1117 148.409 17.733C149.034 17.3504 149.773 17.1591 150.625 17.1591C151.334 17.1591 151.961 17.2898 152.506 17.5511C153.055 17.8087 153.493 18.1742 153.819 18.6477C154.144 19.1174 154.33 19.6667 154.375 20.2955H152.409C152.33 19.875 152.141 19.5246 151.841 19.2443C151.546 18.9602 151.15 18.8182 150.654 18.8182C150.233 18.8182 149.864 18.9318 149.546 19.1591C149.228 19.3826 148.98 19.7045 148.802 20.125C148.627 20.5455 148.54 21.0492 148.54 21.6364C148.54 22.2311 148.627 22.7424 148.802 23.1705C148.976 23.5947 149.22 23.9223 149.534 24.1534C149.853 24.3807 150.226 24.4943 150.654 24.4943C150.957 24.4943 151.228 24.4375 151.466 24.3239C151.709 24.2064 151.911 24.0379 152.074 23.8182C152.237 23.5985 152.349 23.3314 152.409 23.017H154.375C154.326 23.6345 154.144 24.1818 153.83 24.6591C153.516 25.1326 153.088 25.5038 152.546 25.7727C152.004 26.0379 151.368 26.1705 150.637 26.1705ZM159.942 17.2727V18.8636H154.925V17.2727H159.942ZM156.164 15.1818H158.221V23.375C158.221 23.6515 158.262 23.8636 158.346 24.0114C158.433 24.1553 158.546 24.2538 158.687 24.3068C158.827 24.3598 158.982 24.3864 159.152 24.3864C159.281 24.3864 159.399 24.3769 159.505 24.358C159.615 24.339 159.698 24.322 159.755 24.3068L160.101 25.9148C159.992 25.9527 159.834 25.9943 159.63 26.0398C159.429 26.0852 159.183 26.1117 158.891 26.1193C158.376 26.1345 157.912 26.0568 157.499 25.8864C157.086 25.7121 156.759 25.4432 156.516 25.0795C156.277 24.7159 156.16 24.2614 156.164 23.7159V15.1818ZM164.762 26V14.3636H166.87V19.2898H172.262V14.3636H174.376V26H172.262V21.0568H166.87V26H164.762ZM181.66 22.3295V17.2727H183.717V26H181.722V24.4489H181.632C181.435 24.9375 181.111 25.3371 180.66 25.6477C180.213 25.9583 179.662 26.1136 179.007 26.1136C178.435 26.1136 177.929 25.9867 177.489 25.733C177.054 25.4754 176.713 25.1023 176.467 24.6136C176.221 24.1212 176.097 23.5265 176.097 22.8295V17.2727H178.154V22.5114C178.154 23.0644 178.306 23.5038 178.609 23.8295C178.912 24.1553 179.31 24.3182 179.802 24.3182C180.105 24.3182 180.399 24.2443 180.683 24.0966C180.967 23.9489 181.2 23.7292 181.382 23.4375C181.567 23.142 181.66 22.7727 181.66 22.3295ZM187.409 20.8864V26H185.352V17.2727H187.318V18.7557H187.42C187.621 18.267 187.941 17.8788 188.38 17.5909C188.823 17.303 189.371 17.1591 190.022 17.1591C190.625 17.1591 191.149 17.2879 191.596 17.5455C192.047 17.803 192.395 18.1761 192.642 18.6648C192.892 19.1534 193.015 19.7462 193.011 20.4432V26H190.954V20.7614C190.954 20.178 190.803 19.7216 190.5 19.392C190.2 19.0625 189.786 18.8977 189.255 18.8977C188.895 18.8977 188.575 18.9773 188.295 19.1364C188.018 19.2917 187.801 19.517 187.642 19.8125C187.486 20.108 187.409 20.4659 187.409 20.8864ZM198.98 17.2727V18.8636H193.963V17.2727H198.98ZM195.201 15.1818H197.258V23.375C197.258 23.6515 197.3 23.8636 197.383 24.0114C197.47 24.1553 197.584 24.2538 197.724 24.3068C197.864 24.3598 198.02 24.3864 198.19 24.3864C198.319 24.3864 198.436 24.3769 198.542 24.358C198.652 24.339 198.735 24.322 198.792 24.3068L199.139 25.9148C199.029 25.9527 198.872 25.9943 198.667 26.0398C198.467 26.0852 198.22 26.1117 197.929 26.1193C197.413 26.1345 196.949 26.0568 196.537 25.8864C196.124 25.7121 195.796 25.4432 195.554 25.0795C195.315 24.7159 195.198 24.2614 195.201 23.7159V15.1818Z" fill="white"/>
</g>
<defs>
<filter id="filter0_ii_28297_62991" x="0" y="-2" width="210" height="44" filterUnits="userSpaceOnUse" color-interpolation-filters="sRGB">
<feFlood flood-opacity="0" result="BackgroundImageFix"/>
<feBlend mode="normal" in="SourceGraphic" in2="BackgroundImageFix" result="shape"/>
<feColorMatrix in="SourceAlpha" type="matrix" values="0 0 0 0 0 0 0 0 0 0 0 0 0 0 0 0 0 0 127 0" result="hardAlpha"/>
<feOffset dy="2"/>
<feGaussianBlur stdDeviation="1.5"/>
<feComposite in2="hardAlpha" operator="arithmetic" k2="-1" k3="1"/>
<feColorMatrix type="matrix" values="0 0 0 0 1 0 0 0 0 1 0 0 0 0 1 0 0 0 0.3 0"/>
<feBlend mode="normal" in2="shape" result="effect1_innerShadow_28297_62991"/>
<feColorMatrix in="SourceAlpha" type="matrix" values="0 0 0 0 0 0 0 0 0 0 0 0 0 0 0 0 0 0 127 0" result="hardAlpha"/>
<feOffset dy="-2"/>
<feGaussianBlur stdDeviation="1.5"/>
<feComposite in2="hardAlpha" operator="arithmetic" k2="-1" k3="1"/>
<feColorMatrix type="matrix" values="0 0 0 0 0 0 0 0 0 0 0 0 0 0 0 0 0 0 0.3 0"/>
<feBlend mode="normal" in2="effect1_innerShadow_28297_62991" result="effect2_innerShadow_28297_62991"/>
</filter>
</defs>
</svg>
