<svg width="138" height="32" viewBox="0 0 138 32" fill="none" xmlns="http://www.w3.org/2000/svg">
<g filter="url(#filter0_ii_28297_62906)">
<rect width="138" height="32" rx="6" fill="#0E111A"/>
<rect x="0.5" y="0.5" width="137" height="31" rx="5.5" stroke="white" stroke-opacity="0.2"/>
<path fill-rule="evenodd" clip-rule="evenodd" d="M24 16C24 20.4183 20.4183 24 16 24C11.5817 24 8 20.4183 8 16C8 11.5817 11.5817 8 16 8C20.4183 8 24 11.5817 24 16Z" fill="#F24F41"/>
<path fill-rule="evenodd" clip-rule="evenodd" d="M16.9977 16.2354L14.7577 16.2354V13.8354H16.9977C17.6527 13.8354 18.1836 14.3726 18.1836 15.0354C18.1836 15.6981 17.6527 16.2354 16.9977 16.2354ZM16.9977 12.2354H13.1766V20.2354H14.7577V17.8354H16.9977C18.5259 17.8354 19.7648 16.5817 19.7648 15.0354C19.7648 13.4889 18.5259 12.2354 16.9977 12.2354Z" fill="white"/>
<g clip-path="url(#clip0_28297_62906)">
<path d="M43.0242 14.3666H40.5088C40.3991 14.3661 40.2909 14.3412 40.192 14.2939C40.0931 14.2465 40.0059 14.1778 39.9368 14.0926C39.8676 14.0075 39.8182 13.9081 39.7921 13.8016C39.7659 13.6951 39.7638 13.5841 39.7857 13.4766L40.1071 11.6226C40.1655 11.3078 40.1129 10.9824 39.9583 10.702C39.8038 10.4216 39.5568 10.2034 39.2595 10.0846C38.9622 9.96585 38.6329 9.9538 38.3276 10.0505C38.0224 10.1473 37.7602 10.3468 37.5855 10.6152L35.1134 14.3233V13.5755C35.1135 13.3191 35.0134 13.0729 34.8344 12.8893C34.6555 12.7057 34.4118 12.5993 34.1555 12.5929H32.8577C32.597 12.5929 32.3471 12.6964 32.1628 12.8807C31.9785 13.065 31.875 13.3149 31.875 13.5755V20.2255C31.875 20.4861 31.9785 20.736 32.1628 20.9203C32.3471 21.1046 32.597 21.2081 32.8577 21.2081H34.1555C34.4161 21.2081 34.6661 21.1046 34.8504 20.9203C35.0346 20.736 35.1382 20.4861 35.1382 20.2255V20.3182L36.7759 21.6284C37.1374 21.883 37.5699 22.017 38.012 22.0116H41.1392C41.4372 22.0108 41.7273 21.9152 41.9673 21.7385C42.2073 21.5618 42.3848 21.3133 42.4741 21.0289L44.0748 15.7881C44.1264 15.6237 44.1384 15.4494 44.1099 15.2795C44.0814 15.1096 44.0132 14.9488 43.9108 14.8103C43.8084 14.6717 43.6747 14.5593 43.5206 14.4822C43.3666 14.4051 43.1964 14.3655 43.0242 14.3666Z" fill="white"/>
</g>
<path d="M51.2841 20.125C50.7425 20.125 50.2672 19.9961 49.8583 19.7383C49.4521 19.4805 49.1344 19.1198 48.9052 18.6562C48.6787 18.1927 48.5654 17.651 48.5654 17.0312C48.5654 16.4062 48.6787 15.8607 48.9052 15.3945C49.1344 14.9284 49.4521 14.5664 49.8583 14.3086C50.2672 14.0508 50.7425 13.9219 51.2841 13.9219C51.8258 13.9219 52.2997 14.0508 52.706 14.3086C53.1149 14.5664 53.4326 14.9284 53.6591 15.3945C53.8883 15.8607 54.0029 16.4062 54.0029 17.0312C54.0029 17.651 53.8883 18.1927 53.6591 18.6562C53.4326 19.1198 53.1149 19.4805 52.706 19.7383C52.2997 19.9961 51.8258 20.125 51.2841 20.125ZM51.2841 19.2969C51.6956 19.2969 52.0341 19.1914 52.2997 18.9805C52.5654 18.7695 52.762 18.4922 52.8896 18.1484C53.0172 17.8047 53.081 17.4323 53.081 17.0312C53.081 16.6302 53.0172 16.2565 52.8896 15.9102C52.762 15.5638 52.5654 15.2839 52.2997 15.0703C52.0341 14.8568 51.6956 14.75 51.2841 14.75C50.8727 14.75 50.5341 14.8568 50.2685 15.0703C50.0029 15.2839 49.8063 15.5638 49.6787 15.9102C49.551 16.2565 49.4872 16.6302 49.4872 17.0312C49.4872 17.4323 49.551 17.8047 49.6787 18.1484C49.8063 18.4922 50.0029 18.7695 50.2685 18.9805C50.5341 19.1914 50.8727 19.2969 51.2841 19.2969ZM56.002 16.3906V20H55.0801V14H55.9707V14.9375H56.0488C56.1895 14.6328 56.403 14.388 56.6895 14.2031C56.9759 14.0156 57.3457 13.9219 57.7988 13.9219C58.2051 13.9219 58.5606 14.0052 58.8653 14.1719C59.1699 14.3359 59.4069 14.5859 59.5762 14.9219C59.7455 15.2552 59.8301 15.6771 59.8301 16.1875V20H58.9082V16.25C58.9082 15.7786 58.7858 15.4115 58.541 15.1484C58.2962 14.8828 57.9603 14.75 57.5332 14.75C57.239 14.75 56.9759 14.8138 56.7442 14.9414C56.515 15.069 56.334 15.2552 56.2012 15.5C56.0684 15.7448 56.002 16.0417 56.002 16.3906ZM63.8937 20V12H66.8937C67.5083 12 68.0239 12.1146 68.4406 12.3437C68.8599 12.5729 69.1763 12.888 69.3898 13.2891C69.606 13.6875 69.714 14.1406 69.714 14.6484C69.714 15.1615 69.606 15.6172 69.3898 16.0156C69.1737 16.4141 68.8547 16.7279 68.4328 16.957C68.0109 17.1836 67.4914 17.2969 66.8742 17.2969H64.8859V16.1055H66.6789C67.0383 16.1055 67.3325 16.043 67.5617 15.918C67.7909 15.793 67.9601 15.6211 68.0695 15.4023C68.1815 15.1836 68.2375 14.9323 68.2375 14.6484C68.2375 14.3646 68.1815 14.1146 68.0695 13.8984C67.9601 13.6823 67.7896 13.5143 67.5578 13.3945C67.3286 13.2721 67.0331 13.2109 66.6711 13.2109H65.343V20H63.8937ZM70.5803 20V14H71.9514V15H72.0139C72.1233 14.6536 72.3108 14.3867 72.5764 14.1992C72.8447 14.0091 73.1506 13.9141 73.4944 13.9141C73.5725 13.9141 73.6598 13.918 73.7561 13.9258C73.8551 13.931 73.9371 13.9401 74.0022 13.9531V15.2539C73.9423 15.2331 73.8473 15.2148 73.7171 15.1992C73.5894 15.181 73.4658 15.1719 73.346 15.1719C73.0881 15.1719 72.8564 15.2279 72.6506 15.3398C72.4475 15.4492 72.2874 15.6016 72.1702 15.7969C72.053 15.9922 71.9944 16.2174 71.9944 16.4727V20H70.5803ZM76.9818 20.1172C76.3958 20.1172 75.888 19.9883 75.4583 19.7305C75.0287 19.4727 74.6953 19.112 74.4583 18.6484C74.224 18.1849 74.1068 17.6432 74.1068 17.0234C74.1068 16.4036 74.224 15.8607 74.4583 15.3945C74.6953 14.9284 75.0287 14.5664 75.4583 14.3086C75.888 14.0508 76.3958 13.9219 76.9818 13.9219C77.5677 13.9219 78.0755 14.0508 78.5052 14.3086C78.9349 14.5664 79.2669 14.9284 79.5013 15.3945C79.7383 15.8607 79.8568 16.4036 79.8568 17.0234C79.8568 17.6432 79.7383 18.1849 79.5013 18.6484C79.2669 19.112 78.9349 19.4727 78.5052 19.7305C78.0755 19.9883 77.5677 20.1172 76.9818 20.1172ZM76.9896 18.9844C77.3073 18.9844 77.5729 18.8971 77.7865 18.7227C78 18.5456 78.1589 18.3086 78.263 18.0117C78.3698 17.7148 78.4232 17.3841 78.4232 17.0195C78.4232 16.6523 78.3698 16.3203 78.263 16.0234C78.1589 15.724 78 15.4857 77.7865 15.3086C77.5729 15.1315 77.3073 15.043 76.9896 15.043C76.6641 15.043 76.3932 15.1315 76.1771 15.3086C75.9635 15.4857 75.8034 15.724 75.6966 16.0234C75.5925 16.3203 75.5404 16.6523 75.5404 17.0195C75.5404 17.3841 75.5925 17.7148 75.6966 18.0117C75.8034 18.3086 75.9635 18.5456 76.1771 18.7227C76.3932 18.8971 76.6641 18.9844 76.9896 18.9844ZM82.9535 20.1055C82.4822 20.1055 82.0603 19.9844 81.6879 19.7422C81.3155 19.5 81.0212 19.1484 80.8051 18.6875C80.589 18.2266 80.4809 17.6667 80.4809 17.0078C80.4809 16.3411 80.5903 15.7786 80.809 15.3203C81.0304 14.8594 81.3285 14.5117 81.7035 14.2773C82.0785 14.0404 82.4965 13.9219 82.9574 13.9219C83.309 13.9219 83.5981 13.9818 83.8246 14.1016C84.0512 14.2187 84.2309 14.3607 84.3637 14.5273C84.4965 14.6914 84.5994 14.8464 84.6723 14.9922H84.7309V12H86.1488V20H84.7582V19.0547H84.6723C84.5994 19.2005 84.4939 19.3555 84.3559 19.5195C84.2179 19.681 84.0356 19.819 83.809 19.9336C83.5824 20.0482 83.2973 20.1055 82.9535 20.1055ZM83.3481 18.9453C83.6475 18.9453 83.9028 18.8646 84.1137 18.7031C84.3246 18.5391 84.4848 18.3112 84.5942 18.0195C84.7035 17.7279 84.7582 17.388 84.7582 17C84.7582 16.612 84.7035 16.2747 84.5942 15.9883C84.4874 15.7018 84.3285 15.4792 84.1176 15.3203C83.9093 15.1615 83.6528 15.082 83.3481 15.082C83.033 15.082 82.7699 15.1641 82.559 15.3281C82.3481 15.4922 82.1892 15.7187 82.0824 16.0078C81.9757 16.2969 81.9223 16.6276 81.9223 17C81.9223 17.375 81.9757 17.7096 82.0824 18.0039C82.1918 18.2956 82.352 18.526 82.5629 18.6953C82.7765 18.862 83.0382 18.9453 83.3481 18.9453ZM91.1499 17.4766V14H92.564V20H91.1929V18.9336H91.1304C90.995 19.2695 90.7723 19.5443 90.4624 19.7578C90.1551 19.9714 89.7762 20.0781 89.3257 20.0781C88.9325 20.0781 88.5848 19.9909 88.2827 19.8164C87.9832 19.6393 87.7489 19.3828 87.5796 19.0469C87.4103 18.7083 87.3257 18.2995 87.3257 17.8203V14H88.7397V17.6016C88.7397 17.9818 88.8439 18.2839 89.0522 18.5078C89.2606 18.7318 89.534 18.8437 89.8726 18.8437C90.0809 18.8437 90.2827 18.793 90.478 18.6914C90.6733 18.5898 90.8335 18.4388 90.9585 18.2383C91.0861 18.0352 91.1499 17.7812 91.1499 17.4766ZM96.3053 20.1172C95.7063 20.1172 95.192 19.9857 94.7623 19.7227C94.3352 19.4596 94.0058 19.0964 93.774 18.6328C93.5448 18.1667 93.4303 17.6302 93.4303 17.0234C93.4303 16.4141 93.5474 15.8763 93.7818 15.4102C94.0162 14.9414 94.3469 14.5768 94.774 14.3164C95.2037 14.0534 95.7115 13.9219 96.2974 13.9219C96.7844 13.9219 97.2154 14.0117 97.5904 14.1914C97.968 14.3685 98.2688 14.6198 98.4928 14.9453C98.7167 15.2682 98.8443 15.6458 98.8756 16.0781H97.524C97.4693 15.7891 97.3391 15.5482 97.1334 15.3555C96.9303 15.1602 96.6581 15.0625 96.317 15.0625C96.0279 15.0625 95.774 15.1406 95.5553 15.2969C95.3365 15.4505 95.1659 15.6719 95.0435 15.9609C94.9237 16.25 94.8638 16.5964 94.8638 17C94.8638 17.4089 94.9237 17.7604 95.0435 18.0547C95.1633 18.3464 95.3313 18.5716 95.5474 18.7305C95.7662 18.8867 96.0227 18.9648 96.317 18.9648C96.5253 18.9648 96.7115 18.9258 96.8756 18.8477C97.0422 18.7669 97.1816 18.651 97.2935 18.5C97.4055 18.349 97.4823 18.1654 97.524 17.9492H98.8756C98.8417 18.3737 98.7167 18.75 98.5006 19.0781C98.2844 19.4036 97.9902 19.6589 97.6178 19.8437C97.2454 20.026 96.8079 20.1172 96.3053 20.1172ZM102.703 14V15.0937H99.2536V14H102.703ZM100.105 12.5625H101.519V18.1953C101.519 18.3854 101.548 18.5313 101.605 18.6328C101.665 18.7318 101.743 18.7995 101.84 18.8359C101.936 18.8724 102.043 18.8906 102.16 18.8906C102.248 18.8906 102.329 18.8841 102.402 18.8711C102.478 18.8581 102.535 18.8464 102.574 18.8359L102.812 19.9414C102.737 19.9674 102.629 19.9961 102.488 20.0273C102.35 20.0586 102.181 20.0768 101.98 20.082C101.626 20.0924 101.307 20.0391 101.023 19.9219C100.739 19.8021 100.514 19.6172 100.347 19.3672C100.183 19.1172 100.103 18.8047 100.105 18.4297V12.5625ZM106.016 20V12H107.466V15.3867H111.173V12H112.626V20H111.173V16.6016H107.466V20H106.016ZM117.634 17.4766V14H119.048V20H117.677V18.9336H117.614C117.479 19.2695 117.256 19.5443 116.946 19.7578C116.639 19.9714 116.26 20.0781 115.809 20.0781C115.416 20.0781 115.069 19.9909 114.767 19.8164C114.467 19.6393 114.233 19.3828 114.063 19.0469C113.894 18.7083 113.809 18.2995 113.809 17.8203V14H115.224V17.6016C115.224 17.9818 115.328 18.2839 115.536 18.5078C115.744 18.7318 116.018 18.8437 116.356 18.8437C116.565 18.8437 116.767 18.793 116.962 18.6914C117.157 18.5898 117.317 18.4388 117.442 18.2383C117.57 18.0352 117.634 17.7812 117.634 17.4766ZM121.586 16.4844V20H120.172V14H121.523V15.0195H121.594C121.732 14.6836 121.952 14.4167 122.254 14.2187C122.559 14.0208 122.935 13.9219 123.383 13.9219C123.797 13.9219 124.158 14.0104 124.465 14.1875C124.775 14.3646 125.014 14.6211 125.184 14.957C125.355 15.293 125.44 15.7005 125.437 16.1797V20H124.023V16.3984C124.023 15.9974 123.919 15.6836 123.711 15.457C123.505 15.2305 123.22 15.1172 122.855 15.1172C122.608 15.1172 122.388 15.1719 122.195 15.2812C122.005 15.388 121.855 15.543 121.746 15.7461C121.639 15.9492 121.586 16.1953 121.586 16.4844ZM129.541 14V15.0937H126.092V14H129.541ZM126.943 12.5625H128.357V18.1953C128.357 18.3854 128.386 18.5313 128.443 18.6328C128.503 18.7318 128.581 18.7995 128.678 18.8359C128.774 18.8724 128.881 18.8906 128.998 18.8906C129.087 18.8906 129.167 18.8841 129.24 18.8711C129.316 18.8581 129.373 18.8464 129.412 18.8359L129.65 19.9414C129.575 19.9674 129.467 19.9961 129.326 20.0273C129.188 20.0586 129.019 20.0768 128.818 20.082C128.464 20.0924 128.145 20.0391 127.861 19.9219C127.578 19.8021 127.352 19.6172 127.186 19.3672C127.022 19.1172 126.941 18.8047 126.943 18.4297V12.5625Z" fill="white"/>
</g>
<defs>
<filter id="filter0_ii_28297_62906" x="0" y="-4" width="138" height="40" filterUnits="userSpaceOnUse" color-interpolation-filters="sRGB">
<feFlood flood-opacity="0" result="BackgroundImageFix"/>
<feBlend mode="normal" in="SourceGraphic" in2="BackgroundImageFix" result="shape"/>
<feColorMatrix in="SourceAlpha" type="matrix" values="0 0 0 0 0 0 0 0 0 0 0 0 0 0 0 0 0 0 127 0" result="hardAlpha"/>
<feOffset dy="4"/>
<feGaussianBlur stdDeviation="2.5"/>
<feComposite in2="hardAlpha" operator="arithmetic" k2="-1" k3="1"/>
<feColorMatrix type="matrix" values="0 0 0 0 1 0 0 0 0 1 0 0 0 0 1 0 0 0 0.2 0"/>
<feBlend mode="normal" in2="shape" result="effect1_innerShadow_28297_62906"/>
<feColorMatrix in="SourceAlpha" type="matrix" values="0 0 0 0 0 0 0 0 0 0 0 0 0 0 0 0 0 0 127 0" result="hardAlpha"/>
<feOffset dy="-4"/>
<feGaussianBlur stdDeviation="2"/>
<feComposite in2="hardAlpha" operator="arithmetic" k2="-1" k3="1"/>
<feColorMatrix type="matrix" values="0 0 0 0 0 0 0 0 0 0 0 0 0 0 0 0 0 0 1 0"/>
<feBlend mode="normal" in2="effect1_innerShadow_28297_62906" result="effect2_innerShadow_28297_62906"/>
</filter>
<clipPath id="clip0_28297_62906">
<rect width="14" height="14" fill="white" transform="translate(31 9)"/>
</clipPath>
</defs>
</svg>
