<svg width="24" height="24" viewBox="0 0 24 24" fill="none" xmlns="http://www.w3.org/2000/svg">
<path fill-rule="evenodd" clip-rule="evenodd" d="M6.63197 1H13.993L20.2241 7.50095V20.1381C20.2241 21.7188 18.9428 23 17.3621 23H6.63197C5.05121 23 3.77002 21.7188 3.77002 20.1381V3.86195C3.77002 2.28122 5.05121 1 6.63197 1Z" fill="#FF6600"/>
<path opacity="0.302" fill-rule="evenodd" clip-rule="evenodd" d="M13.984 1V7.44756H20.224L13.984 1Z" fill="white"/>
<path d="M9.00155 17.4155H10.1137C10.1434 17.4155 10.17 17.3947 10.176 17.368L10.5022 16.1966H11.7627L12.1126 17.368C12.1215 17.3947 12.1482 17.4155 12.1779 17.4155H13.3316C13.3701 17.4155 13.3998 17.3858 13.3998 17.3502C13.3998 17.3384 13.3968 17.3295 13.3939 17.3206L11.9228 12.5813C11.9139 12.5546 11.8902 12.5368 11.8605 12.5368H10.4518C10.4221 12.5368 10.3955 12.5546 10.3895 12.5813L8.93628 17.3295C8.93036 17.3502 8.93628 17.371 8.94815 17.3888C8.96005 17.4036 8.98081 17.4155 9.00155 17.4155ZM14.417 13.5481C14.7907 13.5481 15.0606 13.296 15.0606 12.9461C15.0517 12.5872 14.7907 12.3381 14.423 12.3381C14.2361 12.3381 14.07 12.4033 13.9544 12.519C13.8476 12.6287 13.7913 12.783 13.7942 12.9461C13.7913 13.1062 13.8476 13.2545 13.9574 13.3642C14.07 13.4829 14.2332 13.5481 14.417 13.5481ZM13.8891 13.8388C13.8506 13.8388 13.8209 13.8684 13.8209 13.904V17.3502C13.8209 17.3858 13.8506 17.4155 13.8891 17.4155H14.9598C14.9953 17.4155 15.025 17.3858 15.025 17.3502V13.904C15.025 13.8684 14.9953 13.8388 14.9598 13.8388H13.8891ZM11.567 15.2623H10.695L10.953 14.337C10.9975 14.1709 11.042 13.9752 11.0865 13.7854C11.0954 13.7409 11.1043 13.6994 11.1161 13.6549C11.1725 13.8832 11.2348 14.1294 11.297 14.34L11.567 15.2623Z" fill="white"/>
</svg>
