<svg width="24" height="24" viewBox="0 0 24 24" fill="none" xmlns="http://www.w3.org/2000/svg">
<path fill-rule="evenodd" clip-rule="evenodd" d="M6.62841 1H13.9912L20.2218 7.50365V20.1336C20.2218 21.7153 18.9452 23 17.3634 23H6.62841C5.05468 23 3.77002 21.7153 3.77002 20.1336V3.85839C3.76999 2.28466 5.05468 1 6.62841 1Z" fill="#092F41"/>
<path opacity="0.302" fill-rule="evenodd" clip-rule="evenodd" d="M13.9832 1V7.44744H20.2218L13.9832 1Z" fill="white"/>
<path d="M9.34224 16.4L9.10135 15.6934H7.8729L7.63201 16.4H6.64441L8.03345 12.6745H8.93271L10.3218 16.4H9.34224ZM8.14589 14.9066H8.82836L8.48309 13.919L8.14589 14.9066ZM10.6189 16.4V12.6745H12.2087C12.5941 12.6745 12.9072 12.7869 13.1401 13.0037C13.3809 13.2204 13.4933 13.5095 13.4933 13.8708C13.4933 14.2321 13.3809 14.5212 13.1401 14.738C12.9072 14.9548 12.5941 15.0591 12.2087 15.0591H11.5744V16.4H10.6189ZM11.5743 14.2482H12.1043C12.2407 14.2482 12.3532 14.2161 12.4335 14.1518C12.5057 14.0796 12.5459 13.9913 12.5459 13.8708C12.5459 13.7504 12.5057 13.654 12.4335 13.5898C12.3532 13.5175 12.2408 13.4854 12.1043 13.4854H11.5743V14.2482ZM16.151 16.4L15.1554 14.8664L14.8422 15.2036V16.4H13.8868V12.6745H14.8422V13.9351L15.9984 12.6745H17.2349L15.8218 14.1759L17.3473 16.4H16.151Z" fill="white"/>
</svg>
