<svg width="24" height="24" viewBox="0 0 24 24" fill="none" xmlns="http://www.w3.org/2000/svg">
<path fill-rule="evenodd" clip-rule="evenodd" d="M6.60839 1H13.9712L20.2018 7.50365V20.1336C20.2018 21.7153 18.9252 23 17.3434 23H6.60839C5.03466 23 3.75 21.7153 3.75 20.1336V3.85839C3.74997 2.28466 5.03466 1 6.60839 1Z" fill="#00A1E0"/>
<path opacity="0.302" fill-rule="evenodd" clip-rule="evenodd" d="M13.9633 1V7.44744H20.2019L13.9633 1Z" fill="white"/>
<path d="M13.4413 17.4117H13.0238V16.6168H13.1121C13.3209 16.6168 13.4252 16.5044 13.4252 16.2796V15.1153C13.4252 14.9306 13.4734 14.7861 13.5537 14.6898C13.642 14.6015 13.7705 14.5212 13.9391 14.4489C13.7785 14.3846 13.6501 14.3044 13.5618 14.208C13.4734 14.1117 13.4253 13.9751 13.4253 13.7905V12.6262C13.4253 12.4014 13.3209 12.289 13.1121 12.289H13.0238V11.4941H13.4413C13.6902 11.4941 13.891 11.5744 14.0516 11.735C14.2121 11.8956 14.2925 12.0963 14.2925 12.3372V13.5817C14.2925 13.8868 14.4611 14.0394 14.7983 14.0394V14.8664C14.4611 14.8664 14.2925 15.019 14.2925 15.3321V16.5686C14.2925 16.8095 14.2121 17.0102 14.0516 17.1708C13.8909 17.3314 13.6902 17.4117 13.4413 17.4117ZM10.5106 17.4117C10.2698 17.4117 10.061 17.3314 9.90042 17.1708C9.73984 17.0102 9.65954 16.8095 9.65954 16.5686V15.3321C9.65954 15.019 9.49092 14.8664 9.15369 14.8664V14.0394C9.49092 14.0394 9.65954 13.8869 9.65954 13.5817V12.3372C9.65954 12.0963 9.73984 11.8956 9.90042 11.735C10.061 11.5744 10.2698 11.4941 10.5106 11.4941H10.9362V12.289H10.8398C10.6311 12.289 10.5267 12.4014 10.5267 12.6262V13.7905C10.5267 13.9752 10.4866 14.1117 10.3982 14.208C10.3099 14.3043 10.1815 14.3846 10.0128 14.4489C10.1815 14.5212 10.3099 14.6014 10.3982 14.6898C10.4865 14.7861 10.5267 14.9307 10.5267 15.1153V16.2796C10.5267 16.5044 10.6311 16.6168 10.8398 16.6168H10.9362V17.4117H10.5106Z" fill="white"/>
</svg>
