<svg width="24" height="24" viewBox="0 0 24 24" fill="none" xmlns="http://www.w3.org/2000/svg">
<path fill-rule="evenodd" clip-rule="evenodd" d="M6.62841 1H13.9912L20.2218 7.50365V20.1336C20.2218 21.7153 18.9452 23 17.3634 23H6.62841C5.05468 23 3.77002 21.7153 3.77002 20.1336V3.85839C3.76999 2.28466 5.05468 1 6.62841 1Z" fill="#008BF5"/>
<path opacity="0.302" fill-rule="evenodd" clip-rule="evenodd" d="M13.983 1V7.44744H20.2217L13.983 1Z" fill="white"/>
<path d="M14.513 12.1927C13.124 10.8037 10.8758 10.8037 9.48673 12.1927C8.09769 13.5818 8.09769 15.83 9.48673 17.219C10.8758 18.608 13.124 18.608 14.513 17.219C15.894 15.83 15.894 13.5818 14.513 12.1927ZM10.0648 17.1869C9.85606 17.0343 9.67138 16.8496 9.51883 16.6409C9.98451 16.2876 10.4583 15.9423 10.9239 15.589C10.9882 15.6773 11.0283 15.7175 11.1166 15.7817C10.7634 16.2475 10.4181 16.7212 10.0648 17.1869ZM12.7225 15.4285C12.321 15.83 11.6706 15.83 11.2772 15.4285C10.8758 15.027 10.8758 14.3847 11.2772 13.9832C11.6707 13.5898 12.321 13.5898 12.7225 13.9832C13.1159 14.3847 13.1159 15.027 12.7225 15.4285ZM13.0678 13.8226C13.0035 13.7343 12.9634 13.7022 12.8831 13.6379C13.2283 13.1642 13.5816 12.6985 13.9269 12.2248C14.1356 12.3773 14.3203 12.5701 14.4809 12.7788C14.0072 13.1241 13.5415 13.4774 13.0678 13.8226Z" fill="white"/>
</svg>
