<svg width="24" height="24" viewBox="0 0 24 24" fill="none" xmlns="http://www.w3.org/2000/svg">
<path d="M6.63197 1H13.993L20.2241 7.50095V20.1381C20.2241 21.7188 18.9428 23 17.3621 23H6.63197C5.05121 23 3.77002 21.7188 3.77002 20.1381V3.86195C3.77002 2.28122 5.05121 1 6.63197 1Z" fill="#0263D1"/>
<path opacity="0.302" fill-rule="evenodd" clip-rule="evenodd" d="M13.9841 1V7.44756H20.2241L13.9841 1Z" fill="white"/>
<path d="M6.42737 16.6978V13.0558H7.71748C7.97549 13.0558 8.21574 13.0944 8.43817 13.1656C8.6606 13.2397 8.86227 13.3465 9.0432 13.4888C9.2241 13.6312 9.36648 13.821 9.47027 14.0583C9.57407 14.2955 9.62746 14.5684 9.62746 14.8768C9.62746 15.1852 9.57407 15.4581 9.47027 15.6953C9.36648 15.9326 9.2241 16.1224 9.0432 16.2647C8.8623 16.4071 8.6606 16.5139 8.43817 16.588C8.21574 16.6592 7.97552 16.6978 7.71748 16.6978H6.42737ZM7.33786 15.9059H7.60774C7.75306 15.9059 7.88949 15.8881 8.01107 15.8555C8.13563 15.8199 8.24832 15.7636 8.35509 15.6894C8.46185 15.6152 8.54488 15.5085 8.6042 15.3691C8.6665 15.2327 8.69613 15.0666 8.69613 14.8768C8.69613 14.687 8.66647 14.5209 8.6042 14.3815C8.54488 14.2451 8.46185 14.1383 8.35509 14.0642C8.24832 13.9871 8.13563 13.9337 8.01107 13.8981C7.88949 13.8655 7.75306 13.8477 7.60774 13.8477H7.33786V15.9059ZM11.8369 16.7393C11.2883 16.7393 10.8345 16.5613 10.4757 16.2084C10.1168 15.8555 9.93884 15.4106 9.93884 14.8768C9.93884 14.343 10.1168 13.8981 10.4757 13.5452C10.8345 13.1923 11.2883 13.0143 11.8369 13.0143C12.3767 13.0143 12.8245 13.1923 13.1834 13.5452C13.5393 13.8981 13.7172 14.343 13.7172 14.8768C13.7172 15.4106 13.5393 15.8555 13.1834 16.2084C12.8245 16.5613 12.3767 16.7393 11.8369 16.7393ZM11.137 15.6449C11.3179 15.8466 11.5492 15.9474 11.831 15.9474C12.1127 15.9474 12.3411 15.8466 12.522 15.6449C12.7029 15.4403 12.7919 15.1852 12.7919 14.8768C12.7919 14.5684 12.7029 14.3133 12.522 14.1086C12.3411 13.907 12.1127 13.8061 11.831 13.8061C11.5492 13.8061 11.3179 13.907 11.137 14.1086C10.9561 14.3133 10.8641 14.5684 10.8641 14.8768C10.8641 15.1852 10.9561 15.4403 11.137 15.6449ZM15.8822 16.7393C15.3514 16.7393 14.9094 16.5732 14.5595 16.247C14.2066 15.9178 14.0316 15.4611 14.0316 14.8768C14.0316 14.2955 14.2096 13.8388 14.5655 13.5096C14.9243 13.1804 15.3603 13.0143 15.8822 13.0143C16.3538 13.0143 16.7393 13.1299 17.0448 13.3642C17.3473 13.5956 17.5223 13.904 17.5668 14.2896L16.6474 14.4764C16.6089 14.2747 16.5169 14.1116 16.3746 13.99C16.2322 13.8684 16.0661 13.8061 15.8763 13.8061C15.6153 13.8061 15.3988 13.8981 15.2238 14.0849C15.0488 14.2747 14.9599 14.5357 14.9599 14.8768C14.9599 15.2178 15.0488 15.4788 15.2208 15.6657C15.3958 15.8555 15.6123 15.9474 15.8763 15.9474C16.0661 15.9474 16.2292 15.894 16.3627 15.7873C16.4961 15.6805 16.5792 15.5382 16.6148 15.3602L17.5549 15.5737C17.4689 15.9415 17.2791 16.2262 16.9825 16.4308C16.6889 16.6355 16.3212 16.7393 15.8822 16.7393Z" fill="white"/>
</svg>
