<svg width="24" height="24" viewBox="0 0 24 24" fill="none" xmlns="http://www.w3.org/2000/svg">
<path fill-rule="evenodd" clip-rule="evenodd" d="M6.63513 1H13.9933L20.2258 7.50232V20.1349C20.2258 21.7163 18.9421 23 17.3607 23H6.63513C5.05374 23 3.77002 21.7163 3.77002 20.1349V3.86511C3.77002 2.28372 5.05374 1 6.63513 1Z" fill="#00733B"/>
<path opacity="0.302" fill-rule="evenodd" clip-rule="evenodd" d="M13.9839 1V7.4465H20.2257L13.9839 1Z" fill="white"/>
<path fill-rule="evenodd" clip-rule="evenodd" d="M8.61646 17.1395H11.5374V18.2465H8.61646V17.1395ZM12.449 11.4837H15.3793V12.5814H12.449V11.4837ZM8.61646 11.4837H11.5374V12.5814H8.61646V11.4837ZM12.449 13.3442H15.3793V14.4512H12.449V13.3442ZM8.61646 13.3442H11.5374V14.4512H8.61646V13.3442ZM12.449 15.2791H15.3793V16.3861H12.449V15.2791ZM8.61646 15.2791H11.5374V16.3861H8.61646V15.2791ZM12.449 17.1395H15.3793V18.2465H12.449V17.1395Z" fill="white"/>
</svg>
