<svg width="24" height="24" viewBox="0 0 24 24" fill="none" xmlns="http://www.w3.org/2000/svg">
<g clip-path="url(#clip0_12720_25198)">
<path d="M8.33818 23C10.3622 23 12.0048 21.3573 12.0048 19.3333V15.6667H8.33818C6.31418 15.6667 4.67151 17.3093 4.67151 19.3333C4.67151 21.3573 6.31418 23 8.33818 23Z" fill="#0ACF83"/>
<path d="M4.67151 12C4.67151 9.97598 6.31418 8.33331 8.33818 8.33331H12.0048V15.6666H8.33818C6.31418 15.6666 4.67151 14.024 4.67151 12Z" fill="#A259FF"/>
<path d="M4.67151 4.6667C4.67151 2.6427 6.31418 1.00003 8.33818 1.00003H12.0048V8.33336H8.33818C6.31418 8.33336 4.67151 6.6907 4.67151 4.6667Z" fill="#F24E1E"/>
<path d="M12.0049 1.00003H15.6716C17.6956 1.00003 19.3382 2.6427 19.3382 4.6667C19.3382 6.6907 17.6956 8.33336 15.6716 8.33336H12.0049V1.00003Z" fill="#FF7262"/>
<path d="M19.3382 12C19.3382 14.024 17.6956 15.6666 15.6716 15.6666C13.6476 15.6666 12.0049 14.024 12.0049 12C12.0049 9.97598 13.6476 8.33331 15.6716 8.33331C17.6956 8.33331 19.3382 9.97598 19.3382 12Z" fill="#1ABCFE"/>
</g>
<defs>
<clipPath id="clip0_12720_25198">
<rect width="14.6696" height="22" fill="white" transform="translate(4.67004 1)"/>
</clipPath>
</defs>
</svg>
