<svg width="24" height="24" viewBox="0 0 24 24" fill="none" xmlns="http://www.w3.org/2000/svg">
<path fill-rule="evenodd" clip-rule="evenodd" d="M6.63513 1H13.9933L20.2258 7.50232V20.1349C20.2258 21.7163 18.9421 23 17.3607 23H6.63513C5.05374 23 3.77002 21.7163 3.77002 20.1349V3.86511C3.77002 2.28372 5.05374 1 6.63513 1Z" fill="#0AC963"/>
<path opacity="0.302" fill-rule="evenodd" clip-rule="evenodd" d="M13.984 1V7.4465H20.2259L13.984 1Z" fill="white"/>
<path fill-rule="evenodd" clip-rule="evenodd" d="M14.7933 11.9954H9.20262C8.78403 11.9954 8.43982 12.3395 8.43982 12.7582V16.3116C8.43982 16.7302 8.784 17.0744 9.20262 17.0744H14.7933C15.2119 17.0744 15.5468 16.7303 15.5468 16.3116V12.7581C15.5468 12.3395 15.2119 11.9954 14.7933 11.9954ZM10.7282 12.9535C11.184 12.9535 11.5468 13.3256 11.5468 13.7721C11.5468 14.2279 11.184 14.6 10.7282 14.6C10.2724 14.6 9.9003 14.2279 9.9003 13.7721C9.9003 13.3256 10.2724 12.9535 10.7282 12.9535ZM15.0445 16.3116C15.0445 16.4512 14.9329 16.5721 14.7933 16.5721H9.20262C9.06308 16.5721 8.95145 16.4512 8.95145 16.3116V16.1628L9.9654 15.1489L10.8026 15.9861C10.9049 16.0884 11.0631 16.0884 11.1654 15.9861L13.2677 13.8837L15.0445 15.6605V16.3116Z" fill="white"/>
</svg>
