<svg width="24" height="24" viewBox="0 0 24 24" fill="none" xmlns="http://www.w3.org/2000/svg">
<path fill-rule="evenodd" clip-rule="evenodd" d="M6.63077 1H13.9889L20.2244 7.49923V20.1393C20.2244 21.715 18.9394 23 17.3636 23H6.63077C5.04823 23 3.77002 21.715 3.77002 20.1393V3.86075C3.77002 2.27821 5.04823 1 6.63077 1Z" fill="#008BF5"/>
<path opacity="0.302" fill-rule="evenodd" clip-rule="evenodd" d="M13.9822 1V7.44514H20.2245L13.9822 1Z" fill="white"/>
<path d="M7.45593 16.9809V12.984H8.47714V16.9809H7.45593ZM10.506 17.0283C10.107 17.0283 9.74857 16.8998 9.451 16.6563C9.14668 16.4061 8.98435 16.1017 8.9573 15.7433L9.83649 15.4864C9.85678 15.6825 9.93117 15.8448 10.0732 15.9733C10.2152 16.1018 10.3775 16.1694 10.5534 16.1694C10.7022 16.1694 10.8239 16.1356 10.9118 16.0748C11.0065 16.0071 11.0471 15.9192 11.0471 15.8178C11.0471 15.7299 11.0133 15.6555 10.9389 15.5946C10.8712 15.5337 10.7766 15.4796 10.6616 15.4458C10.5399 15.4052 10.4114 15.3714 10.2693 15.3308C10.1273 15.2902 9.98529 15.2429 9.84327 15.182C9.70801 15.1212 9.57951 15.0468 9.45779 14.9656C9.34282 14.8844 9.24814 14.7627 9.18051 14.6139C9.10613 14.4651 9.0723 14.2893 9.0723 14.0864C9.0723 13.7618 9.20756 13.4845 9.49161 13.2681C9.76889 13.0517 10.107 12.9367 10.4993 12.9367C10.8916 12.9367 11.2365 13.0381 11.5273 13.2275C11.8181 13.4169 12.0007 13.6671 12.0683 13.9714L11.1553 14.3569C11.1148 14.1811 11.0404 14.0458 10.9254 13.9444C10.8104 13.843 10.6684 13.7956 10.4993 13.7956C10.3708 13.7956 10.2694 13.8226 10.195 13.87C10.1206 13.9241 10.0868 13.9917 10.0868 14.0796C10.0868 14.1676 10.1341 14.2352 10.2356 14.2893C10.3303 14.3366 10.4588 14.3772 10.6008 14.4042C10.7496 14.4313 10.9051 14.4719 11.081 14.526C11.25 14.5801 11.4056 14.6545 11.5544 14.7356C11.7032 14.8235 11.8249 14.952 11.9263 15.1346C12.021 15.3172 12.0684 15.5337 12.0684 15.7839C12.0684 16.1558 11.9263 16.4534 11.6423 16.6834C11.3514 16.9133 10.9727 17.0283 10.506 17.0283ZM14.4759 17.0283C13.874 17.0283 13.3735 16.8321 12.9813 16.4399C12.5891 16.0544 12.3929 15.5675 12.3929 14.9859C12.3929 14.3975 12.5891 13.9105 12.9813 13.5251C13.3735 13.1328 13.874 12.9367 14.4759 12.9367C15.0643 12.9367 15.558 13.1328 15.9502 13.5251C16.3425 13.9105 16.5386 14.3975 16.5386 14.9859C16.5386 15.5675 16.3425 16.0544 15.9502 16.4399C15.558 16.8322 15.0643 17.0283 14.4759 17.0283ZM13.7049 15.8245C13.9078 16.0477 14.1581 16.1559 14.4692 16.1559C14.7735 16.1559 15.0305 16.0477 15.2266 15.8245C15.4228 15.6013 15.5242 15.324 15.5242 14.9859C15.5242 14.641 15.4228 14.3637 15.2266 14.1405C15.0305 13.9173 14.7735 13.8091 14.4692 13.8091C14.1581 13.8091 13.9078 13.9173 13.7049 14.1405C13.5088 14.3637 13.4074 14.641 13.4074 14.9859C13.4074 15.324 13.5088 15.6013 13.7049 15.8245Z" fill="white"/>
</svg>
