<svg width="24" height="24" viewBox="0 0 24 24" fill="none" xmlns="http://www.w3.org/2000/svg">
<path fill-rule="evenodd" clip-rule="evenodd" d="M6.63513 1H13.9933L20.2258 7.50232V20.1349C20.2258 21.7163 18.9421 23 17.3607 23H6.63513C5.05374 23 3.77002 21.7163 3.77002 20.1349V3.86511C3.77002 2.28372 5.05374 1 6.63513 1Z" fill="#60A313"/>
<path opacity="0.302" fill-rule="evenodd" clip-rule="evenodd" d="M13.9839 1V7.4465H20.2258L13.9839 1Z" fill="white"/>
<path d="M9.35136 17.6233C9.22114 17.6233 9.1095 17.6047 9.00718 17.5581C8.89555 17.5209 8.80254 17.4558 8.71882 17.3721C8.63509 17.2884 8.56999 17.1954 8.52346 17.0837C8.48624 16.9814 8.46764 16.8698 8.46764 16.7395V15.5396C8.46764 15.4093 8.43042 15.3163 8.36532 15.2512C8.29091 15.1954 8.18859 15.1582 8.03974 15.1582H7.97461V14.2279H8.03974C8.18856 14.2279 8.29091 14.2 8.36532 14.1349C8.43045 14.0698 8.46764 13.9768 8.46764 13.8465V12.6465C8.46764 12.5256 8.48624 12.4047 8.52346 12.3023C8.56996 12.2 8.63509 12.0977 8.71882 12.014C8.80254 11.9303 8.89555 11.8652 9.00718 11.8279C9.1095 11.7814 9.22114 11.7628 9.35136 11.7628H9.82577V12.6651H9.66764C9.58391 12.6651 9.5281 12.6837 9.4909 12.7209C9.45368 12.7674 9.43509 12.8326 9.43509 12.9256V14.0512C9.43509 14.1442 9.41649 14.2372 9.39787 14.3116C9.36996 14.386 9.33274 14.4512 9.28624 14.507C9.23973 14.5535 9.18392 14.6 9.11879 14.6465L9.02575 14.693L9.11879 14.7395C9.18392 14.786 9.2397 14.8326 9.28624 14.8791C9.38856 14.9814 9.43506 15.1395 9.43506 15.3349V16.4698C9.43506 16.5535 9.45366 16.6279 9.49088 16.6651C9.5281 16.7024 9.58391 16.7303 9.66761 16.7303H9.82575V17.6233L9.35136 17.6233ZM14.6444 17.6233H14.17V16.7302H14.3281C14.4025 16.7302 14.4677 16.7023 14.5049 16.6651C14.5421 16.6279 14.5607 16.5535 14.5607 16.4697V15.3349C14.5607 15.2419 14.57 15.1488 14.5979 15.0744C14.6165 15 14.6537 14.9349 14.7002 14.8791C14.7467 14.8326 14.8025 14.786 14.877 14.7395L14.9607 14.693L14.877 14.6465C14.8118 14.6 14.756 14.5535 14.7095 14.507C14.6537 14.4512 14.6165 14.3861 14.5979 14.3116C14.57 14.2372 14.5607 14.1442 14.5607 14.0512V12.9256C14.5607 12.8325 14.5421 12.7674 14.5048 12.7209C14.4676 12.6837 14.4025 12.6651 14.3281 12.6651H14.17V11.7628H14.6444C14.7653 11.7628 14.8862 11.7814 14.9886 11.8279C15.1002 11.8652 15.1932 11.9303 15.2769 12.014C15.3606 12.0977 15.4257 12.1907 15.463 12.3023C15.5095 12.4047 15.5281 12.5256 15.5281 12.6465V13.8465C15.5281 13.9768 15.5653 14.0698 15.6304 14.1349C15.6955 14.2 15.8071 14.2279 15.956 14.2279H16.0211V15.1582H15.956C15.8072 15.1582 15.6955 15.1954 15.6304 15.2512C15.5653 15.3163 15.5281 15.4093 15.5281 15.5396V16.7395C15.5281 16.9907 15.4444 17.2047 15.2769 17.3721C15.1932 17.4558 15.1002 17.5209 14.9886 17.5581C14.8863 17.6047 14.7653 17.6233 14.6444 17.6233ZM11.7607 13.5582H12.7746V14.6H11.6955V13.5582H11.7607ZM11.2025 17.4186L11.6304 15.6512H12.8397C12.5235 16.2651 12.2165 16.8791 11.9095 17.5024H11.1839L11.2025 17.4186Z" fill="white"/>
</svg>
