<svg width="24" height="24" viewBox="0 0 24 24" fill="none" xmlns="http://www.w3.org/2000/svg">
<path fill-rule="evenodd" clip-rule="evenodd" d="M6.62841 1H13.9912L20.2218 7.50365V20.1336C20.2218 21.7153 18.9452 23 17.3634 23H6.62841C5.05468 23 3.77002 21.7153 3.77002 20.1336V3.85839C3.76999 2.28466 5.05468 1 6.62841 1Z" fill="#E0C600"/>
<path opacity="0.302" fill-rule="evenodd" clip-rule="evenodd" d="M13.9832 1V7.44744H20.2218L13.9832 1Z" fill="white"/>
<path d="M9.03717 15.9423C9.12548 15.9584 9.21382 15.9664 9.30213 15.9664C9.67147 15.9664 9.85615 15.7898 9.85615 15.4445V12.4577H10.9321V15.5088C10.9321 15.9825 10.8116 16.3438 10.5708 16.5927C10.3379 16.8336 10.0087 16.9621 9.59119 16.9621C9.42258 16.9621 9.23789 16.946 9.03717 16.9059V15.9423ZM13.2124 16.9781C12.7627 16.9781 12.3613 16.8416 12.024 16.5686C11.6868 16.2876 11.5021 15.9503 11.478 15.5409L12.4576 15.2598C12.4817 15.4766 12.57 15.6613 12.7226 15.8058C12.8832 15.9503 13.0598 16.0226 13.2605 16.0226C13.4291 16.0226 13.5576 15.9825 13.662 15.9102C13.7664 15.8379 13.8145 15.7496 13.8145 15.6292C13.8145 15.5328 13.7744 15.4445 13.6941 15.3803C13.6138 15.308 13.5094 15.2518 13.381 15.2117C13.2525 15.1715 13.108 15.1233 12.9474 15.0832C12.7868 15.043 12.6262 14.9868 12.4656 14.9146C12.3131 14.8503 12.1686 14.77 12.0401 14.6737C11.9116 14.5854 11.8072 14.4489 11.7189 14.2802C11.6386 14.1116 11.5985 13.9189 11.5985 13.6941C11.5985 13.3248 11.7591 13.0196 12.0722 12.7788C12.3853 12.5299 12.7627 12.4094 13.2043 12.4094C13.6379 12.4094 14.0233 12.5138 14.3525 12.7306C14.6737 12.9394 14.8744 13.2204 14.9547 13.5657L13.935 13.9912C13.8868 13.7985 13.8065 13.6459 13.6781 13.5335C13.5496 13.4211 13.389 13.3649 13.2043 13.3649C13.0598 13.3649 12.9474 13.397 12.8591 13.4532C12.7788 13.5094 12.7386 13.5897 12.7386 13.6861C12.7386 13.7824 12.7948 13.8547 12.9073 13.9189C13.0116 13.9751 13.1481 14.0233 13.3167 14.0474C13.4773 14.0715 13.654 14.1197 13.8467 14.1839C14.0393 14.2481 14.216 14.3284 14.3846 14.4167C14.5452 14.5131 14.6817 14.6656 14.7941 14.8664C14.9065 15.0671 14.9547 15.308 14.9547 15.597C14.9547 16.0065 14.7941 16.3437 14.4729 16.6007C14.1518 16.8496 13.7343 16.9781 13.2124 16.9781Z" fill="white"/>
</svg>
