<svg width="24" height="24" viewBox="0 0 24 24" fill="none" xmlns="http://www.w3.org/2000/svg">
<path fill-rule="evenodd" clip-rule="evenodd" d="M6.63055 1H13.9935L20.2266 7.4997V20.1394C20.2266 21.7178 18.9445 23 17.3619 23H6.63057C5.05218 23 3.77002 21.7178 3.77002 20.1394V3.86056C3.76999 2.28216 5.05215 1 6.63055 1Z" fill="#0067BD"/>
<path opacity="0.302" fill-rule="evenodd" clip-rule="evenodd" d="M13.985 1V7.44895H20.2266L13.985 1Z" fill="white"/>
<path d="M13.1979 14.7442L15.6903 16.3183V13.1066L13.1979 14.7442ZM12.779 15.0235L12.1231 15.4551C12.085 15.4805 12.0427 15.4932 11.9961 15.4932C11.9538 15.4932 11.9073 15.4805 11.8692 15.4551L11.2175 15.0235L8.31889 16.8557C8.35697 17.0758 8.53893 17.245 8.76745 17.245H15.2291C15.4576 17.245 15.6395 17.0758 15.6734 16.8557L12.779 15.0235ZM15.2291 12.1671H8.76745C8.5347 12.1671 8.35275 12.3406 8.31889 12.5607L11.9961 14.9854L15.6734 12.5607C15.6395 12.3407 15.4576 12.1671 15.2291 12.1671ZM8.30621 13.1066V16.3183L10.7944 14.7442L8.30621 13.1066Z" fill="white"/>
</svg>
