<svg width="24" height="24" viewBox="0 0 24 24" fill="none" xmlns="http://www.w3.org/2000/svg">
<path fill-rule="evenodd" clip-rule="evenodd" d="M6.63077 1H13.9889L20.2244 7.49923V20.1393C20.2244 21.715 18.9394 23 17.3636 23H6.63077C5.04823 23 3.77002 21.715 3.77002 20.1393V3.86075C3.77002 2.27821 5.04823 1 6.63077 1Z" fill="#9900CC"/>
<path opacity="0.302" fill-rule="evenodd" clip-rule="evenodd" d="M13.9821 1V7.44514H20.2243L13.9821 1Z" fill="white"/>
<path d="M13.9618 15.4593C14.1714 15.1076 14.3135 14.6613 14.3405 14.2216C14.354 13.9376 14.2932 13.64 14.1579 13.3627C13.9415 12.9232 13.5763 12.6797 13.2178 12.4362C12.9541 12.2604 12.7038 12.0913 12.528 11.8546L12.4942 11.814C12.3927 11.672 12.271 11.5097 12.2507 11.3744C12.2372 11.2392 12.1087 11.1445 11.9802 11.1512C11.8382 11.1648 11.7367 11.273 11.7367 11.415V16.0544C11.5203 15.9192 11.2498 15.838 10.9522 15.838C10.2353 15.838 9.65369 16.3047 9.65369 16.8795C9.65369 17.4543 10.2353 17.921 10.9522 17.921C11.6691 17.921 12.2575 17.4543 12.2575 16.8795V13.8429C12.6497 13.9985 13.2854 14.3772 13.4613 15.2631C13.4275 15.3105 13.4004 15.3646 13.3598 15.4052C13.2651 15.5134 13.2787 15.6757 13.3869 15.7771C13.4951 15.8718 13.6574 15.8583 13.7521 15.7501C13.8197 15.6689 13.8873 15.581 13.9414 15.4795C13.9482 15.4728 13.955 15.466 13.9618 15.4593Z" fill="white"/>
</svg>
