<svg width="24" height="24" viewBox="0 0 24 24" fill="none" xmlns="http://www.w3.org/2000/svg">
<path fill-rule="evenodd" clip-rule="evenodd" d="M6.63408 1H13.9894L20.2233 7.49776V20.1359C20.2233 21.7191 18.9424 23 17.3647 23H6.63408C5.05087 23 3.77002 21.7191 3.77002 20.1359V3.86406C3.76999 2.28086 5.05085 1 6.63408 1Z" fill="#E5252A"/>
<path opacity="0.302" fill-rule="evenodd" clip-rule="evenodd" d="M13.984 1V7.44828H20.2234L13.984 1Z" fill="white"/>
<path d="M6.953 17.4148V13.3963H8.66265C9.08595 13.3963 9.42129 13.5117 9.67416 13.7481C9.92703 13.979 10.0535 14.2924 10.0535 14.6827C10.0535 15.073 9.92703 15.3863 9.67416 15.6172C9.42129 15.8536 9.08595 15.969 8.66265 15.969H7.98099V17.4148H6.953ZM7.98099 15.095H8.54721C8.70113 15.095 8.82207 15.062 8.90454 14.985C8.98699 14.9136 9.03099 14.8146 9.03099 14.6827C9.03099 14.5508 8.98702 14.4518 8.90454 14.3803C8.8221 14.3034 8.70115 14.2704 8.54721 14.2704H7.98099V15.095ZM10.4767 17.4148V13.3963H11.9005C12.1809 13.3963 12.4448 13.4348 12.6921 13.5172C12.9395 13.5997 13.1649 13.7152 13.3628 13.8746C13.5607 14.0285 13.7201 14.2374 13.8356 14.5013C13.9455 14.7651 14.006 15.0675 14.006 15.4083C14.006 15.7436 13.9455 16.046 13.8356 16.3098C13.7201 16.5737 13.5607 16.7826 13.3628 16.9365C13.1649 17.0959 12.9395 17.2114 12.6921 17.2938C12.4448 17.3763 12.1809 17.4148 11.9005 17.4148H10.4767ZM11.4827 16.5407H11.7796C11.939 16.5407 12.0874 16.5243 12.2249 16.4858C12.3568 16.4473 12.4832 16.3868 12.6042 16.3044C12.7196 16.2219 12.8131 16.1064 12.879 15.9525C12.945 15.7986 12.978 15.6172 12.978 15.4083C12.978 15.1939 12.945 15.0125 12.879 14.8586C12.8131 14.7047 12.7196 14.5892 12.6042 14.5068C12.4832 14.4243 12.3568 14.3638 12.2249 14.3254C12.0874 14.2869 11.939 14.2704 11.7796 14.2704H11.4827V16.5407ZM14.5227 17.4148V13.3963H17.3813V14.2704H15.5507V14.9135H17.013V15.7821H15.5507V17.4148H14.5227Z" fill="white"/>
</svg>
