<svg width="24" height="24" viewBox="0 0 24 24" fill="none" xmlns="http://www.w3.org/2000/svg">
<path fill-rule="evenodd" clip-rule="evenodd" d="M6.63513 1H13.9933L20.2258 7.50232V20.1349C20.2258 21.7163 18.9421 23 17.3607 23H6.63513C5.05374 23 3.77002 21.7163 3.77002 20.1349V3.86511C3.77002 2.28372 5.05374 1 6.63513 1Z" fill="#7542ED"/>
<path opacity="0.302" fill-rule="evenodd" clip-rule="evenodd" d="M13.9839 1V7.4465H20.2257L13.9839 1Z" fill="white"/>
<path d="M8.59784 16.786C8.54202 16.7581 8.48621 16.7302 8.44902 16.6837L6.66298 14.8977C6.61647 14.8605 6.58857 14.8046 6.56066 14.7489C6.54206 14.693 6.52344 14.6372 6.52344 14.5721C6.52344 14.507 6.54203 14.4512 6.56066 14.3954C6.58857 14.3396 6.61647 14.2838 6.66298 14.2466L8.44902 12.4605C8.48624 12.414 8.54205 12.3861 8.59784 12.3582C8.65366 12.3396 8.70947 12.321 8.77457 12.321C8.9048 12.321 9.01643 12.3768 9.10016 12.4605C9.1932 12.5443 9.2397 12.6652 9.2397 12.7861C9.2397 12.8512 9.23039 12.907 9.20248 12.9722C9.18388 13.028 9.14666 13.0745 9.10016 13.121L7.64899 14.5722L9.10016 16.0233C9.14666 16.0698 9.18388 16.1164 9.20248 16.1721C9.23039 16.2373 9.2397 16.2931 9.2397 16.3582C9.2397 16.4791 9.1932 16.6001 9.10016 16.6838C9.01643 16.7675 8.9048 16.8233 8.77457 16.8233C8.70947 16.8233 8.65366 16.8046 8.59784 16.786ZM11.1374 13.7163C11.0537 13.8 10.9328 13.8465 10.8118 13.8465C10.6816 13.8465 10.5606 13.8 10.4769 13.7163C10.3932 13.6326 10.3467 13.5116 10.3467 13.3814C10.3467 12.9256 10.5234 12.5163 10.8304 12.2186C11.1281 11.9116 11.5374 11.7349 11.9932 11.7349C12.449 11.7349 12.8676 11.9116 13.1653 12.2186C13.463 12.5163 13.649 12.9256 13.649 13.3814C13.649 13.7814 13.5095 14.1442 13.2769 14.4326C13.0723 14.6838 12.7932 14.8791 12.4583 14.9721V15.7628C12.4583 15.8838 12.4118 16.0047 12.3281 16.0884C12.2444 16.1721 12.1235 16.228 11.9932 16.228C11.8723 16.228 11.7513 16.1721 11.6676 16.0884C11.5839 16.0047 11.5281 15.8838 11.5281 15.7628V14.5721C11.5281 14.4419 11.5839 14.3303 11.6676 14.2465C11.7513 14.1628 11.8723 14.107 11.9932 14.107C12.1979 14.107 12.3746 14.0233 12.5048 13.893C12.6351 13.7628 12.7188 13.5861 12.7188 13.3814C12.7188 13.1861 12.6351 13 12.5048 12.8698C12.3746 12.7396 12.1979 12.6651 11.9932 12.6651C11.7979 12.6651 11.6118 12.7396 11.4816 12.8698C11.3513 13 11.2769 13.1861 11.2769 13.3814C11.2769 13.5116 11.2211 13.6326 11.1374 13.7163ZM12.3281 16.6186C12.4118 16.7023 12.4583 16.8232 12.4583 16.9442C12.4583 17.0744 12.4118 17.1954 12.3281 17.2791C12.2444 17.3628 12.1234 17.4093 11.9932 17.4093C11.8723 17.4093 11.7513 17.3628 11.6676 17.2791C11.5839 17.1953 11.5281 17.0744 11.5281 16.9442C11.5281 16.8233 11.5839 16.7023 11.6676 16.6186C11.7513 16.5349 11.8722 16.4791 11.9932 16.4791C12.1234 16.4791 12.2444 16.5349 12.3281 16.6186ZM15.0444 16.786C14.9792 16.7581 14.9327 16.7302 14.8862 16.6837C14.849 16.6372 14.8118 16.5907 14.7839 16.5349C14.7653 16.4791 14.756 16.414 14.756 16.3582C14.756 16.293 14.7653 16.2279 14.7839 16.1721C14.8118 16.1163 14.849 16.0698 14.8862 16.0233L16.3374 14.5721L14.8862 13.121C14.849 13.0745 14.8118 13.0279 14.7839 12.9721C14.7653 12.9163 14.756 12.8512 14.756 12.7861C14.756 12.6652 14.8025 12.5442 14.8862 12.4605C14.97 12.3768 15.0909 12.321 15.2211 12.321C15.2769 12.321 15.342 12.3396 15.3979 12.3582C15.4537 12.3861 15.5095 12.414 15.5467 12.4605L17.3327 14.2465C17.3699 14.2838 17.4071 14.3396 17.4257 14.3954C17.4536 14.4512 17.463 14.507 17.463 14.5721C17.463 14.6372 17.4536 14.693 17.435 14.7488C17.4071 14.8046 17.3699 14.8605 17.3327 14.8977L15.5467 16.6837C15.5095 16.7302 15.4537 16.7581 15.3979 16.786C15.342 16.8046 15.2769 16.8232 15.2211 16.8232C15.156 16.8233 15.1002 16.8046 15.0444 16.786Z" fill="white"/>
</svg>
