<svg width="24" height="24" viewBox="0 0 24 24" fill="none" xmlns="http://www.w3.org/2000/svg">
<path fill-rule="evenodd" clip-rule="evenodd" d="M6.63077 1H13.9889L20.2244 7.49923V20.1393C20.2244 21.715 18.9394 23 17.3636 23H6.63077C5.04823 23 3.77002 21.715 3.77002 20.1393V3.86075C3.77002 2.27821 5.04823 1 6.63077 1Z" fill="#E03303"/>
<path opacity="0.302" fill-rule="evenodd" clip-rule="evenodd" d="M13.9823 1V7.44514H20.2245L13.9823 1Z" fill="white"/>
<path d="M11.7234 11.9087C10.0732 11.9899 8.76119 13.3627 8.78148 15.0332C8.80853 16.6969 10.1611 18.0563 11.8248 18.0766C13.502 18.1036 14.8749 16.7916 14.9493 15.1414C14.9561 15.0603 14.8884 14.9926 14.8073 14.9926H12.0142C11.933 14.9926 11.8654 14.925 11.8654 14.8506V12.0507C11.8654 11.9696 11.8045 11.9087 11.7234 11.9087ZM12.4673 11.4556V14.2487C12.4673 14.3299 12.5282 14.3907 12.6093 14.3907H15.4092C15.4904 14.3907 15.5512 14.3231 15.5512 14.2419C15.4768 12.6594 14.2054 11.3879 12.6161 11.3135C12.5349 11.3068 12.4673 11.3744 12.4673 11.4556Z" fill="white"/>
</svg>
