<svg width="24" height="24" viewBox="0 0 24 24" fill="none" xmlns="http://www.w3.org/2000/svg">
<path fill-rule="evenodd" clip-rule="evenodd" d="M6.63408 1H13.9894L20.2233 7.49776V20.1359C20.2233 21.7191 18.9424 23 17.3647 23H6.63408C5.05087 23 3.77002 21.7191 3.77002 20.1359V3.86406C3.76999 2.28086 5.05085 1 6.63408 1Z" fill="#E03303"/>
<path opacity="0.302" fill-rule="evenodd" clip-rule="evenodd" d="M13.9838 1V7.44828H20.2232L13.9838 1Z" fill="white"/>
<path d="M7.22766 16.7386V12.7421H8.9263C9.34409 12.7421 9.67943 12.8576 9.9323 13.094C10.1797 13.3248 10.3061 13.6327 10.3061 14.023C10.3061 14.4078 10.1797 14.7211 9.9323 14.952C9.67943 15.1829 9.34409 15.2983 8.9263 15.2983H8.24464V16.7386H7.22766ZM8.24467 14.4298H8.81089C8.9648 14.4298 9.08024 14.3968 9.16822 14.3253C9.25067 14.2539 9.28917 14.1494 9.28917 14.023C9.28917 13.8911 9.25069 13.7921 9.16822 13.7206C9.08027 13.6492 8.96483 13.6107 8.81089 13.6107H8.24467V14.4298ZM10.7349 16.7386V12.7421H12.4336C12.8513 12.7421 13.1867 12.8576 13.4396 13.094C13.6924 13.3248 13.8134 13.6327 13.8134 14.023C13.8134 14.4078 13.6924 14.7211 13.4396 14.952C13.1867 15.1829 12.8513 15.2983 12.4336 15.2983H11.7574V16.7386H10.7349ZM11.7574 14.4298H12.3181C12.472 14.4298 12.593 14.3968 12.6754 14.3253C12.7579 14.2539 12.8019 14.1494 12.8019 14.023C12.8019 13.8911 12.7579 13.7921 12.6754 13.7206C12.593 13.6492 12.4721 13.6107 12.3181 13.6107H11.7574V14.4298ZM15.2811 16.7386V13.6107H14.1432V12.7421H17.4471V13.6107H16.3036V16.7386H15.2811Z" fill="white"/>
</svg>
