<svg width="24" height="24" viewBox="0 0 24 24" fill="none" xmlns="http://www.w3.org/2000/svg">
<path fill-rule="evenodd" clip-rule="evenodd" d="M6.63055 1H13.9935L20.2266 7.4997V20.1394C20.2266 21.7178 18.9445 23 17.3619 23H6.63057C5.05218 23 3.77002 21.7178 3.77002 20.1394V3.86056C3.76999 2.28216 5.05215 1 6.63055 1Z" fill="#0505DD"/>
<path fill-rule="evenodd" clip-rule="evenodd" d="M9.9312 17.2747V15.6244C10.0201 15.6328 10.1216 15.6371 10.2359 15.6371C10.9299 15.6371 11.4884 15.4551 11.8524 15.1081C12.1528 14.8246 12.3178 14.3972 12.3178 13.9106C12.3178 13.4409 12.1232 13.0135 11.7762 12.7384C11.4377 12.4676 10.9426 12.3364 10.2571 12.3364C9.66465 12.3364 9.16531 12.3703 8.76753 12.438C8.7379 12.4464 8.71252 12.4719 8.71252 12.5057V17.2747C8.71252 17.3128 8.74216 17.3424 8.78024 17.3424H9.86351C9.90157 17.3424 9.9312 17.3127 9.9312 17.2747ZM14.2813 15.0658C13.8369 14.9092 13.7608 14.8373 13.7608 14.7272C13.7608 14.5368 13.9808 14.5114 14.1077 14.5114C14.387 14.5114 14.6748 14.613 14.8356 14.7018C14.8567 14.7103 14.8779 14.7145 14.8948 14.7061C14.916 14.6976 14.9287 14.6807 14.9329 14.6595L15.1276 13.9063C15.136 13.8767 15.1233 13.8428 15.0937 13.8301C14.8906 13.7286 14.5182 13.6228 14.0739 13.6228C13.1937 13.6228 12.5801 14.1221 12.5801 14.8373C12.5717 15.1843 12.7494 15.6624 13.6211 15.9544C14.0443 16.0983 14.0908 16.1702 14.0908 16.2929C14.0908 16.3479 14.0908 16.5215 13.693 16.5215C13.3926 16.5215 12.9906 16.3861 12.7875 16.2633C12.7705 16.2549 12.7494 16.2506 12.7282 16.2591C12.7071 16.2676 12.6944 16.2845 12.6902 16.3057L12.4955 17.0885C12.487 17.1181 12.4997 17.1477 12.5294 17.1647C12.8256 17.3213 13.2487 17.4143 13.693 17.4143C14.6705 17.4143 15.2799 16.9531 15.2799 16.2126C15.2715 15.654 14.9668 15.3027 14.2813 15.0658ZM9.9312 14.6469V13.3266C9.99891 13.3139 10.1216 13.297 10.3163 13.297C10.8156 13.297 11.1033 13.5339 11.1033 13.9402C11.1033 14.393 10.7775 14.6638 10.2274 14.6638C10.0962 14.6638 10.0031 14.6553 9.9312 14.6469Z" fill="white"/>
<path opacity="0.302" fill-rule="evenodd" clip-rule="evenodd" d="M13.985 1V7.44895H20.2266L13.985 1Z" fill="white"/>
</svg>
