<svg width="24" height="24" viewBox="0 0 24 24" fill="none" xmlns="http://www.w3.org/2000/svg">
<path fill-rule="evenodd" clip-rule="evenodd" d="M6.63197 1H13.993L20.2241 7.50095V20.1381C20.2241 21.7188 18.9428 23 17.3621 23H6.63197C5.05121 23 3.77002 21.7188 3.77002 20.1381V3.86195C3.77002 2.28122 5.05121 1 6.63197 1Z" fill="#FA0000"/>
<path opacity="0.302" fill-rule="evenodd" clip-rule="evenodd" d="M13.9841 1V7.44756H20.224L13.9841 1Z" fill="white"/>
<path d="M14.162 14.6484C14.162 14.515 14.0612 14.4112 13.9248 14.4112C13.7884 14.4112 13.6845 14.515 13.6845 14.6484C13.6845 15.5827 12.9283 16.3389 11.997 16.3389C11.0658 16.3389 10.3095 15.5826 10.3095 14.6484C10.3095 14.515 10.2057 14.4112 10.0693 14.4112C9.93583 14.4112 9.83203 14.515 9.83203 14.6484C9.83203 15.7577 10.6595 16.6889 11.7598 16.8075V17.4451H10.8908C10.7543 17.4451 10.6505 17.5489 10.6505 17.6824C10.6505 17.8189 10.7543 17.9226 10.8908 17.9226H13.1032C13.2397 17.9226 13.3435 17.8189 13.3435 17.6824C13.3435 17.549 13.2397 17.4451 13.1032 17.4451H12.2372V16.8075C13.3346 16.6889 14.162 15.7576 14.162 14.6484ZM11.997 11.1548C11.2645 11.1548 10.6683 11.7509 10.6683 12.4834V14.6425C10.6683 15.381 11.2644 15.9712 11.997 15.9801C12.7295 15.9801 13.3286 15.381 13.3286 14.6484V12.4834C13.3286 11.7509 12.7295 11.1548 11.997 11.1548Z" fill="white"/>
</svg>
