<svg width="24" height="24" viewBox="0 0 24 24" fill="none" xmlns="http://www.w3.org/2000/svg">
<path fill-rule="evenodd" clip-rule="evenodd" d="M6.63408 1H13.9894L20.2233 7.49776V20.1359C20.2233 21.7191 18.9424 23 17.3647 23H6.63408C5.05087 23 3.77002 21.7191 3.77002 20.1359V3.86406C3.76999 2.28086 5.05085 1 6.63408 1Z" fill="#FF9100"/>
<path opacity="0.302" fill-rule="evenodd" clip-rule="evenodd" d="M13.9839 1V7.44828H20.2233L13.9839 1Z" fill="white"/>
<path d="M8.11836 17.0245C7.71155 17.0245 7.35973 16.9035 7.05738 16.6562C6.75503 16.4088 6.59011 16.101 6.56262 15.7436L7.44217 15.4853C7.46416 15.6832 7.54113 15.8481 7.68406 15.9745C7.82149 16.1064 7.98641 16.1669 8.16234 16.1669C8.31077 16.1669 8.43169 16.1394 8.51967 16.0735C8.61312 16.0075 8.65709 15.9196 8.65709 15.8151C8.65709 15.7271 8.6241 15.6557 8.55263 15.5952C8.47566 15.5347 8.38221 15.4853 8.26677 15.4468C8.15133 15.4083 8.02488 15.3698 7.88195 15.3313C7.73902 15.2928 7.59608 15.2434 7.45315 15.1829C7.31572 15.1224 7.1838 15.051 7.06833 14.963C6.95289 14.8805 6.85944 14.7651 6.78797 14.6167C6.71651 14.4627 6.67804 14.2868 6.67804 14.0889C6.67804 13.7591 6.82097 13.4842 7.09582 13.2698C7.37618 13.0499 7.717 12.94 8.1128 12.94C8.5031 12.94 8.84395 13.0335 9.13528 13.2259C9.42665 13.4183 9.60806 13.6656 9.67952 13.9735L8.76698 14.3528C8.723 14.1824 8.64603 14.0505 8.53609 13.946C8.42065 13.847 8.27772 13.7976 8.1128 13.7976C7.98088 13.7976 7.88192 13.8196 7.80495 13.8745C7.73349 13.924 7.69501 13.9955 7.69501 14.0834C7.69501 14.1659 7.74449 14.2319 7.84345 14.2868C7.94241 14.3418 8.06335 14.3803 8.21176 14.4023C8.36019 14.4298 8.51411 14.4682 8.69003 14.5287C8.86046 14.5837 9.01987 14.6552 9.1628 14.7376C9.31124 14.82 9.43216 14.952 9.53111 15.1334C9.63007 15.3148 9.67955 15.5347 9.67955 15.7876C9.67955 16.1559 9.53662 16.4528 9.25075 16.6836C8.96495 16.909 8.58563 17.0245 8.11836 17.0245ZM14.1598 16.8486L13.5332 17.4148L12.9944 16.8376C12.7086 16.9641 12.4062 17.0245 12.0819 17.0245C11.4827 17.0245 10.9824 16.8321 10.5921 16.4418C10.1963 16.057 9.99841 15.5677 9.99841 14.985C9.99841 14.3968 10.1963 13.9076 10.5921 13.5228C10.9824 13.1325 11.4827 12.9401 12.0819 12.9401C12.6756 12.9401 13.1703 13.1325 13.5606 13.5228C13.9509 13.9076 14.1489 14.3968 14.1489 14.985C14.1489 15.5018 13.9894 15.947 13.6761 16.3209L14.1598 16.8486ZM12.0764 16.1559C12.1588 16.1559 12.2468 16.1504 12.3348 16.1284L11.7521 15.5017L12.3898 14.93L12.9944 15.5897C13.0879 15.3973 13.1319 15.1939 13.1319 14.985C13.1319 14.6442 13.0329 14.3638 12.835 14.1384C12.6371 13.9185 12.3842 13.8086 12.0764 13.8086C11.7685 13.8086 11.5157 13.9185 11.3123 14.1384C11.1144 14.3638 11.0154 14.6441 11.0154 14.985C11.0154 15.3203 11.1144 15.6007 11.3123 15.8261C11.5157 16.046 11.7685 16.1559 12.0764 16.1559ZM14.6711 16.9805V12.984H15.6936V16.1119H17.4307V16.9805H14.6711Z" fill="white"/>
</svg>
