<svg width="24" height="24" viewBox="0 0 24 24" fill="none" xmlns="http://www.w3.org/2000/svg">
<path fill-rule="evenodd" clip-rule="evenodd" d="M6.63197 1H13.993L20.2241 7.50095V20.1381C20.2241 21.7188 18.9428 23 17.3621 23H6.63197C5.05121 23 3.77002 21.7188 3.77002 20.1381V3.86195C3.77002 2.28122 5.05121 1 6.63197 1Z" fill="#FF6600"/>
<path opacity="0.302" fill-rule="evenodd" clip-rule="evenodd" d="M13.9841 1V7.44756H20.224L13.9841 1Z" fill="white"/>
<path d="M8.1178 16.3982C7.71741 16.3982 7.3645 16.2766 7.06496 16.0305C6.76542 15.7843 6.60231 15.4818 6.57562 15.123L7.44756 14.8679C7.46832 15.0636 7.54543 15.2267 7.68778 15.3572C7.82718 15.4848 7.98434 15.55 8.1623 15.55C8.3106 15.55 8.42921 15.5174 8.52116 15.4521C8.61014 15.3869 8.65759 15.3038 8.65759 15.1971C8.65759 15.1111 8.61903 15.0369 8.54784 14.9746C8.47666 14.9153 8.38176 14.8649 8.26907 14.8293C8.15341 14.7907 8.0229 14.7522 7.88352 14.7136C7.74118 14.6781 7.5988 14.6276 7.45943 14.5683C7.32002 14.506 7.19252 14.4349 7.07686 14.3518C6.96119 14.2688 6.8663 14.1531 6.79511 14.0018C6.72392 13.8535 6.68834 13.6786 6.68834 13.4769C6.68834 13.1536 6.82774 12.8808 7.10354 12.6643C7.38232 12.4478 7.71747 12.3381 8.1119 12.3381C8.50042 12.3381 8.84149 12.433 9.12916 12.6228C9.41981 12.8096 9.60071 13.0587 9.6719 13.3642L8.76438 13.7438C8.72285 13.5748 8.64574 13.4384 8.53008 13.3405C8.41739 13.2397 8.27799 13.1893 8.1119 13.1893C7.98437 13.1893 7.88355 13.213 7.80939 13.2664C7.73526 13.3168 7.6967 13.385 7.6967 13.471C7.6967 13.557 7.74712 13.6252 7.845 13.6756C7.94287 13.729 8.06445 13.7676 8.20978 13.7943C8.3551 13.818 8.51524 13.8595 8.6843 13.9159C8.85631 13.9722 9.0135 14.0404 9.15882 14.1264C9.30414 14.2095 9.42573 14.34 9.5236 14.5179C9.62147 14.6988 9.6719 14.9153 9.6719 15.1674C9.6719 15.5352 9.52955 15.8317 9.24482 16.0601C8.9571 16.2855 8.58342 16.3982 8.1178 16.3982ZM11.134 16.3537L9.73413 12.3826H10.7662L11.6115 15.1289L12.4685 12.3826H13.4947L12.0949 16.3537H11.134ZM15.4699 16.3982C14.9212 16.3982 14.4556 16.2203 14.0701 15.8674C13.6875 15.5115 13.4947 15.0132 13.4947 14.3697C13.4947 13.9337 13.5926 13.56 13.7913 13.2456C13.987 12.9312 14.2361 12.7029 14.5416 12.5576C14.847 12.4122 15.1822 12.3381 15.5529 12.3381C16.069 12.3381 16.4901 12.4597 16.8163 12.7029C17.1425 12.9491 17.3442 13.2901 17.4214 13.729L16.4219 13.9307C16.3804 13.7083 16.2795 13.5303 16.1194 13.3998C15.9592 13.2664 15.7664 13.2012 15.544 13.2012C15.2326 13.2012 14.9835 13.3049 14.7907 13.5155C14.6009 13.7261 14.503 14.0108 14.503 14.3697C14.503 14.7285 14.5979 15.0133 14.7878 15.2238C14.9776 15.4314 15.2237 15.5382 15.5262 15.5382C15.7576 15.5382 15.9503 15.4848 16.1105 15.3751C16.2677 15.2683 16.3626 15.126 16.3923 14.954H15.4136V14.1591H17.3294V16.3537H16.4041V16.0038C16.327 16.1224 16.1995 16.2203 16.0304 16.2914C15.8614 16.3626 15.6745 16.3982 15.4699 16.3982Z" fill="white"/>
</svg>
