<svg width="24" height="24" viewBox="0 0 24 24" fill="none" xmlns="http://www.w3.org/2000/svg">
<path fill-rule="evenodd" clip-rule="evenodd" d="M6.63077 1H13.9889L20.2244 7.49923V20.1393C20.2244 21.715 18.9394 23 17.3636 23H6.63077C5.04823 23 3.77002 21.715 3.77002 20.1393V3.86075C3.77002 2.27821 5.04823 1 6.63077 1Z" fill="#251D36"/>
<path opacity="0.302" fill-rule="evenodd" clip-rule="evenodd" d="M13.9821 1V7.44514H20.2243L13.9821 1Z" fill="white"/>
<path d="M14.8951 15.3443H9.09919C8.82867 15.3443 8.61224 15.5607 8.61224 15.8312C8.61224 16.095 8.82867 16.3114 9.09919 16.3114H14.8951C15.1656 16.3114 15.382 16.095 15.382 15.8312C15.382 15.5607 15.1656 15.3443 14.8951 15.3443ZM14.8951 17.2785H9.09919C8.82867 17.2785 8.61224 17.4949 8.61224 17.7655C8.61224 18.0292 8.82867 18.2456 9.09919 18.2456H14.8951C15.1656 18.2456 15.382 18.0292 15.382 17.7655C15.382 17.4949 15.1656 17.2785 14.8951 17.2785ZM11.9464 11.4826H9.09919C8.82867 11.4826 8.61224 11.6923 8.61224 11.9628C8.61224 12.2333 8.82867 12.443 9.09919 12.443H11.9464C12.2169 12.443 12.4334 12.2333 12.4334 11.9628C12.4334 11.6923 12.2169 11.4826 11.9464 11.4826ZM14.8951 13.4101H9.09919C8.82867 13.4101 8.61224 13.6265 8.61224 13.897C8.61224 14.1608 8.82867 14.3772 9.09919 14.3772H14.8951C15.1656 14.3772 15.382 14.1608 15.382 13.897C15.382 13.6265 15.1656 13.4101 14.8951 13.4101Z" fill="white"/>
</svg>
