<svg width="24" height="24" viewBox="0 0 24 24" fill="none" xmlns="http://www.w3.org/2000/svg">
<path fill-rule="evenodd" clip-rule="evenodd" d="M6.63055 1H13.9935L20.2266 7.4997V20.1394C20.2266 21.7178 18.9445 23 17.3619 23H6.63057C5.05218 23 3.77002 21.7178 3.77002 20.1394V3.86056C3.76999 2.28216 5.05215 1 6.63055 1Z" fill="#FF6600"/>
<path opacity="0.302" fill-rule="evenodd" clip-rule="evenodd" d="M13.9851 1V7.44895H20.2267L13.9851 1Z" fill="white"/>
<path d="M15.6905 15.5228H15.4493C15.3689 14.3549 14.6961 13.3223 13.7186 12.7553H14.5776C14.6749 13.0219 14.9288 13.2166 15.2292 13.2166C15.6101 13.2166 15.919 12.9034 15.919 12.5226C15.919 12.1417 15.6101 11.8286 15.2292 11.8286C14.9288 11.8286 14.6749 12.0233 14.5776 12.2898H12.6903V12.0613C12.6903 11.9344 12.5845 11.8286 12.4575 11.8286H11.5351C11.4081 11.8286 11.3065 11.9344 11.3065 12.0613V12.2898H9.41503C9.32194 12.0232 9.06804 11.8286 8.76759 11.8286C8.38674 11.8286 8.07361 12.1417 8.07361 12.5226C8.07361 12.9034 8.38674 13.2166 8.76759 13.2166C9.06802 13.2166 9.32191 13.0219 9.41503 12.7553H10.2783C9.29654 13.3223 8.62371 14.3549 8.54755 15.5228H8.30635C8.1794 15.5228 8.07361 15.6244 8.07361 15.7513V16.678C8.07361 16.805 8.1794 16.9065 8.30635 16.9065H9.22885C9.3558 16.9065 9.45737 16.805 9.45737 16.678V15.7513C9.45737 15.6244 9.3558 15.5228 9.22885 15.5228H9.01726C9.11883 14.2321 10.0498 13.1446 11.3066 12.8484V12.9838C11.3066 13.1108 11.4081 13.2166 11.5351 13.2166H12.4576C12.5845 13.2166 12.6903 13.1108 12.6903 12.9838V12.8484C13.9429 13.1446 14.8738 14.2321 14.9754 15.5228H14.768C14.6369 15.5228 14.5353 15.6244 14.5353 15.7513V16.678C14.5353 16.805 14.6369 16.9065 14.768 16.9065H15.6905C15.8175 16.9065 15.919 16.805 15.919 16.678V15.7513C15.919 15.6244 15.8174 15.5228 15.6905 15.5228Z" fill="white"/>
</svg>
