<svg width="24" height="24" viewBox="0 0 24 24" fill="none" xmlns="http://www.w3.org/2000/svg">
<path fill-rule="evenodd" clip-rule="evenodd" d="M6.63737 1H13.9927L20.2266 7.49776V20.1359C20.2266 21.7191 18.9457 23 17.368 23H6.63737C5.05417 23 3.77332 21.7191 3.77332 20.1359V3.86406C3.77329 2.28086 5.05414 1 6.63737 1Z" fill="#FA0000"/>
<path opacity="0.302" fill-rule="evenodd" clip-rule="evenodd" d="M13.9872 1V7.44828H20.2266L13.9872 1Z" fill="white"/>
<path d="M12.0027 10.983C10.0401 10.983 8.44592 12.5772 8.44592 14.5397C8.44592 16.5023 10.0401 18.0909 12.0027 18.0909C13.9652 18.0909 15.5539 16.5022 15.5539 14.5397C15.5539 12.5772 13.9597 10.9885 12.0027 10.983ZM13.4979 14.6497C13.4704 14.6992 13.4319 14.7376 13.3825 14.7651L11.354 15.7821C11.2275 15.8426 11.0736 15.7931 11.0132 15.6667C10.9912 15.6337 10.9857 15.5952 10.9857 15.5512V13.5227C10.9857 13.3798 11.1011 13.2699 11.2385 13.2699C11.277 13.2699 11.3155 13.2754 11.354 13.2974L13.3825 14.3089C13.5089 14.3748 13.5584 14.5232 13.4979 14.6497Z" fill="white"/>
</svg>
