<svg width="24" height="24" viewBox="0 0 24 24" fill="none" xmlns="http://www.w3.org/2000/svg">
<path fill-rule="evenodd" clip-rule="evenodd" d="M6.63513 1H13.9933L20.2258 7.50232V20.1349C20.2258 21.7163 18.9421 23 17.3607 23H6.63513C5.05374 23 3.77002 21.7163 3.77002 20.1349V3.86511C3.77002 2.28372 5.05374 1 6.63513 1Z" fill="#FA0000"/>
<path opacity="0.302" fill-rule="evenodd" clip-rule="evenodd" d="M13.984 1V7.4465H20.2259L13.984 1Z" fill="white"/>
<path d="M15.8072 12.7768C15.7328 12.7209 15.6212 12.7209 15.5374 12.7582L13.6863 13.6884V13.0186C13.6863 12.5442 13.3142 12.1721 12.8398 12.1721H8.89557C8.43045 12.1721 8.04907 12.5442 8.04907 13.0186V16.3954C8.04907 16.8698 8.43047 17.2419 8.89557 17.2419H12.8398C13.3142 17.2419 13.6863 16.8698 13.6863 16.3954V15.7256L15.5374 16.6558C15.677 16.721 15.8444 16.6651 15.9188 16.5256C15.9374 16.4884 15.9467 16.4419 15.9467 16.3954V13.0186C15.9467 12.9163 15.8909 12.8233 15.8072 12.7768ZM10.8677 15.8372C10.2444 15.8372 9.7421 15.3256 9.7421 14.7023C9.7421 14.079 10.2444 13.5767 10.8677 13.5767C11.4909 13.5767 11.9933 14.079 11.9933 14.7023C11.9933 15.3256 11.4909 15.8372 10.8677 15.8372Z" fill="white"/>
</svg>
