<svg width="24" height="24" viewBox="0 0 24 24" fill="none" xmlns="http://www.w3.org/2000/svg">
<path d="M6.63055 1H13.9935L20.2266 7.4997V20.1394C20.2266 21.7178 18.9445 23 17.3619 23H6.63057C5.05218 23 3.77002 21.7178 3.77002 20.1394V3.86056C3.76999 2.28216 5.05215 1 6.63055 1Z" fill="#0263D1"/>
<path opacity="0.302" fill-rule="evenodd" clip-rule="evenodd" d="M13.9851 1V7.44895H20.2267L13.9851 1Z" fill="white"/>
<path d="M14.8991 12.4465H9.0976C8.831 12.4465 8.61096 12.2306 8.61096 11.9641C8.61096 11.6975 8.831 11.4817 9.0976 11.4817H14.8991C15.1657 11.4817 15.3815 11.6975 15.3815 11.9641C15.3815 12.2306 15.1657 12.4465 14.8991 12.4465ZM12.9653 18.248H9.0976C8.831 18.248 8.61096 18.0321 8.61096 17.7656C8.61096 17.499 8.831 17.2832 9.0976 17.2832H12.9653C13.2319 17.2832 13.4477 17.499 13.4477 17.7656C13.4477 18.0321 13.2319 18.248 12.9653 18.248ZM14.8991 16.3141H9.0976C8.831 16.3141 8.61096 16.0983 8.61096 15.8317C8.61096 15.5652 8.831 15.3493 9.0976 15.3493H14.8991C15.1657 15.3493 15.3815 15.5652 15.3815 15.8317C15.3815 16.0983 15.1657 16.3141 14.8991 16.3141ZM14.8991 14.3803H9.0976C8.831 14.3803 8.61096 14.1645 8.61096 13.8979C8.61096 13.6313 8.831 13.4155 9.0976 13.4155H14.8991C15.1657 13.4155 15.3815 13.6313 15.3815 13.8979C15.3815 14.1645 15.1657 14.3803 14.8991 14.3803Z" fill="white"/>
</svg>
