<svg width="24" height="24" viewBox="0 0 24 24" fill="none" xmlns="http://www.w3.org/2000/svg">
<path fill-rule="evenodd" clip-rule="evenodd" d="M6.63077 1H13.9889L20.2244 7.49923V20.1393C20.2244 21.715 18.9394 23 17.3636 23H6.63077C5.04823 23 3.77002 21.715 3.77002 20.1393V3.86075C3.77002 2.27821 5.04823 1 6.63077 1Z" fill="#FFB11F"/>
<path opacity="0.302" fill-rule="evenodd" clip-rule="evenodd" d="M13.9821 1V7.44514H20.2243L13.9821 1Z" fill="white"/>
<path d="M9.82963 12.4295V10.9281C9.82963 10.7658 9.70113 10.6372 9.53882 10.6372H8.72726C8.56496 10.6372 8.43645 10.7658 8.43645 10.9281V12.4295L7.98333 13.755C7.85483 14.127 7.9157 14.5395 8.14564 14.8574C8.36882 15.1752 8.74077 15.3646 9.13304 15.3646C9.52531 15.3646 9.89051 15.1752 10.1204 14.8574C10.3504 14.5395 10.4113 14.127 10.2828 13.755L9.82963 12.4295ZM9.64028 14.5124C9.41034 14.8438 8.85577 14.8438 8.61908 14.5124C8.50411 14.3501 8.47028 14.1337 8.53791 13.9444L8.68671 13.498H9.57265L9.7282 13.9444C9.78908 14.1337 9.762 14.3501 9.64028 14.5124ZM7.33411 2.57577V3.40087C7.33411 3.56317 7.46261 3.69168 7.62492 3.69168H8.72729V4.92255H7.62492C7.46261 4.92255 7.33411 5.05106 7.33411 5.21337V5.84908C7.33411 6.01139 7.46261 6.14665 7.62492 6.14665H8.72729V7.37074H7.62492C7.46261 7.37074 7.33411 7.49925 7.33411 7.66155V8.30403C7.33411 8.46633 7.46261 8.59484 7.62492 8.59484H8.72729V9.52812C8.72729 9.69043 8.86255 9.81893 9.02486 9.81893H10.6412C10.7968 9.81893 10.932 9.69043 10.932 9.52812V8.88565C10.932 8.7301 10.7968 8.59484 10.6412 8.59484H9.53209V7.37074H10.6412C10.7968 7.37074 10.932 7.24224 10.932 7.07993V6.43746C10.932 6.27515 10.7968 6.14665 10.6412 6.14665H9.53209V4.92255H10.6412C10.7968 4.92255 10.932 4.7873 10.932 4.62499V3.98927C10.932 3.82697 10.7968 3.69171 10.6412 3.69171H9.53209V2.56902C9.53207 2.56902 7.33411 2.57577 7.33411 2.57577Z" fill="white"/>
</svg>
