<svg width="600" height="437" viewBox="0 0 600 437" fill="none" xmlns="http://www.w3.org/2000/svg">
<path d="M206.572 419.663H453.847C458.699 419.663 463.423 418.113 467.331 415.239C471.24 412.365 474.128 408.318 475.575 403.688L525.625 243.284C526.22 241.374 526.358 239.352 526.027 237.379C525.696 235.406 524.907 233.539 523.721 231.928C522.536 230.317 520.988 229.007 519.203 228.105C517.418 227.202 515.446 226.732 513.446 226.732H266.773L206.572 419.663Z" fill="#2B2E3D"/>
<path d="M266.774 226.734L206.573 419.664H453.848C458.699 419.664 463.424 418.114 467.332 415.241C471.241 412.367 474.129 408.32 475.576 403.689L525.625 243.285C526.221 241.376 526.359 239.353 526.028 237.38C525.697 235.408 524.907 233.541 523.722 231.93C522.537 230.319 520.989 229.009 519.204 228.106C517.419 227.204 515.447 226.734 513.447 226.734H266.774ZM266.774 222.199H513.447C516.158 222.2 518.831 222.839 521.249 224.063C523.668 225.287 525.766 227.063 527.372 229.247C528.978 231.431 530.049 233.962 530.497 236.636C530.946 239.309 530.759 242.051 529.953 244.639L479.903 405.037C478.187 410.601 474.729 415.467 470.038 418.917C465.347 422.367 459.671 424.219 453.848 424.199H206.573C205.863 424.199 205.162 424.031 204.528 423.71C203.894 423.389 203.344 422.924 202.923 422.352C202.502 421.779 202.221 421.116 202.104 420.415C201.986 419.714 202.035 418.995 202.246 418.317L262.447 225.38C262.735 224.458 263.31 223.652 264.089 223.08C264.867 222.508 265.808 222.199 266.774 222.199Z" fill="#323544"/>
<path d="M203.411 419.663H444.714C448.208 419.664 451.612 418.549 454.427 416.479C457.243 414.409 459.323 411.494 460.365 408.158L514.606 234.428C514.882 233.541 514.946 232.6 514.792 231.684C514.638 230.767 514.27 229.899 513.719 229.15C513.168 228.401 512.449 227.792 511.62 227.372C510.79 226.952 509.874 226.733 508.944 226.732H262.822C259.973 226.733 257.199 227.644 254.904 229.333C252.61 231.022 250.915 233.399 250.067 236.119L195.955 409.531C195.59 410.7 195.506 411.939 195.708 413.146C195.91 414.354 196.394 415.497 197.12 416.484C197.846 417.47 198.793 418.272 199.886 418.824C200.979 419.376 202.187 419.664 203.411 419.663Z" fill="#111217"/>
<path d="M262.822 226.734C259.973 226.735 257.199 227.646 254.904 229.334C252.61 231.023 250.915 233.401 250.067 236.121L195.955 409.533C195.591 410.702 195.506 411.94 195.708 413.148C195.91 414.356 196.394 415.499 197.12 416.485C197.846 417.471 198.794 418.273 199.887 418.825C200.98 419.378 202.187 419.665 203.412 419.664H444.714C448.209 419.666 451.612 418.55 454.428 416.48C457.243 414.411 459.324 411.495 460.365 408.159L514.606 234.43C514.882 233.542 514.946 232.602 514.792 231.685C514.638 230.768 514.271 229.9 513.72 229.151C513.169 228.403 512.449 227.794 511.62 227.374C510.791 226.954 509.874 226.735 508.944 226.734H262.822ZM262.822 222.199H508.944C510.588 222.199 512.208 222.586 513.674 223.328C515.14 224.07 516.411 225.147 517.384 226.472C518.356 227.796 519.003 229.331 519.273 230.953C519.542 232.574 519.426 234.235 518.934 235.803L464.725 409.526C463.405 413.795 460.747 417.526 457.143 420.168C453.54 422.81 449.182 424.223 444.714 424.199H203.412C201.476 424.2 199.567 423.745 197.839 422.871C196.111 421.998 194.613 420.73 193.466 419.17C192.319 417.611 191.555 415.803 191.236 413.894C190.916 411.984 191.051 410.027 191.628 408.179L245.74 234.767C246.865 231.118 249.133 227.928 252.208 225.665C255.283 223.403 259.004 222.188 262.822 222.199Z" fill="#323544"/>
<path d="M375.464 337.017H456.44C459.109 337.017 461.94 334.853 462.756 332.178L466.941 318.483C467.757 315.814 466.254 313.65 463.585 313.65H382.609C379.94 313.65 377.116 315.814 376.299 318.483L372.108 332.178C371.292 334.853 372.808 337.017 375.464 337.017Z" fill="#2B2E3D"/>
<path d="M224.045 400.18H446.01C452.223 400.18 458.565 395.347 460.45 389.167L502.136 252.771C503.114 249.532 502.693 246.39 500.97 244.064C500.099 242.932 498.969 242.024 497.675 241.418C496.381 240.811 494.961 240.524 493.533 240.579H271.335C265.2 240.579 258.936 245.353 257.083 251.449L215.384 387.852C214.386 391.091 214.814 394.33 216.556 396.656C217.435 397.795 218.573 398.709 219.875 399.322C221.177 399.934 222.607 400.229 224.045 400.18ZM493.533 245.114C494.251 245.067 494.97 245.192 495.63 245.478C496.29 245.764 496.873 246.203 497.329 246.759C498.198 247.932 498.359 249.596 497.796 251.449L456.096 387.852C454.801 392.076 450.175 395.626 445.991 395.626H224.045C223.309 395.673 222.573 395.544 221.897 395.25C221.221 394.956 220.625 394.505 220.158 393.935C219.27 392.736 219.102 391.039 219.679 389.154L261.385 252.771C262.68 248.618 267.215 245.114 271.315 245.114H493.533Z" fill="#323544"/>
<path d="M291.507 226.732H317.056C317.619 231.992 318.543 237.206 319.823 242.338C326.638 268.859 345.897 291.241 369.328 306.018C392.442 320.587 414.208 327.065 441.183 331.334C439.414 338.967 436.263 346.212 431.887 352.712H291.507V226.732Z" fill="#2B2E3D"/>
<path d="M255.994 264.957H496.733C497.218 264.958 497.691 264.803 498.082 264.515C498.473 264.227 498.76 263.821 498.903 263.357L502.531 251.496C502.98 250.209 503.119 248.834 502.937 247.483C502.754 246.132 502.256 244.844 501.482 243.722C500.702 242.708 499.692 241.896 498.534 241.352C497.377 240.809 496.106 240.551 494.829 240.6H270.039C264.63 240.6 259.11 244.804 257.465 250.168L253.844 262.029C253.741 262.368 253.718 262.725 253.778 263.074C253.838 263.423 253.979 263.753 254.189 264.037C254.399 264.322 254.673 264.553 254.989 264.713C255.305 264.873 255.654 264.956 256.007 264.957H255.994ZM495.036 260.422H259.039L261.773 251.496C262.829 248.043 266.599 245.134 270.007 245.134H494.796C495.365 245.096 495.935 245.193 496.459 245.419C496.982 245.644 497.445 245.99 497.808 246.43C498.489 247.356 498.618 248.684 498.158 250.174L495.036 260.422Z" fill="#323544"/>
<path d="M466.21 255.545C465.285 254.467 465.719 252.577 467.179 251.323C468.64 250.069 470.574 249.926 471.499 251.004C472.424 252.081 471.99 253.972 470.53 255.225C469.07 256.479 467.136 256.622 466.21 255.545Z" fill="#323544"/>
<path d="M453.029 255.539C452.104 254.461 452.538 252.571 453.998 251.317C455.459 250.063 457.393 249.92 458.318 250.998C459.243 252.076 458.809 253.966 457.349 255.22C455.889 256.474 453.955 256.616 453.029 255.539Z" fill="#323544"/>
<path d="M379.781 235.306C378.856 234.229 379.289 232.339 380.75 231.085C382.21 229.831 384.144 229.688 385.069 230.766C385.995 231.843 385.561 233.733 384.1 234.987C382.64 236.241 380.706 236.384 379.781 235.306Z" fill="#323544"/>
<path d="M480.588 255.55C479.663 254.473 480.097 252.583 481.557 251.329C483.018 250.075 484.952 249.932 485.877 251.01C486.802 252.087 486.368 253.977 484.908 255.231C483.448 256.485 481.514 256.628 480.588 255.55Z" fill="#323544"/>
<path d="M386.288 301.613H467.264C469.933 301.613 472.758 299.45 473.574 296.774L477.752 283.092C478.569 280.423 477.066 278.26 474.397 278.26H393.421C390.752 278.26 387.921 280.423 387.105 283.092L382.92 296.787C382.116 299.45 383.619 301.613 386.288 301.613Z" fill="#2B2E3D"/>
<path d="M364.638 372.417H445.614C448.283 372.417 451.114 370.254 451.93 367.578L456.115 353.883C456.931 351.214 455.429 349.051 452.76 349.051H371.783C369.114 349.051 366.29 351.214 365.474 353.883L361.282 367.578C360.466 370.254 361.969 372.417 364.638 372.417Z" fill="#2B2E3D"/>
<path d="M312.519 371.794C308.144 366.699 310.2 357.759 317.111 351.825C324.022 345.891 333.171 345.211 337.546 350.306C341.92 355.401 339.864 364.342 332.953 370.276C326.042 376.209 316.894 376.889 312.519 371.794Z" fill="#2B2E3D"/>
<path d="M453.906 419.662H10.7397C10.7389 421.186 11.0383 422.696 11.621 424.104C12.2037 425.512 13.0581 426.792 14.1356 427.87C15.213 428.948 16.4924 429.804 17.9004 430.387C19.3085 430.971 20.8178 431.271 22.3419 431.271H442.297C443.821 431.271 445.329 430.971 446.737 430.388C448.145 429.805 449.424 428.95 450.501 427.873C451.578 426.795 452.433 425.516 453.016 424.109C453.599 422.701 453.899 421.192 453.899 419.669L453.906 419.662Z" fill="#2B2E3D"/>
<path d="M10.7402 419.664C10.7394 421.188 11.0388 422.697 11.6215 424.106C12.2042 425.514 13.0587 426.794 14.1361 427.872C15.2136 428.95 16.4929 429.805 17.901 430.389C19.3091 430.972 20.8183 431.272 22.3425 431.272H442.298C445.376 431.272 448.329 430.049 450.506 427.872C452.683 425.695 453.906 422.742 453.906 419.664H10.7402ZM10.7402 415.129H453.906C455.109 415.129 456.262 415.607 457.113 416.457C457.963 417.307 458.441 418.461 458.441 419.664C458.427 423.941 456.722 428.039 453.698 431.064C450.673 434.088 446.575 435.793 442.298 435.807H22.3425C18.0663 435.792 13.9698 434.086 10.9466 431.061C7.92352 428.037 6.21924 423.94 6.20557 419.664C6.20557 418.461 6.68332 417.307 7.53372 416.457C8.38416 415.607 9.53757 415.129 10.7402 415.129Z" fill="#323544"/>
<path d="M436.092 425.751C438.185 425.751 440.238 425.185 442.035 424.113C443.833 423.041 445.307 421.503 446.301 419.662H453.907C453.907 422.741 452.684 425.694 450.507 427.871C448.33 430.048 445.377 431.271 442.298 431.271H22.343C20.2156 431.269 18.1296 430.683 16.313 429.576C14.4964 428.469 13.0192 426.884 12.0428 424.994C13.3485 425.49 14.7334 425.747 16.1305 425.751H436.092Z" fill="#2B2E3D"/>
<path d="M245.37 419.668C245.37 419.668 244.411 427.753 254.685 434.036L245.37 419.668Z" fill="#111217"/>
<path d="M254.686 436.302C255.181 436.304 255.663 436.143 256.058 435.845C256.454 435.546 256.74 435.127 256.875 434.65C257.009 434.174 256.984 433.666 256.803 433.205C256.621 432.744 256.294 432.355 255.871 432.098C247.08 426.728 247.599 420.191 247.625 419.913C247.692 419.311 247.519 418.708 247.141 418.234C246.764 417.761 246.214 417.457 245.613 417.389C245.012 417.322 244.408 417.495 243.935 417.873C243.462 418.25 243.158 418.8 243.09 419.401C243.045 419.79 242.086 429.008 253.455 435.972C253.826 436.195 254.252 436.31 254.686 436.302Z" fill="#323544"/>
<path d="M56.6176 324.396C53.1065 324.267 49.7509 323.01 46.4665 321.766C42.8582 320.399 39.2499 319.026 35.7517 317.387C32.7588 315.981 24.2661 310.999 23.3008 309.568C22.3356 308.136 22.2255 305.985 23.4952 304.813C25.4386 303.012 28.9433 304.606 31.1069 303.057C34.0221 300.971 31.3077 297.169 28.8849 296.106C25.2766 294.519 21.1112 295.407 17.5159 293.768C14.8663 292.55 12.8646 289.129 14.4712 286.7C15.7344 284.796 18.52 284.465 19.9322 282.671C22.1089 279.898 19.5759 275.687 16.3757 274.204C13.1756 272.72 9.4377 272.707 6.28935 271.127C3.141 269.546 0.886658 265.076 3.3289 262.543C6.50964 259.239 13.046 263.275 16.3563 260.075C18.9476 257.536 16.9134 253.144 14.5489 250.358C12.1844 247.572 9.36647 244.048 10.8953 240.745C12.3464 237.603 16.894 237.279 19.9646 238.801C23.0352 240.323 25.3414 243.141 28.2307 245.046C31.1199 246.951 35.3566 247.747 37.8118 245.305C39.8588 243.264 39.7552 239.883 41.3747 237.48C44.3093 233.081 51.6684 234.241 54.9787 238.399C58.289 242.558 58.574 248.246 58.6064 253.532C58.6064 257.076 59.8373 261.902 63.3743 261.656C65.836 261.494 67.2612 258.734 69.4767 257.665C73.6745 255.657 78.2933 260.904 77.8982 265.517C77.503 270.129 74.264 273.938 71.7764 277.89C66.8336 285.702 65.2983 295.219 65.2983 304.58C65.3048 313.17 69.8005 324.869 56.6176 324.396Z" fill="#CB730B"/>
<path d="M57.3763 326.675C61.153 326.675 63.8933 325.709 65.746 323.734C68.985 320.307 68.4409 314.995 67.9291 309.858C67.7477 308.005 67.5728 306.249 67.5728 304.636C67.5728 293.999 69.5875 285.662 73.7076 279.151C74.1869 278.394 74.6922 277.642 75.204 276.891C77.4648 273.535 79.8099 270.069 80.1662 265.755C80.2568 263.942 79.8888 262.136 79.0962 260.503C78.3036 258.87 77.1119 257.464 75.6316 256.413C74.6156 255.654 73.4128 255.185 72.1512 255.055C70.8895 254.924 69.6163 255.139 68.4668 255.675C67.358 256.261 66.3463 257.015 65.4674 257.91C64.5994 258.707 63.8479 259.4 63.1871 259.445C63.0423 259.462 62.8955 259.445 62.7583 259.396C62.6212 259.346 62.4974 259.266 62.3968 259.16C61.4964 258.324 60.855 256.025 60.8421 253.569C60.8097 248.05 60.4599 241.766 56.722 237.044C55.4979 235.567 53.9517 234.391 52.2021 233.605C50.4525 232.819 48.5461 232.444 46.6291 232.509C45.224 232.52 43.8424 232.871 42.6017 233.531C41.3611 234.19 40.2981 235.14 39.5033 236.299C38.7199 237.582 38.1325 238.975 37.7606 240.432C37.3396 241.825 36.9703 243.023 36.2253 243.775C34.703 245.291 31.6194 244.623 29.4946 243.224C28.3744 242.449 27.3055 241.603 26.2944 240.691C24.6973 239.192 22.9167 237.901 20.9953 236.85C18.4944 235.59 15.6001 235.357 12.9301 236.202C12.0341 236.492 11.2073 236.963 10.5008 237.586C9.79432 238.209 9.22327 238.97 8.82303 239.823C6.61401 244.61 10.6434 249.32 12.8135 251.853C14.7569 254.101 16.0526 257.171 14.7569 258.448C13.8694 259.322 11.9973 259.167 10.0215 259.011C7.35249 258.797 4.02924 258.532 1.68417 260.955C1.01004 261.663 0.5158 262.523 0.243004 263.462C-0.0298004 264.401 -0.0731812 265.392 0.116478 266.351C0.413315 267.793 1.02863 269.15 1.91744 270.323C2.80625 271.497 3.94608 272.457 5.2536 273.133C7.08437 273.973 9.01229 274.582 10.9932 274.947C12.5068 275.225 13.9875 275.659 15.4112 276.243C16.1185 276.578 16.7485 277.056 17.2614 277.647C17.7743 278.238 18.159 278.929 18.3912 279.676C18.4806 279.938 18.5044 280.218 18.4603 280.492C18.4163 280.765 18.3058 281.023 18.1385 281.244C17.5746 281.79 16.9161 282.229 16.1951 282.54C14.756 283.166 13.5055 284.157 12.5673 285.416C12.0912 286.148 11.7818 286.977 11.6609 287.842C11.54 288.707 11.6106 289.588 11.8677 290.423C12.2288 291.597 12.8323 292.681 13.6392 293.606C14.446 294.531 15.4382 295.276 16.5514 295.794C18.7151 296.785 20.9111 296.992 23.0295 297.186C24.7085 297.247 26.3677 297.57 27.9464 298.145C28.9375 298.579 29.9869 299.817 30.0712 300.646C30.0712 300.801 30.0712 300.937 29.7602 301.183C29.3003 301.514 28.2962 301.527 27.3309 301.54C25.6661 301.54 23.5866 301.592 21.9347 303.114C19.92 304.973 19.6932 308.296 21.397 310.803C22.9193 313.064 32.8956 318.525 34.7678 319.4C38.4797 321.168 42.2953 322.613 45.6639 323.909C48.903 325.146 52.6149 326.545 56.5342 326.681L57.3763 326.675ZM71.4078 259.542C72.0158 259.566 72.6018 259.776 73.0857 260.145C73.9119 260.74 74.58 261.528 75.0317 262.44C75.4834 263.352 75.7049 264.361 75.6769 265.379C75.4113 268.514 73.5003 271.352 71.4726 274.351C70.935 275.142 70.4037 275.932 69.8984 276.729C65.3055 283.984 63.0705 293.112 63.0641 304.63C63.0641 306.47 63.2584 308.419 63.4463 310.305C63.8544 314.438 64.2755 318.726 62.4681 320.631C61.4445 321.725 59.4946 322.224 56.722 322.127C53.5478 322.011 50.367 320.831 47.2964 319.646C44.0055 318.402 40.2741 316.99 36.7436 315.332C33.6211 313.861 26.2491 309.424 25.1802 308.251C24.7721 307.603 24.7656 306.748 25.0636 306.483C25.3616 306.217 26.4564 306.12 27.4475 306.107C28.9569 306.107 30.8356 306.055 32.4486 304.902C33.2098 304.396 33.8169 303.69 34.2032 302.861C34.5894 302.033 34.7399 301.114 34.6382 300.205C34.3467 297.439 31.9433 294.958 29.825 294.032C27.8032 293.254 25.6669 292.817 23.5024 292.736C21.7849 292.681 20.0884 292.342 18.4818 291.732C17.9673 291.485 17.5073 291.138 17.1291 290.711C16.7508 290.284 16.4619 289.785 16.2793 289.244C16.1975 289.041 16.1648 288.821 16.1839 288.603C16.203 288.384 16.2735 288.174 16.3894 287.988C16.931 287.395 17.5939 286.927 18.3329 286.614C19.6221 286.015 20.7684 285.147 21.695 284.068C22.2824 283.308 22.6873 282.424 22.8782 281.482C23.0692 280.541 23.0412 279.568 22.7963 278.64C22.4055 277.227 21.7124 275.916 20.765 274.797C19.8176 273.679 18.6385 272.78 17.3093 272.162C15.5965 271.431 13.8087 270.89 11.9779 270.549C10.3626 270.259 8.78792 269.776 7.28773 269.11C6.61332 268.754 6.02287 268.257 5.55588 267.654C5.08888 267.051 4.75614 266.355 4.57989 265.612C4.50895 265.354 4.505 265.081 4.56847 264.82C4.63193 264.56 4.76072 264.319 4.94267 264.122C5.73946 263.3 7.25531 263.351 9.65221 263.546C12.2823 263.753 15.5537 264.019 17.9183 261.712C21.4099 258.305 19.5961 252.831 16.2534 248.918C14.1674 246.482 12.0232 243.736 12.9366 241.734C13.0858 241.435 13.2952 241.17 13.5516 240.956C13.808 240.742 14.1059 240.584 14.4266 240.49C15.9345 240.046 17.555 240.189 18.9613 240.892C20.5446 241.788 22.0111 242.875 23.3275 244.131C24.4865 245.176 25.7135 246.144 27.0005 247.027C30.5959 249.398 36.018 250.395 39.4255 247.027C40.9803 245.478 41.5762 243.516 42.101 241.786C42.3543 240.758 42.7489 239.771 43.2735 238.851C43.682 238.292 44.2188 237.839 44.8388 237.53C45.4588 237.221 46.1439 237.065 46.8365 237.076C48.0401 237.045 49.2354 237.284 50.3342 237.776C51.4331 238.268 52.4073 239.001 53.185 239.92C56.0289 243.516 56.2945 248.679 56.3269 253.66C56.3269 255.098 56.573 259.989 59.3262 262.548C59.882 263.074 60.5412 263.477 61.2617 263.734C61.9822 263.99 62.7483 264.094 63.511 264.038C65.7719 263.883 67.3202 262.451 68.5639 261.298C69.1205 260.725 69.7526 260.23 70.4426 259.827C70.7374 259.658 71.0681 259.56 71.4078 259.542Z" fill="#323544"/>
<path d="M106.492 352.407L96.2892 414.752H45.663L34.0931 352.511C33.6008 349.855 35.3369 347.328 37.6625 347.328H102.903C105.197 347.322 106.92 349.751 106.492 352.407Z" fill="#111217"/>
<path d="M37.656 347.323C35.3239 347.323 33.5942 349.823 34.0865 352.505L45.6629 414.721H96.2892L106.492 352.408C106.92 349.784 105.197 347.355 102.903 347.355H37.656V347.323ZM37.656 342.82H102.903C104.059 342.828 105.199 343.087 106.244 343.58C107.289 344.074 108.214 344.789 108.954 345.677C109.811 346.701 110.435 347.898 110.782 349.187C111.13 350.475 111.194 351.824 110.968 353.14L100.766 415.485C100.592 416.547 100.046 417.512 99.2262 418.209C98.4061 418.906 97.3651 419.288 96.2892 419.288H45.6629C44.6022 419.289 43.5749 418.918 42.7594 418.24C41.9439 417.561 41.3919 416.619 41.1995 415.576L29.6361 353.334C29.3806 352.005 29.4223 350.635 29.7583 349.324C30.0943 348.012 30.7162 346.791 31.5795 345.748C32.3186 344.84 33.2496 344.106 34.3058 343.6C35.362 343.093 36.5171 342.827 37.6884 342.82H37.656Z" fill="#323544"/>
<path d="M77.3667 405.655C80.6627 405.653 83.8505 404.479 86.3605 402.343C88.8705 400.207 90.5391 397.247 91.0679 393.994L98.7056 347.307H102.903C105.197 347.307 106.92 349.736 106.492 352.36L96.2892 414.705H45.663L43.6807 404.061C45.655 405.091 47.8479 405.631 50.0745 405.635L77.3667 405.655Z" fill="#2B2E3D"/>
<path d="M63.109 345.635C63.2765 345.634 63.4435 345.616 63.6078 345.584C63.8984 345.518 64.1732 345.395 64.4164 345.223C64.6597 345.051 64.8666 344.833 65.0255 344.581C65.1843 344.329 65.2919 344.048 65.3421 343.754C65.3923 343.46 65.3841 343.16 65.318 342.869C62.2992 329.473 59.1768 315.616 54.0396 302.524C48.2094 287.702 40.4745 275.808 30.9971 267.166C30.5521 266.761 29.9643 266.549 29.3629 266.577C28.7615 266.605 28.1959 266.87 27.7904 267.315C27.3849 267.76 27.1729 268.348 27.2008 268.949C27.2288 269.551 27.4945 270.116 27.9394 270.522C36.8986 278.684 44.2577 290.008 49.8224 304.208C54.83 316.976 57.9136 330.658 60.8935 343.893C61.013 344.39 61.2966 344.833 61.6986 345.149C62.1006 345.465 62.5975 345.636 63.109 345.635Z" fill="#323544"/>
<path d="M62.0986 304.012C66.6721 310.529 74.9641 320.732 83.7548 320.92C90.939 321.075 97.2487 314.442 101.978 309.7C109.434 302.302 115.342 293.493 119.358 283.788C119.669 283.023 119.967 282.11 119.533 281.41C118.639 279.959 116.495 281.235 114.837 281.624C112.181 282.272 109.577 279.823 109.006 277.154C108.436 274.485 109.253 271.732 110.082 269.128L119.06 240.896C119.87 238.305 120.693 235.597 119.954 233.019C119.216 230.441 116.229 228.329 113.826 229.534C110.82 231.037 110.147 236.614 106.823 236.083C104.232 235.668 104.122 231.969 104.634 229.365C107.558 214.465 107.157 199.103 103.461 184.375C102.956 182.373 102.017 180.035 99.9824 179.711C97.443 179.296 95.7846 182.386 95.5773 184.945C95.37 187.504 95.6486 190.451 93.8282 192.265C91.7876 194.306 88.1275 193.561 86.0545 191.566C83.9816 189.57 83.0293 186.7 81.9539 184.019C79.9132 178.9 77.1917 174.08 73.8628 169.689C71.589 166.69 67.9418 163.619 64.489 165.109C61.3536 166.463 60.7641 170.602 60.8872 174.01C61.1852 182.36 63.0379 190.561 64.8777 198.711L52.064 188.139C50.7684 187.07 49.2525 185.936 47.5941 186.163C45.0029 186.519 44.0247 189.752 43.9858 192.362C43.9462 196.604 44.8289 200.804 46.5727 204.67C48.3165 208.537 50.8798 211.979 54.0852 214.757C56.0286 216.422 58.27 217.873 59.6758 220.03C61.0815 222.187 61.3601 225.388 59.462 227.156L49.0971 220.983C47.5747 220.076 45.7608 219.143 44.1219 219.81C42.4829 220.477 41.874 222.33 42.0748 223.982C42.2757 225.634 43.1696 227.104 44.0182 228.517L62.6751 258.478C63.1019 259.045 63.3682 259.716 63.446 260.421C63.4914 262.449 60.6216 263.22 58.7494 262.449C56.8773 261.678 55.3484 260.084 53.3596 259.696C50.0558 259.048 46.9852 262.196 46.4281 265.526C45.871 268.856 47.0759 272.172 48.3003 275.314C52.1418 285.245 55.9833 295.299 62.0986 304.012Z" fill="#CB730B"/>
<path d="M84.0008 323.188C91.6838 323.188 98.1489 316.71 102.891 311.994L103.578 311.308C111.24 303.686 117.317 294.621 121.457 284.637C121.755 283.912 122.552 281.981 121.457 280.213C119.831 277.57 116.806 278.6 115.348 279.092C114.966 279.222 114.603 279.345 114.312 279.409C114.067 279.458 113.814 279.455 113.57 279.402C113.326 279.348 113.096 279.245 112.893 279.099C112.037 278.529 111.428 277.656 111.189 276.656C110.71 274.512 111.507 272.011 112.206 269.809L121.185 241.577C121.975 239.103 123.051 235.715 122.105 232.391C121.781 231.309 121.23 230.309 120.486 229.459C119.743 228.608 118.826 227.927 117.797 227.462C117.011 227.095 116.153 226.908 115.286 226.915C114.418 226.921 113.563 227.121 112.783 227.501C110.904 228.433 109.829 230.189 108.896 231.737C108.339 232.651 107.6 233.907 107.166 233.843C107.089 233.843 107.076 233.843 107.017 233.745C106.648 233.214 106.473 231.692 106.842 229.8C109.827 214.567 109.418 198.863 105.644 183.806C104.685 180.01 102.897 177.872 100.332 177.457C99.6281 177.341 98.9075 177.377 98.2183 177.561C97.5291 177.745 96.8871 178.074 96.335 178.526C94.3398 180.094 93.4652 182.769 93.3033 184.758C93.2644 185.263 93.245 185.782 93.2191 186.306C93.1413 188.101 93.0701 189.798 92.215 190.653C91.1461 191.716 88.8658 191.133 87.6155 189.928C86.1385 188.496 85.3029 186.378 84.4283 184.13L84.0461 183.164C81.9191 177.857 79.0864 172.861 75.6246 168.31C71.8673 163.348 67.3456 161.372 63.5429 163.018C61.1331 164.061 58.3151 166.827 58.5742 174.082C58.8963 180.371 59.7633 186.62 61.1655 192.759L53.3918 186.378C52.1869 185.386 49.9325 183.534 47.1728 183.909C43.8625 184.356 41.6794 187.66 41.6081 192.331C41.561 196.912 42.5159 201.447 44.4059 205.62C46.296 209.793 49.0754 213.502 52.5496 216.488C53.042 216.902 53.5408 217.304 54.0396 217.706C55.4418 218.695 56.6792 219.9 57.7062 221.275C58.2212 222.069 58.4874 222.998 58.4706 223.944L50.1916 219.008C48.8377 218.204 46.0327 216.533 43.2018 217.712C40.8243 218.684 39.4056 221.372 39.7554 224.255C40.021 226.432 41.1482 228.252 42.0551 229.716L60.6667 259.71C60.8019 259.918 60.9251 260.135 61.0359 260.357C60.5475 260.542 60.0085 260.542 59.5201 260.357C58.8812 260.068 58.2698 259.721 57.6932 259.321C56.4973 258.455 55.1441 257.83 53.7092 257.481C52.7458 257.306 51.7571 257.327 50.802 257.543C49.847 257.759 48.9454 258.165 48.151 258.738C46.0136 260.259 44.5613 262.561 44.1087 265.145C43.4609 269.168 44.912 273.022 46.1039 276.157C49.9066 286.088 53.8776 296.363 60.1614 305.354C68.3756 317.054 76.2659 323.065 83.625 323.227L84.0008 323.188ZM117.11 283.283C113.203 292.564 107.521 300.992 100.384 308.094L99.6842 308.788C95.2273 313.238 89.6885 318.79 83.8064 318.654C78.0539 318.531 71.1936 313.018 63.9575 302.711C57.9653 294.18 54.1303 284.171 50.4184 274.493C49.3754 271.772 48.1964 268.662 48.6693 265.89C48.9178 264.513 49.6883 263.285 50.82 262.463C51.1175 262.238 51.457 262.074 51.8185 261.982C52.18 261.889 52.5563 261.87 52.9254 261.925C53.792 262.18 54.6059 262.588 55.3287 263.13C56.148 263.68 57.0153 264.155 57.92 264.549C58.8797 264.935 59.918 265.087 60.9482 264.99C61.9783 264.893 62.9702 264.551 63.8409 263.992C64.4387 263.6 64.927 263.063 65.2602 262.43C65.5933 261.798 65.7603 261.091 65.7455 260.377C65.6687 259.264 65.2853 258.195 64.6377 257.287L46.0262 227.293C45.2877 226.095 44.5168 224.864 44.3743 223.672C44.2836 222.914 44.5945 222.059 45.0221 221.878C45.7671 221.58 47.3736 222.525 47.9826 222.901L58.3475 229.075C58.7672 229.324 59.2557 229.431 59.741 229.381C60.2262 229.33 60.6825 229.126 61.0424 228.796C63.9187 226.153 63.4911 221.67 61.619 218.8C60.3395 217.007 58.7722 215.438 56.9806 214.156C56.5142 213.789 56.0543 213.413 55.6008 213.028C52.629 210.482 50.25 207.316 48.6308 203.753C47.0115 200.19 46.1911 196.316 46.227 192.402C46.227 190.588 46.8748 188.548 47.8724 188.412C48.6692 188.308 49.9195 189.338 50.5932 189.889L63.4134 200.454C63.7774 200.742 64.2207 200.91 64.6834 200.937C65.1461 200.965 65.6061 200.85 66.0014 200.607C66.3967 200.365 66.7083 200.008 66.8942 199.583C67.0801 199.159 67.1314 198.687 67.0411 198.233C65.2467 190.303 63.3939 182.109 63.1024 173.946C63.0376 172.242 63.1024 168.161 65.3374 167.215C67.4104 166.315 70.2283 168.731 72.0033 171.102C75.2039 175.333 77.8188 179.977 79.777 184.907L80.1463 185.833C81.1115 188.321 82.2128 191.133 84.4024 193.244C87.2592 196.004 92.3445 196.93 95.3633 193.892C97.4622 191.793 97.5918 188.878 97.689 186.54C97.689 186.067 97.7343 185.6 97.7667 185.147C97.8211 184.017 98.2811 182.945 99.0623 182.128C99.315 181.927 99.4445 181.953 99.5352 181.966C99.9822 182.037 100.649 182.86 101.174 184.946C104.783 199.352 105.177 214.376 102.327 228.952C102.042 230.383 101.563 233.979 103.228 236.363C103.589 236.893 104.055 237.342 104.598 237.683C105.141 238.025 105.748 238.25 106.383 238.345C109.777 238.889 111.526 236.026 112.692 234.134C113.34 233.052 114.04 231.938 114.759 231.582C114.943 231.501 115.144 231.464 115.345 231.474C115.547 231.484 115.743 231.541 115.918 231.64C116.337 231.836 116.71 232.117 117.015 232.465C117.319 232.813 117.548 233.22 117.687 233.661C118.218 235.52 117.609 237.736 116.812 240.23L107.834 268.461C107.004 271.053 105.968 274.331 106.713 277.667C107.211 279.852 108.546 281.755 110.431 282.966C111.143 283.429 111.939 283.746 112.775 283.899C113.61 284.051 114.467 284.036 115.296 283.853C115.802 283.73 116.288 283.568 116.754 283.413L117.11 283.283Z" fill="#323544"/>
<path d="M79.0635 345.061C79.5415 345.06 80.0068 344.908 80.3931 344.626C80.7793 344.345 81.0667 343.948 81.2142 343.494C93.3638 305.885 93.0593 265.36 80.3461 227.937C80.2584 227.646 80.1128 227.374 79.9179 227.14C79.7229 226.905 79.4827 226.713 79.2116 226.573C78.9405 226.434 78.6441 226.351 78.34 226.328C78.036 226.306 77.7306 226.345 77.4421 226.444C77.1535 226.542 76.8879 226.698 76.6609 226.902C76.434 227.105 76.2503 227.352 76.1211 227.628C75.9919 227.905 75.9196 228.204 75.9087 228.509C75.8978 228.813 75.9485 229.117 76.0576 229.402C88.4605 265.905 88.7582 305.435 76.9063 342.12C76.7976 342.461 76.7705 342.822 76.8273 343.175C76.884 343.528 77.023 343.863 77.2329 344.153C77.4429 344.442 77.718 344.678 78.036 344.841C78.354 345.005 78.7059 345.091 79.0635 345.094V345.061Z" fill="#323544"/>
<path d="M68.0132 362.126H107.53C108.131 362.126 108.708 361.888 109.133 361.462C109.558 361.037 109.797 360.46 109.797 359.859C109.797 359.258 109.558 358.681 109.133 358.256C108.708 357.831 108.131 357.592 107.53 357.592H68.0132C67.4119 357.592 66.8352 357.831 66.41 358.256C65.9848 358.681 65.7459 359.258 65.7459 359.859C65.7459 360.46 65.9848 361.037 66.41 361.462C66.8352 361.888 67.4119 362.126 68.0132 362.126Z" fill="#323544"/>
<path d="M45.9868 362.126H53.7605C54.3618 362.126 54.9385 361.888 55.3637 361.462C55.7889 361.037 56.0278 360.46 56.0278 359.859C56.0278 359.258 55.7889 358.681 55.3637 358.256C54.9385 357.831 54.3618 357.592 53.7605 357.592H45.9868C45.3855 357.592 44.8088 357.831 44.3836 358.256C43.9584 358.681 43.7195 359.258 43.7195 359.859C43.7195 360.46 43.9584 361.037 44.3836 361.462C44.8088 361.888 45.3855 362.126 45.9868 362.126Z" fill="#323544"/>
<path d="M183.478 4.53321H328.924C330.177 4.53235 331.418 4.77833 332.576 5.25709C333.734 5.73584 334.787 6.438 335.673 7.32348C336.56 8.20896 337.263 9.2604 337.744 10.4178C338.224 11.5752 338.472 12.8159 338.473 14.069V56.4356C338.474 57.689 338.227 58.9302 337.748 60.0883C337.269 61.2464 336.566 62.2987 335.68 63.1849C334.793 64.0712 333.741 64.774 332.583 65.2533C331.425 65.7325 330.184 65.9787 328.93 65.9779H324.83C324.543 65.9779 324.268 66.0919 324.065 66.2947C323.862 66.4976 323.748 66.7728 323.748 67.0597V78.1696C323.75 78.3605 323.7 78.5483 323.605 78.7138C323.511 78.8793 323.373 79.0166 323.208 79.1116C323.042 79.2065 322.854 79.2557 322.664 79.2542C322.473 79.2525 322.286 79.2002 322.122 79.1025L300.207 66.1463C300.041 66.0442 299.85 65.9903 299.656 65.9908H183.478C182.223 65.9917 180.981 65.7451 179.821 65.2651C178.662 64.7851 177.609 64.0812 176.722 63.1937C175.835 62.3062 175.132 61.2524 174.652 60.0928C174.173 58.9331 173.927 57.6904 173.929 56.4356V14.069C173.933 11.5387 174.94 9.1133 176.731 7.32537C178.521 5.53744 180.948 4.5332 183.478 4.53321Z" fill="#111217"/>
<path d="M183.478 4.53466C180.948 4.53466 178.521 5.5389 176.731 7.32683C174.941 9.11475 173.933 11.5402 173.93 14.0704V56.4371C173.93 57.6908 174.177 58.9321 174.657 60.0903C175.137 61.2484 175.84 62.3006 176.727 63.1868C177.614 64.0729 178.666 64.7757 179.825 65.2548C180.983 65.734 182.225 65.9802 183.478 65.9793H299.65C299.844 65.9788 300.035 66.0327 300.201 66.1348L322.116 79.091C322.281 79.1888 322.469 79.2403 322.66 79.24C322.947 79.24 323.222 79.126 323.425 78.9231C323.628 78.7202 323.742 78.4451 323.742 78.1581V67.0612C323.742 66.7743 323.856 66.4991 324.059 66.2962C324.262 66.0933 324.537 65.9793 324.824 65.9793H328.924C330.178 65.981 331.42 65.7354 332.579 65.2566C333.738 64.7777 334.791 64.075 335.678 63.1887C336.565 62.3023 337.268 61.2498 337.748 60.0913C338.228 58.9327 338.474 57.691 338.473 56.4371V14.0704C338.472 12.8173 338.225 11.5766 337.744 10.4192C337.264 9.26186 336.56 8.21041 335.674 7.32494C334.787 6.43946 333.735 5.7373 332.577 5.25854C331.419 4.77979 330.178 4.53381 328.924 4.53466H183.478ZM183.478 0H328.924C332.656 0.0034237 336.235 1.48653 338.875 4.12413C341.515 6.76173 343.001 10.3386 343.008 14.0704V56.4371C343.003 60.1689 341.518 63.7465 338.879 66.3853C336.24 69.0241 332.663 70.5089 328.931 70.514H328.283V78.1711C328.285 79.1623 328.023 80.1362 327.526 80.9937C327.029 81.8511 326.313 82.5616 325.452 83.0526C324.591 83.5437 323.616 83.7979 322.625 83.7893C321.633 83.7807 320.662 83.5097 319.81 83.0038L298.711 70.514H183.478C179.745 70.5106 176.166 69.0266 173.526 66.3876C170.886 63.7486 169.4 60.1701 169.395 56.4371V14.0704C169.402 10.3386 170.888 6.76173 173.528 4.12413C176.168 1.48653 179.747 0.0034237 183.478 0Z" fill="#323544"/>
<path d="M246.226 43.894H323.056C323.657 43.894 324.234 43.6552 324.659 43.23C325.084 42.8048 325.323 42.228 325.323 41.6267C325.323 41.0254 325.084 40.4487 324.659 40.0235C324.234 39.5983 323.657 39.3594 323.056 39.3594H246.226C245.624 39.3594 245.048 39.5983 244.623 40.0235C244.197 40.4487 243.958 41.0254 243.958 41.6267C243.958 42.228 244.197 42.8048 244.623 43.23C245.048 43.6552 245.624 43.894 246.226 43.894Z" fill="#323544"/>
<path d="M323.055 31.7413C323.657 31.7456 324.235 31.5108 324.663 31.0887C325.092 30.6665 325.335 30.0915 325.339 29.4902C325.343 28.8888 325.108 28.3104 324.686 27.8822C324.264 27.4539 323.689 27.2109 323.088 27.2066L281.466 26.5588C281.168 26.5546 280.873 26.609 280.596 26.719C280.319 26.829 280.067 26.9925 279.853 27.2C279.64 27.4075 279.469 27.6551 279.351 27.9286C279.233 28.202 279.17 28.496 279.166 28.7938C279.162 29.0915 279.216 29.3872 279.326 29.6639C279.436 29.9406 279.6 30.1929 279.807 30.4065C280.015 30.62 280.262 30.7906 280.536 30.9085C280.809 31.0264 281.103 31.0892 281.401 31.0935L323.016 31.7413H323.055Z" fill="#323544"/>
<path d="M214.009 38.0214C217.611 37.8853 228.014 38.423 230.457 48.9888C230.521 49.287 230.682 49.5558 230.914 49.754C231.146 49.9521 231.436 50.0686 231.741 50.0855C232.045 50.1025 232.347 50.0189 232.6 49.8477C232.852 49.6764 233.042 49.427 233.139 49.1378C235.406 42.3682 236.015 30.5392 213.931 28.5051C213.603 28.4812 213.294 28.343 213.057 28.1146C212.82 27.8861 212.671 27.5819 212.635 27.2548L211.806 18.7879C211.782 18.5398 211.692 18.3026 211.545 18.1012C211.398 17.8998 211.2 17.7415 210.971 17.6429C210.742 17.5443 210.491 17.5089 210.243 17.5406C209.996 17.5722 209.762 17.6696 209.565 17.8227L191.038 32.23C190.875 32.3553 190.743 32.5149 190.65 32.6974C190.556 32.8798 190.505 33.0805 190.498 33.2853C190.491 33.4901 190.529 33.6939 190.61 33.8821C190.691 34.0703 190.813 34.2384 190.966 34.3742L209.468 50.8221C209.661 50.9957 209.899 51.1117 210.155 51.1572C210.41 51.2027 210.674 51.1757 210.915 51.0793C211.156 50.983 211.366 50.8211 211.52 50.6119C211.674 50.4027 211.766 50.1547 211.787 49.8957L212.674 39.304C212.702 38.9644 212.853 38.6467 213.099 38.4105C213.345 38.1744 213.668 38.036 214.009 38.0214Z" fill="#006C8F"/>
<path d="M210.395 53.4478C211.314 53.4463 212.199 53.1001 212.875 52.4776C213.552 51.8551 213.97 51.0016 214.048 50.0857L214.864 40.2779C218.751 40.2779 226.363 41.3468 228.248 49.5027C228.424 50.2823 228.85 50.983 229.461 51.4978C230.073 52.0125 230.836 52.313 231.634 52.3534C232.432 52.3938 233.221 52.1719 233.882 51.7214C234.542 51.271 235.036 50.6169 235.29 49.859C237.168 44.2489 236.799 39.196 234.227 35.2509C230.988 30.321 224.51 27.3152 214.839 26.3176L214.068 18.5439C214.003 17.8917 213.765 17.2688 213.378 16.7401C212.991 16.2114 212.469 15.7963 211.867 15.5381C211.265 15.28 210.604 15.1883 209.954 15.2726C209.304 15.3569 208.689 15.6141 208.173 16.0174L189.645 30.4506C189.221 30.7806 188.874 31.2 188.63 31.6792C188.386 32.1583 188.25 32.6853 188.233 33.2228C188.216 33.7602 188.317 34.2949 188.53 34.7887C188.742 35.2825 189.061 35.7235 189.464 36.0801L207.965 52.5279C208.635 53.1223 209.499 53.4497 210.395 53.4478ZM213.919 35.7626C213.025 35.7976 212.176 36.1581 211.53 36.7763C210.885 37.3944 210.488 38.2275 210.414 39.1183L209.675 47.9738L193.254 33.3787L209.708 20.5845L210.401 27.4772C210.488 28.3252 210.867 29.1167 211.473 29.7159C212.079 30.3151 212.875 30.6848 213.724 30.7616C222.308 31.5519 227.924 33.897 230.425 37.732C232.025 40.1742 232.142 43.0181 231.72 45.5057C227.749 36.0153 217.274 35.6136 213.919 35.7432V35.7626Z" fill="#323544"/>
<path d="M266.883 31.0933H273.362C273.963 31.0933 274.54 30.8544 274.965 30.4292C275.39 30.004 275.629 29.4273 275.629 28.8259C275.629 28.2246 275.39 27.6479 274.965 27.2227C274.54 26.7975 273.963 26.5586 273.362 26.5586H266.883C266.282 26.5586 265.705 26.7975 265.28 27.2227C264.855 27.6479 264.616 28.2246 264.616 28.8259C264.616 29.4273 264.855 30.004 265.28 30.4292C265.705 30.8544 266.282 31.0933 266.883 31.0933Z" fill="#323544"/>
<path d="M201.261 181.826C216.698 162.994 247.437 152.72 268.594 164.763C283.831 173.437 292.032 190.747 296.366 207.732C300.7 224.718 302.144 242.5 308.467 258.851C318.514 284.815 340.404 305.091 365.474 317.154C390.233 329.086 412.647 332.973 439.953 334.016C437.361 360.518 417.985 383.249 394.036 395.558H254.258C247.808 392.999 241.653 389.752 235.899 385.873C216.05 372.347 202.77 350.976 193.792 328.691C183.612 303.369 178.3 276.354 178.134 249.062C177.985 224.75 185.824 200.652 201.261 181.826Z" fill="#006C8F"/>
<path d="M247.858 159.58C230.529 159.58 212.112 168.591 201.261 181.825C185.824 200.651 177.986 224.749 178.122 249.094C178.287 276.385 183.599 303.4 193.779 328.722C202.751 351.007 216.031 372.378 235.887 385.905C241.645 389.784 247.804 393.031 254.259 395.589H394.036C418.005 383.281 437.375 360.517 439.953 334.047C412.648 333.011 390.234 329.118 365.494 317.204C340.404 305.123 318.515 284.814 308.487 258.902C302.164 242.551 300.713 224.769 296.386 207.783C292.058 190.797 283.85 173.488 268.614 164.814C262.273 161.311 255.127 159.525 247.884 159.631L247.858 159.58ZM247.884 155.097C256.396 155.097 264.125 157.04 270.862 160.875C285.023 168.934 295.09 184.339 300.784 206.662C302.423 213.102 303.667 219.69 304.872 226.058C306.945 237.019 308.895 247.364 312.723 257.263C321.644 280.305 341.603 300.666 367.489 313.136C389.333 323.657 410.381 328.405 440.147 329.539C440.765 329.562 441.371 329.712 441.928 329.978C442.486 330.244 442.983 330.622 443.389 331.087C443.796 331.552 444.103 332.096 444.292 332.684C444.481 333.272 444.547 333.893 444.488 334.507C443.192 347.936 437.699 361.223 428.623 372.948C419.852 384.088 408.765 393.189 396.129 399.619C395.486 399.951 394.773 400.124 394.049 400.124H254.259C253.679 400.125 253.105 400.012 252.568 399.794C245.815 397.112 239.371 393.711 233.347 389.649C215.144 377.25 200.426 357.323 189.588 330.42C179.232 304.555 173.811 276.98 173.606 249.12C173.464 223.052 182.028 198.137 197.776 178.949C209.676 164.425 229.344 155.045 247.878 155.045L247.884 155.097Z" fill="#323544"/>
<path d="M240.655 380.908H356.613C384.766 380.908 410.549 364.344 421.497 338.406C422.255 336.618 422.922 334.791 423.525 332.951C428.85 333.456 434.317 333.8 439.999 334.014C437.407 360.515 418.031 383.247 394.082 395.555H254.259C238.056 389.222 223.971 378.444 213.622 364.461C216.37 366.889 219.267 369.144 222.296 371.211C228.049 375.094 234.204 378.345 240.655 380.908Z" fill="#08A4CA"/>
<path d="M236.443 196.611C272.073 193.372 272.073 227.058 259.764 240.014C247.456 252.97 223.811 240.338 203.729 242.281C192.775 243.344 178.542 237.099 179.475 231.165C181.514 218.077 186.006 205.492 192.716 194.072C206.851 193.339 209.935 199.021 236.443 196.611Z" fill="#08A4CA"/>
<path d="M195.087 218.234C192.486 218.234 190.378 216.125 190.378 213.524C190.378 210.923 192.486 208.814 195.087 208.814C197.688 208.814 199.797 210.923 199.797 213.524C199.797 216.125 197.688 218.234 195.087 218.234Z" fill="#323544"/>
<path d="M235.297 220.564C232.696 220.564 230.588 218.455 230.588 215.854C230.588 213.253 232.696 211.145 235.297 211.145C237.898 211.145 240.007 213.253 240.007 215.854C240.007 218.455 237.898 220.564 235.297 220.564Z" fill="#323544"/>
<path d="M195.081 187.589H195.411L200.788 187.045C201.647 186.959 202.437 186.535 202.983 185.867C203.53 185.199 203.789 184.341 203.703 183.482C203.617 182.623 203.194 181.833 202.525 181.287C201.857 180.74 200.999 180.481 200.14 180.567L194.77 181.111C194.344 181.132 193.927 181.236 193.542 181.418C193.157 181.6 192.812 181.857 192.526 182.172C192.24 182.488 192.019 182.856 191.875 183.257C191.732 183.658 191.669 184.084 191.689 184.509C191.71 184.934 191.815 185.351 191.997 185.736C192.179 186.121 192.435 186.467 192.75 186.753C193.066 187.039 193.435 187.26 193.836 187.403C194.237 187.547 194.662 187.61 195.087 187.589H195.081Z" fill="#323544"/>
<path d="M242.552 194.988C243.296 194.987 244.016 194.731 244.593 194.262C245.17 193.792 245.567 193.139 245.719 192.411C245.871 191.683 245.768 190.926 245.427 190.265C245.087 189.604 244.529 189.081 243.848 188.782L238.899 186.632C238.111 186.288 237.219 186.271 236.419 186.585C235.619 186.899 234.977 187.518 234.633 188.306C234.289 189.094 234.273 189.986 234.587 190.786C234.901 191.586 235.52 192.228 236.307 192.572L241.263 194.723C241.67 194.899 242.109 194.989 242.552 194.988Z" fill="#323544"/>
<path d="M229.558 144.492C244.898 139.957 264.423 143.274 278.448 150.97C284.583 154.338 290.258 158.815 297.034 160.564C303.81 162.313 312.361 160.208 314.985 153.723C316.533 149.907 315.632 145.412 313.404 141.952C311.176 138.493 307.775 135.947 304.205 133.907C295.184 128.786 284.826 126.512 274.49 127.383C271.705 127.623 267.934 127.428 267.364 124.695C266.937 122.576 269.055 120.808 271.109 120.16C273.162 119.512 275.475 119.331 277.12 117.945C279.226 116.17 279.465 112.82 278.202 110.378C276.939 107.936 274.497 106.29 271.951 105.26C261.644 101.089 249.349 105.863 241.983 114.194C234.618 122.525 231.333 133.66 229.377 144.602L229.558 144.492Z" fill="#006C8F"/>
<path d="M301.698 163.408C308.118 163.408 314.654 160.564 317.09 154.572C318.813 150.316 318.146 145.14 315.309 140.728C313.19 137.438 309.925 134.561 305.326 131.938C295.901 126.598 285.085 124.223 274.289 125.123C271.381 125.375 269.755 124.87 269.599 124.242C269.495 123.717 270.461 122.732 271.821 122.298C272.333 122.13 272.896 121.994 273.486 121.845C275.144 121.443 277.017 120.983 278.591 119.655C281.363 117.323 282.069 112.879 280.23 109.29C278.876 106.667 276.31 104.529 272.812 103.117C262.363 98.8799 248.999 102.806 240.299 112.646C231.877 122.188 228.761 135.196 227.161 144.155C227.084 144.57 227.123 144.997 227.276 145.39C227.428 145.783 227.688 146.125 228.025 146.379C228.361 146.632 228.762 146.786 229.182 146.824C229.602 146.861 230.024 146.781 230.4 146.591C244.27 142.568 263.115 145.114 277.373 152.94C279.103 153.885 280.852 154.961 282.555 155.997C286.889 158.66 291.366 161.413 296.503 162.741C298.2 163.177 299.945 163.401 301.698 163.408ZM278.792 129.463C287.305 129.47 295.671 131.679 303.078 135.876C307.03 138.131 309.783 140.521 311.499 143.184C313.514 146.306 314.045 150.018 312.892 152.901C310.754 158.18 303.298 159.865 297.61 158.401C293.128 157.241 289.137 154.786 284.907 152.188C283.171 151.119 281.376 150.018 279.543 149.014C265.123 141.098 246.991 138.273 232.305 141.48C233.983 133.421 237.04 123.238 243.706 115.697C249.796 108.804 260.97 103.259 271.115 107.366C272.845 108.066 275.131 109.342 276.207 111.422C277.068 113.093 276.855 115.244 275.682 116.215C274.918 116.863 273.739 117.142 272.443 117.466C271.795 117.628 271.147 117.79 270.448 118.01C267.319 119.027 264.507 121.819 265.188 125.175C265.583 127.118 267.351 130.312 274.717 129.677C276.051 129.521 277.425 129.463 278.792 129.463Z" fill="#323544"/>
<path d="M121.633 156.665C142.143 162.916 159.64 143.748 163.553 126.218C164.278 122.979 164.997 119.552 164.071 116.352C163.145 113.152 159.957 110.34 156.705 111.053C153.453 111.765 151.834 115.309 150.422 118.328C149.01 121.347 146.535 124.676 143.257 124.281C139.694 123.86 138.23 119.565 137.543 116.041L133.313 94.2876C132.698 91.1198 131.771 87.518 128.882 86.0734C125.643 84.4603 121.549 86.6758 119.852 89.8631C118.154 93.0503 118.232 96.8594 118.394 100.468C118.556 104.076 118.757 107.853 117.254 111.144C115.757 104.097 112.979 97.3842 109.059 91.3401C107.414 88.8136 104.686 86.1123 101.855 87.1358C99.329 88.0492 98.6748 91.2688 98.5776 93.9507C98.3046 101.526 99.3434 109.092 101.648 116.313C100.353 112.783 98.9468 109.109 96.1353 106.596C93.3238 104.082 88.6402 103.273 85.8806 105.825C82.3565 109.064 84.1185 114.894 86.3664 119.15C91.0342 127.954 96.7696 136.148 103.443 143.547C108.502 149.157 114.391 154.456 121.633 156.665Z" fill="#006C8F"/>
<path d="M129.582 160.138C135.018 160.099 140.345 158.602 145.006 155.804C154.97 149.974 163.145 138.572 165.736 126.685C166.442 123.498 167.33 119.527 166.216 115.672C165.03 111.565 160.852 107.769 156.187 108.792C151.873 109.738 149.936 113.884 148.414 117.214L148.368 117.318C147.824 118.484 145.855 122.26 143.529 121.982C141.404 121.729 140.29 118.348 139.772 115.562L135.542 93.802C135.011 91.1007 134.032 86.0607 129.893 83.9942C125.391 81.7528 120.033 84.642 117.85 88.7491C116.043 92.1566 115.946 95.875 116.101 99.7619C114.681 96.3754 112.959 93.1233 110.957 90.0448C108.101 85.6526 104.408 83.7481 101.085 84.9465C99.0248 85.6915 96.5501 87.8293 96.3104 93.8085C96.1834 97.2559 96.3199 100.708 96.7186 104.135C93.1815 101.634 87.7982 100.928 84.3454 104.135C80.7242 107.484 80.7307 113.333 84.3454 120.187C89.1002 129.155 94.9445 137.502 101.746 145.037C106.345 150.129 112.681 156.29 120.96 158.816C123.752 159.681 126.658 160.126 129.582 160.138ZM157.736 113.184C159.53 113.184 161.35 115.037 161.908 116.955C162.698 119.676 161.985 122.876 161.35 125.7C158.967 136.408 151.633 146.689 142.739 151.885C136.222 155.681 129.135 156.588 122.307 154.476C115.09 152.28 109.351 146.657 105.14 141.999C98.5844 134.733 92.9552 126.682 88.3813 118.03C87.4225 116.223 84.5268 110.12 87.4355 107.432C89.2558 105.748 92.6957 106.506 94.6391 108.235C97.0943 110.412 98.3899 113.923 99.5365 117.02C99.7324 117.588 100.146 118.056 100.687 118.319C101.227 118.583 101.851 118.621 102.419 118.425C102.988 118.229 103.456 117.816 103.719 117.275C103.983 116.734 104.021 116.111 103.825 115.543C101.588 108.573 100.581 101.266 100.852 93.951C100.903 92.7008 101.163 89.7209 102.64 89.1896C103.974 88.7103 105.879 90.4853 107.174 92.5C110.952 98.3043 113.625 104.757 115.058 111.533C115.156 112 115.4 112.424 115.754 112.745C116.107 113.066 116.553 113.267 117.028 113.319C117.502 113.372 117.982 113.273 118.397 113.037C118.812 112.801 119.142 112.44 119.34 112.005C121.05 108.255 120.856 104.076 120.687 100.397V100.287C120.526 96.8014 120.493 93.4587 121.879 90.8545C123.039 88.6779 125.857 87.013 127.891 88.0301C129.776 88.9694 130.554 91.7615 131.13 94.6442L135.36 116.398C136.565 122.61 139.15 125.998 143.03 126.458C146.749 126.905 150.156 124.327 152.514 119.209L152.566 119.105C153.758 116.553 155.106 113.651 157.23 113.191C157.398 113.172 157.567 113.169 157.736 113.184Z" fill="#323544"/>
<path d="M143.697 125.367C140.615 125.467 137.602 126.302 134.908 127.802C132.213 129.301 129.916 131.423 128.208 133.99" fill="#006C8F"/>
<path d="M128.201 136.255C128.58 136.256 128.952 136.162 129.285 135.982C129.618 135.802 129.9 135.542 130.106 135.225C131.618 132.97 133.643 131.106 136.014 129.784C138.385 128.462 141.036 127.72 143.749 127.619C144.35 127.605 144.921 127.353 145.337 126.919C145.752 126.484 145.978 125.901 145.964 125.3C145.951 124.699 145.698 124.128 145.263 123.712C144.829 123.297 144.246 123.071 143.645 123.085C140.195 123.185 136.819 124.113 133.802 125.791C130.785 127.468 128.216 129.846 126.31 132.724C126.146 132.973 126.033 133.251 125.976 133.544C125.92 133.837 125.922 134.137 125.982 134.429C126.043 134.721 126.16 134.998 126.327 135.245C126.494 135.491 126.709 135.702 126.958 135.866C127.326 136.113 127.758 136.248 128.201 136.255Z" fill="#323544"/>
<path d="M180.085 96.1973C180.085 96.1973 186.563 121.462 164.538 152.557L180.085 96.1973Z" fill="#111217"/>
<path d="M164.537 154.824C164.9 154.824 165.258 154.737 165.58 154.57C165.903 154.403 166.18 154.162 166.39 153.865C188.765 122.278 182.585 96.7089 182.281 95.6335C182.119 95.0659 181.742 94.5838 181.23 94.2897C180.718 93.9956 180.112 93.9127 179.54 94.0587C178.968 94.2046 178.475 94.5679 178.167 95.0712C177.859 95.5746 177.759 96.1784 177.888 96.7542C177.966 97.0781 183.719 121.52 162.684 151.248C162.444 151.587 162.302 151.986 162.274 152.401C162.246 152.816 162.332 153.23 162.523 153.6C162.714 153.969 163.003 154.278 163.358 154.494C163.714 154.71 164.121 154.824 164.537 154.824Z" fill="#323544"/>
<path d="M564.364 109.033H382.783C379.621 109.033 376.59 110.289 374.354 112.524C372.119 114.76 370.863 117.792 370.863 120.953V173.846C370.863 177.008 372.119 180.04 374.354 182.275C376.59 184.51 379.621 185.766 382.783 185.766H387.9C388.258 185.768 388.601 185.911 388.854 186.165C389.106 186.419 389.248 186.762 389.248 187.12V200.99C389.248 201.228 389.311 201.461 389.43 201.667C389.55 201.872 389.721 202.043 389.928 202.161C390.135 202.278 390.369 202.339 390.606 202.337C390.844 202.335 391.077 202.27 391.282 202.149L418.639 185.954C418.847 185.831 419.084 185.766 419.326 185.766H564.364C567.525 185.766 570.557 184.51 572.792 182.275C575.027 180.04 576.283 177.008 576.283 173.846V120.953C576.283 117.792 575.027 114.76 572.792 112.524C570.557 110.289 567.525 109.033 564.364 109.033Z" fill="#111217"/>
<path d="M382.783 109.035C379.622 109.035 376.59 110.29 374.355 112.526C372.119 114.761 370.864 117.793 370.864 120.954V173.848C370.864 177.009 372.119 180.041 374.355 182.276C376.59 184.512 379.622 185.768 382.783 185.768H387.901C388.259 185.769 388.602 185.913 388.854 186.166C389.107 186.42 389.248 186.764 389.248 187.122V200.991C389.248 201.229 389.311 201.463 389.431 201.668C389.55 201.874 389.722 202.044 389.928 202.162C390.135 202.28 390.369 202.341 390.607 202.339C390.845 202.337 391.078 202.272 391.282 202.151L418.639 185.955C418.847 185.833 419.085 185.768 419.326 185.768H564.364C567.525 185.768 570.557 184.512 572.793 182.276C575.028 180.041 576.284 177.009 576.284 173.848V120.954C576.284 117.793 575.028 114.761 572.793 112.526C570.557 110.29 567.525 109.035 564.364 109.035H382.783ZM382.783 104.5H564.364C568.726 104.505 572.909 106.24 575.993 109.325C579.078 112.41 580.813 116.592 580.818 120.954V173.848C580.815 178.211 579.08 182.394 575.995 185.479C572.91 188.564 568.727 190.299 564.364 190.302H420.201L393.595 206.051C392.702 206.58 391.685 206.863 390.647 206.872C389.608 206.881 388.586 206.615 387.684 206.102C386.782 205.588 386.032 204.844 385.51 203.947C384.989 203.049 384.714 202.029 384.714 200.991V190.302H382.77C378.407 190.299 374.224 188.564 371.139 185.479C368.054 182.394 366.319 178.211 366.316 173.848V120.954C366.321 116.592 368.056 112.41 371.141 109.325C374.226 106.24 378.408 104.505 382.77 104.5H382.783Z" fill="#323544"/>
<path d="M576.283 129.019C565.69 129.019 557.102 120.432 557.102 109.838C557.102 99.2441 565.69 90.6562 576.283 90.6562C586.877 90.6562 595.465 99.2441 595.465 109.838C595.465 120.432 586.877 129.019 576.283 129.019Z" fill="#111217"/>
<path d="M576.284 90.6577C572.49 90.6577 568.781 91.7827 565.627 93.8904C562.473 95.9981 560.014 98.9939 558.562 102.499C557.11 106.004 556.731 109.861 557.471 113.581C558.211 117.302 560.038 120.72 562.72 123.403C565.403 126.085 568.821 127.912 572.542 128.652C576.262 129.393 580.119 129.013 583.624 127.561C587.129 126.109 590.125 123.65 592.233 120.496C594.34 117.342 595.465 113.633 595.465 109.839C595.465 104.752 593.444 99.8731 589.847 96.2759C586.25 92.6786 581.371 90.6577 576.284 90.6577ZM576.284 86.123C580.974 86.123 585.56 87.514 589.46 90.12C593.36 92.7259 596.4 96.4299 598.195 100.763C599.99 105.097 600.459 109.866 599.544 114.466C598.629 119.067 596.37 123.292 593.054 126.609C589.737 129.926 585.511 132.185 580.911 133.1C576.31 134.015 571.541 133.545 567.208 131.75C562.874 129.955 559.17 126.916 556.564 123.015C553.958 119.115 552.567 114.53 552.567 109.839C552.574 103.551 555.075 97.5231 559.521 93.0769C563.968 88.6308 569.996 86.1299 576.284 86.123Z" fill="#323544"/>
<path d="M431.601 163.393H400.448C397.353 163.393 394.844 160.884 394.844 157.789V139.424C394.844 136.329 397.353 133.82 400.448 133.82H431.601C434.696 133.82 437.204 136.329 437.204 139.424V157.789C437.204 160.884 434.696 163.393 431.601 163.393Z" fill="#006C8F"/>
<path d="M400.448 165.659H431.601C433.689 165.655 435.69 164.824 437.165 163.347C438.641 161.87 439.47 159.869 439.472 157.781V139.422C439.47 137.335 438.641 135.333 437.165 133.856C435.69 132.38 433.689 131.548 431.601 131.545H400.448C398.361 131.548 396.36 132.38 394.884 133.856C393.409 135.333 392.579 137.335 392.577 139.422V157.781C392.579 159.869 393.409 161.87 394.884 163.347C396.36 164.824 398.361 165.655 400.448 165.659ZM431.601 136.08C432.487 136.081 433.335 136.434 433.961 137.061C434.586 137.688 434.938 138.537 434.938 139.422V157.781C434.938 158.667 434.586 159.516 433.961 160.143C433.335 160.769 432.487 161.122 431.601 161.124H400.448C399.563 161.122 398.714 160.769 398.089 160.143C397.463 159.516 397.112 158.667 397.112 157.781V139.422C397.112 138.537 397.463 137.688 398.089 137.061C398.714 136.434 399.563 136.081 400.448 136.08H431.601Z" fill="#323544"/>
<path d="M436.259 163.174C436.72 163.174 437.169 163.034 437.547 162.773C437.926 162.511 438.216 162.141 438.379 161.711C438.542 161.28 438.571 160.811 438.46 160.364C438.35 159.917 438.107 159.515 437.762 159.21L417.13 140.916C416.716 140.557 416.187 140.359 415.64 140.359C415.092 140.359 414.563 140.557 414.15 140.916L393.809 158.27C393.351 158.66 393.067 159.216 393.019 159.816C392.971 160.415 393.163 161.009 393.553 161.467C393.943 161.925 394.499 162.209 395.098 162.257C395.698 162.305 396.292 162.113 396.75 161.723L415.562 145.612L434.75 162.604C435.167 162.972 435.704 163.175 436.259 163.174Z" fill="#323544"/>
<path d="M396.646 135.311L415.626 151.402L435.397 135.311" fill="#006C8F"/>
<path d="M415.627 153.671C416.147 153.672 416.651 153.491 417.052 153.159L436.829 137.068C437.296 136.688 437.592 136.139 437.654 135.54C437.715 134.942 437.536 134.344 437.156 133.877C436.777 133.411 436.227 133.114 435.629 133.053C435.031 132.992 434.432 133.171 433.966 133.55L415.652 148.45L398.116 133.55C397.658 133.161 397.063 132.97 396.463 133.019C395.864 133.069 395.309 133.354 394.919 133.813C394.53 134.271 394.339 134.866 394.388 135.465C394.438 136.065 394.723 136.62 395.182 137.01L414.156 153.101C414.562 153.461 415.084 153.663 415.627 153.671Z" fill="#323544"/>
<path d="M453.195 160.062H549.109C549.71 160.062 550.287 159.823 550.712 159.398C551.138 158.973 551.376 158.396 551.376 157.795C551.376 157.193 551.138 156.617 550.712 156.191C550.287 155.766 549.71 155.527 549.109 155.527H453.195C452.593 155.527 452.017 155.766 451.591 156.191C451.166 156.617 450.927 157.193 450.927 157.795C450.927 158.396 451.166 158.973 451.591 159.398C452.017 159.823 452.593 160.062 453.195 160.062Z" fill="#323544"/>
<path d="M453.194 144.881H453.226L505.181 144.078C505.478 144.073 505.772 144.01 506.046 143.892C506.319 143.773 506.566 143.602 506.773 143.389C506.981 143.175 507.144 142.922 507.253 142.645C507.363 142.368 507.417 142.073 507.412 141.775C507.408 141.477 507.344 141.183 507.226 140.91C507.108 140.637 506.937 140.389 506.723 140.182C506.509 139.975 506.257 139.812 505.98 139.702C505.703 139.593 505.407 139.539 505.109 139.543L453.155 140.347C452.554 140.352 451.979 140.596 451.558 141.024C451.136 141.453 450.902 142.032 450.907 142.633C450.912 143.235 451.156 143.809 451.585 144.231C452.014 144.652 452.593 144.886 453.194 144.881Z" fill="#323544"/>
<path d="M577.838 118.554H577.909C578.276 118.542 578.635 118.44 578.955 118.258C579.274 118.077 579.544 117.82 579.743 117.511L585.573 108.442C585.753 108.192 585.88 107.908 585.947 107.607C586.013 107.307 586.018 106.996 585.961 106.693C585.903 106.391 585.785 106.103 585.613 105.848C585.441 105.593 585.218 105.375 584.959 105.209C584.7 105.043 584.41 104.931 584.106 104.88C583.803 104.829 583.492 104.841 583.193 104.914C582.894 104.988 582.613 105.121 582.367 105.306C582.122 105.492 581.916 105.725 581.764 105.993L577.708 112.296L568.639 100.039C568.468 99.7845 568.248 99.5668 567.991 99.3996C567.733 99.2324 567.445 99.1191 567.143 99.0666C566.84 99.0141 566.531 99.0235 566.232 99.0943C565.934 99.165 565.652 99.2956 565.406 99.4781C565.159 99.6607 564.952 99.8913 564.797 100.156C564.643 100.421 564.543 100.715 564.505 101.019C564.467 101.323 564.491 101.632 564.576 101.927C564.661 102.222 564.804 102.497 564.998 102.734L576.011 117.634C576.221 117.921 576.496 118.154 576.814 118.314C577.131 118.474 577.482 118.556 577.838 118.554Z" fill="#323544"/>
<path d="M512.409 143.818H521.479C522.08 143.818 522.657 143.579 523.082 143.154C523.507 142.729 523.746 142.152 523.746 141.551C523.746 140.949 523.507 140.372 523.082 139.947C522.657 139.522 522.08 139.283 521.479 139.283H512.409C511.808 139.283 511.231 139.522 510.806 139.947C510.381 140.372 510.142 140.949 510.142 141.551C510.142 142.152 510.381 142.729 510.806 143.154C511.231 143.579 511.808 143.818 512.409 143.818Z" fill="#323544"/>
<path d="M133.312 309.176H287.944C290.636 309.176 293.218 310.245 295.122 312.149C297.025 314.053 298.095 316.635 298.095 319.327V364.376C298.096 365.709 297.834 367.03 297.324 368.262C296.814 369.495 296.067 370.614 295.124 371.558C294.181 372.501 293.062 373.249 291.83 373.76C290.598 374.27 289.277 374.533 287.944 374.533H283.59C283.286 374.533 282.993 374.654 282.777 374.869C282.561 375.083 282.439 375.375 282.437 375.68V387.496C282.437 387.698 282.383 387.896 282.281 388.071C282.179 388.245 282.033 388.39 281.858 388.49C281.682 388.59 281.483 388.641 281.281 388.64C281.079 388.638 280.881 388.583 280.708 388.481L257.386 374.689C257.207 374.586 257.004 374.532 256.797 374.533H133.312C130.619 374.532 128.037 373.461 126.133 371.556C124.23 369.651 123.16 367.068 123.16 364.376V319.327C123.162 316.635 124.232 314.054 126.135 312.151C128.039 310.248 130.62 309.177 133.312 309.176Z" fill="#111217"/>
<path d="M133.312 309.177C130.62 309.179 128.039 310.249 126.136 312.152C124.233 314.056 123.163 316.637 123.161 319.328V364.377C123.161 367.07 124.23 369.653 126.134 371.557C128.037 373.462 130.619 374.533 133.312 374.535H256.849C257.056 374.534 257.259 374.588 257.439 374.69L280.76 388.482C280.933 388.587 281.132 388.644 281.335 388.646C281.537 388.649 281.737 388.597 281.913 388.497C282.09 388.397 282.236 388.251 282.337 388.075C282.438 387.9 282.491 387.7 282.49 387.497V375.681C282.491 375.377 282.613 375.085 282.83 374.87C283.046 374.655 283.338 374.535 283.643 374.535H287.944C289.278 374.535 290.598 374.272 291.83 373.761C293.062 373.251 294.182 372.502 295.124 371.559C296.067 370.616 296.815 369.496 297.324 368.264C297.834 367.031 298.096 365.711 298.095 364.377V319.328C298.095 316.636 297.026 314.054 295.122 312.15C293.218 310.247 290.636 309.177 287.944 309.177H133.312ZM133.312 304.643H287.944C291.837 304.648 295.57 306.197 298.323 308.95C301.076 311.703 302.625 315.435 302.63 319.328V364.377C302.626 368.271 301.078 372.006 298.325 374.76C295.572 377.514 291.839 379.064 287.944 379.069H286.972V387.491C286.971 388.493 286.705 389.477 286.201 390.343C285.697 391.209 284.973 391.927 284.102 392.423C283.232 392.92 282.245 393.177 281.243 393.17C280.241 393.163 279.259 392.891 278.395 392.382L255.89 379.063H133.312C129.418 379.058 125.684 377.508 122.931 374.754C120.178 371.999 118.63 368.265 118.626 364.371V319.328C118.631 315.435 120.18 311.703 122.933 308.95C125.686 306.197 129.419 304.648 133.312 304.643Z" fill="#323544"/>
<path d="M187.839 352.763C180.319 352.763 174.222 346.667 174.222 339.146C174.222 331.626 180.319 325.529 187.839 325.529C195.36 325.529 201.456 331.626 201.456 339.146C201.456 346.667 195.36 352.763 187.839 352.763Z" fill="#2B2E3D"/>
<path d="M187.839 355.005C190.98 355.005 194.052 354.073 196.664 352.328C199.276 350.582 201.312 348.102 202.514 345.199C203.716 342.297 204.031 339.103 203.418 336.022C202.805 332.941 201.292 330.11 199.071 327.889C196.849 325.667 194.019 324.154 190.938 323.542C187.856 322.929 184.663 323.243 181.76 324.445C178.858 325.648 176.377 327.684 174.632 330.296C172.886 332.908 171.955 335.979 171.955 339.121C171.96 343.332 173.635 347.369 176.613 350.347C179.59 353.325 183.628 355 187.839 355.005ZM187.839 327.797C190.084 327.797 192.278 328.463 194.144 329.71C196.011 330.957 197.466 332.729 198.325 334.803C199.184 336.877 199.408 339.159 198.97 341.361C198.532 343.562 197.452 345.585 195.864 347.172C194.277 348.759 192.255 349.84 190.053 350.278C187.851 350.716 185.569 350.491 183.496 349.632C181.422 348.773 179.649 347.318 178.402 345.452C177.155 343.586 176.489 341.391 176.489 339.147C176.493 336.137 177.69 333.253 179.817 331.125C181.945 328.997 184.83 327.8 187.839 327.797Z" fill="#323544"/>
<path d="M140.523 336.413H149.068C146.606 334.566 144.17 332.526 144.533 328.924C145.181 322.116 149.975 325.517 149.975 328.924C149.975 333.685 157.295 331.645 157.379 339.134C157.437 339.378 157.465 339.628 157.463 339.879V347.652C157.463 348.496 157.157 349.31 156.602 349.945C156.047 350.58 155.28 350.992 154.444 351.105L144.131 352.485C143.248 352.603 142.35 352.531 141.496 352.274C140.643 352.016 139.855 351.579 139.184 350.992C138.514 350.405 137.976 349.681 137.608 348.869C137.24 348.058 137.05 347.177 137.051 346.285V339.891C137.05 339.435 137.139 338.983 137.313 338.561C137.487 338.139 137.743 337.755 138.066 337.432C138.388 337.109 138.771 336.853 139.193 336.678C139.615 336.503 140.067 336.413 140.523 336.413Z" fill="#006C8F"/>
<path d="M146.916 324.99C145.834 324.99 144.817 326.046 144.532 328.923C144.17 332.537 146.605 334.565 149.067 336.411H140.522C140.065 336.41 139.613 336.5 139.19 336.674C138.768 336.849 138.384 337.105 138.061 337.428C137.737 337.752 137.481 338.135 137.307 338.558C137.132 338.98 137.043 339.433 137.044 339.89V346.284C137.04 347.177 137.228 348.06 137.595 348.874C137.963 349.688 138.5 350.413 139.172 351.001C139.844 351.589 140.635 352.025 141.49 352.281C142.346 352.537 143.246 352.606 144.131 352.483L154.444 351.117C155.28 351.004 156.046 350.592 156.601 349.957C157.156 349.322 157.462 348.507 157.463 347.664V339.89C157.465 339.639 157.436 339.389 157.378 339.145C157.294 331.656 149.974 333.697 149.974 328.936C149.974 326.992 148.387 325.003 146.916 325.003V324.99ZM146.916 320.469C148.019 320.501 149.1 320.784 150.078 321.296C151.055 321.808 151.903 322.535 152.559 323.423C153.679 324.823 154.356 326.526 154.502 328.314L155.189 328.689C157.307 329.823 161.667 332.155 161.92 338.692C161.981 339.092 162.012 339.497 162.01 339.903V347.677C162.006 349.617 161.3 351.491 160.023 352.952C158.745 354.413 156.982 355.363 155.059 355.625L144.733 356.999C144.257 357.064 143.776 357.096 143.295 357.096C140.436 357.091 137.696 355.951 135.676 353.928C133.656 351.905 132.522 349.162 132.522 346.303V339.91C132.523 337.843 133.323 335.857 134.753 334.365C136.183 332.873 138.134 331.991 140.198 331.903C139.966 330.78 139.909 329.628 140.03 328.489C140.794 320.864 145.912 320.475 146.929 320.475L146.916 320.469Z" fill="#323544"/>
<path d="M216.199 356.345H282.237C282.838 356.345 283.415 356.106 283.84 355.681C284.265 355.256 284.504 354.679 284.504 354.078C284.504 353.477 284.265 352.9 283.84 352.475C283.415 352.049 282.838 351.811 282.237 351.811H216.199C215.598 351.811 215.021 352.049 214.596 352.475C214.171 352.9 213.932 353.477 213.932 354.078C213.932 354.679 214.171 355.256 214.596 355.681C215.021 356.106 215.598 356.345 216.199 356.345Z" fill="#323544"/>
<path d="M252.962 342.046C253.563 342.051 254.142 341.817 254.571 341.396C255 340.974 255.244 340.4 255.249 339.798C255.254 339.197 255.02 338.618 254.599 338.189C254.177 337.76 253.602 337.517 253.001 337.511L216.238 336.864C215.637 336.853 215.055 337.081 214.622 337.498C214.189 337.915 213.94 338.488 213.928 339.089C213.917 339.69 214.145 340.271 214.563 340.704C214.98 341.138 215.552 341.387 216.154 341.398L252.917 342.046H252.962Z" fill="#323544"/>
<path d="M263.651 341.398H269.481C270.083 341.398 270.659 341.159 271.084 340.734C271.51 340.309 271.749 339.732 271.749 339.131C271.749 338.529 271.51 337.953 271.084 337.527C270.659 337.102 270.083 336.863 269.481 336.863H263.651C263.05 336.863 262.473 337.102 262.048 337.527C261.622 337.953 261.384 338.529 261.384 339.131C261.384 339.732 261.622 340.309 262.048 340.734C262.473 341.159 263.05 341.398 263.651 341.398Z" fill="#323544"/>
</svg>
