<svg width="600" height="437" viewBox="0 0 600 437" fill="none" xmlns="http://www.w3.org/2000/svg">
<path d="M206.573 419.664H453.848C458.699 419.664 463.423 418.114 467.332 415.241C471.24 412.367 474.128 408.32 475.575 403.689L525.625 243.285C526.22 241.376 526.358 239.353 526.027 237.381C525.697 235.408 524.907 233.541 523.721 231.93C522.536 230.319 520.988 229.009 519.203 228.106C517.418 227.204 515.446 226.734 513.446 226.734H266.773L206.573 419.664Z" fill="#F0F0F0"/>
<path d="M266.773 226.734L206.572 419.664H453.848C458.699 419.664 463.423 418.114 467.332 415.241C471.24 412.367 474.128 408.32 475.575 403.689L525.625 243.285C526.22 241.376 526.358 239.353 526.027 237.38C525.697 235.408 524.907 233.541 523.721 231.93C522.536 230.319 520.988 229.009 519.203 228.106C517.418 227.204 515.446 226.734 513.446 226.734H266.773ZM266.773 222.199H513.446C516.157 222.2 518.83 222.839 521.249 224.063C523.668 225.287 525.765 227.063 527.371 229.247C528.978 231.431 530.048 233.962 530.496 236.636C530.945 239.309 530.758 242.051 529.952 244.639L479.902 405.037C478.186 410.601 474.728 415.467 470.037 418.917C465.346 422.367 459.671 424.219 453.848 424.199H206.572C205.862 424.199 205.161 424.031 204.527 423.71C203.893 423.389 203.343 422.924 202.922 422.352C202.501 421.779 202.22 421.116 202.103 420.415C201.985 419.714 202.034 418.995 202.245 418.317L262.446 225.38C262.734 224.458 263.31 223.652 264.088 223.08C264.866 222.508 265.807 222.199 266.773 222.199V222.199Z" fill="#4C3133"/>
<path d="M203.411 419.664H444.713C448.208 419.665 451.611 418.549 454.427 416.48C457.242 414.41 459.323 411.494 460.364 408.159L514.605 234.429C514.881 233.541 514.945 232.601 514.791 231.684C514.637 230.767 514.27 229.9 513.719 229.151C513.168 228.402 512.449 227.793 511.619 227.373C510.79 226.953 509.873 226.734 508.943 226.733H262.821C259.972 226.734 257.198 227.645 254.903 229.334C252.609 231.022 250.914 233.4 250.066 236.12L195.954 409.532C195.59 410.701 195.505 411.939 195.707 413.147C195.909 414.355 196.393 415.498 197.119 416.484C197.845 417.471 198.793 418.272 199.886 418.825C200.979 419.377 202.186 419.664 203.411 419.664V419.664Z" fill="white"/>
<path d="M262.821 226.733C259.972 226.734 257.198 227.645 254.904 229.334C252.609 231.023 250.914 233.4 250.066 236.12L195.955 409.532C195.59 410.701 195.505 411.94 195.707 413.147C195.91 414.355 196.393 415.498 197.119 416.485C197.845 417.471 198.793 418.273 199.886 418.825C200.979 419.377 202.186 419.665 203.411 419.664H444.713C448.208 419.665 451.611 418.55 454.427 416.48C457.242 414.41 459.323 411.495 460.364 408.159L514.605 234.429C514.881 233.542 514.945 232.601 514.791 231.685C514.637 230.768 514.27 229.9 513.719 229.151C513.168 228.402 512.449 227.793 511.619 227.373C510.79 226.953 509.873 226.734 508.943 226.733H262.821ZM262.821 222.199H508.943C510.587 222.199 512.207 222.585 513.673 223.328C515.139 224.07 516.41 225.147 517.383 226.471C518.355 227.796 519.002 229.331 519.272 230.952C519.541 232.573 519.425 234.235 518.933 235.803L464.724 409.526C463.404 413.794 460.746 417.525 457.142 420.168C453.539 422.81 449.181 424.223 444.713 424.199H203.411C201.475 424.199 199.566 423.744 197.838 422.871C196.111 421.997 194.613 420.73 193.466 419.17C192.318 417.61 191.554 415.803 191.235 413.893C190.916 411.984 191.05 410.026 191.627 408.178L245.739 234.766C246.864 231.118 249.132 227.927 252.207 225.665C255.283 223.402 259.003 222.187 262.821 222.199Z" fill="#4C3133"/>
<path d="M375.462 337.016H456.438C459.107 337.016 461.938 334.853 462.755 332.177L466.939 318.483C467.756 315.814 466.253 313.65 463.584 313.65H382.608C379.939 313.65 377.114 315.814 376.298 318.483L372.107 332.177C371.29 334.853 372.806 337.016 375.462 337.016Z" fill="#F0F0F0"/>
<path d="M224.044 400.178H446.009C452.222 400.178 458.564 395.345 460.449 389.165L502.135 252.769C503.114 249.53 502.693 246.388 500.969 244.062C500.098 242.93 498.968 242.022 497.675 241.416C496.381 240.81 494.96 240.522 493.533 240.577H271.334C265.199 240.577 258.935 245.352 257.082 251.447L215.383 387.85C214.385 391.089 214.813 394.328 216.555 396.654C217.435 397.793 218.572 398.707 219.874 399.32C221.176 399.933 222.606 400.227 224.044 400.178V400.178ZM493.533 245.112C494.251 245.065 494.969 245.19 495.629 245.476C496.289 245.763 496.872 246.202 497.329 246.757C498.197 247.93 498.359 249.595 497.795 251.447L456.096 387.85C454.8 392.074 450.175 395.624 445.99 395.624H224.044C223.308 395.671 222.572 395.542 221.896 395.248C221.22 394.954 220.624 394.503 220.157 393.933C219.27 392.735 219.101 391.037 219.678 389.152L261.384 252.769C262.679 248.617 267.214 245.112 271.315 245.112H493.533Z" fill="#4C3133"/>
<path d="M291.507 226.733H317.056C317.619 231.992 318.543 237.207 319.823 242.339C326.638 268.86 345.897 291.242 369.328 306.018C392.442 320.588 414.208 327.066 441.183 331.335C439.414 338.968 436.263 346.213 431.887 352.713H291.507V226.733Z" fill="#E2E2E0"/>
<path d="M255.993 264.954H496.732C497.218 264.955 497.69 264.8 498.081 264.512C498.472 264.224 498.76 263.818 498.902 263.354L502.53 251.493C502.979 250.206 503.118 248.831 502.936 247.48C502.754 246.129 502.255 244.841 501.481 243.719C500.702 242.705 499.691 241.893 498.534 241.349C497.376 240.806 496.105 240.548 494.828 240.597H270.038C264.629 240.597 259.109 244.801 257.464 250.165L253.843 262.026C253.74 262.365 253.717 262.722 253.777 263.071C253.837 263.42 253.978 263.75 254.188 264.034C254.398 264.319 254.672 264.55 254.988 264.71C255.304 264.87 255.653 264.953 256.006 264.954H255.993ZM495.035 260.42H259.038L261.772 251.493C262.828 248.04 266.598 245.131 270.006 245.131H494.795C495.364 245.093 495.934 245.19 496.458 245.416C496.981 245.641 497.444 245.988 497.808 246.427C498.488 247.353 498.617 248.681 498.157 250.171L495.035 260.42Z" fill="#4C3133"/>
<path d="M466.21 255.544C465.284 254.466 465.718 252.576 467.179 251.322C468.639 250.068 470.573 249.925 471.498 251.003C472.423 252.081 471.99 253.971 470.529 255.224C469.069 256.478 467.135 256.621 466.21 255.544Z" fill="#4C3133"/>
<path d="M453.029 255.538C452.103 254.46 452.537 252.57 453.998 251.316C455.458 250.062 457.392 249.919 458.317 250.997C459.242 252.075 458.809 253.965 457.348 255.219C455.888 256.473 453.954 256.615 453.029 255.538Z" fill="#4C3133"/>
<path d="M379.779 235.303C378.854 234.225 379.288 232.335 380.748 231.081C382.208 229.827 384.142 229.685 385.068 230.762C385.993 231.84 385.559 233.73 384.099 234.984C382.638 236.238 380.704 236.381 379.779 235.303Z" fill="#4C3133"/>
<path d="M480.588 255.547C479.663 254.469 480.097 252.579 481.557 251.325C483.017 250.072 484.951 249.929 485.877 251.006C486.802 252.084 486.368 253.974 484.908 255.228C483.447 256.482 481.513 256.625 480.588 255.547Z" fill="#4C3133"/>
<path d="M386.287 301.613H467.263C469.932 301.613 472.757 299.45 473.573 296.774L477.751 283.092C478.568 280.423 477.065 278.26 474.396 278.26H393.42C390.751 278.26 387.92 280.423 387.103 283.092L382.919 296.787C382.115 299.45 383.618 301.613 386.287 301.613Z" fill="#F0F0F0"/>
<path d="M364.638 372.419H445.614C448.283 372.419 451.114 370.256 451.93 367.58L456.115 353.885C456.931 351.216 455.428 349.053 452.759 349.053H371.783C369.114 349.053 366.29 351.216 365.474 353.885L361.282 367.58C360.466 370.256 361.969 372.419 364.638 372.419Z" fill="#F0F0F0"/>
<path d="M312.519 371.797C308.144 366.702 310.2 357.761 317.111 351.827C324.022 345.893 333.171 345.213 337.546 350.308C341.92 355.403 339.864 364.344 332.953 370.278C326.042 376.212 316.894 376.892 312.519 371.797Z" fill="#F0F0F0"/>
<path d="M453.906 419.664H10.7401C10.7393 421.188 11.0387 422.697 11.6214 424.106C12.2041 425.514 13.0586 426.794 14.136 427.872C15.2135 428.95 16.4928 429.805 17.9009 430.389C19.3089 430.972 20.8182 431.272 22.3424 431.272H442.297C443.821 431.272 445.33 430.972 446.737 430.389C448.145 429.806 449.424 428.951 450.501 427.874C451.579 426.797 452.433 425.518 453.017 424.11C453.6 422.702 453.9 421.194 453.9 419.67V419.67L453.906 419.664Z" fill="#F0F0F0"/>
<path d="M10.7399 419.664C10.7391 421.188 11.0385 422.697 11.6212 424.106C12.2039 425.514 13.0584 426.794 14.1358 427.872C15.2133 428.95 16.4926 429.805 17.9007 430.389C19.3087 430.972 20.818 431.273 22.3422 431.273H442.297C445.376 431.273 448.329 430.049 450.506 427.872C452.683 425.695 453.906 422.743 453.906 419.664H10.7399V419.664ZM10.7399 415.129H453.906C455.109 415.129 456.262 415.607 457.112 416.457C457.963 417.308 458.441 418.461 458.441 419.664C458.427 423.941 456.722 428.039 453.697 431.064C450.673 434.088 446.574 435.794 442.297 435.807H22.3422C18.066 435.792 13.9694 434.086 10.9463 431.062C7.92321 428.037 6.21893 423.94 6.20527 419.664C6.20527 418.461 6.68301 417.308 7.53343 416.457C8.38384 415.607 9.53727 415.129 10.7399 415.129Z" fill="#4C3133"/>
<path d="M436.091 425.753C438.183 425.752 440.237 425.186 442.034 424.114C443.831 423.042 445.305 421.505 446.3 419.664H453.905C453.905 422.742 452.682 425.695 450.505 427.872C448.328 430.049 445.376 431.272 442.297 431.272H22.3417C20.2143 431.271 18.1283 430.685 16.3117 429.577C14.4951 428.47 13.0179 426.885 12.0415 424.995C13.3473 425.492 14.7321 425.749 16.1292 425.753H436.091Z" fill="#E2E2E0"/>
<path d="M245.37 419.664C245.37 419.664 244.411 427.748 254.685 434.032Z" fill="white"/>
<path d="M254.685 436.299C255.18 436.301 255.662 436.14 256.058 435.842C256.453 435.544 256.74 435.124 256.874 434.648C257.008 434.171 256.983 433.663 256.802 433.202C256.621 432.742 256.293 432.353 255.87 432.095C247.08 426.725 247.598 420.189 247.624 419.91C247.692 419.309 247.518 418.705 247.141 418.232C246.763 417.759 246.214 417.455 245.612 417.387C245.011 417.319 244.407 417.493 243.934 417.87C243.461 418.247 243.157 418.797 243.089 419.398C243.044 419.787 242.085 429.005 253.454 435.969C253.825 436.193 254.252 436.307 254.685 436.299V436.299Z" fill="#4C3133"/>
<path d="M56.6177 324.39C53.1066 324.261 49.751 323.004 46.4666 321.76C42.8583 320.393 39.25 319.02 35.7518 317.381C32.759 315.975 24.2662 310.994 23.3009 309.562C22.3357 308.13 22.2256 305.979 23.4953 304.807C25.4387 303.006 28.9434 304.6 31.1071 303.051C34.0222 300.965 31.3079 297.163 28.885 296.1C25.2768 294.513 21.1114 295.401 17.516 293.762C14.8665 292.544 12.8647 289.123 14.4713 286.694C15.7345 284.79 18.5201 284.459 19.9324 282.665C22.109 279.892 19.576 275.681 16.3759 274.198C13.1757 272.715 9.43782 272.702 6.28947 271.121C3.14112 269.54 0.88678 265.07 3.32902 262.537C6.50976 259.234 13.0461 263.269 16.3564 260.069C18.9477 257.53 16.9135 253.138 14.549 250.352C12.1845 247.567 9.36659 244.042 10.8954 240.739C12.3465 237.597 16.8941 237.273 19.9647 238.795C23.0354 240.318 25.3416 243.136 28.2308 245.04C31.12 246.945 35.3567 247.741 37.8119 245.299C39.859 243.259 39.7553 239.877 41.3748 237.474C44.3094 233.075 51.6685 234.235 54.9788 238.394C58.2891 242.553 58.5741 248.24 58.6065 253.526C58.6065 257.07 59.8374 261.896 63.3744 261.65C65.8361 261.488 67.2613 258.728 69.4768 257.659C73.6746 255.651 78.2935 260.898 77.8983 265.511C77.5031 270.123 74.2641 273.932 71.7765 277.884C66.8337 285.697 65.2984 295.213 65.2984 304.574C65.3049 313.164 69.8007 324.863 56.6177 324.39Z" fill="#FFD900"/>
<path d="M57.3756 326.671C61.1523 326.671 63.8925 325.705 65.7453 323.73C68.9843 320.303 68.4401 314.991 67.9284 309.853C67.747 308.001 67.5721 306.245 67.5721 304.632C67.5721 293.995 69.5868 285.658 73.7068 279.147C74.1862 278.389 74.6915 277.638 75.2033 276.886C77.4641 273.531 79.8092 270.065 80.1655 265.751C80.2561 263.938 79.8881 262.132 79.0954 260.499C78.3028 258.866 77.1112 257.459 75.6308 256.409C74.6149 255.65 73.4121 255.18 72.1504 255.05C70.8888 254.92 69.6155 255.135 68.4661 255.671C67.3573 256.257 66.3456 257.011 65.4667 257.906C64.5986 258.702 63.8472 259.396 63.1864 259.441C63.0416 259.458 62.8948 259.441 62.7576 259.392C62.6204 259.342 62.4967 259.262 62.3961 259.156C61.4956 258.32 60.8543 256.021 60.8413 253.565C60.809 248.046 60.4591 241.762 56.7213 237.04C55.4971 235.563 53.9509 234.387 52.2014 233.601C50.4518 232.814 48.5454 232.44 46.6284 232.505C45.2233 232.516 43.8416 232.867 42.601 233.527C41.3604 234.186 40.2974 235.136 39.5025 236.295C38.7191 237.578 38.1318 238.971 37.7599 240.428C37.3388 241.821 36.9696 243.019 36.2246 243.77C34.7023 245.286 31.6187 244.619 29.4939 243.22C28.3737 242.445 27.3048 241.599 26.2937 240.687C24.6965 239.188 22.916 237.897 20.9946 236.845C18.4936 235.586 15.5994 235.353 12.9294 236.198C12.0334 236.488 11.2065 236.959 10.5001 237.582C9.79359 238.205 9.22254 238.966 8.8223 239.819C6.61327 244.606 10.6426 249.316 12.8128 251.849C14.7562 254.097 16.0518 257.167 14.7562 258.443C13.8687 259.318 11.9965 259.162 10.0207 259.007C7.35176 258.793 4.0285 258.528 1.68343 260.95C1.00931 261.659 0.515071 262.519 0.24227 263.458C-0.0305301 264.397 -0.0739108 265.387 0.115745 266.347C0.412582 267.789 1.0279 269.146 1.91671 270.319C2.80552 271.493 3.94535 272.453 5.25287 273.129C7.08363 273.969 9.01156 274.578 10.9924 274.943C12.5061 275.221 13.9867 275.655 15.4105 276.239C16.1177 276.574 16.7477 277.052 17.2607 277.643C17.7736 278.234 18.1583 278.925 18.3904 279.672C18.4799 279.934 18.5037 280.214 18.4596 280.487C18.4156 280.761 18.305 281.019 18.1378 281.24C17.5738 281.786 16.9153 282.225 16.1944 282.535C14.7553 283.162 13.5047 284.153 12.5666 285.412C12.0905 286.144 11.781 286.972 11.6601 287.838C11.5392 288.703 11.6099 289.584 11.867 290.419C12.2281 291.592 12.8316 292.677 13.6384 293.602C14.4453 294.527 15.4374 295.272 16.5507 295.79C18.7143 296.781 20.9104 296.988 23.0287 297.182C24.7078 297.243 26.3669 297.566 27.9456 298.141C28.9368 298.575 29.9862 299.812 30.0704 300.642C30.0704 300.797 30.0704 300.933 29.7595 301.179C29.2995 301.51 28.2954 301.523 27.3302 301.536C25.6653 301.536 23.5859 301.587 21.9339 303.11C19.9193 304.969 19.6925 308.292 21.3963 310.799C22.9186 313.06 32.8949 318.521 34.767 319.396C38.479 321.164 42.2946 322.609 45.6632 323.904C48.9022 325.142 52.6142 326.541 56.5334 326.677L57.3756 326.671ZM71.4071 259.538C72.0151 259.561 72.6011 259.772 73.0849 260.141C73.9112 260.735 74.5793 261.523 75.0309 262.436C75.4826 263.348 75.7042 264.357 75.6762 265.375C75.4106 268.51 73.4996 271.348 71.4719 274.347C70.9342 275.137 70.403 275.928 69.8977 276.725C65.3047 283.98 63.0698 293.108 63.0633 304.626C63.0633 306.465 63.2577 308.415 63.4455 310.3C63.8537 314.433 64.2747 318.722 62.4674 320.627C61.4438 321.721 59.4939 322.22 56.7213 322.123C53.547 322.006 50.3663 320.827 47.2957 319.642C44.0048 318.398 40.2734 316.986 36.7428 315.327C33.6204 313.857 26.2484 309.419 25.1795 308.247C24.7714 307.599 24.7649 306.744 25.0629 306.478C25.3609 306.213 26.4557 306.116 27.4468 306.103C28.9562 306.103 30.8348 306.051 32.4479 304.898C33.2091 304.392 33.8162 303.686 34.2024 302.857C34.5887 302.028 34.7392 301.11 34.6375 300.201C34.346 297.435 31.9426 294.954 29.8243 294.028C27.8025 293.25 25.6661 292.813 23.5016 292.732C21.7841 292.677 20.0876 292.338 18.4811 291.728C17.9666 291.481 17.5066 291.134 17.1283 290.707C16.75 290.279 16.4611 289.781 16.2786 289.24C16.1967 289.037 16.164 288.817 16.1832 288.599C16.2023 288.38 16.2727 288.169 16.3887 287.983C16.9303 287.391 17.5932 286.923 18.3321 286.61C19.6214 286.011 20.7676 285.143 21.6943 284.064C22.2817 283.304 22.6865 282.42 22.8775 281.478C23.0685 280.537 23.0404 279.564 22.7955 278.636C22.4048 277.223 21.7117 275.912 20.7643 274.793C19.8169 273.675 18.6378 272.775 17.3086 272.157C15.5958 271.426 13.8079 270.885 11.9771 270.544C10.3618 270.254 8.78718 269.772 7.28699 269.106C6.61259 268.75 6.02213 268.253 5.55514 267.65C5.08815 267.046 4.75541 266.35 4.57916 265.608C4.50821 265.349 4.50427 265.077 4.56773 264.816C4.6312 264.556 4.75999 264.315 4.94193 264.118C5.73873 263.295 7.25458 263.347 9.65147 263.542C12.2816 263.749 15.553 264.015 17.9175 261.708C21.4092 258.301 19.5953 252.827 16.2526 248.914C14.1667 246.478 12.0225 243.732 12.9359 241.73C13.0851 241.431 13.2945 241.166 13.5509 240.952C13.8073 240.738 14.1052 240.58 14.4259 240.486C15.9338 240.041 17.5542 240.185 18.9605 240.888C20.5438 241.783 22.0103 242.871 23.3267 244.127C24.4857 245.172 25.7128 246.14 26.9998 247.022C30.5952 249.393 36.0173 250.391 39.4248 247.022C40.9795 245.474 41.5755 243.511 42.1002 241.782C42.3536 240.754 42.7482 239.766 43.2728 238.847C43.6812 238.288 44.218 237.835 44.838 237.526C45.458 237.217 46.1431 237.061 46.8357 237.072C48.0393 237.041 49.2347 237.28 50.3335 237.772C51.4323 238.264 52.4065 238.997 53.1842 239.916C56.0281 243.511 56.2937 248.674 56.3261 253.656C56.3261 255.094 56.5723 259.985 59.3255 262.544C59.8813 263.069 60.5405 263.473 61.261 263.73C61.9815 263.986 62.7475 264.09 63.5103 264.034C65.7712 263.878 67.3194 262.447 68.5632 261.294C69.1198 260.721 69.7518 260.226 70.4419 259.823C70.7366 259.653 71.0674 259.556 71.4071 259.538V259.538Z" fill="#4C3133"/>
<path d="M106.493 352.408L96.2897 414.753H45.6634L34.0936 352.512C33.6013 349.856 35.3374 347.329 37.663 347.329H102.904C105.197 347.323 106.92 349.752 106.493 352.408Z" fill="white"/>
<path d="M37.6566 347.323C35.3245 347.323 33.5948 349.823 34.0871 352.505L45.6635 414.721H96.2898L106.493 352.408C106.92 349.784 105.197 347.355 102.904 347.355H37.6566V347.323ZM37.6566 342.821H102.904C104.06 342.828 105.2 343.087 106.245 343.581C107.29 344.074 108.214 344.79 108.954 345.677C109.811 346.701 110.435 347.898 110.783 349.187C111.131 350.476 111.194 351.825 110.969 353.14L100.766 415.485C100.592 416.547 100.047 417.513 99.2268 418.209C98.4067 418.906 97.3657 419.288 96.2898 419.288H45.6635C44.6029 419.289 43.5755 418.918 42.76 418.24C41.9445 417.562 41.3925 416.619 41.2001 415.576L29.6367 353.334C29.3812 352.005 29.4229 350.635 29.7589 349.324C30.0949 348.012 30.7168 346.792 31.5801 345.749C32.3192 344.84 33.2502 344.106 34.3064 343.6C35.3626 343.094 36.5177 342.828 37.689 342.821H37.6566Z" fill="#4C3133"/>
<path d="M77.3673 405.652C80.6633 405.65 83.8511 404.476 86.3611 402.34C88.8711 400.204 90.5397 397.245 91.0685 393.991L98.7062 347.304H102.904C105.197 347.304 106.92 349.733 106.493 352.357L96.2898 414.702H45.6636L43.6813 404.058C45.6556 405.088 47.8485 405.628 50.0751 405.632L77.3673 405.652Z" fill="#F0F0F0"/>
<path d="M63.1087 345.632C63.2763 345.63 63.4433 345.613 63.6076 345.58C63.8982 345.514 64.1729 345.392 64.4162 345.22C64.6594 345.048 64.8664 344.83 65.0252 344.577C65.1841 344.325 65.2917 344.044 65.3419 343.751C65.3921 343.457 65.3839 343.156 65.3178 342.866C62.299 329.469 59.1765 315.612 54.0394 302.52C48.2091 287.698 40.4743 275.805 30.9968 267.163C30.5519 266.757 29.964 266.545 29.3626 266.573C28.7613 266.601 28.1956 266.867 27.7902 267.312C27.3847 267.757 27.1726 268.345 27.2006 268.946C27.2285 269.547 27.4942 270.113 27.9392 270.519C36.8984 278.681 44.2575 290.005 49.8222 304.205C54.8297 316.973 57.9133 330.655 60.8932 343.889C61.0127 344.387 61.2964 344.829 61.6984 345.145C62.1004 345.462 62.5973 345.633 63.1087 345.632Z" fill="#4C3133"/>
<path d="M62.0983 304.01C66.6719 310.527 74.9638 320.73 83.7546 320.918C90.9388 321.074 97.2484 314.44 101.977 309.698C109.433 302.3 115.342 293.491 119.358 283.786C119.669 283.021 119.967 282.108 119.533 281.408C118.639 279.957 116.495 281.233 114.836 281.622C112.18 282.27 109.576 279.821 109.006 277.152C108.436 274.483 109.252 271.73 110.082 269.126L119.06 240.894C119.87 238.303 120.693 235.595 119.954 233.017C119.216 230.439 116.229 228.327 113.826 229.532C110.82 231.035 110.146 236.612 106.823 236.081C104.232 235.666 104.122 231.967 104.633 229.363C107.558 214.463 107.157 199.101 103.461 184.373C102.956 182.371 102.016 180.033 99.9822 179.709C97.4428 179.294 95.7844 182.384 95.5771 184.943C95.3698 187.502 95.6483 190.449 93.828 192.263C91.7874 194.304 88.1273 193.559 86.0543 191.564C83.9813 189.568 83.0291 186.699 81.9537 184.017C79.913 178.898 77.1914 174.078 73.8626 169.687C71.5888 166.688 67.9416 163.617 64.4888 165.107C61.3534 166.461 60.7639 170.6 60.8869 174.008C61.1849 182.358 63.0376 190.559 64.8774 198.709L52.0638 188.137C50.7682 187.068 49.2523 185.934 47.5939 186.161C45.0027 186.517 44.0245 189.75 43.9856 192.36C43.946 196.602 44.8287 200.802 46.5725 204.668C48.3163 208.535 50.8796 211.977 54.0849 214.755C56.0284 216.42 58.2698 217.871 59.6755 220.028C61.0813 222.185 61.3598 225.386 59.4617 227.154L49.0968 220.981C47.5745 220.074 45.7606 219.141 44.1216 219.808C42.4827 220.475 41.8738 222.328 42.0746 223.98C42.2754 225.632 43.1694 227.102 44.018 228.515L62.6749 258.476C63.1017 259.043 63.368 259.714 63.4458 260.419C63.4911 262.447 60.6213 263.218 58.7492 262.447C56.877 261.676 55.3482 260.082 53.3594 259.694C50.0556 259.046 46.985 262.194 46.4278 265.524C45.8707 268.854 47.0757 272.17 48.3 275.312C52.1415 285.243 55.983 295.297 62.0983 304.01Z" fill="#FFD900"/>
<path d="M84.0008 323.186C91.6838 323.186 98.1489 316.708 102.891 311.992L103.578 311.305C111.24 303.683 117.317 294.618 121.457 284.635C121.755 283.909 122.552 281.979 121.457 280.21C119.831 277.567 116.806 278.597 115.348 279.089C114.966 279.219 114.603 279.342 114.312 279.407C114.067 279.455 113.814 279.452 113.57 279.399C113.326 279.345 113.096 279.242 112.893 279.096C112.037 278.526 111.428 277.654 111.189 276.654C110.71 274.509 111.507 272.009 112.206 269.806L121.185 241.575C121.975 239.1 123.051 235.712 122.105 232.389C121.781 231.307 121.23 230.306 120.486 229.456C119.743 228.605 118.826 227.924 117.797 227.459C117.011 227.092 116.153 226.905 115.286 226.912C114.418 226.919 113.563 227.119 112.783 227.498C110.904 228.431 109.829 230.186 108.896 231.735C108.339 232.648 107.6 233.905 107.166 233.84C107.089 233.84 107.076 233.84 107.017 233.743C106.648 233.212 106.473 231.689 106.842 229.798C109.827 214.564 109.418 198.86 105.644 183.803C104.685 180.007 102.897 177.869 100.332 177.455C99.6281 177.339 98.9075 177.374 98.2183 177.558C97.5291 177.742 96.8871 178.072 96.335 178.523C94.3398 180.091 93.4652 182.767 93.3033 184.755C93.2644 185.261 93.245 185.779 93.2191 186.304C93.1413 188.098 93.0701 189.795 92.215 190.65C91.1461 191.713 88.8658 191.13 87.6155 189.925C86.1385 188.493 85.3029 186.375 84.4283 184.127L84.0461 183.162C81.9191 177.854 79.0864 172.858 75.6246 168.308C71.8673 163.345 67.3456 161.37 63.5429 163.015C61.1331 164.058 58.3151 166.824 58.5743 174.08C58.8963 180.368 59.7633 186.617 61.1655 192.756L53.3918 186.375C52.1869 185.384 49.9325 183.531 47.1728 183.907C43.8625 184.354 41.6794 187.658 41.6081 192.328C41.561 196.909 42.5159 201.445 44.4059 205.617C46.296 209.79 49.0754 213.499 52.5496 216.485C53.042 216.9 53.5408 217.301 54.0396 217.703C55.4418 218.693 56.6792 219.897 57.7062 221.272C58.2212 222.066 58.4874 222.995 58.4706 223.941L50.1916 219.005C48.8377 218.202 46.0327 216.53 43.2018 217.709C40.8243 218.681 39.4056 221.37 39.7554 224.252C40.021 226.429 41.1482 228.249 42.0551 229.713L60.6667 259.707C60.8019 259.916 60.9251 260.132 61.0359 260.355C60.5475 260.539 60.0085 260.539 59.5201 260.355C58.8812 260.065 58.2698 259.718 57.6932 259.318C56.4973 258.452 55.1441 257.827 53.7092 257.478C52.7458 257.303 51.7571 257.325 50.802 257.54C49.847 257.756 48.9454 258.163 48.151 258.735C46.0136 260.256 44.5613 262.558 44.1087 265.142C43.4609 269.165 44.912 273.019 46.1039 276.155C49.9066 286.086 53.8776 296.36 60.1614 305.351C68.3756 317.051 76.2659 323.063 83.625 323.225L84.0008 323.186ZM117.11 283.281C113.203 292.561 107.521 300.989 100.384 308.092L99.6842 308.785C95.2273 313.235 89.6885 318.787 83.8064 318.651C78.0539 318.528 71.1936 313.015 63.9575 302.708C57.9653 294.177 54.1303 284.168 50.4184 274.49C49.3754 271.769 48.1964 268.66 48.6693 265.887C48.9178 264.51 49.6883 263.283 50.82 262.46C51.1175 262.235 51.457 262.071 51.8185 261.979C52.18 261.887 52.5563 261.867 52.9254 261.922C53.792 262.177 54.6059 262.585 55.3287 263.127C56.148 263.677 57.0153 264.152 57.92 264.546C58.8796 264.933 59.918 265.084 60.9482 264.987C61.9783 264.89 62.9702 264.548 63.8409 263.989C64.4387 263.597 64.927 263.06 65.2602 262.428C65.5933 261.795 65.7603 261.089 65.7455 260.374C65.6687 259.262 65.2853 258.192 64.6377 257.284L46.0262 227.291C45.2877 226.092 44.5168 224.861 44.3743 223.669C44.2836 222.911 44.5945 222.056 45.0221 221.875C45.7671 221.577 47.3737 222.523 47.9826 222.898L58.3475 229.072C58.7672 229.321 59.2557 229.428 59.741 229.378C60.2262 229.328 60.6825 229.123 61.0424 228.793C63.9187 226.15 63.4911 221.668 61.619 218.798C60.3395 217.004 58.7722 215.435 56.9806 214.153C56.5142 213.786 56.0543 213.41 55.6008 213.026C52.629 210.479 50.25 207.313 48.6308 203.75C47.0115 200.187 46.1911 196.313 46.227 192.4C46.227 190.586 46.8748 188.545 47.8724 188.409C48.6692 188.305 49.9195 189.335 50.5932 189.886L63.4134 200.452C63.7774 200.739 64.2207 200.907 64.6834 200.935C65.1461 200.962 65.6061 200.847 66.0014 200.605C66.3967 200.363 66.7083 200.005 66.8942 199.581C67.0801 199.156 67.1314 198.685 67.0411 198.23C65.2467 190.301 63.3939 182.106 63.1024 173.943C63.0376 172.24 63.1024 168.159 65.3374 167.213C67.4104 166.312 70.2283 168.729 72.0033 171.1C75.2039 175.33 77.8188 179.974 79.777 184.904L80.1463 185.831C81.1115 188.318 82.2128 191.13 84.4024 193.242C87.2592 196.001 92.3445 196.928 95.3633 193.89C97.4622 191.791 97.5918 188.875 97.689 186.537C97.689 186.064 97.7343 185.598 97.7667 185.144C97.8211 184.015 98.2811 182.943 99.0623 182.125C99.315 181.924 99.4445 181.95 99.5352 181.963C99.9822 182.035 100.649 182.857 101.174 184.943C104.783 199.349 105.177 214.374 102.327 228.949C102.042 230.381 101.563 233.976 103.228 236.36C103.589 236.89 104.055 237.34 104.598 237.681C105.141 238.022 105.748 238.247 106.383 238.342C109.777 238.886 111.526 236.023 112.692 234.131C113.34 233.05 114.04 231.935 114.759 231.579C114.943 231.498 115.144 231.461 115.345 231.471C115.547 231.481 115.743 231.538 115.918 231.637C116.337 231.833 116.71 232.114 117.015 232.462C117.319 232.81 117.548 233.217 117.687 233.658C118.218 235.518 117.609 237.733 116.812 240.227L107.834 268.459C107.004 271.05 105.968 274.328 106.713 277.664C107.211 279.849 108.546 281.752 110.431 282.963C111.143 283.426 111.939 283.743 112.775 283.896C113.61 284.048 114.467 284.033 115.296 283.851C115.802 283.728 116.288 283.566 116.754 283.41L117.11 283.281Z" fill="#4C3133"/>
<path d="M79.0645 345.062C79.5424 345.061 80.0078 344.909 80.394 344.627C80.7803 344.346 81.0677 343.949 81.2152 343.495C93.3647 305.886 93.0603 265.361 80.3471 227.938C80.2594 227.646 80.1138 227.375 79.9189 227.141C79.7239 226.906 79.4837 226.714 79.2126 226.574C78.9415 226.435 78.6451 226.352 78.341 226.329C78.037 226.307 77.7315 226.346 77.443 226.445C77.1545 226.543 76.8889 226.699 76.6619 226.903C76.4349 227.106 76.2513 227.353 76.1221 227.629C75.9928 227.905 75.9206 228.205 75.9097 228.509C75.8988 228.814 75.9494 229.118 76.0586 229.403C88.4615 265.906 88.7591 305.436 76.9072 342.121C76.7985 342.462 76.7715 342.823 76.8282 343.176C76.885 343.529 77.0239 343.864 77.2339 344.154C77.4439 344.443 77.719 344.679 78.037 344.842C78.3549 345.006 78.7069 345.092 79.0645 345.095V345.062Z" fill="#4C3133"/>
<path d="M68.0127 362.125H107.529C108.13 362.125 108.707 361.886 109.132 361.461C109.557 361.036 109.796 360.459 109.796 359.858C109.796 359.256 109.557 358.68 109.132 358.254C108.707 357.829 108.13 357.59 107.529 357.59H68.0127C67.4114 357.59 66.8347 357.829 66.4095 358.254C65.9843 358.68 65.7454 359.256 65.7454 359.858C65.7454 360.459 65.9843 361.036 66.4095 361.461C66.8347 361.886 67.4114 362.125 68.0127 362.125V362.125Z" fill="#4C3133"/>
<path d="M45.9874 362.125H53.7611C54.3624 362.125 54.9391 361.886 55.3643 361.461C55.7896 361.036 56.0284 360.459 56.0284 359.858C56.0284 359.256 55.7896 358.68 55.3643 358.254C54.9391 357.829 54.3624 357.59 53.7611 357.59H45.9874C45.3861 357.59 44.8094 357.829 44.3842 358.254C43.959 358.68 43.7201 359.256 43.7201 359.858C43.7201 360.459 43.959 361.036 44.3842 361.461C44.8094 361.886 45.3861 362.125 45.9874 362.125V362.125Z" fill="#4C3133"/>
<path d="M183.478 4.53443H328.924C330.177 4.53358 331.418 4.77955 332.576 5.25831C333.734 5.73706 334.787 6.43923 335.673 7.3247C336.56 8.21018 337.264 9.26162 337.744 10.419C338.224 11.5764 338.472 12.8171 338.473 14.0702V56.4369C338.474 57.6902 338.228 58.9314 337.748 60.0895C337.269 61.2476 336.566 62.2999 335.68 63.1861C334.794 64.0724 333.741 64.7752 332.583 65.2545C331.425 65.7337 330.184 65.98 328.931 65.9791H324.83C324.543 65.9791 324.268 66.0931 324.065 66.296C323.862 66.4988 323.748 66.774 323.748 67.0609V78.1709C323.75 78.3617 323.701 78.5495 323.606 78.715C323.511 78.8806 323.374 79.0178 323.208 79.1128C323.042 79.2077 322.855 79.257 322.664 79.2554C322.473 79.2538 322.286 79.2014 322.122 79.1037L300.207 66.1475C300.041 66.0454 299.851 65.9915 299.656 65.9921H183.478C182.223 65.9929 180.981 65.7463 179.822 65.2663C178.662 64.7864 177.609 64.0825 176.722 63.1949C175.835 62.3074 175.132 61.2536 174.653 60.094C174.174 58.9344 173.928 57.6916 173.929 56.4369V14.0702C173.933 11.5399 174.94 9.11452 176.731 7.32659C178.521 5.53866 180.948 4.53442 183.478 4.53443V4.53443Z" fill="white"/>
<path d="M183.478 4.53466C180.948 4.53466 178.521 5.5389 176.731 7.32683C174.94 9.11475 173.933 11.5402 173.929 14.0704V56.4371C173.929 57.6908 174.176 58.9321 174.656 60.0903C175.136 61.2484 175.84 62.3006 176.726 63.1868C177.613 64.0729 178.666 64.7757 179.824 65.2548C180.983 65.734 182.224 65.9802 183.478 65.9793H299.649C299.844 65.9788 300.035 66.0327 300.2 66.1348L322.115 79.091C322.28 79.1888 322.468 79.2403 322.66 79.24C322.947 79.24 323.222 79.126 323.425 78.9231C323.628 78.7202 323.741 78.4451 323.741 78.1581V67.0612C323.741 66.7743 323.855 66.4991 324.058 66.2962C324.261 66.0933 324.536 65.9793 324.823 65.9793H328.924C330.178 65.981 331.42 65.7354 332.579 65.2566C333.737 64.7777 334.79 64.075 335.677 63.1887C336.564 62.3023 337.268 61.2498 337.747 60.0913C338.227 58.9327 338.474 57.691 338.473 56.4371V14.0704C338.472 12.8173 338.224 11.5766 337.744 10.4192C337.263 9.26186 336.56 8.21041 335.673 7.32494C334.787 6.43946 333.734 5.7373 332.576 5.25854C331.418 4.77979 330.177 4.53381 328.924 4.53466H183.478ZM183.478 0H328.924C332.656 0.00342371 336.234 1.48653 338.874 4.12413C341.514 6.76173 343 10.3386 343.007 14.0704V56.4371C343.002 60.1689 341.517 63.7465 338.879 66.3853C336.24 69.0241 332.662 70.5089 328.93 70.514H328.283V78.1711C328.284 79.1623 328.023 80.1362 327.526 80.9937C327.028 81.8511 326.313 82.5616 325.452 83.0526C324.591 83.5437 323.615 83.7979 322.624 83.7893C321.633 83.7807 320.662 83.5097 319.809 83.0038L298.71 70.514H183.478C179.745 70.5106 176.166 69.0266 173.526 66.3876C170.885 63.7486 169.4 60.1701 169.395 56.4371V14.0704C169.401 10.3386 170.888 6.76173 173.528 4.12413C176.168 1.48653 179.746 0.00342371 183.478 0Z" fill="#4C3133"/>
<path d="M246.225 43.8957H323.055C323.656 43.8957 324.233 43.6569 324.658 43.2317C325.083 42.8065 325.322 42.2297 325.322 41.6284C325.322 41.0271 325.083 40.4504 324.658 40.0252C324.233 39.6 323.656 39.3611 323.055 39.3611H246.225C245.623 39.3611 245.047 39.6 244.621 40.0252C244.196 40.4504 243.957 41.0271 243.957 41.6284C243.957 42.2297 244.196 42.8065 244.621 43.2317C245.047 43.6569 245.623 43.8957 246.225 43.8957V43.8957Z" fill="#4C3133"/>
<path d="M323.055 31.7425C323.656 31.7468 324.235 31.5121 324.663 31.0899C325.091 30.6677 325.334 30.0927 325.339 29.4914C325.343 28.89 325.108 28.3116 324.686 27.8834C324.264 27.4551 323.689 27.2121 323.087 27.2079L281.466 26.56C281.168 26.5558 280.872 26.6102 280.596 26.7202C280.319 26.8303 280.067 26.9937 279.853 27.2012C279.639 27.4088 279.469 27.6563 279.351 27.9298C279.233 28.2032 279.17 28.4972 279.166 28.795C279.162 29.0927 279.216 29.3884 279.326 29.6651C279.436 29.9418 279.6 30.1942 279.807 30.4077C280.015 30.6213 280.262 30.7919 280.536 30.9097C280.809 31.0276 281.103 31.0905 281.401 31.0947L323.016 31.7425H323.055Z" fill="#4C3133"/>
<path d="M214.009 38.0197C217.611 37.8836 228.015 38.4213 230.457 48.9871C230.522 49.2853 230.682 49.5541 230.914 49.7523C231.146 49.9504 231.437 50.0669 231.741 50.0838C232.046 50.1008 232.348 50.0172 232.6 49.846C232.853 49.6747 233.042 49.4253 233.139 49.1361C235.407 42.3665 236.015 30.5375 213.932 28.5034C213.604 28.4795 213.294 28.3413 213.057 28.1129C212.821 27.8844 212.672 27.5802 212.636 27.2531L211.807 18.7862C211.783 18.5381 211.693 18.3009 211.546 18.0995C211.399 17.8981 211.2 17.7398 210.971 17.6412C210.742 17.5425 210.491 17.5072 210.244 17.5388C209.997 17.5705 209.762 17.6679 209.565 17.821L191.038 32.2283C190.876 32.3536 190.744 32.5132 190.65 32.6956C190.557 32.8781 190.505 33.0788 190.498 33.2836C190.491 33.4884 190.53 33.6922 190.611 33.8804C190.692 34.0686 190.813 34.2366 190.967 34.3725L209.468 50.8204C209.661 50.994 209.899 51.11 210.155 51.1555C210.411 51.2009 210.674 51.174 210.916 51.0776C211.157 50.9813 211.366 50.8194 211.52 50.6102C211.674 50.401 211.767 50.153 211.787 49.894L212.675 39.3023C212.703 38.9627 212.854 38.645 213.1 38.4088C213.345 38.1727 213.669 38.0343 214.009 38.0197V38.0197Z" fill="#C5E6F1"/>
<path d="M210.394 53.4439C211.314 53.4424 212.199 53.0962 212.875 52.4737C213.552 51.8512 213.97 50.9977 214.048 50.0818L214.864 40.274C218.751 40.274 226.363 41.3428 228.248 49.4988C228.424 50.2784 228.85 50.9791 229.461 51.4939C230.072 52.0086 230.835 52.3091 231.634 52.3495C232.432 52.3899 233.221 52.1679 233.881 51.7175C234.542 51.2671 235.036 50.613 235.29 49.8551C237.168 44.245 236.799 39.1921 234.227 35.247C230.988 30.3171 224.51 27.3113 214.838 26.3137L214.067 18.54C214.003 17.8878 213.765 17.2649 213.378 16.7362C212.991 16.2074 212.469 15.7924 211.867 15.5342C211.264 15.2761 210.604 15.1844 209.954 15.2687C209.304 15.353 208.689 15.6102 208.172 16.0135L189.645 30.4467C189.22 30.7767 188.874 31.1961 188.63 31.6753C188.386 32.1544 188.25 32.6814 188.233 33.2188C188.215 33.7563 188.317 34.2909 188.529 34.7848C188.742 35.2786 189.061 35.7196 189.464 36.0762L207.965 52.524C208.634 53.1184 209.499 53.4458 210.394 53.4439V53.4439ZM213.918 35.7587C213.025 35.7937 212.176 36.1542 211.53 36.7724C210.885 37.3905 210.487 38.2236 210.414 39.1144L209.675 47.9699L193.253 33.3748L209.708 20.5806L210.401 27.4733C210.488 28.3213 210.867 29.1128 211.473 29.712C212.079 30.3112 212.875 30.6809 213.724 30.7576C222.308 31.548 227.924 33.893 230.425 37.7281C232.025 40.1703 232.141 43.0142 231.72 45.5018C227.749 36.0114 217.274 35.6097 213.918 35.7393V35.7587Z" fill="#4C3133"/>
<path d="M266.883 31.095H273.361C273.963 31.095 274.539 30.8561 274.965 30.4309C275.39 30.0057 275.629 29.429 275.629 28.8276C275.629 28.2263 275.39 27.6496 274.965 27.2244C274.539 26.7992 273.963 26.5603 273.361 26.5603H266.883C266.282 26.5603 265.705 26.7992 265.28 27.2244C264.855 27.6496 264.616 28.2263 264.616 28.8276C264.616 29.429 264.855 30.0057 265.28 30.4309C265.705 30.8561 266.282 31.095 266.883 31.095Z" fill="#4C3133"/>
<path d="M201.26 181.827C216.698 162.995 247.436 152.721 268.594 164.764C283.83 173.438 292.031 190.747 296.365 207.733C300.699 224.718 302.144 242.501 308.466 258.851C318.514 284.815 340.403 305.092 365.473 317.154C390.233 329.087 412.647 332.974 439.952 334.017C437.361 360.518 417.985 383.25 394.035 395.558H254.258C247.808 392.999 241.653 389.752 235.899 385.874C216.05 372.347 202.77 350.976 193.791 328.692C183.611 303.369 178.299 276.354 178.134 249.063C177.985 224.751 185.823 200.652 201.26 181.827Z" fill="#C5E6F1"/>
<path d="M247.857 159.581C230.528 159.581 212.111 168.592 201.26 181.827C185.823 200.652 177.984 224.75 178.12 249.095C178.286 276.386 183.598 303.401 193.778 328.724C202.75 351.008 216.03 372.38 235.885 385.906C241.643 389.785 247.803 393.032 254.257 395.591H394.035C418.004 383.282 437.373 360.518 439.952 334.049C412.647 333.012 390.232 329.119 365.493 317.206C340.403 305.124 318.513 284.815 308.485 258.903C302.163 242.552 300.712 224.77 296.384 207.784C292.057 190.799 283.849 173.489 268.613 164.815C262.272 161.313 255.126 159.526 247.883 159.633L247.857 159.581ZM247.883 155.098C256.395 155.098 264.123 157.041 270.861 160.876C285.022 168.935 295.089 184.34 300.783 206.664C302.422 213.103 303.666 219.691 304.871 226.059C306.944 237.02 308.894 247.365 312.722 257.264C321.642 280.306 341.601 300.667 367.488 313.137C389.332 323.658 410.379 328.406 440.146 329.54C440.763 329.564 441.369 329.713 441.927 329.979C442.484 330.245 442.982 330.623 443.388 331.088C443.794 331.553 444.102 332.097 444.29 332.685C444.479 333.273 444.546 333.894 444.486 334.509C443.191 347.938 437.697 361.224 428.622 372.95C419.851 384.09 408.764 393.19 396.127 399.62C395.485 399.952 394.772 400.125 394.048 400.125H254.257C253.678 400.126 253.103 400.014 252.567 399.795C245.814 397.113 239.37 393.712 233.346 389.65C215.143 377.251 200.424 357.324 189.587 330.421C179.231 304.556 173.81 276.981 173.605 249.121C173.463 223.053 182.027 198.138 197.775 178.95C209.675 164.426 229.343 155.046 247.876 155.046L247.883 155.098Z" fill="#4C3133"/>
<path d="M240.653 380.912H356.611C384.765 380.912 410.547 364.347 421.495 338.409C422.253 336.621 422.921 334.794 423.523 332.954C428.848 333.46 434.316 333.803 439.997 334.017C437.406 360.519 418.03 383.25 394.08 395.559H254.257C238.055 389.225 223.969 378.447 213.62 364.464C216.368 366.892 219.265 369.147 222.294 371.214C228.047 375.097 234.203 378.348 240.653 380.912V380.912Z" fill="#81C4D4"/>
<path d="M236.443 196.61C272.072 193.371 272.072 227.057 259.764 240.013C247.455 252.969 223.81 240.337 203.728 242.28C192.774 243.343 178.542 237.098 179.474 231.164C181.513 218.076 186.006 205.491 192.716 194.07C206.851 193.338 209.934 199.02 236.443 196.61Z" fill="#81C4D4"/>
<path d="M195.086 218.234C192.485 218.234 190.377 216.125 190.377 213.524C190.377 210.923 192.485 208.815 195.086 208.815C197.687 208.815 199.796 210.923 199.796 213.524C199.796 216.125 197.687 218.234 195.086 218.234Z" fill="#4C3133"/>
<path d="M235.296 220.566C232.695 220.566 230.586 218.457 230.586 215.856C230.586 213.255 232.695 211.147 235.296 211.147C237.897 211.147 240.005 213.255 240.005 215.856C240.005 218.457 237.897 220.566 235.296 220.566Z" fill="#4C3133"/>
<path d="M195.08 187.592H195.41L200.787 187.048C201.646 186.962 202.436 186.539 202.982 185.87C203.529 185.202 203.788 184.344 203.702 183.485C203.616 182.626 203.193 181.836 202.524 181.29C201.856 180.743 200.998 180.484 200.139 180.57L194.769 181.114C194.343 181.135 193.926 181.24 193.541 181.422C193.156 181.604 192.811 181.86 192.525 182.175C192.239 182.491 192.018 182.859 191.874 183.26C191.731 183.661 191.668 184.087 191.689 184.512C191.709 184.937 191.814 185.354 191.996 185.739C192.178 186.124 192.434 186.47 192.749 186.756C193.065 187.042 193.434 187.263 193.835 187.407C194.236 187.55 194.661 187.613 195.086 187.592H195.08Z" fill="#4C3133"/>
<path d="M242.551 194.99C243.295 194.989 244.015 194.733 244.592 194.263C245.169 193.794 245.566 193.141 245.718 192.413C245.87 191.685 245.767 190.927 245.426 190.267C245.086 189.606 244.528 189.082 243.847 188.784L238.898 186.633C238.11 186.29 237.218 186.273 236.418 186.587C235.618 186.901 234.976 187.52 234.632 188.308C234.288 189.096 234.272 189.988 234.586 190.788C234.9 191.588 235.519 192.23 236.306 192.574L241.262 194.724C241.669 194.9 242.108 194.991 242.551 194.99V194.99Z" fill="#4C3133"/>
<path d="M229.556 144.493C244.896 139.959 264.421 143.276 278.447 150.972C284.581 154.34 290.256 158.817 297.032 160.566C303.808 162.315 312.359 160.209 314.983 153.725C316.531 149.909 315.631 145.413 313.402 141.954C311.174 138.495 307.773 135.949 304.203 133.908C295.182 128.788 284.824 126.514 274.488 127.385C271.703 127.625 267.933 127.43 267.362 124.696C266.935 122.578 269.053 120.81 271.107 120.162C273.16 119.514 275.473 119.333 277.118 117.946C279.224 116.171 279.464 112.822 278.2 110.38C276.937 107.938 274.495 106.292 271.949 105.262C261.642 101.09 249.347 105.865 241.981 114.195C234.616 122.526 231.331 133.662 229.375 144.604L229.556 144.493Z" fill="#C5E6F1"/>
<path d="M301.696 163.409C308.116 163.409 314.653 160.566 317.088 154.573C318.811 150.317 318.144 145.141 315.307 140.73C313.188 137.439 309.924 134.562 305.324 131.939C295.899 126.599 285.083 124.224 274.288 125.124C271.379 125.377 269.753 124.871 269.597 124.243C269.494 123.718 270.459 122.734 271.819 122.299C272.331 122.131 272.895 121.995 273.484 121.846C275.143 121.444 277.015 120.984 278.589 119.656C281.362 117.324 282.068 112.88 280.228 109.291C278.874 106.668 276.309 104.53 272.811 103.118C262.361 98.8812 248.997 102.807 240.297 112.647C231.876 122.189 228.76 135.197 227.159 144.157C227.082 144.571 227.122 144.998 227.274 145.391C227.427 145.784 227.686 146.127 228.023 146.38C228.36 146.633 228.761 146.787 229.18 146.825C229.6 146.862 230.022 146.782 230.399 146.592C244.268 142.569 263.113 145.115 277.371 152.941C279.101 153.887 280.85 154.962 282.554 155.998C286.887 158.661 291.364 161.414 296.501 162.742C298.199 163.178 299.944 163.403 301.696 163.409V163.409ZM278.79 129.464C287.303 129.471 295.67 131.681 303.076 135.878C307.028 138.132 309.781 140.522 311.498 143.185C313.512 146.307 314.044 150.019 312.891 152.902C310.753 158.182 303.296 159.866 297.609 158.402C293.126 157.242 289.135 154.787 284.905 152.189C283.169 151.12 281.375 150.019 279.541 149.015C265.121 141.099 246.989 138.274 232.303 141.481C233.981 133.422 237.039 123.239 243.705 115.698C249.794 108.806 260.969 103.26 271.113 107.367C272.843 108.067 275.13 109.343 276.205 111.423C277.067 113.094 276.853 115.245 275.68 116.217C274.916 116.864 273.737 117.143 272.441 117.467C271.794 117.629 271.146 117.791 270.446 118.011C267.317 119.028 264.506 121.82 265.186 125.176C265.581 127.119 267.35 130.313 274.715 129.678C276.05 129.523 277.423 129.464 278.79 129.464Z" fill="#4C3133"/>
<path d="M121.631 156.666C142.141 162.918 159.638 143.749 163.551 126.219C164.276 122.98 164.995 119.553 164.069 116.353C163.143 113.153 159.955 110.342 156.703 111.054C153.451 111.767 151.832 115.31 150.42 118.329C149.007 121.348 146.533 124.678 143.255 124.282C139.692 123.861 138.228 119.566 137.541 116.042L133.311 94.2888C132.696 91.121 131.769 87.5192 128.88 86.0746C125.641 84.4615 121.547 86.6771 119.85 89.8643C118.152 93.0515 118.23 96.8606 118.392 100.469C118.554 104.077 118.755 107.854 117.252 111.145C115.755 104.098 112.977 97.3855 109.057 91.3413C107.412 88.8148 104.684 86.1135 101.853 87.137C99.3269 88.0504 98.6726 91.27 98.5755 93.952C98.3024 101.527 99.3413 109.093 101.646 116.314C100.35 112.784 98.9447 109.111 96.1332 106.597C93.3217 104.084 88.6381 103.274 85.8784 105.826C82.3543 109.065 84.1164 114.896 86.3643 119.152C91.0321 127.955 96.7674 136.149 103.441 143.548C108.5 149.158 114.388 154.457 121.631 156.666Z" fill="#C5E6F1"/>
<path d="M129.58 160.138C135.016 160.099 140.343 158.602 145.004 155.804C154.967 149.974 163.143 138.573 165.734 126.685C166.44 123.498 167.328 119.527 166.213 115.673C165.028 111.565 160.849 107.769 156.185 108.793C151.871 109.739 149.934 113.885 148.412 117.214L148.366 117.318C147.822 118.484 145.853 122.261 143.527 121.982C141.402 121.73 140.288 118.348 139.77 115.562L135.54 93.8025C135.008 91.1012 134.03 86.0612 129.891 83.9947C125.388 81.7533 120.031 84.6425 117.848 88.7496C116.041 92.1571 115.943 95.8755 116.099 99.7624C114.679 96.3759 112.957 93.1237 110.955 90.0453C108.098 85.6531 104.406 83.7486 101.083 84.947C99.0226 85.692 96.5479 87.8297 96.3082 93.809C96.1812 97.2564 96.3177 100.708 96.7164 104.135C93.1793 101.635 87.7961 100.928 84.3432 104.135C80.722 107.484 80.7285 113.334 84.3432 120.188C89.098 129.156 94.9423 137.502 101.743 145.038C106.343 150.13 112.678 156.29 120.957 158.817C123.75 159.682 126.656 160.127 129.58 160.138V160.138ZM157.733 113.185C159.528 113.185 161.348 115.038 161.905 116.955C162.696 119.676 161.983 122.876 161.348 125.701C158.964 136.409 151.631 146.69 142.737 151.885C136.22 155.681 129.133 156.588 122.305 154.476C115.088 152.28 109.349 146.657 105.138 142C98.5822 134.733 92.953 126.682 88.3791 118.031C87.4203 116.223 84.5246 110.121 87.4333 107.432C89.2536 105.748 92.6935 106.506 94.6369 108.236C97.0921 110.412 98.3877 113.923 99.5343 117.02C99.7302 117.589 100.144 118.056 100.685 118.32C101.225 118.584 101.848 118.622 102.417 118.426C102.986 118.23 103.453 117.816 103.717 117.276C103.981 116.735 104.019 116.112 103.823 115.543C101.585 108.573 100.579 101.267 100.849 93.9515C100.901 92.7013 101.16 89.7213 102.637 89.1901C103.972 88.7108 105.876 90.4858 107.172 92.5005C110.95 98.3047 113.623 104.757 115.056 111.533C115.154 112 115.398 112.425 115.751 112.745C116.105 113.066 116.551 113.267 117.026 113.32C117.5 113.372 117.979 113.273 118.395 113.037C118.81 112.801 119.14 112.441 119.338 112.006C121.048 108.255 120.854 104.077 120.685 100.397V100.287C120.523 96.8019 120.491 93.4592 121.877 90.855C123.037 88.6784 125.855 87.0135 127.889 88.0306C129.774 88.9699 130.551 91.7619 131.128 94.6447L135.358 116.398C136.563 122.611 139.148 125.999 143.028 126.459C146.747 126.906 150.154 124.327 152.512 119.21L152.564 119.106C153.756 116.554 155.103 113.651 157.228 113.191C157.396 113.172 157.565 113.17 157.733 113.185V113.185Z" fill="#4C3133"/>
<path d="M143.695 125.363C140.614 125.463 137.6 126.298 134.906 127.798C132.212 129.298 129.915 131.419 128.206 133.986" fill="#C5E6F1"/>
<path d="M128.2 136.253C128.578 136.254 128.951 136.161 129.284 135.981C129.616 135.801 129.899 135.54 130.105 135.223C131.617 132.969 133.642 131.104 136.013 129.782C138.384 128.461 141.035 127.719 143.747 127.618C144.349 127.604 144.92 127.352 145.336 126.917C145.751 126.482 145.977 125.9 145.963 125.299C145.949 124.697 145.697 124.126 145.262 123.711C144.827 123.295 144.245 123.069 143.644 123.083C140.193 123.184 136.818 124.112 133.801 125.789C130.784 127.467 128.215 129.845 126.308 132.723C126.145 132.971 126.031 133.25 125.975 133.543C125.919 133.835 125.921 134.136 125.981 134.428C126.041 134.719 126.159 134.997 126.326 135.243C126.493 135.49 126.707 135.701 126.956 135.864C127.325 136.111 127.757 136.246 128.2 136.253V136.253Z" fill="#4C3133"/>
<path d="M180.083 96.1992C180.083 96.1992 186.561 121.464 164.536 152.559Z" fill="white"/>
<path d="M164.536 154.826C164.899 154.826 165.256 154.739 165.579 154.572C165.901 154.406 166.179 154.164 166.388 153.867C188.764 122.28 182.584 96.7111 182.279 95.6357C182.117 95.0681 181.74 94.586 181.228 94.2919C180.717 93.9978 180.11 93.9149 179.538 94.0609C178.966 94.2068 178.474 94.5701 178.165 95.0734C177.857 95.5768 177.757 96.1806 177.887 96.7564C177.965 97.0803 183.717 121.522 162.683 151.25C162.443 151.59 162.301 151.989 162.272 152.403C162.244 152.818 162.33 153.233 162.521 153.602C162.713 153.971 163.002 154.28 163.357 154.496C163.712 154.712 164.12 154.826 164.536 154.826V154.826Z" fill="#4C3133"/>
<path d="M564.363 109.032H382.783C379.621 109.032 376.589 110.288 374.354 112.524C372.119 114.759 370.863 117.791 370.863 120.952V173.846C370.863 177.007 372.119 180.039 374.354 182.274C376.589 184.51 379.621 185.765 382.783 185.765H387.9C388.258 185.767 388.601 185.911 388.853 186.164C389.106 186.418 389.248 186.761 389.248 187.119V200.989C389.248 201.227 389.311 201.46 389.43 201.666C389.549 201.872 389.721 202.042 389.928 202.16C390.134 202.278 390.369 202.339 390.606 202.337C390.844 202.335 391.077 202.27 391.282 202.149L418.639 185.953C418.847 185.831 419.084 185.766 419.325 185.765H564.363C567.525 185.765 570.557 184.51 572.792 182.274C575.027 180.039 576.283 177.007 576.283 173.846V120.952C576.283 117.791 575.027 114.759 572.792 112.524C570.557 110.288 567.525 109.032 564.363 109.032V109.032Z" fill="white"/>
<path d="M382.783 109.033C379.622 109.033 376.59 110.289 374.354 112.524C372.119 114.759 370.863 117.791 370.863 120.952V173.846C370.863 177.007 372.119 180.039 374.354 182.274C376.59 184.51 379.622 185.766 382.783 185.766H387.901C388.258 185.767 388.601 185.911 388.854 186.165C389.106 186.418 389.248 186.762 389.248 187.12V200.989C389.248 201.227 389.311 201.461 389.43 201.666C389.55 201.872 389.721 202.042 389.928 202.16C390.135 202.278 390.369 202.339 390.607 202.337C390.844 202.335 391.077 202.27 391.282 202.149L418.639 185.954C418.847 185.831 419.084 185.766 419.326 185.766H564.364C567.525 185.766 570.557 184.51 572.792 182.274C575.028 180.039 576.283 177.007 576.283 173.846V120.952C576.283 117.791 575.028 114.759 572.792 112.524C570.557 110.289 567.525 109.033 564.364 109.033H382.783ZM382.783 104.498H564.364C568.726 104.503 572.908 106.238 575.993 109.323C579.078 112.408 580.813 116.59 580.818 120.952V173.846C580.815 178.209 579.08 182.392 575.995 185.477C572.91 188.562 568.727 190.297 564.364 190.3H420.2L393.595 206.049C392.702 206.578 391.684 206.862 390.646 206.871C389.608 206.879 388.586 206.614 387.684 206.1C386.782 205.586 386.032 204.842 385.51 203.945C384.988 203.047 384.713 202.027 384.713 200.989V190.3H382.77C378.407 190.297 374.224 188.562 371.139 185.477C368.054 182.392 366.319 178.209 366.316 173.846V120.952C366.321 116.59 368.056 112.408 371.141 109.323C374.225 106.238 378.407 104.503 382.77 104.498H382.783Z" fill="#4C3133"/>
<path d="M576.283 129.017C565.69 129.017 557.102 120.429 557.102 109.836C557.102 99.2419 565.69 90.6541 576.283 90.6541C586.877 90.6541 595.465 99.2419 595.465 109.836C595.465 120.429 586.877 129.017 576.283 129.017Z" fill="white"/>
<path d="M576.283 90.654C572.49 90.654 568.781 91.779 565.627 93.8867C562.472 95.9944 560.014 98.9902 558.562 102.495C557.11 106 556.73 109.857 557.47 113.578C558.211 117.299 560.037 120.717 562.72 123.399C565.403 126.082 568.82 127.909 572.541 128.649C576.262 129.389 580.119 129.009 583.624 127.557C587.129 126.105 590.125 123.647 592.232 120.492C594.34 117.338 595.465 113.629 595.465 109.836C595.465 104.748 593.444 99.8695 589.847 96.2722C586.25 92.675 581.371 90.654 576.283 90.654V90.654ZM576.283 86.1194C580.974 86.1194 585.559 87.5103 589.46 90.1163C593.36 92.7223 596.399 96.4262 598.194 100.76C599.989 105.093 600.459 109.862 599.544 114.462C598.629 119.063 596.37 123.289 593.053 126.606C589.737 129.922 585.511 132.181 580.91 133.096C576.31 134.011 571.541 133.542 567.208 131.747C562.874 129.952 559.17 126.912 556.564 123.012C553.958 119.112 552.567 114.526 552.567 109.836C552.574 103.548 555.075 97.5195 559.521 93.0733C563.967 88.6271 569.996 86.1262 576.283 86.1194V86.1194Z" fill="#4C3133"/>
<path d="M431.602 163.39H400.449C397.354 163.39 394.845 160.881 394.845 157.787V139.421C394.845 136.326 397.354 133.818 400.449 133.818H431.602C434.697 133.818 437.205 136.326 437.205 139.421V157.787C437.205 160.881 434.697 163.39 431.602 163.39Z" fill="#C5E6F1"/>
<path d="M400.449 165.658H431.602C433.69 165.654 435.691 164.823 437.166 163.346C438.642 161.869 439.471 159.868 439.473 157.78V139.421C439.471 137.334 438.642 135.332 437.166 133.855C435.691 132.379 433.69 131.547 431.602 131.544H400.449C398.361 131.547 396.36 132.379 394.885 133.855C393.409 135.332 392.58 137.334 392.578 139.421V157.78C392.58 159.868 393.409 161.869 394.885 163.346C396.36 164.823 398.361 165.654 400.449 165.658V165.658ZM431.602 136.079C432.487 136.08 433.336 136.433 433.961 137.06C434.587 137.687 434.938 138.536 434.938 139.421V157.78C434.938 158.666 434.587 159.515 433.961 160.142C433.336 160.768 432.487 161.121 431.602 161.123H400.449C399.563 161.121 398.715 160.768 398.089 160.142C397.464 159.515 397.113 158.666 397.113 157.78V139.421C397.113 138.536 397.464 137.687 398.089 137.06C398.715 136.433 399.563 136.08 400.449 136.079H431.602Z" fill="#4C3133"/>
<path d="M436.26 163.17C436.72 163.17 437.169 163.03 437.548 162.769C437.926 162.507 438.216 162.137 438.379 161.706C438.542 161.276 438.571 160.807 438.461 160.36C438.351 159.913 438.107 159.511 437.763 159.206L417.13 140.911C416.716 140.553 416.187 140.355 415.64 140.355C415.093 140.355 414.564 140.553 414.15 140.911L393.809 158.266C393.351 158.656 393.067 159.212 393.019 159.812C392.971 160.411 393.163 161.005 393.553 161.463C393.943 161.921 394.499 162.205 395.098 162.253C395.698 162.301 396.292 162.109 396.75 161.719L415.562 145.608L434.75 162.6C435.167 162.968 435.704 163.171 436.26 163.17V163.17Z" fill="#4C3133"/>
<path d="M396.647 135.307L415.627 151.399L435.398 135.307" fill="#C5E6F1"/>
<path d="M415.627 153.666C416.147 153.667 416.651 153.486 417.052 153.155L436.83 137.063C437.296 136.683 437.593 136.134 437.654 135.535C437.716 134.937 437.537 134.339 437.157 133.873C436.777 133.406 436.228 133.11 435.63 133.048C435.031 132.987 434.433 133.166 433.967 133.545L415.653 148.445L398.117 133.545C397.658 133.156 397.064 132.965 396.464 133.014C395.864 133.064 395.309 133.349 394.92 133.808C394.531 134.266 394.34 134.861 394.389 135.461C394.438 136.06 394.723 136.616 395.182 137.005L414.157 153.096C414.563 153.456 415.085 153.658 415.627 153.666V153.666Z" fill="#4C3133"/>
<path d="M453.193 160.061H549.108C549.709 160.061 550.286 159.822 550.711 159.396C551.136 158.971 551.375 158.395 551.375 157.793C551.375 157.192 551.136 156.615 550.711 156.19C550.286 155.765 549.709 155.526 549.108 155.526H453.193C452.592 155.526 452.015 155.765 451.59 156.19C451.165 156.615 450.926 157.192 450.926 157.793C450.926 158.395 451.165 158.971 451.59 159.396C452.015 159.822 452.592 160.061 453.193 160.061Z" fill="#4C3133"/>
<path d="M453.193 144.876H453.225L505.18 144.073C505.477 144.068 505.771 144.005 506.045 143.886C506.318 143.768 506.565 143.597 506.773 143.383C506.98 143.169 507.143 142.917 507.252 142.64C507.362 142.363 507.416 142.067 507.411 141.77C507.407 141.472 507.343 141.178 507.225 140.905C507.107 140.631 506.936 140.384 506.722 140.177C506.508 139.97 506.256 139.806 505.979 139.697C505.702 139.587 505.406 139.533 505.108 139.538L453.154 140.341C452.553 140.346 451.978 140.59 451.557 141.019C451.135 141.448 450.901 142.027 450.906 142.628C450.911 143.229 451.155 143.804 451.584 144.225C452.013 144.647 452.592 144.881 453.193 144.876V144.876Z" fill="#4C3133"/>
<path d="M577.838 118.549H577.909C578.277 118.537 578.635 118.435 578.955 118.254C579.274 118.072 579.544 117.815 579.743 117.506L585.573 108.437C585.753 108.187 585.88 107.903 585.947 107.602C586.013 107.302 586.018 106.991 585.961 106.689C585.903 106.386 585.785 106.098 585.613 105.843C585.441 105.588 585.218 105.371 584.959 105.204C584.7 105.038 584.41 104.926 584.107 104.875C583.803 104.824 583.492 104.836 583.193 104.909C582.894 104.983 582.613 105.116 582.368 105.302C582.122 105.487 581.916 105.721 581.764 105.988L577.709 112.291L568.639 100.035C568.469 99.7796 568.248 99.5619 567.991 99.3947C567.734 99.2275 567.445 99.1142 567.143 99.0617C566.841 99.0093 566.531 99.0187 566.232 99.0894C565.934 99.1601 565.653 99.2907 565.406 99.4733C565.159 99.6558 564.952 99.8865 564.798 100.151C564.643 100.416 564.543 100.71 564.505 101.014C564.467 101.319 564.491 101.628 564.576 101.922C564.661 102.217 564.805 102.492 564.999 102.729L576.011 117.629C576.221 117.916 576.496 118.149 576.814 118.309C577.132 118.469 577.483 118.551 577.838 118.549V118.549Z" fill="#4C3133"/>
<path d="M512.409 143.813H521.479C522.08 143.813 522.657 143.574 523.082 143.149C523.507 142.724 523.746 142.147 523.746 141.546C523.746 140.945 523.507 140.368 523.082 139.943C522.657 139.517 522.08 139.279 521.479 139.279H512.409C511.808 139.279 511.231 139.517 510.806 139.943C510.381 140.368 510.142 140.945 510.142 141.546C510.142 142.147 510.381 142.724 510.806 143.149C511.231 143.574 511.808 143.813 512.409 143.813V143.813Z" fill="#4C3133"/>
<path d="M133.312 309.173H287.944C290.636 309.173 293.218 310.242 295.122 312.146C297.025 314.05 298.095 316.632 298.095 319.324V364.373C298.096 365.706 297.834 367.027 297.324 368.259C296.814 369.492 296.067 370.611 295.124 371.555C294.181 372.498 293.062 373.246 291.83 373.757C290.598 374.268 289.277 374.53 287.944 374.53H283.59C283.286 374.53 282.993 374.651 282.777 374.866C282.561 375.081 282.439 375.372 282.437 375.677V387.493C282.437 387.695 282.383 387.893 282.281 388.068C282.18 388.242 282.034 388.387 281.858 388.487C281.682 388.587 281.484 388.638 281.282 388.637C281.08 388.635 280.882 388.58 280.708 388.478L257.387 374.686C257.207 374.583 257.004 374.53 256.797 374.53H133.312C130.619 374.529 128.037 373.458 126.133 371.553C124.23 369.648 123.161 367.065 123.161 364.373V319.324C123.162 316.632 124.232 314.051 126.136 312.148C128.039 310.245 130.62 309.175 133.312 309.173Z" fill="white"/>
<path d="M133.312 309.173C130.62 309.175 128.039 310.245 126.135 312.148C124.232 314.052 123.162 316.633 123.16 319.324V364.373C123.16 367.066 124.23 369.648 126.133 371.553C128.037 373.458 130.619 374.529 133.312 374.531H256.849C257.055 374.53 257.259 374.583 257.438 374.686L280.759 388.478C280.933 388.583 281.131 388.639 281.334 388.642C281.537 388.645 281.737 388.593 281.913 388.493C282.089 388.392 282.235 388.247 282.337 388.071C282.438 387.896 282.491 387.696 282.489 387.493V375.677C282.491 375.372 282.613 375.081 282.829 374.866C283.045 374.651 283.337 374.531 283.642 374.531H287.944C289.277 374.531 290.598 374.268 291.83 373.757C293.062 373.247 294.181 372.498 295.124 371.555C296.067 370.612 296.814 369.492 297.324 368.26C297.834 367.027 298.096 365.706 298.095 364.373V319.324C298.095 316.632 297.025 314.05 295.122 312.146C293.218 310.243 290.636 309.173 287.944 309.173H133.312ZM133.312 304.638H287.944C291.837 304.644 295.569 306.192 298.322 308.945C301.075 311.698 302.624 315.431 302.629 319.324V364.373C302.626 368.267 301.078 372.001 298.325 374.756C295.571 377.51 291.838 379.06 287.944 379.065H286.972V387.487C286.97 388.489 286.704 389.473 286.2 390.339C285.696 391.205 284.972 391.923 284.102 392.419C283.231 392.916 282.245 393.173 281.243 393.166C280.24 393.159 279.258 392.887 278.395 392.378L255.89 379.059H133.312C129.417 379.054 125.684 377.504 122.931 374.749C120.177 371.995 118.629 368.261 118.626 364.366V319.324C118.631 315.431 120.18 311.698 122.933 308.945C125.686 306.192 129.418 304.644 133.312 304.638V304.638Z" fill="#4C3133"/>
<path d="M187.837 352.758C180.317 352.758 174.22 346.661 174.22 339.141C174.22 331.62 180.317 325.524 187.837 325.524C195.357 325.524 201.454 331.62 201.454 339.141C201.454 346.661 195.357 352.758 187.837 352.758Z" fill="#F0F0F0"/>
<path d="M187.837 354.999C190.979 354.999 194.05 354.067 196.662 352.322C199.274 350.576 201.31 348.096 202.512 345.193C203.715 342.291 204.029 339.097 203.416 336.016C202.804 332.934 201.291 330.104 199.069 327.883C196.848 325.661 194.017 324.148 190.936 323.535C187.855 322.923 184.661 323.237 181.759 324.439C178.856 325.642 176.375 327.678 174.63 330.29C172.885 332.902 171.953 335.973 171.953 339.114C171.958 343.326 173.633 347.363 176.611 350.341C179.589 353.318 183.626 354.994 187.837 354.999ZM187.837 327.791C190.082 327.791 192.276 328.456 194.143 329.704C196.009 330.951 197.464 332.723 198.323 334.797C199.182 336.871 199.407 339.153 198.969 341.355C198.531 343.556 197.45 345.579 195.863 347.166C194.275 348.753 192.253 349.834 190.052 350.272C187.85 350.71 185.568 350.485 183.494 349.626C181.42 348.767 179.648 347.312 178.4 345.446C177.153 343.579 176.488 341.385 176.488 339.14C176.491 336.131 177.688 333.247 179.816 331.119C181.943 328.991 184.828 327.794 187.837 327.791V327.791Z" fill="#4C3133"/>
<path d="M140.522 336.407H149.066C146.605 334.561 144.169 332.52 144.532 328.918C145.18 322.11 149.973 325.511 149.973 328.918C149.973 333.68 157.294 331.639 157.378 339.128C157.436 339.372 157.464 339.622 157.462 339.873V347.647C157.462 348.49 157.156 349.305 156.601 349.94C156.046 350.574 155.279 350.987 154.443 351.099L144.13 352.479C143.247 352.597 142.348 352.525 141.495 352.268C140.642 352.01 139.853 351.574 139.183 350.986C138.512 350.399 137.975 349.676 137.607 348.864C137.239 348.052 137.049 347.171 137.05 346.28V339.886C137.049 339.429 137.138 338.977 137.312 338.555C137.486 338.133 137.742 337.75 138.064 337.426C138.387 337.103 138.77 336.847 139.192 336.672C139.613 336.497 140.065 336.407 140.522 336.407V336.407Z" fill="#C5E6F1"/>
<path d="M146.916 324.986C145.834 324.986 144.817 326.042 144.532 328.918C144.169 332.533 146.605 334.561 149.067 336.407H140.522C140.065 336.406 139.612 336.496 139.19 336.67C138.767 336.845 138.383 337.101 138.06 337.424C137.737 337.747 137.481 338.131 137.306 338.554C137.132 338.976 137.042 339.429 137.043 339.886V346.28C137.039 347.173 137.227 348.056 137.595 348.87C137.962 349.684 138.5 350.409 139.172 350.997C139.844 351.585 140.634 352.021 141.49 352.277C142.345 352.533 143.246 352.602 144.13 352.479L154.443 351.112C155.279 351 156.046 350.587 156.601 349.953C157.156 349.318 157.462 348.503 157.462 347.66V339.886C157.464 339.635 157.436 339.385 157.378 339.141V339.141C157.294 331.652 149.973 333.693 149.973 328.931C149.973 326.988 148.386 324.999 146.916 324.999V324.986ZM146.916 320.465C148.019 320.497 149.1 320.78 150.077 321.292C151.055 321.804 151.903 322.531 152.558 323.419C153.679 324.819 154.356 326.522 154.502 328.31L155.188 328.685C157.307 329.819 161.666 332.151 161.919 338.687C161.981 339.088 162.011 339.493 162.01 339.899V347.673C162.006 349.613 161.3 351.487 160.022 352.948C158.745 354.409 156.982 355.358 155.059 355.621L144.733 356.995C144.256 357.059 143.776 357.092 143.295 357.092C140.436 357.087 137.695 355.947 135.676 353.924C133.656 351.9 132.521 349.158 132.521 346.299V339.905C132.523 337.839 133.322 335.852 134.752 334.361C136.182 332.869 138.133 331.987 140.198 331.898C139.965 330.776 139.908 329.624 140.03 328.484C140.794 320.86 145.912 320.471 146.929 320.471L146.916 320.465Z" fill="#4C3133"/>
<path d="M216.199 356.34H282.237C282.838 356.34 283.415 356.101 283.84 355.676C284.265 355.251 284.504 354.674 284.504 354.073C284.504 353.471 284.265 352.894 283.84 352.469C283.415 352.044 282.838 351.805 282.237 351.805H216.199C215.598 351.805 215.021 352.044 214.596 352.469C214.171 352.894 213.932 353.471 213.932 354.073C213.932 354.674 214.171 355.251 214.596 355.676C215.021 356.101 215.598 356.34 216.199 356.34Z" fill="#4C3133"/>
<path d="M252.962 342.043C253.563 342.048 254.142 341.814 254.571 341.393C255 340.971 255.244 340.396 255.249 339.795C255.254 339.194 255.02 338.615 254.599 338.186C254.177 337.757 253.602 337.513 253.001 337.508L216.238 336.86C215.636 336.849 215.055 337.078 214.622 337.495C214.189 337.912 213.94 338.484 213.928 339.086C213.917 339.687 214.145 340.268 214.563 340.701C214.98 341.134 215.552 341.384 216.154 341.395L252.917 342.043H252.962Z" fill="#4C3133"/>
<path d="M263.65 341.395H269.481C270.082 341.395 270.659 341.156 271.084 340.731C271.509 340.305 271.748 339.729 271.748 339.127C271.748 338.526 271.509 337.949 271.084 337.524C270.659 337.099 270.082 336.86 269.481 336.86H263.65C263.049 336.86 262.472 337.099 262.047 337.524C261.622 337.949 261.383 338.526 261.383 339.127C261.383 339.729 261.622 340.305 262.047 340.731C262.472 341.156 263.049 341.395 263.65 341.395V341.395Z" fill="#4C3133"/>
</svg>
