<svg width="600" height="420" viewBox="0 0 600 420" fill="none" xmlns="http://www.w3.org/2000/svg">
<path d="M370.378 30.3001C365.645 30.3016 360.92 29.945 356.241 29.2334C356.099 29.211 355.969 29.1419 355.871 29.0371C355.774 28.9323 355.714 28.7978 355.701 28.6551L353.542 4.43528C353.457 4.4414 353.373 4.43078 353.292 4.40402C353.212 4.37726 353.138 4.33491 353.074 4.27938C353.01 4.22384 352.958 4.15623 352.92 4.08042C352.882 4.00462 352.86 3.92212 352.854 3.83766C352.844 3.6682 352.901 3.50144 353.013 3.37381C353.125 3.24618 353.282 3.16806 353.452 3.1565L400.009 0.00131207C400.101 -0.00460775 400.194 0.00955172 400.28 0.042828C400.367 0.0761043 400.445 0.127712 400.51 0.194095C400.574 0.259926 400.623 0.338724 400.654 0.425188C400.685 0.511653 400.697 0.603773 400.69 0.695326L398.762 25.5577C398.752 25.6862 398.704 25.8088 398.624 25.9097C398.544 26.0105 398.435 26.0849 398.312 26.1232C389.26 28.8938 379.845 30.3015 370.378 30.3001V30.3001ZM356.954 28.0382C370.547 30.0084 384.407 28.9797 397.56 25.0243L399.366 1.33793L354.814 4.34532L356.954 28.0382Z" fill="#E6E6E6"/>
<path d="M375.988 39.2518C375.84 39.2506 375.697 39.1984 375.583 39.104C375.516 39.0506 375.461 38.9845 375.42 38.9094C375.379 38.8344 375.354 38.752 375.345 38.667L374.703 31.6369C374.695 31.5525 374.704 31.4673 374.729 31.3863C374.754 31.3052 374.795 31.23 374.849 31.1649C374.904 31.0998 374.97 31.0461 375.046 31.0069C375.121 30.9677 375.203 30.9437 375.288 30.9365C375.457 30.9222 375.625 30.9758 375.755 31.0854C375.886 31.195 375.967 31.3517 375.982 31.5212L376.56 37.8894C389.062 36.4543 401.633 35.6949 414.217 35.6146L413.445 18.9069C413.473 18.4358 413.376 17.9658 413.163 17.5446C412.957 17.3648 412.718 17.2283 412.458 17.1433C412.199 17.0583 411.925 17.0265 411.653 17.0498L400.009 16.3558C399.839 16.3442 399.681 16.2661 399.569 16.1385C399.457 16.0108 399.4 15.8441 399.411 15.6746C399.416 15.5902 399.437 15.5075 399.474 15.4314C399.511 15.3553 399.563 15.2873 399.626 15.2312C399.689 15.175 399.763 15.132 399.843 15.1044C399.923 15.0768 400.008 15.0653 400.092 15.0706L411.762 15.7903C412.404 15.8288 413.568 15.906 414.229 16.812C414.607 17.4319 414.793 18.1496 414.763 18.8748L415.566 36.2251C415.566 36.3955 415.498 36.559 415.378 36.6795C415.257 36.8 415.094 36.8677 414.923 36.8677C401.943 36.9289 388.977 37.7141 376.084 39.2196L375.988 39.2518Z" fill="#E6E6E6"/>
<path d="M394.707 7.60996C394.471 7.61466 394.238 7.55418 394.034 7.43514C393.83 7.31611 393.663 7.14314 393.55 6.93523C393.51 6.86063 393.485 6.77875 393.476 6.69433C393.467 6.6099 393.476 6.5246 393.5 6.44335C393.525 6.36209 393.565 6.2865 393.619 6.22092C393.673 6.15535 393.739 6.10109 393.814 6.06128C393.95 5.98954 394.107 5.96903 394.257 6.00345C394.18 5.94891 394.116 5.87803 394.069 5.79583C394.023 5.71364 393.995 5.62216 393.987 5.52793C393.98 5.43932 393.992 5.35019 394.021 5.26619C394.05 5.1822 394.096 5.10515 394.156 5.03993C394.217 4.9747 394.29 4.92271 394.372 4.88725C394.453 4.85179 394.541 4.83363 394.63 4.83391C394.856 4.81881 395.082 4.86375 395.285 4.96419C395.488 5.06463 395.661 5.21699 395.787 5.40583C395.939 5.61212 396.035 5.85519 396.063 6.1103C396.091 6.36541 396.051 6.62344 395.947 6.85812C395.845 7.08141 395.682 7.27088 395.476 7.40412C395.27 7.53735 395.03 7.60878 394.784 7.60996H394.707ZM394.707 6.32475C394.719 6.33095 394.732 6.33419 394.746 6.33419C394.759 6.33419 394.772 6.33095 394.784 6.32475C394.786 6.28523 394.778 6.24587 394.761 6.21005C394.745 6.17423 394.719 6.14303 394.688 6.11912C394.626 6.12887 394.563 6.12887 394.501 6.11912C394.574 6.17306 394.635 6.24075 394.681 6.31833L394.707 6.32475Z" fill="#E6E6E6"/>
<path d="M360.713 10.4693C360.486 10.4648 360.262 10.4107 360.058 10.3108C359.854 10.2109 359.674 10.0677 359.531 9.89099C359.361 9.69126 359.237 9.45633 359.168 9.20303C359.099 8.94974 359.087 8.68433 359.133 8.42585C359.165 8.26031 359.262 8.11428 359.401 8.01929C359.541 7.92431 359.712 7.888 359.878 7.9182C359.97 7.93507 360.058 7.97201 360.135 8.02641C360.211 8.08081 360.275 8.15136 360.321 8.23307L360.501 8.11097C360.695 7.98916 360.912 7.90811 361.139 7.87276C361.365 7.83741 361.597 7.8485 361.819 7.90534C361.934 7.93655 362.039 7.9994 362.12 8.08682C362.202 8.17424 362.258 8.28277 362.281 8.40015C362.329 8.65678 362.321 8.92075 362.256 9.17376C362.192 9.42676 362.073 9.66273 361.909 9.86529C361.769 10.0473 361.59 10.196 361.385 10.3005C361.181 10.4049 360.956 10.4626 360.726 10.4693H360.713Z" fill="#E6E6E6"/>
<path d="M409.705 22.8971H409.506C409.336 22.8724 409.182 22.7809 409.079 22.643C408.976 22.505 408.932 22.3317 408.957 22.1613C408.982 21.9909 409.073 21.8372 409.211 21.7342C409.349 21.6311 409.522 21.5871 409.693 21.6119C409.719 21.5959 409.741 21.5732 409.755 21.5461C409.77 21.519 409.777 21.4884 409.776 21.4576C409.772 21.4355 409.761 21.4152 409.745 21.3992C409.729 21.3832 409.708 21.3722 409.686 21.3677C409.539 21.4469 409.367 21.4657 409.206 21.4201C409.045 21.3745 408.909 21.2681 408.825 21.1235C408.783 21.0494 408.756 20.9676 408.746 20.8831C408.736 20.7985 408.743 20.7128 408.766 20.6309C408.79 20.5489 408.829 20.4725 408.882 20.4059C408.935 20.3393 409.001 20.284 409.076 20.2431C409.26 20.1463 409.465 20.0957 409.673 20.0957C409.882 20.0957 410.087 20.1463 410.271 20.2431C410.476 20.3415 410.654 20.4883 410.789 20.6708C410.925 20.8533 411.014 21.066 411.049 21.2906C411.081 21.5176 411.059 21.7492 410.984 21.9661C410.91 22.183 410.784 22.3788 410.618 22.5372C410.373 22.7731 410.045 22.9025 409.705 22.8971Z" fill="#E6E6E6"/>
<path d="M383.179 363.921C379.141 363.914 375.116 363.483 371.168 362.636C369.671 362.315 367.621 361.678 367.069 359.841C366.6 358.286 367.474 356.57 369.523 355.015C373.774 351.83 378.723 349.702 383.959 348.808C389.195 347.914 394.569 348.279 399.636 349.874C399.799 349.927 399.934 350.042 400.011 350.194C400.089 350.347 400.103 350.524 400.05 350.687C399.998 350.849 399.882 350.985 399.73 351.062C399.577 351.14 399.4 351.154 399.237 351.101C394.371 349.57 389.21 349.22 384.182 350.079C379.153 350.938 374.402 352.983 370.32 356.043C369.395 356.743 367.91 358.125 368.315 359.474C368.592 360.38 369.601 360.984 371.451 361.402C381.867 363.583 392.684 362.827 402.695 359.217C405.143 358.324 408.093 356.718 408.272 354.134C408.382 352.496 407.276 351.018 406.203 350.176C404.811 349.216 403.276 348.482 401.654 348.004C401.567 347.982 401.487 347.942 401.417 347.887C401.346 347.832 401.289 347.763 401.247 347.684C401.205 347.606 401.179 347.519 401.172 347.431C401.166 347.342 401.177 347.253 401.207 347.169C401.236 347.084 401.283 347.007 401.344 346.942C401.405 346.877 401.478 346.826 401.56 346.791C401.642 346.756 401.731 346.738 401.82 346.739C401.909 346.74 401.997 346.759 402.078 346.796C403.834 347.312 405.494 348.111 406.994 349.161C407.801 349.731 408.457 350.49 408.905 351.371C409.353 352.252 409.579 353.229 409.564 354.218C409.391 356.788 407.174 358.96 403.138 360.425C396.739 362.741 389.984 363.924 383.179 363.921V363.921Z" fill="#E6E6E6"/>
<path d="M365.693 379.871C363.592 379.871 362.262 379.125 362.031 377.808C361.883 376.953 362.249 376.092 363.162 375.167C364.642 373.695 366.452 372.598 368.441 371.965C370.43 371.333 372.542 371.183 374.6 371.53C374.768 371.558 374.917 371.652 375.016 371.79C375.115 371.929 375.155 372.101 375.127 372.269C375.113 372.352 375.083 372.432 375.037 372.504C374.992 372.576 374.933 372.638 374.864 372.687C374.795 372.736 374.716 372.771 374.634 372.79C374.551 372.808 374.465 372.81 374.382 372.796C372.531 372.487 370.633 372.623 368.845 373.193C367.057 373.763 365.431 374.75 364.1 376.073C363.515 376.67 363.252 377.178 363.322 377.583C363.502 378.598 365.526 378.598 365.931 378.585L371.072 378.444C372.246 378.492 373.418 378.31 374.523 377.911C375.365 377.538 376.264 376.67 376.239 375.649C376.218 375.406 376.14 375.172 376.013 374.965C375.886 374.757 375.713 374.582 375.506 374.453C375.372 374.356 375.217 374.294 375.053 374.271C374.889 374.249 374.723 374.267 374.568 374.325C374.414 374.383 374.243 374.379 374.092 374.315C373.94 374.251 373.819 374.132 373.753 373.981C373.687 373.83 373.682 373.66 373.738 373.505C373.793 373.35 373.907 373.223 374.054 373.149C374.4 373.004 374.778 372.949 375.151 372.987C375.525 373.025 375.883 373.156 376.194 373.367C376.58 373.608 376.903 373.938 377.134 374.329C377.366 374.721 377.499 375.162 377.524 375.617C377.562 377.236 376.309 378.528 375.05 379.087C373.792 379.559 372.453 379.777 371.111 379.729L365.97 379.871H365.693Z" fill="#E6E6E6"/>
<path d="M0.642605 326.644C0.472175 326.644 0.308726 326.576 0.188214 326.455C0.0677023 326.335 0 326.171 0 326.001C0 325.831 0.0677023 325.667 0.188214 325.547C0.308726 325.426 0.472175 325.358 0.642605 325.358C63.1937 323.964 126.959 322.64 188.63 321.355C283.093 319.395 380.814 317.364 476.71 315.032C476.88 315.032 477.044 315.099 477.164 315.22C477.285 315.34 477.352 315.504 477.352 315.674C477.352 315.845 477.285 316.008 477.164 316.129C477.044 316.249 476.88 316.317 476.71 316.317C380.808 318.643 283.106 320.68 188.624 322.64C126.934 323.925 63.1873 325.249 0.642605 326.644V326.644Z" fill="#DBDBDB"/>
<path d="M568.114 314.235C567.944 314.235 567.78 314.167 567.66 314.047C567.539 313.926 567.471 313.763 567.471 313.592C567.471 313.422 567.539 313.258 567.66 313.138C567.78 313.017 567.944 312.95 568.114 312.95C573.75 312.847 579.237 312.77 584.436 312.712C584.607 312.712 584.77 312.78 584.891 312.9C585.011 313.021 585.079 313.184 585.079 313.355C585.079 313.525 585.011 313.688 584.891 313.809C584.77 313.929 584.607 313.997 584.436 313.997C579.244 314.055 573.756 314.132 568.127 314.235H568.114Z" fill="#DBDBDB"/>
<path d="M512.22 315.578C512.05 315.578 511.886 315.51 511.766 315.389C511.645 315.269 511.578 315.105 511.578 314.935C511.578 314.765 511.645 314.601 511.766 314.481C511.886 314.36 512.05 314.292 512.22 314.292C518.599 314.143 524.982 313.984 531.37 313.817C531.54 313.817 531.704 313.885 531.824 314.005C531.945 314.126 532.012 314.289 532.012 314.459C532.012 314.63 531.945 314.793 531.824 314.914C531.704 315.034 531.54 315.102 531.37 315.102C524.987 315.265 518.601 315.423 512.214 315.578H512.22Z" fill="#DBDBDB"/>
<path d="M126.696 419.506C124.805 419.538 122.927 419.179 121.181 418.451C119.435 417.724 117.858 416.643 116.549 415.278C116.487 415.21 116.439 415.13 116.41 415.042C116.382 414.955 116.372 414.862 116.382 414.77C116.395 414.678 116.427 414.589 116.475 414.51C116.524 414.43 116.589 414.361 116.665 414.308C118.538 413.071 120.658 412.257 122.878 411.924C125.098 411.591 127.364 411.747 129.517 412.38C129.681 412.429 129.818 412.542 129.899 412.692C129.979 412.843 129.997 413.02 129.948 413.183C129.898 413.347 129.786 413.484 129.635 413.565C129.484 413.646 129.308 413.663 129.144 413.614C127.302 413.07 125.369 412.908 123.462 413.137C121.555 413.366 119.714 413.98 118.053 414.944C122.468 419.127 130.262 419.359 134.812 415.297C134.875 415.24 134.949 415.197 135.029 415.168C135.109 415.14 135.194 415.128 135.279 415.133C135.364 415.137 135.447 415.159 135.523 415.196C135.6 415.233 135.668 415.285 135.725 415.349C135.837 415.477 135.894 415.644 135.883 415.814C135.872 415.984 135.794 416.142 135.667 416.255C133.175 418.399 129.983 419.556 126.696 419.506V419.506Z" fill="#DBDBDB"/>
<path d="M578.055 321.985C577.885 321.985 577.721 321.917 577.601 321.796C577.48 321.676 577.412 321.512 577.412 321.342C577.412 321.172 577.48 321.008 577.601 320.888C577.721 320.767 577.885 320.699 578.055 320.699L599.357 320.365C599.528 320.365 599.691 320.433 599.812 320.553C599.932 320.674 600 320.837 600 321.008C600 321.178 599.932 321.342 599.812 321.462C599.691 321.583 599.528 321.65 599.357 321.65L578.062 321.985H578.055Z" fill="#DBDBDB"/>
<path d="M113.702 402.876C111.93 402.88 110.167 402.618 108.472 402.099C108.386 402.078 108.306 402.041 108.236 401.989C108.165 401.936 108.106 401.87 108.063 401.794C108.019 401.718 107.991 401.633 107.981 401.546C107.971 401.459 107.979 401.371 108.005 401.287C108.03 401.203 108.073 401.125 108.13 401.058C108.186 400.991 108.256 400.936 108.335 400.897C108.413 400.859 108.499 400.836 108.587 400.832C108.675 400.827 108.762 400.841 108.844 400.871C111.487 401.671 114.285 401.807 116.993 401.27C114.035 400.04 110.798 399.64 107.63 400.113C107.545 400.126 107.459 400.122 107.377 400.101C107.294 400.08 107.216 400.044 107.147 399.993C107.079 399.942 107.021 399.879 106.977 399.805C106.933 399.732 106.904 399.651 106.891 399.567C106.878 399.482 106.882 399.396 106.903 399.314C106.923 399.231 106.96 399.153 107.011 399.084C107.062 399.016 107.125 398.958 107.198 398.914C107.272 398.87 107.353 398.841 107.437 398.828C111.474 398.222 115.599 398.944 119.19 400.884C119.301 400.945 119.391 401.036 119.449 401.148C119.508 401.259 119.533 401.385 119.52 401.51C119.508 401.636 119.459 401.754 119.38 401.852C119.301 401.95 119.195 402.022 119.075 402.06C117.336 402.606 115.524 402.881 113.702 402.876Z" fill="#DBDBDB"/>
<path d="M139.111 127.546C133.314 124.009 127.091 121.224 120.591 119.256C114.517 117.369 108.2 116.378 101.84 116.313H95.2468C94.3279 116.313 93.364 116.313 92.368 116.377V90.8786H170.766V40.8711H45.2908V190.714L52.5393 184.609C57.0376 180.824 61.1695 177.592 64.8259 174.97C67.9824 172.686 71.3374 170.69 74.8506 169.006C77.7153 167.658 80.7376 166.673 83.847 166.076C87.1327 165.495 90.4644 165.213 93.801 165.234C103.62 165.234 111.434 168.21 117.693 174.321C123.952 180.432 126.902 188.098 126.902 197.827C126.946 202.601 126.073 207.34 124.331 211.785C121.046 220.107 114.791 226.914 106.775 230.889C102.966 232.764 98.7722 233.723 94.5271 233.691C91.6643 233.71 88.8124 233.336 86.0512 232.579C83.273 231.742 80.663 230.424 78.3399 228.685C75.1521 226.334 72.1801 223.704 69.4591 220.826C65.7548 216.904 62.2769 212.774 59.0425 208.456L56.048 204.517L21.2188 238.009L23.5964 241.139C28.7498 248.022 34.4604 254.47 40.6704 260.417C45.9037 265.421 51.648 269.863 57.8087 273.668C63.5081 277.147 69.6996 279.746 76.1743 281.379C82.7843 282.964 89.5612 283.747 96.3585 283.711C107.354 283.768 118.233 281.458 128.257 276.938C138.044 272.506 146.833 266.141 154.097 258.226C169.392 241.487 177.814 219.596 177.68 196.921C177.68 182.141 174.364 168.647 167.829 156.881C161.294 145.114 151.61 135.205 139.111 127.546Z" fill="#DBDBDB"/>
<path d="M353.895 71.7674C346.05 61.3457 336.06 52.7292 324.599 46.5002C313.147 40.3397 300.332 37.1514 287.328 37.2274C271.505 37.222 256.013 41.7585 242.693 50.298C229.076 58.9025 217.509 71.0541 208.474 86.3738C202.69 95.9486 198.192 107.233 195.198 119.892C192.143 133.075 190.633 146.568 190.699 160.1C190.699 177.489 193.032 193.811 197.639 208.61C202.247 223.409 208.744 236.557 216.918 247.481C224.805 258.204 234.931 267.082 246.593 273.5C258.203 279.797 271.217 283.053 284.423 282.966C292.769 282.902 301.041 281.397 308.874 278.519C317.209 275.479 325.073 271.278 332.233 266.04C347.611 254.691 359.499 239.558 367.576 221.057C375.564 202.717 379.606 181.338 379.606 157.517C379.606 140.385 377.337 124.313 372.852 109.745C368.367 95.1775 361.954 82.3447 353.895 71.7674ZM330.672 159.367C330.701 168.406 329.646 177.415 327.529 186.202C325.634 194.173 322.604 201.829 318.533 208.938C308.894 225.838 297.899 234.057 284.957 234.057C278.786 234.145 272.726 232.418 267.529 229.09C262.183 225.697 257.447 220.736 253.463 214.426C249.369 207.929 246.13 200.018 243.824 190.913C241.4 180.824 240.226 170.475 240.328 160.1C240.328 148.874 241.562 138.521 243.991 129.332C246.394 120.246 249.774 112.348 254.112 105.858C258.327 99.5215 263.352 94.5734 269.052 91.1676C274.62 87.8334 280.998 86.0949 287.488 86.1425C293.363 86.1253 299.102 87.9082 303.933 91.2512C309.189 94.7727 313.822 99.7721 317.704 106.108C321.688 112.624 324.875 120.49 327.176 129.505C329.576 139.276 330.751 149.307 330.672 159.367V159.367Z" fill="#DBDBDB"/>
<path d="M574.026 109.778C569.528 95.1326 563.147 82.3447 555.088 71.7675C547.243 61.3457 537.253 52.7293 525.792 46.5002C514.34 40.3385 501.525 37.1501 488.521 37.2274C472.7 37.2222 457.21 41.7587 443.892 50.298C430.211 58.9025 418.715 71.0542 409.648 86.3739C403.864 95.9487 399.366 107.233 396.378 119.892C393.323 133.075 391.813 146.568 391.88 160.1C391.88 177.489 394.219 193.811 398.826 208.61C403.434 223.409 409.924 236.557 418.104 247.481C425.99 258.204 436.114 267.082 447.773 273.5C459.383 279.797 472.397 283.053 485.604 282.966C493.951 282.902 502.225 281.397 510.061 278.519C518.398 275.48 526.264 271.279 533.426 266.04C548.804 254.691 560.692 239.558 568.769 221.057C576.751 202.717 580.799 181.338 580.799 157.517C580.78 140.417 578.505 124.345 574.026 109.778ZM531.865 159.367C531.898 168.406 530.843 177.416 528.722 186.203C526.83 194.173 523.8 201.83 519.726 208.938C510.087 225.838 499.092 234.057 486.15 234.057C479.98 234.143 473.92 232.416 468.722 229.09C463.376 225.697 458.646 220.736 454.656 214.426C450.562 207.929 447.324 200.019 445.017 190.913C442.593 180.824 441.419 170.475 441.521 160.1C441.521 148.874 442.755 138.521 445.19 129.332C447.593 120.246 450.974 112.348 455.311 105.858C459.52 99.5216 464.545 94.5735 470.245 91.1677C475.816 87.8332 482.196 86.0948 488.688 86.1425C494.562 86.1266 500.301 87.9094 505.132 91.2512C510.389 94.7727 515.022 99.7722 518.897 106.108C522.881 112.624 526.068 120.49 528.369 129.505C530.77 139.276 531.944 149.307 531.865 159.367V159.367Z" fill="#DBDBDB"/>
<path d="M555.069 55.0015C565.064 68.2629 573.181 82.8396 579.192 98.3195C585.219 113.787 589.125 129.999 590.804 146.515C591.741 155.793 591.956 165.131 591.447 174.442C591.376 175.683 593.304 175.676 593.375 174.442C594.289 157.702 592.89 140.915 589.217 124.557C585.573 108.285 579.759 92.5762 571.931 77.8525C567.505 69.5414 562.432 61.5914 556.759 54.0761C556.02 53.0994 554.343 54.0761 555.095 55.0465L555.069 55.0015Z" fill="#DBDBDB"/>
<path d="M579.019 71.8831C579.073 72.9906 579.485 74.0508 580.191 74.9055C580.898 75.7602 581.861 76.3636 582.939 76.6256C583.205 76.6844 583.476 76.721 583.749 76.7348C584.067 76.723 584.372 76.6003 584.61 76.3878C584.998 76.0981 585.34 75.7515 585.625 75.3596C586.106 74.6405 586.398 73.8117 586.473 72.9499C586.568 72.1227 586.467 71.2849 586.179 70.5037C585.891 69.7225 585.424 69.0197 584.815 68.4516C584.062 67.8297 583.126 67.4701 582.15 67.4272C581.173 67.3843 580.21 67.6604 579.404 68.2139C577.567 69.422 576.32 71.7739 577.091 73.9652C577.17 74.2026 577.336 74.4011 577.555 74.5205C577.775 74.6399 578.032 74.6711 578.273 74.6078C578.519 74.5387 578.727 74.376 578.853 74.1548C578.979 73.9336 579.013 73.6716 578.948 73.4254C578.896 73.2828 578.853 73.1368 578.82 72.9884C578.823 72.9285 578.823 72.8684 578.82 72.8085C578.82 72.9884 578.82 72.8085 578.82 72.8085C578.82 72.6607 578.82 72.5129 578.82 72.3651C578.817 72.3073 578.817 72.2494 578.82 72.1916C578.82 72.3972 578.82 72.1402 578.82 72.0952C578.849 71.9514 578.887 71.8097 578.935 71.6711L578.993 71.4976C578.935 71.6518 578.993 71.4976 578.993 71.4976C579.125 71.2236 579.28 70.9613 579.456 70.7136C579.36 70.8486 579.456 70.7136 579.501 70.6622L579.655 70.4887L579.912 70.2317C579.965 70.177 580.021 70.1255 580.079 70.0774C580.079 70.0774 580.266 69.9296 580.137 70.026C580.258 69.9351 580.385 69.8514 580.516 69.7754C580.645 69.6983 580.78 69.634 580.915 69.5633C580.915 69.5633 581.082 69.4927 580.915 69.5633L581.082 69.4991C581.223 69.4541 581.364 69.4091 581.512 69.377L581.686 69.3449C581.48 69.3834 581.75 69.3449 581.782 69.3449C581.928 69.332 582.074 69.332 582.219 69.3449H582.399C582.219 69.3449 582.399 69.3449 582.399 69.3449L582.842 69.467C582.881 69.467 583.01 69.5376 582.842 69.467L583.054 69.5698C583.164 69.6276 583.273 69.6983 583.382 69.769C583.491 69.8397 583.517 69.8847 583.382 69.769L583.498 69.8654C583.588 69.9468 583.678 70.0367 583.768 70.1353L583.864 70.2509C584.025 70.4309 583.768 70.0903 583.864 70.2959C583.99 70.4892 584.106 70.6887 584.211 70.8935C584.333 71.112 584.166 70.765 584.211 70.8935C584.256 71.0221 584.256 71.0092 584.282 71.0735C584.308 71.1377 584.359 71.3241 584.398 71.4462C584.436 71.5683 584.443 71.6775 584.468 71.7932C584.494 71.9089 584.507 72.031 584.468 71.7932V71.9538C584.491 72.2147 584.491 72.477 584.468 72.7378C584.471 72.7892 584.471 72.8407 584.468 72.892C584.468 73.1169 584.507 72.7378 584.468 72.9435C584.43 73.1491 584.404 73.2455 584.365 73.3997C584.327 73.5539 584.282 73.6375 584.243 73.7596C584.32 73.5475 584.185 73.8817 584.147 73.9459C584.108 74.0102 584.006 74.1837 583.928 74.3058C583.851 74.4279 583.787 74.4793 583.928 74.3058L583.781 74.4793C583.691 74.5721 583.597 74.66 583.498 74.7427C583.318 74.9098 583.607 74.6721 583.498 74.7427L583.267 74.897L583.755 74.762C583.022 74.6811 582.34 74.347 581.827 73.8174C581.744 73.7339 581.666 73.6439 581.589 73.5539C581.512 73.464 581.589 73.5861 581.499 73.4254C581.375 73.2436 581.266 73.0523 581.172 72.8535C581.14 72.7956 581.14 72.7956 581.172 72.8535C581.144 72.7929 581.121 72.7306 581.101 72.6671C581.069 72.5707 581.043 72.4744 581.017 72.378C580.99 72.2809 580.968 72.1821 580.953 72.0824C580.953 72.2366 580.953 71.8767 580.953 71.8382C580.947 71.5846 580.843 71.3432 580.664 71.1638C580.484 70.9844 580.243 70.8808 579.989 70.8743C579.734 70.8743 579.488 70.9758 579.308 71.1566C579.127 71.3374 579.025 71.5825 579.025 71.8382L579.019 71.8831Z" fill="#DBDBDB"/>
<path d="M592.604 102.728C591.659 105.035 593.131 107.792 595.251 108.859C595.811 109.147 596.423 109.321 597.05 109.373C597.391 109.438 597.741 109.425 598.076 109.334C598.41 109.242 598.719 109.075 598.978 108.846C599.677 108.007 600.035 106.935 599.981 105.845C599.947 104.754 599.586 103.699 598.946 102.816C598.305 101.932 597.414 101.262 596.389 100.89C595.384 100.624 594.318 100.727 593.383 101.18C592.449 101.633 591.707 102.405 591.293 103.358C590.271 105.504 590.534 108.177 592.578 109.643C592.798 109.76 593.055 109.788 593.295 109.72C593.535 109.652 593.74 109.494 593.866 109.278C593.991 109.063 594.029 108.807 593.969 108.564C593.91 108.322 593.759 108.112 593.548 107.978C593.349 107.83 593.69 108.113 593.51 107.94L593.349 107.792C593.298 107.74 593.066 107.458 593.214 107.657C593.14 107.561 593.074 107.46 593.015 107.355C592.977 107.295 592.942 107.233 592.912 107.169C592.912 107.117 592.803 106.912 592.912 107.136C592.821 106.889 592.748 106.636 592.694 106.378C592.694 106.32 592.694 106.192 592.694 106.417V106.198C592.684 106.051 592.684 105.902 592.694 105.755C592.687 105.631 592.687 105.506 592.694 105.382C592.694 105.639 592.694 105.273 592.732 105.196C592.791 104.904 592.877 104.618 592.989 104.341C592.899 104.566 593.053 104.219 593.079 104.161C593.105 104.103 593.201 103.949 593.265 103.846C593.33 103.743 593.516 103.499 593.368 103.679C593.471 103.557 593.574 103.441 593.683 103.326C593.792 103.21 593.876 103.146 593.979 103.062C593.786 103.223 594.082 103.004 594.133 102.972C594.184 102.94 594.345 102.857 594.448 102.799C594.666 102.696 594.255 102.857 594.486 102.799L594.698 102.735L594.911 102.683C594.911 102.683 595.161 102.651 595.007 102.683C594.853 102.715 595.103 102.683 595.11 102.683H595.348H595.502C595.759 102.683 595.309 102.632 595.553 102.683C595.797 102.735 595.849 102.747 595.997 102.792C596.035 102.792 596.266 102.902 596.048 102.792L596.183 102.857C596.32 102.926 596.453 103.003 596.581 103.088L596.71 103.172C596.915 103.313 596.568 103.043 596.755 103.21C596.941 103.377 596.986 103.422 597.089 103.531C597.18 103.625 597.266 103.724 597.346 103.827C597.211 103.66 597.436 103.962 597.475 104.02C597.561 104.152 597.641 104.29 597.712 104.431L597.783 104.572L597.847 104.714C597.802 104.605 597.796 104.605 597.847 104.714C597.951 105.012 598.033 105.317 598.091 105.626C598.046 105.408 598.091 105.575 598.091 105.626C598.091 105.678 598.091 105.806 598.091 105.896C598.101 106.048 598.101 106.201 598.091 106.352C598.091 106.61 598.143 106.153 598.091 106.397C598.091 106.475 598.091 106.552 598.046 106.622C598.008 106.771 597.961 106.917 597.905 107.059C597.989 106.834 597.905 107.059 597.905 107.104L597.789 107.304C597.751 107.368 597.706 107.432 597.661 107.496C597.789 107.31 597.59 107.573 597.558 107.612L597.982 107.361C597.896 107.387 597.808 107.407 597.719 107.419C597.854 107.419 597.719 107.419 597.661 107.419C597.603 107.419 597.333 107.419 597.173 107.419C597.012 107.419 597.301 107.458 597.076 107.419L596.864 107.374C596.707 107.336 596.552 107.286 596.401 107.226C596.53 107.271 596.401 107.226 596.344 107.194L596.144 107.091L595.727 106.828C595.643 106.77 595.797 106.892 595.669 106.783L595.463 106.603C595.341 106.487 595.232 106.365 595.116 106.243C595.001 106.121 594.988 106.083 595.065 106.185L594.911 105.967C594.827 105.838 594.743 105.71 594.673 105.575L594.557 105.331C594.615 105.459 594.557 105.331 594.557 105.273C594.5 105.12 594.453 104.963 594.416 104.804C594.416 104.733 594.416 104.656 594.371 104.585C594.326 104.515 594.371 104.72 594.371 104.534C594.361 104.358 594.361 104.182 594.371 104.007C594.371 104.007 594.403 103.75 594.371 103.872C594.339 103.994 594.371 103.756 594.403 103.737C594.449 103.561 594.505 103.387 594.57 103.217C594.638 102.975 594.609 102.716 594.489 102.495C594.369 102.274 594.168 102.109 593.927 102.034C593.68 101.972 593.419 102.008 593.198 102.133C592.976 102.259 592.812 102.465 592.739 102.709L592.604 102.728Z" fill="#DBDBDB"/>
<path d="M178.31 23.251C176.904 40.5629 176.972 57.9631 178.516 75.2634C178.944 80.1343 179.497 84.9903 180.173 89.8313C180.249 90.0719 180.416 90.2735 180.638 90.3935C180.86 90.5135 181.119 90.5423 181.362 90.4739C181.605 90.4005 181.81 90.2371 181.935 90.0171C182.061 89.7971 182.097 89.5375 182.037 89.2915C179.702 72.218 178.82 54.9771 179.402 37.7546C179.565 32.905 179.844 28.0598 180.238 23.2188C180.334 21.985 178.406 21.9915 178.31 23.2188V23.251Z" fill="#DBDBDB"/>
<path d="M27.2207 116.358C28.8786 127.278 30.151 138.245 31.0378 149.259C31.9246 160.273 32.4279 171.283 32.5479 182.289C32.6207 188.518 32.5672 194.74 32.3872 200.957C32.3872 202.203 34.3151 202.197 34.3151 200.957C34.6278 189.818 34.5507 178.692 34.0837 167.58C33.6168 156.467 32.76 145.425 31.5133 134.453C30.815 128.242 29.9946 122.03 29.0521 115.818C28.8722 114.597 27.0151 115.117 27.195 116.332L27.2207 116.358Z" fill="#DBDBDB"/>
<path d="M28.6473 192.474C29.2341 190.515 29.3768 188.449 29.065 186.427C28.8963 185.573 28.5529 184.763 28.0564 184.047C27.5599 183.332 26.921 182.727 26.1797 182.27C24.8302 181.46 22.9667 181.19 21.5851 182.058C21.0314 182.431 20.5789 182.936 20.2683 183.527C19.9576 184.118 19.7984 184.777 19.8051 185.444C19.7527 186.174 19.9509 186.9 20.3668 187.501C20.7828 188.103 21.3916 188.545 22.0927 188.754C22.3341 188.806 22.5865 188.765 22.7979 188.637C23.0092 188.509 23.1634 188.304 23.2285 188.066C23.2937 187.828 23.2648 187.574 23.1479 187.356C23.0311 187.138 22.835 186.974 22.6004 186.896C22.5546 186.887 22.5095 186.874 22.4654 186.858C22.3112 186.807 22.5747 186.916 22.4654 186.858C22.3841 186.821 22.3066 186.775 22.2341 186.723C22.1056 186.639 22.3305 186.813 22.2341 186.723L22.1377 186.633C22.1377 186.633 22.0349 186.517 22.0992 186.594C22.1634 186.672 22.0349 186.498 22.0221 186.479C22.0092 186.46 21.9385 186.325 21.9 186.241C21.9706 186.395 21.8678 186.138 21.855 186.087C21.8421 186.035 21.8036 185.881 21.7843 185.772C21.7843 185.933 21.7843 185.656 21.7843 185.605C21.7843 185.553 21.7843 185.38 21.7843 185.271C21.7843 185.161 21.7843 185.303 21.7843 185.091C21.829 184.895 21.8848 184.702 21.9514 184.512C22.0326 184.349 22.1271 184.192 22.2341 184.043C22.1441 184.165 22.3305 183.947 22.3626 183.915L22.4654 183.818C22.5875 183.716 22.4654 183.818 22.5361 183.767C22.9696 183.547 23.4555 183.452 23.9399 183.491C24.4243 183.531 24.8882 183.704 25.2801 183.992C25.7816 184.315 26.2115 184.738 26.5431 185.235C26.8747 185.731 27.101 186.29 27.2079 186.877C27.5742 188.567 27.2079 190.341 26.803 192.018C26.5074 193.22 28.3646 193.734 28.6666 192.526L28.6473 192.474Z" fill="#DBDBDB"/>
<path d="M19.5223 156.578C19.0081 158.065 19.022 159.683 19.5616 161.16C20.1012 162.637 21.1336 163.883 22.4847 164.688C22.707 164.81 22.9675 164.842 23.2126 164.777C23.4577 164.713 23.6687 164.557 23.8021 164.341C25.2689 162.135 25.9659 159.507 25.7846 156.864C25.6033 154.222 24.5539 151.713 22.7996 149.728C22.6497 149.578 22.4545 149.482 22.2442 149.454C22.0339 149.426 21.8203 149.468 21.6365 149.574C18.3206 151.733 17.2475 156.585 19.5287 159.856C20.2356 160.871 21.9064 159.907 21.1931 158.885C20.383 157.676 20.0773 156.199 20.3415 154.768C20.6056 153.337 21.4185 152.065 22.6068 151.225L21.4373 151.078C22.8985 152.759 23.7616 154.877 23.8918 157.101C24.0221 159.325 23.412 161.53 22.157 163.371L23.4743 163.024C22.4899 162.432 21.7435 161.514 21.3644 160.43C20.9854 159.345 20.9975 158.162 21.3987 157.086C21.8357 155.923 19.9721 155.422 19.5416 156.578H19.5223Z" fill="#DBDBDB"/>
<path d="M319.818 296.069C319.818 296.069 316.875 330.718 333.088 341.771C349.301 352.824 358.888 338.828 355.206 327.029C351.524 315.231 347.99 291.159 348.652 277.395C349.313 263.63 319.818 296.069 319.818 296.069Z" fill="white"/>
<path d="M346.544 273.995C347.958 273.995 348.767 274.985 348.652 277.395C348.009 291.159 351.518 315.238 355.206 327.029C357.944 335.801 353.349 345.793 344.141 345.793C340.966 345.793 337.245 344.605 333.088 341.771C316.875 330.718 319.818 296.069 319.818 296.069C319.818 296.069 339.893 273.995 346.544 273.995ZM346.544 272.71C345.387 272.71 341.872 272.71 329.836 284.097C324.053 289.585 318.95 295.15 318.912 295.208C318.723 295.416 318.608 295.68 318.584 295.959C318.162 302.288 318.349 308.643 319.143 314.936C320.904 328.649 325.37 338.031 332.413 342.838C336.545 345.652 340.503 347.079 344.186 347.079C346.158 347.097 348.105 346.64 349.863 345.745C351.62 344.85 353.136 343.544 354.281 341.938C357.308 337.825 358.136 331.958 356.479 326.618C352.925 315.263 349.314 291.275 349.982 277.433C350.059 275.685 349.725 274.445 348.941 273.623C348.636 273.311 348.269 273.066 347.864 272.904C347.459 272.743 347.025 272.668 346.589 272.684L346.544 272.71Z" fill="black"/>
<path d="M333.088 341.771C335.652 343.623 338.577 344.914 341.673 345.562C323.603 323.579 339.745 305.599 349.635 297.605C348.799 290.176 348.35 282.947 348.652 277.395C349.294 263.637 319.818 296.069 319.818 296.069C319.818 296.069 316.875 330.718 333.088 341.771Z" fill="#ABABAB"/>
<path d="M335.53 327.273C330.829 327.248 326.171 326.377 321.778 324.703C321.621 324.636 321.497 324.509 321.434 324.35C321.371 324.192 321.373 324.015 321.441 323.858C321.508 323.701 321.635 323.578 321.793 323.514C321.952 323.451 322.129 323.453 322.286 323.521C322.472 323.604 340.953 331.328 352.777 319.254C352.836 319.193 352.907 319.145 352.984 319.112C353.062 319.079 353.145 319.061 353.23 319.061C353.314 319.06 353.398 319.075 353.476 319.107C353.555 319.138 353.626 319.185 353.686 319.244C353.747 319.303 353.795 319.374 353.828 319.451C353.861 319.529 353.879 319.612 353.88 319.697C353.88 319.781 353.865 319.865 353.833 319.943C353.802 320.022 353.755 320.093 353.696 320.153C348.228 325.705 341.435 327.273 335.53 327.273Z" fill="black"/>
<path d="M332.58 305.161C327.879 305.136 323.221 304.265 318.828 302.591C318.672 302.523 318.548 302.397 318.485 302.238C318.421 302.08 318.424 301.903 318.491 301.746C318.558 301.589 318.685 301.465 318.844 301.402C319.002 301.339 319.179 301.341 319.336 301.408C319.522 301.486 337.972 309.21 349.834 297.135C349.953 297.013 350.116 296.944 350.287 296.942C350.457 296.94 350.621 297.006 350.743 297.125C350.865 297.245 350.935 297.408 350.936 297.578C350.938 297.749 350.872 297.913 350.753 298.035C345.278 303.587 338.486 305.161 332.58 305.161Z" fill="black"/>
<path d="M345.111 346.398C344.993 346.398 344.877 346.366 344.776 346.305C344.675 346.243 344.593 346.155 344.539 346.051L340.625 338.378C340.554 338.227 340.544 338.054 340.598 337.896C340.651 337.738 340.765 337.606 340.914 337.53C341.062 337.454 341.235 337.439 341.395 337.488C341.555 337.537 341.689 337.647 341.769 337.793L345.683 345.466C345.759 345.617 345.773 345.792 345.722 345.953C345.67 346.115 345.557 346.249 345.406 346.327C345.315 346.374 345.214 346.398 345.111 346.398Z" fill="black"/>
<path d="M352.629 342.568C352.514 342.568 352.4 342.537 352.301 342.478C352.201 342.419 352.119 342.335 352.064 342.233L348.742 336.187C348.656 336.037 348.634 335.859 348.68 335.693C348.726 335.526 348.836 335.385 348.986 335.3C349.136 335.215 349.313 335.192 349.48 335.238C349.646 335.284 349.787 335.394 349.873 335.544L353.195 341.584C353.236 341.659 353.261 341.74 353.27 341.824C353.279 341.908 353.272 341.994 353.248 342.075C353.224 342.156 353.184 342.232 353.131 342.298C353.078 342.363 353.012 342.418 352.938 342.458C352.847 342.522 352.74 342.56 352.629 342.568V342.568Z" fill="black"/>
<path d="M186.452 305.65C173.163 307.938 114.48 347.349 151.899 396C180.495 433.181 257.929 416.326 249.054 391.161C240.18 365.997 191.522 387.608 175.797 374.274C158.357 359.494 165.162 325.095 183.772 312.513L186.452 305.65Z" fill="white"/>
<path d="M186.452 305.65L183.798 312.513C165.162 325.095 158.383 359.468 175.823 374.274C180.321 378.129 187.57 379.048 195.802 379.048C203.834 379.048 212.811 378.149 221.133 378.149C233.953 378.149 245.224 380.289 249.054 391.161C254.195 405.813 230.136 417.643 203.474 417.643C184.331 417.643 163.845 411.538 151.899 396C114.467 347.349 173.163 307.963 186.452 305.65M186.452 304.365H186.394C186.332 304.358 186.27 304.358 186.208 304.365C182.037 305.091 173.355 309.287 164.198 316.799C156.789 322.859 146.848 332.864 141.707 346.141C138.68 353.676 137.678 361.874 138.803 369.917C140.088 378.958 144.175 387.981 150.903 396.726C161.724 410.799 180.893 418.871 203.5 418.871C223.305 418.871 241.754 412.354 248.36 403.024C251.104 399.168 251.773 394.882 250.288 390.679C245.983 378.47 233.15 376.806 221.159 376.806C216.924 376.806 212.49 377.043 208.197 377.268C204.059 377.48 199.773 377.705 195.827 377.705C186.227 377.705 180.321 376.33 176.678 373.207C169.905 367.462 166.505 358.228 167.109 347.207C167.868 333.372 174.711 320.141 184.543 313.496C184.757 313.346 184.923 313.136 185.019 312.892L187.653 306.093C187.729 305.928 187.768 305.748 187.769 305.566C187.769 305.226 187.634 304.899 187.393 304.658C187.152 304.417 186.825 304.281 186.484 304.281L186.452 304.365Z" fill="black"/>
<path d="M242.005 407.49C228.393 408.729 214.684 408.445 201.135 406.641C141.45 398.93 147.227 351.814 153.852 328.719C139.818 345.247 131.297 369.203 151.925 396C173.484 424.075 222.894 421.338 242.005 407.49Z" fill="#ABABAB"/>
<path d="M231.357 413.627C231.272 413.626 231.188 413.609 231.11 413.576C231.031 413.543 230.96 413.495 230.901 413.434C212.985 395.21 228.6 378.251 228.761 378.091C228.819 378.029 228.888 377.98 228.965 377.945C229.042 377.91 229.125 377.891 229.21 377.888C229.294 377.885 229.378 377.899 229.457 377.929C229.536 377.959 229.609 378.004 229.67 378.062C229.732 378.12 229.781 378.189 229.816 378.266C229.851 378.343 229.87 378.426 229.873 378.511C229.876 378.595 229.862 378.679 229.832 378.758C229.802 378.837 229.757 378.91 229.699 378.971C229.056 379.614 214.778 395.21 231.82 412.541C231.939 412.661 232.007 412.824 232.007 412.994C232.007 413.164 231.939 413.327 231.82 413.447C231.758 413.506 231.686 413.552 231.606 413.583C231.527 413.614 231.442 413.629 231.357 413.627Z" fill="black"/>
<path d="M205.833 418.254C205.729 418.254 205.627 418.228 205.535 418.18C205.444 418.132 205.365 418.063 205.306 417.977C198.97 408.942 196.515 400.441 198.012 392.704C199.188 386.819 202.55 381.598 207.42 378.091C207.563 377.998 207.737 377.966 207.904 378.001C208.071 378.037 208.217 378.137 208.31 378.281C208.403 378.424 208.435 378.598 208.399 378.765C208.364 378.932 208.264 379.078 208.12 379.171C203.565 382.516 200.413 387.432 199.272 392.967C197.852 400.344 200.236 408.512 206.34 417.238C206.437 417.378 206.475 417.551 206.445 417.718C206.415 417.886 206.319 418.034 206.18 418.132C206.08 418.208 205.958 418.251 205.833 418.254Z" fill="black"/>
<path d="M174.178 412.971C174.057 412.971 173.938 412.936 173.836 412.872C173.734 412.807 173.652 412.714 173.6 412.605C168.934 402.715 167.99 394.239 170.779 387.421C172.765 382.613 176.562 378.777 181.349 376.741C181.43 376.704 181.517 376.683 181.606 376.681C181.695 376.679 181.783 376.696 181.865 376.73C181.948 376.763 182.022 376.814 182.083 376.878C182.145 376.942 182.193 377.018 182.224 377.101C182.254 377.185 182.267 377.273 182.262 377.362C182.257 377.451 182.233 377.537 182.193 377.617C182.152 377.696 182.096 377.765 182.027 377.822C181.958 377.878 181.878 377.919 181.793 377.943C177.357 379.888 173.837 383.463 171.961 387.929C169.32 394.394 170.265 402.516 174.763 412.059C174.835 412.213 174.843 412.39 174.785 412.55C174.728 412.71 174.609 412.841 174.454 412.913C174.367 412.951 174.273 412.971 174.178 412.971V412.971Z" fill="black"/>
<path d="M145.73 387.19C145.57 387.191 145.416 387.132 145.297 387.025C145.178 386.918 145.103 386.771 145.087 386.612C144.393 379.543 145.981 373.76 149.804 369.551C156.474 362.186 167.463 362.09 167.925 362.09C168.096 362.09 168.259 362.158 168.38 362.278C168.5 362.399 168.568 362.562 168.568 362.732C168.568 362.903 168.5 363.066 168.38 363.187C168.259 363.307 168.096 363.375 167.925 363.375C167.816 363.375 157.001 363.478 150.742 370.444C147.182 374.383 145.704 379.787 146.36 386.509C146.376 386.677 146.325 386.846 146.218 386.977C146.111 387.108 145.956 387.191 145.788 387.209L145.73 387.19Z" fill="black"/>
<path d="M139.953 354.212C139.86 354.212 139.768 354.192 139.683 354.154C139.606 354.118 139.537 354.068 139.479 354.006C139.422 353.944 139.377 353.871 139.348 353.792C139.319 353.712 139.305 353.628 139.309 353.543C139.312 353.459 139.332 353.376 139.368 353.299C142.073 347.432 145.878 343.737 150.672 342.304C158.691 339.914 166.499 344.707 166.827 344.913C166.964 345.006 167.059 345.148 167.094 345.31C167.129 345.472 167.099 345.641 167.012 345.782C166.925 345.923 166.787 346.025 166.627 346.067C166.467 346.108 166.296 346.086 166.152 346.005C166.075 345.954 158.486 341.308 151.031 343.538C146.61 344.862 143.076 348.325 140.531 353.82C140.483 353.934 140.403 354.031 140.3 354.101C140.197 354.171 140.077 354.209 139.953 354.212Z" fill="black"/>
<path d="M171.029 328.308C170.938 328.308 170.848 328.289 170.765 328.251C170.682 328.213 170.608 328.158 170.547 328.09C170.277 327.781 163.813 320.668 156.069 327.164C156.006 327.226 155.931 327.273 155.848 327.304C155.765 327.335 155.677 327.349 155.589 327.344C155.501 327.34 155.414 327.317 155.335 327.277C155.256 327.238 155.186 327.183 155.13 327.115C155.073 327.047 155.031 326.968 155.006 326.884C154.981 326.799 154.974 326.71 154.985 326.623C154.996 326.535 155.025 326.451 155.07 326.375C155.115 326.299 155.175 326.233 155.247 326.181C163.961 318.868 171.441 327.152 171.511 327.242C171.624 327.369 171.682 327.535 171.673 327.705C171.663 327.875 171.587 328.034 171.46 328.148C171.341 328.252 171.188 328.31 171.029 328.308V328.308Z" fill="black"/>
<path d="M253.495 184.756C253.495 184.756 243.913 187.706 241.696 203.186C241.696 203.186 200.416 236.358 187.146 273.956C173.876 311.555 186.413 332.928 203.365 336.61C220.317 340.292 276.346 338.088 313.205 311.549C350.065 285.009 357.417 268.796 361.099 237.122C364.781 205.448 355.206 201.734 355.206 201.734L253.495 184.756Z" fill="white"/>
<path d="M253.598 186.08L354.801 202.949C355.714 203.476 363.104 208.732 359.826 236.949C358.098 251.812 355.508 264.073 348.485 275.589C341.66 286.783 330.877 297.225 312.434 310.508C285.625 329.824 247.364 336.726 220.529 336.726C213.64 336.726 207.638 336.244 203.622 335.37C196.862 333.899 191.136 329.497 187.499 322.968C181.073 311.401 181.362 294.173 188.341 274.393C195.12 255.192 209.457 237.122 220.298 225.388C227.215 217.835 234.628 210.751 242.487 204.182C242.74 203.977 242.905 203.683 242.95 203.36C244.832 190.206 252.087 186.652 253.598 186.074M253.475 184.75C253.475 184.75 243.894 187.7 241.677 203.18C241.677 203.18 200.396 236.351 187.126 273.95C173.857 311.549 186.394 332.922 203.346 336.604C207.227 337.459 213.21 338.011 220.529 338.011C245.051 338.011 284.79 332.003 313.186 311.562C350.046 285.022 357.417 268.809 361.099 237.109C364.781 205.41 355.206 201.721 355.206 201.721L253.495 184.756L253.475 184.75Z" fill="black"/>
<path d="M232.096 330.718C247.576 327.029 280.015 328.507 274.116 351.358C274.116 351.358 188.604 360.201 188.604 329.24C188.604 298.279 232.096 330.718 232.096 330.718Z" fill="white"/>
<path d="M199.291 315.854C212.143 315.854 232.096 330.718 232.096 330.718C236.767 329.665 241.542 329.145 246.33 329.169C261.624 329.169 278.511 334.31 274.116 351.358C274.116 351.358 262.806 352.528 248.412 352.528C223.228 352.528 188.598 348.948 188.598 329.24C188.598 319.241 193.135 315.854 199.285 315.854M199.285 314.569C193.822 314.569 187.313 317.139 187.313 329.24C187.313 349.546 220.536 353.813 248.412 353.813C262.697 353.813 274.116 352.65 274.244 352.637C274.505 352.61 274.752 352.504 274.95 352.332C275.149 352.161 275.291 351.933 275.356 351.68C276.86 345.832 276.095 340.884 273.068 336.977C266.938 329.066 253.681 327.884 246.323 327.884C241.637 327.867 236.962 328.351 232.379 329.33C229.166 326.997 211.462 314.55 199.285 314.55V314.569Z" fill="black"/>
<path d="M274.232 341.983C217.862 345.054 196.778 333.892 188.894 325.236C188.692 326.561 188.595 327.9 188.604 329.24C188.604 360.2 274.116 351.358 274.116 351.358C275.061 347.708 275.016 344.604 274.232 341.983Z" fill="#ABABAB"/>
<path d="M245.893 353.158C245.776 353.157 245.661 353.124 245.562 353.063C245.462 353.002 245.381 352.914 245.327 352.811C236.819 336.668 249.292 328.79 249.421 328.713C249.566 328.625 249.74 328.598 249.904 328.637C250.069 328.677 250.212 328.781 250.301 328.925C250.346 328.997 250.375 329.077 250.389 329.161C250.402 329.245 250.399 329.33 250.379 329.412C250.36 329.495 250.324 329.573 250.274 329.641C250.224 329.71 250.161 329.768 250.089 329.812C249.613 330.101 238.522 337.157 246.458 352.213C246.51 352.311 246.536 352.42 246.533 352.531C246.531 352.642 246.499 352.75 246.442 352.845C246.385 352.94 246.305 353.019 246.209 353.074C246.112 353.128 246.003 353.157 245.893 353.158V353.158Z" fill="black"/>
<path d="M227.36 352.194C227.24 352.195 227.123 352.162 227.02 352.1C226.918 352.037 226.836 351.947 226.782 351.84C223.742 345.8 223.01 340.479 224.59 336.039C225.737 332.836 228.066 330.194 231.1 328.655C231.178 328.612 231.264 328.585 231.353 328.577C231.442 328.569 231.531 328.579 231.616 328.607C231.7 328.636 231.778 328.681 231.844 328.741C231.91 328.801 231.963 328.874 231.999 328.956C232.036 329.037 232.055 329.125 232.055 329.214C232.055 329.304 232.037 329.392 232.001 329.474C231.966 329.555 231.913 329.629 231.848 329.689C231.782 329.75 231.705 329.796 231.62 329.825C228.917 331.244 226.839 333.62 225.792 336.489C224.34 340.588 225.059 345.556 227.932 351.268C228.008 351.421 228.02 351.597 227.966 351.759C227.911 351.92 227.795 352.054 227.643 352.13C227.556 352.175 227.458 352.198 227.36 352.194Z" fill="black"/>
<path d="M206.739 348.21C206.623 348.21 206.51 348.179 206.41 348.12C206.311 348.061 206.229 347.977 206.173 347.875C202.543 341.231 201.739 335.364 203.802 330.435C206.938 322.923 215.504 320.391 215.87 320.288C216.035 320.241 216.211 320.262 216.36 320.345C216.51 320.428 216.62 320.567 216.667 320.732C216.714 320.896 216.693 321.073 216.61 321.222C216.527 321.371 216.388 321.482 216.224 321.529C216.14 321.529 207.87 323.996 204.984 330.936C203.089 335.486 203.866 340.974 207.304 347.252C207.345 347.326 207.371 347.408 207.38 347.492C207.389 347.576 207.381 347.661 207.357 347.742C207.333 347.824 207.294 347.899 207.241 347.965C207.187 348.031 207.122 348.086 207.047 348.126C206.954 348.181 206.847 348.21 206.739 348.21V348.21Z" fill="black"/>
<path d="M269.271 352.406C269.108 352.406 268.951 352.345 268.831 352.234C268.712 352.123 268.639 351.971 268.628 351.808C268.236 346.025 265.055 343.879 264.92 343.789C264.778 343.695 264.679 343.55 264.644 343.384C264.609 343.217 264.641 343.044 264.734 342.902C264.826 342.761 264.97 342.661 265.135 342.625C265.299 342.589 265.472 342.619 265.614 342.709C265.775 342.805 269.47 345.279 269.913 351.706C269.919 351.79 269.909 351.875 269.882 351.955C269.855 352.035 269.813 352.11 269.757 352.173C269.702 352.237 269.634 352.29 269.558 352.327C269.483 352.365 269.4 352.387 269.316 352.393L269.271 352.406Z" fill="black"/>
<path d="M261.347 352.869H261.277C261.193 352.859 261.111 352.833 261.037 352.792C260.963 352.751 260.898 352.696 260.846 352.629C260.793 352.563 260.754 352.487 260.731 352.406C260.708 352.324 260.701 352.239 260.711 352.155C260.829 351.001 260.666 349.836 260.236 348.758C259.807 347.681 259.123 346.723 258.244 345.967C258.171 345.918 258.109 345.854 258.062 345.78C258.015 345.706 257.984 345.623 257.97 345.537C257.956 345.45 257.96 345.361 257.981 345.276C258.003 345.191 258.042 345.112 258.096 345.042C258.149 344.973 258.216 344.915 258.293 344.873C258.37 344.83 258.455 344.804 258.542 344.795C258.629 344.787 258.717 344.796 258.801 344.823C258.884 344.85 258.962 344.894 259.028 344.952C260.089 345.838 260.914 346.973 261.431 348.256C261.948 349.538 262.14 350.928 261.99 352.303C261.971 352.46 261.895 352.604 261.777 352.708C261.658 352.813 261.505 352.87 261.347 352.869V352.869Z" fill="black"/>
<path d="M180.495 313.027C179.602 297.855 184.183 271.74 209.245 259.948C234.307 248.156 248.315 266.58 257.158 284.277C266 301.974 271.166 321.869 237.995 335.878C204.824 349.887 181.966 338.089 180.495 313.027Z" fill="white"/>
<path d="M224.237 256.221C240.218 256.221 250.262 270.474 257.164 284.277C266.006 301.968 271.166 321.869 237.995 335.878C228.305 339.939 219.488 341.867 211.835 341.867C193.289 341.867 181.536 330.776 180.495 313.033C179.602 297.861 184.183 271.746 209.245 259.954C214.752 257.384 219.732 256.227 224.237 256.227M224.237 254.942C219.353 254.942 214.122 256.227 208.699 258.798C185.25 269.831 178.091 294.089 179.21 313.11C180.302 331.643 192.801 343.159 211.835 343.159C219.964 343.159 228.934 341.109 238.496 337.073C252.107 331.328 260.293 324.273 263.558 315.507C267.555 304.686 263.159 293.363 258.334 283.711C252.165 271.367 241.915 254.948 224.275 254.948L224.237 254.942Z" fill="black"/>
<path d="M225.619 340.048C181.234 343.261 181.234 296.069 198.507 266.792C182.834 280.01 179.749 300.335 180.514 313.02C181.78 334.83 199.252 346.584 225.619 340.048Z" fill="#ABABAB"/>
<path d="M271.905 267.325C271.905 267.325 274.116 343.255 291.826 351.364C309.536 359.474 316.155 343.255 311.747 334.406C307.339 325.557 300.694 288.704 305.854 273.224C311.014 257.743 271.905 267.325 271.905 267.325Z" fill="white"/>
<path d="M293.67 264.388C301.594 264.388 308.123 266.316 305.816 273.218C300.675 288.698 307.287 325.558 311.708 334.4C315.294 341.565 311.625 353.563 300.707 353.563C297.616 353.475 294.581 352.724 291.807 351.358C274.116 343.249 271.886 267.319 271.886 267.319C271.886 267.319 283.838 264.388 293.651 264.388M293.651 263.103C283.8 263.103 272.072 265.95 271.578 266.072C271.292 266.142 271.04 266.308 270.862 266.542C270.685 266.776 270.592 267.063 270.601 267.357C270.601 267.55 271.186 286.635 273.93 306.472C277.663 333.462 283.491 348.968 291.28 352.528C294.223 353.966 297.439 354.757 300.713 354.848C302.976 354.91 305.215 354.371 307.201 353.286C309.188 352.201 310.852 350.609 312.023 348.672C314.761 344.251 315.095 338.288 312.865 333.828C310.635 329.368 307.93 317.699 306.439 306.132C304.633 291.995 304.845 280.164 307.03 273.622C307.898 271.001 307.705 268.797 306.452 267.055C304.524 264.395 300.353 263.103 293.664 263.103H293.651Z" fill="black"/>
<path d="M281.583 265.448C276.114 266.284 271.905 267.318 271.905 267.318C271.905 267.318 274.116 343.248 291.826 351.358C295.945 353.241 299.454 353.8 302.378 353.453C282.926 337.221 281.352 286.686 281.583 265.448Z" fill="#ABABAB"/>
<path d="M290.766 292.657C281.577 292.657 272.985 288.081 272.439 287.786C272.365 287.743 272.3 287.687 272.248 287.62C272.196 287.553 272.158 287.476 272.135 287.394C272.113 287.312 272.107 287.226 272.118 287.142C272.128 287.057 272.156 286.976 272.198 286.902C272.24 286.828 272.296 286.763 272.363 286.711C272.431 286.659 272.508 286.621 272.59 286.599C272.672 286.576 272.757 286.57 272.842 286.581C272.926 286.592 273.007 286.619 273.081 286.661C273.274 286.764 292.533 297.001 303.695 286.751C303.756 286.688 303.829 286.637 303.91 286.603C303.991 286.569 304.078 286.552 304.166 286.553C304.254 286.554 304.34 286.573 304.421 286.608C304.501 286.644 304.573 286.696 304.633 286.761C304.692 286.825 304.738 286.902 304.766 286.985C304.795 287.068 304.807 287.156 304.8 287.243C304.793 287.331 304.769 287.416 304.728 287.494C304.687 287.572 304.631 287.64 304.562 287.696C300.514 291.416 295.572 292.657 290.766 292.657Z" fill="black"/>
<path d="M291.068 308.451C282.418 308.451 274.617 303.902 274.495 303.831C274.366 303.738 274.277 303.6 274.244 303.444C274.211 303.288 274.238 303.126 274.317 302.988C274.397 302.851 274.526 302.748 274.677 302.699C274.829 302.651 274.993 302.66 275.138 302.726C275.318 302.835 293.272 313.284 304.222 301.755C304.278 301.687 304.347 301.631 304.426 301.591C304.504 301.55 304.59 301.527 304.678 301.521C304.766 301.515 304.855 301.528 304.938 301.558C305.021 301.588 305.097 301.634 305.161 301.695C305.225 301.756 305.276 301.829 305.311 301.91C305.345 301.991 305.363 302.079 305.362 302.167C305.361 302.255 305.343 302.342 305.307 302.423C305.271 302.504 305.219 302.576 305.154 302.636C300.99 307.063 295.907 308.451 291.068 308.451Z" fill="black"/>
<path d="M294.21 326.656C285.175 326.656 277.432 321.516 277.316 321.438C277.239 321.394 277.172 321.335 277.12 321.264C277.067 321.193 277.029 321.112 277.009 321.026C276.989 320.939 276.988 320.85 277.004 320.763C277.02 320.676 277.054 320.593 277.104 320.52C277.154 320.447 277.218 320.385 277.293 320.337C277.368 320.29 277.451 320.259 277.539 320.246C277.626 320.232 277.716 320.237 277.801 320.26C277.887 320.283 277.967 320.323 278.036 320.378C278.203 320.487 294.866 331.527 307.236 320.43C307.298 320.368 307.371 320.32 307.453 320.288C307.534 320.256 307.621 320.241 307.708 320.244C307.795 320.246 307.881 320.267 307.96 320.303C308.039 320.34 308.11 320.393 308.168 320.458C308.226 320.523 308.27 320.599 308.298 320.682C308.325 320.765 308.336 320.852 308.329 320.939C308.321 321.026 308.297 321.111 308.256 321.188C308.215 321.265 308.158 321.332 308.09 321.387C304.299 324.84 299.338 326.724 294.21 326.656V326.656Z" fill="black"/>
<path d="M289.596 282.799C301.404 282.799 310.976 273.227 310.976 261.42C310.976 249.612 301.404 240.04 289.596 240.04C277.789 240.04 268.217 249.612 268.217 261.42C268.217 273.227 277.789 282.799 289.596 282.799Z" fill="white"/>
<path d="M289.596 240.046C293.825 240.046 297.959 241.301 301.475 243.65C304.991 245.999 307.731 249.339 309.349 253.246C310.967 257.153 311.39 261.452 310.564 265.599C309.739 269.747 307.702 273.556 304.712 276.546C301.721 279.535 297.911 281.571 293.763 282.395C289.616 283.22 285.317 282.795 281.41 281.176C277.504 279.557 274.165 276.816 271.817 273.299C269.468 269.782 268.215 265.648 268.217 261.419C268.218 255.75 270.472 250.314 274.481 246.306C278.49 242.298 283.927 240.046 289.596 240.046M289.596 238.761C285.113 238.761 280.731 240.091 277.004 242.581C273.276 245.072 270.371 248.612 268.656 252.754C266.941 256.896 266.492 261.453 267.368 265.85C268.243 270.247 270.402 274.285 273.572 277.455C276.743 280.624 280.782 282.782 285.179 283.656C289.575 284.53 294.133 284.08 298.274 282.363C302.415 280.647 305.955 277.741 308.444 274.013C310.934 270.285 312.262 265.902 312.261 261.419C312.252 255.412 309.862 249.652 305.613 245.405C301.364 241.157 295.604 238.768 289.596 238.761V238.761Z" fill="black"/>
<path d="M289.596 282.799H289.885C270.427 274.695 273.377 251.844 280.015 242.314C275.71 244.47 272.259 248.016 270.221 252.378C268.183 256.74 267.677 261.663 268.786 266.348C269.895 271.033 272.553 275.207 276.33 278.192C280.107 281.178 284.782 282.801 289.596 282.799V282.799Z" fill="#ABABAB"/>
<path d="M290.335 271.74C296.035 271.74 300.655 267.119 300.655 261.419C300.655 255.72 296.035 251.099 290.335 251.099C284.636 251.099 280.015 255.72 280.015 261.419C280.015 267.119 284.636 271.74 290.335 271.74Z" fill="black"/>
<path d="M290.335 272.382C288.167 272.382 286.047 271.739 284.245 270.535C282.442 269.33 281.037 267.618 280.207 265.615C279.377 263.611 279.16 261.407 279.583 259.281C280.006 257.154 281.05 255.201 282.583 253.667C284.117 252.134 286.07 251.09 288.197 250.667C290.323 250.244 292.527 250.461 294.531 251.291C296.534 252.121 298.246 253.526 299.451 255.329C300.655 257.132 301.298 259.251 301.298 261.419C301.295 264.326 300.139 267.112 298.083 269.167C296.028 271.223 293.242 272.379 290.335 272.382V272.382ZM290.335 251.742C288.421 251.742 286.55 252.309 284.959 253.373C283.367 254.436 282.127 255.948 281.394 257.716C280.662 259.484 280.47 261.43 280.844 263.307C281.217 265.185 282.139 266.909 283.492 268.262C284.846 269.616 286.57 270.538 288.447 270.911C290.325 271.284 292.27 271.093 294.039 270.36C295.807 269.628 297.319 268.387 298.382 266.796C299.445 265.204 300.013 263.333 300.013 261.419C300.009 258.854 298.989 256.394 297.175 254.58C295.36 252.766 292.901 251.745 290.335 251.742V251.742Z" fill="#1D1D1B"/>
<path d="M221.776 313.759C233.175 313.759 242.416 304.518 242.416 293.119C242.416 281.72 233.175 272.479 221.776 272.479C210.376 272.479 201.135 281.72 201.135 293.119C201.135 304.518 210.376 313.759 221.776 313.759Z" fill="white"/>
<path d="M221.776 273.751C225.604 273.751 229.346 274.886 232.529 277.013C235.712 279.14 238.193 282.163 239.658 285.699C241.123 289.236 241.506 293.128 240.759 296.882C240.012 300.637 238.169 304.086 235.462 306.792C232.755 309.499 229.306 311.343 225.552 312.09C221.797 312.836 217.906 312.453 214.369 310.988C210.832 309.523 207.809 307.042 205.682 303.859C203.556 300.677 202.42 296.934 202.42 293.106C202.426 287.975 204.466 283.054 208.095 279.426C211.724 275.797 216.644 273.756 221.776 273.751M221.776 272.466C217.693 272.466 213.703 273.676 210.309 275.944C206.914 278.212 204.269 281.436 202.706 285.208C201.144 288.979 200.735 293.129 201.532 297.133C202.328 301.137 204.294 304.815 207.181 307.701C210.067 310.588 213.745 312.554 217.749 313.35C221.753 314.147 225.903 313.738 229.675 312.176C233.446 310.613 236.67 307.968 238.938 304.574C241.206 301.179 242.416 297.189 242.416 293.106C242.416 287.632 240.242 282.382 236.371 278.511C232.5 274.64 227.25 272.466 221.776 272.466V272.466Z" fill="black"/>
<path d="M219.565 304.911C226.078 304.911 231.357 299.631 231.357 293.119C231.357 286.607 226.078 281.327 219.565 281.327C213.053 281.327 207.773 286.607 207.773 293.119C207.773 299.631 213.053 304.911 219.565 304.911Z" fill="black"/>
<path d="M219.565 305.56C217.104 305.561 214.698 304.833 212.652 303.466C210.605 302.1 209.009 300.158 208.067 297.884C207.124 295.611 206.877 293.11 207.356 290.696C207.835 288.282 209.02 286.065 210.759 284.324C212.499 282.584 214.716 281.398 217.129 280.918C219.543 280.437 222.045 280.683 224.318 281.625C226.592 282.566 228.535 284.161 229.902 286.207C231.27 288.253 232 290.658 232 293.119C231.994 296.416 230.683 299.576 228.352 301.908C226.022 304.24 222.862 305.553 219.565 305.56ZM219.565 281.97C217.358 281.969 215.201 282.622 213.365 283.847C211.53 285.073 210.099 286.815 209.254 288.853C208.408 290.892 208.187 293.136 208.617 295.3C209.047 297.465 210.11 299.453 211.671 301.014C213.231 302.574 215.219 303.637 217.384 304.067C219.549 304.497 221.792 304.276 223.831 303.431C225.869 302.586 227.612 301.155 228.837 299.319C230.062 297.484 230.716 295.326 230.714 293.119C230.711 290.163 229.535 287.329 227.445 285.239C225.355 283.149 222.521 281.973 219.565 281.97V281.97Z" fill="#1D1D1B"/>
<path d="M260.846 59.436C260.846 59.436 223.254 112.515 226.936 150.108C230.618 187.7 279.912 216.457 323.539 216.457C381.039 216.457 406.1 161.906 406.1 161.906L388.377 111.037C388.377 111.037 391.327 66.8067 369.948 59.436C369.948 59.436 351.518 68.2847 341.936 90.3967C341.936 90.3967 313.186 83.0261 288.857 89.6577C288.838 89.6577 276.326 63.1246 260.846 59.436Z" fill="white"/>
<path d="M370.037 60.8366C389.688 68.3422 387.124 110.523 387.092 110.96C387.083 111.132 387.107 111.304 387.163 111.467L404.68 161.828C399.629 171.591 393.13 180.532 385.402 188.349C378.061 195.881 369.501 202.12 360.084 206.804C348.706 212.361 336.2 215.219 323.539 215.158C302.178 215.158 279.379 208.282 260.987 196.291C241.562 183.626 229.937 167.175 228.247 149.972C226.377 130.861 235.605 107.503 243.669 91.2703C248.911 80.7689 254.838 70.6238 261.412 60.9008C275.742 65.1485 287.604 89.9401 287.72 90.1972C287.824 90.4181 287.988 90.6049 288.194 90.7358C288.4 90.8666 288.639 90.9361 288.883 90.9362C288.998 90.9344 289.113 90.9171 289.224 90.8848C296.602 88.987 304.199 88.073 311.818 88.1666C321.856 88.214 331.858 89.3757 341.641 91.6302C341.746 91.6557 341.854 91.6686 341.962 91.6688C342.212 91.6684 342.456 91.5952 342.665 91.4583C342.874 91.3213 343.038 91.1265 343.138 90.8976C351.569 71.446 367.171 62.3724 370.063 60.8237M369.973 59.4229C369.973 59.4229 351.543 68.2715 341.962 90.3835C332.077 88.0918 321.965 86.9171 311.818 86.8814C304.085 86.7933 296.374 87.7223 288.883 89.6446C288.883 89.6446 276.352 63.1114 260.872 59.4421C260.872 59.4421 223.279 112.521 226.962 150.114C230.644 187.706 279.912 216.456 323.539 216.456C381.039 216.456 406.1 161.905 406.1 161.905L388.377 111.037C388.377 111.037 391.327 66.8064 369.947 59.4357L369.973 59.4229Z" fill="black"/>
<path d="M248.315 100.717C248.315 100.717 251.997 85.9751 260.846 77.1265C260.846 77.1265 268.217 80.815 272.644 90.3963C272.644 90.3963 259.375 92.6068 248.315 100.717Z" fill="black"/>
<path d="M248.315 101.359C248.187 101.36 248.062 101.322 247.955 101.25C247.846 101.176 247.763 101.071 247.715 100.948C247.668 100.825 247.66 100.69 247.692 100.563C247.846 99.9521 251.548 85.5449 260.39 76.6769C260.485 76.5805 260.609 76.5167 260.743 76.4948C260.877 76.4728 261.014 76.4939 261.135 76.5548C261.444 76.7091 268.757 80.449 273.223 90.1266C273.267 90.2155 273.29 90.3134 273.29 90.4126C273.29 90.5118 273.267 90.6097 273.223 90.6986C273.177 90.7861 273.111 90.8618 273.03 90.9198C272.95 90.9778 272.858 91.0164 272.76 91.0327C272.625 91.0327 259.509 93.314 248.707 101.237C248.594 101.32 248.456 101.363 248.315 101.359ZM260.962 77.93C254.33 84.7802 250.68 95.0875 249.433 99.1359C258.552 92.9734 268.763 90.525 271.706 89.921C269.329 84.9896 265.604 80.8322 260.962 77.93V77.93Z" fill="#1D1D1B"/>
<path d="M358.882 92.6073C358.882 92.6073 365.52 80.8155 371.419 77.127C371.419 77.127 378.051 83.7651 378.051 100.717C378.057 100.717 366.998 91.894 358.882 92.6073Z" fill="black"/>
<path d="M378.057 101.359C377.91 101.36 377.767 101.31 377.652 101.218C377.55 101.134 366.728 92.5556 358.946 93.2496C358.827 93.2656 358.706 93.248 358.597 93.1987C358.487 93.1495 358.394 93.0705 358.327 92.9709C358.26 92.8712 358.222 92.7548 358.218 92.6348C358.214 92.5149 358.244 92.3962 358.303 92.2921C358.58 91.8038 365.089 80.314 371.053 76.5869C371.176 76.5093 371.322 76.476 371.467 76.4923C371.612 76.5087 371.747 76.5737 371.85 76.6769C372.132 76.9532 378.674 83.6941 378.674 100.717C378.674 100.838 378.639 100.956 378.574 101.059C378.51 101.161 378.417 101.243 378.308 101.295C378.23 101.335 378.144 101.357 378.057 101.359V101.359ZM360.064 91.9259C366.715 92.003 374.6 97.3366 377.415 99.4122C377.132 86.0717 372.608 79.5621 371.316 77.9749C366.722 81.1494 361.716 89.1112 360.039 91.9259H360.064Z" fill="#1D1D1B"/>
<path d="M284.436 106.616C266.051 114.102 247.576 119.886 249.787 155.268C251.997 190.649 304.338 207.608 330.877 203.926C357.417 200.243 383.217 184.757 389.116 158.217C395.016 131.678 378.803 110.305 361.838 107.355C344.873 104.405 336.776 126.517 326.456 129.467C316.136 132.417 304.338 98.5063 284.436 106.616Z" fill="white"/>
<path d="M290.573 105.389C306.092 105.389 316.277 129.685 325.152 129.685C325.586 129.682 326.019 129.619 326.437 129.499C336.114 126.736 343.845 107.117 358.753 107.117C359.781 107.117 360.807 107.208 361.819 107.387C378.777 110.337 394.99 131.71 389.097 158.249C383.205 184.789 357.398 200.269 330.858 203.958C328.302 204.298 325.725 204.463 323.147 204.452C295.335 204.452 251.818 187.513 249.768 155.3C247.557 119.918 266.032 114.134 284.417 106.648C286.359 105.824 288.444 105.387 290.554 105.363M290.554 104.078C288.28 104.094 286.032 104.555 283.935 105.434L281.512 106.41C272.844 109.906 263.879 113.524 257.556 120.548C250.385 128.516 247.499 139.575 248.489 155.358C248.977 163.236 251.901 170.626 257.164 177.335C261.816 183.272 268.21 188.561 276.153 193.046C289.969 200.86 307.975 205.712 323.147 205.712C325.786 205.722 328.422 205.552 331.038 205.204C344.982 203.277 358.278 198.136 368.476 190.688C379.966 182.334 387.529 171.191 390.325 158.5C393.287 145.185 391.038 132.057 383.995 121.544C378.398 113.19 370.385 107.548 362.011 106.121C360.927 105.93 359.829 105.833 358.728 105.832C349.352 105.832 342.778 112.971 336.982 119.275C333.223 123.369 329.669 127.231 326.058 128.272C325.749 128.361 325.428 128.407 325.107 128.407C321.842 128.407 317.807 123.908 313.54 119.185C307.165 112.117 299.942 104.11 290.541 104.11L290.554 104.078Z" fill="black"/>
<path d="M266.745 155.268C264.637 121.525 281.345 114.7 298.843 107.644C294.538 105.292 289.783 104.431 284.436 106.616C266.051 114.103 247.576 119.886 249.787 155.268C251.997 190.65 304.338 207.608 330.877 203.926L331.134 203.881C303.817 200.784 268.551 184.179 266.745 155.268Z" fill="#ABABAB"/>
<path d="M236.89 149.645C236.815 149.645 236.741 149.631 236.671 149.606L196.123 134.865C195.963 134.806 195.832 134.686 195.761 134.531C195.689 134.376 195.682 134.199 195.741 134.039C195.799 133.879 195.919 133.748 196.074 133.677C196.229 133.605 196.406 133.598 196.566 133.657L237.108 148.398C237.25 148.449 237.37 148.549 237.445 148.68C237.521 148.811 237.548 148.964 237.522 149.113C237.496 149.262 237.418 149.397 237.303 149.494C237.187 149.591 237.041 149.644 236.89 149.645Z" fill="black"/>
<path d="M200.801 167.336C200.631 167.352 200.461 167.3 200.329 167.191C200.197 167.082 200.114 166.925 200.097 166.754C200.081 166.584 200.133 166.414 200.242 166.282C200.352 166.15 200.509 166.067 200.679 166.051L238.978 158.725C239.145 158.693 239.318 158.728 239.459 158.823C239.6 158.919 239.697 159.066 239.73 159.233C239.762 159.4 239.727 159.572 239.632 159.713C239.536 159.854 239.389 159.952 239.222 159.984L200.891 167.362L200.801 167.336Z" fill="black"/>
<path d="M396.853 153.333C396.709 153.339 396.567 153.295 396.451 153.21C396.334 153.125 396.25 153.003 396.211 152.864C396.187 152.783 396.18 152.698 396.19 152.613C396.199 152.529 396.225 152.448 396.267 152.374C396.308 152.3 396.363 152.234 396.43 152.182C396.496 152.129 396.573 152.091 396.654 152.068L436.464 141.015C436.622 140.983 436.788 141.012 436.926 141.096C437.065 141.181 437.166 141.314 437.21 141.471C437.254 141.627 437.237 141.794 437.163 141.938C437.089 142.082 436.963 142.193 436.811 142.249L397.001 153.308C396.953 153.323 396.904 153.332 396.853 153.333V153.333Z" fill="black"/>
<path d="M428.553 175.432C428.51 175.438 428.467 175.438 428.425 175.432L395.253 168.801C395.171 168.784 395.092 168.751 395.022 168.703C394.952 168.656 394.892 168.596 394.846 168.525C394.799 168.455 394.767 168.376 394.751 168.293C394.735 168.21 394.735 168.125 394.752 168.042C394.786 167.877 394.884 167.731 395.025 167.637C395.166 167.543 395.338 167.509 395.504 167.541L428.682 174.147C428.852 174.164 429.009 174.248 429.117 174.381C429.226 174.513 429.277 174.683 429.26 174.854C429.243 175.024 429.159 175.181 429.026 175.289C428.894 175.398 428.723 175.449 428.553 175.432V175.432Z" fill="black"/>
<path d="M243.605 195.694C242.67 198.107 242.023 200.622 241.677 203.187V203.187L242.789 204.292C242.789 204.292 296.768 255.835 361.928 222.323C361.928 220.563 361.806 218.956 361.671 217.472C361.542 217.53 360.733 214.612 360.733 214.612C360.733 214.612 302.095 244.358 243.605 195.694Z" fill="black"/>
<path d="M244.203 197.847C266.347 215.801 290.92 224.913 317.293 224.913C339.192 224.913 355.206 218.551 359.904 216.431C360.039 216.928 360.208 217.416 360.411 217.889C360.514 219.072 360.585 220.299 360.623 221.559C346.422 228.737 331.623 232.374 316.631 232.374C294.679 232.374 276.031 224.502 264.245 217.902C251.445 210.724 243.746 203.444 243.682 203.392L243.04 202.75C243.298 201.092 243.685 199.457 244.196 197.859M243.599 195.707C242.664 198.12 242.017 200.635 241.671 203.199V203.199L242.782 204.305C242.782 204.305 273.538 233.659 316.624 233.659C330.633 233.659 345.94 230.562 361.921 222.336C361.921 220.575 361.799 218.969 361.664 217.485C361.29 216.553 360.979 215.598 360.733 214.625C360.733 214.625 342.99 223.621 317.293 223.621C296.267 223.621 269.926 217.6 243.605 195.7L243.599 195.707Z" fill="#1D1D1B"/>
<path d="M336.134 220.511H334.476C333.915 220.511 333.46 220.966 333.46 221.527V232.027C333.46 232.587 333.915 233.042 334.476 233.042H336.134C336.694 233.042 337.149 232.587 337.149 232.027V221.527C337.149 220.966 336.694 220.511 336.134 220.511Z" fill="white"/>
<path d="M336.127 220.511C336.26 220.51 336.392 220.536 336.515 220.586C336.638 220.637 336.75 220.711 336.845 220.804C336.939 220.898 337.014 221.01 337.065 221.133C337.116 221.255 337.143 221.387 337.143 221.52V232.027C337.143 232.296 337.036 232.554 336.845 232.745C336.655 232.935 336.397 233.042 336.127 233.042H334.463C334.33 233.042 334.198 233.016 334.075 232.965C333.952 232.914 333.841 232.839 333.747 232.744C333.653 232.65 333.579 232.538 333.529 232.415C333.479 232.292 333.453 232.16 333.454 232.027V221.52C333.454 221.253 333.56 220.996 333.749 220.807C333.939 220.618 334.195 220.511 334.463 220.511H336.121M336.121 219.226H334.463C334.162 219.226 333.863 219.285 333.585 219.401C333.307 219.516 333.054 219.685 332.841 219.898C332.628 220.111 332.459 220.364 332.343 220.642C332.228 220.921 332.169 221.219 332.169 221.52V232.027C332.169 232.636 332.41 233.22 332.84 233.651C333.27 234.082 333.854 234.326 334.463 234.327H336.121C336.731 234.327 337.316 234.085 337.748 233.653C338.179 233.222 338.421 232.637 338.421 232.027V221.52C338.421 221.218 338.362 220.92 338.246 220.641C338.13 220.362 337.961 220.109 337.747 219.896C337.533 219.683 337.28 219.514 337.001 219.399C336.722 219.284 336.423 219.225 336.121 219.226V219.226Z" fill="black"/>
<path d="M305.816 353.473C305.72 353.473 305.625 353.452 305.538 353.411C305.451 353.369 305.375 353.309 305.314 353.235L299.415 345.858C299.31 345.724 299.262 345.555 299.281 345.387C299.301 345.218 299.386 345.064 299.518 344.958C299.65 344.852 299.819 344.803 299.988 344.821C300.156 344.839 300.311 344.923 300.418 345.054L306.317 352.432C306.422 352.565 306.47 352.734 306.451 352.903C306.432 353.071 306.346 353.225 306.214 353.331C306.101 353.422 305.961 353.472 305.816 353.473Z" fill="black"/>
<path d="M310.976 348.634C310.866 348.634 310.759 348.606 310.663 348.553C310.568 348.501 310.487 348.424 310.429 348.332L307.474 343.589C307.429 343.518 307.399 343.438 307.385 343.354C307.371 343.271 307.374 343.186 307.393 343.103C307.412 343.021 307.447 342.943 307.496 342.874C307.545 342.806 307.607 342.747 307.679 342.702C307.751 342.658 307.831 342.628 307.914 342.614C307.997 342.6 308.083 342.603 308.165 342.622C308.247 342.641 308.325 342.676 308.394 342.725C308.463 342.774 308.521 342.836 308.566 342.908L311.522 347.651C311.567 347.722 311.597 347.802 311.611 347.885C311.625 347.969 311.622 348.054 311.603 348.137C311.584 348.219 311.549 348.297 311.5 348.366C311.45 348.434 311.388 348.493 311.316 348.537C311.214 348.601 311.096 348.634 310.976 348.634V348.634Z" fill="black"/>
<path d="M377.241 127.256H375.191C373.111 127.256 371.426 128.942 371.426 131.022V152.241C371.426 154.321 373.111 156.006 375.191 156.006H377.241C379.321 156.006 381.007 154.321 381.007 152.241V131.022C381.007 128.942 379.321 127.256 377.241 127.256Z" fill="black"/>
<path d="M377.241 156.649H375.191C374.021 156.649 372.9 156.185 372.072 155.358C371.244 154.532 370.778 153.41 370.776 152.241V131.035C370.778 129.865 371.244 128.744 372.072 127.917C372.9 127.091 374.021 126.626 375.191 126.626H377.241C378.41 126.628 379.53 127.093 380.356 127.919C381.183 128.746 381.648 129.866 381.649 131.035V152.241C381.648 153.409 381.183 154.53 380.356 155.356C379.53 156.182 378.41 156.647 377.241 156.649V156.649ZM375.191 127.88C374.362 127.88 373.567 128.208 372.981 128.794C372.394 129.379 372.063 130.174 372.062 131.003V152.209C372.063 153.037 372.394 153.832 372.981 154.417C373.567 155.003 374.362 155.332 375.191 155.332H377.241C378.069 155.33 378.862 155 379.448 154.415C380.033 153.83 380.362 153.036 380.364 152.209V131.003C380.362 130.175 380.033 129.381 379.448 128.796C378.862 128.211 378.069 127.881 377.241 127.88H375.191Z" fill="#1D1D1B"/>
<path d="M285.831 127.256H283.781C281.701 127.256 280.015 128.942 280.015 131.022V152.241C280.015 154.321 281.701 156.006 283.781 156.006H285.831C287.91 156.006 289.596 154.321 289.596 152.241V131.022C289.596 128.942 287.91 127.256 285.831 127.256Z" fill="black"/>
<path d="M285.831 156.649H283.781C282.612 156.649 281.49 156.185 280.664 155.358C279.837 154.531 279.372 153.41 279.372 152.241V131.035C279.372 130.456 279.486 129.883 279.708 129.348C279.93 128.813 280.254 128.327 280.664 127.918C281.073 127.508 281.559 127.184 282.094 126.962C282.629 126.74 283.202 126.626 283.781 126.626H285.831C286.999 126.628 288.119 127.093 288.946 127.919C289.772 128.746 290.237 129.866 290.239 131.035V152.241C290.237 153.409 289.772 154.53 288.946 155.356C288.119 156.182 286.999 156.647 285.831 156.649V156.649ZM283.781 127.88C282.953 127.881 282.16 128.211 281.574 128.796C280.989 129.381 280.659 130.175 280.658 131.003V152.209C280.659 153.036 280.989 153.83 281.574 154.415C282.16 155 282.953 155.33 283.781 155.332H285.831C286.658 155.33 287.452 155 288.037 154.415C288.622 153.83 288.952 153.036 288.954 152.209V131.003C288.952 130.175 288.622 129.381 288.037 128.796C287.452 128.211 286.658 127.881 285.831 127.88H283.781Z" fill="#1D1D1B"/>
<path d="M328.834 189.447C326.865 189.437 324.907 189.162 323.012 188.631C322.926 188.611 322.846 188.574 322.776 188.521C322.705 188.469 322.646 188.402 322.603 188.326C322.559 188.25 322.531 188.166 322.521 188.079C322.511 187.992 322.519 187.903 322.545 187.819C322.57 187.735 322.613 187.657 322.67 187.591C322.726 187.524 322.796 187.469 322.875 187.43C322.953 187.391 323.039 187.369 323.127 187.364C323.215 187.36 323.302 187.373 323.384 187.404C323.462 187.404 331.012 189.64 335.247 186.324C337.175 184.821 338.151 182.366 338.158 179.024C338.158 178.452 338.158 178.086 338.158 178.028C338.158 177.858 338.226 177.694 338.346 177.574C338.467 177.453 338.63 177.386 338.8 177.386C338.965 177.386 339.124 177.449 339.244 177.562C339.364 177.676 339.435 177.831 339.443 177.996C339.443 178.298 339.443 178.587 339.443 178.87C339.552 180.438 340.086 183.876 342.753 185.887C345.419 187.899 349.59 188.04 355.091 186.247C355.172 186.217 355.258 186.204 355.344 186.208C355.43 186.213 355.515 186.234 355.593 186.272C355.671 186.31 355.74 186.363 355.797 186.428C355.854 186.493 355.897 186.569 355.923 186.651C355.95 186.733 355.96 186.82 355.953 186.906C355.945 186.992 355.921 187.076 355.88 187.152C355.839 187.228 355.784 187.296 355.717 187.35C355.649 187.404 355.572 187.444 355.489 187.468C349.558 189.396 345.008 189.216 341.994 186.903C340.627 185.836 339.588 184.406 338.993 182.777C338.541 184.57 337.511 186.164 336.063 187.314C333.942 188.978 331.25 189.447 328.834 189.447Z" fill="black"/>
<path d="M332.355 168.537L339.09 177.109L345.619 168.537H332.355Z" fill="black"/>
<path d="M339.09 177.752C338.992 177.753 338.896 177.731 338.808 177.689C338.72 177.646 338.642 177.585 338.582 177.508L331.847 168.936C331.772 168.841 331.726 168.726 331.713 168.606C331.7 168.486 331.721 168.364 331.774 168.255C331.827 168.147 331.91 168.055 332.013 167.991C332.115 167.927 332.234 167.894 332.355 167.895H345.618C345.739 167.894 345.857 167.928 345.959 167.992C346.062 168.055 346.144 168.146 346.197 168.254C346.25 168.362 346.272 168.482 346.261 168.601C346.25 168.72 346.205 168.834 346.133 168.929L339.604 177.495C339.545 177.574 339.468 177.638 339.38 177.683C339.292 177.727 339.195 177.751 339.096 177.752H339.09ZM333.672 169.18L339.077 176.056L344.32 169.18H333.672Z" fill="#1D1D1B"/>
<path d="M362.776 244.634C362.776 244.634 362.333 235.31 370.841 233.183C379.349 231.056 378.719 244.191 378.719 244.191L362.776 244.634Z" fill="white"/>
<path d="M362.776 245.277C362.606 245.277 362.442 245.209 362.322 245.089C362.201 244.968 362.133 244.805 362.133 244.635C362.133 244.532 361.774 234.751 370.687 232.528C372.826 231.988 374.639 232.309 376.059 233.472C379.689 236.448 379.381 243.896 379.362 244.21C379.353 244.375 379.282 244.531 379.162 244.644C379.043 244.758 378.884 244.821 378.719 244.821L362.77 245.245L362.776 245.277ZM372.608 233.588C372.064 233.594 371.522 233.665 370.995 233.8C364.344 235.465 363.515 241.923 363.425 243.973L378.089 243.587C378.089 241.82 377.839 236.621 375.243 234.501C374.502 233.89 373.567 233.566 372.608 233.588V233.588Z" fill="#1D1D1B"/>
<path d="M371.238 245.686C376.252 245.415 380.251 243.963 380.169 242.443C380.087 240.923 375.955 239.91 370.941 240.18C365.926 240.451 361.927 241.903 362.01 243.423C362.092 244.944 366.223 245.957 371.238 245.686Z" fill="white"/>
<path d="M369.684 246.356C365.43 246.356 361.517 245.431 361.388 243.458C361.381 243.222 361.421 242.986 361.506 242.766C361.591 242.545 361.719 242.343 361.883 242.173C363.104 240.804 366.638 239.763 370.879 239.532C375.699 239.262 380.666 240.174 380.814 242.379C380.822 242.615 380.782 242.851 380.697 243.071C380.612 243.292 380.483 243.494 380.319 243.664C379.098 245.039 375.564 246.08 371.323 246.311C370.776 246.343 370.224 246.356 369.684 246.356ZM372.608 240.759C372.087 240.759 371.535 240.759 370.963 240.804C366.715 241.042 363.669 242.089 362.847 243.021C362.748 243.114 362.686 243.24 362.673 243.375C362.718 244.094 365.79 245.302 371.252 245.026C375.5 244.795 378.552 243.741 379.368 242.816C379.467 242.723 379.529 242.597 379.542 242.462V242.462C379.503 241.813 377.035 240.759 372.608 240.759V240.759Z" fill="#1D1D1B"/>
<path d="M370.868 247.875C375.883 247.605 379.881 246.153 379.799 244.632C379.717 243.112 375.585 242.099 370.571 242.37C365.556 242.64 361.558 244.092 361.64 245.613C361.722 247.133 365.854 248.146 370.868 247.875Z" fill="white"/>
<path d="M369.305 248.548C365.057 248.548 361.144 247.622 361.015 245.65C361.006 245.413 361.046 245.177 361.131 244.956C361.216 244.735 361.345 244.534 361.51 244.364C362.725 242.996 366.259 241.955 370.507 241.723C375.333 241.453 380.3 242.366 380.448 244.57C380.455 244.807 380.414 245.043 380.328 245.264C380.242 245.485 380.112 245.686 379.946 245.855C378.732 247.23 375.198 248.271 370.95 248.503C370.404 248.535 369.851 248.548 369.305 248.548ZM372.235 242.951C371.715 242.951 371.162 242.951 370.584 242.996C366.343 243.233 363.29 244.281 362.474 245.213C362.376 245.307 362.313 245.431 362.294 245.566C362.346 246.286 365.417 247.494 370.879 247.218C375.127 246.986 378.173 245.932 378.989 245.007C379.091 244.913 379.155 244.785 379.169 244.647C379.124 244.005 376.663 242.951 372.235 242.951V242.951Z" fill="#1D1D1B"/>
<path d="M367.91 252.507C367.74 252.507 367.577 252.439 367.456 252.318C367.336 252.198 367.268 252.034 367.268 251.864C367.268 249.653 367.326 247.417 367.461 245.219C367.466 245.135 367.487 245.053 367.524 244.976C367.561 244.9 367.613 244.832 367.676 244.776C367.739 244.72 367.813 244.677 367.893 244.65C367.973 244.622 368.057 244.61 368.142 244.615C368.226 244.62 368.309 244.642 368.385 244.679C368.461 244.716 368.529 244.768 368.585 244.831C368.641 244.894 368.684 244.968 368.712 245.048C368.739 245.128 368.751 245.212 368.746 245.297C368.617 247.469 368.553 249.679 368.559 251.858C368.559 252.028 368.492 252.191 368.371 252.312C368.251 252.432 368.087 252.5 367.917 252.5L367.91 252.507Z" fill="#1D1D1B"/>
<path d="M373.225 253.335H373.141C372.973 253.313 372.82 253.224 372.716 253.089C372.613 252.955 372.567 252.784 372.589 252.615C372.89 250.169 373.006 247.703 372.936 245.238C372.936 245.068 373.003 244.904 373.124 244.784C373.244 244.663 373.408 244.596 373.578 244.596C373.749 244.596 373.912 244.663 374.033 244.784C374.153 244.904 374.221 245.068 374.221 245.238C374.294 247.769 374.173 250.302 373.861 252.815C373.832 252.962 373.753 253.095 373.637 253.19C373.521 253.285 373.375 253.336 373.225 253.335Z" fill="#1D1D1B"/>
<path d="M370.687 233.312C370.532 233.314 370.381 233.259 370.263 233.159C370.145 233.059 370.067 232.919 370.044 232.766C364.26 193.046 353.105 188.118 352.996 188.073C352.91 188.047 352.831 188.004 352.764 187.946C352.696 187.888 352.641 187.816 352.603 187.736C352.564 187.656 352.543 187.568 352.54 187.479C352.537 187.39 352.552 187.302 352.585 187.219C352.618 187.136 352.668 187.061 352.732 186.999C352.795 186.936 352.871 186.888 352.954 186.856C353.038 186.825 353.127 186.811 353.216 186.816C353.305 186.821 353.392 186.844 353.471 186.884C353.96 187.077 365.43 192.134 371.316 232.579C371.34 232.748 371.296 232.919 371.194 233.056C371.091 233.192 370.939 233.282 370.77 233.306L370.687 233.312Z" fill="black"/>
<path d="M98.6912 377.898C92.3359 377.898 85.6592 376.612 78.552 374.042C78.3922 373.985 78.2613 373.868 78.1879 373.715C78.1144 373.562 78.1044 373.386 78.16 373.226C78.1881 373.146 78.2317 373.073 78.2883 373.01C78.3449 372.947 78.4133 372.895 78.4898 372.859C78.5662 372.823 78.6491 372.802 78.7337 372.797C78.8182 372.793 78.9028 372.805 78.9825 372.834C98.537 379.819 114.731 377.043 129.954 364.101C154.579 343.171 170.123 350.548 183.843 357.032C186.317 358.208 188.656 359.314 191.053 360.284C202.992 365.11 220.323 366.999 237.417 365.335C256.162 363.516 271.886 357.823 281.692 349.315C291.775 340.569 295.219 329.394 291.922 316.066C281.313 273.198 291.344 240.438 301.632 220.505C312.781 198.9 326.642 187.269 326.784 187.153C326.849 187.099 326.924 187.058 327.004 187.033C327.085 187.008 327.17 186.999 327.254 187.007C327.338 187.015 327.42 187.039 327.495 187.079C327.57 187.118 327.636 187.172 327.69 187.237C327.744 187.302 327.784 187.377 327.808 187.458C327.833 187.539 327.841 187.624 327.833 187.709C327.825 187.793 327.8 187.874 327.76 187.949C327.72 188.024 327.665 188.089 327.6 188.143C327.465 188.252 313.771 199.755 302.744 221.147C292.578 240.875 282.663 273.307 293.169 315.758C296.543 329.387 292.861 341.321 282.534 350.285C261.116 368.92 215.517 371.619 190.571 361.537C188.142 360.554 185.674 359.384 183.29 358.253C169.268 351.602 154.771 344.759 130.783 365.116C120.72 373.669 110.232 377.898 98.6912 377.898Z" fill="black"/>
<path d="M403.119 272.479H378.057V297.54H403.119V272.479Z" fill="black"/>
<path d="M403.119 298.17H378.057C377.887 298.17 377.723 298.102 377.603 297.982C377.482 297.861 377.415 297.698 377.415 297.527V272.466C377.415 272.295 377.482 272.132 377.603 272.011C377.723 271.891 377.887 271.823 378.057 271.823H403.119C403.289 271.823 403.453 271.891 403.573 272.011C403.694 272.132 403.761 272.295 403.761 272.466V297.527C403.761 297.698 403.694 297.861 403.573 297.982C403.453 298.102 403.289 298.17 403.119 298.17ZM378.7 296.885H402.476V273.108H378.7V296.885Z" fill="#1D1D1B"/>
<path d="M390.588 293.119C395.067 293.119 398.698 289.488 398.698 285.01C398.698 280.531 395.067 276.9 390.588 276.9C386.109 276.9 382.478 280.531 382.478 285.01C382.478 289.488 386.109 293.119 390.588 293.119Z" fill="white"/>
<path d="M390.588 276.9C392.192 276.9 393.76 277.376 395.093 278.267C396.427 279.158 397.467 280.424 398.08 281.906C398.694 283.388 398.855 285.019 398.542 286.592C398.229 288.165 397.457 289.61 396.322 290.744C395.188 291.878 393.743 292.651 392.17 292.963C390.597 293.276 388.966 293.116 387.485 292.502C386.003 291.888 384.736 290.849 383.845 289.515C382.954 288.181 382.478 286.614 382.478 285.01C382.478 282.859 383.333 280.796 384.854 279.275C386.374 277.754 388.437 276.9 390.588 276.9M390.588 275.615C388.731 275.62 386.917 276.175 385.376 277.211C383.834 278.246 382.634 279.715 381.927 281.432C381.219 283.149 381.037 285.037 381.402 286.858C381.768 288.679 382.665 290.35 383.98 291.662C385.294 292.973 386.969 293.865 388.79 294.226C390.612 294.586 392.5 294.399 394.215 293.687C395.93 292.975 397.396 291.771 398.427 290.226C399.458 288.682 400.009 286.867 400.009 285.01C400.005 282.519 399.014 280.131 397.253 278.37C395.492 276.609 393.104 275.618 390.614 275.615H390.588Z" fill="black"/>
<path d="M388.377 289.34C388.207 289.34 388.044 289.273 387.923 289.152C387.803 289.032 387.735 288.868 387.735 288.698V281.327C387.735 281.157 387.803 280.993 387.923 280.873C388.044 280.752 388.207 280.685 388.377 280.685C388.548 280.685 388.711 280.752 388.832 280.873C388.952 280.993 389.02 281.157 389.02 281.327V288.698C389.02 288.868 388.952 289.032 388.832 289.152C388.711 289.273 388.548 289.34 388.377 289.34Z" fill="black"/>
<path d="M393.538 289.34C393.367 289.34 393.204 289.273 393.083 289.152C392.963 289.032 392.895 288.868 392.895 288.698V281.327C392.895 281.157 392.963 280.993 393.083 280.873C393.204 280.752 393.367 280.685 393.538 280.685C393.708 280.685 393.871 280.752 393.992 280.873C394.112 280.993 394.18 281.157 394.18 281.327V288.698C394.18 288.868 394.112 289.032 393.992 289.152C393.871 289.273 393.708 289.34 393.538 289.34Z" fill="black"/>
<path d="M382.8 232.624C382.657 232.625 382.519 232.579 382.406 232.493C382.292 232.407 382.211 232.285 382.174 232.148C382.138 232.01 382.147 231.865 382.202 231.733C382.258 231.602 382.355 231.493 382.478 231.423L388.66 227.882C388.734 227.839 388.815 227.812 388.899 227.801C388.983 227.79 389.068 227.796 389.15 227.818C389.232 227.84 389.308 227.878 389.375 227.93C389.442 227.981 389.499 228.046 389.541 228.12C389.624 228.267 389.646 228.442 389.602 228.606C389.557 228.769 389.45 228.909 389.303 228.994L383.115 232.541C383.018 232.595 382.91 232.624 382.8 232.624V232.624Z" fill="#1D1D1B"/>
<path d="M396.005 240.509H384.515C384.345 240.509 384.182 240.441 384.061 240.321C383.94 240.2 383.873 240.037 383.873 239.866C383.873 239.696 383.94 239.532 384.061 239.412C384.182 239.291 384.345 239.224 384.515 239.224H396.005C396.176 239.224 396.339 239.291 396.46 239.412C396.58 239.532 396.648 239.696 396.648 239.866C396.648 240.037 396.58 240.2 396.46 240.321C396.339 240.441 396.176 240.509 396.005 240.509Z" fill="#1D1D1B"/>
<path d="M213.576 245.213C213.454 245.212 213.334 245.179 213.229 245.116C213.157 245.071 213.096 245.011 213.047 244.942C212.998 244.872 212.964 244.793 212.946 244.71C212.928 244.627 212.927 244.541 212.943 244.458C212.958 244.374 212.99 244.294 213.036 244.223L217.747 236.859C217.839 236.715 217.984 236.613 218.151 236.577C218.318 236.54 218.493 236.571 218.637 236.663C218.781 236.755 218.882 236.9 218.919 237.067C218.956 237.234 218.925 237.409 218.833 237.553L214.116 244.917C214.058 245.008 213.978 245.082 213.884 245.134C213.789 245.185 213.684 245.213 213.576 245.213Z" fill="#1D1D1B"/>
<path d="M214.328 252.25C214.258 252.25 214.188 252.237 214.122 252.211C213.961 252.156 213.829 252.039 213.754 251.886C213.68 251.733 213.669 251.556 213.724 251.395C214.658 248.677 215.93 246.086 217.509 243.684C217.555 243.613 217.615 243.552 217.685 243.504C217.755 243.456 217.834 243.423 217.917 243.406C218 243.388 218.085 243.388 218.169 243.403C218.252 243.419 218.331 243.451 218.402 243.498C218.473 243.544 218.534 243.604 218.582 243.674C218.629 243.744 218.663 243.823 218.68 243.906C218.698 243.988 218.698 244.074 218.683 244.157C218.667 244.241 218.635 244.32 218.588 244.391C217.066 246.702 215.84 249.196 214.938 251.813C214.895 251.94 214.813 252.051 214.704 252.13C214.594 252.208 214.463 252.25 214.328 252.25V252.25Z" fill="#1D1D1B"/>
<path d="M257.517 317.107C257.362 317.109 257.211 317.054 257.093 316.953L252.672 313.098C252.608 313.042 252.555 312.975 252.516 312.899C252.478 312.823 252.455 312.74 252.449 312.655C252.443 312.57 252.454 312.485 252.481 312.404C252.509 312.323 252.552 312.249 252.608 312.185C252.72 312.057 252.878 311.978 253.048 311.965C253.218 311.953 253.385 312.009 253.514 312.121L257.935 315.977C258.035 316.062 258.106 316.176 258.139 316.303C258.172 316.43 258.166 316.564 258.12 316.688C258.075 316.811 257.993 316.917 257.885 316.992C257.777 317.067 257.649 317.107 257.517 317.107Z" fill="#1D1D1B"/>
<path d="M253.34 318.303H253.238C253.153 318.29 253.073 318.26 253 318.215C252.927 318.17 252.864 318.111 252.815 318.042C252.765 317.973 252.73 317.894 252.711 317.811C252.692 317.728 252.69 317.641 252.704 317.557C253.157 314.997 254.505 312.68 256.509 311.022C256.638 310.928 256.799 310.886 256.958 310.905C257.117 310.923 257.263 311 257.369 311.12C257.474 311.241 257.531 311.397 257.527 311.557C257.524 311.717 257.461 311.87 257.35 311.986C255.578 313.451 254.39 315.503 254.002 317.769C253.976 317.924 253.894 318.063 253.772 318.161C253.65 318.259 253.497 318.31 253.34 318.303Z" fill="#1D1D1B"/>
<path d="M230.682 267.029C230.553 267.029 230.426 266.99 230.32 266.916C230.213 266.843 230.131 266.739 230.084 266.618C230.038 266.497 230.029 266.365 230.059 266.239C230.089 266.112 230.156 265.998 230.252 265.911L234.609 262.004C234.737 261.901 234.9 261.851 235.064 261.865C235.228 261.879 235.381 261.955 235.49 262.077C235.6 262.2 235.658 262.36 235.653 262.525C235.648 262.689 235.58 262.846 235.463 262.962L231.113 266.869C230.994 266.974 230.841 267.031 230.682 267.029Z" fill="#1D1D1B"/>
<path d="M233.664 266.997C233.575 266.998 233.486 266.98 233.405 266.944C233.323 266.909 233.249 266.857 233.188 266.792L229.667 262.936C229.551 262.811 229.49 262.644 229.496 262.474C229.503 262.303 229.577 262.142 229.702 262.027C229.828 261.911 229.994 261.849 230.164 261.856C230.335 261.863 230.496 261.937 230.612 262.062L234.139 265.918C234.253 266.044 234.313 266.21 234.304 266.38C234.296 266.55 234.22 266.709 234.094 266.824C233.978 266.933 233.824 266.995 233.664 266.997V266.997Z" fill="#1D1D1B"/>
<path d="M191.194 329.799C191.059 329.799 190.928 329.756 190.818 329.677C190.709 329.599 190.627 329.487 190.585 329.359C190.542 329.231 190.541 329.093 190.581 328.965C190.621 328.836 190.701 328.723 190.809 328.642L195.23 325.429C195.298 325.379 195.376 325.343 195.458 325.322C195.54 325.302 195.626 325.298 195.71 325.311C195.794 325.324 195.874 325.353 195.947 325.397C196.019 325.441 196.082 325.499 196.133 325.567C196.183 325.636 196.219 325.713 196.239 325.796C196.26 325.878 196.263 325.963 196.25 326.047C196.238 326.131 196.208 326.212 196.164 326.284C196.121 326.357 196.063 326.42 195.994 326.47L191.573 329.683C191.462 329.761 191.33 329.801 191.194 329.799Z" fill="#1D1D1B"/>
<path d="M195.345 332.144C195.234 332.144 195.124 332.115 195.027 332.06C194.93 332.005 194.85 331.925 194.793 331.829L190.751 324.999C190.685 324.854 190.676 324.689 190.724 324.538C190.773 324.386 190.876 324.258 191.013 324.178C191.151 324.098 191.313 324.072 191.469 324.105C191.625 324.138 191.762 324.227 191.856 324.356L195.898 331.187C195.985 331.333 196.01 331.508 195.968 331.674C195.926 331.839 195.82 331.98 195.673 332.067C195.572 332.12 195.459 332.146 195.345 332.144V332.144Z" fill="#1D1D1B"/>
<path d="M345.021 269.683C344.907 269.685 344.796 269.653 344.7 269.593C344.554 269.508 344.448 269.368 344.404 269.204C344.361 269.04 344.384 268.866 344.468 268.719L346.531 265.179C346.571 265.102 346.627 265.034 346.694 264.979C346.761 264.924 346.838 264.884 346.921 264.859C347.005 264.835 347.092 264.828 347.178 264.839C347.264 264.849 347.347 264.877 347.422 264.92C347.497 264.964 347.563 265.022 347.615 265.091C347.667 265.16 347.704 265.24 347.725 265.324C347.745 265.408 347.749 265.495 347.735 265.581C347.72 265.666 347.689 265.748 347.643 265.821L345.58 269.356C345.524 269.455 345.443 269.538 345.345 269.595C345.247 269.653 345.135 269.683 345.021 269.683Z" fill="#1D1D1B"/>
<path d="M342.926 266.13C342.826 266.128 342.727 266.103 342.637 266.059C342.485 265.982 342.371 265.848 342.318 265.687C342.265 265.525 342.278 265.349 342.354 265.198L345.297 259.305C345.333 259.227 345.384 259.157 345.448 259.099C345.512 259.041 345.586 258.996 345.667 258.967C345.748 258.939 345.834 258.927 345.92 258.932C346.006 258.937 346.09 258.96 346.167 258.998C346.244 259.036 346.313 259.09 346.369 259.155C346.425 259.22 346.467 259.296 346.493 259.378C346.52 259.46 346.529 259.547 346.521 259.632C346.513 259.718 346.488 259.801 346.448 259.877L343.498 265.776C343.445 265.882 343.363 265.971 343.262 266.034C343.161 266.096 343.045 266.129 342.926 266.13V266.13Z" fill="#1D1D1B"/>
<path d="M472.224 214.079H471.903C471.368 213.984 470.863 213.763 470.431 213.432C470 213.102 469.654 212.673 469.423 212.18C469.193 211.688 469.084 211.148 469.106 210.604C469.128 210.061 469.281 209.532 469.551 209.06C469.605 208.976 469.678 208.905 469.763 208.854C469.791 208.76 469.842 208.674 469.911 208.604C470.488 208.046 471.254 207.724 472.056 207.702C472.858 207.68 473.64 207.96 474.247 208.485C474.854 209.011 475.242 209.744 475.335 210.542C475.428 211.339 475.219 212.142 474.75 212.793C474.455 213.186 474.074 213.507 473.637 213.729C473.199 213.952 472.716 214.072 472.224 214.079V214.079ZM470.702 209.58C470.682 209.637 470.656 209.691 470.624 209.741C470.446 209.943 470.312 210.18 470.231 210.437C470.15 210.694 470.123 210.966 470.154 211.234C470.184 211.501 470.27 211.76 470.406 211.993C470.543 212.225 470.726 212.426 470.945 212.584C471.164 212.741 471.414 212.85 471.678 212.905C471.942 212.96 472.214 212.958 472.478 212.901C472.741 212.844 472.99 212.732 473.207 212.573C473.425 212.414 473.607 212.211 473.741 211.977C473.957 211.73 474.106 211.433 474.174 211.112C474.243 210.792 474.229 210.459 474.133 210.146C473.991 209.854 473.784 209.598 473.528 209.399C473.272 209.2 472.973 209.062 472.655 208.996C472.338 208.93 472.009 208.938 471.695 209.019C471.38 209.101 471.089 209.253 470.843 209.465C470.8 209.51 470.75 209.549 470.695 209.58H470.702Z" fill="#1D1D1B"/>
<path d="M227.418 111.718C227.332 111.717 227.247 111.699 227.167 111.667C227.089 111.634 227.018 111.586 226.958 111.525C226.898 111.465 226.851 111.393 226.82 111.314C226.788 111.235 226.772 111.151 226.774 111.066C226.775 110.981 226.793 110.897 226.827 110.819C233.593 94.9615 241.541 79.6351 250.603 64.9688C250.636 64.8816 250.688 64.8026 250.755 64.7375C250.822 64.6724 250.903 64.6227 250.991 64.5918C251.079 64.5609 251.173 64.5496 251.266 64.5587C251.359 64.5678 251.449 64.597 251.529 64.6444C251.61 64.6917 251.679 64.7561 251.732 64.8329C251.785 64.9098 251.821 64.9973 251.837 65.0893C251.852 65.1814 251.848 65.2758 251.824 65.3659C251.799 65.4561 251.755 65.5399 251.695 65.6114C242.667 80.2242 234.749 95.4948 228.009 111.294C227.965 111.416 227.885 111.522 227.779 111.598C227.674 111.674 227.548 111.716 227.418 111.718Z" fill="#1D1D1B"/>
<path d="M407.167 61.6013C407.021 61.5986 406.881 61.5465 406.769 61.4535C406.637 61.3465 406.553 61.192 406.535 61.0235C406.517 60.855 406.567 60.6862 406.672 60.5538C411.553 54.4958 418.353 50.2821 425.951 48.6078C426.035 48.5842 426.123 48.5781 426.209 48.5897C426.296 48.6013 426.379 48.6306 426.454 48.6755C426.529 48.7205 426.594 48.7803 426.645 48.8512C426.697 48.9222 426.733 49.0028 426.751 49.0882C426.77 49.1736 426.771 49.2619 426.755 49.3478C426.739 49.4336 426.705 49.5152 426.656 49.5875C426.606 49.6599 426.543 49.7214 426.469 49.7684C426.396 49.8154 426.313 49.8469 426.227 49.8609C418.92 51.4776 412.38 55.5317 407.681 61.3571C407.62 61.4345 407.542 61.4969 407.453 61.5392C407.364 61.5816 407.266 61.6028 407.167 61.6013Z" fill="#1D1D1B"/>
<path d="M114.692 250.868C114.557 250.868 114.425 250.825 114.315 250.745C114.205 250.666 114.124 250.553 114.082 250.424C113.102 247.122 113.074 243.61 114 240.292C114.927 236.974 116.77 233.984 119.319 231.667C118.599 227.895 119.871 223.814 121.851 220.916C124.652 216.81 128.958 213.937 132.775 211.399C132.845 211.347 132.925 211.309 133.01 211.288C133.094 211.268 133.183 211.264 133.269 211.279C133.355 211.294 133.437 211.326 133.511 211.373C133.584 211.421 133.647 211.483 133.695 211.555C133.744 211.628 133.777 211.71 133.793 211.796C133.809 211.882 133.807 211.97 133.788 212.055C133.768 212.14 133.732 212.221 133.68 212.291C133.629 212.362 133.563 212.421 133.488 212.466C129.787 214.94 125.591 217.742 122.93 221.636C121.082 224.292 120.218 227.51 120.488 230.735C122.159 229.514 124.633 228.229 127.364 228.537C129.896 228.82 132.634 230.921 132.659 233.826C132.659 236.518 130.14 238.967 127.223 239.012H127.081C124.64 239.012 122.133 237.489 120.655 235.098C120.265 234.461 119.946 233.782 119.704 233.074C117.507 235.239 115.939 237.961 115.169 240.948C114.4 243.935 114.457 247.075 115.335 250.032C115.387 250.194 115.374 250.371 115.297 250.522C115.219 250.674 115.085 250.789 114.923 250.842C114.848 250.863 114.77 250.872 114.692 250.868V250.868ZM120.745 232.142C120.964 232.948 121.298 233.719 121.735 234.43C122.279 235.379 123.05 236.178 123.981 236.754C124.911 237.329 125.97 237.664 127.062 237.727H127.171C129.376 237.675 131.368 235.799 131.355 233.839C131.355 231.705 129.196 230.035 127.204 229.816C124.736 229.527 122.448 230.831 120.97 231.969L120.745 232.142Z" fill="#1D1D1B"/>
<path d="M210.697 26.6183C210.264 26.6211 209.833 26.5715 209.412 26.4705C208.64 26.3114 207.919 25.961 207.318 25.4512C206.716 24.9415 206.252 24.2888 205.968 23.5531C205.912 23.3936 205.921 23.2186 205.993 23.0659C206.065 22.9132 206.195 22.795 206.353 22.737H206.411H206.334C206.164 22.737 206 22.6692 205.88 22.5487C205.759 22.4282 205.691 22.2648 205.691 22.0943C205.693 21.3175 205.886 20.553 206.253 19.8683C206.62 19.1836 207.15 18.5996 207.796 18.168C208.442 17.7363 209.184 17.4702 209.957 17.393C210.73 17.3159 211.51 17.4301 212.229 17.7256C212.947 18.021 213.582 18.4887 214.077 19.0874C214.572 19.6861 214.912 20.3973 215.068 21.1585C215.223 21.9197 215.189 22.7074 214.968 23.4522C214.747 24.197 214.346 24.8761 213.801 25.4295C212.956 26.2074 211.846 26.6328 210.697 26.6183V26.6183ZM206.591 22.6984C206.724 22.6989 206.853 22.7406 206.961 22.8177C207.07 22.8948 207.151 23.0035 207.195 23.1289C207.477 23.8992 208.039 24.5353 208.768 24.911C209.497 25.2868 210.341 25.3748 211.132 25.1576C211.923 24.9404 212.604 24.4339 213.039 23.7384C213.474 23.043 213.632 22.2094 213.481 21.403C213.331 20.5966 212.883 19.8762 212.226 19.3847C211.569 18.8932 210.752 18.6664 209.935 18.7494C209.119 18.8323 208.364 19.2189 207.82 19.8326C207.275 20.4462 206.981 21.242 206.996 22.0622C207 22.2081 206.955 22.3513 206.868 22.4681C206.78 22.5849 206.655 22.6684 206.514 22.7048L206.591 22.6984Z" fill="#1D1D1B"/>
</svg>
