<svg width="579" height="600" viewBox="0 0 579 600" fill="none" xmlns="http://www.w3.org/2000/svg">
<path d="M135.746 258.574C112.106 213.027 88.467 167.605 64.9512 122.058C105.547 130.103 146.019 138.148 186.614 146.193C193.545 147.554 201.343 148.792 207.16 144.831C211.368 141.985 213.472 137.034 215.7 132.578C224.363 115.251 237.235 100.151 252.954 88.8885C265.826 79.7297 282.906 73.0462 297.015 79.8534C302.213 82.3288 306.545 86.537 311.62 89.2599C328.947 98.9137 350.482 91.6115 368.553 83.6903C386.746 75.7692 407.292 67.2292 425.609 74.9027C432.045 77.6256 437.491 82.0814 443.308 85.9182C467.69 102.132 499.003 108.196 519.054 129.608C535.515 147.059 541.456 173.546 534.153 196.443C521.653 235.553 475.488 259.316 470.413 300.036C469.423 307.709 470.042 315.507 468.928 323.18C465.215 346.944 443.803 365.138 420.535 371.202C397.267 377.267 372.513 373.182 349.369 366.499C281.668 346.82 220.774 304.368 179.065 247.435" fill="#16202C"/>
<path d="M501.974 369.957C501.726 359.932 499.993 349.659 497.766 339.881C488.483 299.286 465.339 261.908 432.911 235.793L432.045 236.907C432.169 223.416 432.664 210.668 433.778 195.445V195.197C436.996 196.682 440.833 196.93 443.927 195.321C449.001 192.845 451.724 186.533 449.991 181.211C448.382 176.261 442.937 172.795 437.738 173.29L443.803 139.378L429.694 136.408C424 135.17 417.936 136.655 412.738 139.007C396.895 146.185 381.177 153.735 367.191 160.047C367.191 160.047 380.063 171.434 386.375 177.003C386.375 177.003 373.751 207.203 368.429 220.198C336.002 214.01 303.698 207.945 271.271 201.757C255.182 198.662 238.844 195.568 222.631 197.177C214.091 197.92 205.427 200.148 197.753 203.985C196.021 202.623 194.288 201.014 192.927 199.281L193.793 202.375C190.946 199.158 185.748 198.539 181.788 200.272C181.169 200.519 180.674 200.89 180.055 201.138C179.188 199.405 177.58 197.92 175.599 197.425C172.876 196.682 170.03 197.549 167.802 199.158C164.336 196.311 159.138 195.816 154.93 197.673C154.187 198.044 153.445 198.415 152.702 198.91C150.598 196.559 146.638 196.187 143.791 197.796C141.068 199.281 139.459 202.252 138.716 205.346L52.4507 185.419C42.5493 183.192 34.5043 193.464 39.2075 202.499L130.795 379.239C121.513 383.2 112.478 387.532 103.443 391.864V393.101C108.022 412.533 112.23 424.538 119.285 443.227L118.295 444.836C133.271 444.589 148.123 443.227 162.851 441.123L174.98 464.515C179.436 473.179 191.813 473.055 196.268 464.391L213.348 430.231C223.745 427.261 233.894 423.796 243.919 419.835C251.84 453.252 265.578 485.184 284.638 513.651C307.411 509.69 329.195 500.531 347.883 486.917C347.388 485.184 346.769 483.575 346.274 481.842L404.816 526.894C409.767 530.731 416.698 529.988 420.906 525.408L465.834 475.901C470.413 470.827 469.794 463.03 464.596 458.698L386.87 394.215C390.088 393.101 393.306 391.74 396.4 390.378C401.598 395.329 408.653 398.299 415.708 398.671C420.782 398.918 426.352 397.928 430.808 400.403C433.778 402.136 435.758 405.23 438.11 407.706C443.061 413.028 450.239 416.246 457.418 416.988C464.72 417.855 472.022 416.493 478.953 413.77C486.503 410.8 493.681 406.097 498.013 399.29C503.583 390.873 502.221 379.734 501.974 369.957Z" fill="#111217"/>
<path d="M503.459 379.363C503.211 365.748 501.85 352.505 498.756 339.262C493.681 316.984 484.275 295.572 471.651 276.512C461.131 260.67 448.135 246.313 433.283 234.431C433.53 222.178 433.902 210.049 434.768 197.92C436.006 198.291 437.243 198.415 438.481 198.415C440.461 198.415 442.318 198.043 444.174 197.177C449.992 194.33 453.21 187.028 451.105 180.84C449.868 177.25 447.145 174.404 443.679 172.795C453.333 164.874 463.358 145.442 455.314 135.046C444.546 121.184 430.684 126.753 427.837 108.064C418.431 112.768 417.441 125.887 420.535 130.714C421.525 132.199 422.515 133.313 423.629 134.303C420.164 134.427 416.698 135.293 413.48 136.531C407.911 138.759 402.465 141.482 397.019 143.957C386.499 148.784 375.979 153.858 365.458 158.562C364.344 159.057 364.221 160.789 365.087 161.532C371.152 166.978 377.216 172.3 383.405 177.746C378.454 189.503 373.627 201.261 368.8 213.019C368.058 214.752 367.439 216.485 366.696 218.217C366.572 218.094 366.325 217.97 366.077 217.97C338.229 212.648 315.333 208.564 287.485 203.365C273.747 200.766 260.009 197.796 246.023 196.187C233.399 194.702 220.527 194.702 208.15 198.043C203.818 199.281 199.61 200.89 195.65 202.87C195.278 202.499 194.907 202.252 194.659 201.88C194.536 201.756 194.536 201.509 194.288 201.385C191.07 197.92 185.748 196.929 181.293 198.415C180.797 198.538 180.302 198.786 179.807 199.034C178.941 197.92 177.827 197.053 176.589 196.435C173.495 195.073 169.906 195.692 167.059 197.301C162.604 194.454 156.787 194.454 152.083 197.053C149.608 195.321 146.39 194.825 143.543 195.939C140.202 197.177 137.85 200.148 136.613 203.489L51.9556 183.934C46.6336 182.696 41.3116 184.677 37.9698 188.885C34.6281 193.216 34.1331 198.786 36.6084 203.613L127.33 378.62C124.607 379.734 121.884 380.972 119.285 382.209C113.344 384.932 107.527 387.655 101.586 390.626C101.215 390.749 100.967 391.121 100.844 391.492C90.4473 379.115 75.8427 370.204 60.0005 366.615C67.6741 394.586 75.3476 422.434 82.8975 450.405C89.9522 452.138 97.1306 453.994 104.185 453.128C109.136 452.509 113.963 450.529 117.429 447.187C131.909 446.816 146.39 445.702 160.747 443.722L172.257 465.876C174.609 470.456 179.312 473.302 184.51 473.302H184.634C189.832 473.302 194.536 470.332 196.887 465.752L213.596 432.335C221.393 430.107 229.067 427.508 236.617 424.785C238.225 424.167 239.958 423.548 241.567 422.929C243.424 430.603 245.652 438.276 248.127 445.826C255.429 467.609 265.207 488.526 277.336 507.957C278.821 510.432 280.43 512.784 282.039 515.259C282.534 516.002 283.277 516.249 284.143 516.126C284.886 516.002 285.628 515.878 286.495 515.754C280.554 529.74 277.336 544.963 277.212 560.063C277.212 561.301 277.336 562.786 278.45 563.529C279.688 564.395 281.42 563.405 282.658 562.538C305.184 546.077 327.709 529.74 350.235 513.279C351.473 512.289 352.834 511.423 353.7 510.061C356.671 505.358 352.587 499.417 348.75 495.456C347.512 494.095 346.151 492.857 344.789 491.496C345.903 490.753 346.893 490.011 348.007 489.268C348.502 488.897 348.874 488.278 348.874 487.659L402.836 529.121C405.312 530.978 408.282 531.968 411.252 531.968C415.089 531.968 418.802 530.483 421.525 527.512L466.453 478.005C469.052 475.159 470.289 471.569 470.042 467.733C469.794 463.896 468.061 460.554 465.091 458.079L389.841 395.576C391.697 394.834 393.554 394.091 395.41 393.225C398.504 395.948 402.217 398.052 406.178 399.413C408.901 400.403 411.747 400.898 414.718 401.146C417.688 401.393 420.782 401.022 423.753 401.27C426.847 401.517 429.57 402.507 431.798 404.735C433.902 406.839 435.634 409.314 437.862 411.418C442.194 415.379 447.764 417.978 453.457 419.216C465.71 421.691 479.572 417.978 489.721 410.8C494.424 407.458 498.632 403.002 500.984 397.68C503.211 391.368 503.583 385.303 503.459 379.363ZM397.39 147.794C402.589 145.319 407.787 142.967 412.985 140.615C417.812 138.511 423.258 137.15 428.58 138.264C428.951 138.388 429.199 138.264 429.446 138.264C433.53 140.739 436.872 142.967 435.882 151.012C435.016 157.076 430.436 163.512 435.263 171.557L435.882 171.805C434.892 172.052 434.149 172.919 434.397 173.909C434.644 174.899 435.511 175.642 436.501 175.394C441.08 174.528 446.155 177.622 447.64 181.954C449.125 186.409 446.774 191.855 442.565 193.835C438.357 195.816 432.664 194.33 430.065 190.37C429.446 189.503 428.332 189.256 427.466 189.875C426.6 190.494 426.352 191.607 426.971 192.474C428.085 194.083 429.57 195.444 431.179 196.435C430.189 209.925 429.694 223.54 429.57 237.154C429.322 236.659 428.827 236.411 428.085 236.411C416.822 236.783 405.435 236.288 394.172 235.05C385.509 234.06 373.132 232.822 369.666 223.045C369.543 222.673 369.295 222.302 368.924 222.178C374.37 208.811 379.939 195.444 385.509 182.201C386.128 180.716 386.746 179.107 387.365 177.622C387.613 177.003 387.365 176.26 386.87 175.765C381.177 170.691 375.484 165.74 369.666 160.666C379.073 156.334 388.232 152.002 397.39 147.794ZM191.565 203.489C191.689 203.613 191.689 203.737 191.813 203.861C194.412 206.955 197.877 208.935 201.714 210.049C205.922 211.163 210.502 211.41 214.71 212.648C216.566 213.267 219.165 214.628 219.042 216.98C219.042 218.96 216.814 220.074 215.205 220.693C210.873 222.302 206.046 222.426 201.714 221.064C199.486 220.322 197.506 219.084 195.402 218.094C193.422 217.227 191.318 216.856 189.461 218.094C187.728 219.332 186.986 221.435 185.872 223.168C184.634 225.148 183.025 227.005 181.293 228.614C178.817 230.966 173.124 234.184 171.391 229.233C170.772 227.5 170.896 225.644 171.02 223.911C171.267 221.436 171.639 219.084 172.134 216.608C173.124 211.658 175.104 206.46 179.312 203.365C183.025 200.642 188.347 200.148 191.565 203.489ZM173.124 199.034C174.609 199.034 175.971 199.652 176.837 200.643C174.362 202.623 172.381 205.346 171.02 208.316C168.792 213.391 167.678 219.208 167.43 224.653C167.43 225.52 167.431 226.386 167.554 227.253C166.688 228.49 165.698 229.604 164.213 230.347C161.861 231.584 159.386 230.718 158.024 228.614C156.415 226.139 156.663 223.044 157.405 220.321C158.272 217.227 159.509 214.133 160.871 211.163C162.109 208.44 163.47 205.717 165.327 203.365C167.183 201.138 169.906 199.034 173.124 199.034ZM164.089 199.405C162.109 201.385 160.623 203.861 159.262 206.336C157.158 210.297 155.301 214.381 154.064 218.713C152.95 222.426 152.578 226.386 154.311 229.852C152.331 230.223 150.351 228.862 149.237 227.253C147.628 224.901 146.885 221.807 146.514 218.96C145.648 213.143 146.761 206.707 150.97 202.375C154.311 198.786 159.757 197.301 164.089 199.405ZM143.296 199.9C144.781 198.662 147.133 198.291 148.989 199.034C143.915 203.737 141.934 210.915 142.553 217.846C142.553 218.465 142.677 219.208 142.801 219.826C142.306 220.198 141.935 220.321 141.563 220.074C140.573 219.208 140.449 216.98 140.202 215.742C139.83 213.514 139.459 211.41 139.459 209.182C139.583 205.841 140.573 202.004 143.296 199.9ZM151.588 440.751C141.192 441.989 130.795 442.608 120.399 442.979C120.399 442.608 120.151 442.113 120.028 441.742C119.038 439.142 118.047 436.543 117.057 433.944C115.324 429.365 113.716 424.661 112.107 419.958C110.621 415.379 109.136 410.676 107.898 406.096C107.156 403.497 106.537 401.022 105.918 398.423C105.547 396.69 104.928 394.957 104.68 393.225C112.725 389.264 120.894 385.427 129.187 381.838L159.262 439.885C156.787 440.009 154.187 440.38 151.588 440.751ZM216.195 427.261L226.096 407.582C227.458 404.859 229.933 403.002 232.78 402.26C234.389 401.888 236.121 401.888 237.73 402.383C238.721 407.829 239.711 413.275 240.948 418.721C232.903 421.815 224.611 424.662 216.195 427.261ZM345.037 486.174C327.09 498.922 306.545 507.586 284.886 511.546C272.757 493.229 262.731 473.426 255.182 452.881C249.365 437.162 245.033 420.948 241.939 404.487L343.923 482.956C344.418 484.07 344.665 485.184 345.037 486.174ZM466.329 467.237C466.576 469.96 465.586 472.683 463.73 474.663L418.802 524.17C415.337 528.007 409.396 528.502 405.188 525.408L243.424 401.022C240.948 399.165 238.102 398.175 235.008 398.175C234.017 398.175 232.904 398.299 231.913 398.547C227.953 399.413 224.487 402.136 222.631 405.849L193.793 463.648C192.06 467.114 188.719 469.218 184.882 469.218C184.882 469.218 184.882 469.218 184.758 469.218C180.921 469.218 177.579 467.238 175.847 463.772L40.074 201.756C38.2175 198.291 38.5887 194.083 41.064 190.989C43.5394 187.894 47.3762 186.409 51.213 187.399L135.87 206.955C135.622 209.554 135.746 212.029 136.117 214.628C136.489 216.98 136.736 219.455 137.85 221.559C138.964 223.416 140.944 224.653 143.172 224.034C143.296 224.034 143.42 223.911 143.543 223.911C145.029 229.233 148.247 234.431 154.311 233.812C155.178 233.688 155.92 233.441 156.663 233.193C158.272 234.555 160.252 235.297 162.356 235.05C164.708 234.802 166.935 233.688 168.544 231.956C169.535 233.812 171.02 235.174 173.371 235.545C178.693 236.535 183.52 232.079 186.614 228.366C187.481 227.376 188.223 226.262 188.966 225.149C189.585 224.035 190.08 222.921 190.823 221.93C192.432 219.826 195.65 222.797 197.382 223.54C202.209 225.767 207.779 226.386 212.977 225.272C213.348 225.148 213.843 225.025 214.215 224.901L348.007 255.719C351.968 256.585 354.938 259.68 355.681 263.764C356.423 267.848 354.691 271.685 351.349 273.913L303.699 305.473C299.986 307.949 297.758 311.786 297.51 316.241C297.263 320.697 299.119 324.781 302.461 327.628L462.492 460.43C464.844 462.039 466.205 464.515 466.329 467.237ZM306.174 325.4C309.887 325.4 313.6 325.276 317.189 325.276C326.1 325.276 335.135 325.4 344.047 325.772C344.665 327.628 345.903 329.237 347.388 330.474C345.037 332.702 343.923 336.168 344.665 339.386C345.532 342.851 348.502 345.327 351.844 346.069C351.72 346.936 351.844 347.926 352.215 348.792C353.082 351.02 354.938 352.258 357.042 353.124C359.641 354.114 362.364 354.857 364.963 355.476C367.686 356.218 370.533 356.837 373.256 357.332C376.597 357.827 380.187 358.075 383.776 357.703C382.043 368.595 384.89 380.353 391.821 388.893C392.068 389.14 392.192 389.388 392.44 389.635C390.459 390.502 388.479 391.244 386.375 391.987L306.174 325.4ZM354.567 315.746C355.805 315.87 356.671 314.509 356.3 313.395C355.681 310.919 356.918 308.073 359.27 306.959C360.631 306.216 362.24 306.34 363.602 306.835C363.726 307.206 363.973 307.578 364.097 307.949C364.592 308.815 365.458 308.939 366.201 308.692C366.572 309.063 367.067 309.186 367.439 309.186C368.8 309.929 370.161 310.672 371.647 311.414C372.142 311.662 372.513 311.786 373.132 311.662C373.503 311.538 373.998 311.167 374.246 310.796C374.617 309.929 374.493 308.691 373.627 308.196C371.523 307.206 369.666 306.216 367.686 304.979C367.439 304.731 367.191 304.607 366.82 304.483C366.82 302.255 369.171 300.151 371.399 299.904C375.607 299.285 380.063 302.008 383.405 304.236C390.336 308.691 396.524 315.004 400.113 322.553C403.455 329.484 404.074 338.024 400.237 344.832C396.277 351.763 388.232 354.609 380.682 354.609C375.36 354.609 370.162 353.372 365.087 352.01C362.859 351.391 360.384 350.896 358.156 349.906C356.918 349.411 354.319 347.554 355.805 345.945C356.795 344.831 356.176 342.604 354.443 342.728C351.72 342.975 348.874 341.366 348.131 338.519C347.512 335.92 349.121 333.321 351.473 332.207C353.082 331.465 352.339 329.361 350.978 328.866C348.131 327.628 346.398 324.162 347.017 321.192C348.007 317.603 351.349 315.499 354.567 315.746ZM499.746 383.447C499.498 389.14 498.385 394.834 495.043 399.537C488.359 408.943 475.859 414.389 464.596 415.379C458.655 415.874 452.591 415.131 447.145 412.532C444.546 411.295 442.194 409.809 440.09 407.829C437.986 405.849 436.377 403.497 434.397 401.517C432.293 399.413 429.941 397.928 426.971 397.309C424.124 396.69 421.154 396.814 418.307 396.814C412.49 396.938 407.168 395.824 402.094 392.977C392.316 387.284 387.118 376.145 386.87 365.253C386.746 362.654 386.994 359.931 387.489 357.332C392.44 356.342 397.019 354.238 400.608 350.277C405.559 344.831 407.292 337.529 406.425 330.474C417.069 326.39 429.322 326.638 439.966 330.722C440.461 332.579 440.957 334.311 441.328 336.168C442.318 339.881 443.432 343.965 446.279 346.688C448.754 348.916 452.343 349.658 455.437 348.421C458.655 347.059 460.264 343.718 458.903 340.5C457.418 336.787 453.457 334.188 450.239 332.083C447.887 330.598 445.412 329.237 442.937 328.123C440.957 320.326 438.976 312.528 436.872 304.731C436.253 302.379 432.664 303.369 433.283 305.721C435.016 312.652 436.872 319.583 438.605 326.514C435.139 325.4 431.426 324.534 427.837 324.162C420.287 323.296 412.614 324.286 405.559 326.885C405.311 325.648 404.94 324.534 404.445 323.296C400.732 313.766 393.182 305.845 384.519 300.399C379.939 297.553 373.751 294.335 368.305 296.686C365.706 297.8 363.726 300.275 363.231 302.875C361.25 302.503 359.146 302.751 357.29 303.741C354.196 305.35 352.463 308.691 352.463 312.033C348.131 312.652 344.294 315.87 343.428 320.326C343.304 320.944 343.304 321.44 343.304 322.058C336.992 321.811 330.803 321.687 324.491 321.687C317.189 321.687 310.011 321.687 302.708 321.935C301.718 320.326 301.347 318.345 301.347 316.365C301.471 313.147 303.203 310.3 305.803 308.568L353.453 277.007C358.156 273.913 360.384 268.591 359.394 263.021C358.404 257.575 354.443 253.367 348.997 252.006L219.784 222.178C221.764 220.693 223.126 218.589 222.631 215.742C221.393 209.182 213.596 208.564 208.398 207.574C205.056 206.955 201.962 206.336 199.115 204.851C212.482 198.662 228.572 197.672 242.929 199.157C256.667 200.519 270.157 203.489 283.648 206.088C297.139 208.687 310.753 211.287 324.244 213.762C339.467 216.609 349.74 218.341 364.963 221.188C365.087 221.188 365.087 221.188 365.211 221.188C364.963 221.683 364.84 222.178 364.592 222.673C363.973 224.035 365.211 224.901 366.449 224.901C370.657 234.555 381.548 237.03 391.078 238.144C403.331 239.753 415.708 240.248 427.961 239.877C429.199 239.877 429.817 238.887 429.694 237.897C430.312 238.639 431.55 238.887 432.293 238.268C443.679 247.674 453.952 258.442 462.863 270.324C475.859 287.899 485.884 307.701 492.072 328.618C495.662 340.623 498.261 353.124 499.127 365.625C499.622 371.689 499.993 377.63 499.746 383.447ZM444.422 332.702C448.383 334.806 459.15 341.118 455.19 344.46C453.209 346.069 450.239 345.327 448.754 343.594C446.402 341.119 445.783 337.529 444.917 334.311C444.67 333.693 444.546 333.197 444.422 332.702ZM430.312 180.716C434.768 178.736 439.719 178.859 444.051 181.087C444.917 181.582 445.165 182.82 444.669 183.686C444.174 184.553 442.937 184.8 442.07 184.305C440.585 183.563 438.729 183.068 437.12 183.068C436.625 183.068 436.13 183.068 435.635 183.068C435.511 183.068 435.263 183.068 435.139 183.068L434.644 183.191C434.149 183.315 433.778 183.439 433.283 183.563C433.035 183.686 432.788 183.686 432.54 183.81C432.417 183.81 432.293 183.934 432.169 183.934C432.293 183.81 432.293 183.934 432.045 183.934C431.055 184.305 430.065 184.181 429.446 183.315C429.199 182.449 429.446 181.087 430.312 180.716ZM427.713 151.136C427.218 150.269 427.59 149.155 428.332 148.536C428.704 148.289 429.322 148.165 429.817 148.289C430.312 148.413 430.684 148.784 430.931 149.155C431.921 150.888 432.54 152.744 432.664 154.725C432.664 155.22 432.417 155.715 432.169 156.086C431.798 156.458 431.303 156.581 430.808 156.581C430.312 156.581 429.817 156.334 429.446 156.086C429.075 155.715 428.951 155.22 428.951 154.725C428.951 154.601 428.951 154.477 428.951 154.354C428.827 153.611 428.58 152.868 428.332 152.126C428.085 151.878 427.961 151.507 427.713 151.136ZM418.678 144.081C418.431 143.71 418.431 143.091 418.431 142.596C418.555 142.101 418.926 141.729 419.297 141.482C419.668 141.234 420.287 141.234 420.782 141.234C421.773 141.482 422.763 141.729 423.629 142.1C424.248 142.348 424.867 142.596 425.362 142.843C425.733 142.967 426.104 143.338 426.352 143.71C426.6 144.081 426.599 144.576 426.599 144.947C426.599 145.442 426.352 145.69 426.104 146.061C425.857 146.432 425.238 146.556 424.743 146.556C424.248 146.556 423.753 146.309 423.382 146.061C423.258 145.937 423.258 145.937 423.134 145.814C422.02 145.318 420.782 144.947 419.669 144.7C419.297 144.823 418.926 144.452 418.678 144.081ZM406.549 158.067C406.549 158.19 406.549 158.438 406.549 158.067V158.067ZM405.93 157.2C405.683 156.953 405.93 157.076 405.93 157.2V157.2ZM405.064 156.334C404.816 156.086 404.94 156.21 405.064 156.334V156.334ZM401.103 155.22C401.475 155.22 401.846 155.096 402.217 155.22C402.217 155.22 402.341 155.22 402.465 155.22C402.465 155.22 402.465 155.22 402.589 155.22C402.712 155.22 402.712 155.22 402.836 155.22C403.207 155.344 403.579 155.468 403.826 155.591C403.826 155.591 403.95 155.591 403.95 155.715C404.074 155.839 404.321 155.839 404.445 155.962C404.569 156.086 404.693 156.086 404.816 156.21C404.94 156.21 404.94 156.334 405.064 156.334C405.311 156.581 405.559 156.829 405.807 157.076C405.807 157.2 405.93 157.2 405.93 157.324C406.054 157.448 406.054 157.572 406.178 157.695C406.302 157.819 406.302 157.943 406.425 158.19C406.425 158.19 406.425 158.19 406.425 158.067C406.425 158.19 406.549 158.314 406.549 158.314C406.921 159.181 407.787 159.923 408.777 159.552C409.643 159.304 410.386 158.19 410.015 157.324C409.272 155.467 408.034 153.859 406.302 152.745C404.693 151.754 402.712 151.259 400.98 151.507C400.485 151.631 399.99 151.631 399.618 152.002C399.247 152.373 398.999 152.868 399.123 153.363C399.123 153.859 399.247 154.353 399.618 154.725C400.113 154.972 400.608 155.22 401.103 155.22ZM418.926 164.503C418.926 164.626 418.926 164.626 418.926 164.503C418.802 164.379 418.802 164.379 418.926 164.503C418.926 164.503 418.802 164.503 418.926 164.503ZM414.223 161.656C414.223 160.666 415.089 159.799 416.079 159.799C420.411 159.676 424.248 163.389 424.372 167.597C424.372 168.587 423.505 169.453 422.515 169.453C421.525 169.453 420.659 168.587 420.659 167.597C420.659 167.473 420.659 167.349 420.659 167.349C420.659 167.102 420.535 166.854 420.535 166.606C420.535 166.483 420.535 166.483 420.411 166.359C420.411 166.235 420.287 166.235 420.287 166.112C420.164 165.864 420.04 165.616 419.792 165.369L419.669 165.245C419.545 165.121 419.421 164.998 419.297 164.874C419.173 164.75 419.05 164.626 418.926 164.503L418.802 164.379C418.802 164.379 418.802 164.379 418.926 164.379C418.678 164.255 418.431 164.007 418.183 163.884C418.06 163.76 417.441 163.636 418.059 163.884C417.936 163.884 417.812 163.76 417.688 163.76C417.441 163.636 417.193 163.636 416.946 163.636C416.698 163.636 416.451 163.636 416.203 163.636C414.965 163.512 414.223 162.646 414.223 161.656ZM410.386 187.647C410.51 187.523 410.634 187.4 410.757 187.152C411.252 186.409 411.871 185.667 412.242 184.924C412.738 184.058 413.851 183.81 414.842 184.305C415.708 184.8 415.955 186.038 415.46 186.904C414.965 187.771 414.47 188.513 413.975 189.256C413.356 190.122 412.614 191.113 411.747 191.731C410.51 192.598 408.901 192.35 407.911 191.236C407.044 190.246 406.797 189.009 406.797 187.771C406.797 186.781 407.663 185.914 408.653 185.914C409.52 185.667 410.386 186.657 410.386 187.647ZM413.233 245.446C410.881 249.531 406.797 252.13 402.217 252.625C398.133 252.996 393.925 251.387 391.078 248.417C389.841 247.179 388.85 245.075 387.242 244.332C385.509 243.59 383.776 245.446 382.415 246.313C375.112 250.892 365.087 246.313 363.849 237.773C363.478 235.421 367.067 234.431 367.439 236.783C368.181 241.362 371.894 244.827 376.721 244.456C381.053 244.085 384.271 238.887 388.85 240.991C390.707 241.857 391.945 243.59 393.182 245.075C394.667 246.808 396.524 248.045 398.752 248.54C403.331 249.654 407.911 247.427 410.138 243.466C411.252 241.486 414.47 243.342 413.233 245.446Z" fill="#DCDCDC"/>
<path d="M407.539 599.671C398.876 593.978 390.088 588.285 381.424 582.591C379.444 581.23 381.301 578.136 383.281 579.373C391.945 585.067 400.732 590.76 409.396 596.453C411.376 597.815 409.52 601.032 407.539 599.671ZM371.028 573.804C376.845 575.66 383.034 576.403 389.098 576.032C391.45 575.908 391.45 572.195 389.098 572.319C381.92 572.69 374.741 571.452 368.058 568.853C366.82 568.358 365.211 569.843 365.83 571.081C369.048 578.878 373.38 586.057 378.702 592.493C379.32 593.235 380.682 593.112 381.301 592.493C382.043 591.75 381.92 590.636 381.301 589.894C377.216 585.067 373.751 579.621 371.028 573.804ZM303.575 165.247C297.139 161.411 290.703 157.698 284.267 153.861C282.163 152.623 280.307 155.841 282.411 157.079C288.846 160.916 295.282 164.629 301.718 168.466C303.822 169.703 305.679 166.485 303.575 165.247ZM270.529 147.301C278.945 148.663 287.361 149.034 295.777 148.168C298.129 147.92 298.129 144.207 295.777 144.455C286.371 145.445 276.717 144.95 267.435 143.093C265.826 142.722 264.588 144.331 265.331 145.816C270.034 154.356 274.737 162.772 279.316 171.312C280.43 173.416 283.648 171.56 282.534 169.456C278.574 162.03 274.613 154.727 270.529 147.301ZM522.396 76.2588C536.629 86.4077 550.986 96.4329 565.219 106.582C567.199 107.943 569.056 104.725 567.076 103.364C552.842 93.2148 538.485 83.1896 524.252 73.0407C522.272 71.6793 520.415 74.8974 522.396 76.2588ZM506.801 61.7781C506.058 59.5503 502.469 60.4167 503.212 62.7683C506.801 74.4024 512.618 85.17 520.292 94.4525C521.777 96.3091 524.376 93.7101 522.891 91.8536C515.588 83.0661 510.143 72.7934 506.801 61.7781ZM527.099 64.0059C527.099 62.892 526.232 62.2732 525.242 62.1494C517.074 61.2831 509.153 58.4362 502.345 53.8568C500.365 52.4953 498.509 55.7134 500.489 57.0748C507.915 62.0255 516.455 64.8723 525.242 65.8624C526.232 65.9862 527.099 64.9961 527.099 64.0059ZM577.348 285.673C569.427 280.599 561.506 275.401 553.461 270.326C551.481 269.088 549.624 272.182 551.605 273.544C559.526 278.618 567.447 283.817 575.492 288.891C577.472 290.253 579.329 287.035 577.348 285.673ZM533.163 263.766C542.941 266.242 552.719 268.593 562.496 271.069C564.848 271.687 565.838 268.098 563.486 267.479C552.1 264.633 540.713 261.786 529.327 258.94C527.841 258.568 526.232 260.301 527.223 261.662C532.792 269.955 538.362 278.124 544.055 286.416C545.416 288.396 548.634 286.54 547.273 284.559C542.57 277.628 537.866 270.697 533.163 263.766ZM53.4409 104.106C41.4354 95.6903 29.43 87.3978 17.4246 78.9816C15.4443 77.6202 13.5878 80.8382 15.5681 82.1997C27.5735 90.6159 39.5789 98.9084 51.5844 107.325C53.4409 108.686 55.2974 105.468 53.4409 104.106ZM5.41921 73.536C15.6919 76.5064 26.0884 79.6006 36.3611 82.5711C38.7126 83.1899 39.5789 79.6004 37.3511 78.9816C25.717 75.5161 13.9592 72.1743 2.32503 68.7089C0.716051 68.2138 -0.521713 70.0705 0.220891 71.432C5.41912 81.7047 10.6173 91.8534 15.8156 102.126C16.9295 104.23 20.1475 102.374 19.0336 100.27C14.4542 91.3583 9.99861 82.4472 5.41921 73.536ZM265.95 17.3454C273.376 21.9248 280.678 26.3804 288.104 30.9598C290.084 32.1975 292.064 28.9797 289.96 27.742C282.534 23.1626 275.232 18.707 267.806 14.1276C265.702 12.8899 263.846 16.1077 265.95 17.3454ZM246.766 6.33021C254.192 9.54816 262.237 11.0335 270.281 10.786C272.633 10.6622 272.633 6.94916 270.281 7.07293C260.628 7.44423 251.221 5.09265 242.929 0.265724C241.32 -0.724415 239.463 1.25568 240.33 2.86466C245.404 11.4046 250.355 19.9445 255.429 28.4845C256.667 30.5885 259.885 28.732 258.647 26.6279C254.687 19.697 250.726 13.0136 246.766 6.33021Z" fill="#DCDCDC"/>
</svg>
