<svg width="579" height="600" viewBox="0 0 579 600" fill="none" xmlns="http://www.w3.org/2000/svg">
<path d="M135.746 258.568C112.107 213.022 88.4671 167.599 64.9513 122.053C105.547 130.098 146.019 138.143 186.615 146.188C193.546 147.549 201.343 148.787 207.16 144.826C211.368 141.979 213.472 137.029 215.7 132.573C224.364 115.246 237.236 100.146 252.954 88.8831C265.826 79.7244 282.906 73.0409 297.015 79.8481C302.213 82.3234 306.545 86.5316 311.62 89.2545C328.947 98.9084 350.483 91.6061 368.553 83.685C386.746 75.7639 407.292 67.2238 425.61 74.8974C432.045 77.6203 437.491 82.0761 443.308 85.9129C467.69 102.126 499.004 108.191 519.054 129.603C535.515 147.054 541.456 173.54 534.154 196.437C521.653 235.548 475.488 259.311 470.413 300.03C469.423 307.704 470.042 315.501 468.928 323.175C465.215 346.938 443.803 365.132 420.535 371.197C397.267 377.261 372.513 373.177 349.369 366.494C281.668 346.814 220.774 304.362 179.065 247.429" fill="#F4F6F9"/>
<path d="M501.974 369.959C501.726 359.934 499.994 349.661 497.766 339.883C488.483 299.287 465.339 261.91 432.912 235.795L432.045 236.909C432.169 223.418 432.664 210.67 433.778 195.447V195.199C436.996 196.684 440.833 196.932 443.927 195.323C449.001 192.847 451.724 186.535 449.992 181.213C448.383 176.263 442.937 172.797 437.739 173.292L443.803 139.38L429.694 136.41C424 135.172 417.936 136.657 412.738 139.009C396.895 146.187 381.177 153.737 367.191 160.049C367.191 160.049 380.063 171.436 386.375 177.005C386.375 177.005 373.751 207.205 368.429 220.2C336.002 214.012 303.699 207.947 271.272 201.759C255.182 198.664 238.845 195.57 222.631 197.179C214.091 197.922 205.427 200.15 197.754 203.986C196.021 202.625 194.288 201.016 192.927 199.283L193.793 202.377C190.946 199.159 185.748 198.541 181.788 200.273C181.169 200.521 180.674 200.892 180.055 201.14C179.189 199.407 177.58 197.922 175.599 197.427C172.877 196.684 170.03 197.551 167.802 199.16C164.336 196.313 159.138 195.818 154.93 197.675C154.188 198.046 153.445 198.417 152.702 198.912C150.598 196.561 146.638 196.189 143.791 197.798C141.068 199.283 139.459 202.254 138.717 205.348L52.4508 185.421C42.5494 183.194 34.5045 193.466 39.2076 202.501L130.795 379.241C121.513 383.202 112.478 387.534 103.443 391.865V393.103C108.022 412.535 112.23 424.54 119.285 443.229L118.295 444.838C133.271 444.59 148.123 443.229 162.851 441.125L174.981 464.517C179.436 473.181 191.813 473.057 196.268 464.393L213.348 430.233C223.745 427.263 233.894 423.798 243.919 419.837C251.84 453.254 265.578 485.186 284.638 513.652C307.412 509.692 329.195 500.533 347.884 486.919C347.389 485.186 346.77 483.577 346.275 481.844L404.817 526.896C409.767 530.733 416.698 529.99 420.906 525.41L465.834 475.903C470.413 470.829 469.795 463.032 464.596 458.7L386.87 394.217C390.088 393.103 393.306 391.742 396.4 390.38C401.599 395.331 408.653 398.301 415.708 398.673C420.783 398.92 426.352 397.93 430.808 400.405C433.778 402.138 435.758 405.232 438.11 407.708C443.061 413.03 450.239 416.248 457.418 416.99C464.72 417.857 472.022 416.495 478.953 413.772C486.503 410.802 493.682 406.099 498.013 399.292C503.583 390.875 502.222 379.736 501.974 369.959Z" fill="white"/>
<path d="M503.459 379.365C503.212 365.751 501.85 352.508 498.756 339.264C493.682 316.986 484.275 295.575 471.651 276.514C461.131 260.672 448.135 246.315 433.283 234.434C433.531 222.181 433.902 210.051 434.768 197.922C436.006 198.293 437.244 198.417 438.481 198.417C440.462 198.417 442.318 198.046 444.175 197.179C449.992 194.333 453.21 187.031 451.106 180.842C449.868 177.253 447.145 174.406 443.68 172.797C453.333 164.876 463.359 145.445 455.314 135.048C444.546 121.186 430.684 126.756 427.837 108.067C418.431 112.77 417.441 125.889 420.535 130.716C421.525 132.202 422.515 133.315 423.629 134.306C420.164 134.429 416.698 135.296 413.48 136.533C407.911 138.761 402.465 141.484 397.019 143.959C386.499 148.786 375.979 153.861 365.458 158.564C364.345 159.059 364.221 160.792 365.087 161.534C371.152 166.98 377.216 172.302 383.405 177.748C378.454 189.506 373.627 201.264 368.8 213.022C368.058 214.754 367.439 216.487 366.696 218.22C366.572 218.096 366.325 217.972 366.077 217.972C338.23 212.65 315.333 208.566 287.485 203.368C273.747 200.769 260.009 197.798 246.023 196.189C233.399 194.704 220.527 194.704 208.15 198.046C203.818 199.283 199.61 200.893 195.65 202.873C195.278 202.502 194.907 202.254 194.659 201.883C194.536 201.759 194.536 201.511 194.288 201.388C191.07 197.922 185.748 196.932 181.293 198.417C180.798 198.541 180.302 198.788 179.807 199.036C178.941 197.922 177.827 197.056 176.589 196.437C173.495 195.076 169.906 195.694 167.059 197.303C162.604 194.457 156.787 194.457 152.084 197.056C149.608 195.323 146.39 194.828 143.544 195.942C140.202 197.179 137.85 200.15 136.613 203.492L51.9557 183.936C46.6337 182.699 41.3117 184.679 37.97 188.887C34.6282 193.219 34.1332 198.788 36.6085 203.615L127.33 378.623C124.607 379.736 121.884 380.974 119.285 382.212C113.344 384.935 107.527 387.658 101.586 390.628C101.215 390.752 100.968 391.123 100.844 391.494C90.4474 379.118 75.8428 370.206 60.0006 366.617C67.6742 394.589 75.3478 422.436 82.8976 450.408C89.9523 452.14 97.1308 453.997 104.186 453.13C109.136 452.512 113.963 450.531 117.429 447.19C131.91 446.818 146.39 445.704 160.747 443.724L172.258 465.879C174.609 470.458 179.312 473.305 184.511 473.305H184.634C189.833 473.305 194.536 470.334 196.887 465.755L213.596 432.338C221.393 430.11 229.067 427.511 236.617 424.788C238.226 424.169 239.958 423.55 241.567 422.931C243.424 430.605 245.652 438.279 248.127 445.828C255.429 467.611 265.207 488.528 277.336 507.96C278.821 510.435 280.43 512.786 282.039 515.262C282.534 516.004 283.277 516.252 284.143 516.128C284.886 516.004 285.629 515.881 286.495 515.757C280.554 529.743 277.336 544.966 277.212 560.065C277.212 561.303 277.336 562.788 278.45 563.531C279.688 564.397 281.421 563.407 282.658 562.541C305.184 546.08 327.71 529.743 350.235 513.282C351.473 512.291 352.834 511.425 353.701 510.064C356.671 505.36 352.587 499.419 348.75 495.459C347.512 494.097 346.151 492.86 344.789 491.498C345.903 490.756 346.893 490.013 348.007 489.271C348.502 488.899 348.874 488.28 348.874 487.661L402.836 529.124C405.312 530.98 408.282 531.97 411.252 531.97C415.089 531.97 418.802 530.485 421.525 527.515L466.453 478.008C469.052 475.161 470.289 471.572 470.042 467.735C469.794 463.898 468.062 460.557 465.091 458.081L389.841 395.579C391.697 394.836 393.554 394.094 395.41 393.227C398.504 395.95 402.217 398.054 406.178 399.416C408.901 400.406 411.748 400.901 414.718 401.148C417.688 401.396 420.783 401.025 423.753 401.272C426.847 401.52 429.57 402.51 431.798 404.737C433.902 406.841 435.635 409.317 437.862 411.421C442.194 415.381 447.764 417.981 453.457 419.218C465.71 421.694 479.572 417.981 489.721 410.802C494.424 407.46 498.632 403.005 500.984 397.683C503.212 391.371 503.583 385.306 503.459 379.365ZM397.391 147.796C402.589 145.321 407.787 142.969 412.985 140.618C417.812 138.514 423.258 137.152 428.58 138.266C428.951 138.39 429.199 138.266 429.446 138.266C433.531 140.742 436.872 142.969 435.882 151.014C435.016 157.079 430.436 163.515 435.263 171.56L435.882 171.807C434.892 172.055 434.149 172.921 434.397 173.911C434.645 174.901 435.511 175.644 436.501 175.397C441.08 174.53 446.155 177.624 447.64 181.956C449.125 186.412 446.774 191.857 442.566 193.838C438.358 195.818 432.664 194.333 430.065 190.372C429.446 189.506 428.332 189.258 427.466 189.877C426.6 190.496 426.352 191.61 426.971 192.476C428.085 194.085 429.57 195.447 431.179 196.437C430.189 209.928 429.694 223.542 429.57 237.156C429.323 236.661 428.828 236.414 428.085 236.414C416.822 236.785 405.435 236.29 394.173 235.052C385.509 234.062 373.132 232.825 369.667 223.047C369.543 222.676 369.295 222.304 368.924 222.18C374.37 208.814 379.939 195.447 385.509 182.204C386.128 180.719 386.747 179.109 387.365 177.624C387.613 177.005 387.365 176.263 386.87 175.768C381.177 170.693 375.484 165.743 369.667 160.668C379.073 156.336 388.232 152.004 397.391 147.796ZM191.565 203.492C191.689 203.615 191.689 203.739 191.813 203.863C194.412 206.957 197.878 208.938 201.714 210.051C205.922 211.165 210.502 211.413 214.71 212.65C216.566 213.269 219.166 214.631 219.042 216.982C219.042 218.962 216.814 220.076 215.205 220.695C210.873 222.304 206.046 222.428 201.714 221.067C199.486 220.324 197.506 219.086 195.402 218.096C193.422 217.23 191.318 216.859 189.461 218.096C187.729 219.334 186.986 221.438 185.872 223.171C184.634 225.151 183.025 227.008 181.293 228.617C178.817 230.968 173.124 234.186 171.391 229.235C170.772 227.503 170.896 225.646 171.02 223.913C171.267 221.438 171.639 219.086 172.134 216.611C173.124 211.66 175.104 206.462 179.312 203.368C183.025 200.645 188.347 200.15 191.565 203.492ZM173.124 199.036C174.609 199.036 175.971 199.655 176.837 200.645C174.362 202.625 172.381 205.348 171.02 208.318C168.792 213.393 167.678 219.21 167.431 224.656C167.431 225.522 167.431 226.389 167.555 227.255C166.688 228.493 165.698 229.607 164.213 230.349C161.861 231.587 159.386 230.721 158.024 228.617C156.415 226.141 156.663 223.047 157.406 220.324C158.272 217.23 159.51 214.136 160.871 211.165C162.109 208.442 163.47 205.719 165.327 203.368C167.183 201.14 169.906 199.036 173.124 199.036ZM164.089 199.407C162.109 201.388 160.623 203.863 159.262 206.338C157.158 210.299 155.302 214.383 154.064 218.715C152.95 222.428 152.579 226.389 154.311 229.854C152.331 230.226 150.351 228.864 149.237 227.255C147.628 224.903 146.885 221.809 146.514 218.963C145.648 213.146 146.762 206.709 150.97 202.378C154.311 198.788 159.757 197.303 164.089 199.407ZM143.296 199.902C144.781 198.665 147.133 198.293 148.989 199.036C143.915 203.739 141.935 210.918 142.553 217.849C142.553 218.467 142.677 219.21 142.801 219.829C142.306 220.2 141.935 220.324 141.563 220.076C140.573 219.21 140.449 216.982 140.202 215.745C139.831 213.517 139.459 211.413 139.459 209.185C139.583 205.843 140.573 202.006 143.296 199.902ZM151.589 440.754C141.192 441.991 130.795 442.61 120.399 442.982C120.399 442.61 120.152 442.115 120.028 441.744C119.038 439.145 118.048 436.546 117.057 433.947C115.325 429.367 113.716 424.664 112.107 419.961C110.621 415.381 109.136 410.678 107.899 406.099C107.156 403.5 106.537 401.024 105.918 398.425C105.547 396.693 104.928 394.96 104.681 393.227C112.726 389.267 120.894 385.43 129.187 381.84L159.262 439.887C156.787 440.011 154.188 440.382 151.589 440.754ZM216.195 427.263L226.096 407.584C227.458 404.861 229.933 403.005 232.78 402.262C234.389 401.891 236.122 401.891 237.731 402.386C238.721 407.832 239.711 413.277 240.949 418.723C232.904 421.817 224.611 424.664 216.195 427.263ZM345.037 486.176C327.091 498.924 306.545 507.588 284.886 511.549C272.757 493.231 262.732 473.428 255.182 452.883C249.365 437.165 245.033 420.951 241.939 404.49L343.923 482.959C344.418 484.072 344.666 485.186 345.037 486.176ZM466.329 467.24C466.576 469.963 465.586 472.686 463.73 474.666L418.802 524.173C415.337 528.01 409.396 528.505 405.188 525.411L243.424 401.024C240.949 399.168 238.102 398.178 235.008 398.178C234.018 398.178 232.904 398.301 231.914 398.549C227.953 399.415 224.488 402.138 222.631 405.851L193.793 463.651C192.06 467.116 188.719 469.22 184.882 469.22C184.882 469.22 184.882 469.22 184.758 469.22C180.921 469.22 177.58 467.24 175.847 463.775L40.0741 201.759C38.2176 198.293 38.5888 194.085 41.0641 190.991C43.5395 187.897 47.3764 186.412 51.2132 187.402L135.87 206.957C135.622 209.556 135.746 212.032 136.118 214.631C136.489 216.982 136.736 219.458 137.85 221.562C138.964 223.418 140.944 224.656 143.172 224.037C143.296 224.037 143.42 223.913 143.544 223.913C145.029 229.235 148.247 234.434 154.311 233.815C155.178 233.691 155.92 233.443 156.663 233.196C158.272 234.557 160.252 235.3 162.356 235.052C164.708 234.805 166.936 233.691 168.545 231.958C169.535 233.815 171.02 235.176 173.372 235.547C178.694 236.537 183.52 232.082 186.615 228.369C187.481 227.379 188.224 226.265 188.966 225.151C189.585 224.037 190.08 222.923 190.823 221.933C192.432 219.829 195.65 222.799 197.382 223.542C202.209 225.77 207.779 226.388 212.977 225.275C213.348 225.151 213.843 225.027 214.215 224.904L348.007 255.721C351.968 256.588 354.938 259.682 355.681 263.766C356.424 267.851 354.691 271.687 351.349 273.915L303.699 305.476C299.986 307.951 297.758 311.788 297.51 316.244C297.263 320.699 299.119 324.784 302.461 327.63L462.492 460.433C464.844 462.042 466.205 464.517 466.329 467.24ZM306.174 325.403C309.887 325.403 313.6 325.279 317.189 325.279C326.1 325.279 335.136 325.403 344.047 325.774C344.666 327.63 345.903 329.239 347.388 330.477C345.037 332.705 343.923 336.17 344.666 339.388C345.532 342.854 348.502 345.329 351.844 346.072C351.72 346.938 351.844 347.928 352.215 348.795C353.082 351.022 354.938 352.26 357.042 353.126C359.642 354.117 362.364 354.859 364.964 355.478C367.686 356.221 370.533 356.84 373.256 357.335C376.598 357.83 380.187 358.077 383.776 357.706C382.043 368.597 384.89 380.355 391.821 388.895C392.069 389.143 392.192 389.39 392.44 389.638C390.46 390.504 388.479 391.247 386.375 391.99L306.174 325.403ZM354.567 315.749C355.805 315.872 356.671 314.511 356.3 313.397C355.681 310.922 356.919 308.075 359.27 306.961C360.632 306.218 362.241 306.342 363.602 306.837C363.726 307.209 363.973 307.58 364.097 307.951C364.592 308.818 365.459 308.942 366.201 308.694C366.573 309.065 367.068 309.189 367.439 309.189C368.8 309.932 370.162 310.674 371.647 311.417C372.142 311.664 372.513 311.788 373.132 311.664C373.503 311.541 373.999 311.169 374.246 310.798C374.617 309.932 374.494 308.694 373.627 308.199C371.523 307.209 369.667 306.219 367.686 304.981C367.439 304.733 367.191 304.609 366.82 304.486C366.82 302.258 369.172 300.154 371.399 299.906C375.607 299.288 380.063 302.01 383.405 304.238C390.336 308.694 396.524 315.006 400.113 322.556C403.455 329.487 404.074 338.027 400.237 344.834C396.277 351.765 388.232 354.612 380.682 354.612C375.36 354.612 370.162 353.374 365.087 352.013C362.859 351.394 360.384 350.899 358.156 349.909C356.919 349.414 354.32 347.557 355.805 345.948C356.795 344.834 356.176 342.606 354.443 342.73C351.72 342.978 348.874 341.368 348.131 338.522C347.512 335.923 349.121 333.324 351.473 332.21C353.082 331.467 352.339 329.363 350.978 328.868C348.131 327.63 346.398 324.165 347.017 321.194C348.007 317.605 351.349 315.501 354.567 315.749ZM499.746 383.449C499.499 389.143 498.385 394.836 495.043 399.539C488.36 408.945 475.859 414.391 464.596 415.381C458.655 415.877 452.591 415.134 447.145 412.535C444.546 411.297 442.194 409.812 440.09 407.832C437.986 405.851 436.377 403.5 434.397 401.52C432.293 399.416 429.941 397.93 426.971 397.311C424.124 396.692 421.154 396.816 418.307 396.816C412.49 396.94 407.168 395.826 402.094 392.979C392.316 387.286 387.118 376.147 386.87 365.256C386.747 362.657 386.994 359.934 387.489 357.335C392.44 356.345 397.019 354.24 400.608 350.28C405.559 344.834 407.292 337.532 406.426 330.477C417.07 326.393 429.323 326.64 439.967 330.725C440.462 332.581 440.957 334.314 441.328 336.17C442.318 339.883 443.432 343.968 446.279 346.691C448.754 348.918 452.343 349.661 455.437 348.423C458.655 347.062 460.264 343.72 458.903 340.502C457.418 336.789 453.457 334.19 450.239 332.086C447.888 330.601 445.412 329.239 442.937 328.125C440.957 320.328 438.976 312.531 436.872 304.733C436.254 302.382 432.664 303.372 433.283 305.723C435.016 312.654 436.872 319.585 438.605 326.516C435.14 325.402 431.427 324.536 427.837 324.165C420.287 323.299 412.614 324.289 405.559 326.888C405.312 325.65 404.94 324.536 404.445 323.299C400.732 313.769 393.182 305.847 384.519 300.402C379.939 297.555 373.751 294.337 368.305 296.689C365.706 297.803 363.726 300.278 363.231 302.877C361.25 302.506 359.146 302.753 357.29 303.743C354.196 305.352 352.463 308.694 352.463 312.036C348.131 312.654 344.294 315.872 343.428 320.328C343.304 320.947 343.304 321.442 343.304 322.061C336.992 321.813 330.804 321.69 324.492 321.69C317.189 321.69 310.011 321.69 302.708 321.937C301.718 320.328 301.347 318.348 301.347 316.368C301.471 313.15 303.204 310.303 305.803 308.57L353.453 277.009C358.156 273.915 360.384 268.593 359.394 263.024C358.404 257.578 354.443 253.37 348.998 252.008L219.784 222.18C221.765 220.695 223.126 218.591 222.631 215.745C221.393 209.185 213.596 208.566 208.398 207.576C205.056 206.957 201.962 206.338 199.115 204.853C212.482 198.665 228.572 197.675 242.929 199.16C256.667 200.521 270.158 203.492 283.648 206.091C297.139 208.69 310.753 211.289 324.244 213.764C339.467 216.611 349.74 218.344 364.964 221.19C365.087 221.19 365.087 221.19 365.211 221.19C364.963 221.686 364.84 222.181 364.592 222.676C363.973 224.037 365.211 224.904 366.449 224.904C370.657 234.557 381.548 237.033 391.078 238.147C403.331 239.756 415.708 240.25 427.961 239.879C429.199 239.879 429.818 238.889 429.694 237.899C430.313 238.642 431.55 238.889 432.293 238.27C443.679 247.676 453.952 258.444 462.864 270.326C475.859 287.901 485.884 307.704 492.073 328.62C495.662 340.626 498.261 353.126 499.127 365.627C499.622 371.692 499.994 377.632 499.746 383.449ZM444.422 332.705C448.383 334.809 459.15 341.121 455.19 344.463C453.21 346.072 450.239 345.329 448.754 343.596C446.402 341.121 445.784 337.532 444.917 334.314C444.67 333.695 444.546 333.2 444.422 332.705ZM430.313 180.718C434.768 178.738 439.719 178.862 444.051 181.09C444.917 181.585 445.165 182.823 444.67 183.689C444.175 184.555 442.937 184.803 442.071 184.308C440.585 183.565 438.729 183.07 437.12 183.07C436.625 183.07 436.13 183.07 435.635 183.07C435.511 183.07 435.263 183.07 435.14 183.07L434.644 183.194C434.149 183.317 433.778 183.441 433.283 183.565C433.036 183.689 432.788 183.689 432.541 183.812C432.417 183.812 432.293 183.936 432.169 183.936C432.293 183.813 432.293 183.936 432.045 183.936C431.055 184.308 430.065 184.184 429.446 183.318C429.199 182.451 429.446 181.09 430.313 180.718ZM427.714 151.138C427.218 150.272 427.59 149.158 428.332 148.539C428.704 148.291 429.322 148.168 429.818 148.291C430.313 148.415 430.684 148.786 430.931 149.158C431.922 150.89 432.54 152.747 432.664 154.727C432.664 155.222 432.417 155.717 432.169 156.089C431.798 156.46 431.303 156.584 430.808 156.584C430.313 156.584 429.818 156.336 429.446 156.089C429.075 155.717 428.951 155.222 428.951 154.727C428.951 154.603 428.951 154.48 428.951 154.356C428.827 153.613 428.58 152.871 428.332 152.128C428.085 151.881 427.961 151.509 427.714 151.138ZM418.678 144.083C418.431 143.712 418.431 143.093 418.431 142.598C418.555 142.103 418.926 141.732 419.297 141.484C419.669 141.237 420.288 141.237 420.783 141.237C421.773 141.484 422.763 141.732 423.629 142.103C424.248 142.35 424.867 142.598 425.362 142.846C425.733 142.969 426.105 143.341 426.352 143.712C426.6 144.083 426.6 144.578 426.6 144.95C426.6 145.445 426.352 145.692 426.105 146.063C425.857 146.435 425.238 146.559 424.743 146.559C424.248 146.559 423.753 146.311 423.382 146.063C423.258 145.94 423.258 145.94 423.134 145.816C422.02 145.321 420.783 144.95 419.669 144.702C419.297 144.826 418.926 144.455 418.678 144.083ZM406.549 158.069C406.549 158.193 406.549 158.44 406.549 158.069V158.069ZM405.931 157.202C405.683 156.955 405.931 157.079 405.931 157.202V157.202ZM405.064 156.336C404.817 156.089 404.94 156.212 405.064 156.336V156.336ZM401.104 155.222C401.475 155.222 401.846 155.099 402.217 155.222C402.217 155.222 402.341 155.222 402.465 155.222C402.465 155.222 402.465 155.222 402.589 155.222C402.712 155.222 402.713 155.222 402.836 155.222C403.208 155.346 403.579 155.47 403.826 155.594C403.826 155.594 403.95 155.594 403.95 155.717C404.074 155.841 404.321 155.841 404.445 155.965C404.569 156.089 404.693 156.089 404.817 156.213C404.94 156.213 404.94 156.336 405.064 156.336C405.312 156.584 405.559 156.831 405.807 157.079C405.807 157.203 405.931 157.203 405.931 157.326C406.054 157.45 406.054 157.574 406.178 157.698C406.302 157.822 406.302 157.945 406.426 158.193C406.426 158.193 406.426 158.193 406.426 158.069C406.426 158.193 406.549 158.317 406.549 158.317C406.921 159.183 407.787 159.926 408.777 159.554C409.643 159.307 410.386 158.193 410.015 157.326C409.272 155.47 408.034 153.861 406.302 152.747C404.693 151.757 402.713 151.262 400.98 151.509C400.485 151.633 399.99 151.633 399.618 152.004C399.247 152.376 399 152.871 399.123 153.366C399.123 153.861 399.247 154.356 399.618 154.727C400.113 154.975 400.608 155.222 401.104 155.222ZM418.926 164.505C418.926 164.629 418.926 164.629 418.926 164.505C418.802 164.381 418.802 164.381 418.926 164.505C418.926 164.505 418.802 164.505 418.926 164.505ZM414.223 161.658C414.223 160.668 415.089 159.802 416.079 159.802C420.411 159.678 424.248 163.391 424.372 167.599C424.372 168.589 423.506 169.456 422.515 169.456C421.525 169.456 420.659 168.589 420.659 167.599C420.659 167.475 420.659 167.352 420.659 167.352C420.659 167.104 420.535 166.856 420.535 166.609C420.535 166.485 420.535 166.485 420.411 166.361C420.411 166.238 420.288 166.238 420.288 166.114C420.164 165.866 420.04 165.619 419.792 165.371L419.669 165.247C419.545 165.124 419.421 165 419.297 164.876C419.174 164.753 419.05 164.629 418.926 164.505L418.802 164.381C418.802 164.381 418.802 164.381 418.926 164.381C418.679 164.257 418.431 164.01 418.184 163.886C418.06 163.762 417.441 163.639 418.06 163.886C417.936 163.886 417.812 163.762 417.688 163.762C417.441 163.638 417.193 163.639 416.946 163.639C416.698 163.639 416.451 163.639 416.203 163.639C414.965 163.515 414.223 162.648 414.223 161.658ZM410.386 187.649C410.51 187.526 410.634 187.402 410.757 187.154C411.253 186.412 411.871 185.669 412.243 184.927C412.738 184.06 413.852 183.813 414.842 184.308C415.708 184.803 415.956 186.04 415.461 186.907C414.965 187.773 414.47 188.516 413.975 189.258C413.357 190.125 412.614 191.115 411.748 191.734C410.51 192.6 408.901 192.352 407.911 191.239C407.044 190.248 406.797 189.011 406.797 187.773C406.797 186.783 407.663 185.917 408.653 185.917C409.52 185.669 410.386 186.659 410.386 187.649ZM413.233 245.449C410.881 249.533 406.797 252.132 402.217 252.627C398.133 252.999 393.925 251.39 391.078 248.419C389.841 247.182 388.851 245.078 387.242 244.335C385.509 243.592 383.776 245.449 382.415 246.315C375.112 250.894 365.087 246.315 363.85 237.775C363.478 235.424 367.068 234.433 367.439 236.785C368.181 241.364 371.895 244.83 376.721 244.459C381.053 244.087 384.271 238.889 388.851 240.993C390.707 241.86 391.945 243.592 393.182 245.077C394.668 246.81 396.524 248.048 398.752 248.543C403.331 249.657 407.911 247.429 410.139 243.469C411.253 241.488 414.47 243.345 413.233 245.449Z" fill="black"/>
<path d="M407.539 599.671C398.876 593.978 390.088 588.285 381.425 582.591C379.444 581.23 381.301 578.136 383.281 579.373C391.945 585.067 400.732 590.76 409.396 596.453C411.376 597.815 409.52 601.032 407.539 599.671ZM371.028 573.804C376.845 575.66 383.034 576.403 389.098 576.032C391.45 575.908 391.45 572.195 389.098 572.319C381.92 572.69 374.741 571.452 368.058 568.853C366.82 568.358 365.211 569.843 365.83 571.081C369.048 578.878 373.38 586.057 378.702 592.493C379.321 593.235 380.682 593.112 381.301 592.493C382.043 591.75 381.92 590.636 381.301 589.894C377.216 585.067 373.751 579.621 371.028 573.804ZM303.575 165.247C297.139 161.411 290.703 157.698 284.267 153.861C282.163 152.623 280.307 155.841 282.411 157.079C288.846 160.916 295.282 164.629 301.718 168.466C303.822 169.703 305.679 166.485 303.575 165.247ZM270.529 147.301C278.945 148.663 287.361 149.034 295.778 148.168C298.129 147.92 298.129 144.207 295.778 144.455C286.371 145.445 276.717 144.95 267.435 143.093C265.826 142.722 264.588 144.331 265.331 145.816C270.034 154.356 274.737 162.772 279.316 171.312C280.43 173.416 283.648 171.56 282.534 169.456C278.574 162.03 274.613 154.727 270.529 147.301ZM522.396 76.2588C536.629 86.4077 550.986 96.4329 565.219 106.582C567.199 107.943 569.056 104.725 567.076 103.364C552.842 93.2148 538.485 83.1896 524.252 73.0407C522.272 71.6793 520.415 74.8974 522.396 76.2588ZM506.801 61.7781C506.058 59.5503 502.469 60.4167 503.212 62.7683C506.801 74.4024 512.618 85.17 520.292 94.4525C521.777 96.3091 524.376 93.7101 522.891 91.8536C515.588 83.0661 510.143 72.7934 506.801 61.7781ZM527.099 64.0059C527.099 62.892 526.232 62.2732 525.242 62.1494C517.074 61.2831 509.153 58.4362 502.345 53.8568C500.365 52.4953 498.509 55.7134 500.489 57.0748C507.915 62.0255 516.455 64.8723 525.242 65.8625C526.232 65.9862 527.099 64.9961 527.099 64.0059ZM577.348 285.673C569.427 280.599 561.506 275.401 553.461 270.326C551.481 269.088 549.624 272.182 551.605 273.544C559.526 278.618 567.447 283.817 575.492 288.891C577.472 290.253 579.329 287.035 577.348 285.673ZM533.163 263.766C542.941 266.242 552.719 268.593 562.496 271.069C564.848 271.687 565.838 268.098 563.486 267.479C552.1 264.633 540.713 261.786 529.327 258.94C527.841 258.568 526.232 260.301 527.223 261.662C532.792 269.955 538.362 278.123 544.055 286.416C545.416 288.396 548.634 286.54 547.273 284.559C542.57 277.628 537.866 270.697 533.163 263.766ZM53.4409 104.106C41.4354 95.6903 29.43 87.3978 17.4246 78.9816C15.4443 77.6202 13.5878 80.8383 15.5681 82.1997C27.5735 90.6159 39.5789 98.9084 51.5844 107.325C53.4409 108.686 55.2974 105.468 53.4409 104.106ZM5.41921 73.536C15.6919 76.5064 26.0884 79.6006 36.3611 82.5711C38.7126 83.1899 39.5789 79.6005 37.3511 78.9816C25.717 75.5161 13.9592 72.1743 2.32503 68.7089C0.716051 68.2138 -0.521713 70.0705 0.220891 71.432C5.41912 81.7047 10.6173 91.8534 15.8156 102.126C16.9295 104.23 20.1475 102.374 19.0336 100.27C14.4542 91.3583 9.99861 82.4472 5.41921 73.536ZM265.95 17.3454C273.376 21.9248 280.678 26.3804 288.104 30.9598C290.084 32.1975 292.064 28.9797 289.96 27.742C282.534 23.1626 275.232 18.707 267.806 14.1276C265.702 12.8899 263.846 16.1077 265.95 17.3454ZM246.766 6.33021C254.192 9.54816 262.237 11.0335 270.281 10.786C272.633 10.6622 272.633 6.94916 270.281 7.07293C260.628 7.44423 251.221 5.09265 242.929 0.265724C241.32 -0.724415 239.463 1.25568 240.33 2.86466C245.404 11.4046 250.355 19.9445 255.429 28.4845C256.667 30.5885 259.885 28.732 258.647 26.6279C254.687 19.697 250.726 13.0136 246.766 6.33021Z" fill="black"/>
</svg>
