<svg width="600" height="482" viewBox="0 0 600 482" fill="none" xmlns="http://www.w3.org/2000/svg">
<path d="M208.065 330.134C289.297 330.134 355.148 268.128 355.148 191.639C355.148 115.151 289.297 53.1445 208.065 53.1445C126.833 53.1445 60.9814 115.151 60.9814 191.639C60.9814 268.128 126.833 330.134 208.065 330.134Z" fill="#16202C"/>
<path d="M467.021 190.03L461.009 184.877L453.923 178.865L423.54 153.206L420.427 156.856C419.246 157.607 418.387 158.681 418.065 160.184L411.516 186.058C410.979 187.99 411.516 190.138 412.804 191.963L404.645 201.518C405.182 200.015 405.504 198.512 405.611 196.901C405.826 194.539 405.289 191.748 403.249 190.567C401.424 189.493 399.062 190.03 397.237 191.104C395.412 192.285 394.016 193.895 392.406 195.183C386.072 200.337 377.161 200.337 369.109 201.41C337.545 205.705 307.913 223.634 295.245 253.802L294.923 253.91C290.091 256.057 286.119 260.029 284.079 264.968L283.65 264.538C274.417 263.679 266.257 270.014 259.708 276.562C241.779 294.706 228.359 317.252 221.166 341.73L222.025 336.47C201.197 286.977 171.458 239.953 135.171 201.84L134.634 205.49C136.137 187.668 140.753 126.795 140.753 126.795C153.637 123.574 179.832 116.703 179.832 116.703C164.587 97.8076 147.946 76.0136 130.876 54.6489C125.186 47.5631 117.671 41.2288 108.867 38.8668L80.739 38.4375L69.4662 84.1729C62.5951 80.8448 53.6842 82.1331 48.2088 87.5011C41.9819 93.728 41.2304 104.679 46.5984 111.657C49.9266 116.059 55.5093 118.528 60.9847 118.743L60.8774 119.172C51.6444 141.289 43.1629 159.433 33.7152 178.543C33.7152 178.543 25.7706 193.573 17.2891 199.156C13.6389 201.625 13.102 241.348 13.8535 285.473C11.7063 286.01 9.66654 286.547 7.62669 287.191C4.51324 288.157 1.07766 289.983 0.862943 293.203C0.755583 295.565 2.79545 297.605 5.05002 298.357C7.30458 299.108 9.77384 298.786 12.1358 298.571C12.7799 298.464 13.4241 298.464 14.0683 298.357C14.0683 298.893 14.0683 299.43 14.0683 299.967C12.6726 300.289 11.2769 300.504 9.88123 300.826C6.76778 301.577 3.11756 303.188 2.79548 306.409C2.58076 308.771 4.40586 310.918 6.66042 311.777C8.91499 312.636 11.3842 312.528 13.7462 312.421C13.9609 312.421 14.1756 312.421 14.3903 312.421C14.3903 312.636 14.3903 312.743 14.3903 312.958C13.6388 313.065 12.78 313.065 12.0284 313.172C8.80763 313.494 5.04994 314.675 4.29842 317.789C3.76162 320.151 5.37205 322.513 7.41189 323.694C9.45174 324.875 11.921 325.089 14.283 325.197C14.3903 325.197 14.6051 325.197 14.7124 325.197C14.7124 326.27 14.8198 327.344 14.8198 328.31C13.4241 328.632 12.0284 328.847 10.6327 329.169C7.51925 329.921 3.86903 331.531 3.54695 334.752C3.33223 337.114 5.15733 339.261 7.41189 340.227C9.66646 341.086 12.1357 340.979 14.4976 340.871C14.7124 340.871 14.9272 340.871 15.2492 340.871C16.3228 377.374 17.6111 406.683 17.6111 406.683C17.6111 406.683 68.1778 341.838 129.266 391.653C193.682 444.259 258.098 372.328 299.969 393.8C341.839 415.272 343.664 446.407 343.664 446.407C350.213 431.161 350.321 413.34 344.094 398.094C340.658 389.72 335.29 381.776 335.075 372.757C334.753 364.383 338.833 356.653 341.087 348.601C346.133 330.779 341.946 310.488 330.137 296.102L330.351 295.565C335.29 288.694 337.974 280.213 337.867 271.731L339.477 272.161C343.986 271.409 348.496 269.691 352.79 268.51C353.541 268.296 354.186 268.081 354.722 267.974C354.937 268.188 355.152 268.511 355.474 268.725L364.277 276.133C366.747 278.173 370.397 277.958 372.544 275.489L377.268 269.906C380.274 269.584 383.28 268.833 386.072 267.866C387.145 267.544 388.219 267.115 389.185 266.578C389.614 266.793 390.044 266.9 390.473 267.115C394.66 268.833 396.915 267.437 398.096 265.504L398.311 265.075C399.492 262.176 398.418 258.741 396.271 256.379C395.949 256.057 395.627 255.735 395.197 255.413C395.197 255.305 395.304 255.198 395.304 255.09C398.311 256.379 401.424 257.667 404.967 259.17C409.154 260.888 411.409 259.492 412.59 257.56L412.804 257.13C413.985 254.232 412.912 250.796 410.764 248.434C408.617 246.072 405.718 244.784 402.82 243.603C402.175 243.388 401.424 243.066 400.78 242.851C400.887 242.744 400.887 242.637 400.995 242.529C404.108 243.388 407.114 244.247 410.764 245.213C415.166 246.394 417.206 244.677 418.172 242.529L418.28 242.1C419.139 239.094 417.528 235.766 415.059 233.833C414.952 233.726 414.844 233.618 414.737 233.511C417.635 233.94 420.964 235.873 423.755 236.839C426.868 237.913 430.089 238.879 433.203 239.738C434.813 240.167 436.531 240.597 438.249 240.489C439.966 240.382 441.684 239.523 442.543 238.128C443.509 236.41 443.08 234.155 442.006 232.545C440.825 230.934 439.108 229.861 437.39 228.895C431.27 225.459 424.506 223.312 417.635 221.701L430.411 206.564C431.914 206.993 433.525 206.993 435.028 206.456L460.043 196.257C460.794 195.935 461.438 195.505 461.975 194.969L462.19 195.183L467.021 190.03Z" fill="#111217"/>
<path d="M107.147 109.612C107.147 112.833 105 115.41 102.316 115.41C99.6321 115.41 97.4849 112.833 97.4849 109.612C97.4849 106.391 102.638 93.9375 102.638 93.9375C102.638 93.9375 107.147 106.499 107.147 109.612Z" fill="#006C8F"/>
<path d="M565.149 32.2082C531.223 3.54299 487.312 -0.214672 467.021 23.834C464.23 27.1622 461.976 30.8125 460.365 34.7849L459.828 34.2481L424.399 153.418L468.417 189.92L580.072 136.24L579.857 136.026C583.615 133.771 586.943 130.872 589.842 127.437C610.133 103.603 599.075 60.8734 565.149 32.2082Z" fill="#CB730B"/>
<path d="M519.201 59.0513C508.465 72.4714 507.391 83.6368 516.087 90.7226C518.986 93.0845 522.207 94.2655 525.535 94.2655C528.004 94.2655 530.688 93.6213 533.265 92.333C538.848 89.649 543.571 84.603 546.685 80.7381C551.087 75.2627 553.878 70.0021 554.952 65.3856C556.455 58.944 554.522 53.4686 549.584 49.3889C544.645 45.4166 538.848 44.7724 532.728 47.4564C527.145 50.1404 522.314 55.2937 519.201 59.0513ZM546.9 64.4193C545.934 67.6402 543.679 71.6125 540.351 75.6922C536.701 80.3087 533.265 83.4222 530.259 85.1399C526.716 87.0724 523.71 87.0724 521.026 84.8178C518.449 82.778 517.805 79.7718 518.986 75.9068C519.952 72.5787 522.314 68.6064 525.642 64.4193C529.4 59.6955 532.728 56.6895 535.734 55.0791C537.345 54.2202 538.74 53.7906 540.136 53.7906C541.854 53.7906 543.357 54.4349 544.86 55.6159C546.578 56.9042 548.51 59.1587 546.9 64.4193ZM549.047 143.866C549.047 144.725 548.296 145.369 547.437 145.369H547.329C527.897 144.188 507.713 135.492 490.428 120.891C471.425 104.787 458.757 83.7442 455.751 63.1311C455.643 62.2722 456.18 61.4132 457.147 61.3059C458.005 61.1985 458.864 61.7354 458.972 62.7016C461.87 82.5633 474.11 102.854 492.575 118.422C509.324 132.593 528.863 140.967 547.544 142.148C548.403 142.148 549.047 143.007 549.047 143.866ZM490.428 69.0359L496.655 73.9744L504.922 63.6679L509.324 67.2107L515.014 61.8427L509.753 57.6556L528.97 33.8217L526.394 31.6745L527.575 30.2787L525.642 31.0303L523.602 29.4199L485.06 39.4043L481.088 44.343L498.802 58.6219L490.428 69.0359ZM499.232 43.6988C504.492 42.3031 509.86 40.9074 514.048 39.7265C512.867 41.1222 511.9 42.4105 511.149 43.2694L503.526 52.717L494.078 45.0945C495.689 44.6651 497.407 44.2356 499.232 43.6988ZM589.307 82.5633L586.73 80.416L587.911 79.0203L585.979 79.7719L583.939 78.1615L545.397 88.1459L541.424 93.0845L559.139 107.363L550.872 117.67L557.099 122.609L565.366 112.302L569.767 115.845L575.458 110.477L570.197 106.29L589.307 82.5633ZM554.522 93.7288C556.133 93.2993 557.85 92.8698 559.568 92.333C564.614 90.9373 570.197 89.5417 574.491 88.3607C573.31 89.7564 572.344 91.0447 571.593 91.9035L563.97 101.351L554.522 93.7288Z" fill="#111217"/>
<path d="M63.6673 317.357C63.9894 319.397 60.8759 320.256 60.5538 318.216C59.3729 310.808 61.198 303.615 63.6673 296.529C65.9219 290.195 68.6058 283.968 69.7868 277.419C71.1825 269.796 69.4647 262.388 68.1764 254.873C67.1028 248.539 66.5661 242.097 68.2839 235.763C69.7869 230.395 72.9003 225.349 78.0536 222.773C79.8787 221.806 81.4891 224.598 79.664 225.564C74.0813 228.355 71.5046 234.367 70.6457 240.272C69.7868 246.929 71.1825 253.478 72.2561 259.919C73.4371 266.898 73.8665 273.769 72.2561 280.747C69.5721 292.771 61.6275 304.581 63.6673 317.357ZM3.22343 203.448C3.86759 175.534 4.40447 147.62 5.04864 119.707C5.26336 111.869 5.37072 103.925 5.58544 96.0874C5.58544 94.0476 2.36463 94.0476 2.36463 96.0874C1.72047 124.001 1.18359 151.915 0.539426 179.828C0.324706 187.666 0.217346 195.61 0.00262511 203.448C-0.104735 205.595 3.11607 205.595 3.22343 203.448ZM78.2683 305.225C78.6977 307.587 77.9462 310.164 76.1211 311.774C75.0475 312.633 73.8665 313.17 72.4708 313.062C71.0751 312.955 69.7868 312.418 68.7132 311.452C67.2102 310.164 66.3513 308.124 66.566 306.191H66.4587C65.7071 305.762 65.4924 304.688 65.9219 303.937C67.2102 301.468 70.2162 300.179 73.0076 300.501C75.4769 300.823 77.7315 302.541 78.2683 305.225ZM69.8943 307.802C69.7869 307.587 69.8943 307.802 69.8943 307.802V307.802ZM75.1548 306.728C75.1548 306.513 75.1548 306.406 75.1548 306.191C75.1548 306.191 75.1548 306.191 75.1548 306.084V305.977C75.1548 305.869 75.1548 305.869 75.1548 305.762C75.1548 305.547 75.0475 305.44 74.9401 305.225C74.9401 305.118 74.8328 305.01 74.8328 305.01C74.8328 304.903 74.7254 304.796 74.618 304.796C74.5107 304.581 74.296 304.474 74.1887 304.366C74.0813 304.259 73.9739 304.259 73.9739 304.259C73.8665 304.152 73.7592 304.152 73.6519 304.044C73.4371 303.937 73.2223 303.937 73.0076 303.83C72.9002 303.83 72.793 303.83 72.6856 303.722C72.4709 303.722 72.2562 303.722 72.0415 303.722C71.9341 303.722 71.8267 303.722 71.612 303.722C71.5046 303.83 71.1826 303.83 70.9679 303.83C70.7531 303.937 70.5383 303.937 70.3236 304.044C70.2162 304.044 70.1089 304.152 70.1089 304.152L70.0016 304.259C70.3237 304.796 70.3237 305.44 70.0016 305.869C70.0016 305.869 70.0016 305.977 69.8943 305.977C69.8943 306.084 69.7868 306.299 69.7868 306.299V306.406C69.7868 306.406 69.7868 306.621 69.7868 306.728C69.7868 306.836 69.7868 306.943 69.7868 307.05C69.7868 307.05 70.0016 307.694 70.0016 307.802C70.0016 307.802 70.0016 307.909 70.1089 307.909C70.2163 308.017 70.2162 308.124 70.3236 308.231C70.431 308.339 70.431 308.446 70.5384 308.553C70.5384 308.553 70.5384 308.553 70.6457 308.661C70.8605 308.875 70.9678 309.09 71.1825 309.198C71.1825 309.198 71.1825 309.198 71.2899 309.198C71.3972 309.305 71.5046 309.305 71.612 309.412C71.7194 309.52 71.8266 309.52 71.934 309.627C72.1487 309.627 72.3635 309.734 72.5783 309.842C72.6856 309.842 72.7929 309.842 72.9003 309.842C73.0076 309.842 73.1151 309.842 73.1151 309.842C73.2224 309.842 73.3297 309.734 73.4371 309.734C73.6518 309.627 73.7591 309.52 73.9739 309.412C74.0812 309.305 74.0813 309.305 74.1887 309.198C74.296 309.09 74.4033 308.983 74.5107 308.768C74.5107 308.768 74.5107 308.768 74.5107 308.661C74.618 308.553 74.6181 308.446 74.7255 308.339C74.8328 308.231 74.8328 308.017 74.9401 307.909V307.802C74.9401 307.694 75.0475 307.587 75.0475 307.48C75.1548 307.265 75.1548 307.05 75.1548 306.836C75.1548 306.943 75.1548 306.836 75.1548 306.728ZM44.2351 322.94C44.2351 323.047 44.2352 323.262 44.1278 323.369C44.1278 323.476 44.1277 323.691 44.0203 323.798C43.4835 325.946 41.9805 327.556 40.0481 328.308C42.1953 330.025 43.5909 332.387 43.8057 335.179C43.8057 335.393 43.8057 335.608 43.6983 335.823C43.6983 335.93 43.6983 336.038 43.6983 336.038C43.3763 338.614 41.5511 340.547 39.0818 341.406C37.364 341.942 35.5389 341.942 33.8211 341.942C31.7813 342.05 29.7415 342.05 27.7016 342.157C24.8029 342.264 21.9042 342.372 19.0055 342.479C19.6496 368.568 20.6158 394.656 22.0115 420.638C22.1188 422.677 18.898 422.677 18.7907 420.638C17.7171 400.883 16.9656 381.022 16.3215 361.267C16.1067 355.04 15.9994 348.813 15.7847 342.587C12.7786 342.694 9.66505 342.801 6.98104 341.406C4.4044 340.01 2.47194 337.111 3.1161 334.105C3.6529 331.528 5.90755 329.811 8.16211 328.845C10.4167 327.878 12.8859 327.341 15.2479 326.912C12.4565 326.697 9.55777 326.482 7.19584 324.979C4.72656 323.369 2.90138 320.47 3.6529 317.464C4.08234 315.639 5.37064 314.243 6.98104 313.385C6.65896 313.277 6.44432 313.17 6.12224 313.062C3.54559 311.667 1.61313 308.768 2.2573 305.762C2.7941 303.185 5.04861 301.468 7.30318 300.501H7.41051C6.55163 300.394 5.58539 300.179 4.7265 299.75C2.0425 298.569 -0.10463 295.992 0.11009 292.986C0.324811 290.195 2.47191 288.262 4.83384 287.081C7.83992 285.578 11.3829 284.719 14.7111 283.968C14.7111 274.52 14.711 264.965 14.8184 255.517C15.1405 220.196 16.1067 184.982 17.7171 149.66C17.8244 147.62 21.0452 147.62 20.9379 149.66C19.9716 169.415 19.3275 189.276 18.7907 209.03C18.2539 230.502 17.9319 251.974 17.9319 273.339C23.8367 276.023 29.4194 279.459 34.68 283.216C35.1095 283.431 35.6463 283.646 36.0758 283.968C38.6524 285.578 40.3701 288.048 40.6922 291.054V291.161C40.6922 291.268 40.6922 291.376 40.6922 291.483C40.4775 294.167 39.1892 296.314 36.7199 297.388C36.2905 297.603 35.7536 297.71 35.3242 297.817C36.3978 298.139 37.3641 298.569 38.223 299.213C40.7996 300.931 42.5173 303.507 42.7321 306.621C42.7321 306.836 42.7321 307.05 42.6247 307.265C42.6247 307.372 42.6247 307.48 42.6247 307.48C42.3027 310.056 40.4775 311.989 38.0082 312.848C37.6861 312.955 37.3641 312.955 37.1494 313.062C38.223 313.492 39.1891 314.136 40.1554 314.888C42.8394 317.035 44.3425 319.934 44.2351 322.94ZM18.2539 283.431C20.9379 282.894 23.7293 282.465 26.5207 282.25C26.8428 282.25 27.2722 282.25 27.5943 282.143C24.5882 280.21 21.4747 278.492 18.2539 276.989C18.2539 279.137 18.2539 281.284 18.2539 283.431ZM10.4166 297.495C13.3154 297.388 16.2141 296.851 19.1128 296.636C21.7968 296.314 24.4808 296.1 27.1648 295.885C28.5605 295.777 30.0636 295.563 31.4592 295.455C32.8549 295.348 34.2505 295.241 35.4315 294.811C36.8272 294.274 37.6862 293.308 37.7935 291.805C37.7935 291.698 37.7935 291.698 37.7935 291.59C37.7935 291.483 37.7935 291.483 37.7935 291.376C37.6862 290.195 37.042 289.229 36.2904 288.37C35.9684 288.262 35.7537 288.155 35.539 287.94C34.8948 287.403 34.2506 286.974 33.6064 286.437C33.3917 286.33 33.177 286.222 32.9623 286.222C29.7415 285.149 26.1986 285.578 22.9777 286.115C19.9717 286.545 16.8582 287.189 13.9595 287.94C11.3828 288.584 8.69881 289.229 6.44424 290.517C4.83384 291.483 3.11615 292.986 3.97503 295.026C4.94128 297.173 8.05472 297.603 10.4166 297.495ZM12.2417 311.237C15.1404 311.237 18.0392 311.023 20.9379 310.915C23.6219 310.808 26.306 310.701 29.0974 310.593C30.6004 310.593 32.1034 310.486 33.7138 310.486C35.0021 310.486 36.3978 310.486 37.5787 310.056C39.0818 309.52 39.726 308.446 39.9407 307.05V306.943C39.726 304.152 37.2567 302.004 34.7874 301.146C31.7813 300.072 28.4532 300.394 25.3398 300.609C22.2263 300.823 19.2201 301.253 16.1067 301.79C13.6374 302.219 10.9534 302.649 8.59145 303.83C6.98104 304.581 5.04858 306.084 5.80011 308.231C6.76635 310.701 9.8798 311.237 12.2417 311.237ZM35.4315 329.489C32.4254 328.415 29.0973 328.737 25.9839 328.952C22.8704 329.167 19.757 329.596 16.7509 330.133C14.2816 330.562 11.5976 330.992 9.23571 332.065C7.62531 332.817 5.69272 334.32 6.44424 336.467C7.41048 339.044 10.5239 339.581 12.8859 339.581C15.7846 339.581 18.6834 339.366 21.5821 339.258C24.2662 339.151 26.9501 339.044 29.7415 339.044C31.2445 339.044 32.7475 338.936 34.3579 338.936C35.6462 338.936 37.042 338.936 38.223 338.507C39.726 337.97 40.3701 336.896 40.5849 335.501V335.393C40.3701 332.495 37.9008 330.348 35.4315 329.489ZM40.907 322.94C41.3364 315.961 32.4254 314.888 27.3795 314.673C24.1587 314.458 21.0453 314.458 17.8245 314.673C15.2479 314.78 12.4565 314.888 9.98718 315.746C8.16206 316.391 6.22952 317.786 6.98104 319.934C7.83992 322.51 10.7387 323.369 13.1007 323.691C18.576 324.443 24.2661 324.657 29.7415 325.194C31.1372 325.302 32.6402 325.516 34.0359 325.624C35.3242 325.731 36.7199 325.946 38.0082 325.731C39.6186 325.409 40.5849 324.443 40.907 322.94ZM75.1548 306.084C75.1548 305.977 75.1548 305.977 75.1548 305.977C75.1548 306.084 75.1548 306.191 75.1548 306.084C75.1548 306.191 75.1548 306.084 75.1548 306.084ZM328.31 280.962C329.599 279.029 330.887 276.989 332.175 275.057C332.605 274.305 332.39 273.232 331.639 272.802C330.78 272.373 329.921 272.588 329.384 273.339C328.096 275.272 326.807 277.312 325.519 279.244C325.089 279.996 325.304 281.069 326.056 281.499C326.915 282.035 327.774 281.713 328.31 280.962ZM470.348 189.813L463.799 197.543L463.37 197.221C462.94 197.435 462.511 197.758 462.081 197.865L437.066 208.064C436.1 208.494 435.026 208.601 433.953 208.601C433.416 208.601 432.987 208.601 432.45 208.494L422.465 220.303C427.404 221.699 432.235 223.417 436.852 225.671C440.18 227.389 443.937 229.429 444.796 233.294C445.655 237.051 443.293 240.38 439.536 241.024C437.281 241.453 435.134 240.916 432.987 240.272C430.732 239.628 428.477 238.984 426.223 238.232C424.183 237.588 422.251 236.837 420.318 236.085C420.318 236.085 420.211 236.085 420.211 235.978C421.284 238.018 421.714 240.272 421.177 242.527C421.177 242.742 421.07 242.849 420.962 243.064C420.962 243.171 420.855 243.278 420.855 243.386C419.674 245.855 417.312 247.251 414.628 247.251C414.091 247.251 413.554 247.143 412.91 247.036C413.447 247.573 413.877 248.002 414.306 248.646C416.131 251.223 416.882 254.551 415.702 257.557C415.702 257.665 415.594 257.772 415.487 257.879C415.487 257.987 415.38 258.201 415.272 258.309C413.662 260.885 410.978 261.959 407.972 261.422C406.039 261.1 404.322 260.134 402.496 259.382C401.852 259.168 401.315 258.846 400.671 258.631C401.637 260.778 401.852 263.355 400.993 265.609C400.993 265.717 400.886 265.824 400.779 265.931C400.779 266.039 400.671 266.253 400.564 266.361C398.953 268.937 396.269 270.011 393.263 269.474C391.331 269.152 389.613 268.186 387.788 267.434C386.5 266.898 385.104 266.361 383.816 265.717L374.583 276.667C373.294 278.17 371.469 279.137 369.537 279.244C369.322 279.244 369.107 279.244 368.893 279.244C367.175 279.244 365.457 278.6 364.061 277.526L355.258 270.118C354.828 269.689 354.399 269.26 354.077 268.83C353.54 268.937 353.003 269.152 352.466 269.26C348.387 270.441 344.415 271.944 340.227 272.695C340.013 281.069 337.436 289.229 332.712 296.1C341.623 307.587 346.239 322.188 345.381 336.682C344.951 343.768 343.019 350.424 340.657 357.08C338.188 364.059 336.148 371.037 338.08 378.338C339.905 385.316 343.77 391.65 346.454 398.307C349.138 405.07 350.641 412.263 350.856 419.456C351.393 433.199 347.528 447.048 339.583 458.428C332.283 468.95 321.976 477.109 310.059 481.833C308.127 482.584 307.268 479.471 309.2 478.719C322.083 473.673 333.034 464.011 339.905 451.987C346.669 440.177 349.138 426.005 346.991 412.478C345.917 405.5 343.448 399.058 340.442 392.724C337.543 386.604 334.43 380.27 334.001 373.292C333.571 365.991 336.47 359.227 338.832 352.464C340.979 346.237 342.267 339.795 342.16 333.246C342.16 320.363 337.758 307.48 329.599 297.388C329.169 296.958 329.169 296.422 329.277 295.885C329.169 295.563 329.277 295.241 329.491 294.811C334.001 288.477 336.47 280.962 336.792 273.232C322.298 270.118 308.556 263.999 296.532 255.41H296.424C295.243 255.947 294.17 256.591 293.096 257.235C292.452 257.665 292.237 257.772 291.808 258.309C291.378 258.738 290.842 259.168 290.412 259.597C289.983 260.027 289.553 260.563 289.124 260.993C288.909 261.315 288.802 261.315 288.695 261.53C288.48 261.744 288.372 262.066 288.158 262.281C287.836 262.818 287.513 263.355 287.191 263.892C287.084 264.214 286.869 264.428 286.762 264.75C286.655 264.858 286.655 265.072 286.547 265.18C286.547 265.18 286.333 265.609 286.44 265.395C286.225 265.931 285.903 266.361 285.366 266.468C286.869 269.152 288.694 271.729 290.734 274.091C290.734 273.983 290.842 273.983 290.949 273.876C292.881 271.944 294.921 269.904 296.854 267.971C297.498 267.327 298.464 267.434 299.108 267.971C299.753 268.508 299.753 269.689 299.108 270.226C297.176 272.158 295.136 274.198 293.204 276.131C293.096 276.238 292.989 276.345 292.881 276.345C295.565 279.029 298.572 281.499 301.792 283.538C303.081 281.821 304.262 279.995 305.55 278.278C306.087 277.526 306.946 277.311 307.804 277.741C308.556 278.17 308.878 279.244 308.341 279.996C307.053 281.713 305.872 283.538 304.584 285.256C307.053 286.544 309.63 287.618 312.314 288.477C314.246 289.121 313.495 292.235 311.455 291.59C308.234 290.624 305.228 289.336 302.329 287.725C302.007 287.833 301.578 287.726 301.256 287.511C300.934 287.296 300.719 287.081 300.611 286.652C293.096 282.143 286.762 275.701 282.575 267.971C282.253 267.327 282.36 266.683 282.682 266.253C276.026 266.468 270.121 270.226 265.29 274.52C257.775 281.176 251.118 289.014 245.428 297.388C245.428 297.603 245.321 297.817 245.214 298.139C243.71 300.609 242.207 303.185 240.704 305.762C234.8 316.283 229.539 327.127 225.459 338.507C230.183 349.994 234.477 361.589 238.342 373.399C240.275 379.304 242.207 385.209 243.603 391.221C244.677 396.159 245.321 401.957 242.422 406.466C239.523 411.082 233.941 412.585 228.895 411.297C223.634 410.009 219.554 406.251 216.978 401.635C214.294 396.589 213.328 390.791 213.22 385.209C213.005 379.304 213.65 373.292 214.508 367.494C215.797 359.013 217.944 350.639 220.735 342.479C220.628 342.157 220.628 341.942 220.735 341.513C221.058 340.332 221.487 339.151 221.916 337.97C220.199 333.89 218.481 329.811 216.656 325.838C206.456 303.293 194.432 281.499 180.797 260.885C168.129 241.668 153.85 223.417 138.175 206.561C137.961 206.883 137.639 207.205 137.209 207.313C128.835 210.856 119.924 213.003 110.906 213.862C95.5533 215.257 79.9861 212.681 65.9219 206.239C52.9313 200.334 41.3364 191.101 32.5328 179.828C31.996 179.184 31.8887 178.218 32.5328 177.574C32.8549 177.252 33.2843 177.144 33.8211 177.144C35.7536 173.279 37.5788 169.414 39.5113 165.549C46.7044 150.626 53.4681 135.596 59.8024 120.458C54.5417 119.707 49.6031 117.13 46.3823 112.943C40.5849 105.213 41.3364 93.5107 48.2074 86.6397C52.2871 82.56 58.2994 80.6276 63.9894 81.057C55.508 63.5573 54.7564 27.4842 73.9739 18.3586C98.9888 6.54895 114.556 24.3708 131.841 0C141.718 13.3127 133.666 32.4228 125.936 36.932C122.93 38.7571 119.924 39.7233 117.133 40.2601C121.212 42.2999 124.863 45.0913 128.083 48.3121C133.129 53.1433 137.209 59.0481 141.504 64.4162C146.12 70.321 150.737 76.1184 155.353 82.0233C164.157 93.2961 172.96 104.569 181.978 115.734C182.73 116.593 182.515 118.096 181.227 118.418C180.046 118.74 178.972 119.062 177.791 119.277C166.304 122.283 154.709 125.289 143.221 128.296C143.007 130.443 142.899 132.59 142.684 134.737C141.718 146.976 140.859 159.215 139.893 171.347C139.142 181.331 138.39 191.316 137.531 201.3C139.571 203.448 141.504 205.595 143.543 207.742C160.721 226.745 176.074 247.251 189.601 268.937C202.484 289.443 213.65 311.023 223.205 333.354C224.922 328.522 226.855 323.799 229.002 319.182C234.907 306.514 242.53 294.704 251.548 284.183C255.95 279.029 260.673 273.876 266.041 269.689C271.302 265.609 277.422 262.603 284.185 263.033C286.547 258.523 290.197 254.766 294.921 252.726C295.565 251.33 296.102 249.935 296.747 248.646C302.866 236.193 312.421 225.671 323.694 217.619C335.074 209.567 348.279 204.092 361.807 201.3C365.35 200.549 368.893 200.012 372.436 199.583C376.193 199.153 379.951 198.831 383.601 197.972C387.359 197.006 390.687 195.503 393.478 192.819C396.162 190.242 399.705 187.344 403.785 188.847C406.791 189.92 407.864 193.141 407.972 196.04L411.515 191.853C410.441 189.92 410.119 187.773 410.656 185.733L417.205 159.859C417.312 159.43 417.419 159.001 417.634 158.679L417.742 158.571C418.278 157.39 419.137 156.424 420.103 155.78L424.076 151.056L430.947 156.853L462.725 183.693L470.348 189.813ZM138.712 148.801C139.249 141.608 139.786 134.415 140.323 127.115C140.323 126.363 140.752 125.719 141.504 125.611C144.832 124.753 148.16 123.894 151.488 123.035C160.399 120.78 169.31 118.418 178.113 116.056C173.819 110.688 169.524 105.32 165.337 99.9524C156.319 88.4648 147.408 76.9773 138.283 65.4898C130.553 55.8273 122.93 44.9839 110.691 41.0116C101.888 41.6557 94.6945 41.119 89.8632 54.5391C86.6424 63.6647 88.6822 76.0111 76.1211 83.741L72.6856 83.6337C73.2224 83.9557 73.8665 84.3852 74.4033 84.7073C75.1549 85.2441 75.2623 86.2103 74.7255 86.9618C74.1887 87.7133 73.2223 87.8207 72.4708 87.2839C66.1365 82.4527 56.0447 83.0968 50.462 88.6795C44.8792 94.2623 44.1278 104.354 48.959 110.688C53.7902 117.023 63.6673 119.062 70.6457 115.09C71.3973 114.661 72.3635 114.876 72.7929 115.734C73.2224 116.486 73.0077 117.452 72.1488 117.882C69.3574 119.492 66.244 120.243 63.1305 120.351C61.198 124.86 59.3729 129.262 57.4404 133.771C50.784 149.123 43.5909 164.261 36.2904 179.184C40.7996 184.66 45.8455 189.598 51.5356 193.785C62.9157 202.267 76.3358 207.849 90.4 209.889C105.108 212.036 120.353 210.211 134.203 204.736C134.632 199.368 135.062 194 135.491 188.632C136.672 175.534 137.746 162.114 138.712 148.801ZM224.064 343.016C220.628 353.323 217.944 363.951 216.978 374.795C216.012 384.887 215.582 398.092 224.064 405.285C227.499 408.291 233.297 409.901 237.376 407.325C241.885 404.533 241.885 398.521 241.134 394.012C240.168 388.322 238.128 382.739 236.41 377.264C234.585 371.467 232.652 365.669 230.613 359.872C228.465 354.289 226.318 348.599 224.064 343.016ZM391.975 215.472C390.15 215.794 388.325 215.902 386.607 216.653C384.889 217.405 383.923 219.015 382.849 220.411C381.561 222.021 380.058 223.309 378.555 224.705C375.549 227.711 372.757 230.825 369.322 233.401C362.988 238.232 354.292 241.024 346.562 238.018C344.629 237.266 345.488 234.153 347.421 234.904C349.138 235.548 350.963 235.978 352.789 236.085C360.841 236.3 367.604 231.361 372.972 225.993C374.368 224.598 375.656 223.095 377.159 221.699C378.555 220.411 379.736 219.23 380.917 217.727C381.883 216.438 382.957 215.043 384.352 214.291C386.07 213.325 388.003 213.003 389.935 212.681C392.19 212.359 394.23 211.607 396.162 210.533L404.214 200.978C405.073 198.509 405.824 194.644 403.892 192.604C401.101 189.706 396.914 194.644 394.874 196.362C389.291 201.086 381.991 202.052 375.012 202.804C368.356 203.555 361.914 204.629 355.473 206.454C343.019 209.997 331.102 215.794 321.01 223.953C311.347 231.791 303.51 241.668 298.464 253.048C310.274 261.422 323.694 267.434 337.865 270.441C338.08 270.118 338.402 269.904 338.832 269.904C340.979 269.582 343.019 269.045 345.059 268.401C347.099 267.756 349.031 267.112 350.964 266.576C351.608 266.361 352.144 266.253 352.789 266.039C352.359 263.892 352.896 261.637 354.399 259.812L391.975 215.472ZM379.092 240.058C380.165 238.554 381.883 237.803 383.601 237.588C382.42 236.193 381.668 234.26 381.776 232.435L370.825 245.426C371.147 245.426 371.469 245.426 371.684 245.426C373.938 245.533 376.193 246.07 378.448 246.606C377.696 244.459 377.696 241.883 379.092 240.058ZM380.917 264.428C378.233 263.355 375.656 262.174 372.972 261.1C369.966 259.919 366.853 258.738 364.92 256.054C364.384 255.41 364.061 254.659 363.847 253.8L357.19 261.637C355.687 263.462 355.902 266.146 357.727 267.649L366.531 275.057C368.356 276.56 371.04 276.345 372.543 274.52L380.917 264.428ZM394.122 255.947C391.975 254.981 389.72 254.122 387.573 253.263C386.07 252.619 384.46 252.082 383.064 251.223C381.776 250.794 380.595 250.471 379.306 250.149C376.837 249.505 374.153 248.754 371.577 248.646C369.751 248.539 367.282 248.861 366.745 250.901C366.101 253.37 368.356 255.41 370.288 256.484C372.758 257.772 375.441 258.738 377.911 259.704C380.38 260.778 382.849 261.744 385.426 262.818C388.11 263.892 390.794 265.395 393.478 266.146C395.303 266.683 396.913 266.361 397.987 264.75C397.987 264.75 397.987 264.643 398.095 264.643C399.49 260.885 397.236 257.987 394.122 255.947ZM402.281 244.781C400.027 243.923 397.665 243.171 395.303 242.527C394.659 242.419 394.122 242.205 393.478 242.097C392.297 241.775 391.009 241.561 389.828 241.131C388.54 240.916 387.359 240.702 386.07 240.594C384.245 240.487 381.776 240.809 381.239 242.849C380.702 245.103 382.42 247.036 384.245 248.11C386.929 248.968 389.506 249.935 391.975 251.008C393.371 251.652 394.766 252.404 396.055 253.263C397.343 253.8 398.631 254.336 399.92 254.873C402.604 255.947 405.288 257.45 407.972 258.201C409.797 258.738 411.407 258.416 412.481 256.806C412.481 256.806 412.481 256.698 412.588 256.698C414.95 250.257 407.113 246.607 402.281 244.781ZM414.521 234.582C411.944 232.864 408.938 232.113 405.932 231.469C402.926 230.825 399.812 230.288 396.806 229.966C394.337 229.644 391.653 229.322 389.076 229.644C387.251 229.858 384.889 230.825 385.104 233.079C385.319 235.763 388.003 237.159 390.257 237.91C390.472 238.018 390.579 238.018 390.794 238.018C392.619 238.447 394.337 238.877 396.162 239.413C396.484 239.521 396.806 239.628 397.128 239.736C397.665 239.843 398.095 239.95 398.631 240.058C401.208 240.702 403.892 241.453 406.469 242.205C407.864 242.634 409.26 242.956 410.656 243.278C411.944 243.6 413.34 244.137 414.735 244.137C416.453 244.137 417.527 243.386 418.171 241.883C418.171 241.883 418.171 241.883 418.171 241.775C418.708 238.877 416.883 236.085 414.521 234.582ZM420.211 222.987L413.876 230.502C414.199 230.61 414.521 230.825 414.843 230.932C415.058 230.932 415.272 230.932 415.487 231.039C417.312 231.361 419.03 232.113 420.748 232.864C422.68 233.723 424.505 234.475 426.438 235.012C428.477 235.656 430.625 236.3 432.664 236.944C434.704 237.481 436.959 238.34 439.106 237.91C440.717 237.588 442.005 236.407 441.79 234.582C441.575 232.757 440.18 231.469 438.677 230.502C435.456 228.355 431.698 226.745 428.048 225.457C425.471 224.383 422.895 223.631 420.211 222.987ZM431.162 206.454C425.579 202.267 419.996 197.972 414.413 193.785L407.005 202.481C406.469 203.984 405.717 205.488 404.751 206.776C403.033 209.352 400.671 211.5 398.095 213.003L386.5 226.745C387.466 226.423 388.325 226.315 389.291 226.208C392.512 225.886 395.947 226.423 399.168 226.852C402.926 227.389 406.791 228.033 410.441 229.107H410.548L430.195 205.81C430.625 206.239 430.839 206.346 431.162 206.454ZM460.686 194.859L420.533 160.933L414.091 186.592C413.769 187.666 413.984 188.954 414.521 190.028C414.735 190.028 414.95 190.135 415.058 190.242C421.177 194.859 427.189 199.475 433.309 204.092C433.738 204.414 434.06 204.951 434.06 205.488C434.704 205.488 435.241 205.38 435.778 205.165L460.686 194.859ZM461.008 186.055L429.229 159.215C427.941 158.142 426.438 157.605 424.935 157.605C424.398 157.605 423.861 157.712 423.324 157.82C423.002 157.927 422.787 158.034 422.573 158.142L422.465 158.249L463.155 192.604C463.262 192.282 463.37 191.96 463.37 191.638C463.692 189.706 462.726 187.558 461.008 186.055ZM79.5567 248.754C79.5567 248.646 79.5567 248.646 79.5567 248.754C79.5567 248.646 79.5567 248.646 79.5567 248.754ZM105.216 142.252C97.3784 140.642 89.0043 143.433 83.7436 149.445C82.3479 151.056 84.71 153.311 85.9983 151.7C90.5074 146.547 97.5932 143.97 104.357 145.258C106.397 145.795 107.256 142.682 105.216 142.252ZM57.333 92.5445C55.2932 92.5445 55.2932 95.7653 57.333 95.7653C63.4526 95.6579 69.25 98.4493 73.0076 103.173C73.5444 103.817 74.7255 103.71 75.2623 103.173C75.9064 102.529 75.7991 101.563 75.2623 100.919C70.9679 95.658 64.2041 92.5445 57.333 92.5445ZM93.6208 65.2751C94.3724 65.7045 95.3386 65.4898 95.8754 64.7383C96.1975 64.2015 96.5196 63.6647 96.8417 63.2352L96.949 63.1279C97.0564 63.0205 97.1638 62.9131 97.2711 62.6984C97.4858 62.4837 97.7005 62.269 97.9153 62.0543C98.3447 61.6248 98.7741 61.1953 99.3109 60.7659L99.4183 60.6585C99.5257 60.5512 99.633 60.4439 99.7403 60.4439C100.062 60.2292 100.277 60.1218 100.599 59.9071C101.351 59.4776 101.673 58.4039 101.136 57.6524C100.707 56.9009 99.7404 56.5788 98.8815 57.1156C96.4122 58.6186 94.3723 60.7659 92.8693 63.2352C92.5472 63.772 92.8693 64.8456 93.6208 65.2751ZM136.028 214.721C128.728 218.478 121.212 222.128 113.16 223.953C109.295 224.812 105.323 225.242 101.351 224.92C97.3784 224.598 93.6208 223.309 89.8632 221.699C86.213 220.089 82.6701 218.478 78.6977 217.727C74.7254 216.975 70.6457 216.975 66.566 216.653C60.017 216.009 53.6828 213.325 48.6369 209.138C43.1615 204.521 39.0818 198.187 37.4714 191.209C37.0419 189.169 33.9285 190.028 34.3579 192.068C37.364 205.273 48.4221 216.331 61.6274 219.23C65.7071 220.196 70.0016 220.196 74.1887 220.518C78.5904 220.947 82.5627 222.236 86.6424 223.953C90.4 225.564 94.1576 227.174 98.2373 227.926C102.317 228.57 106.504 228.463 110.584 227.818C120.139 226.315 128.942 221.914 137.424 217.619C139.464 216.546 137.853 213.754 136.028 214.721ZM82.4554 245.211C83.529 247.465 82.9922 250.042 81.2744 251.867C80.5229 252.726 79.4492 253.37 78.3756 253.692C77.7315 253.907 76.8726 254.014 76.2284 253.8C75.4769 253.585 74.9401 252.726 74.4033 252.189C74.296 252.082 74.296 251.974 74.1887 251.867C73.4371 252.297 72.5783 251.867 72.0415 251.223C70.6458 249.291 70.753 246.607 71.934 244.674C73.0076 242.849 75.0475 241.668 77.1947 241.775C79.3419 241.99 81.4891 243.171 82.4554 245.211ZM79.8787 247.358C79.8787 247.251 79.8787 247.251 79.8787 247.251C79.8787 247.143 79.8787 247.036 79.7714 246.929C79.7714 246.821 79.7714 246.821 79.664 246.714C79.664 246.821 79.7714 246.821 79.7714 246.929C79.7714 246.929 79.5567 246.606 79.5567 246.499C79.5567 246.392 79.4492 246.392 79.4492 246.284L79.3419 246.177L79.4492 246.284C79.4492 246.177 79.2346 245.962 79.1272 245.962C79.0199 245.855 78.9124 245.748 78.8051 245.64C78.8051 245.64 78.8051 245.64 78.6977 245.64C78.5904 245.533 78.483 245.533 78.3756 245.426C78.2683 245.318 78.161 245.318 77.9463 245.211C77.8389 245.211 77.6241 245.103 77.8388 245.211C78.0535 245.211 77.7315 245.211 77.7315 245.211C77.5168 245.103 77.4094 245.104 77.1947 245.104C77.1947 245.104 77.0874 245.104 76.98 245.104C76.7653 245.104 76.6579 245.104 76.4432 245.104C76.4432 245.104 76.5506 245.104 76.3359 245.104H76.2284C76.0137 245.104 75.9063 245.211 75.6916 245.211C75.6916 245.211 75.6916 245.211 75.5843 245.211C75.4769 245.211 75.4769 245.211 75.5843 245.211H75.4769C75.4769 245.211 75.2622 245.318 75.1548 245.426C75.2622 245.318 75.2622 245.426 75.1548 245.426C75.0474 245.426 75.0475 245.533 74.9401 245.533C74.9401 245.533 74.8328 245.748 74.7255 245.855C74.7255 245.748 74.7255 245.748 74.7255 245.855C74.7255 245.962 74.618 245.962 74.618 246.07C74.5107 246.177 74.5107 246.284 74.4033 246.392C74.4033 246.392 74.4033 246.392 74.4033 246.499C74.4033 246.606 74.4033 246.606 74.4033 246.606V246.714C74.296 246.929 74.296 247.036 74.296 247.251V247.358V247.465C74.296 247.573 74.296 247.573 74.296 247.465C74.296 247.573 74.296 247.787 74.296 247.895C74.296 248.002 74.296 248.217 74.296 248.324C74.296 248.432 74.296 248.539 74.4033 248.539C74.4033 248.646 74.5107 248.754 74.5107 248.968C74.5107 249.076 74.618 249.076 74.618 249.183C74.7254 249.29 74.8328 249.505 74.8328 249.613C75.477 249.291 76.2284 249.398 76.6579 249.935C76.8726 250.149 77.0873 250.364 77.302 250.579C77.302 250.579 77.3021 250.579 77.4095 250.579C77.5168 250.579 77.5168 250.579 77.6241 250.472C77.6241 250.472 77.7315 250.471 77.8388 250.364C77.9462 250.364 77.9463 250.257 77.9463 250.257C78.161 250.149 78.2684 250.042 78.4831 249.935C78.5904 249.827 78.5904 249.827 78.6977 249.72C78.6977 249.72 79.0199 249.398 79.1272 249.29C79.1272 249.29 79.1272 249.183 79.2346 249.183C79.3419 249.076 79.3419 248.968 79.3419 248.968C79.4492 248.861 79.4493 248.754 79.5567 248.646C79.664 248.539 79.5567 248.539 79.5567 248.539C79.5567 248.432 79.664 248.217 79.7714 248.11C79.7714 248.002 79.7713 247.895 79.8787 247.895C79.8787 247.787 79.8787 247.573 79.8787 247.358ZM76.4432 244.996C76.4432 244.996 76.5506 244.996 76.4432 244.996C76.5506 244.996 76.5506 244.996 76.4432 244.996ZM75.3696 245.426C75.3696 245.426 75.477 245.426 75.3696 245.426C75.477 245.426 75.477 245.426 75.3696 245.426ZM113.483 55.72C113.375 55.72 113.375 55.72 113.268 55.72C113.16 55.72 112.946 55.72 112.838 55.72C112.516 55.72 112.302 55.6127 111.979 55.6127C111.657 55.6127 111.335 55.6126 111.12 55.5052C110.906 55.6126 110.798 55.72 110.584 55.8273C109.832 56.0421 108.759 55.5053 108.651 54.7537C108.329 53.358 109.403 52.2844 110.798 52.2844C111.55 52.2844 112.409 52.3918 113.16 52.4992C114.878 52.7139 116.596 53.0359 118.206 53.358C119.065 53.5727 119.495 54.539 119.28 55.2905C119.065 56.1494 118.099 56.5789 117.347 56.3641C115.952 56.1494 114.771 55.9347 113.483 55.72ZM74.9401 245.962C74.9401 245.855 74.9401 245.962 74.9401 245.962V245.962ZM116.274 67.637C115.844 66.8854 114.771 66.6707 114.019 67.1002C113.268 67.5296 112.946 68.6032 113.483 69.3547C115.308 72.4681 116.489 75.689 117.025 79.2319C117.133 80.0908 118.206 80.6276 118.958 80.3055C119.817 79.9834 120.246 79.2319 120.031 78.373C119.495 74.6154 118.206 70.9651 116.274 67.637ZM107.256 69.9988C106.933 69.2473 105.753 69.0326 105.001 69.462C104.249 69.9988 104.035 70.8578 104.464 71.7167C105.753 74.5081 106.934 77.2994 108.222 80.0907C108.544 80.8422 109.725 81.057 110.476 80.6275C111.228 80.0907 111.443 79.2319 111.013 78.373C109.832 75.689 108.544 72.8976 107.256 69.9988ZM74.5107 246.606C74.5107 246.606 74.618 246.606 74.5107 246.606C74.618 246.499 74.618 246.606 74.5107 246.606Z" fill="#DCDCDC"/>
</svg>
