<svg width="600" height="482" viewBox="0 0 600 482" fill="none" xmlns="http://www.w3.org/2000/svg">
<path d="M208.067 330.134C289.3 330.134 355.151 268.127 355.151 191.639C355.151 115.15 289.3 53.1436 208.067 53.1436C126.835 53.1436 60.9835 115.15 60.9835 191.639C60.9835 268.127 126.835 330.134 208.067 330.134Z" fill="#F4F6F9"/>
<path d="M467.021 190.028L461.009 184.875L453.923 178.863L423.54 153.203L420.427 156.854C419.246 157.605 418.387 158.679 418.065 160.182L411.516 186.056C410.979 187.988 411.516 190.136 412.804 191.961L404.645 201.516C405.181 200.013 405.503 198.51 405.611 196.899C405.825 194.537 405.289 191.746 403.249 190.565C401.424 189.491 399.062 190.028 397.237 191.102C395.411 192.283 394.016 193.893 392.405 195.181C386.071 200.335 377.16 200.335 369.108 201.408C337.544 205.703 307.913 223.632 295.244 253.8L294.922 253.908C290.091 256.055 286.119 260.027 284.079 264.966L283.649 264.536C274.416 263.677 266.257 270.012 259.708 276.561C241.779 294.705 228.358 317.25 221.165 341.729L222.024 336.468C201.196 286.975 171.457 239.951 135.17 201.838L134.633 205.488C136.136 187.666 140.752 126.793 140.752 126.793C153.636 123.572 179.831 116.701 179.831 116.701C164.586 97.8053 147.945 76.0112 130.875 54.6465C125.185 47.5607 117.67 41.2263 108.866 38.8644L80.7378 38.4351L69.4649 84.1706C62.5939 80.8424 53.6829 82.1307 48.2075 87.4988C41.9806 93.7257 41.2291 104.676 46.5971 111.655C49.9253 116.057 55.5081 118.526 60.9834 118.741L60.8761 119.17C51.6431 141.286 43.1616 159.43 33.7138 178.541C33.7138 178.541 25.7692 193.571 17.2878 199.154C13.6375 201.623 13.1006 241.346 13.8521 285.472C11.7049 286.008 9.66516 286.545 7.62531 287.189C4.51185 288.156 1.07626 289.981 0.86154 293.202C0.754179 295.563 2.79406 297.603 5.04863 298.355C7.3032 299.106 9.77246 298.784 12.1344 298.57C12.7786 298.462 13.4228 298.462 14.0669 298.355C14.0669 298.892 14.0669 299.429 14.0669 299.965C12.6713 300.287 11.2755 300.502 9.87985 300.824C6.76639 301.576 3.11616 303.186 2.79408 306.407C2.57936 308.769 4.40446 310.916 6.65903 311.775C8.91361 312.634 11.3829 312.526 13.7448 312.419C13.9595 312.419 14.1742 312.419 14.3889 312.419C14.3889 312.634 14.3889 312.741 14.3889 312.956C13.6374 313.063 12.7786 313.063 12.0271 313.171C8.80624 313.493 5.04855 314.674 4.29702 317.787C3.76022 320.149 5.37066 322.511 7.41051 323.692C9.45036 324.873 11.9197 325.088 14.2816 325.195C14.389 325.195 14.6037 325.195 14.7111 325.195C14.7111 326.269 14.8184 327.342 14.8184 328.309C13.4227 328.631 12.027 328.845 10.6313 329.167C7.51787 329.919 3.86763 331.529 3.54555 334.75C3.33083 337.112 5.15593 339.259 7.41051 340.226C9.66508 341.084 12.1343 340.977 14.4963 340.87C14.711 340.87 14.9258 340.87 15.2479 340.87C16.3215 377.372 17.6098 406.682 17.6098 406.682C17.6098 406.682 68.1766 341.836 129.265 391.651C193.681 444.258 258.097 372.326 299.968 393.798C341.839 415.271 343.664 446.405 343.664 446.405C350.213 431.16 350.32 413.338 344.093 398.093C340.658 389.719 335.29 381.774 335.075 372.756C334.753 364.382 338.832 356.652 341.087 348.6C346.133 330.778 341.946 310.487 330.136 296.1L330.351 295.564C335.289 288.692 337.974 280.211 337.866 271.729L339.477 272.159C343.986 271.407 348.495 269.69 352.789 268.509C353.541 268.294 354.185 268.079 354.722 267.972C354.937 268.187 355.151 268.509 355.473 268.723L364.277 276.131C366.746 278.171 370.396 277.956 372.544 275.487L377.268 269.904C380.274 269.582 383.28 268.831 386.071 267.864C387.145 267.542 388.218 267.113 389.185 266.576C389.614 266.791 390.043 266.898 390.473 267.113C394.66 268.831 396.915 267.435 398.096 265.503L398.31 265.073C399.491 262.174 398.418 258.739 396.27 256.377C395.948 256.055 395.626 255.733 395.197 255.411C395.197 255.303 395.304 255.196 395.304 255.089C398.31 256.377 401.424 257.665 404.966 259.168C409.154 260.886 411.408 259.49 412.589 257.558L412.804 257.128C413.985 254.23 412.911 250.794 410.764 248.432C408.617 246.07 405.718 244.782 402.819 243.601C402.175 243.386 401.424 243.064 400.78 242.849C400.887 242.742 400.887 242.635 400.994 242.527C404.108 243.386 407.114 244.245 410.764 245.211C415.166 246.392 417.206 244.675 418.172 242.527L418.279 242.098C419.138 239.092 417.528 235.764 415.059 233.831C414.951 233.724 414.844 233.616 414.736 233.509C417.635 233.939 420.963 235.871 423.755 236.837C426.868 237.911 430.089 238.877 433.202 239.736C434.813 240.166 436.53 240.595 438.248 240.488C439.966 240.38 441.684 239.521 442.543 238.126C443.509 236.408 443.079 234.153 442.006 232.543C440.825 230.932 439.107 229.859 437.39 228.893C431.27 225.457 424.506 223.31 417.635 221.699L430.411 206.562C431.914 206.991 433.524 206.991 435.027 206.454L460.042 196.255C460.794 195.933 461.438 195.503 461.975 194.967L462.19 195.181L467.021 190.028Z" fill="white"/>
<path d="M107.149 109.615C107.149 112.836 105.001 115.413 102.317 115.413C99.6333 115.413 97.4861 112.836 97.4861 109.615C97.4861 106.394 102.639 93.9404 102.639 93.9404C102.639 93.9404 107.149 106.502 107.149 109.615Z" fill="#9ED5F0"/>
<path d="M565.149 32.2082C531.223 3.54298 487.312 -0.214693 467.021 23.8341C464.23 27.1622 461.975 30.8126 460.365 34.7849L459.828 34.2481L424.399 153.418L468.417 189.921L580.072 136.241L579.857 136.026C583.615 133.771 586.943 130.873 589.842 127.437C610.133 103.603 599.075 60.8735 565.149 32.2082Z" fill="#FFE945"/>
<path d="M519.198 59.0485C508.462 72.4685 507.388 83.634 516.085 90.7198C518.983 93.0818 522.204 94.2628 525.532 94.2628C528.002 94.2628 530.686 93.6186 533.262 92.3302C538.845 89.6462 543.569 84.6002 546.682 80.7352C551.084 75.2599 553.876 69.9993 554.949 65.3828C556.452 58.9411 554.52 53.4657 549.581 49.386C544.643 45.4137 538.845 44.7695 532.725 47.4535C527.143 50.1375 522.312 55.2909 519.198 59.0485ZM546.897 64.4165C545.931 67.6373 543.676 71.6097 540.348 75.6894C536.698 80.3059 533.263 83.4194 530.256 85.1371C526.714 87.0696 523.707 87.0696 521.023 84.815C518.447 82.7751 517.803 79.769 518.984 75.904C519.95 72.5758 522.312 68.6036 525.64 64.4165C529.397 59.6926 532.726 56.6866 535.732 55.0762C537.342 54.2173 538.738 53.7878 540.134 53.7878C541.851 53.7878 543.354 54.432 544.857 55.613C546.575 56.9013 548.508 59.1558 546.897 64.4165ZM549.045 143.863C549.045 144.722 548.293 145.366 547.434 145.366H547.327C527.894 144.185 507.711 135.489 490.426 120.888C471.423 104.784 458.754 83.7414 455.748 63.1282C455.641 62.2693 456.178 61.4104 457.144 61.303C458.003 61.1957 458.861 61.7325 458.969 62.6988C461.868 82.5605 474.107 102.852 492.573 118.419C509.321 132.59 528.861 140.965 547.541 142.146C548.4 142.146 549.045 143.004 549.045 143.863ZM490.426 69.0331L496.653 73.9716L504.919 63.665L509.321 67.2078L515.011 61.8398L509.75 57.6527L528.968 33.8187L526.391 31.6715L527.572 30.2758L525.64 31.0274L523.6 29.417L485.058 39.4014L481.085 44.3401L498.8 58.619L490.426 69.0331ZM499.229 43.6959C504.49 42.3002 509.858 40.9045 514.045 39.7236C512.864 41.1193 511.898 42.4076 511.146 43.2665L503.523 52.7142L494.076 45.0916C495.686 44.6622 497.404 44.2327 499.229 43.6959ZM589.305 82.5605L586.728 80.4132L587.909 79.0175L585.976 79.7691L583.937 78.1587L545.394 88.1431L541.422 93.0817L559.136 107.361L550.87 117.667L557.097 122.606L565.363 112.299L569.765 115.842L575.455 110.474L570.194 106.287L589.305 82.5605ZM554.52 93.726C556.13 93.2965 557.848 92.867 559.566 92.3302C564.612 90.9345 570.194 89.5389 574.489 88.3579C573.308 89.7536 572.342 91.0419 571.59 91.9008L563.968 101.349L554.52 93.726Z" fill="white"/>
<path d="M63.6675 317.358C63.9896 319.398 60.8761 320.257 60.554 318.217C59.373 310.809 61.1982 303.616 63.6675 296.53C65.9221 290.195 68.606 283.969 69.787 277.42C71.1827 269.797 69.4649 262.389 68.1766 254.874C67.103 248.54 66.5663 242.098 68.284 235.764C69.7871 230.396 72.9005 225.35 78.0538 222.773C79.8789 221.807 81.4894 224.598 79.6642 225.564C74.0815 228.356 71.5048 234.368 70.6459 240.273C69.787 246.929 71.1827 253.478 72.2563 259.92C73.4373 266.898 73.8667 273.769 72.2563 280.748C69.5723 292.772 61.6276 304.582 63.6675 317.358ZM3.22344 203.448C3.8676 175.534 4.40449 147.621 5.04865 119.707C5.26337 111.87 5.37073 103.925 5.58545 96.0877C5.58545 94.0478 2.36464 94.0478 2.36464 96.0877C1.72047 124.001 1.18359 151.915 0.539428 179.829C0.324707 187.666 0.217346 195.611 0.00262511 203.448C-0.104735 205.595 3.11608 205.595 3.22344 203.448ZM78.2685 305.226C78.6979 307.588 77.9464 310.165 76.1213 311.775C75.0477 312.634 73.8667 313.171 72.471 313.063C71.0753 312.956 69.787 312.419 68.7134 311.453C67.2103 310.165 66.3514 308.125 66.5662 306.192H66.4588C65.7073 305.763 65.4926 304.689 65.922 303.938C67.2104 301.468 70.2164 300.18 73.0078 300.502C75.4771 300.824 77.7317 302.542 78.2685 305.226ZM69.8944 307.803C69.8944 307.803 69.7871 307.588 69.8944 307.803V307.803ZM75.155 306.729C75.155 306.514 75.155 306.407 75.155 306.192C75.155 306.192 75.155 306.192 75.155 306.085V305.978C75.155 305.87 75.155 305.87 75.155 305.763C75.155 305.548 75.0477 305.441 74.9403 305.226C74.9403 305.119 74.833 305.011 74.833 305.011C74.833 304.904 74.7256 304.797 74.6182 304.797C74.5108 304.582 74.2962 304.474 74.1889 304.367C74.0815 304.26 73.9741 304.26 73.9741 304.26C73.8667 304.152 73.7594 304.152 73.6521 304.045C73.4373 303.938 73.2225 303.938 73.0078 303.83C72.9004 303.83 72.7931 303.83 72.6858 303.723C72.4711 303.723 72.2564 303.723 72.0416 303.723C71.9343 303.723 71.8269 303.723 71.6122 303.723C71.5048 303.83 71.1828 303.83 70.968 303.83C70.7533 303.938 70.5385 303.938 70.3238 304.045C70.2164 304.045 70.1091 304.152 70.1091 304.152L70.0018 304.26C70.3239 304.797 70.3239 305.441 70.0018 305.87C70.0018 305.87 70.0018 305.978 69.8944 305.978C69.8944 306.085 69.787 306.3 69.787 306.3V306.407C69.787 306.407 69.787 306.622 69.787 306.729C69.787 306.836 69.787 306.944 69.787 307.051C69.787 307.051 70.0018 307.695 70.0018 307.803C70.0018 307.803 70.0017 307.91 70.1091 307.91C70.2165 308.017 70.2164 308.125 70.3238 308.232C70.4311 308.339 70.4312 308.447 70.5386 308.554C70.5386 308.554 70.5385 308.554 70.6459 308.662C70.8606 308.876 70.968 309.091 71.1827 309.198C71.1827 309.198 71.1827 309.198 71.29 309.198C71.3974 309.306 71.5048 309.306 71.6122 309.413C71.7195 309.52 71.8268 309.52 71.9342 309.628C72.1489 309.628 72.3637 309.735 72.5785 309.842C72.6858 309.842 72.7931 309.842 72.9005 309.842C73.0078 309.842 73.1153 309.842 73.1153 309.842C73.2226 309.842 73.3299 309.735 73.4373 309.735C73.652 309.628 73.7593 309.52 73.9741 309.413C74.0814 309.306 74.0815 309.306 74.1889 309.198C74.2962 309.091 74.4035 308.984 74.5109 308.769C74.5109 308.769 74.5109 308.769 74.5109 308.662C74.6182 308.554 74.6183 308.447 74.7257 308.339C74.833 308.232 74.833 308.017 74.9403 307.91V307.803C74.9403 307.695 75.0477 307.588 75.0477 307.481C75.155 307.266 75.155 307.051 75.155 306.836C75.155 306.944 75.155 306.836 75.155 306.729ZM44.2352 322.941C44.2352 323.048 44.2353 323.263 44.1279 323.37C44.1279 323.477 44.1278 323.692 44.0204 323.799C43.4836 325.947 41.9806 327.557 40.0482 328.309C42.1954 330.026 43.5911 332.388 43.8058 335.18C43.8058 335.394 43.8058 335.609 43.6984 335.824C43.6984 335.931 43.6984 336.038 43.6984 336.038C43.3764 338.615 41.5512 340.548 39.0819 341.407C37.3641 341.943 35.539 341.943 33.8212 341.943C31.7813 342.051 29.7415 342.051 27.7017 342.158C24.803 342.265 21.9043 342.373 19.0055 342.48C19.6497 368.569 20.6158 394.657 22.0115 420.639C22.1189 422.679 18.8981 422.679 18.7907 420.639C17.7171 400.884 16.9657 381.023 16.3215 361.268C16.1068 355.041 15.9994 348.814 15.7847 342.587C12.7786 342.695 9.66507 342.802 6.98106 341.407C4.40441 340.011 2.47194 337.112 3.11611 334.106C3.65291 331.529 5.90756 329.812 8.16213 328.845C10.4167 327.879 12.886 327.342 15.2479 326.913C12.4565 326.698 9.55779 326.483 7.19586 324.98C4.72657 323.37 2.90139 320.471 3.65291 317.465C4.08235 315.64 5.37065 314.244 6.98106 313.385C6.65898 313.278 6.44434 313.171 6.12225 313.063C3.5456 311.668 1.61314 308.769 2.2573 305.763C2.7941 303.186 5.04862 301.468 7.30319 300.502H7.41053C6.55164 300.395 5.5854 300.18 4.72652 299.751C2.0425 298.57 -0.104631 295.993 0.110091 292.987C0.324812 290.196 2.47192 288.263 4.83385 287.082C7.83994 285.579 11.3829 284.72 14.7111 283.969C14.7111 274.521 14.7111 264.966 14.8184 255.518C15.1405 220.196 16.1067 184.982 17.7171 149.661C17.8245 147.621 21.0453 147.621 20.9379 149.661C19.9717 169.415 19.3275 189.277 18.7907 209.031C18.2539 230.503 17.9319 251.975 17.9319 273.34C23.8367 276.024 29.4195 279.46 34.6801 283.217C35.1096 283.432 35.6464 283.647 36.0759 283.969C38.6525 285.579 40.3702 288.048 40.6923 291.054V291.162C40.6923 291.269 40.6923 291.377 40.6923 291.484C40.4776 294.168 39.1893 296.315 36.72 297.389C36.2906 297.603 35.7537 297.711 35.3243 297.818C36.3979 298.14 37.3642 298.57 38.2231 299.214C40.7997 300.932 42.5175 303.508 42.7322 306.622C42.7322 306.836 42.7322 307.051 42.6248 307.266C42.6248 307.373 42.6248 307.481 42.6248 307.481C42.3028 310.057 40.4776 311.99 38.0083 312.849C37.6862 312.956 37.3642 312.956 37.1495 313.063C38.2231 313.493 39.1892 314.137 40.1555 314.889C42.8395 317.036 44.3426 319.934 44.2352 322.941ZM18.2539 283.432C20.9379 282.895 23.7294 282.466 26.5208 282.251C26.8428 282.251 27.2723 282.251 27.5944 282.144C24.5883 280.211 21.4747 278.493 18.2539 276.99C18.2539 279.137 18.2539 281.285 18.2539 283.432ZM10.4167 297.496C13.3154 297.389 16.2141 296.852 19.1129 296.637C21.7969 296.315 24.4809 296.1 27.1649 295.886C28.5606 295.778 30.0636 295.564 31.4593 295.456C32.855 295.349 34.2506 295.241 35.4316 294.812C36.8273 294.275 37.6863 293.309 37.7936 291.806C37.7936 291.699 37.7936 291.699 37.7936 291.591C37.7936 291.484 37.7936 291.484 37.7936 291.377C37.6863 290.196 37.0421 289.229 36.2905 288.37C35.9685 288.263 35.7538 288.156 35.5391 287.941C34.8949 287.404 34.2507 286.975 33.6065 286.438C33.3918 286.331 33.1771 286.223 32.9624 286.223C29.7416 285.15 26.1986 285.579 22.9778 286.116C19.9717 286.545 16.8582 287.189 13.9595 287.941C11.3828 288.585 8.69883 289.229 6.44426 290.518C4.83385 291.484 3.11616 292.987 3.97504 295.027C4.94129 297.174 8.05474 297.603 10.4167 297.496ZM12.2418 311.238C15.1405 311.238 18.0392 311.023 20.9379 310.916C23.6219 310.809 26.3061 310.701 29.0974 310.594C30.6005 310.594 32.1035 310.487 33.7139 310.487C35.0022 310.487 36.3978 310.487 37.5788 310.057C39.0819 309.52 39.7261 308.447 39.9408 307.051V306.944C39.7261 304.152 37.2568 302.005 34.7875 301.146C31.7814 300.073 28.4533 300.395 25.3398 300.61C22.2264 300.824 19.2202 301.254 16.1067 301.79C13.6374 302.22 10.9534 302.649 8.59147 303.83C6.98106 304.582 5.0486 306.085 5.80012 308.232C6.76637 310.701 9.87982 311.238 12.2418 311.238ZM35.4316 329.49C32.4255 328.416 29.0974 328.738 25.984 328.953C22.8705 329.167 19.7571 329.597 16.751 330.134C14.2817 330.563 11.5977 330.993 9.23574 332.066C7.62533 332.818 5.69273 334.321 6.44426 336.468C7.4105 339.045 10.524 339.581 12.8859 339.581C15.7846 339.581 18.6835 339.367 21.5822 339.259C24.2662 339.152 26.9502 339.045 29.7416 339.045C31.2446 339.045 32.7476 338.937 34.358 338.937C35.6463 338.937 37.0421 338.937 38.2231 338.508C39.7261 337.971 40.3702 336.897 40.585 335.502V335.394C40.3702 332.496 37.9009 330.348 35.4316 329.49ZM40.9071 322.941C41.3365 315.962 32.4255 314.888 27.3796 314.674C24.1587 314.459 21.0454 314.459 17.8246 314.674C15.2479 314.781 12.4565 314.888 9.98721 315.747C8.16208 316.391 6.22954 317.787 6.98106 319.934C7.83994 322.511 10.7388 323.37 13.1007 323.692C18.5761 324.444 24.2662 324.658 29.7416 325.195C31.1373 325.302 32.6403 325.517 34.036 325.625C35.3243 325.732 36.72 325.947 38.0083 325.732C39.6187 325.41 40.585 324.444 40.9071 322.941ZM75.155 306.085C75.155 305.978 75.155 305.978 75.155 305.978C75.155 306.085 75.155 306.192 75.155 306.085C75.155 306.085 75.155 306.192 75.155 306.085ZM328.311 280.962C329.6 279.03 330.888 276.99 332.176 275.058C332.606 274.306 332.391 273.233 331.639 272.803C330.781 272.374 329.922 272.588 329.385 273.34C328.096 275.272 326.808 277.312 325.52 279.245C325.09 279.996 325.305 281.07 326.057 281.499C326.915 282.036 327.774 281.714 328.311 280.962ZM470.349 189.813L463.8 197.543L463.371 197.221C462.941 197.436 462.512 197.758 462.083 197.866L437.067 208.065C436.101 208.494 435.027 208.602 433.954 208.602C433.417 208.602 432.988 208.601 432.451 208.494L422.466 220.304C427.405 221.699 432.236 223.417 436.853 225.672C440.181 227.39 443.939 229.43 444.797 233.295C445.656 237.052 443.294 240.38 439.537 241.024C437.282 241.454 435.135 240.917 432.988 240.273C430.733 239.629 428.479 238.985 426.224 238.233C424.184 237.589 422.252 236.837 420.319 236.086C420.319 236.086 420.212 236.086 420.212 235.979C421.286 238.018 421.715 240.273 421.178 242.527C421.178 242.742 421.071 242.85 420.963 243.064C420.963 243.172 420.856 243.279 420.856 243.386C419.675 245.856 417.313 247.251 414.629 247.251C414.092 247.251 413.556 247.144 412.911 247.037C413.448 247.573 413.878 248.003 414.307 248.647C416.132 251.224 416.884 254.552 415.703 257.558C415.703 257.665 415.595 257.773 415.488 257.88C415.488 257.987 415.381 258.202 415.273 258.309C413.663 260.886 410.979 261.96 407.973 261.423C406.04 261.101 404.323 260.135 402.497 259.383C401.853 259.168 401.316 258.846 400.672 258.632C401.638 260.779 401.853 263.355 400.994 265.61C400.994 265.717 400.887 265.825 400.78 265.932C400.78 266.039 400.672 266.254 400.565 266.361C398.954 268.938 396.27 270.012 393.264 269.475C391.332 269.153 389.614 268.187 387.789 267.435C386.501 266.898 385.105 266.362 383.817 265.717L374.584 276.668C373.295 278.171 371.47 279.137 369.538 279.245C369.323 279.245 369.108 279.245 368.894 279.245C367.176 279.245 365.458 278.601 364.062 277.527L355.259 270.119C354.829 269.69 354.4 269.26 354.078 268.831C353.541 268.938 353.004 269.153 352.467 269.26C348.388 270.441 344.415 271.944 340.228 272.696C340.014 281.07 337.437 289.229 332.713 296.1C341.624 307.588 346.24 322.189 345.381 336.683C344.952 343.768 343.02 350.425 340.658 357.081C338.188 364.06 336.149 371.038 338.081 378.339C339.906 385.317 343.771 391.651 346.455 398.308C349.139 405.071 350.642 412.264 350.857 419.458C351.394 433.2 347.529 447.049 339.584 458.43C332.284 468.951 321.977 477.11 310.06 481.834C308.127 482.586 307.268 479.472 309.201 478.721C322.084 473.675 333.035 464.012 339.906 451.988C346.67 440.178 349.139 426.007 346.992 412.479C345.918 405.501 343.449 399.059 340.443 392.725C337.544 386.605 334.431 380.271 334.001 373.293C333.572 365.992 336.471 359.228 338.833 352.465C340.98 346.238 342.268 339.796 342.161 333.247C342.161 320.364 337.759 307.481 329.599 297.389C329.17 296.959 329.17 296.422 329.277 295.886C329.17 295.564 329.278 295.241 329.492 294.812C334.001 288.478 336.471 280.963 336.793 273.233C322.299 270.119 308.557 264 296.532 255.411H296.425C295.244 255.948 294.171 256.592 293.097 257.236C292.453 257.665 292.238 257.773 291.809 258.309C291.379 258.739 290.842 259.168 290.413 259.598C289.983 260.027 289.554 260.564 289.125 260.993C288.91 261.316 288.803 261.316 288.695 261.53C288.481 261.745 288.373 262.067 288.158 262.282C287.836 262.819 287.514 263.355 287.192 263.892C287.085 264.214 286.87 264.429 286.763 264.751C286.655 264.858 286.655 265.073 286.548 265.181C286.548 265.181 286.333 265.61 286.441 265.395C286.226 265.932 285.904 266.361 285.367 266.469C286.87 269.153 288.695 271.73 290.735 274.092C290.735 273.984 290.842 273.984 290.95 273.877C292.882 271.944 294.922 269.904 296.855 267.972C297.499 267.328 298.465 267.435 299.109 267.972C299.753 268.509 299.753 269.69 299.109 270.226C297.177 272.159 295.137 274.199 293.204 276.131C293.097 276.239 292.99 276.346 292.882 276.346C295.566 279.03 298.572 281.499 301.793 283.539C303.082 281.821 304.263 279.996 305.551 278.278C306.088 277.527 306.946 277.312 307.805 277.742C308.557 278.171 308.879 279.245 308.342 279.996C307.054 281.714 305.873 283.539 304.584 285.257C307.054 286.545 309.631 287.619 312.315 288.478C314.247 289.122 313.496 292.235 311.456 291.591C308.235 290.625 305.229 289.337 302.33 287.726C302.008 287.834 301.578 287.726 301.256 287.512C300.934 287.297 300.719 287.082 300.612 286.653C293.097 282.144 286.763 275.702 282.576 267.972C282.254 267.328 282.361 266.684 282.683 266.254C276.027 266.469 270.122 270.226 265.291 274.521C257.775 281.177 251.119 289.015 245.429 297.389C245.429 297.603 245.321 297.818 245.214 298.14C243.711 300.609 242.208 303.186 240.705 305.763C234.8 316.284 229.539 327.128 225.46 338.508C230.184 349.995 234.478 361.59 238.343 373.4C240.276 379.305 242.208 385.21 243.604 391.222C244.677 396.16 245.322 401.958 242.423 406.467C239.524 411.083 233.941 412.587 228.895 411.298C223.635 410.01 219.555 406.252 216.978 401.636C214.294 396.59 213.328 390.792 213.221 385.21C213.006 379.305 213.65 373.293 214.509 367.495C215.797 359.014 217.945 350.64 220.736 342.48C220.629 342.158 220.629 341.943 220.736 341.514C221.058 340.333 221.487 339.152 221.917 337.971C220.199 333.891 218.481 329.812 216.656 325.839C206.457 303.294 194.433 281.499 180.798 260.886C168.129 241.669 153.85 223.417 138.176 206.562C137.961 206.884 137.639 207.206 137.209 207.313C128.835 210.856 119.924 213.003 110.906 213.862C95.5536 215.258 79.9863 212.681 65.922 206.24C52.9314 200.335 41.3365 191.102 32.5329 179.829C31.9961 179.185 31.8888 178.219 32.5329 177.574C32.855 177.252 33.2844 177.145 33.8212 177.145C35.7537 173.28 37.5789 169.415 39.5114 165.55C46.7045 150.627 53.4683 135.596 59.8025 120.458C54.5419 119.707 49.6033 117.13 46.3825 112.943C40.585 105.213 41.3365 93.511 48.2075 86.6399C52.2872 82.5602 58.2995 80.6278 63.9896 81.0572C55.5081 63.5574 54.7565 27.4843 73.9741 18.3586C98.9891 6.54897 114.556 24.3708 131.841 0C141.719 13.3127 133.667 32.4229 125.937 36.9321C122.93 38.7572 119.924 39.7234 117.133 40.2602C121.213 42.3001 124.863 45.0914 128.084 48.3122C133.13 53.1435 137.209 59.0483 141.504 64.4163C146.12 70.3212 150.737 76.1187 155.353 82.0235C164.157 93.2963 172.96 104.569 181.979 115.735C182.73 116.594 182.516 118.097 181.227 118.419C180.046 118.741 178.973 119.063 177.792 119.278C166.304 122.284 154.709 125.29 143.222 128.296C143.007 130.443 142.9 132.59 142.685 134.737C141.719 146.977 140.86 159.216 139.893 171.347C139.142 181.332 138.39 191.316 137.532 201.301C139.571 203.448 141.504 205.595 143.544 207.743C160.721 226.745 176.074 247.251 189.601 268.938C202.485 289.444 213.65 311.023 223.205 333.354C224.923 328.523 226.855 323.799 229.003 319.183C234.908 306.514 242.53 294.705 251.548 284.183C255.95 279.03 260.674 273.877 266.042 269.69C271.303 265.61 277.422 262.604 284.186 263.033C286.548 258.524 290.198 254.767 294.922 252.727C295.566 251.331 296.103 249.935 296.747 248.647C302.867 236.193 312.422 225.672 323.695 217.62C335.075 209.568 348.28 204.092 361.808 201.301C365.351 200.549 368.894 200.013 372.436 199.583C376.194 199.154 379.952 198.832 383.602 197.973C387.36 197.007 390.688 195.504 393.479 192.82C396.163 190.243 399.706 187.344 403.786 188.847C406.792 189.921 407.865 193.142 407.973 196.04L411.516 191.853C410.442 189.921 410.12 187.774 410.657 185.734L417.206 159.86C417.313 159.43 417.42 159.001 417.635 158.679L417.743 158.571C418.279 157.391 419.138 156.424 420.104 155.78L424.077 151.056L430.948 156.854L462.727 183.694L470.349 189.813ZM138.713 148.802C139.249 141.609 139.786 134.415 140.323 127.115C140.323 126.363 140.752 125.719 141.504 125.612C144.832 124.753 148.16 123.894 151.488 123.035C160.399 120.781 169.31 118.419 178.114 116.057C173.819 110.689 169.525 105.321 165.338 99.9526C156.32 88.4651 147.409 76.9775 138.283 65.4899C130.553 55.8275 122.931 44.984 110.691 41.0117C101.888 41.6558 94.6947 41.1191 89.8635 54.5392C86.6427 63.6649 88.6825 76.0113 76.1213 83.7412L72.6858 83.6339C73.2226 83.956 73.8667 84.3854 74.4035 84.7075C75.1551 85.2443 75.2625 86.2105 74.7257 86.962C74.1889 87.7136 73.2225 87.821 72.471 87.2842C66.1367 82.4529 56.0448 83.097 50.4621 88.6798C44.8793 94.2625 44.1279 104.354 48.9591 110.689C53.7904 117.023 63.6675 119.063 70.6459 115.09C71.3974 114.661 72.3637 114.876 72.7931 115.735C73.2226 116.486 73.0079 117.452 72.149 117.882C69.3576 119.492 66.2441 120.244 63.1307 120.351C61.1982 124.86 59.373 129.262 57.4405 133.771C50.7842 149.124 43.5911 164.262 36.2905 179.185C40.7997 184.66 45.8456 189.599 51.5357 193.786C62.9159 202.267 76.336 207.85 90.4003 209.89C105.109 212.037 120.354 210.212 134.203 204.737C134.633 199.368 135.062 194 135.492 188.632C136.673 175.534 137.746 162.114 138.713 148.802ZM224.064 343.017C220.629 353.324 217.945 363.952 216.978 374.796C216.012 384.888 215.583 398.093 224.064 405.286C227.5 408.292 233.297 409.903 237.377 407.326C241.886 404.535 241.886 398.522 241.135 394.013C240.168 388.323 238.128 382.74 236.411 377.265C234.585 371.468 232.653 365.67 230.613 359.872C228.466 354.29 226.319 348.6 224.064 343.017ZM391.976 215.473C390.151 215.795 388.326 215.902 386.608 216.654C384.89 217.405 383.924 219.016 382.85 220.411C381.562 222.022 380.059 223.31 378.556 224.706C375.55 227.712 372.758 230.825 369.323 233.402C362.989 238.233 354.292 241.024 346.563 238.018C344.63 237.267 345.489 234.153 347.421 234.905C349.139 235.549 350.964 235.978 352.789 236.086C360.842 236.301 367.605 231.362 372.973 225.994C374.369 224.598 375.657 223.095 377.16 221.7C378.556 220.411 379.737 219.23 380.918 217.727C381.884 216.439 382.958 215.043 384.353 214.292C386.071 213.325 388.004 213.003 389.936 212.681C392.191 212.359 394.231 211.608 396.163 210.534L404.215 200.979C405.074 198.51 405.825 194.645 403.893 192.605C401.102 189.706 396.915 194.645 394.875 196.362C389.292 201.086 381.991 202.053 375.013 202.804C368.357 203.556 361.915 204.629 355.473 206.454C343.02 209.997 331.103 215.795 321.011 223.954C311.348 231.791 303.511 241.669 298.465 253.049C310.275 261.423 323.695 267.435 337.866 270.441C338.081 270.119 338.403 269.904 338.833 269.904C340.98 269.582 343.02 269.046 345.06 268.401C347.099 267.757 349.032 267.113 350.964 266.576C351.609 266.362 352.145 266.254 352.789 266.039C352.36 263.892 352.897 261.638 354.4 259.813L391.976 215.473ZM379.093 240.058C380.166 238.555 381.884 237.804 383.602 237.589C382.421 236.193 381.669 234.261 381.777 232.436L370.826 245.426C371.148 245.426 371.47 245.426 371.685 245.426C373.939 245.534 376.194 246.07 378.449 246.607C377.697 244.46 377.697 241.883 379.093 240.058ZM380.918 264.429C378.234 263.355 375.657 262.174 372.973 261.101C369.967 259.92 366.854 258.739 364.921 256.055C364.384 255.411 364.062 254.659 363.848 253.8L357.191 261.638C355.688 263.463 355.903 266.147 357.728 267.65L366.532 275.058C368.357 276.561 371.041 276.346 372.544 274.521L380.918 264.429ZM394.123 255.948C391.976 254.981 389.721 254.122 387.574 253.264C386.071 252.619 384.461 252.083 383.065 251.224C381.777 250.794 380.596 250.472 379.307 250.15C376.838 249.506 374.154 248.754 371.578 248.647C369.752 248.54 367.283 248.862 366.746 250.902C366.102 253.371 368.357 255.411 370.289 256.484C372.759 257.773 375.442 258.739 377.912 259.705C380.381 260.779 382.85 261.745 385.427 262.819C388.111 263.892 390.795 265.395 393.479 266.147C395.304 266.684 396.914 266.361 397.988 264.751C397.988 264.751 397.988 264.644 398.096 264.644C399.491 260.886 397.237 257.987 394.123 255.948ZM402.283 244.782C400.028 243.923 397.666 243.172 395.304 242.527C394.66 242.42 394.123 242.205 393.479 242.098C392.298 241.776 391.01 241.561 389.829 241.132C388.541 240.917 387.36 240.702 386.071 240.595C384.246 240.488 381.777 240.81 381.24 242.849C380.703 245.104 382.421 247.037 384.246 248.11C386.93 248.969 389.507 249.935 391.976 251.009C393.372 251.653 394.767 252.405 396.056 253.264C397.344 253.8 398.632 254.337 399.921 254.874C402.605 255.948 405.289 257.451 407.973 258.202C409.798 258.739 411.408 258.417 412.482 256.806C412.482 256.806 412.482 256.699 412.589 256.699C414.951 250.257 407.114 246.607 402.283 244.782ZM414.522 234.583C411.945 232.865 408.939 232.113 405.933 231.469C402.927 230.825 399.813 230.288 396.807 229.966C394.338 229.644 391.654 229.322 389.077 229.644C387.252 229.859 384.89 230.825 385.105 233.08C385.32 235.764 388.004 237.159 390.258 237.911C390.473 238.018 390.58 238.018 390.795 238.018C392.62 238.448 394.338 238.877 396.163 239.414C396.485 239.521 396.807 239.629 397.129 239.736C397.666 239.844 398.096 239.951 398.632 240.058C401.209 240.702 403.893 241.454 406.47 242.205C407.865 242.635 409.261 242.957 410.657 243.279C411.945 243.601 413.341 244.138 414.736 244.138C416.454 244.138 417.528 243.386 418.172 241.883C418.172 241.883 418.172 241.883 418.172 241.776C418.709 238.877 416.884 236.086 414.522 234.583ZM420.212 222.988L413.878 230.503C414.2 230.61 414.522 230.825 414.844 230.932C415.059 230.932 415.273 230.932 415.488 231.04C417.313 231.362 419.031 232.114 420.749 232.865C422.681 233.724 424.506 234.475 426.439 235.012C428.478 235.656 430.626 236.301 432.666 236.945C434.705 237.481 436.96 238.34 439.107 237.911C440.718 237.589 442.006 236.408 441.791 234.583C441.577 232.758 440.181 231.469 438.678 230.503C435.457 228.356 431.699 226.745 428.049 225.457C425.472 224.384 422.896 223.632 420.212 222.988ZM431.163 206.454C425.58 202.267 419.997 197.973 414.414 193.786L407.007 202.482C406.47 203.985 405.718 205.488 404.752 206.776C403.034 209.353 400.672 211.5 398.096 213.003L386.501 226.745C387.467 226.423 388.326 226.316 389.292 226.209C392.513 225.887 395.948 226.423 399.169 226.853C402.927 227.39 406.792 228.034 410.442 229.107H410.549L430.196 205.81C430.626 206.24 430.841 206.347 431.163 206.454ZM460.687 194.859L420.534 160.933L414.092 186.593C413.77 187.666 413.985 188.955 414.522 190.028C414.736 190.028 414.951 190.135 415.059 190.243C421.178 194.859 427.19 199.476 433.31 204.092C433.739 204.414 434.061 204.951 434.061 205.488C434.706 205.488 435.242 205.381 435.779 205.166L460.687 194.859ZM461.009 186.056L429.23 159.216C427.942 158.142 426.439 157.605 424.936 157.605C424.399 157.605 423.862 157.713 423.325 157.82C423.003 157.927 422.789 158.035 422.574 158.142L422.466 158.249L463.156 192.605C463.264 192.283 463.371 191.961 463.371 191.639C463.693 189.706 462.727 187.559 461.009 186.056ZM79.5569 248.754C79.5569 248.647 79.5569 248.647 79.5569 248.754C79.5569 248.647 79.5569 248.647 79.5569 248.754ZM105.216 142.253C97.3786 140.642 89.0045 143.434 83.7438 149.446C82.3482 151.056 84.7102 153.311 85.9985 151.7C90.5077 146.547 97.5934 143.971 104.357 145.259C106.397 145.796 107.256 142.682 105.216 142.253ZM57.3332 92.5447C55.2933 92.5447 55.2933 95.7656 57.3332 95.7656C63.4527 95.6582 69.2502 98.4496 73.0078 103.173C73.5446 103.818 74.7257 103.71 75.2625 103.173C75.9066 102.529 75.7993 101.563 75.2625 100.919C70.968 95.6582 64.2043 92.5447 57.3332 92.5447ZM93.6211 65.2753C94.3726 65.7047 95.3388 65.49 95.8756 64.7385C96.1977 64.2017 96.5198 63.6648 96.8419 63.2354L96.9492 63.1281C97.0566 63.0207 97.164 62.9133 97.2714 62.6986C97.4861 62.4839 97.7008 62.2692 97.9155 62.0544C98.345 61.625 98.7743 61.1955 99.3111 60.766L99.4186 60.6587C99.5259 60.5513 99.6332 60.444 99.7406 60.444C100.063 60.2293 100.277 60.122 100.6 59.9072C101.351 59.4778 101.673 58.4041 101.136 57.6526C100.707 56.901 99.7407 56.579 98.8818 57.1158C96.4125 58.6188 94.3725 60.7661 92.8695 63.2354C92.5474 63.7722 92.8696 64.8458 93.6211 65.2753ZM136.029 214.721C128.728 218.479 121.213 222.129 113.161 223.954C109.296 224.813 105.323 225.242 101.351 224.92C97.3787 224.598 93.6211 223.31 89.8635 221.7C86.2132 220.089 82.6703 218.479 78.698 217.727C74.7256 216.976 70.6459 216.976 66.5662 216.654C60.0172 216.009 53.6829 213.325 48.637 209.138C43.1616 204.522 39.0819 198.188 37.4715 191.209C37.042 189.169 33.9286 190.028 34.358 192.068C37.3641 205.273 48.4223 216.331 61.6276 219.23C65.7073 220.196 70.0018 220.196 74.1889 220.519C78.5906 220.948 82.563 222.236 86.6427 223.954C90.4003 225.564 94.1578 227.175 98.2375 227.926C102.317 228.571 106.504 228.463 110.584 227.819C120.139 226.316 128.943 221.914 137.424 217.62C139.464 216.546 137.854 213.755 136.029 214.721ZM82.4556 245.212C83.5292 247.466 82.9924 250.043 81.2746 251.868C80.5231 252.727 79.4494 253.371 78.3758 253.693C77.7317 253.908 76.8728 254.015 76.2286 253.8C75.4771 253.586 74.9403 252.727 74.4035 252.19C74.2962 252.083 74.2962 251.975 74.1889 251.868C73.4373 252.297 72.5785 251.868 72.0416 251.224C70.646 249.291 70.7532 246.607 71.9342 244.675C73.0078 242.85 75.0477 241.669 77.1949 241.776C79.3421 241.991 81.4893 243.172 82.4556 245.212ZM79.8789 247.359C79.8789 247.251 79.8789 247.251 79.8789 247.251C79.8789 247.144 79.8789 247.037 79.7716 246.929C79.7716 246.822 79.7716 246.822 79.6642 246.715C79.6642 246.822 79.7716 246.822 79.7716 246.929C79.7716 246.929 79.5569 246.607 79.5569 246.5C79.5569 246.392 79.4494 246.392 79.4494 246.285L79.3421 246.178L79.4494 246.285C79.4494 246.178 79.2348 245.963 79.1274 245.963C79.0201 245.856 78.9126 245.748 78.8053 245.641C78.8053 245.641 78.8053 245.641 78.698 245.641C78.5906 245.534 78.4832 245.534 78.3758 245.426C78.2685 245.319 78.1612 245.319 77.9465 245.212C77.8391 245.212 77.6243 245.104 77.839 245.212C78.0537 245.212 77.7317 245.212 77.7317 245.212C77.517 245.104 77.4096 245.104 77.1949 245.104C77.1949 245.104 77.0876 245.104 76.9802 245.104C76.7655 245.104 76.6581 245.104 76.4434 245.104C76.4434 245.104 76.5508 245.104 76.3361 245.104H76.2286C76.0139 245.104 75.9065 245.212 75.6918 245.212C75.6918 245.212 75.6918 245.212 75.5845 245.212C75.4771 245.212 75.4771 245.212 75.5845 245.212H75.4771C75.4771 245.212 75.2624 245.319 75.155 245.426C75.2624 245.426 75.2624 245.319 75.155 245.426C75.0476 245.426 75.0477 245.534 74.9403 245.534C74.9403 245.534 74.833 245.748 74.7257 245.856C74.7257 245.748 74.7257 245.748 74.7257 245.856C74.7257 245.963 74.6182 245.963 74.6182 246.07C74.5108 246.178 74.5109 246.285 74.4035 246.392C74.4035 246.392 74.4035 246.392 74.4035 246.5C74.4035 246.607 74.4035 246.607 74.4035 246.607V246.715C74.2962 246.929 74.2962 247.037 74.2962 247.251V247.359V247.466C74.2962 247.573 74.2962 247.573 74.2962 247.466C74.2962 247.573 74.2962 247.788 74.2962 247.896C74.2962 248.003 74.2962 248.218 74.2962 248.325C74.2962 248.432 74.2962 248.54 74.4035 248.54C74.4035 248.647 74.5109 248.754 74.5109 248.969C74.5109 249.076 74.6182 249.076 74.6182 249.184C74.7256 249.291 74.833 249.506 74.833 249.613C75.4772 249.291 76.2286 249.399 76.6581 249.935C76.8728 250.15 77.0875 250.365 77.3022 250.58C77.3022 250.58 77.3023 250.58 77.4097 250.58C77.517 250.58 77.517 250.58 77.6243 250.472C77.6243 250.472 77.7317 250.472 77.839 250.365C77.9464 250.365 77.9465 250.257 77.9465 250.257C78.1612 250.15 78.2686 250.043 78.4833 249.935C78.5906 249.828 78.5906 249.828 78.698 249.721C78.698 249.721 79.0201 249.398 79.1274 249.291C79.1274 249.291 79.1274 249.184 79.2348 249.184C79.3421 249.076 79.3421 248.969 79.3421 248.969C79.4494 248.862 79.4495 248.754 79.5569 248.647C79.6642 248.54 79.5569 248.54 79.5569 248.54C79.5569 248.432 79.6642 248.218 79.7716 248.11C79.7716 248.003 79.7715 247.896 79.8789 247.896C79.8789 247.788 79.8789 247.573 79.8789 247.359ZM76.4434 244.997C76.4434 244.997 76.5508 244.997 76.4434 244.997C76.5508 244.997 76.5508 244.997 76.4434 244.997ZM75.3698 245.426C75.3698 245.426 75.4772 245.426 75.3698 245.426C75.4772 245.426 75.4772 245.426 75.3698 245.426ZM113.483 55.7201C113.375 55.7201 113.375 55.7201 113.268 55.7201C113.161 55.7201 112.946 55.7201 112.839 55.7201C112.517 55.7201 112.302 55.6128 111.98 55.6128C111.658 55.6128 111.336 55.6127 111.121 55.5053C110.906 55.6127 110.799 55.7201 110.584 55.8275C109.832 56.0422 108.759 55.5054 108.652 54.7539C108.329 53.3582 109.403 52.2845 110.799 52.2845C111.55 52.2845 112.409 52.392 113.161 52.4993C114.878 52.7141 116.596 53.0361 118.207 53.3581C119.066 53.5729 119.495 54.5392 119.28 55.2907C119.066 56.1496 118.099 56.579 117.348 56.3643C115.952 56.1496 114.771 55.9349 113.483 55.7201ZM74.9403 245.963C74.9403 245.856 74.9403 245.963 74.9403 245.963V245.963ZM116.274 67.6371C115.845 66.8856 114.771 66.6709 114.02 67.1003C113.268 67.5298 112.946 68.6034 113.483 69.3549C115.308 72.4683 116.489 75.6892 117.026 79.2321C117.133 80.091 118.207 80.6278 118.958 80.3057C119.817 79.9837 120.246 79.2321 120.032 78.3732C119.495 74.6156 118.207 70.9653 116.274 67.6371ZM107.256 69.999C106.934 69.2475 105.753 69.0328 105.001 69.4622C104.25 69.999 104.035 70.858 104.464 71.7169C105.753 74.5083 106.934 77.2996 108.222 80.0909C108.544 80.8425 109.725 81.0572 110.477 80.6277C111.228 80.0909 111.443 79.2321 111.013 78.3732C109.832 75.6892 108.544 72.8978 107.256 69.999ZM74.5109 246.607C74.5109 246.607 74.6182 246.607 74.5109 246.607C74.6182 246.5 74.6182 246.607 74.5109 246.607Z" fill="black"/>
</svg>
