<svg width="600" height="437" viewBox="0 0 600 437" fill="none" xmlns="http://www.w3.org/2000/svg">
<path d="M393.428 419.663H146.153C141.301 419.663 136.577 418.113 132.669 415.239C128.76 412.366 125.872 408.318 124.425 403.688L74.3754 243.284C73.7801 241.374 73.6422 239.352 73.9729 237.379C74.3035 235.406 75.0935 233.539 76.2789 231.928C77.4643 230.317 79.012 229.007 80.7969 228.105C82.5818 227.202 84.554 226.732 86.5542 226.732H333.227L393.428 419.663Z" fill="#2B2E3D"/>
<path d="M333.226 226.734L393.427 419.664H146.152C141.301 419.664 136.576 418.114 132.668 415.241C128.759 412.367 125.871 408.32 124.424 403.689L74.3745 243.285C73.7792 241.376 73.6414 239.353 73.972 237.38C74.3027 235.408 75.0926 233.541 76.2781 231.93C77.4635 230.319 79.0111 229.009 80.7961 228.106C82.581 227.204 84.5532 226.734 86.5533 226.734H333.226ZM333.226 222.199H86.5533C83.8423 222.2 81.1695 222.839 78.7506 224.063C76.3317 225.287 74.2344 227.063 72.628 229.247C71.0216 231.431 69.9511 233.962 69.5028 236.636C69.0545 239.309 69.2409 242.051 70.0472 244.639L120.097 405.037C121.813 410.601 125.271 415.467 129.962 418.917C134.653 422.367 140.329 424.219 146.152 424.199H393.427C394.137 424.199 394.838 424.031 395.472 423.71C396.106 423.389 396.656 422.924 397.077 422.352C397.498 421.779 397.779 421.116 397.896 420.415C398.014 419.714 397.965 418.995 397.754 418.317L337.553 225.38C337.265 224.458 336.69 223.652 335.911 223.08C335.133 222.508 334.192 222.199 333.226 222.199V222.199Z" fill="#323544"/>
<path d="M396.589 419.663H155.286C151.792 419.664 148.388 418.549 145.573 416.479C142.757 414.409 140.677 411.494 139.635 408.158L85.3941 234.428C85.118 233.541 85.0544 232.6 85.2084 231.684C85.3624 230.767 85.7297 229.899 86.2806 229.15C86.8316 228.401 87.5508 227.792 88.3802 227.372C89.2097 226.952 90.1263 226.733 91.056 226.732H337.178C340.027 226.733 342.801 227.644 345.096 229.333C347.39 231.022 349.085 233.399 349.933 236.119L404.045 409.531C404.41 410.7 404.494 411.939 404.292 413.146C404.09 414.354 403.606 415.497 402.88 416.484C402.154 417.47 401.207 418.272 400.114 418.824C399.021 419.376 397.813 419.664 396.589 419.663V419.663Z" fill="#111217"/>
<path d="M337.178 226.734C340.027 226.735 342.801 227.646 345.096 229.334C347.39 231.023 349.085 233.401 349.933 236.121L404.045 409.533C404.409 410.702 404.494 411.94 404.292 413.148C404.089 414.356 403.606 415.499 402.88 416.485C402.154 417.471 401.206 418.273 400.113 418.825C399.02 419.378 397.813 419.665 396.588 419.664H155.286C151.791 419.666 148.388 418.55 145.572 416.48C142.757 414.411 140.676 411.495 139.635 408.159L85.3939 234.43C85.1178 233.542 85.0542 232.602 85.2082 231.685C85.3622 230.768 85.7294 229.9 86.2804 229.151C86.8313 228.403 87.5505 227.794 88.38 227.374C89.2095 226.954 90.126 226.735 91.0557 226.734H337.178ZM337.178 222.199H91.0557C89.4124 222.199 87.7921 222.586 86.326 223.328C84.8599 224.07 83.5891 225.147 82.6164 226.472C81.6438 227.796 80.9967 229.331 80.7274 230.953C80.4582 232.574 80.5743 234.235 81.0665 235.803L135.275 409.526C136.595 413.795 139.253 417.526 142.857 420.168C146.46 422.81 150.818 424.223 155.286 424.199H396.588C398.524 424.2 400.433 423.745 402.161 422.871C403.889 421.998 405.387 420.73 406.534 419.17C407.681 417.611 408.445 415.803 408.764 413.894C409.084 411.984 408.949 410.027 408.372 408.179L354.26 234.767C353.135 231.118 350.867 227.928 347.792 225.665C344.717 223.403 340.996 222.188 337.178 222.199Z" fill="#323544"/>
<path d="M224.536 337.017H143.56C140.891 337.017 138.06 334.853 137.244 332.178L133.059 318.483C132.243 315.814 133.746 313.65 136.415 313.65H217.391C220.06 313.65 222.884 315.814 223.701 318.483L227.892 332.178C228.708 334.853 227.192 337.017 224.536 337.017Z" fill="#2B2E3D"/>
<path d="M375.955 400.18H153.99C147.777 400.18 141.435 395.347 139.55 389.167L97.8638 252.771C96.8856 249.532 97.3067 246.39 99.0298 244.064C99.901 242.932 101.031 242.024 102.325 241.418C103.619 240.811 105.039 240.524 106.467 240.579H328.665C334.8 240.579 341.064 245.353 342.917 251.449L384.616 387.852C385.614 391.091 385.186 394.33 383.444 396.656C382.565 397.795 381.427 398.709 380.125 399.322C378.823 399.934 377.393 400.228 375.955 400.18V400.18ZM106.467 245.114C105.749 245.067 105.03 245.192 104.37 245.478C103.71 245.764 103.127 246.203 102.671 246.759C101.802 247.932 101.641 249.596 102.204 251.449L143.904 387.852C145.199 392.076 149.825 395.626 154.009 395.626H375.955C376.691 395.673 377.427 395.544 378.103 395.25C378.779 394.956 379.375 394.505 379.842 393.935C380.73 392.736 380.898 391.039 380.321 389.154L338.615 252.771C337.32 248.618 332.785 245.114 328.685 245.114H106.467Z" fill="#323544"/>
<path d="M308.493 226.732H282.944C282.381 231.992 281.457 237.206 280.177 242.338C273.362 268.859 254.103 291.241 230.672 306.018C207.558 320.587 185.792 327.065 158.817 331.334C160.586 338.967 163.737 346.212 168.113 352.712H308.493V226.732Z" fill="#2B2E3D"/>
<path d="M344.006 264.957H103.267C102.782 264.958 102.309 264.803 101.918 264.515C101.527 264.227 101.24 263.821 101.097 263.357L97.469 251.496C97.0199 250.209 96.8809 248.834 97.0632 247.483C97.2456 246.132 97.7442 244.844 98.5184 243.722C99.2975 242.708 100.308 241.896 101.466 241.352C102.623 240.809 103.894 240.551 105.171 240.6H329.961C335.37 240.6 340.89 244.804 342.535 250.168L346.156 262.029C346.259 262.368 346.282 262.725 346.222 263.074C346.162 263.423 346.021 263.753 345.811 264.037C345.601 264.322 345.327 264.553 345.011 264.713C344.695 264.873 344.346 264.956 343.993 264.957H344.006ZM104.964 260.422H340.961L338.227 251.496C337.171 248.043 333.401 245.134 329.994 245.134H105.204C104.635 245.096 104.065 245.193 103.541 245.419C103.018 245.644 102.555 245.99 102.192 246.43C101.511 247.356 101.382 248.684 101.842 250.174L104.964 260.422Z" fill="#323544"/>
<path d="M133.79 255.545C134.715 254.467 134.281 252.577 132.821 251.323C131.36 250.069 129.426 249.926 128.501 251.004C127.576 252.081 128.01 253.972 129.47 255.225C130.93 256.479 132.864 256.622 133.79 255.545Z" fill="#323544"/>
<path d="M146.971 255.539C147.896 254.461 147.462 252.571 146.002 251.317C144.541 250.063 142.607 249.92 141.682 250.998C140.757 252.076 141.191 253.966 142.651 255.22C144.111 256.474 146.045 256.616 146.971 255.539Z" fill="#323544"/>
<path d="M220.219 235.306C221.144 234.229 220.711 232.339 219.25 231.085C217.79 229.831 215.856 229.688 214.931 230.766C214.005 231.843 214.439 233.733 215.9 234.987C217.36 236.241 219.294 236.384 220.219 235.306Z" fill="#323544"/>
<path d="M119.412 255.55C120.337 254.473 119.903 252.583 118.443 251.329C116.982 250.075 115.048 249.932 114.123 251.01C113.198 252.087 113.632 253.977 115.092 255.231C116.552 256.485 118.486 256.628 119.412 255.55Z" fill="#323544"/>
<path d="M213.712 301.613H132.736C130.067 301.613 127.242 299.45 126.426 296.774L122.248 283.092C121.431 280.423 122.934 278.26 125.603 278.26H206.579C209.248 278.26 212.079 280.423 212.895 283.092L217.08 296.787C217.884 299.45 216.381 301.613 213.712 301.613Z" fill="#2B2E3D"/>
<path d="M235.362 372.417H154.386C151.717 372.417 148.886 370.254 148.07 367.578L143.885 353.883C143.069 351.214 144.571 349.051 147.24 349.051H228.217C230.886 349.051 233.71 351.214 234.526 353.883L238.718 367.578C239.534 370.254 238.031 372.417 235.362 372.417Z" fill="#2B2E3D"/>
<path d="M287.481 371.794C291.856 366.699 289.8 357.759 282.889 351.825C275.978 345.891 266.829 345.211 262.454 350.306C258.08 355.401 260.136 364.342 267.047 370.276C273.958 376.209 283.106 376.889 287.481 371.794Z" fill="#2B2E3D"/>
<path d="M146.094 419.662H589.26C589.261 421.186 588.962 422.696 588.379 424.104C587.796 425.512 586.942 426.792 585.864 427.87C584.787 428.948 583.508 429.804 582.1 430.387C580.691 430.971 579.182 431.271 577.658 431.271H157.703C156.179 431.271 154.671 430.971 153.263 430.388C151.855 429.805 150.576 428.95 149.499 427.873C148.422 426.795 147.567 425.516 146.984 424.109C146.401 422.701 146.101 421.192 146.101 419.669V419.669L146.094 419.662Z" fill="#2B2E3D"/>
<path d="M589.26 419.664C589.261 421.188 588.961 422.697 588.378 424.106C587.796 425.514 586.941 426.794 585.864 427.872C584.786 428.95 583.507 429.805 582.099 430.389C580.691 430.972 579.182 431.272 577.658 431.272H157.702C154.624 431.272 151.671 430.049 149.494 427.872C147.317 425.695 146.094 422.742 146.094 419.664H589.26V419.664ZM589.26 415.129H146.094C144.891 415.129 143.738 415.607 142.887 416.457C142.037 417.307 141.559 418.461 141.559 419.664C141.573 423.941 143.278 428.039 146.302 431.064C149.327 434.088 153.425 435.793 157.702 435.807H577.658C581.934 435.792 586.03 434.086 589.053 431.061C592.076 428.037 593.781 423.94 593.794 419.664C593.794 418.461 593.317 417.307 592.466 416.457C591.616 415.607 590.462 415.129 589.26 415.129Z" fill="#323544"/>
<path d="M163.908 425.751C161.815 425.751 159.762 425.185 157.965 424.113C156.167 423.041 154.693 421.503 153.699 419.662H146.093C146.093 422.741 147.316 425.694 149.493 427.871C151.67 430.048 154.623 431.271 157.702 431.271H577.657C579.784 431.269 581.87 430.683 583.687 429.576C585.504 428.469 586.981 426.884 587.957 424.994C586.651 425.49 585.267 425.747 583.87 425.751H163.908Z" fill="#2B2E3D"/>
<path d="M354.63 419.668C354.63 419.668 355.589 427.753 345.315 434.036Z" fill="#111217"/>
<path d="M345.314 436.302C344.819 436.304 344.337 436.143 343.942 435.845C343.546 435.546 343.26 435.127 343.125 434.65C342.991 434.174 343.016 433.666 343.197 433.205C343.379 432.744 343.706 432.355 344.129 432.098C352.92 426.728 352.401 420.191 352.375 419.913C352.308 419.311 352.481 418.708 352.859 418.234C353.236 417.761 353.786 417.457 354.387 417.389C354.988 417.322 355.592 417.495 356.065 417.873C356.538 418.25 356.842 418.8 356.91 419.401C356.955 419.79 357.914 429.008 346.545 435.972C346.174 436.195 345.748 436.31 345.314 436.302V436.302Z" fill="#323544"/>
<path d="M543.382 324.396C546.893 324.267 550.249 323.01 553.534 321.766C557.142 320.399 560.75 319.026 564.248 317.387C567.241 315.981 575.734 310.999 576.699 309.568C577.664 308.136 577.775 305.985 576.505 304.813C574.561 303.012 571.057 304.606 568.893 303.057C565.978 300.971 568.692 297.169 571.115 296.106C574.723 294.519 578.889 295.407 582.484 293.768C585.134 292.55 587.135 289.129 585.529 286.7C584.266 284.796 581.48 284.465 580.068 282.671C577.891 279.898 580.424 275.687 583.624 274.204C586.824 272.72 590.562 272.707 593.711 271.127C596.859 269.546 599.113 265.076 596.671 262.543C593.49 259.239 586.954 263.275 583.644 260.075C581.052 257.536 583.087 253.144 585.451 250.358C587.816 247.572 590.634 244.048 589.105 240.745C587.654 237.603 583.106 237.279 580.035 238.801C576.965 240.323 574.659 243.141 571.769 245.046C568.88 246.951 564.643 247.747 562.188 245.305C560.141 243.264 560.245 239.883 558.625 237.48C555.691 233.081 548.332 234.241 545.021 238.399C541.711 242.558 541.426 248.246 541.394 253.532C541.394 257.076 540.163 261.902 536.626 261.656C534.164 261.494 532.739 258.734 530.523 257.665C526.326 255.657 521.707 260.904 522.102 265.517C522.497 270.129 525.736 273.938 528.224 277.89C533.166 285.702 534.702 295.219 534.702 304.58C534.695 313.17 530.199 324.869 543.382 324.396Z" fill="#CB730B"/>
<path d="M542.624 326.675C538.847 326.675 536.107 325.709 534.254 323.734C531.015 320.307 531.559 314.995 532.071 309.858C532.252 308.005 532.427 306.249 532.427 304.636C532.427 293.999 530.413 285.662 526.292 279.151C525.813 278.394 525.308 277.642 524.796 276.891C522.535 273.535 520.19 270.069 519.834 265.755C519.743 263.942 520.111 262.136 520.904 260.503C521.696 258.87 522.888 257.464 524.368 256.413C525.384 255.654 526.587 255.185 527.849 255.055C529.11 254.924 530.384 255.139 531.533 255.675C532.642 256.261 533.654 257.015 534.533 257.91C535.401 258.707 536.152 259.4 536.813 259.445C536.958 259.462 537.104 259.445 537.242 259.396C537.379 259.346 537.503 259.266 537.603 259.16C538.504 258.324 539.145 256.025 539.158 253.569C539.19 248.05 539.54 241.766 543.278 237.044C544.502 235.567 546.048 234.391 547.798 233.605C549.547 232.819 551.454 232.444 553.371 232.509C554.776 232.52 556.158 232.871 557.398 233.531C558.639 234.19 559.702 235.14 560.497 236.299C561.28 237.582 561.867 238.975 562.239 240.432C562.66 241.825 563.03 243.023 563.775 243.775C565.297 245.291 568.381 244.623 570.505 243.224C571.626 242.449 572.695 241.603 573.706 240.691C575.303 239.192 577.083 237.901 579.005 236.85C581.506 235.59 584.4 235.357 587.07 236.202C587.966 236.492 588.793 236.963 589.499 237.586C590.206 238.209 590.777 238.97 591.177 239.823C593.386 244.61 589.357 249.32 587.186 251.853C585.243 254.101 583.947 257.171 585.243 258.448C586.131 259.322 588.003 259.167 589.979 259.011C592.648 258.797 595.971 258.532 598.316 260.955C598.99 261.663 599.484 262.523 599.757 263.462C600.03 264.401 600.073 265.392 599.884 266.351C599.587 267.793 598.971 269.15 598.083 270.323C597.194 271.497 596.054 272.457 594.746 273.133C592.916 273.973 590.988 274.582 589.007 274.947C587.493 275.225 586.013 275.659 584.589 276.243C583.882 276.578 583.252 277.056 582.739 277.647C582.226 278.238 581.841 278.929 581.609 279.676C581.519 279.938 581.496 280.218 581.54 280.492C581.584 280.765 581.694 281.023 581.861 281.244C582.425 281.79 583.084 282.229 583.805 282.54C585.244 283.166 586.495 284.157 587.433 285.416C587.909 286.148 588.218 286.977 588.339 287.842C588.46 288.707 588.389 289.588 588.132 290.423C587.771 291.597 587.168 292.681 586.361 293.606C585.554 294.531 584.562 295.276 583.449 295.794C581.285 296.785 579.089 296.992 576.971 297.186C575.291 297.247 573.632 297.57 572.054 298.145C571.062 298.579 570.013 299.817 569.929 300.646C569.929 300.801 569.929 300.937 570.24 301.183C570.7 301.514 571.704 301.527 572.669 301.54C574.334 301.54 576.413 301.592 578.065 303.114C580.08 304.973 580.307 308.296 578.603 310.803C577.081 313.064 567.104 318.525 565.232 319.4C561.52 321.168 557.705 322.613 554.336 323.909C551.097 325.146 547.385 326.545 543.466 326.681L542.624 326.675ZM528.592 259.542C527.984 259.566 527.398 259.776 526.914 260.145C526.088 260.74 525.42 261.528 524.968 262.44C524.517 263.352 524.295 264.361 524.323 265.379C524.589 268.514 526.5 271.352 528.527 274.351C529.065 275.142 529.596 275.932 530.102 276.729C534.695 283.984 536.929 293.112 536.936 304.63C536.936 306.47 536.742 308.419 536.554 310.305C536.146 314.438 535.725 318.726 537.532 320.631C538.555 321.725 540.505 322.224 543.278 322.127C546.452 322.011 549.633 320.831 552.704 319.646C555.994 318.402 559.726 316.99 563.256 315.332C566.379 313.861 573.751 309.424 574.82 308.251C575.228 307.603 575.234 306.748 574.936 306.483C574.638 306.217 573.544 306.12 572.552 306.107C571.043 306.107 569.164 306.055 567.551 304.902C566.79 304.396 566.183 303.69 565.797 302.861C565.411 302.033 565.26 301.114 565.362 300.205C565.653 297.439 568.057 294.958 570.175 294.032C572.197 293.254 574.333 292.817 576.498 292.736C578.215 292.681 579.912 292.342 581.518 291.732C582.033 291.485 582.493 291.138 582.871 290.711C583.249 290.284 583.538 289.785 583.721 289.244C583.803 289.041 583.835 288.821 583.816 288.603C583.797 288.384 583.727 288.174 583.611 287.988C583.069 287.395 582.406 286.927 581.667 286.614C580.378 286.015 579.232 285.147 578.305 284.068C577.718 283.308 577.313 282.424 577.122 281.482C576.931 280.541 576.959 279.568 577.204 278.64C577.595 277.227 578.288 275.916 579.235 274.797C580.182 273.679 581.361 272.78 582.691 272.162C584.403 271.431 586.191 270.89 588.022 270.549C589.637 270.259 591.212 269.776 592.712 269.11C593.387 268.754 593.977 268.257 594.444 267.654C594.911 267.051 595.244 266.355 595.42 265.612C595.491 265.354 595.495 265.081 595.432 264.82C595.368 264.56 595.239 264.319 595.057 264.122C594.261 263.3 592.745 263.351 590.348 263.546C587.718 263.753 584.446 264.019 582.082 261.712C578.59 258.305 580.404 252.831 583.747 248.918C585.833 246.482 587.977 243.736 587.063 241.734C586.914 241.435 586.705 241.17 586.448 240.956C586.192 240.742 585.894 240.584 585.573 240.49C584.065 240.046 582.445 240.189 581.039 240.892C579.455 241.788 577.989 242.875 576.673 244.131C575.514 245.176 574.286 246.144 572.999 247.027C569.404 249.398 563.982 250.395 560.574 247.027C559.02 245.478 558.424 243.516 557.899 241.786C557.646 240.758 557.251 239.771 556.726 238.851C556.318 238.292 555.781 237.839 555.161 237.53C554.541 237.221 553.856 237.065 553.164 237.076C551.96 237.045 550.765 237.284 549.666 237.776C548.567 238.268 547.593 239.001 546.815 239.92C543.971 243.516 543.706 248.679 543.673 253.66C543.673 255.098 543.427 259.989 540.674 262.548C540.118 263.074 539.459 263.477 538.738 263.734C538.018 263.99 537.252 264.094 536.489 264.038C534.228 263.883 532.68 262.451 531.436 261.298C530.879 260.725 530.247 260.23 529.557 259.827C529.263 259.658 528.932 259.56 528.592 259.542V259.542Z" fill="#323544"/>
<path d="M493.508 352.407L503.711 414.752H554.337L565.907 352.511C566.399 349.855 564.663 347.328 562.337 347.328H497.097C494.803 347.322 493.08 349.751 493.508 352.407Z" fill="#111217"/>
<path d="M562.344 347.323C564.676 347.323 566.406 349.823 565.913 352.505L554.337 414.721H503.711L493.508 352.408C493.08 349.784 494.803 347.355 497.097 347.355H562.344V347.323ZM562.344 342.82H497.097C495.941 342.828 494.801 343.087 493.756 343.58C492.711 344.074 491.786 344.789 491.046 345.677C490.189 346.701 489.565 347.898 489.218 349.187C488.87 350.475 488.806 351.824 489.032 353.14L499.234 415.485C499.408 416.547 499.954 417.512 500.774 418.209C501.594 418.906 502.635 419.288 503.711 419.288H554.337C555.398 419.289 556.425 418.918 557.241 418.24C558.056 417.561 558.608 416.619 558.801 415.576L570.364 353.334C570.619 352.005 570.578 350.635 570.242 349.324C569.906 348.012 569.284 346.791 568.42 345.748C567.681 344.84 566.75 344.106 565.694 343.6C564.638 343.093 563.483 342.827 562.312 342.82H562.344Z" fill="#323544"/>
<path d="M522.633 405.655C519.337 405.653 516.149 404.479 513.639 402.343C511.129 400.207 509.461 397.247 508.932 393.994L501.294 347.307H497.097C494.803 347.307 493.08 349.736 493.508 352.36L503.711 414.705H554.337L556.319 404.061C554.345 405.091 552.152 405.631 549.925 405.635L522.633 405.655Z" fill="#2B2E3D"/>
<path d="M536.891 345.635C536.723 345.634 536.556 345.616 536.392 345.584C536.102 345.518 535.827 345.395 535.584 345.223C535.34 345.051 535.133 344.833 534.975 344.581C534.816 344.329 534.708 344.048 534.658 343.754C534.608 343.46 534.616 343.16 534.682 342.869C537.701 329.473 540.823 315.616 545.96 302.524C551.791 287.702 559.525 275.808 569.003 267.166C569.448 266.761 570.036 266.549 570.637 266.577C571.238 266.605 571.804 266.87 572.21 267.315C572.615 267.76 572.827 268.348 572.799 268.949C572.771 269.551 572.506 270.116 572.061 270.522C563.101 278.684 555.742 290.008 550.178 304.208C545.17 316.976 542.086 330.658 539.107 343.893C538.987 344.39 538.703 344.833 538.301 345.149C537.899 345.465 537.402 345.636 536.891 345.635Z" fill="#323544"/>
<path d="M537.901 304.012C533.328 310.529 525.036 320.732 516.245 320.92C509.061 321.075 502.751 314.442 498.022 309.7C490.566 302.302 484.658 293.493 480.642 283.788C480.331 283.023 480.033 282.11 480.467 281.41C481.361 279.959 483.505 281.235 485.163 281.624C487.819 282.272 490.423 279.823 490.994 277.154C491.564 274.485 490.747 271.732 489.918 269.128L480.94 240.896C480.13 238.305 479.307 235.597 480.046 233.019C480.784 230.441 483.771 228.329 486.174 229.534C489.18 231.037 489.853 236.614 493.177 236.083C495.768 235.668 495.878 231.969 495.366 229.365C492.442 214.465 492.843 199.103 496.539 184.375C497.044 182.373 497.983 180.035 500.018 179.711C502.557 179.296 504.215 182.386 504.423 184.945C504.63 187.504 504.351 190.451 506.172 192.265C508.212 194.306 511.872 193.561 513.945 191.566C516.018 189.57 516.971 186.7 518.046 184.019C520.087 178.9 522.808 174.08 526.137 169.689C528.411 166.69 532.058 163.619 535.511 165.109C538.646 166.463 539.236 170.602 539.113 174.01C538.815 182.36 536.962 190.561 535.122 198.711L547.936 188.139C549.232 187.07 550.747 185.936 552.406 186.163C554.997 186.519 555.975 189.752 556.014 192.362C556.054 196.604 555.171 200.804 553.427 204.67C551.683 208.537 549.12 211.979 545.915 214.757C543.971 216.422 541.73 217.873 540.324 220.03C538.918 222.187 538.64 225.388 540.538 227.156L550.903 220.983C552.425 220.076 554.239 219.143 555.878 219.81C557.517 220.477 558.126 222.33 557.925 223.982C557.724 225.634 556.83 227.104 555.982 228.517L537.325 258.478C536.898 259.045 536.632 259.716 536.554 260.421C536.509 262.449 539.378 263.22 541.251 262.449C543.123 261.678 544.652 260.084 546.64 259.696C549.944 259.048 553.015 262.196 553.572 265.526C554.129 268.856 552.924 272.172 551.7 275.314C547.858 285.245 544.017 295.299 537.901 304.012Z" fill="#CB730B"/>
<path d="M515.999 323.188C508.316 323.188 501.851 316.71 497.109 311.994L496.422 311.308C488.76 303.686 482.683 294.621 478.543 284.637C478.245 283.912 477.448 281.981 478.543 280.213C480.169 277.57 483.194 278.6 484.652 279.092C485.034 279.222 485.397 279.345 485.688 279.409C485.933 279.458 486.186 279.455 486.43 279.402C486.674 279.348 486.904 279.245 487.107 279.099C487.963 278.529 488.572 277.656 488.811 276.656C489.29 274.512 488.493 272.011 487.794 269.809L478.815 241.577C478.025 239.103 476.949 235.715 477.895 232.391C478.219 231.309 478.77 230.309 479.514 229.459C480.257 228.608 481.174 227.927 482.203 227.462C482.989 227.095 483.847 226.908 484.714 226.915C485.582 226.921 486.437 227.121 487.217 227.501C489.096 228.433 490.171 230.189 491.104 231.737C491.661 232.651 492.4 233.907 492.834 233.843C492.911 233.843 492.924 233.843 492.983 233.745C493.352 233.214 493.527 231.692 493.158 229.8C490.173 214.567 490.582 198.863 494.356 183.806C495.315 180.01 497.103 177.872 499.668 177.457C500.372 177.341 501.092 177.377 501.782 177.561C502.471 177.745 503.113 178.074 503.665 178.526C505.66 180.094 506.535 182.769 506.697 184.758C506.736 185.263 506.755 185.782 506.781 186.306C506.859 188.101 506.93 189.798 507.785 190.653C508.854 191.716 511.134 191.133 512.384 189.928C513.861 188.496 514.697 186.378 515.572 184.13L515.954 183.164C518.081 177.857 520.914 172.861 524.375 168.31C528.133 163.348 532.654 161.372 536.457 163.018C538.867 164.061 541.685 166.827 541.426 174.082C541.104 180.371 540.237 186.62 538.835 192.759L546.608 186.378C547.813 185.386 550.068 183.534 552.827 183.909C556.137 184.356 558.321 187.66 558.392 192.331C558.439 196.912 557.484 201.447 555.594 205.62C553.704 209.793 550.925 213.502 547.45 216.488C546.958 216.902 546.459 217.304 545.96 217.706C544.558 218.695 543.321 219.9 542.294 221.275C541.779 222.069 541.513 222.998 541.529 223.944L549.808 219.008C551.162 218.204 553.967 216.533 556.798 217.712C559.176 218.684 560.594 221.372 560.245 224.255C559.979 226.432 558.852 228.252 557.945 229.716L539.333 259.71C539.198 259.918 539.075 260.135 538.964 260.357C539.453 260.542 539.991 260.542 540.48 260.357C541.119 260.068 541.73 259.721 542.307 259.321C543.503 258.455 544.856 257.83 546.291 257.481C547.254 257.306 548.243 257.327 549.198 257.543C550.153 257.759 551.055 258.165 551.849 258.738C553.986 260.259 555.439 262.561 555.891 265.145C556.539 269.168 555.088 273.022 553.896 276.157C550.093 286.088 546.122 296.363 539.839 305.354C531.624 317.054 523.734 323.065 516.375 323.227L515.999 323.188ZM482.89 283.283C486.797 292.564 492.479 300.992 499.616 308.094L500.316 308.788C504.773 313.238 510.311 318.79 516.194 318.654C521.946 318.531 528.806 313.018 536.042 302.711C542.035 294.18 545.87 284.171 549.582 274.493C550.625 271.772 551.804 268.662 551.331 265.89C551.082 264.513 550.312 263.285 549.18 262.463C548.882 262.238 548.543 262.074 548.182 261.982C547.82 261.889 547.444 261.87 547.075 261.925C546.208 262.18 545.394 262.588 544.671 263.13C543.852 263.68 542.985 264.155 542.08 264.549C541.12 264.935 540.082 265.087 539.052 264.99C538.022 264.893 537.03 264.551 536.159 263.992C535.561 263.6 535.073 263.063 534.74 262.43C534.407 261.798 534.24 261.091 534.255 260.377C534.331 259.264 534.715 258.195 535.362 257.287L553.974 227.293C554.712 226.095 555.483 224.864 555.626 223.672C555.716 222.914 555.405 222.059 554.978 221.878C554.233 221.58 552.626 222.525 552.017 222.901L541.652 229.075C541.233 229.324 540.744 229.431 540.259 229.381C539.774 229.33 539.317 229.126 538.958 228.796C536.081 226.153 536.509 221.67 538.381 218.8C539.66 217.007 541.228 215.438 543.019 214.156C543.486 213.789 543.946 213.413 544.399 213.028C547.371 210.482 549.75 207.316 551.369 203.753C552.989 200.19 553.809 196.316 553.773 192.402C553.773 190.588 553.125 188.548 552.128 188.412C551.331 188.308 550.08 189.338 549.407 189.889L536.587 200.454C536.223 200.742 535.779 200.91 535.317 200.937C534.854 200.965 534.394 200.85 533.999 200.607C533.603 200.365 533.292 200.008 533.106 199.583C532.92 199.159 532.869 198.687 532.959 198.233C534.753 190.303 536.606 182.109 536.898 173.946C536.962 172.242 536.898 168.161 534.663 167.215C532.59 166.315 529.772 168.731 527.997 171.102C524.796 175.333 522.181 179.977 520.223 184.907L519.854 185.833C518.888 188.321 517.787 191.133 515.598 193.244C512.741 196.004 507.655 196.93 504.637 193.892C502.538 191.793 502.408 188.878 502.311 186.54C502.311 186.067 502.266 185.6 502.233 185.147C502.179 184.017 501.719 182.945 500.938 182.128C500.685 181.927 500.555 181.953 500.465 181.966C500.018 182.037 499.351 182.86 498.826 184.946C495.217 199.352 494.823 214.376 497.673 228.952C497.958 230.383 498.437 233.979 496.772 236.363C496.411 236.893 495.945 237.342 495.402 237.683C494.859 238.025 494.252 238.25 493.617 238.345C490.223 238.889 488.474 236.026 487.308 234.134C486.66 233.052 485.96 231.938 485.241 231.582C485.057 231.501 484.856 231.464 484.655 231.474C484.453 231.484 484.257 231.541 484.082 231.64C483.663 231.836 483.29 232.117 482.985 232.465C482.681 232.813 482.452 233.22 482.313 233.661C481.782 235.52 482.391 237.736 483.188 240.23L492.166 268.461C492.996 271.053 494.032 274.331 493.287 277.667C492.789 279.852 491.454 281.755 489.569 282.966C488.857 283.429 488.061 283.746 487.225 283.899C486.39 284.051 485.533 284.036 484.704 283.853C484.198 283.73 483.712 283.568 483.246 283.413L482.89 283.283Z" fill="#323544"/>
<path d="M520.937 345.061C520.459 345.06 519.993 344.908 519.607 344.626C519.221 344.345 518.933 343.948 518.786 343.494C506.636 305.885 506.941 265.36 519.654 227.937C519.742 227.646 519.887 227.374 520.082 227.14C520.277 226.905 520.517 226.713 520.788 226.573C521.059 226.434 521.356 226.351 521.66 226.328C521.964 226.306 522.269 226.345 522.558 226.444C522.846 226.542 523.112 226.698 523.339 226.902C523.566 227.105 523.75 227.352 523.879 227.628C524.008 227.905 524.08 228.204 524.091 228.509C524.102 228.813 524.052 229.117 523.942 229.402C511.539 265.905 511.242 305.435 523.094 342.12C523.202 342.461 523.229 342.822 523.173 343.175C523.116 343.528 522.977 343.863 522.767 344.153C522.557 344.442 522.282 344.678 521.964 344.841C521.646 345.005 521.294 345.091 520.937 345.094V345.061Z" fill="#323544"/>
<path d="M531.987 362.126H492.47C491.869 362.126 491.292 361.888 490.867 361.462C490.442 361.037 490.203 360.46 490.203 359.859C490.203 359.258 490.442 358.681 490.867 358.256C491.292 357.831 491.869 357.592 492.47 357.592H531.987C532.588 357.592 533.165 357.831 533.59 358.256C534.015 358.681 534.254 359.258 534.254 359.859C534.254 360.46 534.015 361.037 533.59 361.462C533.165 361.888 532.588 362.126 531.987 362.126V362.126Z" fill="#323544"/>
<path d="M554.013 362.126H546.239C545.638 362.126 545.061 361.888 544.636 361.462C544.211 361.037 543.972 360.46 543.972 359.859C543.972 359.258 544.211 358.681 544.636 358.256C545.061 357.831 545.638 357.592 546.239 357.592H554.013C554.615 357.592 555.191 357.831 555.616 358.256C556.042 358.681 556.281 359.258 556.281 359.859C556.281 360.46 556.042 361.037 555.616 361.462C555.191 361.888 554.615 362.126 554.013 362.126V362.126Z" fill="#323544"/>
<path d="M416.522 4.53321H271.076C269.823 4.53235 268.582 4.77833 267.424 5.25709C266.266 5.73584 265.213 6.438 264.327 7.32348C263.44 8.20896 262.737 9.2604 262.256 10.4178C261.776 11.5752 261.528 12.8159 261.527 14.069V56.4356C261.526 57.689 261.773 58.9302 262.252 60.0883C262.731 61.2464 263.434 62.2987 264.32 63.1849C265.207 64.0712 266.259 64.774 267.417 65.2533C268.575 65.7325 269.816 65.9787 271.07 65.9779H275.17C275.457 65.9779 275.732 66.0919 275.935 66.2947C276.138 66.4976 276.252 66.7728 276.252 67.0597V78.1697C276.25 78.3605 276.3 78.5483 276.395 78.7138C276.489 78.8793 276.627 79.0166 276.792 79.1116C276.958 79.2065 277.146 79.2557 277.336 79.2541C277.527 79.2526 277.714 79.2002 277.878 79.1025L299.793 66.1463C299.959 66.0442 300.15 65.9903 300.344 65.9908H416.522C417.777 65.9917 419.019 65.7451 420.179 65.2651C421.338 64.7851 422.391 64.0812 423.278 63.1937C424.165 62.3062 424.868 61.2524 425.348 60.0928C425.827 58.9331 426.073 57.6904 426.071 56.4356V14.069C426.067 11.5387 425.06 9.1133 423.269 7.32537C421.479 5.53744 419.052 4.5332 416.522 4.53321V4.53321Z" fill="#111217"/>
<path d="M416.522 4.53466C419.052 4.53466 421.479 5.5389 423.269 7.32683C425.059 9.11475 426.067 11.5402 426.07 14.0704V56.4371C426.07 57.6908 425.823 58.9321 425.343 60.0903C424.863 61.2484 424.16 62.3006 423.273 63.1868C422.386 64.0729 421.334 64.7757 420.175 65.2548C419.017 65.734 417.775 65.9802 416.522 65.9793H300.35C300.156 65.9788 299.965 66.0327 299.799 66.1348L277.884 79.091C277.719 79.1888 277.531 79.2403 277.34 79.24C277.053 79.24 276.778 79.126 276.575 78.9231C276.372 78.7202 276.258 78.4451 276.258 78.1581V67.0612C276.258 66.7743 276.144 66.4991 275.941 66.2962C275.738 66.0933 275.463 65.9793 275.176 65.9793H271.076C269.822 65.981 268.58 65.7354 267.421 65.2566C266.262 64.7777 265.209 64.075 264.322 63.1887C263.435 62.3023 262.732 61.2498 262.252 60.0913C261.772 58.9327 261.526 57.691 261.527 56.4371V14.0704C261.528 12.8173 261.775 11.5766 262.256 10.4192C262.736 9.26186 263.44 8.21041 264.326 7.32494C265.213 6.43946 266.265 5.7373 267.423 5.25854C268.581 4.77979 269.822 4.53381 271.076 4.53466H416.522ZM416.522 0H271.076C267.344 0.00342371 263.765 1.48653 261.125 4.12413C258.485 6.76173 256.999 10.3386 256.992 14.0704V56.4371C256.997 60.1689 258.482 63.7465 261.121 66.3853C263.76 69.0241 267.337 70.5089 271.069 70.514H271.717V78.1711C271.715 79.1623 271.977 80.1362 272.474 80.9937C272.971 81.8511 273.687 82.5616 274.548 83.0526C275.409 83.5437 276.384 83.7979 277.375 83.7893C278.367 83.7807 279.338 83.5097 280.19 83.0038L301.289 70.514H416.522C420.255 70.5106 423.834 69.0266 426.474 66.3876C429.114 63.7486 430.6 60.1701 430.605 56.4371V14.0704C430.598 10.3386 429.112 6.76173 426.472 4.12413C423.832 1.48653 420.253 0.00342371 416.522 0Z" fill="#323544"/>
<path d="M353.774 43.894H276.944C276.343 43.894 275.766 43.6552 275.341 43.23C274.916 42.8048 274.677 42.228 274.677 41.6267C274.677 41.0254 274.916 40.4487 275.341 40.0235C275.766 39.5983 276.343 39.3594 276.944 39.3594H353.774C354.376 39.3594 354.952 39.5983 355.377 40.0235C355.803 40.4487 356.042 41.0254 356.042 41.6267C356.042 42.228 355.803 42.8048 355.377 43.23C354.952 43.6552 354.376 43.894 353.774 43.894V43.894Z" fill="#323544"/>
<path d="M276.945 31.7413C276.343 31.7456 275.765 31.5108 275.337 31.0887C274.908 30.6665 274.665 30.0915 274.661 29.4902C274.657 28.8888 274.892 28.3104 275.314 27.8822C275.736 27.4539 276.311 27.2109 276.912 27.2066L318.534 26.5588C318.832 26.5546 319.127 26.609 319.404 26.719C319.681 26.829 319.933 26.9925 320.147 27.2C320.36 27.4075 320.531 27.6551 320.649 27.9286C320.767 28.202 320.83 28.496 320.834 28.7938C320.838 29.0915 320.784 29.3872 320.674 29.6639C320.564 29.9406 320.4 30.1929 320.193 30.4065C319.985 30.62 319.738 30.7906 319.464 30.9085C319.191 31.0264 318.897 31.0892 318.599 31.0935L276.984 31.7413H276.945Z" fill="#323544"/>
<path d="M385.991 38.0214C382.389 37.8853 371.986 38.423 369.543 48.9888C369.479 49.287 369.318 49.5558 369.086 49.754C368.854 49.9521 368.564 50.0686 368.259 50.0855C367.955 50.1025 367.653 50.0189 367.4 49.8477C367.148 49.6764 366.958 49.427 366.861 49.1378C364.594 42.3682 363.985 30.5392 386.069 28.5051C386.397 28.4812 386.706 28.343 386.943 28.1146C387.18 27.8861 387.329 27.5819 387.365 27.2548L388.194 18.7879C388.218 18.5398 388.308 18.3026 388.455 18.1012C388.602 17.8998 388.8 17.7415 389.029 17.6429C389.258 17.5443 389.509 17.5089 389.757 17.5406C390.004 17.5722 390.238 17.6696 390.435 17.8227L408.962 32.23C409.125 32.3553 409.257 32.5149 409.35 32.6974C409.444 32.8798 409.495 33.0805 409.502 33.2853C409.509 33.4901 409.471 33.6939 409.39 33.8821C409.309 34.0703 409.187 34.2384 409.034 34.3742L390.532 50.8221C390.339 50.9957 390.101 51.1117 389.845 51.1572C389.59 51.2027 389.326 51.1757 389.085 51.0793C388.844 50.983 388.634 50.8211 388.48 50.6119C388.326 50.4027 388.234 50.1547 388.213 49.8957L387.326 39.304C387.298 38.9644 387.147 38.6467 386.901 38.4105C386.655 38.1744 386.332 38.036 385.991 38.0214V38.0214Z" fill="#006C8F"/>
<path d="M389.605 53.4478C388.686 53.4463 387.801 53.1001 387.125 52.4776C386.448 51.8551 386.03 51.0016 385.952 50.0857L385.136 40.2779C381.249 40.2779 373.637 41.3468 371.752 49.5027C371.576 50.2823 371.15 50.983 370.539 51.4978C369.927 52.0125 369.164 52.313 368.366 52.3534C367.568 52.3938 366.779 52.1719 366.118 51.7214C365.458 51.271 364.964 50.6169 364.71 49.859C362.832 44.2489 363.201 39.196 365.773 35.2509C369.012 30.321 375.49 27.3152 385.161 26.3176L385.932 18.5439C385.997 17.8917 386.235 17.2688 386.622 16.7401C387.009 16.2114 387.531 15.7963 388.133 15.5381C388.735 15.28 389.396 15.1883 390.046 15.2726C390.696 15.3569 391.311 15.6141 391.827 16.0174L410.355 30.4506C410.779 30.7806 411.126 31.2 411.37 31.6792C411.614 32.1583 411.75 32.6853 411.767 33.2228C411.784 33.7602 411.683 34.2949 411.47 34.7887C411.258 35.2825 410.939 35.7235 410.536 36.0801L392.035 52.5279C391.365 53.1223 390.501 53.4497 389.605 53.4478V53.4478ZM386.081 35.7626C386.975 35.7976 387.824 36.1581 388.47 36.7763C389.115 37.3944 389.512 38.2275 389.586 39.1183L390.325 47.9738L406.746 33.3787L390.292 20.5845L389.599 27.4772C389.512 28.3252 389.133 29.1167 388.527 29.7159C387.921 30.3151 387.125 30.6848 386.276 30.7616C377.692 31.5519 372.076 33.897 369.575 37.732C367.975 40.1742 367.858 43.0181 368.28 45.5057C372.251 36.0153 382.726 35.6136 386.081 35.7432V35.7626Z" fill="#323544"/>
<path d="M333.117 31.0933H326.638C326.037 31.0933 325.46 30.8544 325.035 30.4292C324.61 30.004 324.371 29.4273 324.371 28.8259C324.371 28.2246 324.61 27.6479 325.035 27.2227C325.46 26.7975 326.037 26.5586 326.638 26.5586H333.117C333.718 26.5586 334.295 26.7975 334.72 27.2227C335.145 27.6479 335.384 28.2246 335.384 28.8259C335.384 29.4273 335.145 30.004 334.72 30.4292C334.295 30.8544 333.718 31.0933 333.117 31.0933Z" fill="#323544"/>
<path d="M398.739 181.826C383.302 162.994 352.563 152.72 331.406 164.763C316.169 173.437 307.968 190.747 303.634 207.732C299.3 224.718 297.856 242.5 291.533 258.851C281.486 284.815 259.596 305.091 234.526 317.154C209.767 329.086 187.353 332.973 160.047 334.016C162.639 360.518 182.015 383.249 205.964 395.558H345.742C352.192 392.999 358.347 389.752 364.101 385.873C383.95 372.347 397.23 350.976 406.208 328.691C416.388 303.369 421.7 276.354 421.866 249.062C422.015 224.75 414.176 200.652 398.739 181.826Z" fill="#006C8F"/>
<path d="M352.142 159.58C369.471 159.58 387.888 168.591 398.739 181.825C414.176 200.651 422.014 224.749 421.878 249.094C421.713 276.385 416.401 303.4 406.221 328.722C397.249 351.007 383.969 372.378 364.113 385.905C358.355 389.784 352.196 393.031 345.741 395.589H205.964C181.995 383.281 162.625 360.517 160.047 334.047C187.352 333.011 209.766 329.118 234.506 317.204C259.596 305.123 281.485 284.814 291.513 258.902C297.836 242.551 299.287 224.769 303.614 207.783C307.942 190.797 316.15 173.488 331.386 164.814C337.727 161.311 344.873 159.525 352.116 159.631L352.142 159.58ZM352.116 155.097C343.604 155.097 335.875 157.04 329.138 160.875C314.977 168.934 304.91 184.339 299.216 206.662C297.577 213.102 296.333 219.69 295.128 226.058C293.055 237.019 291.105 247.364 287.277 257.263C278.356 280.305 258.397 300.666 232.511 313.136C210.667 323.657 189.619 328.405 159.853 329.539C159.235 329.562 158.629 329.712 158.072 329.978C157.514 330.244 157.017 330.622 156.611 331.087C156.204 331.552 155.897 332.095 155.708 332.684C155.519 333.272 155.453 333.892 155.512 334.507C156.808 347.936 162.301 361.223 171.377 372.948C180.148 384.088 191.235 393.189 203.871 399.619C204.514 399.951 205.227 400.124 205.951 400.124H345.741C346.321 400.125 346.895 400.012 347.432 399.794C354.185 397.112 360.629 393.711 366.653 389.649C384.856 377.25 399.574 357.323 410.412 330.42C420.768 304.555 426.189 276.98 426.394 249.12C426.536 223.052 417.972 198.137 402.224 178.949C390.324 164.425 370.656 155.045 352.122 155.045L352.116 155.097Z" fill="#323544"/>
<path d="M359.345 380.908H243.387C215.234 380.908 189.451 364.344 178.503 338.406C177.745 336.618 177.078 334.791 176.475 332.951C171.15 333.456 165.683 333.8 160.001 334.014C162.593 360.515 181.969 383.247 205.918 395.555H345.741C361.944 389.222 376.029 378.444 386.378 364.461C383.63 366.889 380.733 369.144 377.704 371.211C371.951 375.094 365.796 378.345 359.345 380.908V380.908Z" fill="#08A4CA"/>
<path d="M363.557 196.611C327.927 193.372 327.927 227.058 340.236 240.014C352.544 252.97 376.189 240.338 396.271 242.281C407.225 243.344 421.458 237.099 420.525 231.165C418.486 218.077 413.994 205.492 407.284 194.072C393.149 193.339 390.065 199.021 363.557 196.611Z" fill="#08A4CA"/>
<path d="M404.913 218.234C407.514 218.234 409.622 216.125 409.622 213.524C409.622 210.923 407.514 208.814 404.913 208.814C402.312 208.814 400.203 210.923 400.203 213.524C400.203 216.125 402.312 218.234 404.913 218.234Z" fill="#323544"/>
<path d="M364.703 220.564C367.304 220.564 369.412 218.455 369.412 215.854C369.412 213.253 367.304 211.145 364.703 211.145C362.102 211.145 359.993 213.253 359.993 215.854C359.993 218.455 362.102 220.564 364.703 220.564Z" fill="#323544"/>
<path d="M404.919 187.589H404.589L399.212 187.045C398.353 186.959 397.563 186.535 397.017 185.867C396.47 185.199 396.211 184.341 396.297 183.482C396.383 182.623 396.806 181.833 397.475 181.287C398.143 180.74 399.001 180.481 399.86 180.567L405.23 181.111C405.656 181.132 406.073 181.236 406.458 181.418C406.843 181.6 407.188 181.857 407.474 182.172C407.76 182.488 407.981 182.856 408.125 183.257C408.268 183.658 408.331 184.084 408.311 184.509C408.29 184.934 408.185 185.351 408.003 185.736C407.821 186.121 407.565 186.467 407.25 186.753C406.934 187.039 406.565 187.26 406.164 187.403C405.763 187.547 405.338 187.61 404.913 187.589H404.919Z" fill="#323544"/>
<path d="M357.448 194.988C356.704 194.987 355.984 194.731 355.407 194.262C354.83 193.792 354.433 193.139 354.281 192.411C354.129 191.683 354.232 190.926 354.573 190.265C354.913 189.604 355.471 189.081 356.152 188.782L361.101 186.632C361.889 186.288 362.781 186.271 363.581 186.585C364.381 186.899 365.023 187.518 365.367 188.306C365.711 189.094 365.727 189.986 365.413 190.786C365.099 191.586 364.48 192.228 363.693 192.572L358.737 194.723C358.33 194.899 357.891 194.989 357.448 194.988V194.988Z" fill="#323544"/>
<path d="M370.442 144.492C355.102 139.957 335.577 143.274 321.552 150.97C315.417 154.338 309.742 158.815 302.966 160.564C296.19 162.313 287.639 160.208 285.015 153.723C283.467 149.907 284.368 145.412 286.596 141.952C288.824 138.493 292.225 135.947 295.795 133.907C304.816 128.786 315.174 126.512 325.51 127.383C328.295 127.623 332.066 127.428 332.636 124.695C333.063 122.576 330.945 120.808 328.891 120.16C326.838 119.512 324.525 119.331 322.88 117.945C320.774 116.17 320.535 112.82 321.798 110.378C323.061 107.936 325.503 106.29 328.049 105.26C338.356 101.089 350.651 105.863 358.017 114.194C365.382 122.525 368.667 133.66 370.623 144.602L370.442 144.492Z" fill="#006C8F"/>
<path d="M298.302 163.408C291.882 163.408 285.346 160.564 282.91 154.572C281.187 150.316 281.854 145.14 284.691 140.728C286.81 137.438 290.075 134.561 294.674 131.938C304.099 126.598 314.915 124.223 325.711 125.123C328.619 125.375 330.245 124.87 330.401 124.242C330.505 123.717 329.539 122.732 328.179 122.298C327.667 122.13 327.104 121.994 326.514 121.845C324.856 121.443 322.983 120.983 321.409 119.655C318.637 117.323 317.931 112.879 319.77 109.29C321.124 106.667 323.69 104.529 327.188 103.117C337.637 98.8799 351.001 102.806 359.701 112.646C368.123 122.188 371.239 135.196 372.839 144.155C372.916 144.57 372.877 144.997 372.724 145.39C372.572 145.783 372.312 146.125 371.975 146.379C371.639 146.632 371.238 146.786 370.818 146.824C370.398 146.861 369.976 146.781 369.6 146.591C355.73 142.568 336.885 145.114 322.627 152.94C320.897 153.885 319.148 154.961 317.445 155.997C313.111 158.66 308.634 161.413 303.497 162.741C301.8 163.177 300.055 163.401 298.302 163.408V163.408ZM321.208 129.463C312.695 129.47 304.329 131.679 296.922 135.876C292.97 138.131 290.217 140.521 288.501 143.184C286.486 146.306 285.955 150.018 287.108 152.901C289.246 158.18 296.702 159.865 302.39 158.401C306.872 157.241 310.863 154.786 315.093 152.188C316.829 151.119 318.624 150.018 320.457 149.014C334.877 141.098 353.009 138.273 367.695 141.48C366.017 133.421 362.96 123.238 356.294 115.697C350.204 108.804 339.03 103.259 328.885 107.366C327.155 108.066 324.869 109.342 323.793 111.422C322.932 113.093 323.145 115.244 324.318 116.215C325.082 116.863 326.261 117.142 327.557 117.466C328.205 117.628 328.853 117.79 329.552 118.01C332.681 119.027 335.493 121.819 334.812 125.175C334.417 127.118 332.649 130.312 325.283 129.677C323.949 129.521 322.575 129.463 321.208 129.463Z" fill="#323544"/>
<path d="M478.367 156.665C457.857 162.916 440.36 143.748 436.447 126.218C435.722 122.979 435.003 119.552 435.929 116.352C436.855 113.152 440.043 110.34 443.295 111.053C446.547 111.765 448.166 115.309 449.578 118.328C450.99 121.347 453.465 124.676 456.743 124.281C460.306 123.86 461.77 119.565 462.457 116.041L466.687 94.2876C467.302 91.1198 468.229 87.518 471.118 86.0734C474.357 84.4603 478.451 86.6758 480.148 89.8631C481.846 93.0503 481.768 96.8594 481.606 100.468C481.444 104.076 481.243 107.853 482.746 111.144C484.243 104.097 487.021 97.3842 490.941 91.3401C492.586 88.8136 495.314 86.1123 498.144 87.1358C500.671 88.0492 501.325 91.2688 501.422 93.9507C501.695 101.526 500.657 109.092 498.352 116.313C499.647 112.783 501.053 109.109 503.865 106.596C506.676 104.082 511.36 103.273 514.119 105.825C517.644 109.064 515.881 114.894 513.634 119.15C508.966 127.954 503.23 136.148 496.557 143.547C491.498 149.157 485.609 154.456 478.367 156.665Z" fill="#006C8F"/>
<path d="M470.418 160.138C464.982 160.099 459.655 158.602 454.994 155.804C445.03 149.974 436.855 138.572 434.264 126.685C433.558 123.498 432.67 119.527 433.784 115.672C434.97 111.565 439.148 107.769 443.813 108.792C448.127 109.738 450.064 113.884 451.586 117.214L451.632 117.318C452.176 118.484 454.145 122.26 456.471 121.982C458.596 121.729 459.71 118.348 460.228 115.562L464.458 93.802C464.989 91.1007 465.968 86.0607 470.107 83.9942C474.609 81.7528 479.967 84.642 482.15 88.7491C483.957 92.1566 484.054 95.875 483.899 99.7619C485.319 96.3754 487.041 93.1233 489.043 90.0448C491.899 85.6526 495.592 83.7481 498.915 84.9465C500.975 85.6915 503.45 87.8293 503.69 93.8085C503.817 97.2559 503.68 100.708 503.281 104.135C506.818 101.634 512.202 100.928 515.655 104.135C519.276 107.484 519.269 113.333 515.655 120.187C510.9 129.155 505.055 137.502 498.254 145.037C493.655 150.129 487.319 156.29 479.04 158.816C476.248 159.681 473.342 160.126 470.418 160.138V160.138ZM442.264 113.184C440.47 113.184 438.65 115.037 438.092 116.955C437.302 119.676 438.015 122.876 438.65 125.7C441.033 136.408 448.367 146.689 457.261 151.885C463.778 155.681 470.865 156.588 477.693 154.476C484.91 152.28 490.649 146.657 494.86 141.999C501.416 134.733 507.045 126.682 511.619 118.03C512.577 116.223 515.473 110.12 512.565 107.432C510.744 105.748 507.304 106.506 505.361 108.235C502.906 110.412 501.61 113.923 500.463 117.02C500.268 117.588 499.854 118.056 499.313 118.319C498.773 118.583 498.149 118.621 497.581 118.425C497.012 118.229 496.544 117.816 496.281 117.275C496.017 116.734 495.979 116.111 496.175 115.543C498.412 108.573 499.419 101.266 499.148 93.951C499.097 92.7008 498.837 89.7209 497.36 89.1896C496.026 88.7103 494.121 90.4853 492.826 92.5C489.048 98.3043 486.375 104.757 484.942 111.533C484.844 112 484.6 112.424 484.246 112.745C483.893 113.066 483.447 113.267 482.972 113.319C482.498 113.372 482.018 113.273 481.603 113.037C481.188 112.801 480.858 112.44 480.66 112.005C478.95 108.255 479.144 104.076 479.313 100.397V100.287C479.474 96.8014 479.507 93.4587 478.121 90.8545C476.961 88.6779 474.143 87.013 472.109 88.0301C470.224 88.9694 469.446 91.7615 468.87 94.6442L464.64 116.398C463.435 122.61 460.85 125.998 456.97 126.458C453.251 126.905 449.844 124.327 447.486 119.209L447.434 119.105C446.242 116.553 444.894 113.651 442.77 113.191C442.602 113.172 442.433 113.169 442.264 113.184V113.184Z" fill="#323544"/>
<path d="M456.303 125.367C459.385 125.467 462.398 126.302 465.092 127.802C467.787 129.301 470.084 131.423 471.792 133.99" fill="#006C8F"/>
<path d="M471.799 136.255C471.42 136.256 471.048 136.162 470.715 135.982C470.382 135.802 470.1 135.542 469.894 135.225C468.382 132.97 466.357 131.106 463.986 129.784C461.615 128.462 458.964 127.72 456.251 127.619C455.65 127.605 455.079 127.353 454.663 126.919C454.248 126.484 454.022 125.901 454.036 125.3C454.049 124.699 454.302 124.128 454.737 123.712C455.171 123.297 455.754 123.071 456.355 123.085C459.805 123.185 463.181 124.113 466.198 125.791C469.215 127.468 471.784 129.846 473.69 132.724C473.854 132.973 473.967 133.251 474.024 133.544C474.08 133.837 474.078 134.137 474.018 134.429C473.957 134.721 473.84 134.998 473.673 135.245C473.506 135.491 473.291 135.702 473.042 135.866C472.674 136.113 472.242 136.248 471.799 136.255V136.255Z" fill="#323544"/>
<path d="M419.915 96.1973C419.915 96.1973 413.437 121.462 435.462 152.557Z" fill="#111217"/>
<path d="M435.463 154.824C435.1 154.824 434.742 154.737 434.42 154.57C434.097 154.403 433.82 154.162 433.61 153.865C411.235 122.278 417.415 96.7089 417.719 95.6335C417.881 95.0659 418.258 94.5838 418.77 94.2897C419.282 93.9956 419.888 93.9127 420.46 94.0587C421.032 94.2046 421.525 94.5679 421.833 95.0712C422.141 95.5746 422.241 96.1784 422.112 96.7542C422.034 97.0781 416.281 121.52 437.316 151.248C437.556 151.587 437.698 151.986 437.726 152.401C437.754 152.816 437.668 153.23 437.477 153.6C437.286 153.969 436.997 154.278 436.642 154.494C436.286 154.71 435.879 154.824 435.463 154.824V154.824Z" fill="#323544"/>
<path d="M35.6365 109.033H217.217C220.379 109.033 223.41 110.289 225.646 112.524C227.881 114.76 229.137 117.792 229.137 120.953V173.846C229.137 177.008 227.881 180.04 225.646 182.275C223.41 184.51 220.379 185.766 217.217 185.766H212.1C211.742 185.768 211.399 185.911 211.146 186.165C210.894 186.419 210.752 186.762 210.752 187.12V200.99C210.752 201.228 210.689 201.461 210.57 201.667C210.45 201.872 210.279 202.043 210.072 202.161C209.865 202.278 209.631 202.339 209.394 202.337C209.156 202.335 208.923 202.27 208.718 202.149L181.361 185.954C181.153 185.831 180.916 185.766 180.674 185.766H35.6365C32.4752 185.766 29.4434 184.51 27.208 182.275C24.9726 180.04 23.7168 177.008 23.7168 173.846V120.953C23.7168 117.792 24.9726 114.76 27.208 112.524C29.4434 110.289 32.4752 109.033 35.6365 109.033V109.033Z" fill="#111217"/>
<path d="M217.217 109.035C220.378 109.035 223.41 110.29 225.645 112.526C227.881 114.761 229.136 117.793 229.136 120.954V173.848C229.136 177.009 227.881 180.041 225.645 182.276C223.41 184.512 220.378 185.768 217.217 185.768H212.099C211.741 185.769 211.398 185.913 211.146 186.166C210.893 186.42 210.752 186.764 210.752 187.122V200.991C210.752 201.229 210.689 201.463 210.569 201.668C210.45 201.874 210.278 202.044 210.072 202.162C209.865 202.28 209.631 202.341 209.393 202.339C209.155 202.337 208.922 202.272 208.718 202.151L181.361 185.955C181.153 185.833 180.915 185.768 180.674 185.768H35.636C32.4747 185.768 29.4429 184.512 27.2075 182.276C24.9721 180.041 23.7163 177.009 23.7163 173.848V120.954C23.7163 117.793 24.9721 114.761 27.2075 112.526C29.4429 110.29 32.4747 109.035 35.636 109.035H217.217ZM217.217 104.5H35.636C31.2736 104.505 27.0914 106.24 24.0067 109.325C20.922 112.41 19.1868 116.592 19.1816 120.954V173.848C19.1851 178.211 20.9198 182.394 24.0048 185.479C27.0898 188.564 31.2731 190.299 35.636 190.302H179.799L206.405 206.051C207.298 206.58 208.315 206.863 209.353 206.872C210.392 206.881 211.414 206.615 212.316 206.102C213.218 205.588 213.968 204.844 214.49 203.947C215.011 203.049 215.286 202.029 215.286 200.991V190.302H217.23C221.593 190.299 225.776 188.564 228.861 185.479C231.946 182.394 233.681 178.211 233.684 173.848V120.954C233.679 116.592 231.944 112.41 228.859 109.325C225.774 106.24 221.592 104.505 217.23 104.5H217.217Z" fill="#323544"/>
<path d="M23.7168 129.019C34.3105 129.019 42.8984 120.432 42.8984 109.838C42.8984 99.2441 34.3105 90.6562 23.7168 90.6562C13.1231 90.6562 4.53516 99.2441 4.53516 109.838C4.53516 120.432 13.1231 129.019 23.7168 129.019Z" fill="#111217"/>
<path d="M23.7163 90.6577C27.5101 90.6577 31.2186 91.7827 34.373 93.8904C37.5274 95.9981 39.986 98.9939 41.4378 102.499C42.8896 106.004 43.2695 109.861 42.5293 113.581C41.7892 117.302 39.9623 120.72 37.2797 123.403C34.5972 126.085 31.1793 127.912 27.4584 128.652C23.7376 129.393 19.8808 129.013 16.3758 127.561C12.8708 126.109 9.87506 123.65 7.76736 120.496C5.65966 117.342 4.53467 113.633 4.53467 109.839C4.53467 104.752 6.55559 99.8731 10.1528 96.2759C13.7501 92.6786 18.629 90.6577 23.7163 90.6577V90.6577ZM23.7163 86.123C19.0257 86.123 14.4404 87.514 10.5402 90.12C6.64011 92.7259 3.60034 96.4299 1.80531 100.763C0.0102765 105.097 -0.459386 109.866 0.455712 114.466C1.37081 119.067 3.62957 123.292 6.94635 126.609C10.2631 129.926 14.489 132.185 19.0895 133.1C23.69 134.015 28.4585 133.545 32.7921 131.75C37.1257 129.955 40.8297 126.916 43.4357 123.015C46.0416 119.115 47.4326 114.53 47.4326 109.839C47.4257 103.551 44.9248 97.5231 40.4787 93.0769C36.0325 88.6308 30.0041 86.1299 23.7163 86.123V86.123Z" fill="#323544"/>
<path d="M168.399 163.393H199.552C202.647 163.393 205.156 160.884 205.156 157.789V139.424C205.156 136.329 202.647 133.82 199.552 133.82H168.399C165.304 133.82 162.796 136.329 162.796 139.424V157.789C162.796 160.884 165.304 163.393 168.399 163.393Z" fill="#006C8F"/>
<path d="M199.552 165.659H168.399C166.311 165.655 164.31 164.824 162.835 163.347C161.359 161.87 160.53 159.869 160.528 157.781V139.422C160.53 137.335 161.359 135.333 162.835 133.856C164.31 132.38 166.311 131.548 168.399 131.545H199.552C201.639 131.548 203.64 132.38 205.116 133.856C206.591 135.333 207.421 137.335 207.423 139.422V157.781C207.421 159.869 206.591 161.87 205.116 163.347C203.64 164.824 201.639 165.655 199.552 165.659V165.659ZM168.399 136.08C167.513 136.081 166.665 136.434 166.039 137.061C165.414 137.688 165.062 138.537 165.062 139.422V157.781C165.062 158.667 165.414 159.516 166.039 160.143C166.665 160.769 167.513 161.122 168.399 161.124H199.552C200.437 161.122 201.286 160.769 201.911 160.143C202.537 159.516 202.888 158.667 202.888 157.781V139.422C202.888 138.537 202.537 137.688 201.911 137.061C201.286 136.434 200.437 136.081 199.552 136.08H168.399Z" fill="#323544"/>
<path d="M163.741 163.174C163.28 163.174 162.831 163.034 162.453 162.773C162.074 162.511 161.784 162.141 161.621 161.711C161.458 161.28 161.429 160.811 161.54 160.364C161.65 159.917 161.893 159.515 162.238 159.21L182.87 140.916C183.284 140.557 183.813 140.359 184.36 140.359C184.908 140.359 185.437 140.557 185.85 140.916L206.191 158.27C206.649 158.66 206.933 159.216 206.981 159.816C207.029 160.415 206.837 161.009 206.447 161.467C206.057 161.925 205.501 162.209 204.902 162.257C204.302 162.305 203.708 162.113 203.25 161.723L184.438 145.612L165.25 162.604C164.833 162.972 164.296 163.175 163.741 163.174V163.174Z" fill="#323544"/>
<path d="M203.354 135.311L184.374 151.402L164.603 135.311" fill="#006C8F"/>
<path d="M184.373 153.671C183.853 153.672 183.349 153.491 182.948 153.159L163.171 137.068C162.704 136.688 162.408 136.139 162.346 135.54C162.285 134.942 162.464 134.344 162.844 133.877C163.223 133.411 163.773 133.114 164.371 133.053C164.969 132.992 165.568 133.171 166.034 133.55L184.348 148.45L201.884 133.55C202.342 133.161 202.937 132.97 203.537 133.019C204.136 133.069 204.691 133.354 205.081 133.813C205.47 134.271 205.661 134.866 205.612 135.465C205.562 136.065 205.277 136.62 204.818 137.01L185.844 153.101C185.438 153.461 184.916 153.663 184.373 153.671V153.671Z" fill="#323544"/>
<path d="M146.805 160.062H50.8909C50.2895 160.062 49.7128 159.823 49.2876 159.398C48.8624 158.973 48.6235 158.396 48.6235 157.795C48.6235 157.193 48.8624 156.617 49.2876 156.191C49.7128 155.766 50.2895 155.527 50.8909 155.527H146.805C147.407 155.527 147.983 155.766 148.409 156.191C148.834 156.617 149.073 157.193 149.073 157.795C149.073 158.396 148.834 158.973 148.409 159.398C147.983 159.823 147.407 160.062 146.805 160.062Z" fill="#323544"/>
<path d="M146.806 144.881H146.774L94.8194 144.078C94.5216 144.073 94.2277 144.01 93.9544 143.892C93.6811 143.773 93.4338 143.602 93.2266 143.389C93.0193 143.175 92.8563 142.922 92.7466 142.645C92.637 142.368 92.583 142.073 92.5877 141.775C92.5924 141.477 92.6556 141.183 92.7739 140.91C92.8922 140.637 93.0631 140.389 93.277 140.182C93.4908 139.975 93.7434 139.812 94.0203 139.702C94.2971 139.593 94.5929 139.539 94.8906 139.543L146.845 140.347C147.446 140.352 148.021 140.596 148.442 141.024C148.864 141.453 149.098 142.032 149.093 142.633C149.088 143.235 148.844 143.809 148.415 144.231C147.986 144.652 147.407 144.886 146.806 144.881V144.881Z" fill="#323544"/>
<path d="M22.162 118.554H22.0907C21.7235 118.542 21.3648 118.44 21.0454 118.258C20.7261 118.077 20.4556 117.82 20.2574 117.511L14.4272 108.442C14.2472 108.192 14.12 107.908 14.0533 107.607C13.9867 107.307 13.9819 106.996 14.0393 106.693C14.0967 106.391 14.2151 106.103 14.3873 105.848C14.5595 105.593 14.7818 105.375 15.0408 105.209C15.2997 105.043 15.5899 104.931 15.8935 104.88C16.1972 104.829 16.508 104.841 16.807 104.914C17.106 104.988 17.3869 105.121 17.6326 105.306C17.8783 105.492 18.0837 105.725 18.2363 105.993L22.2916 112.296L31.3609 100.039C31.5315 99.7845 31.7521 99.5668 32.0094 99.3996C32.2666 99.2324 32.5551 99.1191 32.8573 99.0666C33.1596 99.0141 33.4694 99.0235 33.7679 99.0943C34.0664 99.165 34.3475 99.2956 34.5941 99.4781C34.8407 99.6607 35.0477 99.8913 35.2025 100.156C35.3574 100.421 35.4568 100.715 35.4949 101.019C35.533 101.323 35.5089 101.632 35.4241 101.927C35.3393 102.222 35.1956 102.497 35.0016 102.734L23.9888 117.634C23.7788 117.921 23.5037 118.154 23.1861 118.314C22.8685 118.474 22.5176 118.556 22.162 118.554V118.554Z" fill="#323544"/>
<path d="M87.5906 143.818H78.5212C77.9199 143.818 77.3432 143.579 76.918 143.154C76.4928 142.729 76.2539 142.152 76.2539 141.551C76.2539 140.949 76.4928 140.372 76.918 139.947C77.3432 139.522 77.9199 139.283 78.5212 139.283H87.5906C88.1919 139.283 88.7686 139.522 89.1938 139.947C89.619 140.372 89.8579 140.949 89.8579 141.551C89.8579 142.152 89.619 142.729 89.1938 143.154C88.7686 143.579 88.1919 143.818 87.5906 143.818V143.818Z" fill="#323544"/>
<path d="M466.688 309.176H312.056C309.364 309.176 306.782 310.245 304.878 312.149C302.975 314.053 301.905 316.635 301.905 319.327V364.376C301.904 365.709 302.166 367.03 302.676 368.262C303.186 369.495 303.933 370.614 304.876 371.558C305.819 372.501 306.938 373.249 308.17 373.76C309.402 374.27 310.723 374.533 312.056 374.533H316.41C316.714 374.533 317.007 374.654 317.223 374.869C317.439 375.083 317.561 375.375 317.563 375.68V387.496C317.563 387.698 317.617 387.896 317.719 388.071C317.821 388.245 317.967 388.39 318.142 388.49C318.318 388.59 318.517 388.641 318.719 388.64C318.921 388.638 319.119 388.583 319.292 388.481L342.614 374.689C342.793 374.586 342.996 374.532 343.203 374.533H466.688C469.381 374.532 471.963 373.461 473.867 371.556C475.77 369.651 476.84 367.068 476.84 364.376V319.327C476.838 316.635 475.768 314.054 473.864 312.151C471.961 310.248 469.38 309.177 466.688 309.176Z" fill="#111217"/>
<path d="M466.688 309.177C469.38 309.179 471.961 310.249 473.864 312.152C475.767 314.056 476.837 316.637 476.839 319.328V364.377C476.839 367.07 475.77 369.653 473.866 371.557C471.963 373.462 469.381 374.533 466.688 374.535H343.151C342.944 374.534 342.741 374.588 342.561 374.69L319.24 388.482C319.067 388.587 318.868 388.644 318.665 388.646C318.463 388.649 318.263 388.597 318.087 388.497C317.91 388.397 317.764 388.251 317.663 388.075C317.562 387.9 317.509 387.7 317.51 387.497V375.681C317.509 375.377 317.387 375.085 317.17 374.87C316.954 374.655 316.662 374.535 316.357 374.535H312.056C310.722 374.535 309.402 374.272 308.17 373.761C306.938 373.251 305.818 372.502 304.876 371.559C303.933 370.616 303.185 369.496 302.676 368.264C302.166 367.031 301.904 365.711 301.905 364.377V319.328C301.905 316.636 302.974 314.054 304.878 312.15C306.782 310.247 309.364 309.177 312.056 309.177H466.688ZM466.688 304.643H312.056C308.163 304.648 304.43 306.197 301.677 308.95C298.924 311.703 297.375 315.435 297.37 319.328V364.377C297.374 368.271 298.922 372.006 301.675 374.76C304.428 377.514 308.161 379.064 312.056 379.069H313.028V387.491C313.029 388.493 313.295 389.477 313.799 390.343C314.303 391.209 315.027 391.927 315.898 392.423C316.768 392.92 317.755 393.177 318.757 393.17C319.759 393.163 320.741 392.891 321.605 392.382L344.11 379.063H466.688C470.582 379.058 474.316 377.508 477.069 374.754C479.822 371.999 481.37 368.265 481.374 364.371V319.328C481.369 315.435 479.82 311.703 477.067 308.95C474.314 306.197 470.581 304.648 466.688 304.643V304.643Z" fill="#323544"/>
<path d="M412.161 352.763C419.681 352.763 425.778 346.667 425.778 339.146C425.778 331.626 419.681 325.529 412.161 325.529C404.64 325.529 398.544 331.626 398.544 339.146C398.544 346.667 404.64 352.763 412.161 352.763Z" fill="#2B2E3D"/>
<path d="M412.161 355.005C409.02 355.005 405.948 354.073 403.336 352.328C400.724 350.582 398.688 348.102 397.486 345.199C396.284 342.297 395.969 339.103 396.582 336.022C397.195 332.941 398.708 330.11 400.929 327.889C403.151 325.667 405.981 324.154 409.062 323.542C412.144 322.929 415.337 323.243 418.24 324.445C421.142 325.648 423.623 327.684 425.368 330.296C427.114 332.908 428.045 335.979 428.045 339.121C428.04 343.332 426.365 347.369 423.387 350.347C420.41 353.325 416.372 355 412.161 355.005ZM412.161 327.797C409.916 327.797 407.722 328.463 405.856 329.71C403.989 330.957 402.534 332.729 401.675 334.803C400.816 336.877 400.592 339.159 401.03 341.361C401.468 343.562 402.548 345.585 404.136 347.172C405.723 348.759 407.745 349.84 409.947 350.278C412.149 350.716 414.431 350.491 416.504 349.632C418.578 348.773 420.351 347.318 421.598 345.452C422.845 343.586 423.511 341.391 423.511 339.147C423.507 336.137 422.31 333.253 420.183 331.125C418.055 328.997 415.17 327.8 412.161 327.797V327.797Z" fill="#323544"/>
<path d="M459.477 336.413H450.932C453.394 334.566 455.83 332.526 455.467 328.924C454.819 322.116 450.025 325.517 450.025 328.924C450.025 333.685 442.705 331.645 442.621 339.134C442.563 339.378 442.535 339.628 442.537 339.879V347.652C442.537 348.496 442.843 349.31 443.398 349.945C443.953 350.58 444.72 350.992 445.556 351.105L455.869 352.485C456.752 352.603 457.65 352.531 458.504 352.274C459.357 352.016 460.145 351.579 460.816 350.992C461.486 350.405 462.024 349.681 462.392 348.869C462.76 348.058 462.95 347.177 462.949 346.285V339.891C462.95 339.435 462.861 338.983 462.687 338.561C462.513 338.139 462.257 337.755 461.934 337.432C461.612 337.109 461.229 336.853 460.807 336.678C460.385 336.503 459.933 336.413 459.477 336.413V336.413Z" fill="#006C8F"/>
<path d="M453.084 324.99C454.166 324.99 455.183 326.046 455.468 328.923C455.83 332.537 453.395 334.565 450.933 336.411H459.478C459.935 336.41 460.387 336.5 460.81 336.674C461.232 336.849 461.616 337.105 461.939 337.428C462.263 337.752 462.519 338.135 462.693 338.558C462.868 338.98 462.957 339.433 462.956 339.89V346.284C462.96 347.177 462.772 348.06 462.405 348.874C462.037 349.688 461.5 350.413 460.828 351.001C460.156 351.589 459.365 352.025 458.51 352.281C457.654 352.537 456.754 352.606 455.869 352.483L445.556 351.117C444.72 351.004 443.954 350.592 443.399 349.957C442.844 349.322 442.538 348.507 442.537 347.664V339.89C442.535 339.639 442.564 339.389 442.622 339.145V339.145C442.706 331.656 450.026 333.697 450.026 328.936C450.026 326.992 451.613 325.003 453.084 325.003V324.99ZM453.084 320.469C451.981 320.501 450.9 320.784 449.922 321.296C448.945 321.808 448.097 322.535 447.441 323.423C446.321 324.823 445.644 326.526 445.498 328.314L444.811 328.689C442.693 329.823 438.333 332.155 438.08 338.692C438.019 339.092 437.988 339.497 437.99 339.903V347.677C437.994 349.617 438.7 351.491 439.977 352.952C441.255 354.413 443.018 355.363 444.941 355.625L455.267 356.999C455.743 357.064 456.224 357.096 456.705 357.096C459.564 357.091 462.304 355.951 464.324 353.928C466.344 351.905 467.478 349.162 467.478 346.303V339.91C467.477 337.843 466.677 335.857 465.247 334.365C463.817 332.873 461.866 331.991 459.802 331.903C460.034 330.78 460.091 329.628 459.97 328.489C459.206 320.864 454.088 320.475 453.071 320.475L453.084 320.469Z" fill="#323544"/>
<path d="M383.801 356.345H317.763C317.162 356.345 316.585 356.106 316.16 355.681C315.735 355.256 315.496 354.679 315.496 354.078C315.496 353.477 315.735 352.9 316.16 352.475C316.585 352.049 317.162 351.811 317.763 351.811H383.801C384.402 351.811 384.979 352.049 385.404 352.475C385.829 352.9 386.068 353.477 386.068 354.078C386.068 354.679 385.829 355.256 385.404 355.681C384.979 356.106 384.402 356.345 383.801 356.345Z" fill="#323544"/>
<path d="M347.038 342.046C346.437 342.051 345.858 341.817 345.429 341.396C345 340.974 344.756 340.4 344.751 339.798C344.746 339.197 344.98 338.618 345.401 338.189C345.823 337.76 346.398 337.517 346.999 337.511L383.762 336.864C384.363 336.853 384.945 337.081 385.378 337.498C385.811 337.915 386.06 338.488 386.072 339.089C386.083 339.69 385.855 340.271 385.437 340.704C385.02 341.138 384.448 341.387 383.846 341.398L347.083 342.046H347.038Z" fill="#323544"/>
<path d="M336.349 341.398H330.519C329.917 341.398 329.341 341.159 328.916 340.734C328.49 340.309 328.251 339.732 328.251 339.131C328.251 338.529 328.49 337.953 328.916 337.527C329.341 337.102 329.917 336.863 330.519 336.863H336.349C336.95 336.863 337.527 337.102 337.952 337.527C338.378 337.953 338.616 338.529 338.616 339.131C338.616 339.732 338.378 340.309 337.952 340.734C337.527 341.159 336.95 341.398 336.349 341.398V341.398Z" fill="#323544"/>
</svg>
