<svg width="600" height="437" viewBox="0 0 600 437" fill="none" xmlns="http://www.w3.org/2000/svg">
<path d="M393.427 419.663H146.152C141.301 419.663 136.577 418.113 132.668 415.24C128.76 412.366 125.872 408.319 124.425 403.688L74.3751 243.284C73.7798 241.375 73.642 239.352 73.9726 237.38C74.3033 235.407 75.0932 233.54 76.2787 231.929C77.4641 230.318 79.0117 229.008 80.7967 228.105C82.5816 227.203 84.5538 226.733 86.5539 226.733H333.227L393.427 419.663Z" fill="#F0F0F0"/>
<path d="M333.226 226.733L393.427 419.663H146.152C141.301 419.663 136.577 418.113 132.668 415.24C128.76 412.366 125.872 408.319 124.425 403.688L74.375 243.284C73.7797 241.375 73.6419 239.352 73.9725 237.38C74.3032 235.407 75.0931 233.54 76.2785 231.929C77.464 230.318 79.0116 229.008 80.7966 228.105C82.5815 227.203 84.5537 226.733 86.5538 226.733H333.226ZM333.226 222.198H86.5538C83.8428 222.199 81.1699 222.838 78.751 224.062C76.3321 225.286 74.2349 227.062 72.6285 229.246C71.0221 231.43 69.9516 233.961 69.5033 236.635C69.055 239.308 69.2414 242.05 70.0476 244.638L120.097 405.036C121.813 410.6 125.272 415.466 129.963 418.916C134.654 422.366 140.329 424.218 146.152 424.198H393.427C394.138 424.198 394.839 424.03 395.473 423.709C396.107 423.388 396.656 422.923 397.078 422.351C397.499 421.778 397.779 421.115 397.897 420.414C398.015 419.713 397.966 418.994 397.755 418.316L337.554 225.379C337.265 224.457 336.69 223.651 335.912 223.079C335.133 222.507 334.193 222.198 333.226 222.198V222.198Z" fill="#4C3133"/>
<path d="M396.589 419.664H155.286C151.792 419.665 148.388 418.549 145.573 416.48C142.757 414.41 140.677 411.494 139.635 408.158L85.3941 234.429C85.118 233.541 85.0544 232.601 85.2084 231.684C85.3624 230.767 85.7297 229.9 86.2806 229.151C86.8316 228.402 87.5508 227.793 88.3802 227.373C89.2097 226.953 90.1263 226.734 91.056 226.733H337.178C340.027 226.734 342.801 227.645 345.096 229.334C347.39 231.022 349.085 233.4 349.933 236.12L404.045 409.532C404.41 410.701 404.494 411.939 404.292 413.147C404.09 414.355 403.606 415.498 402.88 416.484C402.154 417.471 401.207 418.272 400.114 418.825C399.021 419.377 397.813 419.664 396.589 419.664V419.664Z" fill="white"/>
<path d="M337.178 226.733C340.027 226.734 342.801 227.645 345.096 229.333C347.391 231.022 349.085 233.4 349.933 236.12L404.045 409.532C404.41 410.701 404.494 411.939 404.292 413.147C404.09 414.355 403.606 415.498 402.88 416.484C402.155 417.47 401.207 418.272 400.114 418.824C399.021 419.377 397.813 419.664 396.589 419.663H155.286C151.792 419.665 148.388 418.549 145.573 416.479C142.757 414.41 140.677 411.494 139.635 408.158L85.3942 234.429C85.1182 233.541 85.0545 232.601 85.2085 231.684C85.3625 230.767 85.7298 229.899 86.2807 229.15C86.8317 228.402 87.5509 227.793 88.3804 227.373C89.2098 226.953 90.1264 226.734 91.0561 226.733H337.178ZM337.178 222.198H91.0561C89.4128 222.198 87.7925 222.585 86.3263 223.327C84.8602 224.069 83.5894 225.146 82.6168 226.471C81.6442 227.796 80.9971 229.33 80.7278 230.952C80.4585 232.573 80.5747 234.234 81.0669 235.802L135.276 409.525C136.596 413.794 139.254 417.525 142.857 420.167C146.461 422.809 150.818 424.222 155.286 424.198H396.589C398.525 424.199 400.434 423.744 402.161 422.87C403.889 421.997 405.387 420.729 406.534 419.169C407.681 417.61 408.445 415.802 408.765 413.893C409.084 411.984 408.95 410.026 408.372 408.178L354.261 234.766C353.135 231.117 350.868 227.927 347.792 225.664C344.717 223.402 340.996 222.187 337.178 222.198Z" fill="#4C3133"/>
<path d="M224.537 337.016H143.561C140.892 337.016 138.061 334.852 137.245 332.177L133.06 318.482C132.244 315.813 133.747 313.65 136.416 313.65H217.392C220.061 313.65 222.885 315.813 223.701 318.482L227.893 332.177C228.709 334.852 227.193 337.016 224.537 337.016Z" fill="#F0F0F0"/>
<path d="M375.956 400.177H153.991C147.778 400.177 141.436 395.345 139.551 389.164L97.8645 252.768C96.8863 249.529 97.3074 246.387 99.0306 244.062C99.9017 242.929 101.032 242.022 102.325 241.415C103.619 240.809 105.04 240.521 106.467 240.577H328.666C334.801 240.577 341.065 245.351 342.918 251.447L384.617 387.849C385.615 391.088 385.187 394.327 383.445 396.653C382.565 397.793 381.428 398.706 380.126 399.319C378.823 399.932 377.394 400.226 375.956 400.177V400.177ZM106.467 245.111C105.749 245.065 105.031 245.19 104.371 245.476C103.711 245.762 103.128 246.201 102.671 246.757C101.803 247.929 101.641 249.594 102.205 251.447L143.904 387.849C145.2 392.073 149.825 395.623 154.01 395.623H375.956C376.691 395.67 377.428 395.542 378.104 395.248C378.78 394.954 379.376 394.503 379.843 393.932C380.73 392.734 380.899 391.037 380.322 389.151L338.616 252.768C337.321 248.616 332.786 245.111 328.685 245.111H106.467Z" fill="#4C3133"/>
<path d="M308.493 226.733H282.944C282.381 231.992 281.457 237.207 280.178 242.339C273.363 268.86 254.103 291.242 230.672 306.018C207.558 320.588 185.792 327.066 158.817 331.335C160.586 338.968 163.737 346.213 168.113 352.713H308.493V226.733Z" fill="#E2E2E0"/>
<path d="M344.006 264.954H103.267C102.782 264.954 102.309 264.799 101.918 264.511C101.528 264.223 101.24 263.818 101.097 263.354L97.4694 251.492C97.0203 250.205 96.8812 248.831 97.0636 247.48C97.2459 246.129 97.7445 244.84 98.5188 243.719C99.2979 242.705 100.308 241.892 101.466 241.349C102.623 240.806 103.894 240.548 105.172 240.596H329.961C335.371 240.596 340.89 244.8 342.535 250.164L346.157 262.026C346.26 262.364 346.282 262.722 346.222 263.071C346.162 263.419 346.022 263.749 345.811 264.034C345.601 264.318 345.327 264.55 345.011 264.71C344.696 264.869 344.347 264.953 343.993 264.954H344.006ZM104.965 260.419H340.961L338.228 251.492C337.172 248.039 333.401 245.131 329.994 245.131H105.204C104.635 245.092 104.065 245.19 103.542 245.415C103.018 245.64 102.555 245.987 102.192 246.426C101.512 247.353 101.382 248.681 101.842 250.171L104.965 260.419Z" fill="#4C3133"/>
<path d="M133.79 255.543C134.715 254.466 134.282 252.575 132.821 251.322C131.361 250.068 129.427 249.925 128.502 251.002C127.576 252.08 128.01 253.97 129.47 255.224C130.931 256.478 132.865 256.621 133.79 255.543Z" fill="#4C3133"/>
<path d="M146.971 255.537C147.896 254.459 147.462 252.569 146.002 251.315C144.542 250.062 142.608 249.919 141.682 250.996C140.757 252.074 141.191 253.964 142.651 255.218C144.112 256.472 146.046 256.615 146.971 255.537Z" fill="#4C3133"/>
<path d="M220.22 235.303C221.146 234.225 220.712 232.335 219.252 231.081C217.791 229.827 215.857 229.684 214.932 230.762C214.007 231.84 214.44 233.73 215.901 234.984C217.361 236.237 219.295 236.38 220.22 235.303Z" fill="#4C3133"/>
<path d="M119.412 255.547C120.337 254.469 119.903 252.579 118.443 251.325C116.982 250.071 115.049 249.928 114.123 251.006C113.198 252.084 113.632 253.974 115.092 255.228C116.552 256.482 118.486 256.624 119.412 255.547Z" fill="#4C3133"/>
<path d="M213.712 301.613H132.736C130.067 301.613 127.243 299.45 126.426 296.774L122.248 283.092C121.432 280.423 122.935 278.26 125.604 278.26H206.58C209.249 278.26 212.08 280.423 212.896 283.092L217.081 296.787C217.884 299.45 216.381 301.613 213.712 301.613Z" fill="#F0F0F0"/>
<path d="M235.362 372.419H154.386C151.717 372.419 148.886 370.255 148.07 367.58L143.885 353.885C143.069 351.216 144.572 349.052 147.241 349.052H228.217C230.886 349.052 233.71 351.216 234.526 353.885L238.718 367.58C239.534 370.255 238.031 372.419 235.362 372.419Z" fill="#F0F0F0"/>
<path d="M287.481 371.797C291.856 366.702 289.8 357.761 282.889 351.827C275.978 345.893 266.829 345.213 262.454 350.308C258.079 355.403 260.136 364.344 267.047 370.278C273.958 376.212 283.106 376.892 287.481 371.797Z" fill="#F0F0F0"/>
<path d="M146.094 419.663H589.26C589.261 421.188 588.961 422.697 588.378 424.105C587.796 425.514 586.941 426.793 585.864 427.872C584.786 428.95 583.507 429.805 582.099 430.388C580.691 430.972 579.182 431.272 577.658 431.272H157.702C156.179 431.272 154.67 430.972 153.262 430.389C151.855 429.806 150.576 428.951 149.498 427.874C148.421 426.796 147.566 425.517 146.983 424.11C146.4 422.702 146.1 421.193 146.1 419.67V419.67L146.094 419.663Z" fill="#F0F0F0"/>
<path d="M589.26 419.664C589.261 421.188 588.961 422.697 588.379 424.106C587.796 425.514 586.941 426.794 585.864 427.872C584.787 428.95 583.507 429.805 582.099 430.389C580.691 430.972 579.182 431.272 577.658 431.272H157.703C154.624 431.272 151.671 430.049 149.494 427.872C147.317 425.695 146.094 422.742 146.094 419.664H589.26V419.664ZM589.26 415.129H146.094C144.891 415.129 143.738 415.607 142.887 416.457C142.037 417.307 141.559 418.461 141.559 419.664C141.573 423.941 143.278 428.039 146.303 431.064C149.327 434.088 153.425 435.793 157.703 435.807H577.658C581.934 435.792 586.03 434.086 589.053 431.061C592.077 428.037 593.781 423.94 593.795 419.664C593.795 418.461 593.317 417.307 592.466 416.457C591.616 415.607 590.463 415.129 589.26 415.129Z" fill="#4C3133"/>
<path d="M163.909 425.753C161.816 425.752 159.762 425.186 157.965 424.114C156.168 423.042 154.694 421.504 153.699 419.663H146.094C146.094 422.742 147.317 425.695 149.494 427.872C151.671 430.049 154.624 431.272 157.703 431.272H577.658C579.785 431.271 581.871 430.684 583.688 429.577C585.504 428.47 586.981 426.885 587.958 424.995C586.652 425.492 585.267 425.748 583.87 425.753H163.909Z" fill="#E2E2E0"/>
<path d="M354.63 419.663C354.63 419.663 355.589 427.748 345.315 434.032Z" fill="white"/>
<path d="M345.315 436.299C344.819 436.301 344.337 436.14 343.942 435.842C343.547 435.543 343.26 435.124 343.125 434.647C342.991 434.171 343.016 433.663 343.198 433.202C343.379 432.741 343.706 432.352 344.129 432.095C352.92 426.725 352.402 420.188 352.376 419.91C352.308 419.308 352.482 418.705 352.859 418.232C353.236 417.758 353.786 417.454 354.387 417.386C354.988 417.319 355.592 417.492 356.065 417.87C356.538 418.247 356.842 418.797 356.91 419.398C356.956 419.787 357.914 429.005 346.545 435.969C346.174 436.192 345.748 436.307 345.315 436.299V436.299Z" fill="#4C3133"/>
<path d="M543.382 324.39C546.893 324.26 550.249 323.004 553.533 321.76C557.142 320.393 560.75 319.02 564.248 317.381C567.241 315.975 575.734 310.993 576.699 309.562C577.664 308.13 577.774 305.979 576.505 304.807C574.561 303.006 571.056 304.599 568.893 303.051C565.978 300.965 568.692 297.163 571.115 296.1C574.723 294.513 578.889 295.4 582.484 293.762C585.133 292.544 587.135 289.123 585.529 286.694C584.265 284.789 581.48 284.459 580.068 282.665C577.891 279.892 580.424 275.681 583.624 274.198C586.824 272.714 590.562 272.701 593.71 271.121C596.859 269.54 599.113 265.07 596.671 262.537C593.49 259.233 586.954 263.269 583.643 260.069C581.052 257.53 583.086 253.137 585.451 250.352C587.815 247.566 590.633 244.042 589.104 240.738C587.653 237.597 583.106 237.273 580.035 238.795C576.965 240.317 574.658 243.135 571.769 245.04C568.88 246.944 564.643 247.741 562.188 245.299C560.141 243.258 560.245 239.877 558.625 237.473C555.69 233.075 548.331 234.234 545.021 238.393C541.711 242.552 541.426 248.24 541.393 253.526C541.393 257.07 540.162 261.896 536.625 261.65C534.164 261.488 532.739 258.728 530.523 257.659C526.325 255.651 521.706 260.898 522.102 265.511C522.497 270.123 525.736 273.932 528.223 277.884C533.166 285.696 534.701 295.213 534.701 304.573C534.695 313.163 530.199 324.863 543.382 324.39Z" fill="#FFD900"/>
<path d="M542.624 326.67C538.847 326.67 536.107 325.705 534.254 323.729C531.015 320.302 531.56 314.99 532.071 309.853C532.253 308 532.428 306.245 532.428 304.632C532.428 293.995 530.413 285.658 526.293 279.147C525.814 278.389 525.308 277.638 524.796 276.886C522.536 273.531 520.191 270.065 519.834 265.75C519.744 263.938 520.112 262.131 520.904 260.498C521.697 258.866 522.889 257.459 524.369 256.409C525.385 255.65 526.588 255.18 527.849 255.05C529.111 254.92 530.384 255.134 531.534 255.67C532.642 256.257 533.654 257.011 534.533 257.905C535.401 258.702 536.153 259.395 536.813 259.441C536.958 259.458 537.105 259.441 537.242 259.392C537.379 259.342 537.503 259.261 537.604 259.156C538.504 258.32 539.145 256.02 539.158 253.565C539.191 248.046 539.541 241.762 543.278 237.04C544.503 235.563 546.049 234.386 547.798 233.6C549.548 232.814 551.454 232.44 553.371 232.505C554.776 232.516 556.158 232.867 557.399 233.526C558.639 234.186 559.702 235.136 560.497 236.295C561.281 237.578 561.868 238.971 562.24 240.428C562.661 241.82 563.03 243.019 563.775 243.77C565.297 245.286 568.381 244.619 570.506 243.22C571.626 242.445 572.695 241.599 573.706 240.687C575.303 239.188 577.084 237.897 579.005 236.845C581.506 235.585 584.4 235.353 587.07 236.197C587.966 236.488 588.793 236.959 589.5 237.582C590.206 238.205 590.777 238.966 591.177 239.819C593.386 244.606 589.357 249.315 587.187 251.848C585.244 254.096 583.948 257.167 585.244 258.443C586.131 259.318 588.003 259.162 589.979 259.007C592.648 258.793 595.971 258.527 598.316 260.95C598.99 261.658 599.485 262.518 599.757 263.457C600.03 264.396 600.074 265.387 599.884 266.346C599.587 267.788 598.972 269.146 598.083 270.319C597.194 271.493 596.054 272.453 594.747 273.129C592.916 273.969 590.988 274.578 589.007 274.943C587.494 275.22 586.013 275.654 584.589 276.238C583.882 276.573 583.252 277.051 582.739 277.642C582.226 278.233 581.841 278.924 581.609 279.672C581.52 279.934 581.496 280.214 581.54 280.487C581.584 280.761 581.695 281.019 581.862 281.24C582.426 281.786 583.084 282.225 583.805 282.535C585.244 283.162 586.495 284.153 587.433 285.411C587.909 286.144 588.219 286.972 588.34 287.837C588.461 288.703 588.39 289.584 588.133 290.419C587.772 291.592 587.168 292.676 586.361 293.602C585.554 294.527 584.562 295.272 583.449 295.789C581.285 296.78 579.089 296.988 576.971 297.182C575.292 297.242 573.633 297.566 572.054 298.141C571.063 298.575 570.014 299.812 569.929 300.641C569.929 300.797 569.929 300.933 570.24 301.179C570.7 301.509 571.704 301.522 572.67 301.535C574.334 301.535 576.414 301.587 578.066 303.11C580.08 304.969 580.307 308.292 578.604 310.799C577.081 313.06 567.105 318.521 565.233 319.395C561.521 321.164 557.705 322.609 554.337 323.904C551.098 325.141 547.386 326.541 543.466 326.677L542.624 326.67ZM528.593 259.538C527.985 259.561 527.399 259.772 526.915 260.14C526.089 260.735 525.42 261.523 524.969 262.436C524.517 263.348 524.296 264.357 524.324 265.375C524.589 268.51 526.5 271.347 528.528 274.347C529.066 275.137 529.597 275.927 530.102 276.724C534.695 283.98 536.93 293.107 536.936 304.625C536.936 306.465 536.742 308.415 536.554 310.3C536.146 314.433 535.725 318.722 537.532 320.626C538.556 321.721 540.506 322.22 543.278 322.123C546.453 322.006 549.633 320.827 552.704 319.642C555.995 318.398 559.726 316.986 563.257 315.327C566.379 313.857 573.751 309.419 574.82 308.247C575.228 307.599 575.235 306.744 574.937 306.478C574.639 306.213 573.544 306.115 572.553 306.102C571.044 306.102 569.165 306.051 567.552 304.897C566.791 304.391 566.184 303.685 565.797 302.857C565.411 302.028 565.261 301.109 565.362 300.201C565.654 297.435 568.057 294.954 570.176 294.027C572.197 293.25 574.334 292.812 576.498 292.732C578.216 292.677 579.912 292.337 581.519 291.728C582.033 291.481 582.493 291.134 582.871 290.706C583.25 290.279 583.539 289.781 583.721 289.24C583.803 289.037 583.836 288.817 583.817 288.598C583.797 288.38 583.727 288.169 583.611 287.983C583.069 287.391 582.407 286.923 581.668 286.61C580.378 286.01 579.232 285.142 578.305 284.064C577.718 283.304 577.313 282.419 577.122 281.478C576.931 280.537 576.959 279.564 577.204 278.635C577.595 277.223 578.288 275.912 579.235 274.793C580.183 273.674 581.362 272.775 582.691 272.157C584.404 271.426 586.192 270.885 588.023 270.544C589.638 270.254 591.213 269.771 592.713 269.106C593.387 268.749 593.978 268.253 594.445 267.649C594.912 267.046 595.244 266.35 595.421 265.608C595.492 265.349 595.495 265.077 595.432 264.816C595.369 264.555 595.24 264.315 595.058 264.118C594.261 263.295 592.745 263.347 590.348 263.541C587.718 263.749 584.447 264.014 582.082 261.708C578.591 258.301 580.404 252.827 583.747 248.914C585.833 246.478 587.977 243.731 587.064 241.73C586.915 241.431 586.705 241.166 586.449 240.952C586.192 240.738 585.895 240.579 585.574 240.486C584.066 240.041 582.446 240.185 581.039 240.887C579.456 241.783 577.989 242.871 576.673 244.127C575.514 245.172 574.287 246.139 573 247.022C569.405 249.393 563.982 250.391 560.575 247.022C559.02 245.474 558.424 243.511 557.9 241.781C557.646 240.754 557.252 239.766 556.727 238.847C556.319 238.287 555.782 237.834 555.162 237.525C554.542 237.217 553.857 237.061 553.164 237.072C551.96 237.04 550.765 237.279 549.666 237.772C548.567 238.264 547.593 238.997 546.816 239.916C543.972 243.511 543.706 248.674 543.674 253.656C543.674 255.094 543.427 259.985 540.674 262.544C540.118 263.069 539.459 263.473 538.739 263.729C538.018 263.986 537.252 264.09 536.489 264.034C534.229 263.878 532.68 262.447 531.437 261.293C530.88 260.72 530.248 260.226 529.558 259.823C529.263 259.653 528.932 259.555 528.593 259.538V259.538Z" fill="#4C3133"/>
<path d="M493.507 352.408L503.71 414.753H554.337L565.907 352.512C566.399 349.856 564.663 347.329 562.337 347.329H497.096C494.803 347.323 493.08 349.752 493.507 352.408Z" fill="white"/>
<path d="M562.343 347.323C564.676 347.323 566.405 349.823 565.913 352.505L554.337 414.721H503.71L493.507 352.408C493.08 349.784 494.803 347.355 497.096 347.355H562.343V347.323ZM562.343 342.821H497.096C495.941 342.828 494.8 343.087 493.755 343.581C492.71 344.074 491.786 344.79 491.046 345.677C490.189 346.701 489.565 347.898 489.217 349.187C488.869 350.476 488.806 351.825 489.031 353.14L499.234 415.485C499.408 416.547 499.953 417.513 500.773 418.209C501.593 418.906 502.634 419.288 503.71 419.288H554.337C555.397 419.289 556.425 418.918 557.24 418.24C558.056 417.562 558.608 416.619 558.8 415.576L570.363 353.334C570.619 352.005 570.577 350.635 570.241 349.324C569.905 348.012 569.283 346.792 568.42 345.749C567.681 344.84 566.75 344.106 565.694 343.6C564.637 343.094 563.482 342.828 562.311 342.821H562.343Z" fill="#4C3133"/>
<path d="M522.633 405.651C519.337 405.649 516.149 404.476 513.639 402.339C511.129 400.203 509.46 397.244 508.932 393.991L501.294 347.303H497.096C494.803 347.303 493.08 349.732 493.507 352.356L503.71 414.701H554.337L556.319 404.058C554.345 405.087 552.152 405.627 549.925 405.632L522.633 405.651Z" fill="#F0F0F0"/>
<path d="M536.891 345.632C536.723 345.63 536.556 345.613 536.392 345.58C536.101 345.514 535.827 345.392 535.583 345.22C535.34 345.048 535.133 344.83 534.974 344.577C534.816 344.325 534.708 344.044 534.658 343.751C534.608 343.457 534.616 343.156 534.682 342.866C537.701 329.469 540.823 315.612 545.96 302.52C551.79 287.698 559.525 275.805 569.003 267.163C569.448 266.757 570.036 266.545 570.637 266.573C571.238 266.601 571.804 266.867 572.209 267.312C572.615 267.757 572.827 268.345 572.799 268.946C572.771 269.547 572.505 270.113 572.06 270.519C563.101 278.681 555.742 290.005 550.177 304.205C545.17 316.973 542.086 330.655 539.106 343.889C538.987 344.387 538.703 344.829 538.301 345.145C537.899 345.462 537.402 345.633 536.891 345.632Z" fill="#4C3133"/>
<path d="M537.902 304.01C533.328 310.527 525.036 320.73 516.245 320.918C509.061 321.074 502.751 314.44 498.022 309.698C490.566 302.3 484.658 293.491 480.642 283.786C480.331 283.021 480.033 282.108 480.467 281.408C481.361 279.957 483.505 281.233 485.163 281.622C487.819 282.27 490.424 279.821 490.994 277.152C491.564 274.483 490.748 271.73 489.918 269.126L480.94 240.894C480.13 238.303 479.307 235.595 480.046 233.017C480.784 230.439 483.771 228.327 486.174 229.532C489.18 231.035 489.854 236.612 493.177 236.081C495.768 235.666 495.878 231.967 495.366 229.363C492.442 214.463 492.843 199.101 496.539 184.373C497.044 182.371 497.984 180.033 500.018 179.709C502.557 179.294 504.215 182.384 504.423 184.943C504.63 187.502 504.352 190.449 506.172 192.263C508.212 194.304 511.873 193.559 513.946 191.564C516.019 189.568 516.971 186.699 518.046 184.017C520.087 178.898 522.808 174.078 526.137 169.687C528.411 166.688 532.058 163.617 535.511 165.107C538.647 166.461 539.236 170.6 539.113 174.008C538.815 182.358 536.962 190.559 535.122 198.709L547.936 188.137C549.232 187.068 550.748 185.934 552.406 186.161C554.997 186.517 555.975 189.75 556.014 192.36C556.054 196.602 555.171 200.802 553.427 204.668C551.684 208.535 549.12 211.977 545.915 214.755C543.972 216.42 541.73 217.871 540.324 220.028C538.919 222.185 538.64 225.386 540.538 227.154L550.903 220.981C552.425 220.074 554.239 219.141 555.878 219.808C557.517 220.475 558.126 222.328 557.925 223.98C557.724 225.632 556.83 227.102 555.982 228.515L537.325 258.476C536.898 259.043 536.632 259.714 536.554 260.419C536.509 262.447 539.379 263.218 541.251 262.447C543.123 261.676 544.652 260.082 546.64 259.694C549.944 259.046 553.015 262.194 553.572 265.524C554.129 268.854 552.924 272.17 551.7 275.312C547.858 285.243 544.017 295.297 537.902 304.01Z" fill="#FFD900"/>
<path d="M515.999 323.185C508.316 323.185 501.851 316.707 497.109 311.991L496.422 311.305C488.759 303.683 482.683 294.618 478.543 284.634C478.245 283.909 477.448 281.978 478.543 280.21C480.169 277.567 483.194 278.597 484.652 279.089C485.034 279.219 485.397 279.342 485.688 279.407C485.933 279.455 486.186 279.452 486.43 279.399C486.674 279.345 486.904 279.242 487.107 279.096C487.963 278.526 488.572 277.653 488.811 276.653C489.29 274.509 488.493 272.009 487.793 269.806L478.815 241.574C478.024 239.1 476.949 235.712 477.895 232.389C478.218 231.306 478.77 230.306 479.513 229.456C480.257 228.605 481.174 227.924 482.203 227.459C482.989 227.092 483.847 226.905 484.714 226.912C485.582 226.918 486.437 227.119 487.217 227.498C489.096 228.43 490.171 230.186 491.104 231.734C491.661 232.648 492.399 233.904 492.833 233.84C492.911 233.84 492.924 233.84 492.982 233.742C493.352 233.211 493.527 231.689 493.157 229.797C490.173 214.564 490.582 198.86 494.356 183.803C495.315 180.007 497.102 177.869 499.668 177.454C500.372 177.338 501.092 177.374 501.782 177.558C502.471 177.742 503.113 178.071 503.665 178.523C505.66 180.091 506.535 182.766 506.697 184.755C506.735 185.26 506.755 185.779 506.781 186.303C506.858 188.098 506.93 189.795 507.785 190.65C508.854 191.713 511.134 191.13 512.384 189.925C513.861 188.493 514.697 186.375 515.571 184.127L515.954 183.162C518.081 177.854 520.913 172.858 524.375 168.307C528.133 163.345 532.654 161.369 536.457 163.015C538.867 164.058 541.685 166.824 541.426 174.079C541.103 180.368 540.236 186.617 538.834 192.756L546.608 186.375C547.813 185.384 550.067 183.531 552.827 183.907C556.137 184.354 558.32 187.657 558.392 192.328C558.439 196.909 557.484 201.444 555.594 205.617C553.704 209.79 550.924 213.499 547.45 216.485C546.958 216.899 546.459 217.301 545.96 217.703C544.558 218.692 543.321 219.897 542.294 221.272C541.779 222.066 541.512 222.995 541.529 223.941L549.808 219.005C551.162 218.202 553.967 216.53 556.798 217.709C559.176 218.681 560.594 221.369 560.244 224.252C559.979 226.429 558.852 228.249 557.945 229.713L539.333 259.707C539.198 259.915 539.075 260.132 538.964 260.354C539.452 260.539 539.991 260.539 540.48 260.354C541.119 260.065 541.73 259.718 542.307 259.318C543.503 258.452 544.856 257.827 546.291 257.478C547.254 257.303 548.243 257.324 549.198 257.54C550.153 257.756 551.054 258.163 551.849 258.735C553.986 260.256 555.438 262.558 555.891 265.142C556.539 269.165 555.088 273.019 553.896 276.155C550.093 286.085 546.122 296.36 539.838 305.351C531.624 317.051 523.734 323.062 516.375 323.224L515.999 323.185ZM482.89 283.28C486.796 292.561 492.478 300.989 499.616 308.092L500.316 308.785C504.773 313.235 510.311 318.787 516.193 318.651C521.946 318.528 528.806 313.015 536.042 302.708C542.035 294.177 545.87 284.168 549.581 274.49C550.624 271.769 551.803 268.659 551.331 265.887C551.082 264.51 550.312 263.282 549.18 262.46C548.882 262.235 548.543 262.071 548.181 261.979C547.82 261.887 547.443 261.867 547.074 261.922C546.208 262.177 545.394 262.585 544.671 263.127C543.852 263.677 542.985 264.152 542.08 264.546C541.12 264.933 540.082 265.084 539.052 264.987C538.022 264.89 537.03 264.548 536.159 263.989C535.561 263.597 535.073 263.06 534.74 262.427C534.406 261.795 534.239 261.088 534.254 260.374C534.331 259.261 534.715 258.192 535.362 257.284L553.974 227.29C554.712 226.092 555.483 224.861 555.626 223.669C555.716 222.911 555.405 222.056 554.978 221.875C554.233 221.577 552.626 222.522 552.017 222.898L541.652 229.072C541.233 229.321 540.744 229.428 540.259 229.378C539.774 229.328 539.317 229.123 538.957 228.793C536.081 226.15 536.509 221.667 538.381 218.798C539.66 217.004 541.228 215.435 543.019 214.153C543.486 213.786 543.946 213.41 544.399 213.026C547.371 210.479 549.75 207.313 551.369 203.75C552.988 200.187 553.809 196.313 553.773 192.399C553.773 190.585 553.125 188.545 552.127 188.409C551.331 188.305 550.08 189.335 549.407 189.886L536.586 200.452C536.222 200.739 535.779 200.907 535.316 200.934C534.854 200.962 534.394 200.847 533.998 200.605C533.603 200.362 533.291 200.005 533.106 199.58C532.92 199.156 532.868 198.684 532.959 198.23C534.753 190.3 536.606 182.106 536.897 173.943C536.962 172.24 536.897 168.158 534.662 167.212C532.589 166.312 529.771 168.728 527.997 171.099C524.796 175.33 522.181 179.974 520.223 184.904L519.854 185.831C518.888 188.318 517.787 191.13 515.597 193.241C512.741 196.001 507.655 196.927 504.637 193.889C502.538 191.79 502.408 188.875 502.311 186.537C502.311 186.064 502.266 185.597 502.233 185.144C502.179 184.014 501.719 182.943 500.938 182.125C500.685 181.924 500.555 181.95 500.465 181.963C500.018 182.034 499.35 182.857 498.826 184.943C495.217 199.349 494.823 214.373 497.673 228.949C497.958 230.38 498.437 233.976 496.772 236.36C496.411 236.89 495.945 237.339 495.402 237.68C494.859 238.022 494.251 238.247 493.617 238.342C490.223 238.886 488.474 236.023 487.308 234.131C486.66 233.049 485.96 231.935 485.241 231.579C485.057 231.498 484.856 231.461 484.654 231.471C484.453 231.481 484.257 231.538 484.082 231.637C483.663 231.833 483.289 232.114 482.985 232.462C482.68 232.81 482.452 233.217 482.313 233.658C481.782 235.517 482.391 237.733 483.188 240.227L492.166 268.459C492.995 271.05 494.032 274.328 493.287 277.664C492.789 279.849 491.454 281.752 489.568 282.963C488.857 283.426 488.06 283.743 487.225 283.896C486.39 284.048 485.533 284.033 484.703 283.85C484.198 283.727 483.712 283.565 483.246 283.41L482.89 283.28Z" fill="#4C3133"/>
<path d="M520.935 345.062C520.457 345.061 519.992 344.908 519.606 344.627C519.219 344.345 518.932 343.949 518.785 343.494C506.635 305.885 506.939 265.36 519.653 227.938C519.74 227.646 519.886 227.375 520.081 227.14C520.276 226.906 520.516 226.713 520.787 226.574C521.058 226.434 521.355 226.351 521.659 226.329C521.963 226.307 522.268 226.346 522.557 226.444C522.845 226.543 523.111 226.699 523.338 226.902C523.565 227.106 523.748 227.353 523.878 227.629C524.007 227.905 524.079 228.204 524.09 228.509C524.101 228.814 524.05 229.117 523.941 229.402C511.538 265.905 511.241 305.435 523.093 342.121C523.201 342.461 523.228 342.823 523.172 343.176C523.115 343.529 522.976 343.864 522.766 344.153C522.556 344.442 522.281 344.678 521.963 344.842C521.645 345.005 521.293 345.092 520.935 345.094V345.062Z" fill="#4C3133"/>
<path d="M531.987 362.125H492.471C491.869 362.125 491.293 361.886 490.867 361.461C490.442 361.036 490.203 360.459 490.203 359.858C490.203 359.256 490.442 358.68 490.867 358.254C491.293 357.829 491.869 357.59 492.471 357.59H531.987C532.588 357.59 533.165 357.829 533.59 358.254C534.015 358.68 534.254 359.256 534.254 359.858C534.254 360.459 534.015 361.036 533.59 361.461C533.165 361.886 532.588 362.125 531.987 362.125V362.125Z" fill="#4C3133"/>
<path d="M554.013 362.125H546.239C545.638 362.125 545.061 361.886 544.636 361.461C544.21 361.036 543.972 360.459 543.972 359.858C543.972 359.256 544.21 358.68 544.636 358.254C545.061 357.829 545.638 357.59 546.239 357.59H554.013C554.614 357.59 555.191 357.829 555.616 358.254C556.041 358.68 556.28 359.256 556.28 359.858C556.28 360.459 556.041 361.036 555.616 361.461C555.191 361.886 554.614 362.125 554.013 362.125V362.125Z" fill="#4C3133"/>
<path d="M416.522 4.53467H271.076C269.823 4.53382 268.582 4.7798 267.423 5.25855C266.265 5.73731 265.213 6.43947 264.326 7.32495C263.44 8.21042 262.736 9.26187 262.256 10.4193C261.775 11.5766 261.528 12.8173 261.527 14.0704V56.4371C261.526 57.6905 261.772 58.9317 262.252 60.0898C262.731 61.2479 263.434 62.3001 264.32 63.1864C265.206 64.0726 266.258 64.7755 267.416 65.2547C268.575 65.734 269.816 65.9802 271.069 65.9793H275.17C275.457 65.9793 275.732 66.0933 275.935 66.2962C276.138 66.4991 276.252 66.7743 276.252 67.0612V78.1711C276.25 78.3619 276.299 78.5497 276.394 78.7153C276.489 78.8808 276.626 79.0181 276.792 79.113C276.957 79.208 277.145 79.2572 277.336 79.2556C277.527 79.254 277.714 79.2017 277.878 79.1039L299.793 66.1478C299.958 66.0456 300.149 65.9918 300.344 65.9923H416.522C417.776 65.9931 419.019 65.7465 420.178 65.2666C421.338 64.7866 422.391 64.0827 423.278 63.1952C424.165 62.3076 424.868 61.2539 425.347 60.0942C425.826 58.9346 426.072 57.6918 426.07 56.4371V14.0704C426.067 11.5402 425.059 9.11476 423.269 7.32683C421.479 5.53891 419.052 4.53467 416.522 4.53467V4.53467Z" fill="white"/>
<path d="M416.522 4.53466C419.052 4.53466 421.479 5.5389 423.269 7.32682C425.059 9.11475 426.067 11.5402 426.07 14.0704V56.4371C426.07 57.6907 425.823 58.9321 425.344 60.0902C424.864 61.2484 424.16 62.3006 423.273 63.1868C422.387 64.0729 421.334 64.7757 420.175 65.2548C419.017 65.734 417.775 65.9802 416.522 65.9793H300.35C300.156 65.9788 299.965 66.0327 299.8 66.1348L277.884 79.091C277.72 79.1888 277.532 79.2403 277.34 79.24C277.053 79.24 276.778 79.126 276.575 78.9231C276.372 78.7202 276.258 78.445 276.258 78.1581V67.0612C276.258 66.7742 276.144 66.4991 275.941 66.2962C275.738 66.0933 275.463 65.9793 275.176 65.9793H271.076C269.822 65.981 268.58 65.7354 267.421 65.2566C266.262 64.7777 265.209 64.075 264.322 63.1887C263.435 62.3023 262.732 61.2498 262.252 60.0913C261.773 58.9327 261.526 57.691 261.527 56.4371V14.0704C261.528 12.8173 261.776 11.5766 262.256 10.4192C262.736 9.26186 263.44 8.21041 264.326 7.32494C265.213 6.43946 266.266 5.7373 267.424 5.25854C268.582 4.77979 269.823 4.53381 271.076 4.53466H416.522ZM416.522 0H271.076C267.344 0.0034237 263.766 1.48653 261.126 4.12413C258.486 6.76173 256.999 10.3386 256.992 14.0704V56.4371C256.998 60.1689 258.482 63.7465 261.121 66.3853C263.76 69.0241 267.337 70.5088 271.069 70.514H271.717V78.1711C271.716 79.1623 271.977 80.1362 272.474 80.9937C272.971 81.8511 273.687 82.5615 274.548 83.0526C275.409 83.5437 276.385 83.7979 277.376 83.7893C278.367 83.7807 279.338 83.5096 280.19 83.0037L301.29 70.514H416.522C420.255 70.5106 423.834 69.0266 426.474 66.3876C429.114 63.7486 430.6 60.1701 430.605 56.4371V14.0704C430.598 10.3386 429.112 6.76173 426.472 4.12413C423.832 1.48653 420.254 0.0034237 416.522 0Z" fill="#4C3133"/>
<path d="M353.775 43.8955H276.945C276.343 43.8955 275.767 43.6566 275.341 43.2314C274.916 42.8062 274.677 42.2295 274.677 41.6282C274.677 41.0268 274.916 40.4501 275.341 40.0249C275.767 39.5997 276.343 39.3608 276.945 39.3608H353.775C354.376 39.3608 354.953 39.5997 355.378 40.0249C355.803 40.4501 356.042 41.0268 356.042 41.6282C356.042 42.2295 355.803 42.8062 355.378 43.2314C354.953 43.6566 354.376 43.8955 353.775 43.8955V43.8955Z" fill="#4C3133"/>
<path d="M276.945 31.7428C276.344 31.7471 275.765 31.5123 275.337 31.0901C274.909 30.668 274.666 30.093 274.661 29.4916C274.657 28.8903 274.892 28.3119 275.314 27.8836C275.736 27.4554 276.311 27.2124 276.913 27.2081L318.534 26.5603C318.832 26.556 319.128 26.6105 319.404 26.7205C319.681 26.8305 319.933 26.9939 320.147 27.2015C320.361 27.409 320.531 27.6566 320.649 27.93C320.767 28.2035 320.83 28.4975 320.834 28.7952C320.838 29.093 320.784 29.3887 320.674 29.6654C320.564 29.9421 320.4 30.1944 320.193 30.408C319.985 30.6215 319.738 30.7921 319.464 30.91C319.191 31.0278 318.897 31.0907 318.599 31.095L276.984 31.7428H276.945Z" fill="#4C3133"/>
<path d="M385.99 38.0199C382.389 37.8839 371.985 38.4215 369.543 48.9873C369.478 49.2855 369.318 49.5544 369.086 49.7525C368.854 49.9507 368.563 50.0672 368.258 50.0841C367.954 50.101 367.652 50.0174 367.399 49.8462C367.147 49.675 366.958 49.4256 366.861 49.1363C364.593 42.3667 363.984 30.5377 386.068 28.5036C386.396 28.4797 386.706 28.3416 386.942 28.1131C387.179 27.8847 387.328 27.5804 387.364 27.2533L388.193 18.7865C388.217 18.5383 388.307 18.3011 388.454 18.0997C388.601 17.8983 388.799 17.74 389.028 17.6414C389.257 17.5428 389.509 17.5075 389.756 17.5391C390.003 17.5707 390.238 17.6682 390.434 17.8212L408.962 32.2285C409.124 32.3539 409.256 32.5135 409.35 32.6959C409.443 32.8783 409.495 33.0791 409.502 33.2839C409.508 33.4887 409.47 33.6924 409.389 33.8806C409.308 34.0689 409.186 34.2369 409.033 34.3727L390.532 50.8206C390.338 50.9942 390.1 51.1103 389.845 51.1557C389.589 51.2012 389.325 51.1742 389.084 51.0779C388.843 50.9815 388.634 50.8196 388.479 50.6104C388.325 50.4013 388.233 50.1532 388.212 49.8942L387.325 39.3026C387.297 38.9629 387.146 38.6452 386.9 38.4091C386.654 38.1729 386.331 38.0345 385.99 38.0199V38.0199Z" fill="#C5E6F1"/>
<path d="M389.605 53.4442C388.686 53.4426 387.801 53.0964 387.124 52.4739C386.448 51.8515 386.03 50.998 385.952 50.082L385.135 40.2742C381.249 40.2742 373.637 41.3431 371.752 49.499C371.576 50.2786 371.15 50.9793 370.539 51.4941C369.927 52.0089 369.164 52.3094 368.366 52.3498C367.568 52.3902 366.778 52.1682 366.118 51.7178C365.458 51.2673 364.964 50.6132 364.71 49.8553C362.831 44.2453 363.201 39.1924 365.772 35.2472C369.011 30.3174 375.49 27.3115 385.161 26.3139L385.932 18.5402C385.996 17.8881 386.234 17.2651 386.622 16.7364C387.009 16.2077 387.531 15.7926 388.133 15.5345C388.735 15.2763 389.396 15.1846 390.046 15.2689C390.696 15.3533 391.311 15.6105 391.827 16.0138L410.355 30.4469C410.779 30.7769 411.126 31.1964 411.37 31.6755C411.614 32.1546 411.75 32.6816 411.767 33.2191C411.784 33.7565 411.683 34.2912 411.47 34.785C411.257 35.2789 410.939 35.7198 410.536 36.0764L392.035 52.5243C391.365 53.1186 390.501 53.4461 389.605 53.4442V53.4442ZM386.081 35.759C386.974 35.7939 387.824 36.1545 388.47 36.7726C389.115 37.3908 389.512 38.2238 389.586 39.1146L390.324 47.9702L406.746 33.375L390.292 20.5808L389.599 27.4735C389.512 28.3215 389.133 29.113 388.527 29.7122C387.92 30.3115 387.125 30.6811 386.276 30.7579C377.692 31.5482 372.076 33.8933 369.575 37.7283C367.975 40.1706 367.858 43.0144 368.279 45.502C372.251 36.0116 382.726 35.61 386.081 35.7395V35.759Z" fill="#4C3133"/>
<path d="M333.116 31.095H326.638C326.037 31.095 325.46 30.8561 325.035 30.4309C324.61 30.0057 324.371 29.429 324.371 28.8276C324.371 28.2263 324.61 27.6496 325.035 27.2244C325.46 26.7992 326.037 26.5603 326.638 26.5603H333.116C333.718 26.5603 334.294 26.7992 334.72 27.2244C335.145 27.6496 335.384 28.2263 335.384 28.8276C335.384 29.429 335.145 30.0057 334.72 30.4309C334.294 30.8561 333.718 31.095 333.116 31.095Z" fill="#4C3133"/>
<path d="M398.739 181.827C383.302 162.995 352.564 152.721 331.406 164.764C316.17 173.438 307.969 190.747 303.635 207.733C299.301 224.718 297.856 242.501 291.534 258.852C281.486 284.816 259.597 305.092 234.526 317.154C209.767 329.087 187.353 332.974 160.048 334.017C162.639 360.519 182.015 383.25 205.965 395.559H345.742C352.192 392.999 358.347 389.752 364.101 385.874C383.95 372.348 397.23 350.976 406.209 328.692C416.389 303.37 421.701 276.354 421.866 249.063C422.015 224.751 414.177 200.652 398.739 181.827Z" fill="#C5E6F1"/>
<path d="M352.143 159.581C369.471 159.581 387.889 168.592 398.739 181.827C414.177 200.652 422.015 224.751 421.879 249.096C421.714 276.387 416.401 303.402 406.222 328.724C397.25 351.009 383.969 372.38 364.114 385.906C358.356 389.786 352.197 393.033 345.742 395.591H205.965C181.996 383.283 162.626 360.519 160.048 334.049C187.353 333.013 209.767 329.119 234.507 317.206C259.597 305.124 281.486 284.816 291.514 258.903C297.837 242.553 299.288 224.77 303.615 207.785C307.943 190.799 316.15 173.49 331.387 164.816C337.728 161.313 344.873 159.527 352.117 159.633L352.143 159.581ZM352.117 155.098C343.604 155.098 335.876 157.042 329.139 160.877C314.978 168.936 304.911 184.341 299.217 206.664C297.578 213.103 296.334 219.691 295.129 226.059C293.056 237.02 291.106 247.366 287.278 257.264C278.357 280.307 258.398 300.668 232.512 313.138C210.668 323.658 189.62 328.407 159.854 329.54C159.236 329.564 158.63 329.714 158.073 329.98C157.515 330.246 157.018 330.623 156.612 331.089C156.205 331.554 155.898 332.097 155.709 332.685C155.52 333.274 155.454 333.894 155.513 334.509C156.809 347.938 162.302 361.225 171.378 372.95C180.149 384.09 191.236 393.19 203.872 399.62C204.515 399.952 205.228 400.126 205.952 400.126H345.742C346.322 400.126 346.896 400.014 347.433 399.795C354.185 397.113 360.629 393.712 366.654 389.651C384.857 377.252 399.575 357.325 410.413 330.421C420.769 304.557 426.19 276.982 426.394 249.121C426.537 223.054 417.973 198.139 402.225 178.951C390.324 164.427 370.657 155.047 352.123 155.047L352.117 155.098Z" fill="#4C3133"/>
<path d="M359.346 380.911H243.388C215.235 380.911 189.452 364.347 178.504 338.409C177.746 336.621 177.079 334.794 176.476 332.954C171.151 333.459 165.684 333.803 160.002 334.017C162.594 360.518 181.97 383.25 205.919 395.558H345.742C361.945 389.225 376.03 378.447 386.379 364.464C383.631 366.892 380.734 369.147 377.705 371.214C371.952 375.097 365.797 378.348 359.346 380.911V380.911Z" fill="#81C4D4"/>
<path d="M363.557 196.61C327.928 193.371 327.928 227.057 340.236 240.013C352.544 252.969 376.189 240.337 396.271 242.28C407.226 243.343 421.458 237.098 420.525 231.164C418.487 218.076 413.994 205.491 407.284 194.07C393.149 193.338 390.065 199.02 363.557 196.61Z" fill="#81C4D4"/>
<path d="M404.913 218.234C407.514 218.234 409.623 216.125 409.623 213.524C409.623 210.923 407.514 208.815 404.913 208.815C402.312 208.815 400.204 210.923 400.204 213.524C400.204 216.125 402.312 218.234 404.913 218.234Z" fill="#4C3133"/>
<path d="M364.704 220.566C367.305 220.566 369.413 218.457 369.413 215.856C369.413 213.255 367.305 211.147 364.704 211.147C362.103 211.147 359.994 213.255 359.994 215.856C359.994 218.457 362.103 220.566 364.704 220.566Z" fill="#4C3133"/>
<path d="M404.92 187.592H404.589L399.212 187.048C398.353 186.962 397.564 186.539 397.017 185.87C396.47 185.202 396.211 184.344 396.297 183.485C396.383 182.626 396.807 181.836 397.475 181.29C398.143 180.743 399.001 180.484 399.86 180.57L405.23 181.114C405.656 181.135 406.073 181.24 406.458 181.422C406.843 181.604 407.188 181.86 407.474 182.175C407.76 182.491 407.981 182.859 408.125 183.26C408.269 183.661 408.332 184.087 408.311 184.512C408.29 184.937 408.186 185.354 408.004 185.739C407.821 186.124 407.565 186.47 407.25 186.756C406.934 187.042 406.566 187.263 406.165 187.407C405.764 187.55 405.338 187.613 404.913 187.592H404.92Z" fill="#4C3133"/>
<path d="M357.448 194.99C356.705 194.989 355.984 194.733 355.408 194.264C354.831 193.794 354.433 193.141 354.281 192.413C354.129 191.685 354.232 190.928 354.573 190.267C354.914 189.606 355.472 189.083 356.153 188.784L361.102 186.634C361.89 186.29 362.782 186.273 363.582 186.587C364.382 186.901 365.024 187.52 365.368 188.308C365.711 189.096 365.728 189.988 365.414 190.788C365.1 191.588 364.481 192.23 363.693 192.574L358.737 194.725C358.33 194.901 357.892 194.991 357.448 194.99V194.99Z" fill="#4C3133"/>
<path d="M370.443 144.494C355.103 139.959 335.578 143.276 321.553 150.972C315.418 154.34 309.743 158.817 302.967 160.566C296.191 162.315 287.64 160.21 285.016 153.725C283.468 149.909 284.369 145.414 286.597 141.954C288.826 138.495 292.227 135.949 295.796 133.909C304.817 128.788 315.175 126.514 325.511 127.385C328.297 127.625 332.067 127.43 332.637 124.697C333.064 122.578 330.946 120.81 328.893 120.162C326.839 119.514 324.526 119.333 322.881 117.947C320.776 116.172 320.536 112.822 321.799 110.38C323.062 107.938 325.505 106.292 328.05 105.262C338.357 101.091 350.652 105.865 358.018 114.196C365.384 122.527 368.668 133.662 370.624 144.604L370.443 144.494Z" fill="#C5E6F1"/>
<path d="M298.303 163.41C291.883 163.41 285.347 160.566 282.911 154.574C281.188 150.317 281.855 145.141 284.693 140.73C286.811 137.439 290.076 134.563 294.675 131.939C304.101 126.599 314.917 124.224 325.712 125.124C328.621 125.377 330.247 124.872 330.402 124.243C330.506 123.718 329.54 122.734 328.18 122.3C327.668 122.131 327.105 121.995 326.515 121.846C324.857 121.445 322.985 120.985 321.41 119.657C318.638 117.325 317.932 112.881 319.771 109.292C321.125 106.668 323.691 104.53 327.189 103.118C337.638 98.8814 351.002 102.807 359.702 112.647C368.124 122.19 371.24 135.198 372.84 144.157C372.918 144.571 372.878 144.999 372.725 145.392C372.573 145.785 372.313 146.127 371.977 146.38C371.64 146.634 371.239 146.788 370.819 146.825C370.399 146.863 369.977 146.782 369.601 146.593C355.731 142.57 336.887 145.116 322.628 152.941C320.899 153.887 319.15 154.962 317.446 155.999C313.112 158.661 308.636 161.414 303.499 162.742C301.801 163.179 300.056 163.403 298.303 163.41V163.41ZM321.21 129.464C312.696 129.471 304.33 131.681 296.923 135.878C292.972 138.132 290.218 140.523 288.502 143.185C286.487 146.307 285.956 150.019 287.109 152.902C289.247 158.182 296.703 159.866 302.391 158.402C306.874 157.243 310.864 154.787 315.094 152.19C316.83 151.121 318.625 150.019 320.458 149.015C334.878 141.099 353.011 138.275 367.696 141.481C366.019 133.423 362.961 123.239 356.295 115.699C350.206 108.806 339.031 103.261 328.886 107.368C327.156 108.067 324.87 109.344 323.794 111.423C322.933 113.094 323.147 115.245 324.319 116.217C325.083 116.865 326.262 117.143 327.558 117.467C328.206 117.629 328.854 117.791 329.553 118.011C332.682 119.028 335.494 121.82 334.814 125.176C334.418 127.119 332.65 130.313 325.284 129.678C323.95 129.523 322.576 129.464 321.21 129.464Z" fill="#4C3133"/>
<path d="M478.368 156.666C457.858 162.917 440.361 143.749 436.448 126.219C435.723 122.98 435.004 119.553 435.93 116.353C436.856 113.153 440.044 110.341 443.296 111.054C446.548 111.766 448.167 115.31 449.579 118.329C450.992 121.348 453.466 124.677 456.744 124.282C460.307 123.861 461.771 119.566 462.458 116.042L466.688 94.2886C467.303 91.1208 468.23 87.519 471.119 86.0743C474.358 84.4613 478.452 86.6768 480.15 89.864C481.847 93.0513 481.769 96.8604 481.607 100.469C481.445 104.077 481.244 107.854 482.747 111.145C484.244 104.098 487.022 97.3852 490.942 91.341C492.587 88.8146 495.315 86.1132 498.146 87.1368C500.672 88.0502 501.326 91.2698 501.424 93.9517C501.697 101.527 500.658 109.093 498.353 116.314C499.649 112.784 501.054 109.11 503.866 106.597C506.677 104.083 511.361 103.274 514.121 105.826C517.645 109.065 515.883 114.895 513.635 119.151C508.967 127.955 503.232 136.148 496.559 143.548C491.499 149.158 485.611 154.457 478.368 156.666Z" fill="#C5E6F1"/>
<path d="M470.42 160.138C464.983 160.099 459.657 158.602 454.995 155.804C445.032 149.974 436.857 138.573 434.265 126.685C433.559 123.498 432.672 119.527 433.786 115.673C434.971 111.565 439.15 107.769 443.814 108.793C448.128 109.739 450.065 113.885 451.588 117.214L451.633 117.318C452.177 118.484 454.147 122.261 456.472 121.982C458.597 121.73 459.711 118.348 460.229 115.562L464.46 93.8025C464.991 91.1012 465.969 86.0612 470.109 83.9947C474.611 81.7533 479.968 84.6425 482.151 88.7496C483.959 92.1571 484.056 95.8755 483.9 99.7624C485.321 96.3759 487.042 93.1237 489.044 90.0453C491.901 85.6531 495.593 83.7486 498.917 84.947C500.977 85.692 503.451 87.8297 503.691 93.809C503.818 97.2564 503.682 100.708 503.283 104.135C506.82 101.635 512.203 100.928 515.656 104.135C519.277 107.484 519.271 113.334 515.656 120.188C510.901 129.156 505.057 137.502 498.256 145.038C493.656 150.13 487.321 156.29 479.042 158.817C476.249 159.682 473.343 160.127 470.42 160.138V160.138ZM442.266 113.185C440.471 113.185 438.651 115.038 438.094 116.955C437.303 119.676 438.016 122.876 438.651 125.701C441.035 136.409 448.368 146.69 457.263 151.885C463.779 155.681 470.866 156.588 477.694 154.476C484.911 152.28 490.651 146.657 494.861 142C501.417 134.733 507.046 126.682 511.62 118.031C512.579 116.223 515.475 110.121 512.566 107.432C510.746 105.748 507.306 106.506 505.362 108.236C502.907 110.412 501.612 113.923 500.465 117.02C500.269 117.589 499.855 118.056 499.315 118.32C498.774 118.584 498.151 118.622 497.582 118.426C497.013 118.23 496.546 117.816 496.282 117.276C496.019 116.735 495.98 116.112 496.176 115.543C498.414 108.573 499.42 101.267 499.15 93.9515C499.098 92.7013 498.839 89.7213 497.362 89.1901C496.027 88.7108 494.123 90.4858 492.827 92.5005C489.049 98.3047 486.376 104.757 484.943 111.533C484.845 112 484.602 112.425 484.248 112.745C483.894 113.066 483.448 113.267 482.974 113.32C482.499 113.372 482.02 113.273 481.605 113.037C481.189 112.801 480.859 112.441 480.661 112.006C478.951 108.255 479.145 104.077 479.314 100.397V100.287C479.476 96.8019 479.508 93.4592 478.122 90.855C476.962 88.6784 474.144 87.0135 472.11 88.0306C470.225 88.9699 469.448 91.7619 468.871 94.6447L464.641 116.398C463.436 122.611 460.851 125.999 456.971 126.459C453.253 126.906 449.845 124.327 447.487 119.21L447.435 119.106C446.243 116.554 444.896 113.651 442.771 113.191C442.603 113.172 442.434 113.17 442.266 113.185V113.185Z" fill="#4C3133"/>
<path d="M456.304 125.364C459.386 125.464 462.399 126.299 465.093 127.798C467.787 129.298 470.084 131.419 471.793 133.986" fill="#C5E6F1"/>
<path d="M471.799 136.254C471.421 136.255 471.049 136.161 470.716 135.981C470.383 135.801 470.101 135.541 469.895 135.224C468.382 132.969 466.358 131.105 463.986 129.783C461.615 128.461 458.965 127.719 456.252 127.618C455.651 127.605 455.079 127.352 454.664 126.918C454.248 126.483 454.023 125.9 454.036 125.299C454.05 124.698 454.302 124.127 454.737 123.711C455.172 123.296 455.754 123.07 456.356 123.084C459.806 123.184 463.182 124.112 466.198 125.79C469.215 127.467 471.785 129.845 473.691 132.723C473.855 132.972 473.968 133.25 474.024 133.543C474.08 133.836 474.078 134.136 474.018 134.428C473.958 134.72 473.841 134.997 473.674 135.244C473.506 135.49 473.292 135.701 473.043 135.865C472.675 136.112 472.243 136.247 471.799 136.254V136.254Z" fill="#4C3133"/>
<path d="M419.916 96.1997C419.916 96.1997 413.438 121.464 435.464 152.559Z" fill="white"/>
<path d="M435.464 154.826C435.101 154.826 434.743 154.739 434.42 154.573C434.098 154.406 433.82 154.164 433.611 153.867C411.236 122.28 417.416 96.7113 417.72 95.636C417.882 95.0683 418.259 94.5862 418.771 94.2921C419.283 93.998 419.889 93.9152 420.461 94.0611C421.033 94.2071 421.526 94.5703 421.834 95.0737C422.142 95.577 422.242 96.1808 422.112 96.7567C422.035 97.0806 416.282 121.522 437.316 151.25C437.556 151.59 437.698 151.989 437.727 152.404C437.755 152.818 437.669 153.233 437.478 153.602C437.287 153.971 436.998 154.281 436.642 154.496C436.287 154.712 435.879 154.826 435.464 154.826V154.826Z" fill="#4C3133"/>
<path d="M35.6359 109.032H217.217C220.378 109.032 223.41 110.288 225.645 112.524C227.881 114.759 229.136 117.791 229.136 120.952V173.846C229.136 177.007 227.881 180.039 225.645 182.274C223.41 184.51 220.378 185.765 217.217 185.765H212.099C211.741 185.767 211.398 185.911 211.146 186.164C210.893 186.418 210.752 186.761 210.752 187.119V200.989C210.752 201.227 210.689 201.46 210.569 201.666C210.45 201.872 210.278 202.042 210.071 202.16C209.865 202.278 209.631 202.339 209.393 202.337C209.155 202.335 208.922 202.27 208.717 202.149L181.36 185.953C181.152 185.831 180.915 185.766 180.674 185.765H35.6359C32.4746 185.765 29.4428 184.51 27.2074 182.274C24.972 180.039 23.7162 177.007 23.7162 173.846V120.952C23.7162 117.791 24.972 114.759 27.2074 112.524C29.4428 110.288 32.4746 109.032 35.6359 109.032V109.032Z" fill="white"/>
<path d="M217.217 109.032C220.378 109.032 223.41 110.288 225.645 112.524C227.881 114.759 229.136 117.791 229.136 120.952V173.846C229.136 177.007 227.881 180.039 225.645 182.274C223.41 184.51 220.378 185.765 217.217 185.765H212.099C211.741 185.767 211.398 185.911 211.146 186.164C210.893 186.418 210.752 186.761 210.752 187.119V200.989C210.752 201.227 210.689 201.46 210.569 201.666C210.45 201.872 210.278 202.042 210.072 202.16C209.865 202.278 209.631 202.339 209.393 202.337C209.155 202.335 208.922 202.27 208.718 202.149L181.361 185.953C181.153 185.831 180.915 185.766 180.674 185.765H35.636C32.4747 185.765 29.4429 184.51 27.2075 182.274C24.9721 180.039 23.7163 177.007 23.7163 173.846V120.952C23.7163 117.791 24.9721 114.759 27.2075 112.524C29.4429 110.288 32.4747 109.032 35.636 109.032H217.217ZM217.217 104.498H35.636C31.2736 104.503 27.0914 106.238 24.0067 109.323C20.922 112.408 19.1868 116.59 19.1816 120.952V173.846C19.1851 178.209 20.9198 182.392 24.0048 185.477C27.0898 188.562 31.2731 190.297 35.636 190.3H179.799L206.405 206.048C207.298 206.578 208.315 206.861 209.353 206.87C210.392 206.879 211.414 206.613 212.316 206.099C213.218 205.585 213.968 204.842 214.49 203.944C215.011 203.047 215.286 202.027 215.286 200.989V190.3H217.23C221.593 190.297 225.776 188.562 228.861 185.477C231.946 182.392 233.681 178.209 233.684 173.846V120.952C233.679 116.59 231.944 112.408 228.859 109.323C225.774 106.238 221.592 104.503 217.23 104.498H217.217Z" fill="#4C3133"/>
<path d="M23.7163 129.018C34.31 129.018 42.8979 120.43 42.8979 109.836C42.8979 99.2422 34.31 90.6543 23.7163 90.6543C13.1226 90.6543 4.53467 99.2422 4.53467 109.836C4.53467 120.43 13.1226 129.018 23.7163 129.018Z" fill="white"/>
<path d="M23.7163 90.6543C27.5101 90.6543 31.2186 91.7793 34.373 93.887C37.5274 95.9947 39.986 98.9904 41.4378 102.495C42.8896 106 43.2695 109.857 42.5293 113.578C41.7892 117.299 39.9623 120.717 37.2797 123.399C34.5972 126.082 31.1793 127.909 27.4584 128.649C23.7376 129.389 19.8808 129.009 16.3758 127.557C12.8708 126.106 9.87506 123.647 7.76736 120.493C5.65966 117.338 4.53467 113.63 4.53467 109.836C4.53467 104.749 6.55559 99.8697 10.1528 96.2725C13.7501 92.6752 18.629 90.6543 23.7163 90.6543V90.6543ZM23.7163 86.1196C19.0257 86.1196 14.4404 87.5106 10.5402 90.1165C6.64011 92.7225 3.60034 96.4265 1.80531 100.76C0.0102765 105.094 -0.459386 109.862 0.455712 114.463C1.37081 119.063 3.62957 123.289 6.94635 126.606C10.2631 129.923 14.489 132.181 19.0895 133.096C23.69 134.012 28.4585 133.542 32.7921 131.747C37.1257 129.952 40.8297 126.912 43.4357 123.012C46.0416 119.112 47.4326 114.527 47.4326 109.836C47.4257 103.548 44.9248 97.5197 40.4787 93.0735C36.0325 88.6274 30.0041 86.1265 23.7163 86.1196V86.1196Z" fill="#4C3133"/>
<path d="M168.398 163.39H199.551C202.646 163.39 205.155 160.882 205.155 157.787V139.421C205.155 136.327 202.646 133.818 199.551 133.818H168.398C165.303 133.818 162.794 136.327 162.794 139.421V157.787C162.794 160.882 165.303 163.39 168.398 163.39Z" fill="#C5E6F1"/>
<path d="M199.551 165.658H168.398C166.31 165.654 164.309 164.823 162.834 163.346C161.358 161.869 160.529 159.868 160.527 157.78V139.421C160.529 137.334 161.358 135.332 162.834 133.855C164.309 132.379 166.31 131.547 168.398 131.544H199.551C201.639 131.547 203.64 132.379 205.115 133.855C206.591 135.332 207.42 137.334 207.422 139.421V157.78C207.42 159.868 206.591 161.869 205.115 163.346C203.64 164.823 201.639 165.654 199.551 165.658V165.658ZM168.398 136.079C167.512 136.08 166.664 136.433 166.038 137.06C165.413 137.687 165.062 138.536 165.062 139.421V157.78C165.062 158.666 165.413 159.515 166.038 160.142C166.664 160.768 167.512 161.121 168.398 161.123H199.551C200.436 161.121 201.285 160.768 201.91 160.142C202.536 159.515 202.887 158.666 202.887 157.78V139.421C202.887 138.536 202.536 137.687 201.91 137.06C201.285 136.433 200.436 136.08 199.551 136.079H168.398Z" fill="#4C3133"/>
<path d="M163.74 163.17C163.28 163.17 162.831 163.03 162.452 162.769C162.074 162.507 161.784 162.137 161.62 161.706C161.457 161.276 161.429 160.807 161.539 160.36C161.649 159.913 161.893 159.511 162.237 159.206L182.87 140.911C183.283 140.553 183.812 140.355 184.36 140.355C184.907 140.355 185.436 140.553 185.85 140.911L206.191 158.266C206.649 158.656 206.933 159.212 206.981 159.812C207.029 160.411 206.837 161.005 206.447 161.463C206.057 161.921 205.501 162.205 204.901 162.253C204.302 162.301 203.708 162.109 203.25 161.719L184.438 145.608L165.25 162.6C164.833 162.968 164.296 163.171 163.74 163.17V163.17Z" fill="#4C3133"/>
<path d="M203.354 135.308L184.373 151.399L164.602 135.308" fill="#C5E6F1"/>
<path d="M184.373 153.667C183.853 153.668 183.348 153.487 182.948 153.155L163.17 137.063C162.704 136.684 162.407 136.134 162.346 135.536C162.284 134.938 162.463 134.339 162.843 133.873C163.223 133.407 163.772 133.11 164.37 133.049C164.969 132.987 165.567 133.166 166.033 133.546L184.347 148.445L201.883 133.546C202.342 133.157 202.936 132.966 203.536 133.015C204.135 133.064 204.691 133.349 205.08 133.808C205.469 134.267 205.66 134.861 205.611 135.461C205.562 136.061 205.276 136.616 204.818 137.005L185.843 153.097C185.437 153.456 184.915 153.658 184.373 153.667V153.667Z" fill="#4C3133"/>
<path d="M146.806 160.061H50.8917C50.2904 160.061 49.7137 159.822 49.2885 159.396C48.8633 158.971 48.6244 158.395 48.6244 157.793C48.6244 157.192 48.8633 156.615 49.2885 156.19C49.7137 155.765 50.2904 155.526 50.8917 155.526H146.806C147.408 155.526 147.984 155.765 148.41 156.19C148.835 156.615 149.074 157.192 149.074 157.793C149.074 158.395 148.835 158.971 148.41 159.396C147.984 159.822 147.408 160.061 146.806 160.061Z" fill="#4C3133"/>
<path d="M146.806 144.876H146.774L94.8196 144.073C94.5219 144.068 94.228 144.005 93.9547 143.887C93.6814 143.768 93.4341 143.597 93.2268 143.383C93.0196 143.17 92.8565 142.917 92.7469 142.64C92.6373 142.363 92.5832 142.068 92.5879 141.77C92.5926 141.472 92.6559 141.178 92.7742 140.905C92.8924 140.632 93.0634 140.384 93.2772 140.177C93.4911 139.97 93.7436 139.807 94.0205 139.697C94.2974 139.587 94.5931 139.533 94.8909 139.538L146.845 140.341C147.446 140.347 148.021 140.59 148.443 141.019C148.864 141.448 149.098 142.027 149.093 142.628C149.088 143.23 148.844 143.804 148.415 144.226C147.986 144.647 147.408 144.881 146.806 144.876V144.876Z" fill="#4C3133"/>
<path d="M22.1616 118.549H22.0904C21.7232 118.537 21.3644 118.435 21.0451 118.254C20.7257 118.072 20.4553 117.815 20.2571 117.506L14.4268 108.437C14.2469 108.187 14.1197 107.903 14.053 107.602C13.9863 107.302 13.9815 106.991 14.0389 106.689C14.0963 106.386 14.2147 106.098 14.3869 105.843C14.5591 105.588 14.7814 105.371 15.0404 105.204C15.2994 105.038 15.5895 104.926 15.8932 104.875C16.1968 104.824 16.5076 104.836 16.8066 104.909C17.1056 104.983 17.3865 105.116 17.6322 105.302C17.878 105.487 18.0834 105.721 18.2359 105.988L22.2912 112.291L31.3605 100.035C31.5312 99.7796 31.7518 99.5619 32.009 99.3947C32.2662 99.2275 32.5547 99.1142 32.857 99.0617C33.1592 99.0093 33.469 99.0187 33.7675 99.0894C34.0661 99.1601 34.3471 99.2907 34.5937 99.4733C34.8403 99.6558 35.0473 99.8865 35.2021 100.151C35.357 100.416 35.4565 100.71 35.4946 101.014C35.5327 101.319 35.5086 101.628 35.4238 101.922C35.339 102.217 35.1952 102.492 35.0012 102.729L23.9885 117.629C23.7784 117.916 23.5033 118.149 23.1857 118.309C22.8682 118.469 22.5172 118.551 22.1616 118.549V118.549Z" fill="#4C3133"/>
<path d="M87.5902 143.813H78.5209C77.9195 143.813 77.3428 143.575 76.9176 143.149C76.4924 142.724 76.2535 142.147 76.2535 141.546C76.2535 140.945 76.4924 140.368 76.9176 139.943C77.3428 139.518 77.9195 139.279 78.5209 139.279H87.5902C88.1915 139.279 88.7682 139.518 89.1934 139.943C89.6186 140.368 89.8575 140.945 89.8575 141.546C89.8575 142.147 89.6186 142.724 89.1934 143.149C88.7682 143.575 88.1915 143.813 87.5902 143.813V143.813Z" fill="#4C3133"/>
<path d="M466.688 309.173H312.056C309.364 309.173 306.782 310.243 304.878 312.146C302.974 314.05 301.905 316.632 301.905 319.324V364.373C301.904 365.706 302.166 367.027 302.676 368.26C303.185 369.492 303.933 370.612 304.876 371.555C305.818 372.498 306.938 373.247 308.17 373.757C309.402 374.268 310.722 374.531 312.056 374.531H316.409C316.714 374.531 317.006 374.651 317.222 374.866C317.438 375.081 317.561 375.372 317.562 375.677V387.493C317.563 387.695 317.617 387.893 317.718 388.068C317.82 388.242 317.966 388.387 318.142 388.487C318.317 388.587 318.516 388.639 318.718 388.637C318.92 388.635 319.118 388.581 319.292 388.478L342.613 374.686C342.793 374.583 342.996 374.53 343.203 374.531H466.688C469.381 374.529 471.963 373.458 473.866 371.553C475.77 369.648 476.839 367.066 476.839 364.373V319.324C476.837 316.633 475.767 314.052 473.864 312.148C471.961 310.245 469.38 309.175 466.688 309.173Z" fill="white"/>
<path d="M466.688 309.173C469.38 309.175 471.961 310.245 473.864 312.148C475.767 314.052 476.837 316.633 476.839 319.324V364.373C476.839 367.066 475.77 369.649 473.866 371.553C471.963 373.458 469.381 374.529 466.688 374.531H343.151C342.944 374.53 342.741 374.584 342.561 374.686L319.24 388.478C319.067 388.583 318.868 388.64 318.666 388.642C318.463 388.645 318.263 388.593 318.087 388.493C317.91 388.393 317.764 388.247 317.663 388.071C317.562 387.896 317.509 387.696 317.511 387.493V375.677C317.509 375.373 317.387 375.081 317.171 374.866C316.955 374.651 316.662 374.531 316.358 374.531H312.056C310.722 374.531 309.402 374.268 308.17 373.757C306.938 373.247 305.819 372.499 304.876 371.555C303.933 370.612 303.186 369.492 302.676 368.26C302.166 367.027 301.904 365.707 301.905 364.373V319.324C301.905 316.632 302.974 314.05 304.878 312.147C306.782 310.243 309.364 309.173 312.056 309.173H466.688ZM466.688 304.639H312.056C308.163 304.644 304.43 306.193 301.677 308.946C298.924 311.699 297.375 315.431 297.37 319.324V364.373C297.374 368.268 298.922 372.002 301.675 374.756C304.428 377.51 308.162 379.06 312.056 379.065H313.028V387.487C313.029 388.489 313.295 389.473 313.8 390.339C314.304 391.205 315.027 391.923 315.898 392.419C316.769 392.916 317.755 393.174 318.757 393.166C319.759 393.159 320.742 392.887 321.605 392.378L344.11 379.059H466.688C470.583 379.054 474.316 377.504 477.069 374.75C479.822 371.995 481.37 368.261 481.374 364.367V319.324C481.369 315.431 479.82 311.699 477.067 308.946C474.314 306.193 470.581 304.644 466.688 304.639V304.639Z" fill="#4C3133"/>
<path d="M412.162 352.758C419.682 352.758 425.779 346.661 425.779 339.141C425.779 331.62 419.682 325.524 412.162 325.524C404.641 325.524 398.545 331.62 398.545 339.141C398.545 346.661 404.641 352.758 412.162 352.758Z" fill="#F0F0F0"/>
<path d="M412.162 354.999C409.02 354.999 405.949 354.068 403.337 352.322C400.725 350.577 398.689 348.096 397.487 345.194C396.284 342.291 395.97 339.097 396.583 336.016C397.196 332.935 398.708 330.105 400.93 327.883C403.151 325.662 405.982 324.149 409.063 323.536C412.144 322.923 415.338 323.238 418.24 324.44C421.143 325.642 423.624 327.678 425.369 330.29C427.114 332.902 428.046 335.973 428.046 339.115C428.041 343.326 426.366 347.363 423.388 350.341C420.41 353.319 416.373 354.994 412.162 354.999ZM412.162 327.791C409.917 327.791 407.723 328.457 405.856 329.704C403.99 330.951 402.535 332.724 401.676 334.798C400.817 336.871 400.592 339.153 401.03 341.355C401.468 343.557 402.549 345.579 404.136 347.166C405.724 348.754 407.746 349.835 409.948 350.272C412.149 350.71 414.431 350.486 416.505 349.627C418.579 348.768 420.351 347.313 421.599 345.446C422.846 343.58 423.511 341.386 423.511 339.141C423.508 336.132 422.311 333.247 420.183 331.119C418.056 328.992 415.171 327.795 412.162 327.791V327.791Z" fill="#4C3133"/>
<path d="M459.478 336.407H450.933C453.395 334.561 455.831 332.52 455.468 328.918C454.82 322.11 450.026 325.511 450.026 328.918C450.026 333.68 442.706 331.639 442.622 339.128C442.564 339.372 442.536 339.622 442.538 339.873V347.647C442.538 348.49 442.844 349.305 443.399 349.94C443.954 350.574 444.721 350.987 445.556 351.099L455.87 352.479C456.753 352.597 457.651 352.525 458.505 352.268C459.358 352.01 460.146 351.574 460.817 350.986C461.487 350.399 462.025 349.676 462.393 348.864C462.76 348.052 462.951 347.171 462.95 346.28V339.886C462.951 339.429 462.862 338.977 462.688 338.555C462.514 338.133 462.258 337.75 461.935 337.426C461.613 337.103 461.23 336.847 460.808 336.672C460.386 336.497 459.934 336.407 459.478 336.407V336.407Z" fill="#C5E6F1"/>
<path d="M453.084 324.986C454.166 324.986 455.183 326.042 455.468 328.918C455.831 332.533 453.395 334.561 450.933 336.407H459.478C459.935 336.406 460.388 336.496 460.81 336.67C461.232 336.845 461.616 337.101 461.94 337.424C462.263 337.747 462.519 338.131 462.693 338.554C462.868 338.976 462.957 339.429 462.957 339.886V346.28C462.96 347.173 462.772 348.056 462.405 348.87C462.038 349.684 461.5 350.409 460.828 350.997C460.156 351.585 459.365 352.021 458.51 352.277C457.654 352.533 456.754 352.602 455.869 352.479L445.556 351.112C444.721 351 443.954 350.587 443.399 349.953C442.844 349.318 442.538 348.503 442.538 347.66V339.886C442.536 339.635 442.564 339.385 442.622 339.141V339.141C442.706 331.652 450.026 333.693 450.026 328.931C450.026 326.988 451.613 324.999 453.084 324.999V324.986ZM453.084 320.465C451.981 320.497 450.9 320.78 449.923 321.292C448.945 321.804 448.097 322.531 447.441 323.419C446.321 324.819 445.644 326.522 445.498 328.31L444.811 328.685C442.693 329.819 438.333 332.151 438.081 338.687C438.019 339.088 437.989 339.493 437.99 339.899V347.673C437.994 349.613 438.7 351.487 439.978 352.948C441.255 354.409 443.018 355.358 444.941 355.621L455.267 356.995C455.744 357.059 456.224 357.092 456.705 357.092C459.564 357.087 462.304 355.947 464.324 353.924C466.344 351.9 467.478 349.158 467.478 346.299V339.905C467.477 337.839 466.678 335.852 465.247 334.361C463.817 332.869 461.866 331.987 459.802 331.898C460.035 330.776 460.091 329.624 459.97 328.484C459.206 320.86 454.088 320.471 453.071 320.471L453.084 320.465Z" fill="#4C3133"/>
<path d="M383.801 356.34H317.763C317.162 356.34 316.585 356.101 316.16 355.676C315.735 355.251 315.496 354.674 315.496 354.073C315.496 353.472 315.735 352.895 316.16 352.47C316.585 352.045 317.162 351.806 317.763 351.806H383.801C384.402 351.806 384.979 352.045 385.404 352.47C385.829 352.895 386.068 353.472 386.068 354.073C386.068 354.674 385.829 355.251 385.404 355.676C384.979 356.101 384.402 356.34 383.801 356.34Z" fill="#4C3133"/>
<path d="M347.038 342.043C346.436 342.048 345.857 341.814 345.429 341.393C345 340.971 344.756 340.397 344.751 339.795C344.746 339.194 344.98 338.615 345.401 338.186C345.823 337.758 346.397 337.514 346.999 337.509L383.762 336.861C384.363 336.85 384.944 337.078 385.377 337.495C385.811 337.912 386.06 338.485 386.071 339.086C386.082 339.687 385.854 340.268 385.437 340.702C385.02 341.135 384.447 341.384 383.846 341.395L347.083 342.043H347.038Z" fill="#4C3133"/>
<path d="M336.349 341.395H330.519C329.917 341.395 329.341 341.156 328.915 340.731C328.49 340.306 328.251 339.729 328.251 339.128C328.251 338.527 328.49 337.95 328.915 337.525C329.341 337.099 329.917 336.861 330.519 336.861H336.349C336.95 336.861 337.527 337.099 337.952 337.525C338.377 337.95 338.616 338.527 338.616 339.128C338.616 339.729 338.377 340.306 337.952 340.731C337.527 341.156 336.95 341.395 336.349 341.395V341.395Z" fill="#4C3133"/>
</svg>
