<svg width="600" height="480" viewBox="0 0 600 480" fill="none" xmlns="http://www.w3.org/2000/svg">
<path d="M305.001 357.481C288.418 352.224 270.848 346.3 259.978 332.724C250.705 321.132 247.843 305.814 245.636 291.128C244.275 282.106 243.04 273.066 241.931 264.008C240.012 248.213 238.504 232.062 241.787 216.489C245.07 200.916 253.866 185.786 268.009 178.488C284.225 170.135 304.823 173.086 320.241 163.369C339.098 151.511 342.803 126.366 351.299 105.834C357.658 90.8386 367.247 77.4305 379.381 66.5653C391.516 55.7 405.897 47.6452 421.501 42.975C462.786 30.9511 510.238 45.8367 538.479 78.2258C547.408 88.4527 554.729 100.743 555.938 114.253C559.343 152.255 515.596 180.218 513.111 218.275C511.448 243.787 528.929 267.524 527.808 293.058C527.132 308.387 519.611 322.863 509.185 334.099C498.758 345.335 485.57 353.699 471.949 360.776C430.103 382.472 383.458 393.254 336.336 392.122" fill="#16202C"/>
<path d="M556.725 292.697L555.716 292.242C555.516 272.687 555.716 254.296 556.825 232.345L556.936 231.912C559.928 233.339 563.276 233.843 566.555 233.362C569.835 232.881 572.897 231.436 575.353 229.211C577.809 226.985 579.548 224.08 580.35 220.863C581.151 217.647 580.977 214.265 579.852 211.148C578.653 208.065 576.607 205.383 573.949 203.413C571.292 201.442 568.132 200.263 564.833 200.011L575.415 156.885L549.16 146.902C540.974 145.349 532.189 147.59 524.68 151.195C501.996 162.065 479.601 173.49 459.513 183.029C459.513 183.029 478.37 199.102 487.776 206.933C487.776 206.933 472.181 236.449 463.839 251.301C435.288 261.795 409.033 278.033 385.618 297.467C372.862 308.049 360.55 320.139 354.56 335.59C352.286 341.523 351.187 347.84 351.321 354.192C347.661 352.283 343.882 350.612 340.007 349.189C325.998 343.854 310.446 339.273 301.562 327.194C297.524 321.714 293.586 314.072 286.787 314.56C281.84 314.926 278.878 319.44 276.161 323.888C273.509 320.548 271.138 316.993 269.073 313.262C274.109 313.672 278.812 310.788 282.727 307.594C289.382 302.148 295.272 294.971 296.459 286.452C297.646 277.934 292.71 268.184 284.258 266.387C283.384 266.165 282.469 266.165 281.596 266.387C279.089 267.119 278.268 270.369 278.778 272.931C279.289 275.493 280.62 277.878 280.731 280.485C280.986 286.397 274.419 290.834 268.529 290.357C262.639 289.88 257.592 285.92 253.422 281.738C248.43 276.691 243.883 270.38 244.06 263.292C244.021 261.876 244.407 260.481 245.169 259.288C249.828 252.843 262.639 264.49 267.165 257.957C269.062 255.217 267.409 251.412 265.257 248.861C260.785 243.577 254.474 240.187 247.598 239.377C244.16 238.989 240.278 239.444 237.993 242.028C236.229 244.014 235.774 246.831 235.608 249.482C235.175 255.874 235.774 262.293 237.383 268.494C233.148 255.721 227.259 243.557 219.868 232.312C218.504 230.26 216.762 228.03 214.322 227.875C211.571 227.686 209.297 230.359 208.92 233.088C208.543 235.817 209.563 238.534 210.606 241.086C214.874 251.58 219.882 261.759 225.592 271.545L211.682 248.65C210.307 246.432 208.354 243.825 205.692 244.214C201.788 244.768 201.899 250.458 203.186 254.196C205.337 260.43 207.733 266.579 210.373 272.643L203.718 258.223C202.964 256.57 201.899 254.707 200.091 254.507C197.728 254.263 196.242 257.058 195.998 259.421C195.366 265.621 198.383 271.556 201.344 277.035C213.22 299.079 225.595 320.845 238.47 342.335C226.856 347.248 234.51 366.027 241.121 373.448C249.24 382.566 260.499 388.334 269.039 397.052C278.08 406.27 283.637 418.293 291.335 428.665C308.05 451.17 324.423 478.069 352.463 478.579C352.463 478.579 384.631 422.009 451.183 419.791C517.736 417.572 509.972 379.859 539.92 359.893C569.869 339.928 599.507 357.597 599.507 357.597C591.841 332.273 576.977 309.724 556.725 292.697Z" fill="#111217"/>
<path d="M60.1415 304.596L81.6824 287.758L81.8488 287.991C87.2914 295.593 93.9466 296.558 101.815 290.886C102.436 290.442 103.09 289.91 103.811 289.289C112.596 281.946 115.924 273.974 113.794 265.374C110.467 260.571 108.359 257.554 107.472 256.323C103.692 250.816 98.6189 246.322 92.6969 243.234C86.7811 240.276 81.8562 240.21 77.9222 243.034L76.5357 244.022C72.5129 247.956 68.0761 256.119 63.2251 268.513L42.1501 273.15L0 207.262L55.9376 158.978L73.0195 179.643L33.0878 209.991L51.9444 244.543C58.999 231.232 65.4805 222.462 71.3889 218.232C72.5714 217.377 73.9146 216.77 75.3377 216.447C84.0266 212.202 92.0388 211.799 99.3744 215.238C108.011 219.031 115.987 226.027 123.3 236.224C126.084 240.084 128.646 244.098 130.976 248.248C144.109 267.859 141.295 286.767 122.535 304.973C120.367 307.082 118.05 309.031 115.602 310.807C98.646 322.957 80.1591 320.886 60.1415 304.596ZM201.888 88.9426C203.348 98.8028 203.934 108.773 203.64 118.736C203.337 128.854 202.026 138.916 199.725 148.774C195.355 167.896 188.489 180.615 179.127 186.93C170.467 193.034 160.116 196.276 149.522 196.204L147.825 196.148C138.846 195.996 129.974 194.18 121.658 190.791C113.362 187.419 107.472 178.075 103.989 162.761C101.966 153.58 101.116 144.181 101.46 134.786C101.718 127.494 102.515 120.231 103.845 113.057C107.239 95.2355 110.825 81.7993 114.604 72.7481C118.383 63.6969 132.089 54.0283 155.722 43.7422C165.287 44.4833 174.628 47.0077 183.264 51.185C192.744 55.5923 198.952 68.1782 201.888 88.9426ZM164.175 72.3044C143.24 77.4068 131.638 86.1067 129.368 98.4042C128.215 104.883 127.537 111.437 127.338 118.015C127.139 124.405 127.365 130.8 128.014 137.16C129.294 150.604 131.512 159.877 134.67 164.979C136.821 168.677 144.405 170.71 157.419 171.08C159.128 171.088 160.821 170.756 162.4 170.104C168.316 168.211 173.388 160.014 177.618 145.512C180.122 137.424 181.576 129.048 181.944 120.588C182.11 115.883 181.783 111.172 180.968 106.535C178.957 94.8658 173.359 83.4631 164.175 72.3266V72.3044Z" fill="#006C8F"/>
<path d="M312.413 166.601L278.724 160.29C275.082 159.608 271.575 162.008 270.893 165.651L269.312 174.089C268.63 177.732 271.03 181.238 274.672 181.921L308.361 188.232C312.004 188.914 315.51 186.514 316.193 182.871L317.774 174.433C318.456 170.79 316.056 167.283 312.413 166.601Z" fill="#DCDCDC"/>
<path d="M313.042 163.327L279.355 157.015C278.74 156.901 278.117 156.842 277.492 156.838C275.15 156.84 272.883 157.66 271.082 159.157C269.281 160.654 268.06 162.733 267.631 165.035L266.056 173.476C265.806 174.772 265.815 176.105 266.084 177.398C266.352 178.691 266.875 179.917 267.621 181.007C268.366 182.096 269.321 183.027 270.429 183.745C271.537 184.463 272.776 184.954 274.075 185.189L307.762 191.501C308.373 191.612 308.993 191.667 309.614 191.667C311.957 191.677 314.229 190.862 316.032 189.365C317.835 187.869 319.054 185.786 319.475 183.481L321.062 175.04C321.545 172.424 320.973 169.723 319.47 167.528C317.967 165.333 315.656 163.822 313.042 163.327ZM317.789 174.419L316.203 182.86C315.928 184.407 315.115 185.807 313.907 186.812C312.699 187.817 311.175 188.362 309.603 188.351C309.187 188.352 308.771 188.315 308.361 188.24L274.674 181.928C273.805 181.773 272.975 181.445 272.234 180.966C271.492 180.486 270.854 179.864 270.355 179.135C269.856 178.406 269.508 177.585 269.329 176.721C269.151 175.856 269.147 174.964 269.317 174.097L270.892 165.656C271.048 164.787 271.375 163.957 271.854 163.216C272.334 162.474 272.956 161.835 273.685 161.337C274.414 160.838 275.235 160.49 276.1 160.311C276.965 160.133 277.856 160.129 278.723 160.299L312.41 166.61C313.279 166.765 314.109 167.09 314.851 167.569C315.592 168.047 316.232 168.668 316.732 169.396C317.231 170.124 317.581 170.943 317.761 171.808C317.94 172.672 317.946 173.563 317.778 174.43L317.789 174.419ZM283.637 237.766L276.859 273.915C276.593 275.338 275.772 276.596 274.579 277.413C273.385 278.231 271.915 278.54 270.493 278.275L267.076 277.642C265.653 277.373 264.395 276.55 263.578 275.355C262.76 274.159 262.451 272.688 262.717 271.264L269.483 235.115C269.752 233.692 270.575 232.434 271.771 231.616C272.966 230.799 274.437 230.49 275.861 230.756L276.804 230.933C277.203 226.023 277.795 221.124 278.579 216.236C278.522 216.154 278.459 216.076 278.39 216.003C278.218 215.962 278.054 215.894 277.902 215.804C276.793 215.26 275.772 214.462 274.741 213.807C272.789 212.565 270.847 211.311 268.917 210.025C264.91 207.363 260.964 204.615 257.082 201.783C256.812 201.592 256.599 201.331 256.466 201.028C256.333 200.725 256.285 200.392 256.328 200.064C255.83 189.562 256.925 179.046 259.578 168.873C259.694 168.446 259.975 168.083 260.359 167.864C260.743 167.644 261.198 167.586 261.624 167.703C262.051 167.819 262.414 168.1 262.633 168.484C262.853 168.867 262.911 169.323 262.795 169.749C260.267 179.461 259.201 189.495 259.633 199.52C263.105 202.027 266.599 204.479 270.16 206.852C272.075 208.139 274.012 209.407 275.972 210.657C277.603 211.688 279.921 212.653 281.141 214.151C281.534 214.556 281.813 215.057 281.951 215.604C281.935 216.728 281.778 217.846 281.485 218.932C281.115 221.305 280.805 223.69 280.553 226.086C280.353 227.916 280.198 229.758 280.054 231.632C281.284 232.063 282.319 232.919 282.974 234.045C283.629 235.172 283.86 236.495 283.626 237.777L283.637 237.766ZM268.041 169.161C268.252 169.219 268.45 169.317 268.623 169.451C268.796 169.585 268.941 169.752 269.05 169.942C269.159 170.132 269.229 170.342 269.257 170.559C269.284 170.776 269.269 170.997 269.211 171.208C269.154 171.419 269.055 171.617 268.921 171.79C268.787 171.963 268.621 172.108 268.431 172.217C268.24 172.325 268.031 172.396 267.814 172.423C267.597 172.451 267.376 172.436 267.165 172.378L261.685 171.269C261.259 171.151 260.896 170.869 260.678 170.484C260.46 170.099 260.403 169.643 260.521 169.217C260.638 168.79 260.921 168.428 261.306 168.209C261.69 167.991 262.146 167.934 262.573 168.052L268.041 169.161Z" fill="#DCDCDC"/>
<path d="M284.069 161.289C283.578 162.738 283.349 164.263 283.392 165.792C283.448 168.588 284.047 171.339 283.781 174.145C283.503 177.173 282.239 180.245 281.618 183.218L289.959 184.782C293.211 186.94 295.694 190.075 297.05 193.735C298.405 197.395 298.564 201.392 297.502 205.147C297.014 206.9 296.337 208.974 297.502 210.35C297.924 210.784 298.47 211.078 299.066 211.191C299.661 211.304 300.277 211.231 300.829 210.982C301.928 210.467 302.801 209.567 303.281 208.453C304.833 205.192 303.88 201.354 303.037 197.849C302.194 194.344 301.584 190.339 303.624 187.367L303.314 187.289L306.187 187.821C306.287 187.478 306.386 187.123 306.475 186.779C308.192 180.167 309.393 173.433 310.069 166.635C310.069 166.48 310.069 166.325 310.069 166.17L284.069 161.289Z" fill="#006C8F"/>
<path d="M551.734 210.672C554.671 209.286 557.883 208.58 561.13 208.607C564.377 208.634 567.577 209.393 570.491 210.827C572.41 211.781 570.724 214.654 568.805 213.7C566.411 212.539 563.79 211.923 561.13 211.896C558.469 211.869 555.836 212.432 553.42 213.545C553.042 213.739 552.605 213.785 552.195 213.674C551.785 213.563 551.43 213.304 551.201 212.946C550.974 212.573 550.902 212.125 551.002 211.7C551.101 211.274 551.364 210.905 551.734 210.672ZM537.625 172.515L531.169 177.95C530.86 178.264 530.687 178.686 530.687 179.126C530.687 179.566 530.86 179.988 531.169 180.302C531.486 180.603 531.907 180.771 532.345 180.771C532.782 180.771 533.203 180.603 533.521 180.302L539.976 174.867C540.285 174.553 540.458 174.131 540.458 173.691C540.458 173.251 540.285 172.828 539.976 172.515C539.659 172.214 539.238 172.046 538.8 172.046C538.363 172.046 537.942 172.214 537.625 172.515ZM531.635 170.685H531.701L531.879 170.552L532.123 170.374C532.467 170.119 532.811 169.875 533.166 169.642C533.363 169.529 533.535 169.377 533.672 169.196C533.81 169.016 533.91 168.809 533.967 168.589C534.024 168.369 534.036 168.14 534.003 167.915C533.97 167.69 533.893 167.474 533.776 167.28C533.549 166.903 533.184 166.63 532.759 166.52C532.334 166.41 531.882 166.472 531.502 166.692C528.459 168.728 525.826 171.316 523.737 174.323C523.532 174.698 523.478 175.137 523.588 175.55C523.697 175.963 523.961 176.318 524.325 176.542C524.71 176.755 525.162 176.812 525.588 176.701C526.014 176.589 526.38 176.318 526.61 175.943C526.832 175.621 527.065 175.277 527.32 174.978V174.911L527.475 174.722L527.864 174.257C528.401 173.618 528.971 173.007 529.572 172.426C530.149 171.861 530.759 171.317 531.38 170.796C531.467 170.765 531.552 170.728 531.635 170.685ZM531.213 152.05C530.773 152.053 530.352 152.229 530.04 152.541C529.729 152.852 529.552 153.274 529.55 153.714C529.561 154.152 529.74 154.568 530.049 154.878C530.359 155.188 530.776 155.367 531.213 155.378H531.48L532.023 155.478C532.4 155.566 532.766 155.666 533.132 155.788C533.315 155.84 533.493 155.907 533.665 155.988L533.942 156.121C534.29 156.288 534.627 156.477 534.951 156.687C535.113 156.776 535.269 156.876 535.417 156.986L535.661 157.164C535.962 157.405 536.247 157.664 536.515 157.94C536.78 158.164 537.018 158.417 537.225 158.694C537.242 158.734 537.265 158.772 537.292 158.805C537.358 158.883 537.414 158.972 537.469 159.049C537.525 159.127 537.702 159.393 537.802 159.571C537.913 159.759 538.06 159.924 538.234 160.056C538.409 160.188 538.607 160.284 538.819 160.339C539.031 160.394 539.251 160.407 539.468 160.377C539.684 160.347 539.893 160.275 540.082 160.164C540.27 160.053 540.435 159.907 540.567 159.732C540.699 159.558 540.795 159.359 540.85 159.147C540.905 158.936 540.918 158.715 540.888 158.498C540.858 158.282 540.786 158.073 540.675 157.885C539.655 156.248 538.27 154.87 536.628 153.858C534.987 152.846 533.134 152.227 531.213 152.05ZM547.452 170.319C547.856 170.897 548.209 171.509 548.506 172.149L548.606 172.426L548.772 172.925C548.875 173.29 548.957 173.66 549.016 174.035C549.135 174.46 549.418 174.822 549.802 175.04C550.187 175.258 550.642 175.315 551.068 175.199C551.478 175.064 551.821 174.778 552.027 174.398C552.233 174.019 552.287 173.576 552.178 173.158C551.877 171.438 551.176 169.811 550.132 168.411C549.087 167.01 547.729 165.874 546.166 165.094C545.788 164.901 545.351 164.854 544.941 164.965C544.53 165.076 544.176 165.336 543.947 165.693C543.728 166.077 543.668 166.531 543.78 166.958C543.892 167.386 544.167 167.752 544.546 167.978C544.879 168.134 545.202 168.312 545.511 168.511L545.988 168.832L546.132 168.955C546.414 169.189 546.681 169.441 546.931 169.709C547.053 169.842 547.175 169.964 547.286 170.097L547.441 170.297L547.452 170.319ZM498.359 228.475L498.037 228.686C497.826 228.819 497.593 228.952 497.371 229.063L497.15 229.163L496.917 229.251L496.184 229.473C495.952 229.529 495.719 229.573 495.475 229.606H495.341H494.953C494.453 229.632 493.952 229.614 493.456 229.551H493.4L492.946 229.462C492.69 229.407 492.438 229.337 492.191 229.251L491.903 229.163L491.648 229.052L491.104 228.797C490.882 228.675 490.661 228.541 490.45 228.397L490.217 228.231L490.062 228.098C489.873 227.931 489.684 227.754 489.507 227.565L489.252 227.288V227.233L489.185 227.133C488.953 226.763 488.589 226.495 488.167 226.384C487.744 226.272 487.296 226.326 486.911 226.534C486.533 226.758 486.258 227.122 486.146 227.548C486.034 227.973 486.094 228.426 486.312 228.808C487.13 229.903 488.159 230.824 489.338 231.516C490.517 232.208 491.823 232.656 493.179 232.835C494.534 233.014 495.911 232.919 497.23 232.557C498.548 232.195 499.78 231.573 500.854 230.727C501.166 230.415 501.341 229.992 501.341 229.551C501.341 229.11 501.166 228.687 500.854 228.375C500.689 228.207 500.491 228.076 500.272 227.989C500.054 227.903 499.819 227.863 499.584 227.872C499.349 227.881 499.119 227.94 498.908 228.044C498.697 228.148 498.509 228.294 498.359 228.475ZM596.757 356.955C595.116 351.484 593.119 346.126 590.778 340.916C583.836 325.505 574.078 311.527 562.005 299.697C557.118 305.474 552.637 311.582 548.595 317.977C533.391 342.098 524.546 369.676 522.883 398.14C522.98 398.279 523.062 398.428 523.127 398.584C523.199 398.855 523.202 399.14 523.136 399.413C523.07 399.686 522.937 399.939 522.75 400.148C522.703 400.491 522.553 400.812 522.32 401.068C522.087 401.324 521.783 401.505 521.446 401.585C521.109 401.665 520.756 401.642 520.432 401.518C520.109 401.394 519.83 401.176 519.633 400.891C516.93 401.004 514.247 400.383 511.869 399.094C511.681 398.99 511.518 398.846 511.392 398.672C511.189 398.672 510.989 398.629 510.804 398.546C510.619 398.464 510.453 398.344 510.317 398.193C510.181 398.043 510.079 397.866 510.015 397.673C509.952 397.48 509.93 397.277 509.95 397.075C510.416 388.552 511.502 380.073 513.2 371.708C518.893 343.456 531.543 317.07 550.003 294.939C542.511 297.531 534.638 298.854 526.71 298.854C511.525 298.891 496.736 294.007 484.56 284.934C474.221 277.153 466.158 266.742 461.211 254.785C460.791 254.776 460.387 254.62 460.069 254.344C459.751 254.069 459.539 253.692 459.47 253.277C458.471 253.665 457.473 254.053 456.475 254.464C456.649 254.704 456.743 254.993 456.743 255.29C456.743 255.587 456.649 255.876 456.475 256.116C451.351 263.855 446.788 271.951 442.82 280.342C435.818 295.297 430.706 311.065 427.602 327.284C424.487 343.491 423.429 360.027 424.452 376.499C424.563 378.23 422.433 378.551 421.523 377.509L410.886 374.702C409.976 375.745 407.847 375.412 407.969 373.693C408.6 364.637 409.689 355.619 411.23 346.673C416.448 316.483 426.855 287.425 441.988 260.786C425.174 269.05 409.248 279.011 394.459 290.513C386.186 296.71 378.399 303.529 371.165 310.912C364.366 318.044 358.32 326.208 354.86 335.514C352.875 340.837 351.857 346.471 351.854 352.152C353.396 352.995 354.915 353.882 356.401 354.859C363.833 359.772 370.378 366.572 372.651 375.412C373.228 377.631 373.605 380.26 372.23 382.301C371.642 383.129 370.833 383.776 369.896 384.168C368.959 384.56 367.931 384.682 366.928 384.519C362.358 383.987 358.864 380.193 356.224 376.754C351.418 370.166 348.736 362.268 348.537 354.115C345.008 352.319 341.379 350.726 337.667 349.346C329.082 346.107 320.241 343.223 312.299 338.531C308.355 336.273 304.769 333.439 301.662 330.123C298.733 326.929 296.659 323.124 293.897 319.796C291.546 316.946 288.351 314.173 284.38 315.36C280.653 316.469 278.402 320.462 276.516 323.546C274.282 327.523 271.399 331.1 267.986 334.127C264.148 337.333 259.478 340.106 254.498 340.949C249.296 341.836 243.783 340.805 238.714 342.469C237.424 342.862 236.257 343.577 235.321 344.548C234.385 345.518 233.713 346.712 233.368 348.015C231.737 353.905 234.543 360.771 237.394 365.829C241.62 373.338 248.741 378.54 255.53 383.576C259.666 386.545 263.629 389.748 267.398 393.171C271.048 396.699 274.322 400.594 277.17 404.795C280.11 408.999 282.716 413.392 285.512 417.718C288.307 422.044 291.058 425.948 293.975 429.919C299.199 437.062 304.302 444.339 309.97 451.105C315.327 457.527 321.239 463.706 328.261 468.32C335.08 472.933 343.07 475.514 351.299 475.763C353.44 475.818 353.44 479.146 351.299 479.09C347.019 479.015 342.771 478.324 338.687 477.038C321.483 471.548 309.493 456.54 299.133 442.586C293.243 434.644 287.275 426.724 282.007 418.35C279.1 413.758 276.272 409.099 273.133 404.696C269.928 400.27 266.204 396.244 262.041 392.705C254.188 386.05 244.859 380.792 238.27 372.739C233.799 367.388 230.887 360.911 229.851 354.016C229.334 350.891 229.755 347.683 231.06 344.798C231.824 343.384 232.874 342.146 234.145 341.162C235.415 340.178 236.877 339.471 238.437 339.086C235.952 335.58 233.467 332.086 231.027 328.559C224.875 319.73 218.807 310.856 212.825 301.938C209.867 297.457 206.909 292.965 203.951 288.461C201.2 284.268 198.217 280.109 196.12 275.539C194.39 271.756 192.793 266.798 194.246 262.672C194.489 261.815 194.925 261.026 195.521 260.364C196.118 259.703 196.857 259.187 197.684 258.856C198.477 258.624 199.32 258.624 200.113 258.856C199.846 258.102 199.646 257.327 199.514 256.538C198.915 252.822 199.936 247.864 204.639 247.853C205.834 247.884 206.992 248.27 207.967 248.962C207.083 247.321 206.284 245.637 205.571 243.915C204.351 240.898 203.863 237.504 205.571 234.564C206.247 233.225 207.375 232.167 208.754 231.577C210.134 230.986 211.677 230.901 213.113 231.337C216.164 232.39 218.094 235.319 219.957 237.77C224.758 244.128 229.06 250.848 232.824 257.869C232.746 257.07 232.647 256.261 232.591 255.451C232.314 251.114 232.125 245.801 235.664 242.628C238.836 239.789 243.428 239.423 247.499 239.889C252.102 240.406 256.516 242.01 260.377 244.57C263.86 246.899 267.709 250.26 268.452 254.608C268.773 256.209 268.477 257.873 267.623 259.265C266.769 260.658 265.421 261.676 263.849 262.117C261.153 262.849 258.225 262.173 255.563 261.629C253.167 261.13 250.327 260.232 247.876 260.875C244.094 261.851 245.347 267.186 246.301 269.849C247.798 274.03 250.871 277.524 254.065 280.497C259.8 285.744 269.783 292.621 277.215 285.965C278.65 284.773 279.617 283.111 279.943 281.273C280.232 279.122 279.189 277.081 278.379 275.162C276.937 271.767 276.072 266.953 279.6 264.447C282.783 262.228 287.83 264.114 290.692 266.066C293.849 268.277 296.293 271.361 297.724 274.94C301.14 283.137 298.767 292.099 293.997 299.232C291.445 303.026 288.385 306.452 284.902 309.414C282.225 311.835 279.001 313.57 275.507 314.472C276.039 315.215 276.616 315.914 277.159 316.691C279.688 313.629 282.705 311.433 287.142 311.821C291.579 312.209 294.53 315.149 297.014 318.388C299.865 322.037 302.161 326.041 305.489 329.302C312.421 336.08 321.683 339.862 330.623 343.223C336.669 345.497 342.769 347.66 348.559 350.488C349.006 341.091 351.851 331.965 356.823 323.978C361.881 315.931 368.054 308.641 375.158 302.326C374.732 302.428 374.284 302.372 373.896 302.168C373.508 301.964 373.208 301.626 373.051 301.217C369.812 293.142 366.484 285.1 363.068 277.092C350.822 248.629 337.386 220.718 322.759 193.357C321.75 191.472 324.623 189.797 325.632 191.682C329.803 199.491 333.87 207.348 337.833 215.253C351.832 243.08 364.643 271.457 376.267 300.385C376.381 300.655 376.412 300.952 376.356 301.239L377.399 300.296C385.673 292.981 394.361 286.148 403.421 279.831C421.396 267.084 440.929 256.691 461.544 248.907C463.023 246.222 464.502 243.534 465.981 240.843C472.244 229.359 478.426 217.826 484.527 206.246L478.104 200.844C471.116 194.929 464.143 189.013 457.185 183.097C457.006 182.916 456.871 182.696 456.79 182.454C456.71 182.213 456.685 181.957 456.718 181.704C456.751 181.452 456.841 181.21 456.982 180.998C457.122 180.786 457.309 180.608 457.528 180.479C463.925 177.44 470.307 174.349 476.673 171.206C488.742 165.283 500.766 159.282 512.845 153.403C518.557 150.619 524.248 147.513 530.326 145.639C533.89 144.506 537.592 143.86 541.329 143.72C539.109 142.01 537.184 139.95 535.628 137.619C531.047 130.787 531.99 111.808 545.456 104.742C550.026 131.718 570.003 123.233 585.942 142.921C598.221 158.106 583.391 187.367 569.492 198.582C571.97 199.54 574.216 201.01 576.086 202.897C577.955 204.783 579.405 207.044 580.34 209.53C581.717 213.766 581.566 218.351 579.915 222.489C578.264 226.626 575.216 230.055 571.3 232.18C568.784 233.452 566.001 234.106 563.181 234.088C561.191 234.084 559.213 233.781 557.313 233.189C556.393 252.157 556.093 271.124 556.204 290.114C556.4 290.183 556.58 290.288 556.736 290.424C558.655 292.033 560.53 293.752 562.36 295.427C562.813 295.608 563.181 295.952 563.392 296.392C565.47 298.381 567.477 300.433 569.415 302.548C583.454 317.87 593.874 336.148 599.907 356.034C600.584 358.064 597.367 358.952 596.757 356.955ZM275.085 319.464C273.699 317.711 272.356 315.925 271.114 314.073C270.969 313.82 270.893 313.533 270.893 313.242C270.893 312.95 270.969 312.664 271.113 312.41C271.258 312.157 271.466 311.946 271.717 311.798C271.968 311.65 272.253 311.57 272.545 311.566C274.681 311.507 276.767 310.912 278.612 309.836C282.29 307.61 285.543 304.748 288.218 301.383C291.095 298.137 293.328 294.373 294.796 290.291C297.181 283.215 295.994 275.084 290.215 269.959C288.932 268.803 287.42 267.93 285.778 267.397C284.347 266.931 282.007 266.288 280.942 267.708C278.723 270.825 282.373 275.372 283.005 278.445C284.602 286.331 276.538 292.476 269.228 292.033C264.844 291.615 260.663 289.978 257.16 287.308C253.669 284.882 250.511 282.011 247.765 278.767C244.996 275.64 243.085 271.849 242.219 267.763C241.609 264.336 241.82 260.232 245.147 258.268C249.717 255.573 255.629 258.679 260.421 258.967C262.551 259.1 265.058 258.579 265.147 255.939C265.28 251.89 260.499 248.452 257.449 246.622C253.735 244.374 249.508 243.113 245.17 242.961C241.298 242.839 237.106 243.904 236.052 248.119C235.631 250.338 235.541 252.607 235.786 254.852C235.912 257.219 236.19 259.575 236.618 261.907C237.2 265.022 238.031 268.086 239.102 271.069C239.842 272.784 240.544 274.518 241.21 276.271C241.886 278.035 238.991 279.244 238.159 277.546C237.327 275.849 236.584 273.875 235.941 272C231.192 260.82 225.134 250.242 217.894 240.488C216.374 238.458 214.566 235.175 211.96 234.343C209.353 233.511 207.723 236.45 207.711 238.635C207.711 241.963 209.775 245.091 211.239 247.897C212.836 250.951 214.496 253.965 216.219 256.937C219.665 262.853 223.362 268.647 227.311 274.319C228.543 276.082 225.67 277.702 224.427 275.994L213.202 260.465C211.627 258.246 210.096 256.028 208.466 253.942C207.523 252.711 205.726 250.437 203.896 251.169C201.101 252.279 203.086 257.692 203.896 259.5C206.636 265.7 209.653 271.767 212.88 277.735L218.837 288.239C219.06 288.62 219.124 289.074 219.012 289.502C218.901 289.929 218.624 290.295 218.243 290.519C217.862 290.742 217.408 290.805 216.981 290.694C216.553 290.583 216.188 290.306 215.964 289.925C213.746 286.228 211.605 282.449 209.542 278.589L207.379 274.873L203.153 267.419C202.476 266.232 201.844 265.012 201.112 263.859C200.679 263.16 200.002 262.151 199.182 261.995C197.74 261.729 197.163 264.014 197.052 265.057C196.918 267.12 197.209 269.189 197.906 271.135C199.293 275.494 201.955 279.354 204.428 283.17C209.812 291.438 215.265 299.66 220.789 307.839C227.733 318.118 234.802 328.319 241.997 338.442C246.534 337.965 251.182 338.542 255.618 337.333C260.731 335.747 265.306 332.78 268.84 328.759C271.07 326.263 272.955 322.669 275.129 319.419L275.085 319.464ZM351.931 356.068C352.086 357.764 352.342 359.449 352.697 361.115C353.565 365.285 355.173 369.267 357.444 372.872C359.496 376.078 362.547 380.06 366.384 381.103C371.93 382.589 369.035 374.68 367.904 372.229C366.123 368.489 363.616 365.141 360.528 362.379C357.91 359.961 355.043 357.827 351.976 356.012L351.931 356.068ZM452.481 256.017C451.328 256.505 450.185 257.004 449.054 257.514C448.322 257.836 447.612 258.191 446.836 258.523C446.845 258.822 446.764 259.115 446.603 259.366C442.105 267.002 438.007 274.866 434.324 282.926C421.587 310.862 413.839 340.812 411.43 371.419L420.969 373.904C420.545 365.333 420.682 356.745 421.379 348.192C422.767 331.528 426.205 315.098 431.617 299.276C436.809 284.071 443.815 269.546 452.481 256.017ZM551.9 290.613C552.233 290.487 552.6 290.487 552.932 290.613C552.754 271.013 553.065 251.413 554.041 231.825C551.49 230.518 549.29 228.615 547.63 226.279C547.491 226.1 547.391 225.895 547.334 225.677C547.278 225.458 547.266 225.231 547.3 225.007C547.334 224.784 547.414 224.57 547.533 224.379C547.652 224.187 547.81 224.022 547.995 223.893C548.18 223.764 548.39 223.674 548.611 223.629C548.833 223.584 549.061 223.584 549.282 223.63C549.503 223.676 549.712 223.766 549.897 223.895C550.082 224.024 550.239 224.19 550.358 224.382C551.924 226.641 554.073 228.434 556.576 229.57C559.08 230.705 561.844 231.141 564.576 230.83C567.307 230.52 569.903 229.475 572.088 227.807C574.272 226.138 575.964 223.909 576.983 221.356C578.001 218.802 578.309 216.021 577.873 213.307C577.436 210.593 576.272 208.048 574.505 205.942C572.737 203.837 570.432 202.25 567.835 201.35C565.237 200.451 562.444 200.272 559.753 200.833C559.321 200.923 558.871 200.837 558.501 200.595C558.132 200.353 557.874 199.974 557.785 199.541C557.695 199.109 557.781 198.658 558.023 198.289C558.265 197.92 558.644 197.662 559.077 197.572C559.587 197.461 560.086 197.395 560.596 197.328L558.067 196.219C550.78 184.861 557.335 175.466 558.311 166.603C559.676 153.88 553.775 151.274 546.92 147.403C540.509 146.404 533.953 147.724 527.963 150.042C521.974 152.361 516.161 155.589 510.36 158.395C504.559 161.201 498.58 164.185 492.702 167.091C482.286 172.238 471.859 177.385 461.377 182.398L462.021 182.942C470.599 190.226 479.188 197.491 487.788 204.738C488.045 204.997 488.211 205.334 488.259 205.697C488.307 206.059 488.235 206.428 488.054 206.745L485.714 211.182C478.803 224.204 471.915 237.282 464.638 250.138C464.644 250.421 464.579 250.701 464.449 250.953C464.319 251.204 464.129 251.42 463.895 251.58L463.662 251.99C466.174 258.642 469.731 264.851 474.2 270.381C482.731 281.014 494.282 288.814 507.332 292.754C522.009 297.03 537.693 296.288 551.9 290.646V290.613ZM559.665 297.268C558.123 295.837 556.559 294.44 554.951 293.075C555.019 293.34 555.021 293.618 554.955 293.883C554.889 294.148 554.758 294.393 554.573 294.595C549.241 300.685 544.373 307.166 540.009 313.984C524.318 338.644 515.157 366.89 513.388 396.066C513.456 396.078 513.523 396.097 513.588 396.121C513.921 396.31 514.265 396.465 514.608 396.632L514.853 396.72L515.352 396.909C516.025 397.13 516.715 397.297 517.415 397.408H517.548H517.648H518.258C518.613 397.408 518.968 397.408 519.367 397.408H519.7C520.133 389.919 521.063 382.467 522.484 375.102C528.058 346.452 540.835 319.693 559.609 297.346L559.665 297.268ZM479.801 287.962C479.028 287.443 478.155 287.092 477.238 286.931C476.321 286.771 475.38 286.804 474.477 287.03C474.128 287.132 473.822 287.344 473.602 287.633C473.382 287.923 473.261 288.275 473.257 288.639L473.057 294.595C473.057 295.036 473.233 295.46 473.545 295.772C473.857 296.084 474.28 296.259 474.721 296.259C475.163 296.259 475.586 296.084 475.898 295.772C476.21 295.46 476.385 295.036 476.385 294.595C476.441 293.12 476.485 291.645 476.529 290.158C476.758 290.202 476.983 290.257 477.206 290.325C477.361 290.38 477.539 290.48 477.284 290.325L477.683 290.524C477.812 290.595 477.938 290.673 478.06 290.757L478.204 290.857C478.416 291.021 478.612 291.202 478.792 291.401L479.047 291.689C478.792 291.389 479.047 291.689 479.114 291.822L479.313 292.144C479.339 292.201 479.368 292.257 479.402 292.31C479.48 292.565 479.557 292.809 479.624 293.064C479.624 293.22 479.624 293.364 479.624 293.508C479.618 293.593 479.618 293.678 479.624 293.763L479.568 293.941L479.469 294.296L479.413 294.429C479.291 294.651 479.114 294.872 479.014 295.105C478.912 295.232 478.801 295.35 478.681 295.46L478.415 295.715L478.348 295.771C478.104 295.915 477.882 296.07 477.638 296.203L477.472 296.292C477.339 296.292 477.217 296.392 477.084 296.425L476.607 296.547H476.507C476.285 296.547 475.786 296.669 475.609 296.547C475.609 296.547 475.952 296.636 475.753 296.547C475.655 296.519 475.554 296.496 475.453 296.481C475.295 296.443 475.139 296.395 474.987 296.337C474.57 296.219 474.123 296.269 473.741 296.476C473.36 296.683 473.075 297.031 472.946 297.446C472.837 297.863 472.891 298.307 473.097 298.686C473.303 299.065 473.646 299.351 474.056 299.487C475.574 299.942 477.202 299.868 478.673 299.278C480.144 298.687 481.371 297.615 482.153 296.237C482.564 295.529 482.828 294.746 482.929 293.934C483.03 293.122 482.966 292.298 482.741 291.511C482.155 290.068 481.121 288.851 479.79 288.04L479.801 287.962ZM470.307 332.33C470.757 333.445 470.876 334.666 470.65 335.846C470.424 337.027 469.862 338.117 469.031 338.986C468.568 339.436 468.016 339.784 467.411 340.008C466.805 340.231 466.159 340.325 465.515 340.284C464.219 340.151 463.004 339.589 462.065 338.686C461.187 337.877 460.582 336.815 460.335 335.647C460.313 335.403 460.313 335.158 460.335 334.915C460.197 335.316 459.916 335.652 459.545 335.857C459.174 336.062 458.74 336.121 458.327 336.024C457.905 335.9 457.547 335.617 457.33 335.234C457.112 334.851 457.052 334.398 457.162 333.972C457.653 332.448 458.581 331.101 459.832 330.101C461.082 329.101 462.6 328.492 464.195 328.348C465.542 328.233 466.89 328.573 468.022 329.313C469.072 330.09 469.864 331.164 470.295 332.397L470.307 332.33ZM464.095 331.654C464.173 331.698 464.295 331.676 464.084 331.72L464.095 331.654ZM467.423 335.181C467.417 335.137 467.417 335.092 467.423 335.048C467.417 335.081 467.417 335.115 467.423 335.148C467.434 334.948 467.434 334.748 467.423 334.549C467.423 334.46 467.423 334.36 467.423 334.272C467.423 334.072 467.334 333.872 467.278 333.684L467.179 333.373C467.09 333.218 467.023 333.063 466.923 332.907L466.746 332.641C466.613 332.497 466.491 332.353 466.347 332.22L466.114 332.064C466.035 332.016 465.953 331.971 465.87 331.931C465.615 331.854 465.382 331.787 465.126 331.732H464.816C464.576 331.749 464.335 331.749 464.095 331.732H463.895L463.607 331.798L463.685 331.865C463.991 332.179 464.162 332.601 464.162 333.04C464.162 333.48 463.991 333.901 463.685 334.216C463.641 334.275 463.604 334.338 463.574 334.405C463.574 334.405 463.574 334.46 463.574 334.482C463.574 334.505 463.574 334.538 463.574 334.593C463.574 334.649 463.574 334.704 463.574 334.737C463.574 334.771 463.574 334.859 463.574 334.926C463.574 334.993 463.574 334.981 463.574 335.004C463.574 335.026 463.64 335.226 463.673 335.336C463.715 335.432 463.763 335.525 463.818 335.614L463.984 335.88V335.947C464.127 336.11 464.279 336.265 464.439 336.412L464.528 336.49L464.716 336.623C464.834 336.696 464.957 336.763 465.082 336.823L465.193 336.878H465.138L465.393 336.945H465.515H465.87L466.158 336.856L466.38 336.734L466.469 336.679C466.519 336.637 466.567 336.592 466.613 336.545C466.679 336.49 466.735 336.412 466.801 336.346L466.923 336.168L467.068 335.891C467.068 335.714 467.179 335.547 467.223 335.37V335.192C467.223 335.192 467.378 335.336 467.389 335.248L467.423 335.181ZM465.204 336.812H465.26C465.071 336.823 465.06 336.834 465.126 336.878L465.204 336.812ZM467.423 335.226V335.148C467.391 335.189 467.376 335.24 467.378 335.292L467.423 335.226ZM340.318 214.909L401.424 181.633L418.151 172.515C423.609 185.966 429.288 199.325 435.189 212.591C416.155 222.559 397.124 232.542 378.098 242.54L361.637 251.158C359.74 252.157 361.426 255.029 363.323 254.031L421.523 223.528L436.542 215.652C437.363 217.483 438.173 219.324 439.005 221.198C443.22 230.516 447.546 239.781 451.982 248.995C452.914 250.925 455.787 249.239 454.855 247.32C447.113 231.2 439.692 214.931 432.593 198.515C425.494 182.099 418.732 165.516 412.306 148.767C408.668 139.294 405.144 129.785 401.735 120.238C401.014 118.241 397.797 119.129 398.529 121.125C404.334 137.394 410.457 153.507 416.898 169.465L356.102 202.575L338.643 212.092C336.757 213.057 338.443 215.93 340.318 214.909Z" fill="#DCDCDC"/>
<path d="M165.983 383.106C165.983 383.295 166.039 382.873 166.05 382.818C166.061 382.762 166.149 382.408 166.205 382.208C166.297 381.883 166.427 381.57 166.593 381.276C166.906 380.646 167.322 380.072 167.824 379.579C168.845 378.536 170.117 377.772 171.518 377.361C172.909 376.901 174.407 376.878 175.811 377.294C177.084 377.694 178.188 378.506 178.95 379.601C179.719 380.759 180.191 382.089 180.325 383.472C180.458 384.866 180.249 386.271 179.715 387.565C179.17 388.897 178.172 389.993 176.898 390.66C176.284 390.961 175.63 391.174 174.957 391.292C174.253 391.372 173.542 391.372 172.838 391.292C172.718 391.285 172.599 391.267 172.483 391.237L171.773 391.082C171.339 390.97 170.913 390.829 170.498 390.66C170.386 390.598 170.271 390.542 170.154 390.494L169.599 390.205C169.266 390.006 168.789 389.695 168.579 389.529C167.284 388.563 166.386 387.159 166.05 385.58C165.997 385.364 165.901 385.16 165.768 384.982C165.635 384.803 165.467 384.653 165.275 384.541C165.083 384.428 164.87 384.355 164.649 384.326C164.429 384.297 164.204 384.313 163.99 384.373C163.775 384.432 163.575 384.534 163.4 384.672C163.226 384.81 163.081 384.982 162.974 385.178C162.867 385.373 162.801 385.588 162.778 385.809C162.756 386.031 162.778 386.255 162.844 386.467C163.364 388.421 164.416 390.193 165.883 391.585C167.35 392.977 169.173 393.936 171.152 394.354C173.158 394.889 175.281 394.786 177.225 394.058C179.169 393.33 180.839 392.015 182 390.294C183.038 388.569 183.616 386.608 183.68 384.596C183.744 382.584 183.292 380.59 182.366 378.803C181.381 376.96 179.828 375.483 177.939 374.59C176.049 373.697 173.923 373.436 171.873 373.844C169.552 374.214 167.409 375.312 165.753 376.978C164.096 378.645 163.011 380.795 162.655 383.117C162.533 384.005 163.51 384.781 164.319 384.781C164.757 384.77 165.174 384.591 165.483 384.282C165.793 383.972 165.972 383.555 165.983 383.117V383.106Z" fill="#DCDCDC"/>
<path d="M386.106 9.97588L381.536 0.824877C381.314 0.444134 380.95 0.167195 380.523 0.0548883C380.097 -0.0574188 379.643 0.00408824 379.262 0.225901C378.903 0.453208 378.641 0.807422 378.53 1.21832C378.419 1.62922 378.467 2.0668 378.663 2.44433L383.233 11.6064C383.457 11.9874 383.823 12.2639 384.25 12.3752C384.678 12.4865 385.132 12.4234 385.513 12.1999C385.894 11.9763 386.17 11.6105 386.282 11.183C386.393 10.7556 386.33 10.3014 386.106 9.92042V9.97588Z" fill="#DCDCDC"/>
<path d="M52.8319 111.624L40.6305 102.473C40.2478 102.25 39.7926 102.189 39.3645 102.301C38.9363 102.413 38.57 102.69 38.3456 103.072C38.1516 103.45 38.1055 103.887 38.2163 104.297C38.327 104.707 38.5867 105.061 38.9445 105.29L51.1459 114.441C51.5269 114.663 51.9804 114.724 52.4068 114.612C52.8331 114.5 53.1975 114.223 53.4198 113.842C53.6137 113.464 53.6598 113.027 53.549 112.617C53.4383 112.207 53.1786 111.853 52.8208 111.624H52.8319Z" fill="#DCDCDC"/>
<path d="M246.7 171.171C242.337 160.597 240.507 150.451 241.21 140.735C241.506 136.259 242.271 131.828 243.495 127.513C245.754 119.769 248.997 112.347 253.145 105.428C260.369 92.9682 266.925 86.5348 272.811 86.1281C274.423 85.8819 276.067 85.9611 277.647 86.361C289.605 89.696 296.16 93.301 297.314 97.1758C299.066 102.611 299.007 111.692 297.136 124.418C296.288 130.45 295.043 136.419 293.409 142.288C291.73 148.332 289.61 154.245 287.064 159.979C286.381 161.484 285.529 162.905 284.524 164.217L304.091 177.727C305.1 175.963 306.099 174.122 307.075 172.181C311.474 163.597 315.011 154.598 317.634 145.316C320.203 136.17 321.962 126.817 322.892 117.364C324.977 97.4864 322.138 84.4162 314.373 78.1528C307.36 72.3055 299.317 67.8178 290.658 64.9199C266.426 68.9944 251.522 74.7697 245.946 82.2458C240.37 89.7219 233.955 101.317 226.701 117.031C223.808 123.356 221.394 129.889 219.48 136.575C216.99 145.179 215.603 154.065 215.354 163.019C215.095 175.087 217.188 183.924 221.632 189.529C231.859 188.353 240.611 183.306 246.7 171.171Z" fill="#006C8F"/>
</svg>
