<svg width="600" height="480" viewBox="0 0 600 480" fill="none" xmlns="http://www.w3.org/2000/svg">
<path d="M305 357.481C288.418 352.224 270.848 346.3 259.977 332.724C250.704 321.132 247.843 305.814 245.635 291.128C244.275 282.107 243.04 273.066 241.931 264.008C240.012 248.213 238.503 232.063 241.786 216.489C245.07 200.916 253.866 185.786 268.008 178.488C284.225 170.135 304.823 173.086 320.241 163.369C339.098 151.511 342.802 126.366 351.299 105.834C357.658 90.8386 367.246 77.4305 379.381 66.5653C391.515 55.7 405.897 47.6452 421.501 42.975C462.786 30.9511 510.238 45.8367 538.479 78.2258C547.408 88.4527 554.729 100.743 555.938 114.253C559.343 152.255 515.596 180.218 513.111 218.275C511.447 243.787 528.928 267.524 527.808 293.058C527.131 308.388 519.611 322.863 509.184 334.099C498.758 345.335 485.569 353.699 471.948 360.776C430.103 382.472 383.458 393.254 336.336 392.122" fill="#F4F6F9"/>
<path d="M556.725 292.691L555.716 292.237C555.516 272.681 555.716 254.29 556.825 232.339L556.936 231.907C559.928 233.333 563.276 233.838 566.556 233.357C569.835 232.876 572.897 231.43 575.354 229.205C577.81 226.979 579.549 224.074 580.35 220.858C581.151 217.641 580.978 214.26 579.852 211.142C578.653 208.059 576.607 205.377 573.95 203.407C571.292 201.437 568.132 200.257 564.834 200.006L575.416 156.879L549.16 146.896C540.974 145.344 532.19 147.584 524.68 151.189C501.997 162.059 479.602 173.484 459.514 183.024C459.514 183.024 478.37 199.096 487.777 206.927C487.777 206.927 472.181 236.443 463.84 251.296C435.289 261.789 409.034 278.028 385.618 297.461C372.862 308.043 360.55 320.133 354.56 335.585C352.287 341.517 351.187 347.835 351.321 354.186C347.661 352.277 343.882 350.606 340.007 349.184C325.998 343.848 310.447 339.267 301.562 327.188C297.524 321.708 293.587 314.066 286.787 314.554C281.84 314.92 278.878 319.435 276.161 323.883C273.509 320.542 271.139 316.988 269.073 313.256C274.109 313.667 278.812 310.783 282.727 307.588C289.383 302.142 295.273 294.965 296.459 286.447C297.646 277.928 292.71 268.178 284.258 266.381C283.385 266.159 282.47 266.159 281.596 266.381C279.089 267.113 278.268 270.363 278.779 272.925C279.289 275.488 280.62 277.872 280.731 280.479C280.986 286.391 274.419 290.828 268.529 290.351C262.64 289.874 257.593 285.914 253.422 281.732C248.431 276.685 243.883 270.374 244.06 263.286C244.021 261.871 244.407 260.476 245.169 259.282C249.828 252.837 262.64 264.484 267.165 257.951C269.062 255.211 267.409 251.407 265.257 248.855C260.785 243.571 254.474 240.181 247.599 239.372C244.16 238.983 240.278 239.438 237.993 242.023C236.229 244.008 235.774 246.825 235.608 249.476C235.175 255.868 235.775 262.287 237.383 268.488C233.148 255.715 227.26 243.551 219.868 232.306C218.504 230.254 216.763 228.024 214.322 227.869C211.571 227.68 209.298 230.354 208.92 233.082C208.543 235.811 209.564 238.529 210.606 241.08C214.874 251.575 219.882 261.753 225.592 271.539L211.682 248.645C210.307 246.426 208.355 243.819 205.693 244.208C201.788 244.762 201.899 250.453 203.186 254.191C205.338 260.424 207.734 266.573 210.373 272.637L203.718 258.217C202.964 256.564 201.899 254.701 200.091 254.501C197.728 254.257 196.242 257.052 195.998 259.415C195.366 265.616 198.383 271.55 201.344 277.029C213.22 299.073 225.596 320.84 238.47 342.329C226.856 347.243 234.51 366.022 241.121 373.442C249.24 382.56 260.499 388.328 269.04 397.046C278.08 406.264 283.637 418.288 291.335 428.659C308.051 451.165 324.423 478.063 352.464 478.573C352.464 478.573 384.631 422.004 451.184 419.785C517.736 417.567 509.972 379.853 539.921 359.888C569.87 339.922 599.508 357.591 599.508 357.591C591.842 332.267 576.978 309.719 556.725 292.691Z" fill="white"/>
<path d="M60.1415 304.594L81.6825 287.756L81.8489 287.989C87.2914 295.591 93.9467 296.556 101.815 290.884C102.436 290.44 103.09 289.908 103.811 289.287C112.596 281.944 115.924 273.972 113.794 265.372C110.467 260.569 108.359 257.552 107.472 256.321C103.692 250.814 98.619 246.32 92.697 243.232C86.7812 240.274 81.8562 240.208 77.9222 243.033L76.5357 244.02C72.513 247.954 68.0761 256.118 63.2252 268.511L42.1501 273.148L0 207.26L55.9376 158.976L73.0195 179.641L33.0878 209.989L51.9445 244.541C58.9991 231.231 65.4806 222.46 71.389 218.231C72.5714 217.375 73.9146 216.768 75.3378 216.445C84.0266 212.2 92.0388 211.797 99.3744 215.236C108.012 219.029 115.987 226.025 123.3 236.222C126.084 240.082 128.647 244.096 130.976 248.246C144.109 267.857 141.295 286.765 122.535 304.971C120.367 307.08 118.05 309.03 115.602 310.806C98.646 322.955 80.1592 320.885 60.1415 304.594ZM201.888 88.9407C203.348 98.8009 203.934 108.771 203.64 118.734C203.337 128.852 202.026 138.914 199.725 148.772C195.355 167.894 188.489 180.613 179.127 186.929C170.468 193.032 160.116 196.275 149.522 196.202L147.825 196.146C138.846 195.994 129.974 194.178 121.659 190.789C113.362 187.417 107.472 178.073 103.989 162.759C101.966 153.579 101.116 144.179 101.46 134.784C101.718 127.492 102.515 120.229 103.845 113.055C107.239 95.2336 110.825 81.7973 114.604 72.7462C118.383 63.695 132.089 54.0263 155.722 43.7402C165.287 44.4813 174.628 47.0057 183.264 51.1831C192.744 55.5903 198.952 68.1762 201.888 88.9407ZM164.175 72.3025C143.24 77.4049 131.638 86.1048 129.368 98.4023C128.215 104.881 127.537 111.436 127.338 118.013C127.139 124.403 127.365 130.799 128.014 137.158C129.294 150.602 131.512 159.875 134.67 164.977C136.821 168.675 144.405 170.708 157.42 171.078C159.128 171.086 160.821 170.754 162.4 170.102C168.316 168.209 173.389 160.012 177.618 145.511C180.122 137.422 181.576 129.046 181.944 120.587C182.11 115.881 181.783 111.171 180.968 106.533C178.957 94.8639 173.359 83.4612 164.175 72.3247V72.3025Z" fill="#9ED5F0"/>
<path d="M312.413 166.597L278.725 160.286C275.082 159.604 271.576 162.004 270.893 165.647L269.312 174.085C268.63 177.728 271.03 181.235 274.673 181.917L308.362 188.228C312.004 188.91 315.511 186.51 316.193 182.867L317.774 174.429C318.456 170.786 316.056 167.28 312.413 166.597Z" fill="white"/>
<path d="M313.042 163.325L279.355 157.013C278.741 156.899 278.117 156.84 277.492 156.836C275.15 156.838 272.883 157.658 271.082 159.155C269.281 160.652 268.061 162.731 267.631 165.033L266.056 173.474C265.806 174.77 265.815 176.104 266.084 177.396C266.353 178.689 266.875 179.915 267.621 181.005C268.367 182.094 269.321 183.025 270.429 183.743C271.537 184.461 272.776 184.952 274.076 185.187L307.762 191.499C308.374 191.61 308.994 191.665 309.615 191.665C311.958 191.675 314.229 190.86 316.032 189.364C317.835 187.867 319.054 185.784 319.476 183.479L321.062 175.038C321.545 172.422 320.973 169.721 319.47 167.526C317.967 165.331 315.656 163.82 313.042 163.325ZM317.79 174.417L316.203 182.858C315.929 184.405 315.115 185.805 313.907 186.81C312.699 187.815 311.175 188.36 309.604 188.349C309.187 188.35 308.771 188.313 308.361 188.238L274.675 181.926C273.805 181.771 272.976 181.443 272.234 180.964C271.493 180.484 270.854 179.862 270.355 179.133C269.857 178.404 269.508 177.584 269.33 176.719C269.151 175.854 269.147 174.962 269.317 174.095L270.892 165.654C271.048 164.785 271.375 163.955 271.855 163.214C272.334 162.472 272.956 161.834 273.685 161.335C274.414 160.836 275.235 160.488 276.1 160.309C276.965 160.131 277.857 160.127 278.723 160.297L312.41 166.608C313.279 166.763 314.109 167.089 314.851 167.567C315.593 168.045 316.232 168.666 316.732 169.394C317.231 170.122 317.581 170.942 317.761 171.806C317.941 172.67 317.947 173.561 317.779 174.428L317.79 174.417ZM283.637 237.764L276.86 273.913C276.593 275.336 275.773 276.594 274.579 277.411C273.385 278.229 271.915 278.539 270.493 278.273L267.076 277.64C265.653 277.371 264.395 276.549 263.578 275.353C262.761 274.157 262.451 272.686 262.717 271.262L269.483 235.113C269.752 233.69 270.575 232.432 271.771 231.615C272.967 230.797 274.438 230.488 275.861 230.754L276.804 230.931C277.204 226.021 277.795 221.122 278.579 216.234C278.522 216.152 278.459 216.074 278.39 216.001C278.219 215.96 278.054 215.892 277.902 215.802C276.793 215.258 275.773 214.46 274.741 213.805C272.789 212.563 270.848 211.309 268.918 210.023C264.91 207.361 260.965 204.613 257.082 201.781C256.812 201.59 256.599 201.329 256.466 201.026C256.333 200.724 256.286 200.39 256.328 200.062C255.83 189.56 256.926 179.044 259.578 168.871C259.694 168.444 259.975 168.081 260.359 167.862C260.743 167.643 261.198 167.584 261.625 167.701C262.051 167.817 262.414 168.098 262.634 168.482C262.853 168.865 262.911 169.321 262.795 169.747C260.267 179.459 259.202 189.493 259.634 199.518C263.105 202.025 266.599 204.477 270.16 206.85C272.075 208.137 274.013 209.405 275.972 210.655C277.603 211.687 279.921 212.652 281.141 214.149C281.534 214.554 281.813 215.055 281.951 215.602C281.935 216.726 281.778 217.844 281.485 218.93C281.115 221.303 280.805 223.688 280.553 226.084C280.354 227.914 280.198 229.756 280.054 231.63C281.284 232.061 282.32 232.917 282.975 234.043C283.629 235.17 283.86 236.493 283.626 237.775L283.637 237.764ZM268.041 169.159C268.253 169.217 268.45 169.315 268.624 169.449C268.797 169.583 268.942 169.75 269.05 169.94C269.159 170.13 269.229 170.34 269.257 170.557C269.285 170.774 269.269 170.995 269.212 171.206C269.154 171.417 269.056 171.615 268.922 171.788C268.788 171.961 268.621 172.106 268.431 172.215C268.241 172.323 268.031 172.394 267.814 172.421C267.597 172.449 267.376 172.434 267.165 172.376L261.686 171.267C261.259 171.149 260.897 170.867 260.678 170.482C260.46 170.097 260.403 169.641 260.521 169.215C260.639 168.788 260.921 168.426 261.306 168.207C261.691 167.989 262.146 167.932 262.573 168.05L268.041 169.159Z" fill="black"/>
<path d="M284.069 161.284C283.579 162.733 283.35 164.258 283.393 165.788C283.448 168.583 284.047 171.334 283.781 174.14C283.504 177.168 282.239 180.241 281.618 183.213L289.959 184.777C293.212 186.935 295.695 190.07 297.05 193.73C298.406 197.391 298.564 201.387 297.502 205.142C297.014 206.895 296.337 208.969 297.502 210.345C297.925 210.779 298.471 211.073 299.066 211.186C299.661 211.299 300.277 211.226 300.83 210.977C301.929 210.462 302.801 209.563 303.281 208.448C304.834 205.187 303.88 201.349 303.037 197.844C302.194 194.339 301.584 190.334 303.625 187.362L303.314 187.284L306.187 187.817C306.287 187.473 306.387 187.118 306.476 186.774C308.192 180.162 309.394 173.428 310.069 166.631C310.069 166.475 310.069 166.32 310.069 166.165L284.069 161.284Z" fill="#9ED5F0"/>
<path d="M551.734 210.666C554.671 209.28 557.883 208.574 561.13 208.601C564.377 208.628 567.577 209.387 570.491 210.822C572.41 211.775 570.724 214.648 568.805 213.694C566.411 212.533 563.79 211.917 561.13 211.89C558.47 211.864 555.836 212.427 553.42 213.539C553.042 213.733 552.605 213.779 552.195 213.668C551.785 213.558 551.43 213.298 551.201 212.94C550.974 212.567 550.902 212.12 551.002 211.694C551.101 211.269 551.364 210.899 551.734 210.666ZM537.625 172.509L531.169 177.944C530.86 178.258 530.687 178.68 530.687 179.12C530.687 179.56 530.86 179.983 531.169 180.296C531.486 180.597 531.907 180.765 532.345 180.765C532.782 180.765 533.203 180.597 533.521 180.296L539.976 174.861C540.285 174.547 540.458 174.125 540.458 173.685C540.458 173.245 540.285 172.823 539.976 172.509C539.659 172.208 539.238 172.04 538.8 172.04C538.363 172.04 537.942 172.208 537.625 172.509ZM531.635 170.679H531.701L531.879 170.546L532.123 170.368C532.467 170.113 532.811 169.869 533.166 169.636C533.363 169.523 533.535 169.371 533.672 169.191C533.81 169.01 533.91 168.803 533.967 168.583C534.024 168.363 534.036 168.134 534.003 167.909C533.97 167.684 533.893 167.468 533.776 167.274C533.55 166.897 533.184 166.624 532.759 166.514C532.334 166.405 531.882 166.466 531.502 166.686C528.459 168.722 525.826 171.311 523.737 174.317C523.532 174.692 523.478 175.131 523.588 175.544C523.697 175.957 523.961 176.312 524.325 176.536C524.71 176.749 525.162 176.806 525.588 176.695C526.014 176.583 526.38 176.312 526.61 175.937C526.832 175.615 527.065 175.271 527.32 174.972V174.905L527.475 174.717L527.864 174.251C528.401 173.612 528.971 173.001 529.572 172.421C530.149 171.855 530.759 171.311 531.38 170.79C531.467 170.759 531.553 170.722 531.635 170.679ZM531.213 152.044C530.773 152.047 530.352 152.223 530.04 152.535C529.729 152.846 529.553 153.268 529.55 153.708C529.561 154.146 529.74 154.563 530.049 154.872C530.359 155.182 530.776 155.361 531.213 155.372H531.48L532.023 155.472C532.4 155.56 532.766 155.66 533.132 155.782C533.315 155.834 533.493 155.901 533.665 155.982L533.942 156.115C534.29 156.282 534.627 156.471 534.951 156.681C535.113 156.77 535.269 156.87 535.417 156.98L535.661 157.158C535.962 157.399 536.247 157.658 536.515 157.934C536.78 158.158 537.018 158.411 537.225 158.688C537.242 158.728 537.265 158.766 537.292 158.799C537.358 158.877 537.414 158.966 537.469 159.043C537.525 159.121 537.702 159.387 537.802 159.565C537.913 159.753 538.06 159.918 538.234 160.05C538.409 160.182 538.607 160.278 538.819 160.334C539.031 160.389 539.251 160.402 539.468 160.371C539.684 160.341 539.893 160.269 540.082 160.158C540.27 160.047 540.435 159.901 540.567 159.726C540.699 159.552 540.795 159.353 540.85 159.141C540.906 158.93 540.918 158.709 540.888 158.493C540.858 158.276 540.786 158.067 540.675 157.879C539.655 156.242 538.27 154.864 536.628 153.852C534.987 152.84 533.134 152.221 531.213 152.044ZM547.452 170.313C547.856 170.891 548.209 171.503 548.506 172.143L548.606 172.421L548.772 172.92C548.875 173.284 548.957 173.655 549.016 174.029C549.135 174.454 549.418 174.816 549.802 175.034C550.187 175.252 550.642 175.309 551.068 175.194C551.478 175.058 551.821 174.772 552.027 174.393C552.233 174.013 552.287 173.57 552.178 173.153C551.877 171.432 551.176 169.805 550.132 168.405C549.088 167.004 547.729 165.868 546.166 165.089C545.788 164.895 545.351 164.849 544.941 164.959C544.53 165.07 544.176 165.33 543.947 165.688C543.728 166.071 543.668 166.525 543.78 166.953C543.892 167.38 544.167 167.746 544.546 167.973C544.879 168.128 545.202 168.306 545.511 168.505L545.988 168.827L546.132 168.949C546.414 169.183 546.681 169.435 546.931 169.703C547.053 169.836 547.175 169.958 547.286 170.091L547.441 170.291L547.452 170.313ZM498.359 228.469L498.037 228.68C497.826 228.813 497.593 228.946 497.371 229.057L497.149 229.157L496.917 229.246L496.184 229.467C495.952 229.523 495.719 229.567 495.475 229.6H495.341H494.953C494.453 229.626 493.952 229.608 493.456 229.545H493.4L492.946 229.456C492.69 229.402 492.438 229.331 492.191 229.246L491.903 229.157L491.648 229.046L491.104 228.791C490.882 228.669 490.661 228.536 490.45 228.391L490.217 228.225L490.062 228.092C489.873 227.926 489.684 227.748 489.507 227.56L489.252 227.282V227.227L489.185 227.127C488.953 226.757 488.589 226.489 488.167 226.378C487.744 226.267 487.296 226.32 486.911 226.528C486.533 226.752 486.258 227.117 486.146 227.542C486.034 227.968 486.094 228.42 486.312 228.802C487.13 229.898 488.159 230.818 489.338 231.51C490.517 232.202 491.823 232.65 493.179 232.829C494.534 233.008 495.911 232.914 497.23 232.552C498.548 232.189 499.78 231.567 500.854 230.721C501.166 230.409 501.341 229.986 501.341 229.545C501.341 229.104 501.166 228.681 500.854 228.369C500.689 228.201 500.491 228.07 500.272 227.983C500.054 227.897 499.819 227.857 499.584 227.866C499.349 227.876 499.119 227.934 498.908 228.038C498.697 228.142 498.509 228.289 498.359 228.469ZM596.757 356.949C595.116 351.478 593.119 346.12 590.778 340.91C583.836 325.5 574.078 311.521 562.005 299.692C557.118 305.468 552.637 311.576 548.595 317.971C533.391 342.092 524.546 369.671 522.883 398.134C522.98 398.273 523.062 398.422 523.127 398.578C523.199 398.85 523.202 399.135 523.136 399.408C523.07 399.681 522.937 399.933 522.75 400.142C522.703 400.485 522.553 400.806 522.32 401.062C522.087 401.319 521.783 401.499 521.446 401.579C521.109 401.66 520.756 401.636 520.432 401.512C520.109 401.389 519.83 401.17 519.633 400.885C516.93 400.999 514.247 400.378 511.869 399.088C511.681 398.984 511.518 398.841 511.392 398.667C511.189 398.666 510.989 398.623 510.804 398.541C510.619 398.458 510.453 398.338 510.317 398.187C510.181 398.037 510.079 397.86 510.015 397.667C509.952 397.475 509.93 397.271 509.95 397.07C510.416 388.546 511.502 380.068 513.2 371.702C518.893 343.45 531.543 317.064 550.004 294.933C542.511 297.525 534.638 298.848 526.71 298.849C511.525 298.885 496.736 294.001 484.56 284.928C474.221 277.147 466.158 266.736 461.211 254.78C460.791 254.77 460.387 254.614 460.069 254.339C459.751 254.063 459.539 253.686 459.47 253.271C458.471 253.659 457.473 254.048 456.475 254.458C456.649 254.698 456.742 254.988 456.742 255.284C456.742 255.581 456.649 255.87 456.475 256.111C451.351 263.85 446.788 271.945 442.82 280.336C435.818 295.291 430.706 311.059 427.602 327.278C424.487 343.485 423.429 360.021 424.452 376.494C424.563 378.224 422.433 378.546 421.523 377.503L410.886 374.697C409.976 375.739 407.847 375.407 407.969 373.687C408.6 364.631 409.689 355.613 411.23 346.667C416.448 316.477 426.854 287.419 441.988 260.78C425.174 269.044 409.248 279.005 394.459 290.507C386.186 296.704 378.399 303.524 371.165 310.906C364.366 318.038 358.32 326.202 354.86 335.508C352.875 340.831 351.857 346.466 351.854 352.146C353.395 352.989 354.915 353.877 356.401 354.853C363.833 359.767 370.377 366.566 372.651 375.407C373.228 377.625 373.605 380.254 372.23 382.295C371.642 383.123 370.833 383.77 369.896 384.162C368.959 384.554 367.931 384.676 366.928 384.513C362.358 383.981 358.864 380.187 356.224 376.749C351.418 370.16 348.736 362.262 348.537 354.11C345.008 352.313 341.378 350.721 337.667 349.34C329.081 346.101 320.241 343.217 312.299 338.525C308.355 336.268 304.769 333.434 301.662 330.117C298.733 326.923 296.659 323.118 293.897 319.791C291.546 316.94 288.351 314.167 284.38 315.354C280.653 316.463 278.402 320.456 276.516 323.54C274.282 327.518 271.399 331.094 267.986 334.122C264.148 337.327 259.478 340.1 254.498 340.943C249.296 341.831 243.783 340.799 238.714 342.463C237.424 342.856 236.256 343.572 235.321 344.542C234.385 345.513 233.713 346.706 233.367 348.009C231.737 353.899 234.543 360.765 237.394 365.823C241.62 373.332 248.741 378.535 255.53 383.57C259.666 386.539 263.629 389.742 267.398 393.165C271.047 396.693 274.322 400.588 277.17 404.79C280.11 408.994 282.716 413.386 285.512 417.712C288.307 422.038 291.058 425.942 293.975 429.913C299.199 437.057 304.302 444.333 309.97 451.099C315.327 457.522 321.239 463.7 328.261 468.314C335.08 472.927 343.07 475.508 351.299 475.757C353.44 475.813 353.44 479.14 351.299 479.085C347.018 479.009 342.771 478.318 338.687 477.033C321.483 471.542 309.493 456.534 299.133 442.581C293.243 434.639 287.275 426.719 282.006 418.344C279.1 413.752 276.272 409.093 273.133 404.69C269.928 400.264 266.204 396.239 262.041 392.699C254.187 386.044 244.859 380.786 238.27 372.733C233.799 367.383 230.887 360.905 229.851 354.01C229.334 350.885 229.755 347.678 231.06 344.792C231.824 343.379 232.874 342.14 234.145 341.156C235.415 340.173 236.877 339.465 238.437 339.08C235.952 335.575 233.467 332.081 231.027 328.553C224.875 319.724 218.807 310.85 212.825 301.932C209.867 297.451 206.909 292.959 203.951 288.455C201.2 284.263 198.216 280.103 196.12 275.533C194.39 271.751 192.792 266.792 194.245 262.666C194.489 261.81 194.925 261.02 195.521 260.359C196.117 259.697 196.857 259.181 197.684 258.85C198.477 258.618 199.32 258.618 200.113 258.85C199.846 258.097 199.646 257.321 199.514 256.532C198.915 252.816 199.936 247.858 204.639 247.847C205.834 247.878 206.992 248.265 207.966 248.956C207.083 247.316 206.283 245.631 205.571 243.909C204.35 240.892 203.862 237.498 205.571 234.559C206.247 233.219 207.374 232.161 208.754 231.571C210.134 230.981 211.677 230.896 213.113 231.331C216.164 232.385 218.094 235.313 219.957 237.764C224.758 244.122 229.06 250.842 232.824 257.863C232.746 257.065 232.646 256.255 232.591 255.445C232.314 251.108 232.125 245.795 235.664 242.623C238.836 239.783 243.428 239.417 247.499 239.883C252.102 240.4 256.516 242.005 260.377 244.564C263.86 246.893 267.709 250.254 268.452 254.602C268.773 256.204 268.476 257.867 267.623 259.26C266.769 260.652 265.421 261.671 263.849 262.112C261.153 262.844 258.225 262.167 255.563 261.623C253.167 261.124 250.327 260.226 247.876 260.869C244.094 261.845 245.347 267.181 246.301 269.843C247.798 274.024 250.871 277.519 254.065 280.491C259.8 285.738 269.783 292.615 277.215 285.96C278.65 284.767 279.617 283.105 279.943 281.268C280.232 279.116 279.189 277.075 278.379 275.156C276.937 271.762 276.072 266.948 279.599 264.441C282.783 262.222 287.83 264.108 290.692 266.06C293.849 268.272 296.292 271.355 297.724 274.934C301.14 283.131 298.767 292.094 293.997 299.226C291.445 303.02 288.385 306.446 284.901 309.408C282.225 311.829 279.001 313.564 275.506 314.466C276.039 315.21 276.616 315.908 277.159 316.685C279.688 313.623 282.705 311.427 287.142 311.815C291.579 312.204 294.529 315.143 297.014 318.382C299.865 322.031 302.161 326.035 305.488 329.297C312.421 336.074 321.683 339.856 330.623 343.217C336.668 345.491 342.769 347.654 348.559 350.483C349.006 341.085 351.851 331.959 356.823 323.972C361.881 315.925 368.054 308.635 375.158 302.321C374.732 302.422 374.284 302.366 373.896 302.162C373.508 301.958 373.208 301.62 373.051 301.211C369.812 293.136 366.484 285.094 363.068 277.086C350.822 248.623 337.386 220.712 322.759 193.351C321.75 191.466 324.622 189.791 325.632 191.676C329.802 199.485 333.87 207.342 337.833 215.247C351.831 243.074 364.643 271.451 376.267 300.379C376.381 300.649 376.412 300.946 376.356 301.233L377.399 300.291C385.673 292.975 394.361 286.142 403.421 279.826C421.395 267.078 440.929 256.685 461.544 248.901C463.023 246.216 464.502 243.529 465.981 240.837C472.244 229.353 478.426 217.821 484.527 206.24L478.104 200.839C471.116 194.923 464.143 189.007 457.185 183.091C457.006 182.91 456.871 182.69 456.79 182.449C456.71 182.207 456.685 181.951 456.718 181.698C456.751 181.446 456.841 181.205 456.982 180.992C457.122 180.78 457.309 180.603 457.528 180.473C463.925 177.434 470.307 174.343 476.673 171.2C488.742 165.277 500.766 159.276 512.845 153.398C518.557 150.613 524.248 147.508 530.326 145.633C533.89 144.5 537.592 143.854 541.329 143.714C539.109 142.005 537.184 139.944 535.628 137.613C531.047 130.781 531.99 111.802 545.456 104.736C550.026 131.712 570.003 123.227 585.942 142.915C598.221 158.101 583.391 187.362 569.492 198.576C571.97 199.534 574.217 201.004 576.086 202.891C577.955 204.778 579.405 207.038 580.34 209.524C581.717 213.761 581.566 218.346 579.915 222.483C578.264 226.62 575.216 230.049 571.3 232.174C568.784 233.446 566.001 234.1 563.181 234.082C561.191 234.078 559.213 233.775 557.313 233.183C556.393 252.151 556.093 271.118 556.204 290.108C556.4 290.177 556.58 290.282 556.736 290.419C558.655 292.027 560.53 293.746 562.36 295.421C562.813 295.602 563.181 295.946 563.392 296.386C565.47 298.375 567.477 300.427 569.415 302.542C583.454 317.864 593.874 336.143 599.907 356.029C600.584 358.058 597.367 358.946 596.757 356.949ZM275.085 319.458C273.698 317.705 272.356 315.919 271.114 314.067C270.969 313.814 270.893 313.528 270.893 313.236C270.892 312.944 270.968 312.658 271.113 312.405C271.257 312.151 271.466 311.94 271.717 311.792C271.968 311.644 272.253 311.564 272.545 311.56C274.68 311.501 276.767 310.906 278.612 309.83C282.29 307.605 285.543 304.743 288.218 301.378C291.095 298.132 293.328 294.367 294.796 290.286C297.18 283.209 295.994 275.078 290.215 269.954C288.932 268.798 287.42 267.925 285.778 267.391C284.347 266.926 282.006 266.282 280.942 267.702C278.723 270.819 282.372 275.367 283.005 278.439C284.602 286.326 276.538 292.471 269.228 292.027C264.843 291.609 260.663 289.972 257.16 287.302C253.669 284.877 250.511 282.005 247.765 278.761C244.996 275.634 243.085 271.843 242.219 267.757C241.609 264.33 241.82 260.226 245.147 258.263C249.717 255.567 255.629 258.673 260.421 258.961C262.551 259.094 265.058 258.573 265.146 255.933C265.28 251.885 260.499 248.446 257.448 246.616C253.735 244.368 249.508 243.108 245.169 242.955C241.298 242.833 237.105 243.898 236.052 248.113C235.631 250.332 235.541 252.601 235.786 254.846C235.912 257.213 236.19 259.569 236.617 261.901C237.2 265.016 238.031 268.08 239.102 271.063C239.842 272.778 240.544 274.513 241.21 276.265C241.886 278.029 238.991 279.238 238.159 277.541C237.327 275.844 236.584 273.869 235.941 271.995C231.191 260.814 225.133 250.236 217.894 240.482C216.374 238.452 214.566 235.169 211.96 234.337C209.353 233.505 207.722 236.444 207.711 238.629C207.711 241.957 209.774 245.085 211.239 247.891C212.836 250.945 214.496 253.959 216.219 256.931C219.665 262.847 223.362 268.641 227.311 274.313C228.542 276.077 225.669 277.696 224.427 275.988L213.202 260.459C211.627 258.24 210.096 256.022 208.466 253.937C207.523 252.705 205.726 250.432 203.896 251.164C201.1 252.273 203.086 257.686 203.896 259.494C206.635 265.694 209.652 271.762 212.88 277.729L218.837 288.233C219.06 288.614 219.123 289.069 219.012 289.496C218.901 289.924 218.624 290.289 218.243 290.513C217.862 290.737 217.408 290.8 216.981 290.688C216.553 290.577 216.187 290.3 215.964 289.92C213.745 286.222 211.605 282.443 209.542 278.583L207.379 274.867L203.152 267.414C202.476 266.227 201.844 265.007 201.112 263.853C200.679 263.154 200.002 262.145 199.181 261.99C197.74 261.723 197.163 264.008 197.052 265.051C196.918 267.114 197.209 269.183 197.906 271.129C199.292 275.489 201.955 279.349 204.428 283.164C209.811 291.432 215.265 299.655 220.789 307.833C227.733 318.112 234.802 328.313 241.997 338.436C246.534 337.96 251.181 338.536 255.618 337.327C260.731 335.741 265.306 332.774 268.84 328.753C271.07 326.257 272.955 322.663 275.129 319.413L275.085 319.458ZM351.931 356.062C352.086 357.758 352.342 359.443 352.697 361.109C353.565 365.28 355.173 369.262 357.444 372.866C359.496 376.072 362.546 380.054 366.384 381.097C371.93 382.583 369.035 374.674 367.904 372.223C366.123 368.483 363.615 365.135 360.528 362.373C357.91 359.955 355.043 357.821 351.976 356.006L351.931 356.062ZM452.481 256.011C451.328 256.499 450.185 256.998 449.054 257.508C448.322 257.83 447.612 258.185 446.836 258.518C446.845 258.816 446.764 259.11 446.603 259.361C442.105 266.996 438.007 274.86 434.324 282.92C421.587 310.856 413.839 340.806 411.429 371.413L420.969 373.898C420.545 365.328 420.682 356.739 421.379 348.186C422.767 331.522 426.205 315.092 431.617 299.27C436.809 284.065 443.814 269.54 452.481 256.011ZM551.9 290.607C552.233 290.481 552.6 290.481 552.932 290.607C552.754 271.007 553.065 251.408 554.041 231.819C551.49 230.512 549.29 228.61 547.63 226.273C547.491 226.094 547.391 225.89 547.334 225.671C547.278 225.453 547.266 225.225 547.3 225.002C547.334 224.778 547.414 224.565 547.533 224.373C547.653 224.181 547.81 224.016 547.995 223.887C548.181 223.758 548.39 223.669 548.611 223.623C548.833 223.578 549.061 223.578 549.282 223.624C549.503 223.67 549.712 223.76 549.897 223.889C550.083 224.019 550.239 224.184 550.358 224.376C551.924 226.636 554.073 228.428 556.576 229.564C559.08 230.699 561.844 231.135 564.576 230.825C567.307 230.514 569.903 229.469 572.088 227.801C574.272 226.132 575.964 223.903 576.983 221.35C578.001 218.797 578.309 216.015 577.873 213.301C577.436 210.587 576.272 208.042 574.505 205.936C572.737 203.831 570.432 202.244 567.835 201.345C565.237 200.445 562.445 200.266 559.754 200.827C559.321 200.917 558.871 200.831 558.501 200.589C558.132 200.347 557.874 199.968 557.785 199.535C557.695 199.103 557.781 198.652 558.023 198.283C558.265 197.914 558.644 197.656 559.077 197.566C559.587 197.455 560.086 197.389 560.596 197.322L558.067 196.213C550.78 184.855 557.335 175.46 558.312 166.597C559.676 153.874 553.775 151.268 546.92 147.397C540.509 146.398 533.953 147.718 527.963 150.037C521.974 152.355 516.161 155.583 510.36 158.389C504.559 161.195 498.58 164.179 492.702 167.085C482.286 172.232 471.859 177.379 461.377 182.392L462.021 182.936C470.599 190.22 479.188 197.485 487.788 204.732C488.045 204.992 488.211 205.328 488.259 205.691C488.307 206.053 488.235 206.422 488.054 206.74L485.714 211.176C478.803 224.199 471.915 237.276 464.638 250.132C464.644 250.415 464.579 250.695 464.449 250.947C464.319 251.199 464.129 251.414 463.895 251.574L463.662 251.984C466.174 258.636 469.731 264.845 474.2 270.375C482.731 281.008 494.282 288.808 507.332 292.748C522.009 297.024 537.693 296.282 551.9 290.64V290.607ZM559.665 297.262C558.123 295.832 556.559 294.434 554.951 293.07C555.019 293.334 555.021 293.612 554.955 293.877C554.889 294.143 554.758 294.387 554.573 294.589C549.241 300.68 544.373 307.161 540.009 313.978C524.318 338.638 515.157 366.885 513.388 396.06C513.456 396.072 513.523 396.091 513.588 396.116C513.921 396.304 514.265 396.459 514.608 396.626L514.853 396.715L515.352 396.903C516.025 397.124 516.715 397.291 517.415 397.402H517.548H517.648H518.258C518.613 397.402 518.968 397.402 519.367 397.402H519.7C520.133 389.913 521.063 382.462 522.484 375.096C528.058 346.446 540.835 319.687 559.609 297.34L559.665 297.262ZM479.801 287.956C479.028 287.437 478.155 287.086 477.238 286.925C476.321 286.765 475.38 286.799 474.477 287.024C474.128 287.127 473.822 287.338 473.602 287.627C473.382 287.917 473.261 288.269 473.257 288.633L473.057 294.589C473.057 295.031 473.233 295.454 473.545 295.766C473.857 296.078 474.28 296.253 474.721 296.253C475.162 296.253 475.586 296.078 475.898 295.766C476.21 295.454 476.385 295.031 476.385 294.589C476.44 293.114 476.485 291.639 476.529 290.152C476.758 290.196 476.983 290.252 477.206 290.319C477.361 290.374 477.539 290.474 477.283 290.319L477.683 290.518C477.812 290.59 477.938 290.667 478.06 290.751L478.204 290.851C478.416 291.015 478.612 291.197 478.792 291.395L479.047 291.683C478.792 291.384 479.047 291.683 479.114 291.816L479.313 292.138C479.339 292.196 479.368 292.251 479.402 292.304C479.48 292.559 479.557 292.803 479.624 293.059C479.624 293.214 479.624 293.358 479.624 293.502C479.618 293.587 479.618 293.672 479.624 293.757L479.568 293.935L479.469 294.29L479.413 294.423C479.291 294.645 479.114 294.867 479.014 295.1C478.912 295.226 478.8 295.344 478.681 295.454L478.415 295.71L478.348 295.765C478.104 295.909 477.882 296.065 477.638 296.198L477.472 296.286C477.339 296.286 477.217 296.386 477.084 296.419L476.607 296.542H476.507C476.285 296.542 475.786 296.664 475.609 296.542C475.609 296.542 475.952 296.63 475.753 296.542C475.654 296.513 475.554 296.491 475.453 296.475C475.295 296.437 475.139 296.389 474.987 296.331C474.57 296.213 474.123 296.263 473.741 296.47C473.36 296.677 473.075 297.025 472.946 297.44C472.837 297.857 472.891 298.301 473.097 298.68C473.303 299.059 473.646 299.346 474.056 299.481C475.574 299.936 477.202 299.862 478.673 299.272C480.144 298.682 481.371 297.609 482.153 296.231C482.564 295.523 482.828 294.74 482.929 293.928C483.03 293.116 482.966 292.292 482.741 291.506C482.155 290.062 481.121 288.845 479.79 288.034L479.801 287.956ZM470.307 332.325C470.757 333.439 470.876 334.66 470.65 335.84C470.424 337.021 469.862 338.111 469.031 338.98C468.568 339.43 468.016 339.778 467.411 340.002C466.805 340.226 466.159 340.319 465.515 340.278C464.219 340.145 463.004 339.583 462.065 338.681C461.187 337.871 460.582 336.809 460.335 335.641C460.313 335.398 460.313 335.153 460.335 334.909C460.197 335.31 459.916 335.646 459.545 335.851C459.174 336.056 458.74 336.116 458.327 336.018C457.905 335.894 457.547 335.611 457.33 335.228C457.112 334.845 457.052 334.393 457.162 333.966C457.653 332.442 458.581 331.096 459.832 330.096C461.082 329.095 462.6 328.486 464.195 328.343C465.542 328.227 466.89 328.567 468.022 329.308C469.072 330.084 469.864 331.159 470.295 332.391L470.307 332.325ZM464.095 331.648C464.173 331.692 464.295 331.67 464.084 331.715L464.095 331.648ZM467.423 335.175C467.417 335.131 467.417 335.087 467.423 335.042C467.417 335.075 467.417 335.109 467.423 335.142C467.434 334.943 467.434 334.743 467.423 334.543C467.423 334.454 467.423 334.355 467.423 334.266C467.423 334.066 467.334 333.867 467.278 333.678L467.179 333.367C467.09 333.212 467.023 333.057 466.923 332.902L466.746 332.635C466.613 332.491 466.491 332.347 466.347 332.214L466.114 332.059C466.035 332.01 465.953 331.965 465.87 331.925C465.615 331.848 465.382 331.781 465.126 331.726H464.816C464.576 331.743 464.335 331.743 464.095 331.726H463.895L463.607 331.792L463.685 331.859C463.991 332.174 464.162 332.595 464.162 333.035C464.162 333.474 463.991 333.896 463.685 334.21C463.641 334.269 463.604 334.333 463.574 334.399C463.574 334.399 463.574 334.454 463.574 334.477C463.574 334.499 463.574 334.532 463.574 334.588C463.574 334.643 463.574 334.698 463.574 334.732C463.574 334.765 463.574 334.854 463.574 334.92C463.574 334.987 463.574 334.976 463.574 334.998C463.574 335.02 463.64 335.22 463.673 335.331C463.715 335.426 463.763 335.519 463.818 335.608L463.984 335.874V335.941C464.127 336.104 464.279 336.26 464.439 336.407L464.528 336.484L464.716 336.617C464.834 336.691 464.957 336.757 465.082 336.817L465.193 336.872H465.138L465.393 336.939H465.515H465.87L466.158 336.85L466.38 336.728L466.469 336.673C466.519 336.631 466.567 336.587 466.613 336.54C466.679 336.484 466.735 336.407 466.801 336.34L466.923 336.163L467.068 335.885C467.068 335.708 467.179 335.541 467.223 335.364V335.187C467.223 335.187 467.378 335.331 467.389 335.242L467.423 335.175ZM465.204 336.806H465.26C465.071 336.817 465.06 336.828 465.126 336.872L465.204 336.806ZM467.423 335.22V335.142C467.391 335.184 467.376 335.235 467.378 335.286L467.423 335.22ZM340.318 214.903L401.424 181.627L418.151 172.509C423.609 185.96 429.288 199.319 435.189 212.585C416.155 222.553 397.124 232.536 378.098 242.534L361.637 251.152C359.74 252.151 361.426 255.024 363.323 254.025L421.523 223.522L436.542 215.647C437.363 217.477 438.173 219.318 439.005 221.193C443.22 230.51 447.545 239.776 451.982 248.99C452.914 250.92 455.787 249.234 454.855 247.315C447.113 231.194 439.692 214.926 432.593 198.509C425.494 182.093 418.732 165.51 412.306 148.761C408.668 139.288 405.144 129.779 401.735 120.232C401.014 118.235 397.797 119.123 398.529 121.119C404.334 137.388 410.457 153.501 416.898 169.459L356.102 202.569L338.643 212.086C336.757 213.051 338.443 215.924 340.318 214.903Z" fill="black"/>
<path d="M165.983 383.104C165.983 383.293 166.038 382.871 166.049 382.816C166.06 382.761 166.149 382.406 166.205 382.206C166.297 381.881 166.427 381.568 166.593 381.274C166.906 380.644 167.322 380.07 167.824 379.577C168.845 378.534 170.117 377.77 171.518 377.359C172.908 376.899 174.406 376.876 175.81 377.292C177.083 377.692 178.188 378.504 178.949 379.599C179.718 380.757 180.191 382.087 180.325 383.47C180.458 384.864 180.248 386.269 179.715 387.563C179.17 388.895 178.172 389.991 176.897 390.658C176.283 390.959 175.63 391.172 174.956 391.29C174.252 391.37 173.542 391.37 172.838 391.29C172.718 391.283 172.599 391.265 172.483 391.235L171.773 391.08C171.339 390.968 170.913 390.827 170.497 390.658C170.386 390.596 170.271 390.54 170.153 390.492L169.599 390.203C169.266 390.004 168.789 389.693 168.578 389.527C167.284 388.561 166.385 387.157 166.049 385.578C165.996 385.362 165.9 385.158 165.767 384.98C165.634 384.801 165.467 384.651 165.275 384.539C165.083 384.426 164.87 384.353 164.649 384.324C164.428 384.295 164.204 384.311 163.989 384.371C163.775 384.43 163.574 384.532 163.4 384.67C163.225 384.808 163.08 384.98 162.974 385.176C162.867 385.371 162.8 385.586 162.778 385.807C162.756 386.029 162.778 386.253 162.844 386.465C163.364 388.419 164.416 390.191 165.883 391.583C167.349 392.975 169.173 393.934 171.152 394.352C173.157 394.887 175.28 394.784 177.225 394.056C179.169 393.328 180.838 392.013 182 390.292C183.037 388.567 183.616 386.606 183.68 384.594C183.744 382.582 183.292 380.588 182.366 378.801C181.38 376.958 179.828 375.481 177.938 374.588C176.049 373.695 173.922 373.434 171.873 373.842C169.552 374.212 167.409 375.31 165.752 376.976C164.096 378.643 163.011 380.793 162.655 383.115C162.533 384.003 163.509 384.779 164.319 384.779C164.757 384.768 165.173 384.589 165.483 384.28C165.793 383.97 165.971 383.553 165.983 383.115V383.104Z" fill="black"/>
<path d="M386.106 9.97589L381.536 0.824877C381.314 0.444134 380.949 0.167195 380.523 0.0548883C380.097 -0.0574188 379.643 0.00408824 379.262 0.225901C378.902 0.453208 378.641 0.807423 378.53 1.21832C378.419 1.62922 378.467 2.0668 378.663 2.44433L383.233 11.6064C383.457 11.9874 383.823 12.2639 384.25 12.3752C384.678 12.4865 385.132 12.4234 385.513 12.1999C385.894 11.9763 386.17 11.6105 386.281 11.183C386.393 10.7556 386.33 10.3014 386.106 9.92042V9.97589Z" fill="black"/>
<path d="M52.8319 111.625L40.6305 102.474C40.2478 102.251 39.7926 102.19 39.3645 102.302C38.9363 102.414 38.57 102.691 38.3455 103.073C38.1516 103.451 38.1055 103.887 38.2163 104.298C38.327 104.708 38.5867 105.062 38.9445 105.291L51.1459 114.442C51.5269 114.664 51.9804 114.725 52.4067 114.613C52.8331 114.501 53.1974 114.224 53.4197 113.843C53.6137 113.465 53.6598 113.028 53.549 112.618C53.4383 112.208 53.1786 111.854 52.8208 111.625H52.8319Z" fill="black"/>
<path d="M246.7 171.167C242.337 160.592 240.507 150.446 241.21 140.73C241.505 136.255 242.271 131.823 243.495 127.508C245.754 119.764 248.997 112.342 253.145 105.424C260.369 92.9634 266.925 86.5299 272.811 86.1232C274.422 85.877 276.067 85.9562 277.647 86.3561C289.605 89.6912 296.16 93.2961 297.314 97.171C299.066 102.606 299.007 111.687 297.136 124.413C296.288 130.445 295.043 136.415 293.409 142.283C291.73 148.327 289.61 154.241 287.064 159.975C286.381 161.479 285.529 162.9 284.524 164.212L304.091 177.722C305.1 175.958 306.099 174.117 307.075 172.176C311.474 163.592 315.011 154.593 317.634 145.311C320.203 136.165 321.962 126.812 322.892 117.359C324.977 97.4815 322.138 84.4113 314.373 78.1479C307.36 72.3006 299.317 67.8129 290.658 64.915C266.426 68.9895 251.522 74.7648 245.946 82.2409C240.37 89.717 233.955 101.312 226.701 117.026C223.808 123.351 221.394 129.884 219.48 136.57C216.99 145.174 215.603 154.06 215.354 163.014C215.095 175.082 217.188 183.919 221.632 189.524C231.859 188.348 240.611 183.301 246.7 171.167Z" fill="#9ED5F0"/>
</svg>
