<svg width="585" height="600" viewBox="0 0 585 600" fill="none" xmlns="http://www.w3.org/2000/svg">
<path d="M122.027 350.343C103.429 335.64 85.7103 319.43 73.0183 299.449C60.3263 279.469 52.7866 255.467 56.1795 231.968C59.5724 208.594 75.029 186.226 97.2715 178.435C112.351 173.157 129.693 174.414 143.767 166.623C158.344 158.58 166.386 142.37 171.664 126.662C176.942 110.828 180.335 94.1148 189.383 80.1661C198.431 66.2175 215.27 55.4104 231.355 59.8087C242.916 62.9503 251.335 72.8777 262.142 78.0299C282.123 87.5803 305.622 79.2864 327.739 80.4174C348.599 81.4227 371.595 95.4972 371.218 116.357C371.093 129.678 361.668 140.736 356.39 152.925C351.112 165.115 352.62 183.21 365.312 186.855C375.24 189.745 384.664 181.702 392.832 175.293C416.583 156.444 447.119 146.517 477.404 147.773C507.689 149.03 537.346 161.596 559.337 182.456C571.4 193.892 581.705 208.971 581.705 225.559C581.705 242.021 571.903 256.849 562.478 270.295C541.995 299.701 518.37 331.242 483.561 339.662C465.34 344.06 445.611 341.421 428.018 347.955C391.827 361.276 375.491 408.274 338.294 418.578C321.833 423.102 304.491 419.458 287.777 415.688C252.34 407.771 216.777 399.854 181.34 392.063C167.266 388.922 153.066 385.78 140.625 378.366C128.31 370.952 118.006 358.637 117.001 344.311" fill="#16202C"/>
<path d="M528.55 216.009L527.922 212.742C536.09 196.029 537.472 175.671 531.566 158.078C530.937 156.068 528.424 152.549 525.157 149.031C525.283 148.905 525.283 148.905 525.408 148.779C526.665 150.915 528.55 152.675 530.812 153.554C533.953 154.685 537.849 153.806 539.734 151.041C540.613 149.659 540.991 147.899 541.242 146.266C542.122 138.6 539.86 130.809 536.09 124.023C532.32 117.238 527.293 111.331 522.267 105.425C521.01 103.917 519.628 102.409 517.743 101.907C516.486 101.53 515.104 101.907 513.973 102.535C513.093 101.655 512.088 100.901 510.957 100.399C508.318 99.0163 504.674 99.142 502.663 101.404C501.532 102.661 501.407 104.545 501.909 106.053C500.778 104.922 499.521 103.792 498.265 102.912C496.882 101.907 495.375 101.027 493.741 100.776C490.474 100.273 487.081 102.661 485.824 105.677C484.819 108.315 485.07 111.206 485.95 113.845C470.368 103.415 455.539 114.724 450.136 131.94C446.743 142.747 447.497 154.434 448.879 165.744C450.262 177.053 452.146 188.363 450.89 199.673L447.748 198.291C431.789 200.427 412.06 259.112 398.488 267.908C384.916 276.83 375.24 294.172 379.89 310.634C381.272 315.786 384.037 320.813 383.534 326.091C382.906 332.248 378.005 336.521 374.235 341.17C369.711 346.825 366.695 353.737 365.313 361.025C360.663 353.234 357.396 344.186 353.5 335.767C340.18 307.869 315.676 286.004 287.653 276.705L287.15 276.076C279.61 254.714 257.493 193.013 257.493 193.013C271.693 185.347 300.344 169.388 300.344 169.388C276.72 151.795 250.707 131.186 224.067 111.206C215.27 104.545 204.463 99.3932 193.405 99.2676L162.743 112.588L161.863 164.487C152.564 162.099 141.757 166.246 136.856 174.54C131.453 183.714 133.84 196.783 142.134 203.443C147.412 207.59 154.7 208.846 161.235 207.464V208.092C156.962 236.744 152.564 260.746 147.161 286.004L143.265 283.616C57.4365 335.264 -0.620028 434.161 2.27024 534.692C2.77289 552.913 8.93035 571.763 22.6277 583.701C39.718 598.655 65.1021 600.289 87.0932 595.011C97.0207 592.623 106.822 588.979 117.001 589.23C126.552 589.482 135.725 593 145.15 594.131C154.7 595.262 165.633 592.875 170.408 584.581L172.922 583.199C197.049 576.287 221.428 569.375 242.916 556.558C264.405 543.74 283.129 524.137 289.286 499.883C289.789 498.124 288.909 495.485 287.653 495.108C291.297 493.977 293.81 490.082 293.182 486.312C293.182 486.312 337.164 463.315 363.553 482.165C389.943 501.014 452.775 523.634 489.971 481.914C506.056 463.818 518.748 441.827 521.01 417.699C523.398 392.19 514.853 366.303 518.623 340.919C520.759 326.216 526.916 312.393 532.697 298.57C538.477 284.747 543.881 270.673 544.509 255.719C545.389 241.016 540.362 225.183 528.55 216.009Z" fill="#111217"/>
<path d="M414.698 2.88036C413.693 0.744075 416.96 -1.26654 417.965 0.995403C425.756 18.2113 433.422 35.3016 441.213 52.5175C442.218 54.6538 438.951 56.6644 437.946 54.4025C430.154 37.1865 422.363 20.0963 414.698 2.88036ZM411.556 53.5229C418.719 59.6804 425.756 65.8379 432.919 71.9954C434.804 73.629 437.443 70.8644 435.558 69.3565C428.395 63.199 421.358 57.0413 414.195 50.8838C412.436 49.3759 409.797 52.0149 411.556 53.5229ZM472.126 8.78649C472.126 21.1015 472.126 33.4166 472.126 45.7316C472.126 48.1193 475.896 48.1193 475.896 45.7316C475.896 33.4166 475.896 21.1015 475.896 8.78649C475.896 6.39888 472.126 6.39888 472.126 8.78649Z" fill="#DCDCDC"/>
<path d="M194.535 487.942C220.547 485.177 245.429 472.988 263.524 454.138C265.535 452.128 267.42 449.866 269.682 448.107C261.136 427.623 252.717 407.015 244.172 386.531C241.784 380.625 238.517 374.091 232.234 372.708C228.338 371.829 224.317 373.462 220.673 374.97C205.97 381.002 191.393 387.16 176.69 393.191C171.036 395.579 164.752 398.595 163.244 404.501C162.239 408.522 163.747 412.669 165.255 416.565C174.68 440.567 184.356 464.317 194.535 487.942Z" fill="#006C8F"/>
<path d="M236.129 389.169C236.129 388.163 235.877 387.158 235.375 386.153C235.123 384.519 234.244 382.885 232.61 382.131C229.846 380.749 226.704 381.88 225.07 384.393C224.693 384.896 224.442 385.524 224.191 386.153C223.437 387.661 223.311 389.546 223.939 391.053C224.442 392.31 225.322 393.567 226.578 394.195C227.458 394.572 228.338 394.823 229.217 394.698C229.971 394.823 230.851 394.823 231.605 394.698C233.992 394.195 235.877 391.807 236.129 389.169ZM229.594 387.409C229.72 387.409 229.72 387.409 229.594 387.409C229.594 387.409 229.72 387.535 229.594 387.409ZM242.286 408.646C242.16 409.526 241.658 410.406 241.03 411.034C240.276 411.788 239.27 412.165 238.139 412.291C237.26 412.291 236.254 412.039 235.5 411.662C235.123 411.411 234.746 411.16 234.495 410.783C234.118 410.28 233.867 409.903 233.615 409.275C233.238 408.395 233.238 407.39 233.615 406.51C233.992 405.505 234.621 404.625 235.626 403.997C236.506 403.368 237.762 403.243 238.768 403.494C238.893 403.494 239.019 403.62 239.145 403.62C239.27 403.62 239.396 403.62 239.522 403.62C240.527 403.871 241.407 404.5 242.035 405.379C242.286 406.51 242.412 407.641 242.286 408.646Z" fill="#DCDCDC"/>
<path d="M147.662 511.689C147.913 509.302 151.683 509.302 151.432 511.689C150.929 517.093 150.93 522.622 151.307 528.026C152.815 547.127 160.229 565.85 172.292 580.679C173.8 582.564 171.161 585.203 169.653 583.318C166.009 578.919 162.867 574.144 159.977 569.243C150.301 551.776 145.903 531.544 147.662 511.689ZM206.473 148.019C207.227 147.139 207.101 146.134 206.473 145.38C204.211 142.489 201.823 139.599 199.561 136.709C198.933 135.955 197.551 135.955 196.923 136.709C196.169 137.589 196.294 138.594 196.923 139.348C199.184 142.238 201.572 145.128 203.834 148.019C204.462 148.773 205.844 148.773 206.473 148.019ZM209.363 131.18C212.63 134.447 215.269 138.343 217.154 142.489C217.531 143.495 217.406 144.5 216.526 145.128C215.772 145.631 214.39 145.38 213.887 144.5C213.007 142.489 212.002 140.604 210.746 138.719C210.117 137.714 209.614 137.086 208.986 136.332C208.232 135.452 207.478 134.698 206.724 133.944C205.97 133.19 206.096 132.059 206.724 131.305C207.352 130.426 208.735 130.426 209.363 131.18ZM187.372 127.912C187.372 127.912 187.498 127.787 187.372 127.912V127.912ZM188.629 123.765C189.383 124.519 189.257 125.776 188.629 126.405C188.377 126.656 188.126 127.033 187.874 127.284C187.749 127.41 187.623 127.536 187.498 127.661C187.498 127.787 187.372 127.787 187.372 127.912C186.869 128.541 186.492 129.169 186.115 129.797C185.864 130.174 185.738 130.426 185.613 130.803C185.487 130.928 185.487 131.18 185.361 131.305C185.361 131.431 185.236 131.557 185.236 131.682C185.236 131.557 185.236 131.682 185.236 131.682C185.236 131.808 185.11 131.808 185.11 131.934C184.984 132.059 184.984 132.311 184.984 132.436C184.859 132.813 184.733 133.19 184.607 133.567C184.356 134.573 183.351 135.075 182.345 134.824C181.34 134.573 180.712 133.442 181.089 132.562C182.094 129.169 183.854 126.153 186.241 123.64C186.618 123.012 187.875 123.137 188.629 123.765ZM199.059 118.865C199.31 118.739 199.436 118.488 199.561 118.362H199.687C200.064 118.236 200.441 118.236 200.818 118.111C201.069 118.111 201.446 117.985 201.697 117.985C201.823 117.985 201.949 117.985 201.949 117.985C202.2 117.985 202.326 117.985 202.577 117.859C204.085 117.734 205.593 117.608 207.101 117.608C208.106 117.608 208.986 116.728 208.986 115.723C208.986 114.718 208.106 113.838 207.101 113.838C205.09 113.838 202.954 114.089 200.944 114.341C200.064 114.466 199.059 114.592 198.179 114.843C197.551 114.969 196.922 115.346 196.545 115.849C195.917 116.603 195.917 117.482 196.294 118.236C196.923 119.116 198.179 119.367 199.059 118.865ZM199.938 117.231C199.938 117.105 199.938 117.231 199.938 117.231C199.938 117.105 199.938 117.105 199.938 117.231ZM231.857 220.652C230.6 224.548 229.218 228.569 226.579 231.836C224.066 235.104 220.17 237.617 216.023 237.491C209.74 237.365 205.091 231.585 203.08 225.679C201.321 220.527 200.944 214.872 199.31 209.594C198.305 207.709 197.676 205.447 199.184 203.939C200.19 202.934 201.949 202.934 203.331 203.436C204.713 203.939 205.719 205.07 206.724 206.201C210.62 210.222 215.395 214.495 220.924 213.489C224.317 212.861 228.087 210.222 230.977 212.233C233.365 213.992 232.736 217.762 231.857 220.652ZM238.517 325.833C237.889 329.854 238.14 334.127 241.91 336.514C244.8 338.399 248.319 339.153 251.335 341.038C254.476 342.923 256.487 345.813 256.738 349.458C256.99 353.102 255.607 356.746 254.728 360.265C253.848 363.909 253.974 367.176 257.241 369.438C260.634 371.826 263.901 373.585 266.038 377.229C270.059 384.141 269.305 392.937 268.299 400.603C268.174 401.608 267.545 402.488 266.414 402.488C265.535 402.488 264.404 401.608 264.529 400.603C265.535 392.937 266.791 382.758 260.885 376.727C258.246 373.962 254.225 372.831 252.089 369.564C250.078 366.674 250.204 363.029 250.958 359.762C251.712 356.495 253.094 353.227 252.968 349.835C252.843 346.567 250.455 344.682 247.691 343.426C244.675 342.043 241.533 341.164 238.894 339.027C235.752 336.514 234.496 332.744 234.496 328.849C234.622 324.325 236.506 319.801 235.752 315.277C235.25 312.387 232.108 308.24 228.841 310.25C226.83 311.507 224.945 308.24 226.956 306.983C230.852 304.596 235.753 306.857 238.014 310.376C241.03 314.9 239.271 320.806 238.517 325.833ZM244.926 327.089C245.429 328.346 246.434 329.351 247.565 329.98C248.696 330.608 250.078 330.859 251.335 330.608C252.591 330.357 253.597 329.603 254.351 328.472C255.733 326.587 255.607 323.948 254.476 321.937C253.974 320.932 253.094 320.052 252.215 319.55C250.958 318.921 249.575 318.796 248.193 319.047C246.811 319.298 245.554 320.052 244.675 321.057C244.172 321.56 243.795 322.063 243.418 322.691C243.041 323.445 242.79 324.199 242.79 325.079C242.79 325.581 243.041 326.084 243.292 326.461C243.669 326.838 244.172 327.089 244.675 326.964C244.8 327.089 244.8 327.089 244.926 327.089ZM248.445 325.833L248.57 325.958L248.445 325.833ZM250.33 322.817C250.204 322.817 250.33 322.817 250.33 322.817C250.204 322.817 250.33 322.817 250.33 322.817ZM248.319 323.068C248.445 323.068 248.444 322.942 248.57 322.942C248.696 322.817 248.947 322.817 249.198 322.817H249.324C249.324 322.817 249.324 322.817 249.45 322.817C249.575 322.817 249.827 322.817 249.953 322.817C250.078 322.817 250.078 322.817 250.204 322.817C250.329 322.817 250.329 322.817 250.455 322.942C250.581 323.068 250.706 323.068 250.832 323.194L250.958 323.319L251.083 323.445C251.209 323.571 251.209 323.697 251.335 323.822C251.335 323.822 251.46 323.948 251.46 324.073C251.46 324.199 251.586 324.325 251.586 324.576V324.702C251.586 324.827 251.586 325.079 251.586 325.204C251.586 325.33 251.586 325.33 251.586 325.456V325.581C251.586 325.707 251.586 325.707 251.586 325.833C251.586 325.958 251.586 325.958 251.46 326.084C251.46 326.21 251.335 326.21 251.335 326.335C251.335 326.335 251.335 326.335 251.209 326.461C251.209 326.461 251.209 326.587 251.083 326.587V326.461C251.083 326.587 250.958 326.587 250.958 326.587C250.958 326.587 250.832 326.587 250.832 326.712C250.832 326.712 250.706 326.712 250.706 326.838C250.581 326.838 250.581 326.838 250.455 326.964H250.33H250.204C250.078 326.964 249.827 326.838 249.701 326.838C249.576 326.838 249.575 326.712 249.45 326.712C249.324 326.712 249.324 326.587 249.198 326.587C249.198 326.587 249.199 326.587 249.073 326.587L248.947 326.461C248.822 326.335 248.822 326.335 248.696 326.21C248.696 326.21 248.696 326.21 248.57 326.084L248.445 325.958C248.445 325.833 248.319 325.833 248.319 325.707C248.319 325.581 248.193 325.33 248.193 325.33V325.204C248.193 325.079 248.193 324.953 248.319 324.827C248.445 324.325 248.319 323.822 248.068 323.319C248.193 323.194 248.319 323.068 248.319 323.068ZM251.209 326.461C251.209 326.335 251.335 326.335 251.335 326.335C251.335 326.335 251.335 326.335 251.209 326.461C251.335 326.335 251.209 326.335 251.209 326.461ZM263.524 364.663C263.524 364.663 263.524 364.663 263.65 364.789C263.65 364.663 263.65 364.663 263.524 364.663C263.65 364.663 263.65 364.663 263.524 364.663ZM263.65 362.024C263.65 362.024 263.524 362.024 263.524 362.15C263.524 362.15 263.65 362.15 263.65 362.024ZM263.021 362.904C263.021 362.778 263.022 362.778 263.147 362.778C263.022 362.652 263.021 362.778 263.021 362.904ZM262.644 368.433C263.775 368.935 265.158 369.187 266.414 368.81C267.545 368.558 268.551 367.804 269.305 366.799C270.561 365.04 270.687 362.652 269.807 360.767C268.928 358.757 266.666 357.626 264.655 357.877C263.273 358.003 262.142 358.505 261.137 359.385C260.257 360.139 259.628 361.27 259.503 362.401C259.503 362.527 259.503 362.652 259.503 362.778V362.904C259 365.291 260.508 367.553 262.644 368.433ZM265.912 361.898C265.66 361.773 265.786 361.773 265.912 361.898V361.898ZM265.661 361.773C265.409 361.647 265.535 361.647 265.661 361.773V361.773ZM263.021 362.904C263.021 362.778 263.147 362.652 263.147 362.778L263.273 362.652C263.398 362.527 263.524 362.401 263.65 362.275C263.65 362.275 263.524 362.275 263.524 362.401C263.524 362.401 263.65 362.401 263.65 362.275C263.775 362.15 263.901 362.15 263.776 362.15C263.901 362.024 264.027 362.024 264.278 361.898C264.404 361.898 264.404 361.898 264.529 361.773C264.655 361.773 264.655 361.773 264.781 361.773C265.032 361.773 265.284 361.773 265.409 361.773H265.535H265.661C265.786 361.773 265.786 361.898 265.912 361.898L266.038 362.024C265.912 361.898 266.038 362.024 266.038 362.024L266.163 362.15C266.037 362.024 266.038 362.024 266.038 362.024C266.038 362.15 266.163 362.15 266.163 362.275C266.163 362.401 266.289 362.527 266.289 362.652C266.289 362.778 266.289 362.778 266.289 362.904C266.289 363.155 266.289 363.406 266.289 363.532C266.289 363.783 266.163 363.909 266.163 364.16C266.163 364.286 266.038 364.411 266.038 364.411C266.038 364.537 265.912 364.537 265.912 364.537C265.786 364.663 265.786 364.789 265.661 364.789C265.661 364.789 265.786 364.789 265.786 364.663C265.786 364.663 265.661 364.663 265.661 364.789C265.535 364.914 265.409 364.914 265.535 364.789C265.535 364.789 265.409 364.788 265.409 364.914C265.284 364.914 265.158 364.914 265.158 365.04C265.032 365.04 264.906 365.04 264.655 365.04C264.529 365.04 264.404 365.04 264.278 364.914H264.153C264.027 364.788 263.775 364.663 263.65 364.663C263.65 364.663 263.65 364.663 263.776 364.789L263.65 364.663C263.524 364.663 263.524 364.537 263.524 364.537C263.399 364.412 263.273 364.286 263.147 364.16C263.147 364.035 263.021 364.035 263.021 363.909C263.021 363.909 263.022 363.783 262.896 363.783C262.896 363.657 262.896 363.532 262.77 363.406C262.77 363.281 262.77 363.155 262.77 363.029C262.896 363.029 262.896 363.029 263.021 362.904C263.021 362.904 262.896 362.904 263.021 362.904C263.021 362.904 262.896 362.904 263.021 362.904ZM265.661 365.04C265.661 365.04 265.786 365.04 265.661 365.04C265.786 364.914 265.786 364.914 265.661 365.04C265.786 365.04 265.661 365.04 265.661 365.04ZM266.163 362.15C266.037 362.024 266.163 362.15 266.163 362.15C266.037 362.024 266.037 362.024 266.163 362.15ZM292.552 480.273C292.301 480.148 292.175 479.896 291.924 479.771C294.563 476.755 295.945 472.482 295.191 468.461C294.312 463.937 290.416 460.419 285.892 459.539C287.4 456.523 288.531 453.256 287.777 449.989C287.023 446.47 284.133 443.957 280.74 443.203C272.195 441.318 266.54 448.355 261.137 453.758C249.45 465.571 235.124 474.619 219.542 480.148C211.123 483.164 202.452 485.049 193.655 485.928C190.388 477.509 187.246 468.964 183.979 460.544C183.476 459.413 181.843 458.534 180.838 459.665C175.057 466.953 177.696 476.252 179.455 484.546C180.335 488.693 181.34 493.217 180.586 497.615C179.707 502.516 176.314 506.16 171.79 508.171C165.255 511.061 157.841 510.056 151.055 509.176C150.301 509.05 149.673 509.427 149.422 510.056C141.002 497.238 129.441 486.305 115.115 480.399C108.958 477.886 102.172 476.378 95.5117 476.126C96.14 470.597 95.7631 464.942 95.0091 459.539C93.6268 449.36 90.9879 439.056 91.8676 428.626C92.6215 420.583 95.8889 412.164 102.675 407.389C104.685 406.006 102.8 402.739 100.79 404.121C88.0978 412.792 86.8409 429.38 88.6002 443.328C89.9825 453.507 92.9984 465.319 91.7418 476.126C84.0763 476.378 76.4109 478.137 69.4994 481.781C65.9808 483.541 62.5878 485.803 60.3258 489.07C58.3152 491.96 57.5615 495.856 59.9491 498.872C62.211 501.762 66.4835 502.767 69.8764 503.019C73.2693 503.144 76.6623 502.265 79.6782 500.882C86.4641 497.741 91.2391 491.583 93.6267 484.546C94.1294 483.038 94.5066 481.53 94.7579 480.022C99.6588 480.148 104.685 481.027 109.335 482.41C124.917 487.311 137.609 498.872 146.28 512.318C147.16 513.7 148.919 513.323 149.547 512.318C149.798 512.695 150.301 512.946 150.804 513.072C157.213 513.826 163.998 514.58 170.282 512.695C175.434 511.187 180.209 507.919 182.597 502.893C186.618 494.222 182.722 484.672 181.089 476.001C180.46 472.608 180.209 468.838 181.466 465.445C184.356 473.111 187.246 480.776 190.262 488.442C190.514 489.196 191.267 489.95 192.021 489.824C207.604 488.442 222.683 483.918 236.381 476.504C243.167 472.859 249.701 468.461 255.607 463.434C258.623 460.921 261.388 458.282 264.153 455.518C266.792 452.753 269.43 449.611 272.823 447.727C275.714 446.219 279.861 445.716 282.374 448.229C284.51 450.366 284.007 453.381 282.876 456.146C282.499 456.397 282.248 456.649 282.122 457.151C281.745 458.031 281.494 458.911 281.117 459.665C280.992 459.79 280.866 460.042 280.74 460.167C280.615 460.293 280.615 460.544 280.489 460.796C271.692 478.891 250.958 487.311 233.239 494.348C230.977 495.227 231.983 498.872 234.245 497.992C253.094 490.578 274.08 481.781 283.63 463.057C287.149 463.183 290.542 465.696 291.17 469.341C291.422 470.723 291.296 472.231 290.793 473.613C290.165 473.488 289.411 473.739 289.034 474.493C287.777 476.378 286.395 478.137 285.013 480.022C284.887 480.148 284.761 480.273 284.761 480.399C275.965 491.457 265.032 500.757 252.717 507.668C250.581 508.799 252.466 512.066 254.602 510.935C267.294 503.898 278.353 494.348 287.4 483.038C288.28 482.787 289.16 482.535 289.914 483.289C290.793 484.169 291.296 485.928 291.296 487.059C291.547 489.95 289.662 492.463 287.023 493.342C286.521 493.342 286.018 493.468 285.515 493.845C284.51 494.473 284.384 495.479 284.761 496.233C278.604 506.16 269.933 514.328 259.754 519.983C257.618 521.114 259.503 524.381 261.639 523.25C272.069 517.47 280.866 509.176 287.275 499.249C287.149 499.877 287.023 500.505 286.772 501.134C286.144 503.396 285.39 505.532 284.51 507.794C282.876 512.066 280.74 516.088 278.352 519.983C273.577 527.9 267.42 534.812 260.634 541.095C245.303 554.918 226.453 563.965 207.227 570.751C195.666 574.898 183.853 578.165 172.041 581.558C171.161 581.81 170.784 582.438 170.784 583.066C170.03 582.689 169.025 582.815 168.397 583.82C164.627 590.229 156.836 592.491 149.799 592.742C140.374 592.994 131.326 589.349 122.027 588.093C112.099 586.711 102.549 589.098 92.9984 591.737C84.5789 593.999 76.2852 595.758 67.6144 596.135C51.5294 596.764 34.565 592.994 22.5012 581.81C10.3119 570.5 4.7826 553.535 3.90295 537.325C3.02331 521.366 4.27988 505.155 6.6675 489.447C9.05511 473.613 12.9508 457.905 18.103 442.7C23.2552 427.495 29.6641 412.792 37.3296 398.592C44.9951 384.392 53.7914 370.695 63.5932 357.877C73.395 345.059 84.3276 332.996 96.14 321.937C107.827 311.004 120.393 300.951 133.839 292.029C137.106 289.893 140.499 287.757 143.892 285.62C146.028 284.364 144.018 281.097 142.007 282.353C127.807 290.898 114.487 300.7 102.046 311.507C89.4801 322.314 77.9189 334.252 67.3631 347.07C56.8074 359.888 47.2568 373.459 38.963 387.785C30.6692 402.111 23.5065 417.065 17.726 432.521C11.9454 447.978 7.42142 464.063 4.40549 480.273C1.38956 496.484 -0.118407 512.946 0.007257 529.534C0.132921 546.372 3.2747 563.588 13.7048 577.411C24.0092 591.109 39.8427 598.146 56.5559 599.654C64.9754 600.408 73.5207 599.905 81.8145 598.272C91.4906 596.512 100.79 592.742 110.591 591.737C115.744 591.109 120.77 591.486 125.797 592.491C130.823 593.496 135.724 594.879 140.751 595.633C148.542 597.015 156.961 596.889 164.124 593.119C167.391 591.36 170.03 588.847 171.915 585.705C172.041 585.454 172.041 585.328 172.167 585.077C172.544 585.203 172.921 585.203 173.298 585.077C196.043 578.542 219.039 572.008 239.774 560.447C257.492 550.645 273.577 536.696 283.505 518.852C286.269 513.951 288.531 508.799 290.165 503.396C290.919 501.008 291.673 498.62 290.793 496.107C290.793 495.981 290.667 495.856 290.667 495.73C293.809 493.594 295.694 489.824 295.066 486.054C295.066 484.043 294.312 481.781 292.552 480.273ZM86.841 490.452C83.1968 495.604 76.9136 499.626 70.5047 499.5C67.8658 499.5 63.0906 498.62 62.3366 495.479C61.7083 492.211 65.3526 489.195 67.7402 487.562C74.7774 482.912 82.9454 480.525 91.2392 480.148C90.4853 483.792 89.103 487.185 86.841 490.452ZM172.041 185.215C171.538 185.969 170.282 186.472 169.402 185.843C163.496 181.445 155.83 179.937 148.667 181.822C146.28 182.451 145.275 178.806 147.662 178.178C155.705 176.042 164.627 177.675 171.287 182.576C172.167 183.204 172.544 184.21 172.041 185.215ZM145.149 294.542C144.018 292.406 147.285 290.521 148.416 292.658C150.678 296.93 153.568 300.7 157.087 303.967C170.659 316.408 191.016 318.042 206.599 308.24C208.609 306.983 210.494 310.25 208.484 311.507C203.708 314.523 198.305 316.659 192.65 317.665C183.099 319.424 173.172 318.042 164.375 313.518C156.207 309.371 149.421 302.711 145.149 294.542ZM297.579 285.62C295.317 289.516 292.427 293.16 289.16 296.176C277.473 306.858 260.382 311.256 245.051 306.732C242.664 306.104 243.669 302.459 246.057 303.088C250.078 304.219 254.099 304.847 258.246 304.721C272.823 304.344 287.023 296.427 294.312 283.735C295.443 281.599 298.71 283.484 297.579 285.62ZM546.393 247.67C545.388 237.617 541.995 227.689 535.335 219.898C533.701 218.013 531.942 216.254 529.931 214.746C529.931 214.746 529.931 214.746 529.806 214.746C530.308 214.118 530.183 213.489 529.931 212.861C537.471 196.65 539.105 177.927 534.33 160.711C533.827 159.077 533.324 157.443 532.57 155.936C533.827 156.061 535.083 156.061 536.34 155.684C543.377 153.925 543.88 145.757 543.252 139.851C542.498 132.436 539.482 125.525 535.46 119.367C533.45 116.351 531.314 113.335 528.926 110.571C526.664 107.806 524.528 104.79 522.014 102.403C519.878 100.392 517.113 99.5124 514.349 100.392C513.595 99.7638 512.966 99.2612 512.087 98.8842C508.443 96.9992 502.788 97.1248 500.526 101.146C500.4 101.397 500.274 101.649 500.149 102.026C497.636 100.015 494.745 98.5071 491.478 99.0098C488.211 99.5125 485.446 102.026 484.19 105.042C483.436 106.801 483.31 108.56 483.436 110.445C479.163 108.435 474.514 107.429 469.487 108.56C461.068 110.445 454.784 117.608 451.14 125.022C446.113 135.327 445.611 146.888 446.49 158.072C447.496 170.889 450.261 183.707 449.507 196.525C449.381 196.65 449.255 196.776 449.13 196.902C448.753 196.525 448.124 196.273 447.496 196.399C443.977 196.902 440.961 199.415 438.699 201.928C435.306 205.447 432.542 209.468 430.029 213.489C423.746 223.542 418.467 234.224 412.813 244.654C410.299 249.304 407.786 253.827 404.896 258.226C403.011 261.116 400.498 264.509 397.984 266.268C385.544 274.813 375.993 289.39 377.375 305.098C377.752 309.496 379.26 313.392 380.643 317.539C382.025 321.686 382.905 325.958 380.768 330.105C379.009 333.498 376.244 336.263 373.857 339.153C371.344 342.169 369.207 345.436 367.574 348.955C366.568 351.217 365.689 353.604 364.935 355.992C363.678 353.604 362.547 351.217 361.542 348.829C358.149 341.164 355.007 333.498 350.861 326.335C346.839 319.55 342.064 313.015 336.786 307.109C326.23 295.422 313.287 285.62 298.961 279.086C296.071 277.704 293.055 276.573 289.914 275.442C289.788 274.688 289.285 274.059 288.531 273.808C284.384 261.996 280.112 250.183 275.839 238.371C271.315 225.804 266.792 213.112 262.268 200.546C261.514 198.41 260.76 196.148 259.88 194.012C272.446 187.1 285.013 180.189 297.579 173.151C298.836 172.397 300.092 171.769 301.349 171.015C302.731 170.261 302.48 168.502 301.349 167.748C287.777 157.569 274.205 147.139 260.759 136.835C253.597 131.305 246.559 125.902 239.397 120.498C232.611 115.346 225.951 109.691 218.537 105.293C213.51 102.277 207.981 99.8894 202.2 98.6328C205.342 97.1248 208.609 94.9886 211.625 91.9727C219.291 84.3072 223.06 59.4257 207.352 46.8594C194.409 80.6629 170.784 64.4523 145.023 85.9408C125.043 102.528 136.981 144.626 152.186 162.596C145.275 163.852 138.992 167.873 135.347 173.905C129.441 183.958 131.954 198.033 141.128 205.196C145.4 208.589 150.678 210.222 156.082 210.222C157.087 210.222 158.218 210.097 159.223 209.971C156.333 229.7 152.814 249.429 148.919 269.033C147.788 274.562 146.657 280.091 145.526 285.746C145.149 287.254 146.657 288.259 147.788 288.008C165.13 295.297 183.728 299.318 202.577 299.82C221.804 300.449 241.156 297.558 259.377 291.275C268.928 288.008 278.227 283.61 286.898 278.458C287.023 278.458 287.023 278.583 287.149 278.583C316.051 288.259 339.802 310.628 352.62 338.148C356.013 345.436 358.777 353.102 362.673 360.139C362.924 360.516 363.176 361.019 363.427 361.396C361.416 372.705 362.924 384.769 368.579 394.697C372.223 401.105 379.386 407.388 387.177 404.373C394.968 401.482 394.969 392.183 391.701 385.774C387.931 378.234 379.637 374.842 373.857 369.061C371.218 366.548 369.082 363.658 367.197 360.516C367.699 358.254 368.328 355.866 369.082 353.73C370.338 350.337 371.972 347.196 374.108 344.305C376.245 341.164 379.009 338.525 381.271 335.509C383.533 332.619 385.167 329.226 385.418 325.581C385.669 321.183 383.91 316.911 382.528 312.764C380.014 305.475 380.14 298.061 382.653 290.773C385.167 283.735 389.69 277.452 395.22 272.677C397.23 271.043 399.492 269.661 401.377 268.027C402.634 266.896 403.765 265.514 404.896 264.132C407.786 260.488 410.174 256.466 412.436 252.571C418.091 242.769 422.991 232.716 428.646 222.914C431.285 218.39 433.924 213.741 437.066 209.468C439.202 206.452 441.841 203.311 444.857 201.426C446.113 200.672 446.867 200.295 448.375 200.043C448.627 200.043 448.878 199.918 449.13 199.792C449.13 200.546 449.507 201.049 450.135 201.3C454.91 211.604 463.33 220.275 473.634 225.176C485.195 230.705 498.767 231.208 510.83 226.81C516.736 224.673 522.14 221.406 526.915 217.259L527.041 217.385C534.958 223.542 539.607 232.59 541.618 242.266C543.88 253.325 542.372 264.76 539.23 275.567C532.445 298.941 518.747 320.178 516.36 344.808C513.846 369.689 521.889 394.445 519.124 419.327C516.737 441.066 506.055 461.424 491.604 477.635C476.524 494.599 457.423 507.543 437.317 517.847C434.804 519.104 432.29 520.36 429.777 521.491C427.641 522.496 429.526 525.764 431.662 524.758C452.522 514.831 472.503 502.516 488.839 486.054C504.547 470.22 516.737 450.365 521.386 428.5C523.899 416.436 523.774 404.247 522.643 392.057C521.512 379.365 519.501 366.673 519.627 353.981C519.752 341.289 522.643 329.226 527.167 317.288C531.565 305.601 536.968 294.291 540.99 282.353C545.011 271.295 547.524 259.357 546.393 247.67ZM234.747 293.789C216.275 297.056 197.174 296.93 178.827 293.411C168.774 291.527 158.972 288.511 149.547 284.615C153.568 265.514 157.213 246.413 160.354 227.187C161.36 221.155 162.239 215.123 163.119 209.217C166.763 208.211 170.156 206.327 172.921 203.688C173.675 202.934 173.675 201.803 172.921 201.049C172.167 200.295 171.036 200.295 170.282 201.049C163.37 207.709 151.055 208.337 143.39 202.305C135.85 196.273 133.588 184.21 138.489 175.916C143.39 167.622 155.076 163.727 163.998 167.497C165.004 167.874 166.009 167.496 166.512 166.491C166.889 165.486 166.512 164.481 165.507 163.978C164.753 163.601 163.873 163.35 163.119 163.098L167.392 162.093C179.832 149.275 173.674 135.327 174.68 123.64C176.188 106.298 184.984 104.79 195.163 101.397C211.122 102.403 223.689 113.336 235.878 122.635C249.701 133.19 263.398 143.746 277.096 154.302C283.63 159.328 290.165 164.229 296.825 169.256C287.149 174.659 277.347 180.063 267.671 185.466C263.901 187.477 260.257 189.613 256.487 191.624C255.859 192.001 255.356 193.006 255.607 193.76C258.246 201.174 260.885 208.463 263.524 215.877C268.551 229.826 273.577 243.9 278.604 257.974C280.74 263.881 282.751 269.661 284.887 275.567C269.556 284.489 252.466 290.647 234.747 293.789ZM369.207 369.438C371.846 372.58 374.988 375.093 378.255 377.48C384.036 381.753 390.822 386.905 390.319 394.948C390.068 398.341 387.806 400.98 384.413 401.357C380.768 401.734 377.501 399.849 375.113 397.335C370.087 391.932 367.574 383.638 366.694 376.475C366.317 373.082 366.317 369.689 366.569 366.296C367.448 367.302 368.328 368.433 369.207 369.438ZM521.135 106.927C524.905 111.325 528.675 115.723 531.816 120.624C534.958 125.273 537.471 130.3 538.728 135.829C539.356 138.468 539.733 141.233 539.607 143.997C539.482 146.385 539.356 149.527 537.345 151.16C533.952 153.925 530.057 151.914 527.669 148.898C528.423 147.39 528.8 145.757 529.177 144.249C529.68 141.861 530.057 139.222 530.057 136.835C530.182 131.808 529.177 126.782 527.544 122.006C525.91 117.482 523.648 113.084 521.135 109.063C520.13 107.429 518.998 105.796 517.867 104.288C519.25 104.539 520.255 105.796 521.135 106.927ZM505.301 101.9C508.317 100.267 511.584 102.528 513.595 104.79C516.108 107.555 518.119 110.822 519.878 114.089C521.763 117.482 523.397 121.001 524.528 124.645C525.659 128.415 526.413 132.311 526.287 136.332C526.287 138.342 526.161 140.353 525.659 142.238C525.407 143.243 525.156 144.249 524.905 145.254C524.654 146.008 524.402 147.516 523.648 147.893C522.517 148.27 521.135 146.259 520.758 145.505C519.627 143.746 518.747 141.861 517.867 139.976C517.491 139.348 517.239 138.719 516.988 138.091C516.485 134.698 515.983 131.18 515.103 127.787C513.595 121.127 511.082 114.592 507.06 109.063C505.804 107.304 504.422 105.796 502.914 104.288C503.668 103.659 505.05 102.026 505.301 101.9ZM492.609 102.654C494.997 102.403 497.384 104.288 499.018 105.796C500.777 107.304 502.411 109.063 503.793 111.073C510.328 120.121 512.213 131.305 513.595 142.113C513.972 144.626 515.229 148.898 512.59 150.532C510.956 151.537 509.197 151.16 507.689 150.029C507.814 150.029 507.815 149.904 507.94 149.904C510.453 147.767 512.715 144.123 511.961 140.73C511.333 137.965 508.82 136.081 506.307 134.95C503.291 133.567 500.275 132.939 497.133 132.562C496.379 125.902 493.363 119.87 488.588 115.346C488.588 115.095 488.462 114.843 488.337 114.592C486.577 110.445 486.828 103.282 492.609 102.654ZM452.145 133.065C454.407 125.525 458.806 117.859 465.968 113.964C469.11 112.205 472.754 111.451 476.273 111.953C478.786 112.33 481.048 113.21 483.184 114.341C483.184 114.969 483.561 115.723 484.064 116.1C489.091 119.996 492.483 126.027 493.363 132.311C491.729 132.311 490.096 132.311 488.462 132.436C483.938 132.688 479.54 133.065 475.268 134.07C472.629 131.431 470.367 128.415 468.859 124.896C468.482 124.017 467.099 123.766 466.22 124.268C465.214 124.771 465.089 125.902 465.591 126.907C466.974 129.923 468.859 132.813 471.121 135.201C470.367 135.452 469.613 135.704 468.859 135.955C460.691 139.097 454.659 145.505 449.758 152.668C449.758 146.008 450.26 139.473 452.145 133.065ZM526.287 211.856C526.036 212.233 526.036 212.736 526.161 213.112C517.868 221.281 506.432 225.93 494.746 226.056C483.059 226.181 471.875 221.406 463.455 213.364C459.057 209.217 455.538 204.065 453.276 198.535C454.533 184.461 451.015 170.261 450.135 156.061C450.889 156.438 452.02 156.438 452.648 155.433C456.418 149.652 460.942 144.249 467.099 140.982C472.377 138.091 478.786 136.835 484.818 136.332C489.467 135.955 494.494 135.578 499.144 136.458C501.908 136.96 505.05 137.714 507.186 139.599C509.197 141.233 508.568 143.62 507.06 145.505C506.432 146.259 505.804 146.762 505.175 147.39C504.17 147.139 503.039 147.767 502.788 148.647C500.903 149.401 498.767 149.778 496.63 149.904C492.107 150.281 487.457 150.155 482.933 150.281C480.922 150.281 480.545 152.794 481.928 153.799C485.823 156.564 487.331 161.465 487.331 165.989C487.331 171.895 484.692 177.424 482.43 182.576C481.425 184.712 484.692 186.723 485.697 184.461C488.462 178.304 491.352 171.895 491.101 164.983C490.975 160.962 489.719 157.066 487.331 153.925C490.598 153.925 493.866 153.799 497.133 153.548C499.646 153.297 502.159 152.794 504.547 151.914C506.181 153.548 508.317 154.679 510.83 154.679C513.721 154.679 516.611 152.919 517.616 150.155C517.868 149.401 517.993 148.647 518.119 147.767C519.752 150.029 522.392 152.165 524.905 151.411C526.036 152.668 527.167 154.05 528.172 155.558C529.429 157.443 529.806 158.449 530.434 160.585C532.821 168.502 533.701 176.796 533.198 184.964C532.696 194.263 530.308 203.436 526.287 211.856Z" fill="#DCDCDC"/>
<path d="M438.952 123.389C435.684 117.358 430.155 112.959 423.495 111.074C409.923 107.179 395.598 115.221 391.702 128.919C389.817 135.579 390.571 142.49 393.964 148.522C397.231 154.554 402.76 158.952 409.421 160.837C411.683 161.466 414.07 161.843 416.332 161.843C426.888 161.843 436.564 155.308 440.46 145.129L455.162 145.632C458.681 141.862 462.325 139.349 463.833 138.344L442.093 137.589C442.47 132.814 441.339 127.788 438.952 123.389ZM411.431 153.674C406.782 152.292 402.886 149.276 400.624 145.004C398.237 140.731 397.734 135.83 398.991 131.055C401.252 123.012 408.667 117.609 416.583 117.609C418.217 117.609 419.851 117.86 421.484 118.237C426.134 119.62 430.029 122.635 432.291 126.908C434.302 130.427 434.931 134.448 434.428 138.344C433.674 138.972 433.171 139.977 433.171 140.982C433.171 141.485 433.297 141.862 433.423 142.365C430.03 151.287 420.605 156.313 411.431 153.674ZM584.47 146.135C584.47 148.271 582.837 149.905 580.7 149.905H565.621C564.992 149.905 564.49 149.779 563.987 149.527L542.875 148.774C542.875 148.774 543.755 144.501 543.504 141.234L552.552 141.611L552.426 126.531C552.426 124.395 554.06 122.761 556.196 122.761C558.332 122.761 559.966 124.395 559.966 126.531L560.092 141.862L565.495 142.113L565.872 114.844C565.872 112.834 567.631 111.074 569.642 111.074C571.778 111.074 573.412 112.834 573.412 114.844L573.035 142.239H580.7C582.837 142.365 584.47 143.998 584.47 146.135Z" fill="#CB730B"/>
</svg>
