<svg width="585" height="600" viewBox="0 0 585 600" fill="none" xmlns="http://www.w3.org/2000/svg">
<path d="M122.027 350.34C103.429 335.638 85.7102 319.427 73.0182 299.447C60.3261 279.466 52.7864 255.464 56.1794 231.965C59.5723 208.592 75.0289 186.224 97.2713 178.432C112.351 173.155 129.693 174.411 143.767 166.62C158.344 158.578 166.386 142.367 171.664 126.659C176.942 110.825 180.335 94.1121 189.383 80.1634C198.431 66.2148 215.269 55.4078 231.354 59.806C242.915 62.9476 251.335 72.875 262.142 78.0272C282.123 87.5777 305.622 79.2837 327.738 80.4147C348.599 81.42 371.595 95.4945 371.218 116.355C371.092 129.675 361.668 140.733 356.39 152.923C351.112 165.112 352.62 183.208 365.312 186.852C375.239 189.742 384.664 181.7 392.832 175.291C416.583 156.441 447.119 146.514 477.404 147.771C507.689 149.027 537.345 161.594 559.337 182.454C571.4 193.889 581.705 208.969 581.705 225.556C581.705 242.018 571.903 256.847 562.478 270.293C541.995 299.698 518.37 331.239 483.561 339.659C465.34 344.057 445.611 341.418 428.018 347.953C391.827 361.273 375.491 408.271 338.294 418.576C321.832 423.1 304.491 419.455 287.777 415.685C252.34 407.769 216.777 399.852 181.34 392.061C167.266 388.919 153.066 385.778 140.625 378.363C128.31 370.949 118.006 358.634 117 344.308" fill="#F4F6F9"/>
<path d="M528.549 216.006L527.921 212.739C536.089 196.026 537.471 175.668 531.565 158.075C530.936 156.065 528.423 152.546 525.156 149.028C525.282 148.902 525.282 148.902 525.407 148.776C526.664 150.912 528.549 152.672 530.811 153.551C533.952 154.682 537.848 153.803 539.733 151.038C540.612 149.656 540.99 147.897 541.241 146.263C542.121 138.597 539.859 130.806 536.089 124.02C532.319 117.235 527.292 111.328 522.266 105.422C521.009 103.914 519.627 102.406 517.742 101.904C516.485 101.527 515.103 101.904 513.972 102.532C513.092 101.652 512.087 100.898 510.956 100.396C508.317 99.0134 504.673 99.1391 502.662 101.401C501.531 102.658 501.406 104.543 501.908 106.051C500.777 104.92 499.52 103.789 498.264 102.909C496.882 101.904 495.374 101.024 493.74 100.773C490.473 100.27 487.08 102.658 485.823 105.674C484.818 108.313 485.069 111.203 485.949 113.842C470.367 103.412 455.538 114.721 450.135 131.937C446.742 142.744 447.496 154.431 448.878 165.741C450.261 177.051 452.145 188.36 450.889 199.67L447.747 198.288C431.788 200.424 412.059 259.109 398.487 267.905C384.915 276.828 375.239 294.169 379.889 310.631C381.271 315.783 384.036 320.81 383.533 326.088C382.905 332.245 378.004 336.518 374.234 341.167C369.71 346.822 366.694 353.734 365.312 361.022C360.662 353.231 357.395 344.183 353.499 335.764C340.179 307.866 315.675 286.001 287.652 276.702L287.149 276.074C279.609 254.711 257.492 193.01 257.492 193.01C271.692 185.344 300.343 169.385 300.343 169.385C276.719 151.792 250.706 131.183 224.066 111.203C215.269 104.543 204.462 99.3903 193.404 99.2646L162.742 112.585L161.862 164.484C152.563 162.097 141.756 166.243 136.855 174.537C131.452 183.711 133.839 196.78 142.133 203.44C147.411 207.587 154.699 208.844 161.234 207.461V208.09C156.961 236.741 152.563 260.743 147.16 286.001L143.264 283.613C57.4356 335.261 -0.621005 434.158 2.26926 534.689C2.77192 552.911 8.92937 571.76 22.6267 583.698C39.717 598.652 65.1011 600.286 87.0923 595.008C97.0197 592.62 106.822 588.976 117 589.227C126.551 589.479 135.724 592.997 145.149 594.128C154.699 595.259 165.632 592.872 170.407 584.578L172.921 583.196C197.048 576.284 221.427 569.373 242.915 556.555C264.404 543.737 283.128 524.134 289.285 499.881C289.788 498.121 288.908 495.482 287.652 495.105C291.296 493.974 293.809 490.079 293.181 486.309C293.181 486.309 337.163 463.312 363.552 482.162C389.942 501.012 452.774 523.631 489.97 481.911C506.055 463.815 518.747 441.824 521.009 417.696C523.397 392.187 514.852 366.3 518.622 340.916C520.758 326.213 526.915 312.39 532.696 298.567C538.476 284.744 543.88 270.67 544.508 255.716C545.388 241.013 540.361 225.18 528.549 216.006Z" fill="white"/>
<path d="M414.698 2.88036C413.692 0.744076 416.96 -1.26654 417.965 0.995403C425.756 18.2113 433.422 35.3016 441.213 52.5175C442.218 54.6538 438.951 56.6644 437.945 54.4025C430.154 37.1865 422.363 20.0963 414.698 2.88036ZM411.556 53.5229C418.719 59.6804 425.756 65.8379 432.919 71.9954C434.804 73.629 437.443 70.8644 435.558 69.3565C428.395 63.199 421.358 57.0413 414.195 50.8838C412.436 49.3759 409.797 52.0149 411.556 53.5229ZM472.126 8.78649C472.126 21.1015 472.126 33.4166 472.126 45.7316C472.126 48.1193 475.896 48.1193 475.896 45.7316C475.896 33.4166 475.896 21.1015 475.896 8.78649C475.896 6.39888 472.126 6.39888 472.126 8.78649Z" fill="black"/>
<path d="M194.535 487.943C220.547 485.178 245.429 472.989 263.524 454.139C265.535 452.129 267.42 449.867 269.682 448.108C261.137 427.624 252.717 407.016 244.172 386.532C241.784 380.626 238.517 374.092 232.234 372.709C228.338 371.83 224.317 373.463 220.673 374.971C205.97 381.003 191.393 387.161 176.691 393.192C171.036 395.58 164.753 398.596 163.245 404.502C162.239 408.523 163.747 412.67 165.255 416.566C174.68 440.568 184.356 464.318 194.535 487.943Z" fill="#9ED5F0"/>
<path d="M236.13 389.171C236.13 388.166 235.878 387.161 235.376 386.156C235.124 384.522 234.245 382.888 232.611 382.134C229.846 380.752 226.705 381.883 225.071 384.396C224.694 384.899 224.443 385.527 224.192 386.156C223.438 387.663 223.312 389.548 223.94 391.056C224.443 392.313 225.322 393.57 226.579 394.198C227.459 394.575 228.339 394.826 229.218 394.701C229.972 394.826 230.852 394.826 231.606 394.701C233.993 394.198 235.878 391.81 236.13 389.171ZM229.595 387.412C229.721 387.412 229.721 387.412 229.595 387.412C229.721 387.538 229.595 387.412 229.595 387.412ZM242.287 408.649C242.161 409.529 241.659 410.409 241.03 411.037C240.276 411.791 239.271 412.168 238.14 412.294C237.26 412.294 236.255 412.042 235.501 411.665C235.124 411.414 234.747 411.163 234.496 410.786C234.119 410.283 233.868 409.906 233.616 409.278C233.239 408.398 233.239 407.393 233.616 406.513C233.993 405.508 234.622 404.628 235.627 404C236.506 403.371 237.763 403.246 238.768 403.497C238.894 403.497 239.02 403.623 239.145 403.623C239.271 403.623 239.397 403.623 239.523 403.623C240.528 403.874 241.407 404.502 242.036 405.382C242.287 406.513 242.413 407.644 242.287 408.649Z" fill="black"/>
<path d="M147.662 511.693C147.913 509.305 151.683 509.305 151.432 511.693C150.929 517.096 150.93 522.625 151.307 528.029C152.814 547.13 160.229 565.854 172.292 580.682C173.8 582.567 171.161 585.206 169.653 583.321C166.009 578.923 162.867 574.147 159.977 569.246C150.301 551.779 145.903 531.547 147.662 511.693ZM206.473 148.022C207.227 147.142 207.101 146.137 206.473 145.383C204.211 142.493 201.823 139.602 199.561 136.712C198.933 135.958 197.551 135.958 196.922 136.712C196.169 137.592 196.294 138.597 196.922 139.351C199.184 142.241 201.572 145.132 203.834 148.022C204.462 148.776 205.844 148.776 206.473 148.022ZM209.363 131.183C212.63 134.45 215.269 138.346 217.154 142.493C217.531 143.498 217.405 144.503 216.526 145.131C215.772 145.634 214.39 145.383 213.887 144.503C213.007 142.493 212.002 140.608 210.745 138.723C210.117 137.717 209.614 137.089 208.986 136.335C208.232 135.455 207.478 134.702 206.724 133.948C205.97 133.194 206.096 132.062 206.724 131.308C207.352 130.429 208.735 130.429 209.363 131.183ZM187.372 127.916C187.372 127.916 187.498 127.79 187.372 127.916V127.916ZM188.629 123.769C189.383 124.523 189.257 125.779 188.629 126.408C188.377 126.659 188.126 127.036 187.874 127.287C187.749 127.413 187.623 127.539 187.498 127.664C187.498 127.79 187.372 127.79 187.372 127.916C186.869 128.544 186.492 129.172 186.115 129.801C185.864 130.178 185.738 130.429 185.613 130.806C185.487 130.932 185.487 131.183 185.361 131.308C185.361 131.434 185.236 131.56 185.236 131.686C185.236 131.686 185.236 131.56 185.236 131.686C185.236 131.811 185.11 131.811 185.11 131.937C184.984 132.062 184.984 132.314 184.984 132.439C184.859 132.816 184.733 133.194 184.607 133.57C184.356 134.576 183.351 135.078 182.345 134.827C181.34 134.576 180.712 133.445 181.089 132.565C182.094 129.172 183.853 126.156 186.241 123.643C186.618 123.015 187.875 123.14 188.629 123.769ZM199.059 118.868C199.31 118.742 199.436 118.491 199.561 118.365H199.687C200.064 118.24 200.441 118.239 200.818 118.114C201.069 118.114 201.446 117.988 201.697 117.988C201.823 117.988 201.949 117.988 201.949 117.988C202.2 117.988 202.326 117.988 202.577 117.863C204.085 117.737 205.593 117.611 207.101 117.611C208.106 117.611 208.986 116.732 208.986 115.726C208.986 114.721 208.106 113.841 207.101 113.841C205.09 113.841 202.954 114.093 200.944 114.344C200.064 114.47 199.059 114.595 198.179 114.847C197.551 114.972 196.922 115.349 196.545 115.852C195.917 116.606 195.917 117.486 196.294 118.24C196.922 119.119 198.179 119.371 199.059 118.868ZM199.938 117.234C199.938 117.234 199.938 117.109 199.938 117.234C199.938 117.109 199.938 117.109 199.938 117.234ZM231.857 220.655C230.6 224.551 229.218 228.572 226.579 231.839C224.066 235.107 220.17 237.62 216.023 237.494C209.74 237.369 205.091 231.588 203.08 225.682C201.321 220.53 200.944 214.875 199.31 209.597C198.305 207.712 197.676 205.45 199.184 203.942C200.189 202.937 201.949 202.937 203.331 203.439C204.713 203.942 205.719 205.073 206.724 206.204C210.62 210.225 215.395 214.498 220.924 213.493C224.317 212.864 228.087 210.225 230.977 212.236C233.365 213.995 232.736 217.765 231.857 220.655ZM238.517 325.836C237.889 329.857 238.14 334.13 241.91 336.517C244.8 338.402 248.319 339.156 251.335 341.041C254.476 342.926 256.487 345.817 256.738 349.461C256.99 353.105 255.607 356.749 254.728 360.268C253.848 363.912 253.974 367.179 257.241 369.441C260.634 371.829 263.901 373.588 266.038 377.232C270.059 384.144 269.305 392.94 268.299 400.606C268.174 401.611 267.545 402.491 266.414 402.491C265.535 402.491 264.404 401.611 264.529 400.606C265.535 392.94 266.791 382.762 260.885 376.73C258.246 373.965 254.225 372.834 252.089 369.567C250.078 366.677 250.204 363.032 250.958 359.765C251.712 356.498 253.094 353.231 252.968 349.838C252.843 346.57 250.455 344.685 247.69 343.429C244.675 342.047 241.533 341.167 238.894 339.031C235.752 336.517 234.496 332.747 234.496 328.852C234.621 324.328 236.506 319.804 235.752 315.28C235.25 312.39 232.108 308.243 228.841 310.254C226.83 311.51 224.945 308.243 226.956 306.986C230.852 304.599 235.753 306.861 238.014 310.379C241.03 314.903 239.271 320.809 238.517 325.836ZM244.926 327.093C245.429 328.349 246.434 329.355 247.565 329.983C248.696 330.611 250.078 330.863 251.335 330.611C252.591 330.36 253.597 329.606 254.351 328.475C255.733 326.59 255.607 323.951 254.476 321.94C253.974 320.935 253.094 320.055 252.215 319.553C250.958 318.924 249.575 318.799 248.193 319.05C246.811 319.301 245.554 320.055 244.675 321.061C244.172 321.563 243.795 322.066 243.418 322.694C243.041 323.448 242.79 324.202 242.79 325.082C242.79 325.585 243.041 326.087 243.292 326.464C243.669 326.841 244.172 327.093 244.675 326.967C244.8 327.093 244.8 327.093 244.926 327.093ZM248.445 325.836L248.57 325.962L248.445 325.836ZM250.33 322.82C250.33 322.82 250.204 322.82 250.33 322.82C250.204 322.82 250.33 322.82 250.33 322.82ZM248.319 323.071C248.444 323.071 248.444 322.946 248.57 322.946C248.696 322.82 248.947 322.82 249.198 322.82H249.324C249.324 322.82 249.324 322.82 249.45 322.82C249.575 322.82 249.827 322.82 249.953 322.82C250.078 322.82 250.078 322.82 250.204 322.82C250.329 322.82 250.329 322.82 250.455 322.946C250.581 323.071 250.706 323.071 250.832 323.197L250.958 323.323L251.083 323.448C251.209 323.574 251.209 323.7 251.335 323.825C251.335 323.825 251.46 323.951 251.46 324.077C251.46 324.202 251.586 324.328 251.586 324.579V324.705C251.586 324.831 251.586 325.082 251.586 325.208C251.586 325.333 251.586 325.333 251.586 325.459V325.585C251.586 325.71 251.586 325.71 251.586 325.836C251.586 325.962 251.586 325.962 251.46 326.087C251.46 326.213 251.335 326.213 251.335 326.339C251.335 326.339 251.335 326.339 251.209 326.464C251.209 326.464 251.209 326.59 251.083 326.59V326.464C251.083 326.59 250.958 326.59 250.958 326.59C250.958 326.59 250.832 326.59 250.832 326.716C250.832 326.716 250.706 326.716 250.706 326.841C250.581 326.841 250.581 326.841 250.455 326.967H250.33H250.204C250.078 326.967 249.827 326.841 249.701 326.841C249.576 326.841 249.575 326.716 249.45 326.716C249.324 326.716 249.324 326.59 249.198 326.59C249.198 326.59 249.199 326.59 249.073 326.59L248.947 326.464C248.821 326.339 248.822 326.339 248.696 326.213C248.696 326.213 248.696 326.213 248.57 326.087L248.445 325.962C248.445 325.836 248.319 325.836 248.319 325.71C248.319 325.585 248.193 325.333 248.193 325.333V325.208C248.193 325.082 248.193 324.956 248.319 324.831C248.444 324.328 248.319 323.825 248.068 323.323C248.193 323.197 248.319 323.071 248.319 323.071ZM251.209 326.464C251.209 326.339 251.335 326.339 251.335 326.339C251.335 326.339 251.335 326.339 251.209 326.464C251.209 326.339 251.335 326.339 251.209 326.464ZM263.524 364.666C263.524 364.666 263.524 364.666 263.65 364.792C263.65 364.666 263.65 364.666 263.524 364.666C263.65 364.666 263.65 364.666 263.524 364.666ZM263.65 362.027C263.65 362.027 263.524 362.027 263.524 362.153C263.524 362.153 263.65 362.153 263.65 362.027ZM263.021 362.907C263.021 362.781 263.022 362.781 263.147 362.781C263.022 362.655 263.021 362.781 263.021 362.907ZM262.644 368.436C263.775 368.939 265.158 369.19 266.414 368.813C267.545 368.562 268.551 367.808 269.305 366.802C270.561 365.043 270.687 362.655 269.807 360.77C268.928 358.76 266.666 357.629 264.655 357.88C263.273 358.006 262.142 358.508 261.136 359.388C260.257 360.142 259.628 361.273 259.503 362.404C259.503 362.53 259.503 362.655 259.503 362.781V362.907C259 365.294 260.508 367.556 262.644 368.436ZM265.912 361.901C265.66 361.776 265.786 361.776 265.912 361.901V361.901ZM265.66 361.776C265.535 361.65 265.409 361.65 265.66 361.776V361.776ZM263.021 362.907C263.021 362.781 263.147 362.655 263.147 362.781L263.273 362.655C263.398 362.53 263.524 362.404 263.65 362.278C263.65 362.278 263.524 362.278 263.524 362.404C263.524 362.404 263.65 362.404 263.65 362.278C263.775 362.153 263.901 362.153 263.776 362.153C263.901 362.027 264.027 362.027 264.278 361.901C264.404 361.901 264.404 361.901 264.529 361.776C264.655 361.776 264.655 361.776 264.781 361.776C265.032 361.776 265.284 361.776 265.409 361.776H265.535H265.66C265.786 361.776 265.786 361.901 265.912 361.901L266.038 362.027C265.912 361.901 266.038 362.027 266.038 362.027L266.163 362.153C266.037 362.027 266.038 362.027 266.038 362.027C266.038 362.153 266.163 362.153 266.163 362.278C266.163 362.404 266.289 362.53 266.289 362.655C266.289 362.781 266.289 362.781 266.289 362.907C266.289 363.158 266.289 363.409 266.289 363.535C266.289 363.786 266.163 363.912 266.163 364.163C266.163 364.289 266.038 364.415 266.038 364.415C266.038 364.54 265.912 364.54 265.912 364.54C265.786 364.666 265.786 364.792 265.66 364.792C265.66 364.792 265.786 364.792 265.786 364.666C265.786 364.666 265.66 364.666 265.66 364.792C265.535 364.917 265.409 364.917 265.535 364.792C265.535 364.792 265.409 364.792 265.409 364.917C265.284 364.917 265.158 364.917 265.158 365.043C265.032 365.043 264.906 365.043 264.655 365.043C264.529 365.043 264.404 365.043 264.278 364.917H264.153C264.027 364.792 263.775 364.666 263.65 364.666C263.65 364.666 263.65 364.666 263.776 364.792L263.65 364.666C263.524 364.666 263.524 364.54 263.524 364.54C263.399 364.415 263.273 364.289 263.147 364.163C263.147 364.038 263.021 364.038 263.021 363.912C263.021 363.912 263.022 363.786 262.896 363.786C262.896 363.661 262.896 363.535 262.77 363.409C262.77 363.284 262.77 363.158 262.77 363.032C262.896 363.032 262.896 363.032 263.021 362.907C262.896 362.907 263.021 362.907 263.021 362.907C263.021 362.907 262.896 362.907 263.021 362.907ZM265.66 365.043C265.66 365.043 265.786 365.043 265.66 365.043C265.786 364.917 265.786 364.917 265.66 365.043C265.66 365.043 265.786 365.043 265.66 365.043ZM266.163 362.153C266.163 362.153 266.037 362.027 266.163 362.153C266.037 362.027 266.037 362.027 266.163 362.153ZM292.552 480.277C292.301 480.151 292.175 479.9 291.924 479.774C294.563 476.758 295.945 472.485 295.191 468.464C294.312 463.94 290.416 460.422 285.892 459.542C287.4 456.526 288.531 453.259 287.777 449.992C287.023 446.473 284.133 443.96 280.74 443.206C272.195 441.321 266.54 448.358 261.136 453.762C249.45 465.574 235.124 474.622 219.542 480.151C211.122 483.167 202.452 485.052 193.655 485.931C190.388 477.512 187.246 468.967 183.979 460.547C183.476 459.416 181.843 458.537 180.837 459.668C175.057 466.956 177.696 476.255 179.455 484.549C180.335 488.696 181.34 493.22 180.586 497.618C179.707 502.519 176.314 506.163 171.79 508.174C165.255 511.064 157.841 510.059 151.055 509.179C150.301 509.054 149.673 509.431 149.422 510.059C141.002 497.241 129.441 486.308 115.115 480.402C108.958 477.889 102.172 476.381 95.5117 476.13C96.14 470.6 95.7631 464.946 95.0091 459.542C93.6268 449.363 90.9879 439.059 91.8675 428.629C92.6215 420.586 95.8889 412.167 102.675 407.392C104.685 406.009 102.8 402.742 100.79 404.124C88.0977 412.795 86.8409 429.383 88.6002 443.331C89.9825 453.51 92.9984 465.323 91.7417 476.13C84.0763 476.381 76.4108 478.14 69.4993 481.785C65.9808 483.544 62.5878 485.806 60.3258 489.073C58.3152 491.963 57.5615 495.859 59.9491 498.875C62.211 501.765 66.4835 502.77 69.8764 503.022C73.2693 503.147 76.6623 502.268 79.6782 500.886C86.4641 497.744 91.2391 491.586 93.6267 484.549C94.1294 483.041 94.5065 481.533 94.7579 480.025C99.6587 480.151 104.685 481.031 109.335 482.413C124.917 487.314 137.609 498.875 146.28 512.321C147.16 513.703 148.919 513.326 149.547 512.321C149.798 512.698 150.301 512.949 150.804 513.075C157.213 513.829 163.998 514.583 170.282 512.698C175.434 511.19 180.209 507.923 182.597 502.896C186.618 494.225 182.722 484.675 181.089 476.004C180.46 472.611 180.209 468.841 181.466 465.448C184.356 473.114 187.246 480.779 190.262 488.445C190.514 489.199 191.267 489.953 192.021 489.827C207.604 488.445 222.683 483.921 236.381 476.507C243.167 472.862 249.701 468.464 255.607 463.438C258.623 460.924 261.388 458.285 264.153 455.521C266.791 452.756 269.43 449.615 272.823 447.73C275.713 446.222 279.861 445.719 282.374 448.232C284.51 450.369 284.007 453.385 282.876 456.149C282.499 456.4 282.248 456.652 282.122 457.154C281.745 458.034 281.494 458.914 281.117 459.668C280.991 459.793 280.866 460.045 280.74 460.17C280.614 460.296 280.615 460.547 280.489 460.799C271.692 478.894 250.958 487.314 233.239 494.351C230.977 495.231 231.983 498.875 234.245 497.995C253.094 490.581 274.08 481.785 283.63 463.061C287.149 463.186 290.542 465.7 291.17 469.344C291.422 470.726 291.296 472.234 290.793 473.616C290.165 473.491 289.411 473.742 289.034 474.496C287.777 476.381 286.395 478.14 285.013 480.025C284.887 480.151 284.761 480.277 284.761 480.402C275.965 491.461 265.032 500.76 252.717 507.671C250.581 508.802 252.466 512.07 254.602 510.939C267.294 503.901 278.353 494.351 287.4 483.041C288.28 482.79 289.16 482.539 289.914 483.293C290.793 484.172 291.296 485.932 291.296 487.063C291.547 489.953 289.662 492.466 287.023 493.346C286.521 493.346 286.018 493.471 285.515 493.848C284.51 494.477 284.384 495.482 284.761 496.236C278.604 506.163 269.933 514.331 259.754 519.986C257.618 521.117 259.503 524.385 261.639 523.254C272.069 517.473 280.866 509.179 287.275 499.252C287.149 499.88 287.023 500.508 286.772 501.137C286.144 503.399 285.39 505.535 284.51 507.797C282.876 512.07 280.74 516.091 278.352 519.986C273.577 527.903 267.42 534.815 260.634 541.098C245.303 554.921 226.453 563.969 207.227 570.754C195.666 574.901 183.853 578.169 172.041 581.562C171.161 581.813 170.784 582.441 170.784 583.069C170.03 582.692 169.025 582.818 168.397 583.824C164.627 590.232 156.836 592.494 149.799 592.746C140.374 592.997 131.326 589.353 122.027 588.096C112.099 586.714 102.549 589.101 92.9984 591.74C84.5789 594.002 76.2852 595.761 67.6144 596.138C51.5294 596.767 34.565 592.997 22.5012 581.813C10.3119 570.503 4.7826 553.539 3.90295 537.328C3.02331 521.369 4.27988 505.158 6.66749 489.45C9.0551 473.616 12.9508 457.908 18.103 442.703C23.2552 427.498 29.6641 412.795 37.3296 398.595C44.9951 384.395 53.7914 370.698 63.5932 357.88C73.395 345.062 84.3276 332.999 96.14 321.94C107.827 311.008 120.393 300.954 133.839 292.032C137.106 289.896 140.499 287.76 143.892 285.624C146.028 284.367 144.018 281.1 142.007 282.356C127.807 290.901 114.487 300.703 102.046 311.51C89.48 322.317 77.9189 334.255 67.3631 347.073C56.8074 359.891 47.2568 373.463 38.963 387.788C30.6692 402.114 23.5065 417.068 17.726 432.524C11.9454 447.981 7.42141 464.066 4.40549 480.277C1.38956 496.487 -0.118407 512.949 0.00725699 529.537C0.132921 546.376 3.2747 563.592 13.7048 577.415C24.0092 591.112 39.8426 598.149 56.5559 599.657C64.9754 600.411 73.5206 599.908 81.8144 598.275C91.4905 596.516 100.79 592.746 110.591 591.74C115.744 591.112 120.77 591.489 125.797 592.494C130.823 593.5 135.724 594.882 140.751 595.636C148.542 597.018 156.961 596.892 164.124 593.123C167.391 591.363 170.03 588.85 171.915 585.708C172.041 585.457 172.041 585.332 172.166 585.08C172.543 585.206 172.921 585.206 173.298 585.08C196.043 578.546 219.039 572.011 239.774 560.45C257.492 550.648 273.577 536.7 283.505 518.855C286.269 513.954 288.531 508.802 290.165 503.399C290.919 501.011 291.673 498.623 290.793 496.11C290.793 495.985 290.667 495.859 290.667 495.733C293.809 493.597 295.694 489.827 295.066 486.057C295.066 484.047 294.312 481.785 292.552 480.277ZM86.841 490.455C83.1967 495.608 76.9136 499.629 70.5047 499.503C67.8658 499.503 63.0906 498.623 62.3366 495.482C61.7083 492.215 65.3526 489.199 67.7402 487.565C74.7773 482.915 82.9454 480.528 91.2392 480.151C90.4852 483.795 89.1029 487.188 86.841 490.455ZM172.041 185.218C171.538 185.972 170.282 186.475 169.402 185.847C163.496 181.448 155.83 179.94 148.667 181.825C146.28 182.454 145.274 178.809 147.662 178.181C155.705 176.045 164.627 177.678 171.287 182.579C172.167 183.208 172.544 184.213 172.041 185.218ZM145.149 294.546C144.018 292.409 147.285 290.524 148.416 292.661C150.678 296.933 153.568 300.703 157.087 303.97C170.659 316.411 191.016 318.045 206.599 308.243C208.609 306.986 210.494 310.254 208.483 311.51C203.708 314.526 198.305 316.662 192.65 317.668C183.099 319.427 173.172 318.045 164.375 313.521C156.207 309.374 149.421 302.714 145.149 294.546ZM297.579 285.624C295.317 289.519 292.427 293.163 289.16 296.179C277.473 306.861 260.382 311.259 245.051 306.735C242.664 306.107 243.669 302.463 246.057 303.091C250.078 304.222 254.099 304.85 258.246 304.724C272.823 304.347 287.023 296.431 294.312 283.739C295.443 281.602 298.71 283.487 297.579 285.624ZM546.393 247.673C545.388 237.62 541.995 227.693 535.335 219.901C533.701 218.016 531.942 216.257 529.931 214.749C529.931 214.749 529.931 214.749 529.805 214.749C530.308 214.121 530.183 213.493 529.931 212.864C537.471 196.654 539.105 177.93 534.329 160.714C533.827 159.08 533.324 157.447 532.57 155.939C533.827 156.064 535.083 156.064 536.34 155.687C543.377 153.928 543.88 145.76 543.251 139.854C542.497 132.44 539.482 125.528 535.46 119.37C533.45 116.355 531.313 113.339 528.926 110.574C526.664 107.809 524.528 104.793 522.014 102.406C519.878 100.395 517.113 99.5156 514.349 100.395C513.595 99.7669 512.966 99.2643 512.087 98.8873C508.443 97.0024 502.788 97.128 500.526 101.149C500.4 101.401 500.274 101.652 500.149 102.029C497.635 100.018 494.745 98.5103 491.478 99.013C488.211 99.5156 485.446 102.029 484.189 105.045C483.436 106.804 483.31 108.563 483.436 110.448C479.163 108.438 474.513 107.432 469.487 108.563C461.067 110.448 454.784 117.611 451.14 125.025C446.113 135.33 445.611 146.891 446.49 158.075C447.496 170.893 450.26 183.71 449.506 196.528C449.381 196.654 449.255 196.779 449.129 196.905C448.752 196.528 448.124 196.277 447.496 196.402C443.977 196.905 440.961 199.418 438.699 201.932C435.306 205.45 432.542 209.471 430.029 213.493C423.745 223.546 418.467 234.227 412.812 244.657C410.299 249.307 407.786 253.831 404.896 258.229C403.011 261.119 400.498 264.512 397.984 266.271C385.544 274.816 375.993 289.393 377.375 305.101C377.752 309.5 379.26 313.395 380.643 317.542C382.025 321.689 382.904 325.962 380.768 330.109C379.009 333.501 376.244 336.266 373.857 339.156C371.343 342.172 369.207 345.439 367.574 348.958C366.568 351.22 365.689 353.608 364.935 355.995C363.678 353.608 362.547 351.22 361.542 348.832C358.149 341.167 355.007 333.501 350.861 326.339C346.839 319.553 342.064 313.018 336.786 307.112C326.23 295.425 313.287 285.624 298.961 279.089C296.071 277.707 293.055 276.576 289.914 275.445C289.788 274.691 289.285 274.062 288.531 273.811C284.384 261.999 280.112 250.186 275.839 238.374C271.315 225.808 266.791 213.116 262.268 200.549C261.514 198.413 260.759 196.151 259.88 194.015C272.446 187.103 285.013 180.192 297.579 173.155C298.836 172.401 300.092 171.772 301.349 171.018C302.731 170.264 302.48 168.505 301.349 167.751C287.777 157.572 274.205 147.142 260.759 136.838C253.597 131.309 246.559 125.905 239.397 120.501C232.611 115.349 225.951 109.694 218.537 105.296C213.51 102.28 207.981 99.8926 202.2 98.6359C205.342 97.128 208.609 94.9918 211.625 91.9758C219.291 84.3104 223.06 59.4289 207.352 46.8625C194.409 80.6661 170.784 64.4554 145.023 85.9439C125.043 102.532 136.981 144.629 152.186 162.599C145.275 163.855 138.992 167.877 135.347 173.909C129.441 183.962 131.954 198.036 141.128 205.199C145.4 208.592 150.678 210.225 156.082 210.225C157.087 210.225 158.218 210.1 159.223 209.974C156.333 229.703 152.814 249.432 148.919 269.036C147.788 274.565 146.657 280.094 145.526 285.749C145.149 287.257 146.657 288.263 147.788 288.011C165.129 295.3 183.728 299.321 202.577 299.824C221.804 300.452 241.156 297.562 259.377 291.278C268.928 288.011 278.227 283.613 286.898 278.461C287.023 278.461 287.023 278.586 287.149 278.586C316.051 288.263 339.802 310.631 352.62 338.151C356.013 345.44 358.777 353.105 362.673 360.142C362.924 360.519 363.176 361.022 363.427 361.399C361.416 372.709 362.924 384.772 368.579 394.7C372.223 401.109 379.386 407.392 387.177 404.376C394.968 401.485 394.968 392.186 391.701 385.777C387.931 378.238 379.637 374.845 373.857 369.064C371.218 366.551 369.082 363.661 367.197 360.519C367.699 358.257 368.328 355.869 369.082 353.733C370.338 350.34 371.972 347.199 374.108 344.308C376.245 341.167 379.009 338.528 381.271 335.512C383.533 332.622 385.167 329.229 385.418 325.585C385.669 321.186 383.91 316.914 382.528 312.767C380.014 305.478 380.14 298.064 382.653 290.776C385.166 283.739 389.69 277.455 395.22 272.68C397.23 271.047 399.492 269.664 401.377 268.031C402.634 266.9 403.765 265.517 404.896 264.135C407.786 260.491 410.174 256.47 412.436 252.574C418.091 242.772 422.991 232.719 428.646 222.917C431.285 218.393 433.924 213.744 437.066 209.471C439.202 206.455 441.841 203.314 444.857 201.429C446.113 200.675 446.867 200.298 448.375 200.047C448.627 200.047 448.878 199.921 449.129 199.795C449.129 200.549 449.506 201.052 450.135 201.303C454.91 211.608 463.329 220.278 473.634 225.179C485.195 230.709 498.766 231.211 510.83 226.813C516.736 224.677 522.14 221.409 526.915 217.262L527.041 217.388C534.958 223.546 539.607 232.593 541.618 242.27C543.88 253.328 542.372 264.763 539.23 275.57C532.444 298.944 518.747 320.181 516.36 344.811C513.846 369.693 521.889 394.448 519.124 419.33C516.736 441.07 506.055 461.427 491.604 477.638C476.524 494.602 457.423 507.546 437.317 517.85C434.804 519.107 432.29 520.363 429.777 521.494C427.641 522.5 429.526 525.767 431.662 524.762C452.522 514.834 472.503 502.519 488.839 486.057C504.547 470.224 516.737 450.369 521.386 428.503C523.899 416.439 523.774 404.25 522.643 392.061C521.512 379.369 519.501 366.677 519.627 353.985C519.752 341.293 522.643 329.229 527.166 317.291C531.565 305.604 536.968 294.294 540.989 282.356C545.011 271.298 547.524 259.36 546.393 247.673ZM234.747 293.792C216.275 297.059 197.174 296.933 178.827 293.415C168.774 291.53 158.972 288.514 149.547 284.618C153.568 265.517 157.213 246.416 160.354 227.19C161.36 221.158 162.239 215.126 163.119 209.22C166.763 208.215 170.156 206.33 172.921 203.691C173.675 202.937 173.675 201.806 172.921 201.052C172.167 200.298 171.036 200.298 170.282 201.052C163.37 207.712 151.055 208.34 143.39 202.308C135.85 196.277 133.588 184.213 138.489 175.919C143.39 167.625 155.076 163.73 163.998 167.5C165.004 167.877 166.009 167.5 166.512 166.494C166.889 165.489 166.512 164.484 165.507 163.981C164.753 163.604 163.873 163.353 163.119 163.101L167.392 162.096C179.832 149.278 173.674 135.33 174.68 123.643C176.188 106.301 184.984 104.794 195.163 101.401C211.122 102.406 223.689 113.339 235.878 122.638C249.701 133.194 263.398 143.749 277.096 154.305C283.63 159.332 290.165 164.232 296.825 169.259C287.149 174.663 277.347 180.066 267.671 185.47C263.901 187.48 260.257 189.616 256.487 191.627C255.859 192.004 255.356 193.009 255.607 193.763C258.246 201.178 260.885 208.466 263.524 215.88C268.551 229.829 273.577 243.903 278.604 257.978C280.74 263.884 282.751 269.664 284.887 275.57C269.556 284.493 252.466 290.65 234.747 293.792ZM369.207 369.441C371.846 372.583 374.988 375.096 378.255 377.484C384.035 381.756 390.821 386.908 390.319 394.951C390.067 398.344 387.806 400.983 384.413 401.36C380.768 401.737 377.501 399.852 375.113 397.339C370.087 391.935 367.574 383.641 366.694 376.478C366.317 373.086 366.317 369.692 366.568 366.3C367.448 367.305 368.328 368.436 369.207 369.441ZM521.135 106.93C524.905 111.328 528.675 115.726 531.816 120.627C534.958 125.277 537.471 130.303 538.728 135.832C539.356 138.471 539.733 141.236 539.607 144.001C539.482 146.388 539.356 149.53 537.345 151.163C533.952 153.928 530.057 151.917 527.669 148.901C528.423 147.393 528.8 145.76 529.177 144.252C529.68 141.864 530.057 139.225 530.057 136.838C530.182 131.811 529.177 126.785 527.543 122.009C525.91 117.486 523.648 113.087 521.135 109.066C520.129 107.432 518.998 105.799 517.867 104.291C519.25 104.542 520.255 105.799 521.135 106.93ZM505.301 101.903C508.317 100.27 511.584 102.532 513.595 104.793C516.108 107.558 518.119 110.825 519.878 114.093C521.763 117.486 523.397 121.004 524.528 124.648C525.659 128.418 526.412 132.314 526.287 136.335C526.287 138.346 526.161 140.356 525.659 142.241C525.407 143.247 525.156 144.252 524.905 145.257C524.653 146.011 524.402 147.519 523.648 147.896C522.517 148.273 521.135 146.263 520.758 145.509C519.627 143.749 518.747 141.864 517.867 139.979C517.49 139.351 517.239 138.723 516.988 138.094C516.485 134.701 515.983 131.183 515.103 127.79C513.595 121.13 511.081 114.595 507.06 109.066C505.804 107.307 504.422 105.799 502.914 104.291C503.668 103.662 505.05 102.029 505.301 101.903ZM492.609 102.657C494.997 102.406 497.384 104.291 499.018 105.799C500.777 107.307 502.411 109.066 503.793 111.077C510.328 120.124 512.213 131.309 513.595 142.116C513.972 144.629 515.229 148.901 512.59 150.535C510.956 151.54 509.197 151.163 507.689 150.032C507.814 150.032 507.814 149.907 507.94 149.907C510.453 147.77 512.715 144.126 511.961 140.733C511.333 137.969 508.82 136.084 506.306 134.953C503.29 133.57 500.275 132.942 497.133 132.565C496.379 125.905 493.363 119.873 488.588 115.349C488.588 115.098 488.462 114.847 488.336 114.595C486.577 110.448 486.828 103.286 492.609 102.657ZM452.145 133.068C454.407 125.528 458.805 117.863 465.968 113.967C469.11 112.208 472.754 111.454 476.273 111.956C478.786 112.333 481.048 113.213 483.184 114.344C483.184 114.972 483.561 115.726 484.064 116.103C489.091 119.999 492.483 126.031 493.363 132.314C491.729 132.314 490.096 132.314 488.462 132.439C483.938 132.691 479.54 133.068 475.268 134.073C472.629 131.434 470.367 128.418 468.859 124.9C468.482 124.02 467.099 123.769 466.22 124.271C465.214 124.774 465.089 125.905 465.591 126.91C466.974 129.926 468.859 132.817 471.121 135.204C470.367 135.456 469.613 135.707 468.859 135.958C460.69 139.1 454.659 145.508 449.758 152.671C449.758 146.011 450.26 139.477 452.145 133.068ZM526.287 211.859C526.035 212.236 526.036 212.739 526.161 213.116C517.868 221.284 506.432 225.933 494.745 226.059C483.059 226.185 471.874 221.409 463.455 213.367C459.057 209.22 455.538 204.068 453.276 198.539C454.533 184.464 451.014 170.264 450.135 156.064C450.889 156.441 452.02 156.441 452.648 155.436C456.418 149.655 460.942 144.252 467.099 140.985C472.377 138.094 478.786 136.838 484.818 136.335C489.467 135.958 494.494 135.581 499.144 136.461C501.908 136.963 505.05 137.717 507.186 139.602C509.197 141.236 508.568 143.624 507.06 145.509C506.432 146.263 505.804 146.765 505.175 147.393C504.17 147.142 503.039 147.77 502.788 148.65C500.903 149.404 498.767 149.781 496.63 149.907C492.106 150.284 487.457 150.158 482.933 150.284C480.922 150.284 480.545 152.797 481.927 153.802C485.823 156.567 487.331 161.468 487.331 165.992C487.331 171.898 484.692 177.427 482.43 182.579C481.425 184.716 484.692 186.726 485.697 184.464C488.462 178.307 491.352 171.898 491.101 164.986C490.975 160.965 489.719 157.07 487.331 153.928C490.598 153.928 493.866 153.802 497.133 153.551C499.646 153.3 502.159 152.797 504.547 151.917C506.181 153.551 508.317 154.682 510.83 154.682C513.72 154.682 516.611 152.923 517.616 150.158C517.867 149.404 517.993 148.65 518.119 147.771C519.752 150.032 522.391 152.169 524.905 151.415C526.036 152.671 527.166 154.054 528.172 155.562C529.428 157.447 529.805 158.452 530.434 160.588C532.821 168.505 533.701 176.799 533.198 184.967C532.696 194.266 530.308 203.44 526.287 211.859Z" fill="black"/>
<path d="M438.951 123.392C435.683 117.36 430.154 112.962 423.494 111.077C409.922 107.181 395.597 115.224 391.701 128.921C389.816 135.581 390.57 142.493 393.963 148.525C397.23 154.557 402.759 158.955 409.42 160.84C411.682 161.468 414.069 161.845 416.331 161.845C426.887 161.845 436.563 155.31 440.459 145.132L455.161 145.634C458.68 141.864 462.324 139.351 463.832 138.346L442.092 137.592C442.469 132.817 441.338 127.79 438.951 123.392ZM411.43 153.677C406.781 152.295 402.885 149.279 400.623 145.006C398.236 140.733 397.733 135.833 398.99 131.057C401.251 123.015 408.666 117.611 416.582 117.611C418.216 117.611 419.85 117.863 421.484 118.24C426.133 119.622 430.028 122.638 432.29 126.91C434.301 130.429 434.93 134.45 434.427 138.346C433.673 138.974 433.17 139.98 433.17 140.985C433.17 141.488 433.296 141.864 433.422 142.367C430.029 151.289 420.604 156.316 411.43 153.677ZM584.469 146.137C584.469 148.273 582.836 149.907 580.699 149.907H565.62C564.991 149.907 564.489 149.781 563.986 149.53L542.874 148.776C542.874 148.776 543.754 144.503 543.503 141.236L552.551 141.613L552.425 126.534C552.425 124.397 554.059 122.764 556.195 122.764C558.331 122.764 559.965 124.397 559.965 126.534L560.091 141.864L565.494 142.116L565.871 114.847C565.871 112.836 567.63 111.077 569.641 111.077C571.777 111.077 573.411 112.836 573.411 114.847L573.034 142.241H580.699C582.836 142.367 584.469 144.001 584.469 146.137Z" fill="#FFE945"/>
</svg>
