<svg width="600" height="583" viewBox="0 0 600 583" fill="none" xmlns="http://www.w3.org/2000/svg">
<path d="M415.106 348.253C437.895 374.525 483.763 328.222 512.358 308.336C540.953 288.45 566.935 255.646 558.661 221.826C548.501 180.312 492.182 159.265 490.44 116.591C489.714 97.2853 500.891 79.8671 506.842 61.578C512.793 43.2888 510.906 18.4679 493.343 10.6297C488.117 8.30731 482.166 7.87183 476.36 7.43638C449.362 5.69456 422.364 3.80757 395.365 2.06575C359.803 -0.256682 323.08 -2.43399 289.55 9.46845C241.94 26.4512 208.555 68.8356 166.461 97.1401C160.655 101.059 154.414 104.833 147.447 105.123C126.545 105.994 117.4 78.2704 99.111 67.9647C81.2573 57.8041 56.7265 67.6744 46.2756 85.3829C35.8246 103.091 36.8408 125.59 43.5178 145.04C50.1948 164.491 61.8071 181.764 71.9677 199.617C82.1283 217.471 90.9824 236.921 91.4179 257.388C91.8534 279.596 82.128 300.788 71.6771 320.384C61.2262 339.979 358.497 282.934 415.106 348.253Z" fill="#16202C"/>
<path d="M569.402 541.016C561.854 521.421 576.66 497.761 567.37 479.036C559.677 463.505 539.646 459.441 526.292 448.409C517.293 440.861 511.486 430.41 504.664 420.83C497.842 411.25 488.843 402.251 477.231 400.219L477.376 399.348C468.667 384.833 456.039 371.334 449.652 359.576C444.717 350.722 484.488 330.546 484.488 330.546C455.023 301.37 387.237 247.955 348.191 233.875C346.739 213.554 344.853 163.621 344.853 163.621C360.384 159.702 391.736 151.429 391.736 151.429C373.447 128.785 353.561 102.658 332.95 76.9659C326.128 68.4019 316.983 60.8541 306.532 57.9511L273.293 51.1289L258.922 112.093C250.794 108.319 240.198 109.915 233.811 116.302C226.264 123.705 225.392 136.914 231.779 145.332C235.843 150.703 242.375 153.606 249.052 153.896L248.907 154.477C237.73 180.895 227.57 202.812 216.248 225.746L216.103 225.166C179.089 241.568 144.398 255.793 110.577 278.437C76.9022 300.935 46.5656 329.965 28.2764 366.253C28.2764 366.253 51.3555 359.286 72.8379 367.995C71.2413 369.737 69.9348 371.624 68.7736 373.656C63.6933 382.51 62.8226 393.106 59.9196 402.832C49.3235 437.958 12.7453 460.457 1.85889 495.583C1.85889 495.583 18.9867 533.904 138.156 553.064C142.075 553.644 142.075 546.241 142.946 542.613C143.672 538.984 143.091 535.065 140.333 532.307C139.172 531.146 137.721 530.42 135.979 529.839C138.737 527.227 141.35 524.469 143.382 521.421C148.172 514.889 150.639 507.05 148.172 499.938C146.575 495.438 143.237 491.664 140.333 487.745C124.222 465.827 155.284 459.441 170.961 446.232C175.315 442.458 179.089 437.668 181.702 432.733C188.669 441.152 197.523 448.119 207.394 452.909C215.957 459.586 224.957 462.924 232.215 464.231C233.376 464.666 234.682 465.102 235.989 465.392L235.408 464.666C235.843 464.666 236.424 464.811 236.859 464.811L246.149 410.379C246.149 410.379 297.968 412.557 301.742 357.109C302.323 348.109 301.452 340.707 299.565 334.32C315.677 332.288 329.756 332.868 342.385 334.175C345.578 336.642 348.917 339.981 351.675 344.19C351.82 345.351 352.4 346.513 353.271 347.529C353.561 347.819 353.706 347.964 353.997 348.254C358.787 357.835 361.109 371.334 356.61 390.494C352.69 407.331 345.578 419.814 337.595 429.249C337.305 429.104 337.159 428.814 336.869 428.669L337.159 429.83C319.306 450.586 297.533 455.376 297.533 455.376L289.404 513.292L418.009 484.262L401.026 417.056C405.381 416.476 409.735 415.315 414.09 414.008C413.654 416.766 413.654 419.669 413.945 422.572C414.815 429.249 417.718 435.636 422.218 440.571H423.379C424.105 475.262 428.024 509.953 435.282 543.774C438.185 557.418 442.249 572.079 453.571 580.207C453.571 580.207 475.054 538.548 524.405 558.87C573.757 579.191 597.561 558.87 597.561 558.87C585.369 559.886 573.612 552.193 569.402 541.016ZM385.64 357.109L382.156 343.319C382.737 343.174 383.463 342.884 384.043 342.739C390.866 341.142 399.139 342.158 403.058 347.964C403.203 348.254 403.349 348.545 403.494 348.835C397.252 351.012 391.301 353.77 385.64 357.109ZM395.51 396.3C403.639 392.961 412.203 390.203 420.476 387.881C413.654 390.348 404.22 394.993 396.381 399.928L395.51 396.3Z" fill="#111217"/>
<path d="M262.553 301.657L267.198 255.354C267.198 255.354 230.91 261.305 203.912 289.029C205.799 289.464 207.831 290.045 209.718 290.625C215.089 292.222 221.04 293.819 225.685 297.302C229.604 300.351 232.217 305.431 230.91 310.511C229.459 315.591 224.233 317.769 219.298 317.478C213.492 317.188 207.976 314.43 202.606 312.398C198.106 310.656 193.461 309.205 188.526 309.64C187.51 311.527 186.493 313.269 185.623 315.301C187.219 316.027 188.816 316.753 190.413 317.478C198.106 321.398 205.363 326.333 211.895 332.284C217.121 337.074 227.862 346.364 220.024 353.476C218.282 354.928 216.395 355.799 214.363 356.089C216.975 359.137 219.298 362.911 218.427 367.12C217.556 371.475 213.347 373.942 209.137 373.797C204.202 373.652 199.557 370.604 195.203 368.427C192.735 367.266 190.267 366.104 187.8 365.088C188.235 365.379 188.816 365.669 189.251 366.104C191.864 367.846 194.332 369.733 196.654 371.91C198.251 373.507 199.993 375.249 200.573 377.426C202.605 384.248 192.88 385.119 188.671 385.264C184.316 385.409 180.107 384.974 175.897 384.103C176.333 389.038 174.591 394.844 177.639 398.183C180.107 400.941 184.752 402.683 185.913 406.747C187.22 411.392 183.591 420.246 185.332 424.165C198.831 454.792 222.927 464.807 237.297 465.533L246.586 411.101C246.586 411.101 298.406 413.279 302.179 357.831C305.518 307.463 262.553 301.657 262.553 301.657Z" fill="#CB730B"/>
<path d="M171.252 384.104C171.252 383.668 171.252 383.233 171.107 382.652H170.962C171.107 383.088 171.107 383.523 171.252 384.104Z" fill="#DCDCDC"/>
<path d="M185.042 285.255C199.702 268.707 218.862 256.369 240.054 249.838C240.489 249.693 240.78 249.547 240.925 249.257C247.892 250.128 254.859 251.725 261.536 253.902C239.183 261.45 218.426 273.062 200.282 288.013C202.024 288.448 203.911 288.883 205.653 289.319C223.942 274.659 244.989 263.482 267.488 256.66C268.068 256.515 268.359 256.224 268.649 255.934C270.246 255.353 270.681 252.45 268.504 251.725C259.359 248.531 250.07 246.064 240.344 245.048C239.619 244.903 239.038 245.338 238.602 245.919C216.249 252.886 196.073 266.095 180.832 283.803C180.542 284.093 180.397 284.529 180.251 284.819C181.703 284.819 183.445 284.964 185.042 285.255Z" fill="#DCDCDC"/>
<path d="M244.408 418.503C238.457 416.036 234.538 410.52 231.055 405.439C229.168 402.827 227.426 400.069 225.394 397.601C223.507 395.134 221.184 392.376 218.572 390.779C215.669 389.037 211.604 388.747 209.572 392.085C207.685 395.134 208.991 399.198 209.572 402.391C211.169 409.939 213.491 417.342 216.685 424.454C220.313 432.728 225.103 440.276 230.764 447.388C232.506 449.566 235.554 446.517 233.813 444.34C224.813 433.163 218.427 420.1 214.943 406.31C214.072 403.117 213.056 399.488 213.056 396.15C212.911 391.94 216.83 394.553 218.426 396.15C222.636 400.214 225.684 405.439 229.167 410.084C232.941 415.31 237.296 420.1 243.392 422.567C244.554 423.003 245.715 422.132 246.005 421.116C246.296 419.955 245.424 418.939 244.408 418.503Z" fill="#DCDCDC"/>
<path d="M269.375 340.268C266.617 336.639 264.149 332.865 261.681 328.946C250.94 311.382 243.828 291.787 240.634 271.466C240.199 268.708 235.989 269.869 236.425 272.627C239.038 289.9 244.699 306.592 252.682 321.978C256.746 329.671 261.391 337.074 266.616 344.041C268.794 346.799 272.132 350.864 270.245 354.638C269.665 355.799 268.503 356.96 267.052 356.67C265.31 356.379 264.294 354.202 263.568 352.751C261.101 348.396 258.778 344.042 256.456 339.832C254.424 336.058 252.537 331.849 249.779 328.51C247.602 325.752 244.263 323.575 240.634 324.446C237.006 325.317 234.828 328.801 234.538 332.284C234.103 336.494 236.28 340.413 238.167 344.041C240.344 348.251 242.376 352.46 244.263 356.815C248.037 365.524 251.085 374.523 253.408 383.668C253.843 385.41 254.424 387.152 254.134 389.038C253.843 391.361 252.101 390.49 250.65 389.329C247.021 386.135 243.828 382.362 240.779 378.588C234.538 370.895 229.457 362.331 225.538 353.331C224.377 350.718 220.603 353.041 221.765 355.508C225.539 363.782 230.183 371.765 235.699 379.023C238.457 382.652 241.505 386.281 244.699 389.619C247.311 392.377 251.085 396.732 255.44 394.409C258.633 392.667 258.778 388.748 258.198 385.555C257.472 380.91 255.875 376.265 254.424 371.911C251.376 362.476 247.602 353.186 243.102 344.332C241.36 340.703 237.877 336.203 238.893 331.994C239.183 330.542 240.199 329.091 241.65 328.801C243.537 328.51 245.134 330.107 246.15 331.413C247.311 332.865 248.182 334.461 249.053 336.058C250.36 338.526 251.811 340.993 253.117 343.461C255.44 347.815 257.762 352.315 260.375 356.525C262.262 359.718 265.6 362.331 269.519 360.879C272.858 359.573 275.18 355.799 274.89 352.17C275.035 347.38 271.987 343.751 269.375 340.268Z" fill="#DCDCDC"/>
<path d="M179.671 395.425C179.236 391.796 179.091 388.023 179.236 384.394C177.784 384.249 176.333 383.958 174.881 383.668C174.736 387.152 174.881 390.635 175.171 394.119" fill="#DCDCDC"/>
<path d="M184.316 429.535C207.541 461.468 227.862 464.081 235.555 466.403C238.313 467.129 239.474 462.92 236.716 462.194C214.218 455.662 195.638 439.26 186.203 418.213" fill="#DCDCDC"/>
<path d="M349.789 341.431C350.079 339.253 350.95 337.076 352.257 335.334C356.031 330.399 362.562 328.367 368.223 326.625C371.417 325.609 374.61 324.738 377.804 324.012L363.869 269L340.645 274.806L327.871 326.915C327.871 326.915 340.499 329.673 349.789 341.431Z" fill="#006C8F"/>
<path d="M361.546 374.67C364.449 371.331 367.642 368.138 370.98 365.235C375.48 361.461 380.27 357.977 385.496 355.074L383.028 345.494C378.383 346.801 373.883 349.123 369.384 350.574C365.174 352.026 359.949 353.187 355.594 351.591C358.352 358.558 359.804 367.557 358.643 378.879C359.513 377.573 360.53 375.976 361.546 374.67Z" fill="#006C8F"/>
<path d="M387.673 419.667C385.206 419.377 382.302 418.651 380.851 416.474C379.69 414.732 380.125 412.554 380.996 410.813C383.464 406.313 388.544 402.974 392.898 400.217C389.56 401.668 386.221 403.12 383.028 404.861C378.819 407.039 374.319 409.506 369.384 408.49C364.884 407.619 361.981 403.7 362.417 399.201C362.707 396.152 364.449 393.54 366.481 391.072C363.578 390.637 361.11 389.33 359.223 386.427C358.643 385.556 358.352 384.685 358.207 383.814C357.917 385.992 357.481 388.314 356.901 390.637C344.127 445.069 297.824 455.519 297.824 455.519L289.696 513.435L418.3 484.405L401.898 419.377C397.108 420.248 392.463 420.393 387.673 419.667Z" fill="#006C8F"/>
<path d="M285.632 445.212C284.906 444.196 285.486 442.889 286.357 442.164C287.373 441.438 288.68 442.018 289.405 442.889C292.163 447.099 295.066 451.163 297.824 455.372C298.55 456.388 297.969 457.695 297.098 458.421C296.082 459.146 294.776 458.566 294.05 457.695C291.293 453.486 288.535 449.421 285.632 445.212ZM357.482 448.55C360.965 453.34 368.949 462.775 362.417 468.291C359.514 470.759 355.304 469.597 352.837 466.985C350.079 464.082 348.337 460.162 345.87 456.969C343.547 453.921 340.789 450.582 337.596 448.405C336.435 447.534 334.112 446.373 332.661 447.825C331.499 449.131 332.806 451.308 333.532 452.469C335.709 456.243 338.322 459.872 340.789 463.646C343.402 467.565 346.015 471.629 348.627 475.549C350.224 477.871 346.45 480.048 344.854 477.726C341.951 473.371 339.192 469.017 336.289 464.662C334.838 462.485 333.386 460.308 331.935 458.13C330.628 456.243 329.322 454.356 328.451 452.179C327.29 448.841 328.016 445.067 331.499 443.615C334.983 442.018 338.467 443.615 341.225 445.792C344.418 448.405 347.176 451.599 349.643 454.792C350.95 456.534 352.111 458.13 353.272 460.017C354.288 461.614 355.159 463.646 356.611 464.807C357.917 465.823 359.659 465.969 360.239 464.227C360.82 462.63 360.094 461.033 359.223 459.582C357.336 456.098 354.869 452.76 352.401 449.421C347.611 442.889 342.241 436.938 336.289 431.422C327 442.889 315.097 452.179 301.598 458.13C298.695 477 295.792 495.87 292.889 514.739C292.454 517.352 288.825 516.481 288.68 514.014C288.389 513.868 288.099 513.578 287.954 513.288C284.47 507.917 280.551 502.982 276.051 498.337C275.326 497.612 275.326 496.741 275.616 496.16C278.664 478.016 281.858 459.872 284.906 441.583C285.196 440.277 286.212 439.841 287.083 440.131C299.856 437.954 311.904 433.019 322.5 425.471C335.128 416.472 345.579 403.553 351.385 388.893C351.676 387.587 351.821 386.28 351.966 384.974C352.111 384.393 352.547 383.813 353.127 383.522C354.143 380.474 354.869 377.426 355.304 374.233C356.901 364.362 355.595 354.056 350.369 345.493C345.289 337.364 336.58 331.848 327.145 330.397C326.564 330.542 325.839 330.542 325.258 330.252C324.677 330.252 324.097 330.106 323.661 330.106C321.629 330.106 321.049 327.784 321.92 326.623C319.016 323.575 316.113 320.526 313.065 317.478C311.614 317.623 310.162 316.607 310.598 314.866C316.404 296.431 320.178 277.416 321.92 258.111C321.339 256.805 322.065 255.063 323.807 255.063C324.097 254.918 324.532 254.918 324.823 255.063C330.483 254.918 335.999 253.902 341.37 252.015C341.805 251.579 342.531 251.289 343.111 251.434C343.982 251.289 344.998 252.015 345.289 252.741C350.95 257.531 356.756 262.321 362.417 266.965C362.417 266.965 362.417 267.111 362.562 267.111C362.852 267.111 363.142 267.111 363.433 267.111C364.594 267.256 365.61 267.982 365.61 269.288C365.61 270.304 364.594 271.61 363.433 271.465C356.756 270.739 350.079 271.901 344.128 275.094C343.112 275.675 342.241 275.384 341.66 274.659C341.515 274.804 341.37 274.949 341.079 275.094C337.596 292.367 333.532 309.495 328.887 326.478C339.918 328.51 349.644 335.477 355.014 345.493C362.417 359.282 360.82 375.394 355.159 389.619C354.143 395.57 352.401 401.376 350.079 407.037C347.031 414.44 343.112 421.407 338.322 427.794C345.87 434.035 351.966 441.002 357.482 448.55ZM356.611 267.111C352.111 263.337 347.756 259.708 343.257 255.934C338.322 257.676 333.241 258.692 328.161 258.982C332.806 263.192 337.596 267.256 342.241 271.465C342.386 271.32 342.531 271.32 342.676 271.175C346.886 268.852 351.675 267.546 356.611 267.111ZM316.404 314.14C319.452 317.333 322.645 320.526 325.693 323.72C330.193 307.027 334.112 290.335 337.596 273.352C337.596 273.207 337.596 273.207 337.741 273.062C333.967 269.723 330.193 266.385 326.419 263.046C324.532 280.174 321.049 297.157 316.113 313.704C316.113 313.85 316.259 313.995 316.404 314.14ZM345.144 408.779C331.79 427.213 311.324 439.986 288.97 443.905C286.067 461.179 283.019 478.597 280.116 495.87C283.599 499.498 286.793 503.418 289.696 507.627C292.163 491.66 294.631 475.694 297.098 459.727C294.486 460.743 293.324 456.534 295.937 455.518C296.663 455.227 297.389 454.937 297.969 454.647C298.405 453.776 299.276 453.631 300.001 453.776C304.937 451.599 309.727 448.841 314.226 445.792C327.726 436.503 338.467 423.584 345.144 408.779ZM336.289 478.887C335.709 477.871 334.257 477.436 333.241 478.161C332.225 478.742 331.79 480.048 332.516 481.209C334.983 485.129 337.451 489.193 340.063 493.112C340.644 494.128 342.095 494.563 343.111 493.838C344.128 493.257 344.563 491.951 343.837 490.789C341.37 486.87 338.902 482.806 336.289 478.887ZM369.965 307.608C366.916 302.673 363.433 298.173 359.514 293.964C357.482 291.786 355.304 289.754 353.127 287.722C351.095 285.98 348.918 283.803 346.45 283.077C343.982 282.497 341.37 283.658 340.644 286.271C339.918 288.738 340.934 291.641 341.66 294.109C343.257 299.915 345.289 305.576 347.902 311.092C350.805 317.188 354.143 323.139 358.062 328.655C359.659 330.977 363.433 328.8 361.836 326.478C354.288 316.027 348.773 304.269 345.579 291.786C345.289 290.915 344.418 288.738 344.854 287.722C345.434 286.706 347.176 288.303 347.757 288.883C350.224 290.77 352.401 292.948 354.579 295.125C359.078 299.625 362.852 304.56 366.191 309.93C367.642 312.253 371.416 310.076 369.965 307.608Z" fill="#DCDCDC"/>
<path d="M429.912 406.748C432.525 405.877 433.686 410.087 431.073 410.958C417.284 415.602 402.479 421.844 387.673 419.667C385.205 419.376 382.302 418.651 380.851 416.473C379.689 414.732 380.125 412.554 380.996 410.812C383.609 405.877 389.269 402.394 393.914 399.491C400.011 395.571 406.543 392.088 413.22 389.04C417.864 387.008 423.09 384.25 428.316 383.959C431.073 383.814 431.073 388.169 428.316 388.314C428.17 388.314 427.59 388.459 427.88 388.314C428.17 388.314 427.444 388.314 427.444 388.459C427.009 388.604 426.428 388.604 425.993 388.749C424.832 389.04 423.525 389.475 422.364 389.911C419.316 390.927 416.413 392.233 413.655 393.685C407.414 396.588 401.462 399.926 395.656 403.555C393.334 405.151 391.011 406.748 388.834 408.635C387.092 410.087 385.786 411.393 384.77 413.135C384.48 413.57 384.625 413.425 384.625 413.28C384.625 413.425 384.479 413.57 384.479 413.715C384.189 414.441 384.479 413.861 384.479 413.715C384.479 413.861 384.479 414.006 384.479 414.151C384.479 414.006 384.479 414.151 384.479 414.151C384.189 413.861 384.915 414.441 384.479 414.296C384.625 414.441 384.77 414.586 385.06 414.586C385.351 414.732 385.205 414.732 385.205 414.732C385.641 414.877 386.076 415.022 386.657 415.167C389.124 415.748 391.592 415.893 394.06 415.748C406.543 415.602 418.445 410.667 429.912 406.748ZM300.001 97.575C301.453 100.913 303.049 104.252 304.501 107.59C304.936 108.607 306.533 108.897 307.549 108.316C308.565 107.59 308.855 106.429 308.275 105.268C306.823 101.929 305.227 98.5911 303.775 95.2526C303.34 94.2365 301.743 93.9462 300.727 94.5268C299.711 95.2526 299.566 96.4137 300.001 97.575ZM310.743 94.6719C310.162 93.6559 310.597 92.3495 311.468 91.6238C312.484 91.0432 313.936 91.4786 314.516 92.3495C316.839 96.2686 318.435 100.768 319.161 105.268C319.306 106.429 318.871 107.59 317.71 107.881C316.694 108.171 315.242 107.445 315.097 106.429C314.807 104.252 314.226 102.22 313.5 100.188C313.355 99.6071 313.065 99.1716 312.92 98.591C313.065 98.8813 312.775 98.3007 312.775 98.3007C312.629 98.0104 312.484 97.7201 312.339 97.4298C311.904 96.5589 311.323 95.5428 310.743 94.6719ZM289.986 89.0111C289.405 90.0271 288.099 90.3174 286.938 89.7368C285.921 89.1562 285.631 87.7046 286.212 86.6886C287.954 83.6404 290.421 81.1729 293.469 79.2859C294.485 78.7053 295.792 79.1407 296.518 80.0116C297.098 81.0277 296.663 82.334 295.792 83.0598C295.211 83.3501 294.776 83.7855 294.195 84.221C294.34 84.0758 294.486 83.9307 294.631 83.9307C293.324 84.9468 292.163 86.108 291.147 87.4143C291.292 87.2692 291.437 87.1241 291.437 86.9789C290.857 87.7047 290.421 88.4305 289.986 89.0111ZM309.001 75.9474C309.291 77.1086 308.71 78.2698 307.549 78.5601C306.533 78.8504 305.082 78.1247 304.937 77.1086C304.501 75.2216 305.952 73.9152 307.694 73.9152C308.565 73.9152 309.581 74.0604 310.597 74.2056C312.629 74.4959 314.807 74.7862 316.839 75.2216C318 75.5119 318.581 76.8183 318.29 77.8344C318 78.9956 316.694 79.5762 315.678 79.2859C314.226 78.9956 312.774 78.7052 311.178 78.4149C311.033 78.4149 311.033 78.4149 311.323 78.4149C311.178 78.4149 311.033 78.4149 311.033 78.4149C310.888 78.4149 310.742 78.4149 310.452 78.4149C310.162 78.4149 309.726 78.2698 309.436 78.2698C309.001 78.2698 308.71 78.2698 308.275 78.1247C308.13 78.1247 307.985 78.1247 307.84 78.1247C307.694 78.1247 307.84 78.1247 308.13 78.1247C308.71 77.9795 309.001 77.544 309.291 76.9634C309.001 76.5279 309.001 76.2377 309.001 75.9474C309.001 75.8023 309.001 75.8023 309.001 75.9474ZM597.852 561.625C589.869 561.915 582.176 558.867 576.08 553.642C569.983 548.271 566.5 540.868 565.629 532.885C564.032 518.225 570.274 503.855 568.532 489.34C567.661 482.517 564.613 476.711 559.533 472.066C554.743 467.567 548.791 464.519 543.13 461.325C537.179 458.132 531.228 454.939 525.857 450.729C519.616 445.794 514.826 439.262 510.326 432.585C502.343 420.828 493.779 406.748 479.264 402.974C477.231 407.184 474.764 411.248 471.861 415.022C460.684 429.682 444.137 439.698 425.993 442.746C426.283 453.487 426.864 464.373 427.735 475.115C429.331 495.291 432.234 515.322 436.008 535.208C438.911 550.303 441.669 568.883 455.023 578.753C457.201 580.35 455.023 584.124 452.846 582.527C445.443 577.156 440.944 569.173 437.895 560.754C434.847 552.335 433.25 543.481 431.654 534.772C429.622 524.466 428.025 514.16 426.573 503.855C423.816 483.824 422.219 463.648 421.784 443.472C421.058 443.326 420.768 442.746 420.622 442.02C418.735 439.843 417.139 437.665 415.832 435.053C412.639 428.811 411.333 421.844 412.204 415.022C413.655 414.586 415.252 414.151 416.703 413.715C415.107 422.57 417.719 432.005 423.67 438.972C423.67 438.972 423.671 438.972 423.816 438.972C428.606 438.246 433.396 437.085 437.895 435.488C454.297 429.392 468.087 416.909 475.635 401.087C475.635 400.797 475.635 400.652 475.635 400.362C474.619 398.62 473.457 396.878 472.296 395.136C466.345 386.282 459.958 377.718 453.862 369.009C451.104 365.09 448.346 361.171 445.734 357.106C443.266 353.187 441.089 348.978 438.331 345.204C432.089 336.495 423.09 328.366 412.784 325.173C407.849 323.576 402.188 324.302 397.108 324.883C391.447 325.608 385.931 326.77 380.415 328.076C374.174 329.527 367.642 331.124 361.691 333.882C359.223 335.043 356.756 336.64 355.304 338.962C354.143 340.994 353.562 344.043 355.159 346.075C358.497 350.72 366.626 347.526 370.69 345.93C376.351 343.752 381.722 341.14 387.673 340.414C392.608 339.833 398.124 340.559 402.188 343.607C403.349 344.478 404.366 345.494 405.091 346.655C409.736 345.204 414.381 344.043 419.171 343.317C421.929 342.881 423.09 347.091 420.332 347.526C411.478 348.833 402.769 351.591 394.64 355.365C387.528 358.848 380.706 363.057 374.754 368.283C371.706 370.896 368.803 373.654 366.191 376.557C363.723 379.169 360.82 383.088 364.884 385.846C366.771 387.153 368.948 387.153 371.126 386.717C384.625 373.654 402.043 364.509 420.622 361.171C423.38 360.59 424.542 364.799 421.784 365.38C412.204 367.122 403.059 370.315 394.495 374.96C386.947 379.024 379.98 384.105 373.738 390.201C370.98 392.814 366.481 396.588 367.061 400.942C367.787 405.732 374.029 404.571 377.077 403.119C381.286 401.232 385.35 399.055 389.56 397.168C393.914 395.281 398.124 393.539 402.623 391.943C411.623 388.604 420.767 385.991 430.202 383.959C432.96 383.379 434.121 387.588 431.364 388.169C419.897 390.636 408.575 394.12 397.688 398.474C392.898 400.361 388.108 402.539 383.463 404.861C379.254 407.038 374.754 409.506 369.819 408.49C365.32 407.619 362.417 403.7 362.852 399.2C363.142 396.152 364.884 393.539 366.916 391.072C364.013 390.636 361.546 389.33 359.659 386.427C357.046 382.363 359.223 378.008 362.126 374.67C365.029 371.331 368.223 368.138 371.561 365.235C380.27 357.832 390.286 351.881 401.027 347.962C397.834 344.623 392.463 344.043 387.963 344.623C381.722 345.349 375.915 348.688 369.964 350.72C364.739 352.461 358.062 353.913 353.272 350.139C348.772 346.51 349.353 339.688 352.691 335.333C356.465 330.398 362.997 328.366 368.658 326.624C375.045 324.592 381.576 323.141 388.108 321.834C393.769 320.818 399.43 319.802 405.236 319.657C410.752 319.512 415.687 320.818 420.622 323.286C431.073 328.511 439.492 337.366 445.588 347.381C450.669 355.945 456.185 363.928 461.991 371.912C468.087 380.476 474.474 388.895 479.844 397.894C480.135 398.039 480.425 398.329 480.715 398.765C497.408 402.829 506.842 419.086 515.987 432.295C520.342 438.682 525.277 444.633 531.518 449.132C537.034 453.052 543.13 455.955 549.082 459.293C554.743 462.486 560.549 465.825 565.048 470.615C569.838 475.695 572.596 481.937 573.467 488.759C575.354 503.274 569.403 517.354 570.564 531.724C571.145 538.836 574.048 545.368 579.418 550.158C584.644 554.803 591.466 557.416 598.433 557.125C600.611 557.271 600.61 561.625 597.852 561.625ZM422.654 280.756C429.186 286.417 435.428 292.369 441.524 298.465C443.556 300.497 446.605 297.304 444.572 295.417C423.38 274.37 400.301 255.5 373.448 242.291C366.045 238.662 358.352 235.469 350.659 232.566C349.208 211.809 348.482 191.053 347.611 170.441C347.611 168.844 347.466 167.248 347.466 165.651C361.11 162.168 374.9 158.539 388.544 155.055C389.85 154.765 391.302 154.329 392.608 154.039C394.35 153.604 394.495 151.571 393.624 150.41C382.883 137.056 372.432 123.702 361.836 110.203C356.175 103.091 350.659 95.9783 344.998 88.8659C339.773 82.334 334.838 75.2216 328.741 69.4156C324.822 65.6416 320.613 62.4482 315.823 59.8355C319.016 59.1098 322.5 57.9485 325.984 55.9164C335.273 50.4006 344.853 27.4667 333.096 11.5C312.339 40.6755 293.615 19.3382 263.713 33.5631C240.634 44.4495 241.505 87.4143 251.521 108.461C244.553 108.026 237.441 110.348 232.506 115.283C224.232 123.557 223.216 137.782 230.328 147.072C234.102 152.152 240.054 155.2 246.295 156.216C236.715 179.005 226.264 201.504 215.378 223.712C215.378 223.712 215.378 223.712 215.233 223.712C185.041 237.066 154.559 249.839 126.109 266.677C99.8369 282.208 75.1611 301.078 54.985 324.157C43.9535 336.785 34.3736 350.574 26.8257 365.525C25.5194 367.993 29.2934 370.17 30.5998 367.702C43.9538 341.14 63.8395 318.641 86.4832 299.626C110.869 279.305 138.448 263.629 167.042 249.984C183.154 242.291 199.556 235.324 215.958 228.066C215.958 228.066 215.958 228.066 216.103 228.066C215.813 228.937 216.104 229.808 217.12 230.244C249.198 244.033 284.906 248.678 319.452 243.598C329.177 242.146 338.757 239.969 348.047 237.066C348.337 236.921 348.627 236.775 348.772 236.63C362.417 241.711 375.77 247.807 388.254 255.355C400.446 262.613 411.913 271.322 422.654 280.756ZM246.585 235.614C237.296 233.292 228.151 230.244 219.297 226.47C219.152 226.47 219.007 226.325 218.862 226.325C230.183 203.245 240.925 180.021 250.795 156.361C254.569 156.216 258.197 155.345 261.536 153.458C262.552 152.878 262.988 151.571 262.407 150.555C261.826 149.539 260.52 149.104 259.504 149.684C251.376 154.329 239.618 151.862 233.812 144.459C228.151 136.911 228.877 125.009 235.554 118.332C242.231 111.655 254.133 110.929 261.681 116.59C262.697 117.316 264.003 117.17 264.729 116.154C265.455 115.138 265.31 113.832 264.294 113.106C263.713 112.671 263.133 112.38 262.697 111.945L266.326 112.09C281.422 102.8 278.954 87.9949 282.873 76.9634C288.534 61.1419 296.953 61.4322 307.114 60.7065C322.21 65.3513 331.644 78.7053 340.934 90.4626C351.82 104.107 362.416 117.896 373.303 131.686C378.238 137.927 383.173 144.169 388.108 150.41C377.657 153.168 367.061 155.926 356.61 158.684C352.546 159.7 348.482 160.716 344.418 161.732C343.547 162.022 342.821 162.893 342.821 163.764C343.547 181.473 344.273 199.181 345.144 216.89C345.434 222.115 345.724 227.486 346.014 232.711C314.081 242.872 279.244 243.888 246.585 235.614ZM265.455 132.411C266.181 133.282 266.326 134.589 265.455 135.46C264.729 136.185 263.133 136.331 262.407 135.46C257.907 129.799 250.94 126.46 243.682 126.605C240.924 126.605 240.924 122.251 243.682 122.251C251.956 122.106 260.084 125.88 265.455 132.411ZM288.825 193.52C287.373 195.698 285.051 197.149 282.438 197.585C277.503 198.31 272.567 195.988 269.81 191.778C266.616 186.988 266.326 180.747 266.181 175.086C266.181 172.328 270.535 172.328 270.535 175.086C270.68 180.602 270.68 187.279 274.89 191.198C276.196 192.504 278.664 193.23 280.406 193.375C280.696 193.375 280.841 193.375 281.131 193.375C281.277 193.375 281.422 193.375 281.567 193.375C281.857 193.375 282.148 193.23 282.438 193.23L283.018 193.085C284.035 192.649 284.47 192.214 284.906 191.488C285.486 190.472 286.792 190.037 287.954 190.762C288.97 191.198 289.405 192.504 288.825 193.52ZM225.684 297.159C221.184 293.675 215.087 292.078 209.717 290.482C204.056 288.74 198.25 287.579 192.444 286.563C187.364 285.546 182.138 284.676 176.912 284.53C171.977 284.385 167.478 285.111 162.978 287.143C158.333 289.175 154.124 291.933 150.205 295.272C146.14 298.755 142.512 302.82 139.318 307.174C136.27 311.384 133.948 316.028 131.19 320.383C124.948 330.108 118.126 339.543 111.739 349.123C110.433 351.155 109.127 353.187 107.965 355.219C104.191 354.058 99.837 354.058 96.063 354.494C87.4991 355.51 79.2253 359.284 73.129 365.38C65.8714 372.492 63.1136 382.217 60.9364 391.943C58.9042 401.232 56.1464 409.942 51.5015 418.215C47.147 425.908 41.9216 433.021 36.4059 439.988C25.3743 453.923 13.0363 467.131 5.05296 483.243C3.16599 487.162 1.42431 491.227 0.117941 495.291C-0.75297 497.904 3.45629 499.065 4.3272 496.452C14.9233 462.777 47.4374 442.02 60.3559 409.506C63.9847 400.362 65.0006 390.491 68.194 381.201C71.2421 372.783 76.9031 366.106 84.8864 362.041C88.6603 360.154 92.7247 358.993 96.9341 358.558C99.5468 358.267 102.885 358.267 105.498 358.848C102.45 364.509 101.143 370.896 103.611 377.137C106.078 383.234 111.014 387.878 116.53 391.072C122.19 394.41 128.432 396.442 134.964 397.604C141.931 398.91 149.044 399.636 156.156 398.62C161.672 397.894 167.623 396.007 170.381 391.217C171.252 391.652 171.977 392.233 172.703 392.814C179.525 398.62 184.315 407.184 184.315 416.328C184.17 425.182 179.815 434.037 174.009 440.568C169.074 446.229 162.543 450.003 156.156 453.777C146.866 459.148 131.916 466.26 133.948 479.324C135.399 488.033 143.818 493.113 146.431 501.387C149.624 511.403 142.221 520.983 135.544 527.66C131.625 526.789 126.98 527.369 123.932 530.417C121.029 533.32 120.303 538.256 123.787 541.014C124.803 541.885 125.819 541.885 126.835 541.014C130.028 538.401 133.512 535.643 136.706 532.74C136.851 532.885 137.141 532.885 137.286 533.03C144.979 537.385 139.754 546.82 136.561 552.335C135.109 554.803 138.883 556.98 140.334 554.513C143.092 549.868 146.14 544.787 145.705 539.127C145.415 535.062 143.237 531.724 140.044 529.547C143.528 526.063 146.576 522.144 148.753 517.789C150.93 513.29 152.237 508.209 151.511 503.129C150.785 497.903 147.737 493.839 144.689 489.775C141.06 484.985 136.415 478.889 139.318 472.792C141.931 467.422 147.882 464.083 152.672 461.035C158.769 457.406 165.01 454.213 170.671 449.858C178.074 444.197 183.735 436.504 186.783 427.795C189.831 419.086 189.396 409.796 185.186 401.523C183.009 397.168 179.815 393.394 176.187 390.201C175.171 389.33 174.155 388.314 172.848 387.733C172.268 387.443 171.832 387.153 171.252 387.008C171.397 385.556 171.252 384.104 170.961 382.798C176.768 384.25 182.573 385.266 188.525 384.975C192.734 384.83 202.605 383.959 200.427 377.137C199.702 374.96 198.105 373.073 196.508 371.621C194.186 369.444 191.718 367.557 189.105 365.815C188.67 365.525 188.089 365.235 187.654 364.799C190.121 365.815 192.589 366.977 195.056 368.138C199.411 370.17 203.911 373.363 208.991 373.508C213.201 373.654 217.41 371.186 218.281 366.831C219.152 362.622 216.975 358.848 214.217 355.8C216.249 355.51 218.281 354.784 219.878 353.187C227.716 346.075 216.974 336.785 211.749 331.995C205.362 326.189 198.105 321.109 190.267 317.19C186.928 315.593 183.59 314.141 180.251 312.835C181.993 310.948 184.461 309.932 187.364 309.496C192.589 308.771 197.669 310.367 202.459 312.254C207.83 314.287 213.201 317.044 219.152 317.335C224.087 317.625 229.312 315.593 230.764 310.367C232.361 305.287 229.603 300.207 225.684 297.159ZM126.109 536.224C125.964 534.917 126.98 533.466 128.287 532.74C129.158 532.159 130.319 531.869 131.335 531.724C129.593 533.32 127.851 534.772 126.109 536.224ZM215.813 312.254C210.297 310.803 205.072 308.19 199.702 306.448C191.863 303.981 181.122 304.126 175.896 311.238C171.397 309.787 166.607 308.626 161.962 307.9C159.204 307.464 158.043 311.674 160.801 312.109C176.622 314.577 191.718 321.109 204.201 330.979C207.249 333.447 210.298 336.059 213.055 338.962C215.233 341.14 220.023 345.204 217.99 348.687C216.394 351.59 213.055 351.736 210.007 351.3C204.201 345.639 197.524 340.704 190.412 336.64C181.122 331.414 170.962 327.64 160.511 325.754C157.753 325.173 156.591 329.382 159.349 329.963C176.332 333.156 192.299 340.994 204.927 352.607C206.523 354.058 207.975 355.51 209.427 356.961C211.023 358.703 212.91 360.445 213.636 362.767C215.233 367.122 211.459 369.734 207.394 369.009C205.072 368.573 203.04 367.412 201.008 366.396C198.976 365.38 196.798 364.364 194.766 363.348C190.412 361.316 186.057 359.429 181.558 357.832C174.59 355.074 167.333 352.752 160.075 350.865C159.93 350.865 159.785 350.72 159.494 350.72C157.172 349.849 154.85 349.123 152.382 348.833C152.237 348.833 151.947 348.833 151.801 348.833C151.511 348.833 151.221 348.688 150.93 348.542C148.173 347.962 147.011 352.171 149.769 352.752C152.817 353.332 155.72 354.058 158.768 354.929C160.801 355.655 162.978 356.526 165.01 357.542C171.106 360.3 177.203 363.493 182.864 367.122C185.477 368.718 187.944 370.46 190.412 372.347C191.428 373.073 192.444 373.944 193.315 374.815C193.895 375.395 195.057 376.557 195.202 376.847C195.492 377.137 195.637 377.573 195.927 377.863C195.927 377.863 196.073 378.008 196.073 378.153C196.073 378.298 196.218 378.444 196.218 378.589C196.218 378.589 196.218 378.589 196.218 378.734C196.218 378.734 196.218 378.879 196.218 379.024L196.073 379.169C195.928 379.314 195.492 379.46 195.492 379.46C194.04 380.04 192.444 380.185 190.847 380.331C177.058 381.637 163.559 375.831 150.93 371.476C148.318 370.605 147.156 374.815 149.769 375.686C155.14 377.573 160.656 379.46 166.171 381.201C166.317 381.492 166.316 381.782 166.462 382.072C167.042 384.25 167.333 386.572 166.462 388.749C166.316 389.185 166.317 389.475 166.317 389.765C164.139 392.668 159.639 393.83 156.301 394.265C150.205 395.136 143.963 394.701 137.867 393.685C127.126 391.943 114.643 387.733 108.836 377.718C105.062 371.186 106.804 364.219 110.868 358.413C116.82 348.687 123.497 339.398 129.883 329.963C132.641 325.899 135.399 321.689 137.867 317.335C140.48 312.835 143.237 308.48 146.576 304.561C149.914 300.787 153.543 297.449 157.753 294.691C161.672 292.223 166.026 289.611 170.671 288.885C175.461 288.159 180.542 288.74 185.186 289.466C190.267 290.191 195.202 291.207 200.282 292.369C206.088 293.675 211.894 295.272 217.41 297.449C221.765 299.191 226.845 302.239 226.7 307.61C226.845 313.561 219.877 313.416 215.813 312.254Z" fill="#DCDCDC"/>
<path d="M89.0952 152.441C86.9179 150.844 89.0952 147.07 91.2725 148.667C106.659 160.134 122.045 171.746 137.576 183.213C139.753 184.81 137.576 188.584 135.399 186.987C120.013 175.375 104.481 163.908 89.0952 152.441ZM136.56 154.038C144.834 161.731 153.107 169.424 161.526 177.117C163.558 179.004 166.606 175.956 164.574 174.069C156.3 166.376 148.027 158.682 139.608 150.989C137.576 149.102 134.528 152.151 136.56 154.038ZM463.877 210.066C477.812 199.76 491.891 189.455 505.826 179.149C508.003 177.552 505.826 173.778 503.649 175.375C489.714 185.681 475.635 195.987 461.7 206.292C459.378 208.034 461.555 211.808 463.877 210.066ZM478.828 225.162C485.505 222.114 492.182 219.211 498.859 216.163C499.875 215.727 500.165 214.13 499.584 213.114C499.004 211.953 497.698 211.808 496.536 212.389C489.859 215.437 483.182 218.34 476.505 221.388C475.489 221.823 475.199 223.42 475.78 224.436C476.505 225.452 477.812 225.597 478.828 225.162ZM106.223 198.164C109.562 199.76 112.9 201.502 116.239 203.099C117.255 203.68 118.706 203.389 119.287 202.373C119.867 201.357 119.577 199.906 118.561 199.325C115.223 197.728 111.884 195.986 108.546 194.39C107.53 193.809 106.078 194.1 105.497 195.116C104.917 196.132 105.062 197.583 106.223 198.164Z" fill="#DCDCDC"/>
</svg>
