<svg width="600" height="583" viewBox="0 0 600 583" fill="none" xmlns="http://www.w3.org/2000/svg">
<path d="M415.107 348.012C437.895 374.285 483.763 327.981 512.358 308.096C540.953 288.21 566.935 255.406 558.662 221.585C548.501 180.072 492.182 159.025 490.44 116.35C489.714 97.0451 500.891 79.6268 506.842 61.3377C512.794 43.0486 510.907 18.2277 493.343 10.3895C488.118 8.06707 482.167 7.6316 476.361 7.19614C449.362 5.45432 422.364 3.56733 395.366 1.82551C359.804 -0.496916 323.08 -2.67423 289.55 9.22821C241.941 26.211 208.556 68.5953 166.462 96.8999C160.656 100.819 154.414 104.593 147.447 104.883C126.545 105.754 117.4 78.0302 99.1114 67.7244C81.2577 57.5638 56.7269 67.4341 46.2759 85.1426C35.825 102.851 36.8412 125.35 43.5182 144.8C50.1952 164.25 61.8075 181.523 71.9681 199.377C82.1287 217.231 90.9828 236.681 91.4183 257.147C91.8537 279.356 82.1284 300.548 71.6775 320.143C61.2266 339.739 358.497 282.694 415.107 348.012Z" fill="#F4F6F9"/>
<path d="M569.403 540.774C561.855 521.179 576.66 497.519 567.371 478.794C559.678 463.263 539.647 459.199 526.293 448.167C517.294 440.619 511.487 430.168 504.665 420.588C497.843 411.008 488.844 402.009 477.232 399.977L477.377 399.106C468.667 384.591 456.039 371.092 449.653 359.334C444.718 350.48 484.489 330.304 484.489 330.304C455.023 301.129 387.237 247.713 348.192 233.633C346.74 213.312 344.853 163.38 344.853 163.38C360.385 159.46 391.737 151.187 391.737 151.187C373.448 128.543 353.562 102.416 332.951 76.724C326.128 68.16 316.984 60.6121 306.533 57.7091L273.293 50.887L258.923 111.851C250.795 108.077 240.199 109.673 233.812 116.06C226.264 123.463 225.393 136.672 231.78 145.09C235.844 150.461 242.376 153.364 249.053 153.654L248.908 154.235C237.731 180.653 227.571 202.57 216.249 225.504L216.103 224.924C179.09 241.326 144.399 255.551 110.578 278.195C76.903 300.693 46.5664 329.723 28.2773 366.011C28.2773 366.011 51.3563 359.044 72.8388 367.753C71.2421 369.495 69.9357 371.382 68.7744 373.414C63.6941 382.268 62.8234 392.864 59.9204 402.59C49.3243 437.716 12.7461 460.215 1.85971 495.342C1.85971 495.342 18.9875 533.662 138.157 552.822C142.076 553.402 142.076 546 142.947 542.371C143.673 538.742 143.092 534.823 140.334 532.065C139.173 530.904 137.722 530.178 135.98 529.597C138.738 526.985 141.351 524.227 143.383 521.179C148.173 514.647 150.64 506.809 148.173 499.696C146.576 495.196 143.237 491.422 140.334 487.503C124.222 465.585 155.285 459.199 170.961 445.99C175.316 442.216 179.09 437.426 181.703 432.491C188.67 440.91 197.524 447.877 207.394 452.667C215.958 459.344 224.958 462.682 232.215 463.989C233.377 464.424 234.683 464.86 235.99 465.15L235.409 464.424C235.844 464.424 236.425 464.569 236.86 464.569L246.15 410.137C246.15 410.137 297.969 412.315 301.743 356.867C302.324 347.867 301.453 340.465 299.566 334.078C315.678 332.046 329.757 332.626 342.385 333.933C345.579 336.4 348.918 339.739 351.675 343.948C351.821 345.11 352.401 346.271 353.272 347.287C353.562 347.577 353.707 347.722 353.998 348.013C358.788 357.593 361.11 371.092 356.61 390.252C352.691 407.089 345.579 419.572 337.596 429.007C337.305 428.862 337.16 428.572 336.87 428.427L337.16 429.588C319.307 450.345 297.534 455.135 297.534 455.135L289.405 513.05L418.01 484.02L401.027 416.815C405.382 416.234 409.736 415.073 414.091 413.766C413.655 416.524 413.655 419.427 413.945 422.33C414.816 429.007 417.719 435.394 422.219 440.329H423.38C424.106 475.02 428.025 509.712 435.283 543.532C438.186 557.176 442.25 571.837 453.572 579.965C453.572 579.965 475.054 538.306 524.406 558.628C573.758 578.949 597.562 558.628 597.562 558.628C585.37 559.644 573.612 551.951 569.403 540.774ZM385.641 356.867L382.157 343.077C382.738 342.932 383.464 342.642 384.044 342.497C390.866 340.9 399.14 341.916 403.059 347.722C403.204 348.013 403.349 348.303 403.494 348.593C397.253 350.77 391.302 353.528 385.641 356.867ZM395.511 396.058C403.64 392.719 412.204 389.961 420.477 387.639C413.655 390.107 404.22 394.751 396.382 399.687L395.511 396.058Z" fill="white"/>
<path d="M262.552 301.419L267.197 255.115C267.197 255.115 230.909 261.066 203.911 288.79C205.798 289.226 207.83 289.806 209.717 290.387C215.088 291.984 221.039 293.58 225.684 297.064C229.603 300.112 232.216 305.193 230.909 310.273C229.458 315.353 224.232 317.53 219.297 317.24C213.491 316.95 207.975 314.192 202.605 312.16C198.105 310.418 193.46 308.967 188.525 309.402C187.509 311.289 186.493 313.031 185.622 315.063C187.218 315.789 188.815 316.514 190.412 317.24C198.105 321.159 205.362 326.094 211.894 332.046C217.12 336.836 227.861 346.125 220.023 353.238C218.281 354.689 216.394 355.56 214.362 355.851C216.975 358.899 219.297 362.673 218.426 366.882C217.555 371.237 213.346 373.704 209.137 373.559C204.201 373.414 199.556 370.366 195.202 368.188C192.734 367.027 190.267 365.866 187.799 364.85C188.234 365.14 188.815 365.431 189.251 365.866C191.863 367.608 194.331 369.495 196.653 371.672C198.25 373.269 199.992 375.011 200.572 377.188C202.605 384.01 192.879 384.881 188.67 385.026C184.315 385.171 180.106 384.736 175.897 383.865C176.332 388.8 174.59 394.606 177.638 397.945C180.106 400.702 184.751 402.444 185.912 406.508C187.219 411.153 183.59 420.008 185.331 423.927C198.831 454.554 222.926 464.569 237.296 465.295L246.585 410.863C246.585 410.863 298.405 413.04 302.179 357.592C305.517 307.225 262.552 301.419 262.552 301.419Z" fill="#FFE945"/>
<path d="M171.252 383.866C171.252 383.43 171.252 382.995 171.106 382.414H170.961C171.107 382.85 171.107 383.285 171.252 383.866Z" fill="black"/>
<path d="M185.041 285.017C199.701 268.47 218.861 256.132 240.053 249.6C240.489 249.455 240.779 249.31 240.924 249.019C247.892 249.89 254.859 251.487 261.536 253.664C239.183 261.212 218.426 272.824 200.282 287.775C202.024 288.21 203.911 288.646 205.653 289.081C223.942 274.421 244.989 263.244 267.487 256.422C268.068 256.277 268.358 255.987 268.649 255.696C270.245 255.116 270.681 252.213 268.503 251.487C259.359 248.293 250.069 245.826 240.344 244.81C239.618 244.665 239.037 245.1 238.602 245.681C216.249 252.648 196.073 265.857 180.832 283.565C180.541 283.856 180.396 284.291 180.251 284.581C181.702 284.581 183.444 284.727 185.041 285.017Z" fill="black"/>
<path d="M244.408 418.267C238.457 415.799 234.538 410.283 231.054 405.203C229.167 402.59 227.426 399.832 225.393 397.365C223.506 394.897 221.184 392.139 218.571 390.542C215.668 388.801 211.604 388.51 209.572 391.849C207.685 394.897 208.991 398.961 209.572 402.155C211.168 409.703 213.491 417.105 216.684 424.218C220.313 432.491 225.103 440.039 230.764 447.152C232.506 449.329 235.554 446.281 233.812 444.104C224.813 432.927 218.426 419.863 214.943 406.074C214.072 402.88 213.055 399.252 213.055 395.913C212.91 391.704 216.829 394.316 218.426 395.913C222.635 399.977 225.683 405.203 229.167 409.848C232.941 415.073 237.296 419.863 243.392 422.331C244.553 422.766 245.715 421.895 246.005 420.879C246.295 419.718 245.424 418.702 244.408 418.267Z" fill="black"/>
<path d="M269.374 340.029C266.616 336.4 264.149 332.627 261.681 328.707C250.94 311.144 243.827 291.549 240.634 271.227C240.199 268.469 235.989 269.631 236.425 272.389C239.037 289.662 244.698 306.354 252.682 321.74C256.746 329.433 261.391 336.836 266.616 343.803C268.793 346.561 272.132 350.625 270.245 354.399C269.664 355.561 268.503 356.722 267.052 356.431C265.31 356.141 264.294 353.964 263.568 352.512C261.101 348.158 258.778 343.803 256.456 339.594C254.423 335.82 252.537 331.61 249.779 328.272C247.602 325.514 244.263 323.337 240.634 324.208C237.005 325.079 234.828 328.562 234.538 332.046C234.102 336.255 236.28 340.174 238.167 343.803C240.344 348.013 242.376 352.222 244.263 356.577C248.037 365.286 251.085 374.285 253.408 383.43C253.843 385.171 254.424 386.913 254.133 388.8C253.843 391.123 252.101 390.252 250.649 389.091C247.021 385.897 243.827 382.123 240.779 378.349C234.538 370.656 229.457 362.092 225.538 353.093C224.377 350.48 220.603 352.803 221.764 355.27C225.538 363.544 230.183 371.527 235.699 378.785C238.457 382.414 241.505 386.042 244.698 389.381C247.311 392.139 251.085 396.493 255.44 394.171C258.633 392.429 258.778 388.51 258.197 385.317C257.472 380.672 255.875 376.027 254.424 371.672C251.375 362.237 247.601 352.948 243.102 344.093C241.36 340.465 237.876 335.965 238.892 331.756C239.183 330.304 240.199 328.853 241.65 328.562C243.537 328.272 245.134 329.869 246.15 331.175C247.311 332.627 248.182 334.223 249.053 335.82C250.359 338.287 251.811 340.755 253.117 343.223C255.439 347.577 257.762 352.077 260.375 356.286C262.262 359.48 265.6 362.092 269.519 360.641C272.858 359.334 275.18 355.561 274.89 351.932C275.035 347.142 271.987 343.513 269.374 340.029Z" fill="black"/>
<path d="M179.67 395.187C179.235 391.559 179.09 387.785 179.235 384.156C177.783 384.011 176.332 383.72 174.88 383.43C174.735 386.914 174.88 390.397 175.171 393.881" fill="black"/>
<path d="M184.315 429.298C207.54 461.231 227.861 463.844 235.554 466.166C238.312 466.892 239.473 462.683 236.715 461.957C214.217 455.425 195.637 439.023 186.202 417.976" fill="black"/>
<path d="M349.788 341.189C350.079 339.012 350.949 336.835 352.256 335.093C356.03 330.158 362.562 328.126 368.223 326.384C371.416 325.368 374.609 324.497 377.803 323.771L363.868 268.759L340.644 274.565L327.87 326.674C327.87 326.674 340.499 329.432 349.788 341.189Z" fill="#9ED5F0"/>
<path d="M361.546 374.43C364.449 371.091 367.642 367.898 370.981 364.995C375.48 361.221 380.27 357.737 385.496 354.834L383.028 345.254C378.383 346.561 373.884 348.883 369.384 350.334C365.174 351.786 359.949 352.947 355.594 351.351C358.352 358.318 359.804 367.317 358.643 378.639C359.514 377.333 360.53 375.736 361.546 374.43Z" fill="#9ED5F0"/>
<path d="M387.673 419.425C385.206 419.135 382.302 418.409 380.851 416.232C379.689 414.49 380.125 412.313 380.996 410.571C383.464 406.071 388.544 402.733 392.898 399.975C389.56 401.427 386.221 402.878 383.028 404.62C378.819 406.797 374.319 409.265 369.384 408.249C364.884 407.378 361.981 403.459 362.416 398.959C362.707 395.911 364.449 393.298 366.481 390.831C363.578 390.395 361.11 389.089 359.223 386.186C358.643 385.315 358.352 384.444 358.207 383.573C357.917 385.75 357.481 388.073 356.901 390.395C344.127 444.827 297.824 455.278 297.824 455.278L289.696 513.194L418.3 484.163L401.898 419.135C397.108 420.006 392.463 420.151 387.673 419.425Z" fill="#9ED5F0"/>
<path d="M285.631 444.973C284.906 443.957 285.486 442.651 286.357 441.925C287.373 441.199 288.679 441.78 289.405 442.651C292.163 446.86 295.066 450.924 297.824 455.134C298.55 456.15 297.969 457.456 297.098 458.182C296.082 458.908 294.776 458.327 294.05 457.456C291.292 453.247 288.534 449.183 285.631 444.973ZM357.481 448.312C360.965 453.102 368.948 462.537 362.416 468.052C359.513 470.52 355.304 469.359 352.837 466.746C350.079 463.843 348.337 459.924 345.869 456.731C343.547 453.682 340.789 450.344 337.596 448.167C336.435 447.296 334.112 446.134 332.66 447.586C331.499 448.892 332.806 451.07 333.531 452.231C335.709 456.005 338.321 459.634 340.789 463.408C343.402 467.327 346.014 471.391 348.627 475.31C350.224 477.632 346.45 479.81 344.853 477.487C341.95 473.133 339.192 468.778 336.289 464.424C334.838 462.246 333.386 460.069 331.935 457.892C330.628 456.005 329.322 454.118 328.451 451.941C327.29 448.602 328.015 444.828 331.499 443.377C334.983 441.78 338.467 443.377 341.225 445.554C344.418 448.167 347.175 451.36 349.643 454.553C350.949 456.295 352.111 457.892 353.272 459.779C354.288 461.375 355.159 463.408 356.61 464.569C357.917 465.585 359.659 465.73 360.239 463.988C360.82 462.392 360.094 460.795 359.223 459.343C357.336 455.86 354.869 452.521 352.401 449.183C347.611 442.651 342.24 436.7 336.289 431.184C326.999 442.651 315.097 451.941 301.598 457.892C298.695 476.762 295.792 495.631 292.889 514.501C292.453 517.114 288.824 516.243 288.679 513.775C288.389 513.63 288.099 513.34 287.954 513.049C284.47 507.679 280.551 502.744 276.051 498.099C275.325 497.373 275.325 496.502 275.616 495.922C278.664 477.778 281.857 459.634 284.906 441.344C285.196 440.038 286.212 439.603 287.083 439.893C299.856 437.716 311.904 432.781 322.5 425.233C335.128 416.233 345.579 403.315 351.385 388.654C351.675 387.348 351.82 386.042 351.966 384.735C352.111 384.155 352.546 383.574 353.127 383.284C354.143 380.236 354.869 377.187 355.304 373.994C356.901 364.124 355.594 353.818 350.369 345.254C345.288 337.126 336.579 331.61 327.145 330.158C326.564 330.303 325.838 330.303 325.258 330.013C324.677 330.013 324.096 329.868 323.661 329.868C321.629 329.868 321.048 327.546 321.919 326.384C319.016 323.336 316.113 320.288 313.065 317.24C311.613 317.385 310.162 316.369 310.597 314.627C316.403 296.193 320.177 277.178 321.919 257.873C321.339 256.566 322.065 254.825 323.806 254.825C324.097 254.679 324.532 254.679 324.822 254.825C330.483 254.679 335.999 253.663 341.369 251.776C341.805 251.341 342.531 251.051 343.111 251.196C343.982 251.051 344.998 251.776 345.288 252.502C350.949 257.292 356.756 262.082 362.416 266.727C362.416 266.727 362.417 266.872 362.562 266.872C362.852 266.872 363.142 266.872 363.432 266.872C364.594 267.017 365.61 267.743 365.61 269.049C365.61 270.065 364.594 271.372 363.432 271.227C356.755 270.501 350.079 271.662 344.128 274.855C343.112 275.436 342.24 275.146 341.66 274.42C341.515 274.565 341.37 274.71 341.079 274.855C337.596 292.128 333.531 309.256 328.887 326.239C339.918 328.271 349.643 335.239 355.014 345.254C362.417 359.043 360.82 375.155 355.159 389.38C354.143 395.331 352.401 401.137 350.079 406.798C347.03 414.201 343.112 421.168 338.321 427.555C345.869 433.797 351.966 440.764 357.481 448.312ZM356.61 266.872C352.111 263.098 347.756 259.469 343.257 255.695C338.321 257.437 333.241 258.453 328.161 258.744C332.806 262.953 337.596 267.017 342.241 271.227C342.386 271.081 342.531 271.082 342.676 270.936C346.885 268.614 351.675 267.308 356.61 266.872ZM316.403 313.901C319.452 317.095 322.645 320.288 325.693 323.481C330.193 306.789 334.112 290.096 337.596 273.114C337.596 272.969 337.596 272.969 337.741 272.823C333.967 269.485 330.193 266.146 326.419 262.808C324.532 279.936 321.048 296.919 316.113 313.466C316.113 313.611 316.258 313.756 316.403 313.901ZM345.144 408.54C331.79 426.974 311.323 439.748 288.97 443.667C286.067 460.94 283.019 478.358 280.116 495.631C283.599 499.26 286.793 503.179 289.696 507.389C292.163 491.422 294.631 475.455 297.098 459.488C294.485 460.505 293.324 456.295 295.937 455.279C296.663 454.989 297.389 454.698 297.969 454.408C298.405 453.537 299.275 453.392 300.001 453.537C304.936 451.36 309.726 448.602 314.226 445.554C327.725 436.264 338.467 423.346 345.144 408.54ZM336.289 478.648C335.709 477.632 334.257 477.197 333.241 477.923C332.225 478.503 331.79 479.81 332.515 480.971C334.983 484.89 337.451 488.954 340.063 492.873C340.644 493.889 342.095 494.325 343.111 493.599C344.127 493.018 344.563 491.712 343.837 490.551C341.369 486.632 338.902 482.568 336.289 478.648ZM369.964 307.369C366.916 302.434 363.433 297.935 359.513 293.725C357.481 291.548 355.304 289.516 353.127 287.484C351.095 285.742 348.917 283.565 346.45 282.839C343.982 282.258 341.369 283.419 340.644 286.032C339.918 288.5 340.934 291.403 341.66 293.87C343.256 299.676 345.289 305.337 347.901 310.853C350.804 316.949 354.143 322.901 358.062 328.416C359.659 330.739 363.433 328.562 361.836 326.239C354.288 315.788 348.772 304.031 345.579 291.548C345.289 290.677 344.418 288.5 344.853 287.484C345.434 286.468 347.176 288.064 347.756 288.645C350.224 290.532 352.401 292.709 354.578 294.886C359.078 299.386 362.852 304.321 366.191 309.692C367.642 312.014 371.416 309.837 369.964 307.369Z" fill="black"/>
<path d="M429.912 406.509C432.525 405.638 433.686 409.847 431.073 410.718C417.284 415.363 402.479 421.604 387.673 419.427C385.205 419.137 382.302 418.411 380.851 416.234C379.689 414.492 380.125 412.315 380.996 410.573C383.609 405.638 389.269 402.154 393.914 399.251C400.011 395.332 406.543 391.848 413.22 388.8C417.864 386.768 423.09 384.01 428.316 383.72C431.073 383.575 431.073 387.929 428.316 388.074C428.17 388.074 427.59 388.22 427.88 388.074C428.17 388.074 427.444 388.074 427.444 388.22C427.009 388.365 426.428 388.365 425.993 388.51C424.832 388.8 423.525 389.236 422.364 389.671C419.316 390.687 416.413 391.993 413.655 393.445C407.414 396.348 401.462 399.687 395.656 403.315C393.334 404.912 391.011 406.509 388.834 408.396C387.092 409.847 385.786 411.154 384.77 412.895C384.48 413.331 384.625 413.186 384.625 413.04C384.625 413.186 384.479 413.331 384.479 413.476C384.479 413.621 384.189 414.202 384.479 413.476C384.479 413.621 384.479 413.766 384.479 413.911C384.479 413.911 384.479 413.766 384.479 413.911C384.189 413.621 384.915 414.202 384.479 414.057C384.625 414.202 384.77 414.347 385.06 414.347C385.351 414.492 385.205 414.492 385.205 414.492C385.641 414.637 386.076 414.782 386.657 414.927C389.124 415.508 391.592 415.653 394.06 415.508C406.543 415.363 418.445 410.428 429.912 406.509ZM300.001 97.3355C301.453 100.674 303.05 104.012 304.501 107.351C304.936 108.367 306.533 108.657 307.549 108.077C308.565 107.351 308.855 106.19 308.275 105.028C306.823 101.69 305.227 98.3516 303.775 95.0131C303.34 93.997 301.743 93.7067 300.727 94.2873C299.711 95.0131 299.566 96.1742 300.001 97.3355ZM310.743 94.4324C310.162 93.4164 310.597 92.11 311.468 91.3843C312.484 90.8037 313.936 91.2391 314.516 92.11C316.839 96.0291 318.435 100.529 319.161 105.028C319.306 106.19 318.871 107.351 317.71 107.641C316.694 107.932 315.242 107.206 315.097 106.19C314.807 104.012 314.226 101.98 313.5 99.9482C313.355 99.3676 313.065 98.9321 312.92 98.3515C313.065 98.6418 312.775 98.0612 312.775 98.0612C312.629 97.7709 312.484 97.4806 312.339 97.1903C311.904 96.3194 311.323 95.3033 310.743 94.4324ZM289.986 88.7716C289.405 89.7876 288.099 90.0779 286.938 89.4973C285.921 88.9167 285.631 87.4651 286.212 86.4491C287.954 83.4009 290.421 80.9333 293.469 79.0464C294.485 78.4658 295.792 78.9012 296.518 79.7721C297.098 80.7882 296.663 82.0945 295.792 82.8203C295.211 83.1106 294.776 83.546 294.195 83.9815C294.34 83.8363 294.485 83.6912 294.631 83.6912C293.324 84.7073 292.163 85.8685 291.147 87.1748C291.292 87.0297 291.437 86.8846 291.437 86.7394C290.857 87.4652 290.421 88.191 289.986 88.7716ZM309.001 75.7079C309.291 76.8691 308.71 78.0303 307.549 78.3206C306.533 78.6109 305.082 77.8852 304.937 76.8691C304.501 74.9821 305.952 73.6757 307.694 73.6757C308.565 73.6757 309.581 73.8209 310.597 73.9661C312.629 74.2564 314.807 74.5467 316.839 74.9821C318 75.2724 318.581 76.5788 318.29 77.5949C318 78.7561 316.694 79.3367 315.678 79.0464C314.226 78.7561 312.774 78.4657 311.178 78.1754C311.033 78.1754 311.033 78.1754 311.323 78.1754C311.178 78.1754 311.033 78.1754 311.033 78.1754C310.888 78.1754 310.742 78.1754 310.452 78.1754C310.162 78.1754 309.726 78.0303 309.436 78.0303C309.001 78.0303 308.71 78.0303 308.275 77.8852C308.13 77.8852 307.985 77.8852 307.84 77.8852C307.694 77.8852 307.84 77.8852 308.13 77.8852C308.71 77.74 309.001 77.3045 309.291 76.7239C309.001 76.2884 309.001 75.9982 309.001 75.7079C309.001 75.5628 309.001 75.5628 309.001 75.7079ZM597.852 561.386C589.869 561.676 582.176 558.628 576.08 553.402C569.983 548.032 566.5 540.629 565.629 532.645C564.032 517.985 570.274 503.615 568.532 489.1C567.661 482.278 564.613 476.472 559.533 471.827C554.743 467.327 548.791 464.279 543.13 461.086C537.179 457.892 531.228 454.699 525.857 450.49C519.616 445.554 514.826 439.023 510.326 432.346C502.343 420.588 493.779 406.509 479.264 402.735C477.231 406.944 474.764 411.008 471.861 414.782C460.684 429.443 444.137 439.458 425.993 442.506C426.283 453.247 426.864 464.134 427.735 474.875C429.331 495.051 432.234 515.082 436.008 534.968C438.911 550.064 441.669 568.643 455.023 578.514C457.201 580.11 455.023 583.884 452.846 582.287C445.443 576.917 440.944 568.933 437.895 560.515C434.847 552.096 433.25 543.242 431.654 534.533C429.622 524.227 428.025 513.921 426.573 503.615C423.816 483.584 422.219 463.408 421.784 443.232C421.058 443.087 420.768 442.506 420.622 441.781C418.735 439.603 417.139 437.426 415.832 434.813C412.639 428.572 411.333 421.604 412.204 414.782C413.655 414.347 415.252 413.911 416.703 413.476C415.107 422.33 417.719 431.765 423.67 438.732C423.67 438.732 423.671 438.732 423.816 438.732C428.606 438.007 433.396 436.845 437.895 435.249C454.297 429.152 468.087 416.669 475.635 400.848C475.635 400.557 475.635 400.412 475.635 400.122C474.619 398.38 473.457 396.638 472.296 394.897C466.345 386.042 459.958 377.478 453.862 368.769C451.104 364.85 448.346 360.931 445.734 356.867C443.266 352.948 441.089 348.738 438.331 344.964C432.089 336.255 423.09 328.127 412.784 324.933C407.849 323.337 402.188 324.063 397.108 324.643C391.447 325.369 385.931 326.53 380.415 327.836C374.174 329.288 367.642 330.885 361.691 333.642C359.223 334.804 356.756 336.4 355.304 338.723C354.143 340.755 353.562 343.803 355.159 345.835C358.497 350.48 366.626 347.287 370.69 345.69C376.351 343.513 381.722 340.9 387.673 340.174C392.608 339.594 398.124 340.319 402.188 343.368C403.349 344.239 404.366 345.255 405.091 346.416C409.736 344.964 414.381 343.803 419.171 343.077C421.929 342.642 423.09 346.851 420.332 347.287C411.478 348.593 402.769 351.351 394.64 355.125C387.528 358.609 380.706 362.818 374.754 368.043C371.706 370.656 368.803 373.414 366.191 376.317C363.723 378.93 360.82 382.849 364.884 385.607C366.771 386.913 368.948 386.913 371.126 386.478C384.625 373.414 402.043 364.27 420.622 360.931C423.38 360.35 424.542 364.56 421.784 365.14C412.204 366.882 403.059 370.076 394.495 374.72C386.947 378.785 379.98 383.865 373.738 389.961C370.98 392.574 366.481 396.348 367.061 400.703C367.787 405.493 374.029 404.331 377.077 402.88C381.286 400.993 385.35 398.816 389.56 396.929C393.914 395.042 398.124 393.3 402.623 391.703C411.623 388.365 420.767 385.752 430.202 383.72C432.96 383.139 434.121 387.349 431.364 387.929C419.897 390.397 408.575 393.88 397.688 398.235C392.898 400.122 388.108 402.299 383.463 404.622C379.254 406.799 374.754 409.267 369.819 408.25C365.32 407.38 362.416 403.46 362.852 398.961C363.142 395.913 364.884 393.3 366.916 390.832C364.013 390.397 361.546 389.09 359.659 386.187C357.046 382.123 359.223 377.769 362.126 374.43C365.029 371.092 368.223 367.898 371.561 364.995C380.27 357.593 390.286 351.641 401.027 347.722C397.834 344.384 392.463 343.803 387.963 344.384C381.722 345.109 375.915 348.448 369.964 350.48C364.739 352.222 358.062 353.673 353.272 349.899C348.772 346.271 349.353 339.449 352.691 335.094C356.465 330.159 362.997 328.127 368.658 326.385C375.045 324.353 381.576 322.901 388.108 321.595C393.769 320.579 399.43 319.563 405.236 319.418C410.752 319.272 415.687 320.579 420.622 323.046C431.073 328.272 439.492 337.126 445.588 347.142C450.669 355.706 456.185 363.689 461.991 371.672C468.087 380.236 474.474 388.655 479.844 397.654C480.135 397.8 480.425 398.09 480.715 398.525C497.408 402.59 506.842 418.847 515.987 432.055C520.342 438.442 525.277 444.393 531.518 448.893C537.034 452.812 543.13 455.715 549.082 459.054C554.743 462.247 560.549 465.585 565.048 470.375C569.838 475.456 572.596 481.697 573.467 488.519C575.354 503.035 569.403 517.114 570.564 531.484C571.145 538.597 574.048 545.129 579.418 549.919C584.644 554.563 591.466 557.176 598.433 556.886C600.611 557.031 600.61 561.386 597.852 561.386ZM422.654 280.517C429.186 286.178 435.428 292.129 441.524 298.225C443.556 300.258 446.605 297.064 444.572 295.177C423.38 274.13 400.301 255.261 373.448 242.052C366.045 238.423 358.352 235.23 350.659 232.327C349.208 211.57 348.482 190.813 347.611 170.202C347.611 168.605 347.466 167.008 347.466 165.412C361.11 161.928 374.899 158.299 388.544 154.816C389.85 154.525 391.302 154.09 392.608 153.8C394.35 153.364 394.495 151.332 393.624 150.171C382.883 136.817 372.432 123.463 361.836 109.964C356.175 102.851 350.659 95.7388 344.998 88.6264C339.773 82.0945 334.838 74.9821 328.741 69.1761C324.822 65.4021 320.613 62.2087 315.823 59.596C319.016 58.8702 322.5 57.709 325.984 55.6769C335.273 50.1611 344.853 27.2272 333.096 11.2605C312.339 40.436 293.615 19.0987 263.713 33.3236C240.634 44.21 241.505 87.1748 251.521 108.222C244.553 107.786 237.441 110.109 232.506 115.044C224.232 123.318 223.216 137.543 230.328 146.832C234.102 151.913 240.054 154.961 246.295 155.977C236.715 178.766 226.264 201.264 215.378 223.472C215.378 223.472 215.378 223.472 215.233 223.472C185.041 236.826 154.559 249.6 126.109 266.437C99.8369 281.968 75.1611 300.838 54.985 323.917C43.9535 336.546 34.3736 350.335 26.8257 365.286C25.5193 367.753 29.2934 369.93 30.5998 367.463C43.9538 340.9 63.8395 318.402 86.4832 299.387C110.869 279.065 138.448 263.389 167.042 249.745C183.154 242.052 199.556 235.084 215.958 227.827C215.958 227.827 215.958 227.827 216.103 227.827C215.813 228.698 216.104 229.569 217.12 230.004C249.198 243.794 284.906 248.438 319.452 243.358C329.177 241.907 338.757 239.729 348.047 236.826C348.337 236.681 348.627 236.536 348.772 236.391C362.417 241.471 375.77 247.568 388.254 255.115C400.446 262.373 411.913 271.082 422.654 280.517ZM246.585 235.375C237.296 233.052 228.151 230.004 219.297 226.23C219.152 226.23 219.007 226.085 218.862 226.085C230.183 203.006 240.925 179.782 250.795 156.122C254.569 155.977 258.197 155.106 261.536 153.219C262.552 152.638 262.988 151.332 262.407 150.316C261.826 149.3 260.52 148.864 259.504 149.445C251.376 154.09 239.618 151.622 233.812 144.219C228.151 136.672 228.877 124.769 235.554 118.092C242.231 111.415 254.133 110.689 261.681 116.35C262.697 117.076 264.003 116.931 264.729 115.915C265.455 114.899 265.31 113.592 264.294 112.867C263.713 112.431 263.133 112.141 262.697 111.706L266.326 111.851C281.422 102.561 278.954 87.7554 282.873 76.7239C288.534 60.9024 296.953 61.1927 307.114 60.467C322.21 65.1118 331.644 78.4658 340.934 90.2231C351.82 103.867 362.416 117.657 373.303 131.446C378.238 137.688 383.173 143.929 388.108 150.171C377.657 152.929 367.061 155.687 356.61 158.444C352.546 159.46 348.482 160.476 344.418 161.493C343.547 161.783 342.821 162.654 342.821 163.525C343.547 181.233 344.273 198.942 345.144 216.65C345.434 221.876 345.724 227.246 346.014 232.472C314.081 242.632 279.244 243.648 246.585 235.375ZM265.455 132.172C266.181 133.043 266.326 134.349 265.455 135.22C264.729 135.946 263.133 136.091 262.407 135.22C257.907 129.559 250.94 126.221 243.682 126.366C240.924 126.366 240.924 122.011 243.682 122.011C251.956 121.866 260.084 125.64 265.455 132.172ZM288.825 193.281C287.373 195.458 285.051 196.91 282.438 197.345C277.503 198.071 272.567 195.748 269.81 191.539C266.616 186.749 266.326 180.507 266.181 174.847C266.181 172.089 270.535 172.089 270.535 174.847C270.68 180.362 270.68 187.039 274.89 190.958C276.196 192.265 278.664 192.99 280.406 193.136C280.696 193.136 280.841 193.136 281.131 193.136C281.277 193.136 281.422 193.136 281.567 193.136C281.857 193.136 282.148 192.99 282.438 192.99L283.019 192.845C284.035 192.41 284.47 191.974 284.906 191.249C285.486 190.233 286.792 189.797 287.954 190.523C288.97 190.958 289.405 192.265 288.825 193.281ZM225.684 296.919C221.184 293.435 215.087 291.839 209.717 290.242C204.056 288.5 198.25 287.339 192.444 286.323C187.364 285.307 182.138 284.436 176.912 284.291C171.977 284.146 167.478 284.872 162.978 286.904C158.333 288.936 154.124 291.694 150.205 295.032C146.14 298.516 142.512 302.58 139.318 306.935C136.27 311.144 133.948 315.789 131.19 320.143C124.948 329.869 118.126 339.303 111.739 348.883C110.433 350.916 109.127 352.948 107.965 354.98C104.191 353.819 99.837 353.819 96.063 354.254C87.4991 355.27 79.2253 359.044 73.129 365.14C65.8714 372.253 63.1136 381.978 60.9364 391.703C58.9042 400.993 56.1464 409.702 51.5015 417.976C47.147 425.669 41.9216 432.781 36.4059 439.748C25.3743 453.683 13.0363 466.892 5.05296 483.004C3.16599 486.923 1.42431 490.987 0.117941 495.051C-0.75297 497.664 3.45629 498.825 4.3272 496.212C14.9233 462.537 47.4374 441.781 60.3559 409.267C63.9847 400.122 65.0006 390.252 68.194 380.962C71.2421 372.543 76.9031 365.866 84.8864 361.802C88.6603 359.915 92.7247 358.754 96.9341 358.318C99.5468 358.028 102.885 358.028 105.498 358.609C102.45 364.269 101.143 370.656 103.611 376.898C106.078 382.994 111.014 387.639 116.53 390.832C122.19 394.171 128.432 396.203 134.964 397.364C141.931 398.67 149.044 399.396 156.156 398.38C161.672 397.654 167.623 395.767 170.381 390.977C171.252 391.413 171.977 391.994 172.703 392.574C179.525 398.38 184.315 406.944 184.315 416.089C184.17 424.943 179.815 433.797 174.009 440.329C169.074 445.99 162.543 449.764 156.156 453.538C146.866 458.908 131.916 466.021 133.948 479.085C135.399 487.794 143.818 492.874 146.431 501.148C149.624 511.163 142.221 520.743 135.544 527.42C131.625 526.549 126.98 527.13 123.932 530.178C121.029 533.081 120.303 538.016 123.787 540.774C124.803 541.645 125.819 541.645 126.835 540.774C130.028 538.161 133.512 535.403 136.705 532.5C136.851 532.645 137.141 532.646 137.286 532.791C144.979 537.145 139.754 546.58 136.561 552.096C135.109 554.563 138.883 556.741 140.334 554.273C143.092 549.628 146.14 544.548 145.705 538.887C145.415 534.823 143.237 531.484 140.044 529.307C143.528 525.823 146.576 521.904 148.753 517.55C150.93 513.05 152.237 507.97 151.511 502.889C150.785 497.664 147.737 493.6 144.689 489.535C141.06 484.745 136.415 478.649 139.318 472.553C141.931 467.182 147.882 463.844 152.672 460.795C158.769 457.167 165.01 453.973 170.671 449.619C178.074 443.958 183.735 436.265 186.783 427.556C189.831 418.847 189.396 409.557 185.186 401.283C183.009 396.929 179.815 393.155 176.187 389.961C175.171 389.09 174.155 388.074 172.848 387.494C172.268 387.204 171.832 386.913 171.252 386.768C171.397 385.317 171.252 383.865 170.961 382.559C176.768 384.01 182.573 385.026 188.525 384.736C192.734 384.591 202.605 383.72 200.427 376.898C199.702 374.72 198.105 372.833 196.508 371.382C194.186 369.205 191.718 367.318 189.105 365.576C188.67 365.286 188.089 364.995 187.654 364.56C190.121 365.576 192.589 366.737 195.056 367.898C199.411 369.93 203.911 373.124 208.991 373.269C213.201 373.414 217.41 370.946 218.281 366.592C219.152 362.383 216.975 358.609 214.217 355.56C216.249 355.27 218.281 354.544 219.878 352.948C227.716 345.835 216.974 336.546 211.749 331.756C205.362 325.949 198.105 320.869 190.267 316.95C186.928 315.353 183.59 313.902 180.251 312.595C181.993 310.708 184.461 309.692 187.364 309.257C192.589 308.531 197.669 310.128 202.459 312.015C207.83 314.047 213.201 316.805 219.152 317.095C224.087 317.386 229.312 315.353 230.764 310.128C232.361 305.048 229.603 299.967 225.684 296.919ZM126.109 535.984C125.964 534.678 126.98 533.226 128.287 532.5C129.158 531.92 130.319 531.63 131.335 531.484C129.593 533.081 127.851 534.533 126.109 535.984ZM215.813 312.015C210.297 310.563 205.072 307.951 199.702 306.209C191.863 303.741 181.122 303.886 175.896 310.999C171.397 309.547 166.607 308.386 161.962 307.66C159.204 307.225 158.043 311.434 160.801 311.87C176.622 314.337 191.718 320.869 204.201 330.739C207.249 333.207 210.298 335.82 213.055 338.723C215.233 340.9 220.023 344.964 217.99 348.448C216.394 351.351 213.055 351.496 210.007 351.061C204.201 345.4 197.524 340.465 190.412 336.4C181.122 331.175 170.962 327.401 160.511 325.514C157.753 324.933 156.591 329.143 159.349 329.723C176.332 332.917 192.299 340.755 204.927 352.367C206.523 353.819 207.975 355.27 209.427 356.722C211.023 358.463 212.91 360.205 213.636 362.528C215.233 366.882 211.459 369.495 207.394 368.769C205.072 368.334 203.04 367.173 201.008 366.156C198.976 365.14 196.798 364.124 194.766 363.108C190.412 361.076 186.057 359.189 181.558 357.593C174.59 354.835 167.333 352.512 160.075 350.625C159.93 350.625 159.785 350.48 159.494 350.48C157.172 349.609 154.85 348.883 152.382 348.593C152.237 348.593 151.947 348.593 151.801 348.593C151.511 348.593 151.221 348.448 150.93 348.303C148.173 347.722 147.011 351.932 149.769 352.512C152.817 353.093 155.72 353.819 158.768 354.689C160.801 355.415 162.978 356.286 165.01 357.302C171.106 360.06 177.203 363.253 182.864 366.882C185.477 368.479 187.944 370.221 190.412 372.108C191.428 372.833 192.444 373.704 193.315 374.575C193.895 375.156 195.057 376.317 195.202 376.607C195.492 376.898 195.637 377.333 195.927 377.624C195.927 377.624 196.073 377.769 196.073 377.914C196.073 378.059 196.218 378.204 196.218 378.349C196.218 378.349 196.218 378.349 196.218 378.494C196.218 378.494 196.218 378.64 196.218 378.785L196.073 378.93C195.928 379.075 195.492 379.22 195.492 379.22C194.04 379.801 192.444 379.946 190.847 380.091C177.058 381.397 163.559 375.591 150.93 371.237C148.318 370.366 147.156 374.575 149.769 375.446C155.14 377.333 160.656 379.22 166.171 380.962C166.317 381.252 166.316 381.543 166.462 381.833C167.042 384.01 167.333 386.333 166.462 388.51C166.316 388.945 166.317 389.236 166.317 389.526C164.139 392.429 159.639 393.59 156.301 394.026C150.205 394.897 143.963 394.461 137.867 393.445C127.126 391.703 114.643 387.494 108.836 377.478C105.062 370.946 106.804 363.979 110.868 358.173C116.82 348.448 123.497 339.158 129.883 329.723C132.641 325.659 135.399 321.45 137.867 317.095C140.48 312.596 143.237 308.241 146.576 304.322C149.914 300.548 153.543 297.209 157.752 294.451C161.672 291.984 166.026 289.371 170.671 288.645C175.461 287.92 180.542 288.5 185.186 289.226C190.267 289.952 195.202 290.968 200.282 292.129C206.088 293.435 211.894 295.032 217.41 297.209C221.765 298.951 226.845 301.999 226.7 307.37C226.845 313.321 219.877 313.176 215.813 312.015Z" fill="black"/>
<path d="M89.0957 152.203C86.9184 150.607 89.0957 146.833 91.273 148.429C106.659 159.896 122.045 171.509 137.577 182.976C139.754 184.572 137.577 188.346 135.399 186.75C120.013 175.137 104.482 163.67 89.0957 152.203ZM136.561 153.8C144.834 161.493 153.108 169.186 161.527 176.879C163.559 178.766 166.607 175.718 164.575 173.831C156.301 166.138 148.027 158.445 139.609 150.752C137.576 148.865 134.528 151.913 136.561 153.8ZM463.878 209.829C477.812 199.523 491.892 189.217 505.826 178.911C508.004 177.315 505.826 173.541 503.649 175.137C489.715 185.443 475.635 195.749 461.7 206.055C459.378 207.797 461.555 211.57 463.878 209.829ZM478.828 224.924C485.505 221.876 492.182 218.973 498.859 215.925C499.875 215.49 500.165 213.893 499.585 212.877C499.004 211.716 497.698 211.571 496.537 212.151C489.86 215.199 483.183 218.102 476.506 221.15C475.49 221.586 475.2 223.183 475.78 224.199C476.506 225.215 477.812 225.36 478.828 224.924ZM106.224 197.926C109.562 199.523 112.901 201.265 116.239 202.861C117.255 203.442 118.707 203.152 119.287 202.136C119.868 201.12 119.578 199.668 118.562 199.087C115.223 197.491 111.885 195.749 108.546 194.152C107.53 193.572 106.079 193.862 105.498 194.878C104.917 195.894 105.062 197.346 106.224 197.926Z" fill="black"/>
</svg>
