<svg width="600" height="500" viewBox="0 0 600 500" fill="none" xmlns="http://www.w3.org/2000/svg">
<path d="M141.425 294.16C126.602 273.627 111.559 252.875 101.897 229.487C92.2344 206.1 88.1718 179.418 95.8579 155.372C104.422 128.47 128.03 106.949 155.59 100.8C168.107 98.0554 182.93 97.3966 190.616 87.0754C193.471 83.2323 194.898 78.5109 196.216 73.7895C200.937 56.4409 206.318 36.3474 222.788 28.9907C240.685 20.9752 260.559 32.7239 278.237 41.2884C298.441 51.0607 320.401 56.9899 342.8 58.6369C352.792 59.4055 362.894 59.2957 372.446 62.1506C381.999 65.0054 391.113 71.7032 393.858 81.2559C396.932 92.3458 391.003 104.753 394.846 115.514C397.92 124.078 406.594 129.568 415.378 132.313C424.053 135.058 433.386 135.937 442.06 139.011C466.326 147.576 481.698 172.94 484.443 198.523C487.188 224.107 479.283 249.69 468.742 273.078C463.032 285.705 456.554 298.003 447.77 308.763C415.159 349.06 355.427 360.479 305.687 345.766C293.829 342.253 282.19 337.421 270.002 335.555C256.387 333.469 242.552 335.116 228.717 334.786C197.863 334.127 167.338 323.257 142.853 304.371" fill="#16202C"/>
<path d="M516.726 346.752C515.189 341.92 512.884 337.419 510.248 333.246C507.393 328.744 503.989 324.242 502.672 318.972C501.135 313.262 502.891 307.443 504.319 301.843C505.746 296.243 506.515 290.863 505.636 285.153C503.77 273.405 496.194 263.413 488.727 254.409C490.704 252.323 491.802 249.688 492.021 246.723C492.241 243.429 491.472 240.135 491.582 236.841C491.582 236.292 491.362 235.853 491.143 235.523C492.57 229.923 493.888 224.324 495.315 218.724C496.523 214.002 497.95 209.171 498.499 204.23C500.037 205.438 502.013 206.206 503.989 206.206C510.028 206.206 513.981 198.85 515.958 194.019C518.483 187.98 519.142 181.392 519.032 174.913C518.923 171.18 518.593 167.557 518.264 163.823C517.934 160.969 518.044 157.565 516.177 155.149C515.299 154.051 514.091 153.282 512.773 152.843C512.334 151.416 511.676 150.098 510.687 148.89C508.491 146.255 504.429 144.828 501.354 146.804C500.146 143.071 497.841 139.887 493.558 139.448C488.947 139.008 485.323 142.083 483.567 146.036C480.492 141.424 475.771 138.24 470.061 138.35C464.132 138.459 458.422 141.534 454.25 145.596C449.528 150.208 446.344 156.357 444.148 162.506C441.952 168.545 440.415 174.913 439.646 181.392C438.329 193.14 439.427 205.987 433.058 216.418C432.399 217.516 431.631 218.724 430.862 219.822C426.251 224.873 423.505 231.571 423.286 238.378C423.176 241.892 424.823 245.954 421.968 248.809C419.662 251.115 416.588 252.323 414.502 254.848C409.341 260.997 410.11 269.342 410.22 276.808C410.329 281.091 409.89 285.153 408.463 289.106C407.145 292.839 405.169 296.353 403.522 299.976C400.886 305.576 399.24 311.506 398.691 317.545C392.542 305.027 384.417 293.608 374.644 283.616C364.872 273.624 353.782 265.06 342.143 257.374C337.751 254.409 333.249 251.444 328.528 248.809C328.528 248.15 328.198 247.601 327.759 247.272C326.112 238.378 324.465 229.484 322.818 220.59C320.951 210.379 318.975 200.167 317.108 189.956C316.779 188.309 316.45 186.662 316.12 184.905C325.673 179.525 335.226 174.145 344.669 168.764C345.986 167.996 345.767 166.459 344.669 165.69C335.116 158.663 325.673 151.526 316.12 144.389C311.179 140.655 306.128 136.812 301.078 133.079C296.246 129.456 291.525 125.503 286.255 122.538C282.851 120.562 279.227 119.025 275.494 118.146C277.47 117.048 279.447 115.731 281.313 113.864C286.584 108.484 288.999 91.1352 278.129 82.4609C269.345 106.068 252.765 94.9782 234.868 110.021C221.252 121.55 229.378 150.318 240.028 162.945C235.197 163.933 230.805 166.788 228.28 171.07C224.107 178.317 226.084 188.309 232.672 193.47C235.527 195.775 239.15 196.873 242.773 196.983C240.358 214.332 236.734 231.351 233.33 248.48C223.119 251.884 212.907 255.397 203.794 261.217C194.351 267.256 185.677 274.283 177.442 281.859C173.599 285.373 169.865 288.887 166.132 292.51C164.266 283.616 159.105 275.271 150.98 271.209C151.529 270.22 150.87 269.122 149.992 268.683C150.98 263.742 150.65 258.691 148.784 253.86C146.698 248.37 143.184 243.649 140.11 238.817C133.521 228.496 134.51 215.54 132.972 203.901C132.094 197.532 130.447 191.164 128.251 185.125C125.945 178.976 122.761 172.827 117.93 168.325C113.648 164.372 107.938 161.298 102.009 161.298C96.299 161.298 91.5775 164.482 88.6129 169.204C86.8561 165.251 83.2327 162.286 78.621 162.725C74.3388 163.165 72.1428 166.459 70.935 170.192C67.8605 168.215 63.7979 169.753 61.6019 172.388C60.6137 173.596 59.9548 174.913 59.6254 176.45C58.3078 176.89 57.1 177.658 56.3314 178.756C54.5746 181.172 54.6845 184.576 54.3551 187.431C54.0257 191.164 53.6963 194.787 53.6963 198.52C53.6963 204.999 54.4649 211.587 57.1001 217.626C59.1863 222.457 63.2489 229.704 69.288 229.704C71.2644 229.704 73.2408 228.935 74.778 227.727C75.327 232.669 76.8642 237.5 78.072 242.221C79.4994 247.821 81.0366 253.311 82.4641 258.911C79.0602 262.754 78.7309 268.683 79.6093 273.624C80.1583 276.699 81.2563 279.773 81.2563 282.848C81.2563 286.032 79.4995 288.887 77.8525 291.522C74.5585 297.122 72.4722 303.38 74.1192 309.858C74.4486 311.396 75.1074 312.823 75.876 314.141C76.2054 314.8 76.6446 315.458 76.8642 316.117C77.1936 317.105 76.6446 317.215 75.9858 317.654C73.4604 319.082 71.3742 321.168 69.837 323.584C68.2997 325.999 67.4213 328.744 67.0919 331.489C66.7625 334.564 67.4213 337.528 68.2997 340.493C69.2879 343.787 70.6056 347.191 70.8252 350.595C71.0448 354.218 70.3859 357.841 69.5075 361.465C68.0801 367.724 66.6527 373.872 66.6527 380.351C66.6527 386.06 67.5312 391.88 69.1782 397.37L72.9114 397.15C73.131 397.919 73.3506 398.578 73.68 399.346C73.68 399.346 196.547 434.263 262.867 412.632C329.187 390.892 430.313 331.709 514.97 374.092C517.495 375.3 522.765 365.528 516.726 346.752Z" fill="#111217"/>
<path d="M207.307 166.237L192.704 181.06C181.834 192.15 164.156 192.26 153.066 181.389L142.305 170.848C131.216 159.978 131.106 142.3 141.976 131.21L156.58 116.277" fill="#CB730B"/>
<path d="M207.391 166.217C211.345 162.196 203.192 147.769 189.181 133.994C175.17 120.219 160.607 112.312 156.653 116.333C152.699 120.355 160.852 134.782 174.863 148.557C188.873 162.332 203.437 170.239 207.391 166.217Z" fill="#111217"/>
<path d="M54.793 189.846C56.8792 190.725 56.0008 194.238 53.8047 193.36C48.4245 191.164 43.154 188.529 38.2129 185.345C20.8644 174.255 7.35896 157.565 0.112108 138.24C-0.656498 136.044 2.74728 135.166 3.62568 137.252C5.6021 142.412 8.01782 147.353 10.8726 152.185C21.0841 168.984 36.566 182.49 54.793 189.846ZM147.684 176.011C144.939 178.098 142.194 180.184 139.12 181.831C135.606 183.807 131.873 184.905 127.811 185.345C120.454 186.113 112.548 185.564 106.18 189.956C104.313 191.274 106.07 194.458 108.046 193.031C114.415 188.529 122.76 189.627 130.116 188.639C137.912 187.541 144.171 183.149 150.21 178.427L147.684 176.011ZM208.624 167.447C211.149 164.812 210.491 159.761 206.538 152.844C203.024 146.585 197.314 139.448 190.397 132.64C177.111 119.574 160.861 109.362 155.261 115.072C149.661 120.672 160.202 136.813 173.488 149.879C184.138 160.42 196.875 169.094 204.232 169.094C206.099 169.094 207.526 168.545 208.624 167.447ZM187.872 135.275C194.569 141.863 200.059 148.671 203.353 154.6C206.538 160.31 206.977 163.933 205.989 164.922C203.573 167.337 190.726 161.737 176.013 147.244C161.3 132.75 155.48 120.013 157.896 117.597C158.225 117.268 158.884 117.048 159.653 117.048C164.264 117.048 175.354 122.978 187.872 135.275ZM172.06 139.118C176.452 143.401 180.734 147.683 185.127 151.965C186.774 153.612 189.299 151.087 187.652 149.44C183.26 145.157 178.978 140.875 174.586 136.593C172.939 134.946 170.413 137.471 172.06 139.118ZM176.233 133.079C180.625 137.362 184.907 141.644 189.299 145.926C190.946 147.573 193.471 145.048 191.824 143.401C187.432 139.118 183.15 134.836 178.758 130.554C177.111 128.907 174.586 131.432 176.233 133.079ZM151.308 133.299C157.676 144.279 165.033 155.589 176.562 161.737C178.648 162.835 180.405 159.761 178.429 158.663C167.449 152.844 160.531 141.973 154.492 131.542C153.284 129.456 150.21 131.323 151.308 133.299Z" fill="#DCDCDC"/>
<path d="M410.66 97.6113L429.546 106.395C443.6 112.874 449.749 129.563 443.271 143.618L436.902 157.343C430.424 171.397 413.734 177.546 399.68 171.068L380.794 162.284" fill="#006C8F"/>
<path d="M410.661 97.6116C407.257 96.0744 401.218 101.125 395.179 109.909L380.795 103.321C379.148 102.553 377.172 103.321 376.403 104.968L375.086 107.823C374.317 109.47 375.086 111.447 376.733 112.215L390.128 118.254C388.921 120.56 387.603 122.976 386.505 125.501C386.395 125.721 386.285 126.05 386.176 126.27L371.353 119.572C369.706 118.803 367.729 119.572 366.961 121.219L365.643 124.074C364.874 125.721 365.643 127.697 367.29 128.466L382.442 135.383C377.611 148.998 376.733 160.198 380.905 162.065C386.066 164.48 396.936 151.853 405.171 134.065C413.296 116.388 415.822 100.027 410.661 97.6116Z" fill="#111217"/>
<path d="M411.426 95.9664C408.132 94.4292 403.52 96.8448 398.359 102.884C397.151 104.311 395.834 105.958 394.626 107.715L381.56 101.786C380.352 101.237 378.925 101.127 377.607 101.676C376.289 102.115 375.301 103.103 374.752 104.311L373.435 107.166C372.886 108.374 372.776 109.801 373.325 111.119C373.764 112.437 374.752 113.425 375.96 113.974L387.599 119.244C386.72 120.781 385.952 122.428 385.183 124.075L372.007 118.146C370.799 117.597 369.372 117.487 368.054 118.036C366.737 118.476 365.748 119.464 365.199 120.672L363.882 123.526C363.333 124.734 363.223 126.162 363.772 127.479C364.211 128.797 365.2 129.785 366.407 130.334L380.133 136.593C378.595 141.204 377.387 145.596 376.838 149.549C375.631 157.455 376.729 162.396 380.023 163.933C380.681 164.263 381.45 164.372 382.109 164.372C389.356 164.372 399.567 150.318 406.594 135.056C414.5 118.146 418.563 99.2605 411.426 95.9664ZM376.729 109.801C376.619 109.472 376.619 109.033 376.729 108.594L378.046 105.739C378.266 105.19 378.815 104.86 379.474 104.86C379.693 104.86 379.913 104.86 380.133 104.97L401.434 114.633L398.908 120.232L377.607 110.57C377.168 110.46 376.838 110.131 376.729 109.801ZM367.176 126.162C367.066 125.832 367.066 125.393 367.176 124.954L368.494 122.099C368.713 121.77 368.933 121.44 369.372 121.33C369.592 121.221 369.701 121.221 369.921 121.221C370.141 121.221 370.36 121.221 370.58 121.33L391.881 130.993L389.356 136.593L368.054 126.93C367.615 126.82 367.286 126.491 367.176 126.162ZM403.41 133.518C394.736 152.184 384.744 162.067 381.56 160.639C380.242 160.09 379.364 156.576 380.352 150.098C380.901 146.475 381.999 142.412 383.427 138.13L391.003 141.534L396.603 129.346L388.477 125.613C389.246 123.966 390.124 122.319 390.893 120.781L400.555 125.173L406.155 112.986L398.03 109.252C399.018 107.825 400.116 106.507 401.104 105.3C404.838 101.017 407.802 99.2605 409.339 99.2605C409.559 99.2605 409.779 99.2605 409.998 99.3703C413.073 100.688 412.085 114.742 403.41 133.518ZM417.574 109.252C417.574 106.947 421.198 106.947 421.198 109.252C421.308 129.016 413.292 148.561 399.238 162.506C397.591 164.153 395.065 161.627 396.712 159.98C410.108 146.585 417.684 128.138 417.574 109.252ZM440.633 153.941C438.327 153.941 438.327 150.318 440.633 150.318C446.342 150.318 450.625 154.271 453.919 158.443C457.103 162.506 460.177 167.557 465.667 168.655C467.973 169.094 466.985 172.607 464.679 172.168C459.299 171.18 455.675 166.898 452.601 162.725C449.636 158.773 446.123 153.941 440.633 153.941ZM518.042 176.121C515.736 176.231 515.736 172.607 518.042 172.498C524.63 172.058 531.109 170.741 537.367 168.764C560.316 161.408 579.092 145.487 596.879 129.895C598.636 128.358 601.162 130.883 599.405 132.42C594.025 137.142 588.754 141.753 583.154 146.255C564.488 161.408 542.747 174.584 518.042 176.121Z" fill="#DCDCDC"/>
<path d="M257.045 483.235C257.045 492.239 249.799 499.486 240.795 499.486C231.791 499.486 224.544 492.239 224.544 483.235C224.544 474.232 231.791 466.985 240.795 466.985C249.799 466.875 257.045 474.232 257.045 483.235ZM283.837 466.875C274.833 466.875 267.586 474.122 267.586 483.126C267.586 492.129 274.833 499.376 283.837 499.376C292.841 499.376 300.087 492.129 300.087 483.126C300.087 474.232 292.841 466.875 283.837 466.875ZM283.837 466.875C274.833 466.875 267.586 474.122 267.586 483.126C267.586 492.129 274.833 499.376 283.837 499.376C292.841 499.376 300.087 492.129 300.087 483.126C300.087 474.232 292.841 466.875 283.837 466.875ZM329.843 466.875C320.84 466.875 313.593 474.122 313.593 483.126C313.593 492.129 320.84 499.376 329.843 499.376C338.847 499.376 346.094 492.129 346.094 483.126C346.094 474.232 338.847 466.875 329.843 466.875Z" fill="#16202C"/>
<path d="M297.67 205.327C298.329 205.985 298.329 207.193 297.67 207.852C296.902 208.511 296.243 209.279 295.584 210.048C295.475 210.158 295.474 210.268 295.365 210.268C295.365 210.268 295.365 210.377 295.255 210.377C295.145 210.597 294.925 210.817 294.816 210.926C294.486 211.366 294.267 211.695 294.047 212.134C293.498 213.013 293.059 213.891 292.62 214.769C292.51 214.879 292.51 214.989 292.51 215.099C292.51 215.099 292.51 215.099 292.51 215.209C292.4 215.428 292.29 215.648 292.18 215.977C291.961 216.416 291.851 216.856 291.741 217.405C291.412 218.393 290.534 218.942 289.545 218.722C288.557 218.503 288.008 217.405 288.228 216.526C289.545 212.244 291.851 208.401 295.145 205.436C295.804 204.558 296.902 204.558 297.67 205.327ZM73.8963 399.345C77.6295 409.886 84.547 419.438 93.5507 425.917C95.4173 427.234 93.6605 430.418 91.6841 428.991C80.9236 421.195 73.1277 409.995 69.3945 397.258C67.7475 391.768 66.8692 385.949 66.8692 380.239C66.8692 373.761 68.2965 367.612 69.7239 361.354C70.6024 357.84 71.2611 354.217 71.0415 350.483C70.8219 346.97 69.5044 343.676 68.5162 340.382C67.6378 337.417 66.9788 334.452 67.3082 331.378C67.6377 328.523 68.5161 325.778 70.0533 323.472C71.5905 321.057 73.6768 318.97 76.2022 317.543C76.9708 317.104 77.41 316.994 77.0806 316.006C76.8609 315.347 76.4217 314.688 76.0923 314.029C75.3237 312.712 74.7747 311.284 74.3355 309.747C72.6885 303.269 74.665 297.01 78.0688 291.41C79.7158 288.775 81.4726 286.03 81.4726 282.736C81.4726 279.552 80.3746 276.587 79.8256 273.513C78.9472 268.572 79.1667 262.643 82.6804 258.8C81.253 253.2 79.7157 247.71 78.2883 242.11C77.0805 237.388 75.5433 232.557 74.9943 227.616C73.4571 228.824 71.4807 229.593 69.5043 229.593C63.4652 229.593 59.4026 222.346 57.3164 217.514C54.791 211.475 53.9126 204.887 53.9126 198.409C53.9126 194.676 54.242 191.052 54.5714 187.319C54.791 184.464 54.791 181.061 56.5478 178.645C57.4263 177.547 58.5243 176.778 59.8419 176.339C60.2811 174.912 60.83 173.484 61.8182 172.277C64.0142 169.641 68.0769 168.104 71.1513 170.08C72.3591 166.347 74.5551 163.053 78.8373 162.614C83.449 162.175 87.0725 165.139 88.8293 169.092C91.7939 164.371 96.5153 161.187 102.225 161.187C108.154 161.187 113.864 164.261 118.146 168.214C122.977 172.716 126.162 178.865 128.467 185.013C130.773 191.052 132.42 197.421 133.189 203.789C134.726 215.538 133.738 228.385 140.326 238.706C143.4 243.647 146.914 248.369 149 253.749C150.867 258.58 151.086 263.631 150.208 268.572C151.086 269.011 151.745 270.109 151.196 271.097C159.431 275.16 164.592 283.505 166.349 292.399C170.082 288.775 173.815 285.152 177.658 281.748C185.893 274.282 194.567 267.144 204.01 261.105C213.124 255.286 223.335 251.772 233.547 248.368C236.841 231.24 240.574 214.22 242.99 196.872C239.366 196.762 235.743 195.664 232.888 193.358C226.3 188.198 224.324 178.206 228.496 170.959C231.021 166.677 235.413 163.822 240.245 162.834C229.704 150.207 221.469 121.439 235.084 109.91C252.872 94.8669 269.561 105.957 278.346 82.3496C289.326 91.0239 286.91 108.372 281.53 113.753C279.663 115.619 277.687 117.047 275.71 118.035C279.444 118.913 283.067 120.451 286.471 122.427C291.741 125.392 296.463 129.344 301.294 132.968C306.345 136.701 311.286 140.434 316.337 144.277C325.78 151.414 335.222 158.551 344.885 165.579C345.983 166.347 346.202 167.994 344.885 168.653C335.332 174.033 325.889 179.523 316.337 184.794C316.666 186.441 316.995 188.088 317.325 189.845C319.191 200.056 321.168 210.268 323.035 220.479C324.682 229.373 326.329 238.267 327.976 247.161C328.415 247.49 328.854 248.039 328.744 248.698C333.356 251.333 337.858 254.298 342.359 257.262C353.998 264.948 365.088 273.513 374.861 283.505C384.633 293.497 392.758 304.916 398.907 317.433C399.456 311.394 401.103 305.465 403.738 299.865C405.385 296.242 407.362 292.728 408.679 288.995C410.107 284.932 410.546 280.979 410.436 276.697C410.326 269.231 409.558 260.886 414.718 254.737C416.805 252.212 419.879 251.004 422.185 248.698C425.039 245.953 423.393 241.78 423.502 238.267C423.612 231.459 426.357 224.761 431.079 219.71C431.847 218.612 432.506 217.405 433.275 216.307C439.643 205.876 438.545 193.029 439.863 181.28C440.631 174.912 442.169 168.433 444.365 162.394C446.561 156.246 449.745 150.097 454.466 145.485C458.639 141.422 464.348 138.348 470.277 138.238C475.987 138.128 480.708 141.313 483.783 145.924C485.54 141.971 489.053 138.897 493.775 139.336C498.057 139.666 500.363 142.96 501.571 146.693C504.645 144.716 508.708 146.144 510.904 148.779C511.892 149.987 512.551 151.305 512.99 152.732C514.308 153.061 515.515 153.83 516.394 155.038C518.151 157.453 518.151 160.857 518.48 163.712C518.919 167.445 519.249 171.069 519.249 174.802C519.358 181.28 518.59 187.868 516.174 193.907C514.198 198.739 510.245 206.095 504.206 206.095C502.23 206.095 500.253 205.327 498.716 204.119C498.167 209.06 496.739 213.891 495.532 218.612C494.104 224.212 492.786 229.812 491.359 235.412C491.688 235.741 491.908 236.071 491.798 236.73C491.689 240.024 492.457 243.318 492.238 246.612C492.128 249.576 491.03 252.212 488.944 254.298C496.41 263.301 503.986 273.293 505.853 285.042C506.731 290.752 505.963 296.132 504.535 301.732C503.108 307.332 501.351 313.151 502.888 318.861C504.316 324.131 507.61 328.633 510.465 333.135C513.21 337.417 515.406 341.809 516.943 346.64C523.092 365.526 518.919 387.267 506.073 402.419C504.535 404.176 502.01 401.651 503.547 399.894C510.465 391.768 514.637 381.447 515.845 370.906C516.833 361.463 515.625 351.801 511.782 343.127C507.72 333.794 499.265 325.998 498.716 315.347C498.387 309.637 500.253 304.147 501.571 298.657C502.778 293.277 503.108 288.007 501.681 282.736C499.155 272.964 492.786 264.619 486.418 257.043C486.308 257.043 486.199 257.153 486.089 257.153C480.709 259.019 474.999 259.568 469.399 259.568C463.799 259.568 458.09 259.239 452.6 258.47C443.267 257.262 434.482 253.419 427.236 247.49C426.686 249.467 425.479 251.223 423.612 252.651C420.977 254.737 418.122 256.055 416.365 259.019C412.412 265.827 414.608 274.172 414.059 281.528C413.51 289.544 409.338 296.242 406.263 303.489C403.189 310.516 401.981 318.092 402.42 325.668C402.53 325.998 402.64 326.437 402.53 326.657C402.53 327.206 402.64 327.755 402.64 328.413C402.86 330.719 399.346 330.719 399.017 328.413C398.907 327.755 398.907 327.096 398.797 326.437C398.029 324.57 397.26 322.704 396.381 320.947C389.793 306.783 380.351 294.265 369.151 283.395C359.928 274.391 349.606 266.705 338.846 259.678C335.881 257.702 332.807 255.835 329.732 253.968C329.183 254.737 328.195 254.847 327.427 254.517C326.548 257.921 325.67 261.435 324.023 264.509C320.619 271.207 313.701 275.819 306.455 277.136C298.219 278.674 289.655 276.148 282.957 271.207C282.298 270.768 282.079 270.109 282.189 269.45C281.64 269.45 281.091 269.56 280.432 269.56L280.322 269.67C273.953 276.478 263.083 277.246 254.409 275.05C249.248 273.733 245.735 270.438 242.99 266.046C240.135 261.545 237.829 256.713 235.633 251.882C229.814 253.859 223.884 255.725 218.284 258.141C208.183 262.423 199.179 268.791 190.724 275.709C182.489 282.407 174.803 289.763 167.117 297.23C167.227 299.536 167.227 301.842 167.007 304.147C166.898 305.904 166.568 307.771 167.117 309.418C167.556 310.845 168.435 311.833 169.423 312.822C171.619 314.798 174.145 316.445 176.341 318.312C178.537 320.178 180.733 322.155 182.709 324.241C185.564 327.206 188.199 330.5 190.285 334.123C192.481 331.927 194.897 329.841 197.532 327.974C199.399 326.547 201.265 329.731 199.399 331.049C196.764 332.915 194.348 335.111 192.152 337.417C194.787 342.797 195.995 348.727 195.007 354.985C194.128 360.146 190.834 365.416 185.234 366.075C182.819 366.404 180.074 365.746 178.317 363.879C176.341 361.903 175.901 359.048 176.231 356.413C176.67 353.448 178.097 350.593 179.635 347.958C181.062 345.323 182.709 342.907 184.576 340.601C185.564 339.284 186.662 337.966 187.87 336.758C184.246 330.17 178.427 324.57 172.717 319.959C170.631 318.312 168.435 316.884 166.568 315.018C164.482 313.041 163.384 310.626 163.274 307.881C163.055 305.245 163.713 302.72 163.713 300.085C163.713 299.096 163.713 298.108 163.604 297.12C163.494 296.791 163.384 296.461 163.494 296.132C163.384 295.144 163.274 294.265 163.055 293.277C161.408 285.152 156.576 277.356 148.671 274.062C145.926 276.587 142.961 278.783 139.996 280.979C132.64 286.14 124.295 290.861 115.291 291.959C104.86 293.277 94.0997 291.52 84.5471 287.238C84.4373 287.458 84.4372 287.567 84.3274 287.787C83.0098 291.081 80.8138 293.936 79.2766 297.12C77.959 299.865 77.5198 303.159 77.6296 306.234C77.7394 307.771 78.0688 309.308 78.6178 310.735C79.1668 312.163 80.155 313.371 80.704 314.908C81.1432 316.335 81.1432 317.872 80.2648 319.08C79.4962 320.178 78.1786 320.617 77.0806 321.386C74.8845 322.923 73.1277 325.119 72.0297 327.645C70.9317 330.06 70.6023 332.805 71.0415 335.441C71.5905 338.735 72.9081 341.809 73.7865 344.993C75.6531 351.911 74.3355 358.609 72.6885 365.416C71.2611 371.236 70.4926 376.945 70.7122 382.984C70.822 388.584 71.9199 394.074 73.8963 399.345ZM73.2375 180.731C73.3473 183.915 73.8964 187.1 74.7748 190.174C75.214 189.954 75.6532 189.845 76.2022 189.735C79.1668 188.747 82.2412 188.527 85.4254 188.527C85.3156 185.672 85.3157 182.817 85.6451 179.963C85.8647 178.096 86.0842 176.229 86.5234 174.363C86.5234 174.253 86.4136 174.143 86.4136 174.033C86.0842 171.618 85.2058 169.202 83.2294 167.775C81.4726 166.457 78.7276 166.018 76.9708 167.335C75.214 168.653 74.5552 171.288 74.116 173.265C73.4572 175.68 73.2375 178.206 73.2375 180.731ZM74.8845 219.491C74.5551 219.381 74.2258 219.161 74.0062 218.942C67.1986 214.22 62.9163 206.534 60.8301 198.629C59.6223 194.127 59.0732 189.405 59.0732 184.684C59.0732 183.586 59.0732 182.488 59.0732 181.39C58.3046 182.817 58.3047 184.904 58.1949 186.331C57.2067 196.433 56.438 207.303 60.7202 216.746C61.7084 218.832 62.9163 220.918 64.3437 222.675C65.6613 224.212 67.1985 226.079 69.3945 226.079C73.1277 226.079 74.7747 222.785 74.8845 219.491ZM78.2883 215.428C78.6177 214.001 78.3982 212.573 78.1786 211.146C78.0688 209.828 77.8492 208.511 77.6296 207.193C74.7747 206.315 72.2493 204.887 70.4925 202.472C68.7357 200.166 67.7475 196.762 69.3945 194.127C69.9435 193.248 70.7121 192.48 71.5905 191.931C70.0533 186.88 69.2847 181.719 69.8337 176.449C69.9435 175.461 70.0534 174.473 70.273 173.375C67.9671 172.386 66.2103 173.375 65.5515 173.924C62.5868 176.12 62.6967 180.512 62.6967 183.915C62.8065 191.162 63.7947 198.629 67.0887 205.107C68.5161 207.962 70.273 210.597 72.469 212.903C73.567 214.111 74.8846 215.318 76.312 216.197C77.41 216.856 77.9589 216.746 78.2883 215.428ZM85.8646 257.262C86.4136 257.482 86.9626 257.921 87.0724 258.47C89.0488 259.019 91.6841 258.47 93.5507 258.141C95.7467 257.811 98.0525 257.372 100.249 256.823C104.531 255.725 108.813 254.298 112.766 252.431C120.891 248.588 128.248 243.318 134.397 236.73C134.506 236.62 134.616 236.51 134.726 236.4C132.75 231.898 131.871 226.957 131.322 222.016C130.663 216.307 130.334 210.597 129.675 204.887C129.016 199.068 127.479 193.358 125.503 187.868C123.526 182.159 120.672 176.339 116.389 171.947C112.766 168.214 107.715 165.139 102.335 165.03C96.5153 164.92 92.6723 168.982 90.2567 173.924C90.1469 174.143 90.0371 174.363 89.9273 174.582C88.7195 179.084 88.7195 183.915 88.8293 188.417C88.8293 188.527 88.8293 188.527 88.8293 188.527C89.9273 188.637 90.9154 188.637 92.0134 188.747C96.0761 189.076 100.249 189.735 104.092 190.943C105.629 186.551 106.068 181.829 105.19 177.327C104.97 176.339 105.409 175.351 106.507 175.131C107.386 174.912 108.593 175.461 108.703 176.449C109.691 181.719 109.252 187.209 107.495 192.26C108.374 192.59 109.252 193.029 110.021 193.358C116.609 196.652 121.44 202.582 125.173 208.73C126.381 210.707 123.307 212.573 122.099 210.597C118.366 204.558 113.644 198.848 106.946 195.884C102.115 193.797 96.9545 192.809 91.7939 192.37C87.4019 192.041 83.0098 191.601 78.6178 192.59C76.5316 193.029 73.7866 193.797 72.3592 195.664C70.9318 197.531 73.0179 200.386 74.4453 201.593C76.9707 203.68 80.3746 204.229 83.5588 204.448C87.2921 204.778 91.0253 204.887 94.8684 204.997C96.735 205.107 97.2839 207.413 95.7467 208.401C92.2331 210.817 90.6959 215.209 90.5861 219.381C90.5861 224.761 92.7822 229.922 94.8684 234.863C95.1978 235.741 94.4291 236.839 93.5507 237.059C92.5625 237.279 91.6841 236.73 91.3547 235.741C89.0488 230.142 86.5234 224.212 86.9626 218.063C86.9626 217.405 87.0725 216.856 87.1823 216.197C85.0961 216.307 83.1197 215.538 81.6923 213.891C81.6923 214.55 81.6922 215.099 81.5824 215.758C81.3628 217.295 80.5942 218.832 79.2766 219.601C79.057 219.71 78.7276 219.82 78.508 219.93C78.508 220.15 78.3982 220.369 78.3982 220.589C78.3982 221.028 78.2884 221.467 78.1786 221.797C77.959 224.103 78.0688 226.408 78.508 228.714C79.3864 233.765 80.9237 238.706 82.2413 243.757C83.5589 248.369 84.7666 252.761 85.8646 257.262ZM83.3393 209.609C84.2177 211.366 85.5353 213.342 87.7313 212.683C88.0607 212.573 88.2802 212.464 88.6096 212.354C89.1586 211.036 89.8175 209.828 90.6959 208.73V208.621C87.9509 208.511 85.3156 208.401 82.5706 208.072C82.9 208.621 83.1197 209.17 83.3393 209.609ZM144.718 253.31C142.412 248.588 139.118 244.416 136.483 239.914C130.005 246.831 122.099 252.431 113.315 256.274C108.813 258.251 104.092 259.788 99.3702 260.886C96.9546 261.435 94.6487 261.764 92.2331 262.094C89.8175 262.423 87.4019 262.533 85.0961 261.654C81.4726 266.156 83.4491 272.854 84.4373 278.125C84.8765 279.991 85.0961 281.858 84.9863 283.724C90.1469 286.14 95.8565 287.787 101.566 288.446C106.507 288.995 111.778 289.105 116.719 288.226C120.781 287.458 124.624 285.811 128.248 283.944C134.506 280.65 140.545 276.587 145.816 271.756C145.816 271.646 145.816 271.536 145.816 271.427C147.682 265.278 147.463 259.129 144.718 253.31ZM189.297 340.272C188.199 341.48 187.211 342.797 186.332 344.115C184.576 346.53 182.929 349.166 181.501 351.911C180.293 354.217 178.866 357.181 179.744 359.816C180.403 361.903 182.599 362.781 184.685 362.561C186.991 362.232 188.638 360.695 189.736 358.718C192.152 354.436 191.932 348.836 190.724 344.225C190.285 342.797 189.846 341.48 189.297 340.272ZM275.161 269.34C273.954 269.231 272.746 269.011 271.538 268.682C265.169 267.144 259.13 264.07 253.311 261.215C249.029 259.129 244.856 256.933 240.794 254.517C242.221 257.372 243.758 260.227 245.296 263.082C247.601 267.035 250.237 270.219 254.848 271.536C261.217 273.293 269.452 273.184 275.161 269.34ZM323.254 255.835C323.144 255.835 323.144 255.945 323.035 255.945C321.607 256.823 320.07 257.702 318.533 258.47C315.458 260.007 312.274 261.325 309.09 262.423C303.16 264.509 297.012 266.486 290.973 268.023C289.326 268.462 287.679 268.791 285.922 269.011C293.279 273.842 302.831 275.709 310.957 271.756C314.8 269.999 318.093 267.144 320.18 263.521C321.717 261.215 322.595 258.58 323.254 255.835ZM324.572 250.125C324.462 249.906 324.462 249.576 324.352 249.247C324.133 248.369 324.023 247.38 323.803 246.502C323.364 244.196 322.925 241.89 322.486 239.584C320.29 227.946 318.203 216.307 316.007 204.558C314.799 197.97 313.592 191.382 312.274 184.794C312.164 184.025 312.384 183.147 313.153 182.708C322.266 177.657 331.379 172.496 340.493 167.335C336.101 164.151 331.709 160.857 327.427 157.563C317.874 150.426 308.321 143.069 298.768 135.932C289.875 129.235 280.761 121.329 269.012 121.219C262.424 123.415 257.044 125.062 256.166 136.372C255.507 144.607 259.899 154.159 251.335 163.273L249.358 163.712C249.688 163.822 250.017 163.932 250.346 164.041C251.225 164.371 251.664 165.469 251.335 166.457C251.005 167.335 249.907 167.775 248.919 167.445C242.88 164.92 235.084 167.555 231.79 173.265C228.496 178.865 230.143 186.99 235.194 191.052C240.354 195.005 248.59 194.566 253.201 189.954C253.86 189.296 255.068 189.296 255.727 189.954C256.385 190.613 256.385 191.821 255.727 192.48C253.311 194.895 250.017 196.433 246.723 196.982C246.723 197.092 246.723 197.311 246.723 197.421C244.417 214.55 240.794 231.349 237.5 248.259C237.609 248.259 237.609 248.259 237.719 248.368C244.527 252.541 251.664 256.384 258.911 259.788C265.06 262.643 271.648 265.827 278.565 266.046C285.592 266.266 292.4 264.07 298.988 262.094C305.137 260.227 311.176 258.251 316.996 255.396C319.741 253.968 322.156 252.212 324.682 250.565C324.572 250.345 324.572 250.235 324.572 250.125ZM499.045 195.444C498.716 195.664 498.496 195.884 498.167 195.993C498.387 199.288 500.034 202.582 503.877 202.582C506.073 202.582 507.61 200.715 508.818 199.178C510.245 197.311 511.453 195.225 512.331 193.139C516.504 183.586 515.515 172.716 514.417 162.614C514.307 161.187 514.198 159.1 513.429 157.673C513.429 158.771 513.429 159.869 513.429 160.967C513.429 165.688 512.99 170.41 511.782 174.912C509.916 182.927 505.743 190.613 499.045 195.444ZM501.132 168.433C502.01 168.982 502.779 169.751 503.328 170.629C505.084 173.265 504.096 176.669 502.449 179.084C500.692 181.5 498.167 183.037 495.312 183.915C495.092 185.233 494.983 186.551 494.873 187.868C494.763 189.296 494.544 190.723 494.873 192.15C495.202 193.468 495.751 193.578 496.849 192.809C498.277 191.931 499.484 190.723 500.583 189.515C502.779 187.209 504.535 184.574 505.853 181.719C509.037 175.131 510.025 167.665 510.025 160.418C510.025 157.014 510.025 152.622 507.061 150.536C506.292 149.987 504.535 149.109 502.339 150.097C502.559 151.195 502.669 152.183 502.779 153.171L501.132 168.433ZM485.979 151.085C486.418 152.952 486.747 154.818 486.967 156.685C487.296 159.54 487.406 162.394 487.297 165.249C490.371 165.139 493.446 165.359 496.52 166.347C496.959 166.457 497.398 166.677 497.947 166.786C498.716 163.712 499.265 160.528 499.375 157.344C499.375 154.818 499.155 152.293 498.606 149.877C498.057 147.901 497.398 145.265 495.641 143.948C493.775 142.63 491.03 143.069 489.383 144.387C487.406 145.924 486.638 148.34 486.308 150.756C485.979 150.865 485.979 150.975 485.979 151.085ZM435.58 219.491C438.655 222.565 441.839 225.42 445.463 227.836C452.38 232.667 460.066 236.4 468.191 238.706C474.011 240.353 482.575 241.451 486.967 236.071C487.077 235.961 487.187 235.851 487.297 235.741C487.297 235.632 487.297 235.522 487.297 235.522C488.504 230.471 489.822 225.42 491.03 220.479C492.238 215.538 493.775 210.487 494.543 205.436C494.873 203.131 494.983 200.825 494.763 198.519C494.653 198.08 494.653 197.641 494.543 197.311C494.543 197.092 494.434 196.872 494.434 196.652C494.214 196.542 493.885 196.433 493.665 196.323C492.238 195.554 491.579 194.017 491.249 192.48C491.14 191.821 491.14 191.272 491.14 190.613C489.712 192.26 487.736 193.139 485.65 193.029C485.759 193.688 485.869 194.237 485.869 194.895C486.418 201.044 484.002 207.083 481.806 212.683C481.477 213.562 480.599 214.22 479.61 214.001C478.732 213.781 477.963 212.683 478.293 211.805C480.269 206.864 482.465 201.703 482.355 196.323C482.246 192.15 480.708 187.758 477.085 185.453C475.548 184.464 476.097 182.159 477.963 182.049C481.697 181.829 485.43 181.61 489.273 181.28C492.457 180.951 495.861 180.402 498.277 178.316C499.704 177.108 501.79 174.253 500.253 172.386C498.826 170.63 496.081 169.861 493.994 169.422C489.712 168.433 485.21 168.982 480.818 169.312C475.658 169.861 470.497 170.849 465.666 173.045C459.078 176.01 454.356 181.829 450.733 187.978C449.525 189.954 446.341 188.198 447.549 186.221C451.282 179.963 456.003 174.033 462.482 170.629C463.36 170.19 464.128 169.861 465.007 169.422C463.25 164.371 462.701 158.991 463.58 153.61C463.689 152.622 464.897 152.073 465.776 152.293C466.764 152.512 467.203 153.501 467.093 154.489C466.325 159.1 466.874 163.822 468.411 168.104C472.364 166.896 476.426 166.128 480.489 165.688C481.587 165.579 482.575 165.469 483.673 165.359V165.249C483.783 160.747 483.673 155.916 482.465 151.414C482.356 151.195 482.246 150.975 482.136 150.756C479.72 145.814 475.767 141.862 469.948 141.971C464.568 142.081 459.517 145.265 456.003 149.109C451.831 153.61 449.086 159.43 447.11 165.139C445.243 170.629 443.815 176.449 443.157 182.268C442.498 187.978 442.388 193.688 441.729 199.397C441.18 204.668 440.302 210.048 437.996 214.879C437.337 216.526 436.459 218.063 435.58 219.491ZM482.246 185.453C483.124 186.66 483.783 187.868 484.332 189.076C484.552 189.186 484.881 189.296 485.21 189.405C487.516 189.954 488.724 187.978 489.602 186.221C489.822 185.782 490.151 185.233 490.371 184.794C487.626 185.123 484.881 185.343 482.246 185.453ZM488.285 245.514C488.285 243.757 488.065 242 487.955 240.243C485.43 242.439 481.916 243.427 478.622 243.647C470.168 244.306 461.603 240.902 454.137 237.279C446.56 233.545 439.533 228.714 433.604 222.675C431.847 225.31 430.2 227.946 428.883 230.8L428.443 230.91C428.334 231.13 428.333 231.349 428.224 231.569C427.016 235.412 427.016 238.926 427.345 242.878C427.455 242.988 427.565 242.988 427.784 243.208C434.812 249.796 444.035 253.749 453.588 254.957C458.748 255.615 464.128 255.835 469.399 255.835C474.56 255.835 479.72 255.286 484.661 253.749C484.771 253.419 484.881 253.09 485.1 252.87C487.297 250.894 488.395 248.588 488.285 245.514ZM272.416 320.727C270.44 320.947 268.463 322.045 267.914 324.131C267.695 325.009 268.244 326.107 269.232 326.327C269.342 326.327 269.561 326.327 269.671 326.327C269.891 327.974 270.769 329.402 272.087 330.28C273.185 331.049 274.612 331.268 275.82 330.609C276.808 330.06 277.357 328.962 277.577 327.974C278.126 326.327 277.906 324.241 276.918 322.814C275.93 321.496 274.283 320.617 272.416 320.727ZM274.063 327.315C273.844 327.755 273.954 327.535 274.063 327.315V327.315ZM274.173 327.096C274.173 327.206 274.173 327.206 274.063 327.315C274.173 327.315 274.173 327.315 274.063 327.315C274.063 327.315 274.063 327.315 273.954 327.315C273.954 327.315 273.844 327.315 273.844 327.206C273.844 327.206 273.844 327.206 273.954 327.206C273.844 327.096 273.734 326.986 273.734 326.876V326.986C273.734 326.986 273.734 326.986 273.734 326.876C273.624 326.657 273.734 326.766 273.734 326.876L273.624 326.766C273.514 326.657 273.514 326.547 273.405 326.437V326.327C273.405 326.217 273.405 326.217 273.405 326.108C273.405 325.888 273.405 325.559 273.405 325.339C273.405 325.01 273.295 324.68 273.075 324.351H273.185H273.075H273.185H273.295C273.295 324.351 273.295 324.351 273.405 324.461C273.514 324.57 273.624 324.68 273.514 324.57C273.624 324.68 273.624 324.68 273.734 324.79C273.734 324.79 273.734 324.79 273.734 324.68C273.734 324.68 273.734 324.79 273.844 324.79C273.954 325.01 273.954 325.01 273.954 324.9C273.954 325.01 274.063 325.01 274.063 325.119C274.063 325.119 274.063 325.229 274.173 325.229C274.173 325.339 274.173 325.339 274.283 325.449C274.283 325.559 274.283 325.668 274.393 325.778C274.393 325.998 274.393 326.327 274.393 326.547C274.173 326.766 274.173 326.986 274.173 327.096ZM274.393 327.535C274.283 327.535 274.283 327.425 274.283 327.425C274.283 327.425 274.283 327.425 274.393 327.535ZM286.471 338.625C285.812 335.66 286.032 332.805 286.251 329.841C286.471 326.986 286.581 323.912 285.812 321.166C285.483 319.959 284.934 318.751 284.165 317.763C283.396 316.665 281.859 315.676 281.64 314.249C281.31 312.822 281.64 311.175 281.749 309.747C281.859 308.1 282.079 306.563 282.408 304.916C283.067 301.732 284.604 299.426 286.361 296.791C288.118 294.046 288.557 291.191 287.239 288.226C286.141 285.92 283.945 283.834 284.055 281.089C284.165 278.783 280.542 278.783 280.432 281.089C280.322 283.615 281.64 285.701 282.957 287.787C284.385 290.203 285.153 291.959 283.616 294.595C282.079 297.12 280.322 299.316 279.444 302.281C278.565 305.245 278.236 308.43 278.126 311.504C278.016 312.931 277.906 314.359 278.346 315.676C278.895 317.214 279.993 318.202 280.981 319.41C282.738 321.606 282.957 324.351 282.957 326.986C282.847 329.841 282.518 332.696 282.628 335.55C282.738 338.844 283.726 341.919 284.934 344.993C287.569 351.581 292.071 358.828 289.765 366.185C288.996 368.381 292.51 369.369 293.278 367.173C295.365 360.695 292.949 354.217 290.314 348.287C288.667 344.993 287.13 341.919 286.471 338.625ZM254.299 176.998C249.468 173.484 243.099 172.496 237.39 174.033C235.194 174.692 236.072 178.096 238.378 177.547C243.209 176.229 248.37 177.218 252.433 180.182C253.201 180.731 254.409 180.292 254.958 179.523C255.507 178.645 255.178 177.657 254.299 176.998ZM273.734 295.253C274.832 294.814 275.82 294.046 276.479 293.057C277.028 292.069 277.357 290.971 277.467 289.873C277.577 288.775 277.357 287.787 276.918 286.799C276.369 285.591 275.161 284.932 273.844 284.822C272.636 284.713 271.208 285.262 270.44 286.25C269.781 286.909 269.452 287.787 269.232 288.556C269.122 288.665 269.122 288.665 269.012 288.775C268.573 289.214 268.354 289.654 268.134 290.312C267.805 291.191 267.914 292.289 268.244 293.167C269.122 295.144 271.648 296.022 273.734 295.253ZM271.538 291.52C271.648 291.41 271.867 291.301 271.977 291.191C272.087 290.971 272.197 290.861 272.307 290.642C272.307 290.532 272.416 290.532 272.416 290.422C272.636 290.093 272.746 289.654 272.636 289.324C272.636 289.214 272.636 289.214 272.746 289.105C272.746 288.995 272.856 288.885 272.856 288.775C272.856 288.775 272.855 288.665 272.965 288.665L273.075 288.556C273.185 288.556 273.185 288.446 273.295 288.446C273.405 288.446 273.404 288.446 273.514 288.336H273.624C273.734 288.556 273.734 288.665 273.734 288.885C273.734 289.214 273.734 289.434 273.734 289.763C273.624 290.093 273.624 290.312 273.514 290.642C273.404 290.752 273.405 290.861 273.295 290.971C273.185 291.081 273.185 291.191 273.075 291.301C273.075 291.301 273.075 291.191 273.185 291.191C273.185 291.191 273.185 291.191 273.075 291.301C272.965 291.41 272.965 291.41 272.856 291.52C272.746 291.63 272.636 291.63 272.526 291.63C272.416 291.63 272.306 291.74 272.087 291.74C271.977 291.74 271.867 291.74 271.758 291.74C271.648 291.74 271.648 291.74 271.538 291.63H271.428C271.538 291.63 271.538 291.63 271.538 291.52ZM280.761 129.784C281.64 129.564 282.298 128.466 282.079 127.588C281.749 126.599 280.871 126.16 279.883 126.27C279.553 126.38 279.224 126.38 278.895 126.49C278.675 126.49 278.565 126.599 278.346 126.599C278.346 126.599 278.236 126.599 278.126 126.599C277.467 126.709 276.808 126.709 276.15 126.819C274.832 126.929 273.404 126.819 272.087 126.709C271.099 126.599 270.22 127.588 270.33 128.466C270.33 129.564 271.099 130.223 272.087 130.223C274.942 130.552 277.906 130.333 280.761 129.784ZM274.173 140.215C273.624 139.446 272.636 139.007 271.648 139.556C270.879 139.995 270.33 141.203 270.989 142.081C273.404 145.265 275.82 148.34 278.126 151.524C278.675 152.293 279.663 152.732 280.651 152.183C281.42 151.744 281.969 150.536 281.31 149.658C279.004 146.473 276.589 143.399 274.173 140.215ZM288.886 143.179C286.471 140.434 284.055 137.689 281.53 135.054C280.871 134.395 279.553 134.395 279.004 135.054C278.346 135.823 278.346 136.811 279.004 137.579C281.42 140.324 283.836 143.069 286.361 145.705C287.02 146.364 288.337 146.364 288.886 145.705C289.545 144.936 289.545 143.948 288.886 143.179ZM265.169 130.113C264.181 130.442 263.742 131.321 263.852 132.309C264.181 134.615 264.62 137.03 264.071 139.226C263.632 140.983 262.754 142.301 261.107 143.069C260.228 143.509 260.009 144.716 260.448 145.595C260.997 146.473 261.985 146.693 262.973 146.254C265.279 145.156 266.816 142.85 267.475 140.434C268.244 137.47 267.805 134.395 267.365 131.431C267.146 130.333 265.938 129.784 265.169 130.113Z" fill="#DCDCDC"/>
<path d="M228.717 44.2498C229.266 45.0184 228.827 46.336 228.058 46.7752C227.18 47.3242 226.192 46.885 225.533 46.1164C220.702 39.8577 224.984 30.1952 230.145 25.4738C232.78 23.0582 236.513 21.0818 240.246 22.2896C242.003 22.8386 243.211 24.1562 244.529 25.364C246.066 26.7914 247.383 27.1208 249.25 26.0228C252.105 24.3758 254.191 21.521 257.046 19.7642C260.01 17.8975 263.305 16.7995 266.818 16.3603C273.406 15.4819 280.214 17.6779 284.716 22.619C288.778 27.2306 290.974 33.7089 289.437 39.8577C287.79 46.6654 281.971 51.7162 275.602 54.022C271.869 55.3396 267.696 55.8886 263.744 55.669C261.767 55.5592 259.791 55.12 257.924 55.2298C255.948 55.3396 254.96 56.5474 254.081 58.0847C252.324 61.0493 250.897 64.1237 248.591 66.7589C246.285 69.3941 243.211 71.2608 239.807 71.8098C236.074 72.3588 232.341 71.2608 229.047 69.7236C227.07 68.8451 225.313 67.7471 223.447 66.5393C222.019 65.6609 220.592 64.7825 219.384 63.5747C216.639 60.8297 216.859 57.4259 218.506 54.022C220.372 50.179 222.788 46.6654 225.423 43.2615C225.972 42.4929 226.96 42.0537 227.949 42.6027C228.717 43.0419 229.156 44.2497 228.607 45.1282C226.082 48.4222 223.776 51.9358 221.8 55.669C220.921 57.3161 220.262 58.9631 221.58 60.6101C222.568 61.9277 224.106 62.6963 225.533 63.5747C228.827 65.6609 232.45 67.7471 236.403 68.2961C240.027 68.7353 243.211 67.3079 245.627 64.7825C247.603 62.6963 249.03 60.0611 250.458 57.5357C251.885 54.7906 253.752 52.1554 257.046 51.7162C258.803 51.4966 260.559 51.826 262.426 51.9358C264.183 52.0456 265.94 52.0456 267.696 51.9358C270.99 51.7162 274.394 50.9476 277.359 49.3006C282.52 46.5556 286.582 41.6145 286.582 35.5755C286.582 30.1952 283.508 24.9248 279.006 22.1798C273.955 18.9956 267.587 19.1054 262.206 21.3014C259.461 22.5092 257.156 24.266 254.96 26.2424C252.873 28.2188 250.348 30.4148 247.274 30.305C245.736 30.305 244.419 29.6462 243.211 28.7678C242.113 27.8894 241.235 26.5718 239.917 25.913C237.392 24.5954 234.427 26.5718 232.67 28.3286C228.607 32.0619 224.984 39.4185 228.717 44.2498ZM340.494 77.19C344.557 74.6646 349.608 77.8488 350.267 82.2408C350.596 84.8761 349.718 87.1819 348.29 89.2681C346.973 91.2445 346.973 93.5503 348.949 94.9778C350.486 96.0758 353.012 96.1856 353.78 98.2718C354.549 100.248 353.78 102.554 352.573 104.091C350.047 107.275 345.326 108.703 341.592 107.166C336.871 105.299 334.236 99.6992 334.895 94.7581C335.004 93.7699 334.455 92.3425 333.138 92.4523C330.942 92.6719 328.636 92.6719 326.44 92.3425C325.013 92.1229 321.938 91.9033 321.169 90.3661C320.511 89.0485 320.95 86.5231 321.169 85.0957C321.499 83.3389 321.938 81.4722 322.816 79.8252C324.354 76.8606 326.769 74.445 330.063 73.7862C333.028 73.1274 336.103 73.896 338.079 76.3116C339.506 78.0684 342.142 75.543 340.604 73.7862C337.969 70.4922 333.467 69.504 329.404 70.2726C324.903 71.151 321.279 74.445 319.413 78.5076C318.425 80.7036 317.766 83.0094 317.436 85.4251C317.217 87.6211 316.887 90.4759 318.095 92.4523C319.413 94.6483 322.048 95.3072 324.354 95.7464C327.209 96.2954 330.173 96.515 333.028 96.1856C332.479 95.4169 331.82 94.6484 331.271 93.8797C330.503 99.6992 332.699 105.628 337.53 109.142C342.142 112.436 348.51 111.997 352.902 108.703C356.965 105.628 359.929 98.2718 355.098 94.3189C354.11 93.5503 352.902 93.1111 351.804 92.5621C351.584 92.4523 350.816 92.0131 350.816 92.0131C350.706 91.5739 351.804 90.3661 352.024 90.0367C353.561 87.5113 354.11 84.3271 353.671 81.3624C352.463 74.6646 344.667 70.4922 338.628 74.1156C336.652 75.3234 338.518 78.3978 340.494 77.19ZM236.184 55.12C235.854 55.12 235.635 55.12 235.305 55.12C235.086 55.12 234.866 55.12 234.646 55.2298C234.427 55.3396 234.207 55.4494 234.097 55.5592C233.878 55.669 233.768 55.8886 233.768 56.1082C233.658 56.3278 233.548 56.5475 233.658 56.7671C233.658 56.8769 233.658 57.0964 233.768 57.2062C233.878 57.5357 233.988 57.7553 234.207 57.9749C234.317 58.0847 234.427 58.1945 234.537 58.3043C234.866 58.4141 235.086 58.5239 235.415 58.5239C235.745 58.5239 235.964 58.5239 236.293 58.5239C236.513 58.5239 236.733 58.5239 236.952 58.4141C237.172 58.3043 237.391 58.1945 237.501 58.0847C237.721 57.9749 237.831 57.7553 237.831 57.5357C237.94 57.3161 238.05 57.0965 237.94 56.8769C237.94 56.767 237.94 56.5474 237.831 56.4376C237.721 56.1082 237.611 55.8886 237.391 55.669C237.282 55.5592 237.172 55.4494 237.062 55.3396C236.843 55.2298 236.513 55.12 236.184 55.12ZM265.61 30.7442C265.281 31.0736 265.061 31.2932 264.732 31.6227C264.512 31.7325 264.402 31.9521 264.402 32.1717C264.293 32.3913 264.183 32.6109 264.293 32.8305C264.293 33.0501 264.293 33.2697 264.402 33.4893C264.512 33.7089 264.622 33.9285 264.732 34.0383C264.842 34.1481 264.952 34.2579 265.061 34.3677C265.391 34.4775 265.61 34.5873 265.94 34.5873C266.049 34.5873 266.269 34.5873 266.379 34.4775C266.708 34.3677 266.928 34.2579 267.147 34.0383C267.477 33.7089 267.697 33.4893 268.026 33.1599C268.246 33.0501 268.355 32.8305 268.355 32.6109C268.465 32.3913 268.575 32.1716 268.465 31.952C268.465 31.7324 268.465 31.5128 268.355 31.2932C268.246 31.0736 268.136 30.854 268.026 30.7442C267.916 30.6344 267.806 30.5246 267.696 30.4148C267.367 30.305 267.148 30.1952 266.818 30.1952C266.708 30.1952 266.489 30.1952 266.379 30.305C266.05 30.4148 265.83 30.5246 265.61 30.7442ZM249.03 39.9675C249.36 39.6381 249.579 39.4185 249.909 39.0891C250.128 38.9793 250.238 38.7597 250.238 38.5401C250.348 38.3205 250.458 38.1009 250.348 37.8813C250.348 37.6617 250.348 37.4421 250.238 37.2225C250.128 37.0029 250.019 36.7833 249.909 36.6735C249.799 36.5637 249.689 36.4539 249.579 36.3441C249.25 36.2343 249.03 36.1245 248.701 36.1245C248.591 36.1245 248.372 36.1245 248.262 36.2343C247.932 36.3441 247.713 36.4539 247.493 36.6735C247.164 37.0029 246.944 37.2225 246.615 37.5519C246.395 37.6617 246.285 37.8813 246.285 38.1009C246.176 38.3205 246.066 38.5401 246.176 38.7597C246.176 38.9793 246.176 39.1989 246.285 39.4185C246.395 39.6381 246.505 39.8577 246.615 39.9675C246.725 40.0773 246.834 40.1871 246.944 40.2969C247.274 40.4067 247.493 40.5165 247.823 40.5165C247.932 40.5165 248.152 40.5165 248.262 40.4067C248.591 40.4067 248.811 40.1871 249.03 39.9675ZM346.753 126.82C347.082 126.491 347.302 126.271 347.632 125.942C347.851 125.832 347.961 125.612 347.961 125.393C348.071 125.173 348.18 124.953 348.071 124.734C348.071 124.514 348.071 124.295 347.961 124.075C347.851 123.855 347.741 123.636 347.632 123.526C347.522 123.416 347.412 123.306 347.302 123.197C346.973 123.087 346.753 122.977 346.424 122.977C346.314 122.977 346.094 122.977 345.985 123.087C345.655 123.197 345.436 123.306 345.216 123.526C344.887 123.855 344.667 124.075 344.338 124.404C344.118 124.514 344.008 124.734 344.008 124.953C343.898 125.173 343.789 125.393 343.898 125.612C343.898 125.832 343.898 126.051 344.008 126.271C344.118 126.491 344.228 126.71 344.338 126.82C344.447 126.93 344.557 127.04 344.667 127.149C344.996 127.259 345.216 127.369 345.545 127.369C345.655 127.369 345.875 127.369 345.985 127.259C346.314 127.259 346.533 127.04 346.753 126.82ZM239.478 3.84303C239.807 3.51363 240.027 3.29403 240.356 2.96463C240.576 2.85483 240.685 2.63523 240.685 2.41562C240.795 2.19602 240.905 1.97641 240.795 1.75681C240.795 1.53721 240.795 1.31761 240.685 1.09801C240.576 0.878407 240.466 0.658805 240.356 0.549004C240.246 0.439203 240.137 0.329408 240.027 0.219607C239.697 0.109806 239.478 0 239.148 0C239.038 0 238.819 -1.67706e-06 238.709 0.109799C238.38 0.2196 238.16 0.329403 237.94 0.549004C237.611 0.878407 237.392 1.09801 237.062 1.42741C236.843 1.53722 236.733 1.75682 236.733 1.97642C236.623 2.19602 236.513 2.41562 236.623 2.63522C236.623 2.85482 236.623 3.07442 236.733 3.29403C236.842 3.51363 236.952 3.73323 237.062 3.84303C237.172 3.95283 237.282 4.06264 237.391 4.17244C237.721 4.28224 237.941 4.39203 238.27 4.39203C238.38 4.39203 238.599 4.39204 238.709 4.28224C238.929 4.17243 239.258 4.06263 239.478 3.84303ZM336.651 81.3624C336.651 81.2526 336.651 81.2526 336.651 81.1428C336.651 81.2526 336.652 81.4722 336.761 81.582C336.652 81.4722 336.651 81.4722 336.651 81.3624C336.651 81.4722 336.651 81.582 336.651 81.8017C336.651 81.6918 336.651 81.582 336.651 81.3624C336.651 81.582 336.542 81.6918 336.542 81.9114C336.542 81.8016 336.652 81.6918 336.761 81.582C336.652 81.6918 336.542 81.8016 336.432 81.9114C336.542 81.8016 336.542 81.8016 336.651 81.6918C336.542 81.8016 336.432 81.9114 336.322 82.0212C336.432 81.9114 336.542 81.9114 336.542 81.9114C336.432 82.0212 336.212 82.0212 336.102 82.131H336.212C336.432 82.0212 336.651 82.0213 336.871 81.8017C337.091 81.6918 337.201 81.4723 337.31 81.2526C337.42 81.033 337.53 80.8134 337.53 80.5938C337.53 80.3742 337.53 80.1546 337.53 79.8252C337.42 79.7154 337.42 79.4958 337.31 79.386C337.201 79.1664 336.981 78.9468 336.651 78.7272C336.542 78.6174 336.322 78.6174 336.212 78.5076C335.883 78.3978 335.553 78.3978 335.224 78.5076C335.004 78.6174 334.785 78.6174 334.565 78.837C334.565 78.837 334.455 78.837 334.455 78.9468C334.346 79.0566 334.126 79.1664 334.016 79.2762C333.907 79.386 333.906 79.386 333.797 79.4958C333.687 79.7154 333.467 79.8252 333.357 80.0448C333.248 80.2644 333.248 80.3742 333.138 80.5938V80.7036C333.028 80.9232 333.028 81.1428 333.028 81.4722C333.028 81.582 333.028 81.6918 333.028 81.6918C333.028 81.9114 333.028 82.1311 333.138 82.2408V82.3507C333.248 82.5703 333.248 82.7898 333.467 83.0095C333.577 83.229 333.797 83.3389 334.016 83.4487C334.236 83.5585 334.455 83.6683 334.675 83.6683C334.895 83.6683 335.114 83.6683 335.444 83.6683C335.553 83.5585 335.773 83.5585 335.883 83.4487C336.103 83.3389 336.322 83.1193 336.542 82.7899C336.651 82.6801 336.652 82.4605 336.761 82.3507C336.761 82.0213 336.761 81.6918 336.651 81.3624ZM361.467 69.5039C361.796 69.5039 362.015 69.5039 362.345 69.5039C362.564 69.5039 362.784 69.504 363.004 69.3941C363.223 69.2843 363.443 69.1745 363.553 69.0647C363.772 68.9549 363.882 68.7353 363.882 68.5157C363.992 68.2961 364.102 68.0765 363.992 67.8569C363.992 67.7471 363.992 67.5275 363.882 67.4177C363.772 67.0883 363.662 66.8687 363.443 66.6491C363.333 66.5393 363.223 66.4295 363.114 66.3197C362.784 66.2099 362.565 66.1001 362.235 66.1001C361.906 66.1001 361.686 66.1001 361.357 66.1001C361.137 66.1001 360.917 66.1001 360.698 66.2099C360.478 66.3197 360.259 66.4295 360.149 66.5393C359.929 66.6491 359.82 66.8687 359.82 67.0883C359.71 67.3079 359.6 67.5275 359.71 67.7471C359.71 67.8569 359.71 68.0765 359.82 68.1863C359.929 68.5157 360.039 68.7353 360.259 68.9549C360.368 69.0647 360.478 69.1745 360.588 69.2843C360.808 69.5039 361.137 69.5039 361.467 69.5039Z" fill="#DCDCDC"/>
</svg>
