<svg width="600" height="500" viewBox="0 0 600 500" fill="none" xmlns="http://www.w3.org/2000/svg">
<path d="M141.426 294.157C126.603 273.624 111.56 252.872 101.897 229.484C92.2349 206.097 88.1723 179.415 95.8584 155.369C104.423 128.467 128.03 106.946 155.59 100.798C168.107 98.0525 182.93 97.3937 190.617 87.0724C193.471 83.2294 194.899 78.508 196.216 73.7865C200.938 56.438 206.318 36.3444 222.788 28.9878C240.686 20.9723 260.56 32.721 278.238 41.2855C298.441 51.0577 320.401 56.987 342.801 58.634C352.793 59.4026 362.894 59.2928 372.447 62.1476C382 65.0024 391.113 71.7003 393.858 81.253C396.932 92.3429 391.003 104.75 394.846 115.511C397.921 124.075 406.595 129.565 415.379 132.31C424.053 135.055 433.386 135.934 442.061 139.008C466.326 147.573 481.699 172.937 484.444 198.52C487.189 224.104 479.283 249.687 468.742 273.075C463.033 285.702 456.554 298 447.77 308.76C415.159 349.057 355.428 360.477 305.688 345.763C293.829 342.25 282.191 337.418 270.003 335.552C256.387 333.466 242.552 335.113 228.717 334.783C197.863 334.124 167.339 323.254 142.853 304.368" fill="#F4F6F9"/>
<path d="M516.725 346.751C515.188 341.92 512.882 337.418 510.247 333.246C507.392 328.744 503.988 324.242 502.67 318.971C501.133 313.262 502.89 307.442 504.317 301.843C505.745 296.243 506.513 290.862 505.635 285.153C503.768 273.404 496.192 263.412 488.726 254.409C490.702 252.322 491.8 249.687 492.02 246.723C492.239 243.428 491.471 240.134 491.581 236.84C491.581 236.291 491.361 235.852 491.141 235.523C492.569 229.923 493.886 224.323 495.314 218.723C496.522 214.002 497.949 209.171 498.498 204.23C500.035 205.437 502.012 206.206 503.988 206.206C510.027 206.206 513.98 198.849 515.956 194.018C518.482 187.979 519.141 181.391 519.031 174.913C518.921 171.18 518.592 167.556 518.262 163.823C517.933 160.968 518.043 157.564 516.176 155.149C515.298 154.051 514.09 153.282 512.772 152.843C512.333 151.415 511.674 150.098 510.686 148.89C508.49 146.255 504.427 144.827 501.353 146.804C500.145 143.071 497.839 139.886 493.557 139.447C488.945 139.008 485.322 142.082 483.565 146.035C480.491 141.424 475.769 138.239 470.06 138.349C464.13 138.459 458.421 141.533 454.248 145.596C449.527 150.208 446.343 156.356 444.147 162.505C441.951 168.544 440.413 174.913 439.645 181.391C438.327 193.14 439.425 205.986 433.057 216.418C432.398 217.516 431.629 218.723 430.861 219.821C426.249 224.872 423.504 231.57 423.284 238.378C423.175 241.891 424.822 245.954 421.967 248.809C419.661 251.115 416.587 252.322 414.5 254.848C409.34 260.997 410.108 269.342 410.218 276.808C410.328 281.09 409.889 285.153 408.461 289.106C407.144 292.839 405.167 296.352 403.52 299.976C400.885 305.576 399.238 311.505 398.689 317.544C392.54 305.027 384.415 293.607 374.643 283.616C364.871 273.624 353.781 265.059 342.142 257.373C337.75 254.409 333.248 251.444 328.526 248.809C328.526 248.15 328.197 247.601 327.758 247.272C326.111 238.378 324.464 229.484 322.817 220.59C320.95 210.378 318.974 200.167 317.107 189.955C316.778 188.308 316.448 186.661 316.119 184.905C325.672 179.524 335.224 174.144 344.667 168.764C345.985 167.995 345.765 166.458 344.667 165.689C335.114 158.662 325.672 151.525 316.119 144.388C311.178 140.655 306.127 136.812 301.076 133.079C296.245 129.455 291.524 125.502 286.253 122.538C282.849 120.561 279.226 119.024 275.493 118.146C277.469 117.048 279.445 115.73 281.312 113.863C286.582 108.483 288.998 91.1347 278.128 82.4604C269.344 106.068 252.764 94.9778 234.866 110.02C221.251 121.55 229.376 150.317 240.027 162.944C235.196 163.933 230.804 166.787 228.278 171.07C224.106 178.317 226.082 188.308 232.67 193.469C235.525 195.775 239.148 196.873 242.772 196.983C240.356 214.331 236.733 231.35 233.329 248.479C223.118 251.883 212.906 255.397 203.793 261.216C194.35 267.255 185.675 274.283 177.44 281.859C173.597 285.372 169.864 288.886 166.131 292.509C164.264 283.616 159.104 275.271 150.978 271.208C151.527 270.22 150.869 269.122 149.99 268.683C150.978 263.742 150.649 258.691 148.782 253.86C146.696 248.37 143.183 243.648 140.108 238.817C133.52 228.496 134.508 215.539 132.971 203.9C132.093 197.532 130.446 191.163 128.25 185.124C125.944 178.975 122.76 172.827 117.928 168.325C113.646 164.372 107.937 161.297 102.007 161.297C96.2976 161.297 91.5761 164.482 88.6115 169.203C86.8547 165.25 83.2313 162.286 78.6196 162.725C74.3374 163.164 72.1414 166.458 70.9336 170.191C67.8591 168.215 63.7965 169.752 61.6005 172.387C60.6123 173.595 59.9534 174.913 59.624 176.45C58.3064 176.889 57.0986 177.658 56.33 178.756C54.5732 181.171 54.6831 184.575 54.3537 187.43C54.0243 191.163 53.6949 194.787 53.6949 198.52C53.6949 204.998 54.4635 211.586 57.0987 217.625C59.1849 222.457 63.2475 229.703 69.2866 229.703C71.263 229.703 73.2394 228.935 74.7766 227.727C75.3256 232.668 76.8628 237.499 78.0706 242.221C79.498 247.821 81.0352 253.311 82.4627 258.91C79.0588 262.753 78.7295 268.683 79.6079 273.624C80.1569 276.698 81.2549 279.773 81.2549 282.847C81.2549 286.031 79.4981 288.886 77.8511 291.521C74.557 297.121 72.4708 303.38 74.1178 309.858C74.4472 311.395 75.106 312.823 75.8746 314.14C76.204 314.799 76.6432 315.458 76.8628 316.117C77.1922 317.105 76.6432 317.215 75.9844 317.654C73.459 319.081 71.3728 321.167 69.8356 323.583C68.2983 325.999 67.4199 328.744 67.0905 331.489C66.7611 334.563 67.4199 337.528 68.2983 340.492C69.2865 343.786 70.6042 347.19 70.8238 350.594C71.0434 354.218 70.3845 357.841 69.5061 361.464C68.0787 367.723 66.6513 373.872 66.6513 380.35C66.6513 386.06 67.5298 391.879 69.1768 397.369L72.91 397.15C73.1296 397.918 73.3492 398.577 73.6786 399.346C73.6786 399.346 196.546 434.262 262.866 412.632C329.185 390.891 430.312 331.708 514.968 374.091C517.494 375.299 522.764 365.527 516.725 346.751Z" fill="white"/>
<path d="M207.306 166.237L192.703 181.06C181.833 192.15 164.155 192.26 153.065 181.39L142.304 170.849C131.214 159.979 131.104 142.301 141.975 131.211L156.578 116.278" fill="#FFE945"/>
<path d="M207.388 166.215C211.342 162.194 203.189 147.767 189.179 133.992C175.168 120.217 160.604 112.31 156.65 116.332C152.696 120.353 160.849 134.78 174.86 148.555C188.871 162.33 203.434 170.237 207.388 166.215Z" fill="white"/>
<path d="M54.793 189.846C56.8792 190.724 56.0008 194.238 53.8048 193.36C48.4245 191.164 43.154 188.528 38.2129 185.344C20.8644 174.254 7.35896 157.564 0.112108 138.239C-0.656498 136.043 2.74728 135.165 3.62568 137.251C5.6021 142.412 8.01782 147.353 10.8726 152.184C21.0841 168.984 36.566 182.489 54.793 189.846ZM147.684 176.011C144.939 178.097 142.194 180.183 139.12 181.83C135.606 183.807 131.873 184.905 127.811 185.344C120.454 186.113 112.548 185.564 106.18 189.956C104.313 191.273 106.07 194.458 108.046 193.03C114.415 188.528 122.76 189.626 130.116 188.638C137.912 187.54 144.171 183.148 150.21 178.427L147.684 176.011ZM208.624 167.447C211.149 164.811 210.491 159.76 206.538 152.843C203.024 146.584 197.314 139.447 190.397 132.64C177.111 119.573 160.861 109.362 155.261 115.072C149.661 120.671 160.202 136.812 173.488 149.878C184.138 160.419 196.875 169.094 204.232 169.094C206.099 169.094 207.526 168.545 208.624 167.447ZM187.872 135.275C194.569 141.863 200.059 148.671 203.353 154.6C206.538 160.309 206.977 163.933 205.989 164.921C203.573 167.337 190.726 161.737 176.013 147.243C161.3 132.749 155.48 120.013 157.896 117.597C158.225 117.268 158.884 117.048 159.653 117.048C164.264 117.048 175.354 122.977 187.872 135.275ZM172.06 139.118C176.452 143.4 180.735 147.682 185.127 151.965C186.774 153.612 189.299 151.086 187.652 149.439C183.26 145.157 178.978 140.875 174.586 136.592C172.939 134.945 170.413 137.471 172.06 139.118ZM176.233 133.079C180.625 137.361 184.907 141.643 189.299 145.926C190.946 147.573 193.471 145.047 191.824 143.4C187.432 139.118 183.15 134.836 178.758 130.553C177.111 128.906 174.586 131.432 176.233 133.079ZM151.308 133.298C157.676 144.279 165.033 155.588 176.562 161.737C178.648 162.835 180.405 159.76 178.429 158.662C167.449 152.843 160.531 141.973 154.492 131.542C153.284 129.455 150.21 131.322 151.308 133.298Z" fill="black"/>
<path d="M410.657 97.6113L429.543 106.395C443.598 112.874 449.747 129.563 443.269 143.618L436.9 157.343C430.422 171.398 413.732 177.546 399.677 171.068L380.792 162.284" fill="#9ED5F0"/>
<path d="M410.657 97.6121C407.254 96.0749 401.215 101.126 395.176 109.91L380.792 103.322C379.145 102.553 377.168 103.322 376.4 104.969L375.082 107.824C374.313 109.471 375.082 111.447 376.729 112.216L390.125 118.255C388.917 120.56 387.599 122.976 386.501 125.502C386.391 125.721 386.282 126.051 386.172 126.27L371.349 119.572C369.702 118.804 367.725 119.572 366.957 121.219L365.639 124.074C364.87 125.721 365.639 127.698 367.286 128.466L382.439 135.384C377.607 148.999 376.729 160.199 380.901 162.065C386.062 164.481 396.932 151.854 405.167 134.066C413.293 116.388 415.818 100.028 410.657 97.6121Z" fill="white"/>
<path d="M411.426 95.965C408.132 94.4278 403.52 96.8434 398.36 102.882C397.152 104.31 395.834 105.957 394.627 107.714L381.56 101.784C380.352 101.235 378.925 101.126 377.608 101.675C376.29 102.114 375.302 103.102 374.753 104.31L373.435 107.165C372.886 108.372 372.776 109.8 373.325 111.117C373.764 112.435 374.753 113.423 375.961 113.972L387.599 119.243C386.721 120.78 385.952 122.427 385.184 124.074L372.008 118.145C370.8 117.596 369.373 117.486 368.055 118.035C366.737 118.474 365.749 119.462 365.2 120.67L363.882 123.525C363.333 124.733 363.224 126.16 363.773 127.478C364.212 128.795 365.2 129.784 366.408 130.333L380.133 136.591C378.596 141.203 377.388 145.595 376.839 149.548C375.631 157.453 376.729 162.394 380.023 163.932C380.682 164.261 381.45 164.371 382.109 164.371C389.356 164.371 399.568 150.316 406.595 135.054C414.501 118.145 418.563 99.259 411.426 95.965ZM376.729 109.8C376.619 109.47 376.619 109.031 376.729 108.592L378.047 105.737C378.266 105.188 378.815 104.859 379.474 104.859C379.694 104.859 379.913 104.859 380.133 104.969L401.434 114.631L398.909 120.231L377.608 110.568C377.168 110.459 376.839 110.129 376.729 109.8ZM367.176 126.16C367.067 125.831 367.067 125.392 367.176 124.952L368.494 122.098C368.714 121.768 368.933 121.439 369.372 121.329C369.592 121.219 369.702 121.219 369.921 121.219C370.141 121.219 370.361 121.219 370.58 121.329L391.882 130.991L389.356 136.591L368.055 126.929C367.616 126.819 367.286 126.49 367.176 126.16ZM403.411 133.517C394.736 152.183 384.744 162.065 381.56 160.638C380.243 160.089 379.364 156.575 380.353 150.097C380.902 146.473 382 142.411 383.427 138.128L391.003 141.532L396.603 129.344L388.478 125.611C389.246 123.964 390.125 122.317 390.893 120.78L400.556 125.172L406.156 112.984L398.03 109.251C399.019 107.823 400.117 106.506 401.105 105.298C404.838 101.016 407.803 99.259 409.34 99.259C409.559 99.259 409.779 99.259 409.999 99.3688C413.073 100.686 412.085 114.741 403.411 133.517ZM417.575 109.251C417.575 106.945 421.198 106.945 421.198 109.251C421.308 129.015 413.293 148.56 399.238 162.504C397.591 164.151 395.066 161.626 396.713 159.979C410.108 146.583 417.685 128.137 417.575 109.251ZM440.633 153.94C438.327 153.94 438.327 150.316 440.633 150.316C446.343 150.316 450.625 154.269 453.919 158.442C457.103 162.504 460.178 167.555 465.668 168.653C467.974 169.092 466.985 172.606 464.68 172.167C459.299 171.179 455.676 166.896 452.602 162.724C449.637 158.771 446.123 153.94 440.633 153.94ZM518.043 176.12C515.737 176.229 515.737 172.606 518.043 172.496C524.631 172.057 531.109 170.739 537.368 168.763C560.316 161.406 579.092 145.485 596.88 129.893C598.637 128.356 601.162 130.882 599.405 132.419C594.025 137.14 588.755 141.752 583.155 146.254C564.489 161.406 542.748 174.582 518.043 176.12Z" fill="black"/>
<path d="M257.046 483.234C257.046 492.238 249.799 499.484 240.795 499.484C231.792 499.484 224.545 492.238 224.545 483.234C224.545 474.23 231.792 466.983 240.795 466.983C249.799 466.874 257.046 474.23 257.046 483.234ZM283.837 466.874C274.834 466.874 267.587 474.12 267.587 483.124C267.587 492.128 274.834 499.375 283.837 499.375C292.841 499.375 300.088 492.128 300.088 483.124C300.088 474.23 292.841 466.874 283.837 466.874ZM283.837 466.874C274.834 466.874 267.587 474.12 267.587 483.124C267.587 492.128 274.834 499.375 283.837 499.375C292.841 499.375 300.088 492.128 300.088 483.124C300.088 474.23 292.841 466.874 283.837 466.874ZM329.844 466.874C320.84 466.874 313.593 474.12 313.593 483.124C313.593 492.128 320.84 499.375 329.844 499.375C338.848 499.375 346.095 492.128 346.095 483.124C346.095 474.23 338.848 466.874 329.844 466.874Z" fill="#F4F6F9"/>
<path d="M297.672 205.328C298.331 205.987 298.331 207.195 297.672 207.853C296.904 208.512 296.245 209.281 295.586 210.049C295.476 210.159 295.476 210.269 295.366 210.269C295.366 210.269 295.367 210.379 295.257 210.379C295.147 210.598 294.927 210.818 294.817 210.928C294.488 211.367 294.268 211.696 294.049 212.136C293.5 213.014 293.061 213.893 292.621 214.771C292.512 214.881 292.512 214.991 292.512 215.1C292.512 215.1 292.512 215.1 292.512 215.21C292.402 215.43 292.292 215.649 292.182 215.979C291.963 216.418 291.853 216.857 291.743 217.406C291.414 218.394 290.535 218.943 289.547 218.724C288.559 218.504 288.01 217.406 288.229 216.528C289.547 212.245 291.853 208.402 295.147 205.438C295.806 204.559 296.904 204.559 297.672 205.328ZM73.8982 399.346C77.6314 409.887 84.5489 419.44 93.5526 425.918C95.4192 427.236 93.6624 430.42 91.686 428.992C80.9255 421.197 73.1296 409.997 69.3964 397.26C67.7494 391.77 66.871 385.95 66.871 380.241C66.871 373.763 68.2984 367.614 69.7258 361.355C70.6042 357.841 71.263 354.218 71.0434 350.485C70.8238 346.971 69.5063 343.677 68.5181 340.383C67.6396 337.418 66.9807 334.454 67.3101 331.379C67.6395 328.525 68.5179 325.78 70.0552 323.474C71.5924 321.058 73.6787 318.972 76.2041 317.545C76.9727 317.105 77.4118 316.996 77.0824 316.007C76.8628 315.348 76.4236 314.69 76.0942 314.031C75.3256 312.713 74.7766 311.286 74.3374 309.749C72.6904 303.27 74.6669 297.012 78.0707 291.412C79.7177 288.777 81.4745 286.032 81.4745 282.738C81.4745 279.553 80.3765 276.589 79.8275 273.514C78.9491 268.573 79.1686 262.644 82.6823 258.801C81.2548 253.201 79.7176 247.711 78.2902 242.111C77.0824 237.39 75.5452 232.559 74.9962 227.618C73.459 228.825 71.4826 229.594 69.5062 229.594C63.4671 229.594 59.4045 222.347 57.3183 217.516C54.7929 211.477 53.9145 204.889 53.9145 198.411C53.9145 194.677 54.2439 191.054 54.5733 187.321C54.7929 184.466 54.7929 181.062 56.5497 178.646C57.4281 177.548 58.5262 176.78 59.8438 176.341C60.283 174.913 60.8319 173.486 61.8201 172.278C64.0161 169.643 68.0787 168.106 71.1532 170.082C72.361 166.349 74.557 163.055 78.8392 162.615C83.4509 162.176 87.0744 165.141 88.8312 169.094C91.7958 164.372 96.5172 161.188 102.227 161.188C108.156 161.188 113.866 164.263 118.148 168.215C122.979 172.717 126.163 178.866 128.469 185.015C130.775 191.054 132.422 197.422 133.191 203.791C134.728 215.54 133.74 228.386 140.328 238.707C143.402 243.649 146.916 248.37 149.002 253.75C150.869 258.581 151.088 263.632 150.21 268.573C151.088 269.013 151.747 270.111 151.198 271.099C159.433 275.161 164.594 283.506 166.351 292.4C170.084 288.777 173.817 285.153 177.66 281.749C185.895 274.283 194.569 267.146 204.012 261.107C213.126 255.287 223.337 251.774 233.549 248.37C236.843 231.241 240.576 214.222 242.992 196.873C239.368 196.764 235.745 195.666 232.89 193.36C226.302 188.199 224.325 178.207 228.498 170.96C231.023 166.678 235.415 163.823 240.246 162.835C229.706 150.208 221.471 121.44 235.086 109.911C252.874 94.8684 269.563 105.958 278.347 82.3511C289.328 91.0253 286.912 108.374 281.532 113.754C279.665 115.621 277.689 117.048 275.712 118.036C279.445 118.915 283.069 120.452 286.473 122.428C291.743 125.393 296.465 129.346 301.296 132.969C306.347 136.702 311.288 140.436 316.339 144.279C325.781 151.416 335.224 158.553 344.887 165.58C345.985 166.349 346.204 167.996 344.887 168.655C335.334 174.035 325.891 179.525 316.339 184.795C316.668 186.442 316.997 188.089 317.327 189.846C319.193 200.058 321.17 210.269 323.036 220.481C324.683 229.374 326.331 238.268 327.978 247.162C328.417 247.492 328.856 248.041 328.746 248.699C333.358 251.335 337.859 254.299 342.361 257.264C354 264.95 365.09 273.514 374.862 283.506C384.635 293.498 392.76 304.917 398.909 317.435C399.458 311.396 401.105 305.466 403.74 299.867C405.387 296.243 407.364 292.73 408.681 288.996C410.109 284.934 410.548 280.981 410.438 276.699C410.328 269.232 409.56 260.887 414.72 254.738C416.806 252.213 419.881 251.005 422.186 248.699C425.041 245.954 423.394 241.782 423.504 238.268C423.614 231.461 426.359 224.763 431.08 219.712C431.849 218.614 432.508 217.406 433.276 216.308C439.645 205.877 438.547 193.03 439.864 181.282C440.633 174.913 442.17 168.435 444.366 162.396C446.562 156.247 449.747 150.098 454.468 145.487C458.64 141.424 464.35 138.35 470.279 138.24C475.989 138.13 480.71 141.314 483.785 145.926C485.542 141.973 489.055 138.899 493.777 139.338C498.059 139.667 500.365 142.961 501.573 146.694C504.647 144.718 508.71 146.145 510.906 148.781C511.894 149.988 512.553 151.306 512.992 152.733C514.31 153.063 515.517 153.831 516.396 155.039C518.152 157.455 518.153 160.859 518.482 163.714C518.921 167.447 519.251 171.07 519.251 174.803C519.36 181.282 518.592 187.87 516.176 193.909C514.2 198.74 510.247 206.097 504.208 206.097C502.231 206.097 500.255 205.328 498.718 204.12C498.169 209.061 496.741 213.893 495.533 218.614C494.106 224.214 492.788 229.814 491.361 235.413C491.69 235.743 491.91 236.072 491.8 236.731C491.691 240.025 492.459 243.319 492.239 246.613C492.13 249.578 491.032 252.213 488.945 254.299C496.412 263.303 503.988 273.295 505.855 285.043C506.733 290.753 505.964 296.133 504.537 301.733C503.11 307.333 501.353 313.152 502.89 318.862C504.317 324.133 507.612 328.634 510.466 333.136C513.212 337.418 515.407 341.81 516.945 346.642C523.093 365.527 518.921 387.268 506.074 402.421C504.537 404.177 502.012 401.652 503.549 399.895C510.466 391.77 514.639 381.449 515.847 370.908C516.835 361.465 515.627 351.802 511.784 343.128C507.721 333.795 499.267 325.999 498.718 315.348C498.388 309.639 500.255 304.149 501.573 298.659C502.78 293.279 503.11 288.008 501.682 282.738C499.157 272.965 492.788 264.621 486.42 257.044C486.31 257.044 486.201 257.154 486.091 257.154C480.711 259.021 475.001 259.57 469.401 259.57C463.801 259.57 458.092 259.24 452.601 258.472C443.268 257.264 434.484 253.421 427.237 247.492C426.688 249.468 425.481 251.225 423.614 252.652C420.979 254.738 418.124 256.056 416.367 259.021C412.414 265.828 414.61 274.173 414.061 281.53C413.512 289.545 409.34 296.243 406.265 303.49C403.191 310.517 401.983 318.094 402.422 325.67C402.532 325.999 402.642 326.438 402.532 326.658C402.532 327.207 402.642 327.756 402.642 328.415C402.862 330.721 399.348 330.721 399.019 328.415C398.909 327.756 398.909 327.097 398.799 326.438C398.03 324.572 397.262 322.705 396.383 320.948C389.795 306.784 380.353 294.267 369.153 283.396C359.93 274.393 349.608 266.707 338.848 259.679C335.883 257.703 332.809 255.836 329.734 253.97C329.185 254.738 328.197 254.848 327.429 254.519C326.55 257.923 325.672 261.436 324.025 264.511C320.621 271.209 313.703 275.82 306.456 277.138C298.221 278.675 289.657 276.15 282.959 271.209C282.3 270.769 282.081 270.111 282.19 269.452C281.641 269.452 281.093 269.562 280.434 269.562L280.324 269.671C273.955 276.479 263.085 277.248 254.411 275.052C249.25 273.734 245.737 270.44 242.992 266.048C240.137 261.546 237.831 256.715 235.635 251.884C229.815 253.86 223.886 255.727 218.286 258.142C208.185 262.424 199.181 268.793 190.726 275.71C182.491 282.408 174.805 289.765 167.119 297.231C167.229 299.537 167.229 301.843 167.009 304.149C166.9 305.906 166.57 307.772 167.119 309.419C167.558 310.847 168.437 311.835 169.425 312.823C171.621 314.799 174.146 316.447 176.342 318.313C178.538 320.18 180.735 322.156 182.711 324.242C185.566 327.207 188.201 330.501 190.287 334.124C192.483 331.928 194.899 329.842 197.534 327.976C199.401 326.548 201.267 329.732 199.401 331.05C196.765 332.917 194.35 335.113 192.154 337.418C194.789 342.799 195.997 348.728 195.009 354.987C194.13 360.147 190.836 365.418 185.236 366.076C182.821 366.406 180.076 365.747 178.319 363.88C176.342 361.904 175.903 359.049 176.233 356.414C176.672 353.449 178.099 350.595 179.636 347.959C181.064 345.324 182.711 342.909 184.578 340.603C185.566 339.285 186.664 337.967 187.872 336.76C184.248 330.172 178.429 324.572 172.719 319.96C170.633 318.313 168.437 316.886 166.57 315.019C164.484 313.043 163.386 310.627 163.276 307.882C163.057 305.247 163.715 302.721 163.715 300.086C163.715 299.098 163.715 298.11 163.606 297.122C163.496 296.792 163.386 296.463 163.496 296.133C163.386 295.145 163.276 294.267 163.057 293.279C161.41 285.153 156.578 277.357 148.673 274.063C145.928 276.589 142.963 278.785 139.998 280.981C132.642 286.141 124.297 290.863 115.293 291.961C104.862 293.279 94.1016 291.522 84.549 287.239C84.4392 287.459 84.4391 287.569 84.3293 287.788C83.0117 291.083 80.8157 293.937 79.2785 297.122C77.9608 299.867 77.5216 303.161 77.6314 306.235C77.7412 307.772 78.0707 309.309 78.6197 310.737C79.1687 312.164 80.1569 313.372 80.7059 314.909C81.1451 316.337 81.1451 317.874 80.2667 319.082C79.4981 320.18 78.1805 320.619 77.0824 321.388C74.8864 322.925 73.1296 325.121 72.0316 327.646C70.9336 330.062 70.6042 332.807 71.0434 335.442C71.5924 338.736 72.91 341.81 73.7884 344.995C75.655 351.912 74.3374 358.61 72.6904 365.418C71.263 371.237 70.4945 376.947 70.7141 382.986C70.8239 388.586 71.9218 394.076 73.8982 399.346ZM73.2394 180.733C73.3492 183.917 73.8982 187.101 74.7767 190.176C75.2159 189.956 75.6551 189.846 76.2041 189.736C79.1687 188.748 82.2431 188.529 85.4273 188.529C85.3175 185.674 85.3176 182.819 85.647 179.964C85.8666 178.097 86.0861 176.231 86.5253 174.364C86.5253 174.254 86.4155 174.145 86.4155 174.035C86.0861 171.619 85.2077 169.204 83.2313 167.776C81.4744 166.459 78.7295 166.019 76.9727 167.337C75.2159 168.655 74.5571 171.29 74.1179 173.266C73.4591 175.682 73.2394 178.207 73.2394 180.733ZM74.8864 219.492C74.557 219.383 74.2277 219.163 74.0081 218.943C67.2004 214.222 62.9182 206.536 60.832 198.63C59.6242 194.128 59.0751 189.407 59.0751 184.685C59.0751 183.587 59.0751 182.489 59.0751 181.391C58.3065 182.819 58.3066 184.905 58.1967 186.332C57.2085 196.434 56.4399 207.304 60.7221 216.747C61.7103 218.834 62.9182 220.92 64.3456 222.677C65.6632 224.214 67.2004 226.08 69.3964 226.08C73.1296 226.08 74.7766 222.786 74.8864 219.492ZM78.2902 215.43C78.6196 214.002 78.4001 212.575 78.1805 211.147C78.0707 209.83 77.851 208.512 77.6314 207.195C74.7766 206.316 72.2512 204.889 70.4944 202.473C68.7376 200.167 67.7494 196.764 69.3964 194.128C69.9454 193.25 70.714 192.481 71.5924 191.932C70.0552 186.881 69.2866 181.721 69.8356 176.45C69.9454 175.462 70.0552 174.474 70.2748 173.376C67.969 172.388 66.2122 173.376 65.5534 173.925C62.5887 176.121 62.6986 180.513 62.6986 183.917C62.8084 191.164 63.7966 198.63 67.0906 205.108C68.518 207.963 70.2748 210.598 72.4709 212.904C73.5689 214.112 74.8865 215.32 76.3139 216.198C77.4119 216.857 77.9608 216.747 78.2902 215.43ZM85.8665 257.264C86.4155 257.483 86.9645 257.923 87.0743 258.472C89.0507 259.021 91.686 258.472 93.5526 258.142C95.7486 257.813 98.0544 257.374 100.25 256.825C104.533 255.727 108.815 254.299 112.768 252.433C120.893 248.59 128.25 243.319 134.399 236.731C134.508 236.621 134.618 236.511 134.728 236.402C132.751 231.9 131.873 226.959 131.324 222.018C130.665 216.308 130.336 210.598 129.677 204.889C129.018 199.069 127.481 193.36 125.505 187.87C123.528 182.16 120.673 176.341 116.391 171.949C112.768 168.215 107.717 165.141 102.337 165.031C96.5172 164.921 92.6742 168.984 90.2585 173.925C90.1487 174.145 90.039 174.364 89.9292 174.584C88.7214 179.086 88.7214 183.917 88.8312 188.419C88.8312 188.528 88.8312 188.529 88.8312 188.529C89.9292 188.638 90.9173 188.638 92.0153 188.748C96.078 189.078 100.25 189.736 104.093 190.944C105.631 186.552 106.07 181.831 105.191 177.329C104.972 176.341 105.411 175.352 106.509 175.133C107.388 174.913 108.595 175.462 108.705 176.45C109.693 181.721 109.254 187.211 107.497 192.262C108.376 192.591 109.254 193.03 110.023 193.36C116.611 196.654 121.442 202.583 125.175 208.732C126.383 210.708 123.309 212.575 122.101 210.598C118.368 204.559 113.646 198.85 106.948 195.885C102.117 193.799 96.9564 192.811 91.7958 192.372C87.4037 192.042 83.0117 191.603 78.6197 192.591C76.5335 193.03 73.7885 193.799 72.3611 195.666C70.9337 197.532 73.0198 200.387 74.4472 201.595C76.9726 203.681 80.3765 204.23 83.5607 204.45C87.2939 204.779 91.0272 204.889 94.8703 204.999C96.7369 205.108 97.2858 207.414 95.7486 208.402C92.235 210.818 90.6978 215.21 90.588 219.383C90.588 224.763 92.784 229.923 94.8703 234.864C95.1997 235.743 94.431 236.841 93.5526 237.06C92.5644 237.28 91.686 236.731 91.3566 235.743C89.0507 230.143 86.5253 224.214 86.9645 218.065C86.9645 217.406 87.0744 216.857 87.1842 216.198C85.098 216.308 83.1216 215.54 81.6942 213.892C81.6942 214.551 81.6941 215.1 81.5843 215.759C81.3646 217.296 80.5961 218.834 79.2785 219.602C79.0589 219.712 78.7295 219.822 78.5099 219.932C78.5099 220.151 78.4001 220.371 78.4001 220.59C78.4001 221.03 78.2903 221.469 78.1805 221.798C77.9608 224.104 78.0707 226.41 78.5099 228.716C79.3883 233.766 80.9256 238.708 82.2432 243.758C83.5608 248.37 84.7685 252.762 85.8665 257.264ZM83.3412 209.61C84.2196 211.367 85.5372 213.343 87.7332 212.685C88.0626 212.575 88.2821 212.465 88.6115 212.355C89.1605 211.038 89.8194 209.83 90.6978 208.732V208.622C87.9528 208.512 85.3175 208.402 82.5725 208.073C82.9019 208.622 83.1216 209.171 83.3412 209.61ZM144.72 253.311C142.414 248.59 139.12 244.417 136.485 239.915C130.006 246.833 122.101 252.433 113.317 256.276C108.815 258.252 104.094 259.789 99.3721 260.887C96.9565 261.436 94.6506 261.766 92.235 262.095C89.8194 262.424 87.4038 262.534 85.098 261.656C81.4745 266.158 83.451 272.856 84.4392 278.126C84.8784 279.993 85.098 281.859 84.9882 283.726C90.1488 286.141 95.8584 287.788 101.568 288.447C106.509 288.996 111.779 289.106 116.721 288.228C120.783 287.459 124.626 285.812 128.25 283.945C134.508 280.651 140.547 276.589 145.818 271.758C145.818 271.648 145.818 271.538 145.818 271.428C147.684 265.279 147.465 259.13 144.72 253.311ZM189.299 340.273C188.201 341.481 187.213 342.799 186.334 344.116C184.577 346.532 182.93 349.167 181.503 351.912C180.295 354.218 178.868 357.183 179.746 359.818C180.405 361.904 182.601 362.782 184.687 362.563C186.993 362.233 188.64 360.696 189.738 358.72C192.154 354.438 191.934 348.838 190.726 344.226C190.287 342.799 189.848 341.481 189.299 340.273ZM275.163 269.342C273.955 269.232 272.748 269.013 271.54 268.683C265.171 267.146 259.132 264.071 253.313 261.217C249.031 259.13 244.858 256.934 240.795 254.519C242.223 257.374 243.76 260.228 245.297 263.083C247.603 267.036 250.238 270.22 254.85 271.538C261.218 273.295 269.454 273.185 275.163 269.342ZM323.256 255.836C323.146 255.836 323.146 255.946 323.036 255.946C321.609 256.825 320.072 257.703 318.535 258.472C315.46 260.009 312.276 261.326 309.092 262.424C303.162 264.511 297.013 266.487 290.974 268.024C289.327 268.464 287.681 268.793 285.924 269.013C293.28 273.844 302.833 275.71 310.958 271.758C314.801 270.001 318.095 267.146 320.182 263.522C321.719 261.217 322.597 258.581 323.256 255.836ZM324.574 250.127C324.464 249.907 324.464 249.578 324.354 249.248C324.134 248.37 324.025 247.382 323.805 246.503C323.366 244.198 322.927 241.892 322.487 239.586C320.291 227.947 318.205 216.308 316.009 204.559C314.801 197.971 313.594 191.383 312.276 184.795C312.166 184.027 312.386 183.148 313.154 182.709C322.268 177.658 331.381 172.498 340.495 167.337C336.103 164.153 331.711 160.859 327.429 157.565C317.876 150.428 308.323 143.071 298.77 135.934C289.877 129.236 280.763 121.33 269.014 121.221C262.426 123.417 257.046 125.064 256.168 136.373C255.509 144.608 259.901 154.161 251.336 163.274L249.36 163.714C249.689 163.823 250.019 163.933 250.348 164.043C251.227 164.372 251.666 165.47 251.336 166.459C251.007 167.337 249.909 167.776 248.921 167.447C242.882 164.921 235.086 167.557 231.792 173.266C228.498 178.866 230.145 186.991 235.196 191.054C240.356 195.007 248.591 194.568 253.203 189.956C253.862 189.297 255.07 189.297 255.729 189.956C256.387 190.615 256.387 191.823 255.729 192.481C253.313 194.897 250.019 196.434 246.725 196.983C246.725 197.093 246.725 197.313 246.725 197.422C244.419 214.551 240.795 231.351 237.501 248.26C237.611 248.26 237.611 248.26 237.721 248.37C244.529 252.542 251.666 256.385 258.913 259.789C265.061 262.644 271.65 265.828 278.567 266.048C285.594 266.268 292.402 264.071 298.99 262.095C305.139 260.228 311.178 258.252 316.997 255.397C319.742 253.97 322.158 252.213 324.683 250.566C324.574 250.346 324.574 250.237 324.574 250.127ZM499.047 195.446C498.718 195.666 498.498 195.885 498.169 195.995C498.388 199.289 500.035 202.583 503.878 202.583C506.074 202.583 507.612 200.716 508.819 199.179C510.247 197.313 511.455 195.226 512.333 193.14C516.505 183.587 515.517 172.717 514.419 162.615C514.309 161.188 514.2 159.102 513.431 157.674C513.431 158.772 513.431 159.87 513.431 160.968C513.431 165.69 512.992 170.411 511.784 174.913C509.917 182.929 505.745 190.615 499.047 195.446ZM501.133 168.435C502.012 168.984 502.78 169.753 503.329 170.631C505.086 173.266 504.098 176.67 502.451 179.086C500.694 181.501 498.169 183.038 495.314 183.917C495.094 185.234 494.985 186.552 494.875 187.87C494.765 189.297 494.545 190.725 494.875 192.152C495.204 193.47 495.753 193.579 496.851 192.811C498.278 191.932 499.486 190.725 500.584 189.517C502.78 187.211 504.537 184.576 505.855 181.721C509.039 175.133 510.027 167.666 510.027 160.419C510.027 157.016 510.027 152.624 507.063 150.537C506.294 149.988 504.537 149.11 502.341 150.098C502.561 151.196 502.671 152.184 502.78 153.173L501.133 168.435ZM485.981 151.086C486.42 152.953 486.749 154.82 486.969 156.686C487.298 159.541 487.408 162.396 487.298 165.251C490.373 165.141 493.447 165.361 496.522 166.349C496.961 166.459 497.4 166.678 497.949 166.788C498.718 163.714 499.267 160.529 499.376 157.345C499.376 154.82 499.157 152.294 498.608 149.879C498.059 147.902 497.4 145.267 495.643 143.949C493.777 142.632 491.032 143.071 489.385 144.389C487.408 145.926 486.64 148.341 486.31 150.757C485.981 150.867 485.981 150.977 485.981 151.086ZM435.582 219.492C438.657 222.567 441.841 225.422 445.464 227.837C452.382 232.668 460.068 236.402 468.193 238.707C474.013 240.355 482.577 241.453 486.969 236.072C487.079 235.962 487.189 235.853 487.298 235.743C487.298 235.633 487.298 235.523 487.298 235.523C488.506 230.472 489.824 225.422 491.032 220.481C492.24 215.54 493.777 210.489 494.545 205.438C494.875 203.132 494.985 200.826 494.765 198.52C494.655 198.081 494.655 197.642 494.545 197.313C494.545 197.093 494.435 196.873 494.435 196.654C494.216 196.544 493.887 196.434 493.667 196.324C492.239 195.556 491.581 194.019 491.251 192.481C491.142 191.823 491.141 191.274 491.141 190.615C489.714 192.262 487.738 193.14 485.651 193.03C485.761 193.689 485.871 194.238 485.871 194.897C486.42 201.046 484.004 207.085 481.808 212.685C481.479 213.563 480.601 214.222 479.612 214.002C478.734 213.783 477.965 212.685 478.295 211.806C480.271 206.865 482.467 201.705 482.357 196.324C482.248 192.152 480.71 187.76 477.087 185.454C475.55 184.466 476.099 182.16 477.965 182.05C481.699 181.831 485.432 181.611 489.275 181.282C492.459 180.952 495.863 180.403 498.278 178.317C499.706 177.109 501.792 174.254 500.255 172.388C498.828 170.631 496.083 169.862 493.996 169.423C489.714 168.435 485.212 168.984 480.82 169.313C475.66 169.862 470.499 170.851 465.668 173.047C459.08 176.011 454.358 181.831 450.735 187.98C449.527 189.956 446.343 188.199 447.551 186.223C451.284 179.964 456.005 174.035 462.484 170.631C463.362 170.192 464.13 169.862 465.009 169.423C463.252 164.372 462.703 158.992 463.582 153.612C463.691 152.624 464.899 152.075 465.778 152.294C466.766 152.514 467.205 153.502 467.095 154.49C466.327 159.102 466.875 163.823 468.413 168.106C472.366 166.898 476.428 166.129 480.491 165.69C481.589 165.58 482.577 165.47 483.675 165.361V165.251C483.785 160.749 483.675 155.918 482.467 151.416C482.357 151.196 482.248 150.977 482.138 150.757C479.722 145.816 475.769 141.863 469.95 141.973C464.57 142.083 459.519 145.267 456.005 149.11C451.833 153.612 449.088 159.431 447.111 165.141C445.245 170.631 443.817 176.45 443.159 182.27C442.5 187.98 442.39 193.689 441.731 199.399C441.182 204.669 440.304 210.049 437.998 214.881C437.339 216.528 436.461 218.065 435.582 219.492ZM482.248 185.454C483.126 186.662 483.785 187.87 484.334 189.078C484.553 189.187 484.883 189.297 485.212 189.407C487.518 189.956 488.726 187.979 489.604 186.223C489.824 185.783 490.153 185.234 490.373 184.795C487.628 185.125 484.883 185.344 482.248 185.454ZM488.287 245.515C488.287 243.758 488.067 242.002 487.957 240.245C485.432 242.441 481.918 243.429 478.624 243.649C470.17 244.307 461.605 240.904 454.139 237.28C446.562 233.547 439.535 228.716 433.606 222.677C431.849 225.312 430.202 227.947 428.884 230.802L428.445 230.912C428.336 231.131 428.335 231.351 428.225 231.57C427.018 235.413 427.018 238.927 427.347 242.88C427.457 242.99 427.567 242.99 427.786 243.209C434.814 249.797 444.037 253.75 453.59 254.958C458.75 255.617 464.13 255.836 469.401 255.836C474.561 255.836 479.722 255.287 484.663 253.75C484.773 253.421 484.883 253.091 485.102 252.872C487.298 250.895 488.397 248.59 488.287 245.515ZM272.418 320.729C270.442 320.948 268.465 322.046 267.916 324.133C267.697 325.011 268.246 326.109 269.234 326.329C269.344 326.329 269.563 326.329 269.673 326.329C269.893 327.976 270.771 329.403 272.089 330.281C273.187 331.05 274.614 331.27 275.822 330.611C276.81 330.062 277.359 328.964 277.579 327.976C278.128 326.329 277.908 324.242 276.92 322.815C275.932 321.497 274.285 320.619 272.418 320.729ZM274.065 327.317C273.955 327.536 273.846 327.756 274.065 327.317V327.317ZM274.175 327.097C274.175 327.207 274.175 327.207 274.065 327.317C274.175 327.317 274.175 327.317 274.065 327.317C274.065 327.317 274.065 327.317 273.955 327.317C273.955 327.317 273.846 327.317 273.846 327.207C273.846 327.207 273.846 327.207 273.955 327.207C273.846 327.097 273.736 326.987 273.736 326.878V326.987C273.736 326.987 273.736 326.987 273.736 326.878C273.626 326.658 273.736 326.768 273.736 326.878L273.626 326.768C273.516 326.658 273.516 326.548 273.406 326.438V326.329C273.406 326.219 273.406 326.219 273.406 326.109C273.406 325.889 273.406 325.56 273.406 325.34C273.406 325.011 273.297 324.682 273.077 324.352H273.187H273.077H273.187H273.297C273.297 324.352 273.297 324.352 273.406 324.462C273.516 324.572 273.626 324.682 273.516 324.572C273.626 324.682 273.626 324.682 273.736 324.791C273.736 324.791 273.736 324.791 273.736 324.682C273.736 324.682 273.736 324.791 273.846 324.791C273.955 325.011 273.955 325.011 273.955 324.901C273.955 325.011 274.065 325.011 274.065 325.121C274.065 325.121 274.065 325.231 274.175 325.231C274.175 325.34 274.175 325.34 274.285 325.45C274.285 325.56 274.285 325.67 274.395 325.78C274.395 325.999 274.395 326.329 274.395 326.548C274.175 326.768 274.175 326.987 274.175 327.097ZM274.395 327.536C274.285 327.536 274.285 327.427 274.285 327.427C274.285 327.427 274.285 327.427 274.395 327.536ZM286.473 338.626C285.814 335.662 286.034 332.807 286.253 329.842C286.473 326.987 286.582 323.913 285.814 321.168C285.484 319.96 284.935 318.752 284.167 317.764C283.398 316.666 281.861 315.678 281.641 314.25C281.312 312.823 281.641 311.176 281.751 309.749C281.861 308.102 282.081 306.564 282.41 304.917C283.069 301.733 284.606 299.427 286.363 296.792C288.12 294.047 288.559 291.192 287.241 288.228C286.143 285.922 283.947 283.836 284.057 281.091C284.167 278.785 280.544 278.785 280.434 281.091C280.324 283.616 281.641 285.702 282.959 287.788C284.386 290.204 285.155 291.961 283.618 294.596C282.081 297.122 280.324 299.318 279.445 302.282C278.567 305.247 278.238 308.431 278.128 311.505C278.018 312.933 277.908 314.36 278.347 315.678C278.896 317.215 279.994 318.203 280.983 319.411C282.74 321.607 282.959 324.352 282.959 326.987C282.849 329.842 282.52 332.697 282.63 335.552C282.74 338.846 283.728 341.92 284.936 344.995C287.571 351.583 292.073 358.83 289.767 366.186C288.998 368.382 292.512 369.371 293.28 367.175C295.367 360.696 292.951 354.218 290.316 348.289C288.669 344.995 287.132 341.92 286.473 338.626ZM254.301 176.999C249.47 173.486 243.101 172.498 237.392 174.035C235.196 174.694 236.074 178.097 238.38 177.548C243.211 176.231 248.372 177.219 252.434 180.184C253.203 180.733 254.411 180.293 254.96 179.525C255.509 178.646 255.179 177.658 254.301 176.999ZM273.736 295.255C274.834 294.816 275.822 294.047 276.481 293.059C277.03 292.071 277.359 290.973 277.469 289.875C277.579 288.777 277.359 287.788 276.92 286.8C276.371 285.592 275.163 284.934 273.846 284.824C272.638 284.714 271.21 285.263 270.442 286.251C269.783 286.91 269.454 287.788 269.234 288.557C269.124 288.667 269.124 288.667 269.014 288.777C268.575 289.216 268.356 289.655 268.136 290.314C267.807 291.192 267.916 292.29 268.246 293.169C269.124 295.145 271.65 296.024 273.736 295.255ZM271.54 291.522C271.65 291.412 271.869 291.302 271.979 291.192C272.089 290.973 272.199 290.863 272.308 290.643C272.308 290.533 272.418 290.534 272.418 290.424C272.638 290.094 272.748 289.655 272.638 289.326C272.638 289.216 272.638 289.216 272.748 289.106C272.748 288.996 272.857 288.886 272.857 288.777C272.857 288.777 272.857 288.667 272.967 288.667L273.077 288.557C273.187 288.557 273.187 288.447 273.297 288.447C273.406 288.447 273.406 288.447 273.516 288.338H273.626C273.736 288.557 273.736 288.667 273.736 288.887C273.736 289.216 273.736 289.435 273.736 289.765C273.626 290.094 273.626 290.314 273.516 290.643C273.406 290.753 273.406 290.863 273.297 290.973C273.187 291.083 273.187 291.192 273.077 291.302C273.077 291.302 273.077 291.192 273.187 291.192C273.187 291.192 273.187 291.192 273.077 291.302C272.967 291.412 272.967 291.412 272.857 291.522C272.748 291.632 272.638 291.632 272.528 291.632C272.418 291.632 272.308 291.741 272.089 291.741C271.979 291.741 271.869 291.741 271.759 291.741C271.65 291.741 271.65 291.741 271.54 291.632H271.43C271.54 291.632 271.54 291.632 271.54 291.522ZM280.763 129.785C281.641 129.565 282.3 128.467 282.081 127.589C281.751 126.601 280.873 126.162 279.885 126.271C279.555 126.381 279.226 126.381 278.896 126.491C278.677 126.491 278.567 126.601 278.347 126.601C278.347 126.601 278.238 126.601 278.128 126.601C277.469 126.711 276.81 126.711 276.151 126.82C274.834 126.93 273.406 126.82 272.089 126.711C271.101 126.601 270.222 127.589 270.332 128.467C270.332 129.565 271.101 130.224 272.089 130.224C274.944 130.554 277.908 130.334 280.763 129.785ZM274.175 140.216C273.626 139.448 272.638 139.008 271.65 139.557C270.881 139.997 270.332 141.204 270.991 142.083C273.406 145.267 275.822 148.341 278.128 151.526C278.677 152.294 279.665 152.733 280.653 152.184C281.422 151.745 281.971 150.537 281.312 149.659C279.006 146.475 276.591 143.4 274.175 140.216ZM288.888 143.181C286.473 140.436 284.057 137.691 281.532 135.055C280.873 134.397 279.555 134.397 279.006 135.055C278.347 135.824 278.347 136.812 279.006 137.581C281.422 140.326 283.837 143.071 286.363 145.706C287.022 146.365 288.339 146.365 288.888 145.706C289.547 144.938 289.547 143.949 288.888 143.181ZM265.171 130.114C264.183 130.444 263.744 131.322 263.854 132.31C264.183 134.616 264.622 137.032 264.073 139.228C263.634 140.985 262.756 142.302 261.109 143.071C260.23 143.51 260.011 144.718 260.45 145.596C260.999 146.475 261.987 146.694 262.975 146.255C265.281 145.157 266.818 142.851 267.477 140.436C268.246 137.471 267.807 134.397 267.367 131.432C267.148 130.334 265.94 129.785 265.171 130.114Z" fill="black"/>
<path d="M228.717 44.2497C229.266 45.0184 228.827 46.336 228.059 46.7752C227.18 47.3242 226.192 46.885 225.533 46.1164C220.702 39.8577 224.984 30.1952 230.145 25.4738C232.78 23.0582 236.513 21.0818 240.246 22.2896C242.003 22.8386 243.211 24.1562 244.529 25.364C246.066 26.7914 247.384 27.1208 249.25 26.0228C252.105 24.3758 254.191 21.521 257.046 19.7642C260.011 17.8975 263.305 16.7995 266.818 16.3603C273.406 15.4819 280.214 17.6779 284.716 22.619C288.778 27.2306 290.975 33.7089 289.437 39.8577C287.79 46.6654 281.971 51.7162 275.602 54.022C271.869 55.3396 267.697 55.8886 263.744 55.669C261.767 55.5592 259.791 55.12 257.925 55.2298C255.948 55.3396 254.96 56.5474 254.082 58.0847C252.325 61.0493 250.897 64.1237 248.591 66.7589C246.286 69.3941 243.211 71.2608 239.807 71.8098C236.074 72.3588 232.341 71.2608 229.047 69.7235C227.07 68.8451 225.314 67.7471 223.447 66.5393C222.02 65.6609 220.592 64.7825 219.384 63.5747C216.639 60.8297 216.859 57.4259 218.506 54.022C220.373 50.179 222.788 46.6654 225.423 43.2615C225.972 42.4929 226.961 42.0537 227.949 42.6027C228.717 43.0419 229.157 44.2497 228.608 45.1281C226.082 48.4222 223.776 51.9358 221.8 55.669C220.922 57.316 220.263 58.9631 221.58 60.6101C222.569 61.9277 224.106 62.6963 225.533 63.5747C228.827 65.6609 232.451 67.7471 236.403 68.2961C240.027 68.7353 243.211 67.3079 245.627 64.7825C247.603 62.6963 249.031 60.0611 250.458 57.5356C251.885 54.7906 253.752 52.1554 257.046 51.7162C258.803 51.4966 260.56 51.826 262.426 51.9358C264.183 52.0456 265.94 52.0456 267.697 51.9358C270.991 51.7162 274.395 50.9476 277.359 49.3006C282.52 46.5556 286.582 41.6145 286.582 35.5755C286.582 30.1952 283.508 24.9248 279.006 22.1798C273.955 18.9956 267.587 19.1053 262.207 21.3014C259.462 22.5092 257.156 24.266 254.96 26.2424C252.874 28.2188 250.348 30.4148 247.274 30.305C245.737 30.305 244.419 29.6462 243.211 28.7678C242.113 27.8894 241.235 26.5718 239.917 25.913C237.392 24.5954 234.427 26.5718 232.67 28.3286C228.608 32.0619 224.984 39.4185 228.717 44.2497ZM340.495 77.19C344.557 74.6646 349.608 77.8488 350.267 82.2408C350.596 84.8761 349.718 87.1819 348.291 89.2681C346.973 91.2445 346.973 93.5503 348.949 94.9777C350.487 96.0758 353.012 96.1856 353.781 98.2718C354.549 100.248 353.781 102.554 352.573 104.091C350.047 107.275 345.326 108.703 341.593 107.166C336.871 105.299 334.236 99.6992 334.895 94.7581C335.005 93.7699 334.456 92.3425 333.138 92.4523C330.942 92.6719 328.636 92.6719 326.44 92.3425C325.013 92.1229 321.938 91.9033 321.17 90.3661C320.511 89.0485 320.95 86.5231 321.17 85.0957C321.499 83.3389 321.938 81.4722 322.817 79.8252C324.354 76.8606 326.77 74.445 330.064 73.7862C333.028 73.1274 336.103 73.896 338.079 76.3116C339.507 78.0684 342.142 75.543 340.605 73.7862C337.969 70.4922 333.467 69.5039 329.405 70.2726C324.903 71.151 321.28 74.445 319.413 78.5076C318.425 80.7036 317.766 83.0094 317.437 85.4251C317.217 87.6211 316.888 90.4759 318.095 92.4523C319.413 94.6483 322.048 95.3071 324.354 95.7463C327.209 96.2954 330.173 96.5149 333.028 96.1855C332.479 95.4169 331.821 94.6483 331.272 93.8797C330.503 99.6992 332.699 105.628 337.53 109.142C342.142 112.436 348.51 111.997 352.902 108.703C356.965 105.628 359.93 98.2718 355.098 94.3189C354.11 93.5503 352.902 93.1111 351.804 92.5621C351.585 92.4523 350.816 92.0131 350.816 92.0131C350.706 91.5739 351.804 90.3661 352.024 90.0367C353.561 87.5113 354.11 84.3271 353.671 81.3624C352.463 74.6646 344.667 70.4922 338.628 74.1156C336.652 75.3234 338.518 78.3978 340.495 77.19ZM236.184 55.12C235.855 55.12 235.635 55.12 235.305 55.12C235.086 55.12 234.866 55.12 234.647 55.2298C234.427 55.3396 234.207 55.4494 234.098 55.5592C233.878 55.669 233.768 55.8886 233.768 56.1082C233.659 56.3278 233.549 56.5474 233.658 56.767C233.658 56.8768 233.659 57.0964 233.768 57.2062C233.878 57.5356 233.988 57.7553 234.207 57.9749C234.317 58.0847 234.427 58.1944 234.537 58.3043C234.866 58.4141 235.086 58.5239 235.415 58.5239C235.745 58.5239 235.964 58.5239 236.294 58.5239C236.513 58.5239 236.733 58.5239 236.952 58.4141C237.172 58.3043 237.392 58.1945 237.501 58.0847C237.721 57.9749 237.831 57.7552 237.831 57.5356C237.941 57.316 238.051 57.0964 237.941 56.8768C237.941 56.767 237.941 56.5474 237.831 56.4376C237.721 56.1082 237.611 55.8886 237.392 55.669C237.282 55.5592 237.172 55.4494 237.062 55.3396C236.843 55.2298 236.513 55.12 236.184 55.12ZM265.611 30.7442C265.281 31.0736 265.062 31.2932 264.732 31.6226C264.513 31.7324 264.403 31.9521 264.403 32.1717C264.293 32.3913 264.183 32.6109 264.293 32.8305C264.293 33.0501 264.293 33.2697 264.403 33.4893C264.512 33.7089 264.622 33.9285 264.732 34.0383C264.842 34.1481 264.952 34.2579 265.062 34.3677C265.391 34.4775 265.611 34.5873 265.94 34.5873C266.05 34.5873 266.269 34.5873 266.379 34.4775C266.709 34.3677 266.928 34.2579 267.148 34.0383C267.477 33.7089 267.697 33.4893 268.026 33.1599C268.246 33.0501 268.356 32.8305 268.356 32.6109C268.465 32.3913 268.575 32.1716 268.465 31.952C268.465 31.7324 268.465 31.5128 268.356 31.2932C268.246 31.0736 268.136 30.854 268.026 30.7442C267.916 30.6344 267.807 30.5246 267.697 30.4148C267.367 30.305 267.148 30.1952 266.818 30.1952C266.709 30.1952 266.489 30.1952 266.379 30.305C266.05 30.4148 265.83 30.5246 265.611 30.7442ZM249.031 39.9675C249.36 39.6381 249.58 39.4185 249.909 39.0891C250.129 38.9793 250.238 38.7597 250.238 38.5401C250.348 38.3205 250.458 38.1009 250.348 37.8813C250.348 37.6617 250.348 37.4421 250.238 37.2225C250.129 37.0029 250.019 36.7833 249.909 36.6735C249.799 36.5637 249.689 36.4539 249.58 36.3441C249.25 36.2343 249.031 36.1245 248.701 36.1245C248.591 36.1245 248.372 36.1245 248.262 36.2343C247.933 36.3441 247.713 36.4539 247.493 36.6735C247.164 37.0029 246.944 37.2225 246.615 37.5519C246.395 37.6617 246.286 37.8813 246.286 38.1009C246.176 38.3205 246.066 38.5401 246.176 38.7597C246.176 38.9793 246.176 39.1989 246.286 39.4185C246.395 39.6381 246.505 39.8577 246.615 39.9675C246.725 40.0773 246.835 40.1871 246.944 40.2969C247.274 40.4067 247.493 40.5165 247.823 40.5165C247.933 40.5165 248.152 40.5165 248.262 40.4067C248.591 40.4067 248.811 40.1871 249.031 39.9675ZM346.753 126.82C347.083 126.491 347.302 126.271 347.632 125.942C347.851 125.832 347.961 125.612 347.961 125.393C348.071 125.173 348.181 124.953 348.071 124.734C348.071 124.514 348.071 124.295 347.961 124.075C347.851 123.855 347.742 123.636 347.632 123.526C347.522 123.416 347.412 123.306 347.302 123.197C346.973 123.087 346.753 122.977 346.424 122.977C346.314 122.977 346.095 122.977 345.985 123.087C345.655 123.197 345.436 123.306 345.216 123.526C344.887 123.855 344.667 124.075 344.338 124.404C344.118 124.514 344.008 124.734 344.008 124.953C343.899 125.173 343.789 125.393 343.899 125.612C343.899 125.832 343.899 126.051 344.008 126.271C344.118 126.491 344.228 126.71 344.338 126.82C344.448 126.93 344.557 127.04 344.667 127.149C344.997 127.259 345.216 127.369 345.546 127.369C345.655 127.369 345.875 127.369 345.985 127.259C346.314 127.259 346.534 127.04 346.753 126.82ZM239.478 3.84303C239.807 3.51363 240.027 3.29403 240.356 2.96463C240.576 2.85483 240.686 2.63523 240.686 2.41562C240.796 2.19602 240.905 1.97641 240.796 1.75681C240.796 1.53721 240.796 1.31761 240.686 1.09801C240.576 0.878407 240.466 0.658805 240.356 0.549004C240.247 0.439203 240.137 0.329408 240.027 0.219607C239.698 0.109806 239.478 0 239.148 0C239.039 0 238.819 -1.67706e-06 238.709 0.109799C238.38 0.2196 238.16 0.329403 237.941 0.549004C237.611 0.878407 237.392 1.09801 237.062 1.42741C236.843 1.53722 236.733 1.75682 236.733 1.97642C236.623 2.19602 236.513 2.41562 236.623 2.63522C236.623 2.85482 236.623 3.07442 236.733 3.29403C236.843 3.51363 236.953 3.73323 237.062 3.84303C237.172 3.95283 237.282 4.06263 237.392 4.17244C237.721 4.28224 237.941 4.39203 238.27 4.39203C238.38 4.39203 238.6 4.39204 238.709 4.28223C238.929 4.17243 239.258 4.06263 239.478 3.84303ZM336.652 81.3624C336.652 81.2526 336.652 81.2526 336.652 81.1428C336.652 81.2526 336.652 81.4722 336.762 81.582C336.652 81.4722 336.652 81.4722 336.652 81.3624C336.652 81.4722 336.652 81.582 336.652 81.8016C336.652 81.6918 336.652 81.582 336.652 81.3624C336.652 81.582 336.542 81.6918 336.542 81.9114C336.542 81.8016 336.652 81.6918 336.762 81.582C336.652 81.6918 336.542 81.8016 336.432 81.9114C336.542 81.8016 336.542 81.8016 336.652 81.6918C336.542 81.8016 336.432 81.9114 336.322 82.0212C336.432 81.9114 336.542 81.9114 336.542 81.9114C336.432 82.0212 336.212 82.0212 336.103 82.131H336.213C336.432 82.0212 336.652 82.0212 336.871 81.8016C337.091 81.6918 337.201 81.4722 337.311 81.2526C337.42 81.033 337.53 80.8134 337.53 80.5938C337.53 80.3742 337.53 80.1546 337.53 79.8252C337.42 79.7154 337.42 79.4958 337.311 79.386C337.201 79.1664 336.981 78.9468 336.652 78.7272C336.542 78.6174 336.322 78.6174 336.213 78.5076C335.883 78.3978 335.554 78.3978 335.224 78.5076C335.005 78.6174 334.785 78.6174 334.566 78.837C334.566 78.837 334.456 78.837 334.456 78.9468C334.346 79.0566 334.126 79.1664 334.017 79.2762C333.907 79.386 333.907 79.386 333.797 79.4958C333.687 79.7154 333.467 79.8252 333.358 80.0448C333.248 80.2644 333.248 80.3742 333.138 80.5938V80.7036C333.028 80.9232 333.028 81.1428 333.028 81.4722C333.028 81.582 333.028 81.6918 333.028 81.6918C333.028 81.9114 333.028 82.131 333.138 82.2408V82.3506C333.248 82.5702 333.248 82.7898 333.468 83.0094C333.577 83.229 333.797 83.3389 334.017 83.4487C334.236 83.5585 334.456 83.6683 334.675 83.6683C334.895 83.6683 335.114 83.6683 335.444 83.6683C335.554 83.5585 335.773 83.5585 335.883 83.4487C336.103 83.3389 336.322 83.1192 336.542 82.7898C336.652 82.68 336.652 82.4604 336.762 82.3506C336.762 82.0212 336.761 81.6918 336.652 81.3624ZM361.467 69.5039C361.796 69.5039 362.016 69.5039 362.345 69.5039C362.565 69.5039 362.784 69.5039 363.004 69.3941C363.224 69.2843 363.443 69.1745 363.553 69.0647C363.773 68.9549 363.882 68.7353 363.882 68.5157C363.992 68.2961 364.102 68.0765 363.992 67.8569C363.992 67.7471 363.992 67.5275 363.882 67.4177C363.773 67.0883 363.663 66.8687 363.443 66.6491C363.333 66.5393 363.224 66.4295 363.114 66.3197C362.784 66.2099 362.565 66.1001 362.235 66.1001C361.906 66.1001 361.686 66.1001 361.357 66.1001C361.137 66.1001 360.918 66.1001 360.698 66.2099C360.478 66.3197 360.259 66.4295 360.149 66.5393C359.929 66.6491 359.82 66.8687 359.82 67.0883C359.71 67.3079 359.6 67.5275 359.71 67.7471C359.71 67.8569 359.71 68.0765 359.82 68.1863C359.93 68.5157 360.039 68.7353 360.259 68.9549C360.369 69.0647 360.479 69.1745 360.588 69.2843C360.808 69.5039 361.137 69.5039 361.467 69.5039Z" fill="black"/>
</svg>
