<svg width="574" height="600" viewBox="0 0 574 600" fill="none" xmlns="http://www.w3.org/2000/svg">
<path d="M196.58 322.455C170.018 328.261 142.838 333.697 115.906 330.732C88.8494 327.643 61.6696 314.795 47.7091 291.445C39.1845 277.114 36.7136 257.717 46.4736 244.127C56.3572 230.538 74.5182 226.955 90.9496 223.372C109.852 219.172 129.125 213.241 143.579 200.393C158.034 187.544 166.682 166.295 159.764 148.257C153.71 132.32 136.414 118.73 140.491 102.051C143.95 87.8438 160.752 82.1608 171.006 71.536C181.755 60.417 184.596 44.2327 190.032 29.778C195.468 15.3233 206.34 0.250883 221.783 0.00379385C235.373 -0.243295 246.492 11.617 250.816 24.4656C255.14 37.3143 254.275 51.2747 254.893 64.7411C255.511 78.2074 258.105 92.6621 267.371 102.422C275.525 111.07 287.879 114.653 299.74 114.9C311.6 115.024 323.337 112.059 334.826 109.094C368.924 100.322 403.023 91.5502 437.121 82.7785C446.634 80.3077 456.517 77.8367 466.278 79.1957C476.038 80.5547 485.797 86.8555 488.268 96.3684C490.492 105.14 486.292 114.159 481.597 121.942C473.32 135.779 463.436 148.504 452.07 159.994C443.669 168.518 434.032 177.043 431.314 188.78C428.226 202.122 435.144 215.712 443.545 226.461C451.946 237.209 462.324 246.846 467.883 259.324C477.891 281.809 469.984 309.112 454.17 327.891C438.356 346.669 415.995 358.653 393.757 369.031C371.519 379.409 348.416 389.045 329.39 404.612" fill="#F4F6F9"/>
<path d="M538.674 537.668C538.674 540.881 533.486 552.123 466.648 561.883C419.207 568.802 356.199 572.632 289.115 572.632C222.03 572.632 159.023 568.802 111.582 561.883C44.744 552.123 39.5551 540.881 39.5551 537.668C39.5551 534.456 44.744 523.214 111.582 513.454C159.023 506.535 222.03 502.705 289.115 502.705C356.199 502.705 419.207 506.535 466.648 513.454C533.486 523.214 538.674 534.456 538.674 537.668ZM573.885 540.51C573.885 571.52 445.893 596.723 287.879 596.723C129.866 596.723 1.87408 571.52 1.87408 540.51C1.87408 509.5 129.866 484.297 287.879 484.297C445.893 484.297 573.885 509.5 573.885 540.51ZM542.381 537.668C542.381 526.426 517.054 517.037 467.142 509.748C419.578 502.829 356.323 498.876 289.115 498.876C221.907 498.876 158.652 502.706 111.087 509.748C61.1754 517.037 35.8488 526.426 35.8488 537.668C35.8488 548.911 61.1754 558.301 111.087 565.59C158.652 572.508 221.907 576.462 289.115 576.462C356.323 576.462 419.578 572.632 467.142 565.59C517.054 558.177 542.381 548.787 542.381 537.668Z" fill="#FEAABC"/>
<path d="M554.241 433.15C546.705 425.861 537.439 420.301 527.555 416.842C531.138 417.83 534.845 418.572 538.427 417.583C542.01 416.595 545.099 413.383 544.852 409.677C544.728 407.7 543.74 405.97 542.752 404.364C540.157 399.917 537.439 395.593 534.845 391.145C534.35 390.404 533.856 389.539 533.115 389.168C531.88 388.55 530.397 389.292 529.532 390.404C527.432 393.122 528.667 396.951 529.285 400.287C529.903 403.623 529.162 408.194 525.702 408.688C524.343 408.935 522.861 408.318 521.625 407.7C516.066 404.982 510.753 402.017 505.565 398.558C503.217 396.952 500.623 395.222 499.634 392.504C498.523 389.786 499.511 386.079 502.352 385.338C504.082 384.844 505.812 385.585 507.418 386.203C511.989 388.056 516.436 389.91 521.008 391.763C522.367 392.38 523.849 392.874 525.332 392.751C528.297 392.257 530.026 388.55 529.162 385.709C528.297 382.744 525.826 380.644 523.231 379.038C512.977 372.613 499.387 372.366 488.515 377.555C488.515 377.432 488.515 377.308 488.515 377.061C488.515 374.713 486.168 371.254 484.933 369.154C481.844 364.212 477.644 360.012 472.578 357.17C470.478 356.058 468.254 355.07 466.772 353.217C465.289 351.487 464.795 349.14 463.93 347.039C459.359 335.303 445.028 328.384 433.044 332.214C431.562 332.708 430.079 333.326 428.72 332.832C420.566 330.484 413.524 302.934 410.312 295.769C401.787 276.743 393.139 257.47 380.414 241.038C373.743 232.514 366.454 224.854 358.176 218.924L362.994 213.612C361.141 215.094 359.288 216.824 357.805 218.553C350.146 213.241 341.621 209.288 331.985 207.434L332.602 206.322C329.884 191.126 320.124 139.114 320.124 139.114C330.132 133.555 350.516 121.942 350.516 121.942C333.591 109.587 314.812 95.0089 295.663 80.9249C289.362 76.2302 281.579 72.6475 273.672 72.6475C259.217 61.7756 253.781 85.496 251.063 119.347C244.515 117.988 237.226 121.077 233.891 126.883C230.061 133.431 231.914 142.821 237.844 147.392C241.056 149.863 245.133 150.851 249.086 150.48C249.086 150.975 249.086 151.592 248.963 152.086C246.121 172.595 242.786 188.038 239.079 206.075L237.35 205.581C231.914 206.199 226.601 207.187 221.289 208.67L219.065 205.705C219.683 206.693 220.301 207.681 221.042 208.67C199.545 214.6 179.407 227.449 162.605 243.756L158.775 240.174C159.764 241.656 160.876 242.892 162.235 244.127C146.545 259.446 133.696 277.855 125.789 296.51C124.924 298.61 123.936 300.834 122.33 302.316C119.859 304.54 116.4 304.911 113.188 306.023C96.7562 312.076 94.2854 337.65 77.7304 343.333C74.8889 344.321 71.3061 344.816 69.7 347.41C65.7466 353.587 76.742 359.641 76.742 366.93L77.2362 367.795C69.0823 364.459 60.1871 362.359 51.4154 363.347C42.5202 364.336 33.7486 368.907 29.0539 376.567C28.0655 378.173 27.3243 380.273 27.6949 382.002C26.583 381.385 25.3476 381.138 24.1121 381.508C22.1354 382.126 20.7764 383.979 19.7881 385.832C18.0584 388.921 16.5759 392.01 15.464 395.345C14.3521 398.558 13.858 402.511 16.4524 404.611C18.3056 406.094 20.8999 405.847 23.1237 405.6C27.0771 405.105 31.1542 404.611 35.1076 404.24C31.7719 406.341 29.301 409.429 26.336 411.9C23.2474 414.495 19.5409 416.595 16.2052 418.819C11.6341 421.907 7.4336 425.737 3.85081 429.814C2.986 430.926 1.99771 432.285 2.36834 433.52C2.61543 434.138 3.1096 434.633 3.60378 435.003C6.07467 436.609 9.16322 435.868 11.8812 434.88C13.6108 434.262 15.2169 433.644 16.9465 432.903C16.9465 433.026 16.823 433.027 16.823 433.15C15.8346 434.756 15.0934 436.733 16.0817 438.339C16.5759 439.204 17.5643 439.821 18.5526 440.068C21.3941 440.81 24.3592 439.451 27.0772 437.968C28.9304 436.98 30.7835 435.868 32.6367 434.88C32.3896 435.374 32.1425 435.868 32.1425 436.362C32.1425 437.35 32.7602 438.215 33.5015 438.71C35.1075 439.945 37.3314 440.068 39.3081 439.574C41.2848 439.08 43.0144 437.845 44.744 436.856C56.3571 429.444 68.8352 423.143 80.4483 415.607C80.819 416.224 81.3131 416.842 81.6838 417.46C83.4134 419.931 85.143 422.525 87.1198 424.749C81.4367 431.915 77.854 440.439 74.5183 448.716C70.3178 459.218 66.3643 471.572 73.6534 480.22C79.7071 487.386 91.1967 488.992 101.451 490.722C124.677 494.675 146.915 502.458 166.435 513.701C172.983 517.407 180.396 521.978 188.179 523.09C184.102 523.09 180.025 522.596 176.072 521.484C170.883 520.002 165.941 517.407 160.629 517.16C155.934 516.913 151.239 518.272 146.915 520.125C138.02 523.832 129.248 529.762 125.913 538.781C121.218 551.629 129.743 566.331 141.85 572.632C153.957 578.932 168.288 578.562 181.755 576.585C190.526 575.349 199.175 573.373 207.946 572.385C208.564 572.879 209.182 573.249 209.799 573.62L208.44 572.261C213.011 571.767 217.583 571.396 222.277 571.643C232.655 572.014 242.786 574.732 253.163 574.979C263.541 575.226 277.131 571.149 283.679 563.119L282.196 557.188C288.25 572.014 297.886 585.357 310.241 595.611C312.341 597.341 315.059 598.947 317.407 597.711C319.26 596.599 319.754 594.128 320.124 592.028C322.719 578.191 332.355 567.813 343.845 559.165L343.721 560.153C349.404 556.447 356.694 560.401 363.488 560.895C369.048 561.389 374.484 559.412 379.92 558.177C381.279 558.918 382.638 559.289 384.244 559.289L383.132 557.683C383.75 557.559 384.368 557.559 384.985 557.436C395.363 556.694 404.752 562.13 414.512 566.578C414.759 569.049 415.501 571.396 416.983 573.249C420.566 577.944 428.967 578.562 432.056 573.496C432.303 573.002 432.55 572.508 432.797 572.137C442.433 573.249 452.441 571.767 461.336 567.69C465.907 565.59 470.478 562.377 472.208 557.683C476.161 547.305 468.007 532.974 459.359 527.414C457.506 526.179 455.529 525.191 453.552 524.202C468.625 523.337 483.697 520.867 498.399 516.79C502.105 515.801 505.935 514.442 508.159 511.353C509.395 509.5 509.889 507.277 510.383 505.053C514.213 486.398 516.436 466.383 509.147 448.84C509.024 448.346 508.777 447.975 508.53 447.605C511.371 449.952 514.336 451.929 517.795 453.164C520.143 454.029 523.479 454.029 524.22 451.682C524.59 450.57 524.22 449.334 523.849 448.222C521.502 442.169 517.548 436.733 512.607 432.532C518.66 437.351 525.085 441.798 531.756 445.628C534.35 447.11 537.192 448.469 540.033 448.099C542.999 447.728 545.716 444.64 544.481 441.922C543.987 440.563 542.628 439.698 541.516 438.957C533.98 434.015 526.567 428.949 519.031 424.008C528.297 429.567 537.686 435.003 546.952 440.563C550.411 442.539 555.724 444.146 557.453 440.563C558.442 438.092 556.341 435.127 554.241 433.15ZM55.9866 382.126C54.9983 385.956 52.0332 389.168 48.6975 391.268C45.3618 393.369 41.5318 394.728 37.949 396.457C35.9723 397.322 33.5015 398.31 31.6483 396.951C30.4129 395.963 30.0423 394.233 30.1658 392.751C30.2894 391.145 30.7835 389.662 30.7835 388.056C30.7835 386.944 30.5364 385.832 29.9186 384.844C31.2776 385.215 32.8838 384.844 34.3664 384.473C35.9724 383.979 37.5784 383.608 39.061 382.867C43.385 380.891 46.7207 376.814 51.4154 375.949C52.0331 375.825 52.7745 375.702 53.5157 375.949C55.8631 376.567 56.4808 379.779 55.9866 382.126Z" fill="white"/>
<path d="M558.812 436.115C557.7 433.521 555.353 431.544 553.253 429.691C551.029 427.714 548.682 425.861 546.211 424.255C543.74 422.525 541.022 420.92 538.304 419.561C538.427 419.561 538.674 419.437 538.798 419.437C541.887 418.572 544.728 416.225 545.964 413.136C547.446 409.306 545.593 405.847 543.616 402.635C541.269 398.805 539.045 394.852 536.698 391.022C535.833 389.663 534.968 388.057 533.362 387.439C532.497 387.192 531.632 387.192 530.891 387.315C530.891 385.586 530.273 383.732 529.285 382.25C525.702 377.061 518.66 374.22 512.73 372.984C505.07 371.378 497.04 372.119 489.751 374.961C489.257 373.355 488.515 371.996 487.651 370.637C486.539 368.784 485.427 366.931 484.068 365.201C481.103 361.371 477.273 358.035 473.072 355.688C470.972 354.576 468.625 353.588 467.389 351.364C466.278 349.387 465.783 347.04 464.795 345.063C461.459 337.774 454.294 332.462 446.51 330.485C446.016 330.361 445.522 330.238 445.028 330.114C444.657 328.755 444.287 327.396 443.916 326.037C443.669 325.049 442.557 324.431 441.692 324.802C440.704 325.172 440.086 326.037 440.457 327.026C440.704 327.89 440.951 328.755 441.074 329.62C438.851 329.497 436.627 329.62 434.526 330.114C432.797 330.485 430.079 331.844 428.72 331.226C427.732 330.856 427.114 330.238 426.496 329.497C424.519 327.396 423.16 324.678 421.925 322.084C420.442 318.995 419.084 315.66 417.972 312.447C415.871 306.888 414.265 301.081 411.918 295.646C408.459 287.615 404.876 279.461 400.922 271.554C401.17 271.307 401.417 271.06 401.787 270.813C402.529 270.195 402.529 268.836 401.787 268.219C401.046 267.477 400.058 267.601 399.193 268.219C394.128 258.582 388.568 249.193 381.897 240.545C375.596 232.391 368.43 224.855 360.276 218.677C361.512 217.442 362.747 216.33 364.106 215.218C364.847 214.6 364.724 213.241 364.106 212.624C363.241 211.882 362.253 212.006 361.512 212.624C360.029 213.859 358.67 215.094 357.311 216.453C351.752 212.624 345.575 209.659 339.027 207.558C337.421 207.064 335.815 206.693 334.209 206.323C334.209 206.199 334.209 206.199 334.209 206.076C332.479 196.316 330.626 186.556 328.773 176.919C326.796 166.418 324.943 156.04 322.966 145.539C322.595 143.809 322.348 142.08 321.978 140.35C331.738 134.914 341.498 129.355 351.258 123.795C352.617 123.054 352.37 121.324 351.258 120.583C341.498 113.417 331.738 106.128 322.101 98.7157C317.036 94.8858 311.847 91.0559 306.782 87.1025C301.84 83.3962 297.022 79.3193 291.709 76.3542C288.25 74.3775 284.544 72.7713 280.714 71.9065C282.69 70.7946 284.791 69.4356 286.644 67.4589C292.08 61.8994 294.551 44.1091 283.308 35.2139C274.29 59.4286 257.24 48.0625 239.079 63.5056C225.119 75.3658 233.52 104.769 244.268 117.742C239.326 118.73 234.755 121.695 232.284 126.143C227.96 133.555 229.937 143.809 236.732 149.122C239.697 151.469 243.403 152.581 247.11 152.705C244.639 170.001 241.18 187.05 237.72 204.099C237.597 204.099 237.473 204.099 237.35 204.099C232.037 204.717 226.848 205.705 221.783 207.064C221.413 206.446 221.042 205.829 220.671 205.211C220.177 204.346 218.942 203.975 218.077 204.593C217.212 205.087 216.841 206.199 217.459 207.188C217.706 207.558 217.83 207.805 218.077 208.176C207.081 211.512 196.58 216.453 186.82 222.631C178.048 228.19 169.771 234.738 162.235 242.027C161.988 241.78 161.741 241.533 161.493 241.286C161.37 241.162 161.246 241.039 161.123 240.915L160.999 240.792C160.999 240.792 160.999 240.915 160.999 240.792C160.999 240.792 160.999 240.668 160.876 240.668C160.876 240.668 160.876 240.668 160.876 240.792C160.629 240.545 160.382 240.174 160.258 239.803C159.764 239.062 158.652 238.568 157.664 239.186C156.922 239.68 156.428 240.915 157.046 241.78C157.787 242.892 158.528 243.88 159.393 244.745C154.451 249.687 149.757 254.999 145.433 260.559C139.75 267.848 134.561 275.384 130.237 283.538C128.137 287.368 126.16 291.445 124.307 295.398C123.442 297.375 122.701 299.722 121.094 301.328C119.488 302.934 117.141 303.552 114.917 304.17C111.334 305.158 108.122 306.764 105.281 309.112C102.686 311.336 100.462 314.053 98.4858 316.771C94.5324 322.454 91.4438 328.879 87.1198 334.315C85.0195 336.909 82.6721 339.257 79.8306 340.863C76.4949 342.839 72.1709 342.963 69.0823 345.434C62.658 350.993 70.0706 358.035 73.0357 363.101C73.4063 363.842 73.777 364.583 74.1476 365.324C67.3527 362.854 60.0635 361.371 52.7744 361.865C45.7323 362.359 38.8139 364.707 33.2544 369.154C30.5365 371.255 27.942 374.096 26.4595 377.185C26.0889 378.05 25.7182 379.038 25.4711 380.026C24.2356 379.903 23.0002 380.15 21.8883 380.767C18.429 382.744 16.5759 387.315 14.9698 390.898C13.4873 394.481 11.7577 398.435 12.3754 402.264C12.9931 406.341 16.4524 408.318 20.2823 408.194C22.5061 408.194 24.7298 407.824 26.83 407.577C27.4478 407.453 28.0655 407.453 28.6832 407.33C27.8184 408.071 26.9536 408.936 26.0888 409.677C23.4944 412.148 20.5293 414.001 17.5642 415.978C12.0047 419.56 6.6924 423.761 2.36835 428.703C0.391636 430.927 -1.21447 433.892 1.25642 436.486C3.48022 438.71 6.81597 438.71 9.65749 438.092C10.8929 437.845 12.1284 437.474 13.3638 436.98C13.3638 437.598 13.3638 438.216 13.4873 438.833C14.2286 441.551 17.0701 442.787 19.6646 442.787C22.7532 442.787 25.5947 441.304 28.1892 439.822C28.8069 439.451 29.4246 439.081 30.0423 438.71C30.9071 440.687 33.2544 442.046 35.3546 442.293C39.1845 442.787 42.3968 440.687 45.4854 438.71C56.4808 431.791 68.2174 425.738 79.2129 418.696C80.6954 421.043 82.425 423.267 84.1547 425.367C84.5253 424.873 84.896 424.379 85.2666 423.885C86.0079 424.873 86.8727 425.861 87.7375 426.726C87.3669 427.22 86.9962 427.715 86.6256 428.209C88.3552 429.815 90.332 431.297 92.4322 432.409C98.6095 435.621 106.022 436.733 112.817 434.756C119.736 432.78 125.171 427.591 129.743 422.279C134.437 416.843 138.885 411.283 144.197 406.465C149.51 406.218 154.699 406.836 159.887 407.824C170.389 409.801 180.519 413.507 190.774 416.719C195.962 418.325 201.151 419.931 206.464 421.166C211.405 422.278 216.471 423.02 221.536 423.637C231.173 424.873 240.932 425.985 250.445 428.085C259.958 430.185 269.224 433.15 277.625 438.092C281.826 440.563 285.408 443.775 289.362 446.617C293.068 449.211 297.145 450.817 301.716 450.076C309.5 448.841 314.812 442.169 322.101 439.698C326.919 438.092 331.367 439.575 335.691 441.799C341.003 444.517 346.316 447.234 351.628 449.952C355.335 451.806 358.917 453.659 362.624 455.636C360.153 456.377 357.558 457.118 355.088 457.859C349.157 459.836 343.227 462.183 337.421 464.654C325.807 469.72 314.565 475.773 303.446 481.703C293.933 486.769 284.173 492.081 276.884 500.111C275.154 501.965 273.548 504.065 272.189 506.165C271.572 507.277 271.077 508.018 271.572 509.13C271.695 509.501 271.942 509.871 272.066 510.118C271.571 515.554 271.448 521.114 271.819 526.55C267.247 529.638 261.812 531.121 256.252 530.503C256.129 530.009 256.005 529.515 255.881 529.144C255.881 528.774 255.758 528.403 255.511 528.032C252.916 520.99 244.515 517.408 237.226 516.419C225.366 514.937 213.382 518.272 201.769 520.126C197.198 520.867 192.503 521.485 187.808 521.485C187.438 521.361 186.326 521.238 184.967 521.114C185.832 521.361 186.697 521.485 187.561 521.485C186.45 521.485 185.338 521.485 184.226 521.361C181.261 521.238 178.172 520.743 175.33 519.879C174.589 519.632 173.724 519.384 172.983 519.137C170.883 518.767 169.153 518.272 168.536 517.902C167.918 517.531 167.424 517.284 166.806 516.913C166.682 516.913 166.682 516.914 166.559 516.79C163.594 515.802 160.505 515.184 157.293 515.308C154.204 515.431 151.116 516.172 148.274 517.161C143.209 519.014 138.144 521.361 133.696 524.573C129.619 527.662 125.913 531.492 123.689 536.186C121.589 540.634 121.094 545.452 121.836 550.27C123.318 560.03 130.113 568.802 138.514 573.62C148.768 579.551 161.123 580.415 172.612 579.427C183.979 578.439 194.974 575.721 206.217 574.238C206.711 574.609 207.081 574.856 207.576 575.227C208.811 576.091 210.046 574.979 210.293 573.867C210.541 573.867 210.664 573.867 210.911 573.744C217.459 573.25 223.883 573.497 230.431 574.361C237.103 575.226 243.65 576.462 250.322 576.832C260.082 577.327 270.707 574.856 278.614 569.049C280.096 567.937 281.455 566.825 282.567 565.59C283.432 567.196 284.297 568.802 285.161 570.408C290.35 579.427 297.022 587.828 304.929 594.746C308.388 597.835 314.565 603.024 318.518 597.712C320.001 595.858 320.124 593.387 320.619 591.04C321.113 588.693 321.854 586.469 322.842 584.245C326.796 575.226 333.838 567.937 341.498 562.007C341.621 562.007 341.621 561.884 341.745 561.884C342.115 562.007 342.609 562.007 343.104 561.637C347.304 559.042 352.493 560.895 356.941 561.884C359.535 562.378 362.006 562.872 364.6 562.748C367.195 562.625 369.789 562.131 372.384 561.513C377.449 560.278 382.391 558.918 387.703 559.289C392.645 559.66 397.34 561.513 401.911 563.49C405 564.849 408.088 566.331 411.3 567.814C411.794 570.902 413.03 573.991 415.501 575.968C418.589 578.562 423.284 579.674 427.114 578.439C429.461 577.697 431.191 576.091 432.303 574.238C441.939 575.103 451.699 573.62 460.471 569.543C464.548 567.567 468.625 564.972 471.096 561.019C473.443 557.436 473.937 552.988 473.319 548.788C472.208 540.51 467.142 532.48 460.718 527.291C459.977 526.674 459.112 526.179 458.371 525.561C465.536 524.944 472.702 523.955 479.744 522.597C486.045 521.361 492.469 520.002 498.646 518.149C503.835 516.543 508.159 513.949 509.889 508.513C510.753 505.671 511.248 502.706 511.742 499.741C512.236 496.776 512.73 493.811 513.101 490.722C513.842 484.668 514.336 478.615 514.213 472.561C513.966 465.766 513.101 458.971 511.001 452.547C512.73 453.659 514.583 454.524 516.436 455.018C519.525 455.883 523.726 455.141 524.59 451.558C525.085 449.211 523.849 446.864 522.861 444.764C522.49 443.899 521.996 443.034 521.502 442.169C523.478 443.404 525.455 444.763 527.555 445.875C529.779 447.234 532.25 448.717 534.845 449.335C539.169 450.447 544.481 448.47 545.099 443.528C545.222 442.91 545.099 442.416 545.099 441.922C546.828 442.91 548.682 443.652 550.658 443.899C552.758 444.269 555.106 444.022 556.712 442.416C559.677 441.181 559.924 438.339 558.812 436.115ZM250.693 152.828C250.693 152.705 250.693 152.458 250.693 152.334C254.152 151.716 257.364 150.234 259.958 147.639C260.7 146.898 260.7 145.786 259.958 145.045C259.217 144.304 258.105 144.304 257.364 145.045C252.669 149.74 244.145 150.234 238.832 146.157C233.52 142.08 231.914 133.802 235.25 127.996C238.585 122.189 246.616 119.471 252.793 122.066C253.781 122.436 254.769 122.066 255.264 121.077C255.758 120.089 255.264 119.101 254.275 118.606C253.905 118.483 253.658 118.359 253.287 118.236L255.387 117.742C264.159 108.476 259.711 98.5921 260.329 90.1911C261.317 78.578 266.877 76.8484 273.548 74.6246C285.532 74.7481 294.921 82.902 304.064 89.6969C313.947 96.986 323.707 104.522 333.467 111.811C337.915 115.147 342.363 118.483 346.934 121.818C337.668 127.131 328.278 132.443 319.012 137.632C318.271 138.003 318.024 138.868 318.148 139.732C319.26 145.91 320.495 151.963 321.607 158.141C323.707 169.63 325.931 180.996 328.031 192.486C328.896 197.057 329.761 201.628 330.502 206.323C330.379 206.446 330.255 206.693 330.131 206.941C324.448 210.029 320.248 214.847 315.677 219.419C310.735 224.36 305.052 227.943 298.134 229.549C291.586 231.155 284.667 230.908 278.367 228.932C271.201 226.708 265.889 221.889 260.576 216.948C257.488 213.983 254.152 211.141 250.693 208.67C247.975 206.694 244.762 205.087 241.427 204.593C244.762 187.421 248.345 170.248 250.693 152.828ZM258.105 573.25C246.369 574.362 234.755 570.655 223.142 570.161C218.324 569.914 213.382 570.161 208.564 570.779C205.352 568.308 202.634 565.219 200.534 561.637C198.31 557.93 197.445 552.741 193.986 549.9C196.951 549.035 200.039 550.27 202.263 552.247C205.105 554.842 206.711 558.548 208.317 562.007C208.687 562.872 210.046 563.119 210.911 562.625C211.9 562.131 212.023 561.019 211.529 560.031C209.676 556.077 207.823 551.876 204.363 549.035C201.028 546.317 196.456 544.711 192.38 546.441C192.256 546.441 192.256 546.564 192.132 546.564C192.874 545.329 193.368 543.846 193.615 542.364C194.356 537.916 192.256 533.221 187.932 531.492C183.237 529.638 178.79 533.221 178.048 537.916C177.184 543.105 180.396 547.305 183.731 551.012C183.731 551.012 183.731 551.012 183.731 551.135C180.89 553.853 177.801 556.324 175.701 559.66C174.466 561.637 173.354 563.86 172.736 566.208C172.118 568.184 171.377 570.902 172.86 572.756C175.578 576.215 181.014 573.002 183.361 570.655C186.202 567.937 187.932 563.86 187.685 560.031C187.561 557.93 186.326 555.459 186.82 553.359V553.236C187.314 552.865 187.685 552.371 188.179 551.876C188.92 551.629 189.909 551.753 190.65 552.123C192.874 553.112 193.862 555.706 194.727 557.683C195.715 560.03 196.704 562.378 198.063 564.478C199.669 567.072 201.645 569.296 203.746 571.397C186.697 573.991 169.771 578.809 152.722 574.856C142.962 572.632 134.314 567.072 129.619 558.054C125.171 549.776 125.666 540.016 131.843 532.727C135.055 529.021 139.255 526.179 143.579 523.956C148.398 521.485 153.957 519.137 159.517 519.261C165.447 519.261 170.759 522.349 176.442 523.832C181.755 525.191 187.438 525.562 192.997 525.191C204.363 524.45 215.482 521.238 226.848 520.249C231.79 519.755 236.979 519.632 241.797 520.867C245.627 521.855 249.828 523.709 252.175 527.044C252.299 527.168 252.422 527.415 252.422 527.538C239.821 528.032 227.219 530.009 215.112 533.716C213.259 534.333 213.506 537.669 215.606 537.298C220.301 536.68 224.995 537.793 228.949 540.263C232.779 542.734 236.238 546.811 236.856 551.382C237.597 556.818 232.532 559.413 228.331 561.513C224.625 563.366 218.942 565.713 215.112 562.625C213.259 561.142 210.664 563.737 212.517 565.219C216.1 568.184 220.671 568.184 225.119 566.825C229.319 565.466 234.261 563.242 237.473 560.154C245.257 552.618 237.72 541.128 230.308 536.804C228.825 535.939 227.343 535.198 225.737 534.704C235.002 532.604 244.392 531.368 253.905 531.121C253.905 531.492 254.028 531.862 254.028 532.233C254.028 532.974 254.522 533.839 255.387 533.963C261.688 534.951 267.989 533.839 273.425 530.751C274.66 541.622 277.749 552.247 282.32 562.254C276.39 569.049 266.753 572.385 258.105 573.25ZM181.631 538.163C182.002 536.557 183.114 534.951 184.843 534.827C186.573 534.58 188.303 535.939 189.167 537.298C191.515 541.004 188.92 545.452 186.202 548.417C183.484 545.576 180.519 542.117 181.631 538.163ZM182.496 565.219C181.508 567.072 180.025 568.555 178.172 569.667C177.678 569.914 176.195 570.779 175.578 570.408C174.96 570.037 175.825 567.69 176.072 567.072C177.307 562.625 180.025 559.289 183.237 556.324C183.484 557.313 183.731 558.301 183.731 559.289C183.979 561.266 183.484 563.49 182.496 565.219ZM377.573 556.942C372.754 558.054 367.813 559.66 362.747 559.166C358.547 558.672 354.47 557.189 350.269 556.942C356.57 552.741 363.118 549.035 369.666 545.329C370.901 544.587 372.26 543.846 373.496 543.228C373.496 543.352 373.372 543.476 373.372 543.599C371.395 548.541 373.743 554.224 377.943 557.065C377.82 556.942 377.696 556.942 377.573 556.942ZM429.214 574.114C426.002 576.585 420.566 575.35 418.219 572.138C414.883 567.69 415.995 561.389 418.713 557.065C419.701 555.459 420.937 553.853 422.049 552.371C423.037 555.212 425.384 557.807 427.361 560.031C430.203 563.49 433.785 570.532 429.214 574.114ZM421.554 541.499C421.184 541.252 420.813 541.005 420.566 540.881C418.836 539.646 415.995 537.669 416.366 535.198C416.86 531.862 422.296 532.851 423.655 534.951C424.89 536.804 425.014 538.904 424.519 540.881C424.149 540.881 423.902 540.881 423.531 540.881C422.79 540.634 421.925 540.881 421.554 541.499ZM463.93 534.457C466.648 537.545 468.748 541.375 469.984 545.205C471.219 548.912 471.713 552.865 470.478 556.571C469.119 560.772 465.289 563.613 461.459 565.59C453.305 569.791 444.039 571.396 434.897 570.655C435.021 569.79 435.021 568.926 434.897 568.061C434.279 562.501 430.82 558.548 427.361 554.471C426.002 552.741 424.272 550.023 425.508 547.676C425.878 547.8 426.125 547.923 426.496 548.17C427.732 548.664 428.844 547.923 429.214 546.935C429.955 547.305 430.697 547.923 431.191 548.417C433.044 550.394 433.415 553.235 434.032 555.83C434.65 558.671 435.515 561.389 437.368 563.613C438.851 565.466 441.445 562.872 439.962 561.019C438.233 558.919 437.862 556.077 437.245 553.483C436.627 550.888 435.886 548.417 434.156 546.317C432.921 544.834 431.067 543.599 429.214 543.105C429.955 542.858 430.82 542.734 431.562 542.611C434.28 542.611 436.38 545.082 437.986 546.935C439.839 549.035 441.692 551.012 444.287 552.123C447.005 553.235 449.846 553.235 452.07 551.259C453.923 549.653 451.205 547.058 449.475 548.664C447.746 550.147 445.028 548.664 443.545 547.429C441.569 545.823 440.21 543.599 438.233 541.87C436.38 540.14 434.156 538.904 431.685 538.781C430.45 538.781 429.214 539.028 428.102 539.399C428.349 535.198 426.867 530.874 422.543 529.268C418.342 527.785 412.783 529.762 412.412 534.704C412.165 537.916 414.512 540.51 416.86 542.364C418.466 543.599 420.195 544.711 421.925 545.699C421.307 546.688 420.69 547.552 420.072 548.417C416.736 552.865 413.277 556.942 412.536 562.625C412.536 562.872 412.536 563.243 412.412 563.49C410.065 562.378 407.717 561.266 405.247 560.154C400.922 558.301 396.598 556.571 391.904 555.706C389.68 555.336 387.58 555.212 385.356 555.336C384.985 554.965 384.491 554.594 383.873 554.594C383.503 554.594 383.132 554.594 382.762 554.594C382.638 554.594 382.514 554.594 382.514 554.594C382.267 554.594 382.144 554.471 382.02 554.471C381.897 554.471 381.65 554.347 381.526 554.347C381.526 554.347 381.402 554.224 381.279 554.224C380.908 554.1 380.661 553.977 380.291 553.73C380.044 553.606 379.796 553.359 379.549 553.236L379.302 552.989C379.179 552.865 379.055 552.741 378.932 552.618C378.684 552.371 378.437 552.124 378.19 551.876C378.19 551.876 377.82 551.506 377.943 551.506C377.82 551.382 377.82 551.259 377.696 551.135C377.449 550.888 377.325 550.517 377.078 550.27C376.955 550.147 376.955 549.9 376.831 549.776C376.831 549.776 376.708 549.653 376.708 549.529C376.461 548.912 376.337 548.294 376.214 547.552C376.214 547.429 376.214 547.429 376.214 547.305C376.214 547.058 376.214 546.935 376.214 546.688C376.214 546.317 376.214 546.07 376.214 545.699C376.214 545.699 376.214 545.699 376.214 545.576C376.214 545.452 376.214 545.452 376.214 545.329C376.214 545.205 376.337 544.958 376.337 544.834C376.461 544.464 376.584 544.093 376.708 543.723C377.078 542.858 376.337 541.746 375.472 541.499C375.349 541.499 375.225 541.499 375.225 541.499C384.12 536.557 393.386 532.109 403.27 529.391C415.871 525.932 428.967 526.303 441.939 526.179C445.522 526.179 449.228 526.056 452.811 525.809C453.305 526.056 453.923 526.303 454.417 526.55C458.124 529.021 461.212 531.368 463.93 534.457ZM510.136 494.799C509.642 497.764 509.147 500.606 508.53 503.571C508.035 506.165 507.665 509.254 505.812 511.354C504.206 513.083 501.982 514.072 499.758 514.813C496.916 515.678 494.075 516.419 491.233 517.037C479.003 520.002 466.648 521.855 454.047 522.72C441.445 523.461 428.844 522.597 416.242 523.956C404.258 525.191 393.016 529.144 382.144 534.457C372.26 539.275 362.624 544.834 353.358 550.641C345.08 555.706 337.05 561.513 330.379 568.679C323.954 575.597 319.63 583.627 317.777 593.017C317.283 595.241 316.542 597.588 313.824 596.476C311.476 595.488 309.376 593.387 307.523 591.658C303.817 588.198 300.357 584.492 297.145 580.539C284.667 564.725 277.255 544.835 276.143 524.82C275.896 519.879 276.019 514.937 276.513 510.118C276.637 509.501 276.39 509.007 276.019 508.76C276.019 508.636 275.896 508.636 275.896 508.513C281.208 499.988 289.733 494.181 298.257 489.24C308.388 483.433 318.889 477.997 329.39 472.932C340.509 467.496 351.875 462.925 363.736 459.589C374.855 456.377 385.85 453.412 395.857 447.605C407.841 440.563 418.836 430.68 431.191 424.132C432.797 424.996 434.526 425.861 436.38 426.479C444.039 429.32 452.688 429.691 460.842 429.073C462.818 428.95 464.919 428.579 466.895 428.456C468.501 428.332 470.107 428.579 471.837 428.456C472.949 428.332 473.937 427.961 474.555 427.344C479.744 430.185 485.427 432.162 490.492 435.251C496.546 438.957 500.993 444.516 506.306 449.088C507.912 452.67 509.147 456.377 510.012 460.207C512.73 471.326 511.989 483.309 510.136 494.799ZM555.353 440.069C554.365 441.304 552.264 440.81 551.029 440.439C548.805 439.822 546.952 438.586 544.975 437.351C542.381 435.745 539.663 434.262 537.068 432.656C531.262 429.197 525.455 425.738 519.649 422.402C517.548 421.166 515.819 424.255 517.795 425.614C523.108 429.197 528.297 432.656 533.609 436.239C536.08 437.845 538.675 439.451 541.022 441.181C541.887 441.799 542.751 442.663 542.504 443.899C542.257 444.887 541.392 445.628 540.528 445.999C538.057 447.234 534.968 445.628 532.744 444.393C530.273 443.034 527.803 441.552 525.455 439.945C520.514 436.733 515.695 433.15 511.124 429.444C511 429.321 510.877 429.197 510.753 429.197C509.024 427.961 506.924 430.803 508.53 432.162C509.394 432.903 510.383 433.644 511.371 434.509C513.348 436.239 515.201 438.216 516.684 440.316C518.784 443.157 521.008 446.617 521.996 449.952C522.984 453.782 517.425 451.682 515.819 450.817C512.854 449.335 510.383 447.358 507.912 445.258C502.97 440.81 498.523 435.621 492.84 432.038C487.404 428.579 481.226 426.603 475.543 423.267C472.702 421.661 469.86 419.56 468.007 416.842C465.413 413.26 464.424 409.059 465.042 404.735C465.289 402.388 461.583 402.388 461.336 404.735C460.347 412.766 464.424 419.931 470.725 424.502C469.366 424.502 468.131 424.379 466.772 424.502C462.695 424.873 458.741 425.367 454.541 425.367C450.34 425.367 446.263 424.996 442.186 424.008C435.886 422.525 429.955 419.56 425.508 414.742C423.408 412.518 421.678 409.801 420.69 406.835C419.701 403.747 419.454 400.164 416.242 398.558C413.771 397.199 410.682 397.57 407.841 397.57C407.841 397.446 407.717 397.446 407.717 397.323C406.853 395.964 405.123 396.334 404.505 397.446C401.787 397.322 399.069 396.952 396.351 396.458C394.004 395.963 391.657 395.346 389.433 394.481C389.433 394.234 389.433 393.987 389.556 393.74C389.433 394.234 389.556 393.616 389.556 393.616C389.556 393.493 389.556 393.245 389.68 393.122C389.804 392.504 389.927 391.886 390.051 391.269C390.298 390.28 389.803 389.168 388.815 389.045C387.827 388.798 386.838 389.292 386.591 390.28C386.344 391.145 386.221 392.134 386.097 392.999C383.379 391.64 380.908 389.91 378.808 387.686C368.43 377.061 368.43 360.506 368.554 346.669C368.554 344.322 364.848 344.322 364.848 346.669C364.724 359.889 364.847 374.714 372.754 386.08C376.214 391.022 380.661 394.481 385.85 396.952C385.85 397.57 385.85 398.064 385.85 398.681C385.974 399.67 386.591 400.535 387.703 400.535C388.692 400.535 389.68 399.67 389.556 398.681V398.558C394.745 400.411 400.181 401.276 405.741 401.523C410.559 410.912 410.806 422.155 406.729 432.038C405.864 434.262 409.447 435.251 410.312 433.027C414.512 423.02 414.142 411.53 409.818 401.647C411.3 401.647 412.906 401.523 414.265 402.017C415.995 402.758 416.242 404.735 416.736 406.341C417.601 409.553 418.96 412.518 420.937 415.113C422.913 417.707 425.261 419.931 427.855 421.784C419.825 426.232 412.412 431.915 405 437.227C400.552 440.439 395.857 443.405 391.039 445.999C385.727 448.841 379.92 450.817 374.113 452.547C372.26 453.041 370.407 453.659 368.554 454.153C358.176 448.841 347.798 443.158 337.297 438.092C332.726 435.868 327.908 434.509 322.966 435.868C319.136 436.857 315.677 439.204 312.341 441.304C309.129 443.404 305.793 445.752 301.963 446.493C297.269 447.358 293.439 444.764 289.856 442.046C285.903 438.957 281.949 435.992 277.502 433.521C273.178 431.174 268.483 429.32 263.788 427.714C254.275 424.626 244.392 422.896 234.508 421.537C224.131 420.178 213.876 419.19 203.746 416.472C192.997 413.63 182.496 409.677 171.748 406.712C166.559 405.229 161.246 404.117 155.934 403.376C153.834 403.129 151.61 402.882 149.51 402.882C154.204 399.546 159.517 397.199 165.2 395.716C172.365 393.863 179.902 393.122 186.944 390.651C190.897 389.292 194.603 387.439 197.939 384.845C201.151 382.25 203.993 379.161 206.464 375.826C211.776 368.784 215.606 360.506 217.83 351.982C218.448 349.634 214.865 348.646 214.247 350.993C212.394 358.283 209.305 365.201 205.105 371.378C201.028 377.308 196.086 382.744 189.415 385.833C183.114 388.798 175.948 389.663 169.153 391.145C162.111 392.628 155.44 394.728 149.386 398.558C143.456 402.388 138.267 407.33 133.696 412.766C129.372 417.831 125.295 423.514 119.859 427.467C114.3 431.544 107.628 433.027 100.957 431.297C97.7445 430.556 94.7795 429.197 92.1851 427.22C89.3435 425.12 87.1198 422.278 85.1431 419.437C84.5254 418.449 83.784 417.46 83.0427 416.595C85.143 415.236 87.2432 413.754 89.22 412.395C92.5557 409.924 96.0149 407.453 98.4858 403.994C100.71 400.658 101.821 396.211 99.1035 392.875C97.621 391.022 95.0266 393.616 96.5091 395.469C98.3623 397.817 96.015 401.523 94.4089 403.252C92.3087 405.723 89.5907 407.7 86.9962 409.553C81.4368 413.63 75.5067 417.213 69.5765 420.672C63.3993 424.255 57.2221 427.715 51.1684 431.297C48.2033 433.027 45.2382 435.004 42.2731 436.733C41.0376 437.474 39.5552 438.216 38.0727 438.463C36.9608 438.586 34.6133 438.463 34.2427 436.98C34.2427 436.857 34.2427 436.733 34.2427 436.609C35.1075 436.115 36.096 435.498 36.9608 435.004C43.0144 431.297 48.6975 427.097 54.257 422.649C55.8631 421.29 53.7627 418.572 52.0331 419.684C48.0797 422.278 44.1263 424.997 40.2964 427.591C38.4432 428.826 36.5901 430.062 34.6134 431.421C33.5015 432.162 32.2661 433.027 31.5248 434.139C29.4245 435.374 27.3243 436.486 25.2241 437.598C23.4944 438.463 19.788 440.069 18.1819 438.092C17.5642 437.351 17.8114 436.239 18.4291 435.127C21.6413 433.644 24.6062 431.915 27.4478 430.185C33.3779 426.355 38.8139 421.661 43.385 416.225C44.6205 414.742 42.8909 411.901 41.1613 413.26C33.1309 419.437 22.8767 422.773 16.6995 431.174C16.5759 431.421 16.3288 431.668 16.2053 431.915C15.7111 432.162 15.217 432.409 14.7228 432.533C12.3754 433.521 9.53386 434.756 6.93943 434.509C6.19816 434.386 4.59205 434.139 4.59205 433.15C4.59205 432.039 6.44534 430.556 7.18661 429.815C11.2636 425.49 15.8347 421.908 20.9 418.696C23.7415 416.966 26.4595 415.113 28.9304 412.889C31.5248 410.665 33.7486 408.071 36.5901 406.218C37.9491 405.353 37.5785 402.511 35.6018 402.758C31.4013 403.253 27.3242 403.747 23.1237 404.241C20.2822 404.488 16.9465 404.364 16.823 400.782C16.6994 397.569 18.1821 394.11 19.541 391.269C20.2823 389.663 21.0235 388.18 21.8883 386.698C22.6295 385.462 23.7415 383.732 25.2241 383.485C25.5947 383.362 26.0889 383.486 26.4595 383.609C26.7066 384.35 27.2007 384.968 27.8185 385.586C28.3126 385.957 28.6832 386.204 29.3009 386.451C29.6716 387.439 29.6717 388.551 29.4246 389.663C28.9304 392.751 28.3127 396.581 31.2778 398.558C34.2428 400.535 37.5784 398.805 40.4199 397.57C43.8792 396.087 47.462 394.728 50.6742 392.628C55.3689 389.539 60.5577 383.238 57.9633 377.308C54.8747 370.143 46.3502 376.32 42.3968 379.038C39.5552 381.015 36.096 382.621 32.6367 383.115C32.2661 383.115 32.0189 383.115 31.6483 383.115C31.5248 382.868 31.2776 382.621 31.1541 382.374C30.7835 381.879 30.2893 381.509 29.9187 381.138C29.9187 380.026 30.4129 378.667 31.0306 377.679C34.3663 372.119 40.1729 368.413 46.2266 366.56C54.3805 364.089 63.0286 365.077 70.9355 367.548C72.9122 368.166 74.8888 368.907 76.8655 369.648C78.7187 370.39 80.572 371.255 81.931 372.737C84.2783 375.332 84.7724 379.162 85.1431 382.497C85.3902 384.845 89.0965 384.845 88.8494 382.497C88.4788 379.038 87.9846 375.332 86.255 372.243C84.5254 369.402 81.8074 367.795 78.9659 366.56C78.7188 363.224 76.8655 360.383 75.0124 357.788C73.5298 355.812 70.8119 352.846 71.059 350.128C71.4296 346.422 77.2362 346.052 79.9541 344.94C83.0427 343.704 85.6372 341.728 87.9845 339.504C92.9263 334.562 96.1384 328.385 99.7212 322.578C103.057 317.142 107.01 311.459 113.064 308.618C116.894 306.888 121.465 306.765 124.554 303.429C126.16 301.699 127.025 299.475 128.013 297.375C128.878 295.398 129.743 293.545 130.731 291.568C134.561 283.662 139.132 276.002 144.321 268.836C149.88 261.053 156.058 253.764 162.853 246.969C163.594 247.463 164.211 247.957 164.953 248.451C165.818 248.946 167.053 248.699 167.547 247.834C168.041 246.969 167.794 245.857 166.929 245.239C166.559 244.992 166.312 244.869 166.065 244.622C165.941 244.498 165.818 244.375 165.694 244.375C171.253 239.186 177.06 234.244 183.237 229.92C194.727 221.766 207.452 215.218 221.042 211.265C222.648 213.488 224.501 215.589 226.354 217.442C227.095 218.06 228.331 218.183 228.949 217.442C229.567 216.701 229.69 215.589 228.949 214.847C227.466 213.365 226.107 211.882 224.748 210.276C227.096 209.658 229.319 209.164 231.667 208.794C233.767 208.423 235.867 208.176 238.091 207.929C238.214 207.929 238.338 207.929 238.462 207.805C238.709 208.176 239.203 208.423 239.821 208.423C243.65 208.3 246.863 210.153 249.828 212.377C253.04 214.724 256.005 217.442 258.97 220.16C264.529 225.349 270.089 230.043 277.378 232.514C290.35 236.838 305.423 234.12 315.8 225.102C321.731 219.913 326.302 213.365 333.467 209.782C341.498 211.512 348.787 214.847 355.458 219.295C354.47 220.53 353.605 221.766 352.74 223.125C352.246 223.99 352.493 225.225 353.358 225.719C354.223 226.213 355.335 225.966 355.952 225.102C356.57 224.113 357.188 223.248 357.929 222.26C357.929 222.26 358.053 222.136 358.053 222.013C358.053 221.889 358.176 221.889 358.176 221.766C358.3 221.642 358.423 221.519 358.547 221.395C364.847 226.09 370.654 231.649 375.843 237.703C384.367 247.71 391.163 258.953 397.093 270.689C396.104 271.554 395.239 272.296 394.251 273.16C393.51 273.778 393.51 275.137 394.251 275.755C394.992 276.496 396.104 276.496 396.845 275.755C397.463 275.137 398.081 274.643 398.822 274.025C401.664 279.708 404.258 285.391 406.853 291.074C408.335 294.286 409.571 296.881 410.683 299.97C411.671 302.811 412.659 305.652 413.648 308.494C415.871 314.918 418.095 321.343 421.554 327.273C422.79 329.496 424.272 331.72 426.373 333.327C427.361 334.068 428.349 334.686 429.585 334.933C431.932 335.303 434.156 334.191 436.38 333.697C438.603 333.203 440.951 333.079 443.175 333.327C443.298 333.821 443.422 334.315 443.545 334.933C443.792 335.921 444.904 336.539 445.769 336.168C446.634 335.921 447.252 335.056 447.128 334.068C451.082 335.18 454.788 337.28 457.753 340.121C460.718 342.963 462.448 346.299 463.807 350.128C464.548 352.229 465.536 354.329 467.389 355.812C469.243 357.418 471.466 358.283 473.567 359.642C477.52 362.112 480.979 365.324 483.574 369.278C484.686 371.007 485.921 372.861 486.786 374.714C487.156 375.455 487.404 376.073 487.404 376.69C483.08 378.914 479.25 381.879 476.161 385.709C474.679 387.562 477.149 390.033 478.755 388.304C487.651 378.914 502.97 375.455 509.147 376.073C514.707 376.567 520.761 378.544 525.085 382.127C527.308 383.98 529.285 386.821 527.679 389.663C525.826 392.751 521.255 389.663 518.907 388.798C515.077 387.192 511.371 385.462 507.418 384.103C504.453 382.991 501.117 383.362 499.264 386.327C497.781 388.674 497.905 391.887 499.14 394.234C500.746 397.199 503.711 399.176 506.429 400.905C509.642 403.006 512.977 404.982 516.436 406.712C518.166 407.577 519.896 408.565 521.625 409.306C523.355 410.171 525.208 410.912 527.061 410.542C529.656 410.048 531.262 407.824 531.88 405.353C532.621 402.264 531.756 399.546 531.262 396.581C531.015 395.099 530.768 393.122 531.633 391.763C533.115 389.539 534.227 392.381 534.968 393.616C537.315 397.693 539.786 401.646 542.134 405.723C542.999 407.329 543.987 409.059 543.74 410.912C543.493 412.519 542.257 413.877 540.898 414.742C537.316 417.09 532.621 416.101 528.791 414.989C526.444 414.371 525.579 417.831 527.803 418.572C537.439 421.908 546.581 427.344 553.87 434.509C554.365 435.745 556.835 438.339 555.353 440.069ZM32.6367 386.821C32.6367 386.698 32.6367 386.698 32.6367 386.574C34.3663 386.327 36.096 385.709 37.5785 385.215C41.1613 383.98 43.8793 381.879 46.8443 379.779C48.6975 378.544 53.5157 375.455 54.257 379.285C54.8747 382.621 52.2803 385.833 49.9329 387.809C46.9679 390.404 43.138 391.887 39.5552 393.493C37.9491 394.11 36.4665 394.975 34.7369 395.346C32.6367 395.84 31.8954 394.358 32.1425 392.381C32.2661 390.651 32.8838 388.798 32.6367 386.821ZM526.691 406.094C525.702 407.206 524.343 406.712 523.108 406.218C521.008 405.353 519.031 404.117 516.931 403.129C513.224 401.152 509.642 398.929 506.059 396.705C503.588 395.099 500.376 392.628 500.993 389.292C501.858 385.092 507.171 388.18 509.518 389.169C513.595 390.898 517.672 392.875 521.872 394.234C523.479 394.728 524.961 394.728 526.444 394.234C526.444 395.346 526.567 396.581 526.814 397.693C527.432 400.164 528.667 403.87 526.691 406.094ZM268.236 114.9C268.483 111.441 270.583 108.476 273.548 106.623C276.76 104.646 280.59 104.152 284.297 103.905C285.285 103.905 286.15 104.769 286.15 105.758C286.15 106.746 285.285 107.611 284.297 107.611C281.455 107.734 278.366 108.105 275.772 109.588C274.784 110.205 273.795 111.07 273.178 111.811C273.054 112.058 272.807 112.306 272.683 112.553C272.56 112.676 272.56 112.8 272.436 112.923C272.436 113.047 272.436 113.047 272.313 113.047C272.313 113.047 272.313 113.047 272.313 113.17C272.066 113.665 271.942 114.406 271.942 114.776C271.819 115.765 271.201 116.63 270.089 116.63C269.224 116.753 268.236 115.888 268.236 114.9ZM272.931 84.5081C272.436 83.6433 272.807 82.4079 273.548 81.9137C277.378 79.6899 282.32 79.1957 286.52 80.8018C287.509 81.1724 288.003 82.0371 287.756 83.0255C287.509 83.8903 286.397 84.6316 285.532 84.2609C283.679 83.5197 282.196 83.3962 280.22 83.5197H279.725C279.602 83.5197 279.355 83.5197 279.231 83.6432C278.737 83.7668 278.243 83.8904 277.749 84.0139C277.502 84.1374 277.378 84.1374 277.131 84.2609L276.76 84.3846C276.266 84.6317 275.896 84.7552 275.401 85.0023C274.537 85.62 273.425 85.3729 272.931 84.5081ZM288.126 97.6038C289.485 95.6271 291.215 93.5268 293.439 92.2913C296.033 90.9323 298.875 91.4266 301.593 92.0443C302.581 92.2914 303.075 93.4033 302.828 94.2681C302.581 95.2565 301.469 95.8742 300.605 95.5036C300.11 95.38 299.493 95.2564 298.998 95.1329C298.381 95.0094 298.134 95.0094 297.639 94.8859C297.392 94.8859 297.145 94.8859 296.775 94.8859C296.651 94.8859 296.651 94.8859 296.651 94.8859C296.527 94.8859 296.404 94.8858 296.28 95.0094L295.786 95.1329C295.663 95.2564 295.416 95.2564 295.292 95.3799C295.169 95.5035 294.921 95.6271 294.798 95.7506C294.674 95.8742 294.551 95.8742 294.674 95.7506C294.551 95.8742 294.427 95.8741 294.427 95.9976C294.057 96.3683 293.686 96.6154 293.315 96.9861C292.574 97.8509 292.08 98.4687 291.462 99.2099C290.844 100.075 289.856 100.322 288.868 99.8276C288.003 99.7041 287.632 98.4686 288.126 97.6038ZM174.219 519.261C172.118 518.52 170.142 517.778 168.041 517.037C163.964 514.69 159.887 512.466 155.81 510.366C145.927 505.547 135.673 501.594 125.171 498.382C119.859 496.776 114.423 495.417 108.987 494.305C103.922 493.193 98.733 492.452 93.6677 491.463C85.0196 489.857 75.0124 487.139 70.3178 478.862C65.4995 470.337 68.341 459.836 71.5532 451.311C74.8889 442.54 78.4717 433.521 84.0312 425.861C84.2782 425.491 84.5253 425.243 84.7724 424.873C85.6372 425.861 86.502 426.726 87.3668 427.591C85.0194 430.68 83.0429 434.139 81.3132 437.598C79.3365 441.798 77.4833 445.999 75.8773 450.323C74.1476 454.771 72.5415 459.342 71.8002 464.037C71.059 468.361 71.3061 473.179 73.6534 477.009C75.8772 480.715 79.5835 483.186 83.5369 484.668C87.861 486.398 92.5557 487.263 97.1268 488.128C102.192 488.993 107.258 489.857 112.199 490.969C122.701 493.316 133.078 496.405 143.085 500.482C152.845 504.312 162.111 509.13 171.253 514.319C175.701 516.914 180.396 519.384 185.461 520.743C185.708 520.867 185.955 520.867 186.326 520.867C182.99 520.743 177.925 520.002 174.219 519.261ZM298.381 175.313C298.134 176.302 297.145 176.796 296.157 176.549C286.026 175.066 276.884 168.395 272.313 159.252C271.201 157.152 274.413 155.299 275.525 157.399C279.725 165.8 287.879 171.607 297.145 172.966C298.01 173.213 298.628 174.448 298.381 175.313ZM107.134 350.005C107.999 350.623 107.752 351.982 107.134 352.599C106.763 352.97 106.269 353.094 105.775 353.094C105.281 353.094 104.91 352.846 104.416 352.599C104.787 352.97 104.292 352.599 104.292 352.476C104.169 352.352 104.045 352.229 103.798 352.105C103.551 351.858 103.181 351.735 102.934 351.488C102.316 351.117 101.698 350.746 101.08 350.499C100.957 350.376 100.833 350.376 100.71 350.252C100.586 350.252 100.092 349.881 100.586 350.128C100.215 350.005 99.9683 349.882 99.5977 349.758C98.98 349.511 98.2388 349.264 97.4975 349.14C96.5092 348.893 96.015 347.781 96.2621 346.916C96.5092 345.928 97.621 345.434 98.4858 345.681C101.698 346.546 104.663 348.028 107.134 350.005ZM202.387 269.701C202.14 273.037 201.892 276.373 201.645 279.708C201.522 280.697 200.904 281.561 199.792 281.561C198.804 281.561 197.815 280.697 197.939 279.708C198.186 276.373 198.433 273.037 198.68 269.701C198.804 268.713 199.422 267.848 200.534 267.848C201.398 267.848 202.387 268.713 202.387 269.701ZM263.418 100.075C263.17 99.5805 263.171 99.2099 263.171 98.5922C263.665 95.133 264.9 91.6736 266.63 88.585C267.124 87.7202 268.236 87.4731 269.224 87.9673C270.089 88.4614 270.336 89.697 269.842 90.5618C269.471 91.3031 268.977 92.0443 268.607 92.7855C268.483 92.9091 268.483 93.1562 268.359 93.2797C268.359 93.4033 268.236 93.5268 268.236 93.5268C268.112 93.8974 267.989 94.268 267.742 94.7622C267.247 96.3683 266.877 97.9744 266.63 99.5805C266.506 100.569 265.271 101.063 264.406 100.816C264.159 100.816 263.665 100.445 263.418 100.075ZM87.4905 390.651C87.4905 391.763 86.6256 392.381 85.6373 392.504C80.8191 393.122 76.0008 394.605 71.5532 396.705C69.3294 397.817 67.1055 399.052 65.1288 400.535C63.3992 401.77 61.299 403.253 60.5577 405.353C59.6929 407.577 56.1101 406.588 56.9749 404.365C58.0868 401.647 59.9401 399.917 62.1639 398.187C64.3877 396.458 66.8585 394.975 69.3293 393.74C74.5182 391.145 79.9542 389.539 85.6373 388.798C86.6256 388.674 87.4905 389.786 87.4905 390.651ZM251.557 373.726C251.804 374.714 251.31 375.702 250.322 375.949C249.457 376.196 248.222 375.579 248.098 374.714C247.604 372.367 246.986 370.019 246.492 367.548C246.245 366.56 246.739 365.572 247.727 365.324C248.592 365.077 249.828 365.695 249.951 366.56C250.446 368.907 250.94 371.378 251.557 373.726ZM157.911 365.448C156.675 370.019 155.44 374.467 154.204 379.038C153.957 380.026 152.845 380.644 151.981 380.273C150.992 380.026 150.374 378.914 150.745 378.05C151.981 373.478 153.216 369.031 154.451 364.46C154.699 363.471 155.81 362.854 156.675 363.224C157.54 363.348 158.158 364.46 157.911 365.448ZM264.406 289.468C264.159 290.457 263.047 291.074 262.182 290.704C260.452 290.21 258.846 289.715 257.117 289.221C256.128 288.974 255.634 287.986 255.881 286.997C256.128 286.009 257.24 285.391 258.105 285.762C259.835 286.256 261.441 286.75 263.171 287.244C264.159 287.492 264.653 288.48 264.406 289.468ZM342.733 369.154C343.474 369.896 343.474 371.007 342.733 371.749C342.115 372.49 340.756 372.49 340.139 371.749C338.409 369.896 336.803 367.919 335.073 366.066C334.332 365.325 334.332 364.213 335.073 363.471C335.691 362.73 337.05 362.73 337.668 363.471C339.397 365.448 341.127 367.301 342.733 369.154ZM259.341 134.42C258.846 135.285 257.611 135.656 256.746 135.038C252.546 132.073 247.233 130.961 242.291 132.32C239.944 132.937 238.956 129.355 241.303 128.737C247.11 127.131 253.658 128.243 258.599 131.826C259.464 132.443 259.835 133.555 259.341 134.42ZM339.397 256.358C337.297 259.447 335.073 262.536 332.973 265.624C332.355 266.489 331.367 266.736 330.379 266.242C329.514 265.748 329.143 264.512 329.761 263.647C331.861 260.559 334.085 257.47 336.185 254.382C336.803 253.517 337.791 253.27 338.78 253.764C339.521 254.258 339.892 255.494 339.397 256.358Z" fill="black"/>
</svg>
