<svg width="600" height="444" viewBox="0 0 600 444" fill="none" xmlns="http://www.w3.org/2000/svg">
<path d="M292.178 335.979C384.956 335.979 460.168 260.768 460.168 167.99C460.168 75.2116 384.956 0 292.178 0C199.4 0 124.189 75.2116 124.189 167.99C124.189 260.768 199.4 335.979 292.178 335.979Z" fill="#F4F6F9"/>
<path d="M435.755 171.132C431.888 165.935 430.679 158.684 432.734 152.52C435.03 163.639 443.49 173.308 454.125 177.175L435.755 171.132ZM428.866 178.142C428.262 177.296 427.658 176.45 427.054 175.483C426.208 174.395 425.24 173.308 424.394 172.22L428.866 178.142ZM576.915 156.146C576.794 156.75 576.19 157.113 575.706 157.355C572.443 159.167 569.059 160.859 565.796 162.672C565.192 165.814 564.346 168.957 563.137 171.857C554.073 194.699 530.385 209.564 505.852 211.981C518.541 211.498 531.231 214.036 542.229 220.2C545.734 222.133 549.118 224.551 550.81 228.176C552.502 231.681 552.139 236.636 548.876 238.932C545.855 241.108 541.746 240.383 538.241 239.416C527.727 236.757 517.212 233.373 506.456 233.615C499.688 233.856 492.678 235.911 487.361 239.899C491.832 240.624 496.304 241.349 500.171 243.525C503.676 245.459 506.697 248.601 507.543 252.468C508.51 252.105 509.356 251.864 510.323 251.743C513.345 251.381 516.608 252.589 518.42 255.006C519.629 256.698 520.113 258.995 520.113 261.17C520.113 262.499 519.992 263.829 519.75 265.158C522.892 267.092 524.584 271.322 524.463 275.552C524.342 280.507 521.925 285.341 519.146 289.45C518.662 290.175 518.179 290.779 517.695 291.505C510.323 303.107 498.721 311.204 486.635 313.138C480.351 314.226 474.067 313.621 468.145 311.567L468.024 314.347C475.758 331.508 473.946 352.658 463.552 368.248C456.542 378.763 446.149 386.497 438.535 396.649C430.921 406.801 426.328 421.062 432.975 431.939C211.688 473.755 149.085 323.894 1.2782 441.124C23.9991 357.009 74.396 280.628 142.921 226.726L145.338 228.055C150.414 208.96 155.007 190.711 159.358 170.165C154.04 170.286 148.722 168.594 144.734 165.089C137.12 158.321 135.428 145.752 141.108 137.172C144.976 131.371 151.865 127.987 158.753 127.866C156.699 118.318 154.161 108.771 153.436 98.9812C152.59 88.7085 153.798 78.0731 158.874 69.1297C159.841 67.4378 161.05 65.7458 162.258 64.1747C179.299 43.6292 209.392 49.1886 227.762 64.5373C252.175 84.9619 276.105 106.112 297.738 124.119C297.738 124.119 269.457 137.897 255.559 144.544C255.559 144.544 264.14 215.003 266.557 235.548L270.787 235.307C294.475 251.018 311.636 277.606 316.954 306.853C318.525 315.555 319.25 324.74 321.546 333.2C324.689 326.794 329.281 321.114 334.84 317.126C339.554 313.742 345.113 310.962 347.289 305.524C349.222 300.811 347.893 295.372 347.893 290.296C347.772 273.86 361.187 260.203 376.052 255.369C390.797 250.535 406.75 252.589 422.098 254.765L424.032 256.215C429.954 250.172 436.118 244.492 442.644 239.174C456.663 227.813 472.616 218.387 490.14 214.157C494.008 213.19 497.875 212.586 501.742 212.223C499.325 212.344 496.787 212.223 494.37 212.102C468.265 210.289 444.336 195.545 427.537 175.483C423.79 170.165 420.044 164.727 416.297 159.409C429.229 168.836 443.852 176.692 459.805 178.021C467.057 178.625 474.55 177.658 481.318 175.241C474.912 171.253 469.353 165.935 464.519 160.013C463.431 158.684 462.464 157.355 462.222 155.663C461.739 151.312 466.815 150.707 469.595 152.399C472.374 153.971 473.945 157.234 475.517 159.893C471.649 153.004 467.903 145.994 464.519 138.864C463.673 137.172 462.827 135.359 462.827 133.425C462.827 131.491 463.915 129.437 465.727 128.953C468.507 128.228 470.803 131.008 472.254 133.546C475.758 139.468 479.263 145.511 482.889 151.433C476.967 138.139 471.045 124.24 471.408 109.737C471.408 107.683 472.133 102.003 473.945 100.552C477.209 98.1352 479.747 103.332 480.472 105.628C484.218 117.11 487.844 128.712 494.37 138.864C497.392 143.577 501.017 147.928 505.247 151.433C509.115 141.523 511.169 130.645 518.904 123.515C530.023 113.242 549.601 116.747 559.149 128.591C564.829 135.721 567.367 144.786 567.125 153.971C569.663 154.092 572.201 154.091 574.739 154.212C575.344 154.212 575.948 154.212 576.552 154.575C577.157 154.938 577.036 155.542 576.915 156.146ZM486.877 240.141C486.031 240.866 485.064 241.591 484.339 242.316L485.427 243.887L486.877 240.141Z" fill="white"/>
<path d="M144.613 230.473C143.042 228.781 145.58 226.243 147.151 227.935C154.04 235.186 162.017 241.229 170.839 245.821C186.43 254.039 204.437 257.786 222.082 256.698C230.784 256.094 239.485 254.281 247.703 251.26C255.801 248.238 265.348 243.646 268.611 234.944C269.457 232.769 272.962 233.736 272.116 235.911C268.249 246.426 257.372 251.743 247.462 255.248C229.938 261.532 210.601 262.137 192.593 257.907C174.465 253.435 157.424 244.129 144.613 230.473ZM144.372 229.748C144.734 231.319 147.393 231.681 147.877 229.748C152.832 211.136 157.424 192.403 161.533 173.549C161.533 173.429 161.533 173.308 161.654 173.187C166.488 172.824 171.202 171.012 174.827 167.869C175.552 167.265 175.673 166.056 175.069 165.331C174.465 164.606 173.256 164.485 172.531 165.09C165.521 171.132 153.798 171.132 146.789 164.969C139.9 158.805 138.329 147.203 143.526 139.468C148.722 131.733 160.083 128.712 168.422 132.821C169.268 133.304 170.356 132.942 170.839 131.975C171.323 131.008 170.96 130.041 169.993 129.558C169.147 129.074 168.18 128.712 167.214 128.47C167.697 123.515 167.818 118.56 167.697 113.484L168.543 110.463C175.432 111.067 182.32 108.771 188.605 105.749C195.856 102.365 203.108 97.7728 206.612 90.6423C209.634 84.5995 209.755 77.4689 208.184 70.9427C206.854 65.3834 204.437 60.0658 201.899 54.869C204.679 55.4733 207.338 56.1984 209.996 57.1653C216.281 59.4615 222.203 62.8454 227.399 67.1962C234.772 73.3599 242.144 79.6444 249.516 85.9289C264.744 98.9813 279.972 112.155 295.321 125.086C285.773 129.8 276.104 134.392 266.436 139.105C262.81 140.918 259.064 142.61 255.438 144.423C254.955 144.665 254.471 145.39 254.592 145.994C255.559 154.333 256.647 162.672 257.613 171.132C259.547 186.602 261.36 202.071 263.173 217.541C263.898 224.067 264.744 230.594 265.469 236.999C265.711 239.295 269.336 239.295 269.095 236.999C267.524 223.705 265.953 210.41 264.382 197.237C262.69 183.097 260.997 169.078 259.185 154.938C258.822 152.279 258.58 149.741 258.218 147.082C270.666 141.16 283.235 134.996 295.683 128.954C296.892 128.349 298.221 127.745 299.43 127.141C300.397 126.657 300.638 124.965 299.792 124.24C285.048 111.913 270.545 99.344 255.922 86.8958C248.187 80.2487 240.573 73.7224 232.717 67.1962C232.355 66.8337 231.992 66.592 231.509 66.2295C228.608 51.3642 200.449 31.9064 184.254 45.8048C167.455 38.4326 140.383 51.3642 130.594 66.9546C118.146 86.8958 118.75 111.671 126.727 128.228C129.627 134.271 133.132 139.831 137 145.269C135.549 152.641 137.483 160.618 142.68 166.177C139.296 171.978 134.099 176.571 128.056 179.23C119.717 182.735 109.928 182.493 101.83 178.504C99.8966 177.538 96.9962 176.571 95.9085 178.504C95.1834 179.713 96.0291 181.284 96.8751 182.493C108.719 199.292 127.935 210.652 148.36 212.828V212.948C147.151 217.541 145.943 222.133 144.734 226.847C144.13 226.363 143.042 226.122 142.196 226.726C128.781 237.241 116.091 248.722 104.126 260.807C92.1617 273.014 81.0431 285.825 70.6495 299.36C60.2559 312.896 50.7084 327.037 42.1276 341.781C33.426 356.525 25.691 371.874 18.9231 387.585C12.1551 403.296 6.47498 419.37 1.7616 435.686C1.15732 437.74 0.674017 439.674 0.069738 441.729C-0.534541 444.025 2.97016 444.992 3.57444 442.696C8.04611 426.259 13.4846 410.185 19.89 394.474C26.2953 378.883 33.7885 363.656 42.0067 348.911C50.3457 334.167 59.6515 319.906 69.6826 306.249C79.7136 292.713 90.5906 279.782 102.314 267.455C114.037 255.127 126.485 243.646 139.658 232.89C141.471 232.044 142.921 230.835 144.372 229.748ZM234.53 96.4434C231.75 93.7846 229.092 91.0048 226.312 88.346C225.587 87.6209 225.708 86.5332 226.312 85.8081C227.037 85.0829 228.246 85.0829 228.85 85.8081C231.63 88.4669 234.288 91.2465 237.068 93.9053C237.793 94.6305 237.672 95.7183 237.068 96.4434C236.464 97.1686 235.134 97.0477 234.53 96.4434ZM470.441 314.588C474.308 323.411 476 332.958 475.275 342.627C474.671 351.087 472.254 359.547 468.024 366.919C463.552 374.775 457.147 381.059 450.983 387.465C444.819 393.749 438.535 400.396 435.151 408.614C432.009 416.107 431.042 424.93 435.272 432.181C436.48 434.236 433.338 436.049 432.13 433.994C427.295 425.776 428.141 415.745 431.767 407.285C438.777 390.486 455.696 381.059 464.64 365.589C473.1 350.845 474.187 332.112 467.298 316.522C466.452 314.346 469.474 312.534 470.441 314.588ZM221.357 91.6092C223.774 94.1472 226.191 96.6851 228.608 99.223C229.333 99.9482 229.333 101.036 228.608 101.761C228.004 102.486 226.675 102.486 226.07 101.761C223.653 99.223 221.236 96.6851 218.819 94.1471C218.094 93.422 218.094 92.3343 218.819 91.6092C219.544 90.8841 220.752 90.8841 221.357 91.6092ZM221.599 74.6894C221.236 74.3268 221.115 73.8433 221.115 73.3598C221.115 72.8764 221.357 72.393 221.599 72.0305C221.72 71.9096 221.961 71.7888 222.203 71.668C222.445 71.5471 222.686 71.547 222.928 71.547C223.895 71.4261 224.741 71.4262 225.708 71.3054C226.191 71.3054 226.675 71.5471 227.037 71.7888C227.4 72.1514 227.52 72.6348 227.52 73.1182C227.52 73.6016 227.279 74.085 227.037 74.4476C226.916 74.5684 226.675 74.6893 226.433 74.8102C226.191 74.9311 225.949 74.931 225.708 74.931C224.741 75.0519 223.895 75.0518 222.928 75.1727C222.444 75.2935 221.961 75.0519 221.599 74.6894ZM174.707 147.807C175.432 148.411 175.311 149.741 174.707 150.345C173.981 151.07 172.894 150.949 172.168 150.345C166.851 145.994 159.6 144.181 152.952 145.632C150.656 146.115 149.689 142.61 151.986 142.127C159.962 140.556 168.301 142.61 174.707 147.807ZM215.556 83.2701C215.677 83.7535 215.556 84.2369 215.314 84.7203C214.589 86.2915 213.864 87.9834 213.259 89.5546C213.018 89.9171 212.534 90.2798 212.172 90.4006C211.688 90.5215 211.205 90.4006 210.722 90.1588C210.359 89.9171 209.996 89.5545 209.875 89.0711C209.755 88.5877 209.876 88.1043 210.117 87.6209C210.842 86.0498 211.568 84.3578 212.172 82.7867C212.414 82.4241 212.897 82.0616 213.259 81.9407C213.743 81.8199 214.226 81.9407 214.71 82.1824C215.072 82.4241 215.435 82.7867 215.556 83.2701ZM227.037 259.357C224.62 258.995 221.961 259.599 220.027 260.928C220.027 260.928 220.027 260.928 220.027 260.807C219.302 260.082 218.094 260.082 217.489 260.807C214.468 264.071 213.985 269.388 216.281 273.135C218.577 276.881 223.291 278.452 227.52 277.244C231.75 276.156 234.53 272.289 234.289 267.938C233.926 264.07 231.267 260.082 227.037 259.357ZM227.279 273.618C227.037 273.739 227.158 273.739 227.279 273.618V273.618ZM228.487 272.893C228.487 273.014 228.367 273.014 228.487 272.893V272.893ZM230.542 269.267C230.542 269.388 230.542 269.388 230.542 269.267C230.542 269.388 230.542 269.509 230.542 269.388C230.542 269.509 230.421 269.751 230.421 269.872C230.421 269.993 230.3 270.234 230.3 270.355C230.3 270.476 230.179 270.597 230.179 270.597C230.058 270.959 229.817 271.201 229.696 271.564C229.696 271.684 229.575 271.685 229.575 271.685C229.454 271.805 229.333 272.047 229.092 272.168C228.971 272.289 228.85 272.41 228.729 272.53L228.608 272.651C228.245 272.893 227.883 273.014 227.52 273.256C227.4 273.256 227.279 273.376 227.279 273.376C227.158 273.497 226.916 273.497 226.795 273.497C226.554 273.497 226.433 273.618 226.191 273.618C226.07 273.618 225.828 273.618 225.708 273.739C225.345 273.739 224.983 273.739 224.62 273.739C224.378 273.739 224.257 273.739 224.016 273.739H223.895C223.774 273.739 223.653 273.739 223.653 273.739C223.291 273.618 222.928 273.618 222.565 273.497C222.444 273.497 222.203 273.376 222.203 273.376C222.203 273.376 222.203 273.376 222.082 273.376C221.961 273.376 221.84 273.256 221.719 273.256C221.357 273.135 221.115 272.893 220.752 272.651C220.752 272.651 220.632 272.53 220.511 272.53C220.269 272.41 220.148 272.168 220.027 272.047C220.027 271.926 219.906 271.926 219.906 271.805C219.786 271.563 219.665 271.443 219.544 271.201C219.423 270.959 219.302 270.718 219.182 270.476C219.182 270.476 219.182 270.476 219.182 270.355C219.182 270.234 219.061 270.113 219.061 270.113C218.94 269.63 218.819 269.267 218.698 268.784C218.698 268.784 218.698 268.784 218.698 268.663C218.698 268.542 218.698 268.421 218.698 268.421C218.698 268.301 218.698 268.18 218.698 268.059C219.423 267.938 220.148 267.454 220.269 266.729C220.269 266.608 220.39 266.367 220.39 266.246C220.39 266.125 220.511 266.004 220.511 265.883C220.632 265.521 220.874 265.279 220.994 264.916C220.994 264.916 220.994 264.917 220.994 264.796L221.115 264.675C221.236 264.554 221.357 264.433 221.478 264.312C221.599 264.191 221.719 264.07 221.84 263.95L221.961 263.829C222.324 263.587 222.565 263.466 222.928 263.225C223.049 263.225 223.17 263.104 223.291 263.104C223.17 263.104 223.653 262.983 223.774 262.983C224.136 262.862 224.499 262.741 224.862 262.741C224.862 262.741 224.862 262.741 224.982 262.741C224.982 262.741 224.982 262.741 225.103 262.741C225.345 262.741 225.466 262.741 225.708 262.741C225.828 262.741 226.07 262.741 226.191 262.741C226.312 262.741 226.433 262.741 226.554 262.741C226.916 262.862 227.279 262.862 227.641 262.983C227.641 262.983 227.762 262.983 227.762 263.104C227.883 263.224 228.125 263.224 228.246 263.345C228.367 263.466 228.608 263.587 228.729 263.587C228.85 263.708 228.85 263.708 228.971 263.829C229.092 263.95 229.212 264.071 229.333 264.191C229.333 264.191 229.575 264.433 229.575 264.554C229.817 264.796 229.938 265.158 230.179 265.4C230.3 265.521 230.3 265.642 230.421 265.762C230.421 265.762 230.542 266.004 230.542 266.125C230.663 266.488 230.784 266.85 230.904 267.213C230.904 267.334 231.025 267.938 230.904 267.455C230.904 267.575 230.904 267.817 230.904 267.938C230.542 268.542 230.542 268.905 230.542 269.267C230.542 269.388 230.542 269.388 230.542 269.267C230.542 269.388 230.542 269.388 230.542 269.267ZM236.464 179.23C236.222 178.142 235.255 177.779 234.289 178.021C231.871 178.384 229.454 178.384 227.037 178.021C227.279 177.659 227.52 177.296 227.762 176.933C228.85 174.758 228.246 172.22 226.433 170.649C225.103 169.44 223.291 168.836 221.478 168.957C221.357 167.99 220.994 167.023 220.269 166.177C217.489 162.552 211.809 162.672 208.909 166.177C208.425 166.782 207.942 167.507 207.7 168.232C205.283 165.694 203.349 162.672 201.899 159.53C201.053 157.355 197.548 158.322 198.394 160.497C199.965 164.244 202.141 167.507 204.8 170.407C204.437 170.77 204.195 171.253 204.195 171.737C203.712 176.692 203.47 182.372 207.458 186.118C209.15 187.69 211.326 188.656 213.622 188.536C215.797 188.415 217.852 187.327 219.423 185.756C220.873 184.306 221.961 182.614 222.928 180.922C226.916 181.888 231.146 182.13 235.255 181.526C236.222 181.405 236.705 180.076 236.464 179.23ZM211.809 168.232C212.897 167.023 214.347 166.782 215.798 167.265C217.127 167.748 217.852 168.715 217.852 170.045V170.166C216.523 171.012 215.435 172.22 214.589 173.67C213.139 172.824 211.809 171.857 210.601 170.891C210.722 169.924 211.205 168.957 211.809 168.232ZM216.643 183.339C215.193 184.668 213.622 185.393 211.688 184.668C209.996 184.064 208.546 182.251 208.063 180.438C207.458 178.505 207.458 176.45 207.579 174.396C208.063 175 208.909 175 209.634 174.758C212.534 176.933 215.797 178.625 219.302 179.834C218.577 181.163 217.731 182.372 216.643 183.339ZM224.62 175C224.499 175.362 224.257 175.846 223.895 176.087C223.532 176.329 223.29 176.329 222.928 176.208C222.082 175.967 221.478 176.329 221.115 176.813C220.148 176.45 219.302 176.208 218.335 175.725C219.423 175 220.269 174.033 220.873 172.824C221.719 172.583 222.566 172.583 223.411 173.066C224.257 173.429 224.862 174.154 224.62 175ZM202.624 276.76C195.735 279.903 188.847 283.045 181.354 284.495C170.477 286.67 157.787 284.616 150.777 275.189C147.272 270.476 145.701 264.675 144.493 258.995C143.042 252.106 141.834 245.338 140.383 238.449C139.9 236.153 143.405 235.186 143.888 237.482C145.339 244.613 146.547 251.864 148.118 258.995C149.206 264.191 150.777 269.63 154.161 273.739C157.424 277.606 162.017 279.903 166.851 280.99C178.574 283.528 190.176 278.331 200.57 273.618C202.866 272.772 204.799 275.794 202.624 276.76ZM230.542 269.509C230.542 269.388 230.542 269.388 230.542 269.509V269.509ZM152.59 321.96C151.019 321.96 149.448 322.323 148.118 323.048C148.239 321.235 148.118 319.302 147.272 317.61C146.064 314.83 143.042 312.776 140.021 312.776C136.637 312.896 134.341 315.676 134.22 318.939C134.099 320.994 134.824 322.806 135.791 324.498C132.89 322.806 129.748 321.477 126.243 322.323C122.859 323.048 120.321 325.949 120.563 329.454C120.926 332.838 123.585 335.738 126.727 336.826C128.54 337.43 130.352 337.551 132.165 337.309C131.319 338.639 130.594 340.089 130.352 341.66C129.748 345.165 131.319 349.274 134.582 350.966C138.329 352.899 142.559 350.603 144.613 347.219C145.822 345.165 146.064 343.11 145.943 340.935C150.414 343.473 156.336 343.473 159.962 338.88C162.379 335.859 163.225 331.508 161.775 327.762C160.204 324.015 156.578 321.84 152.59 321.96ZM141.954 344.319C141.229 346.615 138.571 349.153 136.033 347.703C133.978 346.615 133.374 343.715 133.978 341.66C134.824 338.639 137.483 336.463 139.9 334.892C140.142 334.771 140.262 334.65 140.383 334.409C140.504 334.892 140.746 335.255 140.867 335.617C141.955 338.397 142.921 341.539 141.954 344.319ZM158.633 332.717C158.149 336.222 155.49 339.122 151.986 339.122C148.722 339.122 145.701 337.067 144.251 334.167C144.13 333.684 143.888 333.2 143.767 332.837C143.163 331.266 141.35 331.266 140.504 332.233C140.142 331.629 139.416 331.266 138.57 331.629C135.67 332.717 132.648 334.046 129.506 333.804C127.21 333.563 124.793 332.112 124.189 329.695C123.584 327.399 125.639 325.949 127.693 325.707C130.594 325.465 133.253 327.157 135.549 328.607C136.758 329.333 137.845 328.608 138.087 327.52C138.45 327.882 138.691 328.245 139.054 328.487C140.625 330.179 143.284 327.641 141.592 325.949C139.9 324.257 137.846 322.202 137.604 319.664C137.483 317.972 138.45 316.039 140.383 316.401C142.196 316.643 143.767 318.335 144.13 320.027C144.855 322.927 143.646 326.07 142.8 328.849C142.196 331.146 145.58 331.991 146.305 329.816C147.151 326.795 150.656 325.223 153.677 325.586C157.303 326.069 159.116 329.333 158.633 332.717ZM554.798 230.956C554.315 226.968 551.898 223.705 548.755 221.288C542.108 216.091 533.407 212.948 525.189 211.377C516.487 209.685 507.543 209.564 498.721 210.773C481.076 213.19 464.519 221.287 450.137 231.681C440.71 238.57 432.129 246.305 423.911 254.644C423.79 254.523 423.549 254.402 423.307 254.402C408.804 252.468 393.939 250.414 379.557 254.16C368.318 257.061 358.166 264.07 352.002 273.981C348.981 278.815 347.168 284.374 346.926 290.055C346.564 296.339 349.102 303.711 344.872 309.15C341.367 313.622 335.686 316.039 331.457 319.785C328.073 322.686 325.293 326.19 322.876 329.937C320.821 320.51 320.338 310.721 318.041 301.415C312.24 277.727 298.705 255.611 279.489 240.504C277.192 238.691 274.896 236.999 272.479 235.428C270.545 234.098 268.732 237.24 270.666 238.57C275.017 241.47 279.126 244.733 282.993 248.238C282.751 248.601 282.752 249.084 282.873 249.568C285.048 257.061 281.543 264.917 275.621 269.63C268.974 275.069 259.789 275.31 251.933 272.409C247.22 270.717 243.111 267.817 239.606 264.312C237.914 262.62 235.376 265.158 237.068 266.85C243.957 273.86 253.746 278.573 263.777 277.848C272.962 277.244 281.301 271.564 285.169 263.104C286.74 259.599 287.465 255.852 287.102 252.106C298.1 263.466 306.56 277.365 311.757 292.351C313.691 297.91 315.141 303.59 316.229 309.391C317.316 315.555 317.921 321.84 319.129 328.003C319.492 330.179 319.975 332.354 320.58 334.53C315.745 344.802 313.932 357.371 317.437 368.369C319.25 374.17 323.238 379.609 329.644 380.455C335.203 381.18 339.796 377.192 340.883 371.874C342.092 366.073 340.158 360.634 336.895 355.921C333.149 350.482 328.556 345.769 326.139 339.605C325.535 338.034 325.051 336.584 324.568 335.013C326.26 331.629 328.556 328.366 331.094 325.586C332.907 323.532 335.082 321.719 337.258 320.027C339.433 318.456 341.608 317.126 343.784 315.555C345.959 313.863 348.014 311.929 349.343 309.633C350.794 306.974 351.398 303.953 351.398 300.932C351.398 297.668 350.914 294.405 350.914 291.142C350.914 288.483 351.398 285.824 352.244 283.286C355.386 273.014 363.846 264.796 373.393 260.324C385.479 254.644 399.74 255.248 412.672 256.698C415.572 257.061 418.473 257.424 421.373 257.786C417.264 262.016 413.155 266.367 409.167 270.718C407.596 272.53 405.904 274.343 404.333 276.035C402.762 277.727 405.299 280.386 406.87 278.573C430.437 252.589 456.301 224.309 491.832 215.849C508.148 211.982 526.155 212.828 541.142 220.683C544.525 222.375 548.151 224.43 550.206 227.693C551.898 230.352 552.502 234.219 550.206 236.757C547.426 239.658 542.592 238.087 539.329 237.241C534.736 236.032 530.144 234.702 525.43 233.736C516.366 231.681 506.819 230.594 497.754 233.373C494.25 234.461 490.865 236.032 487.965 238.207C487.844 238.328 487.723 238.449 487.602 238.57C484.339 240.987 481.56 244.25 479.868 247.997C478.901 250.051 482.043 251.985 483.01 249.809C484.46 246.546 486.756 243.767 489.415 241.712C493.403 242.316 497.513 243.042 501.017 245.096C504.281 246.909 507.302 250.172 507.423 254.039C507.665 258.269 504.764 262.137 501.863 265.037C501.742 265.158 501.501 265.279 501.38 265.521C500.897 265.279 500.413 264.917 500.051 264.675C494.129 261.049 488.086 257.786 481.801 254.885C474.792 251.622 467.54 248.722 460.047 246.425C457.872 245.7 456.905 249.205 459.08 249.93C470.683 253.677 481.801 258.511 492.437 264.433C495.095 265.883 497.633 267.455 500.292 269.026C502.468 270.355 505.247 271.805 506.335 274.343C507.423 276.76 506.214 278.815 503.797 279.419C500.776 280.144 497.271 278.694 494.491 277.727C487.602 275.431 480.955 272.772 474.308 270.113C473.22 269.751 471.891 270.717 472.012 271.805C472.858 280.023 465.848 287.154 457.388 285.704C455.092 285.341 454.125 288.725 456.421 289.209C461.377 290.055 466.573 288.846 470.441 285.341C473.462 282.562 475.396 278.573 475.638 274.464C480.109 276.277 484.702 277.969 489.294 279.661C490.02 284.132 491.832 288.484 496.666 289.571C498.963 290.055 501.138 289.813 503.193 288.967C503.918 290.78 504.643 292.713 505.731 294.284C507.302 296.581 509.719 297.669 512.136 297.669C507.785 302.382 502.588 306.128 496.666 308.666C488.086 312.292 478.417 312.655 469.595 309.512C464.398 307.7 459.805 304.557 455.817 300.811C454.125 299.119 451.587 301.778 453.279 303.349C453.884 303.953 454.488 304.436 455.092 305.041C447.841 308.908 439.139 309.875 431.163 307.579C423.67 305.403 417.264 300.327 413.155 293.68C410.859 289.934 409.288 285.704 408.804 281.353C408.683 280.386 408.079 279.54 406.991 279.54C406.145 279.54 405.058 280.386 405.179 281.353C406.266 289.934 410.496 297.91 416.902 303.711C423.79 309.754 432.855 312.896 442.04 312.292C447.357 311.929 452.675 310.479 457.388 307.82C457.751 307.699 457.872 307.458 458.114 307.216C464.882 312.171 472.979 315.072 481.559 315.313C491.711 315.555 501.38 311.567 509.236 305.403C513.828 301.778 517.695 297.427 520.838 292.593C522.651 290.417 524.222 287.758 525.43 285.22C527.364 281.111 528.572 276.639 527.847 272.168C527.364 269.146 525.914 266.125 523.496 264.191C524.222 259.599 523.496 254.523 519.629 251.743C516.849 249.689 513.586 249.326 510.444 250.051C509.477 247.634 507.906 245.459 505.852 243.767C502.468 240.987 498.359 239.658 494.129 238.812C495.821 237.966 497.754 237.241 499.567 236.636C508.269 234.098 517.333 235.428 526.035 237.482C530.869 238.57 535.461 240.02 540.296 241.108C544.042 241.954 548.393 242.558 551.656 240.262C553.952 238.207 555.161 234.461 554.798 230.956ZM324.568 345.286C327.468 350.724 332.182 354.954 335.203 360.393C337.379 364.381 338.587 369.94 335.928 374.049C332.665 379.125 325.897 376.467 323.118 372.358C319.854 367.523 319.129 361.118 319.129 355.438C319.129 349.999 320.217 344.681 322.03 339.605C322.755 341.66 323.601 343.473 324.568 345.286ZM521.805 268.3C523.134 270.113 523.738 272.651 523.738 274.827C523.738 279.54 521.563 284.012 518.904 287.879C517.091 290.538 512.136 296.822 508.631 292.955C507.302 291.384 506.577 289.208 505.731 287.275C507.906 285.945 510.081 284.133 511.773 282.562C516.245 278.694 519.992 273.86 521.805 268.3ZM510.565 255.852C510.686 255.127 510.686 254.281 510.565 253.556C512.378 253.073 514.432 253.193 516.245 254.281C520.354 256.577 519.75 262.499 518.662 266.367C517.333 270.959 514.553 274.948 511.29 278.332C509.598 280.024 507.785 281.474 505.972 282.803C504.159 284.133 502.226 285.462 499.93 285.946C497.392 286.429 495.095 285.583 493.766 283.286C493.283 282.561 492.92 281.716 492.678 280.749C493.041 280.87 493.283 280.99 493.645 281.111C496.908 282.199 500.292 283.407 503.676 282.803C506.335 282.32 508.752 280.628 509.598 277.969C511.048 273.256 507.785 269.751 504.039 267.213C507.302 264.191 509.961 260.203 510.565 255.852Z" fill="black"/>
<path d="M521.805 216.333C523.617 218.508 523.98 221.771 522.53 224.309C522.046 225.155 520.959 225.397 519.992 224.913C519.146 224.43 518.904 223.221 519.387 222.375C519.508 222.254 519.508 222.134 519.629 222.013C519.629 221.771 519.75 221.529 519.871 221.408C519.871 221.288 519.871 221.288 519.871 221.167V221.046C519.871 220.804 519.871 220.563 519.871 220.321C519.871 220.2 519.871 220.2 519.871 220.079C519.871 219.837 519.75 219.596 519.629 219.475C519.629 219.475 519.629 219.475 519.629 219.354C519.629 219.233 519.508 219.112 519.508 218.991C519.508 218.87 519.387 218.87 519.387 218.75C519.267 218.629 519.146 218.508 518.904 218.266C518.783 218.266 518.783 218.145 518.662 218.145C518.541 218.145 518.421 218.024 518.3 218.024C518.058 217.904 517.937 217.904 517.696 217.783C517.575 217.783 517.575 217.783 517.454 217.783C517.212 217.783 516.97 217.783 516.729 217.783H516.608C516.487 217.783 516.487 217.783 516.487 217.783C516.245 217.783 516.004 217.904 515.762 218.024C514.795 218.387 513.828 217.662 513.586 216.816C513.465 216.332 513.586 215.849 513.828 215.366C514.07 214.882 514.432 214.761 514.916 214.52C516.97 213.553 520.113 214.399 521.805 216.333ZM578.003 160.014C576.311 160.981 574.498 161.826 572.806 162.793C571.355 163.518 569.905 164.364 568.576 165.09C566.763 173.429 563.017 181.163 557.82 187.931C544.888 204.73 523.98 214.399 502.83 215.245C503.676 215.97 504.401 216.937 504.764 218.024C505.972 221.046 504.522 224.671 501.863 226.484C501.017 226.968 499.93 226.605 499.325 225.88C498.842 225.034 499.204 223.946 499.93 223.342C499.93 223.342 500.171 223.221 500.171 223.101C500.292 222.98 500.292 222.98 500.292 222.98C500.413 222.859 500.534 222.738 500.534 222.738C500.534 222.738 500.534 222.617 500.655 222.617C500.776 222.496 500.776 222.496 500.655 222.617C500.776 222.496 501.017 222.134 501.017 221.892C501.017 221.892 501.017 221.892 501.017 221.771C501.017 221.65 501.138 221.529 501.138 221.408C501.259 221.167 501.259 220.925 501.38 220.683C501.38 220.563 501.38 220.442 501.38 220.321C501.38 220.2 501.38 220.079 501.38 219.837C501.38 219.596 501.259 219.354 501.138 219.112C501.138 219.112 501.138 218.991 501.017 218.991C500.897 218.87 500.897 218.75 500.776 218.629C500.776 218.629 500.776 218.508 500.655 218.508C500.534 218.387 500.534 218.387 500.413 218.266C500.292 218.145 499.93 217.904 499.809 217.783C499.809 217.783 499.809 217.783 499.688 217.783C499.567 217.662 499.446 217.662 499.325 217.541C499.204 217.42 499.084 217.42 498.963 217.42C498.721 217.299 498.479 217.299 498.117 217.178C497.996 217.178 497.875 217.178 497.754 217.178C497.634 217.178 497.512 217.178 497.271 217.178C496.304 217.42 495.337 216.937 495.095 215.97C494.974 215.728 494.974 215.486 495.095 215.366C493.403 215.245 491.591 215.124 489.899 214.882C466.211 211.861 444.94 198.808 429.108 181.163C428.746 181.043 428.262 180.801 428.02 180.438C427.416 179.592 426.812 178.625 426.207 177.779C424.636 175.967 423.186 174.033 421.736 172.099C421.373 171.737 421.373 171.253 421.373 170.891C419.198 167.869 417.143 164.848 414.968 161.706C414.001 160.255 415.935 158.201 417.506 159.168C420.648 161.464 423.791 163.518 427.054 165.573C428.746 166.661 430.558 167.628 432.25 168.594C430.317 163.76 430.075 158.322 431.646 153.367C432.129 151.795 434.788 151.554 435.151 153.367C437.447 163.881 445.182 173.066 455.334 176.813C455.455 176.934 455.696 176.933 455.817 177.054C460.047 177.779 464.398 178.021 468.749 177.659C471.65 177.417 474.55 176.813 477.451 176.087C476.605 175.483 475.638 174.758 474.792 174.154C472.375 172.22 469.957 170.045 467.782 167.749C465.728 165.573 463.552 163.277 461.86 160.739C460.531 158.684 459.926 155.905 461.256 153.608C462.343 151.916 464.519 151.191 466.453 151.191C467.057 151.191 467.54 151.312 468.024 151.312C467.299 149.983 466.573 148.532 465.848 147.203C464.761 145.028 463.673 142.731 462.585 140.556C461.739 138.622 460.893 136.447 461.014 134.271C461.377 130.525 464.76 127.383 468.507 128.833C470.32 129.558 471.649 130.887 472.737 132.459C471.528 128.349 470.441 124.24 469.958 119.889C469.353 115.66 469.232 111.43 469.837 107.321C470.32 104.299 471.408 99.9483 475.154 99.5858C478.659 99.2232 480.834 103.091 481.922 105.87C483.735 110.463 484.943 115.297 486.635 119.889C490.503 130.525 496.062 141.885 504.401 149.862C507.665 140.918 509.84 131.492 516.608 124.603C525.188 115.901 538.603 115.418 549.239 120.252C561.324 125.811 567.851 138.26 568.697 151.191C568.697 152.037 568.817 152.762 568.817 153.608C570.751 153.608 572.685 153.729 574.619 153.729C576.311 153.729 578.003 154.213 578.728 155.784C580.541 157.476 579.574 159.047 578.003 160.014ZM434.909 161.947C435.272 165.331 436.48 168.474 438.535 171.253C440.227 171.978 442.04 172.704 443.732 173.429C439.985 170.286 436.964 166.419 434.909 161.947ZM575.344 157.355C575.102 157.355 574.86 157.355 574.74 157.355C574.014 157.355 573.289 157.355 572.443 157.355L572.564 157.234H566.038C563.258 157.113 560.478 157.113 557.699 156.992C555.402 156.992 555.402 153.367 557.699 153.367C560.478 153.487 563.258 153.487 566.038 153.608C565.917 148.653 565.071 143.819 563.137 139.226C558.545 128.108 547.788 120.615 535.582 120.736C530.264 120.856 524.826 122.548 520.838 126.295C516.245 130.525 513.707 136.447 511.653 142.248C510.444 145.632 509.356 149.016 508.148 152.4C512.619 155.905 517.696 158.563 523.738 159.772C526.035 160.255 525.068 163.76 522.771 163.277C513.466 161.464 505.368 155.784 499.205 148.774C493.162 141.764 488.932 133.546 485.548 124.965C483.735 120.373 482.285 115.78 480.714 111.188C480.109 109.496 479.747 107.683 478.901 105.991C478.538 105.145 477.692 103.332 476.605 103.211C474.55 102.97 474.187 108.892 474.067 110.221C473.704 114.693 474.308 119.406 475.154 123.757C477.209 133.546 481.197 142.852 485.185 151.916C486.152 153.971 483.252 155.784 482.043 153.729C479.263 149.016 476.484 144.302 473.704 139.71C472.858 138.26 468.265 128.954 465.848 133.184C464.761 135.117 465.969 137.535 466.815 139.347C468.024 141.764 469.111 144.182 470.441 146.599C472.858 151.191 475.275 155.784 477.813 160.376C479.022 162.431 475.879 164.244 474.671 162.189C472.979 159.288 470.32 153.246 465.848 154.938C461.86 156.388 469.111 163.156 470.441 164.485C473.946 168.232 477.813 171.616 482.164 174.396C491.107 180.197 501.863 183.581 512.619 181.889C514.916 181.526 515.883 185.031 513.586 185.393C506.214 186.481 498.721 185.635 491.712 183.218C488.328 182.009 485.064 180.438 481.922 178.505C473.825 181.284 465.002 181.889 456.542 180.68C444.94 178.988 434.184 174.033 424.274 167.749C426.087 170.407 427.9 172.945 429.712 175.604C430.317 176.329 431.042 177.175 431.646 177.9C449.049 197.6 474.187 212.223 501.017 211.861C525.068 211.498 549.722 198.688 560.841 176.934C562.412 173.912 563.621 170.77 564.587 167.507C563.983 167.748 563.5 168.111 562.896 168.353C560.841 169.44 559.028 166.298 561.083 165.21C562.654 164.364 564.104 163.518 565.675 162.793C565.675 162.552 565.675 162.431 565.796 162.189L569.664 160.618V160.739C570.993 160.014 572.443 159.288 573.773 158.563C574.135 157.959 574.74 157.596 575.344 157.355ZM576.552 157.476C576.431 157.476 576.552 157.476 576.552 157.476V157.476ZM511.29 174.154C503.314 174.395 495.579 171.857 489.173 167.023C488.448 166.419 487.119 166.902 486.635 167.628C486.152 168.594 486.515 169.561 487.24 170.166C494.128 175.362 502.588 178.021 511.169 177.779C513.586 177.659 513.586 174.033 511.29 174.154ZM544.888 138.743C541.263 138.26 537.395 139.831 535.099 142.731C534.494 143.456 534.374 144.544 535.099 145.269C535.703 145.873 537.033 145.994 537.637 145.269C539.329 143.215 541.867 142.006 544.405 142.248C546.822 142.49 548.997 144.182 550.085 146.236C550.568 147.082 551.777 147.324 552.623 146.84C553.469 146.357 553.711 145.269 553.227 144.302C551.535 141.281 548.393 139.106 544.888 138.743Z" fill="black"/>
<path d="M587.671 208.598L539.933 198.446C537.274 197.841 535.582 195.304 536.186 192.645L542.592 162.552C543.196 159.893 545.734 158.201 548.393 158.805L596.131 168.957C598.79 169.561 600.482 172.099 599.877 174.758L593.472 204.851C592.868 207.389 590.33 209.081 587.671 208.598Z" fill="#FFE945"/>
<path d="M546.338 163.881C549.964 167.265 553.71 170.649 557.336 174.033C559.27 175.846 561.083 177.538 563.016 179.351C563.862 180.197 564.829 180.922 565.675 181.768C566.521 182.614 567.488 183.701 568.455 184.306C569.543 185.031 570.63 184.426 571.718 184.185C572.806 183.822 574.014 183.58 575.102 183.218C577.519 182.614 579.815 181.888 582.232 181.284C587.067 179.955 591.901 178.625 596.856 177.296C599.152 176.692 598.185 173.187 595.889 173.791C586.946 176.208 578.003 178.746 569.059 181.163C569.664 181.284 570.268 181.526 570.872 181.647C563.5 174.879 556.248 168.111 548.876 161.464C547.184 159.772 544.646 162.31 546.338 163.881Z" fill="black"/>
</svg>
