<svg width="559" height="600" viewBox="0 0 559 600" fill="none" xmlns="http://www.w3.org/2000/svg">
<path d="M125.75 271.741C110.64 267.935 98.1834 257.67 86.3033 247.635C62.7739 227.797 39.1292 207.958 15.5998 188.235C40.3979 191.234 65.7727 190.08 90.2249 184.66C98.414 182.814 106.834 180.507 113.408 175.202C120.905 169.204 125.404 160.323 129.21 151.557C145.934 113.956 157.122 68.2812 135.669 33.2178C150.663 59.2846 168.195 83.9677 187.803 106.69C217.099 66.782 251.817 30.7958 290.571 0C286.303 22.722 290.917 46.9434 303.143 66.5512C308.103 74.3944 314.562 81.8913 323.212 85.1208C334.977 89.5038 348.126 85.467 359.89 80.9688C390.456 69.5501 420.213 55.8244 448.818 40.1382C422.635 61.7068 394.492 86.851 391.263 120.646C390.686 126.413 391.378 133.218 395.992 136.678C399.798 139.446 404.873 139.216 409.602 138.869C446.511 135.986 483.42 132.987 520.329 130.104C501.874 142.906 484.342 157.208 468.195 172.779C462.543 178.316 456.891 187.774 462.658 193.195C466.003 196.309 471.194 195.847 475.692 195.271C499.683 192.387 524.25 194.579 547.434 201.499C551.24 202.653 555.392 204.152 557.353 207.728C561.044 214.187 554.931 221.684 549.279 226.528C516.176 254.671 479.729 278.892 440.859 298.5C415.946 311.072 389.879 321.914 367.964 339.215C355.623 349.019 344.089 361.015 328.748 364.59C309.717 368.973 290.34 358.823 274.769 347.059C259.083 335.294 244.319 321.222 225.634 315.801C210.179 311.303 193.108 313.149 178.23 307.036C155.392 297.693 140.052 270.703 115.369 270.127" fill="#F4F6F9"/>
<path d="M508.91 283.045C506.488 296.309 500.605 308.766 494.377 320.761C485.496 337.947 475.922 354.671 465.772 371.165C461.274 378.431 456.43 385.929 449.51 391.004C439.244 398.501 425.75 399.77 412.947 398.155C404.642 407.843 396.222 417.532 386.072 425.375C382.843 427.912 379.383 430.219 375.461 431.603C364.504 435.294 352.047 429.989 340.744 430.104C339.936 431.142 339.014 432.065 337.976 432.987C321.367 448.674 298.875 457.786 276.038 458.016C256.43 458.247 236.938 451.903 221.021 440.369C217.56 442.791 214.446 445.79 211.909 449.251C203.835 459.977 209.371 470.935 210.755 486.736C209.948 486.851 209.256 487.082 208.564 487.197C214.792 498.847 218.598 511.765 219.637 525.029C203.95 524.568 188.264 527.221 173.5 532.872L173.846 533.795C168.656 525.836 164.504 517.186 161.39 508.074C161.044 507.036 160.698 505.882 160.582 504.729C157.353 506.459 154.239 508.305 151.124 510.15C131.517 495.156 113.177 477.855 101.413 456.171C89.7634 434.487 85.4959 407.843 94.6078 384.891C102.912 364.129 123.673 347.982 145.703 347.636C141.205 336.332 139.014 323.991 139.475 311.88C140.398 286.851 152.162 263.207 168.31 243.945C169.233 242.792 170.271 241.638 171.194 240.6C153.662 219.608 136.015 198.731 118.483 177.74C161.851 141.177 209.833 109.919 260.928 85.1213C266.119 82.5838 272.462 80.1617 277.191 83.3912C279.152 84.7753 280.536 86.9669 281.805 89.0431C302.912 124.337 324.019 159.746 345.127 195.041C366.465 204.383 385.034 220.531 396.222 241.062C398.645 245.444 400.721 250.058 402.335 254.787C403.143 254.095 403.95 253.403 404.642 252.711C418.483 240.715 434.4 230.335 452.393 227.105C470.386 223.991 490.801 229.412 501.528 244.291C509.717 255.133 511.332 269.781 508.91 283.045ZM281.805 457.901C269.002 457.901 258.737 489.389 258.737 528.259C258.737 567.128 269.117 598.616 281.805 598.616C294.492 598.616 304.873 567.128 304.873 528.259C304.873 489.389 294.608 457.901 281.805 457.901ZM154.7 518.455C146.165 520.762 143.512 538.524 148.818 558.016C154.123 577.509 165.311 591.58 173.962 589.158C182.497 586.851 185.15 569.089 179.844 549.597C174.538 529.989 163.235 516.033 154.7 518.455ZM385.034 503.23C376.153 502.307 367.387 517.878 365.311 538.063C363.235 558.247 368.771 575.317 377.537 576.125C386.418 577.048 395.184 561.476 397.26 541.292C399.337 521.223 393.8 504.152 385.034 503.23Z" fill="white"/>
<path d="M469.464 442.329C467.503 441.176 469.348 438.177 471.194 439.33C484.112 447.058 497.03 454.901 509.948 462.629C511.909 463.782 510.063 466.781 508.218 465.628C495.3 457.9 482.382 450.057 469.464 442.329ZM451.009 461.706C458.391 469.088 465.773 476.47 473.154 483.852C474.769 485.467 477.191 482.929 475.577 481.429C468.195 474.048 460.813 466.666 453.431 459.284C451.816 457.669 449.394 460.091 451.009 461.706ZM60.1211 467.012C46.7416 472.894 33.3622 478.892 19.9827 484.774C17.9066 485.697 19.752 488.696 21.7128 487.773C35.0923 481.891 48.4717 475.893 61.8512 470.011C63.812 469.088 62.0819 466.205 60.1211 467.012ZM67.5029 313.609C45.8189 317.762 23.6736 319.146 1.6436 317.646C-0.547866 317.531 -0.547866 320.991 1.6436 321.107C24.0196 322.606 46.511 321.106 68.4256 316.954C70.6171 316.608 69.6944 313.263 67.5029 313.609ZM59.5444 335.87C49.9712 337.831 40.2826 339.676 30.7093 341.637C28.5179 342.099 29.4406 345.443 31.6321 344.982C41.2053 343.021 50.8939 341.176 60.4671 339.215C62.6586 338.754 61.7359 335.409 59.5444 335.87ZM330.017 91.5795C332.901 84.8898 335.784 78.0847 338.668 71.395C339.014 70.5876 338.898 69.5494 338.091 68.9727C337.399 68.5114 336.13 68.7421 335.669 69.5494C332.785 76.2392 329.902 83.0442 327.018 89.734C326.672 90.5414 326.788 91.5795 327.595 92.1562C328.287 92.6176 329.556 92.5023 330.017 91.5795ZM132.209 74.163C127.364 68.396 122.52 62.629 117.791 56.862C117.215 56.17 115.946 56.2853 115.369 56.862C114.677 57.5541 114.792 58.5922 115.369 59.2843C120.213 65.0513 125.058 70.8183 129.787 76.5853C130.363 77.2773 131.632 77.162 132.209 76.5853C132.901 75.8933 132.785 74.8551 132.209 74.163ZM96.5686 65.2819C105.104 72.087 113.524 79.0074 122.059 85.8125C123.789 87.1966 126.211 84.7743 124.481 83.3903C115.946 76.5852 107.526 69.665 98.9908 62.8599C97.2607 61.4758 94.8385 63.8978 96.5686 65.2819Z" fill="black"/>
<path d="M340.628 458.708C341.551 476.355 341.667 494.002 340.974 511.649C340.974 513.033 339.475 513.495 338.552 513.149H338.437C328.287 514.072 318.137 514.994 307.987 515.917C305.796 516.148 305.796 512.687 307.987 512.457C317.906 511.534 327.71 510.611 337.63 509.804C338.206 492.734 338.091 475.663 337.168 458.708C332.324 458.478 327.595 458.247 322.751 457.786C320.559 457.555 320.559 454.095 322.751 454.325C328.056 454.787 333.477 455.133 338.783 455.248V454.556C338.783 454.787 338.783 455.017 338.783 455.248C356.661 455.825 374.539 454.787 392.301 452.134C394.492 451.788 395.415 455.133 393.224 455.479C375.807 458.132 358.276 459.17 340.628 458.708ZM293.685 532.872C293.224 535.064 296.569 535.986 297.03 533.795C300.144 519.262 299.452 504.152 295.184 489.85C294.492 487.774 291.263 488.582 291.84 490.773C295.992 504.498 296.684 519.031 293.685 532.872ZM275.577 472.203C269.464 481.892 266.349 493.426 266.926 504.844C267.041 507.036 270.502 507.036 270.386 504.844C269.925 494.002 272.693 483.16 278.575 473.933C279.729 472.088 276.73 470.358 275.577 472.203ZM382.958 513.841C385.15 512.918 386.303 514.764 386.765 516.609C388.495 522.145 388.841 528.143 387.918 533.795C387.803 534.717 388.149 535.64 389.071 535.871C389.879 536.102 391.032 535.64 391.148 534.717C391.724 531.027 391.955 527.336 391.609 523.529C391.263 520.069 390.686 516.263 389.071 513.149C387.457 510.265 384.227 509.227 381.228 510.611C377.999 512.111 376.845 515.571 375.923 518.685C375.346 520.877 378.691 521.799 379.267 519.608C380.075 517.647 380.767 514.764 382.958 513.841ZM156.084 559.977C155.277 560.208 154.585 561.246 154.931 562.053C157.584 569.204 161.39 575.894 166.119 581.892C167.157 583.276 168.426 584.429 170.156 584.89C171.77 585.236 173.501 584.89 174.885 583.968C177.999 582.007 178.806 578.316 179.267 574.971C179.383 574.049 179.037 573.126 178.114 572.895C177.307 572.664 176.153 573.126 176.038 574.049C175.692 576.586 175.346 579.816 172.924 581.2C170.386 582.699 168.541 579.469 167.272 577.739C163.581 572.664 160.582 567.013 158.276 561.131C157.93 560.323 157.007 559.746 156.084 559.977ZM506.372 298.616C502.336 309.458 496.915 319.839 491.378 329.989C485.611 340.715 479.614 351.326 473.385 361.707C467.733 371.28 462.197 381.776 453.893 389.389C446.511 396.194 436.938 399.423 427.018 400.115C422.52 400.461 418.022 400.231 413.639 399.769C408.795 405.421 403.95 410.957 398.76 416.263C394.492 420.531 389.879 424.798 384.919 428.374C384.112 427.451 383.304 426.644 382.497 425.836C382.728 425.606 382.958 425.49 383.304 425.26C393.57 417.763 402.105 407.959 410.409 398.385C404.066 395.156 397.491 392.272 390.802 389.85C384.227 387.543 377.537 385.698 370.848 384.198C367.733 383.506 364.158 382.584 361.159 383.852C360.006 384.314 359.198 385.006 358.391 385.813C358.391 385.929 358.391 386.044 358.391 386.159C358.506 389.85 356.199 392.964 353.085 394.579C347.78 404.498 342.589 414.533 337.399 424.452C336.015 425.606 334.631 426.874 333.477 428.258C333.362 428.489 333.247 428.72 333.131 428.951L331.632 431.257C331.401 431.373 331.171 431.373 330.94 431.488C330.594 431.949 330.248 432.411 329.902 432.987C329.671 432.757 329.44 432.411 329.44 432.065C320.905 434.948 311.563 435.525 302.336 434.948C299.683 434.833 297.03 434.602 294.492 434.371C295.069 438.408 294.146 442.561 291.263 445.675C289.187 447.982 286.419 449.481 283.42 449.827C283.766 451.788 283.996 453.749 284.342 455.709C297.03 454.441 309.371 450.404 320.444 443.945C322.52 442.676 324.596 441.407 326.557 440.023C325.98 441.638 325.519 443.368 325.173 445.098C322.751 446.598 320.329 447.982 317.791 449.251C308.564 453.864 298.76 457.093 288.61 458.593C299.221 466.897 306.718 494.464 306.718 528.028C306.718 528.835 306.718 529.758 306.718 530.565C312.37 530.335 318.022 530.45 323.558 530.796C337.168 531.834 350.663 534.948 363.466 539.908C363.466 539.216 363.581 538.524 363.697 537.716C365.888 516.263 375.461 500.346 385.38 501.384C395.3 502.422 401.413 519.954 399.221 541.407C398.183 551.326 395.53 560.669 391.724 567.359C387.918 574.164 383.189 577.739 378.575 577.739C378.229 577.739 377.999 577.739 377.653 577.739C372.693 577.278 368.541 572.549 366.003 564.706C364.043 558.708 363.235 551.327 363.466 543.483C345.473 536.448 326.096 533.103 306.834 534.026C305.796 571.511 295.3 600 282.036 600C269.002 600 258.622 572.318 257.353 535.64C247.434 536.332 237.514 537.716 227.71 539.677C227.48 539.792 227.364 539.793 227.134 539.793C227.018 541.984 226.903 544.175 226.903 546.367C226.788 548.558 223.327 548.558 223.443 546.367C223.673 539.331 224.02 532.18 224.25 525.144C224.25 523.875 225.404 523.299 226.442 523.529C226.557 523.068 226.903 522.607 227.595 522.492C237.284 519.723 247.434 518.224 257.468 518.109C258.737 490.196 265.311 467.82 274.192 459.4C270.617 459.4 266.926 459.054 263.351 458.593C248.356 456.632 233.939 450.865 221.482 442.215C218.829 444.175 216.407 446.482 214.331 449.135C210.409 454.095 209.371 459.862 209.948 466.09C210.179 468.166 210.409 470.242 210.755 472.319C211.332 474.625 211.909 476.817 212.37 479.124C212.485 479.7 212.37 480.162 212.139 480.508C212.485 482.468 212.716 484.429 212.947 486.39C213.062 487.082 212.37 487.889 211.678 488.005H211.563C213.293 491.35 214.792 494.925 216.061 498.501C219.175 506.921 221.021 515.686 221.713 524.683C221.713 525.029 221.597 525.375 221.367 525.721C220.329 524.452 219.175 523.184 217.906 522.145C216.638 510.496 213.178 499.193 207.872 488.812C192.186 492.272 176.961 497.809 162.889 505.306C163.235 507.151 164.158 509.112 164.735 510.611C165.657 513.149 166.695 515.686 167.849 518.109C168.31 519.147 168.887 520.3 169.348 521.338C169.002 521.684 168.656 522.03 168.426 522.376C169.002 522.953 169.464 523.645 170.04 524.222C174.539 529.873 178.46 537.716 180.998 546.482C194.723 546.828 208.449 547.29 222.174 547.982C224.366 548.097 224.366 551.557 222.174 551.442C208.795 550.75 195.3 550.288 181.92 549.942C187.111 570.242 183.881 587.774 174.423 590.311C173.616 590.542 172.924 590.657 172.116 590.657C163.005 590.657 152.393 577.047 147.203 557.901C141.551 537.14 144.665 518.801 154.354 516.148C157.468 515.34 160.813 516.148 164.158 518.57C162.428 514.764 160.813 510.842 159.66 506.805C157.238 508.189 154.7 509.573 152.393 511.073C151.932 511.419 151.124 511.419 150.663 511.073C136.822 500.461 123.558 488.812 112.716 475.087C93.8004 451.096 82.1511 418.8 91.7243 388.466C98.8754 365.859 119.867 346.944 143.743 345.444C140.398 336.217 138.437 326.413 138.206 316.494C137.63 290.773 148.702 266.09 164.389 246.136C166.003 244.06 167.733 241.984 169.464 240.023C152.278 219.493 134.977 198.962 117.791 178.432C117.214 177.74 116.984 176.586 117.791 176.009C119.867 174.164 122.059 172.434 124.25 170.704C141.436 156.632 159.198 143.368 177.653 130.912C196.107 118.455 215.138 107.036 234.631 96.4246C239.475 93.7718 244.435 91.2344 249.394 88.6969C254.239 86.2748 258.968 83.6218 263.927 81.661C268.31 79.8156 273.5 78.6624 277.883 80.9692C280.075 82.1226 281.574 84.0832 282.843 86.044C284.458 88.4662 285.842 91.0037 287.341 93.5411C299.913 114.648 312.601 135.756 325.173 156.863C332.439 168.974 339.59 181.084 346.857 193.08C357.814 197.924 367.964 204.498 376.845 212.572C388.149 222.837 398.068 236.332 403.72 251.096C417.099 239.447 432.439 229.181 449.856 225.375C467.387 221.569 487.803 225.26 500.375 238.87C515.023 255.363 513.524 279.354 506.372 298.616ZM167.157 526.874C163.466 522.376 159.775 519.839 156.661 519.839C156.199 519.839 155.738 519.954 155.161 520.069C148.472 521.915 145.011 537.37 150.432 557.555C155.853 577.739 166.695 589.389 173.385 587.543C180.075 585.698 183.535 570.358 178.114 550.404C172.924 550.288 167.733 550.173 162.543 550.173C160.352 550.173 160.352 546.713 162.543 546.713C167.387 546.828 172.232 546.828 177.076 546.944C174.654 538.985 171.194 531.949 167.157 526.874ZM366.695 541.407C371.655 543.483 376.499 545.79 381.228 548.443C383.189 549.481 381.459 552.48 379.498 551.442C375.231 549.135 370.963 546.943 366.465 545.098C366.349 552.018 367.157 558.593 368.887 563.899C370.963 570.358 374.077 574.164 377.653 574.51C381.113 574.856 385.034 571.742 388.379 565.859C391.955 559.516 394.492 550.75 395.53 541.177C397.722 520.415 391.724 505.652 384.804 504.96C384.573 504.96 384.458 504.96 384.227 504.96C377.422 504.96 369.002 517.993 366.926 538.293C366.926 539.331 366.811 540.369 366.695 541.407ZM324.019 189.85C321.943 198.962 320.213 208.189 318.945 217.417C314.446 250.058 315.023 283.391 320.675 315.802C320.79 316.263 320.675 316.609 320.444 316.955C322.751 317.647 324.942 318.339 327.249 319.031C325.865 310.496 324.712 301.961 323.904 293.31C321.021 259.977 323.443 226.182 330.94 193.541C331.401 191.35 334.746 192.272 334.285 194.464C332.209 203.576 330.479 212.803 329.21 222.03C324.827 253.287 325.288 285.237 330.248 316.378C332.209 314.533 334.054 312.688 335.899 310.727C338.206 308.189 340.744 305.421 341.782 301.961C341.897 301.615 342.013 301.153 342.013 300.807C341.321 301.384 340.513 301.846 339.475 302.076C336.822 302.884 333.477 302.192 331.863 299.769C330.132 297.117 331.171 293.887 333.477 292.042C336.015 290.081 339.244 289.966 341.782 291.926C342.128 292.157 342.474 292.503 342.82 292.849C343.397 290.773 343.627 288.697 343.743 286.736C344.319 279.008 342.359 271.281 338.437 264.706C337.284 262.745 340.282 261.015 341.436 262.976C343.397 266.206 344.896 269.666 345.819 273.241C347.78 280.277 348.126 288.581 345.588 295.386C345.473 295.848 345.242 296.309 345.011 296.771C345.357 297.809 345.473 298.962 345.473 300.116C345.242 304.037 343.166 307.497 340.744 310.381C337.745 314.072 334.285 317.186 330.825 320.531C330.94 321.799 329.787 322.607 328.748 322.607C328.172 323.184 327.595 323.875 327.018 324.452C322.866 329.066 319.406 334.602 319.752 341.061C320.098 347.405 324.25 353.287 329.44 356.747C335.323 360.669 342.474 361.707 349.279 360.208C364.735 356.978 375.346 344.406 383.535 331.834C387.918 325.144 392.07 318.339 395.876 311.304C399.683 304.152 402.912 296.771 404.296 288.697C407.064 273.01 402.682 256.632 395.3 242.676C388.956 230.796 380.075 220.415 369.694 211.88C356.545 201.038 340.744 193.426 324.019 189.85ZM339.014 294.233C337.053 293.426 333.247 295.733 334.977 298.039C336.707 300.346 340.167 298.501 341.32 296.771C341.32 296.655 341.436 296.655 341.436 296.54C340.975 295.502 340.167 294.694 339.014 294.233ZM171.424 237.947C184.112 223.876 199.106 211.996 214.562 200.923C213.062 197.463 212.716 193.541 213.985 189.966C215.369 186.044 218.598 183.045 222.289 181.43C211.793 172.549 200.951 150.519 210.294 139.101C222.52 124.106 237.86 130.681 241.436 110.035C251.701 115.456 252.393 129.989 248.818 135.179C247.664 136.909 246.28 138.293 245.011 139.447C248.241 139.677 251.47 140.369 254.585 141.407C259.314 143.137 263.812 145.675 268.425 147.866C273.154 150.173 277.768 152.48 282.497 154.787C291.263 159.17 300.029 163.553 308.91 167.82C309.833 168.282 310.063 169.896 309.256 170.588C302.336 176.471 295.415 182.353 288.379 188.12C288.841 189.504 289.417 190.773 289.879 192.157C295.876 207.728 301.874 223.299 307.757 238.87C308.103 239.908 307.526 240.6 306.718 240.831C305.334 246.944 302.336 252.48 298.299 257.209C290.109 266.898 277.653 272.434 265.081 271.742C252.393 271.05 240.052 264.706 232.67 254.326C232.439 253.98 232.324 253.633 232.324 253.403C232.209 253.172 232.209 252.941 232.209 252.595C232.439 237.947 232.209 223.414 231.632 208.766C230.363 209.112 228.979 209.343 227.595 209.343C225.404 209.343 223.097 208.881 221.136 207.843C219.291 206.921 217.676 205.537 216.407 203.806C211.563 207.267 206.834 210.727 202.105 214.418C202.336 214.533 202.566 214.648 202.797 214.879C209.256 221.915 215.138 229.527 220.444 237.486C229.787 251.557 237.284 266.898 242.82 282.815C248.126 298.27 251.355 314.418 252.624 330.681C256.545 329.181 260.352 327.682 264.158 325.952C274.423 321.453 284.804 316.609 295.876 314.764C301.182 313.841 306.488 313.726 311.793 314.648C313.639 314.994 315.369 315.34 317.099 315.802C315.484 306.69 314.331 297.578 313.524 288.466C310.64 255.248 313.062 221.569 320.444 188.927C312.139 187.428 303.604 186.967 295.069 187.543C292.878 187.659 292.878 184.199 295.069 184.083C298.299 183.853 301.643 183.737 304.873 183.853C317.214 184.199 329.44 186.736 340.974 191.119C333.247 178.201 325.519 165.283 317.791 152.365C305.45 131.719 293.108 111.073 280.882 90.5425C279.614 88.4663 278.46 86.044 276.384 84.5445C274.539 83.2758 272.116 83.0451 269.925 83.3911C264.85 84.1985 260.236 86.9668 255.738 89.2736C246.049 94.1179 236.476 99.1928 227.018 104.498C208.103 115.11 189.648 126.644 171.77 138.985C154.239 151.096 137.284 164.014 121.021 177.739C126.096 183.737 131.055 189.735 136.13 195.733C148.01 209.92 159.775 223.876 171.424 237.947ZM237.976 335.871C241.782 334.718 245.588 333.449 249.279 332.18C248.587 323.068 247.318 313.956 245.357 304.96C241.782 288.697 236.13 273.011 228.518 258.247C220.905 243.599 211.563 229.873 200.375 217.647C200.029 217.301 199.913 216.84 199.913 216.494C198.529 217.647 197.03 218.801 195.646 219.954C200.951 227.336 206.257 234.718 211.332 242.215C229.556 269.435 244.55 302.192 237.976 335.871ZM232.209 182.699C231.978 183.622 231.055 184.199 230.133 184.083C224.942 183.045 219.06 186.275 217.33 191.234C215.6 196.194 218.022 202.538 222.751 204.96C227.48 207.382 234.054 205.767 237.053 201.5C237.63 200.692 238.668 200.577 239.475 201.038C240.282 201.615 240.398 202.653 239.936 203.46C238.668 205.306 237.053 206.69 235.092 207.728C235.784 222.722 235.9 237.832 235.784 252.826C239.59 258.247 244.896 262.284 250.894 265.052C261.62 269.896 274.192 269.896 284.573 264.245C294.492 258.939 301.874 249.366 303.95 238.178C302.797 235.064 301.528 231.949 300.375 228.835C295.184 215.225 289.994 201.73 284.688 188.12C284.458 187.543 284.688 186.736 285.15 186.39C291.724 180.854 298.414 175.317 304.988 169.781C300.951 167.82 297.03 165.859 293.108 163.899C284.342 159.516 275.692 155.133 266.926 150.865C264.965 149.942 263.004 148.905 260.928 147.866C261.274 148.213 261.62 148.558 261.966 148.904C262.543 149.712 262.658 150.635 261.966 151.327C261.39 152.019 260.121 152.019 259.544 151.327C259.198 150.865 258.852 150.519 258.391 150.173C258.276 150.058 258.276 150.058 258.16 149.943C257.93 149.827 257.699 149.596 257.468 149.481C257.353 149.481 257.237 149.366 257.122 149.366H257.007C256.776 149.251 256.545 149.25 256.315 149.135C256.199 149.135 256.199 149.135 256.084 149.135C255.969 149.135 255.969 149.135 255.969 149.135C255.853 149.135 255.738 149.135 255.623 149.135C255.623 149.135 255.623 149.135 255.507 149.135C255.392 149.135 255.392 149.135 255.507 149.135C255.277 149.135 254.931 149.251 254.815 149.251C254.7 149.251 254.585 149.366 254.585 149.366C254.469 149.366 254.354 149.481 254.354 149.597L254.239 149.712L254.123 149.827C254.123 149.827 254.123 149.827 254.123 149.943C254.123 150.058 254.008 150.173 254.008 150.173C254.008 150.289 253.893 150.404 253.893 150.519C253.893 150.635 253.893 150.865 253.893 150.635C253.893 150.404 253.893 150.75 253.893 150.981C253.893 151.096 253.893 151.096 253.893 151.211C253.893 151.327 254.123 151.673 253.893 151.211C254.239 152.134 254.123 153.057 253.316 153.633C252.624 154.095 251.355 153.864 250.894 153.057C250.202 151.557 250.202 149.942 251.009 148.558C251.701 147.174 253.085 146.252 254.469 145.906C255.161 145.79 255.853 145.675 256.43 145.79C251.355 143.599 245.934 142.215 240.282 143.137C240.052 143.137 239.936 143.137 239.706 143.137C234.862 145.79 230.94 148.097 231.863 157.324C232.555 164.129 237.514 171.28 231.978 180.046L230.825 180.623C230.94 180.623 231.171 180.623 231.286 180.738C231.747 180.854 232.324 181.661 232.209 182.699ZM153.085 358.478C156.084 363.668 159.66 368.512 163.697 373.011C167.733 377.393 172.347 381.776 178.229 383.276C184.689 385.006 191.494 382.93 197.491 380.392C200.605 379.123 203.604 377.624 206.603 376.125C209.371 374.741 212.139 373.241 214.446 371.165C217.791 368.281 220.559 364.475 219.637 359.862C218.829 356.056 216.638 352.595 215.254 349.02C213.639 344.637 213.293 340.139 215.023 335.64C216.176 332.757 217.791 330.104 218.368 327.105C218.829 323.991 218.137 320.877 217.099 317.878C214.908 311.88 210.986 306.805 208.91 300.807C207.065 295.386 206.488 289.274 209.833 284.314C211.101 282.469 214.1 284.199 212.832 286.044C211.217 288.466 210.64 291.234 210.871 294.118C211.909 306.805 225.75 316.955 221.136 330.45C220.098 333.334 218.483 335.986 217.676 338.985C217.56 339.562 217.445 340.139 217.445 340.715C221.943 339.908 226.442 338.985 230.94 337.832C232.324 337.486 233.708 337.14 235.092 336.794C234.746 336.448 234.631 335.871 234.746 335.294C236.592 326.298 236.707 317.07 235.554 308.074C231.517 275.548 212.024 247.982 193.224 222.145C181.69 231.949 171.078 242.791 162.312 255.248C148.241 275.433 139.36 299.769 142.013 324.568C143.166 336.332 147.088 348.097 153.085 358.478ZM227.018 385.006C227.249 385.352 227.134 384.66 226.788 385.121L226.672 385.237C226.442 385.698 226.672 386.275 227.018 386.736C230.594 386.851 234.169 386.967 237.745 387.082C237.284 386.736 236.938 386.159 236.822 385.582C235.9 377.509 228.979 370.358 221.021 369.204C217.56 374.395 211.909 377.509 206.372 380.162C200.259 383.16 193.916 386.275 187.111 387.197C184.919 387.543 182.728 387.543 180.536 387.197C184.573 391.811 189.187 395.963 194.377 399.308C196.915 400.923 199.683 402.884 202.682 403.46C204.066 403.806 205.334 403.691 206.257 402.653C207.18 401.73 207.872 400.577 209.025 399.885C212.024 398.155 214.908 400.462 217.445 401.961C219.752 403.345 222.635 403.806 225.288 402.884C227.71 402.076 229.441 399.885 229.671 397.347C229.787 396.079 229.671 394.695 228.979 393.541C228.287 392.272 227.018 391.465 225.98 390.658C223.904 388.928 221.943 385.583 224.019 383.045C225.519 381.2 228.748 381.084 230.017 383.276C231.171 385.121 228.172 386.851 227.018 385.006ZM248.702 428.72C255.507 427.913 262.312 428.028 269.118 428.489C270.156 426.298 271.77 424.452 273.731 423.299C271.54 423.299 271.655 419.954 273.846 419.839C275.577 419.723 277.422 419.839 279.152 420.185C279.037 417.186 278.806 414.072 278.691 411.073C274.885 411.534 270.963 410.727 267.849 408.535C262.428 404.844 259.66 397.809 260.928 391.465C250.894 391.119 240.859 390.773 230.825 390.542C231.055 390.773 231.171 390.888 231.401 391.119C233.131 393.426 233.593 396.425 232.901 399.193C231.517 404.844 225.865 407.728 220.329 406.92C218.829 406.69 217.445 406.228 216.176 405.536C214.908 404.844 213.754 403.691 212.37 403.23C210.871 402.653 210.179 403.691 209.256 404.729C208.333 405.767 207.295 406.575 205.911 407.036C203.143 407.843 200.144 406.69 197.607 405.421C194.723 403.922 192.07 402.192 189.417 400.346C184.227 396.54 179.614 392.042 175.577 386.967C175.346 386.736 175.231 386.505 175.231 386.275C172.924 385.467 170.848 384.314 168.772 382.814C163.697 379.124 159.544 374.279 155.853 369.32C152.163 364.36 148.933 358.939 146.28 353.287C145.704 352.134 145.242 350.865 144.665 349.596C133.016 350.173 121.713 355.018 112.832 362.745C102.451 371.627 95.6459 383.737 92.8777 397.117C89.8789 411.649 91.7243 426.874 96.5685 440.831C106.257 468.858 128.287 490.542 151.355 508.305C169.002 497.463 188.61 489.85 208.91 485.698C208.449 481.661 207.641 477.624 206.949 473.587C206.603 472.434 206.372 471.396 206.026 470.242L189.764 432.872C186.88 427.566 183.881 422.261 180.998 416.955C179.96 414.994 182.843 413.264 183.996 415.225C186.534 419.839 189.187 424.452 191.609 429.066C197.03 439.101 202.105 449.25 206.142 459.977C206.834 454.902 208.91 450.288 212.485 446.136C221.713 435.409 235.323 430.219 248.702 428.72ZM280.767 456.055C280.421 453.979 280.075 451.903 279.844 449.827C278.229 449.597 276.615 448.904 275.115 447.866C270.04 444.291 267.387 437.832 268.195 431.719C262.774 431.373 257.468 431.257 252.047 431.719C242.474 432.526 232.555 435.063 224.366 440.369C237.745 449.481 253.547 455.017 269.579 456.055C273.27 456.286 277.076 456.286 280.767 456.055ZM257.007 532.411C257.007 531.027 257.007 529.643 257.007 528.259C257.007 526.067 257.007 523.991 257.122 521.915C247.434 522.03 237.745 523.53 228.287 526.182C228.056 526.298 227.71 526.298 227.48 526.182C227.364 529.643 227.249 533.103 227.018 536.563C236.938 534.372 246.972 533.103 257.007 532.411ZM284.919 460.438C285.15 461.938 285.381 463.553 285.611 465.052C285.727 465.975 285.381 466.898 284.458 467.128C283.65 467.359 282.497 466.898 282.382 465.975C282.036 463.899 281.69 461.707 281.344 459.631C272.001 460.323 262.197 483.391 260.698 518.339C267.733 518.455 274.885 519.262 281.805 520.646C283.996 521.107 283.074 524.452 280.882 523.991C274.193 522.607 267.387 521.915 260.582 521.799C260.467 523.876 260.467 526.067 260.467 528.143C260.467 529.527 260.467 530.796 260.467 532.065C264.619 531.834 268.772 531.719 272.924 531.719C275.115 531.719 275.115 535.179 272.924 535.179C268.772 535.179 264.619 535.294 260.467 535.525C261.736 572.434 272.001 596.655 281.69 596.655C292.07 596.655 303.028 569.089 303.028 528.028C303.143 491.349 294.262 465.283 284.919 460.438ZM287.687 428.143C286.303 426.644 284.573 425.49 282.728 424.683C282.728 424.798 282.612 425.029 282.497 425.144C282.151 425.606 281.69 425.836 280.998 425.721C280.767 425.721 280.421 425.606 280.19 425.49C277.883 424.914 275.461 425.721 273.731 427.336C271.77 429.297 271.194 432.295 271.424 435.064C271.77 439.562 274.654 444.521 279.037 446.136C279.498 446.251 279.96 446.367 280.421 446.482C280.536 446.367 280.652 446.367 280.767 446.252C281.228 446.136 281.805 446.251 282.266 446.482C285.611 446.251 288.725 443.945 290.225 440.831C292.301 436.794 290.801 431.373 287.687 428.143ZM345.819 400.923C344.435 401.499 342.935 401.961 341.436 401.961C337.284 402.076 333.477 399.885 330.594 397.001C328.748 400.231 324.942 402.422 321.136 401.846C318.598 401.5 316.292 399.885 314.792 397.809C313.062 399.885 310.409 401.269 307.641 401.269C302.912 401.154 299.106 397.463 297.376 393.195C297.03 392.272 296.799 391.465 296.569 390.542C294.031 390.888 291.378 391.234 288.841 391.811C288.956 394.349 288.956 396.771 289.071 399.308C289.071 400.692 289.187 402.076 289.187 403.46C289.187 404.844 289.187 405.652 288.149 406.69C286.419 408.305 284.227 409.458 281.92 410.265C282.151 413.841 282.266 417.417 282.497 420.992C286.534 422.376 290.109 424.914 292.301 428.72C292.762 429.412 293.108 430.104 293.339 430.911C295.3 431.142 297.261 431.257 299.221 431.488C310.294 432.295 321.713 431.834 331.863 427.566C335.899 419.839 339.936 412.111 344.089 404.268C344.665 403.23 345.242 402.076 345.819 400.923ZM354.585 384.891C353.893 382.584 351.701 380.738 349.279 380.623C347.895 380.508 346.741 378.662 348.01 377.624C352.393 374.164 357.237 370.473 359.314 365.167C359.89 363.437 360.236 361.823 360.236 360.092C358.391 361.015 356.545 361.823 354.585 362.399C348.01 364.591 340.513 365.052 333.939 362.63C327.941 360.438 322.635 356.171 319.521 350.635C316.292 344.983 315.715 338.293 318.137 332.295C319.637 328.374 322.174 325.029 324.942 321.915C319.175 320.3 313.523 318.109 307.641 317.763C296.453 317.071 285.496 320.877 275.346 325.144C264.965 329.412 254.815 334.141 244.204 337.601C235.554 340.369 226.672 342.561 217.676 344.175C217.791 344.637 217.791 344.983 217.906 345.444C218.945 349.481 221.251 353.057 222.635 357.094C223.674 360.092 223.789 363.207 222.866 366.09C232.209 368.166 239.475 376.125 240.629 385.582C240.744 386.275 240.167 386.851 239.59 387.082C247.549 387.313 255.507 387.543 263.351 387.889C264.389 387.889 265.427 388.928 264.965 390.081C263.004 395.617 264.965 402.422 270.04 405.652C272.578 407.267 275.692 407.843 278.691 407.497C278.575 405.536 281.113 405.306 281.92 406.69C283.42 406.113 284.804 405.306 286.073 404.152C285.957 399.539 285.842 394.925 285.611 390.312C285.611 389.62 286.188 388.812 286.88 388.697C290.109 388.12 293.339 387.543 296.569 387.197C296.569 383.507 297.491 379.7 298.645 376.24C301.989 365.513 307.641 355.594 314.908 346.944C316.292 345.213 318.829 347.751 317.33 349.366C313.985 353.403 310.986 357.67 308.449 362.284C306.257 366.321 304.296 370.473 302.797 374.741C301.182 379.239 299.567 384.198 300.144 389.043C300.605 392.734 302.912 396.77 306.718 397.693C309.371 398.385 312.716 396.54 313.293 393.772C313.177 393.08 313.178 392.388 313.178 391.58C313.408 389.735 316.176 389.043 316.522 391.119C316.638 391.926 316.753 392.618 316.638 393.426C317.099 395.848 318.945 398.155 321.597 398.501C324.827 398.962 327.826 396.425 328.402 393.311C328.633 392.157 330.479 391.58 331.286 392.503C333.593 395.386 336.822 398.27 340.744 398.501C343.973 398.731 347.434 396.771 348.126 393.426C348.241 392.618 349.048 392.272 349.74 392.157C349.971 392.157 350.317 392.042 350.548 391.926C351.701 389.619 352.97 387.082 354.585 384.891ZM507.756 279.354C509.025 269.089 507.872 258.247 502.797 249.02C498.299 240.831 490.917 234.833 482.382 231.488C463.696 224.106 443.512 228.951 426.672 238.87C418.945 243.483 411.563 248.905 404.642 254.902C408.564 266.436 409.948 278.547 407.641 290.658C406.142 298.386 403.028 305.652 399.337 312.572C395.646 319.608 391.378 326.413 386.995 333.103C380.767 342.791 373.27 352.249 363.466 358.247C363.927 361.361 363.351 364.591 361.966 367.59C360.006 371.857 356.545 375.202 352.855 378.085C354.7 379.008 356.199 380.392 357.122 382.122C358.622 380.969 360.467 380.162 362.428 379.931C365.888 379.47 369.348 380.392 372.693 381.084C387.111 384.314 400.951 389.389 413.985 396.309C414.1 396.309 414.1 396.425 414.216 396.425C422.866 397.463 431.517 397.117 439.936 394.002C450.086 390.196 456.776 382.007 462.428 373.126C468.772 363.207 474.654 353.057 480.421 342.791C486.188 332.526 491.839 322.261 496.914 311.65C501.989 301.615 506.372 290.773 507.756 279.354ZM221.713 190.773C220.905 191.234 220.675 192.388 221.136 193.195C221.597 194.003 222.635 194.233 223.558 193.772C227.018 192.042 231.401 192.042 234.861 193.656C235.669 194.003 236.707 193.887 237.284 193.08C237.745 192.272 237.514 191.119 236.707 190.658C231.863 188.466 226.442 188.466 221.713 190.773ZM238.437 166.782C247.088 163.437 255.507 159.747 263.927 155.71C265.888 154.787 267.733 157.786 265.657 158.708C264.504 159.285 263.466 159.746 262.312 160.208C262.428 160.323 262.658 160.439 262.774 160.554C263.12 160.9 263.235 161.246 263.466 161.592C263.697 162.169 263.697 162.745 263.581 163.322C263.466 163.899 263.12 164.475 262.658 164.821C262.197 165.283 261.62 165.629 261.044 165.744C260.467 165.86 259.775 165.975 259.198 165.744C258.506 165.514 257.93 165.052 257.468 164.36C257.122 163.783 257.007 163.091 257.122 162.399C254.008 163.783 251.009 165.167 247.895 166.436C248.01 166.551 248.126 166.782 248.241 166.898C248.356 167.128 248.472 167.474 248.587 167.705C248.702 167.936 248.702 168.282 248.702 168.628C248.702 169.204 248.587 169.781 248.241 170.358C248.126 170.473 248.126 170.589 248.01 170.704C247.895 170.819 247.895 170.934 247.78 171.05C247.549 171.28 247.318 171.396 247.088 171.511C246.857 171.627 246.742 171.742 246.511 171.742C246.28 171.742 246.049 171.857 245.819 171.857C245.703 171.857 245.473 171.857 245.357 171.857C245.011 171.857 244.781 171.742 244.435 171.626C244.204 171.511 243.858 171.396 243.627 171.281C243.512 171.165 243.281 171.05 243.166 170.935C243.051 170.819 242.935 170.588 242.82 170.473C242.589 170.242 242.589 169.896 242.474 169.666V169.551C242.474 169.551 242.474 169.55 242.474 169.435C242.474 169.204 242.359 168.974 242.359 168.743C241.436 169.089 240.398 169.55 239.475 169.896C237.284 170.934 236.361 167.59 238.437 166.782ZM245.703 168.743C245.703 168.743 245.703 168.858 245.819 168.858C245.703 168.743 245.703 168.743 245.703 168.743ZM236.707 162.284C239.36 161.246 242.013 160.323 244.665 159.285C245.473 158.939 246.165 158.132 245.819 157.209C245.588 156.401 244.55 155.709 243.743 156.055C241.09 157.094 238.437 158.016 235.784 159.054C234.977 159.4 234.285 160.208 234.631 161.131C234.746 161.938 235.784 162.63 236.707 162.284ZM255.161 149.251C255.161 149.135 255.161 149.135 255.161 149.251V149.251ZM260.236 209.343C259.89 209.343 259.544 209.343 259.198 209.343C259.198 209.343 258.968 209.343 258.852 209.343C258.737 209.343 258.622 209.343 258.506 209.227C257.814 209.112 257.122 208.881 256.545 208.651C255.623 208.305 254.123 207.497 253.431 206.921C252.855 206.459 252.393 205.998 251.932 205.537C251.701 205.306 251.47 205.075 251.24 204.729C251.009 204.499 251.24 204.729 251.124 204.498C251.009 204.383 250.894 204.152 250.778 204.037C249.971 202.768 249.51 201.846 249.164 200.461C248.933 199.539 247.895 198.962 247.088 199.308C246.165 199.539 245.703 200.577 245.934 201.384C247.549 207.843 253.777 212.688 260.352 212.688C262.428 212.803 262.428 209.343 260.236 209.343Z" fill="black"/>
<path d="M324.596 455.593C323.097 443.021 329.21 429.757 339.706 422.721C350.202 415.686 364.85 414.994 375.923 421.107C386.995 427.22 394.262 439.907 393.916 452.594" fill="#9ED5F0"/>
<path d="M162.082 549.826C158.16 538.869 163.351 525.49 172.001 519.261C180.536 513.033 191.494 512.571 201.413 514.878C208.91 516.493 216.407 519.838 221.482 526.412C226.557 533.102 228.287 543.713 223.904 550.98L223.327 550.288C203.72 548.212 183.996 547.404 164.389 547.981" fill="#9ED5F0"/>
</svg>
