<svg width="600" height="461" viewBox="0 0 600 461" fill="none" xmlns="http://www.w3.org/2000/svg">
<path d="M74.8572 296.308C79.6867 280.549 84.6433 264.79 89.4727 249.03C92.65 238.609 95.9544 227.806 95.1919 216.876C92.9042 186.247 59.6062 163.116 61.5126 132.487C62.7835 112.28 80.0679 95.8847 99.2587 89.5301C118.45 83.3026 139.42 85.0818 159.373 87.8778C179.454 90.6739 199.788 94.3597 219.742 91.5637C222.284 91.1824 224.825 90.6739 226.859 89.1488C229.655 86.9882 230.671 83.4298 231.688 80.1254C242.491 46.1919 269.562 17.8506 302.987 5.52267C313.408 1.70992 324.592 -0.705071 335.777 0.18457C365.389 2.59931 388.901 28.3989 397.543 56.7404C400.339 65.6368 401.864 74.9146 405.422 83.5568C415.59 108.213 439.483 123.972 460.707 140.113C481.932 156.38 501.758 174.555 519.678 194.508C525.27 200.735 530.989 207.471 533.15 215.605C538.233 234.16 524.38 252.462 509.384 264.535C484.982 284.362 455.624 297.452 425.503 306.73C348.613 330.623 264.859 331.386 187.587 308.89C178.056 306.094 168.397 303.044 158.61 304.188C148.697 305.332 139.928 310.797 130.523 313.72C120.992 316.643 109.045 316.262 103.071 308.382" fill="#F4F6F9"/>
<path d="M542.427 276.101H521.711C521.711 273.686 521.457 271.271 520.695 268.984C519.678 266.188 517.518 263.519 514.594 262.756C511.671 261.994 508.494 263.392 506.46 265.68V264.663C506.206 265.298 505.952 265.806 505.825 266.442C505.571 266.823 505.317 267.332 505.063 267.713C504.554 268.857 504.3 270.128 504.173 271.399C504.046 272.034 503.791 272.796 503.664 273.432C503.537 271.907 503.283 270.382 502.775 268.857C501.758 266.061 499.597 263.392 496.674 262.629C494.768 262.121 492.862 262.502 491.082 263.392C479.39 248.395 465.918 234.669 451.049 222.85L450.54 224.629C451.938 207.09 456.514 147.103 456.514 147.103C469.223 143.926 495.022 137.063 495.022 137.063C480.025 118.507 463.63 97.0288 446.727 75.9316C441.135 68.9415 433.637 62.7141 424.995 60.4264L404.152 58.647L385.342 104.654C378.733 101.985 370.472 103.256 365.389 108.34C359.288 114.44 358.526 125.243 363.737 132.106C367.041 136.427 372.506 138.969 377.844 139.096L377.717 139.605C368.566 161.337 360.178 179.257 350.9 198.067L349.248 197.94C301.334 202.769 255.454 224.756 221.775 259.071C216.564 264.409 211.608 270 206.905 275.974H56.3016C25.9267 275.974 1.27087 300.63 1.27087 331.005V337.74C1.27087 368.115 25.9267 392.771 56.3016 392.771H162.55C161.661 410.945 164.457 430.263 177.166 442.972C186.825 452.631 200.805 456.953 214.404 457.588C228.003 458.223 241.602 455.681 255.073 453.267C296.632 446.022 338.572 441.193 380.64 438.778C396.907 437.889 413.429 437.253 429.062 432.551C443.931 427.976 458.039 419.079 465.664 405.48C466.045 405.607 466.427 405.607 466.808 405.735C478.882 408.022 491.337 408.658 503.664 409.166C505.571 409.293 507.223 409.166 508.748 408.912C522.347 410.691 535.946 412.343 549.417 414.123C551.705 414.377 553.993 414.631 556.153 413.995C558.314 413.233 560.093 411.072 559.712 408.912C559.331 406.624 556.916 405.353 554.755 404.464C547.511 401.54 539.886 399.634 532.133 398.744C535.31 396.838 538.233 394.805 541.284 392.644H542.427C572.802 392.644 597.458 367.988 597.458 337.613V330.878C597.458 300.757 572.802 276.101 542.427 276.101Z" fill="white"/>
<path d="M547.892 295.164C536.708 295.164 527.558 304.315 527.558 315.499C527.558 322.235 530.862 328.335 536.073 332.021L516.247 362.904C515.357 364.429 515.738 366.335 517.136 367.352C517.645 367.733 518.28 367.86 518.916 367.86C519.932 367.86 520.949 367.352 521.585 366.463L541.792 335.071C543.698 335.706 545.859 336.088 547.892 336.088C559.077 336.088 568.227 326.937 568.227 315.753C568.227 304.569 559.077 295.164 547.892 295.164ZM547.892 329.479C546.367 329.479 544.97 329.225 543.571 328.843C543.317 328.462 542.936 327.954 542.555 327.7C541.919 327.191 541.03 327.064 540.267 327.191C536.454 324.649 533.912 320.328 533.912 315.499C533.912 307.746 540.14 301.519 547.892 301.519C555.645 301.519 561.873 307.746 561.873 315.499C561.873 323.251 555.645 329.479 547.892 329.479Z" fill="#9ED5F0"/>
<path d="M389.155 124.608C385.469 120.032 379.877 117.363 373.904 117.363C371.489 117.363 371.489 113.551 373.904 113.551C380.767 113.424 387.503 116.601 391.824 121.939C392.459 122.701 392.586 123.845 391.824 124.608C391.188 125.37 389.79 125.497 389.155 124.608ZM423.724 101.731C424.105 102.621 425.503 102.875 426.393 102.367C427.282 101.731 427.536 100.714 427.028 99.6975C425.757 96.9015 424.613 94.2326 423.343 91.4366C422.961 90.5469 421.563 90.2928 420.674 90.8011C419.784 91.4366 419.53 92.4534 420.038 93.4702C421.309 96.2662 422.58 98.9351 423.724 101.731ZM429.57 88.5134C428.68 89.0218 428.299 90.1657 428.934 91.1825C429.443 91.945 429.824 92.7074 430.205 93.5971C430.332 93.8513 430.46 93.9784 430.46 94.2325L430.587 94.487C430.714 94.8682 430.968 95.2494 431.095 95.6307C431.731 97.2829 432.112 99.0623 432.493 100.842C432.62 101.858 433.891 102.494 434.781 102.112C435.798 101.731 436.306 100.841 436.052 99.8248C435.416 96.1391 434.145 92.4533 432.112 89.1489C431.73 88.2592 430.46 87.878 429.57 88.5134ZM409.362 87.2425C410.252 87.7509 411.396 87.4967 412.032 86.607C412.286 86.0987 412.667 85.5905 413.048 85.2092C413.811 84.3196 414.7 83.4299 415.59 82.6674C415.971 82.4132 416.353 82.1589 416.734 81.9047C417.623 81.3963 418.005 80.1256 417.369 79.236C416.861 78.3463 415.717 77.9651 414.7 78.6005C412.286 80.1256 410.125 82.1588 408.727 84.7007C408.219 85.4632 408.473 86.7341 409.362 87.2425ZM423.978 76.6941C423.597 75.169 424.868 73.8979 426.393 73.8979C427.155 73.8979 427.918 74.0252 428.68 74.1523C430.46 74.4065 432.112 74.6606 433.764 75.0419C434.781 75.2961 435.289 76.44 435.035 77.3296C434.781 78.3463 433.637 78.8547 432.747 78.6005C431.476 78.3463 430.333 78.0921 429.062 77.9651H428.934C428.807 77.9651 428.681 77.9651 428.553 77.9651C428.299 77.9651 427.918 77.9649 427.664 77.8378C427.409 77.8378 427.155 77.8377 426.774 77.7106C426.647 77.8377 426.393 77.9651 426.266 77.9651C425.376 78.2192 424.105 77.5838 423.978 76.6941ZM427.664 76.5669C427.536 76.5669 427.536 76.5669 427.664 76.5669C427.536 76.5669 427.536 76.5669 427.664 76.5669ZM419.784 174.809C422.199 174.936 422.199 171.123 419.784 170.996C413.175 170.742 406.948 166.802 403.897 160.956C402.754 158.795 399.449 160.701 400.593 162.862C404.279 169.979 411.777 174.555 419.784 174.809ZM600 331.767V338.503C600 369.895 574.455 395.44 543.063 395.44H542.555C541.157 396.457 539.631 397.474 538.233 398.49C540.648 398.872 543.19 399.38 545.605 400.015C549.163 400.905 552.722 402.049 556.026 403.447C558.568 404.463 561.364 405.988 562.254 408.784C563.143 411.835 561.237 414.885 558.568 416.156C555.264 417.808 551.324 417.046 547.765 416.537C534.929 414.885 522.093 413.233 509.257 411.581C505.19 412.089 500.868 411.708 496.674 411.454C488.922 411.072 481.169 410.437 473.417 409.293C471.383 409.039 469.35 408.658 467.443 408.276C465.664 411.199 463.631 413.868 461.47 416.41C446.982 432.296 425.376 437.762 404.787 439.795C392.713 440.939 380.513 441.32 368.312 442.21C355.857 443.099 343.275 444.116 330.82 445.387C305.91 447.929 281.254 451.36 256.598 455.682C234.484 459.494 210.591 464.196 189.367 453.902C180.597 449.708 173.353 442.845 168.651 434.203C164.076 425.688 162.042 416.156 161.406 406.624C161.152 402.811 161.152 398.998 161.152 395.186H56.9371C25.5455 395.186 0 369.64 0 338.249V331.513C0 300.121 25.5455 274.576 56.9371 274.576H206.651C215.675 263.265 225.715 252.97 236.899 243.692C252.913 230.602 270.705 219.799 289.769 211.792C308.96 203.786 329.168 198.575 349.883 196.541C350.011 196.541 350.265 196.541 350.392 196.541C359.288 178.367 367.804 159.939 375.81 141.256C370.727 140.494 365.897 137.952 362.847 133.758C357.001 126.133 357.763 114.313 364.626 107.45C368.693 103.383 374.539 101.477 380.259 101.858C372.125 84.4465 371.362 49.3694 390.299 40.473C414.955 28.7806 430.332 46.3192 447.363 22.2988C457.149 35.3893 449.142 54.1988 441.517 58.7741C438.721 60.4263 435.925 61.443 433.383 61.9514C437.323 63.9848 440.881 66.7808 443.931 69.831C448.888 74.6605 452.955 80.5068 457.276 85.8447C461.851 91.6909 466.427 97.41 471.002 103.256C479.644 114.313 488.286 125.37 497.056 136.3C497.945 137.317 497.691 139.096 496.166 139.477C483.711 142.782 471.383 145.959 458.928 149.136C458.801 151.17 458.674 153.203 458.42 155.237C457.53 167.31 456.513 179.384 455.624 191.458C454.861 201.752 454.099 212.047 453.209 222.341C467.698 233.906 480.788 247.124 492.226 261.739C492.48 261.612 492.607 261.612 492.862 261.485C496.039 260.469 499.343 261.485 501.758 263.646C502.775 264.535 503.538 265.679 504.173 266.823C504.3 266.569 504.427 266.442 504.554 266.188C504.681 265.679 504.935 265.171 505.063 264.663C505.444 263.773 506.206 263.392 506.969 263.392C507.986 262.502 509.257 261.867 510.528 261.485C513.705 260.469 517.009 261.485 519.424 263.646C521.966 265.933 523.109 269.238 523.618 272.669C523.745 273.305 523.745 273.94 523.745 274.703H542.682C574.454 274.83 600 300.375 600 331.767ZM508.113 268.094C507.604 269.365 507.223 270.763 506.842 272.161C506.715 274.449 507.223 276.736 508.113 278.77C508.875 280.295 507.477 281.693 506.206 281.693C506.206 281.82 506.206 281.947 506.206 282.074C506.333 282.837 506.715 283.599 506.969 284.362C507.986 286.395 509.638 288.175 511.798 288.937C513.832 289.573 516.247 289.446 517.772 287.92C519.424 286.395 519.932 283.981 520.186 281.82C520.441 279.151 520.441 276.228 520.059 273.559C519.551 269.238 516.247 263.519 511.036 265.934C509.765 266.188 508.875 267.077 508.113 268.094ZM493.37 265.679C492.099 266.315 491.082 267.205 490.32 268.221C490.193 268.475 490.066 268.857 489.938 269.111C490.32 270.382 490.701 271.653 490.828 272.924C491.21 276.355 491.21 279.914 490.701 283.345C490.574 284.235 490.32 285.124 490.066 286.014C491.082 287.285 492.353 288.302 493.878 288.81C495.912 289.446 498.327 289.318 499.852 287.793C501.377 286.395 501.885 284.235 502.139 282.201C501.631 279.66 501.758 276.991 502.267 274.322C502.267 273.94 502.266 273.686 502.139 273.305C501.758 268.984 498.454 263.265 493.37 265.679ZM455.243 280.422C455.497 281.312 455.751 282.201 456.132 282.964C457.149 284.997 458.801 286.777 460.962 287.539C462.995 288.175 465.41 288.047 466.935 286.522C468.333 285.251 468.841 283.472 469.096 281.566C468.714 279.024 468.841 276.355 469.35 273.813C469.35 273.178 469.223 272.542 469.223 272.034C468.714 267.713 465.41 261.994 460.199 264.409C458.928 265.044 457.912 265.934 457.149 266.95C456.641 268.221 456.259 269.619 455.878 271.017C455.751 273.305 456.259 275.592 457.149 277.626C458.039 279.024 456.641 280.549 455.243 280.422ZM473.036 281.693C473.29 282.582 473.544 283.472 473.925 284.235C474.942 286.268 476.594 288.047 478.755 288.81C480.788 289.446 483.203 289.318 484.728 287.793C485.236 287.412 485.617 286.777 485.872 286.268C485.872 286.141 485.745 286.141 485.745 286.014C483.584 281.566 483.965 276.736 485.109 272.161C485.109 271.144 485.363 270 485.745 268.984C484.22 266.188 481.551 264.027 478.119 265.679C476.848 266.315 475.831 267.205 475.069 268.221C474.56 269.492 474.179 270.89 473.798 272.288C473.671 274.576 474.179 276.863 475.069 278.897C475.831 280.295 474.434 281.82 473.036 281.693ZM351.409 200.735C356.619 205.946 362.339 210.522 368.693 214.207C392.841 228.442 423.851 231.365 449.778 220.435C450.032 216.622 450.413 212.809 450.667 208.869C451.684 195.652 452.701 182.434 453.717 169.09C454.226 161.973 454.861 154.856 455.37 147.865C455.37 146.976 455.878 146.213 456.768 146.086C468.714 143.036 480.534 139.986 492.48 136.808C488.413 131.725 484.347 126.514 480.28 121.43C471.383 110.119 462.614 98.8079 453.717 87.6238C445.965 77.8378 438.339 66.908 425.757 63.2223C417.496 63.7307 410.633 63.7305 406.185 76.4397C403.008 85.4632 405.041 97.6643 392.586 105.29H389.79C390.172 105.544 390.68 105.798 391.061 106.179C391.951 106.815 392.078 107.958 391.442 108.848C390.807 109.738 389.663 109.865 388.774 109.229C382.673 104.527 372.887 105.163 367.422 110.628C361.957 116.092 361.322 125.752 365.897 131.979C370.472 138.207 380.131 140.113 386.867 136.3C387.757 135.792 388.901 136.046 389.409 137.063C389.918 137.952 389.663 139.096 388.646 139.605C385.978 141.13 382.927 141.892 379.877 142.019C371.616 161.591 362.72 180.909 353.315 200.1C352.934 200.735 352.171 200.99 351.409 200.735ZM161.534 391.754C161.788 386.798 162.296 381.968 163.059 377.012C164.457 366.717 166.744 356.55 169.667 346.51C175.514 326.683 184.283 307.62 195.721 290.208C198.39 286.268 201.059 282.328 203.982 278.515H57.1913C27.8331 278.515 4.06718 302.409 4.06718 331.64V338.376C4.06718 367.734 27.9602 391.5 57.1913 391.5H161.534V391.754ZM464.647 405.734C461.724 404.845 458.928 403.066 456.514 401.413C445.838 393.661 439.737 380.189 441.644 367.099C438.466 368.115 434.781 368.369 431.476 368.115C425.757 367.861 420.165 366.336 414.954 364.175C405.295 360.236 396.653 354.135 387.376 349.433C377.971 344.73 367.931 342.697 357.382 343.459C336.158 344.985 316.586 356.041 298.539 366.59C297.013 367.48 295.361 366.082 295.743 364.43C296.759 360.363 295.488 355.787 292.819 352.483C284.813 356.042 276.17 357.821 267.401 357.821C266.257 357.821 265.113 356.55 265.622 355.406C268.799 346.891 278.458 341.553 287.354 344.222C289.769 344.985 291.93 346.255 293.709 347.908C294.98 347.272 296.124 346.637 297.395 346.001C305.274 341.426 311.756 335.071 316.84 327.573C321.288 321.091 325.609 314.355 330.184 307.874C335.141 300.757 340.479 293.894 346.579 287.666C351.917 282.328 357.89 277.372 365.134 274.957H365.262H365.389C365.643 274.957 365.897 274.957 366.024 274.957H451.43C451.557 273.686 451.811 272.288 452.192 271.017C452.319 269.873 452.446 268.73 452.828 267.586C453.082 266.696 453.463 265.933 453.972 265.171C454.099 264.663 454.353 264.154 454.48 263.646C454.861 262.756 455.624 262.375 456.386 262.375C457.403 261.485 458.674 260.85 459.945 260.469C463.122 259.452 466.427 260.468 468.841 262.629C469.985 263.773 470.875 265.044 471.51 266.442C471.637 265.933 471.892 265.425 472.019 264.917C472.4 264.027 473.163 263.646 473.925 263.646C474.942 262.756 476.213 262.121 477.484 261.739C480.661 260.723 483.965 261.739 486.38 263.9C486.634 264.154 486.888 264.409 487.27 264.79C487.524 264.154 488.032 263.773 488.668 263.646C477.865 250.047 465.664 237.719 452.32 226.789C451.176 227.806 449.015 227.425 449.142 225.518C449.142 225.264 449.142 225.01 449.269 224.629C442.533 227.298 435.416 229.077 428.172 230.094C398.814 234.034 367.549 223.739 347.088 202.006C346.833 201.752 346.706 201.371 346.579 201.117C342.767 201.625 338.954 202.134 335.141 202.769C315.315 206.328 295.997 212.682 277.95 221.833C259.903 230.983 243.127 242.676 228.384 256.529C213.768 270.509 201.186 286.649 191.273 304.315C181.36 321.981 173.989 341.045 169.541 360.744C167.253 370.53 165.728 380.57 165.092 390.738C164.457 400.142 164.711 409.674 166.745 418.825C168.778 427.848 172.718 436.491 179.327 442.972C186.444 449.962 195.849 453.902 205.508 455.682C216.692 457.715 228.13 456.825 239.314 455.173C251.387 453.394 263.334 450.979 275.281 449.2C299.301 445.514 323.448 442.591 347.596 440.431C359.669 439.414 371.87 438.524 383.944 437.889C395.509 437.253 407.075 436.745 418.513 434.457C436.941 430.772 455.243 422.129 464.647 405.734ZM286.211 347.908C280.365 346.128 273.756 348.924 270.451 353.881C277.06 353.627 283.669 352.102 289.769 349.56C288.752 348.797 287.609 348.289 286.211 347.908ZM506.842 408.276C512.688 408.022 516.882 404.972 521.076 401.286C529.21 394.169 538.742 387.306 543.317 377.139C545.986 371.038 546.367 364.176 545.859 357.567C545.605 353.881 544.969 350.195 544.207 346.637C543.953 345.493 543.317 339.011 541.156 339.901C540.14 340.282 539.632 341.934 539.377 342.824C538.869 344.476 538.488 346.128 538.106 347.78C537.217 351.339 536.454 354.898 535.691 358.456C534.929 362.142 534.293 365.828 533.785 369.64C533.658 370.657 533.658 371.674 533.023 372.563C532.641 373.199 532.006 373.707 531.498 374.216C530.354 375.487 529.21 376.63 527.939 377.647C523.11 381.841 516.501 384.51 510.4 381.714C507.604 380.443 505.444 378.028 503.792 375.487C502.267 373.199 500.869 370.657 500.36 367.988C499.725 364.938 500.36 362.142 502.521 359.981C504.808 357.694 508.113 356.296 510.909 354.771C514.213 352.991 517.391 351.212 520.695 349.433C523.364 347.908 526.541 346.255 527.939 343.459C528.956 341.426 529.21 338.376 527.05 336.851C524.635 335.199 520.695 335.961 518.026 336.724C514.594 337.613 511.29 339.266 507.986 340.664C504.808 342.062 501.631 343.332 498.454 344.603C491.718 347.145 484.728 349.178 477.992 351.593C471.256 354.008 464.902 357.186 458.674 360.744C454.353 363.159 449.905 365.827 445.456 368.115C444.44 375.105 446.092 382.223 449.65 388.323C451.684 391.881 454.353 395.059 457.53 397.601C460.453 400.015 464.266 402.303 468.079 402.811C469.223 402.938 469.604 404.336 469.35 405.353C474.56 406.243 479.771 406.878 484.982 407.387C488.795 407.768 492.608 408.022 496.42 408.149C499.852 408.149 503.41 408.403 506.842 408.276ZM517.263 409.039C517.39 409.039 517.517 409.039 517.645 409.039C517.517 409.039 517.518 408.912 517.39 408.912C517.39 409.039 517.263 409.039 517.263 409.039ZM533.15 401.668C528.701 404.336 523.999 406.878 519.297 409.039C519.17 409.166 518.916 409.166 518.789 409.166C520.441 409.42 521.966 409.547 523.618 409.801C530.608 410.691 537.598 411.581 544.588 412.47C547.892 412.852 551.451 413.868 554.755 413.487C557.043 413.233 560.22 410.945 557.678 408.658C555.518 406.878 552.214 405.989 549.545 405.226C546.367 404.209 543.19 403.32 540.013 402.684C537.598 402.303 535.437 401.922 533.15 401.668ZM538.615 393.661C544.588 389.594 550.18 385.019 555.391 380.062C558.06 377.647 560.475 374.978 562.889 372.309C565.304 369.64 567.973 366.972 569.752 363.921C571.913 360.236 567.719 360.49 565.431 361.38C562 362.523 558.822 364.303 555.645 366.082C553.357 367.48 551.07 369.005 549.036 370.784C549.036 371.038 548.909 371.293 548.909 371.547C547.765 377.266 545.096 382.477 541.538 387.052C538.488 390.992 534.802 394.423 530.989 397.728C531.37 397.728 531.752 397.728 532.133 397.855C534.421 396.457 536.581 395.059 538.615 393.661ZM596.187 331.767C596.187 302.409 572.294 278.643 543.063 278.643H524.253C524.253 280.168 524.126 281.82 523.872 283.345C523.364 286.522 522.093 289.7 519.297 291.479C514.34 294.783 507.859 292.369 504.681 287.793C503.919 289.191 502.902 290.462 501.504 291.479C497.183 294.402 491.845 292.877 488.287 289.573C487.651 290.335 487.015 290.971 486.253 291.479C481.042 294.911 474.306 292.114 471.256 287.285C470.621 288.429 469.604 289.446 468.46 290.208C462.868 294.021 455.37 290.335 452.701 284.743C451.811 282.71 451.303 280.676 451.176 278.643H365.77C357.763 281.439 351.155 287.92 345.563 294.148C339.716 300.63 334.633 307.747 329.676 314.991C325.228 321.473 321.161 328.335 316.331 334.436C310.866 341.299 304.003 346.764 296.251 350.831C298.411 353.881 299.682 357.567 299.682 361.38C309.087 355.915 318.619 350.831 328.659 346.764C338.318 342.824 348.486 340.028 358.907 339.52C369.329 339.011 379.369 341.426 388.646 345.874C398.051 350.449 406.566 356.677 416.353 360.617C421.182 362.523 426.266 364.048 431.349 364.302C433.891 364.429 436.433 364.303 438.975 363.794C440.627 363.413 441.898 363.032 443.169 362.142C444.313 361.379 445.711 362.269 445.965 363.413C453.972 359.219 461.597 354.135 469.858 350.577C476.594 347.654 483.711 345.493 490.701 343.078C494.26 341.934 497.691 340.663 501.123 339.265C504.554 337.867 507.732 336.342 511.163 334.817C516.501 332.53 525.016 329.606 529.972 334.182C534.675 338.63 531.752 345.747 527.558 349.179C524.762 351.466 521.457 352.991 518.407 354.771C514.976 356.677 511.544 358.456 508.113 360.49C505.444 362.015 503.029 363.794 503.792 367.226C504.427 370.022 506.079 372.818 507.859 374.978C509.892 377.52 512.688 379.172 515.992 379.045C519.551 378.918 522.728 376.885 525.27 374.597C526.541 373.453 527.812 372.182 528.956 370.911C529.973 369.768 529.845 367.48 530.1 365.955C530.735 362.142 531.498 358.329 532.26 354.516C533.023 350.704 533.912 347.018 534.929 343.205C535.565 340.664 536.708 337.868 539.123 336.597C541.792 335.199 544.588 336.724 545.859 339.138C547.384 342.189 547.765 346.001 548.274 349.306C549.163 354.644 549.799 360.108 549.545 365.573C552.214 363.667 554.883 362.015 557.806 360.617C560.983 359.092 564.414 357.185 567.973 357.058C571.404 356.931 574.455 359.092 574.073 362.777C573.819 364.938 572.548 366.59 571.277 368.242C570.133 369.767 568.863 371.293 567.592 372.691C564.923 375.741 562.127 378.664 559.203 381.46C555.518 385.018 551.705 388.323 547.638 391.5C574.709 389.085 595.933 366.209 595.933 338.63V331.767H596.187ZM370.345 238.736C377.59 243.82 386.74 245.726 395.51 244.201C399.577 243.565 403.389 242.167 406.948 240.134C408.092 244.455 412.286 247.759 416.607 248.776C423.47 250.301 430.078 246.361 435.798 242.803C437.831 241.532 435.925 238.227 433.891 239.498C429.443 242.294 424.105 245.853 418.513 245.218C414.319 244.709 409.998 241.405 410.633 236.83C410.76 235.432 408.854 234.415 407.71 235.177C399.195 241.151 387.757 242.803 377.971 238.609C369.074 234.796 362.338 226.662 360.051 217.257C359.542 214.843 355.857 215.859 356.365 218.274C358.399 226.535 363.482 233.907 370.345 238.736ZM66.3421 349.941C66.8505 354.898 63.8002 359.981 59.2249 361.888C54.5225 363.794 48.8033 361.379 47.1511 356.55C46.3886 354.135 47.0242 351.593 48.5493 349.687C47.7867 344.603 52.8703 340.028 57.9539 340.409C62.6563 340.791 65.8337 345.366 66.3421 349.941ZM62.2749 348.924C61.5124 346.256 59.3518 343.841 56.5558 344.222C55.2849 344.349 54.014 345.112 53.1244 346.129C52.8702 346.383 52.7432 346.637 52.6161 346.891C53.5058 346.637 54.5225 346.637 55.4121 346.764C56.4288 346.891 56.9372 348.162 56.683 349.051C56.4288 350.068 55.412 350.576 54.3953 350.322C52.9973 350.068 51.345 351.466 50.8367 352.864C50.2012 354.262 50.5826 355.787 51.5994 356.931C53.7599 359.219 57.0644 359.219 59.6062 357.312C62.148 355.279 63.0375 351.848 62.2749 348.924ZM91.3791 353.627C92.65 356.931 91.8874 360.871 89.7269 363.54C87.4392 366.463 83.4992 367.353 80.0678 366.209C76.3821 364.938 73.5862 362.015 73.2049 358.075C73.0778 357.185 73.8404 356.55 74.4759 356.296C73.8404 355.915 73.3321 354.898 73.5863 354.135C74.9843 350.322 78.924 347.908 82.9909 347.908C86.8037 347.908 89.9811 350.068 91.3791 353.627ZM88.2018 357.185C88.2018 356.804 88.2018 356.55 88.2018 356.169C88.2018 356.169 88.2018 356.169 88.2018 356.041C88.2018 356.041 88.2018 356.042 88.2018 355.915C88.2018 355.787 88.2017 355.66 88.0746 355.533C87.9475 355.152 87.8205 354.898 87.8205 354.516C87.8205 354.516 87.8205 354.517 87.8205 354.389C87.6934 354.262 87.6935 354.135 87.5664 354.008C87.4393 353.881 87.3122 353.627 87.3122 353.5C87.3122 353.5 87.185 353.373 87.185 353.245C87.185 353.118 87.0578 353.118 87.0578 352.991C86.9307 352.864 86.8039 352.737 86.6768 352.61C86.6768 352.61 86.4224 352.483 86.4224 352.356C86.2953 352.356 86.2953 352.229 86.1682 352.229C85.914 352.102 85.66 351.975 85.4059 351.848C85.4059 351.848 85.2785 351.72 85.1514 351.72C85.0243 351.72 84.7703 351.593 84.6432 351.593C84.5161 351.593 84.3889 351.466 84.2619 351.466C84.1348 351.466 84.1349 351.466 84.1349 351.466C83.8808 351.466 83.4992 351.466 83.2451 351.466C83.118 351.466 82.991 351.466 82.7368 351.466C82.7368 351.466 82.6098 351.466 82.4827 351.466H82.1014C81.9743 351.466 81.8471 351.466 81.72 351.593C81.4658 351.72 81.0846 351.721 80.8304 351.848H80.7032C80.5761 351.975 80.4492 351.975 80.195 352.102C79.9408 352.229 79.6865 352.356 79.4323 352.61C79.3052 352.61 79.3053 352.737 79.1782 352.737C79.0511 352.864 78.9239 352.991 78.7969 352.991C78.5427 353.118 78.4157 353.373 78.2886 353.627C78.2886 353.627 78.1616 353.754 78.0345 353.881C77.9074 354.008 77.9075 354.135 77.7804 354.262C77.6533 354.389 77.653 354.516 77.5259 354.771C77.5259 354.771 77.5259 354.771 77.5259 354.898C77.2717 355.533 76.8905 356.042 76.255 356.169C76.7634 356.55 77.0178 357.185 77.1449 357.821C77.1449 357.313 77.1449 357.948 77.1449 358.075C77.1449 358.329 77.2718 358.456 77.2718 358.71C77.2718 358.838 77.2719 358.838 77.399 358.965C77.5261 359.092 77.5261 359.219 77.6531 359.346C77.7802 359.473 77.9073 359.727 77.9073 359.854C77.9073 359.854 78.0343 360.109 78.1614 360.109L78.2886 360.236C78.4157 360.363 78.4156 360.363 78.5427 360.49C78.6698 360.617 78.797 360.744 78.9241 360.871C79.0512 360.998 79.1783 361.125 79.3054 361.252C79.4325 361.252 79.4324 361.38 79.5595 361.38C79.8137 361.634 80.1949 361.761 80.4491 361.888C80.4491 361.888 80.8304 362.015 80.8304 362.142C80.9575 362.142 81.0847 362.269 81.2118 362.269C81.5931 362.396 81.9742 362.523 82.3555 362.523H82.4827C82.6098 362.523 82.8638 362.523 82.9909 362.523C83.2451 362.523 83.6263 362.523 83.8805 362.523C84.0076 362.523 84.0079 362.523 84.1349 362.523C84.262 362.523 84.389 362.396 84.6432 362.396C84.7703 362.396 84.8974 362.269 85.0245 362.269H85.1514C85.4056 362.142 85.66 362.015 86.0413 361.761C86.0413 361.761 86.1682 361.761 86.1682 361.634C86.2953 361.507 86.4225 361.38 86.5496 361.38C86.6767 361.252 86.8038 361.125 86.9309 360.998C87.058 360.871 87.312 360.49 87.0578 360.871C87.1849 360.617 87.4393 360.363 87.5664 360.109C87.6935 359.982 87.6934 359.727 87.8205 359.6C87.9476 359.346 88.0746 359.092 88.0746 358.71C88.2017 358.456 88.2018 358.075 88.2018 357.821V357.694C88.0747 357.567 88.2018 357.44 88.2018 357.185ZM118.195 348.924C120.356 351.975 120.737 356.296 118.958 359.6C117.941 361.379 116.289 362.777 114.383 363.413C112.222 364.048 109.934 363.667 108.028 362.777C106.757 362.269 105.74 361.379 104.724 360.363C104.088 360.363 103.453 359.982 103.071 359.473C102.182 357.821 101.928 355.914 102.055 354.135C102.055 353.5 102.182 352.737 102.309 352.102C102.436 351.593 102.69 351.339 102.944 351.085C103.834 349.306 105.232 347.654 106.884 346.637C108.791 345.493 111.078 344.985 113.239 345.493C115.399 346.001 117.051 347.272 118.195 348.924ZM112.603 359.854C112.603 359.854 112.73 359.854 112.603 359.854C112.858 359.854 112.858 359.854 112.603 359.854ZM113.62 359.6C113.493 359.727 113.62 359.6 113.62 359.6V359.6ZM116.289 355.279C116.289 354.898 116.289 354.516 116.289 354.262V354.135C116.289 354.008 116.289 353.881 116.162 353.627C116.035 353.246 116.035 352.864 115.908 352.483L115.781 352.229C115.781 352.102 115.653 351.975 115.653 351.975C115.526 351.72 115.272 351.339 115.145 351.085C115.145 351.085 115.145 351.085 115.145 350.958C115.018 350.831 114.891 350.704 114.764 350.577C114.637 350.45 114.51 350.322 114.383 350.195C114.383 350.195 114.383 350.195 114.256 350.068C114.001 349.941 113.747 349.687 113.366 349.56C113.366 349.56 113.239 349.56 113.239 349.433C113.239 349.433 113.239 349.433 113.112 349.433C112.985 349.433 112.73 349.306 112.603 349.306C112.603 349.306 112.349 349.306 112.222 349.179C112.095 349.179 111.841 349.179 111.841 349.179C111.587 349.179 111.459 349.179 111.205 349.179C111.205 349.179 111.205 349.179 111.078 349.179H110.951C110.57 349.306 110.188 349.306 109.934 349.433C109.807 349.433 109.807 349.56 109.68 349.56C109.553 349.687 109.299 349.687 109.172 349.814C109.045 349.941 108.918 350.068 108.663 350.068C108.663 350.068 108.536 350.195 108.409 350.195C108.028 350.45 107.774 350.831 107.52 351.085L107.392 351.212C107.265 351.339 107.139 351.466 107.011 351.72C106.757 352.102 106.63 352.483 106.376 352.864C106.376 352.991 106.376 352.991 106.249 353.119C106.122 353.246 106.122 353.5 106.122 353.627C106.122 353.754 105.995 354.008 105.995 354.135C105.995 354.262 105.995 354.389 105.995 354.644C105.995 354.262 105.994 354.771 106.122 354.898C106.122 355.152 106.249 355.279 106.249 355.533C106.249 355.533 106.376 355.66 106.376 355.787C106.63 356.169 106.757 356.55 107.138 356.931C107.265 357.058 107.265 357.058 107.392 357.185C107.52 357.313 107.647 357.567 107.901 357.694C108.028 357.821 108.282 357.948 108.409 358.202L108.536 358.329C108.664 358.329 108.664 358.456 108.791 358.456C109.172 358.711 109.553 358.965 109.934 359.092C109.934 359.092 110.062 359.219 110.189 359.219C110.443 359.346 110.57 359.346 110.824 359.473C111.078 359.6 111.332 359.6 111.587 359.6H111.714C112.095 359.6 112.476 359.6 112.857 359.6C112.985 359.6 112.985 359.6 113.112 359.6C113.239 359.6 113.493 359.473 113.62 359.473C113.62 359.473 113.747 359.473 113.747 359.346C113.874 359.219 114.129 359.219 114.256 359.092C114.256 359.092 114.51 358.965 114.637 358.838C114.764 358.711 114.891 358.71 114.891 358.583C115.018 358.456 115.145 358.329 115.272 358.202C115.272 358.075 115.399 358.075 115.399 357.948C115.526 357.694 115.781 357.44 115.908 357.058C115.908 357.058 115.908 356.931 116.035 356.931C116.035 356.804 116.162 356.677 116.162 356.55C116.289 356.169 116.289 355.914 116.416 355.533V355.406C116.289 355.66 116.289 355.406 116.289 355.279ZM111.078 349.179H110.951C110.951 349.179 110.951 349.179 111.078 349.179Z" fill="black"/>
</svg>
