<svg width="600" height="564" viewBox="0 0 600 564" fill="none" xmlns="http://www.w3.org/2000/svg">
<path d="M407.899 329.108C429.312 353.794 472.41 310.286 499.279 291.601C526.148 272.916 550.561 242.092 542.787 210.313C533.24 171.306 480.321 151.53 478.684 111.431C478.002 93.2918 488.504 76.9251 494.096 59.7401C499.688 42.5552 497.915 19.2327 481.412 11.8677C476.502 9.68552 470.91 9.27634 465.454 8.86717C440.086 7.2305 414.718 5.45744 389.35 3.82077C355.934 1.63855 321.428 -0.407311 289.922 10.7766C245.187 26.734 213.817 66.5596 174.265 93.1554C168.809 96.8379 162.945 100.384 156.398 100.657C136.758 101.475 128.165 75.4249 110.98 65.7413C94.2047 56.1941 71.1548 65.4685 61.3348 82.1079C51.5148 98.7473 52.4697 119.888 58.7435 138.164C65.0174 156.44 75.9286 172.67 85.4759 189.446C95.0231 206.222 103.343 224.498 103.752 243.729C104.161 264.596 95.0228 284.509 85.2028 302.921C75.3828 321.334 354.707 267.733 407.899 329.108Z" fill="#16202C"/>
<path d="M552.879 510.234C545.787 491.821 559.699 469.59 550.97 451.996C543.741 437.402 524.92 433.583 512.372 423.218C503.916 416.125 498.46 406.305 492.05 397.304C485.64 388.302 477.184 379.846 466.273 377.937L466.409 377.118C458.225 363.479 446.36 350.795 440.359 339.748C435.721 331.428 473.092 312.47 473.092 312.47C445.405 285.056 381.711 234.865 345.023 221.635C343.659 202.541 341.886 155.623 341.886 155.623C356.48 151.941 385.939 144.166 385.939 144.166C368.754 122.89 350.069 98.3398 330.702 74.199C324.292 66.1521 315.699 59.0599 305.879 56.3322L274.646 49.9219L261.144 107.205C253.506 103.659 243.55 105.159 237.549 111.16C230.457 118.116 229.638 130.528 235.639 138.438C239.458 143.485 245.596 146.212 251.87 146.485L251.733 147.031C241.231 171.853 231.684 192.448 221.046 213.997L220.909 213.452C186.13 228.864 153.533 242.23 121.755 263.507C90.1124 284.647 61.6073 311.925 44.4223 346.022C44.4223 346.022 66.108 339.475 86.2935 347.658C84.7933 349.295 83.5657 351.068 82.4746 352.978C77.701 361.297 76.8829 371.254 74.1551 380.392C64.1987 413.398 29.8288 434.538 19.5996 467.544C19.5996 467.544 35.6933 503.551 147.668 521.554C151.351 522.099 151.351 515.144 152.169 511.734C152.851 508.324 152.306 504.642 149.714 502.05C148.623 500.959 147.259 500.277 145.623 499.732C148.214 497.277 150.669 494.685 152.579 491.821C157.079 485.684 159.398 478.319 157.079 471.636C155.579 467.408 152.442 463.861 149.714 460.179C134.575 439.584 163.762 433.583 178.492 421.172C182.584 417.626 186.13 413.125 188.585 408.488C195.132 416.398 203.451 422.945 212.726 427.446C220.773 433.72 229.229 436.857 236.048 438.084C237.139 438.493 238.367 438.902 239.595 439.175L239.049 438.493C239.458 438.493 240.004 438.63 240.413 438.63L249.142 387.484C249.142 387.484 297.832 389.53 301.378 337.429C301.924 328.973 301.106 322.017 299.333 316.016C314.472 314.107 327.701 314.652 339.567 315.88C342.568 318.198 345.705 321.335 348.296 325.291C348.433 326.382 348.978 327.473 349.796 328.428C350.069 328.7 350.206 328.837 350.478 329.109C354.979 338.111 357.161 350.795 352.933 368.799C349.251 384.62 342.568 396.349 335.067 405.214C334.794 405.078 334.658 404.805 334.385 404.669L334.657 405.76C317.882 425.264 297.423 429.764 297.423 429.764L289.785 484.183L410.626 456.906L394.668 393.758C398.76 393.212 402.852 392.121 406.943 390.894C406.534 393.485 406.534 396.213 406.807 398.941C407.625 405.214 410.353 411.215 414.581 415.853H415.672C416.354 448.45 420.037 481.046 426.856 512.825C429.584 525.646 433.403 539.421 444.041 547.059C444.041 547.059 464.227 507.915 510.599 527.009C556.971 546.104 579.339 527.009 579.339 527.009C567.882 527.964 556.835 520.736 552.879 510.234ZM380.211 337.429L376.938 324.472C377.484 324.336 378.166 324.063 378.711 323.927C385.121 322.426 392.895 323.381 396.578 328.837C396.714 329.109 396.851 329.382 396.987 329.655C391.122 331.701 385.53 334.292 380.211 337.429ZM389.486 374.254C397.123 371.117 405.17 368.526 412.944 366.344C406.534 368.662 397.669 373.027 390.304 377.664L389.486 374.254Z" fill="#111217"/>
<path d="M264.555 285.324L268.92 241.816C268.92 241.816 234.823 247.408 209.454 273.459C211.227 273.868 213.137 274.413 214.91 274.959C219.956 276.459 225.548 277.959 229.913 281.233C233.595 284.097 236.05 288.871 234.823 293.644C233.459 298.418 228.549 300.464 223.912 300.191C218.456 299.918 213.273 297.327 208.227 295.417C203.999 293.78 199.634 292.417 194.997 292.826C194.042 294.599 193.087 296.235 192.269 298.145C193.769 298.827 195.27 299.509 196.77 300.191C203.999 303.873 210.818 308.51 216.956 314.102C221.866 318.603 231.958 327.332 224.593 334.015C222.957 335.379 221.184 336.197 219.274 336.47C221.729 339.334 223.911 342.88 223.093 346.836C222.275 350.927 218.32 353.246 214.364 353.11C209.727 352.973 205.363 350.109 201.271 348.063C198.952 346.972 196.634 345.881 194.315 344.926C194.724 345.199 195.27 345.472 195.679 345.881C198.134 347.518 200.453 349.291 202.635 351.337C204.135 352.837 205.772 354.473 206.317 356.519C208.227 362.93 199.089 363.748 195.133 363.884C191.042 364.021 187.086 363.612 183.131 362.793C183.54 367.43 181.904 372.886 184.768 376.023C187.086 378.614 191.451 380.251 192.542 384.07C193.77 388.434 190.36 396.754 191.996 400.436C204.681 429.214 227.321 438.625 240.824 439.307L249.552 388.161C249.552 388.161 298.243 390.207 301.789 338.107C304.926 290.78 264.555 285.324 264.555 285.324Z" fill="#CB730B"/>
<path d="M178.766 362.794C178.766 362.384 178.766 361.975 178.63 361.43H178.494C178.63 361.839 178.63 362.248 178.766 362.794Z" fill="#DCDCDC"/>
<path d="M191.723 269.911C205.498 254.363 223.501 242.77 243.414 236.633C243.823 236.496 244.096 236.36 244.233 236.087C250.779 236.905 257.326 238.406 263.6 240.452C242.596 247.544 223.092 258.455 206.044 272.503C207.681 272.912 209.454 273.321 211.09 273.73C228.275 259.955 248.052 249.453 269.192 243.043C269.737 242.907 270.01 242.634 270.283 242.361C271.783 241.816 272.192 239.088 270.147 238.406C261.554 235.405 252.825 233.087 243.687 232.132C243.005 231.996 242.46 232.405 242.05 232.95C221.046 239.497 202.089 251.908 187.768 268.548C187.495 268.82 187.359 269.23 187.222 269.502C188.586 269.502 190.223 269.639 191.723 269.911Z" fill="#DCDCDC"/>
<path d="M247.506 395.116C241.914 392.797 238.232 387.615 234.958 382.841C233.185 380.386 231.549 377.794 229.639 375.476C227.866 373.157 225.684 370.566 223.229 369.066C220.501 367.429 216.682 367.156 214.773 370.293C213 373.157 214.227 376.976 214.773 379.977C216.273 387.069 218.456 394.025 221.456 400.708C224.866 408.482 229.367 415.574 234.686 422.257C236.322 424.303 239.187 421.439 237.55 419.393C229.094 408.891 223.093 396.616 219.82 383.659C219.001 380.659 218.046 377.249 218.046 374.112C217.91 370.157 221.592 372.612 223.093 374.112C227.048 377.931 229.912 382.841 233.185 387.205C236.731 392.115 240.823 396.616 246.552 398.935C247.643 399.344 248.734 398.526 249.007 397.571C249.279 396.48 248.461 395.525 247.506 395.116Z" fill="#DCDCDC"/>
<path d="M270.965 321.603C268.374 318.193 266.055 314.647 263.736 310.964C253.644 294.461 246.961 276.049 243.96 256.954C243.551 254.363 239.595 255.454 240.005 258.046C242.46 274.276 247.779 289.96 255.28 304.418C259.099 311.646 263.463 318.602 268.373 325.149C270.419 327.74 273.556 331.559 271.783 335.105C271.238 336.196 270.147 337.287 268.783 337.015C267.146 336.742 266.191 334.696 265.509 333.332C263.191 329.24 261.008 325.149 258.826 321.193C256.917 317.647 255.144 313.692 252.553 310.555C250.507 307.964 247.37 305.918 243.96 306.736C240.55 307.555 238.505 310.828 238.232 314.101C237.823 318.057 239.868 321.739 241.641 325.149C243.687 329.104 245.597 333.059 247.37 337.151C250.916 345.334 253.78 353.79 255.962 362.383C256.371 364.02 256.917 365.656 256.644 367.429C256.371 369.611 254.735 368.793 253.371 367.702C249.961 364.701 246.96 361.155 244.096 357.609C238.231 350.381 233.458 342.334 229.775 333.878C228.684 331.423 225.138 333.605 226.229 335.923C229.776 343.698 234.14 351.199 239.323 358.018C241.914 361.428 244.778 364.838 247.779 367.975C250.234 370.566 253.78 374.658 257.872 372.476C260.872 370.839 261.008 367.156 260.463 364.156C259.781 359.791 258.281 355.427 256.917 351.335C254.053 342.47 250.507 333.741 246.279 325.421C244.642 322.012 241.369 317.784 242.323 313.828C242.596 312.465 243.551 311.101 244.915 310.828C246.688 310.555 248.188 312.055 249.143 313.283C250.234 314.647 251.052 316.147 251.871 317.647C253.098 319.966 254.462 322.285 255.689 324.603C257.871 328.695 260.054 332.923 262.509 336.878C264.282 339.879 267.419 342.334 271.101 340.97C274.238 339.742 276.42 336.196 276.148 332.787C276.284 328.286 273.42 324.876 270.965 321.603Z" fill="#DCDCDC"/>
<path d="M186.677 373.43C186.268 370.021 186.131 366.474 186.268 363.065C184.904 362.928 183.54 362.656 182.176 362.383C182.04 365.656 182.176 368.929 182.449 372.203" fill="#DCDCDC"/>
<path d="M191.042 405.482C212.864 435.488 231.959 437.943 239.187 440.125C241.779 440.807 242.87 436.851 240.278 436.17C219.138 430.032 201.68 414.62 192.815 394.844" fill="#DCDCDC"/>
<path d="M346.525 322.699C346.798 320.653 347.616 318.607 348.844 316.97C352.39 312.333 358.527 310.424 363.846 308.787C366.847 307.832 369.848 307.014 372.848 306.332L359.755 254.641L337.932 260.096L325.93 309.06C325.93 309.06 337.796 311.651 346.525 322.699Z" fill="#006C8F"/>
<path d="M357.572 353.932C360.299 350.795 363.3 347.794 366.437 345.066C370.665 341.52 375.166 338.247 380.076 335.519L377.757 326.518C373.392 327.745 369.164 329.927 364.936 331.291C360.981 332.655 356.071 333.746 351.979 332.246C354.571 338.793 355.935 347.249 354.844 357.887C355.662 356.659 356.617 355.159 357.572 353.932Z" fill="#006C8F"/>
<path d="M382.122 396.211C379.803 395.939 377.075 395.257 375.711 393.211C374.62 391.574 375.03 389.528 375.848 387.892C378.167 383.664 382.94 380.527 387.032 377.935C383.895 379.299 380.758 380.663 377.757 382.3C373.802 384.346 369.574 386.664 364.937 385.71C360.709 384.891 357.981 381.209 358.39 376.981C358.663 374.116 360.3 371.661 362.209 369.343C359.481 368.934 357.163 367.706 355.39 364.978C354.844 364.16 354.571 363.342 354.435 362.523C354.162 364.569 353.753 366.752 353.207 368.934C341.205 420.079 297.697 429.899 297.697 429.899L290.06 484.319L410.9 457.041L395.488 395.939C390.987 396.757 386.623 396.893 382.122 396.211Z" fill="#006C8F"/>
<path d="M286.241 420.214C285.559 419.259 286.104 418.032 286.923 417.35C287.877 416.668 289.105 417.213 289.786 418.032C292.378 421.987 295.106 425.806 297.697 429.761C298.379 430.716 297.833 431.943 297.015 432.625C296.06 433.307 294.833 432.762 294.151 431.943C291.56 427.988 288.968 424.169 286.241 420.214ZM353.753 423.351C357.026 427.852 364.528 436.717 358.39 441.9C355.662 444.218 351.707 443.127 349.389 440.672C346.797 437.945 345.16 434.262 342.842 431.262C340.66 428.397 338.068 425.26 335.068 423.215C333.977 422.396 331.794 421.305 330.43 422.669C329.339 423.896 330.567 425.942 331.249 427.033C333.295 430.58 335.75 433.989 338.068 437.535C340.523 441.218 342.978 445.037 345.433 448.719C346.933 450.901 343.388 452.947 341.887 450.765C339.159 446.673 336.568 442.582 333.84 438.49C332.476 436.444 331.112 434.398 329.748 432.353C328.521 430.58 327.294 428.806 326.475 426.761C325.384 423.624 326.066 420.078 329.339 418.714C332.613 417.213 335.886 418.714 338.478 420.76C341.478 423.215 344.069 426.215 346.388 429.216C347.615 430.852 348.706 432.353 349.798 434.126C350.752 435.626 351.571 437.535 352.935 438.626C354.162 439.581 355.799 439.718 356.344 438.081C356.89 436.581 356.208 435.08 355.39 433.716C353.617 430.443 351.298 427.306 348.979 424.169C344.479 418.032 339.432 412.44 333.84 407.257C325.111 418.032 313.927 426.761 301.243 432.353C298.516 450.083 295.788 467.814 293.06 485.544C292.651 487.999 289.241 487.181 289.105 484.862C288.832 484.726 288.559 484.453 288.423 484.18C285.149 479.134 281.467 474.497 277.239 470.132C276.557 469.45 276.557 468.632 276.83 468.086C279.694 451.038 282.694 433.989 285.559 416.804C285.831 415.577 286.786 415.168 287.604 415.44C299.607 413.395 310.927 408.757 320.883 401.665C332.749 393.209 342.569 381.07 348.025 367.295C348.298 366.068 348.434 364.84 348.57 363.613C348.707 363.067 349.116 362.522 349.661 362.249C350.616 359.385 351.298 356.521 351.707 353.52C353.207 344.246 351.98 334.562 347.07 326.515C342.296 318.877 334.113 313.694 325.248 312.331C324.702 312.467 324.02 312.467 323.475 312.194C322.929 312.194 322.384 312.058 321.974 312.058C320.065 312.058 319.519 309.876 320.338 308.784C317.61 305.92 314.882 303.056 312.018 300.192C310.654 300.328 309.29 299.374 309.699 297.737C315.155 280.416 318.701 262.549 320.338 244.409C319.792 243.182 320.474 241.545 322.111 241.545C322.384 241.408 322.793 241.408 323.066 241.545C328.385 241.408 333.567 240.454 338.614 238.681C339.023 238.272 339.705 237.999 340.25 238.135C341.069 237.999 342.023 238.681 342.296 239.363C347.615 243.863 353.071 248.364 358.39 252.729C358.39 252.729 358.39 252.865 358.527 252.865C358.799 252.865 359.072 252.865 359.345 252.865C360.436 253.001 361.391 253.683 361.391 254.911C361.391 255.866 360.436 257.093 359.345 256.957C353.071 256.275 346.797 257.366 341.205 260.366C340.251 260.912 339.432 260.639 338.886 259.957C338.75 260.094 338.614 260.23 338.341 260.366C335.068 276.597 331.249 292.691 326.884 308.648C337.25 310.557 346.388 317.104 351.434 326.515C358.39 339.472 356.89 354.611 351.571 367.977C350.616 373.569 348.979 379.025 346.797 384.344C343.933 391.3 340.251 397.846 335.75 403.847C342.842 409.712 348.57 416.259 353.753 423.351ZM352.935 252.865C348.706 249.319 344.615 245.909 340.387 242.363C335.75 244 330.976 244.955 326.203 245.227C330.567 249.183 335.068 253.001 339.432 256.957C339.569 256.82 339.705 256.82 339.841 256.684C343.797 254.502 348.297 253.274 352.935 252.865ZM315.155 297.055C318.019 300.056 321.02 303.056 323.884 306.057C328.112 290.372 331.794 274.687 335.068 258.73C335.068 258.593 335.068 258.593 335.204 258.457C331.658 255.32 328.112 252.183 324.566 249.046C322.793 265.14 319.519 281.098 314.882 296.646C314.882 296.782 315.019 296.919 315.155 297.055ZM342.16 385.98C329.612 403.302 310.381 415.304 289.378 418.987C286.65 435.217 283.786 451.583 281.058 467.814C284.331 471.223 287.332 474.906 290.06 478.861C292.378 463.858 294.697 448.856 297.015 433.853C294.56 434.808 293.469 430.852 295.924 429.898C296.606 429.625 297.288 429.352 297.834 429.079C298.243 428.261 299.061 428.125 299.743 428.261C304.38 426.215 308.881 423.624 313.109 420.76C325.793 412.031 335.886 399.892 342.16 385.98ZM333.84 451.856C333.295 450.901 331.931 450.492 330.976 451.174C330.021 451.72 329.612 452.947 330.294 454.038C332.613 457.721 334.931 461.54 337.386 465.222C337.932 466.177 339.296 466.586 340.25 465.904C341.205 465.359 341.614 464.131 340.932 463.04C338.614 459.358 336.295 455.539 333.84 451.856ZM365.482 290.918C362.618 286.28 359.345 282.052 355.662 278.097C353.753 276.051 351.707 274.142 349.661 272.232C347.752 270.596 345.706 268.55 343.387 267.868C341.069 267.322 338.614 268.413 337.932 270.868C337.25 273.187 338.204 275.915 338.886 278.233C340.387 283.689 342.296 289.008 344.751 294.191C347.479 299.919 350.616 305.511 354.298 310.694C355.799 312.876 359.345 310.83 357.845 308.648C350.752 298.828 345.57 287.781 342.569 276.051C342.296 275.233 341.478 273.187 341.887 272.232C342.433 271.278 344.069 272.778 344.615 273.323C346.934 275.096 348.979 277.142 351.025 279.188C355.253 283.416 358.799 288.053 361.936 293.1C363.3 295.282 366.846 293.236 365.482 290.918Z" fill="#DCDCDC"/>
<path d="M136.209 440.227C179.229 321.588 -5.33263 311.894 107.125 226.702C125.666 213.614 146.873 200.042 152.811 178.229C158.386 157.628 148.691 136.178 148.57 114.729C164.687 -1.48593 303.684 24.4473 378.818 70.8604C409.235 86.1295 443.53 106.731 447.044 140.541C448.377 153.75 444.62 167.443 448.983 180.046C472.492 226.581 543.991 205.01 555.867 290.929C562.532 386.543 467.767 375.03 444.378 434.895" fill="#16202C"/>
<path d="M471.402 418.779C444.863 383.151 409.114 349.826 385.483 333.345C373.607 324.983 361.61 318.803 349.734 314.198C343.917 297.475 338.464 281.115 333.011 263.059C338.464 262.695 343.796 260.514 347.553 256.636C362.095 241.125 348.038 218.221 330.103 219.554C332.769 198.832 337.131 177.988 325.134 159.69C275.934 105.399 221.886 201.619 187.47 227.552C187.47 227.552 217.524 239.307 232.308 245.002C232.308 245.002 229.642 299.777 228.793 324.014C198.376 340.737 173.17 366.428 156.932 393.815H14.9051C5.93753 393.815 -0.364053 404.116 2.42316 414.174L35.3852 533.418C37.203 539.841 42.1712 544.204 47.8669 544.204H53.1991C56.471 554.383 66.0444 561.897 77.3144 561.897H278.842C293.263 562.018 304.291 550.021 304.291 535.963C313.379 545.294 365.488 561.897 402.207 561.897C426.443 561.897 484.611 556.807 493.094 552.202C521.33 536.933 516.725 470.767 471.402 418.779ZM227.218 528.086C227.218 526.632 226.976 525.299 226.612 523.845L218.372 494.155C221.159 493.307 223.825 492.58 226.491 491.974C227.824 493.064 229.763 494.034 232.55 494.397C243.336 495.488 255.211 491.126 264.906 498.154C270.602 502.274 273.147 509.303 277.024 515.12C281.023 520.815 286.598 525.299 292.899 528.086C282.114 528.086 257.15 528.086 227.218 528.086ZM304.291 531.601C304.169 531.722 304.169 531.722 304.048 531.843C303.927 531.601 303.927 531.48 303.806 531.237C304.048 531.237 304.291 531.358 304.654 531.358C304.412 531.48 304.412 531.48 304.291 531.601Z" fill="#111217"/>
<path d="M111.73 213.617L56.1067 230.34C46.8967 233.127 37.3232 227.916 34.536 218.707C31.264 204.165 15.0256 175.929 37.6869 168.9L93.3098 152.177C102.52 149.39 112.093 154.601 114.88 163.811C118.152 178.353 134.391 206.588 111.73 213.617Z" fill="#CB730B"/>
<path d="M30.4155 183.686C42.8974 190.835 55.6215 197.743 68.4669 204.165C70.0423 205.014 71.6178 205.741 73.1932 206.468C74.5262 207.195 75.9804 208.043 77.4346 208.407C79.7371 208.892 82.1608 208.407 83.8574 206.832C84.8269 205.862 85.3114 204.771 85.7962 203.56C86.5233 201.863 87.3715 200.166 88.2198 198.47C89.7952 195.077 91.3708 191.805 92.9461 188.412C96.4604 180.777 100.096 173.264 103.61 165.629C104.579 163.569 101.429 161.63 100.459 163.811C94.5215 176.415 88.7046 188.896 82.7666 201.499C81.7971 203.438 81.0702 205.62 78.4042 205.014C77.1923 204.771 76.1016 203.923 75.011 203.438C73.4356 202.711 71.86 201.863 70.2847 201.136C64.2255 198.106 58.1663 194.956 52.1072 191.684C45.4421 188.048 38.7771 184.413 32.2333 180.535C30.1731 179.444 28.3554 182.595 30.4155 183.686Z" fill="#DCDCDC"/>
<path d="M276.419 39.3542C275.57 91.8266 197.529 91.8266 196.559 39.3542C197.407 -13.1181 275.449 -13.1181 276.419 39.3542Z" fill="#BB7785"/>
<path d="M250.364 29.176C247.092 23.238 238.73 22.6321 234.004 27.2371C231.702 29.5395 230.853 32.6903 231.217 35.7199C230.247 34.5081 228.914 33.5386 227.339 33.0539C224.915 32.3268 222.007 32.8115 219.947 34.2657C217.765 35.8411 216.19 38.2647 216.311 41.0519C216.432 44.6874 219.099 47.3535 222.007 49.2924C224.188 50.7466 226.733 51.7161 229.278 52.5643C232.792 53.7762 236.306 54.5033 239.942 55.1092C241.154 55.3516 242.245 55.4727 243.456 55.5939C244.426 55.7151 245.274 54.6245 245.274 53.7762C245.274 53.4126 245.153 53.1703 245.032 52.9279C245.395 48.8077 247.94 45.2934 249.637 41.6579C251.697 37.78 252.666 33.2962 250.364 29.176ZM246.001 41.1731C244.305 44.5663 242.244 47.9594 241.517 51.8372C238.609 51.3525 235.579 50.7466 232.671 50.0195C231.338 49.6559 229.884 49.1712 228.551 48.6865C228.308 48.5653 227.945 48.4441 227.703 48.3229H227.581C227.46 48.2017 227.218 48.2017 227.097 48.0806C226.612 47.8382 226.127 47.5958 225.643 47.3535C224.794 46.8687 223.946 46.384 223.098 45.7781C223.098 45.7781 222.734 45.5357 222.976 45.6569C223.219 45.8993 222.976 45.6569 222.855 45.5357C222.734 45.4145 222.492 45.2934 222.37 45.1722C222.128 44.9298 221.765 44.6874 221.522 44.3239C221.401 44.2027 221.28 44.0815 221.159 43.9603L221.038 43.8392C220.916 43.5968 220.674 43.3544 220.553 42.9909C220.431 42.8697 220.432 42.7485 220.31 42.6273C220.189 42.385 220.068 42.1426 220.068 41.779C220.068 41.6579 220.068 41.6579 220.068 41.5367C220.068 41.5367 220.068 41.5367 220.068 41.4155C220.068 41.1731 220.068 40.9308 220.068 40.6884V40.8096V40.6884C220.068 40.446 220.068 40.5672 220.068 40.6884C220.068 40.5672 220.068 40.5672 220.068 40.446C220.068 40.2037 220.189 39.9613 220.31 39.7189C220.31 39.5977 220.432 39.4766 220.432 39.4766C220.553 39.2342 220.674 38.9918 220.795 38.8706C220.916 38.7495 220.916 38.7495 221.038 38.6283C221.159 38.3859 221.401 38.2647 221.522 38.1435C221.643 38.0224 221.643 38.0224 221.764 37.9012C222.007 37.78 222.128 37.6588 222.37 37.5376C222.613 37.4165 222.734 37.2953 222.976 37.1741C223.097 37.1741 223.219 37.0529 223.34 37.0529C223.582 36.9317 223.825 36.9317 224.067 36.8105C224.188 36.8105 224.188 36.8105 224.309 36.8105C224.309 36.8105 224.31 36.8105 224.431 36.8105C224.673 36.8105 224.915 36.8105 225.158 36.8105C225.279 36.8105 225.4 36.8105 225.521 36.8105C225.764 36.8105 226.006 36.9317 226.248 36.9317C226.37 36.9317 226.491 37.0529 226.612 37.0529C226.854 37.1741 227.097 37.2953 227.339 37.4164C227.46 37.4164 227.46 37.5376 227.581 37.5376C227.581 37.5376 227.703 37.5376 227.703 37.6588C227.945 37.9012 228.187 38.0224 228.309 38.2647L228.43 38.3859C228.43 38.5071 228.551 38.6283 228.672 38.6283C228.915 38.8706 229.036 39.2342 229.157 39.4766C229.278 39.5977 229.278 39.7189 229.399 39.8401C229.399 39.9613 229.399 39.9613 229.52 40.0825C229.642 40.446 229.763 40.8096 229.884 41.2943C230.126 42.2638 231.217 42.8697 232.065 42.5061C233.035 42.2638 233.64 41.1731 233.277 40.3248C233.156 39.9613 233.035 39.5977 232.914 39.2342C234.125 39.4766 235.579 38.5071 235.095 37.0529C234.852 36.3258 234.731 35.7199 234.61 34.9928C234.61 34.2657 234.61 33.6598 234.731 33.175C234.974 32.0844 235.458 30.9937 236.185 30.3878C237.761 28.6913 239.821 27.843 242.123 27.9642C243.093 27.9642 244.062 28.3277 245.032 28.9336C246.001 29.5395 246.728 30.3878 247.334 31.4785C249.031 34.6292 247.576 38.1435 246.001 41.1731Z" fill="#DCDCDC"/>
<path d="M221.038 43.7168C221.159 43.7168 221.159 43.7168 221.038 43.7168C221.159 43.838 221.159 43.838 221.159 43.838C221.28 43.838 221.159 43.7168 221.038 43.7168Z" fill="#DCDCDC"/>
<path d="M427.776 127.212C430.079 126.848 431.048 130.363 428.746 130.726C423.899 131.574 418.93 131.453 414.083 130.968C409.114 130.484 404.025 129.635 399.177 128.181C394.936 126.848 390.694 125.152 387.301 122.243C384.514 119.82 382.696 116.548 383.181 112.791C383.908 107.822 387.786 103.823 391.543 100.794C391.422 101.279 391.179 101.642 391.058 102.127C390.937 99.4608 390.089 97.2795 388.634 95.0982C387.544 93.5228 386.332 91.9475 385.968 90.0085C385.605 87.706 386.574 85.6459 388.029 83.8282C389.119 82.4952 390.331 81.2833 391.664 80.0715C391.906 79.8291 392.391 79.5868 392.633 79.2232C392.876 78.9808 392.876 78.1326 392.876 77.769C393.118 76.9207 393.36 76.0725 393.603 75.2242C395.178 70.0133 398.086 64.9236 402.934 62.2576C412.992 56.8043 425.11 63.3482 433.23 69.4074C432.381 70.1345 431.412 70.7404 430.564 71.4675C429.594 65.5295 430.806 59.1068 433.23 53.5324C435.169 48.9274 438.683 43.9589 444.015 43.1106C445.348 42.8683 446.681 42.9894 448.014 43.2318C449.59 43.5954 450.438 44.2013 451.407 45.5343C452.619 47.352 453.104 49.7757 453.104 51.957C453.104 57.2891 451.165 62.3787 451.165 67.7108C451.044 75.4665 455.043 81.6469 460.738 86.7366C462.556 88.3119 459.89 90.8568 458.193 89.2814C452.134 83.9494 447.893 77.2843 447.529 69.165C447.287 63.9541 448.862 58.9856 449.347 53.8959C449.468 52.1994 449.589 50.2604 448.983 48.5639C448.741 48.0791 448.378 47.5944 448.135 47.1097C448.014 46.8673 447.651 46.7461 448.257 47.1097C448.014 46.9885 447.651 46.9885 447.287 46.8673C446.439 46.6249 445.469 46.6249 444.621 46.8673C440.258 47.7156 437.592 52.5629 436.259 56.4408C434.684 60.8034 433.593 66.0142 434.32 70.6192C434.563 71.9522 433.109 73.77 431.654 72.6793C423.778 66.7414 409.841 58.9856 401.48 68.4379C399.783 70.3768 398.571 72.9217 397.723 75.3454C397.117 77.0419 396.754 78.6173 396.39 80.3139C396.026 82.0104 393.966 83.1011 392.755 84.4341C391.422 85.7671 389.725 87.5849 389.846 89.4026C389.846 89.7662 390.21 90.4932 390.573 90.978C390.937 91.7051 391.422 92.311 391.906 93.0381C393.118 94.8559 394.088 96.7948 394.572 98.8549C394.815 100.188 395.42 102.248 394.451 103.339C393.603 104.308 392.391 105.035 391.543 106.005C390.089 107.459 388.634 109.155 387.786 111.094C387.18 112.306 386.938 113.882 387.059 114.851C387.544 117.638 389.846 119.698 392.391 121.274C395.784 123.334 399.783 124.546 403.661 125.515C411.053 127.454 420.021 128.545 427.776 127.212ZM449.347 137.755C450.922 129.151 452.74 120.547 455.891 112.306C457.466 108.186 459.526 104.066 462.435 100.794C463.647 99.4608 464.98 98.1278 466.676 97.2795C467.403 96.916 468.131 96.5524 468.858 96.31C469.827 96.0677 470.797 96.4312 471.645 96.916C475.523 99.0973 476.007 104.55 475.765 108.428C475.523 110.973 475.159 113.276 474.674 115.942C473.22 123.334 471.16 130.847 467.767 137.512C466.313 140.421 464.374 143.693 461.708 145.389C460.496 146.116 459.648 146.48 458.315 146.359C457.224 146.238 455.77 145.632 454.558 144.662C452.74 143.208 450.195 145.753 452.013 147.207C467.161 159.204 475.28 129.151 477.461 119.456C479.037 112.185 481.34 102.975 476.492 96.4312C474.917 94.3711 472.857 92.9169 470.312 92.4322C468.13 92.0686 465.828 93.1593 464.01 94.3711C460.132 96.916 457.345 100.794 455.164 104.914C450.074 114.73 447.772 125.758 445.712 136.543C445.469 139.088 448.983 140.057 449.347 137.755Z" fill="#DCDCDC"/>
<path d="M580.346 343.039L509.817 354.673C496.729 356.854 484.247 347.886 482.066 334.799C479.036 314.803 468.494 284.75 497.335 278.933L567.864 267.3C580.952 265.118 593.433 274.086 595.615 287.174C598.644 307.169 609.187 337.222 580.346 343.039Z" fill="#006C8F"/>
<path d="M520.966 296.143C523.026 302.566 524.48 309.11 525.813 315.654C526.54 319.774 527.146 323.894 528.358 327.893C529.085 330.317 530.418 332.983 533.205 333.468C536.356 333.952 539.507 331.65 541.931 330.075C548.596 325.591 554.655 320.38 560.835 315.29C561.562 314.684 561.441 313.351 560.835 312.745C552.474 303.899 541.446 297.476 529.57 294.689C527.267 294.204 526.298 297.719 528.601 298.203C539.992 300.869 550.292 306.807 558.291 315.29C558.291 314.442 558.291 313.594 558.291 312.745C552.958 317.108 547.505 321.592 541.931 325.712C540.355 326.924 538.659 328.014 536.962 328.984C536.599 329.105 536.356 329.348 535.993 329.469C535.75 329.59 535.871 329.59 535.387 329.711C535.144 329.832 534.902 329.832 534.66 329.953C534.539 329.953 534.417 329.953 534.296 330.075C534.539 330.075 534.66 330.075 534.296 330.075C534.175 330.075 533.569 330.075 533.811 330.075C534.054 330.075 533.569 329.953 533.448 329.953C533.933 330.196 533.448 329.953 533.327 329.832C533.811 330.196 533.327 329.711 533.084 329.59C532.842 329.348 533.206 329.832 533.084 329.59C532.963 329.469 532.963 329.348 532.842 329.348C532.721 329.105 532.6 328.863 532.478 328.62C532.236 328.136 532.479 328.62 532.236 328.136C532.115 327.772 531.994 327.53 531.873 327.166C530.782 323.531 530.297 319.653 529.57 315.896C528.237 308.989 526.662 302.081 524.602 295.295C523.753 292.993 520.239 293.962 520.966 296.143Z" fill="#DCDCDC"/>
<path d="M179.593 141.388C178.987 140.539 179.472 139.449 180.199 138.843C181.047 138.237 182.138 138.722 182.743 139.449C182.865 139.691 182.986 139.934 183.228 140.055C182.865 139.691 183.349 140.176 183.471 140.297C183.713 140.661 183.955 140.903 184.319 141.145C184.44 141.267 184.682 141.388 184.803 141.509C184.561 141.267 184.682 141.388 184.803 141.509L184.925 141.63C185.167 141.872 185.531 141.994 185.894 142.115C186.015 142.115 186.015 142.236 186.137 142.236C186.5 142.357 185.652 142.115 186.015 142.236C186.136 142.236 186.258 142.357 186.379 142.357C186.621 142.478 186.985 142.478 187.348 142.6C186.985 142.478 186.985 142.6 187.227 142.6C187.348 142.6 187.349 142.6 187.47 142.6C187.591 142.6 187.712 142.6 187.954 142.6C188.076 142.6 188.197 142.6 188.318 142.6C188.439 142.6 188.803 142.6 188.439 142.6C188.075 142.6 188.318 142.6 188.439 142.6C188.681 142.6 188.924 142.478 189.166 142.357C189.287 142.357 189.409 142.236 189.53 142.236H189.651C189.893 142.115 189.409 142.357 189.409 142.357C189.651 142.236 189.893 142.115 190.136 141.994C190.378 141.872 190.62 141.751 190.742 141.63C190.984 141.509 190.378 141.872 190.62 141.751L190.742 141.63C190.863 141.509 190.984 141.509 191.105 141.388C191.226 141.267 191.469 141.024 191.59 140.903C191.711 140.782 191.832 140.661 191.953 140.539C191.711 140.903 192.075 140.297 191.953 140.539C192.075 140.297 192.196 140.055 192.317 139.934C192.438 139.691 192.559 139.449 192.68 139.206C192.802 138.964 192.559 139.449 192.559 139.449C192.559 139.328 192.68 139.328 192.68 139.206C192.68 139.085 192.802 138.964 192.802 138.843C192.923 138.601 192.923 138.358 193.044 137.995C193.044 137.389 193.044 137.752 193.044 137.995C193.044 137.873 193.044 137.752 193.044 137.631C193.044 137.389 193.044 137.146 193.044 136.783C193.044 136.662 193.044 136.54 193.044 136.419C193.044 136.177 193.165 136.904 193.044 136.662V136.54C193.044 136.298 192.923 135.935 192.802 135.692C192.559 135.207 192.802 135.571 192.802 135.692C192.681 135.571 192.681 135.45 192.559 135.329C192.438 135.086 192.317 134.844 192.074 134.601L191.953 134.48C191.711 134.238 192.196 134.723 192.074 134.601C191.953 134.48 191.832 134.359 191.832 134.238C191.59 133.996 191.348 133.753 191.105 133.511C190.984 133.511 190.984 133.39 190.863 133.39C190.863 133.39 191.226 133.632 190.984 133.511C190.863 133.39 190.621 133.268 190.499 133.147C190.136 132.905 189.772 132.784 189.409 132.541C189.287 132.42 189.045 132.42 188.924 132.299C188.803 132.299 188.682 132.178 188.682 132.178C188.803 132.178 189.045 132.299 188.682 132.178C188.56 132.178 188.56 132.178 188.439 132.178C188.56 132.178 188.56 132.178 188.682 132.178C188.56 132.178 188.439 132.178 188.318 132.178C188.076 132.178 187.954 132.178 187.712 132.178C187.591 132.178 187.47 132.178 187.348 132.178C187.348 132.178 187.833 132.057 187.47 132.178C187.227 132.178 186.985 132.299 186.864 132.299C186.621 132.299 186.379 132.42 186.258 132.541C185.894 132.663 186.5 132.42 186.258 132.541C186.137 132.541 186.015 132.663 185.894 132.663C185.531 132.905 185.167 133.026 184.803 133.268C184.44 133.511 185.046 133.026 184.682 133.268C184.561 133.39 184.44 133.39 184.319 133.511C184.198 133.632 184.076 133.753 183.955 133.874C183.834 133.996 183.592 134.238 183.471 134.359C183.228 134.723 183.592 134.117 183.471 134.359C183.349 134.48 183.35 134.601 183.228 134.601C182.986 134.965 182.622 135.45 182.622 135.813C182.744 135.45 182.744 135.692 182.622 135.692C182.622 135.813 182.501 135.935 182.501 136.056C182.38 136.298 182.38 136.419 182.38 136.662C182.38 136.783 182.38 136.904 182.259 137.025C182.138 137.51 182.259 136.662 182.259 137.025C182.259 137.146 182.259 137.389 182.259 137.51C182.259 137.631 182.38 138.116 182.259 138.237C182.259 138.116 182.138 137.873 182.259 138.116C182.259 138.237 182.259 138.358 182.38 138.479C182.622 139.449 182.137 140.418 181.168 140.661C180.32 140.903 179.108 140.297 178.987 139.449C177.775 134.117 182.016 128.906 187.227 128.3C187.712 128.3 188.197 128.179 188.682 128.3C189.409 128.421 190.015 128.542 190.742 128.906C191.469 129.269 192.196 129.633 192.923 130.118C194.377 131.208 195.468 132.541 196.195 134.238C197.286 136.783 196.679 139.934 195.104 142.115C193.407 144.539 190.863 146.114 187.954 146.235C184.44 146.599 181.532 144.175 179.593 141.388ZM565.076 459.009C567.015 461.675 569.802 463.735 573.196 463.493C576.104 463.25 578.649 461.675 580.346 459.372C581.921 457.191 582.527 454.162 581.678 451.617C581.194 450.162 580.224 448.708 579.012 447.739C578.164 447.012 577.316 446.406 576.346 446.042C575.498 445.679 574.529 445.558 573.559 445.558C569.197 445.558 564.713 448.708 564.107 453.192C563.986 454.162 564.349 455.131 565.319 455.373C566.167 455.616 567.379 455.131 567.5 454.162C567.5 453.798 567.621 453.434 567.742 453.071C567.742 452.95 567.742 452.95 567.864 452.829C567.864 452.707 567.864 452.707 567.864 452.95C567.864 452.829 568.106 452.586 568.106 452.344C568.227 452.223 568.227 452.101 568.348 451.859C568.348 451.738 568.47 451.738 568.47 451.617C568.712 451.374 568.47 451.617 568.47 451.738C568.591 451.374 569.075 451.011 569.318 450.89C569.318 450.89 569.802 450.526 569.56 450.647C569.318 450.89 569.681 450.526 569.681 450.526C569.803 450.526 569.803 450.405 569.924 450.405C570.287 450.162 570.651 450.041 570.893 449.799C571.014 449.799 571.014 449.678 571.136 449.678C570.772 449.799 570.893 449.799 571.015 449.678C571.257 449.557 571.378 449.557 571.62 449.435C571.863 449.435 571.984 449.314 572.226 449.314C572.348 449.314 572.347 449.314 572.469 449.314C572.59 449.314 572.953 449.193 572.59 449.314C572.347 449.435 572.711 449.314 572.711 449.314C572.832 449.314 572.832 449.314 572.953 449.314C573.074 449.314 573.317 449.314 573.438 449.314C573.559 449.314 573.802 449.314 573.923 449.314C573.68 449.193 574.286 449.314 573.923 449.314C574.044 449.314 574.165 449.314 574.286 449.314C574.529 449.314 574.65 449.435 574.892 449.435C575.014 449.435 575.498 449.678 575.256 449.557C575.014 449.435 575.377 449.678 575.377 449.678C575.498 449.678 575.498 449.799 575.619 449.799C575.74 449.92 575.983 450.041 576.104 450.162C576.225 450.284 576.346 450.284 575.983 450.162C576.104 450.162 576.104 450.284 576.225 450.284C576.346 450.405 576.468 450.526 576.589 450.647C576.831 450.89 577.074 451.132 577.316 451.374L577.437 451.495C577.558 451.617 577.195 451.132 577.316 451.374C577.437 451.495 577.437 451.617 577.558 451.738C577.68 451.98 577.801 452.223 578.043 452.465C577.922 452.223 578.285 452.829 578.043 452.465C578.043 452.586 578.164 452.707 578.164 452.829C578.285 453.071 578.285 453.313 578.407 453.677C578.407 453.192 578.528 454.04 578.407 453.677C578.407 453.798 578.407 453.919 578.407 454.04C578.407 454.283 578.407 454.525 578.407 454.889C578.407 455.373 578.528 454.525 578.407 454.889C578.407 455.01 578.407 455.131 578.286 455.252C578.286 455.495 578.164 455.737 578.043 456.1C578.043 456.222 577.922 456.343 577.922 456.464C577.801 456.706 578.164 456.1 577.922 456.464C577.801 456.706 577.68 456.949 577.558 457.191C577.437 457.434 577.316 457.676 577.074 457.918C576.953 458.161 577.316 457.555 577.074 457.918C576.953 458.039 576.831 458.161 576.831 458.282C576.71 458.524 576.468 458.645 576.346 458.766C576.225 458.888 576.225 458.888 576.104 459.009C575.741 459.372 576.347 458.888 576.104 459.009C575.619 459.251 575.256 459.494 574.771 459.736C574.529 459.857 575.256 459.615 574.771 459.736C574.65 459.736 574.529 459.857 574.407 459.857C574.165 459.978 573.923 459.978 573.559 460.1H573.438C573.196 460.221 573.802 460.1 573.559 460.1C573.438 460.1 573.317 460.1 573.075 460.1C572.832 460.1 572.469 460.1 572.226 460.1C571.863 460.1 572.711 460.221 572.226 460.1C572.105 460.1 571.984 460.1 571.741 459.978C571.62 459.978 571.378 459.857 571.257 459.857C571.136 459.857 571.136 459.857 571.136 459.736C570.772 459.615 571.136 459.857 571.257 459.736C571.136 459.736 570.53 459.372 570.409 459.251C570.287 459.13 570.166 459.009 569.924 459.009C569.803 458.888 569.803 458.888 570.045 459.13C570.045 459.009 569.803 459.009 569.803 458.888C569.56 458.645 569.197 458.403 568.954 458.039C568.833 457.918 568.712 457.797 568.591 457.555C568.349 457.191 568.47 457.433 568.591 457.555C568.47 457.433 568.469 457.312 568.348 457.191C567.742 456.464 566.773 455.979 565.804 456.585C564.955 457.07 564.47 458.282 565.076 459.009ZM485.58 244.151C485.58 243.909 485.459 243.788 485.459 243.545C485.58 244.03 485.459 243.788 485.459 243.666C485.459 243.545 485.459 243.545 485.459 243.424C485.459 243.303 485.459 243.06 485.459 242.939C485.459 242.818 485.58 242.454 485.459 243.06C485.459 242.939 485.459 242.818 485.459 242.697C485.459 242.576 485.58 242.333 485.58 242.212C485.58 242.091 485.944 241.485 485.58 241.97C485.823 241.606 485.944 241.243 486.186 241L486.307 240.879C486.428 240.758 486.671 240.637 486.307 240.879C486.428 240.758 486.55 240.637 486.671 240.394C486.792 240.273 486.913 240.152 487.035 240.031C487.156 239.91 487.156 239.91 487.277 239.788C487.034 239.91 487.64 239.425 487.277 239.788C487.519 239.546 487.883 239.425 488.125 239.183C488.246 239.183 488.367 239.061 488.367 239.061C488.367 239.061 487.883 239.183 488.246 239.183C488.489 239.061 488.61 239.061 488.852 238.94C488.973 238.94 489.216 238.819 489.337 238.819C489.7 238.698 488.852 238.819 489.216 238.819C489.337 238.819 489.458 238.819 489.458 238.819C489.579 238.819 489.822 238.819 489.943 238.819C490.064 238.819 490.185 238.819 490.185 238.819C489.822 238.819 489.822 238.819 489.943 238.819C490.064 238.819 490.064 238.819 490.185 238.819C490.064 238.819 490.064 238.698 489.943 238.698C489.943 238.698 490.064 238.698 490.064 238.819C490.185 238.819 490.185 238.94 490.306 238.94C490.428 239.061 490.549 239.061 490.791 239.183C491.033 239.304 491.397 239.546 491.64 239.788C491.761 239.788 491.761 239.91 491.882 239.91C491.397 239.546 491.639 239.788 491.761 239.788C491.882 239.91 492.003 239.91 492.003 240.031C492.245 240.273 492.366 240.394 492.609 240.637L492.73 240.758C492.367 240.273 492.488 240.516 492.609 240.637C492.73 240.758 492.73 240.758 492.851 240.879C492.973 241.121 493.094 241.364 493.215 241.485C493.336 241.727 492.973 241 493.094 241.243C493.094 241.243 493.094 241.364 493.215 241.364C493.215 241.485 493.336 241.606 493.336 241.606C493.336 241.727 493.336 241.849 493.457 241.97C493.457 242.212 493.457 242.576 493.457 241.849C493.457 242.091 493.457 242.212 493.457 242.454C493.457 242.576 493.457 242.697 493.457 242.818V242.939C493.457 243.303 493.457 242.697 493.457 242.697C493.336 242.818 493.336 243.182 493.336 243.303C493.336 243.545 493.215 243.788 493.094 243.909C492.973 244.151 493.336 243.424 493.215 243.666C493.215 243.666 493.215 243.788 493.094 243.788C493.094 243.909 492.972 244.03 492.972 244.03C492.851 244.272 492.73 244.393 492.609 244.636C492.609 244.757 492.488 244.757 492.488 244.878C492.609 244.636 492.851 244.272 492.488 244.878C492.367 244.999 492.124 245.242 492.003 245.363C491.882 245.484 491.276 245.969 491.882 245.484C491.639 245.605 491.518 245.726 491.276 245.848C491.155 245.969 490.912 246.09 490.67 246.09C490.306 246.332 491.033 245.969 490.791 246.09C490.67 246.09 490.549 246.211 490.428 246.211C490.185 246.332 490.064 246.332 489.822 246.332C489.579 246.332 489.216 246.332 489.943 246.332C489.822 246.332 489.7 246.332 489.579 246.332C489.337 246.332 489.095 246.332 488.852 246.332C488.731 246.332 488.489 246.211 489.095 246.332H488.973C488.852 246.332 488.731 246.332 488.61 246.211C488.489 246.211 488.368 246.09 488.246 246.09C488.246 246.09 488.125 246.09 488.125 245.969C487.762 245.848 488.489 246.211 488.246 246.09C488.004 245.969 487.762 245.848 487.519 245.726C487.398 245.605 487.277 245.605 487.156 245.484C487.761 245.848 487.277 245.484 487.035 245.363C486.792 245.121 486.55 244.878 486.307 244.636L486.186 244.515C485.944 244.151 486.429 244.757 486.186 244.515C486.065 244.393 485.944 244.151 485.823 244.03C485.58 243.666 485.459 243.303 485.217 242.939C484.732 242.091 483.52 241.727 482.672 242.333C481.824 242.939 481.581 243.909 482.066 244.878C483.399 247.544 485.702 249.726 488.852 249.847C491.155 249.968 493.578 248.756 495.032 247.059C496.608 245.121 497.456 242.576 496.608 240.152C496.123 238.819 495.396 237.607 494.306 236.759C493.7 236.274 492.973 235.789 492.245 235.305C492.003 235.184 491.761 235.062 491.518 234.941C491.155 234.82 490.791 234.699 490.306 234.699C489.943 234.699 489.458 234.699 489.095 234.699C487.156 234.941 485.217 235.911 483.884 237.365C482.551 238.819 481.702 240.758 481.824 242.818C481.824 243.303 481.945 243.909 482.066 244.393C482.308 245.363 483.399 245.969 484.247 245.605C485.217 246.09 485.823 245.121 485.58 244.151ZM2.90771 260.147C5.21019 261.48 7.99735 261.844 10.421 260.632C12.2388 259.663 13.5717 257.602 13.9352 255.542C14.2988 253.24 13.8141 250.937 12.2388 249.241C11.3905 248.392 10.2997 247.787 9.08788 247.423C8.36078 247.181 7.63391 247.181 6.90682 247.059C5.93735 247.059 5.08901 247.302 4.11954 247.665C0.484048 249.362 -1.21263 254.573 0.968662 257.966C1.4534 258.814 2.66535 259.178 3.51363 258.572C4.36191 258.087 4.72546 256.997 4.11954 256.027C3.99836 255.906 3.99842 255.785 3.87724 255.663C3.75605 255.421 3.87724 255.785 3.87724 255.785C3.87724 255.785 3.75593 255.663 3.75593 255.542C3.75593 255.421 3.63463 255.179 3.63463 255.058C3.63463 254.936 3.63463 254.936 3.63463 254.815C3.63463 254.573 3.63463 255.179 3.63463 254.936C3.63463 254.573 3.63463 254.33 3.63463 253.967V253.725C3.75582 253.967 3.51345 254.088 3.63463 253.846C3.63463 253.603 3.75593 253.482 3.75593 253.24C3.75593 253.119 3.87724 252.997 3.87724 252.755L3.99824 252.513C3.99824 252.513 3.87706 252.876 3.99824 252.634C4.11943 252.27 4.36197 252.028 4.48315 251.786L4.60416 251.543C4.60416 251.543 4.36197 251.907 4.48315 251.664C4.60434 251.543 4.72528 251.422 4.84647 251.301C4.96765 251.18 5.08889 251.059 5.21007 250.937C5.45244 250.695 5.08907 251.059 5.08907 251.059C5.08907 251.059 5.33138 250.937 5.33138 250.816C5.45256 250.695 5.5738 250.695 5.69498 250.574C5.81617 250.574 5.81611 250.453 5.93729 250.453C6.17966 250.331 5.81599 250.574 5.81599 250.453C5.81599 250.453 6.17972 250.331 6.3009 250.331C6.42208 250.331 6.42202 250.331 6.54321 250.331C6.17966 250.331 6.90676 250.21 6.54321 250.331C6.78557 250.331 7.14906 250.331 7.39143 250.331C7.51261 250.331 7.51255 250.331 7.63374 250.331C7.63374 250.331 7.14906 250.21 7.39143 250.331C7.51261 250.331 7.63386 250.331 7.75504 250.453C7.99741 250.453 8.23959 250.574 8.48196 250.695C8.60314 250.695 8.72439 250.816 8.84557 250.816C8.84557 250.816 8.3609 250.574 8.60326 250.695C8.60326 250.695 8.72456 250.695 8.72456 250.816C8.96693 250.937 9.08811 251.059 9.33048 251.18C9.45166 251.18 9.4516 251.301 9.57279 251.301C9.57279 251.301 9.2093 250.937 9.33048 251.18L9.45148 251.301C9.57267 251.422 9.69391 251.543 9.81509 251.664C9.81509 251.664 10.0575 252.028 9.81509 251.664C9.57273 251.422 9.81521 251.664 9.9364 251.786C10.0576 251.907 10.1787 252.149 10.1787 252.27C10.1787 252.392 10.4211 252.634 10.1787 252.27C10.0575 251.907 10.1787 252.27 10.1787 252.392C10.2999 252.513 10.2997 252.755 10.2997 252.997C10.2997 253.119 10.2997 253.119 10.2997 253.24C10.4209 253.603 10.2997 252.755 10.2997 253.119C10.2997 253.482 10.2997 253.846 10.2997 254.209C10.2997 254.573 10.4209 253.846 10.2997 254.088C10.2997 254.209 10.2997 254.209 10.2997 254.33C10.2997 254.573 10.1787 254.694 10.1787 254.936C10.1787 255.058 10.0576 255.3 9.9364 255.421C10.1788 254.694 9.93628 255.421 9.81509 255.542C9.69391 255.663 9.69397 255.906 9.57279 256.027C9.57279 256.148 9.45148 256.148 9.45148 256.269C9.57267 256.027 9.81503 255.785 9.45148 256.269C9.3303 256.391 9.20906 256.512 9.08788 256.633C8.96669 256.633 8.96675 256.754 8.84557 256.754C8.72439 256.875 9.08788 256.633 9.08788 256.633L8.96687 256.754C8.84569 256.875 8.60314 256.996 8.48196 257.118C8.23959 257.239 7.99735 257.239 8.60326 257.118C8.48208 257.118 8.36084 257.239 8.23965 257.239C7.99729 257.36 7.8761 257.36 7.63374 257.36C7.39137 257.481 7.87604 257.36 7.87604 257.36C7.75486 257.36 7.75492 257.36 7.63374 257.36C7.51255 257.36 7.39131 257.36 7.27013 257.36C7.02776 257.36 6.78557 257.36 6.54321 257.36C6.66439 257.36 7.14912 257.36 6.54321 257.36C6.42202 257.36 6.30078 257.36 6.1796 257.239C5.93723 257.118 5.57374 256.996 5.33138 256.996C5.93729 257.118 5.33126 256.996 5.21007 256.875C5.08889 256.754 4.84664 256.754 4.72546 256.633C3.87718 256.148 2.66523 256.391 2.18049 257.239C1.81694 258.572 2.05943 259.663 2.90771 260.147Z" fill="#DCDCDC"/>
<path d="M316.288 240.035C322.104 234.339 330.466 231.431 338.586 232.522C339.555 232.643 340.403 233.249 340.403 234.339C340.403 235.188 339.555 236.278 338.586 236.157C331.436 235.188 324.043 237.611 318.833 242.701C317.257 244.276 314.712 241.732 316.288 240.035ZM280.418 264.393L280.296 264.272C280.296 264.272 280.296 264.393 280.418 264.393ZM268.784 192.652C269.269 193.501 270.481 193.864 271.329 193.258C272.177 192.652 272.42 191.683 271.935 190.713C271.087 189.138 270.238 187.563 269.39 185.987C268.905 185.139 267.693 184.775 266.845 185.381C265.997 185.987 265.755 186.957 266.239 187.926C267.088 189.502 267.936 191.077 268.784 192.652ZM267.208 272.27C267.208 272.391 267.208 272.391 267.208 272.27C267.208 272.391 267.208 272.391 267.208 272.27C267.208 272.391 267.208 272.27 267.208 272.27ZM267.208 272.27C267.208 272.391 267.208 272.391 267.208 272.27V272.27ZM304.897 533.541C305.018 533.541 305.018 533.541 304.897 533.541C304.897 533.541 305.018 533.541 304.897 533.541ZM288.052 360.733C289.022 364.611 287.689 368.732 284.538 371.155C280.902 373.821 275.328 373.458 272.056 370.307C269.026 367.52 268.299 362.794 269.753 359.037C271.329 354.674 275.207 352.008 279.812 352.129C281.024 352.129 281.629 353.22 281.508 354.19C282.478 354.432 283.447 354.796 284.417 355.401C286.234 356.613 287.446 358.552 288.052 360.733ZM281.387 368.732C281.387 368.732 281.63 368.61 281.387 368.732V368.732ZM284.659 363.521C284.659 363.157 284.659 362.794 284.659 362.551C284.659 362.43 284.659 362.43 284.659 362.43V362.309C284.659 362.188 284.538 361.945 284.538 361.824C284.417 361.461 284.295 361.097 284.174 360.855C284.174 360.733 284.053 360.733 284.053 360.612C283.932 360.491 283.932 360.249 283.811 360.128C283.69 360.006 283.689 359.885 283.568 359.764L283.447 359.643C283.205 359.4 282.963 359.037 282.599 358.795L282.478 358.673C282.357 358.552 282.235 358.552 282.114 358.431C281.993 358.31 281.751 358.189 281.508 358.189C281.387 358.189 281.387 358.189 281.266 358.067C280.902 357.946 280.539 357.825 280.054 357.825C279.933 357.825 279.933 357.825 279.812 357.825C279.569 357.825 279.327 357.825 279.084 357.825C278.842 357.825 278.6 357.825 278.358 357.825C278.236 357.825 277.63 357.946 277.873 357.825C277.024 357.946 276.176 357.583 275.813 356.856C275.57 356.977 275.449 357.098 275.207 357.219C275.207 357.219 275.207 357.219 275.085 357.219L274.964 357.34C274.601 357.583 274.358 357.946 273.995 358.31C273.995 358.431 273.874 358.431 273.874 358.552C273.752 358.795 273.631 358.916 273.51 359.158C273.389 359.279 273.268 359.522 273.268 359.643L273.147 359.885V360.006C273.025 360.37 272.904 360.855 272.783 361.218C272.783 361.461 272.662 361.582 272.662 361.824C272.662 361.945 272.662 361.945 272.662 362.066C272.662 362.43 272.662 362.794 272.662 363.278C272.662 363.521 272.662 363.763 272.662 363.884V364.005C272.662 364.005 272.662 364.005 272.662 364.127C272.783 364.49 272.783 364.854 272.904 365.217C273.026 365.46 273.025 365.581 273.147 365.823C273.147 365.944 273.268 365.944 273.268 366.066C273.389 366.429 273.631 366.671 273.874 367.035L273.995 367.277C274.116 367.399 274.237 367.52 274.358 367.762C274.48 367.883 274.601 368.004 274.843 368.126L274.964 368.247C274.964 368.247 274.964 368.247 275.085 368.247C275.449 368.489 275.813 368.732 276.176 368.853C276.297 368.853 276.419 368.974 276.419 368.974C276.661 369.095 276.903 369.095 277.024 369.216C277.267 369.337 277.509 369.337 277.752 369.337H277.873C277.994 369.337 278.115 369.337 278.115 369.337C278.6 369.337 278.963 369.337 279.448 369.337C279.448 369.337 279.448 369.337 279.569 369.337C279.691 369.337 279.812 369.337 279.933 369.216C280.175 369.216 280.296 369.095 280.539 369.095C280.781 369.095 280.902 368.974 281.145 368.853C281.266 368.853 281.266 368.732 281.387 368.732C281.751 368.61 281.993 368.368 282.235 368.247C282.357 368.247 282.478 368.126 282.478 368.004C282.599 367.883 282.72 367.762 282.841 367.641C282.962 367.52 283.084 367.399 283.205 367.277L283.326 367.156C283.568 366.793 283.69 366.55 283.811 366.187C283.811 366.187 283.811 366.066 283.932 366.066C283.932 366.066 283.932 366.066 283.932 365.944C283.932 365.823 284.053 365.581 284.053 365.46C284.174 365.096 284.174 364.854 284.295 364.49C284.295 364.369 284.295 364.369 284.295 364.369C284.295 364.369 284.295 364.369 284.295 364.248C284.659 363.884 284.659 363.642 284.659 363.521ZM354.582 395.392C355.43 399.997 351.673 403.148 347.795 404.844C349.492 407.389 350.704 410.176 350.825 413.206C350.946 415.266 350.219 417.568 348.522 418.901C346.947 420.234 344.766 420.598 342.827 419.992C338.464 418.659 336.768 414.054 336.525 409.691C335.314 410.297 333.859 410.54 332.405 410.419C327.921 410.176 323.438 406.541 323.922 401.693C324.286 398.785 325.982 396.361 328.891 395.513C330.709 395.028 332.526 395.15 334.102 395.998C333.375 393.332 333.132 390.545 334.223 388C335.919 384.122 340.888 383.274 344.039 386.061C345.493 387.394 346.099 388.969 346.099 390.545C349.856 389.575 353.855 391.393 354.582 395.392ZM349.492 394.059C349.371 394.059 349.492 394.059 349.492 394.059V394.059ZM337.616 389.696C337.737 389.575 337.737 389.575 337.616 389.696V389.696ZM345.008 416.72C345.251 416.72 345.251 416.72 345.008 416.72V416.72ZM346.583 415.872C346.462 415.993 346.462 415.993 346.583 415.872V415.872ZM351.067 396.846C351.067 396.725 351.067 396.483 351.067 396.361C351.067 396.361 351.067 396.361 351.067 396.24C351.067 396.119 350.946 395.998 350.946 395.755L350.825 395.513C350.825 395.392 350.704 395.271 350.704 395.271C350.583 395.15 350.583 395.028 350.462 394.907C350.583 395.028 350.583 395.028 350.34 394.786C350.219 394.665 350.098 394.544 349.977 394.422C349.855 394.301 349.734 394.301 349.613 394.18C349.613 394.18 349.613 394.18 349.492 394.18C349.371 394.18 349.128 394.059 349.007 394.059C348.886 394.059 348.765 394.059 348.765 394.059C348.644 394.059 348.522 394.059 348.401 394.059C348.401 394.059 348.159 394.059 348.038 394.059C347.917 394.059 347.674 394.059 347.674 394.18C347.553 394.18 347.311 394.301 347.189 394.301C347.189 394.301 347.068 394.301 347.068 394.422C346.947 394.544 346.705 394.665 346.583 394.665C346.462 394.665 346.099 395.028 346.099 395.028C345.978 395.149 345.735 395.271 345.614 395.392C345.372 395.513 345.25 395.755 345.129 395.998C344.402 397.573 343.311 399.027 342.342 400.239C341.736 400.966 340.645 400.845 339.918 400.36C339.191 399.754 339.07 398.785 339.434 398.058C340.161 396.604 341.009 395.028 342.221 393.695C342.342 393.574 342.342 393.332 342.342 393.332C342.463 393.089 342.463 392.726 342.585 392.483C342.585 392.362 342.584 392.241 342.706 392.12C342.706 391.878 342.706 391.635 342.706 391.393C342.706 391.15 342.584 390.545 342.706 391.029C342.706 390.908 342.585 390.666 342.585 390.545C342.585 390.423 342.463 390.302 342.463 390.06C342.463 390.06 342.463 389.939 342.342 389.939C342.221 389.817 342.1 389.575 342.1 389.454L341.979 389.333C341.858 389.212 341.736 389.09 341.615 388.969C341.494 388.848 341.251 388.727 341.13 388.727H341.009C340.767 388.727 340.524 388.606 340.282 388.484H340.161C340.04 388.484 339.918 388.484 339.676 388.484C339.555 388.484 339.434 388.606 339.191 388.606H339.07C338.949 388.727 338.828 388.727 338.707 388.848C338.707 388.848 338.707 388.848 338.586 388.969C338.464 389.09 338.343 389.212 338.222 389.333L338.101 389.454C338.101 389.454 338.101 389.333 338.222 389.333L338.101 389.454C338.101 389.454 338.101 389.454 338.101 389.333V389.454C337.979 389.575 337.979 389.696 337.858 389.817C337.858 389.817 337.737 389.939 337.737 390.06C337.616 390.302 337.616 390.423 337.495 390.666C337.495 390.787 337.374 391.029 337.374 391.15C337.374 391.272 337.374 391.514 337.374 391.635C337.374 392.241 337.374 392.726 337.374 393.332C337.374 393.453 337.374 393.453 337.374 393.453C337.374 393.453 337.374 393.453 337.374 393.574C337.374 393.695 337.374 393.938 337.495 394.059C337.616 394.422 337.616 394.665 337.737 395.028C337.98 395.755 338.222 396.483 338.464 397.21C338.828 398.179 338.101 399.149 337.252 399.391C337.131 399.391 337.01 399.391 336.889 399.391C336.768 399.876 336.404 400.239 336.041 400.482C335.071 400.966 334.102 400.603 333.496 399.876C332.648 398.664 330.466 398.785 329.133 399.633C328.527 399.997 328.164 400.482 327.921 401.209C327.8 401.451 327.8 401.693 327.8 401.936C327.679 402.299 327.8 401.936 327.8 402.178C327.8 402.421 327.8 402.542 327.8 402.784C327.8 402.905 327.8 403.026 327.8 403.026C327.8 403.269 327.921 403.39 327.921 403.632L328.043 403.875C328.164 404.238 328.406 404.481 328.527 404.844C328.527 404.965 328.649 404.965 328.649 405.087C328.77 405.208 328.891 405.329 329.012 405.45C329.254 405.692 329.254 405.692 329.618 405.935C330.83 406.783 332.042 407.025 333.617 406.904C333.859 406.904 333.617 406.904 333.981 406.904C334.223 406.904 334.465 406.783 334.586 406.783C335.071 406.662 335.071 406.662 335.435 406.42C336.162 406.056 336.646 405.692 337.252 404.965C338.222 403.754 340.524 404.723 340.403 406.298C340.282 407.874 340.161 409.934 340.403 411.146C340.524 411.873 340.646 412.479 340.888 413.206C340.888 413.327 341.009 413.569 341.13 413.691C341.251 413.933 341.373 414.175 341.494 414.418C341.615 414.66 341.736 414.902 341.979 415.145C341.979 415.266 342.1 415.266 342.1 415.266C342.1 415.266 342.1 415.266 342.221 415.387C342.463 415.629 342.706 415.872 342.948 416.114C343.069 416.235 343.19 416.357 343.312 416.357C343.433 416.478 343.675 416.478 343.796 416.599H343.917C344.039 416.599 344.281 416.72 344.402 416.72H344.523C344.523 416.72 344.524 416.72 344.645 416.72C344.766 416.72 345.008 416.72 345.129 416.72H345.251C345.372 416.72 345.614 416.599 345.735 416.599H345.857C345.978 416.478 346.099 416.478 346.341 416.357C346.341 416.357 346.462 416.357 346.462 416.235C346.584 416.114 346.705 415.993 346.826 415.872L346.947 415.751C346.947 415.751 346.947 415.751 346.947 415.629C347.068 415.508 347.068 415.387 347.189 415.145C347.189 415.145 347.189 415.145 347.189 415.024C347.189 415.024 347.189 415.024 347.189 414.902C347.189 414.781 347.311 414.539 347.311 414.418C347.311 414.296 347.432 413.812 347.432 413.933C347.432 413.812 347.432 413.569 347.432 413.448C347.432 413.206 347.432 412.963 347.432 412.721C347.432 412.6 347.432 412.479 347.432 412.358C346.947 409.449 345.493 407.025 343.675 404.602C342.948 403.632 343.796 402.178 344.766 401.936C346.22 401.572 347.432 401.087 348.644 400.239C349.25 399.876 349.25 399.754 349.734 399.391C349.856 399.27 350.098 399.027 350.219 398.906L350.34 398.785L350.462 398.664C350.583 398.421 350.704 398.3 350.825 398.058L350.946 397.816C351.067 397.573 351.067 397.21 351.188 396.967C351.067 396.967 351.067 396.846 351.067 396.846ZM347.189 412.6C347.189 412.721 347.189 412.842 347.189 412.6V412.6ZM512.362 518.393C511.635 528.33 509.09 538.63 502.789 546.628C500.365 549.658 497.214 552.566 493.579 554.142C490.428 555.596 486.914 556.202 483.52 556.808C471.644 558.989 459.526 560.201 447.408 561.292C434.684 562.382 421.96 563.352 409.114 563.715C395.905 564.079 382.696 562.867 369.73 560.565C355.793 558.141 341.979 554.505 328.527 549.9C323.316 548.083 318.106 546.023 313.137 543.599C310.107 542.145 307.078 540.569 304.412 538.388C303.321 551.355 292.778 562.019 279.206 562.019H279.084H77.5568C66.2868 562.019 56.7134 554.627 53.4415 544.326H48.1095C42.4139 544.326 37.3242 539.963 35.6276 533.541L2.66586 414.296C-0.121356 404.238 6.17993 393.938 15.1475 393.938H154.993C160.325 384.849 166.505 376.245 173.171 368.126C183.471 355.644 195.347 344.495 208.435 335.043C214.373 330.68 220.674 326.681 227.097 323.167C227.218 318.683 227.46 314.078 227.582 309.594C228.188 295.537 228.794 281.48 229.521 267.422C229.884 260.394 230.127 253.486 230.49 246.458C227.097 245.125 223.704 243.792 220.311 242.459C209.162 238.217 198.134 233.855 186.985 229.492C185.41 228.886 185.289 227.19 186.501 226.22C187.591 225.372 188.682 224.524 189.773 223.554C201.648 213.375 211.707 201.135 222.128 189.623C231.217 179.686 240.548 169.628 251.091 161.024C253.273 145.391 280.296 124.063 297.626 136.666C344.16 118.973 380.515 177.747 363.307 216.283C360.762 222.706 357.611 228.886 353.976 234.824C356.278 241.61 355.672 249.487 349.977 256.516C359.187 269.846 378.818 274.693 392.997 265.726C394.936 264.514 397.844 263.423 399.056 265.241C393.239 285.963 368.76 300.384 348.159 304.626C349.128 307.413 350.098 310.2 351.067 312.987C351.673 313.23 352.158 313.351 352.764 313.593C369.73 320.501 385.12 330.316 399.419 341.708C413.477 352.978 426.564 365.338 439.046 378.305C451.043 390.787 462.435 403.996 472.857 417.932C477.946 423.87 482.793 430.171 487.156 436.715C495.881 449.924 502.789 464.466 507.272 479.614C511.15 492.096 513.332 505.305 512.362 518.393ZM260.059 153.995C263.815 151.329 267.693 148.905 271.935 146.966C267.572 148.542 263.452 150.965 260.059 153.995ZM232.914 243.186C233.641 243.428 234.247 244.034 234.247 244.882C234.126 247.548 234.004 250.214 233.883 252.88C233.277 265.605 232.671 278.208 232.187 290.932C231.702 303.05 231.096 315.169 230.733 327.287C238.609 330.074 246.729 332.255 254.969 333.71C287.083 339.405 320.893 334.558 350.098 320.016C348.401 315.29 346.705 310.564 345.129 305.837C340.403 292.265 336.041 278.571 331.799 264.878H331.678C326.71 264.878 321.862 263.423 317.863 260.515C317.015 259.909 316.894 258.818 317.499 257.97C318.105 257.122 319.196 257.001 320.044 257.607C327.679 263.302 339.797 262.212 346.462 255.304C354.582 246.7 352.764 235.915 347.432 229.129C341.979 222.342 331.92 218.101 321.741 224.039C320.893 224.524 319.802 224.281 319.317 223.433C318.833 222.585 319.075 221.494 319.923 220.888C320.893 220.282 321.862 219.797 322.832 219.434C321.741 213.375 320.772 207.316 319.802 201.256C284.295 201.983 265.876 179.928 280.781 147.209C271.571 150.238 263.21 155.934 255.817 161.751C242.487 172.536 230.975 185.26 219.584 197.984C210.616 207.921 201.77 218.464 191.348 226.947C191.59 227.068 191.954 227.19 192.196 227.311C205.648 232.643 219.341 237.975 232.914 243.186ZM214.13 540.569C216.797 540.569 219.22 539.236 221.038 536.813C223.462 533.541 224.31 528.936 223.219 524.694L190.257 405.45C188.924 400.603 185.289 397.331 181.29 397.331H15.2688C12.6028 397.331 10.1792 398.664 8.36141 401.087C5.93774 404.359 5.0894 408.964 6.18005 413.206L39.1418 532.45C40.4748 537.297 44.1105 540.569 48.1095 540.569H214.13ZM211.949 453.923C211.343 453.923 210.737 454.044 210.131 453.923C208.435 453.681 207.344 452.954 206.617 451.984L217.766 492.46C219.584 491.975 221.28 491.49 223.098 491.005C222.613 490.157 222.371 489.066 222.371 487.976C222.128 482.401 228.067 479.372 232.914 479.008C236.307 478.766 239.821 479.493 243.214 478.281C244.669 477.796 245.88 476.827 246.123 475.252C246.365 474.161 246.365 473.07 246.123 471.98C245.274 468.102 240.306 467.253 236.792 466.89C231.944 466.405 226.855 466.769 222.007 465.799C216.554 464.709 211.464 459.619 211.949 453.923ZM218.857 495.853L226.612 523.846C226.976 525.3 227.218 526.754 227.218 528.087C253.878 528.087 276.54 528.087 288.9 528.087C283.69 525.179 278.963 521.18 275.57 516.211C270.965 509.668 268.299 501.185 260.543 497.67C252.909 494.277 244.184 496.459 236.186 496.337C233.035 496.337 229.036 495.732 226.128 493.793C223.704 494.52 221.28 495.126 218.857 495.853ZM300.776 534.147V534.025V533.904C300.776 533.298 300.534 532.814 300.171 532.45C299.322 532.208 298.474 532.086 297.626 531.844C291.93 531.844 262.967 531.844 226.976 531.844C225.764 538.752 220.674 544.326 214.009 544.326H57.1983C60.349 552.566 68.2259 558.383 77.4358 558.383H278.963H279.084C285.144 558.383 290.718 555.96 294.838 551.476C299.201 546.75 301.261 540.448 300.776 534.147ZM306.593 526.27C308.895 523.24 310.835 519.968 312.531 516.696C315.924 510.031 318.348 502.639 319.075 495.247C319.317 491.975 319.438 488.703 318.711 485.431C318.469 484.34 318.227 483.25 317.863 482.038C314.712 477.554 311.44 473.313 307.926 469.314C299.928 459.982 291.082 451.136 281.266 443.744C272.298 436.958 262.24 430.899 251.334 428.233C241.76 425.93 231.823 427.021 223.704 432.716C222.856 433.322 221.886 434.049 221.038 434.776C233.641 431.141 247.213 432.11 259.211 437.685C261.392 438.654 259.453 441.805 257.393 440.836C244.669 434.898 229.278 434.655 216.433 440.351C215.948 440.593 215.585 440.593 215.221 440.472C214.857 440.593 214.494 440.836 214.13 440.957C213.04 441.684 211.949 442.532 211.222 443.623C210.131 445.198 209.041 447.501 209.646 449.318C209.768 449.803 210.131 450.288 210.616 450.409C211.707 450.773 212.797 450.409 213.888 450.045C214.009 450.045 214.009 450.045 214.13 450.045C224.795 437.079 243.214 444.107 254.606 451.984C256.544 453.317 254.727 456.468 252.788 455.135C242.73 448.228 226.127 440.957 216.675 452.59C216.554 452.833 216.312 452.954 216.191 452.954C216.191 452.954 216.191 452.954 216.191 453.075C214.615 456.711 218.129 460.588 221.28 461.921C223.34 462.77 225.764 462.77 228.067 462.891C233.277 463.133 238.973 462.891 243.941 464.709C248.425 466.405 250.849 470.041 250.364 474.888C250.122 476.585 249.879 478.039 248.546 479.372C247.456 480.584 246.123 481.311 244.669 481.795C241.397 482.886 237.882 482.765 234.489 482.644C232.065 482.644 229.4 483.128 227.703 484.946C226.612 486.158 226.128 487.733 226.733 489.066C227.703 491.369 230.611 492.338 232.914 492.581C236.792 493.187 240.912 492.702 244.79 492.46C252.788 491.975 261.028 492.338 267.451 497.792C273.389 502.881 275.691 510.758 280.66 516.575C285.265 522.149 291.566 526.027 298.474 528.087C298.837 528.087 298.959 528.087 298.959 528.087C300.049 528.087 301.14 528.451 301.988 528.936C302.715 529.057 303.442 529.178 304.169 529.299C304.896 528.451 305.745 527.36 306.593 526.27ZM508.121 499.852C506.303 486.037 502.062 472.464 496.124 459.861C489.216 444.956 480.128 431.262 469.221 418.901C468.736 418.295 468.615 417.69 468.857 417.084L467.646 416.72C464.858 412.963 461.95 409.328 458.921 405.814C446.56 390.787 432.987 376.487 418.809 363.157C407.054 352.251 394.814 341.708 381.484 332.74C372.396 326.681 362.822 321.47 352.764 317.35C353.127 318.441 353.491 319.531 353.854 320.622C354.097 321.349 353.855 321.955 353.491 322.318C353.612 322.682 353.733 323.046 353.612 323.409C352.279 329.953 349.25 335.891 345.008 340.981C337.616 349.585 326.831 354.917 315.682 356.129C304.169 357.34 292.536 353.826 283.932 346.07C282.235 344.495 284.78 341.95 286.477 343.525C290.961 347.524 296.293 350.312 302.109 351.766C322.226 356.613 344.523 344.374 349.734 324.257C342.342 327.893 334.586 330.801 326.588 333.225C294.232 342.798 258.726 341.829 226.976 330.074C226.006 329.711 225.643 328.862 225.764 328.014C214.373 334.679 203.709 342.556 194.014 351.402C182.502 361.945 172.322 373.821 163.597 386.667C162.021 389.09 160.446 391.514 158.992 393.938H180.805C186.501 393.938 191.59 398.3 193.287 404.723L205.284 448.349C205.284 446.168 206.132 443.744 207.223 442.047C208.192 440.714 209.283 439.624 210.495 438.654C211.101 438.17 211.828 437.806 212.555 437.442C212.676 437.321 212.918 437.321 213.04 437.2C213.161 437.2 213.403 436.958 213.525 436.958C213.646 436.837 213.888 436.473 214.009 436.352C215.948 434.049 218.251 431.989 220.674 430.171C229.521 423.628 240.669 422.295 251.212 424.718C263.088 427.384 273.995 434.049 283.568 441.32C293.99 449.318 303.442 458.649 311.804 468.829C313.743 471.131 315.682 473.555 317.499 476.1C318.469 473.191 321.014 471.131 323.559 469.435C327.194 467.132 330.83 465.072 335.192 464.224C343.675 462.648 352.158 465.072 360.52 466.648C361.125 466.769 361.61 466.89 362.216 467.011C362.459 467.011 362.701 467.132 362.943 467.132C363.186 467.132 363.549 467.011 363.792 467.011C364.64 466.769 365.367 466.648 366.094 466.405C367.912 465.799 369.851 465.193 371.669 464.466C376.274 462.77 380.878 460.831 385.362 458.892C395.663 454.65 406.085 450.288 416.991 447.501C420.505 446.652 424.383 445.804 428.261 445.44C427.898 444.713 427.413 444.107 427.049 443.502C426.686 443.017 426.322 442.532 425.716 442.047C425.595 441.926 425.595 441.926 425.716 442.047C425.595 441.926 425.474 441.805 425.232 441.684C424.989 441.441 424.747 441.078 424.504 440.714C424.141 440.23 423.777 439.745 423.414 439.381C420.263 435.746 416.385 433.08 412.022 431.02C405.115 427.869 396.632 426.9 390.937 421.567C382.817 414.054 386.211 400.36 388.634 391.272C389.24 388.969 392.754 389.939 392.148 392.241C390.573 398.058 389.119 404.359 389.725 410.419C390.088 414.054 391.3 417.084 393.845 419.386C396.147 421.446 399.541 422.658 402.57 423.749C410.932 426.657 419.172 429.444 425.353 436.231C425.837 436.715 426.201 437.2 426.686 437.806C427.049 438.291 427.776 438.897 427.897 439.503C428.019 439.503 428.019 439.624 428.14 439.624C428.261 439.745 428.382 439.866 428.503 439.866C428.746 440.108 428.988 440.351 429.231 440.593C430.442 442.047 431.412 443.744 432.381 445.44V445.562C436.259 445.683 440.137 446.531 443.409 448.47C447.044 450.651 449.468 454.287 450.68 458.286C451.044 459.377 451.286 460.588 451.407 461.8C451.528 462.77 451.649 463.376 451.165 464.224C450.922 464.709 450.559 465.315 450.195 465.799C448.983 467.375 447.529 468.829 445.469 469.071C441.47 469.556 438.683 465.436 436.865 462.527C434.199 458.286 432.26 453.681 430.079 449.197C429.352 449.197 428.625 449.197 428.019 449.318C417.839 450.167 407.781 453.802 398.329 457.559C389.119 461.194 380.151 465.315 370.82 468.708C369.124 469.314 367.548 469.919 365.73 470.283C365.003 470.525 364.276 470.647 363.67 470.768C361.974 471.131 359.914 470.404 358.338 470.041C350.34 468.465 341.857 466.042 333.738 468.344C330.103 469.435 326.467 471.495 323.559 473.919C321.499 475.615 320.408 477.554 320.772 480.22C321.014 481.795 321.62 483.371 321.862 484.825C322.226 486.4 322.347 487.976 322.468 489.551C322.589 492.944 322.347 496.459 321.741 499.852C320.408 507.002 317.863 514.03 314.349 520.453C312.652 523.604 310.713 526.512 308.532 529.299C307.441 530.632 306.351 531.965 305.139 533.056C304.533 533.541 305.139 533.056 304.775 533.419C304.775 533.419 304.775 533.419 304.654 533.419V533.541C304.775 533.662 304.775 533.783 304.897 534.025C304.897 534.147 305.018 534.147 305.018 534.268C305.018 534.268 305.018 534.268 305.139 534.389C305.26 534.631 305.502 534.753 305.745 534.995C305.987 535.237 306.23 535.48 306.472 535.601C306.714 535.843 306.957 535.964 307.078 536.086C310.229 538.388 313.864 540.206 317.499 541.781C328.648 546.75 340.646 550.264 352.522 553.172C366.215 556.565 380.151 559.11 394.208 559.959C405.479 560.565 416.991 559.837 428.261 559.11C441.107 558.262 453.952 557.171 466.797 555.596C471.887 554.99 477.098 554.263 482.188 553.294C484.127 552.93 486.066 552.566 488.004 552.082C488.732 551.839 489.458 551.718 490.186 551.476C490.549 551.355 490.791 551.233 491.155 551.112C491.276 551.112 491.64 550.87 491.761 550.87C499.032 547.598 503.637 539.842 505.939 532.571C509.454 522.149 509.454 510.758 508.121 499.852ZM363.064 467.011H363.186C362.943 467.011 362.822 467.011 363.064 467.011ZM448.256 462.285C448.256 462.164 448.256 462.164 448.256 462.043C448.135 461.558 448.014 460.952 447.893 460.346C447.65 459.377 447.408 458.286 446.923 457.316C444.621 451.863 439.895 449.682 434.563 449.076C436.017 452.106 437.471 455.135 439.046 458.044C440.016 459.861 440.985 461.558 442.318 463.133C442.803 463.739 443.409 464.345 443.894 464.587C444.015 464.709 444.257 464.83 444.379 464.83C444.621 464.951 444.5 464.83 444.5 464.951C444.621 464.951 444.742 465.072 444.984 465.072C444.984 465.072 444.984 465.072 445.105 465.072C445.227 465.072 445.348 465.072 445.348 465.072C445.469 465.072 445.59 465.072 445.711 464.951C445.711 464.951 445.954 464.83 446.317 464.587C446.681 464.345 447.408 463.376 447.893 462.77C448.014 462.77 448.135 462.527 448.256 462.285ZM448.256 462.285C448.256 462.527 448.378 462.527 448.256 462.285V462.285ZM123.001 459.74C126.03 464.709 126.636 471.616 123.606 476.827C120.577 482.28 113.548 484.946 107.853 482.038C102.884 479.493 100.461 473.434 100.461 468.102C100.461 463.86 101.915 459.861 104.823 457.195C104.944 456.711 105.187 456.347 105.672 455.983C108.701 453.923 112.458 452.833 115.972 453.802C118.881 454.772 121.425 457.074 123.001 459.74ZM119.123 460.467C117.79 458.771 116.214 457.68 114.154 457.195C113.427 457.074 112.094 457.074 111.125 457.316C111.004 457.316 111.003 457.316 110.882 457.438C110.64 457.68 110.398 457.801 110.155 457.922C105.308 459.74 103.49 465.072 104.096 469.92C104.338 471.858 105.066 474.04 106.277 475.857C107.247 477.433 108.822 478.766 110.519 479.251C112.458 479.857 114.76 479.614 116.82 478.645C118.88 477.554 120.456 475.494 121.183 473.434C122.758 469.192 121.91 463.982 119.123 460.467ZM276.903 344.495C277.873 342.435 274.722 340.496 273.753 342.677C269.996 350.554 262.482 355.523 254 356.856C246.486 358.067 238.003 356.007 233.035 349.948C229.884 346.191 228.794 341.344 228.915 336.497C228.915 334.194 225.279 334.194 225.279 336.497C225.158 341.465 226.249 346.555 229.157 350.796C231.702 354.553 235.338 357.219 239.579 358.916C248.062 362.309 258.12 360.976 265.876 356.371C270.723 353.584 274.601 349.463 276.903 344.495ZM267.208 271.785V271.906V271.785ZM242.124 218.464C243.214 218.707 243.941 218.101 244.305 217.253C245.759 213.617 247.335 209.86 248.789 206.225C249.152 205.377 248.425 204.165 247.577 204.044C246.486 203.801 245.759 204.407 245.396 205.255C243.941 208.891 242.366 212.648 240.912 216.283C240.548 217.131 241.275 218.222 242.124 218.464ZM264.179 274.209C262.482 271.421 264.542 267.786 267.208 266.453C268.057 265.968 269.026 265.726 269.996 265.605C270.238 262.09 274.116 259.667 277.388 259.424C279.327 259.303 281.387 260.03 282.72 261.363C283.326 261.969 283.811 262.817 284.174 263.666C286.477 260.878 288.294 257.607 289.385 254.092C290.112 251.911 293.627 252.88 292.9 255.062C291.688 258.94 289.627 262.575 287.204 265.726C287.567 265.968 287.81 266.332 287.931 266.695C288.9 269.604 289.143 272.754 288.658 275.784C287.931 279.783 285.265 284.024 280.902 284.752C275.934 285.6 272.177 281.843 269.753 277.965C265.876 279.177 261.755 279.783 257.514 279.541C255.211 279.42 255.211 275.784 257.514 275.905C260.18 276.026 262.725 275.784 265.27 275.299C264.785 275.057 264.421 274.693 264.179 274.209ZM267.208 272.391C267.33 272.512 267.451 272.633 267.208 272.391V272.391ZM282.599 270.573C279.812 273.118 276.54 275.178 273.025 276.632C273.51 277.359 273.995 277.965 274.479 278.571C274.964 279.056 275.328 279.42 275.813 279.904C275.813 279.904 275.813 279.904 275.934 280.025C276.055 280.147 276.176 280.147 276.176 280.268C276.419 280.389 276.661 280.631 276.903 280.753C277.024 280.874 277.146 280.874 277.267 280.995C277.267 280.995 277.388 280.995 277.388 281.116C277.509 281.116 277.751 281.237 277.873 281.237C278.115 281.237 278.236 281.358 278.479 281.358C278.479 281.358 278.842 281.358 278.842 281.48C278.963 281.48 279.206 281.48 279.327 281.48C279.448 281.48 279.691 281.48 279.812 281.48H279.933C280.054 281.48 280.296 281.358 280.418 281.358C280.539 281.358 280.902 281.237 280.902 281.237C281.023 281.237 281.145 281.116 281.266 281.116C281.387 280.995 281.629 280.995 281.75 280.874C281.75 280.874 281.993 280.753 281.993 280.631L282.114 280.51C282.235 280.389 282.235 280.389 282.356 280.268C282.478 280.147 282.599 280.025 282.72 279.904C282.841 279.783 282.962 279.662 282.962 279.541C282.962 279.541 283.205 279.298 283.205 279.177C283.447 278.814 283.689 278.329 283.932 277.965C283.932 277.844 284.053 277.602 284.174 277.602C284.295 277.481 284.296 277.238 284.417 277.117C284.538 276.632 284.659 276.148 284.78 275.663C284.901 275.178 284.901 274.815 285.023 274.572C285.144 272.876 285.022 271.421 284.78 269.967C284.538 270.573 283.811 271.058 283.084 271.058C282.962 270.694 282.841 270.694 282.599 270.573ZM273.51 266.089C273.51 266.211 273.51 266.332 273.51 266.453C275.086 267.301 276.419 268.634 277.388 270.088C278.721 269.119 280.054 268.028 281.266 266.938C281.145 266.453 281.023 265.847 280.902 265.362V265.241C280.902 265.12 280.781 265.12 280.781 264.999C280.66 264.756 280.539 264.635 280.418 264.393C280.296 264.272 280.296 264.272 280.296 264.272L280.175 264.15C280.054 264.029 279.933 263.908 279.69 263.787C279.569 263.787 279.569 263.666 279.448 263.666C279.327 263.545 279.206 263.545 278.963 263.423H278.842C278.721 263.423 278.479 263.302 278.358 263.302H278.236C278.115 263.302 277.873 263.302 277.752 263.302C277.63 263.302 277.388 263.302 277.267 263.302H277.146C276.782 263.423 276.419 263.423 276.176 263.545C276.055 263.545 276.055 263.545 275.934 263.666C275.813 263.787 275.691 263.787 275.57 263.908C275.328 264.029 274.964 264.272 274.722 264.393L274.601 264.514C274.48 264.635 274.358 264.756 274.237 264.878C274.237 264.878 274.116 264.999 273.995 265.12C273.995 265.241 273.874 265.241 273.874 265.362C273.752 265.483 273.752 265.605 273.631 265.726V265.847C273.631 265.726 273.51 265.847 273.51 266.089ZM269.996 269.361C270.117 269.361 270.117 269.361 270.117 269.361H269.996ZM267.087 271.906V272.027V272.149C266.966 272.027 267.087 272.027 267.087 272.149V272.27C267.087 272.27 267.087 272.27 267.087 272.149C267.209 272.27 267.209 272.27 267.33 272.391C267.451 272.512 267.572 272.512 267.693 272.633C268.057 272.754 268.299 272.754 268.663 272.876C268.784 272.876 268.905 272.876 269.026 272.876C269.269 272.876 269.39 272.876 269.632 272.876C270.117 272.876 270.602 273.118 270.844 273.36C271.935 272.876 272.904 272.391 273.995 271.906C272.783 271.179 271.571 270.331 270.844 269.119C270.844 269.119 270.844 269.119 270.723 269.119C270.602 269.119 270.481 269.119 270.359 269.119C270.238 269.119 270.117 269.119 269.996 269.119H269.875C269.754 269.119 269.147 269.24 269.026 269.361C269.026 269.361 269.39 269.119 269.148 269.24C269.148 269.24 269.026 269.24 269.026 269.361C268.905 269.361 268.784 269.482 268.663 269.604C268.542 269.725 268.421 269.725 268.299 269.846C268.057 269.967 267.936 270.21 267.814 270.331C267.814 270.331 267.815 270.331 267.693 270.452C267.693 270.573 267.572 270.573 267.572 270.694C267.451 270.816 267.451 270.937 267.451 271.058C267.451 271.179 267.33 271.3 267.33 271.421C267.209 271.664 267.087 271.664 267.087 271.906ZM252.182 220.161C253.273 220.403 254 219.797 254.363 218.949C255.696 215.556 256.908 212.163 258.241 208.891C258.605 208.043 257.877 206.831 257.029 206.71C255.939 206.467 255.211 207.073 254.848 207.921C253.515 211.315 252.303 214.708 250.97 217.98C250.607 218.707 251.334 219.919 252.182 220.161ZM254.848 178.959C255.817 178.959 256.666 178.959 257.635 178.959C258.12 178.959 258.605 178.716 258.968 178.474C259.332 178.11 259.574 177.626 259.453 177.141C259.453 176.656 259.332 176.171 258.968 175.808C258.605 175.444 258.12 175.323 257.635 175.323C256.666 175.323 255.817 175.323 254.848 175.323C254.363 175.323 253.879 175.566 253.515 175.808C253.151 176.171 252.909 176.656 253.03 177.141C253.03 177.626 253.151 178.11 253.515 178.474C253.879 178.837 254.363 178.959 254.848 178.959Z" fill="#DCDCDC"/>
<path d="M101.569 145.118C99.5233 143.617 101.569 140.071 103.615 141.571C118.072 152.346 132.53 163.257 147.123 174.032C149.169 175.532 147.123 179.078 145.077 177.578C130.62 166.667 116.026 155.892 101.569 145.118ZM146.168 146.618C153.943 153.846 161.717 161.075 169.627 168.304C171.537 170.077 174.401 167.213 172.491 165.439C164.717 158.211 156.943 150.982 149.032 143.754C147.123 141.981 144.259 144.845 146.168 146.618ZM453.725 199.264C466.818 189.58 480.048 179.897 493.141 170.213C495.187 168.713 493.141 165.167 491.095 166.667C478.002 176.351 464.772 186.034 451.679 195.718C449.497 197.354 451.543 200.901 453.725 199.264ZM467.773 213.448C474.047 210.584 480.32 207.856 486.594 204.992C487.549 204.583 487.822 203.083 487.276 202.128C486.731 201.037 485.503 200.901 484.412 201.446C478.138 204.31 471.865 207.038 465.591 209.902C464.636 210.311 464.363 211.812 464.909 212.766C465.591 213.721 466.818 213.857 467.773 213.448ZM117.663 188.08C120.8 189.58 123.937 191.217 127.074 192.717C128.029 193.263 129.392 192.99 129.938 192.035C130.484 191.081 130.211 189.717 129.256 189.171C126.119 187.671 122.982 186.034 119.845 184.534C118.891 183.988 117.527 184.261 116.981 185.216C116.436 186.171 116.572 187.534 117.663 188.08Z" fill="#DCDCDC"/>
</svg>
