<svg width="600" height="564" viewBox="0 0 600 564" fill="none" xmlns="http://www.w3.org/2000/svg">
<path d="M136.209 440.228C179.229 321.59 -5.33272 311.895 107.125 226.704C125.666 213.616 146.873 200.043 152.811 178.23C158.386 157.629 148.691 136.18 148.57 114.73C164.687 -1.48447 303.684 24.4487 378.818 70.8619C409.235 86.131 443.53 106.732 447.044 140.542C448.377 153.751 444.62 167.445 448.983 180.048C472.493 226.582 543.991 205.012 555.867 290.931C562.532 386.544 467.767 375.032 444.378 434.896" fill="#F4F6F9"/>
<path d="M471.402 418.779C444.863 383.151 409.114 349.826 385.483 333.345C373.607 324.983 361.61 318.803 349.734 314.198C343.917 297.474 338.464 281.115 333.011 263.058C338.464 262.695 343.796 260.513 347.553 256.636C362.095 241.124 348.038 218.221 330.102 219.554C332.768 198.831 337.131 177.988 325.134 159.689C275.933 105.399 221.886 201.618 187.47 227.552C187.47 227.552 217.523 239.306 232.308 245.002C232.308 245.002 229.641 299.777 228.793 324.013C198.376 340.737 173.17 366.428 156.931 393.815H14.9048C5.93723 393.815 -0.364359 404.116 2.42286 414.174L35.3849 533.418C37.2027 539.841 42.171 544.203 47.8666 544.203H53.1988C56.4708 554.383 66.0441 561.896 77.3142 561.896H278.842C293.263 562.017 304.29 550.02 304.29 535.963C313.379 545.294 365.488 561.896 402.206 561.896C426.443 561.896 484.611 556.807 493.094 552.202C521.33 536.932 516.724 470.766 471.402 418.779ZM227.218 528.086C227.218 526.632 226.975 525.299 226.612 523.845L218.372 494.155C221.159 493.306 223.825 492.579 226.491 491.973C227.824 493.064 229.763 494.034 232.55 494.397C243.335 495.488 255.211 491.125 264.906 498.154C270.601 502.274 273.146 509.303 277.024 515.119C281.023 520.815 286.598 525.299 292.899 528.086C282.114 528.086 257.15 528.086 227.218 528.086ZM304.29 531.6C304.169 531.722 304.169 531.722 304.048 531.843C303.927 531.6 303.927 531.479 303.806 531.237C304.048 531.237 304.29 531.358 304.654 531.358C304.412 531.479 304.412 531.479 304.29 531.6Z" fill="white"/>
<path d="M111.73 213.616L56.1067 230.339C46.8968 233.126 37.3233 227.915 34.5361 218.706C31.2641 204.164 15.0257 175.928 37.6869 168.899L93.3099 152.176C102.52 149.389 112.093 154.6 114.881 163.81C118.153 178.352 134.391 206.587 111.73 213.616Z" fill="#FFE945"/>
<path d="M30.416 183.684C42.8979 190.833 55.622 197.741 68.4674 204.164C70.0428 205.012 71.6184 205.739 73.1937 206.466C74.5267 207.193 75.9809 208.041 77.4351 208.405C79.7376 208.89 82.1614 208.405 83.8579 206.83C84.8274 205.86 85.3119 204.769 85.7967 203.558C86.5238 201.861 87.3721 200.165 88.2203 198.468C89.7957 195.075 91.3713 191.803 92.9467 188.41C96.461 180.775 100.096 173.262 103.611 165.627C104.58 163.567 101.429 161.628 100.46 163.81C94.522 176.413 88.7051 188.894 82.7671 201.498C81.7976 203.436 81.0707 205.618 78.4047 205.012C77.1928 204.769 76.1021 203.921 75.0115 203.436C73.4361 202.709 71.8605 201.861 70.2852 201.134C64.226 198.104 58.1668 194.954 52.1077 191.682C45.4426 188.046 38.7776 184.411 32.2337 180.533C30.1736 179.442 28.3559 182.593 30.416 183.684Z" fill="black"/>
<path d="M276.418 39.3543C275.57 91.8266 197.528 91.8266 196.558 39.3543C197.407 -13.1181 275.449 -13.1181 276.418 39.3543Z" fill="#FEAABC"/>
<path d="M250.364 29.175C247.092 23.237 238.73 22.6311 234.004 27.2361C231.702 29.5386 230.853 32.6893 231.217 35.7189C230.247 34.5071 228.914 33.5376 227.339 33.0529C224.915 32.3258 222.007 32.8105 219.947 34.2647C217.765 35.8401 216.19 38.2638 216.311 41.051C216.432 44.6865 219.099 47.3525 222.007 49.2914C224.188 50.7456 226.733 51.7151 229.278 52.5634C232.792 53.7752 236.306 54.5023 239.942 55.1082C241.154 55.3506 242.245 55.4718 243.456 55.593C244.426 55.7141 245.274 54.6235 245.274 53.7752C245.274 53.4117 245.153 53.1693 245.032 52.9269C245.395 48.8067 247.94 45.2924 249.637 41.6569C251.697 37.779 252.666 33.2952 250.364 29.175ZM246.001 41.1722C244.304 44.5653 242.244 47.9584 241.517 51.8363C238.609 51.3515 235.579 50.7456 232.671 50.0185C231.338 49.655 229.884 49.1702 228.551 48.6855C228.308 48.5643 227.945 48.4431 227.703 48.322H227.581C227.46 48.2008 227.218 48.2008 227.097 48.0796C226.612 47.8372 226.127 47.5949 225.643 47.3525C224.794 46.8678 223.946 46.383 223.098 45.7771C223.098 45.7771 222.734 45.5348 222.976 45.6559C223.219 45.8983 222.976 45.6559 222.855 45.5348C222.734 45.4136 222.492 45.2924 222.37 45.1712C222.128 44.9288 221.764 44.6865 221.522 44.3229C221.401 44.2017 221.28 44.0806 221.158 43.9594L221.037 43.8382C220.916 43.5958 220.674 43.3535 220.553 42.9899C220.431 42.8687 220.431 42.7475 220.31 42.6264C220.189 42.384 220.068 42.1416 220.068 41.7781C220.068 41.6569 220.068 41.6569 220.068 41.5357C220.068 41.5357 220.068 41.5357 220.068 41.4145C220.068 41.1722 220.068 40.9298 220.068 40.6874V40.8086V40.6874C220.068 40.4451 220.068 40.5662 220.068 40.6874C220.068 40.5662 220.068 40.5662 220.068 40.4451C220.068 40.2027 220.189 39.9603 220.31 39.718C220.31 39.5968 220.432 39.4756 220.432 39.4756C220.553 39.2332 220.674 38.9909 220.795 38.8697C220.916 38.7485 220.916 38.7485 221.037 38.6273C221.159 38.3849 221.401 38.2638 221.522 38.1426C221.643 38.0214 221.643 38.0214 221.764 37.9002C222.007 37.779 222.128 37.6578 222.37 37.5367C222.613 37.4155 222.734 37.2943 222.976 37.1731C223.097 37.1731 223.219 37.0519 223.34 37.0519C223.582 36.9307 223.825 36.9307 224.067 36.8096C224.188 36.8096 224.188 36.8096 224.309 36.8096C224.309 36.8096 224.309 36.8096 224.431 36.8096C224.673 36.8096 224.915 36.8096 225.158 36.8096C225.279 36.8096 225.4 36.8096 225.521 36.8096C225.764 36.8096 226.006 36.9307 226.248 36.9307C226.37 36.9307 226.491 37.0519 226.612 37.0519C226.854 37.1731 227.097 37.2943 227.339 37.4155C227.46 37.4155 227.46 37.5367 227.581 37.5367C227.581 37.5367 227.703 37.5367 227.703 37.6578C227.945 37.9002 228.187 38.0214 228.308 38.2638L228.429 38.3849C228.429 38.5061 228.551 38.6273 228.672 38.6273C228.914 38.8697 229.036 39.2332 229.157 39.4756C229.278 39.5968 229.278 39.718 229.399 39.8391C229.399 39.9603 229.399 39.9603 229.52 40.0815C229.642 40.4451 229.763 40.8086 229.884 41.2933C230.126 42.2628 231.217 42.8687 232.065 42.5052C233.034 42.2628 233.64 41.1722 233.277 40.3239C233.156 39.9603 233.035 39.5968 232.914 39.2332C234.125 39.4756 235.579 38.5061 235.095 37.0519C234.852 36.3248 234.731 35.7189 234.61 34.9918C234.61 34.2647 234.61 33.6588 234.731 33.1741C234.974 32.0834 235.458 30.9928 236.185 30.3869C237.761 28.6903 239.821 27.842 242.123 27.9632C243.093 27.9632 244.062 28.3267 245.032 28.9326C246.001 29.5386 246.728 30.3869 247.334 31.4775C249.031 34.6283 247.576 38.1426 246.001 41.1722Z" fill="black"/>
<path d="M221.037 43.7168C221.159 43.7168 221.159 43.7168 221.037 43.7168C221.159 43.838 221.158 43.838 221.158 43.838C221.28 43.838 221.159 43.7168 221.037 43.7168Z" fill="black"/>
<path d="M427.776 127.212C430.079 126.848 431.048 130.363 428.746 130.726C423.898 131.574 418.93 131.453 414.083 130.968C409.114 130.484 404.024 129.635 399.177 128.181C394.936 126.848 390.694 125.152 387.301 122.243C384.514 119.82 382.696 116.548 383.181 112.791C383.908 107.822 387.786 103.823 391.542 100.794C391.421 101.279 391.179 101.642 391.058 102.127C390.937 99.4608 390.088 97.2795 388.634 95.0982C387.543 93.5229 386.331 91.9475 385.968 90.0085C385.604 87.7061 386.574 85.6459 388.028 83.8282C389.119 82.4952 390.331 81.2833 391.664 80.0715C391.906 79.8291 392.391 79.5868 392.633 79.2232C392.875 78.9809 392.875 78.1326 392.875 77.769C393.118 76.9207 393.36 76.0725 393.602 75.2242C395.178 70.0133 398.086 64.9236 402.933 62.2576C412.992 56.8043 425.11 63.3482 433.229 69.4074C432.381 70.1345 431.412 70.7404 430.563 71.4675C429.594 65.5295 430.806 59.1068 433.229 53.5324C435.168 48.9274 438.683 43.9589 444.015 43.1106C445.348 42.8683 446.681 42.9894 448.014 43.2318C449.589 43.5954 450.437 44.2013 451.407 45.5343C452.619 47.352 453.103 49.7757 453.103 51.957C453.103 57.2891 451.164 62.3788 451.164 67.7108C451.043 75.4665 455.042 81.6469 460.738 86.7366C462.556 88.312 459.89 90.8568 458.193 89.2814C452.134 83.9494 447.892 77.2843 447.529 69.165C447.287 63.9541 448.862 58.9856 449.347 53.8959C449.468 52.1994 449.589 50.2604 448.983 48.5639C448.741 48.0791 448.377 47.5944 448.135 47.1097C448.014 46.8673 447.65 46.7461 448.256 47.1097C448.014 46.9885 447.65 46.9885 447.287 46.8673C446.438 46.6249 445.469 46.6249 444.621 46.8673C440.258 47.7156 437.592 52.5629 436.259 56.4408C434.683 60.8034 433.593 66.0143 434.32 70.6192C434.562 71.9522 433.108 73.77 431.654 72.6793C423.777 66.7414 409.841 58.9856 401.479 68.4379C399.783 70.3769 398.571 72.9217 397.723 75.3454C397.117 77.0419 396.753 78.6173 396.39 80.3139C396.026 82.0104 393.966 83.1011 392.754 84.4341C391.421 85.7671 389.725 87.5849 389.846 89.4026C389.846 89.7662 390.209 90.4933 390.573 90.978C390.936 91.7051 391.421 92.311 391.906 93.0381C393.118 94.8559 394.087 96.7948 394.572 98.8549C394.814 100.188 395.42 102.248 394.451 103.339C393.602 104.308 392.391 105.035 391.542 106.005C390.088 107.459 388.634 109.155 387.786 111.094C387.18 112.306 386.937 113.882 387.059 114.851C387.543 117.638 389.846 119.698 392.391 121.274C395.784 123.334 399.783 124.546 403.661 125.515C411.053 127.454 420.02 128.545 427.776 127.212ZM449.347 137.755C450.922 129.151 452.74 120.547 455.891 112.306C457.466 108.186 459.526 104.066 462.435 100.794C463.646 99.4608 464.979 98.1278 466.676 97.2795C467.403 96.916 468.13 96.5524 468.857 96.3101C469.827 96.0677 470.796 96.4313 471.645 96.916C475.522 99.0973 476.007 104.551 475.765 108.428C475.522 110.973 475.159 113.276 474.674 115.942C473.22 123.334 471.16 130.847 467.766 137.512C466.312 140.421 464.373 143.693 461.707 145.389C460.495 146.116 459.647 146.48 458.314 146.359C457.224 146.238 455.769 145.632 454.558 144.662C452.74 143.208 450.195 145.753 452.013 147.207C467.161 159.204 475.28 129.151 477.461 119.456C479.037 112.185 481.339 102.975 476.492 96.4312C474.917 94.3711 472.856 92.9169 470.311 92.4322C468.13 92.0687 465.828 93.1593 464.01 94.3711C460.132 96.916 457.345 100.794 455.164 104.914C450.074 114.73 447.771 125.758 445.711 136.543C445.469 139.088 448.983 140.057 449.347 137.755Z" fill="black"/>
<path d="M580.346 343.039L509.817 354.673C496.729 356.854 484.247 347.887 482.066 334.799C479.036 314.803 468.493 284.75 497.335 278.933L567.864 267.3C580.951 265.118 593.433 274.086 595.614 287.174C598.644 307.169 609.187 337.222 580.346 343.039Z" fill="#9ED5F0"/>
<path d="M520.966 296.141C523.026 302.564 524.48 309.108 525.813 315.652C526.541 319.772 527.146 323.892 528.358 327.891C529.085 330.315 530.418 332.981 533.205 333.466C536.356 333.951 539.507 331.648 541.931 330.073C548.596 325.589 554.655 320.378 560.835 315.288C561.562 314.682 561.441 313.349 560.835 312.743C552.474 303.897 541.446 297.474 529.57 294.687C527.268 294.202 526.298 297.717 528.601 298.201C539.992 300.868 550.293 306.806 558.291 315.288C558.291 314.44 558.291 313.592 558.291 312.743C552.959 317.106 547.505 321.59 541.931 325.71C540.356 326.922 538.659 328.013 536.962 328.982C536.599 329.103 536.356 329.346 535.993 329.467C535.75 329.588 535.872 329.588 535.387 329.709C535.144 329.83 534.902 329.83 534.66 329.952C534.539 329.952 534.418 329.952 534.296 330.073C534.66 330.073 534.539 330.073 534.296 330.073C534.175 330.073 533.569 330.073 533.811 330.073C534.054 330.073 533.569 329.952 533.448 329.952C533.933 330.194 533.448 329.952 533.327 329.83C533.812 330.194 533.327 329.709 533.084 329.588C532.842 329.346 533.206 329.83 533.084 329.588C532.963 329.467 532.963 329.346 532.842 329.346C532.721 329.103 532.6 328.861 532.479 328.618C532.236 328.134 532.479 328.618 532.236 328.134C532.115 327.77 531.994 327.528 531.873 327.164C530.782 323.529 530.297 319.651 529.57 315.894C528.237 308.987 526.662 302.079 524.602 295.293C523.753 292.991 520.239 293.96 520.966 296.141Z" fill="black"/>
<path d="M179.593 141.39C178.987 140.541 179.472 139.451 180.199 138.845C181.047 138.239 182.138 138.724 182.743 139.451C182.865 139.693 182.986 139.935 183.228 140.057C182.865 139.693 183.35 140.178 183.471 140.299C183.713 140.663 183.955 140.905 184.319 141.147C184.44 141.269 184.682 141.39 184.804 141.511C184.682 141.39 184.561 141.269 184.804 141.511L184.925 141.632C185.167 141.874 185.531 141.996 185.894 142.117C186.016 142.117 186.016 142.238 186.137 142.238C186.5 142.359 185.652 142.117 186.015 142.238C186.137 142.238 186.258 142.359 186.379 142.359C186.621 142.48 186.985 142.48 187.349 142.602C186.985 142.48 186.985 142.602 187.227 142.602C187.348 142.602 187.349 142.602 187.47 142.602C187.591 142.602 187.712 142.602 187.954 142.602C188.076 142.602 188.197 142.602 188.318 142.602C188.439 142.602 188.803 142.602 188.439 142.602C188.076 142.602 188.318 142.602 188.439 142.602C188.681 142.602 188.924 142.48 189.166 142.359C189.287 142.359 189.409 142.238 189.53 142.238H189.651C189.893 142.117 189.409 142.359 189.409 142.359C189.651 142.238 189.893 142.117 190.136 141.996C190.378 141.874 190.621 141.753 190.742 141.632C190.984 141.511 190.378 141.874 190.62 141.753L190.742 141.632C190.863 141.511 190.984 141.511 191.105 141.39C191.227 141.269 191.469 141.026 191.59 140.905C191.711 140.784 191.832 140.663 191.954 140.541C192.075 140.299 191.711 140.905 191.954 140.541C192.075 140.299 192.196 140.057 192.317 139.936C192.438 139.693 192.559 139.451 192.68 139.208C192.802 138.966 192.559 139.451 192.559 139.451C192.559 139.33 192.68 139.33 192.68 139.208C192.68 139.087 192.802 138.966 192.802 138.845C192.923 138.602 192.923 138.36 193.044 137.997C193.044 137.754 193.044 137.391 193.044 137.997C193.044 137.875 193.044 137.754 193.044 137.633C193.044 137.391 193.044 137.148 193.044 136.785C193.044 136.664 193.044 136.542 193.044 136.421C193.044 136.179 193.165 136.906 193.044 136.664V136.542C193.044 136.3 192.923 135.936 192.802 135.694C192.802 135.573 192.559 135.209 192.802 135.694C192.681 135.573 192.681 135.452 192.559 135.331C192.438 135.088 192.317 134.846 192.075 134.603L191.954 134.482C191.711 134.24 192.196 134.725 192.075 134.603C191.953 134.482 191.832 134.361 191.832 134.24C191.59 133.998 191.348 133.755 191.105 133.513C190.984 133.513 190.984 133.392 190.863 133.392C190.863 133.392 191.226 133.634 190.984 133.513C190.863 133.392 190.621 133.27 190.499 133.149C190.136 132.907 189.772 132.786 189.409 132.543C189.287 132.422 189.045 132.422 188.924 132.301C188.803 132.301 188.682 132.18 188.682 132.18C189.045 132.301 188.803 132.18 188.682 132.18C188.56 132.18 188.56 132.18 188.439 132.18C188.56 132.18 188.56 132.18 188.682 132.18C188.56 132.18 188.439 132.18 188.318 132.18C188.076 132.18 187.954 132.18 187.712 132.18C187.591 132.18 187.47 132.18 187.349 132.18C187.349 132.18 187.833 132.059 187.47 132.18C187.227 132.18 186.985 132.301 186.864 132.301C186.622 132.301 186.379 132.422 186.258 132.543C185.894 132.665 186.5 132.422 186.258 132.543C186.137 132.543 186.016 132.665 185.894 132.665C185.531 132.907 185.167 133.028 184.804 133.27C184.44 133.513 185.046 133.028 184.683 133.27C184.561 133.392 184.44 133.392 184.319 133.513C184.198 133.634 184.077 133.755 183.955 133.876C183.834 133.998 183.592 134.24 183.471 134.361C183.228 134.725 183.592 134.119 183.471 134.361C183.35 134.482 183.35 134.603 183.228 134.603C182.986 134.967 182.622 135.452 182.622 135.815C182.744 135.452 182.744 135.694 182.622 135.694C182.622 135.815 182.501 135.936 182.501 136.058C182.38 136.3 182.38 136.421 182.38 136.664C182.38 136.785 182.38 136.906 182.259 137.027C182.138 137.512 182.259 136.664 182.259 137.027C182.259 137.148 182.259 137.391 182.259 137.512C182.259 137.633 182.38 138.118 182.259 138.239C182.259 138.118 182.138 137.875 182.259 138.118C182.259 138.239 182.259 138.36 182.38 138.481C182.622 139.451 182.138 140.42 181.168 140.663C180.32 140.905 179.108 140.299 178.987 139.451C177.775 134.119 182.016 128.908 187.227 128.302C187.712 128.302 188.197 128.181 188.682 128.302C189.409 128.423 190.015 128.544 190.742 128.908C191.469 129.271 192.196 129.635 192.923 130.12C194.377 131.21 195.468 132.543 196.195 134.24C197.286 136.785 196.68 139.936 195.104 142.117C193.408 144.54 190.863 146.116 187.954 146.237C184.44 146.601 181.532 144.177 179.593 141.39ZM565.077 459.011C567.016 461.677 569.803 463.737 573.196 463.495C576.104 463.252 578.649 461.677 580.346 459.374C581.921 457.193 582.527 454.164 581.679 451.619C581.194 450.165 580.225 448.71 579.013 447.741C578.164 447.014 577.316 446.408 576.347 446.044C575.498 445.681 574.529 445.56 573.559 445.56C569.197 445.56 564.713 448.71 564.107 453.194C563.986 454.164 564.349 455.133 565.319 455.375C566.167 455.618 567.379 455.133 567.5 454.164C567.5 453.8 567.621 453.437 567.743 453.073C567.743 452.952 567.743 452.952 567.864 452.831C567.864 452.709 567.864 452.709 567.864 452.952C567.864 452.831 568.106 452.588 568.106 452.346C568.227 452.225 568.227 452.104 568.348 451.861C568.348 451.74 568.47 451.74 568.47 451.619C568.712 451.376 568.47 451.619 568.47 451.74C568.591 451.376 569.076 451.013 569.318 450.892C569.318 450.892 569.803 450.528 569.56 450.649C569.318 450.892 569.682 450.528 569.682 450.528C569.803 450.528 569.803 450.407 569.924 450.407C570.287 450.165 570.651 450.043 570.893 449.801C571.015 449.801 571.015 449.68 571.136 449.68C570.772 449.801 570.894 449.801 571.015 449.68C571.257 449.559 571.378 449.559 571.621 449.437C571.863 449.437 571.984 449.316 572.227 449.316C572.348 449.316 572.348 449.316 572.469 449.316C572.59 449.316 572.953 449.195 572.59 449.316C572.348 449.437 572.711 449.316 572.711 449.316C572.832 449.316 572.832 449.316 572.954 449.316C573.075 449.316 573.317 449.316 573.438 449.316C573.56 449.316 573.802 449.316 573.923 449.316C574.287 449.316 573.681 449.195 573.923 449.316C574.044 449.316 574.165 449.316 574.287 449.316C574.529 449.316 574.65 449.437 574.893 449.437C575.014 449.437 575.499 449.68 575.256 449.559C575.014 449.437 575.377 449.68 575.377 449.68C575.498 449.68 575.498 449.801 575.619 449.801C575.741 449.922 575.983 450.043 576.104 450.165C576.226 450.286 576.347 450.286 575.983 450.165C576.104 450.165 576.104 450.286 576.225 450.286C576.347 450.407 576.468 450.528 576.589 450.649C576.831 450.892 577.074 451.134 577.316 451.376L577.437 451.498C577.558 451.619 577.195 451.134 577.316 451.376C577.437 451.498 577.437 451.619 577.559 451.74C577.68 451.982 577.801 452.225 578.043 452.467C578.286 452.831 577.922 452.225 578.043 452.467C578.043 452.588 578.164 452.709 578.164 452.831C578.286 453.073 578.286 453.315 578.407 453.679C578.528 454.042 578.407 453.194 578.407 453.679C578.407 453.8 578.407 453.921 578.407 454.042C578.407 454.285 578.407 454.527 578.407 454.891C578.407 455.375 578.528 454.527 578.407 454.891C578.407 455.012 578.407 455.133 578.286 455.254C578.286 455.497 578.164 455.739 578.043 456.103C578.043 456.224 577.922 456.345 577.922 456.466C577.801 456.708 578.165 456.103 577.922 456.466C577.801 456.708 577.68 456.951 577.559 457.193C577.437 457.436 577.316 457.678 577.074 457.92C576.953 458.163 577.316 457.557 577.074 457.92C576.953 458.041 576.831 458.163 576.831 458.284C576.71 458.526 576.468 458.647 576.347 458.769C576.226 458.89 576.226 458.89 576.104 459.011C575.741 459.375 576.347 458.89 576.104 459.011C575.62 459.253 575.256 459.496 574.771 459.738C574.529 459.859 575.256 459.617 574.771 459.738C574.65 459.738 574.529 459.859 574.408 459.859C574.165 459.98 573.923 459.98 573.559 460.102H573.438C573.196 460.223 573.802 460.102 573.559 460.102C573.438 460.102 573.317 460.102 573.075 460.102C572.832 460.102 572.469 460.102 572.227 460.102C571.863 460.102 572.711 460.223 572.227 460.102C572.105 460.102 571.984 460.102 571.742 459.98C571.62 459.98 571.378 459.859 571.257 459.859C571.136 459.859 571.136 459.859 571.136 459.738C570.772 459.617 571.136 459.859 571.257 459.738C571.136 459.738 570.53 459.374 570.409 459.253C570.288 459.132 570.166 459.011 569.924 459.011C569.803 458.89 569.803 458.89 570.045 459.132C570.045 459.011 569.803 459.011 569.803 458.89C569.561 458.647 569.197 458.405 568.954 458.041C568.833 457.92 568.712 457.799 568.591 457.557C568.47 457.436 568.349 457.193 568.591 457.557C568.47 457.436 568.47 457.314 568.348 457.193C567.743 456.466 566.773 455.981 565.804 456.587C564.956 457.072 564.471 458.284 565.077 459.011ZM485.581 244.153C485.581 243.911 485.459 243.79 485.459 243.547C485.58 244.032 485.459 243.79 485.459 243.668C485.459 243.547 485.459 243.547 485.459 243.426C485.459 243.305 485.459 243.062 485.459 242.941C485.459 242.82 485.58 242.456 485.459 243.062C485.459 242.941 485.459 242.82 485.459 242.699C485.459 242.578 485.581 242.335 485.581 242.214C485.581 242.093 485.944 241.487 485.581 241.972C485.823 241.608 485.944 241.245 486.186 241.002L486.308 240.881C486.429 240.76 486.671 240.639 486.308 240.881C486.429 240.76 486.55 240.639 486.671 240.396C486.792 240.275 486.914 240.154 487.035 240.033C487.156 239.912 487.156 239.912 487.277 239.79C487.641 239.427 487.035 239.912 487.277 239.79C487.519 239.548 487.883 239.427 488.125 239.185C488.246 239.185 488.368 239.063 488.368 239.063C488.368 239.063 487.883 239.185 488.247 239.185C488.489 239.063 488.61 239.063 488.852 238.942C488.974 238.942 489.216 238.821 489.337 238.821C489.701 238.7 488.853 238.821 489.216 238.821C489.337 238.821 489.458 238.821 489.458 238.821C489.58 238.821 489.822 238.821 489.943 238.821C490.064 238.821 490.185 238.821 490.185 238.821C489.822 238.821 489.822 238.821 489.943 238.821C490.064 238.821 490.064 238.821 490.185 238.821C490.064 238.821 490.064 238.7 489.943 238.7C489.943 238.7 490.064 238.7 490.064 238.821C490.185 238.821 490.185 238.942 490.307 238.942C490.428 239.063 490.549 239.063 490.791 239.185C491.034 239.306 491.397 239.548 491.64 239.79C491.761 239.79 491.761 239.912 491.882 239.912C491.397 239.548 491.64 239.79 491.761 239.79C491.882 239.912 492.003 239.912 492.003 240.033C492.245 240.275 492.367 240.396 492.609 240.639L492.73 240.76C492.367 240.275 492.488 240.518 492.609 240.639C492.73 240.76 492.73 240.76 492.852 240.881C492.973 241.123 493.094 241.366 493.215 241.487C493.336 241.729 492.973 241.002 493.094 241.245C493.094 241.245 493.094 241.366 493.215 241.366C493.215 241.487 493.336 241.608 493.336 241.608C493.336 241.729 493.336 241.851 493.457 241.972C493.457 242.214 493.457 242.578 493.457 241.851C493.457 242.093 493.457 242.214 493.457 242.456C493.457 242.578 493.457 242.699 493.457 242.82V242.941C493.457 243.305 493.457 242.699 493.457 242.699C493.336 242.82 493.336 243.184 493.336 243.305C493.336 243.547 493.215 243.79 493.094 243.911C492.973 244.153 493.336 243.426 493.215 243.668C493.215 243.668 493.215 243.79 493.094 243.79C493.094 243.911 492.973 244.032 492.973 244.032C492.851 244.274 492.73 244.395 492.609 244.638C492.609 244.759 492.488 244.759 492.488 244.88C492.852 244.274 492.609 244.638 492.488 244.88C492.367 245.001 492.124 245.244 492.003 245.365C491.882 245.486 491.276 245.971 491.882 245.486C491.64 245.607 491.519 245.728 491.276 245.85C491.155 245.971 490.913 246.092 490.67 246.092C490.307 246.334 491.034 245.971 490.791 246.092C490.67 246.092 490.549 246.213 490.428 246.213C490.186 246.334 490.064 246.334 489.822 246.334C489.58 246.334 489.216 246.334 489.943 246.334C489.822 246.334 489.701 246.334 489.579 246.334C489.337 246.334 489.095 246.334 488.852 246.334C488.731 246.334 488.489 246.213 489.095 246.334H488.973C488.852 246.334 488.731 246.334 488.61 246.213C488.489 246.213 488.368 246.092 488.247 246.092C488.247 246.092 488.125 246.092 488.125 245.971C487.762 245.85 488.489 246.213 488.247 246.092C488.004 245.971 487.762 245.85 487.519 245.728C487.398 245.607 487.277 245.607 487.156 245.486C487.762 245.85 487.277 245.486 487.035 245.365C486.792 245.123 486.55 244.88 486.308 244.638L486.186 244.517C485.944 244.153 486.429 244.759 486.186 244.517C486.065 244.395 485.944 244.153 485.823 244.032C485.581 243.668 485.459 243.305 485.217 242.941C484.732 242.093 483.52 241.729 482.672 242.335C481.824 242.941 481.581 243.911 482.066 244.88C483.399 247.546 485.702 249.728 488.852 249.849C491.155 249.97 493.578 248.758 495.033 247.061C496.608 245.123 497.456 242.578 496.608 240.154C496.123 238.821 495.396 237.609 494.306 236.761C493.7 236.276 492.973 235.791 492.246 235.307C492.003 235.186 491.761 235.064 491.518 234.943C491.155 234.822 490.791 234.701 490.307 234.701C489.943 234.701 489.458 234.701 489.095 234.701C487.156 234.943 485.217 235.913 483.884 237.367C482.551 238.821 481.703 240.76 481.824 242.82C481.824 243.305 481.945 243.911 482.066 244.395C482.308 245.365 483.399 245.971 484.247 245.607C485.217 246.092 485.823 245.123 485.581 244.153ZM2.90771 260.149C5.21019 261.482 7.99735 261.846 10.421 260.634C12.2388 259.665 13.5717 257.604 13.9352 255.544C14.2988 253.242 13.8141 250.939 12.2388 249.243C11.3905 248.394 10.2997 247.789 9.08788 247.425C8.36078 247.183 7.63392 247.183 6.90682 247.061C5.93735 247.061 5.08901 247.304 4.11955 247.667C0.484048 249.364 -1.21264 254.575 0.968663 257.968C1.4534 258.816 2.66535 259.18 3.51363 258.574C4.36191 258.089 4.72546 256.999 4.11955 256.029C3.99836 255.908 3.99842 255.787 3.87724 255.665C3.75605 255.423 3.87724 255.787 3.87724 255.787C3.87724 255.787 3.75594 255.665 3.75594 255.544C3.75594 255.423 3.63463 255.181 3.63463 255.06C3.63463 254.938 3.63463 254.938 3.63463 254.817C3.63463 254.575 3.63463 255.181 3.63463 254.938C3.63463 254.575 3.63463 254.332 3.63463 253.969V253.727C3.75582 253.969 3.51345 254.09 3.63463 253.848C3.63463 253.605 3.75594 253.484 3.75594 253.242C3.75594 253.121 3.87724 252.999 3.87724 252.757L3.99824 252.515C3.99824 252.515 3.87706 252.878 3.99824 252.636C4.11943 252.272 4.36197 252.03 4.48315 251.788L4.60416 251.545C4.60416 251.545 4.36197 251.909 4.48315 251.666C4.60434 251.545 4.72528 251.424 4.84647 251.303C4.96765 251.182 5.08889 251.061 5.21008 250.939C5.45244 250.697 5.08907 251.061 5.08907 251.061C5.08907 251.061 5.33138 250.939 5.33138 250.818C5.45256 250.697 5.5738 250.697 5.69499 250.576C5.81617 250.576 5.81611 250.455 5.93729 250.455C6.17966 250.333 5.81599 250.576 5.81599 250.455C5.81599 250.455 6.17972 250.333 6.3009 250.333C6.42209 250.333 6.42203 250.333 6.54321 250.333C6.90676 250.212 6.17966 250.333 6.54321 250.333C6.78558 250.333 7.14907 250.333 7.39143 250.333C7.51262 250.333 7.51256 250.333 7.63374 250.333C7.63374 250.333 7.14907 250.212 7.39143 250.333C7.51262 250.333 7.63386 250.333 7.75504 250.455C7.99741 250.455 8.2396 250.576 8.48196 250.697C8.60315 250.697 8.72439 250.818 8.84557 250.818C8.84557 250.818 8.3609 250.576 8.60327 250.697C8.60327 250.697 8.72457 250.697 8.72457 250.818C8.96693 250.939 9.08812 251.061 9.33048 251.182C9.45167 251.182 9.45161 251.303 9.57279 251.303C9.57279 251.303 9.2093 250.939 9.33048 251.182L9.45149 251.303C9.57267 251.424 9.69391 251.545 9.8151 251.666C9.8151 251.666 10.0575 252.03 9.8151 251.666C9.57273 251.424 9.81522 251.666 9.9364 251.788C10.0576 251.909 10.1787 252.151 10.1787 252.272C10.1787 252.394 10.4211 252.636 10.1787 252.272C10.0575 251.909 10.1787 252.272 10.1787 252.394C10.2999 252.515 10.2997 252.757 10.2997 252.999C10.2997 253.121 10.2997 253.121 10.2997 253.242C10.4209 253.605 10.2997 252.757 10.2997 253.121C10.2997 253.484 10.2997 253.848 10.2997 254.211C10.2997 254.575 10.4209 253.848 10.2997 254.09C10.2997 254.211 10.2997 254.211 10.2997 254.332C10.2997 254.575 10.1787 254.696 10.1787 254.938C10.1787 255.06 10.0576 255.302 9.9364 255.423C10.1788 254.696 9.93628 255.423 9.8151 255.544C9.69391 255.665 9.69397 255.908 9.57279 256.029C9.57279 256.15 9.45149 256.15 9.45149 256.271C9.81504 255.787 9.57267 256.029 9.45149 256.271C9.33031 256.393 9.20906 256.514 9.08788 256.635C8.9667 256.635 8.96676 256.756 8.84557 256.756C8.72439 256.877 9.08788 256.635 9.08788 256.635L8.96687 256.756C8.84569 256.877 8.60315 256.998 8.48196 257.12C8.2396 257.241 7.99735 257.241 8.60327 257.12C8.48208 257.12 8.36084 257.241 8.23966 257.241C7.99729 257.362 7.87611 257.362 7.63374 257.362C7.39137 257.483 7.87605 257.362 7.87605 257.362C7.75486 257.362 7.75492 257.362 7.63374 257.362C7.51256 257.362 7.39131 257.362 7.27013 257.362C7.02777 257.362 6.78558 257.362 6.54321 257.362C7.14913 257.362 6.66439 257.362 6.54321 257.362C6.42203 257.362 6.30078 257.362 6.1796 257.241C5.93723 257.12 5.57374 256.998 5.33138 256.998C5.93729 257.12 5.33126 256.998 5.21008 256.877C5.08889 256.756 4.84664 256.756 4.72546 256.635C3.87718 256.15 2.66523 256.393 2.18049 257.241C1.81695 258.574 2.05943 259.665 2.90771 260.149Z" fill="black"/>
<path d="M316.287 240.033C322.104 234.337 330.466 231.429 338.585 232.52C339.555 232.641 340.403 233.247 340.403 234.337C340.403 235.186 339.555 236.276 338.585 236.155C331.436 235.186 324.043 237.609 318.832 242.699C317.257 244.275 314.712 241.73 316.287 240.033ZM280.417 264.391L280.296 264.27C280.296 264.27 280.296 264.391 280.417 264.391ZM268.784 192.65C269.268 193.499 270.48 193.862 271.329 193.256C272.177 192.65 272.419 191.681 271.935 190.712C271.086 189.136 270.238 187.561 269.39 185.985C268.905 185.137 267.693 184.774 266.845 185.379C265.997 185.985 265.754 186.955 266.239 187.924C267.087 189.5 267.935 191.075 268.784 192.65ZM267.208 272.268C267.208 272.389 267.208 272.389 267.208 272.268C267.208 272.389 267.208 272.389 267.208 272.268C267.208 272.268 267.208 272.389 267.208 272.268ZM267.208 272.268C267.208 272.389 267.208 272.389 267.208 272.268V272.268ZM304.896 533.539C305.018 533.539 305.018 533.539 304.896 533.539C305.018 533.539 304.896 533.539 304.896 533.539ZM288.052 360.732C289.021 364.609 287.688 368.73 284.538 371.153C280.902 373.819 275.328 373.456 272.056 370.305C269.026 367.518 268.299 362.792 269.753 359.035C271.329 354.672 275.207 352.006 279.811 352.128C281.023 352.128 281.629 353.218 281.508 354.188C282.477 354.43 283.447 354.794 284.416 355.4C286.234 356.611 287.446 358.55 288.052 360.732ZM281.387 368.73C281.387 368.73 281.629 368.609 281.387 368.73V368.73ZM284.659 363.519C284.659 363.155 284.659 362.792 284.659 362.549C284.659 362.428 284.659 362.428 284.659 362.428V362.307C284.659 362.186 284.538 361.943 284.538 361.822C284.416 361.459 284.295 361.095 284.174 360.853C284.174 360.732 284.053 360.732 284.053 360.61C283.932 360.489 283.932 360.247 283.811 360.126C283.689 360.005 283.689 359.883 283.568 359.762L283.447 359.641C283.205 359.399 282.962 359.035 282.599 358.793L282.477 358.671C282.356 358.55 282.235 358.55 282.114 358.429C281.993 358.308 281.75 358.187 281.508 358.187C281.387 358.187 281.387 358.187 281.266 358.066C280.902 357.944 280.539 357.823 280.054 357.823C279.933 357.823 279.933 357.823 279.811 357.823C279.569 357.823 279.327 357.823 279.084 357.823C278.842 357.823 278.6 357.823 278.357 357.823C278.236 357.823 277.63 357.944 277.872 357.823C277.024 357.944 276.176 357.581 275.812 356.854C275.57 356.975 275.449 357.096 275.206 357.217C275.206 357.217 275.206 357.217 275.085 357.217L274.964 357.338C274.601 357.581 274.358 357.944 273.995 358.308C273.995 358.429 273.873 358.429 273.873 358.55C273.752 358.793 273.631 358.914 273.51 359.156C273.389 359.277 273.267 359.52 273.267 359.641L273.146 359.883V360.004C273.025 360.368 272.904 360.853 272.783 361.216C272.783 361.459 272.661 361.58 272.661 361.822C272.661 361.943 272.661 361.943 272.661 362.065C272.661 362.428 272.661 362.792 272.661 363.276C272.661 363.519 272.661 363.761 272.661 363.882V364.004C272.661 364.004 272.661 364.004 272.661 364.125C272.783 364.488 272.783 364.852 272.904 365.215C273.025 365.458 273.025 365.579 273.146 365.821C273.146 365.942 273.267 365.942 273.267 366.064C273.389 366.427 273.631 366.67 273.873 367.033L273.995 367.275C274.116 367.397 274.237 367.518 274.358 367.76C274.479 367.881 274.6 368.003 274.843 368.124L274.964 368.245C274.964 368.245 274.964 368.245 275.085 368.245C275.449 368.487 275.812 368.73 276.176 368.851C276.297 368.851 276.418 368.972 276.418 368.972C276.661 369.093 276.903 369.093 277.024 369.214C277.267 369.336 277.509 369.336 277.751 369.336H277.872C277.994 369.336 278.115 369.336 278.115 369.336C278.599 369.336 278.963 369.336 279.448 369.336C279.448 369.336 279.448 369.336 279.569 369.336C279.69 369.336 279.811 369.336 279.932 369.214C280.175 369.214 280.296 369.093 280.538 369.093C280.781 369.093 280.902 368.972 281.144 368.851C281.265 368.851 281.266 368.73 281.387 368.73C281.75 368.609 281.993 368.366 282.235 368.245C282.356 368.245 282.477 368.124 282.477 368.003C282.599 367.881 282.72 367.76 282.841 367.639C282.962 367.518 283.083 367.397 283.205 367.275L283.326 367.154C283.568 366.791 283.689 366.548 283.811 366.185C283.811 366.185 283.81 366.064 283.932 366.064C283.932 366.064 283.932 366.064 283.932 365.942C283.932 365.821 284.053 365.579 284.053 365.458C284.174 365.094 284.174 364.852 284.295 364.488C284.295 364.367 284.295 364.367 284.295 364.367C284.295 364.367 284.295 364.367 284.295 364.246C284.659 363.882 284.659 363.64 284.659 363.519ZM354.581 395.39C355.43 399.995 351.673 403.146 347.795 404.842C349.492 407.387 350.703 410.174 350.825 413.204C350.946 415.264 350.219 417.567 348.522 418.9C346.947 420.233 344.766 420.596 342.827 419.99C338.464 418.657 336.768 414.052 336.525 409.69C335.313 410.296 333.859 410.538 332.405 410.417C327.921 410.174 323.437 406.539 323.922 401.692C324.286 398.783 325.982 396.359 328.891 395.511C330.708 395.026 332.526 395.148 334.102 395.996C333.375 393.33 333.132 390.543 334.223 387.998C335.919 384.12 340.888 383.272 344.039 386.059C345.493 387.392 346.099 388.967 346.099 390.543C349.855 389.573 353.854 391.391 354.581 395.39ZM349.492 394.057C349.371 394.057 349.492 394.057 349.492 394.057V394.057ZM337.616 389.694C337.737 389.573 337.737 389.573 337.616 389.694V389.694ZM345.008 416.718C345.25 416.718 345.25 416.718 345.008 416.718V416.718ZM346.583 415.87C346.462 415.991 346.462 415.991 346.583 415.87V415.87ZM351.067 396.844C351.067 396.723 351.067 396.481 351.067 396.359C351.067 396.359 351.067 396.359 351.067 396.238C351.067 396.117 350.946 395.996 350.946 395.754L350.825 395.511C350.825 395.39 350.704 395.269 350.704 395.269C350.582 395.148 350.583 395.026 350.461 394.905C350.583 395.026 350.582 395.026 350.34 394.784C350.219 394.663 350.098 394.542 349.976 394.421C349.855 394.299 349.734 394.299 349.613 394.178C349.613 394.178 349.613 394.178 349.492 394.178C349.371 394.178 349.128 394.057 349.007 394.057C348.886 394.057 348.765 394.057 348.765 394.057C348.643 394.057 348.522 394.057 348.401 394.057C348.401 394.057 348.159 394.057 348.038 394.057C347.917 394.057 347.674 394.057 347.674 394.178C347.553 394.178 347.31 394.299 347.189 394.299C347.189 394.299 347.068 394.299 347.068 394.421C346.947 394.542 346.704 394.663 346.583 394.663C346.462 394.663 346.099 395.026 346.099 395.026C345.977 395.148 345.735 395.269 345.614 395.39C345.372 395.511 345.25 395.754 345.129 395.996C344.402 397.571 343.311 399.026 342.342 400.237C341.736 400.964 340.645 400.843 339.918 400.359C339.191 399.753 339.07 398.783 339.434 398.056C340.161 396.602 341.009 395.026 342.221 393.693C342.342 393.572 342.342 393.33 342.342 393.33C342.463 393.088 342.463 392.724 342.584 392.482C342.584 392.36 342.584 392.239 342.705 392.118C342.705 391.876 342.705 391.633 342.705 391.391C342.705 391.149 342.584 390.543 342.705 391.027C342.705 390.906 342.584 390.664 342.584 390.543C342.584 390.422 342.463 390.3 342.463 390.058C342.463 390.058 342.463 389.937 342.342 389.937C342.221 389.816 342.1 389.573 342.1 389.452L341.979 389.331C341.857 389.21 341.736 389.088 341.615 388.967C341.494 388.846 341.251 388.725 341.13 388.725H341.009C340.767 388.725 340.524 388.604 340.282 388.483H340.161C340.04 388.483 339.918 388.483 339.676 388.483C339.555 388.483 339.434 388.604 339.191 388.604H339.07C338.949 388.725 338.828 388.725 338.706 388.846C338.706 388.846 338.707 388.846 338.585 388.967C338.464 389.088 338.343 389.21 338.222 389.331L338.1 389.452C338.1 389.452 338.101 389.331 338.222 389.331L338.1 389.452C338.1 389.452 338.1 389.452 338.1 389.331V389.452C337.979 389.573 337.979 389.694 337.858 389.816C337.858 389.816 337.737 389.937 337.737 390.058C337.616 390.3 337.616 390.422 337.495 390.664C337.495 390.785 337.374 391.027 337.374 391.149C337.374 391.27 337.374 391.512 337.374 391.633C337.374 392.239 337.374 392.724 337.374 393.33C337.374 393.451 337.374 393.451 337.374 393.451C337.374 393.451 337.374 393.451 337.374 393.572C337.374 393.693 337.373 393.936 337.495 394.057C337.616 394.421 337.616 394.663 337.737 395.026C337.979 395.754 338.222 396.481 338.464 397.208C338.828 398.177 338.1 399.147 337.252 399.389C337.131 399.389 337.01 399.389 336.889 399.389C336.767 399.874 336.404 400.237 336.04 400.48C335.071 400.964 334.102 400.601 333.496 399.874C332.647 398.662 330.466 398.783 329.133 399.631C328.527 399.995 328.164 400.48 327.921 401.207C327.8 401.449 327.8 401.692 327.8 401.934C327.679 402.297 327.8 401.934 327.8 402.176C327.8 402.419 327.8 402.54 327.8 402.782C327.8 402.903 327.8 403.025 327.8 403.025C327.8 403.267 327.921 403.388 327.921 403.63L328.042 403.873C328.164 404.236 328.406 404.479 328.527 404.842C328.527 404.963 328.648 404.963 328.648 405.085C328.77 405.206 328.891 405.327 329.012 405.448C329.254 405.691 329.254 405.691 329.618 405.933C330.829 406.781 332.041 407.024 333.617 406.902C333.859 406.902 333.617 406.902 333.98 406.902C334.223 406.902 334.465 406.781 334.586 406.781C335.071 406.66 335.071 406.66 335.434 406.418C336.162 406.054 336.646 405.691 337.252 404.963C338.222 403.752 340.524 404.721 340.403 406.297C340.282 407.872 340.161 409.932 340.403 411.144C340.524 411.871 340.645 412.477 340.888 413.204C340.888 413.325 341.009 413.568 341.13 413.689C341.251 413.931 341.372 414.173 341.494 414.416C341.615 414.658 341.736 414.901 341.979 415.143C341.979 415.264 342.1 415.264 342.1 415.264C342.1 415.264 342.1 415.264 342.221 415.385C342.463 415.628 342.705 415.87 342.948 416.112C343.069 416.234 343.19 416.355 343.311 416.355C343.433 416.476 343.675 416.476 343.796 416.597H343.917C344.038 416.597 344.281 416.718 344.402 416.718H344.523C344.523 416.718 344.523 416.718 344.645 416.718C344.766 416.718 345.008 416.718 345.129 416.718H345.25C345.372 416.718 345.614 416.597 345.735 416.597H345.856C345.978 416.476 346.099 416.476 346.341 416.355C346.341 416.355 346.462 416.355 346.462 416.234C346.583 416.112 346.705 415.991 346.826 415.87L346.947 415.749C346.947 415.749 346.947 415.749 346.947 415.628C347.068 415.506 347.068 415.385 347.189 415.143C347.189 415.143 347.189 415.143 347.189 415.022C347.189 415.022 347.189 415.022 347.189 414.901C347.189 414.779 347.31 414.537 347.31 414.416C347.31 414.295 347.432 413.81 347.432 413.931C347.432 413.81 347.432 413.567 347.432 413.446C347.432 413.204 347.432 412.962 347.432 412.719C347.432 412.598 347.432 412.477 347.432 412.356C346.947 409.447 345.493 407.024 343.675 404.6C342.948 403.63 343.796 402.176 344.766 401.934C346.22 401.57 347.432 401.086 348.644 400.237C349.25 399.874 349.249 399.753 349.734 399.389C349.855 399.268 350.098 399.026 350.219 398.904L350.34 398.783L350.461 398.662C350.583 398.42 350.703 398.298 350.825 398.056L350.946 397.814C351.067 397.571 351.067 397.208 351.188 396.965C351.067 396.965 351.067 396.844 351.067 396.844ZM347.189 412.598C347.189 412.719 347.189 412.84 347.189 412.598V412.598ZM512.362 518.391C511.635 528.328 509.09 538.629 502.789 546.627C500.365 549.656 497.214 552.565 493.579 554.14C490.428 555.594 486.913 556.2 483.52 556.806C471.644 558.987 459.526 560.199 447.408 561.29C434.684 562.38 421.959 563.35 409.114 563.714C395.905 564.077 382.696 562.865 369.729 560.563C355.793 558.139 341.978 554.504 328.527 549.899C323.316 548.081 318.105 546.021 313.137 543.597C310.107 542.143 307.078 540.568 304.412 538.386C303.321 551.353 292.778 562.017 279.206 562.017H279.084H77.5565C66.2864 562.017 56.7131 554.625 53.4411 544.324H48.1092C42.4136 544.324 37.3238 539.962 35.6273 533.539L2.66549 414.295C-0.121723 404.236 6.17957 393.936 15.1471 393.936H154.993C160.325 384.847 166.505 376.243 173.17 368.124C183.471 355.642 195.347 344.493 208.434 335.041C214.372 330.678 220.674 326.679 227.097 323.165C227.218 318.681 227.46 314.076 227.581 309.592C228.187 295.535 228.793 281.478 229.52 267.42C229.884 260.392 230.126 253.484 230.49 246.456C227.097 245.123 223.704 243.79 220.31 242.457C209.162 238.215 198.134 233.853 186.985 229.49C185.41 228.884 185.289 227.188 186.5 226.218C187.591 225.37 188.682 224.522 189.772 223.552C201.648 213.373 211.706 201.133 222.128 189.621C231.217 179.684 240.548 169.626 251.091 161.022C253.272 145.389 280.296 124.061 297.625 136.664C344.16 118.971 380.515 177.745 363.307 216.281C360.762 222.704 357.611 228.884 353.976 234.822C356.278 241.608 355.672 249.485 349.976 256.514C359.186 269.844 378.818 274.692 392.996 265.724C394.935 264.512 397.844 263.421 399.056 265.239C393.239 285.962 368.76 300.382 348.159 304.624C349.128 307.411 350.098 310.198 351.067 312.985C351.673 313.228 352.158 313.349 352.764 313.591C369.729 320.499 385.12 330.315 399.419 341.706C413.477 352.976 426.564 365.337 439.046 378.303C451.043 390.785 462.435 403.994 472.856 417.93C477.946 423.868 482.793 430.17 487.156 436.714C495.881 449.922 502.789 464.464 507.272 479.612C511.15 492.094 513.331 505.303 512.362 518.391ZM260.059 153.993C263.815 151.327 267.693 148.903 271.935 146.964C267.572 148.54 263.452 150.963 260.059 153.993ZM232.914 243.184C233.641 243.426 234.246 244.032 234.246 244.88C234.125 247.546 234.004 250.212 233.883 252.879C233.277 265.603 232.671 278.206 232.186 290.93C231.702 303.048 231.096 315.167 230.732 327.285C238.609 330.072 246.728 332.254 254.969 333.708C287.082 339.403 320.893 334.556 350.098 320.014C348.401 315.288 346.704 310.562 345.129 305.836C340.403 292.263 336.04 278.569 331.799 264.876H331.678C326.709 264.876 321.862 263.421 317.863 260.513C317.015 259.907 316.893 258.817 317.499 257.968C318.105 257.12 319.196 256.999 320.044 257.605C327.679 263.3 339.797 262.21 346.462 255.302C354.582 246.698 352.764 235.913 347.432 229.127C341.979 222.34 331.92 218.099 321.741 224.037C320.892 224.522 319.802 224.279 319.317 223.431C318.832 222.583 319.075 221.492 319.923 220.886C320.892 220.28 321.862 219.795 322.832 219.432C321.741 213.373 320.771 207.314 319.802 201.254C284.295 201.982 265.875 179.926 280.781 147.207C271.571 150.236 263.209 155.932 255.817 161.749C242.487 172.534 230.975 185.258 219.583 197.983C210.616 207.92 201.769 218.462 191.348 226.945C191.59 227.066 191.954 227.188 192.196 227.309C205.647 232.641 219.341 237.973 232.914 243.184ZM214.13 540.568C216.796 540.568 219.22 539.234 221.038 536.811C223.461 533.539 224.31 528.934 223.219 524.692L190.257 405.448C188.924 400.601 185.288 397.329 181.289 397.329H15.2684C12.6024 397.329 10.1788 398.662 8.36104 401.086C5.93738 404.358 5.08904 408.963 6.17969 413.204L39.1415 532.448C40.4745 537.296 44.1102 540.568 48.1092 540.568H214.13V540.568ZM211.949 453.921C211.343 453.921 210.737 454.043 210.131 453.921C208.435 453.679 207.344 452.952 206.617 451.983L217.766 492.458C219.583 491.973 221.28 491.488 223.098 491.004C222.613 490.155 222.37 489.065 222.37 487.974C222.128 482.4 228.066 479.37 232.914 479.006C236.307 478.764 239.821 479.491 243.214 478.279C244.668 477.795 245.88 476.825 246.122 475.25C246.365 474.159 246.365 473.068 246.122 471.978C245.274 468.1 240.306 467.252 236.791 466.888C231.944 466.403 226.854 466.767 222.007 465.797C216.554 464.707 211.464 459.617 211.949 453.921ZM218.856 495.851L226.612 523.844C226.975 525.298 227.218 526.753 227.218 528.086C253.878 528.086 276.54 528.086 288.9 528.086C283.689 525.177 278.963 521.178 275.57 516.21C270.965 509.666 268.299 501.183 260.543 497.669C252.909 494.276 244.184 496.457 236.186 496.336C233.035 496.336 229.036 495.73 226.127 493.791C223.704 494.518 221.28 495.124 218.856 495.851ZM300.776 534.145V534.024V533.902C300.776 533.297 300.534 532.812 300.17 532.448C299.322 532.206 298.474 532.085 297.625 531.842C291.93 531.842 262.967 531.842 226.975 531.842C225.764 538.75 220.674 544.324 214.009 544.324H57.1979C60.3487 552.565 68.2256 558.381 77.4355 558.381H278.963H279.084C285.143 558.381 290.718 555.958 294.838 551.474C299.201 546.748 301.261 540.446 300.776 534.145ZM306.593 526.268C308.895 523.238 310.834 519.966 312.531 516.694C315.924 510.029 318.348 502.637 319.075 495.245C319.317 491.973 319.438 488.701 318.711 485.429C318.469 484.338 318.226 483.248 317.863 482.036C314.712 477.552 311.44 473.311 307.926 469.312C299.928 459.981 291.081 451.134 281.266 443.742C272.298 436.956 262.24 430.897 251.333 428.231C241.76 425.928 231.823 427.019 223.704 432.714C222.855 433.32 221.886 434.047 221.038 434.775C233.641 431.139 247.213 432.109 259.21 437.683C261.392 438.652 259.453 441.803 257.393 440.834C244.668 434.896 229.278 434.653 216.433 440.349C215.948 440.591 215.584 440.591 215.221 440.47C214.857 440.591 214.494 440.834 214.13 440.955C213.04 441.682 211.949 442.53 211.222 443.621C210.131 445.196 209.04 447.499 209.646 449.317C209.767 449.801 210.131 450.286 210.616 450.407C211.706 450.771 212.797 450.407 213.888 450.044C214.009 450.044 214.009 450.044 214.13 450.044C224.794 437.077 243.214 444.106 254.605 451.983C256.544 453.316 254.726 456.466 252.788 455.133C242.729 448.226 226.127 440.955 216.675 452.588C216.554 452.831 216.311 452.952 216.19 452.952C216.19 452.952 216.19 452.952 216.19 453.073C214.615 456.709 218.129 460.587 221.28 461.92C223.34 462.768 225.764 462.768 228.066 462.889C233.277 463.131 238.973 462.889 243.941 464.707C248.425 466.403 250.849 470.039 250.364 474.886C250.122 476.583 249.879 478.037 248.546 479.37C247.455 480.582 246.123 481.309 244.668 481.794C241.396 482.884 237.882 482.763 234.489 482.642C232.065 482.642 229.399 483.127 227.703 484.944C226.612 486.156 226.127 487.732 226.733 489.065C227.703 491.367 230.611 492.337 232.914 492.579C236.791 493.185 240.911 492.7 244.789 492.458C252.787 491.973 261.028 492.337 267.451 497.79C273.389 502.88 275.691 510.756 280.66 516.573C285.265 522.148 291.566 526.026 298.474 528.086C298.837 528.086 298.958 528.086 298.958 528.086C300.049 528.086 301.14 528.449 301.988 528.934C302.715 529.055 303.442 529.176 304.169 529.297C304.896 528.449 305.745 527.359 306.593 526.268ZM508.121 499.85C506.303 486.035 502.062 472.463 496.124 459.859C489.216 444.954 480.127 431.26 469.221 418.9C468.736 418.294 468.615 417.688 468.857 417.082L467.645 416.718C464.858 412.962 461.95 409.326 458.92 405.812C446.56 390.785 432.987 376.485 418.809 363.155C407.054 352.249 394.814 341.706 381.484 332.738C372.395 326.679 362.822 321.468 352.764 317.348C353.127 318.439 353.491 319.529 353.854 320.62C354.097 321.347 353.854 321.953 353.491 322.317C353.612 322.68 353.733 323.044 353.612 323.407C352.279 329.951 349.25 335.889 345.008 340.979C337.616 349.583 326.83 354.915 315.682 356.127C304.169 357.338 292.536 353.824 283.932 346.068C282.235 344.493 284.78 341.948 286.477 343.524C290.96 347.523 296.292 350.31 302.109 351.764C322.225 356.611 344.523 344.372 349.734 324.255C342.342 327.891 334.586 330.799 326.588 333.223C294.232 342.796 258.725 341.827 226.975 330.072C226.006 329.709 225.642 328.86 225.764 328.012C214.372 334.677 203.708 342.554 194.014 351.4C182.501 361.943 172.322 373.819 163.597 386.665C162.021 389.088 160.446 391.512 158.992 393.936H180.805C186.5 393.936 191.59 398.298 193.286 404.721L205.284 448.347C205.284 446.166 206.132 443.742 207.223 442.046C208.192 440.713 209.283 439.622 210.495 438.652C211.101 438.168 211.828 437.804 212.555 437.441C212.676 437.319 212.918 437.319 213.039 437.198C213.161 437.198 213.403 436.956 213.524 436.956C213.645 436.835 213.888 436.471 214.009 436.35C215.948 434.047 218.25 431.987 220.674 430.17C229.52 423.626 240.669 422.293 251.212 424.716C263.088 427.382 273.995 434.047 283.568 441.318C293.99 449.317 303.442 458.648 311.804 468.827C313.743 471.13 315.682 473.553 317.499 476.098C318.469 473.19 321.014 471.13 323.558 469.433C327.194 467.13 330.83 465.07 335.192 464.222C343.675 462.647 352.158 465.07 360.519 466.646C361.125 466.767 361.61 466.888 362.216 467.009C362.458 467.009 362.701 467.13 362.943 467.13C363.185 467.13 363.549 467.009 363.792 467.009C364.64 466.767 365.367 466.646 366.094 466.403C367.912 465.797 369.851 465.192 371.668 464.464C376.273 462.768 380.878 460.829 385.362 458.89C395.662 454.649 406.084 450.286 416.991 447.499C420.505 446.651 424.383 445.802 428.261 445.439C427.897 444.712 427.413 444.106 427.049 443.5C426.686 443.015 426.322 442.53 425.716 442.046C425.595 441.924 425.595 441.924 425.716 442.046C425.595 441.924 425.474 441.803 425.231 441.682C424.989 441.44 424.746 441.076 424.504 440.713C424.141 440.228 423.777 439.743 423.414 439.38C420.263 435.744 416.385 433.078 412.022 431.018C405.115 427.867 396.632 426.898 390.936 421.566C382.817 414.052 386.21 400.359 388.634 391.27C389.24 388.967 392.754 389.937 392.148 392.239C390.573 398.056 389.119 404.358 389.725 410.417C390.088 414.052 391.3 417.082 393.845 419.384C396.147 421.444 399.541 422.656 402.57 423.747C410.932 426.655 419.172 429.442 425.352 436.229C425.837 436.713 426.201 437.198 426.685 437.804C427.049 438.289 427.776 438.895 427.897 439.501C428.019 439.501 428.018 439.622 428.14 439.622C428.261 439.743 428.382 439.864 428.503 439.864C428.746 440.107 428.988 440.349 429.23 440.591C430.442 442.046 431.412 443.742 432.381 445.439V445.56C436.259 445.681 440.137 446.529 443.409 448.468C447.044 450.65 449.468 454.285 450.68 458.284C451.043 459.375 451.286 460.587 451.407 461.798C451.528 462.768 451.649 463.374 451.164 464.222C450.922 464.707 450.558 465.313 450.195 465.797C448.983 467.373 447.529 468.827 445.469 469.069C441.47 469.554 438.683 465.434 436.865 462.526C434.199 458.284 432.26 453.679 430.079 449.195C429.352 449.195 428.625 449.195 428.019 449.317C417.839 450.165 407.781 453.8 398.329 457.557C389.119 461.192 380.151 465.313 370.82 468.706C369.123 469.312 367.548 469.918 365.73 470.281C365.003 470.524 364.276 470.645 363.67 470.766C361.974 471.13 359.914 470.402 358.338 470.039C350.34 468.464 341.857 466.04 333.738 468.342C330.103 469.433 326.467 471.493 323.558 473.917C321.498 475.613 320.408 477.552 320.771 480.218C321.014 481.794 321.62 483.369 321.862 484.823C322.226 486.399 322.347 487.974 322.468 489.549C322.589 492.942 322.347 496.457 321.741 499.85C320.408 507 317.863 514.028 314.349 520.451C312.652 523.602 310.713 526.51 308.532 529.297C307.441 530.63 306.35 531.964 305.139 533.054C304.533 533.539 305.139 533.054 304.775 533.418C304.775 533.418 304.775 533.418 304.654 533.418V533.539C304.775 533.66 304.775 533.781 304.896 534.024C304.896 534.145 305.018 534.145 305.018 534.266C305.018 534.266 305.017 534.266 305.139 534.387C305.26 534.63 305.502 534.751 305.745 534.993C305.987 535.235 306.229 535.478 306.472 535.599C306.714 535.841 306.957 535.963 307.078 536.084C310.228 538.386 313.864 540.204 317.499 541.779C328.648 546.748 340.645 550.262 352.521 553.171C366.215 556.564 380.151 559.109 394.208 559.957C405.478 560.563 416.991 559.836 428.261 559.109C441.106 558.26 453.952 557.17 466.797 555.594C471.887 554.988 477.098 554.261 482.187 553.292C484.126 552.928 486.065 552.565 488.004 552.08C488.731 551.838 489.458 551.716 490.185 551.474C490.549 551.353 490.791 551.232 491.155 551.11C491.276 551.11 491.64 550.868 491.761 550.868C499.032 547.596 503.637 539.84 505.939 532.569C509.454 522.148 509.454 510.756 508.121 499.85ZM363.064 467.009H363.186C362.943 467.009 362.822 467.009 363.064 467.009ZM448.256 462.283C448.256 462.162 448.256 462.162 448.256 462.041C448.135 461.556 448.014 460.95 447.893 460.344C447.65 459.375 447.408 458.284 446.923 457.315C444.621 451.861 439.894 449.68 434.562 449.074C436.017 452.104 437.471 455.133 439.046 458.042C440.016 459.859 440.985 461.556 442.318 463.131C442.803 463.737 443.409 464.343 443.893 464.586C444.015 464.707 444.257 464.828 444.378 464.828C444.621 464.949 444.499 464.828 444.499 464.949C444.621 464.949 444.742 465.07 444.984 465.07C444.984 465.07 444.984 465.07 445.105 465.07C445.226 465.07 445.348 465.07 445.348 465.07C445.469 465.07 445.59 465.07 445.711 464.949C445.711 464.949 445.954 464.828 446.317 464.586C446.681 464.343 447.408 463.374 447.893 462.768C448.014 462.768 448.135 462.525 448.256 462.283ZM448.256 462.283C448.256 462.525 448.377 462.525 448.256 462.283V462.283ZM123 459.738C126.03 464.707 126.636 471.614 123.606 476.825C120.577 482.278 113.548 484.944 107.852 482.036C102.884 479.491 100.46 473.432 100.46 468.1C100.46 463.859 101.914 459.859 104.823 457.193C104.944 456.709 105.187 456.345 105.671 455.982C108.701 453.922 112.457 452.831 115.972 453.8C118.88 454.77 121.425 457.072 123 459.738ZM119.122 460.465C117.789 458.769 116.214 457.678 114.154 457.193C113.427 457.072 112.094 457.072 111.124 457.315C111.003 457.315 111.003 457.315 110.882 457.436C110.64 457.678 110.397 457.799 110.155 457.921C105.308 459.738 103.49 465.07 104.096 469.918C104.338 471.857 105.065 474.038 106.277 475.856C107.247 477.431 108.822 478.764 110.519 479.249C112.457 479.855 114.76 479.612 116.82 478.643C118.88 477.552 120.455 475.492 121.182 473.432C122.758 469.191 121.91 463.98 119.122 460.465ZM276.903 344.493C277.872 342.433 274.722 340.494 273.752 342.675C269.996 350.552 262.482 355.521 253.999 356.854C246.486 358.066 238.003 356.005 233.035 349.946C229.884 346.19 228.793 341.342 228.915 336.495C228.915 334.192 225.279 334.192 225.279 336.495C225.158 341.463 226.248 346.553 229.157 350.795C231.702 354.551 235.337 357.217 239.579 358.914C248.062 362.307 258.12 360.974 265.875 356.369C270.723 353.582 274.6 349.462 276.903 344.493ZM267.208 271.783V271.904C267.208 271.904 267.208 271.783 267.208 271.783ZM242.123 218.462C243.214 218.705 243.941 218.099 244.305 217.251C245.759 213.615 247.334 209.858 248.788 206.223C249.152 205.375 248.425 204.163 247.577 204.042C246.486 203.799 245.759 204.405 245.395 205.253C243.941 208.889 242.366 212.646 240.912 216.281C240.548 217.129 241.275 218.22 242.123 218.462ZM264.179 274.207C262.482 271.42 264.542 267.784 267.208 266.451C268.057 265.966 269.026 265.724 269.996 265.603C270.238 262.088 274.116 259.665 277.388 259.422C279.327 259.301 281.387 260.028 282.72 261.361C283.326 261.967 283.81 262.816 284.174 263.664C286.476 260.877 288.294 257.605 289.385 254.09C290.112 251.909 293.626 252.878 292.899 255.06C291.687 258.938 289.627 262.573 287.203 265.724C287.567 265.966 287.81 266.33 287.931 266.693C288.9 269.602 289.143 272.753 288.658 275.782C287.931 279.781 285.265 284.023 280.902 284.75C275.933 285.598 272.177 281.841 269.753 277.963C265.875 279.175 261.755 279.781 257.514 279.539C255.211 279.418 255.211 275.782 257.514 275.903C260.18 276.025 262.725 275.782 265.269 275.297C264.785 275.055 264.421 274.692 264.179 274.207ZM267.208 272.389C267.451 272.631 267.329 272.51 267.208 272.389V272.389ZM282.599 270.571C279.812 273.116 276.539 275.176 273.025 276.63C273.51 277.358 273.995 277.963 274.479 278.569C274.964 279.054 275.328 279.418 275.812 279.902C275.812 279.902 275.812 279.902 275.934 280.024C276.055 280.145 276.176 280.145 276.176 280.266C276.418 280.387 276.661 280.629 276.903 280.751C277.024 280.872 277.145 280.872 277.267 280.993C277.267 280.993 277.388 280.993 277.388 281.114C277.509 281.114 277.751 281.235 277.872 281.235C278.115 281.235 278.236 281.357 278.478 281.357C278.478 281.357 278.842 281.357 278.842 281.478C278.963 281.478 279.205 281.478 279.327 281.478C279.448 281.478 279.69 281.478 279.811 281.478H279.932C280.054 281.478 280.296 281.357 280.417 281.357C280.539 281.357 280.902 281.235 280.902 281.235C281.023 281.235 281.144 281.114 281.266 281.114C281.387 280.993 281.629 280.993 281.75 280.872C281.75 280.872 281.993 280.751 281.993 280.629L282.114 280.508C282.235 280.387 282.235 280.387 282.356 280.266C282.477 280.145 282.599 280.024 282.72 279.902C282.841 279.781 282.962 279.66 282.962 279.539C282.962 279.539 283.205 279.296 283.205 279.175C283.447 278.812 283.689 278.327 283.932 277.963C283.932 277.842 284.053 277.6 284.174 277.6C284.295 277.479 284.295 277.236 284.416 277.115C284.538 276.63 284.659 276.146 284.78 275.661C284.901 275.176 284.901 274.813 285.022 274.57C285.144 272.874 285.022 271.42 284.78 269.965C284.537 270.571 283.81 271.056 283.083 271.056C282.962 270.692 282.841 270.692 282.599 270.571ZM273.51 266.087C273.51 266.209 273.51 266.33 273.51 266.451C275.085 267.299 276.418 268.632 277.388 270.087C278.721 269.117 280.054 268.026 281.266 266.936C281.144 266.451 281.023 265.845 280.902 265.36V265.239C280.902 265.118 280.781 265.118 280.781 264.997C280.66 264.754 280.539 264.633 280.417 264.391C280.296 264.27 280.296 264.27 280.296 264.27L280.175 264.149C280.054 264.027 279.933 263.906 279.69 263.785C279.569 263.785 279.569 263.664 279.448 263.664C279.327 263.543 279.206 263.543 278.963 263.421H278.842C278.721 263.421 278.479 263.3 278.357 263.3H278.236C278.115 263.3 277.873 263.3 277.751 263.3C277.63 263.3 277.388 263.3 277.267 263.3H277.146C276.782 263.421 276.418 263.421 276.176 263.543C276.055 263.543 276.055 263.543 275.934 263.664C275.812 263.785 275.691 263.785 275.57 263.906C275.328 264.027 274.964 264.27 274.722 264.391L274.601 264.512C274.479 264.633 274.358 264.754 274.237 264.876C274.237 264.876 274.116 264.997 273.995 265.118C273.995 265.239 273.873 265.239 273.873 265.36C273.752 265.482 273.752 265.603 273.631 265.724V265.845C273.631 265.724 273.51 265.845 273.51 266.087ZM269.996 269.359C270.117 269.359 270.117 269.359 270.117 269.359C270.117 269.359 269.996 269.359 269.996 269.359ZM267.087 271.904V272.025V272.147C267.087 272.025 266.966 272.025 267.087 272.147V272.268C267.087 272.268 267.087 272.268 267.087 272.147C267.208 272.268 267.208 272.268 267.33 272.389C267.451 272.51 267.572 272.51 267.693 272.631C268.057 272.753 268.299 272.753 268.663 272.874C268.784 272.874 268.905 272.874 269.026 272.874C269.268 272.874 269.39 272.874 269.632 272.874C270.117 272.874 270.601 273.116 270.844 273.358C271.934 272.874 272.904 272.389 273.995 271.904C272.783 271.177 271.571 270.329 270.844 269.117C270.844 269.117 270.844 269.117 270.723 269.117C270.602 269.117 270.48 269.117 270.359 269.117C270.238 269.117 270.117 269.117 269.996 269.117H269.875C269.753 269.117 269.147 269.238 269.026 269.359C269.026 269.359 269.39 269.117 269.147 269.238C269.147 269.238 269.026 269.238 269.026 269.359C268.905 269.359 268.784 269.481 268.663 269.602C268.541 269.723 268.42 269.723 268.299 269.844C268.057 269.965 267.935 270.208 267.814 270.329C267.814 270.329 267.814 270.329 267.693 270.45C267.693 270.571 267.572 270.571 267.572 270.692C267.451 270.814 267.451 270.935 267.451 271.056C267.451 271.177 267.33 271.298 267.33 271.42C267.208 271.662 267.087 271.662 267.087 271.904ZM252.182 220.159C253.272 220.401 253.999 219.795 254.363 218.947C255.696 215.554 256.908 212.161 258.241 208.889C258.604 208.041 257.877 206.829 257.029 206.708C255.938 206.465 255.211 207.071 254.848 207.92C253.515 211.313 252.303 214.706 250.97 217.978C250.606 218.705 251.333 219.917 252.182 220.159ZM254.848 178.957C255.817 178.957 256.665 178.957 257.635 178.957C258.12 178.957 258.604 178.714 258.968 178.472C259.332 178.108 259.574 177.624 259.453 177.139C259.453 176.654 259.332 176.17 258.968 175.806C258.604 175.442 258.12 175.321 257.635 175.321C256.665 175.321 255.817 175.321 254.848 175.321C254.363 175.321 253.878 175.564 253.515 175.806C253.151 176.17 252.909 176.654 253.03 177.139C253.03 177.624 253.151 178.108 253.515 178.472C253.878 178.836 254.363 178.957 254.848 178.957Z" fill="black"/>
</svg>
