<svg width="442" height="600" viewBox="0 0 442 600" fill="none" xmlns="http://www.w3.org/2000/svg">
<path d="M182.945 322.278C188.669 302.576 195.493 286.066 203.528 272.527C211.563 258.989 222.129 243.47 235.117 225.969C244.583 212.981 252.068 202.194 257.461 193.829C262.855 185.464 267.367 176.108 271 165.762C274.522 155.415 276.283 144.409 276.283 132.521V132.191C276.283 111.609 270.999 95.6488 260.433 84.2017C249.866 72.8648 235.117 67.1413 216.186 67.1413C197.034 67.1413 182.175 74.1855 171.608 88.2742C161.042 102.363 155.649 122.285 155.429 148.151V148.481H81.9033V148.151C82.8939 116.892 88.7275 90.1453 99.6242 68.0217C110.521 45.8981 125.82 28.9477 145.412 17.3906C165.114 5.8335 188.449 0 215.415 0C243.593 0 267.808 5.17313 287.84 15.6296C307.982 26.086 323.282 41.1653 333.848 60.9775C344.415 80.7897 349.698 104.564 349.698 132.521V132.852C349.698 149.692 347.497 164.771 343.094 178.31C338.691 191.848 333.408 203.515 327.134 213.531C320.86 223.437 312.275 235.545 301.378 249.743C289.491 264.933 279.915 278.361 272.651 290.028C265.276 301.805 259.112 315.894 254.159 332.294C249.206 348.804 246.675 367.736 246.675 389.309H174.25C174.47 364.324 177.222 341.98 182.945 322.278ZM172.599 445.994H248.656V522.051H172.599V445.994Z" fill="#16202C"/>
<path d="M437.203 503.228C427.297 476.151 432.8 464.704 428.948 436.527C424.766 406.258 415.3 375.219 402.752 347.922C398.459 338.566 391.085 327.34 384.04 319.305C353.772 284.963 325.925 254.145 281.678 234.222V234.442C281.127 231.361 280.577 228.279 279.917 225.307C283.879 221.454 288.722 218.042 293.565 214.74C301.71 209.127 309.745 203.514 317.89 198.01C319.871 196.689 321.852 195.258 322.953 193.497C324.054 191.736 324.164 189.425 322.513 188.214C321.302 187.334 319.431 187.223 317.67 187.003C315.028 186.783 312.276 186.563 309.635 187.113C306.993 187.554 304.462 188.654 302.15 189.865C292.574 194.488 283.989 199.991 275.624 205.825C272.982 194.598 270.01 182.821 266.928 168.732C266.928 168.512 266.928 168.402 267.039 168.182C272.652 169.613 278.926 168.732 283.549 165.21C290.923 159.707 293.345 148.48 288.832 140.445C285.2 133.951 277.385 130.098 270.01 130.759C270.781 94.5464 262.966 73.0833 241.943 74.0739C232.477 73.8537 223.011 78.0364 215.197 83.5398C191.752 100.05 168.748 117.22 147.945 131.749C147.945 131.749 172.27 146.278 184.268 153.323C184.268 153.323 174.031 191.296 165.776 217.272C165.446 217.272 165.226 217.162 164.896 217.162C160.053 216.942 154.66 219.363 153.339 223.326C152.348 226.408 153.889 229.82 156.2 232.351C156.861 233.122 157.631 233.782 158.402 234.442C112.063 268.674 80.8042 286.284 53.7275 331.412C43.8215 347.812 22.4683 379.732 16.3045 397.453C8.81995 419.136 0.674944 440.049 11.9018 463.493C8.15954 464.043 2.43595 466.025 1.77554 469.327C1.00507 472.959 2.1058 476.701 3.20647 480.223C4.41722 484.296 6.06823 488.809 10.3609 490.79C5.73803 493.322 3.09641 498.275 3.75681 503.007C4.41722 507.74 8.48972 511.923 13.6629 513.354C7.71925 516.876 8.92999 525.461 14.2132 529.644C19.6066 533.826 27.3113 534.707 34.4657 535.257C41.6201 535.808 49.2148 536.138 55.2685 539.66L56.0389 538.669C56.149 544.063 60.7719 548.575 65.835 551.767C90.4901 567.507 131.876 562.884 156.861 578.184L159.392 580.935C167.427 590.291 178.874 598.986 192.303 598.876C201.658 598.766 210.244 594.474 217.948 589.851C230.606 582.146 242.273 572.79 251.189 561.894C275.734 568.828 296.317 558.482 321.742 564.535C362.467 574.221 420.363 562.224 428.618 547.475C436.653 533.716 442.486 517.646 437.203 503.228Z" fill="#111217"/>
<path d="M90.2692 100.931C91.3699 108.526 91.59 116.34 92.0303 124.045C92.1403 126.136 88.8383 126.136 88.7283 124.045C88.288 116.891 88.068 109.626 87.1874 102.582C86.527 97.1886 85.096 91.355 81.5739 87.0624C78.602 83.5402 74.0893 80.8986 69.3564 80.7886C64.7335 80.7886 60.3309 83.7604 59.6705 88.4933C59.3403 90.6947 60.1107 93.006 61.9819 94.3268C63.6329 95.5376 65.9443 96.0879 67.8154 94.9872C69.6866 93.9966 71.3376 96.8584 69.4664 97.8491C63.5228 101.041 56.2583 95.9778 56.2583 89.4838C56.2583 83.4301 61.2114 78.3671 67.155 77.4865C72.7685 76.7161 78.6021 79.2476 82.5645 83.1C87.2974 87.8329 89.3887 94.5469 90.2692 100.931ZM109.751 147.379C109.641 147.379 109.751 147.379 109.751 147.379C109.641 147.379 109.641 147.379 109.751 147.379C109.641 147.269 109.641 147.269 109.641 147.269C109.641 147.379 109.641 147.379 109.751 147.379ZM109.311 148.81C109.311 148.7 109.311 148.7 109.311 148.81V148.81ZM113.053 147.71C112.943 149.801 111.622 151.342 109.971 152.553C109.641 152.773 109.311 152.993 108.981 153.213C108.54 153.543 107.99 153.653 107.44 153.543C107.22 153.433 107 153.323 106.779 153.213C106.009 152.663 105.459 151.892 105.128 150.902C104.688 149.581 104.908 147.82 105.899 146.719C105.789 146.389 105.789 146.059 105.899 145.728C106.229 144.738 106.999 143.967 107.99 143.637C108.871 143.417 109.751 143.527 110.522 143.857C111.953 144.628 113.163 146.059 113.053 147.71ZM108.21 150.131C108.21 150.021 108.21 150.131 108.21 150.131C108.21 150.021 108.21 150.021 108.21 150.131ZM108.32 148.81C108.43 148.7 108.54 148.59 108.32 148.81V148.81ZM108.981 146.609C108.981 146.719 108.981 146.719 108.981 146.609C108.871 146.719 108.871 146.719 108.981 146.609C108.981 146.719 108.981 146.719 108.981 146.609ZM109.531 148.48C109.531 148.37 109.641 148.26 109.641 148.26C109.641 148.15 109.751 148.04 109.751 147.82C109.751 147.71 109.751 147.6 109.751 147.49L109.641 147.379V147.49C109.531 147.379 109.531 147.379 109.421 147.269C109.421 147.269 109.421 147.269 109.311 147.269C109.201 147.269 109.091 147.159 109.091 147.159H108.981C108.981 147.159 108.981 147.159 108.871 147.159C108.871 147.379 108.981 147.489 108.981 147.71C108.981 148.04 108.761 148.59 108.54 148.92C108.43 149.03 108.32 149.141 108.21 149.141L108.1 149.251V149.361C108.1 149.471 108.1 149.471 108.1 149.581C108.1 149.691 108.1 149.911 108.1 150.021C108.1 150.021 108.1 150.021 108.1 150.131C108.21 150.021 108.541 149.801 108.1 150.131C108.21 150.021 108.21 150.021 108.32 149.911C108.54 149.801 108.651 149.581 108.871 149.471C108.981 149.361 108.981 149.361 109.091 149.251L109.201 149.141C109.201 149.141 109.201 149.251 109.091 149.251C109.311 148.81 109.421 148.59 109.531 148.48ZM432.58 198.561C430.488 198.011 429.608 201.202 431.699 201.753C437.202 203.184 439.514 209.568 437.973 214.631C436.212 220.464 430.598 224.647 424.985 226.408C418.931 228.279 412.217 227.729 406.604 224.647C401.32 221.785 396.257 217.272 389.873 217.052C384.48 216.832 378.316 220.024 377.986 225.968C377.876 228.059 381.178 228.059 381.288 225.968C381.618 220.684 388.773 219.694 392.735 220.905C396.037 221.895 398.899 223.987 401.761 225.748C404.732 227.509 407.704 229.16 411.116 230.04C417.5 231.691 424.435 230.921 430.268 227.839C435.661 225.087 440.505 220.024 441.605 213.75C442.706 207.366 439.184 200.212 432.58 198.561ZM361.036 233.342C361.036 233.232 361.036 233.342 361.036 233.342V233.342ZM364.008 231.251C364.558 232.462 364.668 233.893 363.897 235.103C363.347 235.984 362.467 236.534 361.366 236.754C360.375 236.974 359.274 236.864 358.394 236.314L358.284 236.204C356.853 236.754 354.982 236.314 354.101 234.883C353.991 234.663 353.771 234.333 353.771 234.113C353.661 233.672 353.771 233.232 353.991 232.792C354.211 232.242 354.432 231.691 354.872 231.251C355.642 230.15 356.633 229.38 357.954 228.83C360.045 227.839 362.907 228.94 364.008 231.251ZM359.275 231.691C359.164 231.691 359.054 231.801 358.944 231.801H358.834H358.724C358.834 231.801 358.944 231.911 359.164 231.911C359.825 232.021 360.265 232.682 360.375 233.342H360.485H360.595H360.705H360.816C360.816 233.342 360.926 233.342 361.036 233.232C361.036 233.232 361.036 233.232 361.036 233.122V233.012C361.036 233.012 361.036 233.012 361.036 232.902V232.792V232.902V232.792C361.036 232.792 361.036 232.792 361.036 232.682V232.572C360.926 232.462 360.926 232.352 360.816 232.242C360.816 232.242 360.816 232.242 360.705 232.132C360.595 232.021 360.485 231.911 360.375 231.911C360.375 231.911 360.375 231.911 360.265 231.911C360.155 231.911 360.045 231.801 359.935 231.691C360.045 231.691 360.155 231.691 359.935 231.691H359.825H359.715C359.605 231.691 359.164 231.581 359.495 231.581C359.605 231.581 359.715 231.691 359.495 231.581C359.385 231.581 359.385 231.581 359.275 231.581C359.385 231.691 359.385 231.691 359.275 231.691C359.275 231.691 359.164 231.691 359.275 231.691C359.275 231.691 359.164 231.691 359.275 231.691ZM361.146 233.122V233.012C361.036 233.012 361.036 233.122 361.146 233.122ZM361.036 232.902C361.036 232.792 361.036 232.902 361.036 232.902V232.792V232.902ZM359.385 231.691H359.275C359.385 231.801 359.385 231.691 359.385 231.691ZM411.006 73.1939C410.566 69.0113 409.025 64.8287 406.053 61.7468C403.412 59.1052 399.889 57.3441 396.257 56.6837C392.295 55.9133 387.892 56.3535 384.37 58.5548C381.288 60.426 376.445 66.2596 380.848 69.2315C382.609 70.4422 384.26 67.5803 382.499 66.3696C381.618 65.8193 383.93 63.0676 384.48 62.5172C385.581 61.5266 386.902 60.7562 388.332 60.2058C391.414 59.2152 394.716 59.3253 397.688 60.3159C400.77 61.3065 403.522 63.1777 405.283 65.9294C407.484 69.4516 408.145 73.7442 407.594 77.7066C406.384 86.7322 400.22 93.8866 392.735 98.3994C384.26 103.573 374.684 105.444 365.438 108.746C360.485 110.507 355.532 113.038 352.34 117.331C349.368 121.293 347.717 126.356 349.258 131.199C349.919 133.181 353.111 132.3 352.45 130.319C350.909 125.586 353.221 120.743 356.633 117.441C360.485 113.699 365.879 111.938 370.832 110.507C380.848 107.425 391.084 104.453 399.339 97.7389C406.604 92.1254 411.887 82.7698 411.006 73.1939ZM346.837 148.81C346.176 148.81 345.516 148.81 344.856 148.81C344.636 148.81 344.415 148.81 344.195 148.92C343.975 149.03 343.865 149.141 343.645 149.251C343.535 149.361 343.425 149.581 343.315 149.801C343.205 150.021 343.205 150.241 343.205 150.461C343.205 150.902 343.315 151.342 343.645 151.672C343.975 152.002 344.415 152.112 344.856 152.112C345.516 152.112 346.176 152.112 346.837 152.112C347.057 152.112 347.277 152.112 347.497 152.002C347.717 151.892 347.828 151.782 348.048 151.672C348.158 151.562 348.268 151.342 348.378 151.122C348.488 150.902 348.488 150.681 348.488 150.461C348.488 150.021 348.378 149.581 348.048 149.251C347.717 148.92 347.277 148.81 346.837 148.81Z" fill="#DCDCDC"/>
<path d="M186.248 307.196C184.377 306.205 186.028 303.344 187.899 304.334C202.428 312.039 219.819 314.24 235.889 311.048C237.98 310.608 238.86 313.8 236.769 314.24C219.819 317.652 201.658 315.231 186.248 307.196ZM440.724 521.718C440.284 528.762 438.303 535.586 434.671 541.64C431.148 547.363 426.306 552.096 420.802 555.729C407.594 564.534 391.194 567.726 375.674 568.937C366.429 569.707 357.073 569.597 347.827 569.047C342.874 568.717 337.921 568.276 332.968 567.616C327.685 566.955 322.622 565.965 317.449 565.084C306.112 563.213 294.775 564.424 283.438 565.305C273.091 566.075 262.855 566.185 252.729 563.653C247.996 569.707 242.603 575.1 236.549 579.833C233.687 582.035 230.825 584.126 227.743 586.107C224.331 588.309 220.809 590.18 217.507 592.381C211.343 596.564 204.079 599.205 196.594 599.866C181.955 601.076 167.977 593.812 158.951 582.475C158.291 581.594 157.52 580.714 156.86 579.723C156.75 579.723 156.53 579.613 156.31 579.503C148.385 574.66 139.359 572.019 130.334 570.147C113.383 566.515 95.7724 565.305 79.2622 559.691C71.5575 557.049 62.9722 553.307 57.799 546.593C56.4782 544.942 55.5977 543.071 55.0473 541.09C54.9373 541.09 54.8273 540.98 54.7172 540.98C49.8742 538.228 44.2608 537.567 38.7574 537.127C30.062 536.467 19.6055 536.467 12.6713 530.193C8.04844 526.01 6.72771 518.526 10.6901 513.903C6.61764 511.922 3.09537 508.289 2.3249 503.667C1.44436 498.714 3.75586 493.981 7.49816 490.899C5.62701 489.468 4.30614 487.487 3.31553 485.285C1.88465 482.093 0.784059 478.461 0.233721 475.049C-0.316618 471.527 0.0135047 467.895 2.21486 464.923C3.97594 462.611 6.39745 461.07 9.25921 460.63C-0.536807 431.572 10.8002 400.423 24.4486 374.337C28.6312 366.412 33.1439 358.597 37.7668 350.893C42.1695 343.628 46.5721 336.364 51.305 329.319C60.0003 316.552 69.7964 304.444 80.4729 293.437C103.147 269.993 127.692 251.942 155.099 234.551C152.457 231.689 150.476 228.057 151.797 224.095C153.338 219.362 158.731 216.94 163.354 216.72C163.684 216.72 164.014 216.72 164.235 216.72C164.455 216.06 164.675 215.289 164.895 214.629C169.077 201.201 173.04 187.662 176.782 174.124C178.653 167.52 180.524 160.916 182.285 154.202C179.534 152.551 176.782 151.01 174.03 149.359C165.005 144.076 155.979 138.682 146.954 133.289C145.853 132.629 145.963 131.088 146.954 130.427C153.558 125.804 160.162 121.072 166.766 116.339C179.094 107.533 191.311 98.5077 203.639 89.7023C209.582 85.4096 215.526 80.7868 222.02 77.4848C225.872 75.5036 229.945 74.0727 234.127 73.1921C231.486 71.7613 228.734 69.8901 226.202 67.2485C219.709 60.4243 217.177 38.851 231.046 28.3945C241.282 57.8927 262.195 44.5745 283.878 63.6162C300.608 78.4753 289.381 114.467 275.733 129.547C281.567 130.757 287.07 134.39 289.932 139.673C294.775 148.478 292.243 160.586 284.098 166.529C280.576 169.171 276.173 170.492 271.771 170.492C270.67 170.492 269.679 170.382 268.579 170.272C269.569 175.005 270.67 179.628 271.771 184.36C273.311 190.854 274.963 197.458 276.504 203.952C278.265 202.742 280.026 201.531 281.897 200.32C287.07 197.018 292.243 193.826 297.746 191.075C300.498 189.644 303.25 188.213 306.222 187.222C309.194 186.232 312.275 186.121 315.357 186.232C317.999 186.342 321.191 186.342 323.392 187.993C325.374 189.644 325.594 192.395 324.493 194.597C323.282 197.128 320.641 198.779 318.439 200.43C315.577 202.412 312.716 204.393 309.854 206.374C304.24 210.336 298.517 214.189 292.903 218.151C288.171 221.453 283.438 224.755 279.475 229.048C280.136 230.259 280.576 231.469 280.796 232.79C281.236 232.68 281.677 232.68 282.117 232.9C285.969 234.992 289.712 237.083 293.564 239.284C308.643 248.09 323.282 257.886 336.931 268.892C350.579 279.789 363.237 291.897 374.464 305.325C386.021 319.083 396.037 333.942 404.182 349.902C412.987 367.183 419.701 385.454 424.324 404.275C426.856 414.512 428.837 424.968 430.268 435.535C431.699 445.881 431.919 456.227 432.139 466.684C432.359 476.15 433.24 485.505 435.881 494.641C436.762 497.503 437.973 500.365 438.743 503.336C439.293 505.428 439.624 507.629 439.844 509.83C440.724 513.683 440.944 517.645 440.724 521.718ZM173.7 197.679C171.829 204.173 169.848 210.667 167.867 217.05C177.553 218.812 184.377 228.387 192.522 233.341C201.327 238.734 212.664 242.696 223.011 240.495C228.844 239.284 233.797 235.542 238.64 232.24C243.593 228.828 248.436 225.195 253.279 221.563C260.213 216.39 267.038 211.107 274.082 206.154C271.22 193.936 268.138 181.829 265.497 169.611C262.305 168.621 259.443 166.97 257.132 164.548C256.471 163.888 256.471 162.897 257.132 162.237C257.792 161.576 258.783 161.576 259.443 162.237C265.277 168.181 275.843 169.061 282.557 163.998C289.271 159.045 291.473 148.699 287.4 141.324C283.328 134.06 273.422 130.427 265.607 133.509C264.726 133.839 263.846 133.399 263.515 132.519C263.185 131.638 263.626 130.758 264.506 130.427C265.167 130.207 265.827 129.987 266.597 129.767L263.075 128.776C252.729 117.329 258.342 105.552 257.682 95.4257C256.801 80.4565 249.317 78.9156 240.511 75.7236C233.247 75.9437 226.423 78.6954 220.259 82.3277C213.985 86.07 208.151 90.6928 202.098 94.9855C196.044 99.3882 189.99 103.681 183.937 108.084C173.04 116.008 162.143 123.823 151.136 131.638C151.467 131.858 151.797 131.968 152.017 132.188C163.024 138.792 174.141 145.396 185.257 151.89C185.918 152.221 186.248 153.101 186.028 153.762C185.367 156.293 184.707 158.715 183.937 161.246C180.634 173.464 177.222 185.571 173.7 197.679ZM157.63 232.46C159.612 234.551 162.033 236.202 164.345 237.963C166.436 239.504 168.307 241.265 170.178 243.137C180.414 254.033 184.267 268.782 191.421 281.55C198.465 278.908 206.61 281.11 213.655 282.761C218.608 283.972 223.671 285.072 228.624 286.283C233.137 287.384 237.87 288.154 242.272 289.695C245.024 290.686 247.996 292.227 249.207 294.978C254.49 290.466 257.902 283.861 263.295 279.349C266.597 276.487 271 274.286 273.422 270.653C274.962 268.452 275.073 265.48 272.981 264.159C272.651 264.38 272.431 264.6 272.101 264.82C271.33 265.48 270.56 266.141 269.789 266.801C268.248 268.232 266.928 269.663 265.497 271.204C264.946 271.864 263.736 271.754 263.185 271.204C262.525 270.543 262.635 269.553 263.185 268.892C265.387 266.361 267.808 264.049 270.34 261.958C270.34 261.408 270.56 260.747 271.11 260.527C273.532 259.537 275.623 257.555 276.173 254.914C276.724 252.602 275.843 250.401 274.632 248.42C271.881 250.951 269.239 253.483 266.487 256.014C265.827 256.675 264.836 256.675 264.176 256.014C263.515 255.464 263.515 254.253 264.176 253.703C267.148 250.951 270.119 248.2 273.091 245.338C273.091 245.008 273.311 244.567 273.532 244.347C277.164 241.155 279.255 236.312 277.494 231.91C275.073 234.441 272.541 236.863 270.12 239.394C269.459 240.055 268.469 239.945 267.808 239.394C267.148 238.734 267.148 237.633 267.808 237.083C270.67 234.221 273.422 231.359 276.283 228.498C276.393 228.277 276.503 228.057 276.614 227.837C278.485 225.636 280.576 223.765 282.887 221.893C287.62 218.041 292.793 214.629 297.857 211.217C303.25 207.475 308.643 203.732 314.037 199.99C316.458 198.339 319.21 196.798 321.191 194.597C321.851 193.826 322.622 192.616 322.292 191.515C321.961 190.524 320.641 190.304 319.65 190.084C316.788 189.644 313.706 189.424 310.845 189.864C307.763 190.304 305.011 191.625 302.259 192.946C281.566 203.182 263.956 218.261 245.244 231.69C240.511 235.102 235.668 238.734 230.495 241.375C225.872 243.687 220.699 244.567 215.526 244.347C205.62 243.797 195.604 239.835 187.459 234.001C182.836 230.699 178.984 226.186 174.141 223.214C169.738 220.463 164.235 218.922 159.281 221.123C157.41 222.004 155.429 223.434 154.989 225.526C154.438 228.057 155.979 230.699 157.63 232.46ZM63.7427 523.038C63.9628 522.818 64.1829 522.708 64.4031 522.598C63.3024 521.167 62.3119 519.737 61.3213 518.306C59.0098 515.004 56.5884 511.812 53.6165 508.95C50.7548 506.198 47.4526 503.887 44.1506 501.685C37.5465 497.283 30.5023 493.21 25.219 487.267C19.4955 480.883 14.6526 473.618 11.3505 465.693C11.0203 465.033 10.8001 464.372 10.58 463.712H10.4699C7.93837 463.822 5.737 465.363 4.52625 467.564C3.09537 470.206 3.31561 473.288 4.08609 476.04C5.29683 480.883 6.72763 486.936 11.5706 489.358C12.6713 489.908 12.5612 491.669 11.5706 492.22C7.82831 494.311 4.9666 498.603 5.84714 503.116C6.72768 507.409 10.47 510.601 14.5425 511.702C15.8633 512.142 16.1934 514.013 14.9827 514.673C11.9008 516.545 11.2405 519.957 12.3412 523.259C14.7626 530.853 24.5586 532.504 31.3828 533.165C39.3077 533.935 47.6728 533.715 54.9373 537.237C55.0474 536.247 55.1574 535.366 55.4876 534.376C56.8084 529.973 60.3306 526.341 63.7427 523.038ZM152.347 573.78C150.036 570.588 147.724 567.506 145.083 564.534C141.561 560.462 137.818 556.609 133.636 553.307C126.922 548.024 119.217 544.942 111.072 542.741C100.175 539.769 89.1684 537.127 78.4918 533.605C76.6206 532.945 74.6394 532.504 72.9884 531.294C71.4475 530.193 70.0165 528.982 68.6957 527.661C67.9253 526.891 67.1548 526.01 66.3843 525.13C66.2743 525.24 66.2742 525.35 66.1641 525.46C62.752 528.872 58.1293 533.055 58.1293 538.228C58.0192 542.961 61.9816 546.813 65.6138 549.345C71.9977 553.857 79.4823 556.609 87.077 558.59C95.222 560.792 103.477 562.113 111.732 563.543C125.16 565.745 139.689 567.726 152.347 573.78ZM249.207 562.883C247.225 562.223 248.106 559.141 250.087 559.691C250.528 559.801 250.858 559.911 251.298 560.021C251.298 560.021 251.298 560.021 251.298 559.911C258.783 549.675 263.736 537.898 266.157 525.46C271.22 498.934 264.616 471.087 254.05 446.762C251.188 440.158 247.446 433.884 245.024 427.06C242.933 421.116 241.942 414.842 242.052 408.678C242.162 396.901 246.015 385.674 248.766 374.337C251.518 362.78 252.729 351.113 248.546 339.776C247.336 336.474 245.684 333.282 243.813 330.31C242.713 328.549 241.612 326.898 240.401 325.357C239.191 323.706 237.319 322.165 236.439 320.294C235.668 318.753 235.008 316.772 234.678 314.791H234.898C235.228 309.177 241.392 305.655 244.694 301.693C245.905 300.262 247.225 298.28 246.345 296.189C245.134 293.327 241.062 292.337 238.42 291.676C229.284 289.365 219.929 287.384 210.793 285.182C207.271 284.412 203.749 283.641 200.117 283.531C197.035 283.421 193.733 283.641 190.981 285.292C187.789 287.164 186.908 290.466 186.908 293.878C186.908 297.62 187.569 301.142 187.018 304.884C186.688 306.976 183.496 306.095 183.826 304.004C184.597 299.601 183.166 295.088 183.826 290.576C184.267 287.384 186.028 284.742 188.559 282.981C184.707 276.267 181.845 269.002 178.543 261.958C176.452 257.445 174.03 253.153 171.059 249.08C167.757 244.677 163.574 241.375 159.281 238.073C158.841 237.743 158.291 237.303 157.851 236.863C150.806 241.375 145.963 244.787 139.029 249.63C113.053 267.461 88.618 287.604 68.6957 311.929C58.4594 324.366 49.9843 337.795 41.6191 351.443C32.5936 366.192 23.8982 381.381 17.6243 397.561C11.9008 412.09 8.04847 427.61 9.25921 443.349C10.58 459.419 17.8445 475.049 29.1814 486.496C34.7949 492.22 41.9492 496.072 48.5533 500.585C51.7453 502.786 54.9373 505.318 57.689 508.179C60.3306 510.931 62.532 514.123 64.8434 517.315C67.1548 520.507 69.4662 523.699 72.4381 526.341C73.979 527.771 75.6299 528.982 77.7212 529.643C79.3722 530.193 81.0233 530.743 82.6743 531.294C88.3978 533.165 94.2314 534.816 100.065 536.247C108.65 538.448 117.456 540.319 125.491 544.172C134.186 548.244 141.34 554.848 147.614 562.112C152.457 567.616 156.75 573.56 161.043 579.503C165.335 585.557 171.389 590.4 178.213 593.482C184.597 596.344 191.751 597.334 198.686 596.344C202.208 595.793 205.62 594.803 208.922 593.482C212.554 591.831 215.746 589.409 219.158 587.538C230.385 581.264 240.952 573.119 249.207 562.883ZM436.652 507.959C435.771 502.676 433.57 497.723 432.249 492.55C431.038 487.927 430.268 483.194 429.828 478.461C428.947 469.546 429.277 460.52 428.837 451.495C427.846 430.582 423.444 409.559 417.28 389.637C411.777 372.026 404.292 354.965 394.936 339.005C386.021 324.036 375.454 310.058 363.567 297.4C351.9 284.962 338.912 273.735 325.153 263.609C311.285 253.373 296.646 244.347 281.567 236.092C281.236 239.614 279.585 243.026 277.054 245.668C279.035 248.64 280.466 252.052 279.585 255.684C279.035 258.106 277.494 260.197 275.513 261.738C277.164 263.169 278.154 265.37 277.934 267.792C277.604 271.424 275.183 274.176 272.431 276.377C269.349 278.909 265.827 281.11 263.075 284.082C258.562 288.925 255.15 294.758 249.867 298.721C249.647 300.372 248.877 301.913 247.886 303.344C246.125 305.655 243.923 307.526 241.832 309.507C240.291 311.048 238.31 312.919 238.2 315.231C238.42 316.552 238.75 318.093 239.411 319.193C240.291 320.624 241.722 321.945 242.823 323.376C251.078 334.162 255.591 346.93 254.49 360.689C253.609 372.356 249.537 383.473 247.115 394.81C244.474 407.247 244.804 419.795 250.417 431.462C253.609 438.176 257.021 444.78 259.773 451.715C262.415 458.429 264.726 465.253 266.597 472.187C273.201 497.393 273.752 524.91 262.195 548.794C260.103 553.087 257.682 557.159 254.93 561.012C258.893 562.002 263.075 562.553 267.148 562.663C278.044 563.213 288.831 561.452 299.728 561.012C305.341 560.792 311.065 561.012 316.568 561.782C321.851 562.553 327.025 563.653 332.308 564.314C350.469 566.625 369.07 567.286 387.232 564.314C401.32 562.002 416.179 557.38 426.416 547.033C436.542 536.577 438.963 522.048 436.652 507.959ZM335.39 457.108C338.031 459.529 336.82 462.942 334.729 465.253C332.308 468.005 328.455 470.316 324.713 469.656C321.741 469.215 319.87 466.794 319.21 464.042C319.1 463.602 318.99 463.052 318.769 462.611C316.788 464.262 315.137 466.244 313.266 468.115C310.844 470.536 308.203 472.517 305.011 473.948C298.847 476.81 291.803 477.911 284.979 476.92C282.887 476.59 283.768 473.398 285.859 473.728C287.62 473.948 289.271 474.058 291.032 473.948C298.297 473.618 305.451 471.087 310.734 465.913C312.936 463.712 315.027 461.401 317.449 459.419C313.706 451.274 306.332 445.221 301.819 437.516C299.177 433.003 297.746 428.05 298.737 422.767C299.287 419.575 300.939 416.823 302.369 414.072C303.8 411.54 306.222 407.798 305.011 404.716C303.8 401.524 299.177 400.974 296.426 399.653C293.344 398.222 290.592 396.13 288.171 393.819C283.438 389.086 280.136 382.812 279.145 376.208C278.815 374.117 282.007 373.237 282.337 375.328C283.328 382.482 287.07 388.976 292.683 393.489C295.435 395.69 298.517 397.121 301.819 398.332C305.341 399.653 308.313 401.854 308.533 405.927C308.863 412.2 303.25 417.154 301.929 423.097C300.828 427.72 302.369 432.233 304.791 436.305C309.304 443.79 316.348 449.733 320.2 457.658C322.512 456.448 325.043 455.787 327.575 455.457C330.216 455.127 333.408 455.347 335.39 457.108ZM328.786 458.649C326.364 458.759 323.722 459.419 321.521 460.63C321.631 460.85 321.631 460.96 321.741 461.181C322.402 463.162 322.622 466.023 325.153 466.464C327.025 466.794 329.006 465.693 330.437 464.593C331.647 463.712 332.968 462.501 333.408 461.07C334.289 458.649 330.217 458.539 328.786 458.649ZM232.697 100.929C230.055 103.901 228.074 107.313 226.753 111.055C226.423 111.826 227.083 112.926 227.854 113.037C228.734 113.257 229.615 112.706 229.835 111.936C229.945 111.496 230.165 111.165 230.275 110.725C230.275 110.615 230.385 110.505 230.385 110.395V110.285C230.495 110.065 230.605 109.845 230.605 109.735C230.935 108.964 231.376 108.084 231.816 107.313C232.256 106.543 232.697 105.882 233.247 105.112C233.357 104.892 233.467 104.782 233.577 104.561C233.577 104.561 233.577 104.561 233.577 104.451C233.577 104.451 233.577 104.451 233.577 104.341C233.687 104.231 233.687 104.121 233.797 104.121C234.127 103.791 234.348 103.461 234.678 103.02C235.228 102.36 235.338 101.259 234.678 100.709C234.348 100.379 233.247 100.269 232.697 100.929ZM214.976 111.826C215.856 112.266 216.737 111.936 217.287 111.276C219.378 108.304 221.47 105.332 223.561 102.36C224.111 101.7 223.671 100.489 223.011 100.049C222.13 99.6084 221.249 99.9386 220.699 100.599C218.608 103.571 216.517 106.543 214.425 109.514C213.875 110.285 214.205 111.496 214.976 111.826ZM216.737 92.3439C219.488 93.0043 222.35 93.6647 225.102 94.3251C225.982 94.5452 226.973 94.1049 227.083 93.2244C227.303 92.3438 226.863 91.3533 225.982 91.2433C223.231 90.5829 220.369 89.9224 217.617 89.262C216.737 89.0418 215.746 89.4821 215.636 90.3627C215.306 91.1331 215.856 92.1238 216.737 92.3439ZM231.486 89.8123C232.256 90.2526 233.357 90.0325 233.797 89.262C234.568 87.721 235.668 86.5103 237.209 85.7399C238.53 85.0795 239.961 84.7492 241.392 85.2996C241.392 85.2996 241.722 85.4096 241.722 85.5197C241.832 85.6297 241.942 85.6298 242.052 85.7399C242.162 85.7399 242.162 85.8499 242.272 85.8499C242.272 85.8499 242.272 85.8499 242.383 85.96C242.493 86.07 242.713 86.1801 242.823 86.4003C242.823 86.4003 243.043 86.7304 243.153 86.7304C243.263 86.8404 243.263 86.9506 243.373 87.0606C243.483 87.2808 243.593 87.3908 243.703 87.611C243.703 87.721 243.813 87.8311 243.813 87.8311C243.923 88.1613 244.034 88.4915 244.144 88.8217C244.144 88.8217 244.144 88.8217 244.144 88.9317C244.144 89.0418 244.144 89.0419 244.144 89.1519C244.144 89.3721 244.144 89.4821 244.144 89.7023C244.144 89.7023 244.144 89.7023 244.144 89.8123C244.144 90.0325 244.034 90.1425 244.034 90.3627C244.034 90.3627 244.034 90.3626 244.034 90.4727C244.034 90.5828 243.923 90.5829 243.923 90.6929C243.923 90.803 243.593 91.2432 243.813 90.913C243.263 91.5734 243.153 92.564 243.813 93.2244C244.364 93.7747 245.574 93.8848 246.125 93.2244C247.225 91.9036 247.666 90.2526 247.446 88.4916C247.225 86.8405 246.455 85.2996 245.354 84.1989C242.713 81.4472 238.64 81.4472 235.558 83.3183C233.687 84.419 232.146 86.0701 231.266 87.9412C230.385 88.3815 230.605 89.3721 231.486 89.8123ZM192.632 210.887C193.182 211.547 194.393 211.437 194.943 210.887C195.604 210.226 195.494 209.236 194.943 208.575C192.742 205.824 191.201 202.632 190.32 199.33C189.66 196.908 189 193.386 190.541 191.075C192.192 188.653 195.273 190.634 196.484 192.505C197.475 193.936 197.805 195.697 198.245 197.348C198.686 199.109 199.236 200.871 200.006 202.632C200.997 204.503 203.749 202.852 202.868 200.981C201.327 197.899 201.327 194.377 199.676 191.405C198.245 188.873 195.604 186.562 192.522 186.672C189.55 186.782 187.459 189.093 186.798 191.845C186.028 194.817 186.578 198.009 187.459 200.981C188.449 204.503 190.21 207.915 192.632 210.887ZM179.864 306.315C159.281 314.68 144.532 334.493 141.01 356.286C140.13 361.679 139.909 367.293 140.46 372.796C140.79 375.548 141.23 378.3 141.891 380.941C142.771 384.573 143.982 388.206 144.532 391.838C145.523 398.112 143.872 403.835 140.24 408.898C136.828 413.741 132.205 417.814 127.692 421.666C118.116 430.141 106.119 443.46 112.723 457.218C113.603 459.089 116.465 457.438 115.585 455.567C110.081 444.01 121.088 432.123 129.013 424.968C137.268 417.594 146.954 409.559 148.054 397.782C148.715 390.847 145.853 384.133 144.422 377.419C143.322 372.246 143.101 366.963 143.542 361.679C144.422 351.113 148.055 340.767 153.888 331.961C160.382 322.055 169.628 313.91 180.634 309.397C182.616 308.627 181.845 305.435 179.864 306.315ZM265.937 150.9C266.047 150.79 266.157 150.68 266.267 150.46C266.487 150.239 266.597 150.019 266.818 149.799C267.258 149.359 267.588 148.919 268.028 148.588C268.909 147.818 269.569 147.268 270.56 146.607C272.541 145.396 274.302 144.516 276.504 143.966C277.384 143.745 277.934 142.755 277.604 141.984C277.384 141.104 276.393 140.664 275.623 140.884C270.56 142.094 266.157 145.176 263.075 149.249C262.525 149.909 262.965 151.12 263.626 151.56C264.506 152.001 265.387 151.56 265.937 150.9Z" fill="#DCDCDC"/>
</svg>
