<svg width="442" height="600" viewBox="0 0 442 600" fill="none" xmlns="http://www.w3.org/2000/svg">
<path d="M182.946 322.278C188.67 302.576 195.494 286.066 203.529 272.527C211.564 258.989 222.13 243.47 235.118 225.969C244.584 212.981 252.069 202.194 257.462 193.829C262.855 185.464 267.368 176.108 271 165.762C274.522 155.415 276.283 144.409 276.283 132.521V132.191C276.283 111.609 271 95.6488 260.434 84.2017C249.867 72.8648 235.118 67.1413 216.186 67.1413C197.035 67.1413 182.176 74.1855 171.609 88.2742C161.043 102.363 155.649 122.285 155.429 148.151V148.481H81.9039V148.151C82.8945 116.892 88.7281 90.1453 99.6248 68.0217C110.521 45.8981 125.821 28.9477 145.413 17.3906C165.115 5.8335 188.449 0 215.416 0C243.593 0 267.808 5.17313 287.84 15.6296C307.983 26.086 323.282 41.1653 333.849 60.9775C344.415 80.7897 349.699 104.564 349.699 132.521V132.852C349.699 149.692 347.497 164.771 343.094 178.31C338.692 191.848 333.409 203.515 327.135 213.531C320.861 223.437 312.276 235.545 301.379 249.744C289.492 264.933 279.916 278.361 272.651 290.028C265.277 301.805 259.113 315.894 254.16 332.294C249.207 348.804 246.675 367.736 246.675 389.309H174.251C174.471 364.324 177.223 341.98 182.946 322.278ZM172.6 445.994H248.656V522.051H172.6V445.994Z" fill="#F4F6F9"/>
<path d="M437.202 503.229C427.296 476.152 432.8 464.705 428.947 436.528C424.765 406.259 415.299 375.22 402.751 347.923C398.458 338.567 391.084 327.341 384.04 319.306C353.771 284.964 325.924 254.146 281.677 234.223V234.443C281.126 231.362 280.576 228.28 279.916 225.308C283.878 221.455 288.721 218.043 293.564 214.741C301.709 209.128 309.744 203.514 317.889 198.011C319.87 196.69 321.851 195.259 322.952 193.498C324.053 191.737 324.163 189.426 322.512 188.215C321.301 187.335 319.43 187.224 317.669 187.004C315.027 186.784 312.276 186.564 309.634 187.114C306.992 187.555 304.461 188.655 302.149 189.866C292.573 194.489 283.988 199.992 275.623 205.826C272.981 194.599 270.01 182.822 266.928 168.733C266.928 168.513 266.928 168.403 267.038 168.183C272.651 169.614 278.925 168.733 283.548 165.211C290.922 159.708 293.344 148.481 288.831 140.446C285.199 133.952 277.384 130.099 270.01 130.76C270.78 94.5474 262.965 73.0842 241.942 74.0749C232.477 73.8547 223.011 78.0374 215.196 83.5408C191.751 100.051 168.747 117.221 147.945 131.75C147.945 131.75 172.269 146.279 184.267 153.324C184.267 153.324 174.031 191.297 165.775 217.273C165.445 217.273 165.225 217.163 164.895 217.163C160.052 216.943 154.659 219.364 153.338 223.327C152.347 226.409 153.888 229.821 156.2 232.352C156.86 233.123 157.63 233.783 158.401 234.443C112.062 268.675 80.8033 286.285 53.7267 331.413C43.8206 347.813 22.4675 379.733 16.3037 397.454C8.81909 419.137 0.67409 440.05 11.901 463.494C8.15869 464.045 2.43509 466.026 1.77469 469.328C1.00421 472.96 2.10494 476.702 3.20562 480.224C4.41636 484.297 6.06738 488.81 10.36 490.791C5.73717 493.323 3.09555 498.276 3.75596 503.008C4.41636 507.741 8.48886 511.924 13.662 513.355C7.71839 516.877 8.92913 525.462 14.2124 529.645C19.6057 533.827 27.3105 534.708 34.4649 535.258C41.6192 535.809 49.2139 536.139 55.2677 539.661L56.0381 538.67C56.1482 544.064 60.771 548.576 65.8341 551.768C90.4893 567.508 131.875 562.885 156.86 578.185L159.392 580.936C167.427 590.292 178.874 598.987 192.302 598.877C201.658 598.767 210.243 594.475 217.948 589.852C230.605 582.147 242.273 572.791 251.188 561.895C275.733 568.829 296.316 558.483 321.741 564.536C362.466 574.222 420.362 562.225 428.617 547.476C436.652 533.717 442.486 517.647 437.202 503.229Z" fill="white"/>
<path d="M90.269 100.933C91.3697 108.527 91.5898 116.342 92.0301 124.047C92.1402 126.138 88.8381 126.138 88.7281 124.047C88.2878 116.893 88.0678 109.628 87.1872 102.584C86.5268 97.1905 85.0958 91.357 81.5737 87.0643C78.6018 83.5422 74.0891 80.9006 69.3562 80.7905C64.7334 80.7905 60.3307 83.7623 59.6703 88.4952C59.3401 90.6966 60.1106 93.0079 61.9817 94.3288C63.6327 95.5395 65.9441 96.0898 67.8152 94.9891C69.6864 93.9985 71.3374 96.8604 69.4662 97.851C63.5226 101.043 56.2581 95.9797 56.2581 89.4858C56.2581 83.432 61.2112 78.369 67.1548 77.4885C72.7683 76.718 78.6019 79.2495 82.5643 83.1019C87.2972 87.8348 89.3885 94.5489 90.269 100.933ZM109.751 147.381C109.751 147.381 109.641 147.381 109.751 147.381C109.641 147.381 109.641 147.381 109.751 147.381C109.641 147.271 109.641 147.271 109.641 147.271C109.641 147.381 109.641 147.381 109.751 147.381ZM109.311 148.812C109.311 148.702 109.311 148.702 109.311 148.812V148.812ZM113.053 147.712C112.943 149.803 111.622 151.344 109.971 152.555C109.641 152.775 109.311 152.995 108.981 153.215C108.54 153.545 107.99 153.655 107.44 153.545C107.219 153.435 106.999 153.325 106.779 153.215C106.009 152.665 105.458 151.894 105.128 150.904C104.688 149.583 104.908 147.822 105.899 146.721C105.789 146.391 105.789 146.061 105.899 145.73C106.229 144.74 106.999 143.969 107.99 143.639C108.87 143.419 109.751 143.529 110.522 143.859C111.952 144.63 113.163 146.061 113.053 147.712ZM108.21 150.133C108.21 150.133 108.21 150.023 108.21 150.133C108.21 150.023 108.21 150.023 108.21 150.133ZM108.32 148.812C108.54 148.592 108.43 148.702 108.32 148.812V148.812ZM108.981 146.611C108.981 146.721 108.981 146.721 108.981 146.611C108.87 146.721 108.87 146.721 108.981 146.611C108.981 146.721 108.981 146.721 108.981 146.611ZM109.531 148.482C109.531 148.372 109.641 148.262 109.641 148.262C109.641 148.152 109.751 148.042 109.751 147.822C109.751 147.712 109.751 147.602 109.751 147.491L109.641 147.381V147.491C109.531 147.381 109.531 147.381 109.421 147.271C109.421 147.271 109.421 147.271 109.311 147.271C109.201 147.271 109.091 147.161 109.091 147.161H108.981C108.981 147.161 108.981 147.161 108.87 147.161C108.87 147.381 108.981 147.491 108.981 147.712C108.981 148.042 108.76 148.592 108.54 148.922C108.43 149.032 108.32 149.142 108.21 149.142L108.1 149.253V149.363C108.1 149.473 108.1 149.473 108.1 149.583C108.1 149.693 108.1 149.913 108.1 150.023C108.1 150.023 108.1 150.023 108.1 150.133C108.21 150.023 108.54 149.803 108.1 150.133C108.21 150.023 108.21 150.023 108.32 149.913C108.54 149.803 108.65 149.583 108.87 149.473C108.981 149.363 108.981 149.363 109.091 149.253L109.201 149.142C109.201 149.142 109.201 149.253 109.091 149.253C109.311 148.812 109.421 148.592 109.531 148.482ZM432.579 198.563C430.488 198.013 429.608 201.204 431.699 201.755C437.202 203.186 439.514 209.57 437.973 214.633C436.212 220.466 430.598 224.649 424.985 226.41C418.931 228.281 412.217 227.731 406.603 224.649C401.32 221.787 396.257 217.274 389.873 217.054C384.48 216.834 378.316 220.026 377.986 225.97C377.876 228.061 381.178 228.061 381.288 225.97C381.618 220.686 388.773 219.696 392.735 220.907C396.037 221.897 398.899 223.988 401.76 225.75C404.732 227.511 407.704 229.162 411.116 230.042C417.5 231.693 424.434 230.923 430.268 227.841C435.661 225.089 440.504 220.026 441.605 213.752C442.706 207.368 439.183 200.214 432.579 198.563ZM361.035 233.344C361.035 233.344 361.035 233.234 361.035 233.344V233.344ZM364.007 231.253C364.558 232.464 364.668 233.895 363.897 235.105C363.347 235.986 362.466 236.536 361.366 236.756C360.375 236.976 359.274 236.866 358.394 236.316L358.284 236.206C356.853 236.756 354.982 236.316 354.101 234.885C353.991 234.665 353.771 234.335 353.771 234.115C353.661 233.674 353.771 233.234 353.991 232.794C354.211 232.244 354.431 231.693 354.872 231.253C355.642 230.152 356.633 229.382 357.954 228.831C360.045 227.841 362.907 228.941 364.007 231.253ZM359.274 231.693C359.164 231.693 359.054 231.803 358.944 231.803H358.834H358.724C358.834 231.803 358.944 231.913 359.164 231.913C359.825 232.023 360.265 232.684 360.375 233.344H360.485H360.595H360.705H360.815C360.815 233.344 360.925 233.344 361.035 233.234C361.035 233.234 361.035 233.234 361.035 233.124V233.014C361.035 233.014 361.035 233.014 361.035 232.904V232.794V232.904V232.794C361.035 232.794 361.035 232.794 361.035 232.684V232.574C360.925 232.464 360.925 232.354 360.815 232.244C360.815 232.244 360.815 232.244 360.705 232.134C360.595 232.023 360.485 231.913 360.375 231.913C360.375 231.913 360.375 231.913 360.265 231.913C360.155 231.913 360.045 231.803 359.935 231.693C360.045 231.693 360.155 231.693 359.935 231.693H359.825H359.715C359.605 231.693 359.164 231.583 359.494 231.583C359.715 231.693 359.605 231.583 359.494 231.583C359.384 231.583 359.384 231.583 359.274 231.583C359.384 231.693 359.384 231.693 359.274 231.693C359.164 231.693 359.274 231.693 359.274 231.693C359.274 231.693 359.164 231.693 359.274 231.693ZM361.145 233.124V233.014C361.035 233.014 361.035 233.124 361.145 233.124ZM361.035 232.904C361.035 232.904 361.035 232.794 361.035 232.904V232.794V232.904ZM359.384 231.693H359.274C359.384 231.803 359.384 231.693 359.384 231.693ZM411.006 73.1958C410.566 69.0133 409.025 64.8307 406.053 61.7488C403.411 59.1071 399.889 57.3461 396.257 56.6857C392.295 55.9152 387.892 56.3554 384.37 58.5568C381.288 60.4279 376.445 66.2616 380.848 69.2334C382.609 70.4442 384.26 67.5823 382.499 66.3715C381.618 65.8212 383.93 63.0695 384.48 62.5192C385.581 61.5286 386.901 60.7581 388.332 60.2078C391.414 59.2172 394.716 59.3272 397.688 60.3178C400.77 61.3084 403.522 63.1797 405.283 65.9314C407.484 69.4536 408.144 73.7461 407.594 77.7086C406.383 86.7341 400.22 93.8886 392.735 98.4013C384.26 103.575 374.684 105.446 365.438 108.748C360.485 110.509 355.532 113.04 352.34 117.333C349.368 121.295 347.717 126.358 349.258 131.201C349.919 133.183 353.111 132.302 352.45 130.321C350.909 125.588 353.221 120.745 356.633 117.443C360.485 113.701 365.878 111.94 370.831 110.509C380.848 107.427 391.084 104.455 399.339 97.7408C406.603 92.1274 411.887 82.7717 411.006 73.1958ZM346.837 148.812C346.176 148.812 345.516 148.812 344.856 148.812C344.635 148.812 344.415 148.812 344.195 148.922C343.975 149.032 343.865 149.142 343.645 149.253C343.535 149.363 343.425 149.583 343.315 149.803C343.204 150.023 343.205 150.243 343.205 150.463C343.205 150.904 343.315 151.344 343.645 151.674C343.975 152.004 344.415 152.114 344.856 152.114C345.516 152.114 346.176 152.114 346.837 152.114C347.057 152.114 347.277 152.114 347.497 152.004C347.717 151.894 347.827 151.784 348.048 151.674C348.158 151.564 348.268 151.344 348.378 151.124C348.488 150.903 348.488 150.683 348.488 150.463C348.488 150.023 348.378 149.583 348.048 149.253C347.717 148.922 347.277 148.812 346.837 148.812Z" fill="black"/>
<path d="M186.248 307.199C184.377 306.208 186.028 303.347 187.899 304.337C202.428 312.042 219.819 314.243 235.889 311.051C237.98 310.611 238.86 313.803 236.769 314.243C219.819 317.655 201.658 315.234 186.248 307.199ZM440.724 521.721C440.284 528.765 438.303 535.589 434.671 541.643C431.148 547.366 426.306 552.099 420.802 555.732C407.594 564.537 391.194 567.729 375.674 568.94C366.429 569.71 357.073 569.6 347.827 569.05C342.874 568.72 337.921 568.279 332.968 567.619C327.685 566.958 322.622 565.968 317.449 565.087C306.112 563.216 294.775 564.427 283.438 565.307C273.091 566.078 262.855 566.188 252.729 563.656C247.996 569.71 242.603 575.103 236.549 579.836C233.687 582.038 230.825 584.129 227.743 586.11C224.331 588.312 220.809 590.183 217.507 592.384C211.343 596.567 204.079 599.208 196.594 599.869C181.955 601.079 167.977 593.815 158.951 582.478C158.291 581.597 157.52 580.717 156.86 579.726C156.75 579.726 156.53 579.616 156.31 579.506C148.385 574.663 139.359 572.022 130.334 570.15C113.383 566.518 95.7724 565.307 79.2622 559.694C71.5575 557.052 62.9722 553.31 57.799 546.596C56.4782 544.945 55.5977 543.074 55.0473 541.093C54.9373 541.093 54.8273 540.983 54.7172 540.983C49.8742 538.231 44.2608 537.57 38.7574 537.13C30.062 536.47 19.6055 536.47 12.6713 530.196C8.04844 526.013 6.72771 518.529 10.6901 513.906C6.61764 511.925 3.09537 508.292 2.3249 503.67C1.44436 498.717 3.75586 493.984 7.49816 490.902C5.62701 489.471 4.30614 487.49 3.31553 485.288C1.88465 482.096 0.784059 478.464 0.233721 475.052C-0.316618 471.53 0.0135047 467.898 2.21486 464.926C3.97594 462.614 6.39745 461.073 9.25921 460.633C-0.536807 431.575 10.8002 400.426 24.4486 374.34C28.6312 366.415 33.1439 358.6 37.7668 350.896C42.1695 343.631 46.5721 336.367 51.305 329.322C60.0003 316.555 69.7964 304.447 80.4729 293.44C103.147 269.996 127.692 251.945 155.099 234.554C152.457 231.692 150.476 228.06 151.797 224.098C153.338 219.365 158.731 216.943 163.354 216.723C163.684 216.723 164.014 216.723 164.235 216.723C164.455 216.063 164.675 215.292 164.895 214.632C169.077 201.204 173.04 187.665 176.782 174.127C178.653 167.523 180.524 160.919 182.285 154.205C179.534 152.554 176.782 151.013 174.03 149.362C165.005 144.079 155.979 138.685 146.954 133.292C145.853 132.632 145.963 131.091 146.954 130.43C153.558 125.807 160.162 121.074 166.766 116.342C179.094 107.536 191.311 98.5106 203.639 89.7052C209.582 85.4126 215.526 80.7898 222.02 77.4877C225.872 75.5065 229.945 74.0756 234.127 73.1951C231.486 71.7642 228.734 69.893 226.203 67.2514C219.709 60.4272 217.177 38.8539 231.046 28.3975C241.282 57.8956 262.195 44.5774 283.878 63.6191C300.608 78.4782 289.381 114.47 275.733 129.55C281.567 130.76 287.07 134.393 289.932 139.676C294.775 148.481 292.243 160.589 284.098 166.532C280.576 169.174 276.173 170.495 271.771 170.495C270.67 170.495 269.679 170.385 268.579 170.275C269.569 175.008 270.67 179.63 271.771 184.363C273.311 190.857 274.963 197.461 276.503 203.955C278.265 202.745 280.026 201.534 281.897 200.323C287.07 197.021 292.243 193.829 297.746 191.077C300.498 189.647 303.25 188.216 306.222 187.225C309.194 186.235 312.275 186.124 315.357 186.234C317.999 186.345 321.191 186.345 323.392 187.996C325.374 189.647 325.594 192.398 324.493 194.6C323.282 197.131 320.641 198.782 318.439 200.433C315.577 202.414 312.716 204.396 309.854 206.377C304.24 210.339 298.517 214.192 292.903 218.154C288.171 221.456 283.438 224.758 279.475 229.051C280.136 230.262 280.576 231.472 280.796 232.793C281.236 232.683 281.677 232.683 282.117 232.903C285.969 234.994 289.712 237.086 293.564 239.287C308.643 248.093 323.282 257.888 336.931 268.895C350.579 279.792 363.237 291.9 374.464 305.328C386.021 319.086 396.037 333.945 404.182 349.905C412.987 367.186 419.701 385.457 424.324 404.278C426.856 414.515 428.837 424.971 430.268 435.538C431.699 445.884 431.919 456.23 432.139 466.687C432.359 476.153 433.24 485.508 435.881 494.644C436.762 497.506 437.973 500.368 438.743 503.339C439.293 505.431 439.624 507.632 439.844 509.833C440.724 513.686 440.945 517.648 440.724 521.721ZM173.7 197.682C171.829 204.176 169.848 210.67 167.867 217.053C177.553 218.815 184.377 228.39 192.522 233.343C201.327 238.737 212.664 242.699 223.011 240.498C228.844 239.287 233.797 235.545 238.64 232.243C243.593 228.831 248.436 225.198 253.279 221.566C260.213 216.393 267.038 211.11 274.082 206.157C271.22 193.939 268.138 181.832 265.497 169.614C262.305 168.624 259.443 166.973 257.131 164.551C256.471 163.891 256.471 162.9 257.131 162.24C257.792 161.579 258.783 161.579 259.443 162.24C265.277 168.183 275.843 169.064 282.557 164.001C289.271 159.048 291.473 148.702 287.4 141.327C283.328 134.063 273.422 130.43 265.607 133.512C264.726 133.842 263.846 133.402 263.515 132.522C263.185 131.641 263.626 130.76 264.506 130.43C265.167 130.21 265.827 129.99 266.597 129.77L263.075 128.779C252.729 117.332 258.342 105.555 257.682 95.4287C256.801 80.4595 249.317 78.9185 240.511 75.7265C233.247 75.9467 226.423 78.6984 220.259 82.3306C213.985 86.0729 208.151 90.6957 202.098 94.9884C196.044 99.3911 189.99 103.684 183.937 108.086C173.04 116.011 162.143 123.826 151.136 131.641C151.467 131.861 151.797 131.971 152.017 132.191C163.024 138.795 174.141 145.399 185.257 151.893C185.918 152.224 186.248 153.104 186.028 153.765C185.367 156.296 184.707 158.718 183.937 161.249C180.634 173.467 177.222 185.574 173.7 197.682ZM157.63 232.463C159.612 234.554 162.033 236.205 164.345 237.966C166.436 239.507 168.307 241.268 170.178 243.14C180.414 254.036 184.267 268.785 191.421 281.553C198.465 278.911 206.61 281.113 213.655 282.764C218.608 283.975 223.671 285.075 228.624 286.286C233.137 287.387 237.87 288.157 242.272 289.698C245.024 290.689 247.996 292.23 249.207 294.981C254.49 290.469 257.902 283.864 263.295 279.352C266.597 276.49 271 274.289 273.422 270.656C274.962 268.455 275.073 265.483 272.981 264.162C272.651 264.383 272.431 264.603 272.101 264.823C271.33 265.483 270.56 266.144 269.789 266.804C268.248 268.235 266.928 269.666 265.497 271.207C264.946 271.867 263.736 271.757 263.185 271.207C262.525 270.546 262.635 269.556 263.185 268.895C265.387 266.364 267.808 264.052 270.34 261.961C270.34 261.411 270.56 260.75 271.11 260.53C273.532 259.54 275.623 257.558 276.173 254.917C276.724 252.605 275.843 250.404 274.632 248.423C271.881 250.954 269.239 253.486 266.487 256.017C265.827 256.678 264.836 256.678 264.176 256.017C263.515 255.467 263.515 254.256 264.176 253.706C267.148 250.954 270.119 248.203 273.091 245.341C273.091 245.011 273.311 244.57 273.532 244.35C277.164 241.158 279.255 236.315 277.494 231.913C275.073 234.444 272.541 236.866 270.12 239.397C269.459 240.058 268.469 239.948 267.808 239.397C267.148 238.737 267.148 237.636 267.808 237.086C270.67 234.224 273.422 231.362 276.283 228.5C276.393 228.28 276.503 228.06 276.614 227.84C278.485 225.639 280.576 223.768 282.887 221.896C287.62 218.044 292.793 214.632 297.857 211.22C303.25 207.478 308.643 203.735 314.037 199.993C316.458 198.342 319.21 196.801 321.191 194.6C321.851 193.829 322.622 192.618 322.292 191.518C321.961 190.527 320.641 190.307 319.65 190.087C316.788 189.647 313.706 189.427 310.845 189.867C307.763 190.307 305.011 191.628 302.259 192.949C281.567 203.185 263.956 218.264 245.244 231.692C240.511 235.105 235.668 238.737 230.495 241.378C225.872 243.69 220.699 244.57 215.526 244.35C205.62 243.8 195.604 239.837 187.459 234.004C182.836 230.702 178.984 226.189 174.141 223.217C169.738 220.465 164.235 218.925 159.281 221.126C157.41 222.007 155.429 223.437 154.989 225.529C154.438 228.06 155.979 230.702 157.63 232.463ZM63.7427 523.041C63.9628 522.821 64.1829 522.711 64.4031 522.601C63.3024 521.17 62.3119 519.74 61.3213 518.309C59.0098 515.007 56.5884 511.815 53.6165 508.953C50.7548 506.201 47.4526 503.89 44.1506 501.688C37.5465 497.286 30.5023 493.213 25.219 487.269C19.4955 480.886 14.6526 473.621 11.3505 465.696C11.0203 465.036 10.8001 464.375 10.58 463.715H10.4699C7.93837 463.825 5.737 465.366 4.52625 467.567C3.09537 470.209 3.31561 473.291 4.08609 476.043C5.29683 480.886 6.72763 486.939 11.5706 489.361C12.6713 489.911 12.5612 491.672 11.5706 492.223C7.82831 494.314 4.9666 498.606 5.84714 503.119C6.72768 507.412 10.47 510.604 14.5425 511.705C15.8633 512.145 16.1934 514.016 14.9827 514.676C11.9008 516.548 11.2405 519.96 12.3412 523.262C14.7626 530.856 24.5586 532.507 31.3828 533.168C39.3077 533.938 47.6728 533.718 54.9373 537.24C55.0474 536.25 55.1574 535.369 55.4876 534.378C56.8084 529.976 60.3306 526.343 63.7427 523.041ZM152.347 573.783C150.036 570.591 147.724 567.509 145.083 564.537C141.561 560.465 137.818 556.612 133.636 553.31C126.922 548.027 119.217 544.945 111.072 542.744C100.175 539.772 89.1683 537.13 78.4918 533.608C76.6206 532.948 74.6394 532.507 72.9884 531.297C71.4475 530.196 70.0166 528.985 68.6957 527.664C67.9253 526.894 67.1548 526.013 66.3843 525.133C66.2743 525.243 66.2742 525.353 66.1641 525.463C62.752 528.875 58.1293 533.058 58.1293 538.231C58.0192 542.964 61.9816 546.816 65.6138 549.348C71.9977 553.86 79.4823 556.612 87.077 558.593C95.222 560.795 103.477 562.116 111.732 563.546C125.16 565.748 139.689 567.729 152.347 573.783ZM249.207 562.886C247.225 562.226 248.106 559.144 250.087 559.694C250.528 559.804 250.858 559.914 251.298 560.024C251.298 560.024 251.298 560.024 251.298 559.914C258.783 549.678 263.736 537.901 266.157 525.463C271.22 498.937 264.616 471.09 254.05 446.765C251.188 440.161 247.446 433.887 245.024 427.063C242.933 421.119 241.942 414.845 242.052 408.681C242.162 396.904 246.015 385.677 248.766 374.34C251.518 362.783 252.729 351.116 248.546 339.779C247.336 336.477 245.684 333.285 243.813 330.313C242.713 328.552 241.612 326.901 240.401 325.36C239.191 323.709 237.319 322.168 236.439 320.297C235.668 318.756 235.008 316.775 234.678 314.794H234.898C235.228 309.18 241.392 305.658 244.694 301.695C245.905 300.265 247.225 298.283 246.345 296.192C245.134 293.33 241.062 292.34 238.42 291.679C229.284 289.368 219.929 287.387 210.793 285.185C207.271 284.415 203.749 283.644 200.117 283.534C197.035 283.424 193.733 283.644 190.981 285.295C187.789 287.167 186.908 290.469 186.908 293.881C186.908 297.623 187.569 301.145 187.018 304.887C186.688 306.979 183.496 306.098 183.826 304.007C184.597 299.604 183.166 295.091 183.826 290.579C184.267 287.387 186.028 284.745 188.559 282.984C184.707 276.27 181.845 269.005 178.543 261.961C176.452 257.448 174.03 253.156 171.059 249.083C167.757 244.68 163.574 241.378 159.281 238.076C158.841 237.746 158.291 237.306 157.851 236.866C150.806 241.378 145.963 244.79 139.029 249.633C113.053 267.464 88.618 287.607 68.6957 311.932C58.4594 324.369 49.9843 337.798 41.6191 351.446C32.5936 366.195 23.8982 381.384 17.6243 397.564C11.9008 412.093 8.04847 427.613 9.25921 443.352C10.58 459.422 17.8445 475.052 29.1814 486.499C34.7949 492.223 41.9492 496.075 48.5533 500.588C51.7453 502.789 54.9373 505.321 57.689 508.182C60.3306 510.934 62.532 514.126 64.8434 517.318C67.1548 520.51 69.4662 523.702 72.4381 526.343C73.979 527.774 75.6299 528.985 77.7212 529.646C79.3722 530.196 81.0233 530.746 82.6743 531.297C88.3978 533.168 94.2314 534.819 100.065 536.25C108.65 538.451 117.456 540.322 125.491 544.175C134.186 548.247 141.34 554.851 147.614 562.115C152.457 567.619 156.75 573.563 161.043 579.506C165.335 585.56 171.389 590.403 178.213 593.485C184.597 596.347 191.751 597.337 198.686 596.346C202.208 595.796 205.62 594.806 208.922 593.485C212.554 591.834 215.746 589.412 219.158 587.541C230.385 581.267 240.952 573.122 249.207 562.886ZM436.652 507.962C435.771 502.679 433.57 497.726 432.249 492.553C431.038 487.93 430.268 483.197 429.828 478.464C428.947 469.549 429.277 460.523 428.837 451.498C427.846 430.585 423.444 409.562 417.28 389.64C411.777 372.029 404.292 354.968 394.936 339.008C386.021 324.039 375.454 310.061 363.567 297.403C351.9 284.965 338.912 273.738 325.153 263.612C311.285 253.376 296.646 244.35 281.567 236.095C281.236 239.617 279.585 243.029 277.054 245.671C279.035 248.643 280.466 252.055 279.585 255.687C279.035 258.109 277.494 260.2 275.513 261.741C277.164 263.172 278.154 265.373 277.934 267.795C277.604 271.427 275.183 274.179 272.431 276.38C269.349 278.911 265.827 281.113 263.075 284.085C258.562 288.928 255.15 294.761 249.867 298.724C249.647 300.375 248.877 301.916 247.886 303.346C246.125 305.658 243.923 307.529 241.832 309.51C240.291 311.051 238.31 312.922 238.2 315.234C238.42 316.555 238.75 318.096 239.411 319.196C240.291 320.627 241.722 321.948 242.823 323.379C251.078 334.165 255.591 346.933 254.49 360.692C253.609 372.359 249.537 383.476 247.115 394.813C244.474 407.25 244.804 419.798 250.417 431.465C253.609 438.179 257.021 444.783 259.773 451.718C262.415 458.432 264.726 465.256 266.597 472.19C273.201 497.396 273.752 524.913 262.195 548.797C260.103 553.09 257.682 557.162 254.93 561.015C258.893 562.005 263.075 562.556 267.148 562.666C278.044 563.216 288.831 561.455 299.728 561.015C305.341 560.795 311.065 561.015 316.568 561.785C321.851 562.556 327.024 563.656 332.308 564.317C350.469 566.628 369.07 567.289 387.232 564.317C401.32 562.005 416.179 557.383 426.416 547.036C436.542 536.58 438.963 522.051 436.652 507.962ZM335.39 457.111C338.031 459.532 336.82 462.945 334.729 465.256C332.308 468.008 328.455 470.319 324.713 469.659C321.741 469.218 319.87 466.797 319.21 464.045C319.1 463.605 318.99 463.055 318.769 462.614C316.788 464.265 315.137 466.247 313.266 468.118C310.844 470.539 308.203 472.52 305.011 473.951C298.847 476.813 291.803 477.914 284.979 476.923C282.887 476.593 283.768 473.401 285.859 473.731C287.62 473.951 289.271 474.061 291.032 473.951C298.297 473.621 305.451 471.09 310.735 465.916C312.936 463.715 315.027 461.404 317.449 459.422C313.706 451.277 306.332 445.224 301.819 437.519C299.177 433.006 297.747 428.053 298.737 422.77C299.287 419.578 300.939 416.826 302.369 414.075C303.8 411.543 306.222 407.801 305.011 404.719C303.8 401.527 299.177 400.976 296.426 399.656C293.344 398.225 290.592 396.133 288.171 393.822C283.438 389.089 280.136 382.815 279.145 376.211C278.815 374.12 282.007 373.239 282.337 375.331C283.328 382.485 287.07 388.979 292.683 393.492C295.435 395.693 298.517 397.124 301.819 398.335C305.341 399.656 308.313 401.857 308.533 405.929C308.863 412.203 303.25 417.156 301.929 423.1C300.828 427.723 302.369 432.236 304.791 436.308C309.304 443.793 316.348 449.736 320.2 457.661C322.512 456.451 325.043 455.79 327.575 455.46C330.216 455.13 333.408 455.35 335.39 457.111ZM328.786 458.652C326.364 458.762 323.722 459.422 321.521 460.633C321.631 460.853 321.631 460.963 321.741 461.184C322.402 463.165 322.622 466.026 325.153 466.467C327.024 466.797 329.006 465.696 330.437 464.596C331.647 463.715 332.968 462.504 333.408 461.073C334.289 458.652 330.217 458.542 328.786 458.652ZM232.697 100.932C230.055 103.904 228.074 107.316 226.753 111.058C226.423 111.829 227.083 112.929 227.854 113.04C228.734 113.26 229.615 112.709 229.835 111.939C229.945 111.499 230.165 111.168 230.275 110.728C230.275 110.618 230.385 110.508 230.385 110.398V110.288C230.495 110.068 230.605 109.848 230.605 109.737C230.935 108.967 231.376 108.087 231.816 107.316C232.256 106.546 232.697 105.885 233.247 105.115C233.357 104.895 233.467 104.784 233.577 104.564C233.577 104.564 233.577 104.564 233.577 104.454C233.577 104.454 233.577 104.454 233.577 104.344C233.687 104.234 233.687 104.124 233.797 104.124C234.127 103.794 234.348 103.464 234.678 103.023C235.228 102.363 235.338 101.262 234.678 100.712C234.348 100.382 233.247 100.272 232.697 100.932ZM214.976 111.829C215.856 112.269 216.737 111.939 217.287 111.278C219.378 108.307 221.47 105.335 223.561 102.363C224.111 101.703 223.671 100.492 223.011 100.052C222.13 99.6113 221.249 99.9415 220.699 100.602C218.608 103.574 216.517 106.546 214.425 109.517C213.875 110.288 214.205 111.499 214.976 111.829ZM216.737 92.3469C219.488 93.0073 222.35 93.6676 225.102 94.328C225.982 94.5481 226.973 94.1079 227.083 93.2273C227.303 92.3468 226.863 91.3563 225.982 91.2462C223.231 90.5858 220.369 89.9253 217.617 89.2649C216.737 89.0448 215.746 89.4851 215.636 90.3656C215.306 91.1361 215.856 92.1267 216.737 92.3469ZM231.486 89.8153C232.256 90.2555 233.357 90.0354 233.797 89.2649C234.568 87.724 235.668 86.5133 237.209 85.7428C238.53 85.0824 239.961 84.7522 241.392 85.3025C241.392 85.3025 241.722 85.4125 241.722 85.5226C241.832 85.6327 241.942 85.6327 242.052 85.7428C242.162 85.7428 242.162 85.8529 242.272 85.8529C242.272 85.8529 242.272 85.8528 242.383 85.9629C242.493 86.073 242.713 86.1831 242.823 86.4032C242.823 86.4032 243.043 86.7333 243.153 86.7333C243.263 86.8434 243.263 86.9535 243.373 87.0636C243.483 87.2837 243.593 87.3938 243.703 87.6139C243.703 87.724 243.813 87.834 243.813 87.834C243.923 88.1642 244.034 88.4944 244.144 88.8246C244.144 88.8246 244.144 88.8246 244.144 88.9347C244.144 89.0447 244.144 89.0448 244.144 89.1549C244.144 89.375 244.144 89.4851 244.144 89.7052C244.144 89.7052 244.144 89.7052 244.144 89.8153C244.144 90.0354 244.034 90.1455 244.034 90.3656C244.034 90.3656 244.034 90.3656 244.034 90.4756C244.034 90.5857 243.923 90.5858 243.923 90.6959C243.923 90.8059 243.593 91.2461 243.813 90.9159C243.263 91.5763 243.153 92.5669 243.813 93.2273C244.364 93.7777 245.574 93.8877 246.125 93.2273C247.225 91.9065 247.666 90.2556 247.446 88.4945C247.225 86.8435 246.455 85.3025 245.354 84.2018C242.713 81.4501 238.64 81.4501 235.558 83.3212C233.687 84.4219 232.146 86.073 231.266 87.9442C230.385 88.3844 230.605 89.375 231.486 89.8153ZM192.632 210.89C193.182 211.55 194.393 211.44 194.943 210.89C195.604 210.229 195.494 209.239 194.943 208.578C192.742 205.827 191.201 202.635 190.32 199.333C189.66 196.911 189 193.389 190.541 191.077C192.192 188.656 195.273 190.637 196.484 192.508C197.475 193.939 197.805 195.7 198.245 197.351C198.686 199.112 199.236 200.874 200.006 202.635C200.997 204.506 203.749 202.855 202.868 200.984C201.327 197.902 201.327 194.38 199.676 191.408C198.245 188.876 195.604 186.565 192.522 186.675C189.55 186.785 187.459 189.096 186.798 191.848C186.028 194.82 186.578 198.012 187.459 200.984C188.449 204.506 190.21 207.918 192.632 210.89ZM179.864 306.318C159.281 314.683 144.532 334.496 141.01 356.289C140.13 361.682 139.909 367.296 140.46 372.799C140.79 375.551 141.23 378.303 141.891 380.944C142.771 384.576 143.982 388.209 144.532 391.841C145.523 398.115 143.872 403.838 140.24 408.901C136.828 413.744 132.205 417.817 127.692 421.669C118.116 430.144 106.119 443.463 112.723 457.221C113.603 459.092 116.465 457.441 115.585 455.57C110.081 444.013 121.088 432.126 129.013 424.971C137.268 417.597 146.954 409.562 148.054 397.785C148.715 390.85 145.853 384.136 144.422 377.422C143.322 372.249 143.101 366.966 143.542 361.682C144.422 351.116 148.055 340.769 153.888 331.964C160.382 322.058 169.628 313.913 180.634 309.4C182.616 308.63 181.845 305.438 179.864 306.318ZM265.937 150.903C266.047 150.793 266.157 150.683 266.267 150.463C266.487 150.242 266.597 150.022 266.817 149.802C267.258 149.362 267.588 148.922 268.028 148.591C268.909 147.821 269.569 147.271 270.56 146.61C272.541 145.399 274.302 144.519 276.503 143.968C277.384 143.748 277.934 142.758 277.604 141.987C277.384 141.107 276.393 140.667 275.623 140.887C270.56 142.097 266.157 145.179 263.075 149.252C262.525 149.912 262.965 151.123 263.626 151.563C264.506 152.003 265.387 151.563 265.937 150.903Z" fill="black"/>
</svg>
