<svg width="600" height="587" viewBox="0 0 600 587" fill="none" xmlns="http://www.w3.org/2000/svg">
<path d="M224.928 246.934C203.484 254.421 179.734 246.056 160.022 234.755C140.31 223.455 121.918 208.985 100.04 202.912C86.6187 199.168 70.5261 199.456 60.7711 209.405C49.7502 220.651 51.4123 238.918 55.3345 254.18C64.6001 289.844 83.1082 324.08 112.311 346.603C141.514 369.127 182.304 378.004 216.478 364.156C250.651 350.308 274.41 311.343 265.796 275.476C263.466 265.931 258.861 256.572 250.97 250.724C243.079 244.875 231.553 243.361 223.413 248.852L224.928 246.934Z" fill="#006C8F"/>
<path d="M84.5378 200.675C89.7916 200.71 95.0166 201.455 100.071 202.888C121.95 208.985 140.341 223.454 160.053 234.732C174.546 243.042 191.221 249.768 207.562 249.768C213.481 249.803 219.363 248.837 224.96 246.91L223.445 248.828C226.911 246.561 230.977 245.381 235.118 245.442C240.822 245.488 246.365 247.336 250.955 250.723C258.846 256.572 263.482 265.93 265.781 275.476C274.41 311.311 250.652 350.308 216.478 364.156C205.429 368.572 193.629 370.809 181.73 370.742C157.063 370.742 132.062 361.717 112.343 346.541C83.1398 324.072 64.6317 289.844 55.3661 254.156C51.4128 238.91 49.7508 220.627 60.8028 209.381C66.954 203.106 75.6294 200.675 84.5688 200.675H84.5378ZM84.5378 195.238C73.0741 195.238 63.5211 198.811 56.8884 205.576C46.5276 216.146 44.2442 232.945 50.108 255.523C54.789 273.974 62.061 291.669 71.7072 308.08C81.9748 325.307 94.5335 339.699 108.987 350.852C129.903 366.952 156.403 376.179 181.691 376.179C194.292 376.252 206.787 373.878 218.482 369.189C236.431 361.911 251.832 348.257 261.851 330.751C272.204 312.678 275.466 292.594 271.039 274.202C268.989 265.659 264.399 253.931 254.17 246.343C248.654 242.259 241.981 240.039 235.118 240.005C231.959 239.988 228.819 240.513 225.837 241.559C225.627 241.519 225.414 241.496 225.2 241.489H224.913C224.727 241.477 224.54 241.477 224.354 241.489C223.895 241.536 223.443 241.64 223.01 241.799C218.022 243.498 212.785 244.348 207.516 244.316C194.359 244.316 179.284 239.493 162.71 230.002C157.389 226.949 152.038 223.579 146.858 220.324C132.73 211.439 118.121 202.244 101.485 197.607C95.9633 196.051 90.2585 195.241 84.5222 195.199L84.5378 195.238Z" fill="#323544"/>
<path d="M129.553 239.564L118.361 210.05C112.49 207.098 106.357 204.7 100.04 202.889C91.7059 200.559 82.347 199.783 74.1143 201.926L67.4971 204.435C65.0069 205.717 62.7366 207.387 60.7711 209.382C49.7502 220.628 51.4123 238.896 55.3345 254.157C56.8101 259.827 58.5188 265.466 60.4682 271.027L126.672 245.909C127.278 245.683 127.834 245.339 128.308 244.897C128.781 244.456 129.163 243.925 129.431 243.335C129.699 242.745 129.847 242.109 129.868 241.462C129.889 240.814 129.782 240.169 129.553 239.564Z" fill="#08A4CA"/>
<path d="M226.342 390.432C258.418 347.039 281.439 302.171 307.814 254.709C317.701 236.923 334.998 229.949 346.865 213.584C358.81 197.064 365.653 176.257 364.969 155.396C364.379 137.3 355.696 110.505 364.278 94.8158C373.474 78.0165 398.964 77.8223 416.393 83.9036C458.574 98.6138 486.906 136.298 500.187 177.974C513.469 219.65 510.199 274.281 490.091 312.726C469.983 351.171 442.924 370.409 406.482 391.558C379.299 407.34 345.762 410.765 314.835 413.04C283.908 415.316 251.925 408.233 226.078 390.082L226.342 390.432Z" fill="#006C8F"/>
<path d="M394.902 80.2746C402.218 80.3041 409.478 81.5374 416.393 83.9249C458.574 98.635 486.907 136.319 500.188 177.995C513.469 219.671 510.199 274.302 490.091 312.747C469.983 351.192 442.924 370.407 406.483 391.556C379.299 407.338 345.763 410.763 314.836 413.038C311.118 413.313 307.39 413.45 303.651 413.45C276.468 413.45 249.09 406.126 226.427 390.321C258.465 346.959 281.462 302.13 307.814 254.707C317.701 236.921 334.998 229.946 346.865 213.582C358.811 197.062 365.653 176.255 364.97 155.394C364.379 137.298 355.696 110.503 364.278 94.8138C370.064 84.2511 382.289 80.2513 394.902 80.2513V80.2746ZM226.078 390.08L226.427 390.321L226.342 390.43L226.078 390.08ZM394.902 74.8379C378.219 74.8379 365.645 81.0124 359.51 92.2275C352.659 104.732 355.246 122.331 357.529 137.849C358.469 144.295 359.37 150.384 359.533 155.573C360.036 175.232 354.029 194.506 342.446 210.398C337.499 217.24 331.511 222.312 325.173 227.686C317.204 234.443 308.964 241.433 303.053 252.066C298.727 259.833 294.448 267.646 290.301 275.187C269.198 313.633 249.238 349.981 223.266 385.412C222.87 385.654 222.505 385.944 222.179 386.274C221.276 387.197 220.731 388.411 220.642 389.699C220.552 390.987 220.923 392.264 221.69 393.303L221.954 393.661C222.557 394.482 223.381 395.115 224.33 395.486C246.753 410.802 274.146 418.887 303.636 418.887C307.473 418.887 311.403 418.739 315.216 418.46C347.51 416.13 381.365 412.425 409.193 396.262C425.658 386.702 442.97 376.015 457.983 362.718C473.338 349.126 485.058 334.043 494.875 315.271C515.216 276.36 519.426 220.518 505.345 176.349C490.044 128.335 458.263 92.7712 418.164 78.7911C410.665 76.2098 402.794 74.8744 394.864 74.8379H394.902Z" fill="#323544"/>
<path d="M226.342 390.435L226.427 390.319L226.078 390.086L226.342 390.435Z" fill="#006C8F"/>
<path d="M226.079 390.085L226.428 390.318L226.343 390.435L226.079 390.085ZM226.079 384.648C225.073 384.648 224.087 384.927 223.23 385.453C222.373 385.98 221.679 386.734 221.225 387.631C220.771 388.529 220.575 389.534 220.658 390.537C220.742 391.539 221.102 392.498 221.698 393.308L221.954 393.666C222.46 394.35 223.119 394.906 223.878 395.289C224.638 395.672 225.476 395.871 226.327 395.871C227.177 395.872 228.015 395.674 228.775 395.292C229.534 394.91 230.193 394.356 230.7 393.673L230.762 393.58C231.199 392.996 231.515 392.33 231.689 391.622C231.864 390.913 231.894 390.177 231.778 389.456C231.662 388.736 231.403 388.046 231.014 387.428C230.626 386.811 230.118 386.277 229.519 385.86L229.294 385.705L229.193 385.635C228.283 384.996 227.198 384.652 226.086 384.648H226.079Z" fill="#323544"/>
<path d="M500.189 177.997C490.954 149.019 474.435 121.975 451.034 103.242C460.533 117.164 467.931 132.407 472.99 148.483C486.271 190.167 483.001 244.79 462.893 283.235C442.785 321.68 415.742 340.895 379.301 362.044C352.117 377.826 318.581 381.251 287.654 383.527C269.997 384.88 252.242 383.017 235.252 378.028C232.383 382.139 229.442 386.235 226.429 390.315C252.206 408.295 284.05 415.3 314.837 413.04C345.764 410.764 379.301 407.339 406.484 391.557C442.925 370.409 469.969 351.233 490.085 312.749C510.2 274.265 513.47 219.68 500.189 177.997Z" fill="#08A4CA"/>
<path d="M199.159 360.916L199.244 360.799L198.895 360.566L199.159 360.916Z" fill="#006C8F"/>
<path d="M198.895 360.566L199.244 360.799L199.159 360.915L198.895 360.566ZM198.895 355.129C197.889 355.128 196.903 355.407 196.046 355.934C195.189 356.46 194.495 357.214 194.041 358.112C193.587 359.009 193.391 360.015 193.475 361.017C193.558 362.019 193.918 362.979 194.515 363.789L194.771 364.146C195.276 364.83 195.935 365.386 196.695 365.769C197.454 366.152 198.293 366.352 199.143 366.352C199.993 366.353 200.832 366.154 201.591 365.773C202.351 365.391 203.01 364.836 203.516 364.154L203.578 364.061C204.016 363.477 204.331 362.811 204.506 362.102C204.68 361.394 204.711 360.657 204.595 359.937C204.479 359.217 204.219 358.527 203.831 357.909C203.443 357.291 202.934 356.758 202.336 356.341L202.11 356.185L202.009 356.115C201.099 355.476 200.015 355.132 198.903 355.129H198.895Z" fill="#323544"/>
<path d="M452.135 126.391C444.128 119.588 432.353 121.925 422.746 125.754C413.138 129.583 403.073 134.686 393.054 132.271C388.394 131.152 384.169 128.465 379.454 127.719C376.553 127.304 373.595 127.618 370.846 128.633C368.097 129.649 365.645 131.334 363.711 133.537C363.54 133.731 363.377 133.933 363.214 134.142C363.797 141.241 364.768 148.425 364.969 155.4C365.256 164.988 364.038 174.561 361.358 183.772C387.221 177.248 417.185 183.306 440.78 169.512C448.081 165.24 454.636 158.856 457.471 150.553C460.306 142.251 458.643 131.921 452.135 126.391Z" fill="#08A4CA"/>
<path d="M369.483 61.556C384.177 26.2175 421.861 1.75244 460.12 2.78541C465.635 2.92521 471.988 4.07469 474.683 8.88227C477.72 14.319 474.256 21.1925 469.603 25.2933C464.951 29.3941 459.056 32.1124 455.165 36.9433C469.997 35.853 484.897 36.0687 499.691 37.588C504.243 38.054 508.887 38.6753 512.973 40.7412C517.058 42.8072 520.545 46.574 521.081 51.1253C521.617 55.6766 519.163 60.0415 515.644 62.8918C512.126 65.7422 507.746 67.2101 503.357 68.212C486.542 71.9846 468.935 69.6874 453.651 61.7268C443.259 56.2901 433.97 48.1973 422.537 45.5566C413.536 43.4829 404.014 45.0362 395.354 48.3138C386.694 51.5913 378.842 56.5309 371.021 61.4317" fill="#006C8F"/>
<path d="M487.583 72.657C475.352 72.6801 463.295 69.7493 452.439 64.1136C448.936 62.2729 445.55 60.1449 442.272 58.0789C435.554 53.8461 429.217 49.854 421.978 48.1842C414.406 46.4367 405.559 47.3531 396.402 50.8326C387.991 54.0325 380.131 58.9566 372.543 63.7175C371.936 64.094 371.206 64.2193 370.508 64.067C370.012 64.2617 369.469 64.3059 368.947 64.1943C368.426 64.0827 367.949 63.8201 367.575 63.4392C367.202 63.0584 366.949 62.5761 366.847 62.0525C366.746 61.5289 366.801 60.987 367.005 60.4944C374.322 42.895 387.642 27.183 404.519 16.2242C421.396 5.26542 441.177 -0.474156 460.221 0.0306784C468.765 0.255912 474.419 2.77232 477.09 7.51777C480.912 14.3214 476.834 22.5385 471.429 27.2918C469.501 28.9267 467.481 30.4489 465.378 31.8508C464.462 32.4877 463.561 33.1168 462.691 33.7459C475.128 33.209 487.588 33.5776 499.971 34.8488C504.701 35.3303 509.687 35.9982 514.208 38.2739C519.644 41 523.194 45.6678 523.792 50.7705C524.39 55.8732 521.935 61.2633 517.4 64.9602C513.159 68.4164 508.002 69.9076 503.987 70.8241C498.605 72.0473 493.102 72.6622 487.583 72.657ZM414.103 41.8776C417.162 41.8665 420.213 42.2026 423.197 42.8795C431.337 44.7591 438.366 49.1861 445.169 53.4733C448.354 55.4771 451.655 57.5508 454.971 59.2983C469.692 66.9207 486.626 69.1203 502.806 65.5117C507.909 64.3466 511.349 62.871 513.982 60.7351C517.089 58.1954 518.798 54.615 518.417 51.4151C517.959 47.5318 514.689 44.6037 511.777 43.1358C508.087 41.2718 503.66 40.6971 499.443 40.2621C484.808 38.7648 470.07 38.5517 455.398 39.6253C454.868 39.6699 454.337 39.5576 453.87 39.3024C453.404 39.0472 453.022 38.6604 452.774 38.1902C452.526 37.7199 452.421 37.187 452.473 36.6577C452.526 36.1285 452.733 35.6263 453.068 35.2138C455.686 31.9595 459.033 29.6373 462.264 27.3927C464.193 26.1093 466.047 24.7168 467.817 23.222C471.755 19.7581 474.566 14.1738 472.33 10.1895C470.667 7.2304 466.543 5.64599 460.066 5.47512C425.776 4.57419 391.346 25.2802 375.308 55.578C381.369 51.7108 387.779 48.4189 394.453 45.7454C400.716 43.2866 407.374 41.9866 414.103 41.9087V41.8776Z" fill="#323544"/>
<path d="M376.192 154.591C379.156 154.591 381.559 152.188 381.559 149.224C381.559 146.26 379.156 143.857 376.192 143.857C373.228 143.857 370.825 146.26 370.825 149.224C370.825 152.188 373.228 154.591 376.192 154.591Z" fill="#323544"/>
<path d="M418.35 149.23C421.314 149.23 423.716 146.827 423.716 143.863C423.716 140.899 421.314 138.496 418.35 138.496C415.386 138.496 412.983 140.899 412.983 143.863C412.983 146.827 415.386 149.23 418.35 149.23Z" fill="#323544"/>
<path d="M354.12 124.568C353.211 124.568 352.33 124.249 351.632 123.666C350.934 123.084 350.462 122.274 350.299 121.38C350.137 120.485 350.293 119.561 350.742 118.77C351.19 117.979 351.902 117.37 352.753 117.05L358.516 114.883C358.993 114.704 359.501 114.62 360.011 114.637C360.521 114.654 361.022 114.771 361.487 114.981C361.951 115.192 362.37 115.492 362.718 115.864C363.067 116.237 363.338 116.674 363.518 117.151C363.697 117.629 363.781 118.137 363.764 118.646C363.747 119.156 363.63 119.657 363.42 120.122C363.209 120.586 362.909 121.005 362.537 121.353C362.165 121.702 361.727 121.973 361.25 122.153L355.503 124.32C355.061 124.487 354.592 124.571 354.12 124.568Z" fill="#323544"/>
<path d="M408.572 118.88C408.377 118.88 408.182 118.865 407.989 118.834L401.908 117.91C401.389 117.85 400.888 117.687 400.434 117.43C399.98 117.172 399.582 116.826 399.265 116.411C398.948 115.997 398.717 115.522 398.588 115.017C398.458 114.511 398.431 113.984 398.51 113.468C398.588 112.952 398.77 112.457 399.044 112.013C399.318 111.569 399.678 111.184 400.104 110.882C400.53 110.581 401.013 110.368 401.523 110.257C402.033 110.146 402.56 110.139 403.073 110.236L409.154 111.16C410.119 111.311 410.992 111.82 411.598 112.585C412.205 113.35 412.501 114.316 412.427 115.289C412.354 116.263 411.916 117.173 411.202 117.839C410.487 118.504 409.548 118.876 408.572 118.88Z" fill="#323544"/>
<path d="M569.514 132.528C569.514 132.528 586.329 128.854 594.609 145.249C602.888 161.645 588.947 181.124 588.947 181.124C588.947 181.124 570.105 178.196 569.53 166.282C569.53 166.282 576.031 165.155 573.903 159.455C571.774 153.754 566.594 159.587 566.594 159.587C566.594 159.587 556.062 147.51 569.514 132.528Z" fill="#111217"/>
<path d="M588.946 183.846C588.809 183.858 588.671 183.858 588.534 183.846C587.672 183.714 567.486 180.413 566.842 166.441C566.811 165.779 567.023 165.129 567.438 164.613C567.853 164.097 568.442 163.75 569.094 163.637C569.669 163.528 571.059 163.039 571.494 162.262C571.615 161.967 571.671 161.648 571.658 161.329C571.644 161.01 571.562 160.698 571.416 160.414C571.333 160.159 571.213 159.918 571.059 159.699C570.145 160.077 569.332 160.662 568.682 161.408C568.422 161.69 568.106 161.915 567.755 162.07C567.403 162.225 567.024 162.306 566.64 162.309C566.256 162.306 565.877 162.223 565.527 162.064C565.178 161.904 564.866 161.673 564.613 161.384C564.488 161.245 552.629 147.303 567.525 130.721C567.909 130.3 568.413 130.007 568.97 129.883C569.156 129.844 587.944 125.999 597.062 144.034C605.986 161.687 591.796 181.865 591.19 182.719C590.933 183.073 590.596 183.36 590.205 183.556C589.814 183.752 589.383 183.851 588.946 183.846ZM572.636 168.11C574.531 174.425 583.835 177.197 587.703 178.098C590.538 173.485 598.421 158.759 592.216 146.472C585.925 134.046 574.205 134.62 570.958 135.055C563.191 144.228 565.351 151.901 567.246 155.544C568.664 154.534 570.412 154.098 572.139 154.324C573.521 154.589 575.401 155.521 576.511 158.503C576.961 159.527 577.17 160.641 577.121 161.759C577.073 162.876 576.769 163.968 576.232 164.949C575.375 166.35 574.109 167.453 572.605 168.11H572.636Z" fill="#323544"/>
<path d="M585.272 167.043C584.583 167.043 583.919 166.78 583.416 166.308C582.912 165.837 582.607 165.192 582.562 164.503C580.737 136.893 553.553 119.76 553.305 119.589C552.687 119.211 552.244 118.603 552.075 117.898C551.905 117.194 552.022 116.451 552.4 115.833C552.778 115.216 553.386 114.773 554.09 114.603C554.794 114.434 555.537 114.551 556.155 114.929C557.374 115.705 585.979 133.67 587.998 164.107C588.023 164.464 587.976 164.822 587.862 165.16C587.748 165.499 587.568 165.812 587.333 166.081C587.098 166.35 586.812 166.57 586.492 166.728C586.172 166.887 585.823 166.981 585.467 167.004L585.272 167.043Z" fill="#323544"/>
<path d="M517.598 435.762C521.683 444.026 534.265 444.406 541.581 438.807C548.897 433.207 552.253 423.972 555.243 415.25L559.646 402.381C551.064 409.767 537.659 405.666 526.925 409.262C522.254 410.933 518.219 414.018 515.382 418.088C512.546 422.158 511.048 427.011 511.097 431.972" fill="#111217"/>
<path d="M530.056 445.275C528.511 445.279 526.971 445.104 525.466 444.754C523.277 444.313 521.214 443.386 519.43 442.042C517.647 440.698 516.187 438.971 515.16 436.987C514.841 436.341 514.791 435.594 515.023 434.91C515.255 434.227 515.748 433.664 516.395 433.345C517.042 433.026 517.789 432.976 518.472 433.208C519.155 433.44 519.718 433.933 520.037 434.58C520.71 435.845 521.658 436.942 522.811 437.792C523.964 438.641 525.294 439.221 526.701 439.488C528.976 439.978 531.329 439.979 533.605 439.493C535.881 439.008 538.028 438.045 539.905 436.669C546.825 431.38 550.048 421.959 552.642 414.394L554.754 408.181C550.327 409.734 545.434 409.921 540.712 410.123C535.99 410.324 531.695 410.519 527.757 411.839C523.64 413.326 520.084 416.053 517.581 419.644C515.077 423.236 513.748 427.515 513.777 431.893C513.788 432.249 513.728 432.605 513.602 432.939C513.475 433.273 513.284 433.579 513.039 433.839C512.794 434.099 512.5 434.308 512.175 434.454C511.849 434.601 511.498 434.682 511.141 434.692C510.784 434.703 510.428 434.643 510.094 434.517C509.76 434.39 509.455 434.199 509.195 433.954C508.935 433.709 508.725 433.415 508.579 433.09C508.432 432.764 508.351 432.413 508.341 432.056C508.247 426.504 509.905 421.064 513.08 416.509C516.254 411.954 520.784 408.515 526.025 406.682C530.685 405.129 535.656 404.903 540.472 404.694C547.12 404.406 553.403 404.134 557.838 400.313C558.291 399.925 558.858 399.696 559.454 399.663C560.049 399.629 560.639 399.792 561.133 400.127C561.627 400.461 561.997 400.949 562.186 401.515C562.375 402.08 562.373 402.692 562.179 403.257L557.776 416.126C554.949 424.39 551.423 434.673 543.198 440.98C539.388 443.777 534.783 445.282 530.056 445.275Z" fill="#323544"/>
<path d="M506.291 435.822C505.421 435.822 504.551 435.798 503.681 435.752C502.961 435.714 502.284 435.391 501.801 434.854C501.319 434.317 501.069 433.611 501.107 432.89C501.145 432.169 501.468 431.493 502.005 431.01C502.541 430.527 503.248 430.277 503.969 430.315C510.424 430.609 516.872 429.594 522.925 427.332C528.978 425.07 534.511 421.606 539.191 417.151C539.437 416.865 539.74 416.634 540.081 416.471C540.421 416.309 540.792 416.22 541.169 416.208C541.546 416.197 541.921 416.264 542.27 416.406C542.62 416.547 542.936 416.76 543.199 417.031C543.462 417.301 543.666 417.623 543.797 417.977C543.929 418.33 543.986 418.707 543.964 419.084C543.942 419.46 543.842 419.828 543.67 420.164C543.498 420.5 543.258 420.796 542.965 421.034C533.073 430.458 519.954 435.748 506.291 435.822Z" fill="#323544"/>
<path d="M159.198 120.762C149.334 121.756 141.273 111.286 141.762 102.059C142.251 92.8326 148.41 84.9728 154.344 77.7808L163.097 67.1094C161.784 78.3633 173.667 87.528 177.077 98.5722C180.036 108.211 175.524 119.162 166.576 124.241" fill="#111217"/>
<path d="M166.562 126.96C165.961 126.96 165.376 126.762 164.9 126.395C164.424 126.028 164.083 125.513 163.93 124.932C163.777 124.351 163.822 123.735 164.056 123.181C164.291 122.628 164.702 122.168 165.226 121.873C173.07 117.438 177.039 107.768 174.46 99.3493C173.218 95.3029 170.577 91.303 168.022 87.4352C165.187 83.1402 162.29 78.7443 160.985 73.9522L156.442 79.4899C151.316 85.7498 144.931 93.5398 144.473 102.192C144.248 106.456 146.291 111.287 149.661 114.51C152.395 117.112 155.681 118.393 158.927 118.044C159.648 117.972 160.368 118.189 160.929 118.648C161.49 119.107 161.845 119.769 161.917 120.49C161.989 121.211 161.772 121.931 161.313 122.492C160.854 123.053 160.192 123.408 159.471 123.48C154.632 123.97 149.817 122.191 145.91 118.471C141.367 114.137 138.734 107.799 139.044 101.936C139.596 91.505 146.609 82.946 152.248 76.0725L161.001 65.4011C161.373 64.9483 161.882 64.6282 162.452 64.4885C163.021 64.3487 163.621 64.3969 164.161 64.6258C164.701 64.8547 165.152 65.252 165.447 65.7584C165.743 66.2649 165.867 66.8533 165.801 67.436C165.133 73.2066 168.744 78.6744 172.573 84.4761C175.338 88.6623 178.196 93.0194 179.664 97.7882C182.98 108.568 177.924 120.964 167.905 126.618C167.495 126.848 167.032 126.966 166.562 126.96Z" fill="#323544"/>
<path d="M170.081 133.7C169.673 133.701 169.271 133.61 168.904 133.434C168.537 133.258 168.215 133.001 167.96 132.683C158.516 120.963 154.384 105.5 156.924 91.3953C157.051 90.6857 157.456 90.0559 158.048 89.6444C158.64 89.2329 159.371 89.0735 160.081 89.2012C160.791 89.3289 161.42 89.7333 161.832 90.3254C162.243 90.9174 162.403 91.6487 162.275 92.3584C160.015 104.964 163.72 118.765 172.193 129.273C172.512 129.673 172.713 130.155 172.771 130.664C172.829 131.172 172.743 131.687 172.523 132.148C172.303 132.61 171.957 133.001 171.525 133.275C171.093 133.55 170.592 133.697 170.081 133.7Z" fill="#323544"/>
<path d="M243.471 353.693L55.3123 311.324C48.8638 309.872 42.4591 313.923 41.007 320.371L14.333 438.83C12.881 445.278 16.9314 451.683 23.3799 453.135L211.539 495.504C217.987 496.956 224.392 492.906 225.844 486.457L252.518 367.999C253.97 361.55 249.92 355.146 243.471 353.693Z" fill="#111217"/>
<path d="M214.234 498.51C213.139 498.511 212.047 498.389 210.98 498.145L22.816 455.785C20.9342 455.364 19.1539 454.576 17.5772 453.465C16.0004 452.355 14.6582 450.945 13.6272 449.315C12.5963 447.685 11.897 445.868 11.5693 443.968C11.2415 442.068 11.2919 440.121 11.7174 438.24L38.3805 319.775C38.8036 317.893 39.5933 316.114 40.7046 314.537C41.8159 312.961 43.2269 311.619 44.857 310.589C46.4871 309.558 48.3043 308.858 50.2048 308.53C52.1053 308.202 54.0519 308.252 55.9332 308.676L244.097 351.036C247.894 351.896 251.196 354.227 253.277 357.517C255.359 360.807 256.052 364.789 255.203 368.589L228.532 487.046C227.802 490.295 225.989 493.199 223.391 495.282C220.792 497.365 217.564 498.503 214.234 498.51ZM52.6867 313.748C50.5888 313.753 48.5547 314.471 46.9179 315.783C45.281 317.095 44.1385 318.924 43.6773 320.971L17.0221 439.429C16.7547 440.613 16.7235 441.839 16.9302 443.036C17.1369 444.233 17.5774 445.377 18.2266 446.403C18.8757 447.43 19.7208 448.318 20.7135 449.018C21.7063 449.717 22.8271 450.215 24.0121 450.481L212.176 492.832C214.568 493.368 217.075 492.933 219.147 491.623C221.219 490.312 222.686 488.233 223.228 485.842L249.875 367.393C250.411 365 249.976 362.493 248.665 360.421C247.355 358.35 245.276 356.882 242.885 356.341L54.7371 313.981C54.0671 313.827 53.3819 313.749 52.6945 313.748H52.6867Z" fill="#323544"/>
<path d="M45.4248 315.824L130.462 424.201L252.128 362.362" fill="#111217"/>
<path d="M130.463 426.921C130.05 426.921 129.642 426.828 129.271 426.647C128.9 426.467 128.574 426.205 128.319 425.88L43.2814 317.504C43.043 317.225 42.8633 316.901 42.7532 316.552C42.6432 316.202 42.6051 315.834 42.6411 315.469C42.6771 315.104 42.7866 314.75 42.9629 314.429C43.1393 314.107 43.3788 313.825 43.6672 313.598C43.9555 313.372 44.2867 313.206 44.6408 313.111C44.9949 313.016 45.3645 312.993 45.7276 313.044C46.0906 313.096 46.4395 313.22 46.7532 313.41C47.0669 313.6 47.339 313.851 47.5531 314.149L131.224 420.762L250.901 359.941C251.542 359.629 252.28 359.581 252.956 359.808C253.632 360.034 254.192 360.518 254.515 361.154C254.838 361.789 254.898 362.527 254.683 363.206C254.467 363.886 253.993 364.454 253.363 364.788L131.69 426.626C131.309 426.818 130.889 426.919 130.463 426.921Z" fill="#323544"/>
<path d="M21.457 417.536C20.8553 417.534 20.2711 417.333 19.796 416.964C19.3209 416.595 18.9817 416.078 18.8316 415.495C18.6814 414.913 18.7289 414.297 18.9665 413.744C19.2041 413.191 19.6184 412.733 20.1445 412.441L89.369 374.151C89.6818 373.964 90.0291 373.842 90.3902 373.791C90.7513 373.741 91.1188 373.764 91.4708 373.859C91.8228 373.954 92.1521 374.118 92.4392 374.343C92.7263 374.568 92.9653 374.848 93.1419 375.167C93.3185 375.486 93.4292 375.837 93.4674 376.199C93.5056 376.562 93.4704 376.928 93.3641 377.277C93.2577 377.626 93.0823 377.949 92.8483 378.229C92.6143 378.509 92.3264 378.738 92.0019 378.904L22.7774 417.194C22.3737 417.419 21.9191 417.536 21.457 417.536Z" fill="#323544"/>
<path d="M230.932 463.009C230.461 463.008 229.999 462.884 229.59 462.65C229.182 462.416 228.841 462.079 228.602 461.673L188.992 394.67C188.778 394.363 188.63 394.016 188.557 393.65C188.483 393.284 188.486 392.906 188.565 392.541C188.643 392.176 188.797 391.831 189.015 391.528C189.233 391.225 189.511 390.97 189.832 390.779C190.153 390.588 190.51 390.465 190.88 390.418C191.251 390.371 191.627 390.401 191.985 390.506C192.344 390.611 192.677 390.789 192.964 391.028C193.25 391.267 193.485 391.563 193.652 391.897L233.262 458.908C233.506 459.32 233.636 459.789 233.64 460.268C233.644 460.746 233.522 461.217 233.285 461.633C233.049 462.049 232.707 462.396 232.293 462.637C231.88 462.879 231.411 463.007 230.932 463.009Z" fill="#323544"/>
<path d="M82.7832 175.477L8.62916 203.616C6.08657 204.581 4.80753 207.424 5.77236 209.967L23.4873 256.651C24.4521 259.194 27.2954 260.473 29.838 259.508L103.992 231.369C106.535 230.404 107.814 227.561 106.849 225.018L89.134 178.334C88.1692 175.792 85.3258 174.513 82.7832 175.477Z" fill="#111217"/>
<path d="M84.5218 175.183C85.5199 175.184 86.494 175.488 87.3151 176.056C88.1362 176.623 88.7655 177.426 89.1197 178.359L106.836 225.053C107.297 226.273 107.255 227.627 106.719 228.817C106.184 230.007 105.197 230.935 103.977 231.398L29.821 259.537C28.5994 259.999 27.2445 259.957 26.0535 259.421C24.8625 258.886 23.9326 257.899 23.4679 256.679L5.75982 209.993C5.29541 208.773 5.3348 207.418 5.86934 206.226C6.40387 205.035 7.38978 204.105 8.61019 203.64L82.7743 175.509C83.3323 175.295 83.9244 175.185 84.5218 175.183ZM84.5218 169.746C83.2663 169.745 82.0211 169.974 80.8482 170.422L6.68406 198.561C4.11582 199.535 2.03984 201.49 0.912559 203.995C-0.214721 206.5 -0.301017 209.351 0.672635 211.919L18.4273 258.589C19.1758 260.545 20.4968 262.229 22.2178 263.422C23.9387 264.615 25.9795 265.262 28.0735 265.276C29.3291 265.278 30.5743 265.049 31.7472 264.601L105.911 236.462C108.477 235.484 110.55 233.528 111.675 231.024C112.801 228.52 112.887 225.671 111.915 223.103L94.2069 176.418C93.4517 174.46 92.1232 172.776 90.3952 171.585C88.6672 170.395 86.6201 169.754 84.5218 169.746Z" fill="#323544"/>
<path d="M6.23438 207.421L59.9799 225.316L87.6992 176.51" fill="#111217"/>
<path d="M59.9795 228.031C59.6891 228.03 59.4007 227.983 59.1251 227.892L5.37188 210.028C5.03326 209.915 4.72025 209.736 4.45074 209.502C4.18122 209.268 3.96046 208.983 3.80107 208.663C3.64169 208.344 3.54679 207.996 3.5218 207.64C3.49682 207.284 3.54222 206.926 3.65544 206.588C3.76865 206.249 3.94745 205.936 4.18163 205.666C4.41581 205.397 4.70078 205.176 5.02027 205.017C5.33977 204.857 5.68752 204.763 6.04369 204.738C6.39986 204.713 6.75747 204.758 7.09609 204.871L58.7213 222.059L85.3377 175.179C85.6941 174.552 86.285 174.092 86.9805 173.9C87.3249 173.806 87.6846 173.779 88.039 173.824C88.3935 173.868 88.7357 173.981 89.0463 174.158C89.3569 174.334 89.6297 174.57 89.8491 174.852C90.0685 175.134 90.2302 175.456 90.3251 175.801C90.4199 176.145 90.446 176.505 90.4018 176.859C90.3577 177.214 90.2441 177.556 90.0676 177.866L62.3483 226.672C62.1085 227.088 61.763 227.432 61.347 227.671C60.9309 227.91 60.4591 228.034 59.9795 228.031Z" fill="#323544"/>
<path d="M20.4547 249.53C19.9874 249.53 19.5282 249.409 19.1212 249.179C18.7142 248.95 18.3733 248.619 18.1313 248.22C17.8893 247.82 17.7544 247.365 17.7396 246.898C17.7249 246.431 17.8307 245.968 18.047 245.553L33.1144 216.716C33.2796 216.399 33.5056 216.118 33.7794 215.889C34.0533 215.659 34.3696 215.486 34.7104 215.379C35.0512 215.272 35.4097 215.233 35.7655 215.264C36.1213 215.296 36.4674 215.397 36.7841 215.562C37.1008 215.728 37.3819 215.954 37.6112 216.227C37.8406 216.501 38.0138 216.818 38.1209 217.158C38.228 217.499 38.2669 217.858 38.2354 218.214C38.204 218.569 38.1027 218.915 37.9375 219.232L22.8701 248.07C22.6391 248.511 22.2919 248.879 21.8661 249.137C21.4403 249.394 20.9522 249.53 20.4547 249.53Z" fill="#323544"/>
<path d="M102.634 217.637C102.222 217.636 101.816 217.54 101.446 217.357L72.6551 203.377C72.3338 203.221 72.0464 203.003 71.8093 202.736C71.5722 202.469 71.39 202.158 71.2732 201.82C71.1563 201.483 71.1071 201.126 71.1283 200.769C71.1496 200.413 71.2408 200.064 71.3968 199.742C71.5529 199.421 71.7707 199.134 72.0378 198.897C72.3049 198.66 72.6161 198.477 72.9537 198.361C73.2912 198.244 73.6484 198.195 74.005 198.216C74.3615 198.237 74.7104 198.328 75.0317 198.484L103.862 212.464C104.416 212.733 104.862 213.181 105.128 213.736C105.394 214.291 105.464 214.92 105.326 215.52C105.188 216.12 104.85 216.656 104.368 217.039C103.887 217.422 103.289 217.63 102.673 217.629L102.634 217.637Z" fill="#323544"/>
<path d="M435.957 479.202L259.016 575.16C254.396 577.666 248.969 578.235 243.93 576.74C238.89 575.246 234.651 571.811 232.144 567.191L165.35 444.097C163.734 441.118 162.909 437.775 162.952 434.387C162.996 430.999 163.907 427.678 165.599 424.742L222.148 326.726C223.927 323.645 226.503 321.1 229.605 319.358C232.707 317.615 236.221 316.74 239.778 316.824L360.38 319.255C363.879 319.326 367.297 320.323 370.286 322.144C373.275 323.965 375.729 326.546 377.396 329.623L443.957 452.337C446.457 456.961 447.018 462.388 445.518 467.425C444.018 472.463 440.579 476.699 435.957 479.202Z" fill="#111217"/>
<path d="M249.595 580.304C247.414 580.3 245.246 579.981 243.156 579.357C240.314 578.521 237.667 577.13 235.367 575.264C233.067 573.397 231.161 571.092 229.759 568.483L162.965 445.389C161.143 441.997 160.213 438.197 160.264 434.346C160.314 430.496 161.342 426.722 163.252 423.378L219.802 325.362C221.819 321.87 224.737 318.983 228.251 317.003C231.764 315.024 235.745 314.024 239.778 314.108L360.402 316.532C364.381 316.617 368.267 317.752 371.666 319.822C375.065 321.893 377.856 324.825 379.757 328.321L446.317 451.035C449.159 456.291 449.8 462.46 448.1 468.188C446.399 473.916 442.496 478.736 437.246 481.589L260.313 577.562C257.025 579.358 253.34 580.3 249.595 580.304ZM239.343 319.537C236.341 319.535 233.392 320.323 230.792 321.823C228.192 323.323 226.032 325.481 224.532 328.081L167.99 426.096C166.538 428.632 165.756 431.495 165.717 434.416C165.677 437.338 166.382 440.221 167.765 442.795L234.558 565.889C235.628 567.864 237.076 569.61 238.82 571.025C240.564 572.44 242.57 573.497 244.723 574.137C246.877 574.776 249.135 574.984 251.369 574.75C253.603 574.515 255.768 573.843 257.742 572.77L434.659 476.813C436.634 475.743 438.379 474.295 439.793 472.55C441.207 470.805 442.264 468.799 442.902 466.646C443.541 464.493 443.748 462.235 443.513 460.001C443.278 457.768 442.606 455.603 441.533 453.629L374.98 330.916C373.539 328.262 371.421 326.036 368.841 324.465C366.262 322.893 363.313 322.032 360.293 321.968L239.692 319.537H239.343Z" fill="#1D1D1B"/>
<path d="M296.933 241.324L135.5 328.902C131.624 331.004 130.187 335.851 132.289 339.727L233.545 526.371C235.647 530.247 240.494 531.685 244.37 529.582L405.803 442.004C409.679 439.901 411.116 435.055 409.014 431.179L307.758 244.534C305.656 240.658 300.809 239.221 296.933 241.324Z" fill="#111217"/>
<path d="M300.723 240.417C302.157 240.423 303.562 240.815 304.792 241.551C306.022 242.288 307.031 243.342 307.713 244.603L408.991 431.229C409.998 433.092 410.226 435.278 409.623 437.308C409.02 439.338 407.636 441.045 405.775 442.056L244.344 529.618C243.423 530.119 242.411 530.434 241.367 530.544C240.324 530.654 239.269 530.558 238.262 530.26C237.256 529.962 236.318 529.469 235.503 528.808C234.687 528.147 234.01 527.332 233.51 526.41L132.279 339.761C131.276 337.902 131.05 335.721 131.651 333.697C132.253 331.672 133.632 329.968 135.487 328.957L296.925 241.372C298.089 240.734 299.395 240.4 300.723 240.402V240.417ZM300.723 234.965C298.49 234.969 296.293 235.529 294.331 236.596L132.892 324.158C129.765 325.856 127.44 328.727 126.428 332.139C125.415 335.551 125.799 339.226 127.495 342.355L228.733 528.996C229.57 530.549 230.705 531.921 232.073 533.035C233.441 534.149 235.015 534.982 236.705 535.487C238.395 535.992 240.168 536.159 241.923 535.978C243.677 535.797 245.379 535.272 246.931 534.433L408.369 446.84C411.492 445.134 413.811 442.261 414.82 438.849C415.828 435.437 415.444 431.765 413.752 428.635L312.528 241.97C311.372 239.851 309.665 238.082 307.587 236.852C305.509 235.621 303.138 234.975 300.723 234.98V234.965Z" fill="#323544"/>
<path d="M296.926 241.376L157.53 316.985L177.172 422.542L192.759 451.279C194.106 451.42 195.466 451.368 196.798 451.124L362.664 420.251C366.33 419.568 369.575 417.458 371.685 414.383C373.795 411.309 374.598 407.522 373.918 403.856L363.355 347.097L307.753 244.576C307.253 243.655 306.576 242.841 305.761 242.181C304.946 241.521 304.009 241.029 303.003 240.731C301.998 240.434 300.943 240.338 299.901 240.449C298.858 240.56 297.847 240.875 296.926 241.376Z" fill="#111217"/>
<path d="M163.228 200.236L332.373 168.765C336.04 168.082 339.828 168.885 342.904 170.995C345.98 173.106 348.091 176.352 348.774 180.02L387.101 386.014C387.784 389.682 386.981 393.47 384.87 396.546C382.76 399.622 379.513 401.733 375.846 402.415L209.977 433.277C206.309 433.96 202.521 433.157 199.445 431.046C196.369 428.935 194.258 425.689 193.576 422.022L154.64 212.759C154.381 211.373 154.398 209.949 154.689 208.57C154.981 207.19 155.541 205.881 156.339 204.718C157.136 203.555 158.155 202.561 159.337 201.792C160.519 201.022 161.841 200.494 163.228 200.236Z" fill="#111217"/>
<path d="M334.974 168.507C338.255 168.513 341.43 169.665 343.952 171.764C346.473 173.863 348.182 176.777 348.783 180.002L387.12 385.99C387.801 389.656 386.998 393.443 384.887 396.518C382.777 399.592 379.532 401.703 375.866 402.385L210 433.258C208.185 433.598 206.32 433.577 204.512 433.195C202.705 432.813 200.99 432.079 199.467 431.033C197.944 429.988 196.642 428.652 195.637 427.103C194.631 425.553 193.94 423.821 193.605 422.004L154.655 212.746C154.397 211.36 154.414 209.936 154.706 208.557C154.998 207.178 155.558 205.869 156.356 204.706C157.154 203.544 158.173 202.55 159.355 201.781C160.537 201.012 161.859 200.484 163.245 200.226L332.38 168.748C333.236 168.591 334.104 168.511 334.974 168.507ZM334.974 163.07C333.771 163.073 332.57 163.185 331.386 163.404L162.243 194.883C158.03 195.673 154.302 198.102 151.878 201.637C149.453 205.173 148.53 209.525 149.312 213.74L188.254 422.998C189.085 427.472 191.455 431.514 194.953 434.424C198.451 437.335 202.856 438.931 207.406 438.935C208.61 438.933 209.811 438.821 210.995 438.601L376.86 407.729C379.378 407.262 381.779 406.303 383.926 404.908C386.073 403.512 387.924 401.708 389.373 399.596C390.822 397.485 391.841 395.109 392.371 392.604C392.902 390.098 392.933 387.513 392.463 384.996L354.127 179.008C353.297 174.533 350.927 170.49 347.429 167.58C343.931 164.669 339.525 163.074 334.974 163.07Z" fill="#323544"/>
<path d="M328.442 196.99L183.097 222.592C178.615 223.381 175.622 227.655 176.411 232.137L176.701 233.782C177.491 238.264 181.764 241.257 186.246 240.468L331.591 214.865C336.073 214.076 339.067 209.802 338.277 205.32L337.988 203.676C337.198 199.194 332.925 196.2 328.442 196.99Z" fill="#111217"/>
<path d="M333.771 227.238L188.426 252.84C183.944 253.63 180.95 257.903 181.74 262.385L182.029 264.03C182.819 268.512 187.092 271.505 191.574 270.716L336.919 245.113C341.401 244.324 344.395 240.051 343.605 235.568L343.316 233.924C342.526 229.442 338.253 226.448 333.771 227.238Z" fill="#111217"/>
<path d="M339.101 257.486L193.756 283.088C189.274 283.878 186.28 288.151 187.07 292.633L187.359 294.278C188.149 298.76 192.422 301.753 196.904 300.964L342.249 275.362C346.731 274.572 349.725 270.299 348.935 265.816L348.646 264.172C347.856 259.69 343.583 256.696 339.101 257.486Z" fill="#111217"/>
<path d="M344.431 287.74L199.086 313.342C194.604 314.131 191.61 318.405 192.4 322.887L192.689 324.532C193.479 329.014 197.752 332.007 202.234 331.218L347.58 305.615C352.062 304.826 355.055 300.552 354.265 296.07L353.976 294.426C353.186 289.944 348.913 286.95 344.431 287.74Z" fill="#111217"/>
<path d="M349.754 317.988L204.408 343.59C199.926 344.38 196.933 348.653 197.722 353.135L198.012 354.78C198.802 359.262 203.075 362.255 207.557 361.466L352.902 335.863C357.384 335.074 360.378 330.801 359.588 326.318L359.299 324.674C358.509 320.192 354.236 317.198 349.754 317.988Z" fill="#111217"/>
<path d="M355.084 348.236L209.739 373.838C205.256 374.628 202.263 378.901 203.053 383.383L203.342 385.028C204.132 389.51 208.405 392.503 212.887 391.714L358.232 366.112C362.714 365.322 365.708 361.049 364.918 356.566L364.629 354.922C363.839 350.44 359.566 347.446 355.084 348.236Z" fill="#111217"/>
<path d="M183.858 478.227L306.976 452.558L395.663 363.357L449.168 461.994C449.721 463.015 450.066 464.134 450.186 465.288C450.305 466.442 450.196 467.608 449.864 468.72C449.532 469.831 448.984 470.867 448.252 471.766C447.519 472.666 446.617 473.413 445.595 473.963L249.354 580.413C248.336 580.967 247.218 581.314 246.065 581.435C244.912 581.556 243.746 581.449 242.635 581.119C241.523 580.789 240.487 580.244 239.587 579.514C238.686 578.784 237.938 577.883 237.386 576.864L183.858 478.227Z" fill="#111217"/>
<path d="M395.664 363.357L449.169 461.994C449.721 463.014 450.067 464.133 450.187 465.287C450.306 466.441 450.197 467.607 449.865 468.719C449.533 469.831 448.985 470.866 448.253 471.766C447.52 472.665 446.617 473.412 445.596 473.962L249.355 580.412C248.337 580.967 247.219 581.315 246.065 581.436C244.912 581.558 243.746 581.451 242.634 581.121C241.523 580.792 240.487 580.246 239.586 579.515C238.686 578.784 237.938 577.883 237.387 576.863L183.859 478.226L306.976 452.557L395.664 363.357ZM395.664 357.92C394.943 357.917 394.228 358.057 393.561 358.333C392.894 358.609 392.289 359.015 391.781 359.528L304.305 447.571L182.779 472.906C181.949 473.078 181.171 473.442 180.507 473.969C179.842 474.496 179.311 475.171 178.954 475.94C178.597 476.709 178.425 477.551 178.451 478.398C178.477 479.245 178.701 480.075 179.105 480.82L232.61 579.457C234.413 582.782 237.462 585.254 241.087 586.33C244.712 587.407 248.617 586.999 251.942 585.197L448.214 478.739C451.527 476.933 453.99 473.889 455.064 470.272C456.139 466.655 455.736 462.76 453.945 459.438L400.448 360.801C400.045 360.055 399.472 359.413 398.776 358.928C398.081 358.442 397.281 358.126 396.441 358.005C396.183 357.972 395.924 357.954 395.664 357.951V357.92Z" fill="#323544"/>
<path d="M242.046 559.001L196.782 475.54L183.858 478.228L237.355 576.865C237.907 577.884 238.655 578.784 239.556 579.515C240.456 580.245 241.492 580.79 242.604 581.12C243.715 581.449 244.881 581.557 246.034 581.436C247.187 581.315 248.305 580.967 249.323 580.414L445.595 473.964C446.615 473.411 447.515 472.664 448.245 471.763C448.975 470.862 449.521 469.827 449.851 468.715C450.18 467.604 450.288 466.438 450.166 465.285C450.045 464.132 449.698 463.014 449.145 461.995L446.947 457.887L254.014 562.551C252.996 563.104 251.878 563.451 250.725 563.572C249.572 563.693 248.406 563.586 247.295 563.256C246.183 562.927 245.147 562.381 244.247 561.651C243.346 560.921 242.598 560.021 242.046 559.001Z" fill="#111217"/>
<path d="M240.182 524.046L285.135 432.166C286.802 428.766 289.543 426.011 292.934 424.326C296.324 422.641 300.176 422.121 303.892 422.846L394.288 440.468" fill="#111217"/>
<path d="M240.182 526.771C239.767 526.77 239.358 526.674 238.986 526.492C238.339 526.174 237.845 525.613 237.612 524.931C237.379 524.25 237.426 523.504 237.743 522.857L282.697 430.969C284.63 427.029 287.808 423.835 291.739 421.882C295.67 419.929 300.135 419.326 304.443 420.166L394.84 437.796C395.194 437.861 395.532 437.995 395.833 438.191C396.135 438.387 396.395 438.641 396.598 438.938C396.801 439.235 396.942 439.57 397.015 439.922C397.088 440.274 397.09 440.638 397.021 440.991C396.952 441.344 396.813 441.68 396.614 441.979C396.414 442.279 396.157 442.535 395.857 442.734C395.558 442.934 395.221 443.071 394.868 443.139C394.515 443.208 394.152 443.205 393.799 443.132L303.372 425.501C300.241 424.897 296.998 425.339 294.143 426.759C291.289 428.18 288.98 430.5 287.574 433.361L242.628 525.241C242.404 525.699 242.056 526.085 241.623 526.355C241.191 526.626 240.692 526.77 240.182 526.771Z" fill="#323544"/>
<path d="M248.661 303.969C286.069 303.969 316.394 273.643 316.394 236.235C316.394 198.827 286.069 168.502 248.661 168.502C211.253 168.502 180.928 198.827 180.928 236.235C180.928 273.643 211.253 303.969 248.661 303.969Z" fill="#111217"/>
<path d="M248.717 306.69C230.984 306.712 213.895 300.048 200.859 288.028C187.822 276.008 179.796 259.515 178.381 241.839C176.966 224.164 182.266 206.604 193.224 192.663C204.182 178.722 219.993 169.424 237.503 166.624C255.013 163.825 272.935 167.728 287.694 177.557C302.453 187.386 312.965 202.417 317.132 219.653C321.299 236.889 318.816 255.062 310.178 270.548C301.539 286.034 287.38 297.694 270.525 303.203C263.484 305.503 256.124 306.68 248.717 306.69ZM248.717 171.185C232.756 171.138 217.334 176.952 205.376 187.523C193.418 198.094 185.757 212.687 183.846 228.533C181.936 244.378 185.908 260.374 195.011 273.485C204.113 286.595 217.711 295.908 233.225 299.657C248.739 303.405 265.09 301.328 279.173 293.819C293.257 286.31 304.095 273.893 309.63 258.923C315.164 243.952 315.011 227.471 309.198 212.607C303.386 197.742 292.319 185.529 278.098 178.284C269.001 173.648 258.942 171.216 248.732 171.185H248.717Z" fill="#323544"/>
<path d="M248.663 285.902C276.094 285.902 298.331 263.665 298.331 236.234C298.331 208.804 276.094 186.566 248.663 186.566C221.232 186.566 198.995 208.804 198.995 236.234C198.995 263.665 221.232 285.902 248.663 285.902Z" fill="#111217"/>
<path d="M248.608 288.651C235.409 288.665 222.689 283.704 212.985 274.757C203.281 265.809 197.305 253.534 196.249 240.377C195.193 227.22 199.134 214.148 207.287 203.768C215.44 193.388 227.206 186.461 240.238 184.37C253.271 182.279 266.613 185.176 277.604 192.484C288.596 199.792 296.429 210.974 299.543 223.801C302.657 236.627 300.822 250.156 294.405 261.691C287.987 273.225 277.459 281.917 264.918 286.033C259.655 287.767 254.149 288.65 248.608 288.651ZM248.709 189.237C243.744 189.24 238.811 190.026 234.092 191.567C225.265 194.449 217.491 199.884 211.753 207.184C206.015 214.484 202.57 223.322 201.854 232.58C201.139 241.838 203.185 251.1 207.733 259.195C212.281 267.29 219.128 273.855 227.407 278.059C235.686 282.264 245.026 283.918 254.246 282.815C263.465 281.711 272.151 277.898 279.203 271.858C286.256 265.818 291.359 257.823 293.868 248.883C296.377 239.943 296.178 230.459 293.297 221.632C290.219 212.227 284.252 204.033 276.247 198.215C268.241 192.397 258.605 189.253 248.709 189.229V189.237Z" fill="#323544"/>
<path d="M243 209.305C246.029 213.817 255.155 245.032 255.155 245.032C255.155 245.032 229.68 224.807 226.643 220.287C225.922 219.213 225.42 218.008 225.164 216.739C224.909 215.471 224.906 214.165 225.156 212.896C225.405 211.627 225.902 210.419 226.619 209.342C227.335 208.264 228.256 207.339 229.33 206.618C230.404 205.897 231.61 205.394 232.878 205.139C234.146 204.884 235.452 204.881 236.722 205.13C237.991 205.38 239.199 205.877 240.276 206.593C241.353 207.31 242.279 208.231 243 209.305Z" fill="#CB730B"/>
<path d="M255.155 247.766C254.54 247.764 253.944 247.556 253.462 247.175C250.821 245.071 227.568 226.539 224.391 221.809C223.44 220.44 222.77 218.896 222.421 217.266C222.072 215.635 222.051 213.952 222.36 212.313C222.668 210.675 223.299 209.114 224.217 207.722C225.134 206.33 226.319 205.134 227.703 204.205C229.087 203.275 230.642 202.63 232.278 202.308C233.914 201.985 235.597 201.991 237.23 202.326C238.864 202.66 240.414 203.316 241.791 204.256C243.169 205.195 244.345 206.4 245.252 207.798C248.429 212.528 256.817 241.063 257.765 244.302C257.924 244.856 257.905 245.448 257.708 245.99C257.511 246.533 257.148 247 256.669 247.323C256.22 247.618 255.693 247.772 255.155 247.766ZM234.814 207.666C233.399 207.662 232.016 208.085 230.845 208.878C230.068 209.4 229.401 210.07 228.883 210.85C228.365 211.63 228.005 212.504 227.825 213.423C227.645 214.342 227.647 215.287 227.832 216.205C228.017 217.123 228.381 217.995 228.904 218.773C230.511 221.173 240.934 230.019 250.037 237.413C246.604 226.182 242.348 213.188 240.717 210.796C240.064 209.832 239.184 209.042 238.155 208.496C237.126 207.95 235.979 207.665 234.814 207.666Z" fill="#CB730B"/>
<path d="M265.764 266.642C269.375 266.642 272.303 263.714 272.303 260.102C272.303 256.49 269.375 253.562 265.764 253.562C262.152 253.562 259.224 256.49 259.224 260.102C259.224 263.714 262.152 266.642 265.764 266.642Z" fill="#323544"/>
<path d="M265.749 269.363C263.983 269.361 262.256 268.855 260.769 267.903C259.282 266.952 258.098 265.595 257.357 263.993C256.616 262.391 256.348 260.61 256.585 258.861C256.823 257.112 257.555 255.467 258.696 254.12C259.837 252.774 261.34 251.781 263.026 251.26C264.713 250.739 266.513 250.711 268.215 251.179C269.917 251.648 271.45 252.593 272.632 253.903C273.815 255.213 274.598 256.835 274.89 258.576C275.295 260.997 274.722 263.479 273.298 265.479C271.874 267.478 269.714 268.83 267.294 269.239C266.783 269.323 266.266 269.364 265.749 269.363ZM265.749 256.292C265.538 256.291 265.327 256.309 265.119 256.346C264.624 256.426 264.149 256.605 263.723 256.872C263.297 257.139 262.93 257.488 262.642 257.9C262.35 258.308 262.141 258.77 262.028 259.259C261.915 259.748 261.899 260.254 261.982 260.749C262.065 261.244 262.245 261.718 262.512 262.143C262.778 262.569 263.126 262.937 263.535 263.228C264.151 263.664 264.881 263.909 265.636 263.931C266.39 263.953 267.134 263.75 267.773 263.35C268.413 262.95 268.92 262.369 269.23 261.681C269.54 260.993 269.639 260.229 269.515 259.484C269.367 258.595 268.909 257.787 268.223 257.203C267.536 256.619 266.665 256.296 265.764 256.292H265.749Z" fill="#CB730B"/>
<path d="M303.823 278.747L299.379 283.438C296.863 286.095 296.977 290.288 299.633 292.804L353.029 343.386C355.685 345.903 359.878 345.789 362.394 343.133L366.838 338.442C369.355 335.786 369.241 331.592 366.585 329.076L313.189 278.494C310.533 275.978 306.34 276.091 303.823 278.747Z" fill="#323544"/>
<path d="M357.575 347.881C355.184 347.882 352.885 346.965 351.152 345.318L297.756 294.78C296.863 293.938 296.145 292.928 295.644 291.808C295.143 290.688 294.868 289.48 294.834 288.253C294.801 287.026 295.011 285.805 295.451 284.659C295.891 283.514 296.553 282.466 297.398 281.577L301.841 276.917C302.683 276.024 303.692 275.306 304.812 274.804C305.932 274.302 307.14 274.026 308.367 273.992C309.594 273.958 310.815 274.167 311.961 274.606C313.107 275.045 314.155 275.707 315.044 276.552L368.44 327.129C370.234 328.835 371.279 331.182 371.346 333.657C371.413 336.131 370.496 338.532 368.798 340.332L364.355 344.992C363.513 345.886 362.503 346.603 361.381 347.103C360.26 347.603 359.051 347.876 357.823 347.905L357.575 347.881ZM308.645 279.364H308.536C308.022 279.376 307.516 279.49 307.047 279.699C306.577 279.909 306.154 280.209 305.802 280.583L301.359 285.243C301.004 285.614 300.725 286.051 300.54 286.531C300.355 287.01 300.266 287.521 300.28 288.035C300.294 288.548 300.409 289.054 300.62 289.523C300.831 289.992 301.132 290.414 301.507 290.765L354.888 341.381C355.258 341.737 355.697 342.017 356.177 342.203C356.657 342.389 357.169 342.478 357.683 342.464C358.198 342.45 358.705 342.334 359.174 342.123C359.643 341.912 360.066 341.609 360.417 341.233L364.852 336.573C365.208 336.202 365.486 335.765 365.672 335.285C365.857 334.806 365.945 334.295 365.932 333.781C365.918 333.268 365.802 332.762 365.592 332.293C365.381 331.824 365.08 331.402 364.705 331.051L311.309 280.435C310.586 279.747 309.627 279.363 308.629 279.364H308.645Z" fill="#CB730B"/>
<path d="M344.518 281.278C337.792 275.314 326.507 270.226 317.335 271.718C308.015 273.232 300.162 280.261 293.537 286.389C289.211 290.373 285.173 295.049 283.728 300.749C282.283 306.45 284.147 313.332 289.305 316.159C293.079 318.225 297.964 317.906 301.32 320.586C303.991 322.729 305.024 326.248 306.469 329.346C308.62 333.952 312.302 338.208 317.241 339.373C320.241 339.977 323.352 339.688 326.189 338.542C333.28 335.925 338.615 330.045 343.586 324.368C347.469 319.995 351.353 315.475 353.287 309.969C356.766 299.942 352.456 288.315 344.518 281.278Z" fill="#006C8F"/>
<path d="M320.706 271.484C329.141 271.484 338.569 276.058 344.519 281.308C352.456 288.345 356.767 299.949 353.295 309.999C351.392 315.505 347.447 320.025 343.594 324.398C338.593 330.075 333.288 335.955 326.197 338.572C324.272 339.313 322.232 339.707 320.17 339.737C319.187 339.739 318.207 339.627 317.25 339.403C312.31 338.238 308.629 333.967 306.477 329.376C305.033 326.27 304 322.759 301.328 320.616C297.973 317.936 293.088 318.286 289.313 316.189C284.156 313.362 282.323 306.48 283.736 300.779C285.15 295.079 289.22 290.403 293.546 286.419C300.171 280.314 308.031 273.262 317.343 271.748C318.455 271.569 319.58 271.481 320.706 271.484ZM320.706 266.047C319.286 266.046 317.868 266.158 316.465 266.381C305.305 268.19 296.381 276.415 289.864 282.419C285.896 286.069 280.397 291.809 278.463 299.444C276.583 306.869 278.812 316.639 286.703 320.957C288.836 322.038 291.107 322.822 293.453 323.287C295.278 323.722 297.002 324.126 297.926 324.841C298.975 325.68 299.767 327.536 300.606 329.501C300.901 330.2 301.211 330.922 301.553 331.652C304.753 338.51 310.019 343.256 315.992 344.669C317.361 344.992 318.763 345.154 320.17 345.151C322.876 345.123 325.556 344.616 328.084 343.652C336.628 340.491 342.756 333.555 347.672 327.971C351.648 323.466 356.153 318.356 358.436 311.754C360.485 305.609 360.455 298.96 358.351 292.834C356.373 286.822 352.848 281.435 348.13 277.215C342.297 272.043 331.634 266.047 320.706 266.047Z" fill="#323544"/>
</svg>
