<svg width="600" height="587" viewBox="0 0 600 587" fill="none" xmlns="http://www.w3.org/2000/svg">
<path d="M224.928 246.934C203.484 254.421 179.733 246.056 160.022 234.756C140.31 223.455 121.918 208.986 100.039 202.912C86.6186 199.169 70.526 199.456 60.771 209.405C49.7501 220.652 51.4122 238.919 55.3343 254.18C64.6 289.845 83.108 324.081 112.311 346.604C141.514 369.127 182.304 378.005 216.478 364.157C250.651 350.309 274.409 311.343 265.796 275.477C263.466 265.931 258.86 256.572 250.97 250.724C243.079 244.876 231.553 243.361 223.413 248.852L224.928 246.934Z" fill="#C5E6F1"/>
<path d="M84.5374 200.675C89.7912 200.71 95.0162 201.455 100.071 202.889C121.95 208.986 140.341 223.455 160.053 234.732C174.546 243.043 191.221 249.768 207.562 249.768C213.481 249.804 219.363 248.837 224.959 246.91L223.445 248.829C226.911 246.561 230.976 245.382 235.118 245.442C240.822 245.488 246.365 247.337 250.954 250.724C258.845 256.572 263.482 265.931 265.781 275.476C274.41 311.312 250.651 350.308 216.478 364.156C205.429 368.573 193.629 370.809 181.73 370.742C157.063 370.742 132.062 361.718 112.342 346.541C83.1394 324.072 64.6314 289.845 55.3657 254.157C51.4125 238.911 49.7504 220.628 60.8024 209.382C66.9536 203.106 75.629 200.675 84.5685 200.675H84.5374ZM84.5374 195.239C73.0738 195.239 63.5207 198.811 56.888 205.576C46.5272 216.146 44.2438 232.946 50.1077 255.524C54.7887 273.975 62.0607 291.67 71.7068 308.081C81.9744 325.307 94.5331 339.699 108.987 350.852C129.903 366.952 156.403 376.179 181.691 376.179C194.291 376.252 206.786 373.878 218.482 369.189C236.431 361.912 251.832 348.258 261.851 330.752C272.204 312.679 275.466 292.594 271.039 274.202C268.989 265.659 264.398 253.931 254.17 246.343C248.654 242.26 241.981 240.04 235.118 240.006C231.958 239.988 228.819 240.514 225.837 241.559C225.627 241.52 225.414 241.496 225.2 241.489H224.913C224.726 241.478 224.54 241.478 224.353 241.489C223.894 241.536 223.443 241.641 223.01 241.8C218.022 243.498 212.784 244.349 207.515 244.316C194.358 244.316 179.283 239.493 162.709 230.002C157.389 226.95 152.038 223.579 146.857 220.325C132.73 211.44 118.121 202.244 101.484 197.607C95.9629 196.052 90.2581 195.242 84.5219 195.2L84.5374 195.239Z" fill="#4C3133"/>
<path d="M129.553 239.563L118.361 210.049C112.49 207.097 106.356 204.699 100.039 202.889C91.7057 200.559 82.3469 199.782 74.1142 201.926L67.497 204.434C65.0068 205.716 62.7365 207.386 60.771 209.382C49.7501 220.628 51.4122 238.895 55.3343 254.157C56.81 259.826 58.5187 265.465 60.4681 271.026L126.671 245.908C127.278 245.682 127.834 245.338 128.308 244.897C128.781 244.455 129.163 243.924 129.431 243.334C129.698 242.745 129.847 242.108 129.868 241.461C129.889 240.814 129.782 240.169 129.553 239.563V239.563Z" fill="#81C4D4"/>
<path d="M226.342 390.431C258.418 347.038 281.439 302.17 307.814 254.708C317.701 236.922 334.998 229.948 346.865 213.583C358.811 197.064 365.653 176.257 364.97 155.395C364.379 137.299 355.696 110.504 364.278 94.8151C373.474 78.0158 398.964 77.8216 416.393 83.9029C458.574 98.613 486.907 136.297 500.188 177.973C513.469 219.649 510.199 274.28 490.091 312.725C469.983 351.17 442.924 370.408 406.482 391.557C379.299 407.339 345.762 410.764 314.836 413.04C283.909 415.315 251.925 408.232 226.078 390.081L226.342 390.431Z" fill="#C5E6F1"/>
<path d="M394.902 80.2763C402.217 80.3058 409.478 81.5391 416.393 83.9266C458.574 98.6367 486.906 136.321 500.187 177.997C513.468 219.673 510.199 274.304 490.091 312.749C469.983 351.194 442.924 370.409 406.482 391.557C379.299 407.339 345.762 410.765 314.835 413.04C311.118 413.315 307.39 413.452 303.651 413.452C276.468 413.452 249.09 406.128 226.427 390.323C258.465 346.961 281.462 302.132 307.814 254.708C317.701 236.923 334.998 229.948 346.865 213.584C358.81 197.064 365.653 176.257 364.969 155.396C364.379 137.299 355.696 110.504 364.278 94.8155C370.064 84.2528 382.289 80.253 394.902 80.253V80.2763ZM226.078 390.082L226.427 390.323L226.342 390.431L226.078 390.082V390.082ZM394.902 74.8396C378.219 74.8396 365.645 81.0141 359.509 92.2292C352.659 104.734 355.245 122.333 357.529 137.851C358.469 144.297 359.37 150.386 359.533 155.574C360.036 175.233 354.029 194.508 342.446 210.399C337.499 217.242 331.51 222.314 325.173 227.688C317.204 234.445 308.964 241.435 303.053 252.068C298.727 259.834 294.448 267.648 290.3 275.189C269.198 313.634 249.238 349.982 223.266 385.414C222.87 385.656 222.505 385.946 222.179 386.276C221.276 387.199 220.731 388.413 220.641 389.701C220.552 390.988 220.923 392.266 221.689 393.305L221.953 393.662C222.557 394.484 223.381 395.117 224.33 395.487C246.753 410.803 274.146 418.888 303.636 418.888C307.473 418.888 311.402 418.741 315.216 418.461C347.51 416.131 381.365 412.427 409.193 396.264C425.658 386.703 442.97 376.016 457.983 362.72C473.338 349.128 485.058 334.045 494.875 315.273C515.216 276.362 519.426 220.519 505.345 176.35C490.044 128.337 458.263 92.7729 418.163 78.7928C410.665 76.2115 402.794 74.8761 394.863 74.8396H394.902Z" fill="#4C3133"/>
<path d="M226.341 390.432L226.427 390.315L226.077 390.082L226.341 390.432Z" fill="#C5E6F1"/>
<path d="M226.077 390.082L226.427 390.315L226.342 390.432L226.077 390.082V390.082ZM226.077 384.646C225.072 384.645 224.086 384.924 223.229 385.45C222.372 385.977 221.678 386.731 221.224 387.628C220.77 388.526 220.574 389.531 220.657 390.534C220.741 391.536 221.101 392.495 221.697 393.305L221.953 393.663C222.459 394.347 223.118 394.903 223.877 395.286C224.637 395.669 225.475 395.868 226.326 395.868V395.868C227.176 395.869 228.014 395.671 228.774 395.289C229.533 394.907 230.192 394.353 230.699 393.67L230.761 393.577C231.198 392.993 231.514 392.327 231.688 391.619C231.863 390.91 231.893 390.174 231.777 389.454C231.661 388.733 231.402 388.043 231.013 387.426C230.625 386.808 230.117 386.274 229.518 385.857L229.293 385.702L229.192 385.632C228.282 384.993 227.197 384.649 226.085 384.646H226.077Z" fill="#4C3133"/>
<path d="M500.188 177.997C490.953 149.019 474.433 121.976 451.032 103.242C460.531 117.164 467.929 132.407 472.989 148.483C486.27 190.167 483 244.79 462.892 283.236C442.784 321.681 415.74 340.895 379.299 362.044C352.116 377.826 318.579 381.251 287.652 383.527C269.996 384.881 252.241 383.017 235.25 378.028C232.382 382.139 229.441 386.235 226.427 390.315C252.205 408.295 284.048 415.3 314.835 413.04C345.762 410.765 379.299 407.339 406.482 391.558C442.924 370.409 469.967 351.233 490.083 312.749C510.199 274.265 513.469 219.681 500.188 177.997Z" fill="#81C4D4"/>
<path d="M199.158 360.918L199.243 360.801L198.894 360.568L199.158 360.918Z" fill="#C5E6F1"/>
<path d="M198.894 360.569L199.244 360.802L199.158 360.918L198.894 360.569V360.569ZM198.894 355.132C197.888 355.131 196.902 355.41 196.045 355.937C195.188 356.463 194.494 357.217 194.041 358.115C193.587 359.012 193.39 360.018 193.474 361.02C193.558 362.022 193.917 362.982 194.514 363.792L194.77 364.149C195.275 364.833 195.934 365.389 196.694 365.772C197.453 366.155 198.292 366.355 199.143 366.355V366.355C199.993 366.356 200.831 366.157 201.59 365.776C202.35 365.394 203.009 364.839 203.515 364.157L203.577 364.064C204.015 363.48 204.33 362.813 204.505 362.105C204.68 361.397 204.71 360.66 204.594 359.94C204.478 359.219 204.218 358.53 203.83 357.912C203.442 357.294 202.933 356.761 202.335 356.343L202.109 356.188L202.009 356.118C201.098 355.479 200.014 355.135 198.902 355.132H198.894Z" fill="#4C3133"/>
<path d="M452.135 126.387C444.127 119.583 432.353 121.921 422.746 125.75C413.138 129.579 403.073 134.682 393.054 132.266C388.394 131.148 384.169 128.461 379.454 127.715C376.553 127.299 373.595 127.613 370.846 128.629C368.097 129.645 365.645 131.33 363.711 133.532C363.54 133.726 363.377 133.928 363.214 134.138C363.797 141.237 364.767 148.421 364.969 155.395C365.256 164.983 364.037 174.557 361.358 183.767C387.221 177.243 417.185 183.301 440.78 169.508C448.081 165.236 454.636 158.852 457.471 150.549C460.305 142.246 458.643 131.917 452.135 126.387Z" fill="#81C4D4"/>
<path d="M369.481 61.5579C384.176 26.2195 421.86 1.7544 460.119 2.78737C465.633 2.92717 471.986 4.07664 474.681 8.88422C477.718 14.3209 474.254 21.1944 469.602 25.2952C464.95 29.3961 459.055 32.1144 455.164 36.9453C469.996 35.8549 484.895 36.0707 499.69 37.5899C504.241 38.0559 508.886 38.6773 512.971 40.7432C517.056 42.8091 520.544 46.576 521.079 51.1273C521.615 55.6785 519.161 60.0434 515.643 62.8938C512.125 65.7442 507.744 67.2121 503.356 68.214C486.541 71.9866 468.933 69.6893 453.649 61.7288C443.257 56.2921 433.968 48.1992 422.536 45.5585C413.534 43.4848 404.012 45.0382 395.352 48.3157C386.692 51.5933 378.84 56.5329 371.019 61.4337" fill="#C5E6F1"/>
<path d="M487.582 72.657C475.35 72.6801 463.294 69.7493 452.438 64.1136C448.935 62.2729 445.549 60.1449 442.271 58.0789C435.553 53.8461 429.215 49.854 421.977 48.1842C414.404 46.4367 405.558 47.3531 396.401 50.8326C387.99 54.0325 380.13 58.9566 372.542 63.7175C371.935 64.094 371.205 64.2193 370.507 64.067C370.01 64.2617 369.467 64.3059 368.946 64.1943C368.424 64.0827 367.947 63.8201 367.574 63.4392C367.2 63.0584 366.947 62.5761 366.846 62.0525C366.745 61.5289 366.8 60.987 367.004 60.4944C374.32 42.895 387.64 27.183 404.517 16.2242C421.394 5.26542 441.176 -0.474157 460.22 0.0306784C468.763 0.255912 474.417 2.77232 477.089 7.51777C480.91 14.3214 476.833 22.5385 471.427 27.2918C469.5 28.9267 467.48 30.4489 465.377 31.8508C464.461 32.4877 463.56 33.1168 462.69 33.7459C475.127 33.209 487.586 33.5776 499.97 34.8488C504.7 35.3303 509.686 35.9982 514.206 38.2739C519.643 41 523.192 45.6678 523.79 50.7705C524.388 55.8732 521.934 61.2633 517.398 64.9602C513.158 68.4164 508.001 69.9076 503.985 70.8241C498.603 72.0473 493.101 72.6622 487.582 72.657V72.657ZM414.101 41.8776C417.161 41.8665 420.212 42.2026 423.196 42.8795C431.336 44.7591 438.364 49.1861 445.168 53.4733C448.352 55.4771 451.653 57.5508 454.97 59.2983C469.691 66.9207 486.625 69.1203 502.805 65.5117C507.907 64.3466 511.348 62.871 513.981 60.7351C517.088 58.1954 518.796 54.615 518.416 51.4151C517.958 47.5318 514.688 44.6037 511.775 43.1358C508.086 41.2718 503.659 40.6971 499.442 40.2621C484.807 38.7648 470.069 38.5517 455.397 39.6253C454.867 39.6699 454.336 39.5576 453.869 39.3024C453.402 39.0472 453.021 38.6604 452.773 38.1902C452.524 37.7199 452.42 37.187 452.472 36.6577C452.524 36.1285 452.731 35.6263 453.067 35.2138C455.684 31.9595 459.032 29.6373 462.263 27.3927C464.191 26.1093 466.046 24.7168 467.816 23.222C471.753 19.7581 474.565 14.1738 472.328 10.1895C470.666 7.2304 466.542 5.64599 460.065 5.47512C425.775 4.57419 391.345 25.2802 375.307 55.578C381.368 51.7108 387.777 48.4189 394.452 45.7454C400.715 43.2866 407.373 41.9866 414.101 41.9087V41.8776Z" fill="#4C3133"/>
<path d="M376.192 154.596C379.156 154.596 381.559 152.193 381.559 149.229C381.559 146.265 379.156 143.862 376.192 143.862C373.228 143.862 370.825 146.265 370.825 149.229C370.825 152.193 373.228 154.596 376.192 154.596Z" fill="#4C3133"/>
<path d="M418.35 149.229C421.314 149.229 423.716 146.826 423.716 143.862C423.716 140.898 421.314 138.495 418.35 138.495C415.386 138.495 412.983 140.898 412.983 143.862C412.983 146.826 415.386 149.229 418.35 149.229Z" fill="#4C3133"/>
<path d="M354.119 124.57C353.21 124.57 352.329 124.251 351.631 123.668C350.933 123.085 350.461 122.276 350.299 121.381C350.136 120.487 350.292 119.563 350.741 118.772C351.189 117.981 351.901 117.372 352.752 117.052L358.515 114.885C358.993 114.705 359.501 114.622 360.01 114.639C360.52 114.655 361.021 114.772 361.486 114.983C361.95 115.194 362.369 115.494 362.717 115.866C363.066 116.238 363.337 116.676 363.517 117.153C363.696 117.63 363.78 118.138 363.763 118.648C363.747 119.158 363.63 119.659 363.419 120.123C363.208 120.588 362.908 121.006 362.536 121.355C362.164 121.703 361.726 121.975 361.249 122.155L355.502 124.322C355.06 124.489 354.591 124.573 354.119 124.57V124.57Z" fill="#4C3133"/>
<path d="M408.571 118.877C408.376 118.877 408.181 118.861 407.989 118.83L401.907 117.906C401.389 117.847 400.888 117.683 400.433 117.426C399.979 117.168 399.582 116.822 399.265 116.407C398.947 115.993 398.717 115.519 398.587 115.013C398.457 114.507 398.431 113.981 398.509 113.465C398.588 112.949 398.769 112.454 399.043 112.009C399.317 111.565 399.678 111.181 400.104 110.879C400.53 110.577 401.012 110.364 401.522 110.253C402.032 110.142 402.56 110.135 403.072 110.232L409.154 111.157C410.119 111.307 410.991 111.816 411.598 112.581C412.204 113.346 412.5 114.312 412.427 115.286C412.353 116.259 411.916 117.169 411.201 117.835C410.487 118.5 409.548 118.872 408.571 118.877V118.877Z" fill="#4C3133"/>
<path d="M569.513 132.538C569.513 132.538 586.328 128.865 594.607 145.26C602.886 161.656 588.945 181.135 588.945 181.135C588.945 181.135 570.103 178.206 569.528 166.292C569.528 166.292 576.029 165.166 573.901 159.465C571.773 153.765 566.592 159.597 566.592 159.597C566.592 159.597 556.061 147.52 569.513 132.538Z" fill="#E2E2E0"/>
<path d="M588.945 183.853C588.808 183.864 588.67 183.864 588.533 183.853C587.671 183.72 567.486 180.42 566.841 166.447C566.811 165.786 567.023 165.136 567.437 164.62C567.852 164.103 568.441 163.756 569.093 163.644C569.668 163.535 571.058 163.046 571.493 162.269C571.614 161.973 571.67 161.655 571.657 161.336C571.644 161.017 571.561 160.705 571.416 160.42C571.333 160.166 571.212 159.925 571.058 159.706C570.145 160.084 569.331 160.669 568.682 161.415C568.421 161.697 568.105 161.922 567.754 162.077C567.403 162.232 567.023 162.313 566.639 162.315C566.255 162.313 565.876 162.23 565.527 162.071C565.177 161.911 564.865 161.68 564.612 161.391C564.488 161.251 552.628 147.31 567.525 130.728C567.908 130.306 568.413 130.014 568.969 129.89C569.156 129.851 587.943 126.006 597.061 144.04C605.985 161.694 591.795 181.872 591.19 182.726C590.933 183.08 590.595 183.366 590.204 183.562C589.814 183.758 589.382 183.858 588.945 183.853V183.853ZM572.635 168.117C574.53 174.432 583.835 177.204 587.702 178.105C590.537 173.492 598.42 158.766 592.215 146.479C585.924 134.052 574.204 134.627 570.957 135.062C563.191 144.235 565.35 151.908 567.245 155.551C568.663 154.54 570.411 154.105 572.138 154.331C573.52 154.595 575.4 155.527 576.511 158.51C576.96 159.534 577.169 160.648 577.121 161.765C577.072 162.883 576.768 163.975 576.231 164.956C575.374 166.356 574.108 167.46 572.604 168.117H572.635Z" fill="#B9B9B9"/>
<path d="M585.272 167.045C584.582 167.045 583.918 166.782 583.415 166.31C582.912 165.839 582.606 165.194 582.561 164.505C580.736 136.895 553.552 119.761 553.304 119.591C552.686 119.213 552.243 118.605 552.074 117.9C551.904 117.196 552.021 116.453 552.399 115.835C552.777 115.217 553.385 114.775 554.089 114.605C554.794 114.436 555.536 114.553 556.154 114.931C557.374 115.707 585.978 133.672 587.998 164.109C588.022 164.466 587.976 164.824 587.862 165.162C587.747 165.501 587.568 165.814 587.332 166.083C587.097 166.352 586.811 166.572 586.491 166.73C586.171 166.889 585.822 166.983 585.466 167.006L585.272 167.045Z" fill="#B9B9B9"/>
<path d="M517.6 435.766C521.686 444.029 534.268 444.41 541.584 438.81C548.9 433.21 552.255 423.976 555.246 415.254L559.649 402.384C551.067 409.77 537.662 405.67 526.928 409.266C522.257 410.936 518.222 414.021 515.385 418.091C512.548 422.161 511.05 427.014 511.1 431.975" fill="#E2E2E0"/>
<path d="M530.058 445.279C528.513 445.283 526.973 445.109 525.468 444.759C523.278 444.318 521.216 443.391 519.432 442.047C517.648 440.703 516.189 438.975 515.162 436.992C514.842 436.346 514.793 435.598 515.025 434.915C515.256 434.232 515.75 433.669 516.396 433.35C517.043 433.03 517.79 432.981 518.473 433.213C519.157 433.444 519.72 433.938 520.039 434.585C520.711 435.85 521.659 436.947 522.813 437.797C523.966 438.646 525.295 439.226 526.703 439.493C528.978 439.983 531.331 439.984 533.607 439.498C535.882 439.012 538.029 438.05 539.906 436.674C546.826 431.385 550.05 421.964 552.644 414.399L554.756 408.186C550.329 409.739 545.436 409.925 540.714 410.127C535.992 410.329 531.697 410.523 527.759 411.844C523.641 413.331 520.086 416.058 517.582 419.649C515.079 423.24 513.75 427.52 513.779 431.897C513.79 432.254 513.73 432.61 513.603 432.944C513.477 433.278 513.285 433.583 513.041 433.843C512.796 434.103 512.502 434.313 512.176 434.459C511.851 434.606 511.499 434.687 511.142 434.697C510.785 434.708 510.43 434.648 510.096 434.522C509.762 434.395 509.456 434.204 509.196 433.959C508.936 433.714 508.727 433.42 508.581 433.095C508.434 432.769 508.353 432.417 508.342 432.061C508.248 426.509 509.906 421.069 513.081 416.514C516.256 411.958 520.786 408.52 526.027 406.687C530.687 405.133 535.658 404.908 540.473 404.698C547.121 404.411 553.405 404.139 557.84 400.318C558.292 399.93 558.86 399.701 559.456 399.667C560.051 399.634 560.641 399.797 561.135 400.131C561.628 400.466 561.998 400.954 562.187 401.52C562.376 402.085 562.374 402.697 562.181 403.262L557.777 416.131C554.95 424.395 551.424 434.678 543.199 440.984C539.389 443.781 534.785 445.286 530.058 445.279V445.279Z" fill="#B9B9B9"/>
<path d="M506.292 435.828C505.422 435.828 504.552 435.804 503.682 435.758C502.961 435.72 502.285 435.397 501.802 434.86C501.319 434.323 501.069 433.617 501.108 432.896C501.146 432.175 501.469 431.498 502.005 431.016C502.542 430.533 503.249 430.283 503.97 430.321C510.425 430.615 516.873 429.6 522.926 427.338C528.979 425.075 534.512 421.612 539.192 417.157C539.438 416.871 539.741 416.639 540.081 416.477C540.422 416.315 540.792 416.225 541.169 416.214C541.546 416.203 541.922 416.27 542.271 416.412C542.621 416.553 542.937 416.766 543.2 417.037C543.463 417.307 543.666 417.629 543.798 417.983C543.93 418.336 543.986 418.713 543.964 419.09C543.942 419.466 543.842 419.834 543.67 420.17C543.499 420.505 543.259 420.802 542.966 421.04C533.073 430.464 519.955 435.754 506.292 435.828V435.828Z" fill="#B9B9B9"/>
<path d="M159.199 120.763C149.335 121.758 141.273 111.288 141.762 102.061C142.252 92.8344 148.411 84.9745 154.344 77.7825L163.097 67.1111C161.785 78.365 173.668 87.5297 177.078 98.5739C180.037 108.212 175.524 119.163 166.577 124.243" fill="#E2E2E0"/>
<path d="M166.561 126.961C165.96 126.962 165.376 126.763 164.9 126.396C164.424 126.029 164.082 125.515 163.93 124.933C163.777 124.352 163.821 123.736 164.056 123.183C164.29 122.629 164.702 122.169 165.226 121.874C173.07 117.439 177.039 107.77 174.46 99.3508C173.217 95.3043 170.577 91.3045 168.022 87.4367C165.187 83.1417 162.29 78.7457 160.985 73.9537L156.441 79.4913C151.315 85.7513 144.931 93.5413 144.473 102.193C144.248 106.457 146.29 111.288 149.661 114.511C152.395 117.113 155.68 118.395 158.927 118.045C159.648 117.973 160.368 118.19 160.929 118.649C161.489 119.108 161.845 119.771 161.917 120.492C161.989 121.213 161.772 121.933 161.313 122.493C160.854 123.054 160.191 123.41 159.47 123.482C154.632 123.971 149.816 122.193 145.91 118.472C141.366 114.139 138.733 107.801 139.044 101.937C139.595 91.5064 146.609 82.9475 152.247 76.074L161 65.4026C161.373 64.9498 161.882 64.6297 162.452 64.4899C163.021 64.3502 163.621 64.3984 164.16 64.6272C164.7 64.8561 165.152 65.2534 165.447 65.7599C165.743 66.2664 165.867 66.8548 165.8 67.4374C165.132 73.2081 168.744 78.6758 172.573 84.4776C175.338 88.6638 178.196 93.0209 179.664 97.7897C182.98 108.57 177.924 120.965 167.905 126.62C167.495 126.85 167.032 126.968 166.561 126.961Z" fill="#B9B9B9"/>
<path d="M170.08 133.703C169.672 133.703 169.27 133.612 168.903 133.436C168.536 133.26 168.214 133.003 167.959 132.685C158.515 120.965 154.383 105.502 156.923 91.3975C157.051 90.6879 157.455 90.058 158.047 89.6466C158.639 89.2351 159.37 89.0757 160.08 89.2034C160.79 89.3311 161.419 89.7355 161.831 90.3276C162.242 90.9196 162.402 91.6509 162.274 92.3606C160.014 104.966 163.719 118.767 172.192 129.276C172.511 129.676 172.712 130.157 172.77 130.666C172.828 131.174 172.743 131.689 172.522 132.151C172.302 132.613 171.956 133.003 171.524 133.278C171.092 133.552 170.591 133.699 170.08 133.703V133.703Z" fill="#B9B9B9"/>
<path d="M243.471 353.699L55.3116 311.33C48.8631 309.878 42.4584 313.929 41.0063 320.377L14.3323 438.836C12.8802 445.284 16.9307 451.689 23.3792 453.141L211.538 495.51C217.987 496.962 224.391 492.912 225.843 486.463L252.518 368.005C253.97 361.556 249.919 355.151 243.471 353.699Z" fill="#F0F0F0"/>
<path d="M214.234 498.513C213.139 498.514 212.047 498.392 210.979 498.148L22.8158 455.788C20.9339 455.367 19.1537 454.579 17.5769 453.468C16.0002 452.358 14.6579 450.948 13.627 449.318C12.5961 447.688 11.8967 445.871 11.569 443.971C11.2413 442.071 11.2916 440.124 11.7172 438.243L38.3802 319.778C38.8033 317.896 39.5931 316.117 40.7044 314.54C41.8156 312.964 43.2266 311.622 44.8567 310.591C46.4868 309.561 48.3041 308.861 50.2046 308.533C52.1051 308.205 54.0516 308.255 55.9329 308.679L244.097 351.039C247.894 351.899 251.195 354.23 253.277 357.52C255.359 360.81 256.052 364.792 255.203 368.592L228.532 487.049C227.801 490.298 225.988 493.202 223.39 495.285C220.792 497.368 217.564 498.506 214.234 498.513V498.513ZM52.6865 313.751C50.5885 313.756 48.5545 314.474 46.9176 315.786C45.2808 317.098 44.1382 318.927 43.6771 320.974L17.0218 439.432C16.7545 440.616 16.7233 441.842 16.93 443.039C17.1366 444.236 17.5771 445.38 18.2263 446.406C18.8755 447.433 19.7206 448.321 20.7133 449.021C21.706 449.72 22.8269 450.217 24.0118 450.484L212.175 492.835C214.568 493.371 217.075 492.936 219.147 491.625C221.219 490.315 222.686 488.236 223.227 485.845L249.875 367.396C250.411 365.003 249.975 362.496 248.665 360.424C247.355 358.352 245.276 356.885 242.885 356.344L54.7369 313.984C54.0669 313.83 53.3817 313.752 52.6942 313.751H52.6865Z" fill="#4C3133"/>
<path d="M45.4246 315.833L130.462 424.209L252.127 362.371" fill="#F0F0F0"/>
<path d="M130.462 426.927C130.049 426.928 129.642 426.834 129.27 426.654C128.899 426.473 128.573 426.211 128.318 425.887L43.2807 317.51C43.0422 317.232 42.8626 316.908 42.7525 316.558C42.6425 316.208 42.6043 315.84 42.6404 315.475C42.6764 315.11 42.7859 314.756 42.9622 314.435C43.1385 314.113 43.3781 313.831 43.6664 313.604C43.9548 313.378 44.286 313.212 44.64 313.117C44.9941 313.022 45.3638 312.999 45.7268 313.051C46.0899 313.102 46.4388 313.227 46.7525 313.416C47.0662 313.606 47.3383 313.857 47.5524 314.155L131.223 420.768L250.9 359.947C251.541 359.635 252.279 359.587 252.955 359.814C253.631 360.041 254.191 360.524 254.514 361.16C254.837 361.796 254.897 362.533 254.682 363.213C254.466 363.892 253.992 364.46 253.362 364.794L131.689 426.632C131.308 426.825 130.888 426.926 130.462 426.927V426.927Z" fill="#4C3133"/>
<path d="M21.4564 417.538C20.8547 417.536 20.2705 417.335 19.7954 416.966C19.3202 416.596 18.9811 416.08 18.8309 415.497C18.6808 414.915 18.7283 414.299 18.9659 413.746C19.2035 413.193 19.6178 412.735 20.1438 412.443L89.3684 374.153C89.6812 373.966 90.0285 373.844 90.3896 373.793C90.7507 373.743 91.1182 373.766 91.4702 373.861C91.8222 373.956 92.1515 374.12 92.4386 374.345C92.7257 374.57 92.9647 374.85 93.1413 375.169C93.3179 375.488 93.4286 375.839 93.4668 376.201C93.505 376.564 93.4698 376.93 93.3635 377.279C93.2571 377.628 93.0817 377.951 92.8477 378.231C92.6137 378.51 92.3258 378.74 92.0013 378.906L22.7767 417.196C22.3731 417.421 21.9185 417.538 21.4564 417.538V417.538Z" fill="#4C3133"/>
<path d="M230.932 463.011C230.461 463.01 229.999 462.886 229.59 462.652C229.182 462.417 228.841 462.081 228.602 461.675L188.992 394.672C188.778 394.365 188.63 394.018 188.557 393.652C188.483 393.286 188.486 392.908 188.565 392.543C188.643 392.178 188.797 391.833 189.015 391.53C189.233 391.227 189.511 390.972 189.832 390.781C190.153 390.59 190.51 390.467 190.88 390.42C191.251 390.373 191.627 390.403 191.986 390.508C192.344 390.613 192.677 390.79 192.964 391.03C193.25 391.269 193.485 391.565 193.652 391.899L233.262 458.91C233.506 459.322 233.636 459.791 233.64 460.27C233.644 460.748 233.522 461.219 233.285 461.635C233.049 462.051 232.707 462.398 232.294 462.639C231.88 462.881 231.411 463.009 230.932 463.011V463.011Z" fill="#4C3133"/>
<path d="M82.7834 175.474L8.62928 203.612C6.08669 204.577 4.80766 207.421 5.77248 209.963L23.4874 256.647C24.4522 259.19 27.2956 260.469 29.8381 259.504L103.992 231.365C106.535 230.4 107.814 227.557 106.849 225.014L89.1341 178.33C88.1693 175.788 85.326 174.509 82.7834 175.474Z" fill="white"/>
<path d="M84.5218 175.177C85.5199 175.179 86.494 175.483 87.3151 176.05C88.1362 176.618 88.7655 177.421 89.1197 178.354L106.836 225.047C107.297 226.268 107.255 227.622 106.719 228.811C106.184 230.001 105.197 230.93 103.977 231.393L29.821 259.531C28.5994 259.993 27.2445 259.952 26.0535 259.416C24.8625 258.88 23.9326 257.894 23.4679 256.673L5.75982 209.988C5.29541 208.767 5.3348 207.412 5.86934 206.221C6.40387 205.029 7.38978 204.099 8.61019 203.635L82.7743 175.504C83.3323 175.29 83.9244 175.179 84.5218 175.177V175.177ZM84.5218 169.741C83.2663 169.739 82.0211 169.968 80.8482 170.416L6.68406 198.555C4.11582 199.53 2.03984 201.485 0.912559 203.99C-0.214721 206.495 -0.301017 209.345 0.672635 211.914L18.4273 258.584C19.1758 260.54 20.4968 262.224 22.2178 263.417C23.9387 264.61 25.9795 265.256 28.0735 265.271C29.3291 265.272 30.5743 265.043 31.7472 264.595L105.911 236.457C108.477 235.479 110.55 233.523 111.675 231.019C112.801 228.514 112.887 225.666 111.915 223.098L94.2069 176.412C93.4517 174.455 92.1232 172.77 90.3952 171.58C88.6672 170.39 86.6201 169.749 84.5218 169.741V169.741Z" fill="#4C3133"/>
<path d="M6.23315 207.418L59.9787 225.312L87.698 176.506" fill="#F0F0F0"/>
<path d="M59.9789 228.03C59.6885 228.029 59.4001 227.982 59.1245 227.89L5.37127 210.027C5.03265 209.914 4.71964 209.735 4.45012 209.501C4.18061 209.267 3.95985 208.982 3.80046 208.662C3.64108 208.343 3.54618 207.995 3.52119 207.639C3.4962 207.283 3.54161 206.925 3.65483 206.586C3.76804 206.248 3.94684 205.935 4.18102 205.665C4.4152 205.396 4.70017 205.175 5.01966 205.016C5.33915 204.856 5.68691 204.761 6.04308 204.736C6.39925 204.711 6.75686 204.757 7.09548 204.87L58.7207 222.058L85.3371 175.178C85.6935 174.551 86.2844 174.091 86.9799 173.899C87.3243 173.804 87.684 173.778 88.0384 173.822C88.3929 173.867 88.7351 173.98 89.0457 174.157C89.3563 174.333 89.6291 174.569 89.8485 174.851C90.0679 175.133 90.2296 175.455 90.3245 175.799C90.4193 176.144 90.4454 176.503 90.4012 176.858C90.357 177.212 90.2435 177.555 90.067 177.865L62.3477 226.671C62.1079 227.086 61.7624 227.431 61.3464 227.67C60.9303 227.908 60.4585 228.033 59.9789 228.03V228.03Z" fill="#4C3133"/>
<path d="M20.4546 249.528C19.9873 249.527 19.528 249.407 19.1211 249.177C18.7141 248.948 18.3732 248.617 18.1312 248.217C17.8892 247.818 17.7543 247.362 17.7395 246.895C17.7248 246.428 17.8306 245.965 18.0469 245.551L33.1143 216.714C33.2795 216.397 33.5055 216.116 33.7793 215.886C34.0532 215.657 34.3695 215.484 34.7103 215.377C35.051 215.27 35.4096 215.231 35.7654 215.262C36.1212 215.294 36.4673 215.395 36.784 215.56C37.1007 215.725 37.3818 215.951 37.6111 216.225C37.8405 216.499 38.0136 216.815 38.1207 217.156C38.2278 217.497 38.2668 217.856 38.2353 218.211C38.2038 218.567 38.1026 218.913 37.9374 219.23L22.87 248.068C22.6389 248.508 22.2917 248.877 21.866 249.135C21.4402 249.392 20.9521 249.528 20.4546 249.528Z" fill="#4C3133"/>
<path d="M102.634 217.63C102.221 217.629 101.815 217.533 101.445 217.35L72.6542 203.37C72.3329 203.214 72.0455 202.997 71.8084 202.729C71.5713 202.462 71.3891 202.151 71.2723 201.814C71.1555 201.476 71.1063 201.119 71.1275 200.762C71.1487 200.406 71.2399 200.057 71.396 199.736C71.552 199.414 71.7699 199.127 72.037 198.89C72.3041 198.653 72.6153 198.471 72.9528 198.354C73.2903 198.237 73.6476 198.188 74.0041 198.209C74.3607 198.23 74.7095 198.321 75.0308 198.477L103.861 212.457C104.415 212.726 104.861 213.174 105.127 213.729C105.393 214.285 105.463 214.914 105.325 215.513C105.187 216.113 104.849 216.649 104.368 217.032C103.886 217.415 103.288 217.623 102.672 217.622L102.634 217.63Z" fill="#4C3133"/>
<path d="M435.957 479.205L259.016 575.163C254.396 577.67 248.969 578.238 243.929 576.744C238.89 575.249 234.65 571.814 232.143 567.194L165.35 444.1C163.734 441.122 162.908 437.779 162.952 434.39C162.995 431.002 163.906 427.681 165.598 424.745L222.147 326.73C223.927 323.649 226.503 321.103 229.605 319.361C232.707 317.619 236.221 316.744 239.778 316.827L360.379 319.258C363.879 319.329 367.297 320.326 370.286 322.148C373.275 323.969 375.728 326.549 377.396 329.627L443.956 452.34C446.456 456.964 447.018 462.391 445.517 467.429C444.017 472.466 440.579 476.702 435.957 479.205V479.205Z" fill="#E2E2E0"/>
<path d="M249.595 580.304C247.414 580.3 245.246 579.981 243.156 579.357C240.315 578.521 237.667 577.13 235.367 575.264C233.067 573.397 231.161 571.092 229.759 568.483L162.965 445.389C161.143 441.997 160.214 438.197 160.264 434.346C160.314 430.496 161.343 426.722 163.253 423.378L219.802 325.362C221.819 321.87 224.737 318.983 228.251 317.003C231.765 315.024 235.746 314.024 239.778 314.108L360.402 316.532C364.381 316.617 368.267 317.752 371.666 319.822C375.065 321.893 377.856 324.825 379.757 328.321L446.317 451.035C449.159 456.291 449.8 462.46 448.1 468.188C446.399 473.916 442.496 478.736 437.246 481.589V481.589L260.313 577.562C257.026 579.358 253.341 580.3 249.595 580.304V580.304ZM239.343 319.537C236.341 319.535 233.392 320.323 230.792 321.823C228.192 323.323 226.033 325.481 224.532 328.081L167.99 426.096C166.539 428.632 165.756 431.495 165.717 434.416C165.677 437.338 166.382 440.221 167.765 442.795L234.559 565.889C235.628 567.864 237.076 569.61 238.82 571.025C240.564 572.44 242.57 573.497 244.724 574.137C246.877 574.776 249.135 574.984 251.369 574.75C253.603 574.515 255.769 573.843 257.742 572.77L434.66 476.813C436.634 475.743 438.379 474.295 439.793 472.55C441.208 470.805 442.264 468.799 442.903 466.646C443.541 464.493 443.749 462.235 443.514 460.001C443.279 457.768 442.606 455.603 441.533 453.629L374.98 330.916C373.539 328.262 371.421 326.036 368.842 324.465C366.262 322.893 363.313 322.032 360.294 321.968L239.692 319.537H239.343Z" fill="#1D1D1B"/>
<path d="M296.935 241.324L135.502 328.902C131.626 331.005 130.188 335.852 132.291 339.727L233.546 526.372C235.649 530.248 240.496 531.685 244.372 529.583L405.805 442.005C409.681 439.902 411.118 435.055 409.015 431.179L307.76 244.535C305.657 240.659 300.811 239.221 296.935 241.324Z" fill="#F0F0F0"/>
<path d="M300.723 240.418C302.157 240.423 303.563 240.815 304.793 241.552C306.023 242.289 307.032 243.343 307.713 244.604L408.991 431.23C409.999 433.092 410.226 435.278 409.624 437.308C409.021 439.338 407.637 441.046 405.776 442.056L244.345 529.618C243.423 530.12 242.412 530.434 241.368 530.545C240.324 530.655 239.269 530.558 238.263 530.26C237.257 529.963 236.319 529.469 235.503 528.808C234.688 528.148 234.011 527.333 233.511 526.41L132.28 339.761C131.276 337.902 131.051 335.722 131.652 333.697C132.253 331.672 133.632 329.968 135.487 328.958L296.926 241.373C298.09 240.734 299.396 240.4 300.723 240.402V240.418ZM300.723 234.965C298.49 234.969 296.294 235.53 294.332 236.596L132.893 324.158C129.766 325.857 127.44 328.727 126.428 332.14C125.416 335.552 125.8 339.226 127.495 342.355L228.734 528.997C229.571 530.549 230.706 531.922 232.074 533.036C233.442 534.149 235.016 534.982 236.706 535.487C238.396 535.992 240.169 536.159 241.923 535.978C243.678 535.797 245.38 535.272 246.931 534.433L408.37 446.841C411.492 445.135 413.812 442.261 414.82 438.85C415.829 435.438 415.445 431.765 413.752 428.636L312.529 241.971C311.373 239.851 309.665 238.083 307.587 236.852C305.51 235.622 303.138 234.975 300.723 234.981V234.965Z" fill="#4C3133"/>
<path d="M296.925 241.372L157.529 316.981L177.171 422.538L192.758 451.275C194.105 451.417 195.465 451.364 196.797 451.12L362.662 420.247C366.328 419.564 369.573 417.454 371.684 414.379C373.794 411.305 374.597 407.518 373.916 403.852L363.354 347.093L307.752 244.572C307.252 243.651 306.575 242.837 305.76 242.177C304.945 241.517 304.008 241.025 303.002 240.727C301.996 240.43 300.942 240.334 299.899 240.445C298.857 240.556 297.846 240.871 296.925 241.372V241.372Z" fill="#E2E2E0"/>
<path d="M163.227 200.234L332.372 168.763C336.04 168.08 339.828 168.883 342.904 170.994C345.98 173.104 348.091 176.351 348.773 180.018L387.101 386.013C387.783 389.68 386.981 393.468 384.87 396.544C382.759 399.62 379.513 401.731 375.846 402.414L209.976 433.275C206.309 433.958 202.521 433.155 199.445 431.045C196.369 428.934 194.258 425.688 193.575 422.02L154.64 212.758C154.381 211.371 154.397 209.948 154.689 208.568C154.98 207.188 155.541 205.879 156.338 204.716C157.136 203.553 158.155 202.559 159.337 201.79C160.519 201.021 161.841 200.492 163.227 200.234Z" fill="white"/>
<path d="M334.974 168.506C338.255 168.512 341.43 169.664 343.952 171.763C346.473 173.862 348.182 176.776 348.783 180.001L387.12 385.989C387.8 389.655 386.997 393.442 384.887 396.517C382.777 399.591 379.532 401.702 375.866 402.384L210 433.257C208.185 433.597 206.32 433.576 204.512 433.194C202.705 432.812 200.99 432.078 199.467 431.032C197.944 429.987 196.642 428.651 195.636 427.102C194.63 425.552 193.94 423.82 193.605 422.003L154.655 212.745C154.396 211.359 154.414 209.936 154.706 208.556C154.997 207.177 155.558 205.868 156.356 204.705C157.154 203.543 158.173 202.549 159.355 201.78C160.537 201.011 161.859 200.483 163.245 200.225L332.38 168.747C333.236 168.59 334.104 168.51 334.974 168.506ZM334.974 163.069C333.77 163.072 332.57 163.184 331.386 163.403L162.243 194.882C158.03 195.672 154.302 198.101 151.878 201.636C149.453 205.172 148.53 209.524 149.311 213.739L188.254 422.997C189.085 427.471 191.455 431.513 194.953 434.423C198.451 437.334 202.856 438.93 207.406 438.934C208.61 438.932 209.811 438.82 210.994 438.6L376.86 407.728C379.378 407.261 381.779 406.302 383.926 404.907C386.073 403.511 387.924 401.707 389.373 399.595C390.822 397.484 391.841 395.108 392.371 392.603C392.902 390.097 392.933 387.512 392.463 384.995L354.127 179.007C353.296 174.532 350.927 170.49 347.429 167.579C343.931 164.668 339.525 163.073 334.974 163.069V163.069Z" fill="#4C3133"/>
<path d="M328.442 196.989L183.097 222.591C178.615 223.381 175.621 227.654 176.411 232.136L176.701 233.781C177.49 238.263 181.763 241.256 186.246 240.467L331.591 214.865C336.073 214.075 339.066 209.802 338.277 205.32L337.987 203.675C337.197 199.193 332.924 196.2 328.442 196.989Z" fill="#F0F0F0"/>
<path d="M333.771 227.232L188.426 252.834C183.944 253.623 180.95 257.897 181.74 262.379L182.029 264.023C182.819 268.505 187.092 271.499 191.574 270.709L336.919 245.107C341.401 244.318 344.395 240.044 343.605 235.562L343.316 233.918C342.526 229.435 338.253 226.442 333.771 227.232Z" fill="#F0F0F0"/>
<path d="M339.101 257.483L193.756 283.085C189.274 283.874 186.281 288.148 187.07 292.63L187.36 294.274C188.149 298.756 192.423 301.75 196.905 300.96L342.25 275.358C346.732 274.569 349.725 270.295 348.936 265.813L348.646 264.169C347.857 259.686 343.583 256.693 339.101 257.483Z" fill="#F0F0F0"/>
<path d="M344.431 287.734L199.086 313.336C194.604 314.126 191.611 318.399 192.4 322.881L192.69 324.526C193.479 329.008 197.753 332.001 202.235 331.212L347.58 305.61C352.062 304.82 355.056 300.547 354.266 296.065L353.976 294.42C353.187 289.938 348.913 286.944 344.431 287.734Z" fill="#F0F0F0"/>
<path d="M349.753 317.984L204.408 343.586C199.926 344.376 196.933 348.649 197.722 353.131L198.012 354.776C198.801 359.258 203.075 362.251 207.557 361.462L352.902 335.86C357.384 335.07 360.378 330.797 359.588 326.315L359.298 324.67C358.509 320.188 354.235 317.194 349.753 317.984Z" fill="#F0F0F0"/>
<path d="M355.083 348.227L209.738 373.829C205.255 374.619 202.262 378.892 203.052 383.374L203.341 385.019C204.131 389.501 208.404 392.494 212.886 391.705L358.231 366.103C362.713 365.313 365.707 361.04 364.917 356.558L364.628 354.913C363.838 350.431 359.565 347.438 355.083 348.227Z" fill="#F0F0F0"/>
<path d="M183.858 478.225L306.976 452.556L395.663 363.356L449.168 461.993C449.721 463.013 450.066 464.132 450.186 465.286C450.305 466.44 450.196 467.607 449.864 468.718C449.532 469.83 448.984 470.865 448.252 471.765C447.519 472.665 446.617 473.411 445.595 473.961L249.354 580.412C248.336 580.965 247.218 581.312 246.065 581.433C244.912 581.554 243.746 581.447 242.635 581.118C241.523 580.788 240.487 580.242 239.587 579.512C238.686 578.782 237.938 577.882 237.386 576.862L183.858 478.225Z" fill="white"/>
<path d="M395.663 363.357L449.168 461.994C449.721 463.014 450.066 464.133 450.186 465.287C450.305 466.441 450.196 467.607 449.864 468.719C449.532 469.831 448.985 470.866 448.252 471.766C447.52 472.665 446.617 473.412 445.595 473.962L249.355 580.412C248.336 580.967 247.218 581.315 246.065 581.436C244.911 581.558 243.746 581.451 242.634 581.121C241.522 580.792 240.486 580.246 239.586 579.515C238.685 578.784 237.938 577.883 237.386 576.863L183.858 478.226L306.976 452.557L395.663 363.357ZM395.663 357.92C394.942 357.917 394.227 358.057 393.56 358.333C392.893 358.609 392.288 359.015 391.78 359.528L304.304 447.571L182.778 472.906C181.948 473.078 181.17 473.442 180.506 473.969C179.842 474.496 179.31 475.171 178.953 475.94C178.596 476.709 178.424 477.551 178.45 478.398C178.477 479.245 178.701 480.075 179.105 480.82L232.61 579.457C234.412 582.782 237.461 585.254 241.087 586.33C244.712 587.407 248.616 586.999 251.941 585.197L448.213 478.739C451.526 476.933 453.99 473.889 455.064 470.272C456.138 466.655 455.736 462.76 453.945 459.438L400.448 360.801C400.044 360.055 399.472 359.413 398.776 358.928C398.08 358.442 397.28 358.126 396.44 358.005C396.183 357.972 395.923 357.954 395.663 357.951V357.92Z" fill="#4C3133"/>
<path d="M242.046 558.999L196.782 475.538L183.858 478.226L237.355 576.863C237.907 577.882 238.655 578.783 239.556 579.513C240.456 580.243 241.492 580.788 242.603 581.118C243.715 581.448 244.881 581.555 246.034 581.434C247.187 581.313 248.305 580.965 249.323 580.412L445.595 473.962C446.615 473.409 447.515 472.662 448.245 471.761C448.975 470.86 449.521 469.825 449.851 468.713C450.18 467.602 450.288 466.436 450.166 465.283C450.045 464.13 449.698 463.012 449.145 461.993L446.947 457.885L254.014 562.549C252.996 563.102 251.878 563.449 250.725 563.57C249.572 563.691 248.406 563.584 247.295 563.255C246.183 562.925 245.147 562.379 244.247 561.649C243.346 560.919 242.598 560.019 242.046 558.999V558.999Z" fill="#F0F0F0"/>
<path d="M240.182 524.042L285.136 432.162C286.802 428.762 289.543 426.007 292.934 424.322C296.325 422.637 300.176 422.117 303.892 422.842L394.289 440.465" fill="white"/>
<path d="M240.182 526.768C239.767 526.767 239.358 526.671 238.986 526.489C238.339 526.171 237.845 525.61 237.612 524.928C237.379 524.247 237.426 523.501 237.743 522.854L282.697 430.966C284.63 427.026 287.808 423.832 291.739 421.879C295.67 419.926 300.135 419.323 304.443 420.163L394.84 437.793C395.194 437.858 395.531 437.992 395.833 438.188C396.135 438.384 396.395 438.638 396.598 438.935C396.8 439.232 396.942 439.567 397.015 439.919C397.087 440.271 397.089 440.635 397.02 440.988C396.952 441.341 396.813 441.677 396.614 441.976C396.414 442.276 396.157 442.532 395.857 442.731C395.557 442.931 395.221 443.068 394.868 443.137C394.515 443.205 394.151 443.202 393.799 443.129L303.371 425.499C300.241 424.894 296.998 425.336 294.143 426.756C291.288 428.177 288.98 430.497 287.574 433.358L242.628 525.238C242.404 525.696 242.056 526.082 241.623 526.352C241.191 526.623 240.692 526.767 240.182 526.768V526.768Z" fill="#4C3133"/>
<path d="M248.663 303.965C286.071 303.965 316.396 273.639 316.396 236.231C316.396 198.823 286.071 168.498 248.663 168.498C211.255 168.498 180.93 198.823 180.93 236.231C180.93 273.639 211.255 303.965 248.663 303.965Z" fill="#F0F0F0"/>
<path d="M248.717 306.691C230.985 306.713 213.896 300.049 200.86 288.029C187.823 276.009 179.797 259.516 178.381 241.84C176.966 224.164 182.267 206.605 193.225 192.664C204.183 178.723 219.994 169.425 237.504 166.625C255.014 163.825 272.936 167.729 287.695 177.558C302.454 187.387 312.966 202.418 317.133 219.654C321.3 236.89 318.817 255.063 310.178 270.549C301.54 286.035 287.381 297.695 270.526 303.204C263.485 305.503 256.125 306.68 248.717 306.691V306.691ZM248.717 171.186C232.757 171.139 217.335 176.952 205.377 187.523C193.419 198.095 185.758 212.688 183.847 228.533C181.936 244.379 185.909 260.375 195.011 273.485C204.113 286.596 217.712 295.909 233.226 299.657C248.74 303.406 265.09 301.328 279.174 293.82C293.258 286.311 304.096 273.893 309.63 258.923C315.165 243.953 315.012 227.472 309.199 212.608C303.387 197.743 292.32 185.529 278.099 178.284C269.002 173.649 258.943 171.217 248.733 171.186H248.717Z" fill="#4C3133"/>
<path d="M248.663 285.9C276.094 285.9 298.331 263.663 298.331 236.232C298.331 208.801 276.094 186.564 248.663 186.564C221.232 186.564 198.995 208.801 198.995 236.232C198.995 263.663 221.232 285.9 248.663 285.9Z" fill="#F0F0F0"/>
<path d="M248.609 288.649C235.41 288.663 222.69 283.702 212.986 274.755C203.282 265.808 197.306 253.532 196.25 240.375C195.194 227.218 199.135 214.147 207.288 203.766C215.441 193.386 227.207 186.46 240.239 184.368C253.272 182.277 266.614 185.174 277.605 192.482C288.597 199.79 296.43 210.972 299.544 223.799C302.658 236.626 300.823 250.155 294.406 261.689C287.988 273.223 277.46 281.915 264.919 286.032C259.656 287.765 254.15 288.649 248.609 288.649ZM248.71 189.235C243.745 189.238 238.812 190.025 234.093 191.565C225.266 194.447 217.492 199.882 211.754 207.182C206.015 214.483 202.571 223.32 201.855 232.578C201.14 241.836 203.185 251.098 207.734 259.194C212.282 267.289 219.129 273.854 227.408 278.058C235.687 282.262 245.027 283.917 254.247 282.813C263.466 281.709 272.151 277.896 279.204 271.856C286.257 265.817 291.36 257.821 293.869 248.881C296.378 239.941 296.179 230.458 293.298 221.63C290.22 212.225 284.253 204.031 276.248 198.213C268.242 192.396 258.606 189.251 248.71 189.228V189.235Z" fill="#4C3133"/>
<path d="M243.001 209.304C246.03 213.816 255.156 245.031 255.156 245.031C255.156 245.031 229.682 224.806 226.645 220.286C225.924 219.212 225.421 218.006 225.166 216.738C224.911 215.47 224.908 214.164 225.157 212.895C225.407 211.625 225.904 210.418 226.62 209.34C227.337 208.263 228.258 207.338 229.332 206.616C230.406 205.895 231.612 205.393 232.88 205.138C234.148 204.882 235.454 204.88 236.723 205.129C237.993 205.379 239.2 205.876 240.278 206.592C241.355 207.308 242.28 208.23 243.001 209.304V209.304Z" fill="#FFD900"/>
<path d="M255.156 247.765C254.542 247.763 253.945 247.555 253.463 247.174C250.822 245.07 227.569 226.538 224.392 221.808C223.441 220.439 222.771 218.895 222.422 217.265C222.074 215.634 222.053 213.951 222.361 212.312C222.669 210.674 223.3 209.113 224.218 207.721C225.135 206.329 226.32 205.133 227.704 204.204C229.088 203.274 230.644 202.629 232.279 202.307C233.915 201.984 235.598 201.99 237.232 202.325C238.865 202.659 240.415 203.315 241.793 204.255C243.17 205.194 244.346 206.399 245.254 207.797V207.797C248.43 212.527 256.818 241.062 257.766 244.301C257.926 244.855 257.906 245.447 257.709 245.989C257.512 246.532 257.149 246.999 256.671 247.322C256.221 247.617 255.694 247.772 255.156 247.765V247.765ZM234.815 207.665C233.401 207.661 232.018 208.084 230.846 208.877C230.069 209.399 229.403 210.069 228.884 210.849C228.366 211.629 228.007 212.503 227.826 213.422C227.646 214.341 227.648 215.286 227.833 216.204C228.019 217.122 228.383 217.994 228.905 218.772C230.513 221.172 240.935 230.018 250.038 237.412C246.605 226.181 242.349 213.187 240.718 210.795C240.065 209.831 239.186 209.041 238.156 208.495C237.127 207.949 235.98 207.665 234.815 207.665V207.665Z" fill="#4C3133"/>
<path d="M265.765 266.646C269.377 266.646 272.305 263.718 272.305 260.106C272.305 256.494 269.377 253.566 265.765 253.566C262.153 253.566 259.226 256.494 259.226 260.106C259.226 263.718 262.153 266.646 265.765 266.646Z" fill="#FFD900"/>
<path d="M265.75 269.364C263.985 269.362 262.257 268.855 260.77 267.904C259.283 266.952 258.1 265.595 257.358 263.993C256.617 262.391 256.35 260.611 256.587 258.862C256.824 257.113 257.556 255.468 258.698 254.121C259.839 252.774 261.341 251.782 263.028 251.261C264.714 250.74 266.514 250.712 268.216 251.18C269.918 251.648 271.451 252.593 272.634 253.903C273.816 255.214 274.6 256.835 274.891 258.576V258.576C275.296 260.997 274.723 263.48 273.299 265.479C271.875 267.478 269.716 268.831 267.295 269.24C266.784 269.323 266.268 269.365 265.75 269.364V269.364ZM265.75 256.293C265.539 256.291 265.328 256.31 265.121 256.347C264.625 256.427 264.15 256.605 263.724 256.872C263.299 257.139 262.931 257.489 262.643 257.9C262.351 258.308 262.143 258.77 262.029 259.259C261.916 259.748 261.901 260.255 261.984 260.75C262.067 261.245 262.246 261.718 262.513 262.144C262.779 262.569 263.127 262.938 263.536 263.228C264.152 263.665 264.883 263.909 265.637 263.931C266.391 263.953 267.135 263.751 267.775 263.351C268.414 262.95 268.921 262.369 269.231 261.681C269.541 260.993 269.64 260.229 269.517 259.485V259.485C269.368 258.596 268.91 257.788 268.224 257.204C267.538 256.619 266.667 256.297 265.765 256.293H265.75Z" fill="#4C3133"/>
<path d="M303.823 278.748L299.379 283.439C296.863 286.096 296.977 290.289 299.633 292.805L353.029 343.387C355.685 345.904 359.878 345.79 362.394 343.134L366.838 338.443C369.355 335.787 369.241 331.593 366.585 329.077L313.189 278.495C310.533 275.979 306.34 276.092 303.823 278.748Z" fill="#FFD900"/>
<path d="M357.575 347.886C355.185 347.887 352.885 346.97 351.152 345.323L297.756 294.785C296.863 293.943 296.146 292.933 295.644 291.813C295.143 290.693 294.868 289.485 294.835 288.258C294.802 287.031 295.011 285.81 295.451 284.664C295.891 283.519 296.553 282.471 297.399 281.582L301.841 276.922C302.683 276.029 303.693 275.311 304.813 274.809C305.932 274.307 307.14 274.031 308.367 273.997C309.594 273.963 310.815 274.172 311.961 274.611C313.107 275.05 314.155 275.712 315.045 276.557L368.441 327.134C370.234 328.84 371.279 331.187 371.346 333.662C371.413 336.136 370.497 338.536 368.798 340.337V340.337L364.355 344.997C363.514 345.891 362.503 346.608 361.382 347.108C360.26 347.608 359.051 347.881 357.824 347.91L357.575 347.886ZM308.645 279.368H308.536C308.023 279.381 307.516 279.495 307.047 279.704C306.578 279.913 306.155 280.214 305.802 280.588L301.36 285.248C301.004 285.619 300.726 286.056 300.54 286.536C300.355 287.015 300.267 287.526 300.28 288.04C300.294 288.553 300.41 289.059 300.62 289.528C300.831 289.996 301.132 290.419 301.507 290.77L354.888 341.385C355.259 341.742 355.697 342.022 356.177 342.208C356.657 342.394 357.169 342.483 357.684 342.469C358.198 342.455 358.705 342.339 359.174 342.128C359.644 341.917 360.066 341.614 360.418 341.238L364.853 336.578C365.208 336.207 365.487 335.769 365.672 335.29C365.857 334.811 365.946 334.3 365.932 333.786C365.918 333.272 365.803 332.767 365.592 332.298C365.381 331.829 365.08 331.407 364.705 331.056L311.309 280.44C310.587 279.752 309.627 279.368 308.629 279.368H308.645Z" fill="#4C3133"/>
<path d="M344.52 281.278C337.794 275.314 326.509 270.226 317.337 271.718C308.016 273.232 300.164 280.261 293.539 286.389C289.213 290.373 285.175 295.049 283.73 300.749C282.285 306.45 284.149 313.332 289.307 316.159C293.081 318.225 297.966 317.906 301.322 320.586C303.993 322.729 305.026 326.248 306.471 329.346C308.622 333.952 312.304 338.208 317.243 339.373C320.243 339.977 323.353 339.688 326.191 338.542C333.282 335.925 338.617 330.045 343.588 324.368C347.471 319.995 351.355 315.475 353.289 309.969C356.768 299.942 352.457 288.315 344.52 281.278Z" fill="#C5E6F1"/>
<path d="M320.707 271.485C329.142 271.485 338.57 276.06 344.52 281.31C352.457 288.347 356.768 299.95 353.296 310C351.393 315.507 347.448 320.027 343.595 324.4C338.594 330.077 333.289 335.956 326.198 338.574C324.273 339.314 322.233 339.709 320.171 339.739C319.188 339.741 318.208 339.629 317.251 339.405C312.311 338.24 308.63 333.968 306.478 329.378C305.034 326.271 304.001 322.761 301.329 320.617C297.974 317.938 293.089 318.287 289.314 316.19C284.157 313.363 282.324 306.482 283.738 300.781C285.151 295.08 289.221 290.405 293.547 286.42C300.172 280.316 308.032 273.264 317.344 271.749C318.456 271.57 319.581 271.482 320.707 271.485V271.485ZM320.707 266.048C319.287 266.047 317.869 266.159 316.466 266.382C305.306 268.192 296.382 276.417 289.865 282.421C285.897 286.071 280.398 291.81 278.464 299.445C276.584 306.87 278.813 316.641 286.704 320.959C288.837 322.04 291.108 322.823 293.454 323.289C295.279 323.724 297.003 324.128 297.927 324.842C298.976 325.681 299.768 327.537 300.607 329.502C300.902 330.201 301.213 330.923 301.554 331.654C304.754 338.512 310.02 343.257 315.993 344.671C317.362 344.993 318.764 345.155 320.171 345.152C322.877 345.125 325.557 344.617 328.085 343.653C336.629 340.492 342.757 333.556 347.673 327.972C351.649 323.467 356.154 318.357 358.438 311.755C360.486 305.61 360.456 298.962 358.352 292.836C356.374 286.823 352.849 281.437 348.131 277.217C342.298 272.044 331.635 266.048 320.707 266.048V266.048Z" fill="#4C3133"/>
</svg>
