<svg width="600" height="412" viewBox="0 0 600 412" fill="none" xmlns="http://www.w3.org/2000/svg">
<path d="M206.167 330.848C186.229 341.889 163.505 351.107 141.209 346.712C118.914 342.317 99.0827 319.271 105.943 297.619C110.231 284.113 123.523 273.393 122.879 259.244C122.236 245.416 108.945 236.412 98.6542 227.194C74.5361 205.434 62.5305 171.026 67.89 139.083C71.9633 114.214 91.5794 88.274 116.769 90.8466C126.309 91.8114 134.885 96.7421 144.103 99.1003C191.267 110.891 232.857 54.1872 281.201 59.2252C293.957 60.5115 306.177 66.1926 318.932 65.5494C342.622 64.3703 359.986 42.7177 382.604 35.6431C399.326 30.2836 418.62 33.8208 432.448 44.6471C446.276 55.4735 454.208 73.3744 453.029 90.9538C451.85 109.069 441.773 125.148 435.556 142.084C429.339 159.127 427.946 180.566 441.13 193C447.883 199.324 457.209 202.218 464.284 208.221C477.683 219.691 479.398 240.593 473.073 256.993C466.749 273.501 454.101 286.578 441.774 299.119" fill="#16202C"/>
<path d="M566.761 288.403C562.795 268.036 564.617 245.205 551.754 229.019C538.356 212.19 510.164 210.153 494.514 224.838L491.727 224.624L488.94 209.081C487.547 200.828 486.153 192.252 484.76 183.141V183.034C485.403 183.141 486.153 183.248 486.796 183.355C486.904 183.355 487.011 183.355 487.118 183.355C487.761 183.463 488.297 183.463 488.94 183.463C489.047 183.463 489.154 183.463 489.262 183.463C489.905 183.463 490.548 183.463 491.298 183.355C491.298 183.355 491.298 183.355 491.405 183.355C492.156 183.248 492.799 183.141 493.549 183.034H493.657C494.3 182.927 494.836 182.712 495.479 182.498C495.693 182.391 495.801 182.391 496.015 182.283C496.444 182.176 496.872 181.962 497.301 181.747C497.515 181.64 497.73 181.533 497.944 181.426C498.373 181.212 498.802 180.997 499.231 180.783C499.445 180.676 499.552 180.568 499.767 180.461C500.303 180.14 500.839 179.711 501.375 179.282C508.02 174.03 510.379 164.168 507.27 156.236C506.949 155.378 506.52 154.521 506.091 153.663C505.769 153.235 505.555 152.699 505.233 152.27C505.126 152.163 505.019 151.948 504.912 151.841C504.697 151.52 504.483 151.305 504.161 150.984C504.054 150.876 503.84 150.662 503.732 150.555C503.518 150.34 503.304 150.019 502.982 149.804C502.875 149.697 502.66 149.483 502.553 149.376C502.339 149.161 502.018 148.947 501.696 148.733C501.589 148.625 501.374 148.518 501.267 148.411C500.839 148.089 500.41 147.768 499.981 147.553C499.766 147.446 499.659 147.339 499.445 147.232C499.123 147.017 498.909 146.91 498.587 146.696C498.373 146.589 498.159 146.482 497.837 146.374C497.623 146.267 497.409 146.16 497.087 146.053C496.765 145.946 496.551 145.838 496.229 145.731C496.015 145.624 495.8 145.517 495.586 145.517C495.264 145.41 494.943 145.302 494.729 145.195C494.514 145.195 494.407 145.088 494.193 145.088C493.013 144.766 491.834 144.552 490.548 144.445C490.441 144.445 490.333 144.445 490.226 144.445C489.797 144.445 489.476 144.445 489.048 144.338C488.94 144.338 488.726 144.338 488.618 144.338C488.19 144.338 487.868 144.338 487.44 144.338C487.333 144.338 487.225 144.338 487.118 144.338C486.689 144.338 486.26 144.445 485.939 144.445L487.332 96.9591L457.104 86.1328C447.35 86.24 437.81 90.8492 429.985 96.6375C406.403 114.324 383.357 132.547 362.562 148.089C362.562 148.089 362.561 148.089 362.669 148.197C362.24 148.518 361.811 148.84 361.275 149.161C361.275 149.161 386.679 163.311 399.114 170.064C399.114 170.064 390.753 193.324 383.142 214.762C372.637 205.222 358.274 199.327 343.696 199.863C329.118 200.399 314.647 207.688 307.251 219.586C302.642 226.982 300.712 235.558 297.068 243.382C293.423 251.207 287.099 258.925 278.202 260.426L274.986 258.282C274.558 257.853 274.129 257.425 273.807 256.996C273.7 256.889 273.593 256.781 273.486 256.567C273.164 256.245 272.949 255.924 272.628 255.602C272.521 255.388 272.306 255.281 272.199 255.066C271.985 254.745 271.664 254.53 271.449 254.209C271.342 253.994 271.127 253.78 271.02 253.673C270.806 253.351 270.592 253.137 270.377 252.815C270.27 252.601 270.055 252.387 269.948 252.172C269.734 251.851 269.52 251.529 269.305 251.207C269.198 250.993 269.091 250.779 268.983 250.564C268.769 250.243 268.555 249.814 268.448 249.492C268.34 249.278 268.233 249.171 268.126 248.956C267.805 248.42 267.59 247.885 267.376 247.349C266.304 244.883 265.768 242.311 265.554 239.631C265.447 238.988 265.446 238.344 265.446 237.594C265.446 236.951 265.446 236.308 265.339 235.558C265.339 229.555 266.304 223.338 266.411 217.228C266.411 216.585 266.411 215.834 266.411 215.191C266.197 206.08 262.981 197.183 257.728 189.68C249.796 178.317 237.148 170.064 223.213 168.67C222.463 168.563 221.605 168.563 220.747 168.563C218.818 168.563 216.889 168.777 215.066 169.206C211.315 170.171 207.992 172.1 206.598 175.638C206.277 176.388 206.17 177.138 206.063 177.889C203.383 175.852 200.167 174.244 197.058 172.958C184.409 167.491 171.976 161.274 159.327 155.593C153.11 152.806 146.785 149.912 140.247 147.768C137.46 146.803 134.78 146.374 132.207 146.374C113.663 138.549 98.228 122.042 91.7965 119.898C85.365 117.754 81.0773 122.042 85.365 133.833C88.6879 143.051 99.943 147.661 104.659 149.269C102.516 149.804 100.372 150.448 98.3352 151.305C88.0449 155.271 78.9332 161.81 70.0363 168.241C67.5709 170.064 64.9984 171.886 63.1762 174.351C61.3539 176.817 60.3895 180.14 61.3542 183.034C62.1046 185.178 64.1408 187 66.2846 187.321C65.4271 188.822 64.7844 190.43 64.57 192.145C64.2484 194.932 65.5346 198.148 68.2144 199.112C70.251 199.863 72.5018 199.22 74.4313 198.362C82.149 195.146 87.5088 190.43 91.7965 183.463C92.654 182.069 93.7257 180.89 94.7976 179.818C90.6172 186.357 87.7233 193.431 86.5442 200.506C86.1154 203.079 86.0081 206.294 88.0448 208.009C90.2958 209.939 93.9402 208.974 96.5128 207.366C107.125 200.827 106.482 188.179 115.915 180.783C118.058 179.175 120.631 177.674 123.311 178.103C127.17 178.746 135.531 182.498 135.852 186.464C136.281 191.823 132.529 197.397 128.242 200.184C121.488 204.579 114.199 200.506 107.339 204.472C104.016 206.401 101.444 210.475 102.623 214.119C104.016 218.728 109.483 220.336 114.199 220.979C128.027 222.802 142.283 221.944 155.897 218.514C164.472 216.37 171.333 214.87 179.801 217.978C180.658 218.3 181.408 218.621 182.051 218.943C181.944 219.05 181.837 219.05 181.73 219.157C181.408 219.372 181.087 219.586 180.765 219.908C180.551 220.015 180.337 220.229 180.229 220.336C179.908 220.551 179.586 220.872 179.265 221.194C179.05 221.408 178.943 221.515 178.729 221.73C178.407 222.051 178.192 222.373 177.871 222.695C177.764 222.909 177.549 223.123 177.442 223.231C177.228 223.552 176.906 223.874 176.692 224.195C176.584 224.41 176.37 224.624 176.263 224.838C176.049 225.16 175.834 225.589 175.62 225.91C175.513 226.125 175.406 226.339 175.298 226.553C175.084 226.875 174.87 227.304 174.762 227.625C174.655 227.84 174.548 228.054 174.441 228.376C174.227 228.804 174.119 229.126 174.012 229.555C173.905 229.769 173.798 230.091 173.798 230.305C173.691 230.734 173.584 231.055 173.369 231.484C173.262 231.699 173.262 232.02 173.155 232.235C173.047 232.663 172.94 232.985 172.833 233.414C172.726 233.735 172.726 233.95 172.619 234.271C172.511 234.7 172.511 235.022 172.404 235.45C172.404 235.772 172.297 236.093 172.297 236.415C172.297 236.844 172.19 237.165 172.19 237.594C172.19 237.916 172.19 238.237 172.083 238.559C172.083 238.88 171.975 239.309 171.975 239.631C171.975 239.952 171.975 240.381 171.975 240.703C171.975 241.024 171.975 241.453 171.975 241.775C171.975 242.203 171.975 242.525 171.975 242.954C171.975 243.275 171.975 243.597 171.975 243.918C171.975 244.347 172.083 244.776 172.083 245.205C172.083 245.526 172.083 245.741 172.19 246.062C172.297 246.598 172.297 247.241 172.404 247.777C172.404 247.884 172.404 247.992 172.404 248.099C172.726 250.243 173.155 252.279 173.691 254.316C173.905 254.959 174.012 255.709 174.226 256.353C175.727 261.819 177.55 267.286 178.729 272.753C178.836 273.396 179.05 274.146 179.157 274.79C179.586 276.826 179.8 278.97 180.015 281.114C181.408 301.159 169.617 319.381 163.722 338.676C163.508 339.426 163.293 340.176 163.079 341.034C161.792 345.643 160.935 350.359 160.72 355.183C160.399 363.437 162.221 371.583 165.866 378.979C167.366 381.981 169.081 384.768 171.011 387.448C176.585 395.058 184.088 401.275 192.664 405.134C193.521 405.563 194.379 405.884 195.343 406.206C195.879 406.42 196.415 406.635 197.058 406.849C198.13 407.171 199.202 407.6 200.381 407.814C202.203 408.243 204.026 408.671 205.848 408.886C206.705 408.993 207.456 409.1 208.313 409.207L218.818 398.274C233.396 384.768 261.373 364.83 291.601 374.37C335.549 388.305 437.381 376.514 484.545 341.141C531.71 305.768 598.061 342.963 598.061 342.963C582.089 328.921 570.942 309.412 566.761 288.403Z" fill="#111217"/>
<path d="M474.896 162.882C474.467 162.025 474.789 161.167 475.432 160.631C481.328 156.236 489.153 154.843 496.334 156.772C498.371 157.308 497.514 160.417 495.477 159.881C489.153 158.166 482.4 159.559 477.147 163.418C476.397 164.061 475.325 163.632 474.896 162.882ZM463.427 115.718C463.427 115.825 463.534 115.825 463.534 115.932C463.641 116.04 463.641 116.254 463.748 116.361C463.856 116.683 463.963 117.004 464.07 117.433C464.284 118.291 465.249 118.827 466 118.505C466.857 118.291 467.393 117.433 467.071 116.576C466.214 113.681 464.606 110.894 462.569 108.751C462.033 108.107 460.854 108.107 460.318 108.751C459.675 109.394 459.675 110.358 460.318 111.002C460.532 111.216 460.747 111.538 460.961 111.752C461.069 111.859 461.176 111.966 461.283 112.073L461.39 112.181C461.39 112.181 461.39 112.181 461.39 112.288C461.819 112.824 462.14 113.36 462.462 114.003C462.783 114.539 463.105 115.075 463.427 115.718ZM448.206 103.391H448.527C448.849 103.391 449.063 103.498 449.385 103.498C449.706 103.498 450.028 103.605 450.349 103.605C450.457 103.605 450.456 103.605 450.564 103.605C450.671 103.82 450.885 103.927 451.1 104.034C451.85 104.463 452.922 104.249 453.351 103.498C453.672 102.855 453.672 102.212 453.351 101.569C453.029 101.033 452.493 100.711 451.85 100.604C450.993 100.39 450.135 100.282 449.278 100.175C447.455 99.9608 445.74 99.7465 443.918 99.7465C443.06 99.7465 442.31 100.497 442.31 101.354C442.31 102.212 443.06 102.962 443.918 102.962C445.204 102.962 446.597 103.069 447.884 103.177C447.884 103.391 447.991 103.391 448.206 103.391ZM426.339 118.398C426.553 118.398 426.66 118.398 426.875 118.398C427.196 118.398 427.518 118.398 427.839 118.398C427.839 118.398 428.053 118.398 428.161 118.398C428.268 118.398 428.375 118.398 428.589 118.505C428.911 118.612 429.233 118.612 429.554 118.719C430.198 118.934 430.412 119.041 431.055 119.362C431.377 119.47 431.591 119.684 431.912 119.898C432.02 119.898 432.02 120.006 432.02 120.006C432.02 120.006 432.02 120.006 432.127 120.113C432.234 120.22 432.341 120.327 432.448 120.434C433.413 121.292 433.949 122.149 434.271 123.329C434.807 125.365 437.915 124.508 437.379 122.471C435.45 115.718 426.339 113.038 420.979 117.54C420.336 118.076 420.443 119.255 420.979 119.791C421.622 120.434 422.587 120.327 423.23 119.791C423.337 119.684 423.337 119.684 423.337 119.684C423.337 119.684 423.337 119.684 423.444 119.684C423.552 119.577 423.659 119.47 423.873 119.47C423.98 119.362 424.194 119.363 424.302 119.255C424.409 119.255 424.731 119.041 424.731 119.041C425.052 118.934 426.017 118.612 426.231 118.612C425.803 118.505 426.232 118.398 426.339 118.398ZM448.527 129.117C450.242 127.402 452.922 126.759 455.173 127.509C457.317 128.152 459.032 130.082 459.675 132.225C460.211 134.262 463.32 133.405 462.784 131.368C461.926 128.045 459.353 125.365 456.03 124.4C452.6 123.329 448.741 124.4 446.276 126.866C444.775 128.259 447.026 130.618 448.527 129.117ZM418.835 190.966C416.692 193.217 413.797 194.504 410.689 194.182C409.831 194.075 409.081 194.932 409.081 195.79C409.081 196.755 409.831 197.291 410.689 197.398C414.655 197.827 418.621 196.004 421.301 193.11C424.088 190.109 425.481 186.143 424.838 181.962C424.73 181.105 423.659 180.676 422.908 180.89C421.944 181.105 421.622 181.962 421.836 182.82C422.051 184.213 421.836 185.714 421.301 187.215C420.765 188.608 419.8 190.002 418.835 190.966ZM413.904 292.691C410.153 292.476 406.508 293.441 402.757 293.441C399.219 293.441 395.789 292.905 392.359 291.833C389.25 290.869 385.713 289.261 384.212 286.152C382.926 283.58 383.355 280.042 386.356 279.078C389.036 278.22 392.037 279.506 393.859 281.543C396.218 284.223 397.075 287.76 398.04 291.083C398.576 293.12 401.685 292.262 401.149 290.225C399.541 284.437 397.29 277.684 390.751 275.969C388.178 275.326 385.177 275.54 383.033 277.255C380.675 279.185 379.925 282.293 380.461 285.187C381.854 292.048 389.786 294.942 395.789 296.014C399.434 296.657 403.078 296.764 406.722 296.335C410.153 295.907 414.226 295.049 417.442 296.764C420.014 298.158 421.622 300.837 419.8 303.624C417.871 306.626 414.012 307.162 410.689 307.376C405.758 307.805 398.683 307.912 396.861 302.231C395.896 299.444 395.039 296.764 392.038 295.692C389.572 294.835 386.678 295.371 384.641 296.764C382.068 298.479 380.89 301.588 380.675 304.589C380.461 308.126 381.961 311.021 382.819 314.344C383.784 317.988 381.533 320.239 378.639 321.954C375.744 323.669 372.743 325.063 370.17 327.206C364.811 331.816 362.024 340.069 367.062 345.965C368.455 347.573 370.706 345.215 369.313 343.714C365.025 338.676 369.098 331.923 373.493 328.707C377.674 325.706 383.998 324.098 385.927 318.845C387.107 315.63 385.606 312.628 384.641 309.52C383.783 306.84 383.569 303.732 384.963 301.159C386.142 299.122 388.821 297.836 391.072 298.694C393.645 299.658 393.645 303.196 394.717 305.339C397.29 309.949 403.293 310.913 408.116 310.806C413.797 310.699 421.193 309.734 423.444 303.517C425.803 297.3 419.371 293.012 413.904 292.691ZM389.894 305.125C396.325 315.951 396.218 329.993 389.572 340.713C388.5 342.428 391.287 344.035 392.359 342.32C399.648 330.744 399.755 315.308 392.68 303.517C391.608 301.695 388.822 303.303 389.894 305.125ZM596.88 344.25C585.732 334.281 576.835 321.74 571.047 307.912C568.474 301.802 566.545 295.371 565.258 288.939C563.972 282.508 563.329 275.969 562.578 269.537C561.185 256.889 559.578 243.49 552.289 232.556C540.069 214.441 511.663 211.118 495.584 226.018C494.512 226.983 493.226 226.232 492.904 225.268C494.619 234.164 496.334 243.061 498.264 251.958C498.692 253.995 495.584 254.852 495.155 252.816C494.083 247.885 493.119 243.061 492.154 238.13C488.617 220.23 485.508 202.329 482.828 184.213C479.613 183.249 476.611 181.641 474.146 179.282C473.503 178.639 473.503 177.675 474.146 177.031C474.789 176.388 475.754 176.388 476.397 177.031C482.614 183.034 493.44 183.57 500.193 178.211C506.947 172.851 508.876 162.132 504.481 154.736C500.086 147.339 489.689 143.909 481.864 147.339C481.006 147.661 480.149 147.339 479.72 146.482C479.398 145.624 479.72 144.767 480.577 144.338C481.327 144.016 482.078 143.802 482.828 143.588L478.969 142.73C468.036 131.368 473.396 119.041 472.431 108.751C471.038 93.315 463.212 92.1359 454.101 89.0274C446.919 89.5633 440.166 92.3503 434.164 96.102C427.732 100.175 421.729 105.106 415.726 109.715C409.616 114.432 403.4 119.148 397.29 123.865C386.356 132.333 375.315 140.801 364.275 149.054C364.703 149.269 365.025 149.483 365.454 149.698C376.923 156.129 388.5 162.453 400.077 168.778C400.613 169.099 401.041 169.957 400.827 170.6C399.969 172.958 399.112 175.209 398.362 177.567C394.396 188.715 390.322 199.863 386.356 210.904C385.927 212.19 385.499 213.369 384.963 214.656C384.963 215.084 384.856 215.513 384.534 215.835C381.211 225.16 377.781 234.593 374.458 243.919C374.458 244.026 374.351 244.026 374.351 244.133C374.887 244.133 375.423 244.348 375.744 244.883C380.353 253.78 387.107 261.605 395.146 267.608C409.617 278.434 428.054 283.365 445.955 280.364C463.963 277.255 480.577 266.965 490.868 251.851C492.047 250.136 494.834 251.744 493.655 253.459C487.652 262.356 479.505 269.752 470.073 275.111C453.458 284.544 433.413 287.117 415.084 281.436C397.183 275.862 381.64 263.213 372.957 246.599C372.636 246.063 372.743 245.527 372.957 245.098C371.992 245.098 370.921 244.348 371.349 243.168C373.279 237.595 375.315 232.021 377.245 226.447C378.531 222.695 379.925 218.943 381.211 215.299C373.601 208.653 364.275 204.044 354.306 202.221C337.477 199.22 318.182 205.33 308.642 220.229C303.39 228.376 301.782 238.13 297.173 246.599C293.529 253.244 287.847 259.354 280.451 261.498C282.274 263.32 284.096 265.25 285.811 267.286C288.491 270.502 290.527 274.04 292.028 278.006C298.245 294.192 293.1 312.628 288.169 328.493C287.526 330.422 284.417 329.672 285.06 327.635C286.239 323.669 287.419 319.703 288.491 315.63C290.527 307.483 292.028 299.122 291.492 290.761C290.956 282.615 288.169 274.897 282.809 268.68C277.771 262.784 271.34 257.961 267.374 251.101C262.764 243.061 263.515 233.843 264.265 224.946C264.587 220.658 264.909 216.263 264.48 211.976C264.051 208.331 263.193 204.687 261.907 201.257C259.334 194.504 255.154 188.286 249.902 183.248C244.649 178.21 238.325 174.352 231.357 172.208C225.14 170.278 216.887 168.885 211.098 172.744C209.169 174.03 208.204 175.638 207.775 177.567C207.454 178.854 207.454 180.354 207.454 181.748C207.454 182.069 207.454 182.498 207.561 182.82C207.883 186.893 208.097 190.645 207.347 194.718C205.846 202.007 201.773 208.76 196.199 213.584C193.412 216.049 190.196 217.979 186.659 219.265C186.337 219.372 185.909 219.479 185.587 219.694C184.622 220.015 183.657 220.444 182.8 220.873C182.586 220.98 182.371 221.194 182.157 221.301C182.049 221.409 181.942 221.516 181.728 221.623C180.442 222.588 179.262 223.874 178.298 225.16C174.224 230.841 173.153 238.345 173.689 245.205C174.332 254.209 177.976 262.785 180.12 271.467C182.157 279.935 182.371 288.403 180.549 296.979C177.119 313.164 168.436 327.635 164.363 343.607C162.433 351.11 161.79 358.935 163.398 366.653C164.899 373.727 167.9 380.48 172.081 386.376C180.442 398.167 193.84 406.742 208.419 408.029C210.455 408.243 210.455 411.459 208.419 411.244C204.667 410.923 201.023 410.173 197.485 409.101C183.122 404.491 171.009 393.451 164.47 379.945C161.254 373.191 159.325 365.688 159.218 358.185C159.111 349.824 161.254 341.57 164.041 333.745C169.615 317.988 178.512 302.445 178.62 285.402C178.62 275.755 175.297 266.643 172.831 257.532C170.687 249.6 169.508 241.561 171.33 233.521C172.402 228.805 174.868 223.445 178.727 220.015C176.047 219.05 173.26 218.514 170.366 218.514C164.577 218.407 159.003 220.23 153.322 221.409C141.531 223.981 129.311 224.732 117.306 223.552C112.911 223.124 107.98 222.588 104.336 219.801C100.691 216.907 99.8336 212.19 102.192 208.117C104.872 203.4 110.124 201.685 115.269 201.578C117.949 201.471 120.629 201.685 123.201 201.149C125.774 200.613 128.025 199.327 129.847 197.505C131.563 195.79 133.063 193.753 133.813 191.395C134.349 189.68 134.992 187.429 133.813 185.821C132.741 184.32 130.919 183.356 129.312 182.498C127.596 181.641 125.774 180.89 123.952 180.462C119.45 179.39 115.269 183.57 112.911 187C110.446 190.43 108.945 194.396 107.015 198.148C105.086 202.007 102.621 205.544 99.1907 208.117C95.7605 210.689 89.9724 213.262 86.5423 209.189C83.5409 205.651 85.1485 199.97 86.2204 196.004C86.542 194.825 86.8636 193.646 87.2923 192.574C83.755 196.004 79.5745 198.684 74.9653 200.506C72.2855 201.578 69.1771 202.329 66.4973 200.613C64.3535 199.327 63.2818 196.862 62.9602 194.504C62.7458 192.574 63.1746 190.645 64.0321 188.822C62.7458 188.179 61.6739 187.322 60.8164 186.143C58.8869 183.356 59.1009 179.711 60.3872 176.71C61.6735 173.708 64.0319 171.457 66.4973 169.421C69.1771 167.384 71.9643 165.348 74.7513 163.418C80.3252 159.452 86.1134 155.593 92.3305 152.699C94.5815 151.627 96.9398 150.555 99.4053 149.805H99.298C94.5815 147.339 90.4012 143.588 87.0783 139.407C83.5409 135.012 78.3958 127.295 82.7906 121.828C85.5776 118.398 90.5083 117.755 94.4743 119.47C99.0836 121.506 102.192 125.794 105.944 129.01C116.984 138.335 131.134 142.837 144.64 148.197C146.14 148.733 147.641 149.376 149.035 149.912C161.79 155.272 174.332 161.381 186.873 167.17C192.447 169.742 198.343 171.886 203.702 174.888C204.238 175.209 204.774 175.531 205.31 175.852C207.561 170.064 214.1 167.599 220.424 167.491C227.82 167.384 235.431 169.85 241.862 173.494C248.508 177.246 254.296 182.498 258.798 188.608C263.193 194.718 266.409 201.793 267.588 209.189C269.089 218.193 267.052 227.197 267.16 236.201C267.267 240.81 268.017 245.312 270.268 249.386C272.198 252.923 274.877 255.924 277.771 258.711C277.879 258.818 278.093 259.033 278.2 259.14C288.276 257.318 294.172 247.992 297.709 239.095C301.246 230.091 303.926 220.658 310.572 213.369C316.468 207.045 324.292 202.543 332.653 200.292C350.125 195.468 369.098 200.828 382.819 212.297C385.499 204.687 388.286 197.183 390.966 189.573C393.217 183.463 395.36 177.246 397.611 171.136C394.717 169.528 391.823 168.027 389.036 166.42C379.603 161.274 370.278 156.022 360.952 150.877C359.773 150.234 359.987 148.733 360.952 148.09C367.598 143.159 374.136 138.228 380.675 133.19C393.109 123.65 405.436 114.11 417.978 104.57C423.873 100.068 429.769 95.1372 436.307 91.5999C440.273 89.4561 444.454 87.8482 448.742 86.7763C445.955 85.3828 443.06 83.5606 440.38 80.8808C433.52 74.1277 430.304 52.0463 444.132 40.8984C455.602 70.8048 476.504 56.4412 499.336 75.4141C517.022 90.0993 506.41 127.402 493.011 143.266C499.121 144.338 504.695 147.875 507.911 153.235C513.163 162.132 510.912 174.459 502.766 180.89C499.014 183.892 494.298 185.285 489.582 185.285C488.617 185.285 487.652 185.178 486.687 185.071C487.438 189.894 488.188 194.718 488.938 199.434C490.332 208.01 491.832 216.478 493.44 224.946C493.44 224.517 493.547 224.196 493.976 223.874C503.302 215.299 516.486 212.19 528.813 214.227C539.961 216.049 549.93 222.266 556.147 231.806C563.436 243.061 564.937 256.675 566.437 269.645C567.188 276.291 567.831 282.936 569.225 289.475C570.618 296.228 572.762 302.874 575.656 309.198C581.337 321.74 589.484 332.995 599.774 342.213C600.739 343.392 598.38 345.643 596.88 344.25ZM101.87 147.018C102.621 147.339 103.371 147.554 104.122 147.768C107.444 148.519 110.981 148.09 114.519 148.197C118.699 146.696 123.094 145.517 127.489 144.981C119.664 141.444 112.054 137.478 105.301 132.225C103.479 130.832 101.763 129.331 100.155 127.831C98.4402 126.223 96.8325 124.4 94.903 123.114C91.9016 121.078 87.078 120.22 84.7198 123.757C83.3263 126.008 84.3985 129.01 85.4704 131.154C86.9711 134.048 89.0075 136.727 91.1513 139.193C94.2599 142.301 97.7972 145.088 101.87 147.018ZM65.3181 185.5C66.8188 183.141 68.6411 180.998 70.249 179.068C73.8935 174.566 77.8598 170.493 82.2546 166.741C90.6156 159.559 100.155 153.771 110.446 149.805C108.302 150.126 106.265 150.555 104.229 151.091C94.796 153.664 86.1131 158.809 78.0738 164.383C75.6084 166.098 73.1431 167.92 70.6777 169.742C68.4267 171.457 65.9612 173.173 64.2462 175.531C62.8527 177.567 61.7809 180.354 62.7456 182.82C63.1744 183.892 64.139 184.964 65.3181 185.5ZM204.238 178.639C200.808 176.174 196.627 174.566 192.768 172.851C186.551 170.064 180.549 167.277 174.439 164.383C168.544 161.596 162.648 158.916 156.645 156.236C156.324 156.236 156.002 156.236 155.681 156.022C149.464 152.806 142.496 150.662 135.743 148.304C130.062 147.339 124.381 148.626 118.914 150.234C113.554 151.841 108.409 153.878 103.371 156.343C93.6166 161.274 84.7198 167.92 77.2164 175.852C75.287 177.889 73.3573 180.033 71.6423 182.284C70.7848 183.356 69.9273 184.535 69.0698 185.714C68.3195 186.786 67.6764 187.858 67.0333 189.037C67.0333 189.144 66.926 189.144 66.926 189.251C65.8541 191.502 65.318 194.289 66.8187 196.433C68.6409 199.006 71.857 197.827 74.108 196.755C78.8244 194.718 83.0049 191.824 86.435 187.965C88.1501 186.035 89.436 183.784 90.9367 181.641C91.6871 180.676 92.4376 179.818 93.2951 178.961C102.192 164.919 117.199 153.664 134.242 153.771C136.279 153.771 136.279 156.987 134.242 156.987C132.099 156.987 129.954 157.094 127.918 157.523C121.272 158.702 115.162 161.596 109.802 165.562C104.121 169.742 99.298 175.209 95.5463 181.212C93.4024 184.642 91.6875 188.286 90.294 192.038C89.5437 194.075 88.9003 196.219 88.4715 198.255C88.0428 200.292 87.3995 202.65 87.8283 204.687C88.9002 210.368 95.9751 205.866 98.3333 203.722C104.443 198.041 105.944 189.358 111.089 182.927C113.983 179.39 118.592 175.745 123.523 176.495C127.061 177.031 130.812 178.854 133.706 180.997C135.1 182.069 136.493 183.356 137.029 185.071C137.672 187 137.351 189.358 136.708 191.181C135.314 195.79 131.884 200.078 127.596 202.221C122.666 204.687 117.52 203.508 112.375 204.258C108.195 204.901 102.621 208.438 103.907 213.476C104.979 217.443 109.91 218.622 113.447 219.265C119.235 220.23 125.131 220.337 130.919 220.229C136.815 220.122 142.71 219.479 148.499 218.407C154.073 217.335 159.539 215.62 165.221 214.87C169.615 214.334 173.903 214.548 178.084 215.728C179.155 216.049 180.227 216.371 181.299 216.907C181.514 217.014 181.621 217.014 181.728 217.121C182.371 216.799 182.907 216.585 183.657 216.371C190.946 214.12 197.163 208.76 200.808 202.114C202.63 198.791 203.917 195.147 204.345 191.395C205.096 187.215 203.809 182.927 204.238 178.639Z" fill="#DCDCDC"/>
<path d="M46.8864 272.111L72.1832 284.438C70.2537 287.01 67.2528 288.832 64.037 289.368C58.5703 290.119 52.8888 287.225 49.7803 282.615C47.7436 279.507 46.7792 275.755 46.8864 272.111ZM114.738 191.181C112.809 190.538 110.987 192.146 109.593 193.539C100.911 202.651 92.8713 212.191 85.2607 222.267C83.76 221.731 82.1522 221.302 80.4371 221.195C73.5769 220.552 66.5022 223.446 61.6786 228.377C55.3543 234.701 52.0316 244.241 44.2066 248.636C39.383 251.423 32.4153 252.602 31.0218 257.961L29.3066 257.425C36.5956 262.571 44.7426 266.429 52.782 270.181C66.3952 276.613 80.1154 283.151 93.7287 289.583C95.551 282.508 92.5495 282.508 90.9416 275.112C89.5482 268.573 94.1576 260.427 95.4439 253.888C96.8374 246.921 98.7666 239.524 96.3012 232.771C95.1221 229.663 93.0856 227.09 90.513 225.054C98.6595 216.907 106.484 208.439 113.988 199.756C115.06 198.47 116.239 197.077 116.561 195.362C116.882 193.647 116.346 191.824 114.738 191.181Z" fill="#CB730B"/>
<path d="M27.1602 236.954C26.8386 237.705 25.66 237.919 24.9096 237.49C24.0521 237.062 23.9449 236.097 24.3737 235.239C28.0182 226.771 35.0924 220.018 43.7749 216.803C44.6324 216.481 45.4902 217.124 45.7046 217.874C45.919 218.732 45.3831 219.589 44.6327 219.804C36.8078 222.912 30.4831 229.237 27.1602 236.954ZM3.14946 233.846C8.8306 220.125 19.4429 208.656 32.413 201.474C36.1647 199.437 40.0235 197.83 44.0968 196.543C46.0262 195.9 45.2756 192.792 43.2389 193.435C28.2321 198.151 15.0477 208.12 6.3652 221.197C3.8998 224.842 1.86338 228.808 0.148316 232.881C-0.709215 234.918 2.39912 235.775 3.14946 233.846ZM108.519 253.248C110.234 260.751 110.019 268.469 107.661 275.758C107.018 277.687 110.126 278.545 110.769 276.615C113.235 268.79 113.45 260.429 111.627 252.39C111.199 250.353 108.09 251.211 108.519 253.248ZM129.314 238.991C136.603 251.961 138.104 267.826 133.602 281.975C132.958 283.904 136.067 284.762 136.71 282.832C141.534 267.826 139.819 251.104 132.101 237.383C131.136 235.561 128.349 237.276 129.314 238.991Z" fill="#DCDCDC"/>
<path d="M315.72 10.5631C315.077 9.91994 315.184 8.95524 315.72 8.3121C316.363 7.66895 317.328 7.77614 317.971 8.3121L318.079 8.41926C318.186 8.52645 318.186 8.52648 317.971 8.3121C318.079 8.3121 318.186 8.41926 318.186 8.41926C318.293 8.52645 318.4 8.52643 318.507 8.52643C318.615 8.63362 318.722 8.52643 318.4 8.52643C318.615 8.52643 318.829 8.63363 319.043 8.74082C319.151 8.74082 319.258 8.74086 319.365 8.84805C319.043 8.74086 319.15 8.84805 319.365 8.84805C319.579 8.84805 319.794 8.84805 319.901 8.84805C320.008 8.84805 320.115 8.84805 320.329 8.84805C319.901 8.84805 320.115 8.84805 320.329 8.84805C320.544 8.84805 320.758 8.74082 320.865 8.74082C320.973 8.74082 321.08 8.63366 321.187 8.63366C320.866 8.63366 320.973 8.74085 321.08 8.63366C321.294 8.52647 321.401 8.41929 321.616 8.3121C321.723 8.3121 321.83 8.20489 321.83 8.0977C321.83 8.0977 321.509 8.31206 321.723 8.20487C321.83 8.09767 322.045 7.99052 322.152 7.77614C322.152 7.77614 322.366 7.45453 322.259 7.66891C322.152 7.88329 322.259 7.66894 322.259 7.56174C322.366 7.45455 322.366 7.34737 322.473 7.24018C322.473 7.13299 322.58 7.13298 322.58 7.02579C322.58 7.13298 322.473 7.13299 322.473 7.24018C322.473 7.13299 322.58 6.91861 322.58 6.70423C322.58 6.70423 322.581 6.3826 322.688 6.3826C322.688 6.59698 322.688 6.70421 322.688 6.48983V6.3826C322.688 6.16822 322.688 6.06103 322.688 5.84664C322.688 5.63226 322.688 5.73949 322.688 5.95387C322.688 5.84668 322.688 5.84667 322.688 5.73948C322.688 5.63229 322.688 5.63227 322.688 5.52508L322.473 4.88196C322.473 4.88196 322.688 5.20354 322.473 4.88196C322.473 4.77477 322.366 4.77476 322.366 4.66757C322.259 4.45318 322.152 4.34599 322.045 4.13161C321.83 3.81004 322.259 4.34599 322.045 4.13161C321.937 4.02442 321.938 4.02441 321.83 3.91721C321.723 3.81002 321.401 3.48849 321.401 3.48849C321.401 3.48849 321.723 3.70284 321.509 3.59565C321.401 3.48846 321.294 3.48845 321.294 3.38126C321.187 3.38126 321.08 3.27409 320.973 3.27409C320.865 3.27409 320.866 3.16686 320.759 3.16686H320.865C320.973 3.16686 320.973 3.27405 320.865 3.16686C320.758 3.16686 320.758 3.16689 320.651 3.0597C320.544 3.0597 320.437 2.95253 320.329 2.95253C320.222 2.95253 320.222 2.95253 320.115 2.95253C320.222 2.95253 320.222 2.95253 320.329 2.95253H320.115C320.008 2.95253 319.901 2.95253 319.793 2.95253C319.686 2.95253 319.687 2.95253 319.579 2.95253C319.687 2.95253 319.686 2.95253 319.793 2.95253C319.686 3.05972 319.472 3.0597 319.257 3.0597C319.15 3.0597 319.151 3.05967 319.043 3.16686C318.936 3.27405 318.936 3.16686 319.151 3.16686C319.151 3.27405 318.936 3.27409 318.829 3.27409C318.722 3.38128 318.507 3.48849 318.4 3.48849C318.079 3.70287 318.4 3.59568 318.4 3.48849L318.186 3.70282C318.078 3.81001 317.971 3.91725 317.864 4.02444L317.757 4.13161C317.864 3.91723 317.971 3.91725 317.864 4.02444C317.864 4.13164 317.757 4.13158 317.757 4.23877C317.65 4.45316 317.543 4.56035 317.436 4.77473C317.436 4.88192 317.328 4.88194 317.328 4.98913C317.328 4.88194 317.436 4.88192 317.436 4.77473L317.328 4.98913C317.221 5.20351 317.221 5.41789 317.114 5.52508C317.114 5.63227 317.114 5.63229 317.114 5.73948C317.114 5.5251 317.114 5.41789 317.114 5.52508C317.114 5.63227 317.114 5.73948 317.114 5.73948C317.114 5.95386 317.114 6.16822 317.114 6.3826C317.114 6.70417 317.114 6.27544 317.114 6.27544C317.114 6.27544 317.114 6.48981 317.221 6.597C317.221 6.70419 317.543 7.34732 317.328 6.91856C317.65 7.77609 317.543 8.63366 316.792 9.16961C316.149 9.59838 314.97 9.384 314.541 8.63366C314.005 7.34736 313.791 6.06105 314.22 4.66757C314.541 3.48846 315.184 2.30933 316.149 1.55899C317.971 -0.15607 320.544 -0.47763 322.795 0.701474C324.832 1.77339 326.225 4.23881 326.011 6.48983C325.796 8.95523 324.188 10.7775 321.937 11.5278C319.686 12.4926 317.328 12.0638 315.72 10.5631ZM179.802 33.3948C182.053 35.3243 184.411 37.3609 186.662 39.2903C187.305 39.8263 188.27 39.9335 188.913 39.2903C189.449 38.6472 189.556 37.5753 188.913 37.0394C186.662 35.1099 184.304 33.0733 182.053 31.1438C181.409 30.6079 180.445 30.5007 179.802 31.1438C179.266 31.6798 179.159 32.7517 179.802 33.3948ZM285.278 120.649C284.957 127.509 284.635 134.369 284.313 141.337C284.206 143.373 287.422 143.373 287.529 141.337C287.851 134.476 288.172 127.616 288.494 120.649C288.601 118.612 285.385 118.612 285.278 120.649Z" fill="#DCDCDC"/>
</svg>
