<svg width="600" height="412" viewBox="0 0 600 412" fill="none" xmlns="http://www.w3.org/2000/svg">
<path d="M206.169 330.849C186.231 341.89 163.507 351.109 141.212 346.714C118.916 342.319 99.085 319.273 105.945 297.62C110.233 284.114 123.525 273.395 122.882 259.246C122.239 245.418 108.947 236.414 98.6564 227.196C74.5384 205.436 62.5328 171.027 67.8924 139.085C71.9656 114.216 91.5817 88.2759 116.772 90.8485C126.312 91.8132 134.887 96.744 144.105 99.1022C191.269 110.893 232.86 54.1891 281.203 59.2271C293.958 60.5134 306.178 66.1945 318.934 65.5514C342.623 64.3723 359.988 42.7197 382.606 35.6451C399.327 30.2855 418.622 33.8228 432.449 44.6491C446.277 55.4754 454.21 73.3763 453.03 90.9557C451.851 109.071 441.775 125.15 435.558 142.086C429.341 159.129 427.948 180.567 441.132 193.002C447.885 199.326 457.211 202.22 464.285 208.223C477.684 219.692 479.399 240.595 473.075 256.995C466.751 273.502 454.102 286.579 441.775 299.121" fill="#F4F6F9"/>
<path d="M566.761 288.403C562.795 268.036 564.617 245.204 551.754 229.019C538.355 212.19 510.163 210.153 494.513 224.838L491.727 224.624L488.94 209.081C487.546 200.827 486.153 192.252 484.759 183.141V183.034C485.403 183.141 486.153 183.248 486.796 183.355C486.903 183.355 487.01 183.355 487.117 183.355C487.76 183.462 488.297 183.462 488.94 183.462C489.047 183.462 489.154 183.462 489.261 183.462C489.904 183.462 490.547 183.462 491.298 183.355C491.298 183.355 491.298 183.355 491.405 183.355C492.155 183.248 492.798 183.141 493.549 183.034H493.656C494.299 182.926 494.835 182.712 495.479 182.498C495.693 182.39 495.8 182.39 496.014 182.283C496.443 182.176 496.872 181.962 497.3 181.747C497.515 181.64 497.729 181.533 497.944 181.426C498.372 181.211 498.801 180.997 499.23 180.783C499.445 180.675 499.552 180.568 499.766 180.461C500.302 180.139 500.838 179.711 501.374 179.282C508.02 174.03 510.378 164.168 507.27 156.236C506.948 155.378 506.519 154.521 506.09 153.663C505.769 153.234 505.554 152.699 505.232 152.27C505.125 152.163 505.018 151.948 504.911 151.841C504.697 151.519 504.482 151.305 504.161 150.983C504.053 150.876 503.839 150.662 503.732 150.555C503.518 150.34 503.303 150.019 502.982 149.804C502.875 149.697 502.66 149.483 502.553 149.376C502.338 149.161 502.017 148.947 501.695 148.732C501.588 148.625 501.374 148.518 501.267 148.411C500.838 148.089 500.409 147.768 499.98 147.553C499.766 147.446 499.659 147.339 499.444 147.232C499.123 147.017 498.909 146.91 498.587 146.696C498.373 146.589 498.158 146.481 497.836 146.374C497.622 146.267 497.408 146.16 497.086 146.053C496.765 145.945 496.55 145.838 496.229 145.731C496.014 145.624 495.8 145.517 495.585 145.517C495.264 145.41 494.942 145.302 494.728 145.195C494.514 145.195 494.406 145.088 494.192 145.088C493.013 144.766 491.834 144.552 490.548 144.445C490.44 144.445 490.333 144.445 490.226 144.445C489.797 144.445 489.476 144.445 489.047 144.338C488.94 144.338 488.725 144.338 488.618 144.338C488.189 144.338 487.868 144.338 487.439 144.338C487.332 144.338 487.224 144.338 487.117 144.338C486.689 144.338 486.26 144.445 485.938 144.445L487.332 96.9591L457.104 86.1328C447.349 86.24 437.81 90.8492 429.985 96.6375C406.403 114.324 383.357 132.547 362.562 148.089C362.562 148.089 362.561 148.089 362.668 148.197C362.24 148.518 361.811 148.84 361.275 149.161C361.275 149.161 386.679 163.31 399.113 170.063C399.113 170.063 390.752 193.324 383.142 214.762C372.637 205.222 358.274 199.327 343.696 199.863C329.118 200.399 314.647 207.688 307.251 219.586C302.642 226.982 300.712 235.557 297.068 243.382C293.423 251.207 287.099 258.925 278.202 260.426L274.986 258.282C274.557 257.853 274.129 257.424 273.807 256.996C273.7 256.888 273.593 256.781 273.486 256.567C273.164 256.245 272.949 255.924 272.628 255.602C272.521 255.388 272.306 255.28 272.199 255.066C271.985 254.744 271.663 254.53 271.449 254.209C271.342 253.994 271.127 253.78 271.02 253.673C270.805 253.351 270.592 253.137 270.377 252.815C270.27 252.601 270.055 252.386 269.948 252.172C269.734 251.85 269.52 251.529 269.305 251.207C269.198 250.993 269.091 250.778 268.983 250.564C268.769 250.242 268.555 249.814 268.447 249.492C268.34 249.278 268.233 249.171 268.126 248.956C267.804 248.42 267.59 247.884 267.375 247.348C266.304 244.883 265.768 242.31 265.554 239.631C265.446 238.987 265.446 238.344 265.446 237.594C265.446 236.951 265.446 236.308 265.339 235.557C265.339 229.555 266.304 223.337 266.411 217.228C266.411 216.584 266.411 215.834 266.411 215.191C266.196 206.08 262.981 197.183 257.728 189.679C249.796 178.317 237.148 170.063 223.213 168.67C222.463 168.563 221.605 168.563 220.747 168.563C218.818 168.563 216.889 168.777 215.066 169.206C211.315 170.171 207.992 172.1 206.598 175.637C206.277 176.388 206.17 177.138 206.062 177.888C203.383 175.852 200.167 174.244 197.058 172.958C184.409 167.491 171.976 161.274 159.327 155.593C153.11 152.806 146.785 149.912 140.247 147.768C137.46 146.803 134.78 146.374 132.207 146.374C113.663 138.549 98.2281 122.042 91.7966 119.898C85.3651 117.754 81.0775 122.042 85.3651 133.833C88.6881 143.051 99.9431 147.661 104.66 149.268C102.516 149.804 100.372 150.447 98.3354 151.305C88.045 155.271 78.9334 161.81 70.0365 168.241C67.5711 170.063 64.9986 171.886 63.1764 174.351C61.3541 176.817 60.3897 180.139 61.3544 183.034C62.1048 185.177 64.141 187 66.2848 187.321C65.4273 188.822 64.7845 190.43 64.5702 192.145C64.2486 194.932 65.5348 198.148 68.2146 199.112C70.2512 199.863 72.502 199.219 74.4314 198.362C82.1492 195.146 87.509 190.43 91.7966 183.462C92.6541 182.069 93.7258 180.89 94.7977 179.818C90.6173 186.357 87.7234 193.431 86.5443 200.506C86.1156 203.078 86.0083 206.294 88.0449 208.009C90.2959 209.939 93.9403 208.974 96.5129 207.366C107.125 200.827 106.482 188.179 115.915 180.783C118.058 179.175 120.631 177.674 123.311 178.103C127.17 178.746 135.531 182.498 135.852 186.464C136.281 191.823 132.529 197.397 128.242 200.184C121.489 204.579 114.2 200.506 107.339 204.472C104.016 206.401 101.444 210.475 102.623 214.119C104.016 218.728 109.483 220.336 114.199 220.979C128.027 222.802 142.283 221.944 155.897 218.514C164.472 216.37 171.333 214.869 179.801 217.978C180.658 218.299 181.408 218.621 182.051 218.943C181.944 219.05 181.837 219.05 181.73 219.157C181.408 219.371 181.087 219.586 180.765 219.907C180.551 220.015 180.336 220.229 180.229 220.336C179.908 220.551 179.586 220.872 179.265 221.194C179.05 221.408 178.943 221.515 178.729 221.73C178.407 222.051 178.192 222.373 177.871 222.694C177.764 222.909 177.549 223.123 177.442 223.23C177.228 223.552 176.906 223.873 176.692 224.195C176.584 224.409 176.37 224.624 176.263 224.838C176.049 225.16 175.834 225.589 175.62 225.91C175.513 226.124 175.406 226.339 175.298 226.553C175.084 226.875 174.87 227.304 174.762 227.625C174.655 227.84 174.548 228.054 174.441 228.375C174.227 228.804 174.119 229.126 174.012 229.555C173.905 229.769 173.798 230.091 173.798 230.305C173.691 230.734 173.584 231.055 173.369 231.484C173.262 231.698 173.262 232.02 173.155 232.234C173.047 232.663 172.94 232.985 172.833 233.413C172.726 233.735 172.726 233.949 172.619 234.271C172.511 234.7 172.511 235.021 172.404 235.45C172.404 235.772 172.297 236.093 172.297 236.415C172.297 236.844 172.19 237.165 172.19 237.594C172.19 237.915 172.19 238.237 172.083 238.559C172.083 238.88 171.975 239.309 171.975 239.631C171.975 239.952 171.975 240.381 171.975 240.702C171.975 241.024 171.975 241.453 171.975 241.774C171.975 242.203 171.975 242.525 171.975 242.953C171.975 243.275 171.975 243.597 171.975 243.918C171.975 244.347 172.083 244.776 172.083 245.204C172.083 245.526 172.083 245.74 172.19 246.062C172.297 246.598 172.297 247.241 172.404 247.777C172.404 247.884 172.404 247.991 172.404 248.099C172.726 250.242 173.155 252.279 173.691 254.316C173.905 254.959 174.012 255.709 174.226 256.352C175.727 261.819 177.55 267.286 178.729 272.753C178.836 273.396 179.05 274.146 179.157 274.789C179.586 276.826 179.8 278.97 180.015 281.114C181.408 301.158 169.617 319.381 163.722 338.675C163.508 339.425 163.293 340.176 163.079 341.033C161.792 345.643 160.935 350.359 160.72 355.183C160.399 363.436 162.221 371.583 165.866 378.979C167.366 381.98 169.081 384.767 171.011 387.447C176.585 395.058 184.088 401.275 192.664 405.134C193.521 405.562 194.379 405.884 195.343 406.206C195.879 406.42 196.415 406.634 197.058 406.849C198.13 407.17 199.202 407.599 200.381 407.813C202.203 408.242 204.026 408.671 205.848 408.885C206.705 408.993 207.456 409.1 208.313 409.207L218.818 398.273C233.396 384.767 261.373 364.83 291.601 374.37C335.549 388.305 437.381 376.514 484.545 341.141C531.709 305.767 598.06 342.963 598.06 342.963C582.089 328.921 570.941 309.412 566.761 288.403Z" fill="white"/>
<path d="M474.897 162.881C474.469 162.023 474.79 161.166 475.433 160.63C481.329 156.235 489.154 154.842 496.336 156.771C498.372 157.307 497.515 160.416 495.478 159.88C489.154 158.165 482.401 159.558 477.148 163.417C476.398 164.06 475.326 163.631 474.897 162.881ZM463.428 115.717C463.428 115.824 463.535 115.824 463.535 115.931C463.642 116.038 463.642 116.253 463.75 116.36C463.857 116.682 463.964 117.003 464.071 117.432C464.285 118.289 465.25 118.825 466.001 118.504C466.858 118.289 467.394 117.432 467.073 116.574C466.215 113.68 464.607 110.893 462.57 108.749C462.034 108.106 460.855 108.106 460.319 108.749C459.676 109.393 459.676 110.357 460.319 111C460.534 111.215 460.748 111.536 460.962 111.751C461.07 111.858 461.177 111.965 461.284 112.072L461.391 112.18C461.391 112.18 461.391 112.18 461.391 112.287C461.82 112.823 462.141 113.359 462.463 114.002C462.785 114.538 463.106 115.074 463.428 115.717ZM448.207 103.39H448.528C448.85 103.39 449.064 103.497 449.386 103.497C449.708 103.497 450.029 103.604 450.351 103.604C450.458 103.604 450.457 103.604 450.565 103.604C450.672 103.819 450.886 103.926 451.101 104.033C451.851 104.462 452.923 104.247 453.352 103.497C453.673 102.854 453.673 102.211 453.352 101.568C453.03 101.032 452.494 100.71 451.851 100.603C450.994 100.389 450.136 100.281 449.279 100.174C447.456 99.9598 445.741 99.7454 443.919 99.7454C443.062 99.7454 442.311 100.496 442.311 101.353C442.311 102.211 443.062 102.961 443.919 102.961C445.205 102.961 446.599 103.068 447.885 103.176C447.885 103.39 447.992 103.39 448.207 103.39ZM426.34 118.397C426.554 118.397 426.661 118.397 426.876 118.397C427.197 118.397 427.519 118.397 427.84 118.397C427.84 118.397 428.055 118.397 428.162 118.397C428.269 118.397 428.376 118.397 428.59 118.504C428.912 118.611 429.234 118.611 429.556 118.718C430.199 118.933 430.413 119.04 431.056 119.361C431.378 119.469 431.592 119.683 431.914 119.897C432.021 119.897 432.021 120.005 432.021 120.005C432.021 120.005 432.021 120.005 432.128 120.112C432.235 120.219 432.342 120.326 432.449 120.433C433.414 121.291 433.95 122.148 434.272 123.327C434.808 125.364 437.916 124.507 437.38 122.47C435.451 115.717 426.34 113.037 420.98 117.539C420.337 118.075 420.444 119.254 420.98 119.79C421.623 120.433 422.588 120.326 423.231 119.79C423.338 119.683 423.338 119.683 423.338 119.683C423.338 119.683 423.338 119.683 423.446 119.683C423.553 119.576 423.66 119.469 423.874 119.469C423.981 119.361 424.196 119.361 424.303 119.254C424.41 119.254 424.732 119.04 424.732 119.04C425.054 118.933 426.018 118.611 426.233 118.611C425.804 118.504 426.233 118.397 426.34 118.397ZM448.528 129.116C450.243 127.401 452.923 126.758 455.174 127.508C457.318 128.151 459.033 130.08 459.676 132.224C460.212 134.261 463.321 133.403 462.785 131.367C461.927 128.044 459.354 125.364 456.032 124.399C452.601 123.327 448.742 124.399 446.277 126.865C444.776 128.258 447.027 130.616 448.528 129.116ZM418.837 190.965C416.693 193.216 413.798 194.502 410.69 194.181C409.832 194.074 409.082 194.931 409.082 195.789C409.082 196.753 409.832 197.289 410.69 197.397C414.656 197.825 418.622 196.003 421.302 193.109C424.089 190.108 425.482 186.141 424.839 181.961C424.732 181.104 423.66 180.675 422.91 180.889C421.945 181.104 421.623 181.961 421.838 182.819C422.052 184.212 421.838 185.713 421.302 187.213C420.766 188.607 419.801 190 418.837 190.965ZM413.906 292.689C410.154 292.475 406.51 293.44 402.758 293.44C399.221 293.44 395.79 292.904 392.36 291.832C389.252 290.867 385.714 289.259 384.213 286.151C382.927 283.578 383.356 280.041 386.357 279.076C389.037 278.219 392.038 279.505 393.861 281.542C396.219 284.221 397.076 287.759 398.041 291.082C398.577 293.118 401.686 292.261 401.15 290.224C399.542 284.436 397.291 277.683 390.752 275.968C388.18 275.324 385.178 275.539 383.034 277.254C380.676 279.183 379.926 282.292 380.462 285.186C381.855 292.046 389.788 294.94 395.79 296.012C399.435 296.656 403.079 296.763 406.724 296.334C410.154 295.905 414.227 295.048 417.443 296.763C420.015 298.156 421.623 300.836 419.801 303.623C417.872 306.624 414.013 307.16 410.69 307.375C405.759 307.803 398.685 307.911 396.862 302.229C395.898 299.442 395.04 296.763 392.039 295.691C389.573 294.833 386.679 295.369 384.642 296.763C382.07 298.478 380.891 301.586 380.676 304.588C380.462 308.125 381.963 311.019 382.82 314.342C383.785 317.987 381.534 320.238 378.64 321.953C375.746 323.668 372.744 325.061 370.171 327.205C364.812 331.814 362.025 340.068 367.063 345.963C368.456 347.571 370.707 345.213 369.314 343.712C365.026 338.674 369.1 331.921 373.494 328.706C377.675 325.704 383.999 324.096 385.929 318.844C387.108 315.628 385.607 312.627 384.642 309.518C383.785 306.839 383.571 303.73 384.964 301.158C386.143 299.121 388.823 297.835 391.074 298.692C393.646 299.657 393.647 303.194 394.719 305.338C397.291 309.947 403.294 310.912 408.117 310.805C413.799 310.698 421.195 309.733 423.446 303.516C425.804 297.299 419.372 293.011 413.906 292.689ZM389.895 305.124C396.326 315.95 396.219 329.992 389.573 340.711C388.501 342.426 391.288 344.034 392.36 342.319C399.649 330.742 399.756 315.307 392.681 303.516C391.61 301.693 388.823 303.301 389.895 305.124ZM596.881 344.248C585.733 334.28 576.836 321.738 571.048 307.911C568.475 301.801 566.545 295.369 565.259 288.938C563.973 282.506 563.33 275.968 562.579 269.536C561.186 256.888 559.578 243.489 552.289 232.555C540.07 214.44 511.664 211.117 495.585 226.017C494.513 226.981 493.227 226.231 492.905 225.266C494.62 234.163 496.335 243.06 498.265 251.957C498.693 253.993 495.585 254.851 495.156 252.814C494.084 247.884 493.12 243.06 492.155 238.129C488.618 220.228 485.509 202.327 482.829 184.212C479.614 183.247 476.612 181.639 474.147 179.281C473.504 178.638 473.504 177.673 474.147 177.03C474.79 176.387 475.755 176.387 476.398 177.03C482.615 183.033 493.441 183.569 500.194 178.209C506.948 172.85 508.877 162.131 504.482 154.734C500.087 147.338 489.69 143.908 481.865 147.338C481.007 147.66 480.15 147.338 479.721 146.481C479.399 145.623 479.721 144.766 480.578 144.337C481.329 144.015 482.079 143.801 482.829 143.587L478.97 142.729C468.037 131.367 473.397 119.04 472.432 108.749C471.039 93.3139 463.214 92.1348 454.102 89.0263C446.92 89.5623 440.167 92.3492 434.165 96.1009C427.733 100.174 421.73 105.105 415.728 109.714C409.618 114.431 403.401 119.147 397.291 123.863C386.358 132.332 375.317 140.8 364.276 149.053C364.705 149.268 365.026 149.482 365.455 149.696C376.924 156.128 388.501 162.452 400.078 168.776C400.614 169.098 401.042 169.956 400.828 170.599C399.971 172.957 399.113 175.208 398.363 177.566C394.397 188.714 390.323 199.862 386.357 210.903C385.929 212.189 385.5 213.368 384.964 214.654C384.964 215.083 384.857 215.512 384.535 215.833C381.212 225.159 377.782 234.592 374.459 243.917C374.459 244.025 374.352 244.025 374.352 244.132C374.888 244.132 375.424 244.346 375.745 244.882C380.355 253.779 387.108 261.604 395.147 267.607C409.618 278.433 428.055 283.364 445.956 280.362C463.964 277.254 480.578 266.964 490.869 251.85C492.048 250.135 494.835 251.742 493.656 253.457C487.653 262.354 479.506 269.751 470.074 275.11C453.459 284.543 433.415 287.116 415.085 281.434C397.184 275.86 381.641 263.212 372.958 246.597C372.637 246.061 372.744 245.525 372.958 245.097C371.994 245.097 370.922 244.346 371.351 243.167C373.28 237.593 375.317 232.019 377.246 226.445C378.532 222.694 379.926 218.942 381.212 215.297C373.602 208.652 364.276 204.042 354.307 202.22C337.478 199.219 318.184 205.329 308.644 220.228C303.391 228.375 301.784 238.129 297.175 246.597C293.53 253.243 287.849 259.353 280.453 261.497C282.275 263.319 284.097 265.249 285.812 267.285C288.492 270.501 290.528 274.038 292.029 278.004C298.246 294.19 293.101 312.627 288.17 328.491C287.527 330.421 284.419 329.67 285.062 327.634C286.241 323.668 287.42 319.702 288.492 315.628C290.529 307.482 292.029 299.121 291.493 290.76C290.957 282.614 288.17 274.896 282.811 268.679C277.773 262.783 271.341 257.96 267.375 251.099C262.766 243.06 263.516 233.842 264.267 224.945C264.588 220.657 264.91 216.262 264.481 211.975C264.053 208.33 263.195 204.686 261.908 201.255C259.336 194.502 255.156 188.285 249.903 183.247C244.651 178.209 238.326 174.35 231.359 172.207C225.142 170.277 216.888 168.884 211.1 172.743C209.17 174.029 208.206 175.637 207.777 177.566C207.455 178.852 207.455 180.353 207.455 181.747C207.455 182.068 207.456 182.497 207.563 182.819C207.884 186.892 208.098 190.643 207.348 194.717C205.847 202.006 201.774 208.759 196.2 213.582C193.413 216.048 190.198 217.977 186.66 219.264C186.339 219.371 185.91 219.478 185.589 219.692C184.624 220.014 183.659 220.443 182.801 220.871C182.587 220.979 182.373 221.193 182.158 221.3C182.051 221.407 181.944 221.515 181.73 221.622C180.443 222.586 179.264 223.873 178.299 225.159C174.226 230.84 173.154 238.344 173.69 245.204C174.333 254.208 177.978 262.783 180.122 271.466C182.158 279.934 182.373 288.402 180.55 296.977C177.12 313.163 168.438 327.634 164.364 343.605C162.435 351.109 161.792 358.934 163.4 366.651C164.9 373.726 167.902 380.479 172.082 386.374C180.443 398.165 193.842 406.741 208.42 408.027C210.457 408.242 210.457 411.457 208.42 411.243C204.668 410.921 201.024 410.171 197.487 409.099C183.123 404.49 171.01 393.449 164.472 379.943C161.256 373.19 159.327 365.687 159.219 358.183C159.112 349.822 161.256 341.569 164.043 333.744C169.617 317.987 178.514 302.444 178.621 285.4C178.621 275.753 175.298 266.642 172.833 257.531C170.689 249.599 169.51 241.559 171.332 233.52C172.404 228.804 174.87 223.444 178.728 220.014C176.049 219.049 173.261 218.513 170.367 218.513C164.579 218.406 159.005 220.228 153.324 221.407C141.533 223.98 129.313 224.73 117.308 223.551C112.913 223.122 107.982 222.586 104.337 219.799C100.693 216.905 99.8353 212.189 102.194 208.116C104.873 203.399 110.126 201.684 115.271 201.577C117.951 201.47 120.63 201.684 123.203 201.148C125.776 200.612 128.027 199.326 129.849 197.504C131.564 195.789 133.065 193.752 133.815 191.394C134.351 189.679 134.994 187.428 133.815 185.82C132.743 184.319 130.921 183.355 129.313 182.497C127.598 181.639 125.776 180.889 123.954 180.46C119.452 179.388 115.271 183.569 112.913 186.999C110.447 190.429 108.947 194.395 107.017 198.147C105.088 202.006 102.622 205.543 99.1924 208.116C95.7622 210.688 89.9741 213.261 86.544 209.188C83.5427 205.65 85.1502 199.969 86.2221 196.003C86.5437 194.824 86.8653 193.645 87.294 192.573C83.7567 196.003 79.5763 198.683 74.9671 200.505C72.2873 201.577 69.1788 202.327 66.4991 200.612C64.3552 199.326 63.2835 196.861 62.962 194.502C62.7476 192.573 63.1764 190.643 64.0339 188.821C62.7476 188.178 61.6757 187.321 60.8181 186.141C58.8887 183.354 59.1027 179.71 60.389 176.709C61.6753 173.707 64.0337 171.456 66.4991 169.42C69.1788 167.383 71.966 165.346 74.753 163.417C80.3269 159.451 86.1152 155.592 92.3322 152.698C94.5833 151.626 96.9416 150.554 99.407 149.804H99.2997C94.5832 147.338 90.4029 143.587 87.08 139.406C83.5427 135.011 78.3975 127.294 82.7923 121.827C85.5793 118.397 90.51 117.753 94.4761 119.469C99.0853 121.505 102.194 125.793 105.945 129.009C116.986 138.334 131.135 142.836 144.641 148.196C146.142 148.732 147.643 149.375 149.036 149.911C161.792 155.27 174.333 161.38 186.875 167.169C192.448 169.741 198.344 171.885 203.704 174.886C204.24 175.208 204.776 175.53 205.312 175.851C207.563 170.063 214.101 167.597 220.426 167.49C227.822 167.383 235.432 169.848 241.864 173.493C248.51 177.245 254.298 182.497 258.8 188.607C263.195 194.717 266.411 201.791 267.59 209.188C269.09 218.192 267.054 227.196 267.161 236.2C267.268 240.809 268.019 245.311 270.27 249.384C272.199 252.922 274.879 255.923 277.773 258.71C277.88 258.817 278.094 259.031 278.202 259.139C288.278 257.316 294.173 247.991 297.711 239.094C301.248 230.09 303.928 220.657 310.573 213.368C316.469 207.044 324.294 202.542 332.654 200.291C350.127 195.467 369.1 200.827 382.82 212.296C385.5 204.686 388.287 197.182 390.967 189.572C393.218 183.462 395.361 177.245 397.612 171.135C394.718 169.527 391.824 168.026 389.037 166.418C379.604 161.273 370.279 156.021 360.953 150.876C359.774 150.232 359.989 148.732 360.953 148.089C367.599 143.158 374.138 138.227 380.676 133.189C393.111 123.649 405.437 114.109 417.979 104.569C423.874 100.067 429.77 95.1362 436.308 91.5989C440.275 89.455 444.455 87.8472 448.743 86.7753C445.956 85.3818 443.061 83.5595 440.382 80.8797C433.521 74.1267 430.306 52.0453 444.133 40.8975C455.603 70.8038 476.505 56.4402 499.337 75.413C517.023 90.0982 506.411 127.401 493.012 143.265C499.122 144.337 504.696 147.874 507.912 153.234C513.164 162.131 510.913 174.458 502.767 180.889C499.015 183.89 494.299 185.284 489.583 185.284C488.618 185.284 487.653 185.177 486.688 185.07C487.439 189.893 488.189 194.717 488.939 199.433C490.333 208.008 491.833 216.477 493.441 224.945C493.441 224.516 493.548 224.194 493.977 223.873C503.303 215.297 516.487 212.189 528.814 214.226C539.962 216.048 549.931 222.265 556.148 231.805C563.437 243.06 564.938 256.673 566.438 269.643C567.189 276.289 567.832 282.935 569.225 289.474C570.619 296.227 572.763 302.873 575.657 309.197C581.338 321.738 589.485 332.993 599.775 342.212C600.74 343.391 598.381 345.642 596.881 344.248ZM101.872 147.017C102.622 147.338 103.373 147.553 104.123 147.767C107.446 148.517 110.983 148.089 114.52 148.196C118.701 146.695 123.096 145.516 127.491 144.98C119.666 141.443 112.056 137.477 105.302 132.224C103.48 130.831 101.765 129.33 100.157 127.83C98.4419 126.222 96.8342 124.399 94.9047 123.113C91.9034 121.076 87.0798 120.219 84.7216 123.756C83.3281 126.007 84.4002 129.009 85.4721 131.152C86.9728 134.047 89.0092 136.726 91.153 139.192C94.2616 142.3 97.7989 145.087 101.872 147.017ZM65.3199 185.498C66.8205 183.14 68.6429 180.996 70.2508 179.067C73.8953 174.565 77.8615 170.492 82.2564 166.74C90.6173 159.558 100.157 153.77 110.447 149.804C108.304 150.125 106.267 150.554 104.231 151.09C94.7977 153.663 86.1148 158.808 78.0755 164.382C75.6101 166.097 73.1448 167.919 70.6794 169.741C68.4284 171.456 65.963 173.171 64.248 175.53C62.8545 177.566 61.7827 180.353 62.7474 182.819C63.1761 183.89 64.1408 184.962 65.3199 185.498ZM204.24 178.638C200.81 176.173 196.629 174.565 192.77 172.85C186.553 170.063 180.551 167.276 174.441 164.382C168.545 161.595 162.65 158.915 156.647 156.235C156.325 156.235 156.004 156.235 155.682 156.021C149.465 152.805 142.498 150.661 135.745 148.303C130.064 147.338 124.382 148.625 118.915 150.232C113.556 151.84 108.411 153.877 103.373 156.342C93.6183 161.273 84.7216 167.919 77.2182 175.851C75.2887 177.888 73.3591 180.032 71.644 182.283C70.7865 183.355 69.9291 184.534 69.0716 185.713C68.3212 186.785 67.6782 187.857 67.035 189.036C67.035 189.143 66.9277 189.143 66.9277 189.25C65.8558 191.501 65.3198 194.288 66.8204 196.432C68.6427 199.004 71.8587 197.825 74.1097 196.753C78.8262 194.717 83.0066 191.823 86.4367 187.964C88.1518 186.034 89.4378 183.783 90.9384 181.639C91.6888 180.675 92.4393 179.817 93.2969 178.96C102.194 164.918 117.201 153.663 134.244 153.77C136.281 153.77 136.281 156.985 134.244 156.985C132.1 156.985 129.956 157.093 127.919 157.521C121.274 158.701 115.164 161.595 109.804 165.561C104.123 169.741 99.2997 175.208 95.548 181.211C93.4041 184.641 91.6892 188.285 90.2957 192.037C89.5454 194.074 88.902 196.217 88.4733 198.254C88.0445 200.291 87.4012 202.649 87.83 204.685C88.9019 210.367 95.9768 205.865 98.335 203.721C104.445 198.04 105.946 189.357 111.091 182.926C113.985 179.388 118.594 175.744 123.525 176.494C127.062 177.03 130.814 178.852 133.708 180.996C135.102 182.068 136.495 183.354 137.031 185.07C137.674 186.999 137.352 189.357 136.709 191.179C135.316 195.789 131.886 200.076 127.598 202.22C122.667 204.686 117.522 203.506 112.377 204.257C108.196 204.9 102.622 208.437 103.909 213.475C104.981 217.441 109.911 218.62 113.449 219.264C119.237 220.228 125.133 220.335 130.921 220.228C136.817 220.121 142.712 219.478 148.5 218.406C154.074 217.334 159.541 215.619 165.222 214.869C169.617 214.333 173.905 214.547 178.085 215.726C179.157 216.048 180.229 216.369 181.301 216.905C181.515 217.013 181.622 217.013 181.73 217.12C182.373 216.798 182.908 216.584 183.659 216.369C190.948 214.118 197.165 208.759 200.809 202.113C202.632 198.79 203.918 195.146 204.347 191.394C205.097 187.213 203.811 182.926 204.24 178.638Z" fill="black"/>
<path d="M46.8835 272.109L72.1802 284.435C70.2507 287.008 67.2498 288.83 64.0341 289.366C58.5673 290.117 52.8859 287.222 49.7773 282.613C47.7407 279.505 46.7763 275.753 46.8835 272.109ZM114.735 191.179C112.806 190.536 110.984 192.144 109.59 193.537C100.908 202.649 92.8683 212.189 85.2577 222.265C83.757 221.729 82.1491 221.3 80.4341 221.193C73.5739 220.55 66.4992 223.444 61.6756 228.375C55.3514 234.699 52.0287 244.239 44.2037 248.634C39.3801 251.421 32.4124 252.6 31.0189 257.959L29.3037 257.423C36.5927 262.568 44.7397 266.427 52.779 270.179C66.3923 276.611 80.1124 283.149 93.7257 289.581C95.5479 282.506 92.5465 282.506 90.9386 275.11C89.5451 268.571 94.1546 260.425 95.4408 253.886C96.8343 246.919 98.7636 239.522 96.2982 232.769C95.1191 229.661 93.0825 227.088 90.51 225.052C98.6565 216.905 106.481 208.437 113.985 199.755C115.057 198.468 116.236 197.075 116.558 195.36C116.879 193.645 116.343 191.822 114.735 191.179Z" fill="#FFE945"/>
<path d="M27.1602 236.95C26.8386 237.701 25.6599 237.915 24.9096 237.486C24.052 237.058 23.9449 236.093 24.3736 235.235C28.0181 226.767 35.0923 220.014 43.7748 216.799C44.6323 216.477 45.4902 217.12 45.7045 217.87C45.9189 218.728 45.383 219.586 44.6326 219.8C36.8077 222.908 30.4831 229.233 27.1602 236.95ZM3.14946 233.842C8.83059 220.121 19.4428 208.652 32.413 201.47C36.1646 199.434 40.0234 197.826 44.0967 196.539C46.0261 195.896 45.2755 192.788 43.2388 193.431C28.2321 198.147 15.0477 208.116 6.36519 221.193C3.8998 224.838 1.86337 228.804 0.148315 232.877C-0.709214 234.914 2.39912 235.771 3.14946 233.842ZM108.519 253.244C110.234 260.747 110.019 268.465 107.661 275.754C107.018 277.683 110.126 278.541 110.769 276.611C113.235 268.786 113.449 260.425 111.627 252.386C111.198 250.349 108.09 251.207 108.519 253.244ZM129.314 238.987C136.603 251.957 138.103 267.822 133.601 281.971C132.958 283.9 136.067 284.758 136.71 282.828C141.533 267.822 139.818 251.1 132.101 237.379C131.136 235.557 128.349 237.272 129.314 238.987Z" fill="black"/>
<path d="M315.718 10.5631C315.075 9.91992 315.183 8.95523 315.718 8.31208C316.362 7.66894 317.326 7.77613 317.97 8.31208L318.077 8.41925C318.184 8.52644 318.184 8.52646 317.97 8.31208C318.077 8.31208 318.184 8.41925 318.184 8.41925C318.291 8.52644 318.398 8.52641 318.506 8.52641C318.613 8.6336 318.72 8.52641 318.398 8.52641C318.613 8.52641 318.827 8.63362 319.041 8.74081C319.149 8.74081 319.256 8.74085 319.363 8.84804C319.041 8.74085 319.148 8.84804 319.363 8.84804C319.577 8.84804 319.792 8.84804 319.899 8.84804C320.006 8.84804 320.113 8.84804 320.327 8.84804C319.899 8.84804 320.113 8.84804 320.327 8.84804C320.542 8.84804 320.756 8.74081 320.863 8.74081C320.971 8.74081 321.078 8.63364 321.185 8.63364C320.864 8.63364 320.971 8.74083 321.078 8.63364C321.292 8.52645 321.4 8.41927 321.614 8.31208C321.721 8.31208 321.829 8.20488 321.829 8.09769C321.829 8.09769 321.507 8.31204 321.721 8.20485C321.828 8.09766 322.043 7.99051 322.15 7.77613C322.15 7.77613 322.364 7.45451 322.257 7.6689C322.15 7.88328 322.257 7.66892 322.257 7.56173C322.364 7.45454 322.364 7.34736 322.471 7.24017C322.471 7.13298 322.579 7.13297 322.579 7.02578C322.579 7.13297 322.471 7.13298 322.471 7.24017C322.471 7.13298 322.579 6.9186 322.579 6.70422C322.579 6.70422 322.579 6.38259 322.686 6.38259C322.686 6.59697 322.686 6.7042 322.686 6.48982V6.38259C322.686 6.16821 322.686 6.06102 322.686 5.84663C322.686 5.63225 322.686 5.73948 322.686 5.95386C322.686 5.84667 322.686 5.84666 322.686 5.73947C322.686 5.63228 322.686 5.63227 322.686 5.52507L322.471 4.88195C322.471 4.88195 322.686 5.20353 322.471 4.88195C322.471 4.77476 322.365 4.77475 322.365 4.66756C322.257 4.45318 322.15 4.34598 322.043 4.1316C321.828 3.81003 322.257 4.34598 322.043 4.1316C321.935 4.02441 321.936 4.0244 321.829 3.91721C321.721 3.81002 321.399 3.48848 321.399 3.48848C321.399 3.48848 321.721 3.70284 321.507 3.59565C321.399 3.48846 321.293 3.48844 321.293 3.38125C321.185 3.38125 321.078 3.27409 320.971 3.27409C320.864 3.27409 320.864 3.16686 320.757 3.16686H320.863C320.971 3.16686 320.971 3.27405 320.863 3.16686C320.756 3.16686 320.757 3.16688 320.649 3.05969C320.542 3.05969 320.435 2.95253 320.327 2.95253C320.22 2.95253 320.221 2.95253 320.113 2.95253C320.221 2.95253 320.22 2.95253 320.327 2.95253H320.113C320.006 2.95253 319.899 2.95253 319.792 2.95253C319.684 2.95253 319.685 2.95253 319.577 2.95253C319.685 2.95253 319.684 2.95253 319.792 2.95253C319.684 3.05972 319.47 3.05969 319.256 3.05969C319.148 3.05969 319.149 3.05966 319.041 3.16686C318.934 3.27405 318.934 3.16686 319.149 3.16686C319.149 3.27405 318.934 3.27409 318.827 3.27409C318.72 3.38128 318.505 3.48848 318.398 3.48848C318.077 3.70286 318.398 3.59567 318.398 3.48848L318.184 3.70281C318.076 3.81 317.969 3.91725 317.862 4.02444L317.755 4.1316C317.862 3.91722 317.969 3.91725 317.862 4.02444C317.862 4.13163 317.755 4.13158 317.755 4.23877C317.648 4.45315 317.541 4.56034 317.434 4.77472C317.434 4.88191 317.326 4.88193 317.326 4.98912C317.326 4.88193 317.434 4.88191 317.434 4.77472L317.326 4.98912C317.219 5.2035 317.219 5.41788 317.112 5.52507C317.112 5.63227 317.112 5.63228 317.112 5.73947C317.112 5.52509 317.112 5.41788 317.112 5.52507C317.112 5.63227 317.112 5.73947 317.112 5.73947C317.112 5.95385 317.112 6.16821 317.112 6.38259C317.112 6.70416 317.112 6.27542 317.112 6.27542C317.112 6.27542 317.112 6.48979 317.219 6.59699C317.219 6.70418 317.541 7.34731 317.326 6.91855C317.648 7.77607 317.541 8.63364 316.79 9.1696C316.147 9.59836 314.968 9.38398 314.539 8.63364C314.003 7.34735 313.789 6.06104 314.218 4.66756C314.539 3.48846 315.182 2.30933 316.147 1.55899C317.969 -0.156069 320.542 -0.47763 322.793 0.701473C324.83 1.77338 326.223 4.23881 326.009 6.48982C325.795 8.95522 324.186 10.7775 321.935 11.5278C319.684 12.4925 317.326 12.0637 315.718 10.5631ZM179.8 33.3948C182.051 35.3242 184.409 37.3608 186.66 39.2903C187.304 39.8262 188.268 39.9334 188.912 39.2903C189.448 38.6471 189.555 37.5752 188.912 37.0393C186.661 35.1099 184.302 33.0732 182.051 31.1438C181.408 30.6078 180.443 30.5006 179.8 31.1438C179.264 31.6797 179.157 32.7516 179.8 33.3948ZM285.276 120.648C284.955 127.509 284.633 134.369 284.312 141.336C284.204 143.373 287.42 143.373 287.527 141.336C287.849 134.476 288.17 127.616 288.492 120.648C288.599 118.612 285.383 118.612 285.276 120.648Z" fill="black"/>
</svg>
