<svg width="528" height="600" viewBox="0 0 528 600" fill="none" xmlns="http://www.w3.org/2000/svg">
<path d="M204.918 490.251C203.898 465.513 175.844 451.104 151.234 448.299C126.624 445.621 100.101 448.809 78.4231 436.567C59.0409 425.601 47.6921 404.179 41.8264 382.629C35.9607 361.079 34.3032 338.636 28.31 317.086C19.2565 284.314 0.256555 253.583 0.00152555 219.537C-0.253504 178.222 31.4979 138.82 71.92 130.277C94.4901 125.559 118.463 129.512 140.778 123.391C189.489 110.002 214.609 53.8953 260.514 32.7279C289.97 19.0838 324.399 21.5066 356.278 28.2649C371.325 31.4527 386.244 35.5334 399.378 43.4393C419.015 55.2982 433.297 75.8281 437.632 98.2707C447.579 149.532 408.686 197.222 402.056 249.121C398.868 274.114 403.458 299.999 415.19 322.442C424.626 340.421 438.27 355.85 447.961 373.703C457.524 391.555 462.753 413.742 453.954 431.977C449.108 442.05 440.31 449.956 430.746 455.822C399.505 475.077 360.486 474.949 323.762 474.184" fill="#16202C"/>
<path d="M333.197 287.246C333.197 296.3 333.325 306.246 339.063 313.259C346.841 322.95 361.25 323.333 373.619 322.823C404.988 321.548 436.357 320.145 467.598 318.233C482.644 317.34 486.597 326.393 494.758 338.507C503.047 350.749 510.06 363.755 515.798 377.272C518.476 345.393 527.274 311.474 525.489 279.468C522.684 225.784 519.751 172.228 516.946 118.544C516.563 111.659 516.053 104.39 511.845 99.0346C504.959 90.236 491.953 90.3636 480.859 91.3837C455.739 93.5514 430.746 95.5917 405.625 97.7594C387.008 99.2896 359.337 96.9944 344.291 110.256C337.277 116.504 333.707 125.94 332.942 135.376C331.794 147.108 334.345 158.711 334.09 170.443C333.707 183.449 333.962 196.456 333.835 209.335C333.58 235.348 333.452 261.233 333.197 287.246Z" fill="#111217"/>
<path d="M527.531 281.251C527.021 269.902 526.383 258.426 525.745 247.077C524.47 224.124 523.323 201.299 522.047 178.347C521.41 166.87 520.772 155.394 520.262 144.045C520.007 138.307 519.625 132.569 519.37 126.831C519.115 121.602 518.987 116.502 518.349 111.274C517.712 106.811 516.564 102.093 513.886 98.3947C511.464 95.0793 508.276 92.7842 504.45 91.254C496.672 88.1937 487.874 88.7036 479.713 89.4686C456.887 91.3814 434.19 93.2942 411.365 95.3344C403.076 96.0995 394.788 96.3547 386.372 96.7372C378.211 97.1198 369.922 97.7571 361.889 99.6698C354.365 101.583 346.842 104.77 341.359 110.509C334.983 117.139 331.923 126.193 331.03 135.119C329.883 146.213 332.178 157.179 332.178 168.273C332.178 179.622 331.923 190.843 331.923 202.192C331.923 225.017 331.668 247.714 331.413 270.54C331.413 276.15 331.285 281.761 331.285 287.372C331.285 294.768 331.285 302.418 334.346 309.304C337.151 315.68 342.507 320.143 349.01 322.566C355.386 324.861 362.399 325.116 369.157 325.116C378.083 324.988 386.882 324.478 395.808 324.096C414.425 323.331 433.042 322.438 451.659 321.418C456.377 321.163 460.968 320.908 465.558 320.526C468.874 320.271 472.189 320.143 475.377 321.163C480.605 322.693 484.048 326.774 487.108 330.982C497.564 346.029 506.873 361.84 514.014 378.672C514.779 380.585 517.457 379.31 517.584 377.652C519.37 356.102 523.705 334.935 526 313.512C527.275 302.546 528.041 291.835 527.531 281.251ZM523.578 299.103C522.43 320.271 518.349 341.055 515.544 361.968C515.162 364.646 514.907 367.196 514.652 369.874C511.974 364.136 509.168 358.525 505.98 353.042C502.028 346.029 497.565 339.27 493.102 332.512C490.041 327.921 486.981 323.076 482.39 319.888C477.035 316.063 470.787 316.062 464.411 316.445C446.049 317.593 427.559 318.485 409.197 319.378C399.888 319.76 390.58 320.143 381.271 320.653C373.748 320.908 366.224 321.546 358.701 320.653C351.56 319.76 344.037 317.338 339.829 311.089C335.111 304.204 335.111 295.278 335.111 287.244C335.238 264.929 335.366 242.742 335.621 220.427C335.749 209.333 335.748 198.239 335.748 187.017C335.748 181.534 335.876 175.924 336.003 170.441C336.131 165.085 335.748 159.729 335.238 154.501C334.473 144.428 333.836 134.226 337.278 124.535C340.084 116.502 345.695 110.381 353.345 106.683C360.359 103.368 368.265 101.965 375.915 101.328C383.821 100.562 391.855 100.435 399.761 100.052C409.834 99.5424 419.908 98.5224 429.982 97.6298C441.076 96.7372 452.169 95.7171 463.136 94.8245C468.746 94.3145 474.357 93.9318 479.84 93.4217C484.048 93.0392 488.128 92.7843 492.336 92.9118C500.242 93.2943 508.403 95.7169 512.101 103.24C514.141 107.321 514.524 112.039 514.779 116.502C515.162 121.985 515.417 127.468 515.672 132.824C516.309 144.045 516.819 155.266 517.457 166.488C518.604 188.803 519.88 211.245 521.027 233.56C521.665 244.654 522.175 255.876 522.812 266.969C523.577 277.808 524.088 288.392 523.578 299.103ZM484.813 215.964C475.505 214.306 465.941 212.648 457.653 207.675C450.384 203.34 444.774 196.709 442.988 188.42C441.203 180.387 442.606 172.098 443.116 163.937C443.243 161.77 443.243 159.474 443.116 157.307C442.988 155.522 442.861 153.736 442.096 152.206C440.438 149.146 436.357 149.018 433.552 150.166C427.431 152.589 424.754 159.984 424.499 166.105C424.116 174.521 426.922 182.555 427.432 190.971C427.687 196.964 427.049 204.36 422.076 208.568C416.465 213.286 408.687 212.01 401.929 211.245C394.023 210.353 384.969 210.48 378.721 216.218C374.13 220.426 372.6 227.95 376.936 232.668C381.909 235.983 388.029 237.131 393.768 235.601C396.19 234.963 397.21 238.661 394.788 239.298C388.922 240.829 382.546 240.064 377.191 237.258C373.493 241.339 374.258 248.225 379.741 250.52C380.251 250.775 380.634 251.157 380.889 251.54C386.499 253.198 392.365 253.708 398.103 252.943C399.123 252.815 400.016 253.963 400.016 254.856C400.016 256.003 399.123 256.641 398.103 256.768C391.983 257.533 385.734 257.023 379.869 255.238C377.956 259.828 379.741 265.057 383.949 267.607C384.331 267.479 384.714 267.352 385.224 267.607C391.982 269.775 399.123 270.285 406.009 268.882C408.432 268.372 409.452 272.07 407.029 272.58C400.526 273.855 393.895 273.728 387.647 272.197C385.607 274.493 387.392 277.808 389.559 279.338C392.492 281.506 396.445 282.399 399.888 283.164C414.042 285.842 427.049 279.466 440.693 276.66C454.465 273.855 468.746 274.493 482.135 278.446C484.558 279.083 483.538 282.781 481.115 282.144C472.699 279.721 464.028 278.573 455.23 278.828C447.706 279.083 440.311 280.486 433.17 282.526C425.901 284.566 418.76 286.862 411.237 287.627C404.096 288.264 396.318 287.117 389.815 284.056C387.009 282.654 384.459 280.486 383.439 277.426C382.801 275.64 382.929 273.6 383.566 271.815C376.808 268.754 373.62 260.721 376.426 253.963C376.171 253.708 375.915 253.198 375.915 252.815C373.493 251.03 371.708 248.48 371.197 245.419C370.56 241.849 371.58 238.024 374.003 235.346C368.902 229.735 369.922 220.681 374.768 215.071C381.016 207.802 391.217 206.527 400.271 207.42C406.647 208.057 416.083 210.608 420.801 204.615C424.754 199.514 423.989 191.481 423.096 185.487C421.821 176.944 419.271 168.018 421.948 159.474C423.861 152.971 428.707 146.723 435.847 145.958C439.29 145.575 442.988 146.723 445.156 149.656C447.451 152.971 447.451 157.562 447.324 161.387C447.196 169.803 445.284 178.474 446.814 186.89C448.344 194.924 453.444 201.044 460.458 204.997C468.236 209.46 477.29 210.99 486.088 212.52C488.256 212.648 487.236 216.346 484.813 215.964ZM387.392 114.207C386.117 112.166 389.432 110.254 390.707 112.294C395.425 119.69 401.291 126.321 407.922 132.059C408.687 132.696 408.559 134.099 407.922 134.736C407.157 135.501 406.009 135.374 405.244 134.736C398.358 128.871 392.365 121.985 387.392 114.207ZM459.183 138.435C464.411 131.421 469.766 124.408 474.994 117.395C475.632 116.629 476.652 116.119 477.672 116.757C478.437 117.267 478.947 118.542 478.31 119.435C473.082 126.448 467.726 133.461 462.498 140.475C461.861 141.24 460.84 141.75 459.82 141.112C459.055 140.602 458.545 139.327 459.183 138.435ZM434.062 129.126C434.062 122.878 434.062 116.629 434.062 110.381C434.062 107.958 437.888 107.958 437.888 110.381C437.888 116.629 437.888 122.878 437.888 129.126C437.888 131.676 434.062 131.676 434.062 129.126Z" fill="#DCDCDC"/>
<path d="M201.602 305.225C255.796 298.722 310.372 296.044 364.949 296.936C372.472 297.064 380.633 297.446 386.371 302.292C394.532 309.178 394.532 321.547 393.767 332.13C389.559 392.445 385.351 452.632 381.143 512.946C380.633 519.96 379.995 527.355 375.405 532.711C371.834 536.792 366.479 538.832 361.25 540.49C327.587 551.073 288.44 554.006 253.628 548.14C239.219 545.718 233.098 547.63 221.877 557.831C210.273 568.415 200.454 580.912 192.931 594.811C191.783 596.851 189.361 599.274 187.575 597.744C186.938 597.106 186.81 596.214 186.683 595.321C181.2 551.201 176.227 508.738 176.609 464.363C176.992 417.948 182.985 371.787 188.851 325.755C189.488 321.037 190.126 316.063 192.804 312.111C195.482 308.158 198.669 305.607 204.152 305.607" fill="#111217"/>
<path d="M395.807 321.417C395.552 315.551 394.404 309.303 390.834 304.457C386.881 299.102 380.888 296.551 374.512 295.659C366.989 294.639 359.21 294.894 351.56 294.894C343.144 294.894 334.728 294.894 326.312 295.021C292.775 295.531 259.366 297.444 226.085 300.632C217.924 301.397 209.763 302.29 201.602 303.31C201.092 303.31 200.709 303.565 200.327 303.947C195.736 305.095 192.166 308.283 189.998 312.746C188.34 315.933 187.703 319.376 187.193 322.947C186.683 326.9 186.173 330.98 185.663 334.933C183.495 351.51 181.455 368.087 179.67 384.664C176.099 417.945 173.804 451.354 174.824 484.891C175.717 517.789 179.287 550.561 183.24 583.205C183.75 587.285 184.133 591.493 184.77 595.573C185.153 598.634 187.703 601.056 190.891 599.526C193.824 597.996 195.099 594.553 196.629 591.875C198.414 588.687 200.454 585.627 202.495 582.567C206.703 576.574 211.293 570.836 216.394 565.607C220.857 560.889 225.702 556.044 231.313 552.601C235.521 549.923 240.111 548.903 245.212 549.031C252.098 549.286 258.856 550.943 265.614 551.708C280.789 553.366 296.09 553.493 311.137 552.091C326.056 550.816 340.976 548.138 355.512 544.057C362.016 542.272 369.029 540.487 374.385 536.151C379.74 531.816 381.653 525.058 382.418 518.554C382.546 517.024 382.8 515.494 382.928 513.836C383.183 513.454 383.183 513.071 383.056 512.561C383.566 506.568 383.821 500.447 384.203 494.454C384.841 486.038 385.351 477.495 385.989 469.079C387.136 452.374 388.284 435.67 389.559 418.965C390.706 402.006 391.982 385.174 393.129 368.215C393.767 359.799 394.277 351.255 394.915 342.839C395.425 335.826 396.19 328.557 395.807 321.417ZM378.975 514.984C378.465 521.36 377.445 528.246 372.472 532.836C367.499 537.299 359.975 538.957 353.727 540.614C352.452 540.997 351.177 541.252 350.029 541.635C349.902 541.38 349.774 541.124 349.519 540.869C342.251 534.749 341.868 523.145 345.949 515.111C350.157 506.695 359.848 501.213 369.156 504.145C373.492 505.548 377.317 508.863 379.23 513.071C379.103 513.709 379.103 514.347 378.975 514.984ZM379.613 506.823C374.13 500.447 365.204 497.897 356.915 500.702C345.821 504.4 339.19 515.494 339.573 526.97C339.7 532.709 341.741 538.702 345.821 542.782C341.613 543.802 337.278 544.695 333.07 545.46L332.942 545.332C332.432 545.077 331.922 544.822 331.412 544.44C331.157 544.312 331.03 544.185 330.775 544.057L330.647 543.93C330.647 543.93 330.519 543.802 330.392 543.802C329.499 543.037 328.734 542.272 327.969 541.507C327.842 541.379 327.842 541.252 327.714 541.252C327.587 540.997 327.332 540.742 327.204 540.614C326.949 540.104 326.567 539.722 326.312 539.212C326.057 538.702 325.801 538.192 325.546 537.809C325.419 537.554 325.291 537.299 325.164 537.044L325.036 536.789C325.036 536.661 324.909 536.662 324.909 536.534C324.654 535.896 324.144 535.386 323.506 535.131C323.124 534.366 322.231 534.111 321.338 534.239C318.533 534.621 315.728 535.004 313.05 535.387C312.412 535.514 311.775 535.514 311.01 535.641C310.627 535.641 310.372 535.769 309.99 535.769C309.99 535.769 309.735 535.769 309.607 535.769C309.607 535.641 309.607 535.514 309.607 535.387C309.479 534.876 309.607 534.366 309.607 533.984C309.862 529.266 310.117 524.548 310.5 519.702C314.197 520.977 318.151 521.487 322.104 521.105C323.124 520.977 324.016 520.34 324.016 519.192C324.016 518.937 323.889 518.554 323.761 518.299C325.036 511.796 327.714 505.548 331.922 500.32C332.56 499.555 332.687 498.407 331.922 497.642C331.54 497.259 330.902 497.005 330.264 497.132C327.587 495.474 324.909 493.689 322.231 492.031C327.842 487.951 333.325 483.871 338.935 479.918C339.19 483.233 340.466 486.421 342.506 489.099V489.226C342.761 490.119 343.909 491.011 344.801 490.501C349.264 488.716 353.982 488.078 358.7 488.333C359.72 488.461 360.613 487.441 360.613 486.421C360.613 485.783 360.358 485.401 359.975 485.018C361.123 481.065 362.526 477.367 364.438 473.797C365.203 474.434 366.223 474.944 367.244 475.327C368.391 475.709 369.539 475.837 370.687 475.964C371.707 476.092 372.982 476.347 373.619 477.112C375.15 478.77 373.237 481.83 372.344 483.36C370.942 485.911 369.539 488.971 370.687 491.776C371.069 492.669 371.834 493.307 372.854 493.179C372.982 493.307 372.982 493.434 373.109 493.434C373.364 493.561 373.62 493.817 373.875 493.944C375.532 495.219 376.935 496.622 378.21 498.28C378.338 498.407 378.465 498.535 378.465 498.662C378.72 499.045 379.103 499.427 379.613 499.555C379.74 499.555 379.868 499.555 379.995 499.555C379.995 501.978 379.74 504.4 379.613 506.823ZM309.735 535.769C309.735 535.641 309.735 535.641 309.735 535.769C309.735 535.641 309.862 535.641 309.735 535.769ZM390.961 344.242C389.814 360.564 388.666 376.758 387.519 393.08C385.223 425.851 382.928 458.623 380.633 491.394C380.505 492.542 380.505 493.689 380.378 494.709C378.848 492.924 377.062 491.266 375.022 489.863C374.767 489.736 374.384 489.609 374.002 489.609C373.747 487.441 375.405 485.4 376.297 483.488C377.572 481.065 378.465 478.132 377.062 475.455C375.915 473.032 373.237 472.267 370.814 471.884C369.539 471.757 366.224 471.502 366.096 469.716C365.969 467.804 363.546 467.039 362.526 468.696C359.72 473.542 357.553 478.642 356.023 484.125V484.253C352.325 484.253 348.499 484.891 344.929 486.166C343.016 483.36 341.996 479.79 342.506 476.474C342.761 475.072 341.231 473.159 339.701 474.307C332.432 479.662 325.036 485.018 317.768 490.374C316.62 491.266 316.493 492.796 317.768 493.689C320.956 495.729 324.144 497.769 327.459 499.81C323.761 505.038 321.211 511.031 319.936 517.279C316.365 517.279 312.922 516.642 309.607 515.239C308.204 514.602 306.802 515.367 306.674 516.897C306.419 520.212 306.292 523.527 306.037 526.843C305.909 528.5 305.782 530.158 305.782 531.943C305.654 533.346 305.527 534.749 305.782 536.151C306.037 537.427 306.674 538.447 307.694 539.084C309.097 539.849 310.882 539.339 312.412 539.084C315.473 538.702 318.406 538.192 321.466 537.809C322.869 541.125 324.909 544.057 327.587 546.353C314.58 548.393 301.446 549.413 288.312 549.285C281.171 549.285 273.903 548.776 266.762 548.138C260.004 547.373 253.245 545.843 246.487 545.46C241.514 545.205 236.669 545.843 232.078 548.01C226.722 550.561 222.132 554.769 217.924 558.849C207.723 568.54 198.924 579.889 192.038 592.258C191.273 593.533 190.763 595.063 189.488 595.956C189.233 596.211 188.978 596.339 188.723 596.211C188.34 595.956 188.341 593.661 188.213 593.406C187.703 589.453 187.193 585.5 186.81 581.547C185.79 573.513 184.898 565.48 184.005 557.319C182.22 541.507 180.69 525.695 179.797 509.756C179.159 499.045 178.777 488.461 178.649 477.75C192.421 476.474 204.663 483.488 215.756 491.139C208.488 500.702 200.837 510.138 193.059 519.32C191.401 519.064 190.253 521.487 191.656 522.762C192.038 523.4 192.676 524.037 193.441 524.037C199.817 528.373 206.193 532.709 212.568 536.917C214.226 538.064 215.756 536.151 215.246 534.621C222.769 525.058 230.293 515.494 237.944 505.93C239.984 507.078 242.024 507.971 244.065 508.991C251.205 512.051 260.004 514.602 267.272 510.776C271.863 508.353 274.923 502.615 273.776 497.642C278.621 498.407 283.722 496.877 287.165 493.307C291.245 488.971 292.138 482.213 289.715 476.857C294.943 475.454 300.553 473.287 303.231 468.314C305.144 464.871 305.399 460.408 303.359 457.092C306.164 456.072 308.459 453.777 309.862 451.099C311.902 447.019 311.902 442.428 310.245 438.22C309.735 436.817 309.097 435.542 308.332 434.267C312.922 429.167 313.305 421.006 309.352 415.395C310.372 413.865 311.52 412.335 312.54 410.677C318.661 410.549 324.781 410.422 330.902 410.294C331.667 410.804 332.815 410.804 333.452 410.167C338.298 404.174 343.271 398.308 348.116 392.315C348.754 391.55 348.882 390.529 348.244 389.764C349.009 383.389 349.647 376.886 350.412 370.51C350.412 370.382 350.539 370.255 350.539 370C350.539 369.745 350.539 369.362 350.667 369.107V368.98C351.942 367.322 349.519 364.899 347.734 366.557C344.419 369.617 341.103 372.678 337.915 375.865C338.68 369.872 338.935 363.879 338.298 357.886C338.17 356.866 337.533 355.973 336.385 355.973C336.003 355.973 335.62 356.101 335.365 356.356C329.372 355.973 323.379 355.973 317.386 356.356C319.298 353.423 321.211 350.617 323.124 347.685C323.251 347.429 323.379 347.174 323.379 347.047C324.909 346.027 323.889 343.094 321.721 343.604C313.432 345.772 305.144 347.43 296.728 348.577C295.708 348.705 294.943 349.342 294.815 350.235C291.118 356.993 287.419 363.751 283.849 370.382C283.594 370.892 283.594 371.402 283.721 371.785C283.721 372.04 283.594 372.423 283.721 372.678C285.124 380.073 287.802 387.342 291.5 393.972C289.842 396.395 288.312 398.818 286.654 401.241C286.527 401.241 286.272 401.113 286.144 401.113C263.829 398.818 241.132 401.113 219.709 408.127C217.414 408.892 218.434 412.59 220.729 411.825C240.877 405.321 262.299 402.899 283.339 404.684C282.192 407.234 280.534 409.402 278.494 411.315C273.138 409.912 267.655 409.147 262.172 408.892C259.749 408.764 259.749 412.59 262.172 412.717C267.4 412.845 272.628 413.737 277.728 415.012C277.728 415.012 277.728 415.012 277.856 415.14C284.359 419.22 291.245 422.663 297.11 427.509C302.339 431.717 308.969 438.73 307.694 446.126C307.057 449.697 304.634 453.267 301.064 453.904C295.07 448.294 287.802 444.341 279.769 442.301C277.346 441.663 276.326 445.361 278.748 445.999C285.889 447.784 292.392 451.227 297.748 456.2C297.748 456.71 298.131 457.347 298.641 457.602C301.956 459.643 301.446 464.616 299.406 467.421C296.473 471.374 290.862 472.649 286.399 473.797C280.279 468.824 273.648 464.616 266.507 461.3C265.614 460.918 264.467 461.045 263.829 461.938C263.319 462.703 263.574 464.106 264.467 464.616C272.118 468.186 279.258 472.649 285.634 478.26C285.889 478.387 286.017 478.515 286.272 478.642C287.929 482.595 287.419 487.441 284.487 490.629C281.681 493.689 277.218 494.709 273.393 493.689C273.393 493.689 273.393 493.562 273.265 493.562C267.782 487.313 260.642 482.723 252.736 480.173C250.44 479.407 249.42 483.105 251.715 483.87C257.964 485.911 263.574 489.354 268.292 493.944C268.037 494.582 268.165 495.219 268.802 495.857C270.715 497.77 270.587 500.575 269.695 502.998C268.547 505.93 265.997 507.716 263.064 508.481C255.923 510.266 247.89 506.951 241.642 503.763C227.87 496.749 216.649 485.656 202.622 479.152C195.099 475.709 187.066 473.542 178.777 474.307C178.65 453.904 179.414 433.375 181.072 412.972C182.347 396.905 184.133 380.711 186.045 364.644C187.065 356.483 188.085 348.322 189.106 340.289C189.616 336.336 190.126 332.383 190.636 328.43C191.146 324.86 191.401 321.161 192.548 317.719C194.334 312.108 198.287 307.645 204.407 307.517C204.917 307.517 205.427 307.262 205.682 307.007C236.796 303.437 268.165 301.014 299.406 299.866C315.6 299.229 331.795 298.974 347.989 299.102C355.64 299.102 363.418 298.974 371.197 299.484C377.445 299.994 383.821 301.524 387.774 306.752C391.344 311.343 392.109 317.464 392.237 323.202C392.237 329.96 391.472 337.101 390.961 344.242ZM218.817 493.307C220.219 494.327 221.622 495.347 223.025 496.239C226.723 498.917 230.548 501.467 234.373 503.89C226.977 513.326 219.582 522.635 212.186 532.071C206.83 528.501 201.602 524.93 196.247 521.36C204.025 512.179 211.548 502.87 218.817 493.307ZM294.56 391.932C290.99 385.557 288.567 378.798 287.165 371.657C290.735 365.027 294.305 358.396 298.003 351.893C304.634 351 311.265 349.725 317.895 348.195C312.157 356.738 306.419 365.154 300.809 373.698C300.171 374.08 299.661 374.973 299.916 375.61C299.916 376.376 300.681 377.013 301.446 377.268C308.587 383.134 316.365 388.234 324.654 392.442C325.674 392.952 326.694 392.442 327.204 391.805C327.332 391.677 327.587 391.55 327.714 391.422C333.835 385.046 340.083 378.798 346.586 372.805C345.949 378.671 345.311 384.409 344.546 390.275C344.546 390.53 344.546 390.657 344.674 390.912C340.338 396.14 336.13 401.368 331.795 406.469C325.419 406.596 318.916 406.724 312.54 406.852C312.285 406.852 312.157 406.851 312.03 406.979C311.392 406.851 310.627 407.107 310.245 407.872C306.547 413.227 302.976 418.583 299.278 424.066C297.111 422.408 294.815 420.751 292.393 419.348C289.332 417.435 286.272 415.65 283.084 413.737C283.594 413.1 283.977 412.335 284.487 411.697C288.185 406.087 292.01 400.348 295.708 394.738C296.091 393.463 295.453 392.442 294.56 391.932ZM312.923 378.671C313.05 373.57 313.05 368.597 313.177 363.497C313.177 362.986 313.05 362.604 312.795 362.349C313.432 361.456 313.943 360.564 314.58 359.671C314.835 359.799 315.09 359.798 315.345 359.798C321.721 359.288 328.097 359.289 334.472 359.671C334.982 366.047 334.6 372.55 333.325 378.798V378.926C326.439 379.563 319.681 379.308 312.923 378.671ZM330.137 383.134C328.352 384.919 326.694 386.704 324.909 388.489C321.593 386.704 318.278 384.791 315.09 382.751C320.063 383.134 325.164 383.261 330.137 383.134ZM309.224 367.705C309.097 371.275 309.097 374.973 308.969 378.543C307.439 377.396 305.782 376.12 304.379 374.973C306.037 372.55 307.694 370.127 309.224 367.705ZM301.829 426.234C303.486 423.683 305.272 421.133 306.929 418.71C308.97 422.408 308.587 427.381 306.037 430.824C304.761 429.167 303.359 427.764 301.829 426.234C301.829 426.361 301.829 426.234 301.829 426.234ZM236.796 365.409C237.434 366.302 236.924 367.577 236.159 368.087C235.266 368.597 234.118 368.214 233.481 367.449C229.655 361.839 225.83 356.228 221.877 350.617C216.904 353.805 211.803 357.121 206.83 360.309C209.508 365.537 212.058 370.765 214.736 375.993C214.736 376.121 214.863 376.248 214.863 376.375C220.092 373.315 225.32 370.127 230.548 367.067C232.716 365.792 234.628 369.107 232.461 370.382C226.977 373.698 221.494 377.013 215.884 380.201C214.609 380.966 213.333 380.073 213.078 378.926C212.441 378.926 211.676 378.671 211.421 378.033C208.743 372.805 206.193 367.45 203.515 362.221C201.857 362.221 200.837 359.671 202.622 358.651C202.622 358.651 202.75 358.651 202.75 358.523C202.877 358.268 203.132 358.013 203.387 357.886C203.642 357.758 203.897 357.631 204.152 357.631C209.508 354.188 214.864 350.745 220.219 347.175C220.857 346.665 221.622 346.792 222.132 347.175C223.025 346.665 224.172 347.047 224.682 347.812C228.635 353.678 232.716 359.544 236.796 365.409ZM326.694 367.194C327.459 368.469 327.204 370.127 326.184 371.02C325.674 371.402 325.164 371.785 324.526 371.785C324.399 371.785 324.271 371.912 324.144 371.912C323.634 372.04 323.251 372.04 322.741 371.912C322.486 371.912 322.104 371.785 321.849 371.53C320.573 370.765 320.063 369.362 320.318 367.96C320.446 367.45 320.828 366.812 321.211 366.429C321.466 366.174 321.721 366.047 321.976 365.919C322.231 365.792 322.486 365.664 322.869 365.664C323.379 365.537 323.761 365.537 324.271 365.664C324.526 365.664 324.909 365.792 325.164 365.919C325.929 366.174 326.439 366.684 326.694 367.194ZM215.884 362.986C215.884 362.859 215.884 362.732 215.884 362.604C215.884 362.476 215.756 362.476 215.756 362.349C215.629 361.839 215.629 361.201 215.756 360.691C215.884 360.181 216.139 359.671 216.521 359.288C216.904 358.906 217.286 358.651 217.796 358.523C217.924 358.523 218.051 358.396 218.051 358.396C218.306 358.396 218.562 358.268 218.817 358.268C219.072 358.268 219.327 358.268 219.582 358.396C219.709 358.396 219.709 358.396 219.837 358.523C220.347 358.778 220.729 358.906 221.112 359.288C221.494 359.671 221.749 360.054 221.877 360.564C222.004 360.946 222.004 361.201 221.877 361.584C221.749 361.966 221.622 362.221 221.367 362.476C221.239 362.604 221.112 362.604 220.984 362.731C220.984 362.859 220.984 362.986 220.984 363.114C220.984 363.369 220.857 363.624 220.729 363.879C220.474 364.262 220.092 364.644 219.582 364.772C219.199 364.899 218.689 364.899 218.307 364.899C218.179 364.899 218.179 365.027 218.051 365.027C217.924 365.027 217.669 365.027 217.541 365.154C217.031 365.154 216.521 364.899 216.139 364.644C216.011 364.517 215.884 364.262 215.756 364.006C215.884 363.496 215.884 363.241 215.884 362.986Z" fill="#DCDCDC"/>
<path d="M281.043 27.8791C279.258 0.973487 246.359 5.3088 226.212 3.77862C196.628 1.61087 166.79 1.22827 137.079 2.75844C102.395 4.41614 49.6037 2.24863 21.423 25.9664C8.16142 37.1877 2.29587 55.2947 1.78581 72.7642C1.14823 90.2337 5.10113 107.448 7.77894 124.535C14.2822 165.977 14.2823 208.44 7.52397 249.882C5.35622 263.399 2.93332 278.701 11.2218 289.539C16.3224 296.043 24.2285 299.485 32.1344 301.908C65.6707 312.364 101.757 310.069 136.824 307.646C158.119 306.116 180.434 302.546 201.729 302.801C219.071 303.056 234.373 316.445 245.339 329.579C256.305 342.713 264.211 358.015 272.117 373.189C268.419 366.175 276.453 340.29 277.6 332.002C279.513 317.465 281.298 302.801 283.083 288.264C286.398 261.486 289.077 236.238 288.056 209.46C285.634 149.018 285.124 88.5761 281.043 27.8791Z" fill="#111217"/>
<path d="M148.301 233.561C147.281 231.393 150.596 229.353 151.616 231.648C156.207 241.467 167.811 245.037 177.884 242.487C189.361 239.682 197.904 230.756 204.407 221.32C205.81 219.279 209.126 221.192 207.723 223.232C204.408 227.95 200.837 232.541 196.629 236.366C189.233 242.997 179.542 247.843 169.341 247.077C160.67 246.44 152.126 241.594 148.301 233.561ZM14.1555 163.938C24.9942 166.233 35.7053 168.656 46.5441 170.951C48.9669 171.461 49.987 167.763 47.5643 167.253C36.7255 164.958 26.0144 162.535 15.1756 160.24C12.7529 159.73 11.7327 163.428 14.1555 163.938ZM179.159 101.711C179.542 102.093 179.67 102.603 179.67 103.113C179.67 103.624 179.414 104.006 179.159 104.516C177.502 106.556 175.844 108.724 174.059 110.764C173.421 111.657 172.019 111.402 171.381 110.764C170.999 110.382 170.871 109.872 170.871 109.362C170.871 108.852 171.126 108.469 171.381 107.959C173.039 105.919 174.697 103.751 176.482 101.711C177.119 100.818 178.394 101.073 179.159 101.711ZM164.24 108.596C165.133 108.979 166.408 108.851 166.918 107.959C167.556 106.556 168.321 105.154 169.214 103.878C169.469 103.623 169.596 103.241 169.851 102.986C169.851 102.858 169.978 102.858 169.978 102.731C170.106 102.603 170.234 102.476 170.361 102.348C170.871 101.711 171.381 101.073 172.019 100.563C172.784 99.7981 172.784 98.5228 172.019 97.8853C171.254 97.1202 170.106 97.1202 169.341 97.8853C166.918 100.308 165.005 103.113 163.603 106.174C163.348 106.684 163.22 107.066 163.348 107.704C163.475 107.831 163.858 108.341 164.24 108.596ZM185.025 96.1002C185.663 96.9928 186.173 97.8852 186.683 98.7778C186.81 99.2878 187.065 99.6705 187.193 100.181C187.448 101.201 188.596 101.838 189.488 101.456C190.508 101.201 191.146 100.181 190.763 99.1604C189.998 96.6101 188.723 94.3149 186.938 92.5297C186.3 91.7646 184.898 91.7646 184.26 92.5297C183.495 93.2948 183.495 94.4422 184.26 95.2073C184.643 95.4623 184.898 95.7176 185.025 96.1002ZM171.381 88.8316C172.529 88.8316 173.804 88.9593 174.952 89.0869C175.334 89.0869 175.717 89.2142 175.972 89.2142C176.099 89.2142 176.354 89.2143 176.482 89.3418C176.609 89.4693 176.737 89.5969 176.864 89.7244C177.757 90.2345 179.032 89.9795 179.542 89.0869C179.925 88.3218 179.925 87.5564 179.542 86.9189C179.159 86.4088 178.649 86.0264 178.012 85.7714C177.374 85.6438 176.609 85.5163 175.972 85.3887C174.441 85.1337 172.911 85.0061 171.381 85.0061C170.361 85.0061 169.468 85.8987 169.468 86.9189C169.596 88.0665 170.361 88.8316 171.381 88.8316ZM142.308 150.421C142.308 150.676 142.435 150.931 142.563 151.186C142.69 151.442 142.945 151.696 143.073 151.951C143.328 152.206 143.583 152.461 143.838 152.589C144.093 152.716 144.475 152.844 144.73 152.972C144.985 153.099 145.368 153.099 145.751 153.099C145.878 153.099 145.878 153.099 146.006 153.099C146.261 153.099 146.516 153.099 146.771 152.972C147.026 152.844 147.408 152.716 147.663 152.589C148.173 152.334 148.301 152.079 148.684 151.569C148.939 151.314 148.939 151.059 149.066 150.676C149.194 150.421 149.193 150.039 149.193 149.656C149.193 149.401 149.193 149.146 149.193 148.891C149.193 148.636 149.066 148.381 149.066 148.126C148.939 147.871 148.939 147.616 148.811 147.488C148.684 147.233 148.556 147.106 148.429 146.978C148.174 146.723 147.918 146.468 147.663 146.341C147.408 146.213 147.281 146.086 147.026 146.086C146.898 146.086 146.898 146.086 146.771 145.958C146.516 145.831 146.133 145.831 145.751 145.831C144.986 145.831 144.348 146.086 143.711 146.468C143.583 146.596 143.328 146.723 143.073 146.978C142.945 147.106 142.69 147.361 142.563 147.616C142.563 147.744 142.435 147.743 142.435 147.871C142.308 148.126 142.18 148.381 142.18 148.636C142.18 148.764 142.18 149.019 142.18 149.146C142.18 149.274 142.053 149.401 142.18 149.656C142.18 149.911 142.18 150.166 142.308 150.421ZM290.225 225.783C290.097 237.896 289.205 250.01 288.057 261.997C286.91 274.366 285.252 286.607 283.721 298.849C282.956 305.097 282.192 311.217 281.426 317.466C280.789 322.949 280.151 328.432 279.258 333.788C278.111 340.546 276.198 347.304 274.923 354.062C274.158 357.633 273.52 361.331 273.265 365.029C273.138 367.324 272.883 370.257 273.903 372.297C275.051 374.465 271.735 376.377 270.588 374.21C267.145 367.579 263.702 360.948 260.004 354.573C252.736 341.821 244.32 329.707 233.481 319.761C228.38 315.043 222.77 310.962 216.394 308.157C213.334 306.754 210.146 305.862 206.958 305.224C203.26 304.587 199.434 304.714 195.736 304.842C179.669 305.224 163.603 307.264 147.536 308.795C131.597 310.325 115.53 311.345 99.4627 311.6C83.7784 311.983 67.9667 311.345 52.4099 308.667C44.759 307.392 37.1081 305.607 29.7122 303.056C23.464 301.016 17.2158 298.211 12.4977 293.493C2.55156 283.802 3.06162 269.138 4.84683 256.386C5.86694 248.735 7.26973 241.212 8.16233 233.561C9.18245 225.4 9.81996 217.112 10.33 208.823C11.2226 192.374 11.0952 175.924 10.0751 159.602C8.92742 143.153 6.50446 126.831 3.82665 110.637C-0.763884 83.3486 -4.07914 51.2149 16.0682 29.0273C23.7191 20.6113 34.3029 15.1283 44.8866 11.3029C56.2355 7.34991 68.2218 5.1821 80.2082 3.90695C92.4496 2.50429 104.691 1.99417 116.932 1.61162C129.939 1.22908 142.945 0.463864 155.952 0.208835C172.911 -0.17371 189.871 -0.0460081 206.83 0.71908C214.354 1.10162 221.75 1.61168 229.145 1.99423C233.608 2.24926 238.199 2.24932 242.662 2.37683C251.715 2.63186 261.152 3.26938 269.568 7.09482C278.111 11.0478 282.702 18.5712 283.339 27.8798C283.594 31.0677 283.722 34.2555 283.977 37.4434C285.507 62.5638 286.527 87.684 287.292 112.804C288.057 138.052 288.695 163.3 289.587 188.421C289.587 200.917 290.352 213.414 290.225 225.783ZM286.399 217.877C286.272 205.253 285.507 192.629 285.124 180.005C284.359 154.629 283.594 129.254 282.829 104.006C281.936 78.6306 280.916 53.2552 279.258 27.8798C279.003 23.6718 277.729 19.4636 275.051 16.1482C269.823 9.64493 260.769 7.85978 252.863 6.96718C244.064 5.94706 235.138 6.3296 226.34 5.69203C209.763 4.5444 193.186 3.90682 176.609 3.77931C161.307 3.6518 146.133 4.41707 130.831 4.92713C107.496 5.81973 83.7786 5.69222 60.826 10.6653C49.7322 13.0881 38.8934 16.6584 29.2023 22.6516C18.6185 29.4098 11.3501 39.3559 7.39712 51.2147C2.9341 64.8588 3.06181 79.268 4.7195 93.2946C6.63222 109.234 10.0749 124.918 11.8601 140.858C15.5581 172.991 15.303 205.635 11.2226 237.769C10.33 245.037 8.9273 252.178 8.03469 259.446C7.26961 265.822 6.88712 272.58 8.4173 278.829C10.075 285.459 13.9005 290.688 19.6387 294.258C25.3768 297.956 32.1351 299.869 38.7659 301.654C48.457 304.204 58.2754 305.862 68.2216 306.627C68.2216 306.499 68.2216 306.372 68.2216 306.244C68.2216 295.023 68.0943 283.802 67.8393 272.58C67.0742 233.306 65.1613 194.159 63.5036 154.884C47.4367 152.717 31.3698 150.549 15.303 148.381C14.2829 148.254 13.7728 146.978 14.0278 146.086C14.2829 144.938 15.303 144.556 16.3232 144.811C32.9001 147.106 49.3497 149.274 65.9266 151.569C66.8192 151.697 67.329 152.717 67.329 153.354C67.8391 164.575 68.2218 175.797 68.7318 187.018C69.3694 202.192 70.0069 217.494 70.5169 232.668L70.6446 232.541C86.2013 221.32 103.161 212.011 121.013 204.87C121.14 204.87 121.268 204.743 121.395 204.743C122.033 201.427 122.543 198.112 123.181 194.796C126.368 177.582 129.556 160.24 132.744 143.025C122.926 137.542 112.979 131.932 103.161 126.448C101.758 125.683 102.013 123.898 103.161 123.133C108.644 119.053 114.127 114.972 119.61 110.892C129.811 103.241 139.885 95.4624 150.086 87.939C155.059 84.2411 159.905 80.1606 165.388 77.3553C168.321 75.8251 171.254 74.6775 174.441 73.9124C172.401 72.8923 170.361 71.4896 168.448 69.4494C162.965 63.8388 160.415 45.9867 171.764 36.9331C177.629 52.745 186.938 53.5102 197.649 56.188C200.709 54.9128 203.77 53.7651 206.958 52.8725C214.864 50.5772 223.662 51.0875 229.273 57.8457C234.118 63.7114 235.139 71.3622 233.863 78.758C232.461 86.919 228.635 94.5699 224.172 101.456C222.259 104.389 220.219 107.194 218.051 109.999C221.494 110.127 224.3 112.167 226.213 114.972C228.253 118.032 228.635 121.985 228.253 125.556C227.87 129.509 226.85 133.589 225.32 137.16C222.642 143.408 216.904 148.508 209.891 148.126C209.636 148.636 209.253 148.891 208.743 149.146C207.85 150.294 206.83 151.442 205.81 152.462C205.81 152.589 205.938 152.717 205.938 152.844C208.488 171.334 211.676 189.696 215.374 207.931C215.756 207.931 216.139 208.058 216.394 208.313C230.421 219.534 243.809 231.648 256.306 244.527C257.964 246.312 255.286 248.99 253.628 247.205C241.769 234.964 229.145 223.487 215.884 212.776C212.441 218.387 206.32 221.702 200.072 223.87C192.804 226.42 185.153 228.205 177.629 229.863C169.468 231.521 160.925 232.668 152.637 231.648C151.999 231.521 151.234 231.393 150.596 231.393C150.596 231.903 150.469 232.413 150.086 232.796C143.456 239.299 132.362 240.829 124.456 235.729C116.677 230.756 112.979 220.555 115.785 211.756C115.912 211.373 116.167 210.991 116.422 210.863C100.993 217.494 86.3287 225.91 72.6846 235.729C71.9195 236.239 71.2819 236.111 70.7719 235.729C71.2819 250.393 71.6647 265.057 71.9197 279.721C77.1478 273.856 86.3288 272.07 93.2146 276.151C95.3823 277.426 93.4696 280.741 91.3019 279.466C85.6912 276.151 77.7853 277.809 74.0874 283.164C73.5773 283.802 72.8121 284.184 72.047 284.057C72.1745 289.795 72.1747 295.405 72.1747 301.144C77.0202 296.681 84.2884 295.023 90.5367 297.318C91.5568 297.701 92.1944 298.593 91.8118 299.614C91.5568 300.506 90.4094 301.271 89.5168 300.889C83.9061 298.848 77.4029 300.634 73.5775 305.224C73.1949 305.607 72.8124 305.734 72.3023 305.734C72.3023 305.862 72.3023 305.989 72.3023 306.117C72.3023 306.372 72.3022 306.499 72.1747 306.754C92.1945 308.157 112.342 307.009 132.362 305.734C148.173 304.714 163.858 302.674 179.67 301.399C187.448 300.761 195.481 300.251 203.387 300.506C209.763 300.761 215.884 302.801 221.495 305.734C233.481 312.11 243.299 322.439 251.333 333.15C258.474 342.586 264.339 352.915 269.823 363.371C270.205 358.525 271.353 353.68 272.373 349.089C273.775 342.331 275.688 335.445 276.581 328.559C279.769 303.694 283.339 278.829 285.379 253.963C285.889 242.359 286.527 230.118 286.399 217.877ZM120.503 209.716V209.588C119.355 210.098 118.208 210.481 117.187 210.991C118.463 210.863 119.865 211.756 119.355 213.286C117.06 220.427 119.865 228.843 126.241 232.923C132.489 236.876 141.16 235.984 146.771 231.011C136.06 228.333 125.986 221.957 121.395 211.756C120.758 211.373 120.248 210.608 120.503 209.716ZM136.57 142.898C136.187 145.066 135.805 147.361 135.294 149.529C131.597 169.421 127.898 189.313 124.328 209.333C124.328 209.461 124.456 209.461 124.456 209.588C127.261 215.837 132.107 220.554 137.972 223.742C150.851 230.756 165.898 229.225 179.797 226.038C186.683 224.507 193.569 222.85 200.199 220.299C204.917 218.514 209.508 215.836 212.313 211.628C212.058 211.373 211.803 211.118 211.676 210.608C207.978 192.629 204.918 174.522 202.24 156.287C193.824 164.065 183.367 169.676 172.146 172.226C171.253 173.502 169.978 174.267 168.448 174.777C166.663 175.414 164.368 175.797 162.455 175.797C160.542 175.797 158.63 175.287 157.1 173.884C156.335 173.119 155.824 172.226 155.569 171.334C155.059 171.589 154.294 171.716 153.784 171.334C152.891 170.824 152.509 169.549 153.147 168.656C155.187 165.596 158.502 163.683 162.073 163.3C165.133 162.918 168.321 163.683 170.871 165.596C171.764 166.233 172.401 167.126 172.784 168.146C184.77 165.086 195.737 158.455 203.897 149.274C201.602 148.509 199.562 146.978 198.032 145.066C195.481 141.75 194.844 137.542 195.481 133.462C196.246 128.999 198.542 124.791 201.474 121.093L199.689 120.71C190.891 111.402 195.354 101.456 194.589 93.0396C193.569 81.4358 188.086 79.6505 181.327 77.3553H181.2C174.824 77.4828 168.831 79.7782 163.475 83.2211C158.247 86.5364 153.401 90.4895 148.556 94.1874C143.583 97.8854 138.61 101.711 133.637 105.409C124.966 112.039 116.167 118.543 107.369 125.046C116.805 130.402 126.113 135.63 135.549 140.858C136.442 141.24 136.697 142.133 136.57 142.898ZM221.877 98.2679C228.38 87.6841 235.649 70.7245 225.575 60.1408C219.837 54.2751 211.548 55.8053 204.662 58.228C204.28 58.3556 203.897 58.4831 203.515 58.6106C207.595 60.1408 211.931 62.3086 216.266 66.0066C224.555 72.8924 225.065 85.8989 221.877 98.2679ZM199.179 135.247C198.797 140.093 201.73 145.448 206.703 145.831C206.83 145.703 206.958 145.576 207.085 145.448C207.723 144.556 208.871 144.428 209.636 144.811C216.521 145.703 221.112 138.818 222.897 133.079C224.427 127.979 226.212 120.583 222.004 116.247C217.541 111.402 211.548 116.375 208.105 119.818C203.898 124.026 199.562 128.999 199.179 135.247ZM168.703 169.039C168.831 169.039 168.958 169.038 169.086 168.911C168.958 168.783 168.831 168.656 168.703 168.528C167.938 167.891 167.173 167.508 166.281 167.253C164.878 166.871 163.475 166.743 162.073 166.998C162.073 167.126 162.073 167.253 162.073 167.508C162.073 168.529 161.18 169.549 160.16 169.421C159.905 169.421 160.032 169.294 159.905 169.421C159.777 169.421 159.777 169.421 159.65 169.676C159.395 170.059 159.395 170.186 159.522 170.441C159.65 170.696 159.905 171.079 160.287 171.334C160.67 171.589 161.18 171.844 161.69 171.844C163.093 172.099 164.495 171.716 165.898 171.461C166.408 171.334 166.918 171.206 167.428 171.079C167.173 170.186 167.428 169.166 168.703 169.039ZM209.253 126.321C211.676 127.724 214.099 129.126 216.521 130.402C217.414 130.912 218.689 130.657 219.199 129.764C219.709 128.871 219.454 127.724 218.562 127.086C216.139 125.683 213.716 124.281 211.293 123.006C210.401 122.496 209.125 122.751 208.615 123.643C208.105 124.663 208.36 125.811 209.253 126.321ZM206.193 132.569C209.381 134.099 212.441 135.757 215.629 137.287C216.521 137.797 217.797 137.542 218.307 136.65C218.817 135.757 218.562 134.482 217.669 133.972C214.481 132.442 211.421 130.784 208.233 129.254C207.34 128.744 206.065 128.999 205.555 129.892C205.045 130.784 205.3 132.059 206.193 132.569ZM48.2018 267.352C48.0743 276.661 47.6917 285.842 47.1817 295.151C47.0541 297.573 50.8796 297.573 51.0071 295.151C52.6648 262.762 52.5373 230.246 50.7521 197.729C50.2421 188.421 49.6045 179.24 48.8394 169.931C48.5844 167.508 44.7589 167.508 45.014 169.931C47.8193 202.32 48.8394 234.836 48.2018 267.352ZM142.563 300.761C133.382 294.131 126.114 285.332 117.57 277.809C109.664 270.795 100.355 265.057 89.6441 263.654C83.906 262.889 78.1678 263.782 73.0672 266.332C70.8995 267.48 72.8122 270.668 74.9799 269.648C83.906 265.185 94.4897 267.48 103.033 272.071C112.342 277.044 119.483 284.822 126.878 292.218C131.214 296.553 135.677 300.634 140.65 304.204C142.69 305.479 144.603 302.164 142.563 300.761ZM95.8925 288.392C88.7517 283.802 78.933 284.694 72.5573 290.305C70.6446 291.963 73.4497 294.641 75.2349 292.983C80.3355 288.52 88.2416 288.137 93.9798 291.708C96.02 293.11 98.0603 289.795 95.8925 288.392Z" fill="#DCDCDC"/>
</svg>
