<svg width="528" height="600" viewBox="0 0 528 600" fill="none" xmlns="http://www.w3.org/2000/svg">
<path d="M204.918 490.248C203.898 465.51 175.844 451.101 151.234 448.296C126.624 445.618 100.101 448.806 78.4231 436.564C59.0409 425.598 47.6921 404.176 41.8264 382.626C35.9607 361.076 34.3032 338.633 28.31 317.083C19.2565 284.312 0.256555 253.581 0.00152555 219.534C-0.253504 178.219 31.4979 138.817 71.92 130.274C94.4901 125.556 118.463 129.509 140.778 123.388C189.489 109.999 214.609 53.8924 260.514 32.725C289.97 19.0809 324.399 21.5037 356.278 28.2619C371.325 31.4498 386.244 35.5305 399.378 43.4364C419.015 55.2952 433.297 75.8251 437.632 98.2677C447.579 149.529 408.686 197.219 402.056 249.118C398.868 274.111 403.458 299.996 415.19 322.439C424.626 340.418 438.27 355.848 447.961 373.7C457.524 391.552 462.753 413.739 453.954 431.974C449.108 442.047 440.31 449.953 430.746 455.819C399.505 475.074 360.486 474.946 323.762 474.181" fill="#F4F6F9"/>
<path d="M333.197 287.245C333.197 296.299 333.325 306.245 339.063 313.258C346.842 322.949 361.251 323.332 373.62 322.822C404.988 321.547 436.357 320.144 467.598 318.231C482.645 317.339 486.598 326.392 494.759 338.506C503.047 350.747 510.06 363.754 515.798 377.271C518.476 345.392 527.275 311.473 525.49 279.467C522.684 225.783 519.752 172.227 516.946 118.543C516.564 111.657 516.054 104.389 511.846 99.0333C504.96 90.2348 491.953 90.3623 480.86 91.3825C455.739 93.5502 430.746 95.5904 405.626 97.7582C387.009 99.2884 359.338 96.9932 344.291 110.255C337.278 116.503 333.708 125.939 332.942 135.375C331.795 147.106 334.345 158.71 334.09 170.442C333.707 183.448 333.963 196.455 333.835 209.334C333.58 235.347 333.452 261.232 333.197 287.245Z" fill="white"/>
<path d="M527.53 281.252C527.02 269.903 526.382 258.427 525.745 247.078C524.47 224.125 523.322 201.3 522.047 178.347C521.41 166.871 520.772 155.395 520.262 144.046C520.007 138.308 519.624 132.569 519.369 126.831C519.114 121.603 518.987 116.503 518.349 111.275C517.711 106.812 516.564 102.093 513.886 98.3954C511.463 95.08 508.275 92.7849 504.45 91.2548C496.672 88.1944 487.873 88.7043 479.712 89.4694C456.887 91.3821 434.189 93.2949 411.364 95.3352C403.076 96.1003 394.787 96.3554 386.371 96.738C378.21 97.1205 369.922 97.7578 361.888 99.6706C354.365 101.583 346.842 104.771 341.359 110.509C334.983 117.14 331.923 126.194 331.03 135.12C329.882 146.214 332.177 157.18 332.177 168.274C332.177 179.622 331.923 190.844 331.923 202.193C331.923 225.018 331.668 247.715 331.413 270.54C331.413 276.151 331.285 281.762 331.285 287.373C331.285 294.768 331.285 302.419 334.345 309.305C337.151 315.681 342.506 320.144 349.01 322.566C355.385 324.862 362.398 325.117 369.157 325.117C378.083 324.989 386.881 324.479 395.808 324.097C414.425 323.331 433.042 322.439 451.659 321.419C456.377 321.164 460.967 320.909 465.558 320.526C468.873 320.271 472.189 320.144 475.377 321.164C480.605 322.694 484.048 326.775 487.108 330.983C497.564 346.029 506.873 361.841 514.014 378.673C514.779 380.586 517.457 379.31 517.584 377.653C519.369 356.103 523.705 334.936 526 313.513C527.275 302.547 528.04 291.835 527.53 281.252ZM523.577 299.104C522.43 320.271 518.349 341.056 515.544 361.969C515.161 364.646 514.906 367.197 514.651 369.875C511.973 364.136 509.168 358.526 505.98 353.043C502.027 346.029 497.564 339.271 493.101 332.513C490.041 327.922 486.98 323.077 482.39 319.889C477.034 316.063 470.786 316.063 464.41 316.446C446.048 317.593 427.559 318.486 409.197 319.379C399.888 319.761 390.579 320.144 381.271 320.654C373.747 320.909 366.224 321.546 358.701 320.654C351.56 319.761 344.036 317.338 339.828 311.09C335.11 304.204 335.11 295.278 335.11 287.245C335.238 264.93 335.366 242.742 335.621 220.427C335.748 209.333 335.748 198.239 335.748 187.018C335.748 181.535 335.875 175.924 336.003 170.441C336.13 165.086 335.748 159.73 335.238 154.502C334.473 144.428 333.835 134.227 337.278 124.536C340.083 116.503 345.694 110.382 353.345 106.684C360.358 103.368 368.264 101.966 375.915 101.328C383.821 100.563 391.854 100.436 399.76 100.053C409.834 99.5431 419.908 98.5231 429.982 97.6305C441.075 96.7379 452.169 95.7179 463.135 94.8252C468.746 94.3152 474.356 93.9325 479.84 93.4225C484.048 93.0399 488.128 92.785 492.336 92.9125C500.242 93.2951 508.403 95.7177 512.101 103.241C514.141 107.322 514.524 112.04 514.779 116.503C515.161 121.986 515.416 127.469 515.671 132.824C516.309 144.046 516.819 155.267 517.456 166.488C518.604 188.804 519.879 211.246 521.027 233.561C521.664 244.655 522.174 255.876 522.812 266.97C523.577 277.809 524.087 288.393 523.577 299.104ZM484.813 215.964C475.504 214.307 465.941 212.649 457.652 207.676C450.384 203.34 444.773 196.709 442.988 188.421C441.203 180.388 442.605 172.099 443.115 163.938C443.243 161.77 443.243 159.475 443.115 157.307C442.988 155.522 442.861 153.737 442.095 152.207C440.438 149.147 436.357 149.019 433.552 150.167C427.431 152.589 424.753 159.985 424.498 166.106C424.116 174.522 426.921 182.555 427.431 190.971C427.686 196.964 427.048 204.36 422.075 208.568C416.465 213.286 408.687 212.011 401.928 211.246C394.022 210.353 384.969 210.481 378.72 216.219C374.13 220.427 372.6 227.95 376.935 232.669C381.908 235.984 388.029 237.132 393.767 235.601C396.19 234.964 397.21 238.662 394.787 239.299C388.922 240.829 382.546 240.064 377.19 237.259C373.492 241.34 374.257 248.225 379.741 250.521C380.251 250.776 380.633 251.158 380.888 251.541C386.499 253.198 392.365 253.709 398.103 252.944C399.123 252.816 400.016 253.964 400.016 254.856C400.016 256.004 399.123 256.641 398.103 256.769C391.982 257.534 385.734 257.024 379.868 255.239C377.955 259.829 379.741 265.057 383.949 267.608C384.331 267.48 384.714 267.353 385.224 267.608C391.982 269.775 399.123 270.286 406.009 268.883C408.431 268.373 409.452 272.071 407.029 272.581C400.526 273.856 393.895 273.728 387.646 272.198C385.606 274.493 387.391 277.809 389.559 279.339C392.492 281.507 396.445 282.399 399.888 283.164C414.042 285.842 427.049 279.466 440.693 276.661C454.464 273.856 468.746 274.494 482.135 278.446C484.558 279.084 483.538 282.782 481.115 282.144C472.699 279.722 464.028 278.574 455.229 278.829C447.706 279.084 440.31 280.487 433.169 282.527C425.901 284.567 418.76 286.862 411.237 287.627C404.096 288.265 396.318 287.117 389.814 284.057C387.009 282.654 384.459 280.487 383.439 277.426C382.801 275.641 382.928 273.601 383.566 271.815C376.808 268.755 373.62 260.722 376.425 253.963C376.17 253.708 375.915 253.198 375.915 252.816C373.492 251.031 371.707 248.48 371.197 245.42C370.56 241.85 371.58 238.024 374.002 235.346C368.902 229.736 369.922 220.682 374.768 215.071C381.016 207.803 391.217 206.528 400.271 207.421C406.646 208.058 416.082 210.608 420.8 204.615C424.753 199.515 423.988 191.481 423.096 185.488C421.82 176.945 419.27 168.019 421.948 159.475C423.861 152.972 428.706 146.724 435.847 145.958C439.29 145.576 442.988 146.724 445.156 149.657C447.451 152.972 447.451 157.562 447.323 161.388C447.196 169.804 445.283 178.475 446.813 186.891C448.344 194.924 453.444 201.045 460.457 204.998C468.236 209.461 477.289 210.991 486.088 212.521C488.256 212.649 487.236 216.347 484.813 215.964ZM387.391 114.207C386.116 112.167 389.432 110.254 390.707 112.295C395.425 119.691 401.291 126.321 407.921 132.059C408.687 132.697 408.559 134.1 407.921 134.737C407.156 135.502 406.009 135.375 405.243 134.737C398.358 128.871 392.364 121.986 387.391 114.207ZM459.182 138.435C464.41 131.422 469.766 124.409 474.994 117.395C475.632 116.63 476.652 116.12 477.672 116.758C478.437 117.268 478.947 118.543 478.309 119.435C473.081 126.449 467.726 133.462 462.498 140.475C461.86 141.24 460.84 141.75 459.82 141.113C459.055 140.603 458.545 139.328 459.182 138.435ZM434.062 129.127C434.062 122.878 434.062 116.63 434.062 110.382C434.062 107.959 437.887 107.959 437.887 110.382C437.887 116.63 437.887 122.878 437.887 129.127C437.887 131.677 434.062 131.677 434.062 129.127Z" fill="black"/>
<path d="M201.602 305.225C255.796 298.721 310.373 296.044 364.949 296.936C372.472 297.064 380.633 297.446 386.371 302.292C394.532 309.178 394.532 321.546 393.767 332.13C389.559 392.445 385.351 452.632 381.143 512.946C380.633 519.959 379.996 527.355 375.405 532.711C371.835 536.791 366.479 538.832 361.251 540.489C327.587 551.073 288.44 554.006 253.628 548.14C239.219 545.717 233.098 547.63 221.877 557.831C210.273 568.415 200.455 580.911 192.931 594.81C191.784 596.851 189.361 599.274 187.576 597.743C186.938 597.106 186.811 596.213 186.683 595.321C181.2 551.201 176.227 508.738 176.609 464.363C176.992 417.947 182.985 371.787 188.851 325.754C189.488 321.036 190.126 316.063 192.804 312.11C195.482 308.157 198.67 305.607 204.153 305.607" fill="white"/>
<path d="M395.807 321.419C395.552 315.553 394.405 309.305 390.834 304.459C386.881 299.103 380.888 296.553 374.513 295.661C366.989 294.641 359.211 294.895 351.56 294.895C343.144 294.895 334.728 294.896 326.312 295.023C292.776 295.533 259.367 297.446 226.085 300.634C217.924 301.399 209.763 302.291 201.602 303.312C201.092 303.312 200.71 303.567 200.327 303.949C195.737 305.097 192.166 308.285 189.998 312.748C188.341 315.935 187.703 319.378 187.193 322.949C186.683 326.902 186.173 330.982 185.663 334.935C183.495 351.512 181.455 368.089 179.67 384.666C176.1 417.947 173.804 451.356 174.824 484.892C175.717 517.791 179.287 550.563 183.24 583.206C183.751 587.287 184.133 591.495 184.771 595.575C185.153 598.636 187.703 601.058 190.891 599.528C193.824 597.998 195.099 594.555 196.629 591.877C198.415 588.689 200.455 585.629 202.495 582.569C206.703 576.576 211.294 570.837 216.394 565.609C220.857 560.891 225.703 556.046 231.313 552.603C235.521 549.925 240.112 548.905 245.212 549.032C252.098 549.287 258.857 550.945 265.615 551.71C280.789 553.368 296.091 553.495 311.137 552.093C326.057 550.818 340.976 548.14 355.513 544.059C362.016 542.274 369.029 540.489 374.385 536.153C379.741 531.818 381.653 525.06 382.418 518.556C382.546 517.026 382.801 515.496 382.928 513.838C383.183 513.456 383.184 513.073 383.056 512.563C383.566 506.57 383.821 500.449 384.204 494.456C384.841 486.04 385.351 477.497 385.989 469.081C387.137 452.376 388.284 435.672 389.559 418.967C390.707 402.008 391.982 385.176 393.13 368.216C393.767 359.801 394.277 351.257 394.915 342.841C395.425 335.828 396.19 328.559 395.807 321.419ZM378.976 514.986C378.466 521.362 377.445 528.248 372.472 532.838C367.499 537.301 359.976 538.959 353.728 540.616C352.452 540.999 351.177 541.254 350.029 541.637C349.902 541.382 349.775 541.126 349.52 540.871C342.251 534.751 341.869 523.147 345.949 515.113C350.157 506.697 359.848 501.214 369.157 504.147C373.492 505.55 377.318 508.865 379.231 513.073C379.103 513.711 379.103 514.349 378.976 514.986ZM379.613 506.825C374.13 500.449 365.204 497.899 356.915 500.704C345.822 504.402 339.191 515.496 339.573 526.972C339.701 532.711 341.741 538.704 345.822 542.784C341.614 543.804 337.278 544.697 333.07 545.462L332.943 545.334C332.433 545.079 331.923 544.824 331.413 544.442C331.157 544.314 331.03 544.187 330.775 544.059L330.647 543.932C330.647 543.932 330.52 543.804 330.392 543.804C329.5 543.039 328.735 542.274 327.97 541.509C327.842 541.381 327.842 541.254 327.714 541.254C327.587 540.999 327.332 540.744 327.204 540.616C326.949 540.106 326.567 539.724 326.312 539.214C326.057 538.704 325.802 538.194 325.547 537.811C325.419 537.556 325.292 537.301 325.164 537.046L325.037 536.791C325.037 536.663 324.909 536.663 324.909 536.536C324.654 535.898 324.144 535.388 323.507 535.133C323.124 534.368 322.231 534.113 321.339 534.241C318.533 534.623 315.728 535.006 313.05 535.388C312.413 535.516 311.775 535.516 311.01 535.643C310.628 535.643 310.373 535.771 309.99 535.771C309.99 535.771 309.735 535.771 309.607 535.771C309.607 535.643 309.607 535.516 309.607 535.388C309.48 534.878 309.607 534.368 309.607 533.986C309.862 529.268 310.117 524.55 310.5 519.704C314.198 520.979 318.151 521.489 322.104 521.107C323.124 520.979 324.017 520.341 324.017 519.194C324.017 518.939 323.889 518.556 323.762 518.301C325.037 511.798 327.714 505.55 331.922 500.322C332.56 499.557 332.688 498.409 331.922 497.644C331.54 497.261 330.902 497.007 330.265 497.134C327.587 495.476 324.909 493.691 322.232 492.033C327.842 487.953 333.325 483.872 338.936 479.92C339.191 483.235 340.466 486.423 342.506 489.101V489.228C342.761 490.12 343.909 491.013 344.802 490.503C349.265 488.718 353.983 488.08 358.701 488.335C359.721 488.463 360.613 487.443 360.613 486.423C360.613 485.785 360.358 485.403 359.976 485.02C361.123 481.067 362.526 477.369 364.439 473.799C365.204 474.436 366.224 474.946 367.244 475.329C368.392 475.711 369.54 475.839 370.687 475.966C371.707 476.094 372.982 476.349 373.62 477.114C375.15 478.772 373.237 481.832 372.345 483.362C370.942 485.913 369.54 488.973 370.687 491.778C371.07 492.671 371.835 493.308 372.855 493.181C372.982 493.308 372.982 493.436 373.11 493.436C373.365 493.563 373.62 493.819 373.875 493.946C375.533 495.221 376.935 496.624 378.21 498.282C378.338 498.409 378.465 498.537 378.465 498.664C378.72 499.047 379.103 499.429 379.613 499.557C379.741 499.557 379.868 499.557 379.995 499.557C379.995 501.979 379.741 504.402 379.613 506.825ZM309.735 535.771C309.735 535.643 309.735 535.643 309.735 535.771C309.863 535.643 309.735 535.643 309.735 535.771ZM390.962 344.244C389.814 360.566 388.667 376.76 387.519 393.082C385.224 425.853 382.928 458.625 380.633 491.396C380.506 492.543 380.506 493.691 380.378 494.711C378.848 492.926 377.063 491.268 375.023 489.865C374.767 489.738 374.385 489.61 374.002 489.61C373.747 487.443 375.405 485.402 376.298 483.49C377.573 481.067 378.466 478.134 377.063 475.457C375.915 473.034 373.237 472.269 370.814 471.886C369.539 471.759 366.224 471.504 366.096 469.718C365.969 467.806 363.546 467.04 362.526 468.698C359.721 473.544 357.553 478.644 356.023 484.127V484.255C352.325 484.255 348.499 484.892 344.929 486.168C343.016 483.362 341.996 479.792 342.506 476.476C342.761 475.074 341.231 473.161 339.701 474.309C332.433 479.664 325.037 485.02 317.769 490.376C316.621 491.268 316.493 492.798 317.769 493.691C320.956 495.731 324.144 497.771 327.459 499.812C323.762 505.04 321.211 511.033 319.936 517.281C316.366 517.281 312.923 516.644 309.607 515.241C308.205 514.603 306.802 515.369 306.674 516.899C306.419 520.214 306.292 523.529 306.037 526.845C305.909 528.502 305.782 530.16 305.782 531.945C305.654 533.348 305.527 534.751 305.782 536.153C306.037 537.429 306.675 538.449 307.695 539.086C309.097 539.851 310.882 539.341 312.413 539.086C315.473 538.704 318.406 538.194 321.466 537.811C322.869 541.126 324.909 544.059 327.587 546.355C314.581 548.395 301.446 549.415 288.312 549.287C281.172 549.287 273.903 548.778 266.763 548.14C260.004 547.375 253.246 545.845 246.488 545.462C241.515 545.207 236.669 545.845 232.078 548.012C226.723 550.563 222.132 554.771 217.924 558.851C207.723 568.542 198.925 579.891 192.039 592.26C191.274 593.535 190.764 595.065 189.489 595.958C189.234 596.213 188.978 596.34 188.723 596.213C188.341 595.958 188.341 593.663 188.213 593.408C187.703 589.455 187.193 585.502 186.811 581.549C185.79 573.515 184.898 565.482 184.005 557.321C182.22 541.509 180.69 525.697 179.797 509.758C179.16 499.047 178.777 488.463 178.65 477.752C192.421 476.476 204.663 483.49 215.757 491.141C208.488 500.704 200.837 510.14 193.059 519.321C191.401 519.066 190.254 521.489 191.656 522.764C192.039 523.402 192.677 524.039 193.442 524.039C199.817 528.375 206.193 532.711 212.569 536.919C214.227 538.066 215.757 536.153 215.246 534.623C222.77 525.06 230.293 515.496 237.944 505.932C239.984 507.08 242.025 507.973 244.065 508.993C251.206 512.053 260.004 514.603 267.273 510.778C271.863 508.355 274.924 502.617 273.776 497.644C278.621 498.409 283.722 496.879 287.165 493.309C291.245 488.973 292.138 482.215 289.715 476.859C294.943 475.456 300.554 473.289 303.232 468.316C305.144 464.873 305.4 460.41 303.359 457.094C306.165 456.074 308.46 453.779 309.862 451.101C311.903 447.021 311.903 442.43 310.245 438.222C309.735 436.819 309.097 435.544 308.332 434.269C312.923 429.169 313.305 421.008 309.352 415.397C310.373 413.867 311.52 412.337 312.54 410.679C318.661 410.551 324.782 410.424 330.902 410.296C331.667 410.806 332.815 410.806 333.453 410.169C338.298 404.176 343.271 398.31 348.117 392.317C348.754 391.552 348.882 390.531 348.244 389.766C349.01 383.391 349.647 376.888 350.412 370.512C350.412 370.384 350.54 370.257 350.54 370.002C350.54 369.747 350.54 369.364 350.667 369.109V368.982C351.942 367.324 349.52 364.901 347.734 366.559C344.419 369.619 341.103 372.679 337.916 375.867C338.681 369.874 338.936 363.881 338.298 357.888C338.171 356.868 337.533 355.975 336.385 355.975C336.003 355.975 335.62 356.103 335.365 356.358C329.372 355.975 323.379 355.975 317.386 356.358C319.299 353.425 321.211 350.619 323.124 347.686C323.252 347.431 323.379 347.176 323.379 347.049C324.909 346.029 323.889 343.096 321.721 343.606C313.433 345.774 305.145 347.432 296.729 348.579C295.708 348.707 294.943 349.344 294.816 350.237C291.118 356.995 287.42 363.753 283.849 370.384C283.594 370.894 283.594 371.404 283.722 371.787C283.722 372.042 283.594 372.424 283.722 372.679C285.124 380.075 287.802 387.344 291.5 393.974C289.843 396.397 288.312 398.82 286.655 401.243C286.527 401.243 286.272 401.115 286.145 401.115C263.83 398.82 241.132 401.115 219.709 408.129C217.414 408.894 218.434 412.592 220.73 411.826C240.877 405.323 262.3 402.901 283.34 404.686C282.192 407.236 280.534 409.404 278.494 411.317C273.138 409.914 267.655 409.149 262.172 408.894C259.749 408.766 259.749 412.591 262.172 412.719C267.4 412.847 272.628 413.739 277.729 415.014C277.729 415.014 277.729 415.014 277.856 415.142C284.36 419.222 291.245 422.665 297.111 427.511C302.339 431.719 308.97 438.732 307.695 446.128C307.057 449.699 304.634 453.269 301.064 453.906C295.071 448.296 287.802 444.343 279.769 442.303C277.346 441.665 276.326 445.363 278.749 446C285.89 447.786 292.393 451.229 297.748 456.202C297.748 456.712 298.131 457.349 298.641 457.604C301.957 459.645 301.446 464.618 299.406 467.423C296.473 471.376 290.863 472.651 286.4 473.799C280.279 468.826 273.648 464.618 266.507 461.302C265.615 460.92 264.467 461.047 263.83 461.94C263.32 462.705 263.575 464.108 264.467 464.618C272.118 468.188 279.259 472.651 285.635 478.262C285.89 478.389 286.017 478.517 286.272 478.644C287.93 482.597 287.42 487.443 284.487 490.631C281.682 493.691 277.219 494.711 273.393 493.691C273.393 493.691 273.393 493.564 273.266 493.564C267.783 487.315 260.642 482.725 252.736 480.175C250.441 479.409 249.421 483.107 251.716 483.872C257.964 485.913 263.575 489.356 268.293 493.946C268.038 494.584 268.165 495.221 268.803 495.859C270.715 497.772 270.588 500.577 269.695 503C268.548 505.932 265.997 507.718 263.064 508.483C255.924 510.268 247.89 506.953 241.642 503.765C227.87 496.751 216.649 485.658 202.623 479.154C195.099 475.711 187.066 473.544 178.777 474.309C178.65 453.906 179.415 433.377 181.072 412.974C182.348 396.907 184.133 380.713 186.046 364.646C187.066 356.485 188.086 348.324 189.106 340.291C189.616 336.338 190.126 332.385 190.636 328.432C191.146 324.862 191.401 321.163 192.549 317.721C194.334 312.11 198.287 307.647 204.408 307.519C204.918 307.519 205.428 307.264 205.683 307.009C236.796 303.439 268.165 301.016 299.406 299.868C315.601 299.231 331.795 298.976 347.989 299.104C355.64 299.104 363.419 298.976 371.197 299.486C377.445 299.996 383.821 301.526 387.774 306.754C391.344 311.345 392.109 317.466 392.237 323.204C392.237 329.962 391.472 337.103 390.962 344.244ZM218.817 493.309C220.22 494.329 221.622 495.349 223.025 496.241C226.723 498.919 230.548 501.469 234.374 503.892C226.978 513.328 219.582 522.637 212.186 532.073C206.831 528.503 201.603 524.932 196.247 521.362C204.025 512.181 211.549 502.872 218.817 493.309ZM294.561 391.934C290.99 385.559 288.568 378.8 287.165 371.659C290.735 365.029 294.306 358.398 298.004 351.895C304.634 351.002 311.265 349.727 317.896 348.197C312.158 356.74 306.42 365.156 300.809 373.7C300.171 374.082 299.661 374.975 299.916 375.612C299.916 376.377 300.681 377.015 301.447 377.27C308.587 383.136 316.366 388.236 324.654 392.444C325.674 392.954 326.694 392.444 327.204 391.807C327.332 391.679 327.587 391.552 327.714 391.424C333.835 385.048 340.083 378.8 346.587 372.807C345.949 378.673 345.312 384.411 344.547 390.277C344.547 390.532 344.546 390.659 344.674 390.914C340.338 396.142 336.131 401.37 331.795 406.471C325.419 406.598 318.916 406.726 312.54 406.854C312.285 406.854 312.158 406.853 312.03 406.981C311.393 406.853 310.627 407.109 310.245 407.874C306.547 413.229 302.977 418.585 299.279 424.068C297.111 422.41 294.816 420.753 292.393 419.35C289.333 417.437 286.272 415.652 283.084 413.739C283.594 413.102 283.977 412.337 284.487 411.699C288.185 406.088 292.01 400.35 295.708 394.74C296.091 393.464 295.453 392.444 294.561 391.934ZM312.923 378.673C313.05 373.572 313.05 368.599 313.178 363.498C313.178 362.988 313.05 362.606 312.795 362.351C313.433 361.458 313.943 360.566 314.581 359.673C314.836 359.801 315.091 359.8 315.346 359.8C321.721 359.29 328.097 359.291 334.473 359.673C334.983 366.049 334.6 372.552 333.325 378.8V378.928C326.439 379.565 319.681 379.31 312.923 378.673ZM330.137 383.136C328.352 384.921 326.694 386.706 324.909 388.491C321.594 386.706 318.278 384.793 315.091 382.753C320.064 383.136 325.164 383.263 330.137 383.136ZM309.225 367.707C309.097 371.277 309.097 374.975 308.97 378.545C307.44 377.398 305.782 376.122 304.379 374.975C306.037 372.552 307.695 370.129 309.225 367.707ZM301.829 426.236C303.487 423.685 305.272 421.135 306.93 418.712C308.97 422.41 308.587 427.383 306.037 430.826C304.762 429.169 303.359 427.766 301.829 426.236C301.829 426.236 301.829 426.363 301.829 426.236ZM236.797 365.411C237.434 366.304 236.924 367.579 236.159 368.089C235.266 368.599 234.119 368.216 233.481 367.451C229.656 361.841 225.83 356.23 221.877 350.619C216.904 353.807 211.804 357.123 206.831 360.311C209.508 365.539 212.059 370.767 214.737 375.995C214.737 376.123 214.864 376.25 214.864 376.377C220.092 373.317 225.32 370.129 230.548 367.069C232.716 365.794 234.629 369.109 232.461 370.384C226.978 373.7 221.495 377.015 215.884 380.203C214.609 380.968 213.334 380.075 213.079 378.928C212.441 378.928 211.676 378.673 211.421 378.035C208.743 372.807 206.193 367.451 203.515 362.223C201.857 362.223 200.837 359.673 202.623 358.653C202.623 358.653 202.75 358.653 202.75 358.525C202.877 358.27 203.133 358.015 203.388 357.888C203.643 357.76 203.898 357.633 204.153 357.633C209.508 354.19 214.864 350.747 220.22 347.177C220.857 346.666 221.622 346.794 222.132 347.177C223.025 346.666 224.173 347.049 224.683 347.814C228.636 353.68 232.716 359.546 236.797 365.411ZM326.695 367.196C327.46 368.471 327.204 370.129 326.184 371.022C325.674 371.404 325.164 371.787 324.527 371.787C324.399 371.787 324.272 371.914 324.144 371.914C323.634 372.042 323.252 372.042 322.741 371.914C322.486 371.914 322.104 371.787 321.849 371.532C320.574 370.767 320.064 369.364 320.319 367.962C320.446 367.451 320.829 366.814 321.211 366.431C321.466 366.176 321.721 366.049 321.976 365.921C322.231 365.794 322.487 365.666 322.869 365.666C323.379 365.539 323.762 365.539 324.272 365.666C324.527 365.666 324.909 365.794 325.164 365.921C325.929 366.176 326.44 366.686 326.695 367.196ZM215.884 362.988C215.884 362.861 215.884 362.733 215.884 362.606C215.884 362.478 215.757 362.478 215.757 362.351C215.629 361.841 215.629 361.203 215.757 360.693C215.884 360.183 216.139 359.673 216.522 359.29C216.904 358.908 217.287 358.653 217.797 358.525C217.924 358.525 218.052 358.398 218.052 358.398C218.307 358.398 218.562 358.27 218.817 358.27C219.072 358.27 219.327 358.27 219.582 358.398C219.71 358.398 219.71 358.398 219.837 358.525C220.347 358.78 220.73 358.908 221.112 359.29C221.495 359.673 221.75 360.056 221.877 360.566C222.005 360.948 222.005 361.203 221.877 361.586C221.75 361.968 221.622 362.223 221.367 362.478C221.24 362.606 221.112 362.606 220.985 362.733C220.985 362.861 220.985 362.988 220.985 363.116C220.985 363.371 220.857 363.626 220.73 363.881C220.475 364.264 220.092 364.646 219.582 364.774C219.2 364.901 218.69 364.901 218.307 364.901C218.179 364.901 218.179 365.029 218.052 365.029C217.924 365.029 217.669 365.029 217.542 365.156C217.032 365.156 216.522 364.901 216.139 364.646C216.011 364.518 215.884 364.263 215.757 364.008C215.884 363.498 215.884 363.243 215.884 362.988Z" fill="black"/>
<path d="M281.044 27.8801C279.259 0.974463 246.36 5.30978 226.213 3.7796C196.629 1.61185 166.791 1.22924 137.08 2.75942C102.396 4.41711 49.6048 2.24961 21.4241 25.9674C8.16252 37.1887 2.29697 55.2957 1.78691 72.7652C1.14933 90.2347 5.10223 107.449 7.78004 124.536C14.2833 165.978 14.2834 208.441 7.52507 249.883C5.35732 263.4 2.93441 278.702 11.2229 289.54C16.3235 296.044 24.2296 299.486 32.1355 301.909C65.6718 312.365 101.758 310.07 136.825 307.647C158.12 306.117 180.435 302.547 201.73 302.802C219.072 303.057 234.374 316.446 245.34 329.58C256.306 342.714 264.212 358.015 272.118 373.19C268.42 366.176 276.454 340.291 277.601 332.003C279.514 317.466 281.299 302.802 283.084 288.265C286.4 261.487 289.078 236.239 288.057 209.461C285.635 149.019 285.125 88.5771 281.044 27.8801Z" fill="white"/>
<path d="M148.301 233.561C147.281 231.393 150.597 229.353 151.617 231.648C156.207 241.467 167.811 245.037 177.885 242.487C189.361 239.682 197.905 230.756 204.408 221.32C205.811 219.279 209.126 221.192 207.723 223.232C204.408 227.95 200.838 232.541 196.63 236.366C189.234 242.997 179.543 247.843 169.341 247.078C160.67 246.44 152.127 241.594 148.301 233.561ZM14.156 163.938C24.9947 166.233 35.7058 168.656 46.5446 170.951C48.9674 171.461 49.9875 167.763 47.5648 167.253C36.726 164.958 26.0149 162.535 15.1761 160.24C12.7534 159.73 11.7332 163.428 14.156 163.938ZM179.16 101.711C179.542 102.093 179.67 102.603 179.67 103.113C179.67 103.624 179.415 104.006 179.16 104.516C177.502 106.556 175.845 108.724 174.059 110.764C173.422 111.657 172.019 111.402 171.382 110.764C170.999 110.382 170.871 109.872 170.871 109.362C170.871 108.852 171.127 108.469 171.382 107.959C173.039 105.919 174.697 103.751 176.482 101.711C177.12 100.818 178.395 101.073 179.16 101.711ZM164.241 108.596C165.133 108.979 166.409 108.851 166.919 107.959C167.556 106.556 168.321 105.154 169.214 103.878C169.469 103.623 169.597 103.241 169.852 102.986C169.852 102.858 169.979 102.858 169.979 102.731C170.106 102.603 170.234 102.476 170.362 102.348C170.872 101.711 171.382 101.073 172.019 100.563C172.784 99.7981 172.784 98.5228 172.019 97.8853C171.254 97.1202 170.106 97.1202 169.341 97.8853C166.919 100.308 165.006 103.113 163.603 106.174C163.348 106.684 163.221 107.066 163.348 107.704C163.476 107.831 163.858 108.341 164.241 108.596ZM185.026 96.1002C185.663 96.9928 186.173 97.8852 186.683 98.7778C186.811 99.2879 187.066 99.6705 187.193 100.181C187.448 101.201 188.596 101.838 189.489 101.456C190.509 101.201 191.146 100.181 190.764 99.1604C189.999 96.6101 188.724 94.3149 186.938 92.5297C186.301 91.7646 184.898 91.7646 184.26 92.5297C183.495 93.2948 183.495 94.4422 184.26 95.2073C184.643 95.4623 184.898 95.7176 185.026 96.1002ZM171.382 88.8316C172.529 88.8316 173.805 88.9593 174.952 89.0869C175.335 89.0869 175.717 89.2142 175.972 89.2142C176.1 89.2142 176.355 89.2143 176.482 89.3418C176.61 89.4693 176.737 89.5969 176.865 89.7244C177.757 90.2345 179.032 89.9795 179.543 89.0869C179.925 88.3218 179.925 87.5564 179.543 86.9189C179.16 86.4088 178.65 86.0264 178.012 85.7714C177.375 85.6438 176.61 85.5163 175.972 85.3887C174.442 85.1337 172.912 85.0061 171.382 85.0061C170.362 85.0061 169.469 85.8987 169.469 86.9189C169.596 88.0665 170.362 88.8316 171.382 88.8316ZM142.308 150.421C142.308 150.676 142.436 150.931 142.563 151.186C142.691 151.442 142.946 151.696 143.073 151.951C143.328 152.206 143.583 152.461 143.838 152.589C144.093 152.716 144.476 152.844 144.731 152.972C144.986 153.099 145.369 153.099 145.751 153.099C145.879 153.099 145.879 153.099 146.006 153.099C146.261 153.099 146.516 153.099 146.771 152.972C147.026 152.844 147.409 152.716 147.664 152.589C148.174 152.334 148.301 152.079 148.684 151.569C148.939 151.314 148.939 151.059 149.067 150.676C149.194 150.421 149.194 150.039 149.194 149.656C149.194 149.401 149.194 149.146 149.194 148.891C149.194 148.636 149.067 148.381 149.067 148.126C148.939 147.871 148.939 147.616 148.812 147.488C148.684 147.233 148.557 147.106 148.429 146.978C148.174 146.723 147.919 146.468 147.664 146.341C147.409 146.213 147.281 146.086 147.026 146.086C146.899 146.086 146.899 146.086 146.771 145.958C146.516 145.831 146.134 145.831 145.751 145.831C144.986 145.831 144.349 146.086 143.711 146.468C143.584 146.596 143.328 146.723 143.073 146.978C142.946 147.106 142.691 147.361 142.563 147.616C142.563 147.744 142.436 147.743 142.436 147.871C142.308 148.126 142.181 148.381 142.181 148.636C142.181 148.764 142.181 149.019 142.181 149.146C142.181 149.274 142.053 149.401 142.181 149.656C142.181 149.911 142.181 150.166 142.308 150.421ZM290.225 225.783C290.098 237.897 289.205 250.01 288.058 261.997C286.91 274.366 285.252 286.607 283.722 298.849C282.957 305.097 282.192 311.217 281.427 317.466C280.789 322.949 280.152 328.432 279.259 333.788C278.111 340.546 276.199 347.304 274.924 354.062C274.158 357.633 273.521 361.331 273.266 365.029C273.138 367.324 272.883 370.257 273.903 372.297C275.051 374.465 271.736 376.377 270.588 374.21C267.145 367.579 263.702 360.948 260.004 354.573C252.736 341.821 244.32 329.707 233.481 319.761C228.381 315.043 222.77 310.962 216.394 308.157C213.334 306.754 210.146 305.862 206.958 305.224C203.26 304.587 199.435 304.714 195.737 304.842C179.67 305.224 163.603 307.264 147.536 308.795C131.597 310.325 115.53 311.345 99.4632 311.6C83.7789 311.983 67.9672 311.345 52.4104 308.667C44.7595 307.392 37.1085 305.607 29.7127 303.056C23.4645 301.016 17.2162 298.211 12.4982 293.493C2.55205 283.802 3.06211 269.138 4.84731 256.386C5.86743 248.735 7.27022 241.212 8.16282 233.561C9.18294 225.4 9.82045 217.112 10.3305 208.823C11.2231 192.374 11.0957 175.924 10.0755 159.602C8.92791 143.153 6.50494 126.831 3.82713 110.637C-0.763396 83.3486 -4.07865 51.2149 16.0687 29.0273C23.7196 20.6113 34.3034 15.1283 44.8871 11.3029C56.2359 7.34991 68.2223 5.1821 80.2086 3.90695C92.4501 2.50429 104.692 1.99417 116.933 1.61162C129.939 1.22908 142.946 0.463864 155.952 0.208835C172.912 -0.17371 189.871 -0.0460081 206.831 0.71908C214.354 1.10162 221.75 1.61168 229.146 1.99423C233.609 2.24926 238.199 2.24932 242.662 2.37683C251.716 2.63186 261.152 3.26938 269.568 7.09482C278.112 11.0478 282.702 18.5712 283.34 27.8798C283.595 31.0677 283.722 34.2555 283.977 37.4434C285.507 62.5638 286.527 87.684 287.292 112.804C288.058 138.052 288.695 163.3 289.588 188.421C289.588 200.917 290.353 213.414 290.225 225.783ZM286.4 217.877C286.272 205.253 285.507 192.629 285.125 180.005C284.36 154.629 283.595 129.254 282.829 104.006C281.937 78.6306 280.917 53.2552 279.259 27.8798C279.004 23.6718 277.729 19.4636 275.051 16.1482C269.823 9.64493 260.769 7.85978 252.863 6.96718C244.065 5.94706 235.139 6.3296 226.34 5.69203C209.763 4.5444 193.187 3.90682 176.61 3.77931C161.308 3.6518 146.134 4.41707 130.832 4.92713C107.497 5.81973 83.7791 5.69222 60.8265 10.6653C49.7327 13.0881 38.8939 16.6584 29.2028 22.6516C18.619 29.4098 11.3506 39.3559 7.39761 51.2147C2.93459 64.8588 3.0623 79.268 4.71999 93.2946C6.63271 109.234 10.0754 124.918 11.8606 140.858C15.5586 172.991 15.3035 205.635 11.2231 237.769C10.3304 245.037 8.92779 252.178 8.03518 259.446C7.27009 265.822 6.88761 272.58 8.41779 278.829C10.0755 285.459 13.901 290.688 19.6391 294.258C25.3773 297.956 32.1356 299.869 38.7664 301.654C48.4575 304.204 58.2759 305.862 68.2221 306.627C68.2221 306.499 68.2221 306.372 68.2221 306.244C68.2221 295.023 68.0948 283.802 67.8398 272.58C67.0747 233.306 65.1618 194.159 63.5041 154.884C47.4372 152.717 31.3703 150.549 15.3035 148.381C14.2833 148.254 13.7733 146.978 14.0283 146.086C14.2833 144.938 15.3035 144.556 16.3236 144.811C32.9006 147.106 49.3501 149.274 65.9271 151.569C66.8197 151.697 67.3295 152.717 67.3295 153.354C67.8396 164.575 68.2223 175.797 68.7323 187.018C69.3699 202.192 70.0073 217.494 70.5174 232.668L70.645 232.541C86.2018 221.32 103.161 212.011 121.013 204.87C121.141 204.87 121.268 204.743 121.396 204.743C122.034 201.427 122.543 198.112 123.181 194.796C126.369 177.582 129.557 160.24 132.745 143.025C122.926 137.542 112.98 131.932 103.161 126.448C101.759 125.683 102.014 123.898 103.161 123.133C108.644 119.053 114.127 114.972 119.611 110.892C129.812 103.241 139.886 95.4624 150.087 87.939C155.06 84.2411 159.905 80.1606 165.389 77.3553C168.321 75.8251 171.254 74.6775 174.442 73.9124C172.402 72.8923 170.362 71.4896 168.449 69.4494C162.966 63.8388 160.415 45.9867 171.764 36.9331C177.63 52.745 186.938 53.5102 197.65 56.188C200.71 54.9128 203.77 53.7651 206.958 52.8725C214.864 50.5772 223.663 51.0875 229.273 57.8457C234.119 63.7114 235.139 71.3622 233.864 78.758C232.461 86.919 228.636 94.5699 224.173 101.456C222.26 104.389 220.22 107.194 218.052 109.999C221.495 110.127 224.3 112.167 226.213 114.972C228.253 118.032 228.636 121.985 228.253 125.556C227.871 129.509 226.851 133.589 225.32 137.16C222.643 143.408 216.904 148.508 209.891 148.126C209.636 148.636 209.254 148.891 208.744 149.146C207.851 150.294 206.831 151.442 205.811 152.462C205.811 152.589 205.938 152.717 205.938 152.844C208.488 171.334 211.676 189.696 215.374 207.931C215.757 207.931 216.139 208.058 216.394 208.313C230.421 219.534 243.81 231.648 256.306 244.527C257.964 246.312 255.286 248.99 253.629 247.205C241.77 234.964 229.146 223.487 215.884 212.776C212.441 218.387 206.321 221.702 200.072 223.87C192.804 226.42 185.153 228.205 177.63 229.863C169.469 231.521 160.926 232.668 152.637 231.648C151.999 231.521 151.234 231.393 150.597 231.393C150.597 231.903 150.469 232.413 150.087 232.796C143.456 239.299 132.362 240.829 124.456 235.729C116.678 230.756 112.98 220.554 115.785 211.756C115.913 211.373 116.168 210.991 116.423 210.863C100.993 217.494 86.3292 225.91 72.6851 235.729C71.92 236.239 71.2824 236.111 70.7724 235.729C71.2824 250.393 71.6652 265.057 71.9202 279.721C77.1483 273.856 86.3293 272.07 93.2151 276.151C95.3828 277.426 93.4701 280.741 91.3024 279.466C85.6917 276.151 77.7858 277.809 74.0879 283.164C73.5778 283.802 72.8126 284.184 72.0475 284.057C72.175 289.795 72.1752 295.405 72.1752 301.144C77.0207 296.681 84.2889 295.023 90.5371 297.318C91.5573 297.701 92.1948 298.593 91.8123 299.614C91.5573 300.506 90.4099 301.271 89.5173 300.889C83.9066 298.848 77.4034 300.634 73.5779 305.224C73.1954 305.607 72.8129 305.734 72.3028 305.734C72.3028 305.862 72.3028 305.989 72.3028 306.117C72.3028 306.372 72.3027 306.499 72.1752 306.754C92.195 308.157 112.342 307.009 132.362 305.734C148.174 304.714 163.858 302.674 179.67 301.399C187.449 300.761 195.482 300.251 203.388 300.506C209.763 300.761 215.884 302.801 221.495 305.734C233.481 312.11 243.3 322.439 251.333 333.15C258.474 342.586 264.34 352.915 269.823 363.371C270.206 358.525 271.353 353.68 272.373 349.089C273.776 342.331 275.689 335.445 276.581 328.559C279.769 303.694 283.339 278.829 285.38 253.963C285.89 242.359 286.527 230.118 286.4 217.877ZM120.503 209.716V209.588C119.355 210.098 118.208 210.481 117.188 210.991C118.463 210.863 119.866 211.756 119.356 213.286C117.06 220.427 119.866 228.843 126.241 232.923C132.489 236.876 141.161 235.984 146.771 231.011C136.06 228.333 125.986 221.957 121.396 211.756C120.758 211.373 120.248 210.608 120.503 209.716ZM136.57 142.898C136.188 145.066 135.805 147.361 135.295 149.529C131.597 169.421 127.899 189.313 124.329 209.333C124.329 209.461 124.456 209.461 124.456 209.588C127.262 215.837 132.107 220.554 137.973 223.742C150.852 230.756 165.898 229.225 179.797 226.038C186.683 224.507 193.569 222.85 200.2 220.299C204.918 218.514 209.508 215.836 212.314 211.628C212.059 211.373 211.804 211.118 211.676 210.608C207.978 192.629 204.918 174.522 202.24 156.287C193.824 164.065 183.368 169.676 172.147 172.226C171.254 173.502 169.979 174.267 168.449 174.777C166.664 175.414 164.368 175.797 162.456 175.797C160.543 175.797 158.63 175.287 157.1 173.884C156.335 173.119 155.825 172.226 155.57 171.334C155.06 171.589 154.295 171.716 153.785 171.334C152.892 170.824 152.509 169.549 153.147 168.656C155.187 165.596 158.503 163.683 162.073 163.3C165.133 162.918 168.321 163.683 170.871 165.596C171.764 166.233 172.402 167.126 172.784 168.146C184.771 165.086 195.737 158.455 203.898 149.274C201.603 148.509 199.562 146.978 198.032 145.066C195.482 141.75 194.844 137.542 195.482 133.462C196.247 128.999 198.542 124.791 201.475 121.093L199.69 120.71C190.891 111.402 195.354 101.456 194.589 93.0396C193.569 81.4358 188.086 79.6505 181.328 77.3553H181.2C174.825 77.4828 168.831 79.7782 163.476 83.2211C158.248 86.5364 153.402 90.4895 148.556 94.1874C143.583 97.8854 138.61 101.711 133.637 105.408C124.966 112.039 116.168 118.543 107.369 125.046C116.805 130.402 126.114 135.63 135.55 140.858C136.443 141.24 136.698 142.133 136.57 142.898ZM221.877 98.2679C228.381 87.6841 235.649 70.7245 225.575 60.1408C219.837 54.2751 211.549 55.8053 204.663 58.228C204.28 58.3556 203.898 58.4831 203.515 58.6106C207.596 60.1408 211.931 62.3086 216.267 66.0066C224.555 72.8924 225.065 85.8989 221.877 98.2679ZM199.18 135.247C198.797 140.093 201.73 145.448 206.703 145.831C206.831 145.703 206.958 145.576 207.086 145.448C207.723 144.556 208.871 144.428 209.636 144.811C216.522 145.703 221.112 138.818 222.898 133.079C224.428 127.979 226.213 120.583 222.005 116.247C217.542 111.402 211.549 116.375 208.106 119.818C203.898 124.026 199.563 128.999 199.18 135.247ZM168.704 169.039C168.831 169.039 168.959 169.038 169.086 168.911C168.959 168.783 168.831 168.656 168.704 168.528C167.939 167.891 167.174 167.508 166.281 167.253C164.878 166.871 163.476 166.743 162.073 166.998C162.073 167.126 162.073 167.253 162.073 167.508C162.073 168.529 161.18 169.549 160.16 169.421C159.905 169.421 160.033 169.294 159.905 169.421C159.778 169.421 159.778 169.421 159.65 169.676C159.395 170.059 159.395 170.186 159.523 170.441C159.65 170.696 159.905 171.079 160.288 171.334C160.671 171.589 161.18 171.844 161.69 171.844C163.093 172.099 164.496 171.716 165.898 171.461C166.409 171.334 166.919 171.206 167.429 171.079C167.174 170.186 167.429 169.166 168.704 169.039ZM209.253 126.321C211.676 127.724 214.099 129.126 216.522 130.402C217.414 130.912 218.69 130.657 219.2 129.764C219.71 128.871 219.455 127.724 218.562 127.086C216.139 125.683 213.717 124.281 211.294 123.006C210.401 122.496 209.126 122.751 208.616 123.643C208.106 124.663 208.361 125.811 209.253 126.321ZM206.193 132.569C209.381 134.099 212.441 135.757 215.629 137.287C216.522 137.797 217.797 137.542 218.307 136.65C218.817 135.757 218.562 134.482 217.67 133.972C214.482 132.442 211.421 130.784 208.233 129.254C207.341 128.744 206.066 128.999 205.556 129.892C205.046 130.784 205.301 132.059 206.193 132.569ZM48.2023 267.352C48.0748 276.661 47.6922 285.842 47.1821 295.15C47.0546 297.573 50.8801 297.573 51.0076 295.15C52.6653 262.762 52.5378 230.246 50.7526 197.729C50.2426 188.421 49.605 179.24 48.8399 169.931C48.5849 167.508 44.7594 167.508 45.0145 169.931C47.8198 202.32 48.8399 234.836 48.2023 267.352ZM142.563 300.761C133.382 294.131 126.114 285.332 117.571 277.809C109.665 270.795 100.356 265.057 89.6446 263.654C83.9064 262.889 78.1683 263.782 73.0677 266.332C70.8999 267.48 72.8127 270.668 74.9804 269.648C83.9064 265.185 94.4902 267.48 103.034 272.071C112.342 277.044 119.483 284.822 126.879 292.218C131.214 296.553 135.677 300.634 140.651 304.204C142.691 305.479 144.603 302.164 142.563 300.761ZM95.893 288.392C88.7522 283.802 78.9335 284.694 72.5578 290.305C70.645 291.963 73.4502 294.641 75.2354 292.983C80.336 288.52 88.2421 288.137 93.9803 291.708C96.0205 293.11 98.0608 289.795 95.893 288.392Z" fill="black"/>
</svg>
