<svg width="449" height="600" viewBox="0 0 449 600" fill="none" xmlns="http://www.w3.org/2000/svg">
<path d="M154.918 381.35C138.89 389.246 119.091 385.828 103.888 376.754C88.5668 367.679 77.0172 353.419 66.5283 339.041C60.5178 330.673 54.7428 322.07 51.3251 312.406C40.3648 281.175 56.3929 246.29 79.4921 222.484C102.473 198.678 132.054 182.296 156.803 160.258C167.292 150.948 176.839 140.694 188.035 132.327C216.201 110.995 253.796 102.628 288.445 110.053C307.066 114.06 325.215 122.781 338.061 136.805C348.079 147.648 354.561 161.201 362.575 173.575C370.353 185.596 379.546 196.674 390.035 206.456C399.345 215.177 409.598 222.956 418.083 232.502C446.722 264.911 448.136 318.063 421.383 352.005C403.705 374.397 376.835 387.478 349.965 396.553C328.28 403.978 338.768 338.687 315.905 336.448C299.288 334.798 242.954 361.433 226.337 388.303C219.266 399.735 206.42 399.735 193.102 398.91C176.485 397.967 160.103 392.664 145.961 383.825" fill="#16202C"/>
<path d="M106.835 516.768C107.543 510.994 112.846 506.633 114.26 500.976C114.849 498.619 114.731 496.026 114.614 493.551C113.671 476.109 113.671 458.549 114.614 441.107C114.967 433.682 115.556 426.022 119.446 419.657C122.392 414.826 127.106 410.818 127.695 405.161C128.049 401.744 126.752 398.444 126.752 395.026C126.752 391.609 128.756 387.602 132.174 387.602L130.642 386.894C131.82 379.823 127.342 372.988 121.921 368.274C116.499 363.56 109.9 360.26 104.714 355.428C98.7035 349.889 94.6966 342.7 90.9253 335.511C83.972 322.429 77.3722 308.758 76.1937 294.026C75.8401 289.666 76.0757 285.187 77.6078 281.18C81.1434 272.106 90.5716 267.156 99.2927 262.913L99.6463 260.792C102.475 251.835 112.257 246.649 121.567 246.178C130.877 245.707 139.952 249.006 148.791 252.306C163.405 257.728 178.843 263.856 187.447 276.82C195.814 289.312 194.282 302.747 194.99 316.89C195.579 327.732 198.996 336.807 198.054 348.121C197.7 351.892 197.229 355.663 197.7 359.317C198.761 366.624 203.828 373.459 203.003 380.766L202.061 376.995C209.957 391.373 214.906 407.283 216.556 423.665C217.146 428.968 217.381 434.625 220.092 439.221C222.803 443.817 227.635 446.764 231.406 450.653C243.191 463.145 241.541 482.827 238.713 499.915" fill="#111217"/>
<path d="M235.884 453.6C233.527 450.182 230.463 447.471 227.281 444.643C223.981 441.696 221.152 438.632 219.856 434.272C218.56 429.793 218.56 425.197 217.97 420.601C217.381 415.769 216.438 411.055 215.377 406.34C213.02 396.676 209.367 387.366 204.771 378.527C204.535 372.163 200.882 366.506 199.585 360.378C198.76 356.607 199.35 352.6 199.703 348.828C200.057 344.939 199.939 341.05 199.467 337.279C198.642 330.09 196.875 322.901 196.639 315.594C196.285 308.522 196.521 301.334 195.46 294.262C194.518 287.191 192.043 280.356 187.8 274.581C184.029 269.396 179.079 265.271 173.658 261.853C168.119 258.435 161.99 255.725 155.98 253.368C149.026 250.657 141.955 247.828 134.766 246.06C127.224 244.175 119.092 243.821 111.785 246.768C105.421 249.36 100.117 253.957 97.996 260.556C97.8782 261.028 97.878 261.499 98.1137 261.853C90.3354 265.624 82.0858 269.985 77.6074 277.645C72.304 286.72 74.3075 298.505 77.0181 308.051C79.9645 318.54 85.0323 328.44 90.0999 337.986C92.5749 342.582 95.0497 347.061 98.2317 351.068C101.414 355.192 105.185 358.61 109.428 361.556C114.142 364.856 119.092 367.803 123.099 371.927C126.752 375.817 129.816 381.002 128.873 386.541C128.873 386.777 128.873 386.895 128.873 387.013C126.988 388.191 125.691 390.43 125.22 392.67C124.277 397.148 126.752 401.509 125.809 405.987C124.984 409.994 121.92 413.176 119.563 416.358C116.97 419.894 115.203 423.901 114.26 428.261C113.317 432.74 112.963 437.336 112.845 441.932C112.61 447.118 112.374 452.421 112.374 457.724C112.138 468.331 112.374 478.938 112.728 489.545C112.846 492.255 113.081 495.084 112.963 497.912C112.845 500.269 112.138 502.391 110.96 504.512C108.839 508.401 105.774 511.937 105.185 516.415C105.067 517.358 105.421 518.301 106.363 518.537C107.188 518.772 108.367 518.301 108.485 517.358C109.074 513.587 111.313 510.64 113.317 507.458C115.556 503.687 116.617 499.916 116.381 495.555C116.027 485.538 115.556 475.52 115.674 465.385C115.674 455.485 115.792 445.468 116.735 435.568C117.088 431.207 117.913 426.729 119.799 422.84C121.567 419.186 124.277 416.24 126.516 412.94C127.695 411.173 128.638 409.287 129.227 407.283C129.816 404.926 129.581 402.452 129.227 400.094C128.874 397.737 128.284 395.38 128.873 393.023C129.227 391.963 129.816 390.784 130.759 390.077C141.602 392.552 152.562 395.144 163.758 394.32C173.186 393.612 182.497 390.666 190.511 385.716C194.164 383.477 197.582 381.002 200.646 378.056C200.882 378.527 201.117 378.999 201.353 379.47C201.353 379.942 201.353 380.413 201.235 380.884C201.117 382.063 202.06 382.652 202.885 382.534C206.303 389.488 209.131 396.677 211.135 404.101C212.313 408.58 213.374 413.176 214.081 417.772C214.788 422.369 215.024 427.083 215.731 431.679C216.438 436.039 217.97 439.929 220.917 443.228C223.627 446.411 227.163 448.768 229.991 451.714C235.295 457.253 237.887 464.678 238.712 472.22C239.655 481.295 238.595 490.37 237.063 499.327C236.709 501.566 240.127 502.509 240.48 500.269C242.955 485.184 245.077 467.153 235.884 453.6ZM177.9 387.602C168.708 390.784 159.162 391.373 149.498 390.195C144.194 389.488 138.891 388.309 133.706 387.131C133.588 386.541 133.116 386.07 132.409 386.07C133.116 376.759 126.281 369.335 119.092 364.031C114.967 360.967 110.489 358.374 106.599 354.957C102.71 351.539 99.7638 347.532 97.0532 343.171C94.3425 338.811 91.9854 334.097 89.6284 329.5C87.1534 324.668 84.7964 319.836 82.9108 314.769C81.0251 309.819 79.4931 304.633 78.5503 299.448C77.7253 294.38 77.1361 288.723 78.5503 283.656C81.2609 273.874 91.1606 268.806 99.5282 264.799C99.8817 265.388 100.589 265.86 101.414 265.742C103.299 265.389 105.421 265.035 107.306 265.506C109.546 266.095 110.371 267.745 110.724 269.985C111.313 273.756 110.724 277.881 109.074 281.299C108.485 282.477 107.778 283.538 107.071 284.599C106.128 284.716 105.539 285.424 105.539 286.366C104.124 287.663 102.592 288.723 100.707 289.43C96.1104 291.198 90.2178 291.67 85.3858 290.491C83.1466 289.902 82.2037 293.32 84.4429 293.909C89.1571 295.087 94.3425 294.852 99.0566 293.673C101.532 293.084 103.771 292.141 105.774 290.727C106.717 295.559 109.663 299.919 113.906 302.394C114.024 302.512 114.142 302.512 114.26 302.512C114.731 304.28 115.32 305.93 116.028 307.58C118.149 312.412 122.156 318.422 128.166 317.833C128.638 317.833 128.991 317.597 129.345 317.361C131.702 320.072 134.766 322.311 138.184 323.608C132.645 328.793 130.052 336.807 131.938 344.232C132.527 346.471 135.945 345.528 135.355 343.289C133.705 336.572 136.416 328.911 142.073 324.786L142.191 324.669C142.427 324.669 142.662 324.786 142.898 324.786C147.73 325.493 152.68 324.904 157.276 323.136C161.401 321.486 165.761 318.776 167.411 314.415C168.472 311.587 167.883 308.876 166.351 306.755C166.469 306.637 166.587 306.637 166.704 306.519C167.058 306.283 167.411 306.165 167.765 305.93C167.883 305.93 168.001 305.812 168.001 305.812C168.236 305.694 168.354 305.694 168.59 305.576C168.943 305.458 169.297 305.341 169.768 305.341C169.886 305.341 170.004 305.341 170.122 305.341C170.358 305.341 170.476 305.341 170.711 305.341C170.947 305.341 171.183 305.341 171.301 305.341C171.418 305.341 171.536 305.341 171.536 305.341C171.654 305.341 171.654 305.341 171.772 305.341C171.654 305.341 171.654 305.341 171.536 305.341C171.654 305.341 172.008 305.458 172.125 305.458C172.361 305.458 172.597 305.576 172.833 305.576C173.776 305.812 174.836 305.223 174.954 304.398C175.19 303.455 174.718 302.512 173.776 302.277C170.358 301.216 166.469 302.041 163.758 304.28C163.169 303.926 162.697 303.573 161.99 303.337C160.812 302.866 159.633 302.512 158.455 302.394C158.573 302.394 158.572 302.277 158.69 302.277C159.869 301.334 160.812 300.155 161.637 298.859C163.64 295.912 165.526 292.966 167.529 290.138C168.119 289.313 167.647 288.134 166.94 287.663C166.115 287.191 165.054 287.545 164.465 288.252C162.697 290.845 160.93 293.437 159.28 296.03C158.572 297.091 157.983 298.034 157.158 298.859C157.04 298.976 156.687 299.33 156.569 299.448C156.687 299.33 156.333 299.684 156.333 299.684C156.215 299.801 156.098 299.802 155.98 299.919C155.98 299.919 155.862 299.919 155.862 300.037C155.744 300.037 155.626 300.155 155.508 300.155C155.508 300.155 154.919 300.155 155.272 300.155C154.33 300.037 153.387 300.391 153.151 301.334C153.033 301.805 153.151 302.394 153.505 302.866C153.269 302.866 153.151 302.983 152.915 302.983C153.033 302.748 153.151 302.512 153.151 302.159C153.033 297.327 149.38 292.73 144.548 291.905C143.605 291.788 142.544 292.141 142.427 293.084C142.191 293.909 142.662 295.087 143.605 295.205C144.076 295.323 144.548 295.441 145.019 295.559C145.137 295.559 145.255 295.677 145.373 295.677C145.137 295.559 145.137 295.559 145.255 295.559C145.255 295.559 145.373 295.559 145.373 295.677C145.609 295.794 145.844 295.912 145.962 296.03C146.198 296.148 146.316 296.266 146.551 296.384C146.669 296.502 146.787 296.502 146.787 296.62C146.433 296.384 146.669 296.62 146.787 296.62C147.141 296.973 147.494 297.327 147.848 297.68C147.966 297.798 148.084 297.916 148.084 297.916L147.966 297.798C147.966 297.916 148.084 297.916 148.084 298.034C148.201 298.269 148.319 298.387 148.437 298.623C148.555 298.859 148.673 299.094 148.79 299.212C148.79 299.33 148.908 299.448 148.908 299.566C149.026 300.037 149.262 300.391 149.262 300.862C149.262 300.98 149.262 301.098 149.38 301.216C149.38 301.451 149.38 301.687 149.38 301.923C149.38 302.512 149.733 303.219 150.323 303.455C148.791 304.044 147.258 304.751 145.844 305.458C143.841 306.401 145.608 309.465 147.612 308.522C151.265 306.755 155.744 304.634 159.869 306.048C160.812 306.401 161.637 306.755 162.226 307.344C162.344 307.462 162.344 307.58 162.462 307.698C162.579 307.815 162.697 307.815 162.815 307.933C164.229 309.465 164.819 311.469 163.758 313.59C161.99 317.008 157.865 319.012 154.448 320.19C150.558 321.486 146.198 321.84 142.191 320.897C134.648 319.129 129.109 313.472 127.459 305.93C126.634 301.923 126.516 297.68 126.87 293.673C127.224 289.902 128.52 286.013 131.231 283.302C134.295 280.238 138.655 278.824 142.662 277.527C147.848 275.877 153.033 274.227 158.219 272.577C160.34 271.87 159.397 268.453 157.276 269.16C151.855 270.928 146.316 272.577 140.894 274.345C136.652 275.759 132.173 277.409 128.873 280.591C125.574 283.773 124.041 288.252 123.452 292.73C122.863 297.562 122.981 302.63 124.159 307.344C124.749 309.701 125.691 311.94 126.988 313.944C123.099 313.59 120.624 309.112 119.21 305.812C117.324 301.569 116.617 296.855 116.499 292.259C116.381 287.545 116.97 282.595 118.267 277.999C118.856 275.524 119.917 273.403 121.802 271.635C123.452 270.103 125.691 268.924 127.695 267.863C132.055 265.742 136.416 267.038 141.012 267.156C143.252 267.274 143.252 263.739 141.012 263.621C136.416 263.385 131.938 262.206 127.459 264.092C122.392 266.213 117.56 269.513 115.556 274.817C113.67 279.884 113.081 285.777 112.963 291.198C112.963 293.084 113.081 294.97 113.317 296.855C110.724 294.38 109.192 290.845 108.956 287.191C109.074 286.956 109.31 286.838 109.428 286.602C111.785 283.656 113.435 280.12 114.024 276.349C114.613 272.578 114.849 267.746 112.492 264.564C111.431 263.031 110.017 262.206 108.367 261.735C108.485 261.499 108.603 261.264 108.603 261.028C108.603 260.557 108.721 260.085 108.956 259.496C109.074 259.142 109.074 259.024 109.192 258.907C109.31 258.671 109.428 258.317 109.663 258.082C110.253 257.139 111.196 256.196 111.903 255.607C114.26 253.839 116.97 253.132 119.799 252.542C120.742 252.307 121.331 251.246 120.977 250.421C120.742 249.478 119.799 249.007 118.856 249.243C115.438 249.95 112.138 251.01 109.428 253.132C106.953 255.135 105.303 257.964 105.067 261.146C105.067 261.264 105.067 261.381 105.067 261.499C103.535 261.499 102.003 261.735 100.589 261.971C100.589 261.971 100.589 261.853 100.471 261.853C100.706 261.617 100.942 261.382 101.06 261.028C102.828 255.607 107.424 251.717 112.61 249.596C118.856 247.121 125.456 247.239 131.938 248.653C139.009 250.186 145.844 252.896 152.68 255.489C158.572 257.728 164.347 260.203 169.768 263.267C175.072 266.331 180.022 270.103 183.793 274.817C188.036 280.12 190.511 286.366 191.689 293.084C192.75 299.684 192.632 306.401 192.868 313.119C193.103 320.072 194.282 326.908 195.46 333.743C196.05 337.632 196.403 341.639 196.285 345.646C196.167 350.007 195.225 354.367 195.814 358.728C196.403 363.56 198.878 368.156 200.292 372.87C194.046 379.706 186.386 384.656 177.9 387.602ZM167.883 305.93C167.883 305.93 168.001 305.93 167.883 305.93V305.93ZM155.508 300.037C155.39 300.037 155.39 300.037 155.508 300.037V300.037ZM211.489 414.237C205.596 416.947 199.703 419.658 193.693 421.897C182.85 425.904 171.772 427.672 160.34 425.786C148.908 424.018 138.184 419.186 127.695 414.59C125.574 413.647 127.459 410.583 129.463 411.526C135.12 414.001 140.894 416.594 146.787 418.597C157.158 422.251 168.119 424.136 179.079 422.251C189.921 420.365 199.939 415.769 209.721 411.173C211.724 410.23 213.492 413.294 211.489 414.237ZM190.628 404.455C191.335 405.28 192.278 405.869 193.339 406.223C195.342 406.93 197.817 406.341 199.232 404.691C200.528 403.041 201.117 400.684 200.292 398.68C199.821 397.501 199.232 396.677 198.171 395.97C197.346 395.38 196.168 395.144 195.225 395.144C194.046 395.144 192.868 395.498 191.925 396.087C190.746 396.794 190.039 397.737 189.568 399.034C189.45 399.387 189.45 399.859 189.686 400.212C189.45 400.566 189.214 400.919 189.332 401.273C189.45 402.452 189.803 403.512 190.628 404.455ZM194.871 403.041C194.871 403.041 194.989 403.041 195.107 403.041C194.989 403.041 194.871 403.041 194.871 403.041ZM196.168 402.923C196.168 402.805 196.168 402.805 196.168 402.923V402.923ZM196.639 402.569C196.639 402.569 196.757 402.451 196.757 402.334C196.757 402.451 196.639 402.451 196.639 402.569ZM196.993 401.98L197.11 401.744C196.992 401.862 196.993 401.98 196.993 401.98ZM197.228 401.155C197.228 401.037 197.228 401.037 197.228 401.037C197.228 401.037 197.228 401.037 197.228 401.155ZM197.11 399.859C197.11 399.859 197.11 399.859 197.11 399.741C197.11 399.859 197.11 399.859 197.11 399.859ZM196.875 399.505C196.875 399.505 196.757 399.387 196.757 399.269C196.875 399.387 196.875 399.505 196.875 399.505ZM194.164 398.916C194.046 398.916 194.046 398.916 194.046 398.916C194.046 398.916 194.046 398.916 194.164 398.916ZM193.221 399.623C193.339 399.505 193.457 399.387 193.457 399.269C193.457 399.269 193.575 399.269 193.575 399.152C193.692 399.034 193.81 399.034 193.928 398.916C193.928 398.916 194.046 398.916 194.046 398.798C194.164 398.798 194.4 398.68 194.518 398.68C194.635 398.68 194.635 398.68 194.753 398.68C194.871 398.68 194.989 398.68 195.225 398.68C195.343 398.68 195.343 398.68 195.46 398.68C195.578 398.68 195.814 398.798 195.814 398.798C195.932 398.798 195.932 398.798 196.05 398.916C196.168 399.034 196.285 399.034 196.403 399.152L196.521 399.269L196.639 399.387C196.639 399.387 196.639 399.505 196.757 399.505C196.757 399.623 196.875 399.623 196.875 399.741C196.875 399.741 196.875 399.741 196.993 399.859C196.993 399.976 197.11 400.212 197.11 400.33V400.448C197.11 400.566 197.11 400.802 197.11 400.919C197.11 401.037 197.11 401.155 197.11 401.155C197.11 401.273 196.993 401.509 196.993 401.509C196.993 401.509 196.993 401.626 196.993 401.744V401.862C196.993 401.98 196.875 401.98 196.875 402.098C196.875 402.098 196.757 402.216 196.757 402.334C196.757 402.334 196.757 402.452 196.639 402.452C196.521 402.569 196.521 402.569 196.403 402.687L196.285 402.805C196.167 402.923 196.05 402.923 195.932 403.041H195.814C195.696 403.041 195.696 403.041 195.578 403.041C195.461 403.041 195.342 403.041 195.107 403.041C195.107 403.041 195.107 403.041 194.989 403.041H194.871C194.635 403.041 194.518 402.923 194.282 402.923C194.282 402.923 194.164 402.923 194.164 402.805C194.046 402.687 193.81 402.569 193.693 402.452C193.575 402.334 193.575 402.333 193.457 402.216C193.339 402.098 193.339 402.098 193.221 401.98L193.103 401.862C193.103 401.744 192.985 401.744 192.985 401.626C192.985 401.626 192.985 401.626 192.985 401.509V401.391C192.985 401.273 192.868 401.155 192.868 401.037V400.919C192.868 400.684 192.75 400.566 192.75 400.448C192.868 400.33 192.985 400.212 192.985 399.977C192.985 399.859 193.103 399.859 193.103 399.741C193.103 399.741 193.103 399.623 193.221 399.623Z" fill="#DCDCDC"/>
<path d="M271.947 595.49C266.29 580.641 275.482 564.73 282.671 550.47C292.689 530.435 299.171 508.515 301.41 486.24C302.588 474.455 303.295 461.374 312.017 453.36V453.477C317.32 410.107 312.37 364.734 327.22 323.603C329.223 318.182 331.58 312.643 335.941 308.754C339.83 305.101 345.015 303.097 350.083 301.329C359.04 298.383 368.35 296.026 377.779 294.612C386.028 293.315 394.632 292.608 402.528 295.083C408.538 296.969 414.667 300.975 417.613 306.75C418.674 308.872 418.556 311.7 420.559 312.761C422.681 313.822 426.688 312.054 429.398 313.586C431.873 315 433.759 317.239 435.645 319.478C438.237 322.66 440.712 325.96 442.951 329.378C444.366 331.382 445.662 333.503 446.133 335.86C446.605 338.099 446.251 340.338 445.898 342.578C442.244 364.145 431.048 384.297 414.549 398.676C409.952 402.683 404.885 406.336 399.817 409.754C394.867 413.054 387.796 415.882 383.554 420.125C380.254 423.425 380.018 429.2 379.075 433.678C377.661 440.514 376.6 447.467 375.893 454.42L377.779 456.306C384.968 458.545 387.678 467.502 386.971 474.927C386.264 482.351 383.318 489.54 383.318 497.083C383.435 508.515 390.389 518.532 396.046 528.55C407.949 549.763 414.077 574.159 413.606 598.436" fill="#111217"/>
<path d="M444.837 328.909C442.715 325.727 440.358 322.545 438.001 319.481C435.88 316.77 433.758 314.059 430.812 312.292C429.516 311.585 428.219 311.231 426.687 311.113C425.155 311.113 423.741 311.467 422.209 311.231C421.03 311.113 420.677 310.288 420.323 309.227C419.852 307.813 419.498 306.399 418.673 304.985C417.141 302.156 414.784 299.917 412.309 297.913C400.288 288.839 384.142 291.314 370.354 294.024C362.811 295.557 355.268 297.56 347.961 300.153C341.597 302.392 335.587 305.456 331.462 310.995C327.337 316.652 325.098 323.605 323.095 330.205C320.855 337.394 319.205 344.701 317.909 352.126C312.841 381.825 313.902 412.113 311.309 442.166C310.956 445.583 310.602 449.001 310.248 452.419C304.002 458.429 301.763 467.032 300.703 475.282C300.113 479.761 299.76 484.357 299.17 488.835C298.581 494.139 297.638 499.324 296.578 504.51C294.339 514.999 291.274 525.252 287.385 535.151C283.496 544.933 278.31 554.008 274.068 563.554C269.589 573.69 266.054 585.003 270.061 595.846C270.886 597.967 274.303 597.024 273.478 594.903C269.943 585.475 272.653 575.575 276.425 566.736C280.432 557.426 285.5 548.705 289.507 539.394C293.514 529.848 296.695 520.066 299.052 510.049C301.292 500.267 302.588 490.485 303.649 480.468C304.592 471.747 305.888 462.2 312.134 455.601C312.134 455.601 312.134 455.601 312.252 455.601C331.109 461.729 351.969 468.329 371.65 461.376C373.889 460.551 376.364 459.843 378.25 458.193C385.439 461.258 386.146 471.275 384.967 477.993C384.025 483.178 382.492 488.246 381.903 493.432C381.432 498.381 382.139 503.213 383.671 507.928C386.853 517.356 392.864 525.488 397.342 534.327C402.056 543.637 405.592 553.536 408.066 563.672C410.777 574.986 412.074 586.653 411.956 598.321C411.956 600.56 415.491 600.56 415.491 598.321C415.845 576.989 411.248 555.658 402.174 536.33C399.935 531.616 397.342 527.02 394.749 522.423C392.157 518.063 389.564 513.584 387.678 508.753C385.792 503.921 384.85 498.971 385.321 493.903C385.792 488.482 387.56 483.178 388.503 477.875C389.799 469.625 388.15 459.019 380.018 455.129C380.136 454.187 379.9 453.362 379.075 452.537C378.721 452.183 378.485 452.065 378.132 452.065C378.603 447.822 379.311 443.698 380.018 439.455C380.136 439.219 380.135 438.984 380.135 438.63C380.607 436.273 380.96 433.916 381.314 431.559C381.785 428.73 382.139 425.666 383.553 423.073C384.968 420.363 387.796 418.713 390.271 417.181C393.099 415.413 396.046 413.999 398.874 412.349C401.938 410.463 405.002 408.342 407.831 406.22C413.488 402.096 418.791 397.499 423.505 392.196C432.344 382.414 439.18 370.982 443.54 358.608C444.601 355.543 445.544 352.479 446.251 349.297C447.076 345.997 447.901 342.462 448.019 339.044C448.49 335.391 446.958 332.091 444.837 328.909ZM409.834 353.187C409.481 353.187 409.127 353.187 408.774 353.187H408.538C411.838 349.769 414.195 345.173 415.727 340.458C416.198 341.637 416.788 342.816 417.377 343.758C416.788 346.587 415.845 349.415 413.723 351.301C412.898 352.126 411.72 352.715 410.541 352.951C410.424 352.951 410.306 352.951 410.188 353.069C410.188 353.186 409.834 353.187 409.834 353.187ZM370.707 458.076C368.232 458.901 365.757 459.608 363.282 460.079C357.979 461.022 352.44 461.14 347.019 460.668C335.705 459.726 324.745 456.072 313.902 452.537C314.845 444.051 315.552 435.566 316.023 427.08C329.93 436.98 347.019 442.283 364.108 442.048C368.115 442.048 372.121 441.576 376.128 440.987C376.011 441.812 375.893 442.519 375.775 443.344C375.186 446.998 374.714 450.769 374.361 454.54C374.243 455.483 374.832 455.954 375.539 456.19C375.304 456.308 374.95 456.544 374.714 456.662C373.418 457.133 372.121 457.604 370.707 458.076ZM444.012 343.758C443.422 346.94 442.715 350.005 441.773 353.187C438.119 365.443 432.108 376.875 423.977 386.657C415.255 397.146 404.177 405.513 392.274 412.113C387.207 414.942 381.55 417.888 379.546 423.78C378.603 426.609 378.25 429.555 377.661 432.502C377.307 434.152 377.071 435.684 376.718 437.333C360.572 440.28 343.483 437.923 328.634 430.616C324.273 428.495 320.148 426.02 316.377 423.073L316.259 422.955C317.202 403.745 317.555 384.535 319.795 365.443C321.445 351.065 324.391 336.687 329.459 323.016C331.816 316.77 334.998 310.995 340.773 307.342C346.783 303.688 354.09 301.803 360.808 300.035C368.114 298.149 375.539 296.499 382.964 295.674C390.035 294.849 397.46 294.849 404.295 297.442C409.599 299.563 414.431 303.335 416.552 308.638C415.374 308.756 414.313 309.934 415.138 311.231C416.198 312.881 416.552 314.766 416.67 316.77C413.37 321.72 412.663 328.084 413.841 333.976C413.606 335.037 413.37 336.098 413.017 337.158C411.013 344.347 407.241 352.244 399.817 354.836C399.935 354.601 400.17 354.365 400.288 354.129C402.881 349.769 404.413 344.819 406.063 340.105C407.949 334.684 409.599 329.262 410.424 323.605C411.366 317.359 411.131 311.113 409.245 305.22C408.538 303.099 405.12 304.042 405.827 306.163C409.009 315.827 407.006 325.962 403.942 335.391C402.527 339.987 400.877 344.583 398.992 348.944C397.224 352.833 394.985 356.486 391.096 358.49C387.56 360.258 383.435 360.376 379.782 359.079C382.021 357.311 384.26 355.544 386.146 353.422C388.739 350.594 390.389 347.176 391.567 343.523C392.863 339.516 394.16 335.508 394.985 331.501C396.871 323.252 396.988 314.177 392.039 306.988C390.742 305.103 387.678 306.87 388.974 308.756C392.628 313.942 393.217 320.541 392.392 326.787C391.921 330.205 390.978 333.505 390.035 336.923C389.092 339.987 388.267 343.169 386.971 345.997C385.557 349.062 383.553 351.419 381.078 353.54C378.721 355.544 376.246 357.665 373.653 359.315C369.293 362.143 361.279 364.854 358.922 358.136C357.743 354.719 358.804 351.065 360.218 347.765C361.161 345.408 362.811 341.991 365.757 341.991C366.936 341.991 367.761 340.812 367.407 339.751C365.993 335.037 366.347 330.087 368.586 325.609C368.821 325.137 368.822 324.548 368.704 324.195C370.825 321.838 372.593 319.127 374.007 316.299C374.361 315.474 374.243 314.295 373.418 313.824C372.593 313.352 371.414 313.588 370.943 314.413C370.118 316.181 369.057 317.949 367.879 319.598C367.761 319.716 367.643 319.952 367.525 320.07L367.407 320.188C367.289 320.306 367.289 320.306 367.172 320.423C366.818 320.777 366.582 321.248 366.229 321.602C365.993 321.838 365.757 322.073 365.522 322.309C360.454 320.306 359.275 313.824 358.451 308.992C358.333 308.049 357.154 307.577 356.329 307.813C355.386 308.049 354.915 308.992 355.151 309.935C355.74 313.352 356.329 316.888 358.097 319.952C359.393 322.191 361.279 324.077 363.636 325.255C363.636 325.609 363.872 326.08 364.108 326.316C364.225 326.434 364.343 326.552 364.579 326.552C363.282 330.441 362.929 334.566 363.754 338.573C361.515 339.28 359.865 341.166 358.568 343.169C356.683 346.351 355.268 350.24 355.151 354.012C355.033 357.194 355.976 360.729 358.333 362.968C361.043 365.561 364.815 365.915 368.232 365.208C371.297 364.618 374.243 363.086 376.835 361.201C380.842 363.322 385.557 363.793 389.917 362.615C392.981 361.79 395.574 360.022 397.696 357.783C398.049 358.372 398.756 358.726 399.581 358.49C401.938 357.901 404.06 356.958 405.945 355.661C409.363 357.311 413.37 356.487 416.316 354.129C418.555 352.244 419.97 349.651 420.795 346.822C420.912 346.94 421.148 347.058 421.266 347.176C425.391 349.651 430.459 349.062 434.819 350.83C436.941 351.654 437.883 348.237 435.762 347.412C432.108 345.88 427.866 346.233 424.213 344.701C420.441 343.051 419.027 338.455 418.084 334.801C416.198 327.612 417.259 318.891 423.977 314.649C424.802 314.649 425.509 314.531 426.334 314.531C427.984 314.531 429.162 314.884 430.459 315.827C433.169 317.949 435.291 321.013 437.412 323.723C439.651 326.67 441.89 329.616 443.658 332.798C445.19 336.451 444.719 339.869 444.012 343.758ZM327.573 442.048C327.691 442.873 327.691 443.816 327.219 444.523C326.748 445.23 326.159 445.701 325.334 445.937C323.919 446.29 322.505 445.819 321.445 444.876C320.973 444.405 320.502 443.815 320.384 443.226C320.148 442.519 320.266 441.812 320.502 441.105C320.502 440.987 320.62 440.869 320.62 440.751C320.973 439.926 321.798 439.337 322.623 439.219C322.977 439.101 323.33 439.101 323.684 439.101C324.037 439.101 324.509 439.219 324.862 439.337C325.57 439.573 326.159 439.926 326.63 440.398C326.984 440.751 327.455 441.458 327.573 442.048ZM382.375 372.043C387.678 379.35 388.267 389.603 383.907 397.617C382.846 399.621 379.782 397.853 380.843 395.849C384.614 388.896 383.907 380.293 379.31 373.929C378.014 371.925 381.078 370.157 382.375 372.043Z" fill="#DCDCDC"/>
<path d="M214.788 400.212C216.32 386.659 222.448 373.813 231.876 364.032C233.055 362.735 234.469 361.321 234.587 359.553C234.705 357.55 233.055 355.782 232.348 353.896C230.462 349.3 233.409 344.114 233.88 339.164C234.351 333.861 231.758 328.794 231.876 323.49C231.876 314.533 240.597 306.519 249.554 307.109L246.726 304.28C256.39 277.056 232.701 254.428 221.859 231.329C218.087 223.315 214.67 214.712 215.613 205.991C216.556 197.269 223.509 188.548 232.348 188.666C230.934 179.356 240.833 170.163 250.026 172.403C252.501 168.278 255.093 163.799 259.336 161.678C263.579 159.557 269.943 160.617 271.711 165.096C274.775 161.678 278.664 158.496 283.26 158.496C287.621 158.496 291.51 161.56 293.749 165.214C295.988 168.867 296.931 173.228 297.874 177.47C305.063 172.638 315.67 176.645 320.384 183.952C325.098 191.259 325.216 200.57 323.802 209.173C322.27 218.365 319.205 227.322 314.727 235.454C309.777 244.293 302.235 252.896 299.406 262.678C296.106 273.756 300.231 286.367 303.531 296.973L303.177 294.38C308.481 302.63 311.074 312.53 310.484 322.194C310.367 323.844 310.249 325.729 310.956 327.261C311.781 329.029 313.666 330.09 315.081 331.504C316.495 332.918 317.438 335.275 316.023 336.807" fill="#111217"/>
<path d="M314.61 239.224C320.031 230.268 323.802 220.25 325.57 209.879C327.102 200.568 327.22 189.844 321.21 181.948C316.26 175.466 306.949 171.577 299.171 174.877C297.639 168.395 295.282 161.441 288.918 158.259C283.261 155.313 277.722 157.434 273.244 161.206C272.654 160.616 271.712 160.734 271.004 161.323C268.294 158.966 264.404 158.377 260.751 159.32C255.33 160.852 251.912 165.802 249.202 170.398C249.084 170.398 248.966 170.516 248.848 170.516C239.538 169.455 230.816 177.469 230.463 186.662C230.227 186.78 229.992 186.898 229.756 187.016C229.638 187.016 229.638 187.133 229.52 187.133C222.449 188.43 216.91 194.558 214.788 201.394C211.606 211.175 215.496 221.782 219.62 230.621C226.809 246.296 238.477 259.613 244.252 275.877C247.551 284.951 248.141 294.497 244.959 303.69C244.723 304.515 244.959 305.104 245.548 305.575C240.363 306.518 235.648 309.818 232.82 314.297C231.052 317.007 229.992 320.307 229.992 323.489C229.992 327.732 231.524 331.857 231.995 335.982C232.349 339.989 230.934 343.524 230.227 347.413C229.874 349.181 229.756 350.831 230.109 352.599C230.463 354.602 231.641 356.134 232.466 358.02C233.173 359.67 232.348 360.848 231.288 362.145C229.991 363.559 228.695 364.973 227.399 366.388C224.924 369.334 222.685 372.516 220.799 375.934C216.556 383.476 213.963 391.726 213.021 400.211C212.785 402.451 216.32 402.451 216.556 400.211C217.381 393.022 219.62 385.833 222.92 379.469C224.57 376.287 226.574 373.105 228.813 370.277C229.874 368.98 230.934 367.684 232.113 366.388C233.291 365.091 234.824 363.795 235.649 362.145C236.474 360.731 236.591 359.081 236.002 357.431C235.53 355.899 234.352 354.602 233.763 352.953C232.466 349.417 234.352 345.528 235.059 341.992C235.884 338.221 235.413 334.567 234.588 330.796C233.881 327.261 232.938 323.725 233.881 320.189C235.649 313.472 242.366 308.404 249.319 308.758C249.909 308.758 250.262 308.64 250.498 308.286C260.869 310.407 271.593 310.525 281.965 308.522C286.914 307.579 291.982 306.283 296.578 304.279C299.289 303.101 301.882 301.333 303.532 298.976C306.36 304.633 308.128 310.761 308.481 317.125C308.599 319.011 308.599 320.778 308.481 322.664C308.364 324.668 308.364 326.671 309.424 328.439C310.249 329.853 311.428 330.796 312.724 331.739C313.431 332.328 315.553 334.214 314.61 335.392C313.196 337.16 315.671 339.635 317.085 337.867C319.678 334.567 317.321 331.032 314.61 328.793C312.96 327.496 311.899 326.318 311.899 324.079C311.899 321.839 312.135 319.718 312.017 317.479C311.663 308.875 308.953 300.508 304.357 293.319C304.239 293.083 304.003 292.847 303.767 292.73C301.057 283.891 298.346 274.58 300.114 265.388C302.471 255.724 309.425 247.592 314.61 239.224ZM287.975 161.677C292.807 164.623 294.575 170.28 295.754 175.584C294.693 175.702 293.514 175.937 292.571 176.173C290.804 176.527 288.918 177.234 287.386 178.177C283.968 180.416 282.672 184.305 283.497 188.312C284.675 194.44 290.097 198.329 295.989 199.744C295.754 200.215 295.754 200.804 295.989 201.276C295.871 201.393 295.753 201.629 295.636 201.865C295.4 202.808 295.046 203.751 294.811 204.693C294.693 205.165 294.575 205.636 294.339 206.108C294.221 206.461 294.221 206.815 293.986 207.051C293.632 207.404 292.925 207.522 292.454 207.64C291.747 207.758 291.039 207.875 290.332 207.875C287.739 207.993 285.264 207.286 283.143 205.99C283.143 205.636 283.261 205.401 283.261 205.047C283.497 200.215 281.847 195.383 281.375 190.551C280.904 185.837 280.315 181.123 279.136 176.409C278.076 172.284 276.661 168.159 275.011 164.27C278.547 161.088 283.143 158.731 287.975 161.677ZM260.869 162.973C263.815 161.677 268.765 162.149 270.179 165.566C270.533 166.391 271.358 166.98 272.183 166.863C273.715 170.516 274.893 174.287 275.836 178.177C277.015 183.244 277.486 188.312 278.076 193.379C278.547 197.504 280.079 201.747 279.607 205.872L279.49 205.99C279.254 206.461 279.136 206.933 279.372 207.286C279.372 207.404 279.254 207.64 279.254 207.757C278.783 209.525 277.722 211.293 275.836 212C274.068 212.707 272.183 212.472 271.004 210.94C270.651 210.468 270.179 210.35 269.708 210.35C268.294 200.804 264.994 191.258 260.515 182.773C258.394 178.766 256.155 174.405 252.501 171.577C254.623 168.277 257.098 164.505 260.869 162.973ZM249.673 174.169C249.791 174.169 249.791 174.169 249.909 174.169C252.855 176.291 254.741 179.591 256.508 182.773C258.63 186.662 260.515 190.669 262.048 194.794C263.58 199.036 264.758 203.397 265.701 207.757C266.408 210.939 267.351 214.947 266.054 218.247C265.229 220.368 263.344 220.839 261.223 220.721C259.101 220.603 257.098 220.25 255.094 219.661C254.741 216.714 253.326 213.532 252.501 211.057C250.38 205.047 248.023 198.683 244.841 193.144C242.602 189.255 238.477 185.601 233.998 185.719C234.823 178.53 242.602 172.519 249.673 174.169ZM301.528 296.265C300.114 299.094 297.05 300.743 294.221 301.804C289.743 303.572 285.029 304.75 280.315 305.575C270.651 307.225 260.751 306.99 251.205 304.986C250.498 304.868 250.027 305.104 249.673 305.458C249.202 305.458 248.73 305.458 248.259 305.458C248.377 305.34 248.495 305.104 248.612 304.868C250.616 299.212 251.205 293.319 250.734 287.544C250.969 287.78 251.441 288.015 251.912 288.015C267.586 288.487 283.379 284.48 296.814 276.348C297.403 283.066 299.525 289.783 301.528 296.265ZM297.168 264.445C296.578 267.038 296.461 269.63 296.461 272.341C283.143 280.708 267.469 284.951 251.794 284.362C251.087 284.362 250.616 284.716 250.38 285.069C250.144 283.537 249.909 282.005 249.555 280.473C247.551 272.459 243.78 265.034 239.655 257.963C235.413 250.656 230.699 243.703 226.692 236.396C222.213 228.146 217.499 218.718 217.499 209.172C217.499 200.687 223.038 190.433 232.584 190.433C233.409 190.433 233.998 189.962 234.234 189.255C237.534 189.019 240.598 192.319 242.13 195.147C244.605 199.626 246.609 204.576 248.376 209.408C249.319 212 250.144 214.475 250.969 217.068C251.323 218.129 251.794 219.543 251.912 220.721C251.912 220.839 251.912 220.957 251.912 221.075C251.912 221.9 251.677 222.607 250.969 223.196C247.905 225.789 242.602 223.314 239.891 221.311C235.413 218.011 232.702 212.707 230.227 207.875C229.167 205.872 226.102 207.64 227.163 209.643C228.224 211.765 229.284 213.768 230.581 215.772C230.345 215.889 230.109 215.889 229.756 216.007C229.284 216.125 228.813 216.243 228.341 216.243C227.988 216.361 227.87 216.361 227.281 216.361C225.395 216.479 223.745 216.479 222.095 216.007C221.153 215.771 220.092 216.243 219.974 217.186C219.738 218.129 220.21 219.189 221.153 219.307C224.924 220.132 228.931 219.897 232.584 218.6C233.998 220.604 235.766 222.371 237.652 223.904C241.541 226.85 247.669 229.089 252.266 226.378C253.68 225.553 254.505 224.375 254.976 223.078C258.983 224.257 264.051 224.964 267.233 222.489C269.59 220.603 270.297 217.657 270.297 214.711C272.654 216.125 275.836 216.007 278.193 214.711C280.197 213.532 281.611 211.647 282.318 209.525C285.029 210.939 288.093 211.529 291.157 211.293C292.925 211.175 295.282 210.822 296.578 209.29C297.403 208.347 297.639 207.286 297.993 206.108C298.111 205.636 298.346 205.047 298.464 204.575C300.821 207.168 304.003 208.936 307.539 209.643C308.482 209.761 309.542 209.408 309.66 208.465C309.896 207.64 309.424 206.461 308.481 206.343C308.01 206.225 307.421 206.108 306.95 205.99C306.714 205.872 306.478 205.872 306.242 205.754C306.125 205.754 305.889 205.636 305.771 205.636C304.828 205.165 303.885 204.693 302.942 204.104C302.825 203.986 302.825 203.986 302.707 203.869L302.589 203.751C302.353 203.633 302.235 203.397 302 203.279C301.646 202.926 301.293 202.572 300.939 202.218C300.821 201.983 300.586 201.865 300.468 201.629L300.35 201.511C300.232 201.394 300.232 201.393 300.114 201.276C299.878 201.04 299.76 200.804 299.642 200.451C300.232 200.451 300.821 200.568 301.41 200.451C306.714 200.333 311.781 198.329 316.26 195.854C318.263 194.794 316.496 191.73 314.492 192.79C307.303 196.797 297.286 199.39 290.45 193.262C287.74 190.905 285.618 186.544 287.74 183.008C288.682 181.476 290.214 180.651 291.864 180.18C292.807 179.826 293.75 179.708 294.693 179.473C295.636 179.355 296.578 179.001 297.403 179.237C297.875 179.473 298.346 179.355 298.7 179.237C298.818 179.237 298.935 179.119 299.053 179.119C305.535 174.995 314.374 178.412 318.617 184.305C324.156 191.965 323.567 202.572 321.799 211.411C319.795 221.429 315.906 230.857 310.485 239.46C305.418 247.238 299.053 255.017 297.168 264.445ZM274.893 260.202C261.576 256.077 259.101 238.988 261.105 227.203C261.458 224.964 264.876 225.907 264.523 228.146C262.755 237.928 264.522 253.367 275.836 256.784C278.075 257.492 277.133 260.909 274.893 260.202Z" fill="#DCDCDC"/>
<path d="M42.3689 81.2998C41.0725 79.4141 44.1365 77.6463 45.4329 79.532C55.6861 94.3815 67.4714 107.934 80.7888 120.073C82.4387 121.605 79.964 124.08 78.3141 122.548C64.761 110.292 52.74 96.385 42.3689 81.2998ZM412.191 59.7326C398.756 79.2962 386.146 99.3312 374.243 119.838C370.825 125.73 367.525 131.623 364.225 137.516C363.164 139.519 366.229 141.287 367.289 139.283C378.721 118.541 390.978 98.1528 403.942 78.3535C407.595 72.6965 411.366 67.0395 415.256 61.5004C416.552 59.6148 413.488 57.847 412.191 59.7326ZM295.635 0.806155C290.331 8.7023 294.574 20.4875 303.413 23.6695C305.417 24.3766 306.242 21.5482 304.827 20.4875C297.874 15.4199 287.149 19.0733 284.203 26.9695C283.378 29.0908 286.796 30.0337 287.621 27.9123C290.803 19.7805 285.382 9.64518 276.896 7.64168C276.778 8.82021 276.543 9.99863 276.425 11.0593C283.496 11.8843 290.567 9.52716 295.87 4.81304C297.52 3.28095 295.046 0.806212 293.396 2.3383C288.799 6.46315 282.553 8.23083 276.425 7.52372C274.421 7.28801 274.068 10.5878 275.953 10.9413C282.671 12.5913 286.678 20.3696 284.203 26.8515C285.382 27.205 286.442 27.4408 287.621 27.7944C289.86 21.9017 298.11 19.7804 303.06 23.4339C303.531 22.3732 304.002 21.3126 304.474 20.2519C297.638 17.8948 294.81 8.58445 298.817 2.57395C299.995 0.688301 296.931 -1.07949 295.635 0.806155ZM0.17749 163.561C1.23817 165.682 3.24172 166.861 5.24522 167.922C7.13087 168.982 8.66279 170.161 9.48776 172.164C11.0198 175.7 10.3127 180.178 7.36635 182.771C8.42702 183.242 9.36996 183.596 10.4306 184.068C10.7842 180.296 15.027 177.939 18.4447 177.821C23.3945 177.586 27.8728 180.414 31.8798 182.889C32.3512 181.828 32.8226 180.768 33.294 179.707C28.9334 177.939 25.8695 173.461 25.8695 168.747C25.8695 163.915 28.9336 159.672 33.1763 157.786C34.9441 156.961 33.8834 154.604 32.2334 154.486C29.1693 154.251 26.6945 156.136 24.691 158.14C22.5696 160.143 20.6837 161.911 17.9731 162.736C12.7876 164.268 7.01296 162.618 3.71308 158.376C2.29884 156.608 -0.176184 159.083 1.23805 160.851C5.00935 165.447 11.2556 167.45 17.1482 166.507C19.9767 166.036 22.6873 164.857 24.8086 162.972C27.0478 161.086 29.1692 157.786 32.4691 158.022C32.1155 156.961 31.8798 155.783 31.5262 154.722C25.9871 157.197 22.2159 163.09 22.4516 169.218C22.6873 175.464 26.8121 180.885 32.4691 183.125C34.3547 183.832 35.5332 180.885 33.8833 179.943C28.8156 176.878 23.1589 173.579 17.0305 174.639C12.0807 175.464 7.60211 179 7.1307 184.185C7.01285 185.835 9.13431 186.307 10.195 185.482C13.8484 182.3 14.9092 176.878 13.4949 172.4C12.7878 170.161 11.4914 168.157 9.60573 166.625C7.60223 165.093 4.65596 164.386 3.47743 162.029C2.2989 159.672 -0.765334 161.44 0.17749 163.561ZM200.881 20.3696C200.292 40.1689 201.824 59.9683 205.477 79.414C205.949 81.6532 209.248 80.7104 208.895 78.4711C205.359 59.2611 203.827 39.8153 204.417 20.3696C204.535 18.1304 200.999 18.1304 200.881 20.3696ZM410.541 191.021C412.309 192.671 415.138 192.199 416.67 190.431C417.495 189.371 417.966 188.192 417.966 186.778C417.966 185.482 417.613 184.185 417.259 183.007C417.023 182.182 416.316 181.71 415.609 181.71C413.606 181.593 411.602 181.593 409.717 181.475C408.774 181.475 407.949 182.3 407.949 183.243C407.949 184.185 408.774 185.01 409.717 185.01C411.72 185.128 413.724 185.128 415.609 185.246C415.02 184.775 414.43 184.421 413.959 183.95C414.077 184.421 414.195 184.892 414.313 185.364C414.313 185.599 414.431 185.835 414.431 186.071V186.189C414.431 185.953 414.431 185.835 414.431 185.953C414.431 186.071 414.431 186.189 414.431 186.307C414.431 186.542 414.431 186.778 414.431 187.014V187.132C414.431 187.367 414.431 187.25 414.431 187.014C414.431 187.014 414.431 187.25 414.313 187.367C414.313 187.485 414.313 187.603 414.195 187.721V187.839C414.077 188.074 414.195 187.956 414.313 187.721C414.195 187.839 414.195 187.957 414.077 188.074C414.313 187.721 414.313 187.839 414.195 187.957C414.195 188.075 414.077 188.074 414.077 188.074C414.077 188.074 413.959 188.192 413.841 188.192C414.195 187.839 414.077 187.957 413.959 188.074C413.841 188.192 413.723 188.192 413.488 188.31C413.252 188.428 413.841 188.192 413.606 188.31C413.488 188.31 413.488 188.31 413.37 188.428C413.252 188.428 413.252 188.428 413.134 188.428C412.781 188.546 413.606 188.428 413.252 188.428C413.134 188.428 413.134 188.428 413.016 188.428C412.663 188.428 413.134 188.428 413.252 188.428C413.252 188.428 413.016 188.428 413.016 188.31C412.663 188.192 413.252 188.428 413.134 188.428C413.134 188.428 413.016 188.31 412.898 188.31C412.781 188.31 413.252 188.664 413.016 188.31C412.309 187.603 411.131 187.603 410.541 188.31C409.952 189.253 409.834 190.431 410.541 191.021ZM177.9 63.2682C180.375 71.4001 182.849 79.6498 185.324 87.7817C186.031 89.9031 189.449 89.078 188.742 86.8388C186.267 78.707 183.792 70.4572 181.317 62.3253C180.728 60.204 177.311 61.1469 177.9 63.2682ZM75.7211 99.9203C79.021 103.22 82.203 106.402 85.5029 109.702C86.21 110.409 87.3887 110.409 87.978 109.702C88.5672 108.995 88.6851 107.935 87.978 107.227C84.6781 103.928 81.496 100.745 78.1961 97.4456C77.489 96.7385 76.3103 96.7385 75.7211 97.4456C75.1318 98.0349 75.0139 99.2132 75.7211 99.9203ZM368.822 92.8491C364.932 98.7418 361.161 104.634 357.272 110.527C355.976 112.413 359.04 114.181 360.336 112.295C364.225 106.402 367.996 100.51 371.886 94.6169C373.182 92.7313 370.118 90.8456 368.822 92.8491Z" fill="#DCDCDC"/>
</svg>
