<svg width="449" height="600" viewBox="0 0 449 600" fill="none" xmlns="http://www.w3.org/2000/svg">
<path d="M154.919 381.353C138.891 389.25 119.091 385.832 103.888 376.757C88.5674 367.683 77.0178 353.422 66.5289 339.044C60.5184 330.677 54.7434 322.073 51.3257 312.409C40.3654 281.178 56.3936 246.294 79.4927 222.488C102.474 198.681 132.055 182.3 156.804 160.261C167.293 150.951 176.839 140.698 188.035 132.33C216.202 110.999 253.797 102.631 288.446 110.056C307.067 114.063 325.216 122.784 338.062 136.808C348.08 147.651 354.561 161.204 362.575 173.579C370.354 185.6 379.546 196.678 390.035 206.46C399.346 215.181 409.599 222.959 418.084 232.505C446.722 264.915 448.137 318.066 421.384 352.008C403.706 374.4 376.836 387.482 349.965 396.557C328.28 403.981 338.769 338.691 315.906 336.452C299.288 334.802 242.955 361.436 226.337 388.307C219.266 399.739 206.42 399.739 193.103 398.914C176.486 397.971 160.104 392.667 145.962 383.828" fill="#F4F6F9"/>
<path d="M106.834 516.767C107.541 510.992 112.845 506.631 114.259 500.974C114.848 498.617 114.73 496.024 114.612 493.549C113.67 476.107 113.67 458.547 114.612 441.105C114.966 433.68 115.555 426.02 119.444 419.656C122.391 414.824 127.105 410.816 127.694 405.16C128.048 401.742 126.751 398.442 126.751 395.024C126.751 391.607 128.755 387.6 132.173 387.6L130.64 386.892C131.819 379.821 127.341 372.986 121.919 368.272C116.498 363.558 109.898 360.258 104.713 355.426C98.7023 349.887 94.6954 342.698 90.9241 335.509C83.9707 322.427 77.371 308.756 76.1924 294.024C75.8389 289.664 76.0745 285.185 77.6066 281.178C81.1422 272.104 90.5703 267.154 99.2914 262.911L99.6451 260.79C102.474 251.833 112.255 246.647 121.566 246.176C130.876 245.705 139.951 249.004 148.79 252.304C163.403 257.726 178.842 263.854 187.446 276.818C195.813 289.31 194.281 302.745 194.988 316.888C195.578 327.73 198.995 336.805 198.052 348.119C197.699 351.89 197.227 355.661 197.699 359.315C198.759 366.622 203.827 373.457 203.002 380.764L202.059 376.993C209.956 391.371 214.905 407.281 216.555 423.663C217.144 428.966 217.38 434.623 220.091 439.219C222.801 443.815 227.633 446.762 231.405 450.651C243.19 463.143 241.54 482.825 238.712 499.913" fill="white"/>
<path d="M235.883 453.597C233.526 450.18 230.462 447.469 227.28 444.641C223.98 441.694 221.152 438.63 219.855 434.27C218.559 429.791 218.559 425.195 217.97 420.599C217.381 415.767 216.437 411.052 215.377 406.338C213.02 396.674 209.366 387.364 204.77 378.525C204.534 372.161 200.881 366.504 199.585 360.376C198.76 356.604 199.349 352.598 199.703 348.826C200.056 344.937 199.938 341.048 199.467 337.277C198.642 330.088 196.874 322.898 196.638 315.591C196.285 308.52 196.52 301.331 195.46 294.26C194.517 287.189 192.042 280.354 187.799 274.579C184.028 269.393 179.078 265.268 173.657 261.851C168.118 258.433 161.99 255.722 155.979 253.365C149.026 250.655 141.955 247.826 134.765 246.058C127.223 244.173 119.091 243.819 111.784 246.765C105.42 249.358 100.117 253.954 97.9954 260.554C97.8776 261.026 97.8774 261.497 98.1131 261.851C90.3348 265.622 82.0852 269.982 77.6068 277.643C72.3034 286.718 74.3069 298.503 77.0175 308.049C79.9639 318.538 85.0317 328.437 90.0993 337.984C92.5742 342.58 95.049 347.058 98.2311 351.065C101.413 355.19 105.184 358.608 109.427 361.554C114.141 364.854 119.091 367.8 123.098 371.925C126.752 375.814 129.816 381 128.873 386.539C128.873 386.775 128.873 386.893 128.873 387.011C126.987 388.189 125.691 390.428 125.219 392.668C124.276 397.146 126.751 401.507 125.809 405.985C124.984 409.992 121.92 413.174 119.563 416.356C116.97 419.891 115.202 423.898 114.259 428.259C113.316 432.737 112.963 437.334 112.845 441.93C112.609 447.116 112.373 452.419 112.373 457.722C112.138 468.329 112.373 478.936 112.727 489.543C112.845 492.253 113.081 495.082 112.963 497.91C112.845 500.267 112.138 502.389 110.959 504.51C108.838 508.399 105.774 511.935 105.184 516.413C105.066 517.356 105.42 518.299 106.363 518.535C107.188 518.77 108.366 518.299 108.484 517.356C109.073 513.585 111.313 510.638 113.316 507.456C115.556 503.685 116.616 499.914 116.38 495.553C116.027 485.536 115.556 475.518 115.673 465.383C115.673 455.483 115.791 445.466 116.734 435.566C117.087 431.205 117.913 426.727 119.798 422.838C121.566 419.184 124.277 416.238 126.516 412.938C127.694 411.17 128.637 409.285 129.226 407.281C129.816 404.924 129.58 402.449 129.226 400.092C128.873 397.735 128.284 395.378 128.873 393.021C129.226 391.96 129.816 390.782 130.759 390.075C141.601 392.55 152.561 395.142 163.757 394.317C173.186 393.61 182.496 390.664 190.51 385.714C194.163 383.475 197.581 381 200.645 378.054C200.881 378.525 201.117 378.997 201.352 379.468C201.352 379.939 201.352 380.411 201.234 380.882C201.117 382.061 202.06 382.65 202.885 382.532C206.302 389.485 209.131 396.674 211.134 404.099C212.313 408.578 213.373 413.174 214.081 417.77C214.788 422.367 215.023 427.08 215.73 431.677C216.438 436.037 217.97 439.926 220.916 443.226C223.627 446.408 227.162 448.765 229.991 451.712C235.294 457.251 237.887 464.676 238.712 472.218C239.655 481.293 238.594 490.368 237.062 499.324C236.708 501.564 240.126 502.507 240.48 500.267C242.954 485.182 245.076 467.151 235.883 453.597ZM177.9 387.6C168.707 390.782 159.161 391.371 149.497 390.192C144.194 389.485 138.89 388.307 133.705 387.128C133.587 386.539 133.116 386.068 132.408 386.068C133.116 376.757 126.28 369.333 119.091 364.029C114.966 360.965 110.488 358.372 106.599 354.955C102.71 351.537 99.7632 347.53 97.0525 343.169C94.3419 338.809 91.9848 334.094 89.6277 329.498C87.1528 324.666 84.7958 319.834 82.9102 314.767C81.0245 309.817 79.4925 304.631 78.5497 299.446C77.7247 294.378 77.1354 288.721 78.5497 283.653C81.2603 273.872 91.16 268.804 99.5276 264.797C99.8811 265.386 100.588 265.858 101.413 265.74C103.299 265.386 105.42 265.033 107.306 265.504C109.545 266.093 110.37 267.743 110.724 269.982C111.313 273.754 110.723 277.879 109.073 281.296C108.484 282.475 107.777 283.536 107.07 284.596C106.127 284.714 105.538 285.421 105.538 286.364C104.124 287.661 102.592 288.721 100.706 289.428C96.1098 291.196 90.2172 291.668 85.3852 290.489C83.146 289.9 82.2031 293.317 84.4423 293.907C89.1564 295.085 94.3419 294.85 99.056 293.671C101.531 293.082 103.77 292.139 105.774 290.725C106.716 295.557 109.663 299.917 113.906 302.392C114.023 302.51 114.141 302.51 114.259 302.51C114.731 304.278 115.32 305.928 116.027 307.578C118.148 312.41 122.155 318.42 128.166 317.831C128.637 317.831 128.991 317.595 129.344 317.359C131.701 320.07 134.765 322.309 138.183 323.606C132.644 328.791 130.051 336.805 131.937 344.23C132.526 346.469 135.944 345.526 135.355 343.287C133.705 336.569 136.415 328.909 142.072 324.784L142.19 324.666C142.426 324.666 142.662 324.784 142.897 324.784C147.729 325.491 152.679 324.902 157.276 323.134C161.4 321.484 165.761 318.774 167.411 314.413C168.471 311.584 167.882 308.874 166.35 306.753C166.468 306.635 166.586 306.635 166.704 306.517C167.057 306.281 167.411 306.163 167.764 305.928C167.882 305.928 168 305.81 168 305.81C168.236 305.692 168.354 305.692 168.589 305.574C168.943 305.456 169.296 305.338 169.768 305.338C169.886 305.338 170.004 305.338 170.121 305.338C170.357 305.338 170.475 305.338 170.711 305.338C170.946 305.338 171.182 305.338 171.3 305.338C171.418 305.338 171.536 305.338 171.536 305.338C171.653 305.338 171.653 305.338 171.771 305.338C171.653 305.338 171.653 305.338 171.536 305.338C171.653 305.338 172.007 305.456 172.125 305.456C172.361 305.456 172.596 305.574 172.832 305.574C173.775 305.81 174.836 305.22 174.953 304.395C175.189 303.453 174.718 302.51 173.775 302.274C170.357 301.214 166.468 302.039 163.757 304.278C163.168 303.924 162.697 303.571 161.99 303.335C160.811 302.863 159.633 302.51 158.454 302.392C158.572 302.392 158.572 302.274 158.69 302.274C159.868 301.332 160.811 300.153 161.636 298.856C163.64 295.91 165.525 292.964 167.529 290.135C168.118 289.31 167.647 288.132 166.939 287.66C166.114 287.189 165.054 287.543 164.464 288.25C162.697 290.842 160.929 293.435 159.279 296.028C158.572 297.089 157.983 298.031 157.158 298.856C157.04 298.974 156.686 299.328 156.568 299.446C156.686 299.328 156.333 299.681 156.333 299.681C156.215 299.799 156.097 299.799 155.979 299.917C155.979 299.917 155.861 299.917 155.861 300.035C155.743 300.035 155.626 300.153 155.508 300.153C155.508 300.153 154.918 300.153 155.272 300.153C154.329 300.035 153.386 300.389 153.151 301.331C153.033 301.803 153.15 302.392 153.504 302.864C153.268 302.864 153.15 302.981 152.915 302.981C153.033 302.746 153.151 302.51 153.151 302.156C153.033 297.324 149.379 292.728 144.547 291.903C143.605 291.785 142.544 292.139 142.426 293.082C142.19 293.907 142.662 295.085 143.604 295.203C144.076 295.321 144.547 295.439 145.019 295.556C145.136 295.556 145.254 295.674 145.372 295.674C145.137 295.557 145.136 295.556 145.254 295.556C145.254 295.556 145.372 295.557 145.372 295.674C145.608 295.792 145.844 295.91 145.962 296.028C146.197 296.146 146.315 296.264 146.551 296.382C146.669 296.5 146.786 296.499 146.786 296.617C146.433 296.382 146.669 296.617 146.786 296.617C147.14 296.971 147.494 297.324 147.847 297.678C147.965 297.796 148.083 297.914 148.083 297.914L147.965 297.796C147.965 297.914 148.083 297.914 148.083 298.032C148.201 298.267 148.319 298.385 148.437 298.621C148.554 298.856 148.672 299.092 148.79 299.21C148.79 299.328 148.908 299.446 148.908 299.564C149.026 300.035 149.261 300.388 149.261 300.86C149.261 300.978 149.261 301.096 149.379 301.213C149.379 301.449 149.379 301.685 149.379 301.921C149.379 302.51 149.733 303.217 150.322 303.453C148.79 304.042 147.258 304.749 145.844 305.456C143.84 306.399 145.608 309.463 147.611 308.52C151.265 306.753 155.743 304.631 159.868 306.046C160.811 306.399 161.636 306.753 162.225 307.342C162.343 307.46 162.343 307.578 162.461 307.695C162.579 307.813 162.697 307.813 162.815 307.931C164.229 309.463 164.818 311.467 163.757 313.588C161.99 317.006 157.865 319.009 154.447 320.188C150.558 321.484 146.197 321.838 142.19 320.895C134.648 319.127 129.109 313.47 127.459 305.928C126.634 301.921 126.516 297.678 126.869 293.671C127.223 289.9 128.519 286.011 131.23 283.3C134.294 280.236 138.655 278.822 142.662 277.525C147.847 275.875 153.033 274.225 158.218 272.575C160.339 271.868 159.397 268.45 157.276 269.158C151.854 270.925 146.315 272.575 140.894 274.343C136.651 275.757 132.173 277.407 128.873 280.589C125.573 283.771 124.041 288.25 123.451 292.728C122.862 297.56 122.98 302.628 124.159 307.342C124.748 309.699 125.691 311.938 126.987 313.942C123.098 313.588 120.623 309.11 119.209 305.81C117.323 301.567 116.616 296.853 116.498 292.257C116.38 287.543 116.97 282.593 118.266 277.996C118.855 275.522 119.916 273.4 121.802 271.633C123.452 270.1 125.691 268.922 127.694 267.861C132.055 265.74 136.415 267.036 141.012 267.154C143.251 267.272 143.251 263.736 141.012 263.618C136.415 263.383 131.937 262.204 127.459 264.09C122.391 266.211 117.559 269.511 115.555 274.815C113.67 279.882 113.081 285.775 112.963 291.196C112.963 293.082 113.081 294.967 113.316 296.853C110.724 294.378 109.192 290.843 108.956 287.189C109.074 286.953 109.309 286.836 109.427 286.6C111.784 283.653 113.434 280.118 114.023 276.347C114.613 272.575 114.848 267.743 112.491 264.561C111.431 263.029 110.016 262.204 108.367 261.733C108.484 261.497 108.602 261.261 108.602 261.026C108.602 260.554 108.72 260.083 108.956 259.494C109.074 259.14 109.074 259.022 109.191 258.904C109.309 258.669 109.427 258.315 109.663 258.079C110.252 257.137 111.195 256.194 111.902 255.604C114.259 253.837 116.97 253.129 119.798 252.54C120.741 252.304 121.33 251.244 120.977 250.419C120.741 249.476 119.798 249.005 118.855 249.24C115.438 249.948 112.138 251.008 109.427 253.129C106.952 255.133 105.302 257.961 105.067 261.143C105.067 261.261 105.067 261.379 105.067 261.497C103.535 261.497 102.002 261.733 100.588 261.968C100.588 261.968 100.588 261.851 100.47 261.851C100.706 261.615 100.942 261.379 101.059 261.026C102.827 255.605 107.424 251.715 112.609 249.594C118.855 247.119 125.455 247.237 131.937 248.651C139.008 250.183 145.844 252.894 152.679 255.486C158.572 257.726 164.347 260.201 169.768 263.265C175.071 266.329 180.021 270.1 183.792 274.815C188.035 280.118 190.51 286.364 191.689 293.082C192.749 299.682 192.631 306.399 192.867 313.117C193.103 320.07 194.281 326.906 195.46 333.741C196.049 337.63 196.403 341.637 196.285 345.644C196.167 350.005 195.224 354.365 195.813 358.726C196.403 363.558 198.878 368.154 200.292 372.868C194.046 379.704 186.385 384.653 177.9 387.6ZM167.882 305.928C168 305.928 167.882 305.928 167.882 305.928V305.928ZM155.508 300.035C155.39 300.035 155.39 300.035 155.508 300.035V300.035ZM211.488 414.235C205.595 416.945 199.702 419.656 193.692 421.895C182.85 425.902 171.771 427.67 160.34 425.784C148.908 424.016 138.183 419.184 127.694 414.588C125.573 413.645 127.459 410.581 129.462 411.524C135.119 413.999 140.894 416.592 146.786 418.595C157.158 422.249 168.118 424.134 179.078 422.248C189.921 420.363 199.938 415.767 209.72 411.17C211.724 410.228 213.491 413.292 211.488 414.235ZM190.628 404.453C191.335 405.278 192.278 405.867 193.338 406.221C195.342 406.928 197.817 406.338 199.231 404.688C200.527 403.039 201.117 400.681 200.292 398.678C199.82 397.499 199.231 396.675 198.17 395.967C197.345 395.378 196.167 395.142 195.224 395.142C194.046 395.142 192.867 395.496 191.924 396.085C190.746 396.792 190.039 397.735 189.567 399.031C189.449 399.385 189.449 399.856 189.685 400.21C189.449 400.564 189.214 400.917 189.331 401.271C189.449 402.449 189.803 403.51 190.628 404.453ZM194.871 403.039C194.871 403.039 194.988 403.039 195.106 403.039C194.988 403.039 194.871 403.039 194.871 403.039ZM196.167 402.921C196.167 402.803 196.167 402.803 196.167 402.921V402.921ZM196.638 402.567C196.638 402.567 196.756 402.449 196.756 402.331C196.756 402.449 196.638 402.449 196.638 402.567ZM196.992 401.978L197.11 401.742C196.992 401.86 196.992 401.978 196.992 401.978ZM197.228 401.153C197.228 401.035 197.228 401.035 197.228 401.035C197.228 401.035 197.228 401.035 197.228 401.153ZM197.11 399.856C197.11 399.856 197.11 399.857 197.11 399.739C197.11 399.857 197.11 399.856 197.11 399.856ZM196.874 399.503C196.874 399.503 196.756 399.385 196.756 399.267C196.874 399.385 196.874 399.503 196.874 399.503ZM194.163 398.914C194.045 398.914 194.046 398.914 194.046 398.914C194.046 398.914 194.045 398.914 194.163 398.914ZM193.221 399.621C193.339 399.503 193.456 399.385 193.456 399.267C193.456 399.267 193.574 399.267 193.574 399.149C193.692 399.032 193.81 399.032 193.928 398.914C193.928 398.914 194.046 398.914 194.046 398.796C194.163 398.796 194.399 398.678 194.517 398.678C194.635 398.678 194.635 398.678 194.753 398.678C194.87 398.678 194.988 398.678 195.224 398.678C195.342 398.678 195.342 398.678 195.46 398.678C195.578 398.678 195.813 398.796 195.813 398.796C195.931 398.796 195.931 398.796 196.049 398.914C196.167 399.032 196.285 399.032 196.403 399.149L196.52 399.267L196.638 399.385C196.638 399.385 196.638 399.503 196.756 399.503C196.756 399.621 196.874 399.621 196.874 399.739C196.874 399.739 196.874 399.739 196.992 399.856C196.992 399.974 197.11 400.21 197.11 400.328V400.446C197.11 400.563 197.11 400.799 197.11 400.917C197.11 401.035 197.11 401.153 197.11 401.153C197.11 401.271 196.992 401.506 196.992 401.506C196.992 401.506 196.992 401.624 196.992 401.742V401.86C196.992 401.978 196.874 401.978 196.874 402.096C196.874 402.096 196.756 402.214 196.756 402.331C196.756 402.331 196.756 402.449 196.638 402.449C196.52 402.567 196.521 402.567 196.403 402.685L196.285 402.803C196.167 402.921 196.049 402.921 195.931 403.039H195.813C195.696 403.039 195.696 403.039 195.578 403.039C195.46 403.039 195.342 403.039 195.106 403.039C195.106 403.039 195.106 403.039 194.988 403.039H194.871C194.635 403.039 194.517 402.921 194.281 402.921C194.281 402.921 194.163 402.921 194.163 402.803C194.045 402.685 193.81 402.567 193.692 402.449C193.574 402.332 193.574 402.331 193.456 402.213C193.338 402.096 193.339 402.096 193.221 401.978L193.103 401.86C193.103 401.742 192.985 401.742 192.985 401.624C192.985 401.624 192.985 401.624 192.985 401.506V401.389C192.985 401.271 192.867 401.153 192.867 401.035V400.917C192.867 400.682 192.749 400.563 192.749 400.446C192.867 400.328 192.985 400.21 192.985 399.974C192.985 399.856 193.103 399.857 193.103 399.739C193.103 399.739 193.103 399.621 193.221 399.621Z" fill="black"/>
<path d="M271.946 595.492C266.289 580.642 275.482 564.732 282.671 550.472C292.688 530.437 299.17 508.516 301.409 486.242C302.588 474.457 303.295 461.375 312.016 453.361V453.479C317.32 410.109 312.37 364.736 327.219 323.605C329.223 318.184 331.58 312.645 335.94 308.756C339.83 305.102 345.015 303.099 350.083 301.331C359.04 298.385 368.35 296.028 377.778 294.613C386.028 293.317 394.631 292.61 402.527 295.085C408.538 296.97 414.666 300.977 417.613 306.752C418.673 308.873 418.555 311.702 420.559 312.763C422.68 313.823 426.687 312.055 429.398 313.587C431.873 315.002 433.759 317.241 435.644 319.48C438.237 322.662 440.712 325.962 442.951 329.38C444.365 331.383 445.662 333.505 446.133 335.862C446.604 338.101 446.251 340.34 445.897 342.579C442.244 364.147 431.048 384.299 414.548 398.677C409.952 402.684 404.884 406.338 399.817 409.756C394.867 413.055 387.796 415.884 383.553 420.127C380.253 423.427 380.018 429.201 379.075 433.68C377.661 440.515 376.6 447.468 375.893 454.422L377.778 456.308C384.967 458.547 387.678 467.504 386.971 474.928C386.264 482.353 383.317 489.542 383.317 497.084C383.435 508.516 390.389 518.534 396.045 528.551C407.949 549.765 414.077 574.16 413.606 598.438" fill="white"/>
<path d="M444.837 328.909C442.715 325.726 440.358 322.544 438.001 319.48C435.88 316.77 433.758 314.059 430.812 312.291C429.516 311.584 428.219 311.231 426.687 311.113C425.155 311.113 423.741 311.466 422.209 311.231C421.03 311.113 420.677 310.288 420.323 309.227C419.852 307.813 419.498 306.399 418.673 304.984C417.141 302.156 414.784 299.917 412.309 297.913C400.288 288.838 384.142 291.314 370.353 294.024C362.811 295.556 355.268 297.56 347.961 300.153C341.597 302.392 335.587 305.456 331.462 310.995C327.337 316.652 325.098 323.605 323.095 330.205C320.855 337.394 319.205 344.701 317.909 352.125C312.841 381.824 313.902 412.113 311.309 442.165C310.956 445.583 310.602 449.001 310.248 452.418C304.002 458.429 301.763 467.032 300.703 475.282C300.113 479.76 299.76 484.357 299.17 488.835C298.581 494.138 297.638 499.324 296.578 504.509C294.339 514.998 291.274 525.252 287.385 535.151C283.496 544.933 278.31 554.008 274.068 563.554C269.589 573.689 266.054 585.003 270.061 595.846C270.886 597.967 274.303 597.024 273.478 594.903C269.943 585.474 272.653 575.575 276.425 566.736C280.432 557.425 285.5 548.704 289.507 539.394C293.514 529.848 296.695 520.066 299.052 510.048C301.292 500.267 302.588 490.485 303.649 480.468C304.592 471.746 305.888 462.2 312.134 455.6C312.134 455.6 312.134 455.6 312.252 455.6C331.109 461.729 351.969 468.329 371.65 461.375C373.889 460.55 376.364 459.843 378.25 458.193C385.439 461.257 386.146 471.275 384.967 477.993C384.025 483.178 382.492 488.246 381.903 493.431C381.432 498.381 382.139 503.213 383.671 507.927C386.853 517.356 392.864 525.487 397.342 534.326C402.056 543.637 405.592 553.536 408.066 563.672C410.777 574.985 412.074 586.653 411.956 598.321C411.956 600.56 415.491 600.56 415.491 598.321C415.845 576.989 411.248 555.658 402.174 536.33C399.935 531.616 397.342 527.019 394.749 522.423C392.157 518.062 389.564 513.584 387.678 508.752C385.792 503.92 384.85 498.97 385.321 493.903C385.792 488.481 387.56 483.178 388.503 477.875C389.799 469.625 388.15 459.018 380.018 455.129C380.136 454.186 379.9 453.361 379.075 452.536C378.721 452.183 378.485 452.065 378.132 452.065C378.603 447.822 379.311 443.697 380.018 439.455C380.136 439.219 380.135 438.983 380.135 438.63C380.607 436.273 380.96 433.916 381.314 431.559C381.785 428.73 382.139 425.666 383.553 423.073C384.967 420.363 387.796 418.713 390.271 417.181C393.099 415.413 396.046 413.998 398.874 412.348C401.938 410.463 405.002 408.342 407.831 406.22C413.488 402.095 418.791 397.499 423.505 392.196C432.344 382.414 439.18 370.982 443.54 358.607C444.601 355.543 445.544 352.479 446.251 349.297C447.076 345.997 447.901 342.462 448.019 339.044C448.49 335.391 446.958 332.091 444.837 328.909ZM409.834 353.186C409.481 353.186 409.127 353.186 408.774 353.186H408.538C411.838 349.769 414.195 345.172 415.727 340.458C416.198 341.637 416.788 342.815 417.377 343.758C416.788 346.587 415.845 349.415 413.723 351.301C412.898 352.126 411.72 352.715 410.541 352.951C410.424 352.951 410.306 352.951 410.188 353.068C410.188 353.186 409.834 353.186 409.834 353.186ZM370.707 458.075C368.232 458.9 365.757 459.608 363.282 460.079C357.979 461.022 352.44 461.14 347.019 460.668C335.705 459.725 324.745 456.072 313.902 452.536C314.845 444.051 315.552 435.566 316.023 427.08C329.93 436.98 347.019 442.283 364.108 442.047C368.115 442.047 372.121 441.576 376.128 440.987C376.011 441.812 375.893 442.519 375.775 443.344C375.186 446.997 374.714 450.769 374.361 454.54C374.243 455.483 374.832 455.954 375.539 456.19C375.303 456.308 374.95 456.543 374.714 456.661C373.418 457.133 372.121 457.604 370.707 458.075ZM444.012 343.758C443.422 346.94 442.715 350.004 441.773 353.186C438.119 365.443 432.108 376.875 423.977 386.656C415.255 397.145 404.177 405.513 392.274 412.113C387.207 414.941 381.55 417.888 379.546 423.78C378.603 426.609 378.25 429.555 377.661 432.501C377.307 434.151 377.071 435.683 376.718 437.333C360.572 440.28 343.483 437.923 328.634 430.616C324.273 428.494 320.148 426.02 316.377 423.073L316.259 422.955C317.202 403.745 317.555 384.535 319.795 365.443C321.445 351.065 324.391 336.687 329.459 323.016C331.816 316.77 334.998 310.995 340.773 307.341C346.783 303.688 354.09 301.802 360.808 300.035C368.114 298.149 375.539 296.499 382.964 295.674C390.035 294.849 397.46 294.849 404.295 297.442C409.599 299.563 414.431 303.334 416.552 308.638C415.374 308.756 414.313 309.934 415.138 311.231C416.198 312.881 416.552 314.766 416.67 316.77C413.37 321.719 412.663 328.084 413.841 333.976C413.606 335.037 413.37 336.098 413.016 337.158C411.013 344.347 407.241 352.243 399.817 354.836C399.935 354.6 400.17 354.365 400.288 354.129C402.881 349.769 404.413 344.819 406.063 340.105C407.949 334.683 409.599 329.262 410.424 323.605C411.366 317.359 411.131 311.113 409.245 305.22C408.538 303.099 405.12 304.041 405.827 306.163C409.009 315.827 407.006 325.962 403.942 335.39C402.527 339.987 400.877 344.583 398.992 348.944C397.224 352.833 394.985 356.486 391.096 358.49C387.56 360.258 383.435 360.375 379.782 359.079C382.021 357.311 384.26 355.543 386.146 353.422C388.739 350.594 390.388 347.176 391.567 343.522C392.863 339.515 394.16 335.508 394.985 331.501C396.871 323.252 396.988 314.177 392.039 306.988C390.742 305.102 387.678 306.87 388.974 308.756C392.628 313.941 393.217 320.541 392.392 326.787C391.921 330.205 390.978 333.505 390.035 336.923C389.092 339.987 388.267 343.169 386.971 345.997C385.557 349.061 383.553 351.419 381.078 353.54C378.721 355.543 376.246 357.665 373.653 359.315C369.293 362.143 361.279 364.854 358.922 358.136C357.743 354.718 358.804 351.065 360.218 347.765C361.161 345.408 362.811 341.99 365.757 341.99C366.936 341.99 367.761 340.812 367.407 339.751C365.993 335.037 366.346 330.087 368.586 325.609C368.821 325.137 368.822 324.548 368.704 324.194C370.825 321.837 372.593 319.127 374.007 316.298C374.361 315.473 374.243 314.295 373.418 313.823C372.593 313.352 371.414 313.588 370.943 314.413C370.118 316.18 369.057 317.948 367.879 319.598C367.761 319.716 367.643 319.952 367.525 320.07L367.407 320.188C367.289 320.305 367.289 320.305 367.172 320.423C366.818 320.777 366.582 321.248 366.229 321.602C365.993 321.837 365.757 322.073 365.522 322.309C360.454 320.305 359.275 313.823 358.451 308.991C358.333 308.049 357.154 307.577 356.329 307.813C355.386 308.049 354.915 308.992 355.151 309.934C355.74 313.352 356.329 316.888 358.097 319.952C359.393 322.191 361.279 324.077 363.636 325.255C363.636 325.609 363.872 326.08 364.108 326.316C364.225 326.434 364.343 326.551 364.579 326.551C363.282 330.441 362.929 334.565 363.754 338.572C361.515 339.28 359.865 341.165 358.568 343.169C356.683 346.351 355.268 350.24 355.151 354.011C355.033 357.193 355.975 360.729 358.333 362.968C361.043 365.561 364.815 365.914 368.232 365.207C371.297 364.618 374.243 363.086 376.835 361.2C380.842 363.322 385.557 363.793 389.917 362.615C392.981 361.79 395.574 360.022 397.696 357.782C398.049 358.372 398.756 358.725 399.581 358.49C401.938 357.9 404.06 356.957 405.945 355.661C409.363 357.311 413.37 356.486 416.316 354.129C418.555 352.244 419.97 349.651 420.795 346.822C420.912 346.94 421.148 347.058 421.266 347.176C425.391 349.651 430.459 349.061 434.819 350.829C436.941 351.654 437.883 348.236 435.762 347.411C432.108 345.879 427.866 346.233 424.213 344.701C420.441 343.051 419.027 338.455 418.084 334.801C416.198 327.612 417.259 318.891 423.977 314.648C424.802 314.648 425.509 314.531 426.334 314.531C427.984 314.531 429.162 314.884 430.459 315.827C433.169 317.948 435.291 321.012 437.412 323.723C439.651 326.669 441.89 329.616 443.658 332.798C445.19 336.451 444.719 339.869 444.012 343.758ZM327.573 442.047C327.691 442.872 327.691 443.815 327.219 444.522C326.748 445.23 326.159 445.701 325.334 445.937C323.919 446.29 322.505 445.819 321.445 444.876C320.973 444.405 320.502 443.815 320.384 443.226C320.148 442.519 320.266 441.812 320.502 441.104C320.502 440.987 320.62 440.869 320.62 440.751C320.973 439.926 321.798 439.337 322.623 439.219C322.977 439.101 323.33 439.101 323.684 439.101C324.037 439.101 324.509 439.219 324.862 439.337C325.57 439.572 326.159 439.926 326.63 440.398C326.984 440.751 327.455 441.458 327.573 442.047ZM382.375 372.043C387.678 379.35 388.267 389.603 383.907 397.617C382.846 399.62 379.782 397.853 380.843 395.849C384.614 388.896 383.907 380.292 379.31 373.928C378.014 371.925 381.078 370.157 382.375 372.043Z" fill="black"/>
<path d="M214.788 400.21C216.32 386.657 222.448 373.811 231.876 364.029C233.055 362.733 234.469 361.318 234.587 359.551C234.705 357.547 233.055 355.779 232.348 353.894C230.462 349.297 233.409 344.112 233.88 339.162C234.351 333.859 231.758 328.791 231.876 323.488C231.876 314.531 240.597 306.517 249.554 307.106L246.726 304.278C256.39 277.054 232.701 254.426 221.859 231.327C218.087 223.313 214.67 214.709 215.613 205.988C216.556 197.267 223.509 188.546 232.348 188.664C230.934 179.353 240.833 170.161 250.026 172.4C252.501 168.275 255.093 163.797 259.336 161.676C263.579 159.554 269.943 160.615 271.711 165.093C274.775 161.676 278.664 158.494 283.26 158.494C287.621 158.494 291.51 161.558 293.749 165.211C295.988 168.865 296.931 173.225 297.874 177.468C305.063 172.636 315.67 176.643 320.384 183.95C325.098 191.257 325.216 200.567 323.802 209.17C322.27 218.363 319.205 227.32 314.727 235.451C309.777 244.29 302.235 252.894 299.406 262.676C296.106 273.754 300.231 286.364 303.531 296.971L303.177 294.378C308.481 302.628 311.074 312.527 310.484 322.191C310.367 323.841 310.249 325.727 310.956 327.259C311.781 329.027 313.666 330.087 315.081 331.502C316.495 332.916 317.438 335.273 316.023 336.805" fill="white"/>
<path d="M314.609 239.223C320.031 230.266 323.802 220.248 325.57 209.877C327.102 200.567 327.22 189.842 321.209 181.946C316.259 175.464 306.949 171.575 299.171 174.875C297.638 168.393 295.281 161.44 288.917 158.257C283.26 155.311 277.721 157.433 273.243 161.204C272.654 160.615 271.711 160.733 271.004 161.322C268.293 158.965 264.404 158.376 260.75 159.318C255.329 160.85 251.912 165.8 249.201 170.396C249.083 170.396 248.965 170.514 248.847 170.514C239.537 169.454 230.816 177.468 230.462 186.66C230.227 186.778 229.991 186.896 229.755 187.014C229.637 187.014 229.637 187.131 229.519 187.131C222.448 188.428 216.909 194.556 214.788 201.392C211.606 211.174 215.495 221.78 219.62 230.619C226.809 246.294 238.476 259.611 244.251 275.875C247.551 284.949 248.14 294.496 244.958 303.688C244.723 304.513 244.958 305.102 245.547 305.574C240.362 306.517 235.648 309.817 232.819 314.295C231.052 317.006 229.991 320.306 229.991 323.488C229.991 327.73 231.523 331.855 231.994 335.98C232.348 339.987 230.934 343.522 230.227 347.411C229.873 349.179 229.755 350.829 230.109 352.597C230.462 354.601 231.641 356.133 232.466 358.018C233.173 359.668 232.348 360.847 231.287 362.143C229.991 363.557 228.695 364.972 227.398 366.386C224.923 369.332 222.684 372.514 220.798 375.932C216.556 383.475 213.963 391.724 213.02 400.21C212.784 402.449 216.32 402.449 216.556 400.21C217.381 393.021 219.62 385.832 222.92 379.468C224.57 376.286 226.573 373.104 228.812 370.275C229.873 368.979 230.934 367.682 232.112 366.386C233.291 365.09 234.823 363.793 235.648 362.143C236.473 360.729 236.591 359.079 236.001 357.429C235.53 355.897 234.351 354.601 233.762 352.951C232.466 349.415 234.352 345.526 235.059 341.99C235.884 338.219 235.412 334.566 234.587 330.794C233.88 327.259 232.937 323.723 233.88 320.188C235.648 313.47 242.365 308.402 249.319 308.756C249.908 308.756 250.262 308.638 250.497 308.284C260.868 310.406 271.593 310.524 281.964 308.52C286.914 307.577 291.982 306.281 296.578 304.277C299.288 303.099 301.881 301.331 303.531 298.974C306.36 304.631 308.127 310.759 308.481 317.123C308.599 319.009 308.599 320.777 308.481 322.662C308.363 324.666 308.363 326.67 309.424 328.437C310.249 329.852 311.427 330.794 312.724 331.737C313.431 332.327 315.552 334.212 314.609 335.391C313.195 337.158 315.67 339.633 317.084 337.866C319.677 334.566 317.32 331.03 314.609 328.791C312.959 327.495 311.899 326.316 311.899 324.077C311.899 321.838 312.134 319.716 312.016 317.477C311.663 308.874 308.952 300.506 304.356 293.317C304.238 293.081 304.002 292.846 303.767 292.728C301.056 283.889 298.346 274.579 300.113 265.386C302.471 255.722 309.424 247.59 314.609 239.223ZM287.975 161.675C292.807 164.622 294.574 170.279 295.753 175.582C294.692 175.7 293.514 175.936 292.571 176.171C290.803 176.525 288.917 177.232 287.385 178.175C283.968 180.414 282.671 184.303 283.496 188.31C284.675 194.438 290.096 198.328 295.989 199.742C295.753 200.213 295.753 200.802 295.989 201.274C295.871 201.392 295.753 201.627 295.635 201.863C295.399 202.806 295.046 203.749 294.81 204.692C294.692 205.163 294.574 205.635 294.338 206.106C294.221 206.459 294.221 206.813 293.985 207.049C293.632 207.402 292.924 207.52 292.453 207.638C291.746 207.756 291.039 207.874 290.332 207.874C287.739 207.992 285.264 207.284 283.142 205.988C283.142 205.634 283.26 205.399 283.26 205.045C283.496 200.213 281.846 195.381 281.375 190.549C280.903 185.835 280.314 181.121 279.136 176.407C278.075 172.282 276.661 168.157 275.011 164.268C278.546 161.086 283.143 158.729 287.975 161.675ZM260.868 162.972C263.815 161.675 268.764 162.147 270.179 165.565C270.532 166.39 271.357 166.979 272.182 166.861C273.714 170.514 274.893 174.286 275.836 178.175C277.014 183.242 277.486 188.31 278.075 193.378C278.546 197.503 280.078 201.745 279.607 205.87L279.489 205.988C279.253 206.459 279.136 206.931 279.371 207.284C279.371 207.402 279.254 207.638 279.254 207.756C278.782 209.524 277.721 211.291 275.836 211.999C274.068 212.706 272.182 212.47 271.004 210.938C270.65 210.467 270.179 210.349 269.707 210.349C268.293 200.803 264.993 191.256 260.515 182.771C258.393 178.764 256.154 174.403 252.501 171.575C254.622 168.275 257.097 164.504 260.868 162.972ZM249.672 174.168C249.79 174.168 249.79 174.168 249.908 174.168C252.854 176.289 254.74 179.589 256.508 182.771C258.629 186.66 260.515 190.667 262.047 194.792C263.579 199.035 264.758 203.395 265.7 207.756C266.408 210.938 267.35 214.945 266.054 218.245C265.229 220.366 263.343 220.837 261.222 220.72C259.101 220.602 257.097 220.248 255.094 219.659C254.74 216.713 253.326 213.531 252.501 211.056C250.379 205.045 248.022 198.681 244.84 193.142C242.601 189.253 238.476 185.599 233.998 185.717C234.823 178.528 242.601 172.518 249.672 174.168ZM301.528 296.263C300.113 299.092 297.049 300.742 294.221 301.802C289.742 303.57 285.028 304.749 280.314 305.574C270.65 307.224 260.751 306.988 251.204 304.984C250.497 304.867 250.026 305.102 249.672 305.456C249.201 305.456 248.73 305.456 248.258 305.456C248.376 305.338 248.494 305.102 248.612 304.867C250.615 299.21 251.204 293.317 250.733 287.542C250.969 287.778 251.44 288.014 251.911 288.014C267.586 288.485 283.378 284.478 296.814 276.346C297.403 283.064 299.524 289.782 301.528 296.263ZM297.167 264.443C296.578 267.036 296.46 269.629 296.46 272.339C283.143 280.707 267.468 284.949 251.794 284.36C251.087 284.36 250.615 284.714 250.38 285.067C250.144 283.535 249.908 282.003 249.554 280.471C247.551 272.457 243.78 265.032 239.655 257.961C235.412 250.654 230.698 243.701 226.691 236.394C222.213 228.144 217.498 218.716 217.498 209.17C217.498 200.685 223.038 190.431 232.584 190.431C233.409 190.431 233.998 189.96 234.233 189.253C237.533 189.017 240.598 192.317 242.13 195.146C244.605 199.624 246.608 204.574 248.376 209.406C249.319 211.999 250.144 214.474 250.969 217.066C251.322 218.127 251.794 219.541 251.911 220.72C251.911 220.837 251.911 220.955 251.911 221.073C251.911 221.898 251.676 222.605 250.969 223.195C247.905 225.787 242.601 223.312 239.89 221.309C235.412 218.009 232.702 212.706 230.227 207.874C229.166 205.87 226.102 207.638 227.162 209.642C228.223 211.763 229.284 213.766 230.58 215.77C230.345 215.888 230.109 215.888 229.755 216.005C229.284 216.123 228.812 216.241 228.341 216.241C227.987 216.359 227.87 216.359 227.28 216.359C225.395 216.477 223.745 216.477 222.095 216.005C221.152 215.77 220.091 216.241 219.973 217.184C219.738 218.127 220.209 219.188 221.152 219.305C224.923 220.13 228.93 219.895 232.584 218.598C233.998 220.602 235.766 222.37 237.651 223.902C241.541 226.848 247.669 229.087 252.265 226.377C253.679 225.552 254.504 224.373 254.976 223.077C258.983 224.255 264.05 224.962 267.232 222.487C269.589 220.602 270.297 217.656 270.297 214.709C272.654 216.123 275.836 216.006 278.193 214.709C280.196 213.531 281.61 211.645 282.318 209.524C285.028 210.938 288.092 211.527 291.157 211.291C292.924 211.173 295.281 210.82 296.578 209.288C297.403 208.345 297.638 207.284 297.992 206.106C298.11 205.635 298.345 205.045 298.463 204.574C300.82 207.167 304.003 208.934 307.538 209.642C308.481 209.759 309.542 209.406 309.659 208.463C309.895 207.638 309.424 206.459 308.481 206.342C308.009 206.224 307.42 206.106 306.949 205.988C306.713 205.87 306.477 205.87 306.242 205.752C306.124 205.752 305.888 205.635 305.77 205.635C304.828 205.163 303.885 204.692 302.942 204.102C302.824 203.985 302.824 203.985 302.706 203.867L302.588 203.749C302.352 203.631 302.235 203.395 301.999 203.278C301.645 202.924 301.292 202.57 300.938 202.217C300.821 201.981 300.585 201.863 300.467 201.627L300.349 201.51C300.231 201.392 300.231 201.392 300.113 201.274C299.878 201.038 299.76 200.802 299.642 200.449C300.231 200.449 300.82 200.567 301.41 200.449C306.713 200.331 311.781 198.328 316.259 195.853C318.263 194.792 316.495 191.728 314.491 192.788C307.302 196.795 297.285 199.388 290.45 193.26C287.739 190.903 285.618 186.542 287.739 183.007C288.682 181.475 290.214 180.65 291.864 180.178C292.807 179.825 293.749 179.707 294.692 179.471C295.635 179.353 296.578 179 297.403 179.235C297.874 179.471 298.346 179.353 298.699 179.235C298.817 179.235 298.935 179.118 299.053 179.118C305.535 174.993 314.374 178.41 318.616 184.303C324.155 191.964 323.566 202.57 321.798 211.409C319.795 221.427 315.906 230.855 310.485 239.458C305.417 247.237 299.053 255.015 297.167 264.443ZM274.893 260.2C261.575 256.075 259.101 238.987 261.104 227.201C261.458 224.962 264.875 225.905 264.522 228.144C262.754 237.926 264.522 253.365 275.836 256.783C278.075 257.49 277.132 260.907 274.893 260.2Z" fill="black"/>
<path d="M42.3689 81.2998C41.0725 79.4141 44.1365 77.6463 45.4329 79.532C55.6861 94.3815 67.4714 107.934 80.7888 120.073C82.4387 121.605 79.964 124.08 78.3141 122.548C64.761 110.292 52.74 96.385 42.3689 81.2998ZM412.191 59.7326C398.756 79.2962 386.146 99.3312 374.243 119.838C370.825 125.73 367.525 131.623 364.225 137.516C363.164 139.519 366.229 141.287 367.289 139.283C378.721 118.541 390.978 98.1528 403.942 78.3535C407.595 72.6965 411.366 67.0395 415.256 61.5004C416.552 59.6148 413.488 57.847 412.191 59.7326ZM295.635 0.806155C290.331 8.7023 294.574 20.4875 303.413 23.6695C305.417 24.3766 306.242 21.5482 304.827 20.4875C297.874 15.4199 287.149 19.0733 284.203 26.9695C283.378 29.0908 286.796 30.0337 287.621 27.9123C290.803 19.7805 285.382 9.64518 276.896 7.64168C276.778 8.82021 276.543 9.99863 276.425 11.0593C283.496 11.8843 290.567 9.52716 295.87 4.81304C297.52 3.28095 295.046 0.806212 293.396 2.3383C288.799 6.46315 282.553 8.23083 276.425 7.52372C274.421 7.28801 274.068 10.5878 275.953 10.9413C282.671 12.5913 286.678 20.3696 284.203 26.8515C285.382 27.205 286.442 27.4408 287.621 27.7944C289.86 21.9017 298.11 19.7804 303.06 23.4339C303.531 22.3732 304.002 21.3126 304.474 20.2519C297.638 17.8948 294.81 8.58445 298.817 2.57395C299.995 0.688301 296.931 -1.07949 295.635 0.806155ZM0.17749 163.561C1.23817 165.682 3.24172 166.861 5.24522 167.922C7.13087 168.982 8.66279 170.161 9.48776 172.164C11.0198 175.7 10.3127 180.178 7.36635 182.771C8.42702 183.242 9.36996 183.596 10.4306 184.068C10.7842 180.296 15.027 177.939 18.4447 177.821C23.3945 177.586 27.8728 180.414 31.8798 182.889C32.3512 181.828 32.8226 180.768 33.294 179.707C28.9334 177.939 25.8695 173.461 25.8695 168.747C25.8695 163.915 28.9336 159.672 33.1763 157.786C34.9441 156.961 33.8834 154.604 32.2334 154.486C29.1693 154.251 26.6945 156.136 24.691 158.14C22.5696 160.143 20.6837 161.911 17.9731 162.736C12.7876 164.268 7.01296 162.618 3.71308 158.376C2.29884 156.608 -0.176184 159.083 1.23805 160.851C5.00935 165.447 11.2556 167.45 17.1482 166.507C19.9767 166.036 22.6873 164.857 24.8086 162.972C27.0478 161.086 29.1692 157.786 32.4691 158.022C32.1155 156.961 31.8798 155.783 31.5262 154.722C25.9871 157.197 22.2159 163.09 22.4516 169.218C22.6873 175.464 26.8121 180.885 32.4691 183.125C34.3547 183.832 35.5332 180.885 33.8833 179.943C28.8156 176.878 23.1589 173.579 17.0305 174.639C12.0807 175.464 7.60211 179 7.1307 184.185C7.01285 185.835 9.13431 186.307 10.195 185.482C13.8484 182.3 14.9092 176.878 13.4949 172.4C12.7878 170.161 11.4914 168.157 9.60573 166.625C7.60223 165.093 4.65596 164.386 3.47743 162.029C2.2989 159.672 -0.765334 161.44 0.17749 163.561ZM200.881 20.3696C200.292 40.1689 201.824 59.9683 205.477 79.414C205.949 81.6532 209.248 80.7104 208.895 78.4711C205.359 59.2611 203.827 39.8153 204.417 20.3696C204.535 18.1304 200.999 18.1304 200.881 20.3696ZM410.541 191.021C412.309 192.671 415.138 192.199 416.67 190.431C417.495 189.371 417.966 188.192 417.966 186.778C417.966 185.482 417.613 184.185 417.259 183.007C417.023 182.182 416.316 181.71 415.609 181.71C413.606 181.593 411.602 181.593 409.717 181.475C408.774 181.475 407.949 182.3 407.949 183.243C407.949 184.185 408.774 185.01 409.717 185.01C411.72 185.128 413.724 185.128 415.609 185.246C415.02 184.775 414.43 184.421 413.959 183.95C414.077 184.421 414.195 184.892 414.313 185.364C414.313 185.599 414.431 185.835 414.431 186.071V186.189C414.431 185.953 414.431 185.835 414.431 185.953C414.431 186.071 414.431 186.189 414.431 186.307C414.431 186.542 414.431 186.778 414.431 187.014V187.132C414.431 187.367 414.431 187.25 414.431 187.014C414.431 187.014 414.431 187.25 414.313 187.367C414.313 187.485 414.313 187.603 414.195 187.721V187.839C414.077 188.074 414.195 187.956 414.313 187.721C414.195 187.839 414.195 187.957 414.077 188.074C414.313 187.721 414.313 187.839 414.195 187.957C414.195 188.075 414.077 188.074 414.077 188.074C414.077 188.074 413.959 188.192 413.841 188.192C414.195 187.839 414.077 187.957 413.959 188.074C413.841 188.192 413.723 188.192 413.488 188.31C413.252 188.428 413.841 188.192 413.606 188.31C413.488 188.31 413.488 188.31 413.37 188.428C413.252 188.428 413.252 188.428 413.134 188.428C412.781 188.546 413.606 188.428 413.252 188.428C413.134 188.428 413.134 188.428 413.016 188.428C412.663 188.428 413.134 188.428 413.252 188.428C413.252 188.428 413.016 188.428 413.016 188.31C412.663 188.192 413.252 188.428 413.134 188.428C413.134 188.428 413.016 188.31 412.899 188.31C412.781 188.31 413.252 188.664 413.016 188.31C412.309 187.603 411.131 187.603 410.541 188.31C409.952 189.253 409.834 190.431 410.541 191.021ZM177.9 63.2682C180.375 71.4001 182.849 79.6498 185.324 87.7817C186.031 89.9031 189.449 89.078 188.742 86.8388C186.267 78.707 183.792 70.4572 181.317 62.3253C180.728 60.204 177.311 61.1469 177.9 63.2682ZM75.7211 99.9203C79.021 103.22 82.203 106.402 85.5029 109.702C86.21 110.409 87.3887 110.409 87.9779 109.702C88.5672 108.995 88.6851 107.935 87.9779 107.227C84.6781 103.928 81.496 100.745 78.1961 97.4456C77.489 96.7385 76.3103 96.7385 75.7211 97.4456C75.1318 98.0349 75.0139 99.2132 75.7211 99.9203ZM368.822 92.8491C364.932 98.7418 361.161 104.634 357.272 110.527C355.976 112.413 359.04 114.181 360.336 112.295C364.225 106.402 367.996 100.51 371.886 94.6169C373.182 92.7313 370.118 90.8456 368.822 92.8491Z" fill="black"/>
</svg>
