<svg width="531" height="600" viewBox="0 0 531 600" fill="none" xmlns="http://www.w3.org/2000/svg">
<path d="M287.65 313.287L287.644 313.292C268.879 328.39 265.907 355.84 281.005 374.604L435.021 566.025C450.118 584.789 477.568 587.761 496.332 572.663L496.339 572.658C515.103 557.56 518.076 530.111 502.978 511.346L348.962 319.926C333.865 301.162 306.414 298.19 287.65 313.287Z" fill="#13161A"/>
<path d="M468.948 583.239C462.188 583.253 455.51 581.748 449.41 578.834C443.31 575.92 437.943 571.672 433.706 566.405L279.667 374.996C275.948 370.375 273.175 365.065 271.507 359.372C269.84 353.678 269.31 347.712 269.948 341.814C270.586 335.916 272.38 330.202 275.226 324.997C278.073 319.792 281.918 315.198 286.539 311.479C291.161 307.76 296.471 304.987 302.164 303.319C307.857 301.652 313.823 301.122 319.721 301.76C325.619 302.398 331.334 304.192 336.539 307.038C341.744 309.885 346.337 313.73 350.057 318.351L504.096 509.76C509.438 516.393 512.795 524.402 513.78 532.863C514.764 541.323 513.336 549.889 509.66 557.572C505.984 565.255 500.21 571.742 493.005 576.283C485.799 580.825 477.457 583.236 468.94 583.239H468.948ZM314.849 304.675C306.922 304.677 299.156 306.921 292.45 311.148C285.744 315.376 280.37 321.413 276.949 328.565C273.529 335.716 272.2 343.69 273.118 351.564C274.036 359.438 277.162 366.892 282.135 373.065L436.174 564.473C443.166 573.162 453.323 578.719 464.411 579.92C475.499 581.121 486.61 577.868 495.3 570.877C503.99 563.886 509.547 553.729 510.748 542.64C511.949 531.552 508.696 520.441 501.705 511.751L347.666 320.351C343.721 315.445 338.723 311.489 333.043 308.775C327.362 306.062 321.144 304.661 314.849 304.675V304.675Z" fill="#25272E"/>
<path d="M339.201 330.365L293.947 366.776C279.922 378.061 277.7 398.579 288.985 412.604L313.552 443.138C324.837 457.164 345.355 459.386 359.381 448.101L404.635 411.69C418.66 400.405 420.882 379.887 409.597 365.861L385.029 335.327C373.744 321.302 353.227 319.08 339.201 330.365Z" fill="#13161A"/>
<path d="M338.895 456.249C333.78 456.256 328.73 455.112 324.118 452.902C319.505 450.692 315.449 447.474 312.249 443.484L287.679 412.957C282.012 405.893 279.376 396.869 280.351 387.865C281.326 378.861 285.831 370.611 292.879 364.924L338.129 328.516C345.191 322.844 354.215 320.206 363.221 321.181C372.226 322.156 380.477 326.664 386.162 333.716L410.731 364.243C416.399 371.307 419.034 380.33 418.059 389.334C417.084 398.338 412.58 406.588 405.532 412.276L360.281 448.683C354.23 453.581 346.68 456.252 338.895 456.249ZM359.516 324.142C352.454 324.123 345.599 326.526 340.095 330.95L294.845 367.366C288.442 372.53 284.348 380.023 283.463 388.202C282.577 396.38 284.972 404.575 290.122 410.99L314.691 441.526C319.855 447.93 327.349 452.023 335.528 452.907C343.707 453.791 351.903 451.393 358.316 446.241L403.566 409.834C409.969 404.669 414.062 397.176 414.947 388.998C415.833 380.82 413.438 372.623 408.289 366.208L383.719 335.673C380.806 332.061 377.119 329.149 372.93 327.153C368.74 325.157 364.156 324.128 359.516 324.142V324.142Z" fill="#25272E"/>
<path d="M205.797 406.882C317.723 406.882 408.456 316.149 408.456 204.223C408.456 92.2979 317.723 1.56445 205.797 1.56445C93.8716 1.56445 3.13818 92.2979 3.13818 204.223C3.13818 316.149 93.8716 406.882 205.797 406.882Z" fill="#111217"/>
<path d="M205.804 408.501C93.1941 408.501 1.55371 316.886 1.55371 204.251C1.55371 91.6149 93.1686 0 205.804 0C318.44 0 410.055 91.6149 410.055 204.251C410.055 316.886 318.414 408.501 205.804 408.501ZM205.804 3.17479C94.9217 3.17479 4.71105 93.3846 4.71105 204.267C4.71105 315.15 94.9217 405.369 205.804 405.369C316.687 405.369 406.906 315.158 406.906 204.267C406.906 93.3761 316.687 3.13158 205.804 3.13158V3.17479Z" fill="#25272E"/>
<path d="M205.799 334.743C277.885 334.743 336.323 276.305 336.323 204.218C336.323 132.131 277.885 73.6934 205.799 73.6934C133.712 73.6934 75.2739 132.131 75.2739 204.218C75.2739 276.305 133.712 334.743 205.799 334.743Z" fill="#111217"/>
<path d="M205.806 336.319C132.973 336.319 73.7153 277.06 73.7153 204.219C73.7153 131.379 132.973 72.1289 205.806 72.1289C278.638 72.1289 337.905 131.387 337.905 204.219C337.905 277.052 278.638 336.319 205.806 336.319ZM205.806 75.2613C134.701 75.2613 76.8469 133.132 76.8469 204.219C76.8469 275.307 134.718 333.187 205.806 333.187C276.893 333.187 334.773 275.316 334.773 204.219C334.773 133.123 276.911 75.2613 205.806 75.2613Z" fill="#25272E"/>
<path d="M193.894 106.162L180.315 291.959L183.439 292.187L197.018 106.39L193.894 106.162Z" fill="#25272E"/>
<path d="M222.284 182.412L214.993 238.783L218.098 239.185L225.39 182.813L222.284 182.412Z" fill="#25272E"/>
<path d="M389.855 196.761C388.466 196.757 387.126 196.251 386.081 195.336C385.036 194.421 384.357 193.158 384.17 191.782C376.622 135.613 351.125 91.6145 308.377 61.0621C276.326 38.152 246.021 31.7858 245.723 31.7177C244.231 31.4163 242.92 30.5348 242.078 29.2668C241.236 27.9987 240.932 26.4486 241.233 24.9567C241.535 23.4647 242.416 22.1534 243.684 21.3115C244.952 20.4696 246.503 20.1658 247.995 20.4671C249.314 20.7309 280.641 27.2754 314.64 51.428C346.043 73.7509 385.575 115.954 395.549 190.25C395.651 190.997 395.604 191.756 395.412 192.485C395.219 193.214 394.886 193.898 394.429 194.497C393.972 195.097 393.401 195.599 392.749 195.977C392.097 196.356 391.377 196.602 390.63 196.701C390.374 196.742 390.114 196.762 389.855 196.761V196.761Z" fill="#111217"/>
<path d="M117.431 368.992C116.545 368.993 115.672 368.789 114.878 368.396C71.8831 347.18 47.7731 311.095 35.1266 284.56C21.5099 255.931 17.9354 232.502 17.7907 231.514C17.5852 230.017 17.9776 228.499 18.8836 227.289C19.7896 226.079 21.1364 225.276 22.631 225.052C24.1257 224.828 25.6481 225.202 26.8688 226.093C28.0895 226.984 28.9096 228.32 29.1518 229.812C29.1518 230.033 32.6495 252.79 45.645 279.913C57.5596 304.687 80.0444 338.362 119.958 358.056C121.121 358.631 122.054 359.582 122.607 360.755C123.16 361.928 123.3 363.253 123.004 364.516C122.708 365.778 121.994 366.903 120.977 367.708C119.961 368.513 118.702 368.95 117.405 368.949L117.431 368.992Z" fill="#111217"/>
<path d="M170.968 444.827C108.629 444.827 66.817 419.653 42.0601 397.415C12.6991 371.033 0.674103 343.8 0.171987 342.677C-0.0480806 342.169 -0.0572687 341.594 0.146223 341.079C0.349716 340.565 0.749551 340.152 1.2574 339.932C1.76525 339.712 2.33922 339.702 2.85394 339.906C3.36865 340.109 3.78162 340.509 4.00168 341.017C4.12083 341.29 16.24 368.684 44.9798 394.437C71.4558 418.155 117.897 445.296 188.806 439.977C189.08 439.954 189.355 439.985 189.617 440.069C189.878 440.154 190.12 440.29 190.329 440.469C190.537 440.648 190.708 440.866 190.831 441.112C190.954 441.358 191.026 441.626 191.044 441.9C191.065 442.173 191.032 442.448 190.946 442.709C190.861 442.969 190.725 443.21 190.546 443.418C190.368 443.625 190.15 443.796 189.906 443.919C189.661 444.043 189.395 444.118 189.121 444.138C182.875 444.609 176.824 444.838 170.968 444.827Z" fill="#25272E"/>
</svg>
