<svg width="529" height="600" viewBox="0 0 529 600" fill="none" xmlns="http://www.w3.org/2000/svg">
<path d="M295.916 322.292L295.91 322.297C276.606 337.829 273.549 366.068 289.08 385.371L447.522 582.293C463.053 601.596 491.292 604.653 510.596 589.122L510.602 589.117C529.906 573.585 532.964 545.346 517.433 526.043L358.991 329.122C343.459 309.818 315.22 306.76 295.916 322.292Z" fill="#EBECEE"/>
<path d="M482.424 600C475.47 600.015 468.601 598.466 462.325 595.469C456.05 592.471 450.529 588.101 446.17 582.682L287.704 385.773C283.878 381.019 281.025 375.557 279.31 369.7C277.594 363.843 277.049 357.705 277.706 351.637C278.362 345.57 280.207 339.691 283.136 334.337C286.064 328.982 290.019 324.257 294.774 320.43C299.528 316.604 304.99 313.752 310.847 312.036C316.704 310.321 322.841 309.776 328.909 310.432C334.977 311.089 340.856 312.934 346.21 315.862C351.565 318.791 356.29 322.746 360.117 327.5L518.582 524.409C524.078 531.234 527.532 539.473 528.545 548.176C529.557 556.879 528.088 565.692 524.306 573.596C520.525 581.5 514.585 588.173 507.173 592.845C499.76 597.517 491.178 599.997 482.416 600H482.424ZM323.897 313.431C315.742 313.433 307.753 315.741 300.854 320.09C293.955 324.439 288.427 330.65 284.908 338.007C281.389 345.364 280.023 353.567 280.967 361.667C281.911 369.767 285.127 377.436 290.243 383.786L448.709 580.695C455.901 589.634 466.35 595.351 477.757 596.586C489.164 597.822 500.594 594.475 509.534 587.283C518.474 580.091 524.19 569.642 525.426 558.235C526.661 546.828 523.315 535.398 516.122 526.458L357.657 329.557C353.598 324.511 348.457 320.441 342.613 317.649C336.77 314.858 330.373 313.416 323.897 313.431V313.431Z" fill="#9EA3B5"/>
<path d="M348.949 339.861L302.394 377.319C287.966 388.928 285.68 410.035 297.29 424.464L322.563 455.875C334.172 470.304 355.28 472.59 369.709 460.981L416.263 423.523C430.692 411.914 432.977 390.806 421.368 376.378L396.094 344.966C384.485 330.537 363.378 328.252 348.949 339.861Z" fill="#EBECEE"/>
<path d="M348.634 469.366C343.372 469.373 338.177 468.195 333.432 465.922C328.687 463.649 324.514 460.338 321.222 456.233L295.946 424.829C290.116 417.562 287.405 408.279 288.408 399.016C289.411 389.753 294.046 381.266 301.296 375.415L347.846 337.961C355.112 332.126 364.395 329.413 373.659 330.416C382.923 331.419 391.411 336.056 397.259 343.311L422.535 374.715C428.365 381.982 431.076 391.264 430.073 400.527C429.071 409.79 424.437 418.278 417.186 424.129L370.635 461.582C364.41 466.621 356.643 469.369 348.634 469.366ZM369.848 333.461C362.583 333.443 355.531 335.915 349.868 340.465L303.318 377.928C296.731 383.241 292.52 390.949 291.609 399.362C290.698 407.776 293.162 416.207 298.459 422.806L323.735 454.219C329.047 460.807 336.756 465.018 345.17 465.927C353.584 466.836 362.016 464.37 368.613 459.069L415.163 421.616C421.75 416.303 425.961 408.595 426.872 400.182C427.783 391.768 425.32 383.336 420.022 376.737L394.746 345.324C391.75 341.608 387.957 338.613 383.647 336.56C379.337 334.506 374.621 333.448 369.848 333.461V333.461Z" fill="#9EA3B5"/>
<path d="M211.712 418.576C326.854 418.576 420.195 325.235 420.195 210.093C420.195 94.9513 326.854 1.61035 211.712 1.61035C96.5696 1.61035 3.22864 94.9513 3.22864 210.093C3.22864 325.235 96.5696 418.576 211.712 418.576Z" fill="#FCFCFC"/>
<path d="M211.719 420.241C95.8724 420.241 1.59839 325.993 1.59839 210.12C1.59839 94.2477 95.8461 0 211.719 0C327.591 0 421.839 94.2477 421.839 210.12C421.839 325.993 327.565 420.241 211.719 420.241ZM211.719 3.26603C97.6496 3.26603 4.84646 96.0684 4.84646 210.137C4.84646 324.206 97.6496 417.019 211.719 417.019C325.788 417.019 418.6 324.215 418.6 210.137C418.6 96.0596 325.788 3.22157 211.719 3.22157V3.26603Z" fill="#9EA3B5"/>
<path d="M211.713 344.369C285.871 344.369 345.989 284.252 345.989 210.094C345.989 135.935 285.871 75.8179 211.713 75.8179C137.554 75.8179 77.4371 135.935 77.4371 210.094C77.4371 284.252 137.554 344.369 211.713 344.369Z" fill="#FCFCFC"/>
<path d="M211.72 345.99C136.795 345.99 75.8335 285.028 75.8335 210.094C75.8335 135.16 136.795 74.2075 211.72 74.2075C286.645 74.2075 347.615 135.169 347.615 210.094C347.615 285.019 286.645 345.99 211.72 345.99ZM211.72 77.4299C138.572 77.4299 79.0551 136.963 79.0551 210.094C79.0551 283.225 138.589 342.768 211.72 342.768C284.851 342.768 344.394 283.233 344.394 210.094C344.394 136.955 284.868 77.4299 211.72 77.4299Z" fill="#9EA3B5"/>
<path d="M199.466 109.217L185.497 300.354L188.71 300.589L202.679 109.452L199.466 109.217Z" fill="#9EA3B5"/>
<path d="M228.672 187.653L221.171 245.645L224.366 246.058L231.867 188.066L228.672 187.653Z" fill="#9EA3B5"/>
<path d="M401.059 202.416C399.63 202.412 398.251 201.891 397.176 200.95C396.101 200.009 395.403 198.71 395.211 197.294C387.445 139.511 361.215 94.2479 317.239 62.8174C284.268 39.2489 253.091 32.6997 252.784 32.6297C251.25 32.3197 249.901 31.4128 249.034 30.1084C248.168 28.8039 247.856 27.2093 248.166 25.6744C248.476 24.1396 249.383 22.7906 250.687 21.9245C251.992 21.0584 253.587 20.7458 255.122 21.0558C256.479 21.3272 288.706 28.0597 323.682 52.9064C355.988 75.8708 396.655 119.287 406.916 195.718C407.021 196.486 406.973 197.268 406.775 198.017C406.577 198.767 406.234 199.471 405.764 200.087C405.294 200.704 404.706 201.221 404.036 201.61C403.365 201.999 402.624 202.252 401.856 202.355C401.592 202.396 401.326 202.417 401.059 202.416V202.416Z" fill="#FCFCFC"/>
<path d="M120.806 379.592C119.895 379.593 118.996 379.383 118.179 378.979C73.949 357.153 49.146 320.031 36.1361 292.733C22.1281 263.281 18.4509 239.179 18.302 238.163C18.0906 236.623 18.4943 235.061 19.4263 233.817C20.3584 232.572 21.7438 231.745 23.2814 231.515C24.819 231.285 26.3852 231.67 27.641 232.586C28.8968 233.503 29.7404 234.878 29.9896 236.412C29.9896 236.64 33.5878 260.051 46.9567 287.953C59.2138 313.439 82.3448 348.082 123.406 368.341C124.601 368.933 125.562 369.912 126.131 371.118C126.699 372.325 126.844 373.688 126.539 374.987C126.235 376.286 125.5 377.443 124.454 378.271C123.408 379.099 122.113 379.549 120.779 379.547L120.806 379.592Z" fill="#FCFCFC"/>
<path d="M175.882 457.607C111.751 457.607 68.7372 431.71 43.2689 408.833C13.0641 381.693 0.693476 353.677 0.17693 352.521C-0.0494624 351.999 -0.0589145 351.408 0.150426 350.878C0.359766 350.349 0.771092 349.924 1.29354 349.697C1.81598 349.471 2.40645 349.462 2.93596 349.671C3.46546 349.88 3.89029 350.292 4.11669 350.814C4.23926 351.094 16.7067 379.276 46.2724 405.769C73.5093 430.169 121.285 458.089 194.232 452.618C194.514 452.594 194.797 452.626 195.066 452.712C195.335 452.799 195.584 452.94 195.798 453.124C196.013 453.308 196.188 453.533 196.315 453.785C196.441 454.038 196.516 454.314 196.535 454.596C196.556 454.877 196.522 455.16 196.434 455.428C196.346 455.696 196.206 455.943 196.022 456.157C195.839 456.371 195.615 456.546 195.363 456.674C195.112 456.801 194.837 456.877 194.556 456.898C188.13 457.383 181.905 457.619 175.882 457.607Z" fill="#9EA3B5"/>
</svg>
