<svg width="368" height="600" viewBox="0 0 368 600" fill="none" xmlns="http://www.w3.org/2000/svg">
<path d="M51.3996 32.5645C46.0442 32.5645 40.8246 34.4502 37.1361 38.1311C33.4401 41.7969 31.5544 47.0542 31.5544 52.3945V547.595C31.5544 552.935 33.4401 558.155 37.1361 561.851C40.8246 565.547 46.0442 567.432 51.3996 567.432H316.303C321.643 567.432 326.908 565.547 330.559 561.851C334.262 558.155 336.141 552.935 336.141 547.595V52.3945C336.141 47.0542 334.255 41.7969 330.559 38.1311C326.908 34.4426 321.643 32.5645 316.303 32.5645H275.406C272.185 32.5645 269.319 34.4879 268.104 37.4673L262.01 52.3945C260.041 57.2747 258.48 59.6658 255.991 61.2799C253.562 62.9318 249.24 64.3046 240.754 64.3046H126.933C118.455 64.3046 114.133 62.9243 111.697 61.2799C109.223 59.6733 107.646 57.2822 105.685 52.3945L99.5981 37.4673C98.4064 34.518 95.5401 32.5645 92.3646 32.5645H51.3996Z" fill="#242D37"/>
<path d="M50.2049 15.6362H317.477C336.771 15.6362 352 30.9481 352 50.2049V549.795C352 569.044 336.764 584.371 317.477 584.371H50.2049C30.9255 584.371 15.6739 569.044 15.6739 549.795V50.2049C15.6815 30.9557 30.9255 15.6362 50.2049 15.6362V15.6362ZM50.2049 0C22.5228 0 0 22.5228 0 50.2049V549.795C0 577.492 22.5228 600 50.2049 600H317.477C345.174 600 367.719 577.492 367.719 549.795V50.2049C367.719 22.5228 345.174 0 317.477 0H50.2049Z" fill="#16202C"/>
<path d="M158.563 32.5645C154.196 32.5645 150.711 36.0492 150.711 40.4165C150.711 44.7762 154.196 48.2761 158.563 48.2761H213.09C217.412 48.2761 220.95 44.7762 220.95 40.4165C220.95 36.0492 217.412 32.5645 213.09 32.5645H158.563Z" fill="#25272E"/>
</svg>
