<svg width="368" height="600" viewBox="0 0 368 600" fill="none" xmlns="http://www.w3.org/2000/svg">
<path d="M51.3987 32.5698C46.0433 32.5698 40.8237 34.4555 37.1353 38.1364C33.4393 41.8022 31.5536 47.0596 31.5536 52.3999V547.6C31.5536 552.94 33.4393 558.16 37.1353 561.856C40.8237 565.552 46.0433 567.438 51.3987 567.438H316.302C321.642 567.438 326.907 565.552 330.558 561.856C334.262 558.16 336.14 552.94 336.14 547.6V52.3999C336.14 47.0596 334.254 41.8022 330.558 38.1364C326.907 34.448 321.642 32.5698 316.302 32.5698H275.405C272.184 32.5698 269.318 34.4932 268.104 37.4727L262.009 52.3999C260.04 57.2801 258.479 59.6711 255.99 61.2853C253.561 62.9372 249.239 64.31 240.753 64.31H126.932C118.454 64.31 114.132 62.9296 111.696 61.2853C109.222 59.6787 107.645 57.2876 105.684 52.3999L99.5973 37.4727C98.4055 34.5234 95.5392 32.5698 92.3637 32.5698H51.3987Z" fill="#D0E3F9"/>
<path d="M50.2049 15.6362H317.477C336.771 15.6362 352 30.9481 352 50.2049V549.795C352 569.044 336.764 584.371 317.477 584.371H50.2049C30.9255 584.371 15.6739 569.044 15.6739 549.795V50.2049C15.6815 30.9557 30.9255 15.6362 50.2049 15.6362V15.6362ZM50.2049 0C22.5228 0 0 22.5228 0 50.2049V549.795C0 577.492 22.5228 600 50.2049 600H317.477C345.174 600 367.719 577.492 367.719 549.795V50.2049C367.719 22.5228 345.174 0 317.477 0H50.2049Z" fill="#ADBCD2"/>
<path d="M158.564 32.5698C154.197 32.5698 150.712 36.0546 150.712 40.4219C150.712 44.7816 154.197 48.2815 158.564 48.2815H213.091C217.413 48.2815 220.95 44.7816 220.95 40.4219C220.95 36.0546 217.413 32.5698 213.091 32.5698H158.564Z" fill="#C4C4D5"/>
</svg>
