<svg width="120" height="32" viewBox="0 0 120 32" fill="none" xmlns="http://www.w3.org/2000/svg">
<g clip-path="url(#clip0_26469_9580)">
<path d="M44.3134 7.69652L29.2514 20.2002C21.6812 26.4846 9.78986 30.3658 0 31.347L120 31.3564C110.153 30.3694 98.3052 26.4482 90.7122 20.1006L75.9398 7.75104C66.792 0.103592 53.4874 0.0806522 44.3134 7.69652Z" fill="#0B0C10"/>
<path fill-rule="evenodd" clip-rule="evenodd" d="M74.808 8.86965C66.3136 1.76845 53.9594 1.74715 45.4404 8.81903L32.3344 19.699C23.2478 27.2422 11.8097 31.3712 0 31.3712V27.8418C10.9863 27.8418 21.6268 24.0008 30.08 16.9834L43.1862 6.10341C53.0156 -2.05645 67.2704 -2.03187 77.0716 6.16183L89.9664 16.9416C98.39 23.9836 109.02 27.8416 120 27.841L120 31.3704C108.193 31.371 96.7612 27.2222 87.7026 19.6494L74.808 8.86965Z" fill="#1B1C22"/>
</g>
<defs>
<clipPath id="clip0_26469_9580">
<rect width="120" height="32" fill="white"/>
</clipPath>
</defs>
</svg>
