<svg width="60" height="16" viewBox="0 0 60 16" fill="none" xmlns="http://www.w3.org/2000/svg">
<path d="M22.1567 3.84826L14.6257 10.1001C10.8406 13.2423 4.89493 15.1829 0 15.6735L60 15.6782C55.0763 15.1847 49.1526 13.2241 45.3561 10.0503L37.9699 3.87552C33.396 0.0517957 26.7437 0.0403256 22.1567 3.84826Z" fill="white"/>
<path fill-rule="evenodd" clip-rule="evenodd" d="M37.404 4.43483C33.1568 0.884229 26.9797 0.873579 22.7202 4.40952L16.1672 9.8495C11.6239 13.6211 5.90484 15.6856 0 15.6856V13.9209C5.49315 13.9209 10.8134 12.0004 15.04 8.49169L21.5931 3.05171C26.5078 -1.02822 33.6352 -1.01593 38.5358 3.08092L44.9832 8.47079C49.195 11.9918 54.5102 13.9208 59.9999 13.9205L60 15.6852C54.0965 15.6855 48.3806 13.6111 43.8513 9.82471L37.404 4.43483Z" fill="#DBDFE9"/>
</svg>
