<svg width="600" height="463" viewBox="0 0 600 463" fill="none" xmlns="http://www.w3.org/2000/svg">
<path d="M303.499 154.903L275.778 115.579C274.642 113.97 273.199 112.601 271.531 111.552C269.864 110.502 268.005 109.793 266.063 109.466C264.12 109.138 262.132 109.198 260.212 109.642C258.293 110.086 256.48 110.906 254.879 112.053L248.812 116.395C246.493 118.065 243.744 119.032 240.89 119.183C238.037 119.334 235.201 118.661 232.72 117.244C230.347 115.896 227.908 114.611 225.405 113.388C215.394 108.549 204.742 105.166 193.774 103.343C190.813 102.843 188.073 101.458 185.913 99.372C183.753 97.2857 182.275 94.595 181.672 91.6533L180.884 87.8443C180.484 85.9097 179.705 84.0737 178.591 82.4424C177.477 80.8112 176.05 79.4173 174.393 78.3413C172.737 77.2653 170.883 76.5287 168.94 76.1741C166.997 75.8196 165.002 75.8541 163.072 76.2757L115.956 86.5364C112.109 87.3715 108.747 89.6911 106.601 92.9909C104.455 96.2907 103.698 100.304 104.495 104.159L106.268 112.707C106.828 115.428 106.62 118.251 105.667 120.861C104.715 123.471 103.055 125.764 100.875 127.485C99.3736 128.68 97.8927 129.912 96.432 131.179C94.2206 133.131 91.4841 134.39 88.563 134.798C85.6418 135.207 82.665 134.748 80.0028 133.478L73.0522 130.107C69.4851 128.384 65.3797 128.148 61.6388 129.452C57.898 130.755 54.8279 133.491 53.1039 137.058L31.8949 180.959C31.0392 182.725 30.5398 184.642 30.4253 186.602C30.3109 188.561 30.5835 190.523 31.2277 192.377C31.8719 194.231 32.8751 195.939 34.1799 197.405C35.4846 198.871 37.0654 200.066 38.832 200.921L46.7466 204.75C49.3475 205.987 51.5363 207.948 53.0502 210.399C54.5641 212.849 55.3388 215.684 55.2814 218.563C55.0308 227.842 55.8657 237.119 57.7691 246.204C58.3469 249.02 58.0938 251.944 57.0406 254.619C55.9873 257.294 54.1793 259.605 51.8365 261.271L43.45 267.298C40.2522 269.597 38.0913 273.065 37.4373 276.948C36.7833 280.832 37.6892 284.816 39.9578 288.035L67.6792 327.366C68.8164 328.974 70.2603 330.341 71.928 331.389C73.5957 332.438 75.4542 333.145 77.3966 333.473C79.3389 333.8 81.3268 333.739 83.2457 333.295C85.1647 332.851 86.9769 332.032 88.5781 330.885L97.2073 324.689C99.5339 322.998 102.302 322.02 105.175 321.874C108.048 321.728 110.901 322.42 113.387 323.867C116.057 325.431 118.81 326.9 121.645 328.276C129.603 332.128 137.971 335.068 146.589 337.04C149.37 337.679 151.907 339.104 153.9 341.146C155.893 343.188 157.256 345.759 157.827 348.554L160.201 360.015C160.608 361.94 161.392 363.766 162.507 365.387C163.622 367.008 165.046 368.392 166.698 369.461C168.35 370.53 170.197 371.262 172.133 371.614C174.069 371.967 176.055 371.934 177.978 371.516L225.169 361.235C229.017 360.402 232.379 358.083 234.526 354.782C236.672 351.482 237.428 347.468 236.63 343.613L234.506 333.595C233.91 330.753 234.16 327.799 235.224 325.097C236.287 322.396 238.119 320.065 240.493 318.393C244.066 315.885 247.501 313.184 250.78 310.303C252.979 308.381 255.697 307.151 258.592 306.767C261.487 306.383 264.431 306.863 267.054 308.145L273.998 311.516C277.564 313.236 281.668 313.47 285.406 312.165C289.145 310.86 292.212 308.124 293.933 304.559L315.142 260.658C316.865 257.09 317.099 252.984 315.795 249.243C314.49 245.502 311.753 242.432 308.185 240.709L300.189 236.846C297.59 235.577 295.412 233.585 293.917 231.108C292.422 228.632 291.674 225.776 291.762 222.885C292.005 213.332 291.1 203.785 289.066 194.449C288.461 191.618 288.698 188.672 289.748 185.974C290.797 183.277 292.613 180.945 294.971 179.267L300.001 175.64C303.199 173.342 305.362 169.875 306.017 165.991C306.672 162.108 305.767 158.123 303.499 154.903ZM197.212 293.914C182.863 298.558 167.46 298.843 152.949 294.733C138.438 290.623 125.472 282.303 115.691 270.824C105.909 259.345 99.7505 245.223 97.9944 230.244C96.2384 215.265 98.9636 200.102 105.825 186.672C112.687 173.242 123.377 162.148 136.543 154.794C149.71 147.439 164.762 144.154 179.796 145.353C194.829 146.553 209.169 152.184 221.003 161.533C232.837 170.883 241.632 183.532 246.277 197.88C249.362 207.408 250.54 217.449 249.744 227.432C248.948 237.415 246.193 247.143 241.637 256.06C237.08 264.978 230.812 272.911 223.19 279.406C215.567 285.901 206.74 290.831 197.212 293.914Z" fill="#222531"/>
<path d="M396.742 300.43L402.33 318.43C402.622 319.375 403.099 320.253 403.734 321.012C404.368 321.771 405.147 322.396 406.025 322.852C406.903 323.307 407.863 323.584 408.849 323.665C409.835 323.746 410.828 323.63 411.768 323.324L414.58 322.427C415.94 321.991 417.397 321.955 418.778 322.323C420.158 322.691 421.404 323.448 422.366 324.504C423.135 325.349 423.937 326.169 424.773 326.964C427.413 329.494 430.32 331.73 433.443 333.632C434.643 334.38 435.607 335.454 436.222 336.729C436.836 338.003 437.076 339.426 436.915 340.832L436.544 344.203C436.436 345.184 436.525 346.177 436.804 347.124C437.082 348.071 437.546 348.953 438.168 349.72C438.79 350.487 439.557 351.122 440.427 351.591C441.296 352.059 442.249 352.35 443.231 352.448L462.04 354.308C463.998 354.503 465.954 353.916 467.481 352.677C469.009 351.437 469.985 349.644 470.198 347.688L470.501 344.91C470.651 343.489 471.208 342.14 472.107 341.028C473.005 339.915 474.205 339.087 475.564 338.641C477.025 338.191 478.472 337.659 479.906 337.043C481.237 336.499 482.698 336.354 484.11 336.626C485.523 336.898 486.826 337.574 487.861 338.573L489.074 339.74C490.507 341.108 492.424 341.852 494.405 341.808C496.386 341.763 498.268 340.935 499.638 339.504L512.852 325.683C514.22 324.252 514.963 322.336 514.919 320.356C514.875 318.376 514.046 316.495 512.616 315.126L511.011 313.569C509.988 312.598 509.264 311.355 508.922 309.987C508.581 308.618 508.637 307.181 509.083 305.843C510.311 302.244 511.141 298.52 511.557 294.74C511.718 293.316 512.289 291.969 513.199 290.862C514.11 289.755 515.321 288.936 516.688 288.504L517.692 288.18C519.568 287.58 521.13 286.264 522.041 284.518C522.951 282.772 523.135 280.737 522.553 278.856L516.964 260.856C516.672 259.911 516.195 259.033 515.561 258.274C514.926 257.514 514.148 256.888 513.27 256.432C512.392 255.976 511.432 255.7 510.446 255.618C509.46 255.536 508.467 255.651 507.526 255.955L506.036 256.434C504.699 256.871 503.265 256.918 501.902 256.571C500.538 256.224 499.302 255.496 498.337 254.472C497.64 253.722 496.919 252.989 496.173 252.274C492.831 249.078 489.065 246.356 484.982 244.185C483.676 243.482 482.611 242.405 481.924 241.092C481.236 239.778 480.958 238.289 481.126 236.816C481.232 235.834 481.143 234.841 480.863 233.894C480.584 232.947 480.119 232.065 479.497 231.298C478.875 230.532 478.106 229.896 477.237 229.428C476.368 228.96 475.414 228.669 474.431 228.571L455.629 226.71C453.671 226.516 451.716 227.102 450.188 228.342C448.661 229.582 447.684 231.375 447.472 233.331L447.229 235.495C447.073 236.873 446.538 238.18 445.685 239.274C444.832 240.367 443.694 241.203 442.395 241.69C441.946 241.865 441.497 242.047 441.047 242.236C439.716 242.78 438.255 242.925 436.842 242.653C435.43 242.382 434.127 241.705 433.092 240.706L431.872 239.54C430.44 238.172 428.524 237.428 426.544 237.472C424.565 237.516 422.684 238.345 421.315 239.776L408.094 253.596C406.726 255.027 405.983 256.944 406.027 258.923C406.071 260.903 406.9 262.784 408.33 264.153L409.928 265.683C410.953 266.656 411.68 267.901 412.021 269.272C412.363 270.643 412.305 272.083 411.856 273.423C410.676 276.876 409.865 280.444 409.436 284.068C409.265 285.482 408.69 286.817 407.78 287.914C406.871 289.01 405.664 289.821 404.306 290.25L401.609 291.113C399.735 291.713 398.173 293.027 397.261 294.771C396.35 296.515 396.163 298.549 396.742 300.43ZM441.236 276.376C450.674 263.634 469.328 263.122 479.218 275.331C482.498 279.464 484.324 284.563 484.414 289.838C484.504 295.114 482.853 300.272 479.717 304.515C470.245 317.25 451.625 317.769 441.735 305.56C438.454 301.427 436.627 296.328 436.537 291.052C436.447 285.776 438.098 280.618 441.236 276.376Z" fill="#222531"/>
<path d="M584.494 351.115H15.5048C9.54755 351.115 4.71826 355.945 4.71826 361.902C4.71826 367.859 9.54755 372.688 15.5048 372.688H584.494C590.451 372.688 595.28 367.859 595.28 361.902C595.28 355.945 590.451 351.115 584.494 351.115Z" fill="#222531"/>
<path d="M584.494 351.116C587.355 351.116 590.099 352.252 592.122 354.275C594.144 356.298 595.281 359.041 595.281 361.902C595.281 364.763 594.144 367.506 592.122 369.529C590.099 371.552 587.355 372.689 584.494 372.689H15.5056C12.6449 372.689 9.90127 371.552 7.8784 369.529C5.85554 367.506 4.7191 364.763 4.7191 361.902C4.7191 359.041 5.85554 356.298 7.8784 354.275C9.90127 352.252 12.6449 351.116 15.5056 351.116H584.494ZM584.494 346.396H15.5056C11.3933 346.396 7.44936 348.03 4.54149 350.938C1.63362 353.846 0 357.79 0 361.902C0 366.014 1.63362 369.958 4.54149 372.866C7.44936 375.774 11.3933 377.408 15.5056 377.408H584.494C588.607 377.408 592.551 375.774 595.458 372.866C598.366 369.958 600 366.014 600 361.902C600 357.79 598.366 353.846 595.458 350.938C592.551 348.03 588.607 346.396 584.494 346.396Z" fill="#323544"/>
<path d="M24.6059 364.935C21.7451 364.935 19.0015 363.798 16.9787 361.775C14.9558 359.752 13.8194 357.009 13.8194 354.148C13.823 353.149 13.9637 352.156 14.2374 351.195C11.6154 351.506 9.19833 352.767 7.44396 354.74C5.68958 356.713 4.71977 359.261 4.71826 361.901C4.71826 364.762 5.8547 367.505 7.87756 369.528C9.90043 371.551 12.644 372.687 15.5048 372.687H584.494C586.838 372.686 589.119 371.921 590.99 370.507C592.861 369.094 594.22 367.109 594.862 364.854C594.441 364.905 594.018 364.932 593.595 364.935H24.6059Z" fill="#222531"/>
<path d="M67.7524 423.248C67.4425 423.246 67.136 423.183 66.8504 423.063C66.5648 422.943 66.3057 422.768 66.0878 422.547C65.87 422.327 65.6977 422.066 65.5807 421.779C65.4638 421.492 65.4045 421.185 65.4063 420.875L65.7231 376.043C65.7267 375.42 65.9769 374.823 66.419 374.384C66.8611 373.944 67.4592 373.697 68.0827 373.697C68.3926 373.699 68.699 373.762 68.9846 373.882C69.2702 374.002 69.5294 374.178 69.7472 374.398C69.9651 374.618 70.1374 374.879 70.2543 375.166C70.3713 375.453 70.4305 375.76 70.4288 376.07L70.1119 420.902C70.1083 421.525 69.8582 422.122 69.4161 422.561C68.9739 423.001 68.3758 423.248 67.7524 423.248Z" fill="#323544"/>
<path d="M67.7526 440.104C67.1268 440.104 66.5267 439.856 66.0842 439.413C65.6417 438.971 65.3931 438.37 65.3931 437.745V428.981C65.3931 428.355 65.6417 427.755 66.0842 427.312C66.5267 426.87 67.1268 426.621 67.7526 426.621C68.3784 426.621 68.9786 426.87 69.4211 427.312C69.8636 427.755 70.1122 428.355 70.1122 428.981V437.745C70.1122 438.37 69.8636 438.971 69.4211 439.413C68.9786 439.856 68.3784 440.104 67.7526 440.104Z" fill="#323544"/>
<path d="M92.0225 434.708C91.3979 434.708 90.7988 434.461 90.3564 434.02C89.9141 433.579 89.6648 432.98 89.663 432.356L89.5147 376.064C89.5138 375.754 89.5739 375.447 89.6917 375.16C89.8094 374.873 89.9825 374.613 90.201 374.393C90.4195 374.173 90.6791 373.999 90.965 373.879C91.251 373.76 91.5576 373.698 91.8675 373.697C92.4921 373.697 93.0912 373.945 93.5335 374.386C93.9759 374.827 94.2252 375.425 94.227 376.05L94.3753 432.342C94.3762 432.652 94.3161 432.959 94.1983 433.246C94.0805 433.532 93.9075 433.793 93.689 434.013C93.4705 434.232 93.2109 434.407 92.925 434.526C92.639 434.646 92.3324 434.708 92.0225 434.708Z" fill="#323544"/>
<path d="M92.0221 447.522C91.3964 447.522 90.7962 447.274 90.3537 446.831C89.9112 446.389 89.6626 445.788 89.6626 445.163V440.444C89.6626 439.818 89.9112 439.218 90.3537 438.775C90.7962 438.333 91.3964 438.084 92.0221 438.084C92.6479 438.084 93.2481 438.333 93.6906 438.775C94.1331 439.218 94.3817 439.818 94.3817 440.444V445.163C94.3817 445.788 94.1331 446.389 93.6906 446.831C93.2481 447.274 92.6479 447.522 92.0221 447.522Z" fill="#323544"/>
<path d="M513.37 423.922C512.745 423.922 512.144 423.673 511.702 423.231C511.259 422.788 511.011 422.188 511.011 421.562V376.057C511.011 375.431 511.259 374.831 511.702 374.388C512.144 373.946 512.745 373.697 513.37 373.697C513.996 373.697 514.596 373.946 515.039 374.388C515.481 374.831 515.73 375.431 515.73 376.057V421.562C515.73 422.188 515.481 422.788 515.039 423.231C514.596 423.673 513.996 423.922 513.37 423.922Z" fill="#323544"/>
<path d="M513.37 439.433C512.745 439.433 512.144 439.184 511.702 438.742C511.259 438.299 511.011 437.699 511.011 437.073V431.68C511.011 431.054 511.259 430.454 511.702 430.011C512.144 429.569 512.745 429.32 513.37 429.32C513.996 429.32 514.596 429.569 515.039 430.011C515.481 430.454 515.73 431.054 515.73 431.68V437.073C515.73 437.699 515.481 438.299 515.039 438.742C514.596 439.184 513.996 439.433 513.37 439.433Z" fill="#323544"/>
<path d="M538.315 462.351C537.689 462.351 537.089 462.102 536.647 461.66C536.204 461.217 535.956 460.617 535.956 459.991V454.598C535.956 453.972 536.204 453.372 536.647 452.929C537.089 452.487 537.689 452.238 538.315 452.238C538.941 452.238 539.541 452.487 539.984 452.929C540.426 453.372 540.675 453.972 540.675 454.598V459.991C540.675 460.617 540.426 461.217 539.984 461.66C539.541 462.102 538.941 462.351 538.315 462.351Z" fill="#323544"/>
<path d="M538.314 446.849C537.691 446.849 537.093 446.602 536.651 446.162C536.208 445.723 535.958 445.126 535.955 444.502L535.645 377.424C535.641 376.8 535.884 376.201 536.321 375.756C536.758 375.311 537.354 375.058 537.977 375.051C538.6 375.053 539.197 375.3 539.639 375.739C540.081 376.178 540.331 376.774 540.337 377.397L540.647 444.475C540.649 444.785 540.589 445.093 540.472 445.379C540.355 445.666 540.183 445.928 539.965 446.148C539.747 446.368 539.488 446.544 539.203 446.664C538.917 446.784 538.611 446.847 538.301 446.849H538.314Z" fill="#323544"/>
<path d="M400.099 186.295H200.575C190.887 186.295 183.034 194.149 183.034 203.836V328.529C183.034 338.217 190.887 346.07 200.575 346.07H400.099C409.787 346.07 417.64 338.217 417.64 328.529V203.836C417.64 194.149 409.787 186.295 400.099 186.295Z" fill="#111217"/>
<path d="M400.1 348.426H200.549C195.277 348.414 190.225 346.312 186.5 342.582C182.775 338.851 180.68 333.797 180.675 328.525V203.806C180.687 198.534 182.789 193.482 186.519 189.757C190.249 186.032 195.304 183.937 200.576 183.932H400.126C405.398 183.944 410.45 186.046 414.175 189.776C417.901 193.506 419.995 198.561 420.001 203.833V328.552C419.988 333.824 417.887 338.876 414.156 342.601C410.426 346.326 405.371 348.421 400.1 348.426ZM200.549 188.651C196.528 188.661 192.676 190.265 189.835 193.111C186.994 195.957 185.397 199.812 185.394 203.833V328.552C185.405 332.573 187.008 336.425 189.854 339.266C192.7 342.106 196.555 343.703 200.576 343.707H400.126C404.147 343.696 408 342.092 410.84 339.247C413.681 336.401 415.278 332.546 415.282 328.525V203.806C415.271 199.785 413.667 195.932 410.821 193.092C407.976 190.251 404.12 188.654 400.1 188.651H200.549Z" fill="#323544"/>
<path d="M387.437 202.906H212.561C204.072 202.906 197.19 209.788 197.19 218.277V327.571C197.19 336.06 204.072 342.942 212.561 342.942H387.437C395.926 342.942 402.808 336.06 402.808 327.571V218.277C402.808 209.788 395.926 202.906 387.437 202.906Z" fill="#111217"/>
<path d="M387.438 345.298H212.561C207.861 345.293 203.354 343.423 200.03 340.099C196.706 336.775 194.836 332.268 194.831 327.568V218.273C194.836 213.573 196.706 209.066 200.03 205.742C203.354 202.418 207.861 200.548 212.561 200.543H387.438C392.139 200.548 396.645 202.418 399.969 205.742C403.293 209.066 405.163 213.573 405.168 218.273V327.568C405.163 332.268 403.293 336.775 399.969 340.099C396.645 343.423 392.139 345.293 387.438 345.298ZM212.561 205.262C209.112 205.266 205.804 206.638 203.365 209.077C200.926 211.516 199.554 214.824 199.55 218.273V327.568C199.554 331.017 200.926 334.325 203.365 336.764C205.804 339.203 209.112 340.575 212.561 340.579H387.438C390.887 340.575 394.195 339.203 396.634 336.764C399.073 334.325 400.445 331.017 400.449 327.568V218.273C400.445 214.824 399.073 211.516 396.634 209.077C394.195 206.638 390.887 205.266 387.438 205.262H212.561Z" fill="#323544"/>
<path d="M382.153 223.703H309.533C305.385 223.703 302.023 227.066 302.023 231.213V244.508C302.023 248.655 305.385 252.018 309.533 252.018H382.153C386.301 252.018 389.663 248.655 389.663 244.508V231.213C389.663 227.066 386.301 223.703 382.153 223.703Z" fill="#222531"/>
<path d="M384.019 266.182H317.103C311.38 266.182 306.741 270.821 306.741 276.543V309.752C306.741 315.475 311.38 320.114 317.103 320.114H384.019C389.742 320.114 394.381 315.475 394.381 309.752V276.543C394.381 270.821 389.742 266.182 384.019 266.182Z" fill="#222531"/>
<path d="M172.584 332.588H424.719C427.132 332.59 429.446 333.549 431.152 335.256C432.859 336.962 433.818 339.276 433.82 341.689V348.768H163.483V341.689C163.485 339.276 164.444 336.962 166.151 335.256C167.857 333.549 170.171 332.59 172.584 332.588Z" fill="#222531"/>
<path d="M433.82 351.123H163.483C162.857 351.123 162.257 350.875 161.815 350.432C161.372 349.99 161.124 349.39 161.124 348.764V341.685C161.124 338.646 162.331 335.731 164.48 333.581C166.63 331.432 169.545 330.225 172.584 330.225H424.719C427.759 330.225 430.674 331.432 432.823 333.581C434.972 335.731 436.18 338.646 436.18 341.685V348.764C436.18 349.39 435.931 349.99 435.489 350.432C435.046 350.875 434.446 351.123 433.82 351.123ZM165.843 346.404H431.461V341.685C431.461 339.897 430.75 338.183 429.486 336.918C428.222 335.654 426.507 334.944 424.719 334.944H172.584C170.796 334.944 169.081 335.654 167.817 336.918C166.553 338.183 165.843 339.897 165.843 341.685V346.404Z" fill="#323544"/>
<path d="M120.054 388.82C116.77 388.815 113.541 387.983 110.663 386.4C104.852 383.225 95.1038 374.117 95.0903 348.762C95.0903 348.136 95.3389 347.536 95.7814 347.093C96.2239 346.651 96.8241 346.402 97.4499 346.402C98.0757 346.402 98.6758 346.651 99.1183 347.093C99.5608 347.536 99.8094 348.136 99.8094 348.762C99.8094 365.501 104.603 377.71 112.929 382.254C115.33 383.564 118.043 384.194 120.775 384.075C123.508 383.956 126.156 383.093 128.434 381.58C134.259 377.845 137.407 370.935 136.861 363.088C136.187 353.649 138.486 346.274 143.657 341.231C152.016 333.094 164.724 334.213 165.23 334.261C165.54 334.29 165.841 334.38 166.116 334.525C166.391 334.671 166.634 334.869 166.833 335.109C167.031 335.349 167.181 335.625 167.272 335.923C167.364 336.22 167.396 336.533 167.367 336.843C167.338 337.153 167.248 337.454 167.102 337.729C166.956 338.004 166.758 338.248 166.518 338.446C166.279 338.644 166.002 338.794 165.705 338.885C165.407 338.977 165.095 339.009 164.785 338.98C164.677 338.98 153.668 338.043 146.906 344.656C142.787 348.701 140.98 354.768 141.513 362.784C142.187 372.371 138.223 380.892 130.929 385.571C127.688 387.67 123.915 388.797 120.054 388.82Z" fill="#323544"/>
<path d="M96.0665 319.107C102.503 319.107 108.676 321.664 113.228 326.216C117.779 330.767 120.336 336.94 120.336 343.377V348.77H71.7969V343.377C71.7969 336.94 74.3539 330.767 78.9053 326.216C83.4567 321.664 89.6298 319.107 96.0665 319.107Z" fill="#CB730B"/>
<path d="M120.337 351.126H71.7975C71.1717 351.126 70.5716 350.878 70.1291 350.435C69.6866 349.993 69.438 349.392 69.438 348.767V343.373C69.438 336.311 72.2436 329.538 77.2375 324.544C82.2314 319.55 89.0047 316.744 96.0672 316.744C103.13 316.744 109.903 319.55 114.897 324.544C119.891 329.538 122.696 336.311 122.696 343.373V348.767C122.696 349.392 122.448 349.993 122.005 350.435C121.563 350.878 120.963 351.126 120.337 351.126ZM74.1571 346.407H117.977V343.373C117.977 337.562 115.669 331.99 111.56 327.881C107.451 323.772 101.878 321.463 96.0672 321.463C90.2563 321.463 84.6834 323.772 80.5744 327.881C76.4655 331.99 74.1571 337.562 74.1571 343.373V346.407Z" fill="#323544"/>
<path d="M119.373 338.989H72.7614C72.1356 338.989 71.5355 338.74 71.093 338.298C70.6505 337.855 70.4019 337.255 70.4019 336.629C70.4019 336.003 70.6505 335.403 71.093 334.961C71.5355 334.518 72.1356 334.27 72.7614 334.27H119.373C119.998 334.27 120.599 334.518 121.041 334.961C121.484 335.403 121.732 336.003 121.732 336.629C121.732 337.255 121.484 337.855 121.041 338.298C120.599 338.74 119.998 338.989 119.373 338.989Z" fill="#323544"/>
<path d="M96.0671 338.317C95.4413 338.317 94.8411 338.069 94.3986 337.626C93.9561 337.184 93.7075 336.583 93.7075 335.958V319.104C93.7075 318.478 93.9561 317.878 94.3986 317.435C94.8411 316.993 95.4413 316.744 96.0671 316.744C96.6929 316.744 97.293 316.993 97.7355 317.435C98.178 317.878 98.4266 318.478 98.4266 319.104V335.958C98.4266 336.583 98.178 337.184 97.7355 337.626C97.293 338.069 96.6929 338.317 96.0671 338.317Z" fill="#323544"/>
<path d="M254.628 219.322H224.021C220.372 219.322 217.415 222.28 217.415 225.929V256.536C217.415 260.185 220.372 263.142 224.021 263.142H254.628C258.277 263.142 261.235 260.185 261.235 256.536V225.929C261.235 222.28 258.277 219.322 254.628 219.322Z" fill="#222531"/>
<path d="M430.22 49.0981C397.28 35.1835 299.602 49.0105 232.233 133.267C179.487 199.24 213.222 250.954 246.734 283.867C278.615 315.168 363.606 354.775 383.332 326.615C408.215 291.121 320.534 231.06 330.943 198.087C340.139 168.903 419.325 159.336 444.822 128.993C475.995 91.8937 452.75 58.624 430.22 49.0981Z" fill="#006C8F"/>
<path d="M400.908 44.3812C413.042 44.3812 423.155 46.0936 430.22 49.1003C452.75 58.6262 475.995 91.8958 444.822 128.995C419.326 159.339 340.139 168.905 330.944 198.089C320.535 231.123 408.216 291.123 383.332 326.644C378.613 333.386 370.099 336.258 359.474 336.258C325.854 336.258 270.957 307.68 246.735 283.896C213.222 250.983 179.487 199.269 232.233 133.296C285.108 67.1408 356.629 44.3812 400.908 44.3812ZM400.908 39.6621C354.829 39.6621 282.04 63.4194 228.539 130.323C204.074 160.93 195.323 191.792 202.537 222.062C207.782 244.046 221.157 265.37 243.424 287.233C255.795 299.368 276.02 312.851 297.519 323.219C321.202 334.68 343.2 340.95 359.467 340.95C372.458 340.95 381.789 337.04 387.189 329.327C394.341 319.114 394.301 306.574 387.054 290.995C381.101 278.186 371.036 264.804 361.308 251.84C346.631 232.289 331.456 212.064 335.44 199.485C339.64 186.15 364.173 176.199 387.896 166.579C411.391 157.046 435.687 147.19 448.422 132.028C465.829 111.325 466.119 93.0082 463.301 81.2846C459.505 65.516 447.236 51.1767 432.047 44.7587C424.186 41.4351 413.413 39.6756 400.901 39.6756L400.908 39.6621Z" fill="#323544"/>
<path d="M264.944 274.434C231.432 241.521 197.697 189.807 250.443 123.834C269.615 99.7179 293.158 79.4293 319.841 64.0293C289.8 77.9776 258.688 100.198 232.241 133.272C179.494 199.245 213.229 250.96 246.742 283.872C278.623 315.173 363.614 354.78 383.339 326.62L383.434 326.479C350.683 330.227 290.602 299.634 264.944 274.434Z" fill="#08A4CA"/>
<path d="M432.202 68.6479C442.314 74.8772 445.153 92.2435 441.256 97.2524C437.359 102.261 425.966 95.9513 408.364 103.758C390.762 111.565 361.173 114.443 362.319 96.3895C363.465 78.3356 370.867 73.812 391.031 75.5648C411.195 77.3176 420.775 61.63 432.202 68.6479Z" fill="#08A4CA"/>
<path d="M433.085 61.2321H432.971L427.355 61.0501C426.461 61.0205 425.615 60.6371 425.004 59.9841C424.393 59.3311 424.066 58.462 424.096 57.568C424.125 56.674 424.509 55.8284 425.162 55.2171C425.815 54.6058 426.684 54.279 427.578 54.3085L433.193 54.4905C434.087 54.5048 434.939 54.8737 435.561 55.5159C436.183 56.1582 436.524 57.0212 436.51 57.9152C436.496 58.8092 436.127 59.6609 435.485 60.2829C434.843 60.905 433.979 61.2464 433.085 61.2321Z" fill="#323544"/>
<path d="M384.324 72.2848C383.569 72.2849 382.835 72.0313 382.241 71.5648C381.647 71.0983 381.227 70.4458 381.048 69.7119C380.87 68.9781 380.942 68.2055 381.255 67.518C381.568 66.8306 382.103 66.2681 382.773 65.9207L387.762 63.3387C388.155 63.1351 388.585 63.0109 389.026 62.9732C389.467 62.9355 389.911 62.985 390.333 63.119C390.755 63.253 391.146 63.4687 391.485 63.754C391.823 64.0392 392.102 64.3883 392.306 64.7814C392.51 65.1745 392.634 65.6038 392.672 66.0449C392.709 66.486 392.66 66.9302 392.526 67.3521C392.392 67.7741 392.176 68.1655 391.891 68.504C391.605 68.8426 391.256 69.1216 390.863 69.3252L385.875 71.9072C385.395 72.1554 384.864 72.2849 384.324 72.2848Z" fill="#323544"/>
<path d="M429.963 89.9373C432.934 89.9373 435.343 87.5287 435.343 84.5575C435.343 81.5863 432.934 79.1777 429.963 79.1777C426.992 79.1777 424.583 81.5863 424.583 84.5575C424.583 87.5287 426.992 89.9373 429.963 89.9373Z" fill="#323544"/>
<path d="M390.687 96.1912C393.658 96.1912 396.067 93.7826 396.067 90.8114C396.067 87.8403 393.658 85.4316 390.687 85.4316C387.716 85.4316 385.307 87.8403 385.307 90.8114C385.307 93.7826 387.716 96.1912 390.687 96.1912Z" fill="#323544"/>
<path d="M370.233 33.5339C351.194 33.4462 322.9 43.4103 308.945 52.235C302.79 56.1249 292.496 63.3182 285.673 65.8732C278.851 68.4283 269.777 67.1878 266.345 60.7631C264.323 56.9811 264.774 52.235 266.702 48.4125C268.63 44.5901 271.86 41.5766 275.338 39.0755C284.118 32.7842 294.594 29.2944 305.392 29.0642C308.298 29.0103 312.188 28.3901 312.457 25.5047C312.666 23.2665 310.28 21.662 308.089 21.1968C305.898 20.7316 303.478 20.8125 301.617 19.5586C299.244 17.9541 298.63 14.5159 299.669 11.8462C300.707 9.17659 303.039 7.12714 305.581 5.86647C338.136 -10.1582 370.233 33.5339 370.233 33.5339Z" fill="#006C8F"/>
<path d="M278.797 69.4505C272.899 69.4505 267.06 67.1045 264.269 61.8663C262.018 57.6528 262.139 52.2191 264.593 47.3449C266.427 43.7112 269.487 40.3741 273.957 37.1584C283.126 30.597 294.06 26.953 305.332 26.7022C308.373 26.6483 310.051 25.9404 310.092 25.2798C310.139 24.727 309.033 23.8101 307.577 23.5C307.024 23.3854 306.431 23.3045 305.804 23.2168C304.045 22.9809 302.056 22.7112 300.283 21.5112C297.155 19.4011 295.941 14.8775 297.451 10.9876C298.825 7.77792 301.347 5.19612 304.523 3.74718C318.681 -3.21686 334.934 -0.439331 351.512 11.7899C359.275 17.6046 366.213 24.4469 372.135 32.1292C372.392 32.4813 372.547 32.8977 372.582 33.3323C372.617 33.7669 372.532 34.2029 372.335 34.592C372.139 34.9812 371.838 35.3085 371.467 35.5377C371.096 35.7669 370.669 35.8892 370.233 35.891H369.991C351.829 35.891 323.966 45.5247 310.206 54.2281C308.979 55.0034 307.577 55.9202 306.074 56.9247C299.892 60.9696 292.193 65.9786 286.523 68.109C284.048 69.0101 281.432 69.4643 278.797 69.4505ZM320.46 4.73145C315.653 4.72403 310.911 5.83415 306.606 7.97415C304.5 8.91815 302.809 10.5952 301.847 12.6932C301.139 14.5202 301.618 16.7382 302.919 17.5944C303.782 18.1741 305.009 18.3427 306.431 18.5382C307.105 18.6258 307.833 18.727 308.555 18.8753C311.926 19.5899 315.121 22.1652 314.791 25.718C314.595 27.7809 313.119 31.2663 305.42 31.4146C295.104 31.6487 285.098 34.9924 276.714 41.0079C272.878 43.7719 270.29 46.5494 268.806 49.4888C267.067 52.9472 266.926 56.8438 268.429 59.6685C271.22 64.8932 279.128 65.8236 284.851 63.7135C290.049 61.7651 297.505 56.9045 303.499 53.0011C305.022 52.0034 306.438 51.0798 307.685 50.3045C321.168 41.7764 346.463 32.7359 365.413 31.4281C358.55 23.3314 340.449 4.73145 320.46 4.73145Z" fill="#323544"/>
<path d="M183.037 325.84C183.037 325.84 194.497 282.694 240.34 290.11C240.34 290.11 250.452 246.964 300.34 248.312C350.228 249.661 352.924 297.526 352.924 297.526C352.924 297.526 395.396 296.177 398.093 332.582L183.037 331.908V325.84Z" fill="#111217"/>
<path d="M398.092 334.939L183.035 334.265C182.411 334.263 181.812 334.013 181.371 333.571C180.93 333.129 180.683 332.53 180.683 331.905V325.838C180.682 325.633 180.71 325.429 180.764 325.231C183.2 317.283 187.274 309.935 192.723 303.658C200.719 294.489 215.119 284.377 238.653 287.471C241.084 280.078 244.873 273.203 249.824 267.199C258.157 257.087 273.676 245.222 300.386 245.95C327.258 246.678 340.768 260.653 347.375 272.242C351.356 279.329 353.957 287.107 355.04 295.163C361.978 295.411 368.83 296.777 375.332 299.208C390.575 305.073 399.258 316.554 400.431 332.417C400.454 332.739 400.411 333.062 400.304 333.366C400.197 333.671 400.028 333.95 399.809 334.186C399.59 334.423 399.324 334.611 399.028 334.741C398.733 334.87 398.414 334.938 398.092 334.939ZM185.395 329.545L395.476 330.22C393.763 317.512 386.476 308.586 373.775 303.658C367.128 301.176 360.092 299.898 352.997 299.882C352.383 299.899 351.786 299.677 351.333 299.261C350.88 298.846 350.607 298.271 350.57 297.658C349.746 289.492 347.237 281.586 343.202 274.44C334.438 259.197 320.017 251.202 300.278 250.669C280.539 250.136 264.716 256.656 253.579 270.051C248.541 276.082 244.815 283.096 242.638 290.647C242.499 291.231 242.143 291.742 241.643 292.075C241.142 292.408 240.534 292.538 239.941 292.44C221.853 289.514 207.197 294.28 196.37 306.597C191.432 312.318 187.699 318.977 185.395 326.175V329.545Z" fill="#323544"/>
<path d="M453.372 344.341C453.372 344.341 444.709 311.739 410.064 317.341C410.064 317.341 402.425 284.732 364.72 285.75C327.014 286.768 324.985 322.943 324.985 322.943C324.985 322.943 292.888 321.925 290.846 349.438L453.372 348.925V344.341Z" fill="#111217"/>
<path d="M290.845 351.795C290.522 351.794 290.202 351.728 289.905 351.599C289.608 351.471 289.341 351.282 289.119 351.046C288.899 350.807 288.73 350.525 288.622 350.218C288.514 349.91 288.47 349.585 288.493 349.26C290.346 324.235 315.25 321.026 322.875 320.635C323.747 314.635 325.715 308.847 328.679 303.559C333.742 294.666 344.097 283.947 364.672 283.395C385.133 282.848 396.991 291.936 403.362 299.662C407.042 304.133 409.883 309.233 411.749 314.716C429.493 312.525 440.4 320.204 446.488 327.188C450.662 331.993 453.783 337.62 455.65 343.705C455.703 343.903 455.73 344.107 455.731 344.311V348.896C455.731 349.52 455.483 350.119 455.042 350.562C454.601 351.004 454.003 351.253 453.378 351.255L290.859 351.795H290.845ZM324.378 325.293C320.394 325.293 296.805 326.183 293.495 347.069L451.012 346.57V344.669C450.054 341.406 441.223 314.682 410.441 319.664C409.848 319.768 409.238 319.64 408.737 319.308C408.235 318.976 407.88 318.464 407.744 317.878C406.108 312.246 403.321 307.014 399.56 302.514C391.288 292.556 379.551 287.75 364.787 288.107C350.023 288.464 339.257 294.491 332.764 305.898C329.79 311.188 327.942 317.037 327.337 323.075C327.304 323.69 327.032 324.267 326.578 324.683C326.124 325.099 325.526 325.32 324.911 325.3L324.378 325.293Z" fill="#323544"/>
<path d="M220.787 298.205C226.372 298.205 230.899 293.678 230.899 288.093C230.899 282.508 226.372 277.98 220.787 277.98C215.202 277.98 210.674 282.508 210.674 288.093C210.674 293.678 215.202 298.205 220.787 298.205Z" fill="#111217"/>
<path d="M220.787 300.561C218.32 300.561 215.909 299.83 213.858 298.459C211.807 297.089 210.208 295.141 209.264 292.862C208.32 290.583 208.073 288.075 208.555 285.656C209.036 283.237 210.224 281.014 211.968 279.27C213.712 277.526 215.934 276.338 218.354 275.857C220.773 275.376 223.281 275.623 225.56 276.567C227.839 277.511 229.786 279.109 231.157 281.16C232.527 283.211 233.259 285.622 233.259 288.089C233.255 291.396 231.94 294.566 229.602 296.904C227.264 299.242 224.094 300.557 220.787 300.561ZM220.787 280.336C219.253 280.336 217.755 280.791 216.48 281.643C215.205 282.495 214.211 283.706 213.624 285.122C213.037 286.539 212.884 288.098 213.183 289.602C213.482 291.105 214.221 292.487 215.305 293.571C216.389 294.655 217.77 295.394 219.274 295.693C220.778 295.992 222.337 295.839 223.754 295.252C225.17 294.665 226.381 293.671 227.233 292.396C228.085 291.121 228.54 289.622 228.54 288.089C228.538 286.033 227.721 284.063 226.267 282.609C224.813 281.155 222.842 280.338 220.787 280.336Z" fill="#323544"/>
<path d="M173.259 160.003C184.615 160.003 193.82 150.797 193.82 139.441C193.82 128.085 184.615 118.879 173.259 118.879C161.903 118.879 152.697 128.085 152.697 139.441C152.697 150.797 161.903 160.003 173.259 160.003Z" fill="#111217"/>
<path d="M173.259 162.358C168.726 162.358 164.294 161.014 160.525 158.495C156.755 155.977 153.818 152.397 152.083 148.209C150.348 144.02 149.894 139.412 150.778 134.965C151.663 130.519 153.846 126.435 157.051 123.229C160.257 120.024 164.341 117.84 168.788 116.956C173.234 116.072 177.843 116.526 182.031 118.26C186.219 119.995 189.799 122.933 192.318 126.703C194.836 130.472 196.181 134.904 196.181 139.437C196.181 145.516 193.766 151.346 189.467 155.645C185.169 159.943 179.338 162.358 173.259 162.358ZM173.259 121.235C169.659 121.235 166.14 122.302 163.147 124.302C160.153 126.302 157.82 129.145 156.443 132.471C155.065 135.797 154.704 139.457 155.407 142.988C156.109 146.519 157.843 149.762 160.388 152.308C162.934 154.854 166.177 156.587 169.708 157.289C173.239 157.992 176.899 157.631 180.225 156.254C183.551 154.876 186.394 152.543 188.394 149.55C190.394 146.556 191.461 143.037 191.461 139.437C191.461 134.609 189.544 129.98 186.13 126.566C182.717 123.152 178.087 121.235 173.259 121.235Z" fill="#323544"/>
<path d="M491.123 212.582C496.894 212.582 501.572 207.904 501.572 202.133C501.572 196.362 496.894 191.684 491.123 191.684C485.352 191.684 480.673 196.362 480.673 202.133C480.673 207.904 485.352 212.582 491.123 212.582Z" fill="#111217"/>
<path d="M491.123 214.938C488.59 214.938 486.114 214.187 484.007 212.78C481.901 211.372 480.259 209.372 479.289 207.031C478.32 204.691 478.066 202.115 478.561 199.63C479.055 197.146 480.275 194.863 482.066 193.072C483.857 191.281 486.14 190.061 488.625 189.566C491.109 189.072 493.685 189.326 496.025 190.295C498.366 191.265 500.366 192.907 501.774 195.013C503.181 197.119 503.932 199.596 503.932 202.129C503.932 205.526 502.583 208.784 500.181 211.187C497.779 213.589 494.521 214.938 491.123 214.938ZM491.123 194.039C489.523 194.039 487.959 194.514 486.629 195.403C485.299 196.292 484.262 197.555 483.649 199.033C483.037 200.512 482.877 202.138 483.189 203.708C483.501 205.277 484.272 206.718 485.403 207.85C486.534 208.981 487.976 209.752 489.545 210.064C491.115 210.376 492.741 210.216 494.219 209.603C495.698 208.991 496.961 207.954 497.85 206.624C498.739 205.293 499.213 203.729 499.213 202.129C499.213 199.984 498.361 197.926 496.844 196.409C495.327 194.892 493.269 194.039 491.123 194.039Z" fill="#323544"/>
<path d="M436.18 333.929C442.696 333.929 447.978 328.647 447.978 322.132C447.978 315.616 442.696 310.334 436.18 310.334C429.664 310.334 424.382 315.616 424.382 322.132C424.382 328.647 429.664 333.929 436.18 333.929Z" fill="#111217"/>
<path d="M436.181 336.285C433.381 336.285 430.644 335.455 428.315 333.899C425.987 332.344 424.173 330.133 423.101 327.546C422.03 324.959 421.749 322.112 422.295 319.366C422.842 316.62 424.19 314.097 426.17 312.117C428.15 310.137 430.673 308.789 433.419 308.243C436.165 307.696 439.012 307.977 441.599 309.048C444.185 310.12 446.397 311.934 447.952 314.263C449.508 316.591 450.338 319.328 450.338 322.128C450.338 325.883 448.846 329.484 446.191 332.139C443.536 334.794 439.936 336.285 436.181 336.285ZM436.181 312.69C434.314 312.69 432.489 313.243 430.937 314.28C429.385 315.318 428.175 316.792 427.461 318.516C426.747 320.241 426.56 322.138 426.924 323.969C427.288 325.8 428.187 327.482 429.507 328.802C430.827 330.122 432.509 331.021 434.339 331.385C436.17 331.749 438.068 331.562 439.793 330.848C441.517 330.133 442.991 328.924 444.028 327.372C445.065 325.819 445.619 323.995 445.619 322.128C445.619 319.625 444.625 317.224 442.855 315.454C441.085 313.684 438.684 312.69 436.181 312.69Z" fill="#323544"/>
</svg>
