<svg width="600" height="463" viewBox="0 0 600 463" fill="none" xmlns="http://www.w3.org/2000/svg">
<path d="M303.499 154.9L275.777 115.576C274.641 113.967 273.198 112.598 271.531 111.549C269.863 110.499 268.005 109.791 266.062 109.463C264.119 109.135 262.131 109.195 260.212 109.639C258.292 110.083 256.48 110.903 254.879 112.05L248.811 116.392C246.493 118.062 243.743 119.029 240.89 119.18C238.037 119.331 235.2 118.658 232.719 117.241C230.346 115.893 227.908 114.608 225.404 113.385C215.393 108.546 204.742 105.164 193.773 103.34C190.812 102.84 188.072 101.455 185.912 99.369C183.753 97.2828 182.274 94.5921 181.672 91.6503L180.883 87.8414C180.484 85.9068 179.704 84.0707 178.59 82.4395C177.476 80.8083 176.049 79.4143 174.393 78.3383C172.736 77.2624 170.883 76.5258 168.939 76.1712C166.996 75.8167 165.002 75.8512 163.072 76.2728L115.955 86.5335C112.108 87.3686 108.747 89.6881 106.601 92.9879C104.455 96.2877 103.698 100.301 104.494 104.156L106.267 112.704C106.827 115.425 106.619 118.248 105.667 120.858C104.714 123.468 103.055 125.761 100.874 127.482C99.373 128.677 97.8921 129.909 96.4314 131.176C94.22 133.128 91.4835 134.387 88.5624 134.796C85.6412 135.204 82.6644 134.745 80.0022 133.475L73.0516 130.104C69.4845 128.381 65.3791 128.145 61.6382 129.449C57.8973 130.752 54.8273 133.488 53.1033 137.055L31.8943 180.956C31.0386 182.722 30.5392 184.639 30.4247 186.599C30.3103 188.558 30.5829 190.52 31.2271 192.374C31.8713 194.228 32.8745 195.937 34.1792 197.402C35.484 198.868 37.0648 200.063 38.8314 200.918L46.746 204.747C49.3469 205.984 51.5357 207.945 53.0496 210.396C54.5635 212.846 55.3382 215.681 55.2808 218.56C55.0302 227.839 55.8651 237.116 57.7685 246.201C58.3463 249.017 58.0932 251.941 57.04 254.616C55.9867 257.291 54.1787 259.602 51.8359 261.268L43.4494 267.295C40.2516 269.594 38.0907 273.062 37.4367 276.945C36.7827 280.829 37.6886 284.813 39.9572 288.032L67.6786 327.363C68.8158 328.971 70.2597 330.338 71.9274 331.387C73.5951 332.435 75.4536 333.143 77.396 333.47C79.3383 333.797 81.3262 333.736 83.2451 333.292C85.1641 332.848 86.9763 332.029 88.5775 330.882L97.2067 324.686C99.5333 322.995 102.302 322.017 105.174 321.871C108.047 321.725 110.9 322.417 113.386 323.864C116.056 325.428 118.809 326.898 121.645 328.273C129.602 332.126 137.97 335.066 146.589 337.037C149.369 337.676 151.907 339.102 153.899 341.143C155.892 343.185 157.255 345.756 157.827 348.551L160.2 360.012C160.607 361.937 161.391 363.763 162.506 365.384C163.621 367.005 165.046 368.39 166.698 369.458C168.35 370.527 170.197 371.259 172.133 371.611C174.068 371.964 176.055 371.931 177.977 371.513L225.168 361.232C229.016 360.399 232.379 358.08 234.525 354.779C236.671 351.479 237.428 347.465 236.629 343.61L234.506 333.592C233.91 330.75 234.159 327.796 235.223 325.095C236.287 322.393 238.119 320.062 240.492 318.39C244.066 315.882 247.5 313.181 250.78 310.3C252.979 308.378 255.696 307.148 258.591 306.764C261.486 306.38 264.43 306.86 267.054 308.142L273.998 311.513C277.564 313.233 281.667 313.467 285.406 312.162C289.144 310.858 292.211 308.122 293.933 304.556L315.142 260.655C316.864 257.087 317.099 252.981 315.794 249.24C314.489 245.499 311.752 242.429 308.184 240.707L300.189 236.844C297.589 235.574 295.411 233.582 293.917 231.105C292.422 228.629 291.673 225.773 291.762 222.882C292.005 213.329 291.099 203.782 289.065 194.446C288.461 191.615 288.698 188.669 289.747 185.971C290.796 183.274 292.612 180.942 294.971 179.264L300 175.637C303.199 173.339 305.361 169.872 306.016 165.988C306.672 162.105 305.767 158.12 303.499 154.9V154.9ZM197.211 293.911C182.863 298.555 167.459 298.84 152.948 294.73C138.438 290.62 125.472 282.3 115.69 270.821C105.908 259.342 99.7499 245.22 97.9939 230.241C96.2378 215.263 98.963 200.099 105.825 186.669C112.686 173.239 123.376 162.145 136.543 154.791C149.709 147.436 164.761 144.151 179.795 145.35C194.829 146.55 209.169 152.181 221.002 161.531C232.836 170.88 241.631 183.529 246.276 197.877C249.362 207.405 250.54 217.446 249.743 227.429C248.947 237.412 246.192 247.14 241.636 256.057C237.08 264.975 230.811 272.908 223.189 279.403C215.566 285.898 206.739 290.828 197.211 293.911V293.911Z" fill="#F0F0F0"/>
<path d="M396.741 300.424L402.33 318.424C402.622 319.369 403.099 320.247 403.733 321.006C404.368 321.765 405.147 322.391 406.025 322.846C406.903 323.301 407.863 323.578 408.849 323.659C409.835 323.74 410.827 323.624 411.768 323.318L414.58 322.421C415.94 321.985 417.397 321.949 418.777 322.317C420.158 322.685 421.403 323.442 422.366 324.498C423.135 325.343 423.937 326.163 424.773 326.958C427.413 329.489 430.32 331.724 433.442 333.626C434.643 334.374 435.607 335.448 436.221 336.723C436.836 337.998 437.076 339.42 436.914 340.826L436.544 344.197C436.436 345.178 436.525 346.171 436.803 347.118C437.082 348.065 437.546 348.947 438.168 349.714C438.79 350.481 439.557 351.117 440.426 351.585C441.296 352.053 442.249 352.344 443.231 352.442L462.04 354.302C463.998 354.497 465.953 353.91 467.481 352.671C469.009 351.431 469.985 349.638 470.198 347.682L470.501 344.905C470.651 343.483 471.208 342.134 472.106 341.022C473.005 339.91 474.205 339.081 475.564 338.635C477.024 338.185 478.472 337.653 479.905 337.037C481.237 336.493 482.698 336.348 484.11 336.62C485.523 336.892 486.826 337.568 487.86 338.567L489.074 339.734C490.507 341.102 492.424 341.846 494.405 341.802C496.386 341.758 498.268 340.929 499.638 339.498L512.851 325.678C514.219 324.246 514.963 322.33 514.919 320.35C514.875 318.37 514.046 316.489 512.615 315.12L511.011 313.563C509.988 312.592 509.264 311.349 508.922 309.981C508.581 308.612 508.636 307.175 509.083 305.837C510.311 302.238 511.141 298.514 511.557 294.734C511.718 293.31 512.289 291.963 513.199 290.856C514.109 289.75 515.321 288.93 516.687 288.498L517.692 288.174C519.567 287.575 521.13 286.259 522.041 284.512C522.951 282.766 523.135 280.732 522.553 278.851L516.964 260.851C516.672 259.905 516.195 259.027 515.561 258.268C514.926 257.509 514.148 256.883 513.269 256.427C512.391 255.971 511.431 255.694 510.445 255.612C509.459 255.53 508.467 255.645 507.526 255.95L506.036 256.428C504.699 256.865 503.265 256.913 501.901 256.565C500.538 256.218 499.302 255.49 498.337 254.466C497.64 253.716 496.919 252.983 496.173 252.269C492.83 249.072 489.065 246.35 484.982 244.179C483.676 243.477 482.611 242.399 481.924 241.086C481.236 239.772 480.958 238.283 481.126 236.81V236.81C481.232 235.828 481.143 234.835 480.863 233.888C480.584 232.941 480.119 232.059 479.497 231.292C478.874 230.526 478.106 229.89 477.237 229.422C476.367 228.954 475.414 228.663 474.431 228.565L455.629 226.705C453.671 226.51 451.716 227.096 450.188 228.336C448.66 229.576 447.684 231.369 447.472 233.325L447.229 235.489C447.072 236.867 446.538 238.174 445.685 239.268C444.832 240.361 443.694 241.197 442.395 241.684C441.946 241.86 441.496 242.042 441.047 242.23C439.715 242.774 438.254 242.919 436.842 242.647C435.43 242.376 434.127 241.699 433.092 240.7L431.872 239.534C430.44 238.166 428.524 237.422 426.544 237.466C424.564 237.511 422.683 238.339 421.314 239.77L408.094 253.59C406.726 255.022 405.982 256.938 406.027 258.917C406.071 260.897 406.899 262.778 408.33 264.147L409.928 265.678C410.953 266.65 411.679 267.895 412.021 269.266C412.363 270.637 412.305 272.077 411.856 273.417C410.676 276.87 409.865 280.438 409.436 284.062C409.265 285.476 408.69 286.811 407.78 287.908C406.87 289.004 405.664 289.815 404.305 290.244L401.609 291.107C399.735 291.707 398.172 293.021 397.261 294.765C396.35 296.51 396.163 298.543 396.741 300.424ZM441.236 276.37C450.674 263.628 469.328 263.116 479.218 275.325C482.497 279.458 484.324 284.557 484.414 289.832C484.504 295.108 482.853 300.266 479.717 304.509C470.245 317.244 451.624 317.763 441.735 305.554C438.454 301.421 436.627 296.322 436.537 291.046C436.447 285.771 438.098 280.612 441.236 276.37V276.37Z" fill="#F0F0F0"/>
<path d="M584.494 351.12H15.5056C9.5484 351.12 4.71912 355.949 4.71912 361.907C4.71912 367.864 9.5484 372.693 15.5056 372.693H584.494C590.452 372.693 595.281 367.864 595.281 361.907C595.281 355.949 590.452 351.12 584.494 351.12Z" fill="#F0F0F0"/>
<path d="M584.494 351.12C587.355 351.12 590.099 352.256 592.122 354.279C594.144 356.302 595.281 359.046 595.281 361.906C595.281 364.767 594.144 367.511 592.122 369.534C590.099 371.557 587.355 372.693 584.494 372.693H15.5056C12.6449 372.693 9.90127 371.557 7.8784 369.534C5.85554 367.511 4.7191 364.767 4.7191 361.906C4.7191 359.046 5.85554 356.302 7.8784 354.279C9.90127 352.256 12.6449 351.12 15.5056 351.12H584.494ZM584.494 346.401H15.5056C11.3933 346.401 7.44936 348.035 4.54149 350.942C1.63362 353.85 0 357.794 0 361.906C0 366.019 1.63362 369.963 4.54149 372.871C7.44936 375.778 11.3933 377.412 15.5056 377.412H584.494C588.607 377.412 592.551 375.778 595.459 372.871C598.366 369.963 600 366.019 600 361.906C600 357.794 598.366 353.85 595.459 350.942C592.551 348.035 588.607 346.401 584.494 346.401Z" fill="#4C3133"/>
<path d="M24.6068 364.941C21.746 364.941 19.0024 363.804 16.9795 361.781C14.9567 359.758 13.8202 357.015 13.8202 354.154C13.8239 353.155 13.9645 352.162 14.2382 351.201C11.6163 351.511 9.19919 352.773 7.44481 354.746C5.69043 356.719 4.72063 359.267 4.71912 361.907C4.71912 364.768 5.85555 367.511 7.87842 369.534C9.90128 371.557 12.6449 372.693 15.5056 372.693H584.494C586.839 372.692 589.12 371.927 590.991 370.513C592.862 369.1 594.221 367.115 594.863 364.86C594.442 364.91 594.019 364.937 593.595 364.941H24.6068Z" fill="#E2E2E0"/>
<path d="M67.7528 423.255C67.443 423.253 67.1365 423.191 66.8509 423.07C66.5653 422.95 66.3062 422.775 66.0883 422.555C65.8705 422.334 65.6982 422.073 65.5812 421.786C65.4643 421.499 65.405 421.192 65.4068 420.882L65.7236 376.051C65.7272 375.427 65.9774 374.831 66.4195 374.391C66.8616 373.951 67.4597 373.705 68.0832 373.705C68.393 373.706 68.6995 373.769 68.9851 373.889C69.2707 374.01 69.5298 374.185 69.7477 374.405C69.9655 374.626 70.1379 374.887 70.2548 375.174C70.3717 375.461 70.431 375.768 70.4292 376.078L70.1124 420.909C70.1088 421.533 69.8587 422.129 69.4166 422.569C68.9744 423.008 68.3763 423.255 67.7528 423.255V423.255Z" fill="#4C3133"/>
<path d="M67.7529 440.109C67.1271 440.109 66.5269 439.86 66.0844 439.418C65.6419 438.975 65.3933 438.375 65.3933 437.749V428.985C65.3933 428.359 65.6419 427.759 66.0844 427.317C66.5269 426.874 67.1271 426.625 67.7529 426.625C68.3787 426.625 68.9788 426.874 69.4213 427.317C69.8638 427.759 70.1124 428.359 70.1124 428.985V437.749C70.1124 438.375 69.8638 438.975 69.4213 439.418C68.9788 439.86 68.3787 440.109 67.7529 440.109Z" fill="#4C3133"/>
<path d="M92.0225 434.716C91.3979 434.716 90.7988 434.468 90.3564 434.027C89.9141 433.586 89.6648 432.988 89.663 432.363L89.5147 376.071C89.5138 375.761 89.5739 375.454 89.6917 375.167C89.8094 374.881 89.9825 374.62 90.201 374.4C90.4195 374.181 90.6791 374.006 90.965 373.887C91.251 373.767 91.5576 373.705 91.8675 373.705V373.705C92.4921 373.705 93.0912 373.952 93.5335 374.393C93.9759 374.834 94.2252 375.433 94.227 376.057L94.3753 432.35C94.3762 432.659 94.3161 432.966 94.1983 433.253C94.0805 433.54 93.9075 433.8 93.689 434.02C93.4705 434.24 93.2109 434.414 92.925 434.534C92.639 434.653 92.3324 434.715 92.0225 434.716V434.716Z" fill="#4C3133"/>
<path d="M92.0225 447.525C91.3967 447.525 90.7966 447.276 90.3541 446.834C89.9116 446.391 89.663 445.791 89.663 445.165V440.446C89.663 439.82 89.9116 439.22 90.3541 438.778C90.7966 438.335 91.3967 438.086 92.0225 438.086C92.6483 438.086 93.2485 438.335 93.691 438.778C94.1335 439.22 94.3821 439.82 94.3821 440.446V445.165C94.3821 445.791 94.1335 446.391 93.691 446.834C93.2485 447.276 92.6483 447.525 92.0225 447.525Z" fill="#4C3133"/>
<path d="M513.371 423.929C512.745 423.929 512.145 423.681 511.702 423.238C511.26 422.796 511.011 422.196 511.011 421.57V376.064C511.011 375.438 511.26 374.838 511.702 374.396C512.145 373.953 512.745 373.705 513.371 373.705C513.997 373.705 514.597 373.953 515.039 374.396C515.482 374.838 515.73 375.438 515.73 376.064V421.57C515.73 422.196 515.482 422.796 515.039 423.238C514.597 423.681 513.997 423.929 513.371 423.929V423.929Z" fill="#4C3133"/>
<path d="M513.371 439.435C512.745 439.435 512.145 439.186 511.702 438.744C511.26 438.301 511.011 437.701 511.011 437.075V431.682C511.011 431.056 511.26 430.456 511.702 430.013C512.145 429.571 512.745 429.322 513.371 429.322C513.997 429.322 514.597 429.571 515.039 430.013C515.482 430.456 515.73 431.056 515.73 431.682V437.075C515.73 437.701 515.482 438.301 515.039 438.744C514.597 439.186 513.997 439.435 513.371 439.435V439.435Z" fill="#4C3133"/>
<path d="M538.315 462.356C537.689 462.356 537.089 462.107 536.646 461.665C536.204 461.222 535.955 460.622 535.955 459.996V454.603C535.955 453.977 536.204 453.377 536.646 452.935C537.089 452.492 537.689 452.244 538.315 452.244C538.94 452.244 539.541 452.492 539.983 452.935C540.426 453.377 540.674 453.977 540.674 454.603V459.996C540.674 460.622 540.426 461.222 539.983 461.665C539.541 462.107 538.94 462.356 538.315 462.356V462.356Z" fill="#4C3133"/>
<path d="M538.315 446.85C537.691 446.85 537.093 446.604 536.651 446.164C536.209 445.725 535.959 445.128 535.955 444.504L535.645 377.426C535.641 376.802 535.885 376.203 536.322 375.758C536.759 375.313 537.354 375.06 537.978 375.053V375.053C538.6 375.054 539.198 375.302 539.639 375.741C540.081 376.18 540.332 376.776 540.337 377.399L540.647 444.477C540.649 444.787 540.59 445.094 540.473 445.381C540.356 445.668 540.184 445.93 539.966 446.15C539.748 446.37 539.489 446.546 539.203 446.666C538.917 446.786 538.611 446.849 538.301 446.85H538.315Z" fill="#4C3133"/>
<path d="M400.099 186.289H200.575C190.887 186.289 183.034 194.142 183.034 203.83V328.522C183.034 338.21 190.887 346.064 200.575 346.064H400.099C409.787 346.064 417.64 338.21 417.64 328.522V203.83C417.64 194.142 409.787 186.289 400.099 186.289Z" fill="white"/>
<path d="M400.099 348.424H200.548C195.277 348.411 190.225 346.31 186.499 342.579C182.774 338.849 180.679 333.794 180.674 328.522V203.803C180.687 198.532 182.788 193.48 186.518 189.754C190.249 186.029 195.303 183.935 200.575 183.929H400.126C405.398 183.942 410.449 186.043 414.175 189.774C417.9 193.504 419.995 198.559 420 203.83V328.549C419.987 333.821 417.886 338.873 414.156 342.598C410.425 346.324 405.371 348.418 400.099 348.424V348.424ZM200.548 188.648C196.528 188.659 192.675 190.263 189.834 193.108C186.994 195.954 185.397 199.81 185.393 203.83V328.549C185.404 332.57 187.008 336.423 189.853 339.263C192.699 342.104 196.554 343.701 200.575 343.704H400.126C404.147 343.694 407.999 342.09 410.84 339.244C413.68 336.399 415.277 332.543 415.281 328.522V203.803C415.27 199.783 413.666 195.93 410.821 193.089C407.975 190.249 404.12 188.652 400.099 188.648H200.548Z" fill="#4C3133"/>
<path d="M387.438 202.9H212.562C204.073 202.9 197.191 209.782 197.191 218.271V327.565C197.191 336.054 204.073 342.936 212.562 342.936H387.438C395.927 342.936 402.809 336.054 402.809 327.565V218.271C402.809 209.782 395.927 202.9 387.438 202.9Z" fill="white"/>
<path d="M387.438 345.296H212.562C207.861 345.29 203.354 343.42 200.03 340.097C196.707 336.773 194.837 332.266 194.831 327.565V218.271C194.837 213.57 196.707 209.063 200.03 205.74C203.354 202.416 207.861 200.546 212.562 200.541H387.438C392.139 200.546 396.646 202.416 399.97 205.74C403.293 209.063 405.163 213.57 405.169 218.271V327.565C405.163 332.266 403.293 336.773 399.97 340.097C396.646 343.42 392.139 345.29 387.438 345.296ZM212.562 205.26C209.112 205.263 205.805 206.635 203.365 209.074C200.926 211.514 199.554 214.821 199.551 218.271V327.565C199.554 331.015 200.926 334.322 203.365 336.762C205.805 339.201 209.112 340.573 212.562 340.576H387.438C390.888 340.573 394.195 339.201 396.635 336.762C399.074 334.322 400.446 331.015 400.449 327.565V218.271C400.446 214.821 399.074 211.514 396.635 209.074C394.195 206.635 390.888 205.263 387.438 205.26H212.562Z" fill="#4C3133"/>
<path d="M382.153 223.705H309.533C305.385 223.705 302.022 227.067 302.022 231.215V244.509C302.022 248.657 305.385 252.019 309.533 252.019H382.153C386.301 252.019 389.663 248.657 389.663 244.509V231.215C389.663 227.067 386.301 223.705 382.153 223.705Z" fill="#F0F0F0"/>
<path d="M384.02 266.176H317.103C311.381 266.176 306.742 270.815 306.742 276.538V309.747C306.742 315.47 311.381 320.109 317.103 320.109H384.02C389.743 320.109 394.382 315.47 394.382 309.747V276.538C394.382 270.815 389.743 266.176 384.02 266.176Z" fill="#F0F0F0"/>
<path d="M172.584 332.581H424.719C427.132 332.582 429.446 333.542 431.153 335.248C432.859 336.955 433.818 339.268 433.82 341.682V348.76H163.483V341.682C163.485 339.268 164.444 336.955 166.151 335.248C167.857 333.542 170.171 332.582 172.584 332.581V332.581Z" fill="#F0F0F0"/>
<path d="M433.82 351.12H163.483C162.857 351.12 162.257 350.871 161.815 350.429C161.372 349.986 161.124 349.386 161.124 348.761V341.682C161.124 338.642 162.331 335.727 164.48 333.578C166.63 331.429 169.545 330.221 172.584 330.221H424.719C427.759 330.221 430.674 331.429 432.823 333.578C434.972 335.727 436.18 338.642 436.18 341.682V348.761C436.18 349.386 435.931 349.986 435.489 350.429C435.046 350.871 434.446 351.12 433.82 351.12V351.12ZM165.843 346.401H431.461V341.682C431.461 339.894 430.75 338.179 429.486 336.915C428.222 335.651 426.507 334.94 424.719 334.94H172.584C170.796 334.94 169.082 335.651 167.817 336.915C166.553 338.179 165.843 339.894 165.843 341.682V346.401Z" fill="#4C3133"/>
<path d="M120.054 388.819C116.77 388.814 113.54 387.982 110.663 386.399C104.852 383.224 95.1034 374.116 95.09 348.761C95.09 348.135 95.3386 347.535 95.7811 347.092C96.2236 346.65 96.8237 346.401 97.4495 346.401C98.0753 346.401 98.6755 346.65 99.118 347.092C99.5605 347.535 99.8091 348.135 99.8091 348.761C99.8091 365.5 104.602 377.709 112.928 382.253C115.329 383.563 118.042 384.193 120.775 384.074C123.507 383.955 126.156 383.092 128.434 381.579C134.258 377.844 137.407 370.934 136.861 363.087C136.187 353.648 138.485 346.273 143.656 341.23C152.016 333.093 164.724 334.212 165.229 334.26C165.539 334.289 165.84 334.379 166.115 334.524C166.39 334.67 166.634 334.868 166.833 335.108C167.031 335.348 167.18 335.624 167.272 335.922C167.363 336.219 167.396 336.532 167.366 336.842C167.337 337.152 167.247 337.453 167.102 337.728C166.956 338.003 166.758 338.247 166.518 338.445C166.278 338.643 166.002 338.793 165.704 338.884C165.407 338.976 165.094 339.008 164.784 338.979V338.979C164.676 338.979 153.667 338.042 146.906 344.655C142.787 348.7 140.98 354.768 141.512 362.783C142.187 372.37 138.223 380.891 130.928 385.57C127.688 387.669 123.915 388.796 120.054 388.819V388.819Z" fill="#4C3133"/>
<path d="M96.0674 319.098C102.504 319.098 108.677 321.655 113.229 326.206C117.78 330.758 120.337 336.931 120.337 343.367V348.761H71.7977V343.367C71.7977 336.931 74.3547 330.758 78.9062 326.206C83.4576 321.655 89.6307 319.098 96.0674 319.098V319.098Z" fill="#FFD900"/>
<path d="M120.337 351.12H71.7978C71.172 351.12 70.5718 350.872 70.1293 350.429C69.6868 349.987 69.4382 349.387 69.4382 348.761V343.367C69.4382 336.305 72.2438 329.532 77.2377 324.538C82.2317 319.544 89.0049 316.738 96.0674 316.738C103.13 316.738 109.903 319.544 114.897 324.538C119.891 329.532 122.697 336.305 122.697 343.367V348.761C122.697 349.387 122.448 349.987 122.006 350.429C121.563 350.872 120.963 351.12 120.337 351.12V351.12ZM74.1573 346.401H117.978V343.367C117.978 337.557 115.669 331.984 111.56 327.875C107.451 323.766 101.878 321.457 96.0674 321.457C90.2565 321.457 84.6836 323.766 80.5747 327.875C76.4657 331.984 74.1573 337.557 74.1573 343.367V346.401Z" fill="#4C3133"/>
<path d="M119.373 338.985H72.7618C72.136 338.985 71.5358 338.737 71.0933 338.294C70.6508 337.852 70.4022 337.251 70.4022 336.626C70.4022 336 70.6508 335.4 71.0933 334.957C71.5358 334.515 72.136 334.266 72.7618 334.266H119.373C119.999 334.266 120.599 334.515 121.041 334.957C121.484 335.4 121.733 336 121.733 336.626C121.733 337.251 121.484 337.852 121.041 338.294C120.599 338.737 119.999 338.985 119.373 338.985Z" fill="#4C3133"/>
<path d="M96.0674 338.311C95.4416 338.311 94.8415 338.063 94.399 337.62C93.9565 337.178 93.7079 336.578 93.7079 335.952V319.098C93.7079 318.472 93.9565 317.872 94.399 317.429C94.8415 316.987 95.4416 316.738 96.0674 316.738C96.6932 316.738 97.2934 316.987 97.7359 317.429C98.1784 317.872 98.427 318.472 98.427 319.098V335.952C98.427 336.578 98.1784 337.178 97.7359 337.62C97.2934 338.063 96.6932 338.311 96.0674 338.311Z" fill="#4C3133"/>
<path d="M254.629 219.322H224.022C220.374 219.322 217.416 222.28 217.416 225.929V256.536C217.416 260.185 220.374 263.142 224.022 263.142H254.629C258.278 263.142 261.236 260.185 261.236 256.536V225.929C261.236 222.28 258.278 219.322 254.629 219.322Z" fill="#F0F0F0"/>
<path d="M430.22 49.0977C397.281 35.1831 299.602 49.01 232.234 133.266C179.488 199.239 213.222 250.954 246.735 283.866C278.616 315.167 363.607 354.774 383.333 326.615C408.216 291.12 320.535 231.059 330.944 198.086C340.139 168.902 419.326 159.336 444.823 128.992C475.996 91.8932 452.751 58.6235 430.22 49.0977Z" fill="#C5E6F1"/>
<path d="M400.908 44.3783C413.043 44.3783 423.155 46.0906 430.22 49.0974C452.751 58.6232 475.996 91.8929 444.822 128.992C419.326 159.336 340.139 168.902 330.944 198.086C320.535 231.12 408.216 291.12 383.333 326.641C378.613 333.383 370.099 336.255 359.474 336.255C325.854 336.255 270.957 307.677 246.735 283.893C213.222 250.981 179.488 199.266 232.234 133.293C285.108 67.1378 356.629 44.3783 400.908 44.3783ZM400.908 39.6592C354.829 39.6592 282.04 63.4165 228.539 130.32C204.074 160.927 195.324 191.79 202.537 222.059C207.782 244.043 221.157 265.367 243.425 287.23C255.796 299.365 276.02 312.848 297.519 323.216C321.202 334.677 343.2 340.947 359.467 340.947C372.458 340.947 381.789 337.037 387.189 329.324C394.342 319.111 394.301 306.572 387.054 290.992C381.101 278.183 371.036 264.801 361.308 251.837C346.631 232.286 331.456 212.061 335.44 199.482C339.64 186.147 364.173 176.196 387.897 166.576C411.391 157.043 435.688 147.187 448.422 132.025C465.829 111.322 466.119 93.0052 463.301 81.2816C459.506 65.5131 447.236 51.1738 432.047 44.7558C424.187 41.4322 413.413 39.6727 400.901 39.6727L400.908 39.6592Z" fill="#4C3133"/>
<path d="M264.944 274.428C231.432 241.516 197.697 189.801 250.443 123.828C269.615 99.712 293.158 79.4234 319.841 64.0234C289.8 77.9718 258.688 100.192 232.241 133.266C179.494 199.239 213.229 250.954 246.742 283.866C278.623 315.167 363.614 354.774 383.339 326.614L383.434 326.473C350.683 330.221 290.602 299.628 264.944 274.428Z" fill="#81C4D4"/>
<path d="M432.202 68.6479C442.315 74.8772 445.153 92.2435 441.256 97.2524C437.36 102.261 425.966 95.9513 408.364 103.758C390.762 111.565 361.173 114.443 362.319 96.3895C363.465 78.3356 370.867 73.812 391.031 75.5648C411.196 77.3176 420.775 61.63 432.202 68.6479Z" fill="#81C4D4"/>
<path d="M433.085 61.2321H432.971L427.355 61.0501C426.461 61.0205 425.615 60.6371 425.004 59.9841C424.393 59.3311 424.066 58.462 424.095 57.568C424.125 56.674 424.508 55.8284 425.161 55.2171C425.814 54.6058 426.683 54.279 427.577 54.3085L433.193 54.4905C434.087 54.5048 434.939 54.8737 435.561 55.5159C436.183 56.1582 436.524 57.0212 436.51 57.9152C436.496 58.8092 436.127 59.6609 435.485 60.2829C434.842 60.905 433.979 61.2464 433.085 61.2321V61.2321Z" fill="#4C3133"/>
<path d="M384.324 72.2819C383.568 72.282 382.835 72.0284 382.241 71.5619C381.647 71.0953 381.227 70.4428 381.048 69.709C380.869 68.9752 380.942 68.2026 381.255 67.5151C381.568 66.8276 382.102 66.2651 382.773 65.9178L387.762 63.3358C388.155 63.1322 388.584 63.0079 389.025 62.9703C389.466 62.9326 389.911 62.9821 390.333 63.1161C390.755 63.25 391.146 63.4658 391.484 63.751C391.823 64.0363 392.102 64.3854 392.306 64.7785C392.509 65.1716 392.634 65.6009 392.671 66.042C392.709 66.4831 392.659 66.9273 392.525 67.3492C392.391 67.7711 392.176 68.1625 391.89 68.5011C391.605 68.8396 391.256 69.1187 390.863 69.3223L385.874 71.9043C385.395 72.1525 384.863 72.2819 384.324 72.2819Z" fill="#4C3133"/>
<path d="M429.964 89.9378C432.935 89.9378 435.344 87.5292 435.344 84.558C435.344 81.5868 432.935 79.1782 429.964 79.1782C426.993 79.1782 424.584 81.5868 424.584 84.558C424.584 87.5292 426.993 89.9378 429.964 89.9378Z" fill="#4C3133"/>
<path d="M390.688 96.1941C393.659 96.1941 396.067 93.7855 396.067 90.8144C396.067 87.8432 393.659 85.4346 390.688 85.4346C387.716 85.4346 385.308 87.8432 385.308 90.8144C385.308 93.7855 387.716 96.1941 390.688 96.1941Z" fill="#4C3133"/>
<path d="M370.234 33.5315C351.196 33.4438 322.901 43.4078 308.946 52.2326C302.791 56.1225 292.497 63.3157 285.674 65.8708C278.852 68.4258 269.778 67.1854 266.346 60.7607C264.324 56.9786 264.775 52.2326 266.704 48.4101C268.632 44.5876 271.861 41.5741 275.34 39.073C284.119 32.7817 294.595 29.2919 305.393 29.0618C308.299 29.0079 312.189 28.3876 312.459 25.5022C312.668 23.264 310.281 21.6595 308.09 21.1944C305.899 20.7292 303.479 20.8101 301.618 19.5562C299.245 17.9517 298.632 14.5135 299.67 11.8438C300.708 9.17415 303.041 7.1247 305.582 5.86403C338.137 -10.1607 370.234 33.5315 370.234 33.5315Z" fill="#C5E6F1"/>
<path d="M278.798 69.4506C272.899 69.4506 267.061 67.1045 264.27 61.8663C262.018 57.6528 262.139 52.2191 264.593 47.3449C266.427 43.7112 269.488 40.3741 273.957 37.1584C283.126 30.597 294.061 26.953 305.333 26.7022C308.373 26.6483 310.052 25.9404 310.092 25.2798C310.139 24.727 309.034 23.8101 307.578 23.5C307.025 23.3854 306.431 23.3045 305.805 23.2168C304.045 22.9809 302.056 22.7112 300.283 21.5112C297.155 19.4011 295.942 14.8775 297.452 10.9876C298.825 7.77792 301.347 5.19612 304.524 3.74718C318.681 -3.21686 334.935 -0.439331 351.512 11.7899C359.276 17.6046 366.213 24.447 372.135 32.1292C372.392 32.4814 372.547 32.8977 372.582 33.3323C372.618 33.7669 372.532 34.2029 372.336 34.592C372.139 34.9812 371.839 35.3085 371.468 35.5377C371.097 35.7669 370.67 35.8892 370.234 35.891H369.991C351.829 35.891 323.966 45.5247 310.207 54.2281C308.98 55.0034 307.578 55.9202 306.074 56.9247C299.892 60.9697 292.193 65.9787 286.524 68.109C284.048 69.0101 281.432 69.4643 278.798 69.4506V69.4506ZM320.461 4.73145C315.654 4.72403 310.911 5.83415 306.607 7.97415C304.501 8.91815 302.809 10.5952 301.847 12.6933C301.139 14.5202 301.618 16.7382 302.919 17.5944C303.782 18.1742 305.009 18.3427 306.431 18.5382C307.106 18.6258 307.834 18.727 308.555 18.8753C311.926 19.5899 315.121 22.1652 314.791 25.718C314.596 27.7809 313.119 31.2663 305.42 31.4146C295.104 31.6487 285.099 34.9924 276.715 41.0079C272.879 43.7719 270.29 46.5494 268.807 49.4888C267.067 52.9472 266.926 56.8438 268.429 59.6685C271.22 64.8932 279.128 65.8236 284.852 63.7135C290.049 61.7652 297.506 56.9045 303.499 53.0011C305.023 52.0034 306.438 51.0798 307.685 50.3045C321.169 41.7764 346.463 32.7359 365.414 31.4281C358.551 23.3314 340.449 4.73145 320.461 4.73145Z" fill="#4C3133"/>
<path d="M183.034 325.839C183.034 325.839 194.494 282.693 240.337 290.109C240.337 290.109 250.449 246.963 300.337 248.311C350.225 249.66 352.921 297.525 352.921 297.525C352.921 297.525 395.393 296.176 398.09 332.581L183.034 331.907V325.839Z" fill="white"/>
<path d="M398.09 334.94L183.034 334.266C182.409 334.264 181.811 334.015 181.37 333.573C180.929 333.13 180.681 332.531 180.681 331.906V325.839C180.681 325.634 180.708 325.43 180.762 325.232C183.198 317.285 187.272 309.936 192.721 303.659C200.717 294.491 215.117 284.378 238.652 287.473C241.083 280.08 244.871 273.205 249.822 267.201C258.155 257.088 273.674 245.223 300.384 245.951C327.256 246.679 340.766 260.655 347.373 272.243C351.354 279.331 353.955 287.108 355.038 295.165C361.976 295.412 368.828 296.778 375.33 299.21C390.573 305.075 399.256 316.556 400.429 332.419C400.452 332.741 400.409 333.064 400.302 333.368C400.195 333.672 400.027 333.951 399.807 334.188C399.588 334.424 399.322 334.613 399.027 334.742C398.731 334.872 398.412 334.939 398.09 334.94ZM185.393 329.547L395.474 330.221C393.762 317.513 386.474 308.587 373.773 303.659C367.126 301.178 360.09 299.899 352.995 299.884C352.381 299.901 351.785 299.678 351.332 299.263C350.879 298.848 350.605 298.273 350.568 297.659C349.745 289.494 347.236 281.588 343.2 274.441C334.436 259.199 320.016 251.203 300.276 250.67C280.537 250.138 264.715 256.657 253.577 270.052C248.539 276.083 244.813 283.097 242.636 290.648C242.497 291.233 242.142 291.743 241.641 292.076C241.14 292.409 240.532 292.539 239.939 292.441C221.852 289.515 207.195 294.282 196.368 306.599C191.43 312.319 187.697 318.978 185.393 326.176V329.547Z" fill="#4C3133"/>
<path d="M453.371 344.338C453.371 344.338 444.708 311.736 410.063 317.338C410.063 317.338 402.425 284.729 364.719 285.747C327.013 286.765 324.984 322.94 324.984 322.94C324.984 322.94 292.888 321.922 290.845 349.435L453.371 348.922V344.338Z" fill="white"/>
<path d="M290.845 351.795C290.521 351.794 290.201 351.728 289.905 351.599C289.608 351.471 289.34 351.282 289.119 351.046C288.899 350.807 288.729 350.525 288.621 350.218C288.514 349.91 288.47 349.585 288.492 349.26C290.346 324.235 315.249 321.026 322.874 320.635C323.747 314.636 325.714 308.847 328.679 303.559C333.742 294.666 344.097 283.947 364.672 283.395C385.133 282.848 396.991 291.936 403.362 299.662C407.042 304.133 409.883 309.233 411.748 314.716C429.492 312.525 440.4 320.204 446.488 327.188C450.662 331.993 453.783 337.62 455.649 343.705C455.703 343.903 455.73 344.107 455.73 344.311V348.896C455.73 349.52 455.483 350.119 455.042 350.562C454.601 351.004 454.002 351.253 453.378 351.255L290.858 351.795H290.845ZM324.378 325.293C320.393 325.293 296.805 326.183 293.494 347.069L451.011 346.57V344.669C450.054 341.406 441.223 314.682 410.44 319.664C409.848 319.768 409.238 319.64 408.736 319.308C408.235 318.976 407.88 318.464 407.744 317.878C406.107 312.246 403.321 307.014 399.56 302.514C391.288 292.556 379.551 287.75 364.787 288.107C350.022 288.464 339.256 294.491 332.764 305.898C329.79 311.188 327.942 317.037 327.337 323.075C327.304 323.69 327.031 324.267 326.578 324.683C326.124 325.099 325.525 325.321 324.91 325.3L324.378 325.293Z" fill="#4C3133"/>
<path d="M220.786 298.199C226.371 298.199 230.899 293.671 230.899 288.086C230.899 282.502 226.371 277.974 220.786 277.974C215.201 277.974 210.674 282.502 210.674 288.086C210.674 293.671 215.201 298.199 220.786 298.199Z" fill="white"/>
<path d="M220.786 300.558C218.32 300.558 215.908 299.827 213.857 298.456C211.806 297.086 210.208 295.138 209.264 292.859C208.32 290.58 208.073 288.072 208.554 285.653C209.035 283.234 210.223 281.011 211.968 279.267C213.712 277.523 215.934 276.335 218.353 275.854C220.773 275.373 223.28 275.62 225.559 276.564C227.838 277.508 229.786 279.106 231.157 281.157C232.527 283.208 233.258 285.619 233.258 288.086C233.255 291.393 231.94 294.563 229.602 296.901C227.263 299.239 224.093 300.555 220.786 300.558ZM220.786 280.333C219.253 280.333 217.754 280.788 216.479 281.64C215.204 282.492 214.211 283.703 213.624 285.119C213.037 286.536 212.884 288.095 213.183 289.599C213.482 291.103 214.22 292.484 215.304 293.568C216.389 294.652 217.77 295.391 219.274 295.69C220.778 295.989 222.337 295.836 223.753 295.249C225.17 294.662 226.381 293.668 227.233 292.393C228.085 291.118 228.539 289.62 228.539 288.086C228.538 286.031 227.72 284.06 226.267 282.606C224.813 281.153 222.842 280.335 220.786 280.333V280.333Z" fill="#4C3133"/>
<path d="M173.258 159.997C184.614 159.997 193.82 150.791 193.82 139.435C193.82 128.079 184.614 118.873 173.258 118.873C161.902 118.873 152.697 128.079 152.697 139.435C152.697 150.791 161.902 159.997 173.258 159.997Z" fill="white"/>
<path d="M173.258 162.356C168.725 162.356 164.293 161.012 160.524 158.493C156.755 155.974 153.817 152.394 152.082 148.206C150.347 144.018 149.893 139.409 150.778 134.963C151.662 130.517 153.845 126.432 157.051 123.227C160.256 120.021 164.34 117.838 168.787 116.954C173.233 116.069 177.842 116.523 182.03 118.258C186.218 119.993 189.798 122.931 192.317 126.7C194.835 130.47 196.18 134.901 196.18 139.435C196.18 145.514 193.765 151.344 189.466 155.642C185.168 159.941 179.338 162.356 173.258 162.356ZM173.258 121.232C169.658 121.232 166.139 122.3 163.146 124.3C160.152 126.3 157.819 129.143 156.442 132.469C155.064 135.795 154.704 139.455 155.406 142.986C156.108 146.517 157.842 149.76 160.388 152.305C162.933 154.851 166.176 156.585 169.707 157.287C173.238 157.989 176.898 157.629 180.224 156.251C183.55 154.874 186.393 152.541 188.393 149.547C190.393 146.554 191.461 143.035 191.461 139.435C191.461 134.607 189.543 129.977 186.129 126.564C182.716 123.15 178.086 121.232 173.258 121.232Z" fill="#4C3133"/>
<path d="M491.123 212.581C496.895 212.581 501.573 207.903 501.573 202.132C501.573 196.361 496.895 191.682 491.123 191.682C485.352 191.682 480.674 196.361 480.674 202.132C480.674 207.903 485.352 212.581 491.123 212.581Z" fill="white"/>
<path d="M491.124 214.94C488.59 214.94 486.114 214.189 484.007 212.782C481.901 211.374 480.259 209.374 479.29 207.033C478.32 204.693 478.066 202.117 478.561 199.632C479.055 197.148 480.275 194.865 482.066 193.074C483.858 191.283 486.14 190.063 488.625 189.568C491.109 189.074 493.685 189.328 496.025 190.297C498.366 191.267 500.366 192.909 501.774 195.015C503.181 197.121 503.933 199.598 503.933 202.131C503.933 205.528 502.583 208.786 500.181 211.189C497.779 213.591 494.521 214.94 491.124 214.94V214.94ZM491.124 194.041C489.524 194.041 487.959 194.516 486.629 195.405C485.299 196.294 484.262 197.557 483.65 199.035C483.037 200.514 482.877 202.14 483.189 203.71C483.501 205.279 484.272 206.72 485.403 207.852C486.535 208.983 487.976 209.754 489.545 210.066C491.115 210.378 492.741 210.218 494.219 209.605C495.698 208.993 496.961 207.956 497.85 206.626C498.739 205.295 499.213 203.731 499.213 202.131C499.213 199.986 498.361 197.928 496.844 196.411C495.327 194.894 493.269 194.041 491.124 194.041Z" fill="#4C3133"/>
<path d="M436.18 333.929C442.695 333.929 447.977 328.647 447.977 322.131C447.977 315.616 442.695 310.333 436.18 310.333C429.664 310.333 424.382 315.616 424.382 322.131C424.382 328.647 429.664 333.929 436.18 333.929Z" fill="white"/>
<path d="M436.18 336.289C433.38 336.289 430.642 335.458 428.314 333.903C425.986 332.347 424.172 330.136 423.1 327.549C422.029 324.962 421.748 322.116 422.294 319.369C422.841 316.623 424.189 314.101 426.169 312.121C428.149 310.141 430.671 308.792 433.418 308.246C436.164 307.7 439.011 307.98 441.597 309.052C444.184 310.123 446.395 311.938 447.951 314.266C449.507 316.594 450.337 319.331 450.337 322.131C450.337 325.886 448.845 329.487 446.19 332.142C443.535 334.797 439.934 336.289 436.18 336.289ZM436.18 312.693C434.313 312.693 432.488 313.247 430.936 314.284C429.384 315.321 428.174 316.795 427.46 318.52C426.746 320.244 426.559 322.142 426.923 323.973C427.287 325.804 428.186 327.485 429.506 328.805C430.826 330.125 432.508 331.024 434.338 331.388C436.169 331.752 438.067 331.566 439.792 330.851C441.516 330.137 442.99 328.927 444.027 327.375C445.064 325.823 445.618 323.998 445.618 322.131C445.618 319.628 444.624 317.228 442.854 315.458C441.084 313.688 438.683 312.693 436.18 312.693Z" fill="#4C3133"/>
</svg>
