<svg width="600" height="451" viewBox="0 0 600 451" fill="none" xmlns="http://www.w3.org/2000/svg">
<path d="M271.746 388.911C276.527 374.046 223.47 343.684 153.24 321.095C83.0105 298.506 22.2021 292.244 17.4211 307.109C12.64 321.973 65.6967 352.335 135.927 374.924C206.157 397.513 266.965 403.775 271.746 388.911Z" fill="#2B2E3D"/>
<path d="M2.78838 303.997C2.55578 303.999 2.32449 303.963 2.10395 303.889C1.82386 303.799 1.56417 303.655 1.33978 303.466C1.1154 303.276 0.930752 303.043 0.796431 302.782C0.66211 302.52 0.580767 302.235 0.557069 301.942C0.533371 301.649 0.567787 301.354 0.65834 301.074C3.90137 290.974 18.2104 285.339 42.0054 284.801C42.2994 284.795 42.5919 284.846 42.866 284.952C43.1402 285.059 43.3908 285.218 43.6035 285.421C43.8161 285.624 43.9866 285.867 44.1054 286.136C44.2241 286.405 44.2886 286.695 44.2954 286.989C44.3021 287.283 44.2508 287.575 44.1445 287.85C44.0382 288.124 43.879 288.374 43.6758 288.587C43.4727 288.8 43.2297 288.97 42.9606 289.089C42.6916 289.208 42.4018 289.272 42.1078 289.279C20.6986 289.765 7.48982 294.447 4.91842 302.443C4.77443 302.895 4.49037 303.289 4.10741 303.568C3.72445 303.848 3.26246 303.998 2.78838 303.997Z" fill="#2B2E3D"/>
<path d="M47.1927 353.264C46.7371 353.269 46.2908 353.135 45.9134 352.88L37.6427 347.251C37.1765 346.907 36.8617 346.396 36.7646 345.825C36.6675 345.254 36.7955 344.667 37.1218 344.189C37.4481 343.71 37.9473 343.376 38.5144 343.258C39.0815 343.14 39.6724 343.246 40.1629 343.554L48.4336 349.177C48.8297 349.447 49.1285 349.838 49.2858 350.291C49.4431 350.744 49.4507 351.236 49.3074 351.694C49.1641 352.152 48.8775 352.552 48.4899 352.834C48.1022 353.117 47.634 353.268 47.1543 353.264H47.1927Z" fill="#2B2E3D"/>
<path d="M28.4901 340.61C28.0297 340.603 27.5828 340.453 27.2108 340.182C6.46692 325.143 -2.70568 311.615 0.690866 301.073C0.772425 300.784 0.911515 300.514 1.09983 300.279C1.28814 300.044 1.52181 299.85 1.78688 299.708C2.05196 299.565 2.34299 299.478 2.64261 299.451C2.94222 299.423 3.24426 299.457 3.53069 299.549C3.81712 299.641 4.08206 299.79 4.30969 299.986C4.53732 300.183 4.72296 300.424 4.85553 300.694C4.9881 300.964 5.06487 301.258 5.08126 301.558C5.09766 301.859 5.05334 302.159 4.95094 302.442C2.28999 310.758 11.3475 323.16 29.8398 336.561C30.222 336.839 30.5063 337.231 30.6521 337.681C30.7979 338.13 30.7976 338.615 30.6514 339.064C30.5051 339.514 30.2203 339.905 29.8378 340.183C29.4553 340.461 28.9948 340.61 28.5221 340.61H28.4901Z" fill="#2B2E3D"/>
<path d="M232.097 410.794H231.931C203.454 408.709 168.426 401.334 133.303 390.038C133.023 389.948 132.763 389.804 132.539 389.613C132.314 389.423 132.13 389.191 131.995 388.929C131.86 388.667 131.779 388.382 131.755 388.088C131.73 387.795 131.764 387.5 131.854 387.22C131.944 386.94 132.088 386.68 132.278 386.456C132.469 386.231 132.701 386.047 132.963 385.912C133.225 385.778 133.51 385.696 133.803 385.672C134.097 385.647 134.392 385.681 134.672 385.771C169.469 396.965 204.125 404.27 232.257 406.33C232.551 406.34 232.84 406.408 233.108 406.531C233.375 406.653 233.616 406.827 233.817 407.042C234.017 407.257 234.173 407.51 234.276 407.785C234.379 408.061 234.426 408.354 234.416 408.648C234.405 408.942 234.337 409.231 234.215 409.499C234.093 409.767 233.919 410.007 233.704 410.208C233.488 410.408 233.236 410.564 232.96 410.667C232.684 410.77 232.391 410.818 232.097 410.807V410.794Z" fill="#2B2E3D"/>
<path d="M247.692 411.403H245.178C244.584 411.395 244.018 411.152 243.603 410.727C243.189 410.301 242.96 409.729 242.968 409.135C242.976 408.541 243.219 407.975 243.644 407.561C244.069 407.146 244.642 406.918 245.236 406.925C250.27 406.996 254.997 406.855 259.308 406.509C259.902 406.461 260.49 406.651 260.944 407.036C261.398 407.422 261.681 407.972 261.729 408.566C261.777 409.16 261.588 409.748 261.202 410.202C260.816 410.656 260.266 410.939 259.672 410.987C255.943 411.249 251.933 411.403 247.692 411.403Z" fill="#2B2E3D"/>
<path d="M478.635 397.197C545.662 367.565 594.915 332.041 588.642 317.854C582.37 303.667 522.949 316.187 455.921 345.82C388.893 375.453 339.641 410.976 345.913 425.163C352.186 439.351 411.607 426.83 478.635 397.197Z" fill="#2B2E3D"/>
<path d="M357.955 443.651H357.866C343.307 443.012 334.307 439.014 331.116 431.792C325.96 420.138 337.678 402.413 364.109 381.9C364.578 381.535 365.173 381.371 365.762 381.445C366.352 381.519 366.888 381.824 367.253 382.293C367.617 382.762 367.781 383.357 367.707 383.946C367.633 384.536 367.328 385.072 366.859 385.437C342.923 404.031 331.096 420.694 335.209 430.008C337.627 435.47 345.527 438.643 358.064 439.199C358.658 439.212 359.222 439.46 359.633 439.889C360.044 440.318 360.268 440.892 360.255 441.486C360.242 442.08 359.994 442.644 359.565 443.055C359.136 443.466 358.562 443.69 357.968 443.677L357.955 443.651Z" fill="#2B2E3D"/>
<path d="M378.731 376.22C378.253 376.222 377.787 376.07 377.402 375.788C377.016 375.505 376.731 375.107 376.588 374.651C376.445 374.195 376.452 373.705 376.607 373.253C376.763 372.801 377.059 372.411 377.452 372.139C383.804 367.777 390.693 363.376 397.921 359.058C398.427 358.797 399.014 358.738 399.563 358.895C400.111 359.051 400.579 359.411 400.871 359.9C401.163 360.39 401.257 360.972 401.134 361.529C401.012 362.086 400.681 362.575 400.211 362.896C393.047 367.163 386.234 371.506 379.966 375.817C379.602 376.069 379.173 376.209 378.731 376.22Z" fill="#2B2E3D"/>
<path d="M423.973 432.952C423.433 432.955 422.91 432.763 422.501 432.411C422.091 432.059 421.823 431.571 421.745 431.036C421.667 430.502 421.785 429.957 422.077 429.503C422.369 429.049 422.815 428.715 423.334 428.564C444.256 422.404 464.745 414.857 484.664 405.972C504.558 397.252 523.852 387.221 542.418 375.946C542.67 375.793 542.949 375.691 543.241 375.646C543.532 375.6 543.83 375.613 544.116 375.683C544.403 375.753 544.673 375.878 544.911 376.052C545.149 376.227 545.351 376.446 545.504 376.698C545.657 376.95 545.759 377.23 545.805 377.521C545.85 377.813 545.837 378.11 545.767 378.397C545.698 378.683 545.572 378.953 545.398 379.191C545.224 379.429 545.004 379.631 544.752 379.784C526.021 391.156 506.556 401.274 486.487 410.072C466.387 419.034 445.712 426.648 424.6 432.862C424.397 432.923 424.186 432.953 423.973 432.952Z" fill="#2B2E3D"/>
<path d="M530.252 283.712C537.597 283.712 543.551 277.758 543.551 270.414C543.551 263.069 537.597 257.115 530.252 257.115C522.908 257.115 516.954 263.069 516.954 270.414C516.954 277.758 522.908 283.712 530.252 283.712Z" fill="#2B2E3D"/>
<path d="M98.2625 407.316C101.145 407.316 103.482 404.979 103.482 402.097C103.482 399.214 101.145 396.877 98.2625 396.877C95.3798 396.877 93.043 399.214 93.043 402.097C93.043 404.979 95.3798 407.316 98.2625 407.316Z" fill="#2B2E3D"/>
<path d="M568.542 300.708C571.742 300.708 574.337 298.113 574.337 294.912C574.337 291.712 571.742 289.117 568.542 289.117C565.341 289.117 562.747 291.712 562.747 294.912C562.747 298.113 565.341 300.708 568.542 300.708Z" fill="#2B2E3D"/>
<path d="M34.1442 251.496C38.6731 251.496 42.3445 247.825 42.3445 243.296C42.3445 238.767 38.6731 235.096 34.1442 235.096C29.6153 235.096 25.9438 238.767 25.9438 243.296C25.9438 247.825 29.6153 251.496 34.1442 251.496Z" fill="#2B2E3D"/>
<path d="M552.185 374.689C551.701 374.69 551.23 374.535 550.842 374.246C550.454 373.957 550.169 373.551 550.032 373.087C549.894 372.623 549.911 372.127 550.079 371.673C550.247 371.219 550.557 370.832 550.964 370.569C555.972 367.314 560.763 364.019 565.202 360.776C565.682 360.426 566.282 360.281 566.869 360.373C567.456 360.464 567.983 360.786 568.333 361.266C568.684 361.746 568.829 362.345 568.737 362.933C568.645 363.52 568.324 364.047 567.844 364.397C563.366 367.685 558.479 371.024 553.401 374.324C553.039 374.56 552.617 374.687 552.185 374.689Z" fill="#2B2E3D"/>
<path d="M172.45 297.528C172.45 304.006 175.023 310.217 179.603 314.797C184.183 319.377 190.395 321.95 196.872 321.95H458.931C465.408 321.95 471.62 319.377 476.2 314.797C480.78 310.217 483.353 304.006 483.353 297.528V123.633H172.482L172.45 297.528Z" fill="#111217"/>
<path d="M259.476 321.944H458.932C465.409 321.944 471.62 319.371 476.2 314.791C480.78 310.212 483.353 304 483.353 297.523V123.627H172.483V297.523C172.483 304 175.056 310.212 179.636 314.791C184.216 319.371 190.428 321.944 196.905 321.944" fill="#111217"/>
<path d="M458.931 324.192H259.475C258.881 324.192 258.312 323.956 257.892 323.536C257.472 323.117 257.236 322.547 257.236 321.953C257.236 321.36 257.472 320.79 257.892 320.37C258.312 319.95 258.881 319.715 259.475 319.715H458.931C464.813 319.708 470.453 317.368 474.612 313.208C478.771 309.047 481.109 303.407 481.114 297.525V125.868H174.721V297.525C174.726 303.407 177.065 309.047 181.224 313.208C185.383 317.368 191.022 319.708 196.904 319.715C197.498 319.715 198.068 319.95 198.487 320.37C198.907 320.79 199.143 321.36 199.143 321.953C199.143 322.547 198.907 323.117 198.487 323.536C198.068 323.956 197.498 324.192 196.904 324.192C189.835 324.184 183.058 321.371 178.059 316.372C173.061 311.372 170.25 304.594 170.244 297.525V123.629C170.244 123.036 170.48 122.466 170.899 122.046C171.319 121.626 171.889 121.391 172.482 121.391H483.353C483.947 121.391 484.516 121.626 484.936 122.046C485.356 122.466 485.592 123.036 485.592 123.629V297.525C485.585 304.594 482.774 311.372 477.776 316.372C472.778 321.371 466 324.184 458.931 324.192Z" fill="#323544"/>
<path d="M244.955 324.195L230.448 324.028C229.854 324.028 229.285 323.792 228.865 323.373C228.445 322.953 228.209 322.383 228.209 321.79C228.209 321.196 228.445 320.626 228.865 320.207C229.285 319.787 229.854 319.551 230.448 319.551L244.955 319.717C245.549 319.717 246.118 319.953 246.538 320.373C246.958 320.793 247.194 321.362 247.194 321.956C247.194 322.55 246.958 323.119 246.538 323.539C246.118 323.959 245.549 324.195 244.955 324.195Z" fill="#323544"/>
<path d="M458.931 91.5703H196.872C190.395 91.5703 184.183 94.1433 179.603 98.7233C175.023 103.303 172.45 109.515 172.45 115.992V123.63H483.321V115.992C483.321 109.521 480.752 103.314 476.179 98.7346C471.606 94.1555 465.402 91.5788 458.931 91.5703Z" fill="#111217"/>
<path d="M483.347 125.871H172.476C171.882 125.871 171.313 125.635 170.893 125.215C170.473 124.795 170.237 124.226 170.237 123.632V115.995C170.246 108.926 173.057 102.15 178.055 97.152C183.053 92.154 189.83 89.3424 196.898 89.334H458.931C465.999 89.3424 472.776 92.154 477.774 97.152C482.772 102.15 485.583 108.926 485.592 115.995V123.632C485.593 123.927 485.535 124.219 485.423 124.491C485.31 124.764 485.145 125.011 484.936 125.219C484.727 125.427 484.479 125.592 484.206 125.704C483.934 125.816 483.641 125.873 483.347 125.871ZM174.689 121.393H481.082V115.995C481.076 110.119 478.741 104.485 474.589 100.328C470.437 96.1698 464.807 93.8268 458.931 93.8115H196.872C190.991 93.8183 185.353 96.1576 181.194 100.316C177.035 104.475 174.696 110.113 174.689 115.995V121.393Z" fill="#323544"/>
<path d="M420.719 116.181H408.795C408.202 116.181 407.632 115.945 407.212 115.525C406.793 115.105 406.557 114.536 406.557 113.942C406.557 113.348 406.793 112.779 407.212 112.359C407.632 111.939 408.202 111.703 408.795 111.703H420.719C421.312 111.703 421.882 111.939 422.302 112.359C422.721 112.779 422.957 113.348 422.957 113.942C422.957 114.536 422.721 115.105 422.302 115.525C421.882 115.945 421.312 116.181 420.719 116.181Z" fill="#323544"/>
<path d="M443.087 102.008H431.157V113.937H443.087V102.008Z" fill="#CB730B"/>
<path d="M443.086 116.179H431.157C430.563 116.179 429.994 115.943 429.574 115.523C429.154 115.103 428.918 114.534 428.918 113.94V102.01C428.918 101.417 429.154 100.847 429.574 100.427C429.994 100.007 430.563 99.7715 431.157 99.7715H443.086C443.68 99.7715 444.249 100.007 444.669 100.427C445.089 100.847 445.325 101.417 445.325 102.01V113.914C445.328 114.21 445.273 114.504 445.162 114.779C445.051 115.053 444.887 115.303 444.678 115.514C444.47 115.724 444.222 115.892 443.949 116.006C443.676 116.12 443.382 116.179 443.086 116.179ZM433.396 111.701H440.847V104.249H433.396V111.701Z" fill="#323544"/>
<path d="M466.197 116.179C465.905 116.182 465.614 116.127 465.343 116.018C465.072 115.908 464.825 115.745 464.617 115.54L452.688 103.617C452.268 103.192 452.034 102.619 452.037 102.022C452.04 101.425 452.28 100.854 452.704 100.434C453.128 100.014 453.701 99.7802 454.298 99.7832C454.895 99.7862 455.466 100.026 455.886 100.45L467.815 112.373C468.131 112.687 468.347 113.087 468.434 113.524C468.522 113.96 468.478 114.413 468.308 114.824C468.138 115.235 467.85 115.587 467.479 115.834C467.109 116.081 466.674 116.212 466.229 116.211L466.197 116.179Z" fill="#323544"/>
<path d="M454.267 116.179C453.975 116.182 453.684 116.127 453.413 116.018C453.142 115.908 452.895 115.745 452.687 115.54C452.479 115.332 452.313 115.086 452.2 114.814C452.087 114.542 452.029 114.251 452.029 113.957C452.029 113.662 452.087 113.371 452.2 113.099C452.313 112.828 452.479 112.581 452.687 112.373L464.617 100.45C464.825 100.24 465.072 100.073 465.344 99.9589C465.617 99.8444 465.909 99.7847 466.205 99.7832C466.5 99.7817 466.793 99.8385 467.067 99.9502C467.34 100.062 467.589 100.226 467.799 100.434C468.009 100.642 468.176 100.889 468.29 101.162C468.405 101.434 468.465 101.727 468.466 102.022C468.468 102.318 468.411 102.611 468.299 102.884C468.187 103.158 468.023 103.407 467.815 103.617L455.886 115.54C455.673 115.75 455.42 115.915 455.142 116.025C454.864 116.135 454.566 116.187 454.267 116.179Z" fill="#323544"/>
<path d="M245.819 151.961H205.693C199.274 151.961 194.071 157.164 194.071 163.583V203.709C194.071 210.128 199.274 215.331 205.693 215.331H245.819C252.238 215.331 257.441 210.128 257.441 203.709V163.583C257.441 157.164 252.238 151.961 245.819 151.961Z" fill="#2B2E3D"/>
<path d="M461.31 285.789H345.834C340.457 285.789 336.098 290.148 336.098 295.525V296.932C336.098 302.309 340.457 306.667 345.834 306.667H461.31C466.687 306.667 471.045 302.309 471.045 296.932V295.525C471.045 290.148 466.687 285.789 461.31 285.789Z" fill="#2B2E3D"/>
<path d="M461.31 249.258H345.834C340.457 249.258 336.098 253.617 336.098 258.993V260.401C336.098 265.777 340.457 270.136 345.834 270.136H461.31C466.687 270.136 471.045 265.777 471.045 260.401V258.993C471.045 253.617 466.687 249.258 461.31 249.258Z" fill="#2B2E3D"/>
<path d="M461.31 212.729H345.834C340.457 212.729 336.098 217.087 336.098 222.464V223.871C336.098 229.248 340.457 233.607 345.834 233.607H461.31C466.687 233.607 471.045 229.248 471.045 223.871V222.464C471.045 217.087 466.687 212.729 461.31 212.729Z" fill="#2B2E3D"/>
<path d="M130.968 52.6348C130.968 52.6348 124.392 40.3982 136.546 30.5924C148.699 20.7865 167.985 27.5156 167.985 27.5156C167.985 27.5156 169.379 42.6882 159.439 45.5922C159.439 45.5922 157.149 40.7948 152.774 43.6221C148.399 46.4493 154.386 49.251 154.386 49.251C154.386 49.251 146.371 59.9268 130.968 52.6348Z" fill="#111217"/>
<path d="M141.222 57.4085C137.328 57.3413 133.498 56.4014 130.015 54.658C129.581 54.4545 129.224 54.1156 128.998 53.6922C128.921 53.5514 121.725 39.6966 135.152 28.8545C148.105 18.3834 167.902 25.1125 168.74 25.4004C169.145 25.5449 169.501 25.8023 169.765 26.1423C170.029 26.4823 170.19 26.8907 170.23 27.3193C170.294 28.0102 171.657 44.3724 160.079 47.7498C159.569 47.8989 159.022 47.8618 158.537 47.645C158.052 47.4282 157.66 47.0459 157.431 46.5664C157.085 45.8769 156.508 45.3311 155.8 45.0249C155.483 44.9787 155.16 44.998 154.85 45.0816C154.541 45.1652 154.253 45.3113 154.002 45.511C153.826 45.6226 153.661 45.7511 153.51 45.8948C154.035 46.4488 154.657 46.9019 155.345 47.2317C155.646 47.3734 155.912 47.5802 156.123 47.8371C156.334 48.094 156.485 48.3946 156.566 48.7171C156.647 49.0397 156.655 49.3761 156.59 49.7022C156.525 50.0283 156.388 50.3358 156.19 50.6026C154.333 52.7492 152.034 54.4687 149.451 55.6435C146.867 56.8182 144.06 57.4203 141.222 57.4085ZM132.651 50.9417C142.034 55.0802 148.124 51.8564 150.893 49.5984C149.825 48.73 149.137 47.4796 148.974 46.1123C148.891 44.9417 149.282 43.2402 151.584 41.7499C152.362 41.1868 153.254 40.802 154.197 40.6229C155.14 40.4438 156.111 40.4748 157.041 40.7136C158.309 41.0974 159.438 41.8419 160.29 42.8565C165.35 40.1763 165.861 32.4621 165.836 29.1999C161.32 27.959 147.171 24.9078 137.979 32.3342C128.787 39.7606 131.621 48.4982 132.651 50.9417Z" fill="#323544"/>
<path d="M121.124 69.4806C120.872 69.4792 120.621 69.436 120.382 69.3527C119.823 69.1555 119.364 68.7446 119.106 68.2101C118.848 67.6755 118.813 67.0606 119.007 66.4998C119.391 65.406 128.704 39.5641 153.9 31.7156C154.46 31.5608 155.059 31.63 155.569 31.9085C156.079 32.187 156.461 32.653 156.634 33.208C156.807 33.7629 156.757 34.3633 156.495 34.8822C156.233 35.4011 155.78 35.7978 155.231 35.9885C132.203 43.159 123.325 67.7344 123.248 67.971C123.095 68.4123 122.808 68.7948 122.428 69.0654C122.047 69.336 121.591 69.4811 121.124 69.4806Z" fill="#111217"/>
<path d="M392.3 14.5501C386.166 19.7121 388.462 30.4199 394.711 35.4475C400.961 40.4752 409.462 41.3771 417.445 42.0935L429.233 43.1425C421.212 37.4241 421.897 25.2323 416.626 16.9168C412.027 9.65039 402.438 5.95321 394.149 8.26235" fill="#111217"/>
<path d="M429.239 45.3792H429.035L417.246 44.3301C409.698 43.6585 400.295 42.8206 393.304 37.198C391.228 35.4657 389.544 33.3117 388.364 30.8789C387.184 28.4461 386.535 25.7901 386.459 23.0873C386.415 18.9232 387.975 15.29 390.86 12.8529C391.315 12.4703 391.903 12.2841 392.495 12.335C393.087 12.386 393.634 12.6701 394.017 13.1247C394.399 13.5794 394.586 14.1674 394.535 14.7594C394.484 15.3514 394.2 15.8989 393.745 16.2814C392.802 17.1233 392.06 18.1662 391.574 19.3331C391.088 20.4999 390.871 21.761 390.937 23.0233C390.993 25.0708 391.483 27.083 392.375 28.9268C393.268 30.7705 394.541 32.4037 396.112 33.7183C402.048 38.4901 410.696 39.2577 417.642 39.8782L423.566 40.4027C421.276 36.9486 420.067 32.81 418.883 28.761C417.796 25.0446 416.677 21.2067 414.732 18.1364C410.67 11.7399 402.08 8.40091 394.749 10.4606C394.462 10.5525 394.16 10.5855 393.86 10.5576C393.559 10.5298 393.268 10.4416 393.003 10.2984C392.738 10.1552 392.504 9.95989 392.316 9.72424C392.128 9.48859 391.99 9.21743 391.909 8.927C391.829 8.63657 391.808 8.33286 391.847 8.03408C391.887 7.7353 391.986 7.44759 392.14 7.18821C392.293 6.92884 392.498 6.70312 392.741 6.52461C392.983 6.3461 393.26 6.21846 393.553 6.14935C398.192 4.93026 403.097 5.20079 407.574 6.92266C412.051 8.64454 415.873 11.7306 418.5 15.7441C420.777 19.3454 421.992 23.4903 423.163 27.5009C424.794 33.0851 426.361 38.375 430.512 41.3366C430.897 41.611 431.186 42.0003 431.336 42.4486C431.486 42.8969 431.49 43.3813 431.348 43.8322C431.206 44.2832 430.925 44.6776 430.545 44.959C430.165 45.2403 429.706 45.3941 429.233 45.3984L429.239 45.3792Z" fill="#323544"/>
<path d="M411.24 33.1594C410.818 33.161 410.405 33.0411 410.05 32.814C404.78 29.4455 400.247 25.0454 396.723 19.8788C393.198 14.7121 390.756 8.88578 389.543 2.75042C389.474 2.45647 389.465 2.1516 389.517 1.85414C389.569 1.55669 389.68 1.2728 389.845 1.01956C390.009 0.76632 390.223 0.548958 390.474 0.380553C390.724 0.212148 391.006 0.0961819 391.303 0.0396253C391.599 -0.0169314 391.904 -0.0129091 392.199 0.0514548C392.494 0.115819 392.773 0.239198 393.019 0.414158C393.266 0.589117 393.474 0.812042 393.631 1.06953C393.789 1.32702 393.893 1.61375 393.937 1.91247C395.034 7.44299 397.237 12.6947 400.415 17.3521C403.593 22.0095 407.68 25.9764 412.429 29.0145C412.839 29.2733 413.154 29.6581 413.327 30.1113C413.499 30.5644 413.52 31.0614 413.386 31.5273C413.252 31.9933 412.97 32.4031 412.583 32.6951C412.196 32.9871 411.724 33.1456 411.24 33.1467V33.1594Z" fill="#111217"/>
<path d="M353.829 198.248L341.51 200.704C328.867 203.21 315.747 200.598 305.029 193.441C294.31 186.284 286.869 175.167 284.338 162.53L276.137 121.394C273.631 108.753 276.241 95.6345 283.396 84.9162C290.55 74.198 301.664 66.7554 314.299 64.2216L326.612 61.7653C339.253 59.259 352.371 61.8693 363.09 69.0236C373.808 76.1779 381.25 87.2918 383.784 99.9269L391.991 141.063C394.501 153.705 391.893 166.827 384.738 177.548C377.583 188.27 366.467 195.714 353.829 198.248ZM317.676 81.1915C309.534 82.8221 302.372 87.6171 297.762 94.5237C293.152 101.43 291.471 109.884 293.088 118.029L301.295 159.165C302.925 167.307 307.72 174.47 314.627 179.08C321.534 183.69 329.988 185.371 338.132 183.753L350.446 181.297C358.588 179.666 365.75 174.871 370.36 167.965C374.97 161.058 376.651 152.604 375.034 144.459L366.821 103.323C365.19 95.1839 360.397 88.0237 353.493 83.414C346.589 78.8043 338.139 77.1216 329.996 78.7353L317.676 81.1915Z" fill="#CB730B"/>
<path d="M331.992 203.886C320.234 203.865 308.847 199.777 299.761 192.315C290.675 184.853 284.45 174.478 282.144 162.949L273.943 121.845C271.32 108.622 274.05 94.8993 281.533 83.6869C289.015 72.4744 300.641 64.6884 313.858 62.0373L326.177 59.581C339.404 56.954 353.133 59.6821 364.35 67.1664C375.568 74.6508 383.358 86.28 386.01 99.5017L394.211 140.638C396.832 153.861 394.101 167.584 386.617 178.796C379.133 190.008 367.507 197.794 354.29 200.445L341.977 202.895C338.69 203.556 335.345 203.888 331.992 203.886ZM336.118 63.0735C333.068 63.0748 330.025 63.3769 327.034 63.9754L314.715 66.4317C302.669 68.8528 292.075 75.9511 285.255 86.1706C278.435 96.3901 275.945 108.897 278.331 120.949L286.532 162.085C288.95 174.139 296.05 184.741 306.276 191.565C316.501 198.39 329.016 200.879 341.075 198.488L353.388 196.051L353.829 198.245L353.388 196.051C365.442 193.636 376.045 186.537 382.87 176.312C389.695 166.087 392.184 153.572 389.791 141.514L381.59 100.378C379.479 89.8678 373.798 80.4112 365.51 73.612C357.222 66.8128 346.838 63.0895 336.118 63.0735ZM331.96 186.603C324.209 186.578 316.704 183.877 310.715 178.956C304.727 174.035 300.622 167.196 299.094 159.597L290.894 118.461C289.164 109.734 290.966 100.676 295.905 93.2762C300.845 85.876 308.518 80.7375 317.241 78.9881L329.555 76.5318C338.282 74.803 347.338 76.6059 354.738 81.5451C362.138 86.4842 367.277 94.1564 369.028 102.879L377.234 144.015C378.965 152.742 377.163 161.8 372.223 169.2C367.284 176.6 359.611 181.738 350.887 183.488L338.567 185.944C336.392 186.381 334.179 186.602 331.96 186.603ZM318.118 83.3825C310.558 84.8973 303.908 89.3492 299.627 95.7612C295.346 102.173 293.783 110.022 295.282 117.585L303.495 158.721C305.01 166.28 309.462 172.93 315.874 177.211C322.286 181.492 330.135 183.055 337.697 181.556L350.017 179.1C357.576 177.582 364.224 173.128 368.504 166.715C372.784 160.303 374.345 152.454 372.846 144.891L364.646 103.755C363.13 96.1956 358.676 89.5461 352.263 85.2662C345.85 80.9862 338 79.4254 330.437 80.9262L318.118 83.3825Z" fill="#323544"/>
<path d="M385.727 127.526L287.48 147.122C276.224 149.367 268.92 160.312 271.165 171.568L286.365 247.778C288.61 259.034 299.555 266.339 310.811 264.094L409.058 244.498C420.314 242.253 427.619 231.308 425.374 220.052L410.173 143.842C407.928 132.586 396.983 125.281 385.727 127.526Z" fill="#111217"/>
<path d="M389.809 127.144C394.612 127.15 399.264 128.819 402.976 131.867C406.688 134.915 409.229 139.154 410.169 143.864L425.367 220.098C426.44 225.503 425.322 231.112 422.26 235.693C419.198 240.274 414.441 243.451 409.037 244.526L310.806 264.119C309.46 264.384 308.091 264.519 306.718 264.522C301.916 264.515 297.263 262.846 293.552 259.798C289.84 256.75 287.298 252.511 286.358 247.801L271.16 171.587C270.092 166.183 271.213 160.576 274.278 155.998C277.343 151.421 282.1 148.248 287.503 147.177L385.754 127.585C387.097 127.314 388.464 127.177 389.835 127.176L389.809 127.144ZM389.835 122.698C388.17 122.699 386.51 122.864 384.877 123.191L286.627 142.783C280.058 144.095 274.28 147.962 270.562 153.534C266.843 159.105 265.489 165.926 266.798 172.495L281.996 248.709C282.642 251.964 283.923 255.059 285.767 257.817C287.61 260.576 289.98 262.944 292.739 264.786C295.499 266.628 298.595 267.907 301.85 268.551C305.105 269.195 308.455 269.191 311.708 268.539L409.958 248.946C416.523 247.627 422.298 243.759 426.015 238.189C429.732 232.619 431.089 225.803 429.787 219.234L414.564 142.994C413.416 137.277 410.329 132.132 405.826 128.428C401.323 124.724 395.678 122.689 389.848 122.666L389.835 122.698Z" fill="#323544"/>
<path d="M317.164 250.686C314.488 251.22 311.732 251.222 309.055 250.69C306.378 250.159 303.831 249.106 301.561 247.591C299.291 246.076 297.341 244.128 295.824 241.859C294.306 239.591 293.251 237.045 292.717 234.368L277.519 158.16C277.15 156.3 277.036 154.397 277.18 152.506C274.649 154.921 272.77 157.937 271.718 161.273C270.665 164.609 270.474 168.157 271.161 171.587L286.359 247.801C287.438 253.205 290.619 257.959 295.202 261.019C299.785 264.079 305.395 265.194 310.8 264.119L409.038 244.526C413.478 243.632 417.506 241.313 420.507 237.921C423.509 234.529 425.321 230.249 425.669 225.733C422.837 228.458 419.286 230.317 415.434 231.093L317.164 250.686Z" fill="#323544"/>
<path d="M355.589 187.041L352.467 171.389L336.54 174.587L339.681 190.335C337.45 192.576 336.001 195.476 335.548 198.605C335.095 201.734 335.662 204.926 337.165 207.707C338.668 210.489 341.027 212.712 343.893 214.048C346.759 215.384 349.978 215.761 353.075 215.123C356.172 214.486 358.981 212.867 361.086 210.508C363.191 208.149 364.48 205.175 364.762 202.026C365.044 198.877 364.304 195.721 362.652 193.025C361 190.33 358.523 188.238 355.589 187.06V187.041Z" fill="#323544"/>
<path d="M352.467 171.387L355.589 187.04C358.514 188.23 360.978 190.33 362.618 193.029C364.258 195.727 364.985 198.882 364.693 202.027C364.401 205.171 363.105 208.138 360.997 210.489C358.889 212.84 356.08 214.451 352.985 215.082C352.033 215.27 351.065 215.364 350.094 215.363C347.197 215.353 344.368 214.487 341.961 212.874C339.554 211.262 337.677 208.974 336.564 206.299C335.452 203.624 335.155 200.68 335.709 197.836C336.263 194.993 337.645 192.376 339.681 190.315L336.54 174.566L352.467 171.368V171.387ZM352.467 166.891C352.171 166.892 351.875 166.922 351.585 166.98L335.657 170.178C334.494 170.412 333.471 171.097 332.812 172.084C332.154 173.071 331.914 174.279 332.146 175.443L334.838 189.048C332.466 192.154 331.098 195.91 330.918 199.815C330.738 203.719 331.754 207.585 333.832 210.896C335.909 214.207 338.947 216.804 342.541 218.341C346.134 219.878 350.111 220.282 353.94 219.497C357.769 218.712 361.267 216.777 363.966 213.95C366.665 211.123 368.437 207.539 369.044 203.678C369.651 199.817 369.064 195.863 367.363 192.344C365.661 188.826 362.926 185.91 359.523 183.988L356.836 170.517C356.635 169.501 356.088 168.586 355.287 167.929C354.487 167.271 353.484 166.911 352.448 166.91L352.467 166.891Z" fill="#323544"/>
<path d="M344.554 177.158L305.562 184.936L311.986 217.147L350.979 209.37L344.554 177.158Z" fill="#111217"/>
<path d="M311.977 219.402C311.46 219.402 310.959 219.223 310.559 218.895C310.159 218.568 309.885 218.112 309.783 217.605L303.386 185.392C303.271 184.81 303.392 184.207 303.722 183.714C304.052 183.221 304.564 182.879 305.145 182.763L344.164 174.985C344.452 174.927 344.75 174.927 345.038 174.984C345.327 175.041 345.601 175.155 345.846 175.318C346.091 175.481 346.301 175.691 346.465 175.936C346.628 176.181 346.742 176.455 346.799 176.744L353.196 208.95C353.254 209.239 353.254 209.536 353.197 209.825C353.139 210.113 353.026 210.388 352.863 210.633C352.699 210.878 352.489 211.088 352.245 211.251C352 211.415 351.725 211.528 351.437 211.586L312.45 219.364C312.294 219.391 312.135 219.404 311.977 219.402ZM308.19 186.716L313.729 214.535L348.328 207.633L342.789 179.795L308.19 186.716Z" fill="#323544"/>
<path d="M287.563 244.935C306.289 241.2 318.29 222.235 314.368 202.574C310.447 182.913 292.088 170.002 273.362 173.737C254.637 177.472 242.636 196.438 246.557 216.099C250.479 235.76 268.838 248.67 287.563 244.935Z" fill="#111217"/>
<path d="M281.107 247.823C263.76 247.823 248.043 234.966 244.372 216.544C242.334 206.636 244.202 196.324 249.585 187.76C252.164 183.607 255.567 180.026 259.584 177.24C263.6 174.453 268.146 172.519 272.939 171.557C292.838 167.585 312.418 181.312 316.576 202.152C318.612 212.061 316.742 222.373 311.356 230.936C308.779 235.09 305.377 238.67 301.362 241.457C297.346 244.244 292.801 246.178 288.009 247.139C285.737 247.596 283.425 247.825 281.107 247.823ZM279.828 175.344C277.802 175.344 275.782 175.543 273.796 175.939C269.599 176.787 265.621 178.485 262.106 180.93C258.591 183.374 255.614 186.513 253.359 190.152C248.587 197.744 246.937 206.887 248.753 215.668C251.996 231.96 265.845 243.345 281.094 243.345C283.117 243.346 285.136 243.147 287.12 242.751C291.322 241.908 295.306 240.212 298.826 237.769C302.347 235.325 305.329 232.186 307.589 228.544C312.356 220.948 314.006 211.805 312.194 203.022C308.913 186.73 295.071 175.344 279.828 175.344Z" fill="#323544"/>
<path d="M268.25 220.865C273.023 220.865 276.892 216.996 276.892 212.224C276.892 207.451 273.023 203.582 268.25 203.582C263.477 203.582 259.608 207.451 259.608 212.224C259.608 216.996 263.477 220.865 268.25 220.865Z" fill="#111217"/>
<path d="M268.225 223.113C266.167 223.107 264.154 222.517 262.418 221.412C260.683 220.307 259.296 218.732 258.42 216.87C257.544 215.009 257.214 212.937 257.468 210.895C257.722 208.853 258.551 206.926 259.857 205.336C261.163 203.746 262.893 202.56 264.847 201.914C266.801 201.269 268.897 201.191 270.893 201.689C272.89 202.188 274.703 203.242 276.124 204.73C277.545 206.219 278.514 208.079 278.92 210.096C279.199 211.498 279.2 212.94 278.922 214.342C278.643 215.743 278.092 217.076 277.298 218.264C276.504 219.452 275.484 220.472 274.296 221.266C273.108 222.059 271.775 222.611 270.374 222.889C269.667 223.037 268.947 223.112 268.225 223.113ZM268.263 205.843C267.834 205.843 267.405 205.886 266.984 205.971C265.954 206.179 264.992 206.637 264.181 207.305C263.371 207.973 262.737 208.831 262.337 209.802C261.937 210.773 261.781 211.828 261.885 212.873C261.989 213.918 262.349 214.922 262.933 215.795C263.516 216.668 264.306 217.384 265.232 217.88C266.158 218.376 267.192 218.636 268.242 218.637C269.293 218.638 270.327 218.381 271.255 217.888C272.182 217.394 272.974 216.68 273.559 215.809C274.03 215.11 274.357 214.325 274.52 213.499C274.684 212.673 274.681 211.823 274.512 210.998C274.226 209.548 273.445 208.241 272.303 207.301C271.161 206.361 269.729 205.846 268.25 205.843H268.263Z" fill="#323544"/>
<path d="M313.851 202.288C313.297 202.285 312.763 202.077 312.354 201.704C311.944 201.331 311.687 200.819 311.633 200.268C311.579 199.716 311.731 199.164 312.061 198.718C312.39 198.273 312.873 197.965 313.416 197.855L347.317 191.094C347.61 191.024 347.914 191.014 348.21 191.065C348.507 191.115 348.79 191.225 349.043 191.387C349.296 191.55 349.514 191.762 349.684 192.01C349.853 192.259 349.971 192.539 350.03 192.834C350.089 193.129 350.088 193.432 350.027 193.727C349.966 194.021 349.846 194.301 349.674 194.548C349.503 194.795 349.284 195.005 349.029 195.165C348.775 195.326 348.491 195.434 348.194 195.482L314.292 202.243C314.147 202.273 313.999 202.288 313.851 202.288Z" fill="#323544"/>
<path d="M252.713 254.112C247.039 244.594 247.014 237.615 253.039 233.989C259.065 230.362 268.538 243.935 268.538 243.935C268.538 243.935 278.267 241.856 283.723 227.029C283.723 227.029 295.09 216.027 297.022 234.705C297.022 234.705 307.518 231.149 305.069 244.53C305.069 244.53 315.54 242.464 312.316 257.323C309.092 272.182 277.391 295.529 252.713 254.112Z" fill="#006C8F"/>
<path d="M284.945 279.673C276.112 279.673 262.845 275.528 250.769 255.264C242.178 240.833 247.769 234.539 251.869 232.07C258.361 228.162 266.44 237.494 269.351 241.287C271.941 240.168 277.794 236.605 281.606 226.255C281.721 225.94 281.907 225.656 282.15 225.424C282.713 224.88 287.773 220.166 292.762 221.983C295.96 223.147 297.969 226.46 298.909 232.063C299.985 231.93 301.077 232.014 302.119 232.311C303.162 232.607 304.135 233.111 304.979 233.791C307.013 235.543 307.89 238.396 307.602 242.279C309.468 242.481 311.21 243.308 312.546 244.626C315.15 247.281 315.802 251.714 314.465 257.797C312.546 266.483 302.459 277.185 289.404 279.315C287.929 279.552 286.439 279.672 284.945 279.673ZM254.619 252.967C266.958 273.673 279.962 276.321 288.7 274.895C299.574 273.123 308.529 264.136 310.109 256.85C311.056 252.481 310.794 249.257 309.367 247.786C307.941 246.315 305.491 246.724 305.459 246.731C305.102 246.794 304.735 246.77 304.389 246.661C304.044 246.552 303.729 246.361 303.473 246.106C303.216 245.85 303.025 245.536 302.915 245.19C302.806 244.845 302.781 244.478 302.843 244.121C303.482 240.648 303.207 238.185 302.062 237.181C300.617 235.901 297.738 236.816 297.713 236.829C297.393 236.933 297.053 236.964 296.72 236.919C296.386 236.875 296.067 236.756 295.785 236.572C295.504 236.388 295.267 236.143 295.092 235.856C294.918 235.568 294.81 235.245 294.777 234.91C294.265 229.985 292.973 226.799 291.227 226.166C289.48 225.533 286.717 227.368 285.611 228.302C279.751 243.654 269.427 246.002 268.98 246.097C268.549 246.188 268.101 246.151 267.692 245.989C267.282 245.828 266.929 245.55 266.677 245.189C263.331 240.411 257.044 234.149 254.172 235.876C249.419 238.741 249.573 244.486 254.613 252.942L254.619 252.967Z" fill="#323544"/>
<path d="M297.021 234.711C297.021 234.711 297.61 244.414 290.081 248.783L297.021 234.711Z" fill="#006C8F"/>
<path d="M290.062 251.001C289.569 251.002 289.089 250.84 288.698 250.541C288.306 250.241 288.024 249.821 287.895 249.344C287.767 248.868 287.8 248.363 287.988 247.907C288.176 247.451 288.51 247.071 288.937 246.824C295.141 243.235 294.77 234.92 294.764 234.837C294.729 234.243 294.932 233.66 295.327 233.215C295.722 232.771 296.278 232.502 296.871 232.467C297.465 232.432 298.048 232.634 298.493 233.03C298.937 233.425 299.207 233.981 299.241 234.574C299.241 235.022 299.811 245.711 291.188 250.7C290.846 250.898 290.458 251.001 290.062 251.001Z" fill="#323544"/>
<path d="M305.067 244.529C305.067 244.529 304.92 253.484 297.391 258.57L305.067 244.529Z" fill="#006C8F"/>
<path d="M297.379 260.809C296.898 260.814 296.427 260.664 296.037 260.381C295.648 260.098 295.36 259.697 295.216 259.238C295.073 258.778 295.081 258.284 295.24 257.83C295.399 257.375 295.701 256.984 296.1 256.715C302.599 252.32 302.797 244.561 302.803 244.491C302.813 243.897 303.057 243.331 303.484 242.918C303.91 242.505 304.484 242.278 305.077 242.287C305.671 242.297 306.237 242.542 306.65 242.968C307.063 243.394 307.29 243.968 307.281 244.561C307.281 244.977 307.019 254.738 298.607 260.425C298.245 260.672 297.818 260.805 297.379 260.809Z" fill="#323544"/>
<path d="M410.458 202.004C409.937 202.004 409.433 201.822 409.032 201.489C408.631 201.156 408.36 200.694 408.264 200.181L399.309 152.463C399.203 151.881 399.332 151.281 399.668 150.794C400.003 150.306 400.518 149.972 401.099 149.863C401.681 149.754 402.282 149.879 402.771 150.212C403.26 150.545 403.598 151.057 403.71 151.638L412.665 199.356C412.773 199.94 412.646 200.543 412.31 201.032C411.974 201.521 411.457 201.857 410.874 201.966C410.737 201.995 410.598 202.008 410.458 202.004Z" fill="#323544"/>
<path d="M413.817 220.275C413.287 220.275 412.775 220.087 412.371 219.745C411.967 219.403 411.697 218.929 411.61 218.407L410.119 209.452C410.059 209.157 410.059 208.853 410.118 208.558C410.178 208.263 410.297 207.983 410.467 207.735C410.637 207.487 410.856 207.276 411.11 207.114C411.364 206.952 411.648 206.844 411.944 206.794C412.241 206.745 412.545 206.756 412.838 206.826C413.13 206.897 413.406 207.026 413.647 207.205C413.889 207.385 414.092 207.611 414.244 207.871C414.396 208.13 414.495 208.418 414.533 208.717L416.023 217.672C416.118 218.254 415.977 218.85 415.633 219.33C415.289 219.809 414.77 220.133 414.188 220.23C414.066 220.258 413.941 220.273 413.817 220.275Z" fill="#323544"/>
<path d="M207.549 193.416C198.35 183.22 185.11 178.256 172.061 176.785C151.369 174.514 130.574 180.033 113.731 192.265C94.1704 206.452 80.629 229.006 73.8103 253.377C70.5893 265.132 68.659 277.203 68.0534 289.376C67.512 300.007 67.7257 310.663 68.6931 321.263C88.631 333.915 120.62 348.192 157.765 360.141C173.257 365.124 188.257 369.256 202.188 372.474C194.186 356.284 194.832 336.57 198.99 318.615C199.38 316.958 199.79 315.314 200.231 313.696C205.764 293.361 214.943 274.293 219.12 253.569C223.297 232.844 221.416 208.8 207.549 193.416Z" fill="#006C8F"/>
<path d="M162.849 176.235C165.921 176.233 168.99 176.409 172.041 176.759C185.09 178.256 198.331 183.219 207.529 193.39C221.416 208.774 223.296 232.78 219.132 253.517C214.968 274.255 205.776 293.316 200.243 313.644C199.802 315.263 199.393 316.907 199.002 318.563C194.825 336.518 194.179 356.232 202.201 372.422C188.269 369.224 173.269 365.072 157.777 360.089C120.632 348.141 88.6433 333.864 68.7054 321.212C67.738 310.611 67.5243 299.955 68.0657 289.325C68.6713 277.151 70.6016 265.08 73.8226 253.325C80.6412 228.955 94.1827 206.4 113.743 192.213C128.037 181.856 145.229 176.261 162.881 176.222L162.849 176.235ZM162.881 171.744C144.287 171.811 126.181 177.708 111.114 188.605C91.8415 202.582 77.0656 225.142 69.5369 252.136C66.2345 264.204 64.257 276.597 63.6393 289.095C63.0873 299.936 63.3011 310.803 64.279 321.614C64.3395 322.3 64.5574 322.963 64.9157 323.551C65.2741 324.139 65.7632 324.636 66.345 325.005C87.4152 338.38 120.261 352.727 156.446 364.369C171.708 369.275 186.779 373.458 201.222 376.804C202.049 376.995 202.912 376.948 203.713 376.667C204.514 376.386 205.218 375.884 205.744 375.218C206.271 374.553 206.597 373.751 206.685 372.907C206.773 372.064 206.62 371.212 206.243 370.452C197.998 353.776 200.154 333.589 203.41 319.593C203.793 317.956 204.196 316.357 204.612 314.834C206.902 306.416 209.908 298.005 212.819 289.888C216.887 278.496 221.102 266.72 223.571 254.419C225.893 242.835 226.239 231.2 224.563 220.761C222.599 208.492 218 198.283 210.893 190.416C199.482 177.77 183.766 173.593 172.598 172.313C169.376 171.942 166.137 171.756 162.894 171.757L162.881 171.744Z" fill="#323544"/>
<path d="M110.615 325.317C101.935 321.215 94.667 314.631 89.7299 306.398C84.7929 298.165 82.409 288.652 82.8799 279.063V278.75C83.4787 266.576 85.4092 254.504 88.6368 242.75C94.6495 221.258 105.907 201.173 121.899 187.018C119.083 188.6 116.36 190.343 113.743 192.237C94.1826 206.425 80.6412 228.979 73.8225 253.349C70.6015 265.105 68.6712 277.176 68.0656 289.349C67.5242 299.98 67.7379 310.635 68.7053 321.236C88.6432 333.888 120.632 348.165 157.777 360.114C173.269 365.097 188.269 369.229 202.201 372.446C199.792 367.498 198.093 362.235 197.154 356.813C189.177 354.632 180.977 352.201 172.623 349.515C149.34 342.037 128.135 333.645 110.615 325.317Z" fill="#08A4CA"/>
<path d="M524.879 316.689C524.253 314.092 523.491 311.53 522.595 309.013C517.964 296.035 509.073 284.112 496.6 278.246C484.126 272.381 467.962 273.634 458.041 283.203C447.756 293.124 446.169 308.726 444.186 322.862C443.24 329.623 442.056 336.371 440.592 343.062C436.063 363.793 428.892 383.942 418.044 402.051C430.952 397.848 444.909 392.597 459.301 386.418C486.615 374.693 510.474 361.778 527.252 350.201L527.655 349.791C527.942 338.712 527.482 327.454 524.879 316.689Z" fill="#006C8F"/>
<path d="M480.558 274.687C486.1 274.683 491.577 275.895 496.6 278.237C509.073 284.103 517.964 296.026 522.595 309.005C523.491 311.521 524.253 314.083 524.879 316.68C527.482 327.42 527.943 338.678 527.655 349.77L527.252 350.179C510.461 361.757 486.615 374.671 459.302 386.396C444.916 392.575 430.953 397.827 418.044 402.029C428.919 383.921 436.063 363.772 440.592 343.04C442.057 336.35 443.24 329.608 444.187 322.84C446.17 308.685 447.756 293.084 458.042 283.182C464.01 277.425 472.236 274.675 480.558 274.675V274.687ZM480.558 270.197C470.56 270.197 461.458 273.664 454.933 279.958C444.136 290.372 441.993 305.973 440.1 319.732L439.741 322.252C438.788 329.045 437.599 335.729 436.204 342.081C431.439 363.912 424.051 383.307 414.187 399.726C413.78 400.406 413.56 401.181 413.55 401.973C413.54 402.765 413.741 403.545 414.131 404.235C414.521 404.924 415.087 405.498 415.771 405.897C416.455 406.296 417.233 406.506 418.025 406.507C418.495 406.508 418.962 406.432 419.407 406.283C432.84 401.908 446.867 396.598 461.048 390.515C487.664 379.085 512.067 366.074 529.779 353.863C530.023 353.694 530.25 353.502 530.457 353.288L530.86 352.872C531.633 352.067 532.078 351.001 532.107 349.885C532.465 336.132 531.544 325.252 529.216 315.625C528.549 312.866 527.74 310.144 526.792 307.469C521.342 292.201 511.031 280.054 498.487 274.15C492.866 271.53 486.74 270.174 480.538 270.178L480.558 270.197Z" fill="#323544"/>
<path d="M524.88 316.686C524.254 314.089 523.492 311.527 522.596 309.01C517.965 296.032 509.068 284.109 496.601 278.243C495.482 277.713 494.335 277.244 493.166 276.836C502.997 283.232 510.136 293.614 514.114 304.77C515.01 307.286 515.772 309.848 516.398 312.445L516.475 312.765C518.548 321.648 517.674 330.964 513.986 339.307C510.298 347.65 503.996 354.566 496.031 359.012C482.228 366.796 464.727 376.206 450.795 382.187C441.258 386.28 431.919 389.958 422.945 393.201C421.393 396.186 419.751 399.139 418.02 402.06C430.928 397.858 444.885 392.606 459.277 386.427C486.59 374.703 510.449 361.788 527.227 350.21L527.63 349.801C527.944 338.709 527.483 327.452 524.88 316.686Z" fill="#08A4CA"/>
<path d="M220.29 222.794C192.094 226.293 162.76 213.839 144.121 222.794C125.481 231.749 129.952 260.073 154.553 259.331C176.026 258.691 204.305 259.734 216.599 263.975C217.553 260.534 218.416 257.06 219.12 253.536C221.226 243.426 221.622 233.035 220.29 222.794Z" fill="#08A4CA"/>
<path d="M183.951 154.92C162.939 153.641 131.071 162.884 115.119 171.762C108.082 175.677 96.2616 182.975 88.573 185.374C80.8844 187.773 70.9378 185.828 67.5476 178.523C65.5583 174.231 66.3451 169.012 68.7054 164.911C71.0657 160.811 74.8333 157.683 78.8247 155.138C88.9047 148.743 100.681 145.541 112.611 145.952C115.809 146.074 120.153 145.639 120.632 142.46C121.003 140.01 118.47 138.084 116.078 137.432C113.686 136.78 111.012 136.722 109.042 135.225C106.522 133.306 106.055 129.468 107.372 126.59C108.69 123.711 111.357 121.588 114.268 120.353C151.259 104.682 183.951 154.92 183.951 154.92Z" fill="#006C8F"/>
<path d="M82.1311 188.566C75.2805 188.566 68.4042 185.694 65.5002 179.464C63.3254 174.775 63.7923 168.916 66.7475 163.792C68.9671 159.954 72.5044 156.494 77.6216 153.251C88.0908 146.621 100.315 143.299 112.7 143.72C115.22 143.816 118.227 143.451 118.425 142.121C118.578 141.142 116.999 140.004 115.495 139.594C114.856 139.428 114.216 139.3 113.525 139.166C111.638 138.801 109.502 138.385 107.685 137.004C104.487 134.579 103.489 129.705 105.331 125.656C106.77 122.503 109.636 119.899 113.397 118.287C129.331 111.539 146.966 115.595 164.403 130.038C172.588 136.916 179.798 144.879 185.831 153.705C186.057 154.053 186.182 154.456 186.192 154.871C186.202 155.285 186.097 155.694 185.888 156.053C185.679 156.411 185.375 156.704 185.009 156.899C184.643 157.095 184.23 157.185 183.817 157.159C163.712 155.931 132.069 164.899 116.205 173.713C114.798 174.5 113.193 175.421 111.472 176.406C104.41 180.442 95.6086 185.521 89.2121 187.511C86.9174 188.212 84.5308 188.568 82.1311 188.566ZM110.493 148.153C99.7038 148.174 89.1409 151.25 80.0267 157.025C75.5491 159.871 72.498 162.82 70.643 166.025C68.449 169.863 68.0396 174.263 69.5812 177.583C72.4596 183.794 81.1589 185.336 87.9072 183.231C93.8112 181.395 102.37 176.477 109.246 172.53C110.986 171.526 112.604 170.611 114.024 169.805C129.593 161.144 158.506 152.662 179.518 152.534C174.256 145.498 168.209 139.086 161.493 133.422C145.226 119.989 129.644 116.279 115.169 122.413C112.444 123.571 110.404 125.381 109.412 127.53C108.574 129.373 108.709 132.168 110.404 133.454C111.389 134.202 112.841 134.483 114.376 134.778C115.124 134.925 115.898 135.072 116.672 135.283C120.171 136.236 123.421 139.121 122.858 142.805C122.538 144.955 120.772 148.517 112.54 148.204C111.854 148.17 111.171 148.153 110.493 148.153Z" fill="#323544"/>
<path d="M167.25 214.597C166.7 214.598 166.169 214.395 165.759 214.029C165.349 213.663 165.087 213.159 165.025 212.613C164.962 212.067 165.103 211.516 165.42 211.067C165.737 210.618 166.209 210.301 166.745 210.177L176.435 207.939C177.014 207.805 177.622 207.906 178.126 208.22C178.629 208.534 178.988 209.036 179.122 209.615C179.256 210.193 179.155 210.801 178.84 211.305C178.526 211.809 178.024 212.167 177.446 212.301L167.755 214.54C167.589 214.578 167.42 214.597 167.25 214.597Z" fill="#323544"/>
<path d="M225.381 219.817C225.035 219.816 224.693 219.735 224.383 219.58L212.454 213.612C212.186 213.484 211.946 213.304 211.748 213.082C211.55 212.86 211.398 212.6 211.302 212.319C211.205 212.038 211.166 211.74 211.186 211.444C211.205 211.147 211.284 210.857 211.417 210.591C211.55 210.325 211.735 210.088 211.96 209.894C212.186 209.701 212.447 209.554 212.73 209.462C213.013 209.371 213.312 209.336 213.608 209.361C213.904 209.386 214.193 209.47 214.456 209.608L226.386 215.57C226.835 215.797 227.194 216.17 227.406 216.627C227.618 217.083 227.67 217.598 227.555 218.088C227.439 218.578 227.161 219.015 226.767 219.329C226.373 219.642 225.885 219.814 225.381 219.817Z" fill="#323544"/>
<path d="M173.57 242.552C176.039 242.552 178.041 240.55 178.041 238.081C178.041 235.611 176.039 233.609 173.57 233.609C171.1 233.609 169.099 235.611 169.099 238.081C169.099 240.55 171.1 242.552 173.57 242.552Z" fill="#323544"/>
<path d="M213.081 243.296C215.55 243.296 217.552 241.294 217.552 238.825C217.552 236.355 215.55 234.354 213.081 234.354C210.612 234.354 208.61 236.355 208.61 238.825C208.61 241.294 210.612 243.296 213.081 243.296Z" fill="#323544"/>
<path d="M488.449 183.961C494.306 183.961 499.055 179.213 499.055 173.355C499.055 167.498 494.306 162.75 488.449 162.75C482.592 162.75 477.844 167.498 477.844 173.355C477.844 179.213 482.592 183.961 488.449 183.961Z" fill="#111217"/>
<path d="M488.45 162.749C490.547 162.749 492.598 163.371 494.342 164.536C496.086 165.702 497.445 167.358 498.248 169.296C499.051 171.234 499.261 173.366 498.851 175.423C498.442 177.481 497.432 179.37 495.949 180.854C494.466 182.337 492.576 183.347 490.519 183.756C488.461 184.165 486.329 183.955 484.391 183.153C482.453 182.35 480.797 180.991 479.632 179.247C478.466 177.502 477.844 175.452 477.844 173.354C477.844 170.542 478.962 167.844 480.951 165.855C482.939 163.866 485.637 162.749 488.45 162.749ZM488.45 158.271C485.467 158.271 482.55 159.156 480.07 160.813C477.59 162.471 475.656 164.826 474.515 167.582C473.373 170.339 473.075 173.371 473.657 176.297C474.238 179.223 475.675 181.91 477.784 184.02C479.894 186.129 482.581 187.566 485.507 188.148C488.433 188.73 491.466 188.431 494.222 187.289C496.978 186.148 499.333 184.215 500.991 181.734C502.648 179.254 503.533 176.338 503.533 173.354C503.528 169.356 501.937 165.522 499.109 162.695C496.282 159.867 492.448 158.277 488.45 158.271Z" fill="#323544"/>
<path d="M218.077 95.9589C223.934 95.9589 228.683 91.2107 228.683 85.3535C228.683 79.4963 223.934 74.748 218.077 74.748C212.22 74.748 207.472 79.4963 207.472 85.3535C207.472 91.2107 212.22 95.9589 218.077 95.9589Z" fill="#111217"/>
<path d="M218.076 74.7471C220.174 74.7458 222.225 75.3668 223.97 76.5313C225.715 77.6959 227.075 79.3518 227.879 81.2896C228.683 83.2274 228.894 85.3599 228.485 87.4176C228.077 89.4753 227.067 91.3656 225.584 92.8494C224.101 94.3333 222.212 95.344 220.154 95.7537C218.097 96.1634 215.964 95.9538 214.026 95.1513C212.087 94.3488 210.431 92.9895 209.265 91.2453C208.099 89.5011 207.477 87.4504 207.477 85.3525C207.477 82.5409 208.594 79.8444 210.581 77.8556C212.569 75.8669 215.265 74.7488 218.076 74.7471ZM218.076 70.2696C215.092 70.2645 212.173 71.1448 209.69 72.7991C207.206 74.4533 205.269 76.8072 204.123 79.5628C202.978 82.3184 202.675 85.3519 203.254 88.2794C203.834 91.2069 205.268 93.8968 207.376 96.0087C209.485 98.1207 212.172 99.5598 215.099 100.144C218.025 100.728 221.059 100.431 223.817 99.2898C226.574 98.149 228.932 96.2158 230.59 93.7348C232.248 91.2539 233.134 88.3368 233.134 85.3525C233.13 81.3533 231.54 77.5189 228.712 74.691C225.884 71.8631 222.05 70.2729 218.051 70.2696H218.076Z" fill="#323544"/>
<path d="M255.893 376.343C254.19 376.347 252.525 375.846 251.108 374.903C249.69 373.96 248.585 372.617 247.93 371.046C247.276 369.474 247.103 367.744 247.433 366.073C247.763 364.403 248.581 362.868 249.783 361.663C250.986 360.458 252.518 359.637 254.188 359.303C255.857 358.97 257.588 359.139 259.161 359.79C260.734 360.44 262.079 361.543 263.025 362.958C263.972 364.374 264.477 366.038 264.477 367.74C264.475 370.018 263.571 372.202 261.962 373.815C260.353 375.427 258.17 376.337 255.893 376.343ZM255.893 363.621C255.076 363.621 254.278 363.863 253.6 364.316C252.921 364.77 252.392 365.415 252.08 366.169C251.768 366.923 251.687 367.753 251.847 368.554C252.006 369.354 252.4 370.089 252.977 370.666C253.555 371.243 254.291 371.635 255.092 371.794C255.892 371.952 256.722 371.87 257.476 371.556C258.23 371.243 258.873 370.713 259.326 370.034C259.779 369.355 260.02 368.556 260.018 367.74C260.017 366.647 259.581 365.599 258.808 364.827C258.034 364.054 256.986 363.621 255.893 363.621Z" fill="#323544"/>
</svg>
