<svg width="600" height="451" viewBox="0 0 600 451" fill="none" xmlns="http://www.w3.org/2000/svg">
<path d="M271.745 388.909C276.526 374.045 223.47 343.682 153.24 321.094C83.0097 298.505 22.2013 292.243 17.4202 307.107C12.6391 321.972 65.6959 352.334 135.926 374.923C206.156 397.512 266.964 403.774 271.745 388.909Z" fill="#F0F0F0"/>
<path d="M2.78887 304C2.55627 304.002 2.32498 303.965 2.10444 303.892C1.82435 303.802 1.56465 303.658 1.34027 303.468C1.11589 303.279 0.93124 303.046 0.796919 302.785C0.662598 302.523 0.581256 302.238 0.557558 301.945C0.53386 301.652 0.568275 301.357 0.658828 301.077C3.90186 290.977 18.2109 285.342 42.0059 284.804C42.2999 284.798 42.5923 284.849 42.8665 284.955C43.1407 285.061 43.3913 285.221 43.6039 285.424C43.8166 285.627 43.9871 285.87 44.1058 286.139C44.2246 286.408 44.2891 286.698 44.2958 286.992C44.3026 287.286 44.2513 287.578 44.145 287.853C44.0387 288.127 43.8794 288.377 43.6763 288.59C43.4732 288.803 43.2301 288.973 42.9611 289.092C42.692 289.211 42.4022 289.275 42.1082 289.282C20.6991 289.768 7.49031 294.45 4.91891 302.446C4.77492 302.898 4.49086 303.292 4.1079 303.571C3.72494 303.851 3.26295 304.001 2.78887 304Z" fill="#F0F0F0"/>
<path d="M47.1935 353.267C46.738 353.272 46.2917 353.138 45.9142 352.883L37.6435 347.254C37.1773 346.91 36.8626 346.399 36.7655 345.828C36.6683 345.256 36.7964 344.67 37.1227 344.191C37.449 343.712 37.9481 343.379 38.5152 343.261C39.0823 343.142 39.6732 343.248 40.1638 343.557L48.4344 349.179C48.8306 349.45 49.1293 349.84 49.2867 350.294C49.444 350.747 49.4515 351.239 49.3082 351.697C49.1649 352.154 48.8783 352.554 48.4907 352.837C48.1031 353.119 47.6349 353.27 47.1551 353.267H47.1935Z" fill="#F0F0F0"/>
<path d="M28.4901 340.614C28.0297 340.607 27.5828 340.457 27.2108 340.185C6.46692 325.147 -2.70568 311.619 0.690866 301.077C0.772425 300.788 0.911515 300.517 1.09983 300.283C1.28814 300.048 1.52181 299.854 1.78688 299.712C2.05196 299.569 2.34299 299.482 2.6426 299.455C2.94222 299.427 3.24426 299.461 3.53069 299.553C3.81712 299.645 4.08206 299.793 4.30969 299.99C4.53732 300.187 4.72296 300.428 4.85553 300.698C4.9881 300.968 5.06487 301.262 5.08126 301.562C5.09766 301.862 5.05334 302.163 4.95094 302.446C2.28999 310.761 11.3475 323.164 29.8398 336.565C30.222 336.843 30.5063 337.235 30.6521 337.685C30.7979 338.134 30.7976 338.619 30.6514 339.068C30.5051 339.518 30.2203 339.909 29.8378 340.187C29.4553 340.465 28.9948 340.614 28.5221 340.614H28.4901Z" fill="#F0F0F0"/>
<path d="M232.098 410.796H231.931C203.454 408.711 168.427 401.336 133.303 390.04C133.023 389.95 132.764 389.806 132.539 389.615C132.315 389.425 132.13 389.192 131.995 388.931C131.861 388.669 131.779 388.384 131.755 388.09C131.731 387.797 131.765 387.502 131.855 387.222C131.944 386.942 132.089 386.682 132.279 386.458C132.469 386.233 132.702 386.049 132.963 385.914C133.225 385.779 133.511 385.698 133.804 385.674C134.097 385.649 134.392 385.683 134.672 385.773C169.469 396.967 204.126 404.272 232.257 406.332C232.551 406.342 232.84 406.41 233.108 406.533C233.376 406.655 233.617 406.828 233.817 407.044C234.018 407.259 234.174 407.512 234.276 407.787C234.379 408.063 234.427 408.356 234.416 408.65C234.406 408.944 234.337 409.233 234.215 409.501C234.093 409.769 233.919 410.009 233.704 410.21C233.489 410.41 233.236 410.566 232.96 410.669C232.685 410.772 232.392 410.82 232.098 410.809V410.796Z" fill="#F0F0F0"/>
<path d="M247.692 411.404H245.178C244.585 411.397 244.018 411.153 243.604 410.728C243.189 410.303 242.961 409.73 242.968 409.137C242.976 408.543 243.219 407.976 243.644 407.562C244.07 407.148 244.642 406.919 245.236 406.927C250.27 406.997 254.997 406.856 259.308 406.511C259.902 406.462 260.491 406.652 260.945 407.038C261.399 407.423 261.681 407.974 261.729 408.567C261.778 409.161 261.588 409.75 261.203 410.204C260.817 410.658 260.267 410.94 259.673 410.988C255.944 411.251 251.933 411.404 247.692 411.404Z" fill="#F0F0F0"/>
<path d="M478.636 397.197C545.663 367.565 594.915 332.041 588.643 317.854C582.371 303.667 522.95 316.187 455.922 345.82C388.894 375.453 339.642 410.976 345.914 425.163C352.187 439.351 411.608 426.83 478.636 397.197Z" fill="#F0F0F0"/>
<path d="M357.955 443.655H357.866C343.307 443.016 334.308 439.018 331.116 431.796C325.96 420.142 337.679 402.417 364.109 381.903C364.578 381.539 365.173 381.375 365.762 381.449C366.352 381.523 366.888 381.828 367.253 382.297C367.618 382.766 367.781 383.361 367.707 383.95C367.633 384.54 367.328 385.076 366.859 385.441C342.924 404.035 331.097 420.698 335.209 430.012C337.627 435.474 345.527 438.647 358.064 439.203C358.658 439.216 359.222 439.464 359.633 439.893C360.044 440.322 360.268 440.896 360.255 441.49C360.242 442.084 359.994 442.648 359.565 443.059C359.137 443.47 358.562 443.694 357.968 443.681L357.955 443.655Z" fill="#F0F0F0"/>
<path d="M378.731 376.223C378.253 376.225 377.787 376.074 377.402 375.791C377.016 375.509 376.731 375.11 376.588 374.654C376.445 374.198 376.452 373.708 376.607 373.256C376.763 372.804 377.059 372.414 377.452 372.143C383.804 367.78 390.693 363.379 397.921 359.062C398.427 358.8 399.014 358.742 399.563 358.898C400.111 359.054 400.579 359.414 400.871 359.904C401.163 360.393 401.257 360.976 401.134 361.532C401.012 362.089 400.681 362.578 400.211 362.9C393.047 367.166 386.234 371.509 379.966 375.821C379.602 376.072 379.173 376.212 378.731 376.223Z" fill="#F0F0F0"/>
<path d="M423.974 432.954C423.434 432.957 422.911 432.765 422.501 432.413C422.092 432.061 421.823 431.573 421.745 431.038C421.668 430.504 421.785 429.959 422.077 429.505C422.369 429.051 422.816 428.717 423.334 428.566C444.257 422.406 464.745 414.858 484.664 405.974C504.558 397.253 523.852 387.223 542.418 375.948C542.67 375.795 542.95 375.693 543.241 375.648C543.533 375.602 543.83 375.615 544.117 375.685C544.403 375.755 544.673 375.88 544.912 376.054C545.15 376.229 545.351 376.448 545.504 376.7C545.658 376.952 545.76 377.232 545.805 377.523C545.85 377.815 545.838 378.112 545.768 378.399C545.698 378.685 545.572 378.955 545.398 379.193C545.224 379.431 545.005 379.633 544.753 379.786C526.021 391.158 506.556 401.276 486.487 410.074C466.387 419.036 445.712 426.65 424.601 432.864C424.397 432.925 424.186 432.955 423.974 432.954V432.954Z" fill="#F0F0F0"/>
<path d="M530.252 283.71C537.596 283.71 543.55 277.757 543.55 270.412C543.55 263.068 537.596 257.114 530.252 257.114C522.907 257.114 516.954 263.068 516.954 270.412C516.954 277.757 522.907 283.71 530.252 283.71Z" fill="#F0F0F0"/>
<path d="M98.2632 407.317C101.146 407.317 103.483 404.98 103.483 402.098C103.483 399.215 101.146 396.878 98.2632 396.878C95.3806 396.878 93.0437 399.215 93.0437 402.098C93.0437 404.98 95.3806 407.317 98.2632 407.317Z" fill="#F0F0F0"/>
<path d="M568.541 300.706C571.742 300.706 574.337 298.112 574.337 294.911C574.337 291.71 571.742 289.116 568.541 289.116C565.341 289.116 562.746 291.71 562.746 294.911C562.746 298.112 565.341 300.706 568.541 300.706Z" fill="#F0F0F0"/>
<path d="M34.1447 251.498C38.6736 251.498 42.345 247.826 42.345 243.298C42.345 238.769 38.6736 235.097 34.1447 235.097C29.6158 235.097 25.9443 238.769 25.9443 243.298C25.9443 247.826 29.6158 251.498 34.1447 251.498Z" fill="#F0F0F0"/>
<path d="M552.185 374.688C551.702 374.69 551.23 374.535 550.842 374.246C550.454 373.957 550.17 373.55 550.032 373.086C549.894 372.622 549.911 372.126 550.079 371.672C550.247 371.219 550.557 370.832 550.964 370.569C555.972 367.313 560.763 364.019 565.202 360.776C565.682 360.426 566.282 360.28 566.869 360.372C567.456 360.464 567.983 360.785 568.333 361.265C568.684 361.745 568.829 362.345 568.737 362.932C568.645 363.519 568.324 364.046 567.844 364.396C563.367 367.684 558.48 371.023 553.401 374.324C553.039 374.56 552.617 374.686 552.185 374.688V374.688Z" fill="#F0F0F0"/>
<path d="M172.45 297.527C172.45 304.004 175.023 310.216 179.603 314.796C184.183 319.376 190.395 321.949 196.872 321.949H458.931C465.408 321.949 471.62 319.376 476.2 314.796C480.78 310.216 483.353 304.004 483.353 297.527V123.631H172.482L172.45 297.527Z" fill="white"/>
<path d="M259.475 321.949H458.931C465.408 321.949 471.62 319.376 476.2 314.796C480.78 310.216 483.353 304.004 483.353 297.527V123.631H172.482V297.527C172.482 304.004 175.055 310.216 179.635 314.796C184.215 319.376 190.427 321.949 196.904 321.949" fill="white"/>
<path d="M458.931 324.194H259.475C258.881 324.194 258.312 323.958 257.892 323.538C257.472 323.118 257.236 322.549 257.236 321.955C257.236 321.362 257.472 320.792 257.892 320.372C258.312 319.952 258.881 319.716 259.475 319.716H458.931C464.813 319.71 470.453 317.37 474.611 313.209C478.77 309.049 481.109 303.409 481.114 297.527V125.87H174.721V297.527C174.726 303.409 177.065 309.049 181.223 313.209C185.382 317.37 191.022 319.71 196.904 319.716C197.498 319.716 198.067 319.952 198.487 320.372C198.907 320.792 199.143 321.362 199.143 321.955C199.143 322.549 198.907 323.118 198.487 323.538C198.067 323.958 197.498 324.194 196.904 324.194C189.835 324.186 183.057 321.373 178.059 316.374C173.061 311.374 170.25 304.596 170.243 297.527V123.631C170.243 123.038 170.479 122.468 170.899 122.048C171.319 121.628 171.888 121.393 172.482 121.393H483.353C483.947 121.393 484.516 121.628 484.936 122.048C485.356 122.468 485.592 123.038 485.592 123.631V297.527C485.585 304.596 482.774 311.374 477.776 316.374C472.778 321.373 466 324.186 458.931 324.194Z" fill="#4C3133"/>
<path d="M244.955 324.194L230.447 324.028C229.854 324.028 229.284 323.792 228.864 323.372C228.444 322.952 228.209 322.383 228.209 321.789C228.209 321.195 228.444 320.626 228.864 320.206C229.284 319.786 229.854 319.55 230.447 319.55V319.55L244.955 319.717C245.548 319.717 246.118 319.952 246.538 320.372C246.958 320.792 247.193 321.362 247.193 321.955C247.193 322.549 246.958 323.119 246.538 323.538C246.118 323.958 245.548 324.194 244.955 324.194Z" fill="#4C3133"/>
<path d="M458.931 91.5723H196.872C190.395 91.5723 184.183 94.1453 179.603 98.7253C175.023 103.305 172.45 109.517 172.45 115.994V123.632H483.321V115.994C483.321 109.523 480.752 103.316 476.179 98.7366C471.606 94.1575 465.402 91.5807 458.931 91.5723V91.5723Z" fill="white"/>
<path d="M483.346 125.87H172.476C171.882 125.87 171.313 125.635 170.893 125.215C170.473 124.795 170.237 124.225 170.237 123.632V115.994C170.245 108.926 173.057 102.15 178.055 97.1516C183.053 92.1535 189.829 89.342 196.898 89.3335H458.931C465.999 89.342 472.775 92.1535 477.773 97.1516C482.771 102.15 485.583 108.926 485.591 115.994V123.632C485.592 123.926 485.535 124.218 485.422 124.491C485.31 124.763 485.144 125.011 484.935 125.219C484.727 125.427 484.479 125.592 484.206 125.704C483.933 125.815 483.641 125.872 483.346 125.87ZM174.689 121.393H481.082V115.994C481.075 110.118 478.74 104.485 474.588 100.327C470.437 96.1693 464.807 93.8263 458.931 93.8111H196.872C190.991 93.8178 185.352 96.1571 181.194 100.316C177.035 104.474 174.696 110.113 174.689 115.994V121.393Z" fill="#4C3133"/>
<path d="M420.718 116.18H408.795C408.201 116.18 407.632 115.944 407.212 115.524C406.792 115.104 406.556 114.535 406.556 113.941C406.556 113.347 406.792 112.778 407.212 112.358C407.632 111.938 408.201 111.702 408.795 111.702H420.718C421.312 111.702 421.881 111.938 422.301 112.358C422.721 112.778 422.957 113.347 422.957 113.941C422.957 114.535 422.721 115.104 422.301 115.524C421.881 115.944 421.312 116.18 420.718 116.18V116.18Z" fill="#4C3133"/>
<path d="M443.087 102.011H431.157V113.941H443.087V102.011Z" fill="#FFD900"/>
<path d="M443.087 116.18H431.157C430.563 116.18 429.994 115.944 429.574 115.524C429.154 115.104 428.918 114.534 428.918 113.941V102.011C428.918 101.417 429.154 100.848 429.574 100.428C429.994 100.008 430.563 99.7725 431.157 99.7725H443.087C443.68 99.7725 444.25 100.008 444.67 100.428C445.09 100.848 445.325 101.417 445.325 102.011V113.915C445.329 114.211 445.273 114.505 445.162 114.78C445.051 115.054 444.887 115.304 444.679 115.515C444.471 115.725 444.223 115.893 443.949 116.007C443.676 116.121 443.383 116.18 443.087 116.18V116.18ZM433.396 111.702H440.848V104.25H433.396V111.702Z" fill="#4C3133"/>
<path d="M466.197 116.18C465.905 116.183 465.614 116.128 465.343 116.018C465.072 115.908 464.825 115.746 464.617 115.54L452.688 103.617C452.268 103.193 452.034 102.619 452.037 102.023C452.04 101.426 452.28 100.855 452.704 100.435C453.128 100.015 453.701 99.7807 454.298 99.7837C454.895 99.7867 455.466 100.027 455.886 100.451L467.816 112.374C468.131 112.688 468.347 113.088 468.434 113.524C468.522 113.96 468.478 114.413 468.308 114.824C468.138 115.236 467.85 115.587 467.48 115.834C467.109 116.081 466.674 116.213 466.229 116.212L466.197 116.18Z" fill="#4C3133"/>
<path d="M454.268 116.18C453.975 116.183 453.685 116.128 453.414 116.018C453.143 115.908 452.896 115.746 452.688 115.54C452.479 115.333 452.314 115.086 452.201 114.814C452.088 114.543 452.029 114.251 452.029 113.957C452.029 113.663 452.088 113.371 452.201 113.1C452.314 112.828 452.479 112.581 452.688 112.374L464.617 100.451C464.825 100.241 465.073 100.074 465.345 99.9593C465.617 99.8449 465.91 99.7852 466.205 99.7837C466.501 99.7822 466.794 99.839 467.067 99.9507C467.341 100.062 467.59 100.227 467.8 100.435C468.01 100.643 468.177 100.89 468.291 101.162C468.406 101.435 468.465 101.727 468.467 102.023C468.468 102.318 468.411 102.611 468.3 102.885C468.188 103.158 468.024 103.407 467.816 103.617L455.886 115.54C455.673 115.75 455.42 115.915 455.142 116.025C454.864 116.135 454.567 116.188 454.268 116.18V116.18Z" fill="#4C3133"/>
<path d="M245.818 151.961H205.693C199.274 151.961 194.07 157.165 194.07 163.584V203.709C194.07 210.128 199.274 215.332 205.693 215.332H245.818C252.237 215.332 257.441 210.128 257.441 203.709V163.584C257.441 157.165 252.237 151.961 245.818 151.961Z" fill="#F0F0F0"/>
<path d="M461.31 285.79H345.834C340.457 285.79 336.099 290.148 336.099 295.525V296.932C336.099 302.309 340.457 306.668 345.834 306.668H461.31C466.687 306.668 471.046 302.309 471.046 296.932V295.525C471.046 290.148 466.687 285.79 461.31 285.79Z" fill="#F0F0F0"/>
<path d="M461.31 249.259H345.834C340.457 249.259 336.099 253.618 336.099 258.995V260.402C336.099 265.779 340.457 270.137 345.834 270.137H461.31C466.687 270.137 471.046 265.779 471.046 260.402V258.995C471.046 253.618 466.687 249.259 461.31 249.259Z" fill="#F0F0F0"/>
<path d="M461.31 212.729H345.834C340.457 212.729 336.099 217.087 336.099 222.464V223.871C336.099 229.248 340.457 233.607 345.834 233.607H461.31C466.687 233.607 471.046 229.248 471.046 223.871V222.464C471.046 217.087 466.687 212.729 461.31 212.729Z" fill="#F0F0F0"/>
<path d="M130.969 52.6367C130.969 52.6367 124.393 40.4002 136.547 30.5943C148.7 20.7885 167.985 27.5176 167.985 27.5176C167.985 27.5176 169.38 42.6901 159.44 45.5942C159.44 45.5942 157.15 40.7968 152.775 43.624C148.399 46.4513 154.387 49.253 154.387 49.253C154.387 49.253 146.372 59.9287 130.969 52.6367Z" fill="#E2E2E0"/>
<path d="M141.222 57.4085C137.328 57.3413 133.499 56.4014 130.016 54.658C129.581 54.4545 129.224 54.1156 128.999 53.6922C128.922 53.5514 121.726 39.6966 135.152 28.8545C148.105 18.3834 167.902 25.1125 168.74 25.4004C169.146 25.5449 169.501 25.8023 169.765 26.1423C170.03 26.4823 170.191 26.8907 170.231 27.3193C170.295 28.0102 171.657 44.3724 160.079 47.7498C159.569 47.8989 159.023 47.8618 158.538 47.645C158.052 47.4282 157.66 47.0459 157.431 46.5664C157.085 45.8769 156.508 45.3311 155.8 45.0249C155.483 44.9787 155.16 44.998 154.851 45.0816C154.542 45.1652 154.253 45.3113 154.003 45.511C153.826 45.6226 153.661 45.7511 153.51 45.8948C154.035 46.4488 154.657 46.9019 155.346 47.2317C155.647 47.3734 155.912 47.5802 156.123 47.8371C156.334 48.094 156.486 48.3946 156.567 48.7171C156.647 49.0397 156.656 49.3761 156.59 49.7022C156.525 50.0283 156.389 50.3358 156.19 50.6026C154.334 52.7492 152.035 54.4687 149.451 55.6435C146.867 56.8182 144.06 57.4203 141.222 57.4085V57.4085ZM132.651 50.9417C142.035 55.0802 148.124 51.8564 150.894 49.5984C149.825 48.73 149.137 47.4796 148.975 46.1123C148.892 44.9417 149.282 43.2402 151.585 41.7499C152.362 41.1868 153.254 40.802 154.197 40.6229C155.14 40.4438 156.111 40.4748 157.041 40.7136C158.309 41.0974 159.438 41.8419 160.29 42.8565C165.35 40.1763 165.862 32.4621 165.836 29.1999C161.32 27.959 147.171 24.9078 137.979 32.3342C128.788 39.7606 131.621 48.4982 132.651 50.9417Z" fill="#B9B9B9"/>
<path d="M121.125 69.4791C120.872 69.4777 120.621 69.4345 120.383 69.3512C119.823 69.154 119.364 68.7432 119.106 68.2086C118.849 67.674 118.813 67.0591 119.007 66.4984C119.391 65.4046 128.704 39.5627 153.9 31.7141C154.461 31.5594 155.059 31.6285 155.569 31.907C156.079 32.1856 156.461 32.6515 156.634 33.2065C156.807 33.7614 156.757 34.3619 156.495 34.8807C156.233 35.3996 155.78 35.7964 155.231 35.987C132.203 43.1575 123.325 67.7329 123.248 67.9696C123.095 68.4108 122.808 68.7933 122.428 69.0639C122.047 69.3345 121.592 69.4796 121.125 69.4791Z" fill="#B9B9B9"/>
<path d="M392.298 14.5452C386.164 19.7072 388.46 30.415 394.71 35.4427C400.959 40.4703 409.46 41.3722 417.443 42.0886L429.232 43.1377C421.21 37.4192 421.895 25.2274 416.624 16.9119C412.025 9.64551 402.437 5.94833 394.147 8.25747" fill="#E2E2E0"/>
<path d="M429.238 45.3767H429.033L417.245 44.3277C409.697 43.6561 400.294 42.8181 393.302 37.1956C391.226 35.4633 389.542 33.3093 388.362 30.8765C387.182 28.4437 386.533 25.7877 386.458 23.0849C386.413 18.9207 387.974 15.2875 390.859 12.8504C391.314 12.4679 391.902 12.2816 392.494 12.3326C393.086 12.3836 393.633 12.6677 394.016 13.1223C394.398 13.577 394.584 14.1649 394.533 14.7569C394.482 15.3489 394.198 15.8964 393.744 16.279C392.801 17.1209 392.059 18.1638 391.573 19.3306C391.087 20.4975 390.869 21.7586 390.936 23.0209C390.992 25.0684 391.482 27.0806 392.374 28.9243C393.266 30.7681 394.54 32.4013 396.11 33.7159C402.046 38.4877 410.695 39.2553 417.641 39.8757L423.564 40.4002C421.274 36.9461 420.065 32.8076 418.882 28.7586C417.795 25.0422 416.675 21.2043 414.731 18.134C410.669 11.7375 402.078 8.39847 394.748 10.4581C394.461 10.5501 394.158 10.5831 393.858 10.5552C393.558 10.5273 393.267 10.4391 393.002 10.2959C392.736 10.1527 392.503 9.95745 392.315 9.7218C392.127 9.48615 391.989 9.21499 391.908 8.92456C391.827 8.63413 391.806 8.33042 391.846 8.03164C391.886 7.73286 391.985 7.44515 392.139 7.18577C392.292 6.92639 392.496 6.70068 392.739 6.52217C392.982 6.34365 393.258 6.21602 393.552 6.1469C398.191 4.92782 403.096 5.19835 407.573 6.92022C412.05 8.6421 415.872 11.7281 418.498 15.7417C420.775 19.3429 421.991 23.4878 423.161 27.4985C424.792 33.0826 426.36 38.3725 430.511 41.3341C430.896 41.6085 431.184 41.9978 431.334 42.4461C431.485 42.8945 431.489 43.3788 431.347 43.8298C431.205 44.2807 430.924 44.6752 430.544 44.9565C430.164 45.2378 429.704 45.3917 429.232 45.3959L429.238 45.3767Z" fill="#B9B9B9"/>
<path d="M411.238 33.1594C410.817 33.161 410.404 33.0411 410.048 32.814C404.779 29.4455 400.246 25.0454 396.721 19.8788C393.197 14.7121 390.755 8.88578 389.541 2.75042C389.472 2.45647 389.463 2.1516 389.515 1.85414C389.567 1.55669 389.679 1.2728 389.843 1.01956C390.007 0.76632 390.221 0.548958 390.472 0.380553C390.723 0.212148 391.005 0.0961819 391.301 0.0396253C391.598 -0.0169314 391.903 -0.0129091 392.198 0.0514548C392.493 0.115819 392.772 0.239198 393.018 0.414157C393.264 0.589117 393.472 0.812042 393.63 1.06953C393.788 1.32702 393.892 1.61375 393.936 1.91247C395.032 7.44299 397.236 12.6947 400.414 17.3521C403.592 22.0094 407.678 25.9764 412.428 29.0145C412.838 29.2733 413.153 29.6581 413.325 30.1113C413.498 30.5644 413.519 31.0614 413.385 31.5273C413.25 31.9933 412.969 32.4031 412.582 32.6951C412.194 32.9871 411.723 33.1456 411.238 33.1466V33.1594Z" fill="#B9B9B9"/>
<path d="M353.83 198.247L341.51 200.703C328.868 203.21 315.747 200.597 305.029 193.441C294.31 186.284 286.869 175.167 284.338 162.529L276.138 121.393C273.631 108.753 276.242 95.634 283.396 84.9157C290.55 74.1975 301.664 66.7549 314.299 64.2211L326.613 61.7648C339.253 59.2585 352.372 61.8688 363.09 69.0231C373.808 76.1774 381.251 87.2914 383.785 99.9264L391.991 141.062C394.501 153.705 391.893 166.827 384.738 177.548C377.584 188.269 366.467 195.714 353.83 198.247ZM317.677 81.191C309.534 82.8216 302.372 87.6166 297.762 94.5232C293.152 101.43 291.471 109.884 293.088 118.029L301.295 159.165C302.926 167.307 307.721 174.469 314.627 179.079C321.534 183.689 329.988 185.37 338.133 183.753L350.446 181.296C358.588 179.666 365.751 174.871 370.361 167.964C374.971 161.058 376.652 152.604 375.034 144.459L366.821 103.323C365.19 95.1834 360.397 88.0232 353.494 83.4135C346.59 78.8038 338.139 77.1212 329.996 78.7348L317.677 81.191Z" fill="#FFD900"/>
<path d="M331.992 203.889C320.235 203.868 308.847 199.779 299.761 192.318C290.675 184.856 284.45 174.48 282.144 162.951L273.944 121.847C271.32 108.625 274.05 94.9017 281.533 83.6893C289.016 72.4769 300.641 64.6909 313.858 62.0397L326.178 59.5835C339.404 56.9565 353.133 59.6845 364.351 67.1689C375.568 74.6532 383.358 86.2824 386.011 99.5041L394.211 140.64C396.832 153.863 394.101 167.586 386.617 178.798C379.133 190.011 367.507 197.796 354.29 200.448V200.448L341.977 202.897C338.69 203.558 335.345 203.89 331.992 203.889V203.889ZM336.118 63.076C333.068 63.0772 330.025 63.3793 327.035 63.9779L314.715 66.4342C302.67 68.8552 292.076 75.9535 285.255 86.173C278.435 96.3925 275.945 108.899 278.332 120.952L286.532 162.088C288.95 174.141 296.051 184.743 306.276 191.568C316.501 198.392 329.016 200.882 341.075 198.49L353.388 196.053L353.83 198.247L353.388 196.053C365.442 193.638 376.045 186.539 382.87 176.314C389.695 166.09 392.184 153.575 389.791 141.516L381.591 100.38C379.48 89.8703 373.798 80.4137 365.51 73.6145C357.222 66.8153 346.838 63.092 336.118 63.076V63.076ZM331.96 186.605C324.209 186.581 316.704 183.879 310.716 178.958C304.727 174.037 300.622 167.199 299.095 159.599L290.894 118.463C289.164 109.736 290.966 100.679 295.905 93.2786C300.845 85.8785 308.518 80.74 317.242 78.9905V78.9905L329.555 76.5342C338.282 74.8055 347.338 76.6084 354.738 81.5475C362.138 86.4866 367.277 94.1588 369.028 102.881L377.235 144.017C378.965 152.745 377.163 161.802 372.223 169.202C367.284 176.602 359.611 181.741 350.887 183.49L338.568 185.947C336.392 186.384 334.179 186.605 331.96 186.605V186.605ZM318.118 83.3849C310.558 84.8997 303.908 89.3516 299.627 95.7637C295.346 102.176 293.784 110.024 295.282 117.587L303.495 158.723C305.01 166.283 309.462 172.933 315.874 177.214C322.286 181.495 330.135 183.057 337.698 181.559L350.017 179.102C357.576 177.585 364.225 173.131 368.504 166.718C372.784 160.305 374.346 152.456 372.846 144.894L364.646 103.758C363.13 96.198 358.677 89.5486 352.263 85.2686C345.85 80.9886 338 79.4278 330.438 80.9287L318.118 83.3849Z" fill="#4C3133"/>
<path d="M385.728 127.53L287.481 147.126C276.225 149.371 268.92 160.316 271.165 171.572L286.366 247.782C288.611 259.038 299.556 266.343 310.812 264.098L409.059 244.502C420.315 242.256 427.62 231.312 425.374 220.056L410.174 143.846C407.929 132.59 396.984 125.285 385.728 127.53Z" fill="#F0F0F0"/>
<path d="M389.81 127.144C394.613 127.15 399.265 128.819 402.977 131.867C406.689 134.915 409.23 139.154 410.17 143.864L425.368 220.098C426.441 225.503 425.323 231.112 422.261 235.693C419.198 240.274 414.442 243.451 409.038 244.526L310.807 264.119C309.46 264.384 308.092 264.519 306.719 264.522C301.917 264.515 297.264 262.846 293.552 259.798C289.841 256.75 287.299 252.511 286.359 247.801L271.161 171.587C270.093 166.183 271.214 160.576 274.279 155.998C277.344 151.421 282.101 148.248 287.504 147.177L385.755 127.585C387.098 127.314 388.465 127.177 389.836 127.176L389.81 127.144ZM389.836 122.698C388.171 122.699 386.511 122.864 384.878 123.191L286.628 142.783C280.059 144.095 274.281 147.962 270.562 153.534C266.844 159.105 265.49 165.926 266.799 172.495L281.997 248.709C282.643 251.964 283.924 255.059 285.768 257.817C287.611 260.576 289.981 262.944 292.74 264.786C295.5 266.628 298.596 267.907 301.851 268.551C305.106 269.195 308.455 269.191 311.709 268.539L409.959 248.946C416.524 247.627 422.299 243.759 426.016 238.189C429.733 232.619 431.09 225.803 429.788 219.234L414.565 142.994C413.417 137.277 410.33 132.132 405.827 128.428C401.323 124.724 395.679 122.689 389.848 122.666L389.836 122.698Z" fill="#4C3133"/>
<path d="M317.165 250.686C314.488 251.22 311.733 251.222 309.055 250.69C306.378 250.159 303.832 249.106 301.561 247.591C299.291 246.076 297.342 244.128 295.824 241.859C294.307 239.591 293.251 237.045 292.717 234.368L277.519 158.16C277.151 156.3 277.036 154.397 277.18 152.506C274.65 154.921 272.771 157.937 271.718 161.273C270.666 164.609 270.474 168.157 271.161 171.587L286.359 247.801C287.439 253.205 290.619 257.959 295.202 261.019C299.785 264.079 305.396 265.194 310.8 264.119L409.038 244.526C413.479 243.632 417.506 241.313 420.508 237.921C423.51 234.529 425.322 230.249 425.669 225.733C422.837 228.458 419.287 230.317 415.435 231.093L317.165 250.686Z" fill="#DEDFDF"/>
<path d="M355.589 187.04L352.467 171.388L336.54 174.586L339.681 190.335C337.451 192.576 336.002 195.475 335.548 198.604C335.095 201.733 335.662 204.925 337.165 207.707C338.668 210.488 341.027 212.712 343.893 214.047C346.759 215.383 349.978 215.76 353.075 215.123C356.172 214.485 358.981 212.867 361.086 210.508C363.191 208.149 364.48 205.174 364.762 202.025C365.044 198.876 364.304 195.72 362.652 193.025C361 190.329 358.523 188.237 355.589 187.06V187.04Z" fill="#4C3133"/>
<path d="M352.467 171.388L355.589 187.041C358.514 188.231 360.978 190.33 362.618 193.029C364.258 195.728 364.985 198.883 364.693 202.028C364.401 205.172 363.105 208.139 360.997 210.49C358.889 212.841 356.08 214.452 352.985 215.083C352.033 215.271 351.065 215.365 350.094 215.364C347.197 215.354 344.368 214.488 341.961 212.875C339.554 211.263 337.677 208.975 336.564 206.3C335.452 203.625 335.155 200.681 335.709 197.837C336.263 194.994 337.645 192.377 339.681 190.316L336.54 174.567L352.467 171.369V171.388ZM352.467 166.892C352.171 166.893 351.875 166.923 351.585 166.981L335.657 170.179C334.494 170.413 333.471 171.098 332.812 172.085C332.154 173.072 331.914 174.28 332.146 175.444L334.838 189.049C332.466 192.155 331.098 195.911 330.918 199.815C330.738 203.72 331.754 207.586 333.832 210.897C335.909 214.208 338.947 216.805 342.541 218.342C346.134 219.879 350.111 220.283 353.94 219.498C357.769 218.713 361.267 216.778 363.966 213.951C366.665 211.124 368.437 207.54 369.044 203.679C369.651 199.818 369.064 195.864 367.363 192.345C365.661 188.826 362.926 185.911 359.523 183.989L356.836 170.518C356.635 169.502 356.088 168.587 355.287 167.93C354.487 167.272 353.484 166.912 352.448 166.911L352.467 166.892Z" fill="#4C3133"/>
<path d="M344.555 177.166L305.562 184.943L311.987 217.155L350.98 209.378L344.555 177.166Z" fill="white"/>
<path d="M311.977 219.407C311.46 219.407 310.959 219.227 310.559 218.9C310.159 218.572 309.885 218.116 309.783 217.609L303.387 185.396C303.272 184.815 303.393 184.211 303.722 183.718C304.052 183.225 304.564 182.883 305.146 182.768L344.164 174.989C344.453 174.932 344.75 174.931 345.039 174.988C345.327 175.046 345.602 175.159 345.847 175.322C346.092 175.486 346.302 175.696 346.465 175.941C346.629 176.185 346.743 176.46 346.8 176.748L353.196 208.955C353.254 209.243 353.254 209.541 353.197 209.829C353.14 210.118 353.027 210.392 352.863 210.637C352.7 210.882 352.49 211.092 352.245 211.256C352 211.419 351.726 211.533 351.437 211.59L312.451 219.368C312.294 219.395 312.136 219.408 311.977 219.407ZM308.19 186.721L313.73 214.539L348.329 207.637L342.789 179.8L308.19 186.721Z" fill="#4C3133"/>
<path d="M287.563 244.943C306.289 241.208 318.29 222.242 314.368 202.581C310.447 182.92 292.088 170.01 273.362 173.745C254.637 177.48 242.636 196.446 246.558 216.106C250.479 235.767 268.838 248.678 287.563 244.943Z" fill="white"/>
<path d="M281.108 247.833C263.76 247.833 248.044 234.976 244.373 216.554C242.335 206.646 244.202 196.334 249.586 187.77C252.165 183.617 255.568 180.036 259.584 177.25C263.601 174.463 268.146 172.529 272.939 171.567C292.839 167.595 312.419 181.322 316.576 202.162C318.613 212.071 316.743 222.383 311.357 230.946C308.78 235.099 305.378 238.68 301.362 241.467C297.347 244.254 292.802 246.187 288.01 247.148C285.737 247.606 283.425 247.835 281.108 247.833V247.833ZM279.828 175.354C277.803 175.353 275.783 175.553 273.796 175.949C269.6 176.796 265.621 178.495 262.106 180.939C258.592 183.384 255.615 186.523 253.36 190.162C248.588 197.754 246.937 206.897 248.754 215.678C251.997 231.969 265.846 243.355 281.095 243.355C283.118 243.356 285.136 243.157 287.12 242.76C291.322 241.918 295.307 240.222 298.827 237.778C302.348 235.335 305.33 232.195 307.589 228.554C312.357 220.958 314.007 211.815 312.195 203.032C308.913 186.74 295.071 175.354 279.828 175.354Z" fill="#4C3133"/>
<path d="M268.251 220.872C273.023 220.872 276.892 217.003 276.892 212.23C276.892 207.457 273.023 203.588 268.251 203.588C263.478 203.588 259.609 207.457 259.609 212.23C259.609 217.003 263.478 220.872 268.251 220.872Z" fill="white"/>
<path d="M268.225 223.117C266.167 223.11 264.154 222.52 262.419 221.415C260.683 220.31 259.297 218.735 258.42 216.874C257.544 215.012 257.214 212.94 257.468 210.899C257.723 208.857 258.551 206.929 259.857 205.34C261.163 203.75 262.894 202.563 264.847 201.918C266.801 201.272 268.897 201.194 270.894 201.693C272.89 202.191 274.704 203.246 276.124 204.734C277.545 206.222 278.514 208.083 278.92 210.1V210.1C279.199 211.501 279.2 212.944 278.922 214.345C278.644 215.746 278.092 217.079 277.298 218.267C276.505 219.455 275.485 220.475 274.296 221.269C273.108 222.063 271.776 222.615 270.374 222.893C269.667 223.04 268.947 223.115 268.225 223.117V223.117ZM268.263 205.846C267.834 205.847 267.405 205.89 266.984 205.974C265.954 206.182 264.992 206.64 264.182 207.309C263.371 207.977 262.738 208.834 262.337 209.805C261.937 210.776 261.782 211.831 261.886 212.876C261.989 213.922 262.349 214.925 262.933 215.798C263.516 216.672 264.306 217.388 265.232 217.883C266.158 218.379 267.192 218.639 268.243 218.64C269.293 218.642 270.328 218.384 271.255 217.891C272.182 217.398 272.974 216.684 273.56 215.812C274.03 215.114 274.357 214.329 274.521 213.503C274.684 212.677 274.682 211.827 274.513 211.002V211.002C274.226 209.551 273.445 208.244 272.303 207.304C271.162 206.364 269.729 205.849 268.251 205.846H268.263Z" fill="#4C3133"/>
<path d="M313.851 202.29C313.297 202.287 312.764 202.079 312.354 201.706C311.945 201.333 311.688 200.821 311.634 200.269C311.58 199.718 311.732 199.166 312.061 198.72C312.39 198.275 312.873 197.967 313.416 197.857L347.318 191.096C347.611 191.026 347.914 191.016 348.211 191.067C348.507 191.117 348.791 191.227 349.044 191.389C349.297 191.552 349.515 191.764 349.684 192.012C349.854 192.26 349.972 192.541 350.031 192.835C350.089 193.13 350.088 193.434 350.027 193.729C349.966 194.023 349.846 194.302 349.675 194.55C349.503 194.797 349.284 195.007 349.03 195.167C348.775 195.328 348.491 195.435 348.194 195.484L314.293 202.245C314.148 202.275 314 202.29 313.851 202.29Z" fill="#4C3133"/>
<path d="M252.714 254.114C247.04 244.596 247.014 237.617 253.04 233.991C259.065 230.364 268.539 243.937 268.539 243.937C268.539 243.937 278.268 241.858 283.724 227.031C283.724 227.031 295.091 216.029 297.022 234.707C297.022 234.707 307.519 231.151 305.069 244.532C305.069 244.532 315.54 242.466 312.316 257.325C309.093 272.184 277.391 295.531 252.714 254.114Z" fill="#C5E6F1"/>
<path d="M284.946 279.675C276.112 279.675 262.846 275.53 250.769 255.266C242.179 240.835 247.769 234.541 251.869 232.072C258.362 228.164 266.441 237.496 269.351 241.289C271.942 240.17 277.794 236.607 281.607 226.257C281.722 225.942 281.908 225.658 282.15 225.426C282.713 224.882 287.773 220.168 292.762 221.985C295.961 223.149 297.969 226.462 298.909 232.065C299.985 231.932 301.077 232.016 302.12 232.313C303.163 232.609 304.135 233.113 304.98 233.793C307.014 235.545 307.89 238.398 307.602 242.281C309.468 242.483 311.211 243.31 312.547 244.628C315.15 247.283 315.803 251.716 314.466 257.799C312.547 266.485 302.459 277.186 289.404 279.317C287.93 279.554 286.439 279.674 284.946 279.675V279.675ZM254.62 252.969C266.959 273.675 279.963 276.323 288.7 274.896C299.575 273.125 308.53 264.138 310.11 256.852C311.056 252.483 310.794 249.259 309.368 247.788C307.941 246.317 305.491 246.726 305.459 246.733C305.102 246.795 304.736 246.771 304.39 246.663C304.044 246.554 303.73 246.363 303.473 246.107C303.217 245.852 303.025 245.538 302.916 245.192C302.806 244.847 302.781 244.48 302.843 244.123C303.483 240.65 303.208 238.187 302.063 237.183C300.617 235.903 297.739 236.818 297.713 236.831C297.393 236.935 297.054 236.966 296.72 236.921C296.387 236.877 296.067 236.758 295.786 236.574C295.504 236.39 295.267 236.145 295.093 235.857C294.918 235.57 294.81 235.247 294.777 234.912C294.265 229.987 292.973 226.801 291.227 226.168C289.481 225.535 286.718 227.37 285.611 228.304C279.752 243.656 269.428 246.003 268.98 246.099C268.549 246.19 268.102 246.153 267.692 245.991C267.283 245.83 266.93 245.552 266.677 245.191C263.332 240.413 257.044 234.151 254.172 235.878C249.419 238.743 249.573 244.487 254.613 252.944L254.62 252.969Z" fill="#4C3133"/>
<path d="M297.022 234.707C297.022 234.707 297.611 244.411 290.082 248.779Z" fill="#C5E6F1"/>
<path d="M290.063 250.999C289.57 251 289.09 250.839 288.698 250.539C288.306 250.24 288.024 249.819 287.896 249.343C287.768 248.867 287.8 248.362 287.988 247.906C288.177 247.45 288.51 247.069 288.937 246.822C295.142 243.234 294.771 234.918 294.764 234.835C294.73 234.241 294.932 233.658 295.327 233.214C295.723 232.769 296.278 232.5 296.872 232.465C297.466 232.43 298.049 232.633 298.494 233.028C298.938 233.424 299.207 233.979 299.242 234.573C299.242 235.021 299.811 245.709 291.189 250.699C290.846 250.896 290.458 251 290.063 250.999V250.999Z" fill="#4C3133"/>
<path d="M305.069 244.532C305.069 244.532 304.922 253.487 297.394 258.573Z" fill="#C5E6F1"/>
<path d="M297.381 260.811C296.899 260.817 296.429 260.667 296.039 260.384C295.649 260.101 295.361 259.7 295.218 259.241C295.074 258.781 295.082 258.287 295.242 257.833C295.401 257.378 295.702 256.987 296.101 256.718C302.6 252.323 302.798 244.564 302.805 244.494C302.814 243.9 303.059 243.334 303.485 242.921C303.912 242.508 304.485 242.281 305.079 242.29C305.673 242.3 306.238 242.544 306.652 242.971C307.065 243.397 307.292 243.971 307.282 244.564C307.282 244.98 307.02 254.741 298.609 260.428C298.247 260.675 297.819 260.808 297.381 260.811Z" fill="#4C3133"/>
<path d="M410.458 202.008C409.937 202.008 409.433 201.826 409.032 201.493C408.631 201.16 408.36 200.697 408.264 200.185L399.309 152.467C399.203 151.885 399.332 151.285 399.667 150.798C400.003 150.31 400.518 149.976 401.099 149.866C401.681 149.757 402.282 149.883 402.771 150.216C403.26 150.548 403.597 151.061 403.71 151.642L412.665 199.36C412.773 199.944 412.646 200.546 412.31 201.036C411.974 201.525 411.457 201.861 410.874 201.97C410.737 201.999 410.598 202.011 410.458 202.008Z" fill="#4C3133"/>
<path d="M413.816 220.277C413.287 220.276 412.775 220.089 412.371 219.747C411.967 219.405 411.697 218.931 411.609 218.409L410.119 209.454C410.059 209.159 410.058 208.855 410.118 208.56C410.178 208.265 410.296 207.985 410.467 207.737C410.637 207.489 410.856 207.277 411.109 207.116C411.363 206.954 411.647 206.845 411.944 206.796C412.241 206.746 412.545 206.757 412.837 206.828C413.13 206.898 413.405 207.027 413.647 207.207C413.889 207.386 414.092 207.612 414.244 207.872C414.396 208.132 414.494 208.42 414.533 208.718L416.023 217.673C416.117 218.256 415.977 218.852 415.633 219.331C415.289 219.811 414.769 220.135 414.187 220.232C414.065 220.259 413.941 220.274 413.816 220.277Z" fill="#4C3133"/>
<path d="M207.547 193.411C198.349 183.215 185.109 178.251 172.06 176.78C151.368 174.509 130.573 180.028 113.73 192.26C94.1693 206.447 80.6279 229.001 73.8092 253.372C70.5882 265.127 68.6579 277.198 68.0523 289.372C67.5109 300.002 67.7246 310.658 68.692 321.258C88.6299 333.91 120.619 348.187 157.763 360.136C173.256 365.119 188.256 369.251 202.187 372.469C194.185 356.279 194.831 336.565 198.989 318.61C199.379 316.953 199.789 315.309 200.23 313.691C205.763 293.357 214.942 274.289 219.119 253.564C223.296 232.839 221.415 208.795 207.547 193.411Z" fill="#C5E6F1"/>
<path d="M162.849 176.23C165.92 176.229 168.989 176.404 172.041 176.755C185.089 178.251 198.33 183.215 207.528 193.386C221.415 208.769 223.296 232.775 219.132 253.513C214.968 274.25 205.776 293.312 200.243 313.64C199.801 315.258 199.392 316.902 199.002 318.559C194.825 336.514 194.179 356.228 202.2 372.418C188.269 369.219 173.269 365.068 157.776 360.085C120.632 348.136 88.6428 333.859 68.7049 321.207C67.7375 310.607 67.5238 299.951 68.0652 289.32C68.6708 277.147 70.6011 265.076 73.8221 253.321C80.6408 228.95 94.1822 206.396 113.743 192.209C128.037 181.851 145.229 176.256 162.881 176.217L162.849 176.23ZM162.881 171.74C144.286 171.806 126.181 177.703 111.114 188.601C91.8411 202.577 77.0651 225.138 69.5364 252.131C66.234 264.2 64.2565 276.593 63.6388 289.09C63.0869 299.932 63.3006 310.799 64.2785 321.61C64.339 322.296 64.5569 322.959 64.9152 323.547C65.2736 324.135 65.7627 324.632 66.3446 325C87.4147 338.375 120.261 352.723 156.446 364.364C171.708 369.27 186.778 373.454 201.221 376.799C202.048 376.991 202.912 376.943 203.713 376.662C204.513 376.382 205.218 375.879 205.744 375.214C206.27 374.548 206.596 373.747 206.685 372.903C206.773 372.059 206.62 371.208 206.243 370.447C197.998 353.772 200.153 333.584 203.409 319.589C203.793 317.951 204.196 316.352 204.612 314.83C206.902 306.412 209.908 298.001 212.818 289.883C216.887 278.491 221.102 266.715 223.571 254.415C225.893 242.831 226.238 231.195 224.562 220.756C222.599 208.488 218 198.279 210.893 190.411C199.482 177.765 183.765 173.588 172.597 172.309C169.376 171.938 166.136 171.752 162.894 171.753L162.881 171.74Z" fill="#4C3133"/>
<path d="M110.615 325.314C101.935 321.212 94.6666 314.628 89.7296 306.395C84.7925 298.162 82.4087 288.649 82.8796 279.06V278.747C83.4783 266.573 85.4088 254.501 88.6364 242.747C94.6492 221.255 105.907 201.17 121.898 187.015C119.082 188.598 116.359 190.34 113.743 192.234C94.1822 206.422 80.6408 228.976 73.8221 253.346C70.6012 265.102 68.6708 277.173 68.0652 289.346C67.5238 299.977 67.7376 310.632 68.7049 321.233C88.6428 333.885 120.632 348.162 157.776 360.111C173.269 365.094 188.269 369.226 202.2 372.443C199.792 367.495 198.093 362.232 197.153 356.81C189.177 354.629 180.976 352.198 172.623 349.512C149.339 342.034 128.135 333.642 110.615 325.314Z" fill="#81C4D4"/>
<path d="M524.879 316.685C524.253 314.088 523.491 311.526 522.595 309.009C517.964 296.03 509.073 284.107 496.6 278.242C484.127 272.376 467.963 273.63 458.042 283.199C447.756 293.12 446.17 308.721 444.187 322.857C443.24 329.619 442.057 336.367 440.592 343.058C436.063 363.789 428.893 383.938 418.044 402.046C430.952 397.844 444.909 392.592 459.302 386.413C486.615 374.688 510.474 361.774 527.252 350.196L527.655 349.787C527.943 338.708 527.482 327.45 524.879 316.685Z" fill="#C5E6F1"/>
<path d="M480.557 274.685C486.1 274.681 491.576 275.893 496.6 278.235C509.073 284.101 517.964 296.024 522.595 309.003C523.491 311.519 524.253 314.081 524.879 316.678C527.482 327.418 527.943 338.676 527.655 349.768L527.252 350.177C510.461 361.755 486.615 374.669 459.302 386.394C444.916 392.573 430.952 397.825 418.044 402.027C428.918 383.919 436.063 363.77 440.592 343.038C442.057 336.348 443.24 329.606 444.187 322.838C446.17 308.683 447.756 293.082 458.041 283.18C464.009 277.423 472.235 274.673 480.557 274.673V274.685ZM480.557 270.195C470.559 270.195 461.457 273.662 454.933 279.956C444.135 290.37 441.993 305.971 440.099 319.73L439.741 322.25C438.788 329.043 437.598 335.727 436.204 342.079C431.438 363.91 424.05 383.305 414.187 399.724C413.78 400.404 413.56 401.179 413.55 401.971C413.54 402.763 413.74 403.543 414.13 404.233C414.521 404.922 415.087 405.496 415.771 405.895C416.455 406.294 417.233 406.504 418.025 406.505C418.495 406.506 418.961 406.43 419.407 406.281C432.839 401.906 446.867 396.596 461.048 390.513C487.664 379.083 512.066 366.072 529.778 353.861C530.023 353.692 530.25 353.5 530.456 353.286L530.859 352.87C531.633 352.065 532.078 350.999 532.107 349.883C532.465 336.13 531.544 325.25 529.216 315.623C528.549 312.865 527.74 310.142 526.791 307.467C521.341 292.199 511.03 280.052 498.487 274.148C492.866 271.528 486.739 270.172 480.538 270.176L480.557 270.195Z" fill="#4C3133"/>
<path d="M524.879 316.685C524.253 314.088 523.491 311.526 522.595 309.009C517.964 296.03 509.066 284.107 496.6 278.242C495.48 277.712 494.334 277.242 493.165 276.834C502.996 283.231 510.135 293.613 514.113 304.768C515.009 307.285 515.771 309.847 516.397 312.444L516.474 312.764C518.547 321.647 517.673 330.963 513.985 339.306C510.297 347.648 503.995 354.565 496.03 359.01C482.227 366.795 464.726 376.204 450.794 382.185C441.257 386.279 431.918 389.957 422.944 393.2C421.392 396.185 419.75 399.138 418.018 402.059C430.927 397.856 444.884 392.605 459.276 386.426C486.589 374.701 510.448 361.787 527.226 350.209L527.629 349.8C527.943 338.708 527.482 327.45 524.879 316.685Z" fill="#81C4D4"/>
<path d="M220.29 222.79C192.094 226.289 162.759 213.835 144.12 222.79C125.48 231.745 129.952 260.069 154.553 259.327C176.026 258.687 204.305 259.73 216.599 263.971C217.552 260.53 218.415 257.056 219.119 253.532C221.225 243.422 221.621 233.031 220.29 222.79V222.79Z" fill="#81C4D4"/>
<path d="M183.951 154.917C162.938 153.637 131.071 162.88 115.118 171.759C108.082 175.673 96.2611 182.972 88.5725 185.37C80.8839 187.769 70.9373 185.825 67.5472 178.52C65.5578 174.228 66.3446 169.008 68.7049 164.908C71.0652 160.808 74.8328 157.68 78.8242 155.134C88.9042 148.739 100.68 145.538 112.611 145.949C115.809 146.07 120.152 145.635 120.632 142.456C121.003 140.006 118.47 138.081 116.078 137.429C113.685 136.776 111.011 136.719 109.041 135.222C106.521 133.303 106.054 129.465 107.372 126.586C108.69 123.708 111.357 121.584 114.267 120.35C151.258 104.678 183.951 154.917 183.951 154.917Z" fill="#C5E6F1"/>
<path d="M82.1311 188.563C75.2805 188.563 68.4042 185.691 65.5002 179.46C63.3254 174.772 63.7923 168.912 66.7475 163.789C68.9671 159.951 72.5044 156.49 77.6216 153.247C88.0908 146.617 100.315 143.296 112.7 143.717C115.22 143.813 118.227 143.448 118.425 142.117C118.578 141.139 116.999 140 115.495 139.591C114.856 139.425 114.216 139.297 113.525 139.162C111.638 138.798 109.502 138.382 107.685 137C104.487 134.576 103.489 129.702 105.331 125.653C106.771 122.499 109.636 119.896 113.397 118.284C129.331 111.536 146.966 115.591 164.403 130.034C172.588 136.913 179.798 144.875 185.831 153.702C186.057 154.049 186.182 154.453 186.192 154.867C186.202 155.282 186.097 155.691 185.888 156.049C185.679 156.407 185.375 156.7 185.009 156.896C184.643 157.091 184.23 157.181 183.817 157.156C163.712 155.928 132.069 164.895 116.205 173.71C114.798 174.497 113.193 175.418 111.472 176.403C104.41 180.439 95.6086 185.518 89.2121 187.507C86.9174 188.209 84.5308 188.565 82.1311 188.563V188.563ZM110.493 148.149C99.7038 148.171 89.1409 151.247 80.0267 157.021C75.5491 159.868 72.498 162.817 70.643 166.021C68.449 169.859 68.0396 174.26 69.5812 177.58C72.4596 183.791 81.1589 185.332 87.9072 183.228C93.8112 181.392 102.37 176.473 109.246 172.526C110.986 171.522 112.604 170.608 114.024 169.802C129.593 161.141 158.506 152.659 179.518 152.531C174.256 145.495 168.209 139.083 161.493 133.418C145.226 119.986 129.644 116.276 115.169 122.41C112.444 123.568 110.404 125.378 109.412 127.527C108.574 129.369 108.709 132.164 110.404 133.45C111.389 134.199 112.841 134.48 114.376 134.774C115.124 134.921 115.898 135.069 116.672 135.28C120.171 136.233 123.421 139.117 122.858 142.802C122.538 144.951 120.772 148.514 112.54 148.201C111.854 148.166 111.171 148.149 110.493 148.149Z" fill="#4C3133"/>
<path d="M167.25 214.596C166.7 214.597 166.169 214.394 165.759 214.029C165.348 213.663 165.087 213.158 165.024 212.612C164.962 212.066 165.103 211.515 165.42 211.066C165.737 210.617 166.209 210.3 166.744 210.176L176.435 207.938C177.013 207.804 177.622 207.905 178.125 208.219C178.629 208.533 178.988 209.035 179.122 209.614C179.256 210.192 179.154 210.8 178.84 211.304C178.526 211.808 178.024 212.166 177.446 212.3L167.755 214.539C167.589 214.577 167.42 214.596 167.25 214.596V214.596Z" fill="#4C3133"/>
<path d="M225.381 219.816C225.035 219.815 224.693 219.734 224.383 219.579L212.454 213.611C212.185 213.483 211.945 213.303 211.748 213.081C211.55 212.859 211.398 212.599 211.302 212.318C211.205 212.037 211.166 211.739 211.185 211.443C211.205 211.146 211.284 210.856 211.417 210.59C211.55 210.324 211.734 210.087 211.96 209.894C212.185 209.7 212.447 209.553 212.73 209.461C213.013 209.37 213.311 209.335 213.608 209.36C213.904 209.386 214.192 209.469 214.456 209.607L226.385 215.569C226.834 215.796 227.194 216.169 227.406 216.626C227.618 217.082 227.67 217.597 227.554 218.087C227.438 218.577 227.161 219.014 226.767 219.328C226.373 219.641 225.885 219.813 225.381 219.816V219.816Z" fill="#4C3133"/>
<path d="M173.569 242.549C176.039 242.549 178.041 240.547 178.041 238.078C178.041 235.609 176.039 233.607 173.569 233.607C171.1 233.607 169.098 235.609 169.098 238.078C169.098 240.547 171.1 242.549 173.569 242.549Z" fill="#4C3133"/>
<path d="M213.081 243.291C215.55 243.291 217.552 241.289 217.552 238.82C217.552 236.35 215.55 234.349 213.081 234.349C210.611 234.349 208.609 236.35 208.609 238.82C208.609 241.289 210.611 243.291 213.081 243.291Z" fill="#4C3133"/>
<path d="M488.451 183.957C494.308 183.957 499.056 179.209 499.056 173.352C499.056 167.495 494.308 162.747 488.451 162.747C482.593 162.747 477.845 167.495 477.845 173.352C477.845 179.209 482.593 183.957 488.451 183.957Z" fill="white"/>
<path d="M488.451 162.747C490.548 162.747 492.599 163.369 494.343 164.534C496.087 165.699 497.446 167.356 498.249 169.294C499.051 171.231 499.262 173.364 498.852 175.421C498.443 177.478 497.433 179.368 495.95 180.851C494.467 182.334 492.577 183.344 490.52 183.754C488.462 184.163 486.33 183.953 484.392 183.15C482.454 182.347 480.798 180.988 479.633 179.244C478.467 177.5 477.845 175.45 477.845 173.352C477.845 170.539 478.963 167.842 480.951 165.853C482.94 163.864 485.638 162.747 488.451 162.747V162.747ZM488.451 158.269C485.468 158.269 482.551 159.154 480.071 160.811C477.591 162.468 475.657 164.824 474.516 167.58C473.374 170.336 473.076 173.369 473.657 176.295C474.239 179.22 475.676 181.908 477.785 184.017C479.895 186.127 482.582 187.563 485.508 188.145C488.434 188.727 491.467 188.428 494.223 187.287C496.979 186.145 499.334 184.212 500.992 181.732C502.649 179.251 503.534 176.335 503.534 173.352C503.529 169.353 501.938 165.52 499.11 162.692C496.283 159.865 492.449 158.274 488.451 158.269V158.269Z" fill="#4C3133"/>
<path d="M218.076 95.954C223.934 95.954 228.682 91.2058 228.682 85.3486C228.682 79.4914 223.934 74.7432 218.076 74.7432C212.219 74.7432 207.471 79.4914 207.471 85.3486C207.471 91.2058 212.219 95.954 218.076 95.954Z" fill="white"/>
<path d="M218.076 74.7432C220.174 74.7419 222.225 75.3629 223.97 76.5274C225.715 77.692 227.075 79.3479 227.879 81.2857C228.683 83.2235 228.894 85.356 228.485 87.4137C228.077 89.4714 227.067 91.3617 225.584 92.8455C224.101 94.3294 222.212 95.3401 220.154 95.7498C218.097 96.1595 215.964 95.9499 214.026 95.1474C212.088 94.3449 210.431 92.9855 209.265 91.2414C208.1 89.4972 207.477 87.4465 207.477 85.3486C207.477 82.537 208.594 79.8404 210.581 77.8517C212.569 75.863 215.265 74.7449 218.076 74.7432V74.7432ZM218.076 70.2656C215.092 70.2606 212.174 71.1409 209.69 72.7951C207.206 74.4494 205.269 76.8033 204.123 79.5589C202.978 82.3145 202.675 85.348 203.255 88.2754C203.834 91.2029 205.268 93.8929 207.376 96.0048C209.485 98.1168 212.172 99.5558 215.099 100.14C218.025 100.724 221.059 100.427 223.817 99.2859C226.574 98.1451 228.932 96.2119 230.59 93.7309C232.249 91.25 233.134 88.3328 233.134 85.3486C233.13 81.3494 231.54 77.515 228.712 74.6871C225.884 71.8592 222.05 70.269 218.051 70.2656H218.076Z" fill="#4C3133"/>
<path d="M255.893 376.339C254.19 376.343 252.525 375.841 251.108 374.898C249.69 373.955 248.585 372.613 247.931 371.041C247.276 369.47 247.103 367.739 247.433 366.069C247.763 364.399 248.581 362.864 249.783 361.659C250.986 360.454 252.519 359.633 254.188 359.299C255.857 358.966 257.588 359.135 259.161 359.785C260.735 360.436 262.079 361.539 263.026 362.954C263.972 364.369 264.477 366.033 264.477 367.736C264.475 370.014 263.571 372.198 261.962 373.81C260.353 375.423 258.171 376.332 255.893 376.339V376.339ZM255.893 363.616C255.076 363.616 254.278 363.858 253.6 364.312C252.921 364.766 252.392 365.41 252.08 366.165C251.768 366.919 251.687 367.749 251.847 368.549C252.006 369.35 252.4 370.085 252.978 370.662C253.555 371.238 254.291 371.631 255.092 371.789C255.892 371.948 256.722 371.865 257.476 371.552C258.23 371.239 258.874 370.709 259.326 370.029C259.779 369.35 260.02 368.552 260.018 367.736C260.017 366.643 259.581 365.595 258.808 364.822C258.034 364.05 256.986 363.616 255.893 363.616V363.616Z" fill="#4C3133"/>
</svg>
