<svg width="600" height="595" viewBox="0 0 600 595" fill="none" xmlns="http://www.w3.org/2000/svg">
<path d="M488.521 297.225H105.974C88.4205 297.225 74.1907 311.454 74.1907 329.008V541.429C74.1907 558.983 88.4205 573.213 105.974 573.213H488.521C506.074 573.213 520.304 558.983 520.304 541.429V329.008C520.304 311.454 506.074 297.225 488.521 297.225Z" fill="#F0F0F0"/>
<path d="M488.512 297.225C496.942 297.225 505.026 300.573 510.986 306.534C516.947 312.494 520.295 320.578 520.295 329.008V541.429C520.295 549.859 516.947 557.943 510.986 563.904C505.026 569.864 496.942 573.213 488.512 573.213H105.974C97.5443 573.213 89.4602 569.864 83.4997 563.904C77.5392 557.943 74.1906 549.859 74.1906 541.429V329.008C74.1906 324.834 75.0127 320.701 76.6099 316.845C78.2072 312.989 80.5483 309.485 83.4997 306.534C86.451 303.582 89.9548 301.241 93.8109 299.644C97.667 298.047 101.8 297.225 105.974 297.225H488.512ZM488.512 291.356H105.974C95.994 291.376 86.4287 295.349 79.3719 302.406C72.3151 309.463 68.3418 319.028 68.3219 329.008V541.429C68.3418 551.409 72.3151 560.975 79.3719 568.031C86.4287 575.088 95.994 579.061 105.974 579.081H488.512C498.492 579.061 508.057 575.088 515.114 568.031C522.171 560.975 526.144 551.409 526.164 541.429V329.008C526.144 319.028 522.171 309.463 515.114 302.406C508.057 295.349 498.492 291.376 488.512 291.356Z" fill="#4C3133"/>
<path d="M471.644 318.604H121.559C106.182 318.604 93.7164 331.069 93.7164 346.446V523.605C93.7164 538.983 106.182 551.448 121.559 551.448H471.644C487.021 551.448 499.486 538.983 499.486 523.605V346.446C499.486 331.069 487.021 318.604 471.644 318.604Z" fill="white"/>
<path d="M471.644 554.382H121.559C113.396 554.373 105.571 551.126 99.8004 545.352C94.03 539.579 90.7865 531.751 90.7821 523.588V346.446C90.791 338.286 94.0364 330.463 99.8063 324.693C105.576 318.923 113.399 315.678 121.559 315.669H471.644C479.804 315.678 487.627 318.923 493.397 324.693C499.166 330.463 502.412 338.286 502.421 346.446V523.588C502.416 531.751 499.173 539.579 493.402 545.352C487.632 551.126 479.806 554.373 471.644 554.382V554.382ZM121.559 321.538C114.956 321.547 108.625 324.174 103.956 328.843C99.2868 333.512 96.6597 339.843 96.6508 346.446V523.588C96.6597 530.192 99.2868 536.522 103.956 541.192C108.625 545.861 114.956 548.488 121.559 548.497H471.644C478.247 548.488 484.577 545.861 489.247 541.192C493.916 536.522 496.543 530.192 496.552 523.588V346.446C496.543 339.843 493.916 333.512 489.247 328.843C484.577 324.174 478.247 321.547 471.644 321.538H121.559Z" fill="#4C3133"/>
<path d="M225.217 373.937H132.156C123.822 373.937 117.066 380.693 117.066 389.028C117.066 397.362 123.822 404.119 132.156 404.119H225.217C233.552 404.119 240.308 397.362 240.308 389.028C240.308 380.693 233.552 373.937 225.217 373.937Z" fill="#F0F0F0"/>
<path d="M225.636 426.336H132.576C124.241 426.336 117.485 433.092 117.485 441.427C117.485 449.761 124.241 456.518 132.576 456.518H225.636C233.971 456.518 240.727 449.761 240.727 441.427C240.727 433.092 233.971 426.336 225.636 426.336Z" fill="#F0F0F0"/>
<path d="M225.636 474.124H132.576C124.241 474.124 117.485 480.88 117.485 489.215C117.485 497.549 124.241 504.306 132.576 504.306H225.636C233.971 504.306 240.727 497.549 240.727 489.215C240.727 480.88 233.971 474.124 225.636 474.124Z" fill="#F0F0F0"/>
<path d="M458.925 442.265H383.882C377.158 442.265 371.708 447.713 371.708 454.434C371.708 461.155 377.158 466.603 383.882 466.603H458.925C465.649 466.603 471.099 461.155 471.099 454.434C471.099 447.713 465.649 442.265 458.925 442.265Z" fill="#F0F0F0"/>
<path d="M458.925 480.806H383.882C377.158 480.806 371.708 486.254 371.708 492.975C371.708 499.696 377.158 505.144 383.882 505.144H458.925C465.649 505.144 471.099 499.696 471.099 492.975C471.099 486.254 465.649 480.806 458.925 480.806Z" fill="#F0F0F0"/>
<path d="M421.819 429.69C444.97 429.69 463.738 410.922 463.738 387.77C463.738 364.619 444.97 345.851 421.819 345.851C398.667 345.851 379.899 364.619 379.899 387.77C379.899 410.922 398.667 429.69 421.819 429.69Z" fill="#F0F0F0"/>
<path d="M371.398 403.7H281.087C275.929 403.7 271.748 407.881 271.748 413.039V429.572C271.748 434.73 275.929 438.912 281.087 438.912H371.398C376.556 438.912 380.738 434.73 380.738 429.572V413.039C380.738 407.881 376.556 403.7 371.398 403.7Z" fill="#F0F0F0"/>
<path d="M30.2928 569.281H560.991V569.792C560.991 574.882 558.969 579.763 555.37 583.362C551.771 586.961 546.89 588.983 541.8 588.983H49.4835C44.3938 588.983 39.5126 586.961 35.9137 583.362C32.3147 579.763 30.2928 574.882 30.2928 569.792V569.281Z" fill="#F0F0F0"/>
<path d="M560.991 569.281V569.792C560.991 574.882 558.969 579.763 555.37 583.362C551.771 586.961 546.89 588.983 541.8 588.983H49.4834C44.3937 588.983 39.5125 586.961 35.9136 583.362C32.3146 579.763 30.2928 574.882 30.2928 569.792V569.281H560.991ZM560.991 563.412H30.2928C28.7363 563.412 27.2436 564.03 26.143 565.131C25.0424 566.232 24.4241 567.724 24.4241 569.281V569.792C24.4329 576.436 27.076 582.804 31.7736 587.502C36.4712 592.2 42.84 594.843 49.4834 594.852H541.8C548.443 594.843 554.812 592.2 559.51 587.502C564.207 582.804 566.85 576.436 566.859 569.792V569.281C566.859 567.724 566.241 566.232 565.14 565.131C564.04 564.03 562.547 563.412 560.991 563.412V563.412Z" fill="#4C3133"/>
<path d="M54.5137 581.437C50.661 581.437 46.8976 580.277 43.7129 578.109C40.5281 575.941 38.0693 572.865 36.6561 569.281H30.2927V569.792C30.2927 574.882 32.3146 579.763 35.9135 583.362C39.5125 586.961 44.3937 588.983 49.4834 588.983H541.8C545.74 588.982 549.584 587.769 552.812 585.509C556.039 583.249 558.494 580.051 559.842 576.348C556.303 579.626 551.654 581.444 546.83 581.437H54.5137Z" fill="#E2E2E0"/>
<path d="M390.379 356.75H375.288C374.51 356.75 373.764 356.441 373.213 355.891C372.663 355.34 372.354 354.594 372.354 353.816C372.354 353.037 372.663 352.291 373.213 351.741C373.764 351.191 374.51 350.881 375.288 350.881H390.379C391.157 350.881 391.904 351.191 392.454 351.741C393.004 352.291 393.313 353.037 393.313 353.816C393.313 354.594 393.004 355.34 392.454 355.891C391.904 356.441 391.157 356.75 390.379 356.75V356.75Z" fill="#4C3133"/>
<path d="M30.4602 437.311C30.4602 437.311 14.0698 441.151 5.72787 425.247C-2.61407 409.343 10.7582 390.035 10.7582 390.035C10.7582 390.035 29.2026 392.617 29.9488 404.287C29.9488 404.287 23.6022 405.486 25.7569 410.994C27.9115 416.502 32.9083 410.76 32.9083 410.76C32.9083 410.76 43.4049 422.455 30.4602 437.311Z" fill="#E2E2E0"/>
<path d="M26.1006 440.698C21.3286 440.75 16.6386 439.456 12.5693 436.963C8.49989 434.47 5.21619 430.88 3.0953 426.605C-5.96764 409.326 7.69804 389.238 8.28491 388.391C8.59451 387.945 9.02173 387.594 9.51905 387.376C10.0164 387.159 10.5643 387.083 11.1019 387.159C11.9403 387.276 31.9609 390.236 32.816 404.111C32.8595 404.824 32.6418 405.529 32.2037 406.094C31.7655 406.658 31.1369 407.044 30.435 407.179C29.5994 407.331 28.8431 407.77 28.2972 408.42C28.1419 408.936 28.193 409.492 28.4397 409.971C28.5032 410.132 28.576 410.288 28.6577 410.441C29.4112 410.049 30.0851 409.52 30.6446 408.881C30.9171 408.568 31.2531 408.316 31.6304 408.143C32.0077 407.969 32.4176 407.878 32.8328 407.875V407.875C33.2447 407.874 33.6523 407.959 34.0293 408.125C34.4062 408.291 34.7441 408.534 35.021 408.839C35.1384 408.973 47.1105 422.614 32.6232 439.239C32.2323 439.694 31.7116 440.019 31.1309 440.17C29.4795 440.535 27.7919 440.713 26.1006 440.698ZM12.1163 393.371C9.35804 398.074 2.18146 412.26 8.29329 423.913C14.4806 435.71 25.6143 435.106 28.8673 434.645C35.9935 425.934 34.0652 418.716 32.2208 415.194C30.8459 416.138 29.172 416.544 27.5175 416.334C26.0922 416.091 24.1639 415.161 22.965 412.143C22.4952 411.11 22.2684 409.984 22.3018 408.85C22.3352 407.717 22.6281 406.606 23.1579 405.603C23.9439 404.247 25.1097 403.152 26.5114 402.451C24.5412 396.75 15.9561 394.201 12.1499 393.338L12.1163 393.371Z" fill="#B9B9B9"/>
<path d="M45.1487 454.951C44.6207 454.95 44.1025 454.809 43.648 454.54C42.4407 453.819 14.0782 436.582 11.6552 406.693C11.6238 406.308 11.6687 405.92 11.7871 405.552C11.9056 405.184 12.0954 404.843 12.3457 404.548C12.596 404.254 12.9019 404.011 13.2459 403.835C13.5899 403.658 13.9653 403.551 14.3506 403.52C14.736 403.489 15.1237 403.533 15.4917 403.652C15.8598 403.77 16.2008 403.96 16.4955 404.21C16.7902 404.461 17.0327 404.767 17.2091 405.111C17.3856 405.455 17.4925 405.83 17.5239 406.215C19.7037 433.044 46.4147 449.342 46.6829 449.501C47.2327 449.832 47.659 450.333 47.8968 450.929C48.1346 451.524 48.1706 452.181 47.9994 452.799C47.8283 453.418 47.4593 453.963 46.949 454.351C46.4387 454.74 45.8152 454.95 45.1739 454.951H45.1487Z" fill="#B9B9B9"/>
<path d="M569.911 261.359C576.618 267.429 588.179 263.27 592.841 255.557C597.502 247.844 597.259 238.236 596.865 229.224L596.278 215.927C591.105 225.727 577.431 226.826 568.938 233.893C565.285 237.088 562.718 241.341 561.594 246.062C560.47 250.783 560.845 255.737 562.667 260.235" fill="#E2E2E0"/>
<path d="M577.758 267.203C574.131 267.264 570.616 265.952 567.915 263.53C567.63 263.271 567.399 262.958 567.235 262.61C567.07 262.261 566.976 261.883 566.958 261.498C566.94 261.113 566.998 260.729 567.128 260.366C567.258 260.003 567.459 259.67 567.718 259.385C567.978 259.1 568.29 258.868 568.639 258.704C568.988 258.54 569.365 258.446 569.75 258.428C570.135 258.409 570.52 258.467 570.883 258.597C571.245 258.728 571.579 258.928 571.864 259.188C572.899 260.07 574.119 260.709 575.433 261.059C576.747 261.408 578.123 261.46 579.46 261.208C581.677 260.854 583.794 260.031 585.669 258.795C587.544 257.559 589.134 255.938 590.334 254.04C594.702 246.821 594.274 237.138 593.93 229.358L593.67 223.489C590.233 226.281 586.041 228.142 581.933 229.962C577.825 231.781 573.893 233.525 570.808 236.107C567.635 238.895 565.404 242.597 564.422 246.705C563.44 250.813 563.756 255.124 565.325 259.045C565.591 259.753 565.575 260.536 565.278 261.231C564.982 261.927 564.428 262.481 563.733 262.779C563.038 263.076 562.255 263.093 561.547 262.827C560.839 262.561 560.261 262.032 559.934 261.351C557.847 256.274 557.41 250.669 558.686 245.33C559.962 239.991 562.886 235.189 567.043 231.605C570.757 228.494 575.234 226.516 579.552 224.596C585.463 221.972 591.046 219.498 593.67 214.535C593.974 213.968 594.455 213.516 595.04 213.249C595.625 212.981 596.281 212.912 596.909 213.053C597.536 213.193 598.101 213.536 598.515 214.028C598.929 214.52 599.171 215.134 599.204 215.776L599.791 229.073C600.168 237.65 600.629 248.314 595.347 257.05C593.697 259.688 591.504 261.943 588.913 263.667C586.322 265.39 583.394 266.541 580.323 267.043C579.473 267.159 578.616 267.212 577.758 267.203V267.203Z" fill="#B9B9B9"/>
<path d="M556.396 266.741C555.701 266.735 555.031 266.484 554.504 266.032C553.977 265.58 553.627 264.956 553.515 264.271C553.404 263.585 553.539 262.882 553.895 262.286C554.252 261.691 554.808 261.24 555.465 261.015C561.414 258.988 566.891 255.778 571.568 251.58C576.245 247.382 580.024 242.281 582.679 236.584C583.015 235.895 583.607 235.364 584.329 235.105C585.051 234.846 585.845 234.881 586.543 235.201C587.24 235.521 587.784 236.101 588.058 236.817C588.333 237.533 588.316 238.329 588.011 239.032C585.017 245.456 580.755 251.208 575.482 255.944C570.209 260.679 564.034 264.3 557.326 266.59C557.026 266.689 556.712 266.74 556.396 266.741V266.741Z" fill="#B9B9B9"/>
<path d="M580.743 478.316C580.039 478.313 579.36 478.058 578.829 477.596C578.298 477.135 577.951 476.497 577.85 475.801L574.069 452.326C573.963 451.566 574.158 450.794 574.615 450.176C575.071 449.558 575.751 449.144 576.51 449.022C577.268 448.9 578.044 449.081 578.671 449.524C579.297 449.968 579.725 450.64 579.862 451.396L583.627 474.896C583.745 475.662 583.556 476.445 583.101 477.073C582.646 477.701 581.961 478.123 581.195 478.249C581.046 478.283 580.895 478.305 580.743 478.316Z" fill="#4C3133"/>
<path d="M567.261 468.96C566.534 468.961 565.832 468.691 565.292 468.203C564.752 467.715 564.412 467.044 564.339 466.32C564.266 465.596 564.464 464.871 564.896 464.285C565.328 463.699 565.961 463.295 566.675 463.15L589.311 458.472C589.694 458.378 590.092 458.363 590.48 458.426C590.869 458.49 591.241 458.631 591.575 458.841C591.908 459.052 592.195 459.327 592.42 459.651C592.644 459.975 592.801 460.341 592.881 460.726C592.961 461.112 592.962 461.51 592.885 461.897C592.808 462.283 592.654 462.65 592.432 462.976C592.21 463.301 591.924 463.579 591.593 463.792C591.261 464.004 590.89 464.148 590.502 464.215L567.865 468.901C567.666 468.937 567.464 468.957 567.261 468.96V468.96Z" fill="#4C3133"/>
<path d="M87.7304 186.617C87.033 186.615 86.3589 186.366 85.8289 185.912C85.2988 185.459 84.9475 184.832 84.8379 184.143L81.0568 160.568C80.9503 159.807 81.1462 159.035 81.6025 158.418C82.0588 157.8 82.7391 157.386 83.4974 157.264C84.2557 157.142 85.0315 157.322 85.6584 157.766C86.2852 158.21 86.713 158.882 86.8501 159.637L90.6563 183.204C90.7173 183.584 90.7027 183.972 90.6135 184.347C90.5242 184.721 90.3621 185.074 90.1362 185.385C89.9104 185.697 89.6253 185.961 89.2974 186.162C88.9694 186.363 88.605 186.498 88.225 186.558C88.0628 186.596 87.8969 186.615 87.7304 186.617V186.617Z" fill="#4C3133"/>
<path d="M74.2574 177.277C73.529 177.28 72.8256 177.012 72.2839 176.525C71.7423 176.038 71.4012 175.367 71.3269 174.642C71.2527 173.917 71.4506 173.191 71.8823 172.604C72.3139 172.018 72.9483 171.612 73.6622 171.467L96.2986 166.789C97.0613 166.632 97.855 166.785 98.5051 167.213C99.1552 167.642 99.6085 168.311 99.7653 169.074C99.9221 169.836 99.7694 170.63 99.341 171.28C98.9125 171.93 98.2434 172.384 97.4807 172.54L74.8443 177.219C74.6512 177.258 74.4545 177.278 74.2574 177.277V177.277Z" fill="#4C3133"/>
<path d="M482.35 119.32C481.653 119.319 480.98 119.07 480.45 118.619C479.921 118.167 479.569 117.542 479.457 116.855L475.676 93.3046C475.553 92.5352 475.74 91.7484 476.197 91.1171C476.653 90.4858 477.342 90.0619 478.112 89.9385C478.881 89.8151 479.668 90.0023 480.299 90.4591C480.93 90.9158 481.354 91.6046 481.478 92.374L485.25 115.924C485.322 116.344 485.3 116.775 485.186 117.185C485.073 117.596 484.871 117.976 484.594 118.3C484.317 118.624 483.973 118.883 483.585 119.059C483.197 119.236 482.776 119.324 482.35 119.32V119.32Z" fill="#4C3133"/>
<path d="M468.877 109.98C468.148 109.983 467.445 109.715 466.903 109.228C466.362 108.741 466.021 108.07 465.946 107.345C465.872 106.62 466.07 105.894 466.502 105.307C466.933 104.721 467.568 104.315 468.282 104.17L490.918 99.4921C491.681 99.3343 492.475 99.4858 493.126 99.9135C493.777 100.341 494.231 101.01 494.389 101.773C494.547 102.535 494.395 103.329 493.968 103.98C493.54 104.631 492.871 105.086 492.108 105.243L469.472 109.922C469.276 109.961 469.077 109.981 468.877 109.98V109.98Z" fill="#4C3133"/>
<path d="M268.1 514.124C223.507 523.346 171.116 492.326 180.38 441.343C185.93 410.818 215.735 405.603 228.31 380.25C241.423 353.833 242.982 322.62 240.383 293.729C236.82 254.241 226.349 214.996 229.828 175.517C233.307 136.037 255.633 94.1933 294.048 84.4093C319.963 77.7861 348.191 87.461 368.438 104.933C388.685 122.405 401.848 146.802 410.961 171.945C448.563 275.637 417.987 400.564 336.739 475.164C317.121 493.164 294.182 508.699 268.1 514.124Z" fill="#C5E6F1"/>
<path d="M311.001 82.2964C331.742 82.2964 352.551 91.2 368.438 104.933C388.685 122.413 401.848 146.802 410.961 171.945C448.571 275.636 417.987 400.564 336.739 475.164C317.121 493.18 294.183 508.699 268.1 514.14C262.815 515.229 257.433 515.774 252.037 515.767C211.954 515.767 172.214 486.322 180.38 441.36C185.93 410.834 215.735 405.62 228.311 380.267C241.423 353.849 242.982 322.636 240.383 293.745C236.82 254.258 226.349 215.013 229.828 175.533C233.307 136.054 255.634 94.2098 294.048 84.4258C299.589 83.0209 305.284 82.3167 311.001 82.3299V82.2964ZM311.001 76.4612C304.796 76.4489 298.614 77.2121 292.598 78.7332C273.256 83.6797 256.422 96.4399 243.913 115.622C232.947 132.465 225.863 153.551 223.976 174.997C221.595 202.068 225.653 229.139 229.51 255.322C231.404 268.108 233.374 281.312 234.54 294.265C237.625 328.58 233.869 355.861 223.054 377.651C218.183 387.469 210.327 394.016 202.01 400.95C190.273 410.725 178.142 420.836 174.612 440.295C171.007 460.123 175.685 478.484 188.135 493.398C195.89 502.477 205.649 509.629 216.64 514.291C227.826 519.12 239.879 521.617 252.062 521.627C257.858 521.634 263.64 521.047 269.316 519.875C293.168 514.92 316.534 501.707 340.738 479.481C423.788 403.188 454.943 275.93 416.511 169.933C405.394 139.29 390.932 116.57 372.303 100.481C354.597 85.1972 332.262 76.436 311.026 76.436L311.001 76.4612Z" fill="#4C3133"/>
<path d="M410.961 171.928C401.848 146.777 388.685 122.396 368.438 104.916C363.575 100.724 358.31 97.0224 352.719 93.8662C370.492 110.961 382.406 133.564 390.84 156.837C428.442 260.529 397.866 385.457 316.618 460.056C297 478.073 274.061 493.591 247.979 499.033C229.854 502.661 211.035 500.108 194.532 491.781C211.912 510.762 241.398 519.665 268.1 514.124C294.183 508.699 317.121 493.164 336.739 475.147C417.987 400.547 448.563 275.62 410.961 171.928Z" fill="#81C4D4"/>
<path d="M456.888 160.149H192.243C184.988 160.149 179.106 166.031 179.106 173.286V351.577C179.106 358.833 184.988 364.715 192.243 364.715H456.888C464.143 364.715 470.025 358.833 470.025 351.577V173.286C470.025 166.031 464.143 160.149 456.888 160.149Z" fill="white"/>
<path d="M456.888 160.149C460.371 160.151 463.712 161.536 466.175 163.999C468.638 166.463 470.023 169.803 470.025 173.286V351.577C470.023 355.061 468.638 358.401 466.175 360.865C463.712 363.328 460.371 364.713 456.888 364.715H192.243C188.76 364.713 185.419 363.328 182.956 360.865C180.493 358.401 179.108 355.061 179.106 351.577V173.286C179.108 169.803 180.493 166.463 182.956 163.999C185.419 161.536 188.76 160.151 192.243 160.149H456.888ZM456.888 154.28H192.243C187.204 154.287 182.374 156.291 178.811 159.854C175.248 163.417 173.244 168.248 173.237 173.286V351.577C173.244 356.616 175.248 361.447 178.811 365.009C182.374 368.572 187.204 370.577 192.243 370.584H456.888C461.927 370.577 466.757 368.572 470.32 365.009C473.883 361.447 475.887 356.616 475.894 351.577V173.286C475.887 168.248 473.883 163.417 470.32 159.854C466.757 156.291 461.927 154.287 456.888 154.28V154.28Z" fill="#4C3133"/>
<path d="M229.828 175.5C226.349 214.996 236.82 254.241 240.383 293.712C242.488 317.112 241.867 342.037 234.59 364.698H409.242C431.535 302.985 433.329 233.684 410.919 171.912C409.488 167.954 407.949 164.028 406.3 160.132H232.117C231.047 165.204 230.283 170.336 229.828 175.5Z" fill="#F0F0F0"/>
<path d="M288.75 194.204C271.647 191.228 243.393 206.101 259.012 232.116C274.631 258.131 304.361 232.862 331.876 241.045C359.392 249.227 408.454 232.116 390.563 207.585C372.672 183.054 358.596 183.045 328.858 188.998C299.121 194.95 288.75 194.204 288.75 194.204Z" fill="#E2E2E0"/>
<path d="M295.44 226.876C294.819 226.877 294.215 226.68 293.713 226.315L269.182 208.474C268.553 208.016 268.131 207.326 268.01 206.558C267.889 205.789 268.078 205.003 268.536 204.374C268.994 203.745 269.684 203.323 270.453 203.202C271.221 203.081 272.007 203.271 272.636 203.729L297.167 221.569C297.668 221.934 298.041 222.448 298.232 223.037C298.423 223.626 298.423 224.261 298.231 224.85C298.039 225.439 297.666 225.953 297.165 226.316C296.663 226.68 296.06 226.876 295.44 226.876V226.876Z" fill="white"/>
<path d="M270.909 226.876C270.289 226.876 269.686 226.68 269.184 226.316C268.683 225.953 268.31 225.439 268.118 224.85C267.926 224.261 267.926 223.626 268.117 223.037C268.308 222.448 268.681 221.934 269.182 221.569L293.713 203.729C294.342 203.271 295.128 203.081 295.897 203.202C296.665 203.323 297.355 203.745 297.813 204.374C298.271 205.003 298.46 205.789 298.339 206.558C298.218 207.326 297.796 208.016 297.167 208.474L272.636 226.315C272.133 226.678 271.529 226.874 270.909 226.876V226.876Z" fill="white"/>
<path d="M370.534 224.646C369.914 224.646 369.309 224.45 368.807 224.084L344.276 206.243C343.646 205.786 343.223 205.097 343.1 204.329C342.977 203.56 343.165 202.774 343.622 202.143C344.079 201.513 344.768 201.09 345.537 200.967C346.305 200.845 347.091 201.032 347.722 201.489L372.261 219.339C372.762 219.703 373.135 220.217 373.326 220.806C373.517 221.396 373.517 222.03 373.325 222.619C373.133 223.208 372.76 223.722 372.259 224.086C371.757 224.45 371.154 224.646 370.534 224.646V224.646Z" fill="white"/>
<path d="M346.003 224.646C345.384 224.646 344.78 224.45 344.279 224.086C343.777 223.722 343.404 223.208 343.212 222.619C343.021 222.03 343.02 221.396 343.211 220.806C343.402 220.217 343.775 219.703 344.276 219.339L368.807 201.489C369.438 201.031 370.224 200.843 370.994 200.964C371.763 201.086 372.453 201.509 372.911 202.139C373.369 202.77 373.558 203.556 373.436 204.326C373.314 205.095 372.892 205.785 372.261 206.243L347.722 224.084C347.223 224.448 346.621 224.645 346.003 224.646V224.646Z" fill="white"/>
<path d="M260.429 183.205C259.768 183.205 259.126 182.983 258.607 182.573C258.088 182.163 257.723 181.59 257.571 180.946C257.418 180.303 257.488 179.627 257.768 179.028C258.047 178.429 258.522 177.942 259.113 177.646L269.173 172.616C269.869 172.267 270.676 172.208 271.415 172.454C272.153 172.699 272.765 173.228 273.114 173.924C273.463 174.62 273.521 175.426 273.276 176.165C273.031 176.904 272.502 177.515 271.806 177.864L261.745 182.894C261.336 183.098 260.886 183.204 260.429 183.205Z" fill="white"/>
<path d="M370.258 174.821C370.052 174.823 369.846 174.801 369.646 174.754L357.908 172.238C357.175 172.05 356.542 171.585 356.144 170.941C355.745 170.298 355.61 169.524 355.769 168.784C355.927 168.043 356.365 167.392 356.992 166.967C357.619 166.542 358.386 166.376 359.132 166.504L370.87 169.019C371.576 169.173 372.201 169.582 372.624 170.168C373.048 170.754 373.24 171.475 373.164 172.194C373.088 172.913 372.75 173.579 372.213 174.063C371.677 174.548 370.981 174.818 370.258 174.821V174.821Z" fill="white"/>
<path d="M185.008 229.853C192.168 229.299 200.862 223.724 194.876 215.541C192.721 212.59 189.082 211.006 185.461 210.511C177.915 209.539 168.383 210.125 162.246 214.98C160.485 216.371 158.842 218.333 158.892 220.538C158.993 223.531 162.019 225.501 164.761 226.633C171.168 229.266 178.1 230.368 185.008 229.853V229.853Z" fill="#C5E6F1"/>
<path d="M179.399 210.151C181.426 210.151 183.451 210.282 185.461 210.545C189.083 211.006 192.721 212.59 194.876 215.575C200.862 223.757 192.168 229.333 185.008 229.886C183.893 229.97 182.77 230.012 181.654 230.012C175.878 229.999 170.16 228.86 164.82 226.658C162.045 225.526 159.018 223.556 158.951 220.563C158.876 218.325 160.519 216.371 162.305 215.005C166.882 211.391 173.346 210.142 179.458 210.142L179.399 210.151ZM179.458 204.273C173.505 204.273 165.071 205.338 158.666 210.402C153.904 214.166 153.015 218.115 153.107 220.764C153.208 223.573 154.575 228.779 162.648 232.091C168.703 234.555 175.176 235.828 181.713 235.839C182.979 235.839 184.228 235.788 185.519 235.696C191.539 235.235 198.875 232.032 201.675 225.929C202.849 223.414 204.148 218.191 199.671 212.062C196.737 208.063 191.983 205.447 186.257 204.709C184 204.419 181.726 204.273 179.449 204.273H179.458Z" fill="#4C3133"/>
<path d="M183.331 249.974C190.491 249.42 199.185 243.845 193.199 235.662C191.044 232.711 187.406 231.127 183.784 230.632C176.238 229.66 166.706 230.247 160.569 235.101C158.808 236.492 157.165 238.454 157.215 240.659C157.316 243.652 160.343 245.622 163.084 246.754C169.491 249.387 176.424 250.489 183.331 249.974V249.974Z" fill="#C5E6F1"/>
<path d="M177.722 230.272C179.749 230.272 181.774 230.403 183.784 230.666C187.406 231.127 191.044 232.711 193.199 235.696C199.185 243.879 190.491 249.454 183.331 250.007C182.216 250.091 181.093 250.133 179.978 250.133C174.201 250.12 168.483 248.981 163.143 246.779C160.368 245.648 157.341 243.677 157.274 240.684C157.199 238.446 158.842 236.492 160.628 235.126C165.205 231.512 171.669 230.263 177.781 230.263L177.722 230.272ZM177.781 224.395C171.829 224.395 163.394 225.459 156.989 230.523C152.227 234.287 151.338 238.236 151.431 240.886C151.531 243.694 152.898 248.901 160.971 252.212C167.026 254.677 173.499 255.949 180.036 255.96C181.302 255.96 182.552 255.909 183.843 255.817C189.862 255.356 197.198 252.153 199.998 246.05C201.172 243.535 202.472 238.312 197.995 232.183C195.06 228.184 190.307 225.568 184.58 224.83C182.323 224.54 180.049 224.394 177.773 224.395H177.781Z" fill="#4C3133"/>
<path d="M183.331 270.095C190.491 269.542 199.185 263.967 193.199 255.784C191.044 252.833 187.406 251.248 183.784 250.754C176.238 249.781 166.706 250.368 160.569 255.222C158.808 256.614 157.165 258.576 157.215 260.781C157.316 263.774 160.343 265.744 163.084 266.876C169.491 269.508 176.424 270.611 183.331 270.095V270.095Z" fill="#C5E6F1"/>
<path d="M177.722 250.393C179.749 250.393 181.774 250.525 183.784 250.787C187.406 251.248 191.044 252.832 193.199 255.817C199.185 264 190.491 269.575 183.331 270.128C182.216 270.212 181.093 270.254 179.978 270.254C174.201 270.241 168.483 269.102 163.143 266.9C160.368 265.769 157.341 263.798 157.274 260.805C157.199 258.567 158.842 256.614 160.628 255.247C165.205 251.634 171.669 250.384 177.781 250.384L177.722 250.393ZM177.781 244.516C171.829 244.516 163.394 245.58 156.989 250.644C152.227 254.409 151.338 258.357 151.431 261.007C151.531 263.815 152.898 269.022 160.971 272.333C167.026 274.798 173.499 276.07 180.036 276.081C181.302 276.081 182.552 276.031 183.843 275.938C189.862 275.477 197.198 272.275 199.998 266.171C201.172 263.656 202.472 258.433 197.995 252.304C195.06 248.305 190.307 245.689 184.58 244.952C182.323 244.661 180.049 244.515 177.773 244.516H177.781Z" fill="#4C3133"/>
<path d="M468.407 231.529C461.247 230.976 452.553 225.401 458.539 217.218C460.694 214.267 464.333 212.682 467.955 212.188C475.5 211.215 485.032 211.802 491.169 216.656C492.93 218.048 494.573 220.01 494.523 222.215C494.422 225.208 491.396 227.178 488.654 228.31C482.247 230.942 475.315 232.045 468.407 231.529Z" fill="#C5E6F1"/>
<path d="M474.016 211.827C480.128 211.827 486.592 213.076 491.169 216.69C492.93 218.081 494.573 220.043 494.523 222.248C494.422 225.241 491.396 227.211 488.654 228.343C483.314 230.545 477.596 231.684 471.82 231.697C470.704 231.697 469.581 231.655 468.466 231.571C461.306 231.018 452.612 225.442 458.598 217.26C460.753 214.309 464.391 212.724 468.013 212.23C470.023 211.967 472.048 211.836 474.075 211.835L474.016 211.827ZM474.075 205.967C471.799 205.967 469.525 206.112 467.267 206.403C461.558 207.141 456.796 209.756 453.853 213.755C449.376 219.884 450.675 225.074 451.849 227.631C454.658 233.726 461.985 236.928 468.005 237.389C469.262 237.482 470.52 237.532 471.811 237.532C478.348 237.521 484.821 236.249 490.876 233.784C498.95 230.473 500.316 225.266 500.417 222.458C500.509 219.809 499.578 215.86 494.858 212.095C488.453 207.065 480.019 205.967 474.066 205.967H474.075Z" fill="#4C3133"/>
<path d="M470.084 251.65C462.924 251.097 454.23 245.522 460.216 237.339C462.371 234.388 466.01 232.804 469.631 232.309C477.177 231.336 486.709 231.923 492.846 236.778C494.607 238.169 496.25 240.131 496.2 242.336C496.099 245.329 493.073 247.299 490.331 248.431C483.924 251.064 476.992 252.166 470.084 251.65V251.65Z" fill="#C5E6F1"/>
<path d="M475.693 231.948C481.805 231.948 488.269 233.197 492.846 236.811C494.607 238.203 496.25 240.164 496.2 242.369C496.099 245.362 493.073 247.333 490.331 248.464C484.991 250.666 479.273 251.805 473.496 251.818C472.381 251.818 471.258 251.776 470.143 251.692C462.983 251.139 454.289 245.564 460.275 237.381C462.43 234.43 466.068 232.845 469.69 232.351C471.7 232.088 473.725 231.957 475.752 231.957L475.693 231.948ZM475.752 226.088C473.475 226.088 471.201 226.233 468.944 226.524C463.234 227.262 458.472 229.877 455.53 233.876C451.053 240.005 452.352 245.195 453.526 247.752C456.335 253.847 463.662 257.049 469.682 257.511C470.939 257.603 472.197 257.653 473.488 257.653C480.025 257.642 486.498 256.37 492.553 253.906C500.626 250.594 501.993 245.388 502.094 242.579C502.186 239.93 501.255 235.981 496.535 232.216C490.13 227.186 481.696 226.088 475.743 226.088H475.752Z" fill="#4C3133"/>
<path d="M470.084 271.772C462.924 271.219 454.23 265.643 460.216 257.461C462.371 254.51 466.01 252.925 469.631 252.431C477.177 251.458 486.709 252.045 492.846 256.899C494.607 258.291 496.25 260.253 496.2 262.458C496.099 265.451 493.073 267.421 490.331 268.553C483.924 271.185 476.992 272.287 470.084 271.772V271.772Z" fill="#C5E6F1"/>
<path d="M475.693 252.07C481.805 252.07 488.269 253.319 492.846 256.932C494.607 258.324 496.25 260.286 496.2 262.491C496.099 265.484 493.073 267.454 490.331 268.586C484.991 270.787 479.273 271.927 473.496 271.94C472.381 271.94 471.258 271.898 470.143 271.814C462.983 271.26 454.289 265.685 460.275 257.503C462.43 254.551 466.068 252.967 469.69 252.472C471.7 252.21 473.725 252.078 475.752 252.078L475.693 252.07ZM475.752 246.209C473.475 246.209 471.201 246.355 468.944 246.645C463.234 247.383 458.472 249.999 455.53 253.998C451.053 260.127 452.352 265.316 453.526 267.873C456.335 273.968 463.662 277.171 469.682 277.632C470.939 277.724 472.197 277.775 473.488 277.775C480.025 277.764 486.498 276.492 492.553 274.027C500.626 270.715 501.993 265.509 502.094 262.701C502.186 260.051 501.255 256.102 496.535 252.338C490.13 247.308 481.696 246.209 475.743 246.209H475.752Z" fill="#4C3133"/>
<path d="M273.324 66.7694C290.871 55.7949 316.366 53.1372 336.521 57.8657C345.341 59.9281 353.976 63.5416 363.031 63.3655C372.085 63.1895 382.012 57.5974 383.035 48.6016C383.63 43.3114 380.947 38.0211 376.965 34.4832C372.982 30.9452 367.868 28.9498 362.712 27.6503C349.688 24.3933 335.983 25.1562 323.4 29.8385C320.047 31.1045 315.243 32.1692 313.6 28.9498C312.334 26.4347 314.354 23.5171 316.685 21.9661C319.016 20.415 321.833 19.4509 323.392 17.1118C325.404 14.1775 324.541 9.91847 322.118 7.31109C319.695 4.70372 316.081 3.50483 312.535 3.11917C298.282 1.4927 284.566 11.721 278.287 24.6573C272.007 37.5936 271.773 52.6342 273.131 66.9538L273.324 66.7694Z" fill="#C5E6F1"/>
<path d="M273.139 69.8716C272.409 69.8707 271.706 69.5979 271.167 69.1065C270.627 68.6151 270.29 67.9404 270.222 67.2139C269.106 55.4765 268.461 38.189 275.654 23.3664C283.082 8.07425 298.4 -1.46658 312.879 0.185038C317.733 0.738372 321.665 2.50737 324.272 5.30757C327.802 9.11384 328.464 14.8987 325.823 18.772C324.323 20.9686 322.143 22.1927 320.223 23.2742C319.535 23.6598 318.881 24.0287 318.295 24.4144C316.752 25.4372 315.897 27.005 316.207 27.617C316.584 28.3548 318.823 28.4554 322.361 27.0888C335.511 22.2065 349.83 21.4088 363.442 24.8C370.082 26.4768 375.179 28.9249 378.935 32.2952C383.965 36.8057 386.631 43.0265 385.961 48.9371C384.762 59.5511 373.385 66.0989 363.098 66.3001C356.206 66.4258 349.684 64.5563 343.371 62.7453C340.906 62.0327 338.34 61.3033 335.867 60.7248C315.377 55.9209 290.997 59.2996 275.109 69.1087C274.569 69.5974 273.867 69.8692 273.139 69.8716ZM309.475 5.86091C296.614 5.86091 285.832 15.9215 280.97 25.9235C276.367 35.414 274.707 46.6819 275.721 62.0243C292.908 52.9279 316.492 50.1528 337.225 55.007C339.858 55.6274 342.474 56.3736 345.005 57.103C351.184 58.872 357.003 60.5655 363.006 60.4565C370.601 60.314 379.321 55.6191 380.151 48.3C380.595 44.3428 378.641 39.9161 375.053 36.7051C371.985 33.9803 367.726 31.9598 362.025 30.5178C349.577 27.4161 336.484 28.1437 324.457 32.6054C315.486 35.9589 312.183 32.6054 311.042 30.3082C309.03 26.3594 311.571 21.9244 315.117 19.5517C315.88 19.0403 316.66 18.6044 317.414 18.1852C318.974 17.3468 320.315 16.5084 321.044 15.4856C322.143 13.8759 321.698 11.1092 320.038 9.33182C317.976 7.1101 314.681 6.31364 312.283 6.04535C311.351 5.92931 310.414 5.86773 309.475 5.86091V5.86091Z" fill="#4C3133"/>
<path d="M351.394 356.331H204.676C203.898 356.331 203.152 356.021 202.602 355.471C202.051 354.921 201.742 354.174 201.742 353.396C201.742 352.618 202.051 351.872 202.602 351.321C203.152 350.771 203.898 350.462 204.676 350.462H351.394C352.172 350.462 352.918 350.771 353.469 351.321C354.019 351.872 354.328 352.618 354.328 353.396C354.328 354.174 354.019 354.921 353.469 355.471C352.918 356.021 352.172 356.331 351.394 356.331Z" fill="#4C3133"/>
<path d="M387.922 355.912H370.257C369.479 355.912 368.733 355.602 368.183 355.052C367.632 354.502 367.323 353.756 367.323 352.977C367.323 352.199 367.632 351.453 368.183 350.902C368.733 350.352 369.479 350.043 370.257 350.043H387.922C388.7 350.043 389.447 350.352 389.997 350.902C390.547 351.453 390.857 352.199 390.857 352.977C390.857 353.756 390.547 354.502 389.997 355.052C389.447 355.602 388.7 355.912 387.922 355.912Z" fill="#4C3133"/>
</svg>
