<svg width="600" height="425" viewBox="0 0 600 425" fill="none" xmlns="http://www.w3.org/2000/svg">
<path d="M313.506 336.235C313.506 336.235 329.638 358.954 367.448 344.01C405.257 329.066 392.361 304.817 392.361 304.817L313.506 336.235Z" fill="white"/>
<path d="M392.342 304.842C392.342 304.842 405.244 329.066 367.428 344.036C358.073 347.734 350.044 349.093 343.255 349.093C322.621 349.093 313.487 336.228 313.487 336.228L392.342 304.836V304.842ZM392.342 300.411C391.783 300.41 391.229 300.518 390.711 300.727L311.85 332.126C311.228 332.374 310.67 332.759 310.219 333.254C309.767 333.749 309.434 334.339 309.244 334.982C309.054 335.624 309.013 336.3 309.122 336.961C309.232 337.622 309.49 338.249 309.877 338.795C310.307 339.427 320.624 353.524 343.255 353.524C351.309 353.524 359.988 351.71 369.059 348.126C384.022 342.209 393.492 334.098 397.209 324.003C398.46 320.574 399.019 316.931 398.852 313.286C398.686 309.64 397.799 306.063 396.242 302.762C395.865 302.054 395.302 301.461 394.614 301.048C393.926 300.635 393.138 300.417 392.335 300.417L392.342 300.411Z" fill="#4C3133"/>
<path d="M294.731 291.953C288.15 269.486 278.7 265.257 261.467 254.46C244.235 243.663 196.987 222.523 198.593 161.249C200.199 99.9743 255.677 79.1196 255.677 79.1196C255.677 79.1196 260.013 95.9538 272.789 94.6959C272.789 94.6959 272.29 113.793 289.946 108.679C307.602 103.565 319.467 106.264 332.034 112.959C344.601 119.653 350.645 101.498 363.357 102.629L376.089 103.755C376.089 103.755 407.064 136.412 393.303 176.667C379.541 216.923 370.305 234.193 385.521 261.666C400.737 289.14 302.5 300.114 302.5 300.114L294.731 291.953Z" fill="#F0F0F0"/>
<path d="M253.167 85.0934C255.468 90.2012 260.215 97.6417 268.705 99.0008C269.23 102.193 270.513 106.46 273.649 109.678C275.052 111.091 276.729 112.204 278.576 112.947C280.424 113.691 282.404 114.05 284.395 114.002C286.686 113.971 288.961 113.618 291.153 112.952C296.287 111.378 301.619 110.542 306.988 110.468C314.625 110.468 321.484 112.365 329.936 116.891C332.262 118.172 334.872 118.852 337.528 118.869C343.318 118.869 347.819 115.374 351.789 112.289C355.291 109.57 358.597 107.004 362.245 107.004C362.494 107.002 362.743 107.012 362.991 107.035L373.946 108.003C378.786 113.844 382.825 120.305 385.957 127.214C393.359 143.574 394.421 159.732 389.118 175.257C387.588 179.727 386.128 183.867 384.693 187.869C373.377 219.995 367.144 237.689 381.62 263.835C382.885 266.129 382.998 268.045 381.968 270.042C379.926 273.974 371.664 281.731 339.424 289.247C324.177 292.781 309.542 294.804 304.163 295.486L298.676 289.702C292.146 268.266 282.423 262.254 267.82 253.221C266.556 252.433 265.222 251.605 263.819 250.736C262.118 249.674 260.133 248.505 258.028 247.272C247.87 241.317 233.956 233.156 222.476 219.679C216.346 212.523 211.53 204.339 208.253 195.505C204.46 185.226 202.702 173.753 203.025 161.369C203.241 148.649 206.32 136.141 212.033 124.774C216.704 115.718 222.95 107.567 230.479 100.701C237.274 94.4619 244.914 89.2099 253.173 85.0997L253.167 85.0934ZM255.702 79.1259C255.702 79.1259 200.212 99.9869 198.619 161.255C197.025 222.523 244.228 243.656 261.467 254.479C278.706 265.301 288.15 269.505 294.731 291.972L302.481 300.133C302.481 300.133 400.743 289.133 385.502 261.666C370.261 234.199 379.496 216.916 393.284 176.667C407.071 136.418 376.089 103.755 376.089 103.755L363.376 102.629C362.991 102.591 362.612 102.579 362.239 102.579C352.219 102.579 346.346 114.444 337.521 114.444C335.603 114.414 333.723 113.903 332.053 112.959C323.993 108.666 316.249 106.005 307.026 106.005C301.24 106.079 295.493 106.975 289.958 108.666C288.165 109.217 286.303 109.51 284.427 109.539C272.416 109.539 272.802 94.6832 272.802 94.6832C272.34 94.7274 271.891 94.7527 271.449 94.7527C259.722 94.7527 255.689 79.1069 255.689 79.1069L255.702 79.1259Z" fill="#4C3133"/>
<path d="M255.677 79.1196C255.677 79.1196 200.186 99.9807 198.593 161.249C197 222.517 244.228 243.656 261.467 254.479C278.706 265.301 288.15 269.505 294.731 291.972L302.481 300.133C302.481 300.133 399.795 289.639 385.502 261.685C375.337 241.817 379.496 216.935 393.284 176.686C407.071 136.437 376.089 103.755 376.089 103.755L354.046 124.679L353.736 136.614C342.617 135.533 323.62 131.057 318.822 131.727C314.024 132.397 310.415 149.029 310.415 149.029C300.863 147.98 293.972 137.448 283.163 123.623C272.353 109.798 244.506 109.874 244.506 109.874C247.977 98.8175 239.266 96.9969 239.266 96.9969C248.957 92.4833 255.677 79.1196 255.677 79.1196Z" fill="white"/>
<path d="M234.86 96.8954C234.847 97.106 234.847 97.3171 234.86 97.5276C234.973 98.4459 235.371 99.3057 235.998 99.9861C236.625 100.666 237.449 101.133 238.355 101.321C239.189 101.596 239.905 102.147 240.385 102.882C241.282 104.412 240.821 106.801 240.277 108.54C240.068 109.203 240.019 109.906 240.133 110.592C240.247 111.278 240.521 111.928 240.933 112.488C241.345 113.049 241.883 113.504 242.504 113.817C243.125 114.131 243.811 114.294 244.506 114.292C244.765 114.292 270.374 114.431 279.673 126.335C280.969 127.997 282.201 129.616 283.415 131.177C292.474 142.973 299.636 152.285 309.883 153.404C310.045 153.423 310.207 153.434 310.37 153.435C311.379 153.434 312.357 153.088 313.143 152.454C313.928 151.821 314.473 150.938 314.688 149.952C315.99 144.01 318.373 137.663 319.859 136.045H319.973C322.918 136.045 329.537 137.208 335.941 138.333C342.022 139.395 348.306 140.501 353.262 140.982C353.401 140.982 353.546 140.982 353.692 140.982C354.845 140.982 355.952 140.533 356.779 139.728C357.605 138.924 358.085 137.829 358.117 136.677L358.382 126.562L375.678 110.126C379.734 115.383 383.173 121.089 385.925 127.131C393.328 143.491 394.39 159.649 389.086 175.175C375.678 214.311 370.121 241.336 381.544 263.626C382.771 266.015 382.809 268.051 381.677 270.112C379.509 274.132 371.082 281.971 339.045 289.323C323.936 292.793 309.479 294.747 304.15 295.404L298.656 289.614C292.126 268.177 282.404 262.165 267.801 253.132C266.537 252.344 265.203 251.516 263.8 250.648C262.099 249.586 260.114 248.416 258.009 247.183C247.85 241.229 233.937 233.067 222.457 219.59C216.327 212.434 211.511 204.25 208.233 195.416C204.44 185.138 202.683 173.664 203.005 161.28C203.222 148.56 206.301 136.052 212.014 124.685C216.684 115.629 222.931 107.478 230.46 100.613C231.926 99.2597 233.399 97.9954 234.847 96.8196L234.86 96.8954ZM255.632 79.0435C255.632 79.0435 200.142 99.9045 198.549 161.173C196.956 222.441 244.228 243.656 261.467 254.478C278.706 265.301 288.15 269.505 294.731 291.971L302.481 300.133C302.481 300.133 399.795 289.639 385.502 261.685C375.337 241.816 379.496 216.935 393.283 176.686C407.071 136.437 376.089 103.754 376.089 103.754L354.046 124.679L353.736 136.614C343.381 135.608 326.212 131.658 320.017 131.658C319.617 131.655 319.218 131.678 318.822 131.727C314.03 132.397 310.414 149.029 310.414 149.029C300.863 147.98 293.972 137.448 283.162 123.623C272.485 109.943 245.075 109.874 244.513 109.874C247.983 98.8172 239.272 96.9966 239.272 96.9966C248.944 92.4704 255.664 79.1067 255.664 79.1067L255.632 79.0435Z" fill="#4C3133"/>
<path d="M294.731 291.952C294.731 291.952 287.297 302.111 299.03 310.38C299.03 310.38 292.455 318.168 303.366 327.214C303.366 327.214 296.627 341.368 318.911 341.949C341.194 342.531 388.555 331.481 398.91 312.504C405.301 300.79 398.176 294.645 398.176 294.645C398.176 294.645 402.601 282.268 392.98 280.175C392.98 280.175 397.98 264.814 385.502 261.666C385.502 261.666 377.985 275.004 359.432 284.082C340.878 293.16 316.034 300.468 294.731 291.952Z" fill="#FFD900"/>
<path d="M385.502 261.666C397.98 264.827 392.98 280.176 392.98 280.176C402.582 282.268 398.176 294.646 398.176 294.646C398.176 294.646 405.301 300.79 398.91 312.504C388.795 331.007 343.539 341.975 320.63 341.975C320.042 341.975 319.467 341.975 318.911 341.975C296.627 341.368 303.391 327.214 303.391 327.214C292.48 318.168 299.055 310.38 299.055 310.38C287.322 302.111 294.756 291.953 294.756 291.953C301.345 294.529 308.366 295.816 315.44 295.746C330.953 295.746 346.707 290.334 359.457 284.101C378.011 275.024 385.527 261.685 385.527 261.685L385.502 261.666ZM385.527 257.26C384.746 257.261 383.979 257.468 383.304 257.861C382.629 258.254 382.07 258.819 381.684 259.498C381.57 259.694 374.426 271.857 357.523 280.125C347.079 285.233 331.301 291.321 315.447 291.321C308.937 291.393 302.474 290.219 296.406 287.863C295.494 287.498 294.486 287.447 293.542 287.719C292.598 287.99 291.771 288.568 291.191 289.361C290.767 289.936 287.113 295.17 288.22 301.934C288.872 305.629 290.725 309.004 293.492 311.537C292.808 313.474 292.547 315.534 292.727 317.58C293.081 321.487 294.965 325.166 298.347 328.605C297.553 331.981 298.097 335.533 299.864 338.517C302.917 343.498 309.296 346.147 318.829 346.394C319.423 346.394 320.036 346.394 320.662 346.394C333.305 346.394 351.106 343.233 365.981 338.378C379.256 334.035 396.4 326.367 402.823 314.615C408.512 304.223 405.471 297.023 403.082 293.584C403.714 290.619 404.258 285.663 401.982 281.573C401.064 279.918 399.739 278.526 398.132 277.527C398.651 274.057 398.764 268.968 396.337 264.568C394.352 260.977 390.989 258.493 386.614 257.387C386.259 257.299 385.893 257.254 385.527 257.254V257.26Z" fill="#4C3133"/>
<path d="M331.838 341.084C309.555 340.502 316.034 329.073 316.034 329.073C305.123 320.027 311.609 312.637 311.609 312.637C305.231 308.142 307.115 298.932 307.816 295.259C303.339 294.724 298.949 293.613 294.756 291.953C294.756 291.953 287.322 302.111 299.055 310.38C299.055 310.38 292.48 318.168 303.391 327.214C303.391 327.214 296.653 341.368 318.936 341.95C325.062 342.108 333.09 341.387 341.694 339.863C338.937 340.047 334.133 341.14 331.838 341.084Z" fill="#FDC509"/>
<path d="M312.57 314.881C302.5 314.881 296.513 313.281 296.166 313.193C295.599 313.038 295.117 312.664 294.826 312.153C294.535 311.643 294.459 311.038 294.614 310.471C294.769 309.905 295.143 309.423 295.653 309.132C296.164 308.841 296.769 308.764 297.335 308.919C297.474 308.957 308.613 311.89 325.984 309.552C342.035 307.364 366.866 300.069 393.966 277.767C394.422 277.429 394.99 277.28 395.553 277.349C396.116 277.419 396.631 277.702 396.992 278.14C397.352 278.578 397.53 279.138 397.49 279.704C397.449 280.27 397.192 280.798 396.773 281.18C368.769 304.241 343.002 311.739 326.313 313.97C321.757 314.578 317.166 314.882 312.57 314.881V314.881Z" fill="#4C3133"/>
<path d="M318.222 332.518C307.728 332.518 301.065 331.001 300.679 330.912C300.396 330.847 300.129 330.726 299.892 330.557C299.656 330.388 299.455 330.174 299.301 329.928C298.991 329.43 298.891 328.829 299.023 328.257C299.156 327.685 299.51 327.19 300.008 326.879C300.506 326.569 301.107 326.469 301.678 326.601C301.868 326.645 314.922 329.572 333.096 327.056C349.842 324.742 374.515 317.182 396.944 294.336C397.354 293.917 397.915 293.678 398.502 293.672C399.088 293.666 399.654 293.893 400.073 294.304C400.492 294.715 400.731 295.275 400.737 295.862C400.743 296.449 400.515 297.014 400.104 297.433C376.721 321.234 350.992 329.073 333.507 331.469C328.441 332.162 323.335 332.513 318.222 332.518Z" fill="#4C3133"/>
<path d="M282.126 235.078C282.126 235.078 288.795 256.103 301.596 263.834C314.397 271.565 323.304 289.955 323.304 289.955" fill="white"/>
<path d="M323.304 292.168C322.887 292.166 322.478 292.047 322.126 291.823C321.774 291.599 321.492 291.28 321.313 290.903C321.224 290.726 312.526 273.007 300.452 265.712C287.094 257.646 280.299 236.633 280.014 235.735C279.849 235.18 279.908 234.581 280.179 234.069C280.451 233.557 280.912 233.171 281.465 232.996C282.017 232.82 282.616 232.868 283.134 233.13C283.651 233.392 284.045 233.846 284.231 234.395C284.294 234.597 290.818 254.725 302.74 261.925C315.946 269.903 324.922 288.204 325.295 288.975C325.55 289.504 325.586 290.111 325.394 290.666C325.202 291.22 324.798 291.676 324.271 291.934C323.97 292.081 323.64 292.161 323.304 292.168Z" fill="#4C3133"/>
<path d="M314.517 239.174C312.153 237.752 310.009 235.993 308.151 233.953C304.637 230.248 303.006 237.429 301.526 238.833C300.047 240.236 294.364 236.481 292.866 238.612C291.368 240.742 289.073 245.73 289.073 245.73" fill="white"/>
<path d="M289.067 247.942C288.748 247.943 288.433 247.874 288.144 247.74C287.879 247.619 287.641 247.448 287.443 247.235C287.245 247.022 287.091 246.772 286.99 246.499C286.889 246.227 286.843 245.937 286.855 245.646C286.866 245.356 286.935 245.071 287.056 244.807C287.158 244.598 289.459 239.604 291.058 237.335C292.771 234.901 295.938 235.799 298.252 236.45C298.892 236.642 299.542 236.801 300.199 236.924C300.389 236.595 300.648 236.096 300.831 235.723C301.88 233.662 303.195 231.089 305.692 230.729C306.679 230.59 308.17 230.767 309.751 232.429C311.45 234.289 313.401 235.902 315.548 237.221C316.066 237.497 316.453 237.967 316.624 238.528C316.796 239.09 316.737 239.696 316.461 240.214C316.185 240.732 315.715 241.119 315.154 241.291C314.592 241.462 313.986 241.403 313.468 241.128C310.885 239.595 308.542 237.691 306.514 235.476C306.433 235.387 306.346 235.302 306.255 235.223C305.66 236.008 305.153 236.856 304.744 237.752C304.319 238.741 303.736 239.655 303.018 240.458C301.425 241.968 299.086 241.305 297.019 240.723C296.186 240.454 295.329 240.267 294.459 240.167C293.201 242.272 292.061 244.446 291.045 246.678C290.867 247.053 290.588 247.371 290.238 247.594C289.888 247.818 289.482 247.938 289.067 247.942V247.942Z" fill="#4C3133"/>
<path d="M368.465 275.239C368.465 275.239 364.204 272.242 363.863 257.791C363.522 243.34 363.054 233.213 362.024 217.295" fill="white"/>
<path d="M367.188 277.047C366.322 276.414 362.005 272.659 361.651 257.842C361.303 243.46 360.841 233.27 359.817 217.441C359.78 216.854 359.977 216.276 360.365 215.835C360.753 215.393 361.301 215.124 361.888 215.086C362.474 215.048 363.052 215.245 363.494 215.634C363.935 216.022 364.205 216.57 364.242 217.156C365.267 233.049 365.734 243.29 366.082 257.734C366.385 270.415 369.793 273.462 369.824 273.494L369.767 273.443L367.188 277.047Z" fill="#4C3133"/>
<path d="M343.362 240.647C343.362 240.647 347.825 235.703 349.956 237.208C352.086 238.713 354.912 240.944 361.764 227.403" fill="white"/>
<path d="M343.362 242.853C342.813 242.856 342.283 242.653 341.877 242.284C341.444 241.89 341.184 241.34 341.154 240.755C341.125 240.17 341.328 239.597 341.719 239.161C343.078 237.663 347.769 232.96 351.201 235.369L351.29 235.432C352.092 236.001 352.39 236.165 352.718 236.064C353.287 235.925 355.493 234.8 359.76 226.36C360.025 225.836 360.488 225.439 361.045 225.256C361.603 225.073 362.211 225.119 362.735 225.384C363.259 225.649 363.656 226.111 363.839 226.669C364.022 227.226 363.976 227.834 363.711 228.358C359.919 235.9 356.834 239.604 353.787 240.369C351.53 240.931 349.874 239.844 348.85 239.105C348.072 239.275 346.277 240.653 344.981 242.076C344.781 242.312 344.534 242.504 344.255 242.638C343.976 242.772 343.672 242.845 343.362 242.853V242.853Z" fill="#4C3133"/>
<path d="M244.209 110.24L231.75 117.137L233.69 125.854L226.781 141.563" fill="white"/>
<path d="M226.781 143.776C226.474 143.774 226.17 143.71 225.889 143.586C225.623 143.47 225.383 143.302 225.182 143.092C224.981 142.882 224.824 142.635 224.718 142.364C224.613 142.093 224.563 141.804 224.569 141.514C224.576 141.224 224.64 140.938 224.758 140.672L231.37 125.627L229.588 117.617C229.485 117.151 229.536 116.663 229.733 116.228C229.93 115.793 230.263 115.433 230.681 115.203L243.135 108.306C243.389 108.153 243.672 108.054 243.966 108.013C244.26 107.972 244.559 107.991 244.845 108.068C245.132 108.145 245.4 108.279 245.634 108.462C245.867 108.645 246.062 108.873 246.205 109.133C246.349 109.392 246.439 109.678 246.47 109.973C246.501 110.268 246.473 110.566 246.386 110.85C246.3 111.134 246.157 111.398 245.966 111.625C245.776 111.853 245.542 112.039 245.278 112.175L234.272 118.268L235.852 125.374C235.952 125.834 235.903 126.315 235.713 126.746L228.797 142.455C228.626 142.847 228.344 143.18 227.985 143.415C227.627 143.65 227.209 143.775 226.781 143.776Z" fill="#4C3133"/>
<path d="M311.736 151.716L318.007 160.547L311.154 174.088L317.387 184.36" fill="white"/>
<path d="M317.387 186.573C317.007 186.573 316.632 186.475 316.3 186.289C315.968 186.103 315.69 185.835 315.491 185.511L309.264 175.238C309.068 174.917 308.958 174.55 308.943 174.174C308.929 173.798 309.011 173.424 309.182 173.089L315.402 160.737L309.902 152.993C309.628 152.514 309.542 151.949 309.662 151.41C309.782 150.871 310.1 150.396 310.552 150.079C311.004 149.762 311.559 149.626 312.107 149.697C312.654 149.768 313.156 150.042 313.512 150.464L319.783 159.314C320.017 159.643 320.156 160.029 320.186 160.431C320.216 160.834 320.136 161.236 319.954 161.596L313.632 174.043L319.227 183.26C319.53 183.763 319.621 184.365 319.482 184.934C319.342 185.504 318.982 185.996 318.481 186.301C318.147 186.486 317.769 186.58 317.387 186.573Z" fill="#4C3133"/>
<path d="M225.207 322.783C224.843 322.782 224.486 322.692 224.165 322.521C223.845 322.35 223.571 322.104 223.367 321.803L213.253 306.669C213.081 306.428 212.96 306.156 212.896 305.867C212.832 305.579 212.827 305.28 212.88 304.99C212.933 304.699 213.044 304.422 213.206 304.175C213.368 303.928 213.578 303.716 213.823 303.551C214.069 303.387 214.345 303.273 214.635 303.216C214.925 303.16 215.223 303.162 215.512 303.223C215.801 303.284 216.075 303.402 216.318 303.571C216.561 303.739 216.767 303.954 216.925 304.204L227.04 319.338C227.263 319.671 227.392 320.059 227.412 320.459C227.432 320.86 227.343 321.259 227.154 321.612C226.965 321.966 226.684 322.262 226.339 322.468C225.995 322.675 225.601 322.783 225.2 322.783H225.207Z" fill="#4C3133"/>
<path d="M212.873 320.602C212.407 320.603 211.952 320.456 211.574 320.183C211.195 319.91 210.913 319.524 210.767 319.081C210.621 318.638 210.619 318.16 210.761 317.715C210.904 317.271 211.182 316.883 211.558 316.607L225.769 306.138C226.241 305.789 226.832 305.642 227.413 305.73C227.993 305.817 228.515 306.131 228.864 306.603C229.212 307.075 229.359 307.666 229.272 308.246C229.185 308.827 228.871 309.348 228.399 309.697L214.188 320.172C213.807 320.451 213.346 320.602 212.873 320.602V320.602Z" fill="#4C3133"/>
<path d="M450.342 88.0644C449.978 88.0653 449.62 87.9764 449.299 87.8054C448.978 87.6345 448.704 87.3868 448.502 87.0846L437.073 70.0165C436.746 69.5286 436.626 68.9308 436.74 68.3546C436.854 67.7785 437.192 67.2711 437.68 66.9442C438.167 66.6172 438.765 66.4975 439.341 66.6113C439.918 66.7251 440.425 67.0632 440.752 67.551L452.181 84.6192C452.405 84.9523 452.533 85.34 452.554 85.7407C452.574 86.1414 452.484 86.5401 452.295 86.894C452.107 87.2479 451.825 87.5438 451.481 87.7499C451.136 87.9561 450.743 88.0648 450.342 88.0644V88.0644Z" fill="#4C3133"/>
<path d="M436.44 85.605C435.974 85.606 435.519 85.4594 435.141 85.1862C434.763 84.9131 434.48 84.5274 434.334 84.0842C434.189 83.641 434.187 83.1631 434.329 82.7187C434.471 82.2743 434.75 81.8862 435.126 81.6099L451.144 69.8075C451.377 69.6211 451.645 69.4835 451.932 69.4032C452.219 69.3228 452.519 69.3013 452.815 69.3399C453.111 69.3786 453.395 69.4765 453.652 69.6279C453.909 69.7793 454.132 69.9811 454.309 70.221C454.486 70.461 454.613 70.7342 454.681 71.0243C454.75 71.3144 454.759 71.6154 454.709 71.9092C454.658 72.203 454.549 72.4835 454.387 72.7339C454.225 72.9844 454.015 73.1996 453.768 73.3666L437.749 85.1752C437.37 85.4552 436.911 85.606 436.44 85.605V85.605Z" fill="#4C3133"/>
<path d="M347.819 78.8915C354.707 78.8915 360.292 73.3075 360.292 66.4192C360.292 59.5309 354.707 53.9468 347.819 53.9468C340.931 53.9468 335.347 59.5309 335.347 66.4192C335.347 73.3075 340.931 78.8915 347.819 78.8915Z" fill="#C5E6F1"/>
<path d="M347.825 81.1043H347.44C343.512 81.0534 339.763 79.4507 337.013 76.6461C334.262 73.8416 332.733 70.0628 332.758 66.1346C332.784 62.2064 334.362 58.4478 337.149 55.6791C339.935 52.9104 343.704 51.3564 347.633 51.3564C351.561 51.3564 355.33 52.9104 358.116 55.6791C360.903 58.4478 362.481 62.2064 362.507 66.1346C362.532 70.0628 361.003 73.8416 358.252 76.6461C355.502 79.4507 351.753 81.0534 347.825 81.1043V81.1043ZM347.825 56.1659C345.197 56.2026 342.69 57.2772 340.851 59.1552C339.012 61.0333 337.99 63.5624 338.008 66.1909C338.027 68.8193 339.084 71.3339 340.949 73.1861C342.814 75.0383 345.336 76.0777 347.964 76.0777C350.593 76.0777 353.115 75.0383 354.98 73.1861C356.845 71.3339 357.902 68.8193 357.921 66.1909C357.939 63.5624 356.917 61.0333 355.078 59.1552C353.239 57.2772 350.732 56.2026 348.103 56.1659H347.825Z" fill="#4C3133"/>
<path d="M303.815 122.662C308.734 122.662 312.722 118.674 312.722 113.755C312.722 108.835 308.734 104.848 303.815 104.848C298.896 104.848 294.908 108.835 294.908 113.755C294.908 118.674 298.896 122.662 303.815 122.662Z" fill="#C5E6F1"/>
<path d="M303.821 124.887H303.524C301.326 124.829 299.194 124.12 297.399 122.851C295.604 121.581 294.225 119.808 293.437 117.755C292.649 115.702 292.488 113.461 292.973 111.317C293.459 109.172 294.569 107.22 296.164 105.706C297.759 104.192 299.767 103.185 301.934 102.813C304.101 102.44 306.33 102.718 308.339 103.612C310.348 104.506 312.047 105.976 313.221 107.835C314.395 109.694 314.991 111.86 314.934 114.058C314.857 116.955 313.653 119.707 311.577 121.73C309.502 123.752 306.719 124.885 303.821 124.887V124.887ZM303.821 107.073C302.505 107.075 301.219 107.464 300.123 108.193C299.027 108.922 298.17 109.958 297.66 111.171C297.149 112.384 297.007 113.721 297.252 115.014C297.497 116.307 298.118 117.499 299.037 118.441C299.956 119.384 301.132 120.034 302.419 120.312C303.705 120.589 305.045 120.481 306.271 120.001C307.496 119.521 308.553 118.691 309.309 117.614C310.065 116.536 310.487 115.26 310.522 113.945V113.945C310.571 112.17 309.915 110.449 308.697 109.158C307.478 107.868 305.798 107.113 304.024 107.06L303.821 107.073Z" fill="#4C3133"/>
<path d="M286.538 19.5514C291.457 19.5514 295.445 15.5636 295.445 10.6443C295.445 5.72512 291.457 1.7373 286.538 1.7373C281.619 1.7373 277.631 5.72512 277.631 10.6443C277.631 15.5636 281.619 19.5514 286.538 19.5514Z" fill="#C5E6F1"/>
<path d="M286.544 21.7703H286.247C283.373 21.7311 280.632 20.5569 278.62 18.5038C276.609 16.4508 275.491 13.6855 275.51 10.8114C275.53 7.93726 276.685 5.18754 278.725 3.16212C280.764 1.13671 283.522 0 286.396 0C289.27 0 292.028 1.13671 294.067 3.16212C296.106 5.18754 297.262 7.93726 297.281 10.8114C297.301 13.6855 296.183 16.4508 294.172 18.5038C292.16 20.5569 289.418 21.7311 286.544 21.7703V21.7703ZM286.544 3.94994C284.769 3.92731 283.057 4.61091 281.786 5.85036C280.514 7.08982 279.787 8.78361 279.765 10.5591C279.742 12.3346 280.426 14.0464 281.665 15.3178C282.904 16.5893 284.598 17.3163 286.374 17.3389C287.254 17.3677 288.131 17.2198 288.953 16.9038C289.775 16.5879 290.525 16.1103 291.159 15.4994C292.12 14.5894 292.79 13.4146 293.083 12.1238C293.377 10.833 293.28 9.48417 292.806 8.24817C292.332 7.01217 291.503 5.94457 290.422 5.18054C289.341 4.41652 288.057 3.99044 286.734 3.95626L286.544 3.94994Z" fill="#4C3133"/>
<path d="M193.289 233.403C187.6 229.648 179.477 227.081 168.458 225.646L183.339 107.541C185.084 93.735 176.556 84.6194 159.949 82.5269C146.15 80.7885 133.974 85.0556 123.752 95.1321L29.4668 192.996L13.663 206.353L13.5113 206.486C5.29329 213.857 0.899825 220.45 0.122277 226.651C-0.554126 232.006 1.02625 241.76 19.1564 246.88C25.3009 248.65 35.8326 250.458 51.3456 252.418L116.135 262.065L112.816 289.5C112.721 290.233 112.456 291.928 111.697 295.822C111.027 299.279 110.578 301.916 110.332 303.882C109.213 312.732 110.269 319.685 113.562 325.103C116.091 329.275 121.312 334.528 131.686 335.85C145.789 337.632 155.196 330.856 156.852 317.726L162.977 269.101C174.805 270.7 179.413 270.599 181.898 270.321C193.959 269.094 201.324 262.646 202.645 252.165C203.587 244.68 200.268 238.043 193.289 233.403ZM129.897 152.664L121.521 219.078L75.0324 212.175C89.7236 196.953 108.056 177.04 129.897 152.664Z" fill="#F0F0F0"/>
<path d="M587.531 211.176C581.311 208.502 572.916 207.44 561.879 207.946L555.702 89.7711C554.988 75.9585 545.038 68.5371 528.438 69.4031C514.631 70.1238 503.461 76.4137 495.243 88.0959L420.15 200.404L407.064 216.24L406.944 216.398C400.18 225.052 397.051 232.277 397.38 238.479C397.658 243.839 400.913 253.1 419.556 254.915C425.877 255.547 436.504 255.49 452.023 254.681L517.097 252.784L518.658 280.207C518.703 280.947 518.734 282.647 518.658 286.592C518.614 290.094 518.658 292.755 518.74 294.715C519.208 303.603 521.459 310.209 525.625 314.944C528.849 318.585 534.867 322.802 545.221 322.264C559.331 321.525 567.347 313.243 566.658 300.107L564.129 251.431C575.982 250.926 580.476 250.015 582.853 249.314C594.434 245.995 600.516 238.39 599.966 227.903C599.593 220.399 595.174 214.463 587.531 211.176ZM511.332 143.308L514.802 209.779L468.105 211.189C479.8 193.71 494.301 170.99 511.332 143.308Z" fill="#F0F0F0"/>
<path d="M38.5699 169.821C38.1293 169.823 37.6979 169.694 37.3311 169.45C36.9643 169.206 36.6787 168.858 36.5109 168.45C36.3432 168.043 36.301 167.595 36.3896 167.163C36.4782 166.732 36.6937 166.336 37.0085 166.028L94.1488 109.349C94.3563 109.144 94.6021 108.983 94.8722 108.873C95.1422 108.763 95.4312 108.708 95.7227 108.71C96.0141 108.712 96.3023 108.772 96.5708 108.885C96.8393 108.998 97.0828 109.164 97.2874 109.371C97.492 109.579 97.6538 109.824 97.7634 110.095C97.8731 110.365 97.9284 110.654 97.9264 110.945C97.9243 111.236 97.8649 111.525 97.7515 111.793C97.638 112.062 97.4728 112.305 97.2653 112.51L40.1313 169.182C39.7141 169.591 39.1537 169.82 38.5699 169.821Z" fill="#F0F0F0"/>
<path d="M102.86 105.094C102.439 105.097 102.026 104.98 101.669 104.755C101.313 104.531 101.028 104.209 100.849 103.829C100.67 103.448 100.603 103.024 100.657 102.606C100.711 102.188 100.883 101.795 101.153 101.472L108.334 92.8053C108.709 92.3535 109.248 92.069 109.832 92.0145C110.417 91.9599 110.999 92.1398 111.451 92.5145C111.903 92.8892 112.187 93.4281 112.242 94.0125C112.296 94.597 112.116 95.1792 111.742 95.631L104.56 104.298C104.353 104.547 104.093 104.748 103.799 104.885C103.505 105.023 103.184 105.094 102.86 105.094Z" fill="#F0F0F0"/>
<path d="M449.235 264.018C448.648 264.027 448.082 263.803 447.66 263.394C447.239 262.986 446.997 262.427 446.988 261.84C446.979 261.253 447.203 260.687 447.611 260.265C448.02 259.844 448.579 259.602 449.166 259.593L505.048 257.841C505.338 257.832 505.628 257.88 505.9 257.983C506.172 258.086 506.421 258.241 506.633 258.44C506.845 258.639 507.015 258.878 507.135 259.143C507.255 259.408 507.321 259.694 507.33 259.984C507.339 260.275 507.291 260.564 507.188 260.836C507.085 261.108 506.93 261.357 506.731 261.569C506.532 261.781 506.293 261.952 506.028 262.071C505.763 262.191 505.477 262.257 505.187 262.266L449.279 264.018H449.235Z" fill="#F0F0F0"/>
<path d="M427.925 264.682C427.635 264.686 427.346 264.633 427.076 264.527C426.806 264.42 426.559 264.26 426.351 264.058C426.142 263.856 425.975 263.615 425.86 263.348C425.744 263.081 425.683 262.794 425.678 262.504C425.673 262.213 425.726 261.925 425.833 261.655C425.94 261.384 426.099 261.138 426.301 260.929C426.504 260.72 426.745 260.554 427.012 260.438C427.278 260.323 427.565 260.261 427.856 260.257L438.855 259.915C439.146 259.906 439.435 259.954 439.707 260.057C439.979 260.16 440.228 260.315 440.44 260.514C440.652 260.713 440.823 260.952 440.942 261.217C441.062 261.482 441.128 261.768 441.137 262.058C441.146 262.349 441.098 262.638 440.995 262.91C440.893 263.182 440.737 263.431 440.538 263.643C440.339 263.855 440.101 264.026 439.836 264.145C439.571 264.265 439.285 264.331 438.994 264.34L427.995 264.682H427.925Z" fill="#F0F0F0"/>
<path d="M335.606 421.051C382.811 421.051 421.079 414.247 421.079 405.854C421.079 397.461 382.811 390.657 335.606 390.657C288.4 390.657 250.132 397.461 250.132 405.854C250.132 414.247 288.4 421.051 335.606 421.051Z" fill="#F0F0F0"/>
<path d="M387.088 395.941C390.097 402.042 399.377 402.32 404.788 398.192C410.2 394.064 412.665 387.243 414.865 380.814L418.114 371.332C411.793 376.781 401.899 373.759 393.979 376.389C390.533 377.621 387.556 379.897 385.464 382.899C383.371 385.902 382.266 389.481 382.303 393.141" fill="#E2E2E0"/>
<path d="M396.273 403.167C395.118 403.17 393.966 403.041 392.841 402.781C391.194 402.448 389.643 401.748 388.304 400.733C386.964 399.719 385.87 398.416 385.103 396.921C384.87 396.399 384.849 395.807 385.042 395.27C385.236 394.732 385.631 394.29 386.143 394.037C386.656 393.783 387.246 393.738 387.791 393.911C388.336 394.083 388.793 394.46 389.067 394.962C389.551 395.866 390.232 396.652 391.059 397.26C391.885 397.868 392.838 398.283 393.846 398.476C395.498 398.835 397.207 398.838 398.86 398.486C400.513 398.134 402.073 397.435 403.436 396.435C408.493 392.572 410.857 385.688 412.76 380.1L414.182 375.934C411.021 376.945 407.545 377.097 404.169 377.242C400.793 377.388 397.544 377.533 394.687 378.507C391.691 379.59 389.105 381.574 387.284 384.186C385.463 386.799 384.495 389.912 384.515 393.097C384.533 393.684 384.317 394.253 383.914 394.681C383.512 395.108 382.956 395.358 382.369 395.376C381.782 395.393 381.213 395.177 380.785 394.775C380.358 394.372 380.108 393.816 380.09 393.23C380.024 389.091 381.262 385.036 383.629 381.64C385.996 378.244 389.371 375.68 393.277 374.309C396.741 373.152 400.427 372.988 403.986 372.836C408.859 372.621 413.468 372.419 416.673 369.675C417.041 369.361 417.502 369.176 417.986 369.149C418.469 369.121 418.948 369.253 419.35 369.525C419.751 369.796 420.052 370.191 420.207 370.65C420.361 371.109 420.361 371.606 420.207 372.065L416.957 381.547C414.859 387.673 412.254 395.29 406.135 399.968C403.275 402.063 399.818 403.184 396.273 403.167Z" fill="#B9B9B9"/>
<path d="M378.744 396.201C378.112 396.201 377.479 396.201 376.809 396.15C376.223 396.119 375.672 395.857 375.279 395.42C374.886 394.983 374.683 394.408 374.714 393.821C374.745 393.234 375.008 392.684 375.445 392.291C375.881 391.898 376.456 391.694 377.043 391.725C381.776 391.936 386.503 391.189 390.94 389.529C395.377 387.869 399.434 385.331 402.867 382.066C403.296 381.717 403.84 381.541 404.392 381.574C404.944 381.606 405.464 381.844 405.85 382.24C406.235 382.637 406.458 383.163 406.475 383.716C406.491 384.269 406.3 384.808 405.939 385.227C398.606 392.22 388.877 396.146 378.744 396.201V396.201Z" fill="#B9B9B9"/>
<path d="M304.965 416.72C304.965 416.72 295.16 424.774 284.218 416.79C273.275 408.806 275.892 391.321 275.892 391.321C275.892 391.321 289.25 386.895 293.593 394.564C293.593 394.564 289.699 397.49 293.011 400.518C296.324 403.546 297.765 397.99 297.765 397.99C297.765 397.99 308.777 402.364 304.965 416.72Z" fill="#E2E2E0"/>
<path d="M294.459 422.511C290.287 422.483 286.237 421.103 282.916 418.579C271.025 409.899 273.591 391.763 273.68 391.023C273.74 390.617 273.913 390.236 274.177 389.923C274.442 389.609 274.788 389.375 275.178 389.247C275.81 389.045 290.312 384.386 295.508 393.495C295.776 393.963 295.863 394.512 295.754 395.039C295.644 395.567 295.346 396.036 294.914 396.359C294.402 396.74 294.038 397.288 293.884 397.907C293.954 398.312 294.181 398.673 294.516 398.913C294.611 399 294.712 399.08 294.819 399.153C295.197 398.638 295.476 398.057 295.641 397.44C295.722 397.137 295.865 396.855 296.063 396.613C296.26 396.37 296.506 396.171 296.786 396.03C297.065 395.89 297.371 395.809 297.684 395.795C297.996 395.781 298.308 395.833 298.599 395.948C298.726 395.998 311.369 401.245 307.102 417.315C306.982 417.763 306.723 418.161 306.362 418.452C302.95 421.08 298.766 422.507 294.459 422.511V422.511ZM277.941 393.065C277.637 397.168 277.511 409.153 285.527 415.001C293.643 420.924 300.97 416.809 303.018 415.412C304.915 407.15 301.242 402.933 298.821 401.138C298.202 402.23 297.206 403.06 296.02 403.47C294.971 403.786 293.346 403.805 291.538 402.149C290.878 401.606 290.351 400.92 289.997 400.142C289.643 399.364 289.472 398.515 289.496 397.661C289.579 396.48 290.008 395.35 290.729 394.412C287.461 391.251 280.804 392.382 277.941 393.065V393.065Z" fill="#B9B9B9"/>
<path d="M319.827 423.997H319.65C318.594 423.908 293.669 421.683 282.075 402.269C281.905 402.02 281.787 401.739 281.73 401.442C281.672 401.146 281.676 400.841 281.741 400.546C281.806 400.251 281.931 399.972 282.107 399.727C282.284 399.482 282.509 399.276 282.768 399.122C283.028 398.967 283.316 398.867 283.615 398.828C283.915 398.789 284.219 398.811 284.509 398.894C284.8 398.977 285.07 399.118 285.304 399.31C285.537 399.501 285.729 399.738 285.868 400.006C296.273 417.429 319.764 419.565 320.004 419.603C320.591 419.627 321.144 419.882 321.543 420.314C321.941 420.745 322.152 421.317 322.128 421.904C322.105 422.491 321.849 423.044 321.417 423.443C320.986 423.841 320.414 424.052 319.827 424.028V423.997Z" fill="#B9B9B9"/>
<path d="M421.288 392.288C420.887 392.294 420.493 392.192 420.147 391.992C419.8 391.791 419.514 391.501 419.32 391.152C419.125 390.802 419.029 390.406 419.042 390.006C419.054 389.606 419.175 389.217 419.391 388.88C434.563 365.2 429.866 332.575 429.815 332.246C429.761 331.68 429.927 331.115 430.278 330.668C430.629 330.221 431.139 329.927 431.701 329.846C432.264 329.764 432.836 329.903 433.299 330.232C433.763 330.561 434.081 331.056 434.19 331.614C434.405 333.017 439.19 366.23 423.121 391.295C422.92 391.598 422.648 391.847 422.328 392.02C422.008 392.193 421.651 392.285 421.288 392.288Z" fill="#F0F0F0"/>
</svg>
