<svg width="600" height="520" viewBox="0 0 600 520" fill="none" xmlns="http://www.w3.org/2000/svg">
<path d="M537.794 159.599C509.411 153.21 483.759 161.047 461.537 182.907C443.055 201.217 430.417 225.015 423.983 253.62C416.445 287.141 415.511 316.025 421.221 339.492C429.077 370.898 448.721 390.345 479.606 397.287C508.389 403.765 532.917 397.115 552.503 377.529C571.556 358.476 586.164 326.657 596.021 282.898C602.226 255.328 601.171 230.127 592.877 207.956C583.045 181.91 564.507 165.62 537.794 159.599ZM487.78 360.87C472.245 357.377 462.483 347.787 457.93 331.547C453.166 314.558 454.259 290.342 461.181 259.577C465.386 240.918 473.382 225.072 484.96 212.49C498.494 197.807 513.025 192.453 529.417 196.136C544.196 199.464 553.665 207.568 558.372 220.963C563.268 234.903 562.887 254.706 557.235 279.818C551.798 303.952 544.253 323.462 534.803 337.72C521.713 357.472 506.337 365.043 487.78 360.87Z" fill="#F0F0F0"/>
<path d="M309.823 158.843C277.699 158.843 251.965 173.501 233.324 202.431C217.86 226.641 210.016 255.328 210.016 287.706C210.016 325.628 216.011 356.977 227.862 380.883C243.937 412.803 269.779 428.992 304.774 428.992C337.342 428.992 362.149 415.883 378.503 390.041C394.381 364.91 402.453 327.076 402.453 277.589C402.453 246.393 395.2 219.496 380.904 197.648C363.997 171.895 340.086 158.843 309.823 158.843ZM304.742 387.761C287.162 387.761 274.327 379.796 265.486 363.411C256.239 346.263 251.546 319.919 251.546 285.096C251.546 263.979 256.322 244.976 265.747 228.616C276.759 209.512 291.119 200.227 309.639 200.227C326.367 200.227 338.536 206.679 346.849 219.953C355.5 233.786 359.888 255.208 359.888 283.629C359.888 310.938 356.484 333.802 349.765 351.433C340.486 375.878 325.758 387.761 304.761 387.761H304.742Z" fill="#F0F0F0"/>
<path d="M376.477 174.575C376.14 174.575 375.806 174.499 375.502 174.351C375.199 174.204 374.933 173.989 374.724 173.724C353.613 146.757 316.199 148.751 315.825 148.777C315.235 148.814 314.655 148.615 314.212 148.224C313.769 147.834 313.499 147.283 313.462 146.694C313.425 146.104 313.624 145.524 314.014 145.081C314.405 144.638 314.956 144.368 315.545 144.331C323.204 144.096 330.859 144.888 338.307 146.687C355.08 150.625 368.888 159.021 378.243 170.98C378.501 171.307 378.661 171.7 378.706 172.115C378.75 172.529 378.677 172.947 378.495 173.322C378.312 173.696 378.028 174.012 377.675 174.233C377.321 174.453 376.913 174.569 376.496 174.568L376.477 174.575Z" fill="#F0F0F0"/>
<path d="M384.175 185.327C383.82 185.327 383.471 185.243 383.156 185.08C382.841 184.918 382.57 184.682 382.365 184.393L379.291 180.094C378.948 179.614 378.81 179.017 378.907 178.435C379.004 177.853 379.328 177.334 379.808 176.991C380.288 176.648 380.885 176.51 381.467 176.607C382.049 176.705 382.568 177.029 382.911 177.509L385.978 181.808C386.149 182.046 386.271 182.314 386.337 182.598C386.403 182.882 386.413 183.177 386.365 183.465C386.317 183.753 386.213 184.029 386.058 184.276C385.904 184.524 385.702 184.739 385.464 184.908C385.089 185.181 384.638 185.328 384.175 185.327Z" fill="#F0F0F0"/>
<path d="M300.633 441.421C300.043 441.434 299.473 441.213 299.046 440.806C298.62 440.398 298.373 439.838 298.359 439.249C298.346 438.659 298.567 438.088 298.974 437.662C299.382 437.235 299.942 436.988 300.531 436.975C305.586 436.725 310.617 436.129 315.59 435.19C315.88 435.129 316.179 435.127 316.47 435.183C316.761 435.239 317.037 435.353 317.284 435.518C317.53 435.683 317.741 435.895 317.904 436.143C318.067 436.39 318.179 436.668 318.233 436.959C318.287 437.25 318.283 437.549 318.219 437.839C318.156 438.128 318.036 438.402 317.865 438.645C317.695 438.887 317.478 439.093 317.226 439.25C316.975 439.407 316.695 439.512 316.403 439.56C311.229 440.538 305.994 441.158 300.735 441.414L300.633 441.421Z" fill="#F0F0F0"/>
<path d="M283.841 440.716C283.739 440.725 283.637 440.725 283.536 440.716C256.792 437.064 239.415 421.86 229.552 409.754C218.888 396.678 214.576 384.598 214.398 384.09C214.226 383.54 214.274 382.944 214.532 382.429C214.79 381.914 215.238 381.519 215.782 381.328C216.326 381.137 216.923 381.164 217.446 381.405C217.97 381.645 218.38 382.08 218.59 382.616C218.634 382.737 222.883 394.582 233.096 407.068C246.7 423.701 263.873 433.539 284.139 436.283C284.729 436.322 285.278 436.595 285.667 437.039C286.056 437.484 286.252 438.065 286.213 438.655C286.173 439.244 285.901 439.794 285.456 440.183C285.011 440.572 284.43 440.768 283.841 440.729V440.716Z" fill="#F0F0F0"/>
<path d="M89.8161 236.98C74.6243 242.029 62.4684 249.212 53.5261 258.408C50.5792 243.642 48.8581 235.691 47.8102 231.226L63.98 225.313L84.9003 217.946C85.4084 217.774 87.0343 217.311 91.8865 215.894C95.8877 214.751 99.2728 213.722 101.953 212.833C112.712 209.257 120.276 205.288 125.077 200.703C132.311 193.793 131.974 186.73 130.412 182.043C129.642 179.769 128.414 177.677 126.802 175.898C125.191 174.118 123.231 172.688 121.044 171.697C118.905 170.613 116.571 169.965 114.179 169.791C111.787 169.616 109.384 169.919 107.11 170.681C104.508 171.652 102.007 172.873 99.6411 174.327C97.8849 175.422 96.0284 176.347 94.0967 177.089C91.8865 177.826 88.4696 178.868 83.935 180.189C79.1653 181.586 75.7231 182.634 73.4049 183.409C68.5019 185.035 61.376 187.588 51.6335 191.201C42.1895 194.707 34.981 197.292 30.2114 198.873C28.6808 199.382 26.242 200.036 22.9521 200.823C19.2812 201.706 16.6011 202.424 14.7847 203.033C-1.16283 208.33 -0.877034 217.165 0.717081 221.953C1.52367 224.379 3.37818 227.193 6.541 230.8C8.41655 232.825 9.87536 235.199 10.8343 237.786C13.4954 245.801 17.8205 263.508 23.6444 290.449C27.7472 308.785 28.7633 312.621 29.1889 313.91C29.9344 316.181 31.1201 318.283 32.6782 320.096C34.2363 321.908 36.1362 323.396 38.2695 324.474C40.4028 325.552 42.7275 326.2 45.111 326.379C47.4945 326.558 49.89 326.267 52.1606 325.52C57.4257 323.773 61.6872 319.677 64.7421 313.351L73.4621 293.86C76.1549 288.392 79.178 284.136 82.4806 281.228C86.7675 277.417 93.0868 274.14 101.261 271.422C110.152 268.462 117.519 270.151 124.417 276.617C130.26 282.225 135.118 290.78 138.865 302.021C143.381 315.612 143.089 328.244 137.963 340.635C132.705 353.376 123.851 361.657 110.889 365.97C102.632 368.707 95.6463 369.304 90.0955 367.735C88.8253 367.392 85.6498 366.122 78.0984 361.422C72.3824 357.904 66.9268 356.977 61.9222 358.634C57.3522 360.152 53.5468 363.379 51.3032 367.64C50.0702 369.754 49.3006 372.106 49.0455 374.54C48.7904 376.974 49.0556 379.435 49.8234 381.758C51.0708 385.226 53.2724 388.271 56.1745 390.542C74.637 405.53 96.9102 408.839 122.372 400.373C146.232 392.441 163.018 377.719 172.253 356.608C181.1 336.444 181.589 314.19 173.701 290.449C167.115 270.647 157.188 255.487 144.118 245.357C128.151 233.131 109.911 230.305 89.8161 236.98Z" fill="#F0F0F0"/>
<path d="M302.246 519.97C349.672 519.97 388.119 513.135 388.119 504.703C388.119 496.27 349.672 489.435 302.246 489.435C254.82 489.435 216.373 496.27 216.373 504.703C216.373 513.135 254.82 519.97 302.246 519.97Z" fill="#F0F0F0"/>
<path d="M174.838 159.008C160.497 189.493 169.833 281.958 246.605 348.543C306.717 400.685 356.675 370.879 388.913 340.572C419.582 311.745 460.044 233.239 434.304 213.602C401.805 188.833 341.991 269.11 311.322 258.059C284.222 248.304 278.195 173.412 250.593 148.262C216.85 117.529 184.675 138.151 174.838 159.008Z" fill="#C5E6F1"/>
<path d="M215.199 132.651C226.103 132.651 238.247 137.027 250.593 148.275C278.195 173.425 284.222 248.317 311.322 258.072C313.362 258.789 315.511 259.143 317.673 259.12C345.052 259.12 388.741 208.826 419.817 208.832C425.052 208.742 430.163 210.423 434.323 213.602C460.083 233.227 419.601 311.745 388.932 340.572C369.459 358.876 343.534 376.995 312.808 376.995C292.656 376.995 270.434 369.196 246.624 348.543C169.852 281.958 160.516 189.487 174.857 159.008C181.081 145.785 196.304 132.651 215.218 132.651M215.218 128.206C205.327 128.273 195.706 131.436 187.705 137.249C180.491 142.337 174.687 149.172 170.836 157.116C162.244 175.381 162.815 208.489 172.304 241.464C178.011 261.182 186.396 280.023 197.225 297.461C209.878 317.856 225.553 336.212 243.715 351.902C266.306 371.502 289.557 381.441 312.808 381.441C339.146 381.441 365.039 369.133 391.974 343.811C404.581 331.967 418.578 312.348 429.445 291.332C436.431 277.798 447.977 252.058 446.923 231.671C446.421 221.947 443.113 214.675 437.041 210.077C432.108 206.313 426.054 204.313 419.849 204.399C402.421 204.399 382.447 218.187 363.127 231.525C346.615 242.912 329.568 254.687 317.698 254.687C316.056 254.711 314.421 254.445 312.871 253.899C300.474 249.454 292.034 225.955 283.873 203.281C275.781 180.805 267.423 157.554 253.635 144.998C241.409 133.864 228.491 128.218 215.243 128.218L215.218 128.206Z" fill="#4C3133"/>
<path d="M388.913 316.438C356.675 346.745 306.717 376.551 246.605 324.408C194.24 278.992 173.256 221.521 169.757 179.916C165.749 220.683 183.094 293.466 246.605 348.542C306.717 400.685 356.675 370.879 388.913 340.572C415.727 315.365 450.042 252.184 441.029 223.579C434.761 254.921 409.604 296.985 388.913 316.438Z" fill="#81C4D4"/>
<path d="M179.042 180.189C170.544 187.493 170.487 204.037 174.863 208.134C179.239 212.23 188.893 204.653 206.421 209.309C223.95 213.964 251.933 212.256 248.173 195.628C244.413 179.001 236.868 175.896 218.374 180.513C199.88 185.13 188.632 171.933 179.042 180.189Z" fill="#81C4D4"/>
<path d="M176.622 173.425C175.833 173.424 175.071 173.129 174.487 172.598C173.903 172.066 173.538 171.336 173.464 170.549C173.389 169.763 173.61 168.977 174.084 168.345C174.558 167.713 175.25 167.28 176.025 167.131L181.221 166.128C182.048 165.968 182.904 166.143 183.602 166.614C184.3 167.086 184.782 167.816 184.942 168.643C185.102 169.47 184.927 170.326 184.456 171.024C183.984 171.722 183.254 172.204 182.427 172.364L177.226 173.368C177.027 173.406 176.825 173.425 176.622 173.425Z" fill="#4C3133"/>
<path d="M223.626 176.474C223.286 176.473 222.947 176.42 222.623 176.315L217.599 174.651C216.799 174.386 216.137 173.814 215.759 173.06C215.381 172.307 215.318 171.434 215.583 170.634C215.848 169.834 216.42 169.172 217.174 168.794C217.927 168.416 218.8 168.352 219.6 168.618L224.624 170.282C225.341 170.517 225.952 171.002 226.345 171.647C226.737 172.293 226.887 173.057 226.767 173.803C226.647 174.549 226.265 175.228 225.689 175.717C225.113 176.207 224.382 176.475 223.626 176.474Z" fill="#4C3133"/>
<path d="M183.481 199.687C186.28 199.687 188.55 197.418 188.55 194.618C188.55 191.819 186.28 189.55 183.481 189.55C180.682 189.55 178.413 191.819 178.413 194.618C178.413 197.418 180.682 199.687 183.481 199.687Z" fill="#4C3133"/>
<path d="M220.946 199.687C223.745 199.687 226.014 197.418 226.014 194.618C226.014 191.819 223.745 189.55 220.946 189.55C218.147 189.55 215.878 191.819 215.878 194.618C215.878 197.418 218.147 199.687 220.946 199.687Z" fill="#4C3133"/>
<path d="M195.79 115.09C209.089 106.777 228.396 104.764 243.664 108.346C250.345 109.908 256.887 112.645 263.746 112.512C270.605 112.379 278.125 108.142 278.9 101.328C279.351 97.3202 277.318 93.3127 274.302 90.6326C271.285 87.9524 267.411 86.4409 263.505 85.4501C253.635 82.9879 243.252 83.5679 233.718 87.1141C231.178 88.0731 227.539 88.8797 226.294 86.4409C225.335 84.5355 226.872 82.319 228.631 81.1504C230.39 79.9818 232.537 79.2451 233.712 77.4732C235.236 75.2439 234.582 72.024 232.747 70.0424C230.911 68.0609 228.174 67.1654 225.494 66.8669C214.665 65.6348 204.307 73.3831 199.543 83.1828C194.78 92.9824 194.609 104.37 195.637 115.224L195.79 115.09Z" fill="#C5E6F1"/>
<path d="M195.65 117.441C195.094 117.439 194.559 117.23 194.15 116.854C193.741 116.478 193.488 115.962 193.44 115.408C192.595 106.517 192.106 93.4145 197.555 82.1858C203.182 70.6015 214.773 63.3803 225.754 64.6315C229.431 65.0507 232.416 66.3907 234.385 68.512C237.059 71.389 237.561 75.7776 235.56 78.7118C234.423 80.3758 232.772 81.303 231.318 82.1223C230.797 82.4144 230.302 82.6875 229.857 82.986C228.695 83.7609 228.041 84.9485 228.276 85.4121C228.51 85.8758 230.257 86.0155 232.937 85.012C242.899 81.3135 253.746 80.7092 264.057 83.2782C269.087 84.5484 272.949 86.4029 275.794 88.956C279.636 92.3729 281.631 97.0854 281.123 101.557C280.208 109.603 271.596 114.563 263.803 114.716C258.589 114.818 253.642 113.395 248.859 112.023C246.954 111.483 245.049 110.931 243.143 110.486C227.621 106.853 209.152 109.406 197.117 116.837C196.719 117.212 196.197 117.427 195.65 117.441ZM223.144 68.9502C213.401 68.9502 205.234 76.5715 201.55 84.1483C198.064 91.3313 196.806 99.8671 197.575 111.496C210.594 104.605 228.466 102.496 244.166 106.18C246.16 106.644 248.142 107.215 250.066 107.768C254.74 109.108 259.161 110.365 263.695 110.308C269.449 110.2 276.054 106.644 276.683 101.093C277.026 98.1015 275.54 94.7418 272.822 92.3157C270.497 90.2516 267.271 88.7147 262.952 87.6287C253.523 85.279 243.604 85.8302 234.493 89.2101C227.704 91.7505 225.195 89.2101 224.332 87.4699C222.807 84.4785 224.732 81.1188 227.418 79.3215C228.002 78.9341 228.593 78.6038 229.158 78.2799C230.34 77.6448 231.356 77.0478 231.908 76.2412C232.747 75.0218 232.404 72.926 231.146 71.5795C229.584 69.8902 227.088 69.2932 225.271 69.0836C224.565 69.001 223.855 68.9565 223.144 68.9502Z" fill="#4C3133"/>
<path d="M173.84 451.417C173.84 451.417 163.984 459.509 152.996 451.487C142.009 443.466 144.664 425.899 144.664 425.899C144.664 425.899 158.084 421.453 162.447 429.157C162.447 429.157 158.534 432.097 161.862 435.14C165.19 438.182 166.638 432.599 166.638 432.599C166.638 432.599 177.689 436.994 173.84 451.417Z" fill="#E2E2E0"/>
<path d="M163.285 457.235C159.092 457.206 155.021 455.82 151.682 453.284C139.742 444.564 142.32 426.343 142.435 425.575C142.494 425.167 142.666 424.785 142.931 424.469C143.195 424.154 143.543 423.919 143.933 423.79C144.569 423.587 159.144 418.906 164.365 428.058C164.632 428.528 164.719 429.079 164.609 429.609C164.5 430.139 164.2 430.61 163.768 430.935C163.253 431.318 162.887 431.868 162.733 432.491C162.733 432.847 163.057 433.234 163.368 433.501C163.462 433.59 163.564 433.671 163.673 433.742C164.052 433.224 164.332 432.641 164.498 432.021C164.579 431.717 164.724 431.434 164.922 431.19C165.12 430.946 165.368 430.747 165.648 430.605C165.929 430.464 166.236 430.383 166.551 430.369C166.865 430.354 167.178 430.407 167.47 430.522C167.598 430.573 180.293 435.844 176.006 451.989C175.889 452.441 175.631 452.843 175.27 453.138C171.835 455.786 167.622 457.226 163.285 457.235ZM146.69 427.651C146.385 431.773 146.258 443.815 154.311 449.69C162.466 455.641 169.827 451.506 171.884 450.102C173.79 441.802 170.1 437.565 167.667 435.762C167.045 436.861 166.042 437.695 164.848 438.105C163.8 438.423 162.167 438.442 160.351 436.778C159.688 436.234 159.159 435.545 158.803 434.764C158.448 433.984 158.275 433.132 158.3 432.275C158.391 431.083 158.833 429.945 159.57 429.004C156.255 425.829 149.567 426.965 146.69 427.651Z" fill="#B9B9B9"/>
<path d="M188.747 458.727H188.569C187.508 458.638 162.46 456.403 150.818 436.899C150.558 436.396 150.5 435.813 150.656 435.268C150.811 434.724 151.168 434.26 151.654 433.97C152.14 433.68 152.719 433.586 153.271 433.708C153.824 433.83 154.31 434.158 154.629 434.625C165.083 452.135 188.683 454.275 188.924 454.313C189.514 454.337 190.07 454.594 190.47 455.027C190.87 455.461 191.082 456.035 191.058 456.625C191.035 457.215 190.778 457.771 190.344 458.171C189.911 458.571 189.336 458.783 188.747 458.759V458.727Z" fill="#B9B9B9"/>
<path d="M434.221 141.149C439.817 145.074 448.13 140.838 450.899 134.595C453.668 128.352 452.55 121.15 451.388 114.424L449.673 104.484C446.726 112.341 436.552 114.449 430.849 120.61C428.41 123.359 426.887 126.8 426.492 130.455C426.097 134.109 426.849 137.796 428.645 141.003" fill="#E2E2E0"/>
<path d="M439.143 144.889C436.929 144.913 434.763 144.247 432.945 142.984C432.499 142.633 432.205 142.125 432.122 141.564C432.039 141.003 432.174 140.431 432.499 139.967C432.823 139.502 433.313 139.178 433.868 139.063C434.424 138.947 435.002 139.048 435.485 139.345C436.348 139.909 437.327 140.272 438.349 140.408C439.371 140.544 440.411 140.45 441.392 140.133C443.026 139.653 444.539 138.831 445.831 137.721C447.122 136.61 448.161 135.237 448.879 133.693C451.464 127.85 450.213 120.616 449.21 114.798L448.46 110.441C446.142 112.867 443.17 114.671 440.261 116.43C437.352 118.19 434.545 119.879 432.494 122.115C430.377 124.518 429.057 127.519 428.715 130.703C428.374 133.888 429.029 137.1 430.588 139.898C430.769 140.148 430.895 140.433 430.959 140.736C431.024 141.038 431.024 141.35 430.961 141.652C430.898 141.954 430.772 142.24 430.593 142.491C430.413 142.742 430.183 142.953 429.917 143.11C429.651 143.268 429.356 143.368 429.049 143.404C428.742 143.441 428.432 143.413 428.136 143.323C427.841 143.233 427.568 143.082 427.334 142.881C427.1 142.679 426.91 142.431 426.778 142.152C424.72 138.538 423.854 134.367 424.301 130.232C424.748 126.097 426.485 122.208 429.267 119.117C431.757 116.418 434.926 114.5 437.994 112.645C442.179 110.105 446.136 107.71 447.635 103.722C447.806 103.264 448.123 102.875 448.538 102.615C448.952 102.356 449.441 102.24 449.928 102.286C450.415 102.333 450.873 102.538 451.231 102.871C451.589 103.204 451.827 103.646 451.909 104.128L453.624 114.061C454.729 120.47 456.107 128.44 452.989 135.515C451.993 137.645 450.556 139.539 448.774 141.072C446.991 142.605 444.904 143.741 442.649 144.407C441.508 144.728 440.329 144.89 439.143 144.889Z" fill="#B9B9B9"/>
<path d="M424.301 146.528C423.798 146.527 423.31 146.356 422.917 146.042C422.524 145.729 422.25 145.291 422.137 144.801C422.025 144.31 422.083 143.797 422.301 143.343C422.518 142.89 422.883 142.524 423.336 142.305C427.609 140.21 431.414 137.274 434.525 133.673C437.635 130.071 439.986 125.879 441.436 121.346C441.625 120.801 442.019 120.351 442.534 120.091C443.05 119.831 443.646 119.781 444.197 119.953C444.748 120.125 445.21 120.504 445.487 121.01C445.764 121.517 445.832 122.111 445.679 122.667C444.045 127.782 441.395 132.515 437.888 136.58C434.38 140.645 430.087 143.96 425.266 146.325C424.963 146.463 424.634 146.532 424.301 146.528Z" fill="#B9B9B9"/>
<path d="M376.166 393.54C376.962 392.397 377.737 391.228 378.491 390.034C394.368 364.903 402.44 327.07 402.44 277.582C402.44 250.273 396.89 226.285 385.928 206.076L351.308 228.59C357.024 242.118 359.907 260.568 359.907 283.628C359.907 310.938 356.503 333.802 349.784 351.432C343.064 369.063 333.462 380.26 320.702 385.042L376.166 393.54Z" fill="#F0F0F0"/>
<path d="M407.515 296.496C407.159 296.496 406.808 296.41 406.492 296.247C406.176 296.083 405.904 295.846 405.699 295.556L395.257 280.815C394.916 280.334 394.78 279.737 394.879 279.156C394.978 278.575 395.304 278.057 395.785 277.715C396.265 277.374 396.862 277.238 397.443 277.337C398.025 277.436 398.543 277.762 398.884 278.243L409.325 292.983C409.494 293.222 409.614 293.491 409.679 293.775C409.744 294.06 409.752 294.354 409.703 294.642C409.654 294.93 409.549 295.205 409.394 295.453C409.239 295.7 409.036 295.914 408.798 296.083C408.424 296.351 407.975 296.495 407.515 296.496Z" fill="#4C3133"/>
<path d="M395.226 294.654C394.763 294.651 394.313 294.505 393.937 294.235C393.561 293.965 393.279 293.585 393.129 293.147C392.979 292.71 392.968 292.236 393.1 291.793C393.231 291.349 393.496 290.957 393.86 290.671L407.68 279.9C407.911 279.721 408.174 279.589 408.456 279.511C408.738 279.434 409.032 279.413 409.322 279.449C409.612 279.485 409.892 279.578 410.145 279.723C410.399 279.867 410.622 280.06 410.802 280.291C410.981 280.521 411.113 280.785 411.19 281.067C411.268 281.348 411.289 281.642 411.253 281.932C411.217 282.222 411.124 282.502 410.979 282.756C410.835 283.01 410.642 283.233 410.411 283.412L396.591 294.158C396.205 294.472 395.724 294.647 395.226 294.654Z" fill="#4C3133"/>
<path d="M70.3183 215.418C69.9629 215.419 69.6123 215.335 69.2962 215.173C68.9801 215.01 68.7077 214.774 68.5019 214.484L58.0608 199.743C57.8919 199.505 57.7716 199.236 57.7067 198.952C57.6417 198.667 57.6335 198.372 57.6825 198.085C57.7314 197.797 57.8366 197.522 57.9919 197.274C58.1473 197.027 58.3498 196.813 58.5879 196.644C58.826 196.475 59.0951 196.355 59.3797 196.29C59.6643 196.225 59.959 196.217 60.2468 196.266C60.5346 196.315 60.8099 196.42 61.0571 196.575C61.3042 196.731 61.5184 196.933 61.6873 197.171L72.1284 211.944C72.3657 212.276 72.5068 212.667 72.5362 213.073C72.5656 213.48 72.4821 213.887 72.2949 214.25C72.1077 214.612 71.8242 214.916 71.4754 215.128C71.1267 215.34 70.7263 215.451 70.3183 215.45V215.418Z" fill="#4C3133"/>
<path d="M58.0354 213.576C57.5725 213.576 57.1213 213.431 56.7447 213.162C56.3681 212.893 56.0848 212.513 55.9345 212.075C55.7842 211.638 55.7742 211.164 55.906 210.72C56.0379 210.276 56.3049 209.885 56.6699 209.6L70.4898 198.854C70.7181 198.658 70.984 198.509 71.2714 198.419C71.5588 198.328 71.8616 198.296 72.1615 198.326C72.4614 198.356 72.7521 198.447 73.0159 198.593C73.2797 198.738 73.5111 198.936 73.6961 199.174C73.881 199.412 74.0156 199.685 74.0917 199.977C74.1679 200.269 74.1839 200.573 74.1388 200.871C74.0938 201.169 73.9886 201.454 73.8297 201.71C73.6708 201.966 73.4614 202.188 73.2144 202.36L59.3945 213.106C59.0077 213.412 58.5286 213.578 58.0354 213.576Z" fill="#4C3133"/>
<path d="M325.821 107.939C325.466 107.938 325.116 107.852 324.8 107.688C324.484 107.525 324.211 107.289 324.005 106.999L313.564 92.2583C313.223 91.7766 313.087 91.179 313.186 90.5972C313.286 90.0154 313.612 89.4969 314.094 89.1558C314.576 88.8147 315.173 88.679 315.755 88.7784C316.337 88.8779 316.855 89.2044 317.197 89.6861L327.638 104.427C327.977 104.909 328.111 105.506 328.011 106.087C327.911 106.667 327.585 107.185 327.104 107.526C326.731 107.796 326.282 107.94 325.821 107.939Z" fill="#4C3133"/>
<path d="M313.538 106.091C313.076 106.091 312.624 105.946 312.248 105.677C311.871 105.408 311.588 105.028 311.437 104.591C311.287 104.153 311.277 103.679 311.409 103.235C311.541 102.792 311.808 102.4 312.173 102.116L325.993 91.3696C326.459 91.0272 327.041 90.8801 327.614 90.9596C328.187 91.0391 328.706 91.3389 329.062 91.7953C329.418 92.2518 329.581 92.8289 329.518 93.404C329.455 93.9792 329.17 94.507 328.724 94.8754L314.904 105.628C314.512 105.928 314.032 106.091 313.538 106.091Z" fill="#4C3133"/>
<path d="M100.359 127.062C104.084 127.062 107.104 124.043 107.104 120.318C107.104 116.593 104.084 113.573 100.359 113.573C96.6337 113.573 93.6139 116.593 93.6139 120.318C93.6139 124.043 96.6337 127.062 100.359 127.062Z" fill="white"/>
<path d="M97.7803 56.8833H97.4882C96.9048 56.8044 96.3766 56.4972 96.0194 56.0293C95.6622 55.5614 95.5052 54.9709 95.5828 54.3873L96.8531 44.6385C96.9305 44.054 97.237 43.5242 97.7051 43.1657C97.9369 42.9882 98.2014 42.8581 98.4834 42.7828C98.7655 42.7074 99.0596 42.6884 99.349 42.7268C99.6384 42.7652 99.9175 42.8602 100.17 43.0064C100.423 43.1526 100.644 43.3471 100.822 43.5789C100.999 43.8106 101.129 44.0751 101.205 44.3572C101.28 44.6392 101.299 44.9334 101.261 45.2228L99.9905 54.9716C99.9153 55.5036 99.65 55.9902 99.2437 56.3417C98.8374 56.6931 98.3175 56.8855 97.7803 56.8833Z" fill="#4C3133"/>
<path d="M106.259 85.7427H106.107C105.815 85.7233 105.531 85.6466 105.269 85.517C105.007 85.3873 104.774 85.2072 104.582 84.9871C104.39 84.767 104.244 84.5112 104.151 84.2343C104.059 83.9574 104.022 83.665 104.042 83.3737L104.5 76.6416C104.539 76.0521 104.811 75.5024 105.256 75.1135C105.701 74.7246 106.282 74.5284 106.872 74.568C107.461 74.6076 108.011 74.8797 108.4 75.3246C108.789 75.7694 108.985 76.3506 108.945 76.9401L108.463 83.6532C108.429 84.216 108.183 84.745 107.773 85.1329C107.364 85.5209 106.823 85.7389 106.259 85.7427Z" fill="#4C3133"/>
<path d="M172.043 289.764C163.971 288.71 154.26 290.12 148.659 297.385C143.057 304.651 144.441 314.317 153.6 324.612C162.758 334.907 178.191 332.17 186.377 323.812C194.564 315.454 172.043 289.764 172.043 289.764Z" fill="#C5E6F1"/>
<path d="M168.677 333.472H168.086C165.026 333.443 162.007 332.769 159.225 331.494C156.443 330.219 153.961 328.372 151.942 326.073C142.307 315.276 140.472 304.289 146.906 296.007C154.387 286.366 167.178 286.893 172.31 287.566C172.845 287.638 173.336 287.9 173.694 288.303C176.133 291.091 197.301 315.797 187.946 325.349C182.848 330.494 175.921 333.415 168.677 333.472ZM167.331 291.682C162.142 291.682 154.946 292.895 150.418 298.725C145.337 305.248 147.071 313.91 155.264 323.113C156.884 324.948 158.871 326.423 161.098 327.44C163.325 328.458 165.74 328.996 168.188 329.02C171.267 329.048 174.321 328.462 177.171 327.298C180.021 326.133 182.611 324.413 184.79 322.237C189.337 317.588 179.582 301.913 170.925 291.872C169.731 291.745 168.531 291.681 167.331 291.682Z" fill="#4C3133"/>
<path d="M105.675 92.0874C104.036 116.025 106.062 142.775 112.794 175.223C120.771 213.685 135.08 247.072 155.346 274.471C177.689 304.759 207.857 327.35 240.209 338.076C262.914 345.596 287.613 347.762 311.5 349.851L318.048 350.398C344.722 352.779 372.832 356.037 398.134 367.152C427.19 379.917 447.965 401.752 455.135 427.055C455.556 428.542 455.368 430.136 454.615 431.485C453.861 432.834 452.602 433.829 451.115 434.251C450.378 434.461 449.608 434.523 448.847 434.435C448.086 434.346 447.351 434.108 446.682 433.735C446.014 433.361 445.425 432.859 444.951 432.258C444.477 431.657 444.126 430.968 443.919 430.23C437.701 408.287 419.309 389.183 393.447 377.821C369.739 367.406 343.763 364.395 317.006 362.007L310.515 361.436C285.93 359.289 260.539 357.092 236.544 349.127C201.925 337.657 169.75 313.606 145.934 281.393C124.702 252.636 109.733 217.711 101.381 177.585C94.2363 143.144 93.182 94.9263 96.3957 65.6353" fill="#E2E2E0"/>
<path d="M449.514 436.721C449.33 436.721 449.152 436.721 448.968 436.721C447.315 436.605 445.737 435.982 444.45 434.938C443.162 433.894 442.227 432.479 441.772 430.885C435.733 409.577 417.791 390.994 392.539 379.905C369.142 369.622 343.363 366.637 316.796 364.268C314.853 364.091 312.903 363.919 310.96 363.754L310.325 363.697C285.638 361.531 260.151 359.302 235.878 351.261C200.794 339.601 168.233 315.289 144.162 282.714C122.721 253.696 107.593 218.48 99.2029 178.036C91.8166 142.413 91.1117 93.4085 94.2046 65.394C94.2363 65.1021 94.3252 64.8193 94.4662 64.5617C94.6072 64.3042 94.7975 64.0769 95.0263 63.8929C95.2552 63.7089 95.518 63.5718 95.7998 63.4893C96.0816 63.4069 96.3769 63.3808 96.6688 63.4125C96.9607 63.4442 97.2435 63.533 97.5011 63.674C97.7587 63.815 97.9859 64.0054 98.1699 64.2342C98.3539 64.463 98.4911 64.7258 98.5735 65.0077C98.6559 65.2895 98.682 65.5848 98.6504 65.8767C95.5955 93.5609 96.2878 141.962 103.579 177.134C111.835 216.943 126.703 251.575 147.763 280.072C171.294 311.917 203.081 335.695 237.268 347.025C261.015 354.894 286.273 357.111 310.699 359.245L311.335 359.302L317.178 359.816C344.125 362.23 370.298 365.259 394.317 375.815C420.782 387.443 439.639 407.062 446.034 429.652C446.237 430.366 446.656 430.999 447.232 431.466C447.808 431.933 448.514 432.212 449.254 432.263C449.669 432.294 450.086 432.251 450.486 432.136C451.404 431.874 452.181 431.259 452.646 430.426C453.112 429.593 453.228 428.609 452.969 427.69C445.983 403.029 425.66 381.715 397.214 369.216C372.222 358.235 344.29 355.008 317.825 352.646L311.912 352.125L311.322 352.074C287.308 349.972 262.476 347.794 239.555 340.191C206.726 329.312 176.19 306.448 153.555 275.792C133.098 248.146 118.656 214.485 110.616 175.674C104.093 144.236 101.724 116.844 103.452 91.9351C103.472 91.6432 103.549 91.358 103.679 91.096C103.809 90.834 103.99 90.6002 104.211 90.4079C104.431 90.2156 104.687 90.0687 104.965 89.9755C105.242 89.8823 105.535 89.8446 105.827 89.8646C106.119 89.8846 106.404 89.962 106.666 90.0922C106.928 90.2224 107.162 90.4029 107.354 90.6235C107.546 90.844 107.693 91.1003 107.787 91.3777C107.88 91.655 107.918 91.948 107.897 92.2399C106.221 116.736 108.533 143.734 114.973 174.766C122.88 212.916 137.042 246.012 157.112 273.15C179.226 303.07 208.987 325.381 240.946 335.962C263.397 343.405 287.944 345.558 311.728 347.635L312.319 347.686L318.244 348.213C345.078 350.607 373.422 353.891 399.03 365.145C428.696 378.177 449.921 400.533 457.275 426.471C457.855 428.525 457.596 430.725 456.555 432.588C455.514 434.451 453.777 435.826 451.725 436.41C451.006 436.618 450.262 436.723 449.514 436.721Z" fill="#4C3133"/>
<path d="M489.075 474.699L454.903 488.875L465.392 514.158L499.563 499.983L489.075 474.699Z" fill="#E2E2E0"/>
<path d="M465.392 516.363C464.952 516.363 464.522 516.233 464.155 515.989C463.789 515.745 463.504 515.398 463.334 514.991L452.842 489.702C452.618 489.157 452.618 488.545 452.845 488C453.071 487.456 453.504 487.024 454.049 486.799L488.256 472.624C488.8 472.398 489.411 472.398 489.955 472.623C490.499 472.848 490.932 473.28 491.158 473.824L501.65 499.114C501.875 499.658 501.875 500.269 501.65 500.813C501.425 501.357 500.994 501.79 500.45 502.016L466.281 516.192C465.999 516.308 465.697 516.367 465.392 516.363ZM457.802 490.051L466.592 511.232L496.652 498.758L487.868 477.584L457.802 490.051Z" fill="#4C3133"/>
<path d="M442.163 428.869L456.272 423.016C460.561 421.237 465.382 421.234 469.673 423.009C473.964 424.784 477.375 428.191 479.154 432.481L497.561 476.854C498.118 478.195 498.118 479.702 497.564 481.044C497.009 482.385 495.943 483.452 494.602 484.008L458.26 499.084C456.919 499.64 455.412 499.641 454.07 499.086C452.728 498.531 451.662 497.466 451.106 496.125L432.701 451.757C430.922 447.468 430.919 442.647 432.694 438.356C434.469 434.065 437.876 430.654 442.165 428.875L442.163 428.869Z" fill="#F0F0F0"/>
<path d="M462.998 421.656C466.46 421.656 469.845 422.681 472.725 424.603C475.605 426.524 477.851 429.256 479.18 432.453L497.598 476.828C497.874 477.494 498.016 478.209 498.015 478.93C498.014 479.652 497.87 480.366 497.592 481.032C497.314 481.698 496.907 482.302 496.395 482.81C495.883 483.318 495.275 483.719 494.607 483.992L458.272 499.076C457.608 499.35 456.896 499.492 456.177 499.495C455.091 499.497 454.028 499.177 453.124 498.576C452.22 497.974 451.514 497.118 451.096 496.116L432.678 451.741C430.906 447.453 430.908 442.637 432.684 438.351C434.459 434.064 437.863 430.657 442.147 428.877L456.266 423.022C458.391 422.138 460.67 421.683 462.972 421.682M462.972 417.236C460.099 417.231 457.252 417.792 454.595 418.887L440.47 424.749C437.807 425.854 435.387 427.472 433.349 429.512C431.311 431.552 429.695 433.973 428.593 436.638C427.492 439.303 426.926 442.159 426.928 445.042C426.93 447.926 427.501 450.78 428.607 453.443L447.025 497.818C447.523 499.023 448.254 500.118 449.175 501.039C450.097 501.961 451.192 502.692 452.397 503.19C453.601 503.688 454.893 503.943 456.196 503.941C457.5 503.939 458.79 503.68 459.994 503.178L496.347 488.095C498.775 487.085 500.704 485.153 501.71 482.723C502.716 480.293 502.717 477.563 501.714 475.132L483.296 430.757C481.639 426.742 478.826 423.31 475.214 420.898C471.602 418.486 467.354 417.202 463.01 417.21L462.972 417.236Z" fill="#4C3133"/>
<path d="M461.277 492.305L442.859 447.93C441.087 443.642 441.089 438.827 442.865 434.54C444.64 430.254 448.043 426.847 452.328 425.067L459.759 421.986C458.567 422.207 457.403 422.554 456.285 423.022L442.166 428.877C437.882 430.657 434.478 434.064 432.703 438.351C430.928 442.637 430.925 447.453 432.697 451.741L451.115 496.116C451.673 497.457 452.739 498.522 454.081 499.076C455.423 499.631 456.931 499.631 458.273 499.075L466.465 495.678C465.361 495.704 464.275 495.396 463.35 494.794C462.424 494.192 461.701 493.325 461.277 492.305Z" fill="#E2E2E0"/>
<path d="M467.78 448.289L451.994 454.837L459.932 473.973L475.719 467.425L467.78 448.289Z" fill="#E2E2E0"/>
<path d="M459.943 476.149C459.504 476.147 459.075 476.016 458.71 475.772C458.345 475.528 458.06 475.182 457.891 474.777L449.953 455.641C449.84 455.371 449.782 455.082 449.781 454.79C449.781 454.497 449.838 454.208 449.95 453.938C450.061 453.667 450.225 453.422 450.431 453.215C450.638 453.008 450.883 452.844 451.153 452.732L466.942 446.184C467.21 446.073 467.499 446.015 467.79 446.015C468.081 446.015 468.369 446.073 468.637 446.184C469.182 446.41 469.616 446.841 469.844 447.385L477.783 466.52C478.008 467.065 478.009 467.677 477.784 468.223C477.559 468.768 477.127 469.202 476.583 469.429L460.794 475.977C460.524 476.09 460.235 476.149 459.943 476.149ZM454.906 455.99L461.143 471.068L472.823 466.222L466.586 451.195L454.906 455.99Z" fill="#4C3133"/>
<path d="M475.084 510.742C474.629 510.741 474.185 510.601 473.813 510.34C473.44 510.078 473.157 509.709 473.001 509.282L468.701 497.551C468.499 496.997 468.525 496.385 468.774 495.851C469.023 495.316 469.474 494.902 470.028 494.7C470.583 494.497 471.194 494.524 471.729 494.773C472.264 495.022 472.678 495.473 472.88 496.027L477.173 507.751C477.376 508.304 477.351 508.916 477.103 509.45C476.856 509.985 476.406 510.4 475.852 510.603C475.607 510.695 475.346 510.742 475.084 510.742Z" fill="#4C3133"/>
<path d="M487.621 507.141C487.18 507.142 486.749 507.011 486.382 506.765C486.016 506.52 485.731 506.171 485.563 505.763L480.158 492.553C480.047 492.283 479.991 491.993 479.992 491.701C479.993 491.409 480.051 491.12 480.164 490.85C480.276 490.581 480.441 490.336 480.648 490.13C480.855 489.925 481.101 489.761 481.371 489.651C481.641 489.54 481.931 489.483 482.223 489.484C482.515 489.485 482.804 489.543 483.074 489.656C483.343 489.769 483.588 489.933 483.794 490.14C484 490.348 484.163 490.593 484.274 490.864L489.678 504.074C489.901 504.62 489.897 505.233 489.669 505.777C489.44 506.321 489.005 506.752 488.459 506.976C488.193 507.086 487.908 507.142 487.621 507.141Z" fill="#4C3133"/>
<path d="M127.376 230.089C122.689 211.913 134.902 204.139 138.554 213.615C142.206 223.09 144.905 236.37 148.341 241.337C152.787 247.79 139.964 273.962 113.664 262.931C87.3645 251.899 94.2046 219.286 109.022 211.639C109.022 211.639 115.544 235.392 123.102 232.833C130.66 230.273 127.376 230.089 127.376 230.089Z" fill="#C5E6F1"/>
<path d="M125.884 267.789C121.382 267.735 116.936 266.783 112.807 264.989C101.159 260.111 94.1982 250.381 93.7155 238.206C93.2392 226.196 99.2473 214.193 108.005 209.671C108.3 209.518 108.626 209.433 108.958 209.422C109.29 209.411 109.621 209.475 109.925 209.608C110.23 209.742 110.5 209.941 110.718 210.193C110.935 210.444 111.093 210.741 111.181 211.062C112.953 217.508 117.208 228.502 121.076 230.553C121.267 230.682 121.486 230.766 121.715 230.798C121.944 230.83 122.177 230.809 122.397 230.737C123.578 230.344 124.423 230.02 125.02 229.778C122.2 217.711 126.328 209.41 131.777 207.658C135.493 206.47 138.973 208.49 140.669 212.815C142.136 216.625 143.438 220.988 144.702 225.212C146.48 231.182 148.322 237.349 150.208 240.067C152.92 243.979 151.085 251.931 146.029 258.174C143.632 261.213 140.569 263.661 137.076 265.328C133.583 266.995 129.754 267.837 125.884 267.789ZM107.739 215.076C101.794 219.636 97.7992 228.934 98.1613 238.009C98.4026 244.087 100.848 255.157 114.522 260.873C130.399 267.523 139.399 259.228 142.536 255.354C146.76 250.14 147.712 244.31 146.518 242.582C144.225 239.286 142.371 233.055 140.402 226.463C139.17 222.329 137.862 218.048 136.484 214.396C136.02 213.202 134.972 211.278 133.124 211.856C130.196 212.796 127.078 218.67 129.262 228.413C129.54 228.603 129.774 228.85 129.95 229.136C130.126 229.423 130.24 229.743 130.285 230.077C130.602 232.439 128.049 233.481 123.813 234.916C123.018 235.178 122.177 235.272 121.344 235.191C120.511 235.11 119.703 234.856 118.974 234.446C113.582 231.633 109.472 220.531 107.739 215.12V215.076Z" fill="#4C3133"/>
<path d="M153.905 303.812C153.905 303.812 167.718 290.615 177.772 305.444C187.826 320.274 185.056 327.533 177.772 329.458" fill="#C5E6F1"/>
<path d="M177.759 331.681C177.217 331.684 176.692 331.488 176.284 331.131C175.875 330.775 175.612 330.281 175.542 329.743C175.473 329.205 175.602 328.66 175.906 328.211C176.211 327.762 176.668 327.44 177.194 327.305C179.531 326.67 181.043 325.501 181.697 323.767C183.03 320.204 180.985 314.139 175.93 306.689C173.466 303.057 170.582 301.031 167.356 300.681C161.221 300.046 155.499 305.368 155.441 305.425C155.014 305.832 154.443 306.053 153.854 306.038C153.264 306.024 152.704 305.776 152.298 305.349C151.891 304.922 151.67 304.351 151.685 303.762C151.699 303.172 151.947 302.612 152.374 302.205C152.66 301.926 159.614 295.384 167.807 296.261C172.399 296.75 176.375 299.436 179.614 304.193C185.666 313.123 187.768 320.23 185.857 325.323C184.688 328.442 182.084 330.614 178.331 331.605C178.144 331.655 177.952 331.68 177.759 331.681Z" fill="#4C3133"/>
<path d="M185.311 304.428C187.324 321.697 174.037 310.271 170.703 302.593C167.369 294.914 169.433 290.17 177.283 290.011C181.227 289.935 191.484 294.133 195.567 308.626C199.651 323.119 185.876 325.368 185.876 325.368" fill="#C5E6F1"/>
<path d="M185.888 327.591C185.299 327.638 184.715 327.449 184.264 327.065C183.814 326.682 183.535 326.135 183.488 325.546C183.44 324.956 183.629 324.372 184.013 323.922C184.396 323.471 184.943 323.192 185.533 323.145C185.571 323.145 190.442 322.268 192.792 318.534C194.297 316.159 194.513 313.021 193.427 309.204C189.826 296.432 180.998 292.209 177.41 292.209H177.327C175.422 292.247 172.945 292.622 171.941 294.178C170.938 295.734 171.275 298.325 172.735 301.678C174.958 306.759 180.725 311.662 182.459 311.205C182.745 311.129 183.729 309.789 183.094 304.67C183.026 304.08 183.194 303.488 183.563 303.023C183.932 302.557 184.47 302.258 185.06 302.19C185.649 302.121 186.242 302.29 186.707 302.659C187.172 303.027 187.471 303.566 187.54 304.155C188.308 310.773 186.993 314.59 183.634 315.498C178.013 317.003 170.805 308.341 168.683 303.431C166.562 298.522 166.397 294.603 168.22 291.752C169.871 289.211 172.913 287.827 177.257 287.738H177.397C182.262 287.738 193.395 292.615 197.72 307.972C199.162 313.053 198.762 317.435 196.533 320.928C193.078 326.39 186.523 327.533 186.244 327.533C186.127 327.562 186.008 327.581 185.888 327.591Z" fill="#4C3133"/>
<path d="M490.644 310.157C499.413 310.157 506.522 303.048 506.522 294.279C506.522 285.511 499.413 278.402 490.644 278.402C481.875 278.402 474.766 285.511 474.766 294.279C474.766 303.048 481.875 310.157 490.644 310.157Z" fill="#FFD900"/>
<path d="M490.657 312.38C489.978 312.379 489.299 312.341 488.624 312.265C483.945 311.737 479.656 309.404 476.67 305.763C473.683 302.122 472.234 297.461 472.631 292.768C473.028 288.076 475.239 283.723 478.794 280.636C482.349 277.548 486.969 275.968 491.67 276.233C496.372 276.497 500.785 278.585 503.972 282.052C507.158 285.519 508.867 290.092 508.735 294.799C508.603 299.506 506.641 303.976 503.265 307.259C499.889 310.542 495.366 312.379 490.657 312.38ZM490.618 280.624C487.984 280.629 485.407 281.395 483.198 282.831C480.989 284.267 479.242 286.312 478.169 288.718C477.096 291.124 476.742 293.79 477.15 296.393C477.558 298.996 478.71 301.425 480.468 303.388C482.225 305.351 484.513 306.763 487.055 307.455C489.598 308.147 492.286 308.088 494.795 307.286C497.305 306.485 499.529 304.974 501.2 302.936C502.87 300.899 503.916 298.422 504.21 295.803C504.409 294.02 504.255 292.214 503.757 290.49C503.258 288.766 502.425 287.157 501.304 285.755C500.184 284.353 498.798 283.185 497.226 282.319C495.654 281.453 493.927 280.905 492.143 280.707C491.636 280.652 491.128 280.625 490.618 280.624Z" fill="#4C3133"/>
<path d="M453.395 17.3732C493.006 50.0367 520.297 97.8665 528.268 148.586C536.238 199.306 524.933 253.226 497.255 296.413C496.481 297.622 495.259 298.473 493.857 298.781C492.455 299.088 490.989 298.826 489.78 298.052C488.572 297.278 487.72 296.055 487.413 294.654C487.105 293.252 487.368 291.785 488.142 290.577C514.416 249.53 525.143 198.378 517.572 150.218C510.002 102.058 484.102 56.6862 446.504 25.6804L431.408 13.4165" fill="#E2E2E0"/>
<path d="M492.702 301.158C492.392 301.157 492.082 301.138 491.774 301.101C490.494 300.946 489.274 300.469 488.228 299.714C487.182 298.96 486.345 297.952 485.795 296.786C485.245 295.619 485 294.332 485.082 293.045C485.165 291.759 485.573 290.514 486.268 289.427C512.25 248.838 522.863 198.245 515.381 150.638C507.9 103.03 482.28 58.1027 445.069 27.4398L430.004 15.1887C429.546 14.8164 429.254 14.2774 429.194 13.6902C429.133 13.103 429.308 12.5157 429.68 12.0576C430.052 11.5994 430.591 11.3079 431.179 11.2472C431.766 11.1864 432.353 11.3614 432.811 11.7337L447.908 23.9976C485.931 55.3527 512.123 101.252 519.77 149.92C527.416 198.588 516.594 250.305 490.015 291.803C489.721 292.255 489.547 292.775 489.51 293.313C489.472 293.852 489.573 294.391 489.802 294.88C490.03 295.368 490.38 295.791 490.817 296.107C491.255 296.423 491.766 296.623 492.302 296.687C492.899 296.762 493.507 296.666 494.052 296.41C494.597 296.154 495.059 295.747 495.382 295.239C522.774 252.445 533.958 199.122 526.07 148.929C518.182 98.7368 491.177 51.4151 451.979 19.0882C451.542 18.7078 451.271 18.1722 451.224 17.5953C451.176 17.0184 451.356 16.4456 451.724 15.9989C452.092 15.5521 452.62 15.2666 453.195 15.2031C453.771 15.1396 454.348 15.303 454.805 15.6586C494.817 48.6841 522.406 96.9903 530.465 148.237C538.525 199.484 527.099 253.944 499.129 297.639C498.435 298.714 497.483 299.599 496.361 300.213C495.239 300.827 493.981 301.152 492.702 301.158Z" fill="#4C3133"/>
<path d="M446.911 14.2298C446.386 14.2301 445.878 14.0457 445.475 13.709L441.976 10.7558C441.743 10.5707 441.551 10.3408 441.409 10.0799C441.266 9.81896 441.178 9.5322 441.149 9.23657C441.12 8.94094 441.15 8.64244 441.238 8.35869C441.326 8.07495 441.47 7.81173 441.661 7.58459C441.853 7.35745 442.088 7.171 442.353 7.03625C442.617 6.9015 442.907 6.82119 443.203 6.80006C443.499 6.77894 443.797 6.81742 444.078 6.91325C444.359 7.00907 444.618 7.1603 444.84 7.35798L448.34 10.3049C448.689 10.5982 448.939 10.9918 449.057 11.4323C449.175 11.8728 449.155 12.3389 448.999 12.7674C448.843 13.1959 448.559 13.5661 448.185 13.8277C447.811 14.0893 447.367 14.2297 446.911 14.2298Z" fill="#4C3133"/>
<path d="M425.52 11.1874C425.033 11.1894 424.559 11.0285 424.174 10.7302L415.346 3.99169C415.113 3.81488 414.918 3.59405 414.771 3.3418C414.624 3.08956 414.529 2.81084 414.489 2.52157C414.45 2.2323 414.468 1.93813 414.543 1.65587C414.617 1.37361 414.747 1.10878 414.923 0.876503C415.1 0.644225 415.321 0.449049 415.573 0.302116C415.826 0.155183 416.104 0.0593715 416.394 0.0201531C416.683 -0.0190653 416.977 -0.000926171 417.259 0.0735405C417.541 0.148007 417.806 0.277342 418.039 0.454157L426.873 7.19898C427.242 7.48145 427.514 7.87261 427.649 8.31741C427.784 8.76221 427.777 9.23825 427.628 9.67856C427.478 10.1189 427.195 10.5013 426.816 10.7719C426.438 11.0426 425.985 11.1879 425.52 11.1874Z" fill="#4C3133"/>
</svg>
