<svg width="600" height="436" viewBox="0 0 600 436" fill="none" xmlns="http://www.w3.org/2000/svg">
<path d="M463.124 318.182C466.359 305.214 467.991 291.898 467.983 278.532C467.983 188.483 394.962 115.487 304.939 115.487C214.916 115.487 141.901 188.509 141.901 278.532C141.896 291.889 143.528 305.196 146.761 318.156L463.124 318.182Z" fill="#F0F0F0"/>
<path d="M41.2175 322.345C40.6738 322.345 40.1471 322.155 39.7297 321.807C39.3122 321.458 39.0305 320.974 38.9339 320.439C30.8519 275.88 34.0677 230.005 48.2873 187.009C48.3783 186.713 48.5275 186.438 48.7262 186.2C48.9249 185.963 49.169 185.767 49.4443 185.626C49.7195 185.484 50.0204 185.398 50.3291 185.375C50.6378 185.351 50.9482 185.389 51.242 185.487C51.5358 185.584 51.8071 185.74 52.0399 185.944C52.2728 186.148 52.4625 186.397 52.5979 186.675C52.7332 186.954 52.8116 187.256 52.8283 187.566C52.845 187.875 52.7998 188.184 52.6952 188.476C43.7473 215.415 39.2014 243.62 39.2326 272.006C39.2325 287.965 40.661 303.892 43.5011 319.596C43.5662 319.931 43.5559 320.276 43.4709 320.607C43.3858 320.937 43.2282 321.245 43.0095 321.507C42.7908 321.769 42.5165 321.979 42.2066 322.121C41.8966 322.264 41.5587 322.336 41.2175 322.331V322.345Z" fill="#F0F0F0"/>
<path d="M567.08 231.519C566.529 231.518 565.996 231.321 565.577 230.964C565.157 230.606 564.878 230.111 564.79 229.567C564.126 225.485 563.37 221.369 562.52 217.326C562.399 216.725 562.521 216.101 562.858 215.59C563.195 215.078 563.72 214.721 564.32 214.595C564.919 214.469 565.544 214.584 566.059 214.917C566.573 215.249 566.936 215.772 567.067 216.37C567.93 220.486 568.707 224.675 569.377 228.824C569.426 229.124 569.414 229.432 569.343 229.728C569.273 230.024 569.144 230.304 568.966 230.551C568.787 230.797 568.561 231.006 568.301 231.165C568.042 231.325 567.753 231.431 567.452 231.479C567.33 231.502 567.205 231.516 567.08 231.519V231.519Z" fill="#F0F0F0"/>
<path d="M561.033 203.624C560.523 203.624 560.028 203.456 559.622 203.147C559.217 202.837 558.924 202.403 558.789 201.912C547.209 159.91 525.453 121.412 495.446 89.8234C495.223 89.605 495.046 89.3439 494.927 89.0558C494.807 88.7676 494.746 88.4582 494.748 88.1461C494.751 87.834 494.816 87.5256 494.94 87.2392C495.064 86.9528 495.245 86.6944 495.471 86.4794C495.697 86.2643 495.964 86.0971 496.257 85.9875C496.549 85.878 496.86 85.8285 497.172 85.842C497.484 85.8555 497.79 85.9316 498.071 86.0659C498.353 86.2002 498.605 86.3899 498.812 86.6237C529.36 118.762 551.509 157.939 563.297 200.684C563.378 200.978 563.401 201.285 563.363 201.588C563.325 201.891 563.228 202.184 563.077 202.449C562.926 202.714 562.724 202.947 562.482 203.134C562.241 203.321 561.965 203.458 561.67 203.538C561.463 203.598 561.248 203.627 561.033 203.624V203.624Z" fill="#F0F0F0"/>
<path d="M318.063 7.82003H317.983C314.83 7.71381 311.624 7.66071 308.484 7.66735C307.868 7.66735 307.277 7.42256 306.841 6.98683C306.405 6.5511 306.16 5.96014 306.16 5.34393C306.16 4.72772 306.405 4.13675 306.841 3.70103C307.277 3.2653 307.868 3.02051 308.484 3.02051C311.697 3.02051 314.95 3.06697 318.156 3.17319C318.772 3.18375 319.359 3.43867 319.787 3.88186C320.215 4.32506 320.45 4.92023 320.439 5.53644C320.429 6.15264 320.174 6.73942 319.731 7.16768C319.288 7.59594 318.692 7.83059 318.076 7.82003H318.063Z" fill="#F0F0F0"/>
<path d="M147.371 58.1386C146.881 58.1387 146.403 57.9835 146.006 57.6953C145.609 57.4071 145.313 57.0006 145.162 56.5342C145.01 56.0677 145.009 55.5652 145.161 55.0985C145.312 54.6319 145.607 54.2252 146.004 53.9365C187.917 23.5397 237.745 5.94601 289.452 3.28596C290.068 3.25339 290.672 3.46695 291.131 3.87964C291.589 4.29233 291.865 4.87036 291.898 5.48657C291.931 6.10278 291.717 6.7067 291.304 7.16546C290.892 7.62421 290.314 7.90023 289.697 7.9328C238.883 10.5494 189.918 27.8434 148.732 57.7204C148.334 57.9996 147.858 58.1459 147.371 58.1386V58.1386Z" fill="#F0F0F0"/>
<path d="M483.709 214.644C483.232 214.643 482.767 214.495 482.376 214.221C481.986 213.947 481.689 213.559 481.525 213.111C474.255 193.12 463.64 174.511 450.133 158.079C449.756 157.601 449.582 156.995 449.647 156.39C449.712 155.785 450.013 155.23 450.483 154.844C450.953 154.458 451.556 154.272 452.162 154.326C452.768 154.379 453.329 154.669 453.724 155.131C467.563 171.972 478.441 191.04 485.893 211.524C486.103 212.103 486.075 212.74 485.815 213.298C485.555 213.855 485.084 214.287 484.506 214.498C484.252 214.595 483.982 214.644 483.709 214.644V214.644Z" fill="#F0F0F0"/>
<path d="M417.937 126.553C417.437 126.552 416.951 126.391 416.549 126.095C399.931 113.748 381.379 104.244 361.65 97.9683C361.354 97.8802 361.079 97.734 360.84 97.5383C360.601 97.3426 360.404 97.1013 360.26 96.8285C360.115 96.5556 360.027 96.2567 359.999 95.9492C359.971 95.6417 360.005 95.3318 360.099 95.0376C360.192 94.7434 360.343 94.4708 360.544 94.2356C360.744 94.0005 360.989 93.8076 361.264 93.6682C361.54 93.5289 361.84 93.4458 362.148 93.4238C362.456 93.4019 362.765 93.4416 363.058 93.5405C383.279 99.9845 402.292 109.736 419.324 122.397C419.717 122.689 420.007 123.097 420.154 123.563C420.302 124.029 420.298 124.529 420.145 124.993C419.991 125.457 419.695 125.861 419.298 126.147C418.902 126.433 418.426 126.587 417.937 126.586V126.553Z" fill="#F0F0F0"/>
<path d="M336.518 91.7615C336.387 91.7744 336.256 91.7744 336.126 91.7615C330.875 90.872 325.504 90.1949 320.194 89.77C319.578 89.719 319.007 89.4252 318.607 88.9534C318.208 88.4816 318.012 87.8703 318.063 87.2541C318.114 86.6379 318.408 86.0672 318.88 85.6676C319.351 85.268 319.963 85.0721 320.579 85.1232C326.036 85.5812 331.539 86.2783 336.916 87.1877C337.489 87.2857 338.005 87.5951 338.361 88.055C338.717 88.5148 338.888 89.0915 338.84 89.6712C338.792 90.2509 338.527 90.7913 338.1 91.1857C337.672 91.5801 337.112 91.7998 336.531 91.8014L336.518 91.7615Z" fill="#F0F0F0"/>
<path d="M212.022 112.825C211.508 112.824 211.008 112.652 210.602 112.336C210.196 112.021 209.906 111.58 209.778 111.081C209.65 110.583 209.69 110.057 209.893 109.584C210.096 109.112 210.45 108.72 210.9 108.471C238.274 93.3679 268.903 85.1288 300.159 84.4596H300.206C300.822 84.4526 301.416 84.6906 301.856 85.1214C302.297 85.5521 302.549 86.1403 302.556 86.7565C302.563 87.3727 302.325 87.9665 301.894 88.4072C301.463 88.8479 300.875 89.0994 300.259 89.1065C269.756 89.7596 239.866 97.7981 213.151 112.533C212.806 112.725 212.417 112.826 212.022 112.825V112.825Z" fill="#F0F0F0"/>
<path d="M117.851 320.652C117.32 320.65 116.806 320.468 116.393 320.135C115.98 319.802 115.694 319.338 115.58 318.819C108.108 284.311 110.173 248.419 121.555 214.996C121.764 214.425 122.189 213.96 122.737 213.699C123.286 213.438 123.915 213.402 124.489 213.599C125.064 213.796 125.539 214.21 125.812 214.753C126.085 215.296 126.134 215.924 125.949 216.503C114.853 249.126 112.847 284.154 120.147 317.83C120.278 318.432 120.165 319.062 119.832 319.58C119.5 320.099 118.976 320.465 118.375 320.599C118.202 320.634 118.027 320.652 117.851 320.652V320.652Z" fill="#F0F0F0"/>
<path d="M342.811 57.8268C342.675 57.8264 342.539 57.8131 342.406 57.787C333.482 56.2197 324.47 55.2066 315.421 54.7533C314.805 54.7225 314.226 54.4481 313.812 53.9906C313.398 53.5331 313.183 52.9299 313.214 52.3137C313.244 51.6975 313.519 51.1187 313.976 50.7048C314.434 50.2909 315.037 50.0756 315.653 50.1064C324.896 50.5724 334.101 51.6077 343.216 53.2065C343.791 53.3047 344.308 53.6157 344.664 54.0777C345.021 54.5396 345.19 55.1187 345.139 55.6999C345.088 56.2811 344.82 56.8219 344.389 57.2147C343.957 57.6075 343.394 57.8237 342.811 57.8202V57.8268Z" fill="#F0F0F0"/>
<path d="M315.547 54.7528H315.427C311.756 54.5669 308.026 54.474 304.328 54.474C303.712 54.474 303.121 54.2292 302.685 53.7935C302.25 53.3577 302.005 52.7668 302.005 52.1506C302.005 51.5344 302.25 50.9434 302.685 50.5077C303.121 50.0719 303.712 49.8271 304.328 49.8271C308.099 49.8271 311.909 49.9267 315.66 50.1126C316.276 50.1276 316.861 50.3867 317.286 50.833C317.711 51.2793 317.942 51.8762 317.927 52.4924C317.912 53.1086 317.653 53.6937 317.206 54.1188C316.76 54.544 316.163 54.7744 315.547 54.7594V54.7528Z" fill="#F0F0F0"/>
<path d="M95.3666 204.435C95.114 204.434 94.8631 204.394 94.6231 204.315C94.0392 204.117 93.5577 203.696 93.2839 203.143C93.0102 202.591 92.9666 201.952 93.1626 201.368C94.8089 196.488 96.6544 191.603 98.6393 186.85C98.8865 186.296 99.3399 185.862 99.9031 185.638C100.466 185.415 101.094 185.42 101.654 185.653C102.213 185.886 102.659 186.328 102.897 186.885C103.135 187.442 103.146 188.07 102.928 188.635C100.983 193.282 99.177 198.075 97.5639 202.855C97.4094 203.315 97.1142 203.715 96.7199 203.999C96.3256 204.282 95.8522 204.435 95.3666 204.435V204.435Z" fill="#F0F0F0"/>
<path d="M597.677 322.504H2.32342C1.70721 322.504 1.11624 322.259 0.680515 321.823C0.244789 321.388 0 320.797 0 320.18C0 319.564 0.244789 318.973 0.680515 318.537C1.11624 318.102 1.70721 317.857 2.32342 317.857H597.677C598.293 317.857 598.884 318.102 599.319 318.537C599.755 318.973 600 319.564 600 320.18C600 320.797 599.755 321.388 599.319 321.823C598.884 322.259 598.293 322.504 597.677 322.504V322.504Z" fill="#F0F0F0"/>
<path d="M510.601 136.856C510.601 136.856 514.458 119.875 526.792 119.875C539.126 119.875 541.443 133.75 541.443 133.75C541.443 133.75 555.317 134.526 555.317 142.233C555.317 149.941 546.063 148.42 546.063 148.42H500.577C500.577 148.42 492.127 139.937 510.601 136.856Z" fill="white"/>
<path d="M526.792 119.875C539.126 119.875 541.443 133.749 541.443 133.749C541.443 133.749 555.317 134.526 555.317 142.233C555.317 147.736 550.597 148.526 547.902 148.526C547.287 148.53 546.672 148.488 546.063 148.4H500.577C500.577 148.4 492.1 139.917 510.601 136.836C510.601 136.836 514.458 119.875 526.792 119.875V119.875ZM526.792 115.229C514.491 115.229 508.922 127.098 506.95 132.82C499.854 134.44 495.745 137.268 494.41 141.45C492.671 146.88 496.814 151.235 497.292 151.713C497.727 152.148 498.245 152.493 498.814 152.726C499.384 152.96 499.995 153.078 500.611 153.074H545.751C546.465 153.157 547.183 153.199 547.902 153.2C555.204 153.2 559.964 148.905 559.964 142.26C559.964 134.181 551.759 130.656 545.127 129.528C542.99 123.287 537.5 115.255 526.792 115.255V115.229Z" fill="#4C3133"/>
<path d="M496.183 45.2933C495.519 36.7365 481.705 34.7649 477.104 38.7147C477.104 38.7147 473.785 9.75823 450.126 5.81505C426.467 1.87188 415.248 7.80656 404.063 25.5509C404.063 25.5509 384.984 21.6077 385.641 38.7147C385.641 38.7147 362.606 38.7147 363.263 48.5859C363.921 58.4571 377.742 56.4789 377.742 56.4789L490.919 55.8151C490.919 55.8151 496.84 53.8501 496.183 45.2933Z" fill="#F0F0F0"/>
<path d="M437.533 4.64021C441.762 4.68758 445.981 5.08055 450.146 5.81518C473.832 9.75836 477.124 38.7148 477.124 38.7148C478.631 37.4203 481.107 36.7631 483.822 36.7631C489.365 36.7631 495.771 39.538 496.203 45.2934C496.867 53.8502 490.939 55.8218 490.939 55.8218L377.761 56.4857C376.847 56.5969 375.927 56.6501 375.007 56.645C370.944 56.645 363.755 55.6359 363.283 48.5927C362.619 38.7215 385.661 38.7215 385.661 38.7215C385.21 27.0114 393.999 25.1659 399.602 25.1659C401.106 25.1593 402.608 25.2905 404.089 25.5576C413.084 11.2786 422.072 4.64684 437.56 4.64684L437.533 4.64021ZM437.56 0C429.023 0 421.926 1.91848 415.859 5.84838C410.854 9.09453 406.333 13.8144 401.772 20.5988C401.109 20.5523 400.385 20.5191 399.602 20.5191C393.567 20.5191 388.648 22.3115 385.389 25.7037C383.16 28.0507 381.718 31.0352 381.267 34.2406C375.491 34.6721 366.098 36.1325 361.497 41.0449C360.498 42.0795 359.727 43.3127 359.236 44.6645C358.744 46.0163 358.542 47.4565 358.643 48.8914C359.161 56.6516 365.281 61.2852 375 61.2852C376.02 61.2865 377.039 61.2334 378.054 61.1259L490.958 60.462C491.45 60.4555 491.938 60.375 492.406 60.2231C495.877 59.0613 501.567 54.5406 500.83 44.9549C500.166 36.5374 491.782 32.1362 483.816 32.1362C482.733 32.1329 481.651 32.2195 480.583 32.3951C479.642 28.7161 478.337 25.1403 476.686 21.7207C471.043 10.1965 462.128 3.1333 450.903 1.24801C446.492 0.472221 442.025 0.0592607 437.546 0.0132795L437.56 0Z" fill="#4C3133"/>
<path d="M372.497 49.3959C369.427 49.7612 366.316 49.5905 363.303 48.8914C364.233 58.4042 377.742 56.4791 377.742 56.4791L490.919 55.8152C490.919 55.8152 495.214 54.3813 496.083 48.6724L372.497 49.3959Z" fill="#E2E2E0"/>
<path d="M244.191 141.921C244.191 141.921 293.063 141.921 291.662 162.865C290.262 183.809 260.947 179.62 260.947 179.62L20.8046 178.226C20.8046 178.226 8.23821 174.037 9.63226 155.881C11.0263 137.725 40.3479 133.543 50.1262 141.941C50.1262 141.941 57.8266 71.5743 107.415 59.8576C162.699 46.8066 196.488 73.6786 205.105 114.02C205.098 114 245.586 105.622 244.191 141.921Z" fill="white"/>
<path d="M134.214 56.5121C173.659 56.5121 197.942 80.6557 205.098 114C208.248 113.428 211.443 113.148 214.644 113.164C226.52 113.164 245.181 117.08 244.218 141.921C244.218 141.921 293.089 141.921 291.689 162.865C290.693 177.821 275.451 179.965 266.822 179.965C264.867 179.977 262.913 179.861 260.973 179.62L20.8045 178.226C20.8045 178.226 8.23813 174.037 9.63218 155.881C10.5682 143.674 24.1237 137.799 35.9001 137.799C41.6224 137.799 46.9198 139.193 50.1194 141.934C50.1194 141.934 57.8199 71.5678 107.408 59.8512C116.185 57.7122 125.18 56.5983 134.214 56.532V56.5121ZM134.214 51.8851C124.818 51.9571 115.462 53.1155 106.333 55.3371C94.1117 58.2181 83.2713 64.6308 74.1237 74.4489C66.9476 82.1427 60.8072 91.9077 55.8815 103.472C51.6464 113.541 48.5082 124.037 46.5215 134.778C43.0929 133.663 39.5051 133.116 35.9001 133.158C21.3953 133.158 6.12714 140.846 4.99198 155.55C4.14891 166.556 7.91285 173.281 11.2254 176.978C13.423 179.504 16.2059 181.452 19.3308 182.654C19.796 182.806 20.2818 182.887 20.7713 182.893L260.635 184.267C262.68 184.5 264.737 184.615 266.795 184.612C284.639 184.612 295.393 176.799 296.302 163.177C296.464 160.845 296.134 158.506 295.334 156.31C294.533 154.115 293.28 152.112 291.656 150.431C286.391 144.802 276.699 140.885 262.839 138.788C258.193 138.095 253.516 137.637 248.825 137.414C248.354 129.341 245.751 122.809 241.058 117.917C233.583 110.143 222.57 108.517 214.644 108.517C212.38 108.517 210.336 108.65 208.67 108.816C204.441 92.6379 196.249 79.0161 184.831 69.2245C171.588 57.8663 154.089 51.8652 134.241 51.8652L134.214 51.8851Z" fill="#4C3133"/>
<path d="M273.559 171.654L33.4174 170.26C33.4174 170.26 20.851 166.071 22.2451 147.915C22.4713 144.773 23.6266 141.77 25.5642 139.286C17.3261 141.735 10.2961 147.218 9.63222 155.882C8.23153 174.037 20.8046 178.226 20.8046 178.226L260.947 179.62C260.947 179.62 281.818 182.601 289.179 170.957C284.046 172.043 278.769 172.278 273.559 171.654V171.654Z" fill="#F0F0F0"/>
<path d="M256.592 351.042C256.592 351.042 268.269 321.017 261.776 288.489C255.284 255.961 305.543 243.813 322.564 272.245C339.584 300.677 342.014 347.783 342.014 347.783L337.965 370.526L256.592 351.042Z" fill="#C5E6F1"/>
<path d="M293.043 256.313C304.388 256.313 315.972 261.232 322.57 272.245C339.591 300.671 342.021 347.783 342.021 347.783L337.971 370.526L256.592 351.042C256.592 351.042 268.269 321.017 261.776 288.489C257.793 268.574 275.119 256.307 293.036 256.307L293.043 256.313ZM293.036 251.66C280.941 251.66 269.716 256.545 263.011 264.717C257.369 271.595 255.364 280.132 257.216 289.399C263.343 320.101 252.363 349.064 252.25 349.356C252.012 349.974 251.907 350.635 251.945 351.296C251.983 351.957 252.161 352.603 252.469 353.189C252.776 353.776 253.205 354.29 253.727 354.697C254.25 355.104 254.853 355.395 255.497 355.55L336.883 375.053C337.499 375.202 338.139 375.222 338.763 375.114C339.388 375.006 339.983 374.771 340.514 374.424C341.044 374.077 341.498 373.625 341.847 373.096C342.197 372.568 342.434 371.973 342.545 371.349L346.594 348.606C346.657 348.258 346.679 347.904 346.661 347.551C346.561 345.559 344.006 298.951 326.56 269.882C319.736 258.49 307.209 251.686 293.05 251.686L293.036 251.66Z" fill="#4C3133"/>
<path d="M342.021 347.79C342.021 347.79 339.591 300.657 322.57 272.252C313.502 257.103 295.001 253.485 280.676 258.311C292.359 257.993 304.481 262.859 311.285 274.243C328.306 302.669 330.735 349.781 330.735 349.781L327.496 368.023L337.984 370.533L342.021 347.79Z" fill="#81C4D4"/>
<path d="M253.684 352.549C253.369 352.55 253.056 352.487 252.766 352.362C252.476 352.238 252.214 352.055 251.998 351.825L155.563 250.292C155.139 249.845 154.909 249.247 154.925 248.631C154.942 248.015 155.202 247.43 155.649 247.006C156.096 246.582 156.694 246.352 157.31 246.368C157.926 246.385 158.511 246.645 158.935 247.092L255.377 348.659C255.693 348.987 255.905 349.401 255.987 349.849C256.069 350.296 256.017 350.759 255.837 351.177C255.658 351.596 255.36 351.952 254.979 352.202C254.599 352.452 254.153 352.584 253.697 352.582L253.684 352.549Z" fill="#4C3133"/>
<path d="M243.422 340.555C248.392 335.656 247.589 326.784 241.63 320.74C235.671 314.696 226.812 313.768 221.842 318.667C216.873 323.566 217.676 332.437 223.635 338.482C229.594 344.526 238.453 345.454 243.422 340.555Z" fill="#C5E6F1"/>
<path d="M237.135 345.798C232.095 345.683 227.303 343.587 223.798 339.963C216.894 333.039 216.025 322.643 221.867 316.795C223.159 315.529 224.69 314.532 226.371 313.863C228.052 313.194 229.849 312.866 231.658 312.898V312.898C236.698 313.013 241.49 315.109 244.995 318.733C251.898 325.657 252.768 336.053 246.926 341.901C245.634 343.167 244.103 344.164 242.422 344.833C240.741 345.502 238.944 345.83 237.135 345.798V345.798ZM231.658 317.545C230.46 317.51 229.266 317.716 228.149 318.15C227.032 318.585 226.013 319.239 225.153 320.074C221.123 324.117 221.986 331.565 227.091 336.67C229.722 339.422 233.329 341.029 237.135 341.144C238.333 341.179 239.526 340.973 240.644 340.539C241.761 340.105 242.78 339.45 243.64 338.615C247.67 334.572 246.807 327.124 241.702 322.019C239.071 319.267 235.464 317.66 231.658 317.545V317.545Z" fill="#4C3133"/>
<path d="M151.58 394.789C151.255 394.787 150.935 394.719 150.637 394.59C150.075 394.339 149.635 393.875 149.415 393.299C149.195 392.724 149.212 392.085 149.462 391.523C149.548 391.317 158.377 370.532 146.96 337.998C138.821 314.81 141.49 291.476 145.167 275.976C149.15 259.234 154.952 248.095 155.198 247.61C155.485 247.064 155.977 246.655 156.566 246.472C157.154 246.289 157.792 246.347 158.338 246.634C158.883 246.921 159.293 247.413 159.476 248.002C159.659 248.591 159.6 249.228 159.313 249.774C159.081 250.212 136.471 294.098 151.347 336.464C163.429 370.858 154.116 392.505 153.711 393.408C153.528 393.821 153.23 394.171 152.851 394.416C152.473 394.662 152.031 394.791 151.58 394.789V394.789Z" fill="#4C3133"/>
<path d="M297.803 303.989C297.995 293.249 289.359 285.595 281.944 289.292C274.529 292.99 262.387 291.848 262.387 291.848C263.547 298.375 264.012 305.006 263.774 311.63C263.774 311.63 297.623 314.73 297.803 303.989Z" fill="#81C4D4"/>
<path d="M277.708 244.948C287.891 241.496 301.089 243.036 310.694 247.603C314.896 249.595 318.82 252.356 323.413 253.286C328.007 254.215 333.696 252.562 335.296 248.241C336.239 245.691 335.515 242.784 333.935 240.593C332.355 238.403 330.005 236.843 327.556 235.621C321.327 232.55 314.327 231.395 307.441 232.302C305.583 232.548 303.04 232.541 302.602 230.768C302.264 229.401 303.638 228.166 304.998 227.668C306.359 227.17 307.913 227.005 308.981 226.022C310.349 224.801 310.429 222.597 309.519 221.043C308.496 219.513 306.962 218.398 305.191 217.897C298.168 215.494 290.029 219.012 285.276 224.694C280.523 230.377 278.638 237.772 277.576 244.988L277.708 244.948Z" fill="#C5E6F1"/>
<path d="M325.976 255.882C324.957 255.884 323.941 255.784 322.942 255.583C319.344 254.859 316.217 253.173 313.19 251.54C311.989 250.876 310.847 250.279 309.679 249.721C300.099 245.147 287.646 244.098 278.618 247.066C278.238 247.251 277.816 247.329 277.395 247.292C276.975 247.255 276.572 247.105 276.231 246.856C275.89 246.608 275.623 246.271 275.459 245.882C275.294 245.493 275.239 245.067 275.299 244.649C276.162 238.635 277.954 229.873 283.517 223.201C289.305 216.244 298.533 213.157 305.941 215.686C308.517 216.569 310.449 218.01 311.524 219.862C313.051 222.517 312.626 225.87 310.535 227.748C309.464 228.61 308.207 229.213 306.864 229.507C306.479 229.62 306.12 229.726 305.802 229.839C305.643 229.901 305.49 229.977 305.344 230.065C305.942 230.104 306.543 230.079 307.136 229.992C314.483 229.03 321.95 230.264 328.598 233.537C331.871 235.163 334.234 237.029 335.82 239.226C338.004 242.253 338.628 245.924 337.473 249.037C335.727 253.751 330.729 255.882 325.976 255.882ZM290.095 240.733C297.555 240.733 304.924 242.369 311.683 245.526C312.951 246.136 314.193 246.807 315.394 247.451C318.249 248.984 320.937 250.438 323.858 251.029C327.403 251.746 331.944 250.577 333.105 247.451C333.709 245.818 333.298 243.72 332.037 241.974C330.901 240.401 329.096 239.007 326.507 237.719C320.691 234.858 314.159 233.782 307.734 234.626C302.191 235.362 300.717 232.886 300.332 231.346C299.668 228.691 301.772 226.401 304.182 225.511C304.653 225.332 305.118 225.199 305.563 225.073C306.222 224.938 306.85 224.682 307.415 224.316C307.642 224.02 307.773 223.661 307.788 223.288C307.804 222.915 307.703 222.546 307.501 222.232C306.837 221.13 305.47 220.473 304.428 220.114C298.148 217.963 290.945 221.548 287.068 226.201C283.895 230.019 281.811 234.898 280.483 241.755C283.64 241.062 286.864 240.719 290.095 240.733V240.733Z" fill="#4C3133"/>
<path d="M284.114 284.32H277.429C276.813 284.32 276.222 284.075 275.787 283.64C275.351 283.204 275.106 282.613 275.106 281.997C275.106 281.381 275.351 280.79 275.787 280.354C276.222 279.918 276.813 279.673 277.429 279.673H284.114C284.73 279.673 285.321 279.918 285.757 280.354C286.193 280.79 286.438 281.381 286.438 281.997C286.438 282.613 286.193 283.204 285.757 283.64C285.321 284.075 284.73 284.32 284.114 284.32V284.32Z" fill="#4C3133"/>
<path d="M277.652 301.594C279.172 301.524 280.349 300.267 280.28 298.788C280.212 297.308 278.924 296.166 277.404 296.236C275.884 296.306 274.708 297.563 274.776 299.042C274.845 300.522 276.132 301.664 277.652 301.594Z" fill="#4C3133"/>
<path d="M205.052 353.697C209.34 372.69 216.583 389.199 227.748 402.429H410.907C421.847 389.511 429.003 373.134 432.813 353.697H205.052Z" fill="#F0F0F0"/>
<path d="M432.794 353.697C429.003 373.134 421.847 389.511 410.887 402.429H227.748C216.583 389.199 209.34 372.689 205.052 353.697H432.794ZM432.794 349.05H205.052C204.355 349.05 203.666 349.207 203.038 349.509C202.41 349.811 201.857 350.25 201.422 350.795C200.986 351.339 200.679 351.975 200.523 352.654C200.366 353.333 200.365 354.039 200.518 354.719C205.211 375.517 212.958 392.107 224.197 405.43C224.633 405.946 225.177 406.361 225.791 406.645C226.404 406.929 227.072 407.077 227.748 407.076H410.907C411.583 407.077 412.25 406.931 412.864 406.648C413.477 406.365 414.021 405.951 414.458 405.436C425.617 392.246 433.311 375.192 437.321 354.739C437.401 354.398 437.441 354.048 437.44 353.697C437.44 352.465 436.951 351.283 436.079 350.411C435.208 349.54 434.026 349.05 432.794 349.05V349.05Z" fill="#4C3133"/>
<path d="M422.205 353.697C420.144 361.802 417.187 369.653 413.39 377.104C410.801 382.128 406.88 386.343 402.056 389.287C397.232 392.232 391.691 393.793 386.04 393.8H221.322C223.291 396.801 225.437 399.683 227.748 402.429H410.907C421.847 389.511 429.003 373.134 432.813 353.697H422.205Z" fill="#E2E2E0"/>
<path d="M429.786 371.581H381.745C381.128 371.581 380.537 371.337 380.102 370.901C379.666 370.465 379.421 369.874 379.421 369.258C379.421 368.642 379.666 368.051 380.102 367.615C380.537 367.179 381.128 366.935 381.745 366.935H429.786C430.402 366.935 430.993 367.179 431.429 367.615C431.865 368.051 432.11 368.642 432.11 369.258C432.11 369.874 431.865 370.465 431.429 370.901C430.993 371.337 430.402 371.581 429.786 371.581Z" fill="#4C3133"/>
<path d="M346.442 370.254H208.982C208.365 370.254 207.774 370.009 207.339 369.573C206.903 369.138 206.658 368.547 206.658 367.93C206.658 367.314 206.903 366.723 207.339 366.287C207.774 365.852 208.365 365.607 208.982 365.607H346.442C347.058 365.607 347.649 365.852 348.085 366.287C348.521 366.723 348.765 367.314 348.765 367.93C348.765 368.547 348.521 369.138 348.085 369.573C347.649 370.009 347.058 370.254 346.442 370.254V370.254Z" fill="#4C3133"/>
<path d="M400.571 353.253C399.965 353.251 399.384 353.013 398.951 352.589C398.518 352.165 398.268 351.589 398.254 350.983L396.05 256.187C396.035 255.571 396.266 254.974 396.691 254.528C397.116 254.081 397.701 253.822 398.317 253.807C398.933 253.792 399.53 254.023 399.977 254.448C400.423 254.873 400.682 255.458 400.697 256.074L402.894 350.89C402.909 351.505 402.678 352.101 402.254 352.546C401.829 352.992 401.246 353.251 400.631 353.266L400.571 353.253Z" fill="#4C3133"/>
<path d="M381.519 223.347H417.432L406.439 261.836H391.045L381.519 223.347Z" fill="white"/>
<path d="M417.432 223.347L406.439 261.849H391.045L381.519 223.347H417.432ZM417.432 218.7H381.519C380.814 218.7 380.117 218.86 379.483 219.168C378.849 219.477 378.293 219.926 377.858 220.481C377.423 221.037 377.12 221.684 376.972 222.373C376.824 223.063 376.836 223.777 377.005 224.462L386.537 262.965C386.787 263.972 387.366 264.867 388.183 265.507C389 266.147 390.007 266.495 391.045 266.496H406.439C407.449 266.496 408.432 266.167 409.238 265.558C410.044 264.95 410.63 264.095 410.907 263.124L421.9 224.622C422.097 223.93 422.131 223.202 422 222.496C421.868 221.789 421.574 221.122 421.141 220.548C420.708 219.974 420.147 219.509 419.504 219.188C418.86 218.867 418.151 218.7 417.432 218.7V218.7Z" fill="#4C3133"/>
<path d="M368.322 224.057L399.11 205.523L426.958 224.057H368.322Z" fill="white"/>
<path d="M399.11 205.51L426.992 224.044H368.322L399.11 205.51ZM399.11 200.863C398.266 200.863 397.438 201.092 396.714 201.527L365.925 220.055C365.054 220.578 364.379 221.373 364.003 222.316C363.626 223.26 363.57 224.302 363.841 225.281C364.113 226.26 364.699 227.123 365.508 227.738C366.317 228.353 367.306 228.685 368.322 228.684H426.958C427.957 228.685 428.928 228.365 429.73 227.77C430.532 227.175 431.121 226.338 431.41 225.383C431.699 224.427 431.672 223.404 431.335 222.465C430.997 221.525 430.365 220.72 429.534 220.167L401.653 201.64C400.891 201.13 399.994 200.858 399.077 200.856L399.11 200.863Z" fill="#4C3133"/>
<path d="M428.95 261.166C430.497 261.166 431.751 259.912 431.751 258.364C431.751 256.817 430.497 255.563 428.95 255.563C427.403 255.563 426.148 256.817 426.148 258.364C426.148 259.912 427.403 261.166 428.95 261.166Z" fill="#4C3133"/>
<path d="M365.939 249.263C367.486 249.263 368.74 248.009 368.74 246.462C368.74 244.914 367.486 243.66 365.939 243.66C364.391 243.66 363.137 244.914 363.137 246.462C363.137 248.009 364.391 249.263 365.939 249.263Z" fill="#4C3133"/>
<path d="M378.545 288.469C380.092 288.469 381.346 287.215 381.346 285.668C381.346 284.12 380.092 282.866 378.545 282.866C376.998 282.866 375.744 284.12 375.744 285.668C375.744 287.215 376.998 288.469 378.545 288.469Z" fill="#4C3133"/>
<path d="M295.167 419.264H211.657C211.041 419.264 210.45 419.019 210.014 418.584C209.578 418.148 209.334 417.557 209.334 416.941C209.334 416.324 209.578 415.733 210.014 415.298C210.45 414.862 211.041 414.617 211.657 414.617H295.167C295.784 414.617 296.375 414.862 296.81 415.298C297.246 415.733 297.491 416.324 297.491 416.941C297.491 417.557 297.246 418.148 296.81 418.584C296.375 419.019 295.784 419.264 295.167 419.264V419.264Z" fill="#4C3133"/>
<path d="M364.87 435.197H281.36C280.743 435.197 280.152 434.952 279.717 434.516C279.281 434.08 279.036 433.489 279.036 432.873C279.036 432.257 279.281 431.666 279.717 431.23C280.152 430.795 280.743 430.55 281.36 430.55H364.87C365.486 430.55 366.077 430.795 366.513 431.23C366.949 431.666 367.193 432.257 367.193 432.873C367.193 433.489 366.949 434.08 366.513 434.516C366.077 434.952 365.486 435.197 364.87 435.197V435.197Z" fill="#4C3133"/>
<path d="M421.05 419.264H349.077C348.461 419.264 347.87 419.019 347.434 418.584C346.999 418.148 346.754 417.557 346.754 416.941C346.754 416.324 346.999 415.733 347.434 415.298C347.87 414.862 348.461 414.617 349.077 414.617H421.05C421.666 414.617 422.257 414.862 422.693 415.298C423.129 415.733 423.374 416.324 423.374 416.941C423.374 417.557 423.129 418.148 422.693 418.584C422.257 419.019 421.666 419.264 421.05 419.264Z" fill="#4C3133"/>
<path d="M193.68 419.264H178.605C177.988 419.264 177.398 419.019 176.962 418.584C176.526 418.148 176.281 417.557 176.281 416.941C176.281 416.324 176.526 415.733 176.962 415.298C177.398 414.862 177.988 414.617 178.605 414.617H193.68C194.297 414.617 194.888 414.862 195.323 415.298C195.759 415.733 196.004 416.324 196.004 416.941C196.004 417.557 195.759 418.148 195.323 418.584C194.888 419.019 194.297 419.264 193.68 419.264Z" fill="#4C3133"/>
<path d="M442.545 419.264H429.547C428.931 419.264 428.34 419.019 427.904 418.584C427.469 418.148 427.224 417.557 427.224 416.941C427.224 416.324 427.469 415.733 427.904 415.298C428.34 414.862 428.931 414.617 429.547 414.617H442.545C443.161 414.617 443.752 414.862 444.188 415.298C444.624 415.733 444.869 416.324 444.869 416.941C444.869 417.557 444.624 418.148 444.188 418.584C443.752 419.019 443.161 419.264 442.545 419.264V419.264Z" fill="#4C3133"/>
<path d="M426.148 388.794C425.532 388.794 424.941 388.549 424.506 388.114C424.07 387.678 423.825 387.087 423.825 386.471C423.825 385.855 424.07 385.264 424.506 384.828C424.941 384.392 425.532 384.147 426.148 384.147L473.347 383.815C473.963 383.815 474.554 384.06 474.99 384.496C475.426 384.932 475.671 385.523 475.671 386.139C475.671 386.755 475.426 387.346 474.99 387.782C474.554 388.218 473.963 388.462 473.347 388.462L426.148 388.794Z" fill="#4C3133"/>
<path d="M502.835 388.462H491.038C490.422 388.462 489.831 388.218 489.395 387.782C488.96 387.346 488.715 386.755 488.715 386.139C488.715 385.523 488.96 384.932 489.395 384.496C489.831 384.06 490.422 383.815 491.038 383.815H502.835C503.451 383.815 504.042 384.06 504.478 384.496C504.913 384.932 505.158 385.523 505.158 386.139C505.158 386.755 504.913 387.346 504.478 387.782C504.042 388.218 503.451 388.462 502.835 388.462V388.462Z" fill="#4C3133"/>
</svg>
