<svg width="24" height="24" viewBox="0 0 24 24" fill="none" xmlns="http://www.w3.org/2000/svg">
<path d="M18.9406 12.6412C18.9358 12.2146 18.8354 11.7932 18.6787 11.3975C18.5579 11.0911 18.4176 10.7928 18.2806 10.4934C17.1903 8.13238 16.0461 5.7963 14.8489 3.48695C14.6805 3.16427 14.5157 2.83964 14.3379 2.52196C14.1631 2.21206 13.9597 1.91373 13.6964 1.67118C13.2761 1.27312 12.7123 1.0358 12.1336 1H11.8672C11.2715 1.02922 10.69 1.27763 10.2626 1.69163C10.0089 1.93042 9.8126 2.22156 9.64251 2.52281C9.46702 2.83526 9.30452 3.15478 9.13933 3.47234C8.33603 5.02173 7.55638 6.58312 6.80065 8.15596C6.35017 9.09721 5.90348 10.04 5.47383 10.9906C5.29565 11.3865 5.1345 11.796 5.07384 12.2283C4.96147 12.9582 5.12261 13.7242 5.51501 14.3509C5.85324 14.8954 6.36095 15.3341 6.95273 15.5875C7.41535 15.7859 7.91816 15.8743 8.42121 15.8457C9.09313 15.8103 9.74104 15.5704 10.3095 15.2204C10.9437 14.8336 11.4861 14.3193 11.9911 13.7808C12.4607 14.2837 12.9633 14.7636 13.5434 15.1397C14.1037 15.506 14.7425 15.7712 15.4145 15.8343C16.1442 15.91 16.9003 15.7303 17.5128 15.3267C18.0546 14.97 18.4741 14.4578 18.7155 13.8583C18.871 13.4714 18.9475 13.0577 18.9406 12.6412ZM11.9942 12.3597C11.811 12.1454 11.6496 11.9135 11.4875 11.6834C11.2147 11.2858 10.9666 10.8703 10.7671 10.4312C10.6036 10.0668 10.4724 9.68437 10.4212 9.28717C10.3838 8.97204 10.3927 8.64327 10.5092 8.34409C10.6133 8.06354 10.8136 7.82049 11.0672 7.65988C11.6716 7.2723 12.5331 7.31419 13.0808 7.78433C13.358 8.01897 13.5236 8.36588 13.5652 8.72242C13.6198 9.19633 13.5113 9.67232 13.3448 10.1143C13.0303 10.9345 12.5325 11.6698 11.9942 12.3597ZM17.9246 13.3649C17.7631 13.9188 17.3748 14.4027 16.8669 14.6819C16.4166 14.9321 15.8793 15.0179 15.3717 14.9336C14.7253 14.8336 14.1452 14.4928 13.6427 14.0905C13.2733 13.7956 12.9407 13.4585 12.6221 13.1111C13.1252 12.4789 13.5991 11.8175 13.9611 11.0944C14.277 10.4612 14.5171 9.77521 14.5398 9.06324C14.5527 8.61149 14.4672 8.15145 14.2548 7.74926C13.9767 7.21191 13.4786 6.79912 12.9075 6.59942C12.3741 6.41008 11.7811 6.39315 11.2368 6.54731C10.7236 6.6916 10.2549 6.99808 9.93368 7.42293C9.65096 7.79334 9.48981 8.24875 9.45244 8.71061C9.39496 9.37581 9.56273 10.0394 9.81652 10.651C10.1938 11.5445 10.7476 12.3532 11.3593 13.1034C11.0835 13.4199 10.7842 13.7154 10.4639 13.9875C9.96738 14.405 9.39925 14.7685 8.75564 14.9068C8.2353 15.0228 7.67392 14.9651 7.19672 14.7253C6.63778 14.4485 6.20862 13.9272 6.04674 13.328C5.92297 12.8878 5.95042 12.4125 6.0976 11.9814C6.22002 11.6246 6.38607 11.2846 6.54146 10.9414C7.62012 8.6058 8.75147 6.29462 9.93466 4.00958C10.1111 3.66948 10.2849 3.32781 10.4717 2.99331C10.6241 2.72384 10.8014 2.45925 11.052 2.27002C11.323 2.06027 11.6582 1.94925 12.0017 1.9555C12.3546 1.95136 12.7054 2.08055 12.9754 2.30594C13.2421 2.52598 13.4222 2.82698 13.584 3.12701C13.9497 3.80951 14.3009 4.49993 14.6522 5.18961C15.6549 7.16158 16.6184 9.15301 17.5421 11.1627C17.6817 11.4749 17.8311 11.7847 17.9251 12.1142C18.0399 12.5206 18.0437 12.9594 17.9246 13.3649ZM6.76143 17.6867C7.06339 17.6188 7.39328 17.8167 7.47171 18.1145C7.56914 18.4193 7.37551 18.7736 7.06719 18.8618C6.76597 18.967 6.40825 18.7841 6.3085 18.4853C6.21389 18.2335 6.31512 17.9295 6.53987 17.7806C6.60688 17.7353 6.68214 17.7034 6.76143 17.6867ZM8.80086 19.6541C8.98272 19.4577 9.23896 19.3346 9.50293 19.2954C9.67903 19.2783 9.85675 19.2895 10.0293 19.3285C10.0271 19.605 10.0288 19.8812 10.0283 20.1579C9.75758 20.0883 9.46445 20.074 9.19877 20.1711C9.05445 20.2233 8.92438 20.3083 8.81887 20.4192C8.79608 20.4385 8.80159 20.4698 8.79951 20.4967C8.8011 21.2693 8.79828 22.0421 8.80061 22.8145C8.79792 22.8443 8.80515 22.8777 8.79191 22.9056C8.49167 22.9126 8.19106 22.907 7.8907 22.9081C7.89082 21.7302 7.88972 20.5521 7.89144 19.3743C8.14437 19.3754 8.39743 19.3733 8.65049 19.3748C8.70613 19.3716 8.76544 19.4 8.78578 19.4539C8.80576 19.5185 8.79939 19.5873 8.80086 19.6541ZM15.2748 19.6573C15.5151 19.4102 15.8634 19.2887 16.2051 19.288C16.5663 19.2789 16.9364 19.385 17.2154 19.6178C17.401 19.7624 17.5348 19.9625 17.5971 20.1885C17.6766 20.4639 17.6694 20.753 17.6685 21.0366C17.6687 21.6606 17.6685 22.2846 17.6687 22.9087C17.3659 22.9082 17.0632 22.9106 16.7604 22.9073C16.7606 22.2838 16.7604 21.6602 16.7606 21.0364C16.7606 20.8047 16.7717 20.5547 16.6477 20.3483C16.5613 20.2002 16.3903 20.1264 16.2255 20.1093C15.9115 20.0593 15.5836 20.1834 15.3672 20.4109C15.3441 20.4338 15.3244 20.4628 15.327 20.4973C15.324 20.5938 15.3387 20.6906 15.3304 20.7871C15.3185 20.9183 15.337 21.0494 15.3327 21.1809C15.3288 21.4289 15.3285 21.6769 15.3317 21.9248C15.3146 22.2527 15.3445 22.5817 15.3248 22.9093C15.0232 22.9083 14.7218 22.909 14.4202 22.9089C14.4201 21.7305 14.418 20.5523 14.4213 19.3739C14.6545 19.3757 14.8882 19.3739 15.1213 19.3747C15.1816 19.3709 15.2476 19.4044 15.2631 19.4652C15.2773 19.5278 15.273 19.593 15.2748 19.6573ZM6.42933 22.9088C6.42921 21.7305 6.42749 20.5523 6.42994 19.374C6.73043 19.3748 7.03079 19.3745 7.33115 19.3743C7.33348 20.5525 7.33177 21.7307 7.33201 22.9087C7.03116 22.9087 6.73031 22.9084 6.42933 22.9088ZM5.86966 19.3744C5.63155 19.3739 5.39344 19.3751 5.15509 19.3731C5.0921 19.3727 5.01171 19.3757 4.98095 19.4415C4.95338 19.5091 4.96392 19.5841 4.96147 19.6552C4.76331 19.4456 4.48402 19.3212 4.19751 19.2942C3.75511 19.2547 3.29667 19.3766 2.9414 19.6435C2.64876 19.8583 2.43247 20.1689 2.31923 20.5111C2.2647 20.6715 2.23737 20.8397 2.21997 21.0079V21.2499C2.24534 21.7563 2.47205 22.2572 2.86751 22.5837C3.16579 22.8348 3.54911 22.975 3.93746 22.9995H4.13991C4.44775 22.9789 4.75167 22.8524 4.96171 22.6245C4.96367 22.6959 4.9535 22.7717 4.98046 22.8401C5.00852 22.8955 5.0747 22.9107 5.13217 22.9086C5.37788 22.9079 5.62395 22.9088 5.8699 22.9075C5.8699 21.7301 5.87064 20.5523 5.86966 19.3744ZM4.93365 21.8077C4.74983 22.0264 4.4627 22.1557 4.17594 22.1467C3.86859 22.149 3.5496 22.032 3.35047 21.7924C3.15623 21.5638 3.09753 21.2457 3.14165 20.9551C3.17461 20.7198 3.29532 20.4942 3.486 20.3482C3.65892 20.2125 3.87693 20.1426 4.09518 20.1275C4.4203 20.0993 4.76306 20.2417 4.95865 20.5026C4.96968 20.8866 4.95889 21.2717 4.96379 21.6563C4.96061 21.707 4.9747 21.768 4.93365 21.8077ZM13.9011 20.3854C13.7612 20.0453 13.5129 19.7497 13.1982 19.5568C12.8741 19.3564 12.4853 19.2658 12.1053 19.2915C11.8052 19.3111 11.512 19.4383 11.3036 19.6558C11.3024 18.9957 11.3036 18.336 11.303 17.6759C11.0001 17.676 10.6969 17.6746 10.394 17.6767C10.3956 19.4202 10.3914 21.1645 10.3962 22.9078C10.647 22.9084 10.8981 22.909 11.1491 22.9084C11.2115 22.9133 11.2788 22.8792 11.2959 22.8165C11.3083 22.7527 11.3038 22.6868 11.3041 22.6222C11.5147 22.8549 11.824 22.9811 12.135 22.9998H12.3205C12.8241 22.9747 13.3178 22.7402 13.6339 22.347C14.0765 21.8077 14.1629 21.0237 13.9011 20.3854ZM12.8417 21.8727C12.6388 22.0598 12.3579 22.1496 12.0836 22.1469C11.7975 22.1535 11.5116 22.0228 11.3303 21.8028C11.3079 21.7799 11.3006 21.749 11.3024 21.7185C11.3026 21.314 11.303 20.9096 11.3024 20.5054C11.4764 20.2799 11.755 20.1393 12.0399 20.1249C12.3287 20.1165 12.6318 20.2007 12.8438 20.4031C13.0458 20.5893 13.1443 20.8685 13.1379 21.1389C13.1438 21.409 13.0426 21.6864 12.8417 21.8727ZM21.3756 19.948C20.9903 19.4605 20.3317 19.2145 19.7176 19.3057C19.4611 19.3459 19.2181 19.4682 19.0388 19.6557C19.0368 18.996 19.0388 18.3362 19.0378 17.6763C18.7354 17.6759 18.4332 17.6756 18.131 17.6765C18.1307 19.4201 18.131 21.1641 18.131 22.9079C18.3693 22.9098 18.6083 22.9076 18.8466 22.9098C18.9093 22.9107 18.9876 22.9058 19.0197 22.8422C19.0475 22.7735 19.0371 22.6969 19.039 22.6247C19.248 22.8522 19.5505 22.9778 19.8567 23H20.0608C20.5589 22.9731 21.0457 22.7421 21.3612 22.3549C21.6188 22.0461 21.7577 21.6506 21.7808 21.2523V21.0159C21.7522 20.6314 21.6216 20.2495 21.3756 19.948ZM20.6678 21.7711C20.428 22.0779 20.0048 22.192 19.6295 22.1324C19.4009 22.0871 19.1792 21.9645 19.0441 21.7731C19.029 21.6246 19.0426 21.4745 19.038 21.3253C19.0412 21.051 19.0312 20.7758 19.0426 20.502C19.1801 20.3136 19.4002 20.1928 19.6266 20.1429C20.0458 20.0659 20.533 20.2309 20.7449 20.6154C20.9378 20.9714 20.9185 21.447 20.6678 21.7711Z" fill="#FF7977"/>
</svg>
