<svg width="50" height="50" viewBox="0 0 50 50" fill="none" xmlns="http://www.w3.org/2000/svg">
<g clip-path="url(#clip0_21059_293)">
<path fill-rule="evenodd" clip-rule="evenodd" d="M4.7329 25.7293C4.67074 25.7832 4.58148 25.7922 4.50985 25.7519C4.19651 25.4913 4.13969 25.371 3.96933 25.1228C3.45047 25.6509 3.08369 25.8087 2.41285 25.8087C1.61824 25.8087 1 25.3182 1 24.3374C1 23.5713 1.41769 23.0507 2.00256 22.7951C2.51467 22.5703 3.22986 22.5294 3.77712 22.4676V22.3456C3.77712 22.1209 3.79466 21.8551 3.66265 21.6605C3.54732 21.4867 3.32849 21.4157 3.13291 21.4157C2.77278 21.4157 2.45204 21.6003 2.37347 21.9822C2.36353 22.0713 2.29499 22.1425 2.20639 22.156L1.29909 22.0566C1.2538 22.0502 1.21321 22.0254 1.18667 21.9881C1.16014 21.9509 1.15001 21.9044 1.15873 21.8595C1.36847 20.7499 2.37103 20.4149 3.26914 20.4149C3.72865 20.4149 4.32852 20.5369 4.68949 20.8845C5.14815 21.3139 5.10718 21.887 5.10718 22.5095V23.979C5.10718 24.4219 5.29095 24.6157 5.46393 24.8538C5.52413 24.9374 5.53744 25.0418 5.46393 25.1044C5.27098 25.2657 4.92838 25.5631 4.7404 25.731L4.7329 25.7293ZM3.78134 23.4284C3.78134 23.796 3.78969 24.1026 3.60508 24.431C3.45469 24.6967 3.21654 24.8604 2.95093 24.8604C2.58921 24.8604 2.37778 24.5846 2.37778 24.1753C2.37778 23.3716 3.09878 23.2253 3.78134 23.2253V23.43V23.4284Z" fill="#232F3E"/>
<path fill-rule="evenodd" clip-rule="evenodd" d="M7.3179 25.6927H6.3746C6.28712 25.6881 6.21605 25.6203 6.20752 25.5331V20.6873C6.21071 20.5901 6.29087 20.5134 6.388 20.5143H7.26774C7.35784 20.5193 7.42985 20.5913 7.43482 20.6814V21.3139H7.45235C7.68131 20.7014 8.11325 20.4166 8.69474 20.4166C9.27623 20.4166 9.65474 20.7015 9.91951 21.3139C10.0963 20.8425 10.5136 20.5032 11.011 20.4263C11.5083 20.3492 12.0087 20.5464 12.3198 20.9421C12.6198 21.3499 12.558 21.9447 12.558 22.461V25.518C12.5571 25.5653 12.5373 25.6103 12.5032 25.6432C12.469 25.6759 12.4232 25.6937 12.3759 25.6927H11.4326C11.3398 25.6878 11.2667 25.6117 11.2655 25.5188V22.9506C11.2655 22.7468 11.283 22.2371 11.2388 22.0433C11.1687 21.7175 10.9572 21.6255 10.684 21.6255C10.4336 21.6332 10.2118 21.7892 10.1201 22.0224C10.0231 22.268 10.0315 22.675 10.0315 22.9506V25.5181C10.0306 25.5652 10.011 25.6102 9.97698 25.643C9.94295 25.6757 9.89738 25.6936 9.85013 25.6928H8.90448C8.81185 25.6875 8.739 25.6117 8.7374 25.5189V22.9507C8.7374 22.4102 8.82094 21.6139 8.15254 21.6139C7.48413 21.6139 7.50082 22.3883 7.50082 22.9507V25.5182C7.49998 25.5655 7.4802 25.6105 7.44607 25.6433C7.41185 25.6761 7.366 25.6939 7.31874 25.6928" fill="#232F3E"/>
<path fill-rule="evenodd" clip-rule="evenodd" d="M17.8341 24.8504C17.6612 24.6123 17.4773 24.4185 17.4773 23.9765V22.5061C17.4773 21.8828 17.5216 21.3105 17.0596 20.881C16.6978 20.5335 16.098 20.4115 15.6393 20.4115C14.7412 20.4115 13.7386 20.7457 13.528 21.856C13.5191 21.9012 13.5292 21.948 13.5559 21.9855C13.5826 22.023 13.6236 22.0478 13.6692 22.0541L14.5841 22.1526C14.6727 22.1389 14.741 22.0677 14.7512 21.9788C14.8306 21.597 15.1498 21.4123 15.5098 21.4123C15.7045 21.4123 15.9276 21.4841 16.0396 21.6579C16.1724 21.8517 16.1549 22.1174 16.1549 22.3422V22.4616C15.6076 22.5226 14.8917 22.5635 14.3803 22.7883C13.7888 23.044 13.3735 23.5644 13.3735 24.3314C13.3735 25.3115 13.9918 25.8019 14.7863 25.8019C15.4547 25.8019 15.8239 25.644 16.3419 25.1159C16.5141 25.3665 16.57 25.4844 16.8833 25.745C16.9549 25.7851 17.0438 25.7765 17.1063 25.7233C17.2943 25.5562 17.6368 25.258 17.8299 25.0967C17.911 25.0392 17.8977 24.9373 17.8341 24.8504ZM15.9794 24.4268C15.8298 24.6917 15.5908 24.8554 15.3261 24.8554C14.9643 24.8554 14.7529 24.5796 14.7529 24.1711C14.7529 23.3666 15.4739 23.2212 16.1565 23.2212V23.425C16.1565 23.7936 16.1631 24.0993 15.9794 24.4268Z" fill="#232F3E"/>
<path fill-rule="evenodd" clip-rule="evenodd" d="M18.6327 21.3632V20.6706C18.6305 20.6233 18.6484 20.5774 18.682 20.5441C18.7155 20.5108 18.7617 20.4934 18.8089 20.496H21.9111C21.9583 20.4944 22.004 20.5121 22.0378 20.5451C22.0715 20.5781 22.0904 20.6234 22.0899 20.6707V21.2647C22.0899 21.3641 22.0064 21.4945 21.8568 21.7L20.2493 23.9942C20.8459 23.98 21.4766 24.0694 22.0188 24.3744C22.119 24.4278 22.1827 24.5308 22.1859 24.6442V25.3861C22.1859 25.4881 22.0748 25.6058 21.957 25.5449C20.928 25.016 19.7065 25.0181 18.6793 25.5507C18.5715 25.6084 18.4587 25.4922 18.4587 25.3903V24.6843C18.4489 24.5178 18.489 24.3523 18.5741 24.2089L20.4364 21.5354H18.8122C18.7649 21.5373 18.7189 21.5195 18.685 21.4866C18.651 21.4536 18.6321 21.4082 18.6326 21.3608" fill="#232F3E"/>
<path fill-rule="evenodd" clip-rule="evenodd" d="M24.7686 21.3982C24.0727 21.3982 24.0284 22.3456 24.0284 22.9371C24.0284 23.5287 24.0201 24.7919 24.7594 24.7919C25.4988 24.7919 25.5264 23.7726 25.5264 23.151C25.5264 22.7432 25.5089 22.2537 25.3852 21.8669C25.2791 21.5327 25.0677 21.3982 24.7686 21.3982ZM24.7594 20.4089C26.1606 20.4089 26.9183 21.612 26.9183 23.141C26.9183 24.619 26.0828 25.7911 24.7594 25.7911C23.385 25.7911 22.6365 24.588 22.6365 23.0901C22.6365 21.5921 23.3942 20.4089 24.7594 20.4089Z" fill="#232F3E"/>
<path fill-rule="evenodd" clip-rule="evenodd" d="M28.7446 25.6826H27.8038C27.711 25.6777 27.6378 25.6017 27.6367 25.5088V20.663C27.6467 20.571 27.7255 20.502 27.818 20.5042H28.6937C28.7734 20.5068 28.8417 20.5621 28.8607 20.6395V21.3806H28.8791C29.1431 20.7181 29.5132 20.4022 30.1649 20.4022C30.5877 20.4022 31.0004 20.5551 31.267 20.9728C31.5134 21.3605 31.5134 22.013 31.5134 22.4817V25.5303C31.4997 25.6193 31.4221 25.6843 31.3321 25.6824H30.383C30.2979 25.6788 30.2275 25.6147 30.2159 25.5303V22.8994C30.2159 22.3696 30.2777 21.5944 29.6252 21.5944C29.383 21.6055 29.1695 21.757 29.0788 21.9821C28.9468 22.2778 28.9293 22.5736 28.9293 22.9011V25.5086C28.9256 25.6069 28.8439 25.6843 28.7455 25.6824" fill="#232F3E"/>
<path fill-rule="evenodd" clip-rule="evenodd" d="M36.4243 21.2403C35.9446 21.2441 35.4792 21.4039 35.0983 21.6957V24.4528C35.5205 24.7702 35.9559 24.9287 36.4042 24.9281C37.3143 24.9281 37.7693 24.3154 37.7693 23.0901C37.7693 21.8647 37.321 21.2478 36.4242 21.2395L36.4243 21.2403ZM35.029 21.1116C35.2661 20.9025 35.537 20.7352 35.8302 20.617C36.1072 20.5067 36.4026 20.4499 36.7008 20.4499C36.9971 20.4444 37.2911 20.5038 37.5621 20.6238C37.8175 20.7409 38.0412 20.9173 38.2147 21.1384C38.4034 21.3834 38.543 21.6625 38.6257 21.9605C38.726 22.3137 38.7743 22.6795 38.7695 23.0466C38.7741 23.4215 38.7222 23.795 38.6157 24.1544C38.5265 24.4595 38.3805 24.7449 38.1854 24.9957C38.0042 25.2237 37.774 25.4082 37.5121 25.5355C37.2367 25.6633 36.9358 25.7265 36.6323 25.7201C36.0651 25.7295 35.516 25.52 35.0992 25.1352V27.4545C35.1072 27.5091 35.0889 27.5642 35.0499 27.6032C35.0109 27.6422 34.9557 27.6605 34.9012 27.6526H34.3163C34.2617 27.6605 34.2066 27.6422 34.1676 27.6032C34.1286 27.5642 34.1103 27.5091 34.1183 27.4545V20.7949C34.1107 20.7404 34.1291 20.6855 34.168 20.6466C34.2069 20.6076 34.2617 20.5893 34.3163 20.5969H34.7516C34.8084 20.5915 34.8649 20.6097 34.908 20.6471C34.9511 20.6845 34.977 20.7379 34.9797 20.7949L35.029 21.1116Z" fill="#232F3E"/>
<path fill-rule="evenodd" clip-rule="evenodd" d="M41.2376 25.0034C41.4707 25.0004 41.7017 24.9571 41.9201 24.8755C42.1653 24.7853 42.3955 24.6585 42.6027 24.4995V23.4894C42.4312 23.4491 42.2577 23.4179 42.083 23.3959C41.9076 23.3729 41.731 23.3612 41.5541 23.3608C40.8078 23.3608 40.4348 23.6479 40.4354 24.2222C40.4354 24.4728 40.5047 24.6658 40.6434 24.8011C40.7823 24.9365 40.9802 25.0039 41.2376 25.0034ZM40.0795 21.4592L40.0052 21.4842C39.9784 21.4938 39.9502 21.4989 39.9217 21.4992C39.8381 21.4992 39.793 21.4399 39.793 21.3204V21.0556C39.7866 20.9886 39.8006 20.9214 39.8331 20.8626C39.8759 20.8147 39.9303 20.7787 39.991 20.7582C40.2423 20.6561 40.5044 20.5829 40.7722 20.5401C41.0791 20.4845 41.3903 20.4565 41.7021 20.4565C42.3287 20.4565 42.7905 20.5849 43.0873 20.8417C43.3842 21.0985 43.5329 21.4975 43.5334 22.0389V25.4193C43.541 25.4737 43.5226 25.5287 43.4837 25.5676C43.4448 25.6065 43.3899 25.6249 43.3354 25.6173H42.9093C42.8552 25.6226 42.8014 25.6055 42.7603 25.5699C42.7192 25.5344 42.6946 25.4835 42.692 25.4293L42.6419 25.1026C42.4088 25.3046 42.1429 25.465 41.8557 25.5772C41.5833 25.6863 41.2928 25.743 40.9993 25.7442C40.5248 25.7442 40.1488 25.6105 39.8714 25.3432C39.5941 25.0758 39.4547 24.7181 39.4536 24.2696C39.4536 23.7883 39.6252 23.404 39.9683 23.1167C40.3113 22.8293 40.7731 22.6858 41.3535 22.6864C41.7741 22.6929 42.1926 22.7489 42.6001 22.8535V22.2035C42.6001 21.847 42.5209 21.5964 42.3627 21.4515C42.2046 21.3067 41.9274 21.234 41.5315 21.2334C41.0393 21.2383 40.5501 21.3143 40.0795 21.4592Z" fill="#232F3E"/>
<path fill-rule="evenodd" clip-rule="evenodd" d="M46.7534 26.4938C46.5746 26.9488 46.3682 27.2756 46.1343 27.4739C45.9003 27.6722 45.594 27.771 45.2153 27.7704C45.025 27.773 44.8352 27.7496 44.6513 27.701C44.5894 27.6878 44.5337 27.6546 44.4926 27.6066C44.4551 27.5462 44.4378 27.4754 44.4432 27.4045V27.1471C44.4432 27.0218 44.4926 26.9591 44.5919 26.9591C44.642 26.9614 44.6917 26.9679 44.7406 26.9784C44.8287 26.9935 44.9179 27.0003 45.0072 26.9984C45.2172 27.0116 45.425 26.9484 45.5921 26.8205C45.7307 26.7019 45.8561 26.4841 45.968 26.1672L46.156 25.6658L44.2494 20.9529C44.2136 20.8779 44.1905 20.7973 44.1809 20.7147C44.1809 20.6362 44.2268 20.5961 44.3187 20.5961H44.9128C44.9889 20.5888 45.0653 20.6061 45.1309 20.6454C45.1868 20.7079 45.2271 20.7825 45.2486 20.8635L46.6347 24.7026L47.9715 20.8635C47.993 20.7826 48.0333 20.7079 48.0893 20.6454C48.1549 20.6062 48.2313 20.5888 48.3074 20.5961H48.8613C48.9541 20.5961 49 20.6363 49 20.7147C48.9901 20.7973 48.9666 20.8778 48.9306 20.9529L46.7534 26.4938Z" fill="#232F3E"/>
<path fill-rule="evenodd" clip-rule="evenodd" d="M19.9129 27.5924C18.1408 28.9 15.5684 29.5976 13.3593 29.5976C10.4041 29.6127 7.5497 28.5237 5.35547 26.5438C5.18839 26.3943 5.33709 26.1896 5.5368 26.3057C7.81597 27.6316 10.6332 28.4304 13.5457 28.4304C15.645 28.4189 17.7214 27.993 19.6556 27.1772C19.9547 27.0501 20.2061 27.3744 19.913 27.5949M20.6497 26.7536C20.877 27.0435 20.3991 28.2399 20.1844 28.7738C20.1192 28.9351 20.2587 29.0002 20.405 28.8782C21.355 28.0829 21.6006 26.4169 21.4076 26.1763C21.2146 25.9357 19.5528 25.7318 18.5386 26.4445C18.3824 26.5539 18.4091 26.7051 18.5828 26.6842C19.1534 26.6157 20.4251 26.4628 20.6515 26.7536" fill="#FF9900"/>
</g>
<defs>
<clipPath id="clip0_21059_293">
<rect width="48" height="48" fill="white" transform="translate(1 1)"/>
</clipPath>
</defs>
</svg>
