<svg width="24" height="24" viewBox="0 0 24 24" fill="none" xmlns="http://www.w3.org/2000/svg">
<path d="M20.0954 19.1103C10.9568 23.4318 5.28536 19.8161 1.65486 17.62C1.4302 17.4816 1.04837 17.6524 1.37966 18.0305C2.58916 19.4877 6.55295 23 11.7269 23C16.9043 23 19.9844 20.1929 20.3697 19.7033C20.7524 19.2177 20.4821 18.9499 20.0953 19.1103H20.0954ZM22.6619 17.7019C22.4165 17.3844 21.1697 17.3252 20.385 17.421C19.5991 17.514 18.4195 17.9912 18.522 18.2778C18.5747 18.3851 18.6821 18.337 19.222 18.2888C19.7633 18.2351 21.2799 18.0449 21.5959 18.4554C21.9134 18.8687 21.1122 20.8376 20.9659 21.1551C20.8245 21.4726 21.0199 21.5545 21.2854 21.343C21.5474 21.1316 22.0215 20.5842 22.3397 19.8094C22.6557 19.0304 22.8484 17.9437 22.6619 17.7019H22.6619Z" fill="#FF9900"/>
<path fill-rule="evenodd" clip-rule="evenodd" d="M13.9507 10.2923C13.9507 11.4262 13.9795 12.3719 13.4027 13.3788C12.9372 14.1976 12.1997 14.7011 11.3758 14.7011C10.2511 14.7011 9.59603 13.8496 9.59603 12.5929C9.59603 10.1122 11.833 9.66194 13.9507 9.66194V10.2923ZM16.9045 17.3865C16.7109 17.5584 16.4307 17.5707 16.2124 17.456C15.2402 16.6537 15.0671 16.2812 14.5315 15.5157C12.9248 17.145 11.7878 17.632 9.70319 17.632C7.23955 17.632 5.3197 16.1215 5.3197 13.0964C5.3197 10.7345 6.60927 9.12567 8.44245 8.33978C10.0327 7.64379 12.2533 7.521 13.9507 7.32867V6.95203C13.9507 6.26019 14.0042 5.4415 13.5964 4.84388C13.2379 4.30762 12.554 4.08655 11.9525 4.08655C10.8361 4.08655 9.83909 4.65552 9.59603 5.83445C9.54653 6.0965 9.35296 6.35441 9.08932 6.36667L6.24663 6.0638C6.00773 6.01048 5.74409 5.81814 5.81 5.45376C6.46503 2.03164 9.57536 1 12.3603 1C13.7858 1 15.6479 1.37664 16.7726 2.44918C18.1981 3.77135 18.0621 5.53564 18.0621 7.45551V11.9912C18.0621 13.3543 18.6306 13.9519 19.1662 14.6888C19.3557 14.9508 19.3969 15.2661 19.1579 15.4625C18.5606 15.9577 17.4976 16.8788 16.9127 17.3947L16.9044 17.3865" fill="black"/>
<path d="M20.0954 19.1103C10.9568 23.4318 5.28536 19.8161 1.65486 17.62C1.4302 17.4816 1.04837 17.6524 1.37966 18.0305C2.58916 19.4877 6.55295 23 11.7269 23C16.9043 23 19.9844 20.1929 20.3697 19.7033C20.7524 19.2177 20.4821 18.9499 20.0953 19.1103H20.0954ZM22.6619 17.7019C22.4165 17.3844 21.1697 17.3252 20.385 17.421C19.5991 17.514 18.4195 17.9912 18.522 18.2778C18.5747 18.3851 18.6821 18.337 19.222 18.2888C19.7633 18.2351 21.2799 18.0449 21.5959 18.4554C21.9134 18.8687 21.1122 20.8376 20.9659 21.1551C20.8245 21.4726 21.0199 21.5545 21.2854 21.343C21.5474 21.1316 22.0215 20.5842 22.3397 19.8094C22.6557 19.0304 22.8484 17.9437 22.6619 17.7019H22.6619Z" fill="#FF9900"/>
<path fill-rule="evenodd" clip-rule="evenodd" d="M13.9507 10.2923C13.9507 11.4262 13.9795 12.3719 13.4027 13.3788C12.9372 14.1976 12.1997 14.7011 11.3758 14.7011C10.2511 14.7011 9.59603 13.8496 9.59603 12.5929C9.59603 10.1122 11.833 9.66194 13.9507 9.66194V10.2923ZM16.9045 17.3865C16.7109 17.5584 16.4307 17.5707 16.2124 17.456C15.2402 16.6537 15.0671 16.2812 14.5315 15.5157C12.9248 17.145 11.7878 17.632 9.70319 17.632C7.23955 17.632 5.3197 16.1215 5.3197 13.0964C5.3197 10.7345 6.60927 9.12567 8.44245 8.33978C10.0327 7.64379 12.2533 7.521 13.9507 7.32867V6.95203C13.9507 6.26019 14.0042 5.4415 13.5964 4.84388C13.2379 4.30762 12.554 4.08655 11.9525 4.08655C10.8361 4.08655 9.83909 4.65552 9.59603 5.83445C9.54653 6.0965 9.35296 6.35441 9.08932 6.36667L6.24663 6.0638C6.00773 6.01048 5.74409 5.81814 5.81 5.45376C6.46503 2.03164 9.57536 1 12.3603 1C13.7858 1 15.6479 1.37664 16.7726 2.44918C18.1981 3.77135 18.0621 5.53564 18.0621 7.45551V11.9912C18.0621 13.3543 18.6306 13.9519 19.1662 14.6888C19.3557 14.9508 19.3969 15.2661 19.1579 15.4625C18.5606 15.9577 17.4976 16.8788 16.9127 17.3947L16.9044 17.3865" fill="black"/>
</svg>
