<svg width="24" height="24" viewBox="0 0 24 24" fill="none" xmlns="http://www.w3.org/2000/svg">
<path d="M20.0954 19.1103C10.9568 23.4318 5.28536 19.8161 1.65486 17.62C1.4302 17.4816 1.04837 17.6524 1.37966 18.0305C2.58916 19.4877 6.55295 23 11.7269 23C16.9043 23 19.9844 20.1929 20.3697 19.7033C20.7524 19.2177 20.4821 18.9499 20.0953 19.1103H20.0954ZM22.6619 17.7019C22.4165 17.3844 21.1697 17.3252 20.385 17.421C19.5991 17.514 18.4195 17.9912 18.522 18.2778C18.5747 18.3851 18.6821 18.337 19.222 18.2888C19.7633 18.2351 21.2799 18.0449 21.5959 18.4554C21.9134 18.8687 21.1122 20.8376 20.9659 21.1551C20.8245 21.4726 21.0199 21.5545 21.2854 21.343C21.5474 21.1316 22.0215 20.5842 22.3397 19.8094C22.6557 19.0304 22.8484 17.9437 22.6619 17.7019H22.6619Z" fill="#FF9900"/>
<path fill-rule="evenodd" clip-rule="evenodd" d="M13.9508 10.2923C13.9508 11.4262 13.9796 12.3719 13.4028 13.3788C12.9373 14.1976 12.1999 14.7011 11.3759 14.7011C10.2512 14.7011 9.59615 13.8496 9.59615 12.5929C9.59615 10.1122 11.8331 9.66194 13.9508 9.66194V10.2923ZM16.9046 17.3865C16.711 17.5584 16.4308 17.5707 16.2125 17.456C15.2403 16.6537 15.0672 16.2812 14.5317 15.5157C12.925 17.145 11.7879 17.632 9.70331 17.632C7.23967 17.632 5.31982 16.1215 5.31982 13.0964C5.31982 10.7345 6.60939 9.12567 8.44257 8.33978C10.0329 7.64379 12.2534 7.521 13.9508 7.32867V6.95203C13.9508 6.26019 14.0043 5.4415 13.5965 4.84388C13.238 4.30761 12.5542 4.08655 11.9526 4.08655C10.8362 4.08655 9.83921 4.65552 9.59615 5.83445C9.54665 6.0965 9.35308 6.35441 9.08944 6.36667L6.24675 6.0638C6.00785 6.01048 5.74421 5.81814 5.81012 5.45376C6.46515 2.03164 9.57548 1 12.3604 1C13.7859 1 15.648 1.37664 16.7727 2.44918C18.1982 3.77135 18.0622 5.53564 18.0622 7.45551V11.9912C18.0622 13.3543 18.6308 13.9519 19.1663 14.6888C19.3558 14.9508 19.397 15.2661 19.158 15.4625C18.5607 15.9577 17.4978 16.8788 16.9128 17.3947L16.9046 17.3865" fill="#F5F5F5"/>
<path d="M20.0954 19.1103C10.9568 23.4318 5.28536 19.8161 1.65486 17.62C1.4302 17.4816 1.04837 17.6524 1.37966 18.0305C2.58916 19.4877 6.55295 23 11.7269 23C16.9043 23 19.9844 20.1929 20.3697 19.7033C20.7524 19.2177 20.4821 18.9499 20.0953 19.1103H20.0954ZM22.6619 17.7019C22.4165 17.3844 21.1697 17.3252 20.385 17.421C19.5991 17.514 18.4195 17.9912 18.522 18.2778C18.5747 18.3851 18.6821 18.337 19.222 18.2888C19.7633 18.2351 21.2799 18.0449 21.5959 18.4554C21.9134 18.8687 21.1122 20.8376 20.9659 21.1551C20.8245 21.4726 21.0199 21.5545 21.2854 21.343C21.5474 21.1316 22.0215 20.5842 22.3397 19.8094C22.6557 19.0304 22.8484 17.9437 22.6619 17.7019H22.6619Z" fill="#FF9900"/>
<path fill-rule="evenodd" clip-rule="evenodd" d="M13.9508 10.2923C13.9508 11.4262 13.9796 12.3719 13.4028 13.3788C12.9373 14.1976 12.1999 14.7011 11.3759 14.7011C10.2512 14.7011 9.59615 13.8496 9.59615 12.5929C9.59615 10.1122 11.8331 9.66194 13.9508 9.66194V10.2923ZM16.9046 17.3865C16.711 17.5584 16.4308 17.5707 16.2125 17.456C15.2403 16.6537 15.0672 16.2812 14.5317 15.5157C12.925 17.145 11.7879 17.632 9.70331 17.632C7.23967 17.632 5.31982 16.1215 5.31982 13.0964C5.31982 10.7345 6.60939 9.12567 8.44257 8.33978C10.0329 7.64379 12.2534 7.521 13.9508 7.32867V6.95203C13.9508 6.26019 14.0043 5.4415 13.5965 4.84388C13.238 4.30761 12.5542 4.08655 11.9526 4.08655C10.8362 4.08655 9.83921 4.65552 9.59615 5.83445C9.54665 6.0965 9.35308 6.35441 9.08944 6.36667L6.24675 6.0638C6.00785 6.01048 5.74421 5.81814 5.81012 5.45376C6.46515 2.03164 9.57548 1 12.3604 1C13.7859 1 15.648 1.37664 16.7727 2.44918C18.1982 3.77135 18.0622 5.53564 18.0622 7.45551V11.9912C18.0622 13.3543 18.6308 13.9519 19.1663 14.6888C19.3558 14.9508 19.397 15.2661 19.158 15.4625C18.5607 15.9577 17.4978 16.8788 16.9128 17.3947L16.9046 17.3865" fill="#F5F5F5"/>
</svg>
