<svg width="50" height="50" viewBox="0 0 50 50" fill="none" xmlns="http://www.w3.org/2000/svg">
<path d="M5.11426 20.7714H6.79045L5.95235 18.6381L5.11426 20.7714Z" fill="#2FABF7"/>
<path d="M25.9143 18.9429C25.762 18.8667 25.5334 18.8667 25.3048 18.8667H23.781V20.0857H25.3048C25.5334 20.0857 25.762 20.0857 25.9143 20.0096C26.0667 19.9334 26.1429 19.7048 26.1429 19.4762C26.2191 19.1715 26.0667 19.0191 25.9143 18.9429Z" fill="#228FE0"/>
<path d="M42.219 16.6571V17.5714L41.7619 16.6571H38.181V17.5714L37.7238 16.6571H32.8476C32.0095 16.6571 31.3238 16.8095 30.7143 17.1142V16.6571H27.2857V17.1142C26.9048 16.8095 26.4476 16.6571 25.8381 16.6571H13.5714L12.7333 18.5619L11.8952 16.6571H8.00952V17.5714L7.55238 16.6571H4.27619L2.75238 20.2381L1 24.2H2.75238H4.88571L5.34286 22.9809H6.40952L6.86667 24.2H11.2857V23.2857L11.6667 24.2H13.8762L14.2571 23.2857V24.2H24.8476V22.219H25C25.1524 22.219 25.1524 22.219 25.1524 22.4476V24.1238H30.6381V23.6666C31.0952 23.8952 31.781 24.1238 32.6952 24.1238H34.981L35.4381 22.9047H36.5048L36.9619 24.1238H41.381V22.9809L42.0667 24.1238H45.6476V16.6571H42.219ZM16.4667 23.0571H15.1714V18.8666L13.3429 23.0571H12.2L10.3714 18.8666V23.0571H7.78095L7.24762 21.9142H4.65714L4.2 23.1333H2.75238L5.0381 17.7238H6.94286L9.07619 22.8285V17.7238H11.1333L12.8095 21.3809L14.3333 17.7238H16.4667V23.0571ZM21.6476 18.8666H18.6762V19.8571H21.5714V20.9238H18.6762V21.9904H21.6476V23.1333H17.381V17.7238H21.6476V18.8666ZM27.3619 21.0762C27.5143 21.3809 27.5905 21.6095 27.5905 22.0666V23.1333H26.2952V22.4476C26.2952 22.1428 26.2952 21.6857 26.0667 21.3809C25.8381 21.1523 25.6095 21.1523 25.1524 21.1523H23.781V23.1333H22.4857V17.7238H25.381C26.0667 17.7238 26.5238 17.7238 26.9048 17.9523C27.2857 18.1809 27.5143 18.5619 27.5143 19.1714C27.5143 20.0095 26.981 20.4666 26.6 20.619C26.981 20.6952 27.2095 20.9238 27.3619 21.0762ZM29.6476 23.0571H28.3524V17.6476H29.6476V23.0571ZM44.6571 23.0571H42.8286L40.3905 19.019V23.0571H37.8L37.3429 21.9142H34.6762L34.219 23.1333H32.7714C32.1619 23.1333 31.4 22.9809 30.9429 22.5238C30.4857 22.0666 30.2571 21.4571 30.2571 20.4666C30.2571 19.7047 30.4095 18.9428 30.9429 18.3333C31.3238 17.8762 32.0095 17.7238 32.8476 17.7238H34.0667V18.8666H32.8476C32.3905 18.8666 32.1619 18.9428 31.8571 19.1714C31.6286 19.4 31.4762 19.8571 31.4762 20.3904C31.4762 21 31.5524 21.3809 31.8571 21.6857C32.0857 21.9142 32.3905 21.9904 32.7714 21.9904H33.3048L35.0571 17.8H36.9619L39.0952 22.9047V17.8H41L43.2095 21.5333V17.8H44.5048V23.0571H44.6571Z" fill="#0571C1"/>
<path d="M35.1333 20.7714H36.8857L36.0476 18.6381L35.1333 20.7714Z" fill="#228FE0"/>
<path d="M22.1809 31.7429V27.4L20.2 29.5334L22.1809 31.7429Z" fill="#228FE0"/>
<path d="M14.0286 27.9333V28.9238H16.8476V29.9905H14.0286V31.1334H17.1524L18.6 29.5334L17.2286 27.9333H14.0286Z" fill="#2FABF7"/>
<path d="M25.0761 27.9333H23.4761V29.3048H25.1523C25.6094 29.3048 25.9142 29.0762 25.9142 28.6191C25.838 28.1619 25.5332 27.9333 25.0761 27.9333Z" fill="#228FE0"/>
<path d="M48.6191 29.2286V25.8H47.7049H45.4191C44.7334 25.8 44.2001 25.9524 43.8191 26.2572V25.8H40.3144C39.781 25.8 39.0953 25.9524 38.7906 26.2572V25.8H32.6191V26.2572C32.162 25.8762 31.3239 25.8 30.943 25.8H26.8287V26.2572C26.4477 25.8762 25.5334 25.8 25.0763 25.8H20.5049L19.4382 26.9429L18.4477 25.8H11.5906V33.2667H18.2953L19.362 32.1239L20.3525 33.2667H24.4668V31.5143H25.0001C25.5334 31.5143 26.2191 31.5143 26.7525 31.2858V33.3429H30.1811V31.362H30.3334C30.562 31.362 30.562 31.362 30.562 31.5905V33.3429H40.9239C41.6096 33.3429 42.2953 33.1905 42.6763 32.8858V33.3429H45.9525C46.6382 33.3429 47.3239 33.2667 47.7811 32.962C48.543 32.5048 49.0001 31.6667 49.0001 30.6762C49.0001 30.1429 48.8477 29.6096 48.6191 29.2286ZM25.0001 30.4477H23.4763V32.2762H21.0382L19.5144 30.5239L17.9144 32.2762H12.8858V26.8667H17.9906L19.5144 28.6191L21.1144 26.8667H25.1525C26.143 26.8667 27.2858 27.1715 27.2858 28.6191C27.2096 30.1429 26.143 30.4477 25.0001 30.4477ZM32.6191 30.1429C32.7715 30.3715 32.8477 30.6762 32.8477 31.1334V32.2H31.5525V31.5143C31.5525 31.2096 31.5525 30.6762 31.3239 30.4477C31.1715 30.2191 30.8668 30.2191 30.4096 30.2191H29.0382V32.2H27.743V26.7905H30.6382C31.2477 26.7905 31.7811 26.7905 32.162 27.0191C32.543 27.2477 32.8477 27.6286 32.8477 28.2381C32.8477 29.0762 32.3144 29.5334 31.9334 29.6858C32.3144 29.8381 32.543 29.9905 32.6191 30.1429ZM37.8763 27.9334H34.9049V28.9239H37.8001V29.9905H34.9049V31.0572H37.8763V32.2H33.6096V26.7905H37.8763V27.9334ZM41.0763 32.2H38.6382V31.0572H41.0763C41.3049 31.0572 41.4572 31.0572 41.6096 30.9048C41.6858 30.8286 41.762 30.6762 41.762 30.5239C41.762 30.3715 41.6858 30.2191 41.6096 30.1429C41.5334 30.0667 41.3811 29.9905 41.1525 29.9905C39.9334 29.9143 38.4858 29.9905 38.4858 28.3143C38.4858 27.5524 38.943 26.7143 40.3144 26.7143H42.8287V28.0096H40.4668C40.2382 28.0096 40.0858 28.0096 39.9334 28.0858C39.781 28.162 39.7811 28.3143 39.7811 28.4667C39.7811 28.6953 39.9334 28.7715 40.0858 28.8477C40.2382 28.9239 40.3906 28.9239 40.543 28.9239H41.2287C41.9144 28.9239 42.3715 29.0762 42.6763 29.381C42.9049 29.6096 43.0572 29.9905 43.0572 30.5239C43.0572 31.6667 42.3715 32.2 41.0763 32.2ZM47.6287 31.6667C47.3239 31.9715 46.7906 32.2 46.0287 32.2H43.5906V31.0572H46.0287C46.2572 31.0572 46.4096 31.0572 46.562 30.9048C46.6382 30.8286 46.7144 30.6762 46.7144 30.5239C46.7144 30.3715 46.6382 30.2191 46.562 30.1429C46.4858 30.0667 46.3334 29.9905 46.1049 29.9905C44.8858 29.9143 43.4382 29.9905 43.4382 28.3143C43.4382 27.5524 43.8953 26.7143 45.2668 26.7143H47.7811V28.0096H45.4953C45.2668 28.0096 45.1144 28.0096 44.962 28.0858C44.8096 28.162 44.8096 28.3143 44.8096 28.4667C44.8096 28.6953 44.8858 28.7715 45.1144 28.8477C45.2668 28.9239 45.4191 28.9239 45.5715 28.9239H46.2572C46.943 28.9239 47.4001 29.0762 47.7049 29.381C47.7811 29.381 47.7811 29.4572 47.7811 29.4572C48.0096 29.762 48.0858 30.1429 48.0858 30.5239C48.0858 30.981 47.9334 31.362 47.6287 31.6667Z" fill="#0571C1"/>
<path d="M31.2476 28.0857C31.0952 28.0095 30.8666 28.0095 30.6381 28.0095H29.1143V29.2286H30.6381C30.8666 29.2286 31.0952 29.2286 31.2476 29.1524C31.4 29.0762 31.4762 28.8476 31.4762 28.619C31.5524 28.3143 31.4 28.1619 31.2476 28.0857Z" fill="#228FE0"/>
<path d="M25.9143 18.9428C25.762 18.8666 25.5334 18.8666 25.3048 18.8666H23.781V20.0856H25.3048C25.5334 20.0856 25.762 20.0856 25.9143 20.0094C26.0667 19.9332 26.1429 19.7047 26.1429 19.4761C26.2191 19.1713 26.0667 19.019 25.9143 18.9428Z" fill="#228FE0"/>
<path d="M35.1333 20.7714H36.8857L36.0476 18.6381L35.1333 20.7714Z" fill="#228FE0"/>
<path d="M22.1809 31.7429V27.4L20.2 29.5334L22.1809 31.7429Z" fill="#228FE0"/>
<path d="M25.0761 27.9333H23.4761V29.3048H25.1523C25.6094 29.3048 25.9142 29.0762 25.9142 28.6191C25.838 28.1619 25.5332 27.9333 25.0761 27.9333Z" fill="#228FE0"/>
<path d="M31.2476 28.0857C31.0952 28.0095 30.8666 28.0095 30.6381 28.0095H29.1143V29.2286H30.6381C30.8666 29.2286 31.0952 29.2286 31.2476 29.1524C31.4 29.0762 31.4762 28.8476 31.4762 28.619C31.5524 28.3143 31.4 28.1619 31.2476 28.0857Z" fill="#228FE0"/>
<path d="M24.543 32.0475L23.4763 30.9047V32.1999H20.962L19.4382 30.4475L17.762 32.1999H12.7334V26.8666H17.8382L19.4382 28.619L20.2001 27.7047L18.2953 25.7999H11.5906V33.2666H18.2953L19.4382 32.1237L20.4287 33.2666H24.543V32.0475Z" fill="#2FABF7"/>
<path d="M16.619 24.1238L15.6286 23.0571H15.1714V22.6L14.0286 21.4571L13.2667 23.0571H12.2L10.3714 18.8666V23.0571H7.78095L7.24762 21.9142H4.65714L4.12381 23.0571H2.75238L5.03809 17.7238H6.94286L9.07619 22.8285V17.7238H10.219L9.15238 16.6571H8.00952V17.5714L7.62857 16.6571H4.27619L2.75238 20.2381L1 24.1238H2.75238H4.9619L5.41905 22.9809H6.48571L7.01905 24.1238H11.2857V23.2095L11.6667 24.1238H13.8762L14.2571 23.2095V24.1238H16.619Z" fill="#2FABF7"/>
<path d="M13.1143 20.619L11.8953 19.3999L12.8095 21.3809L13.1143 20.619Z" fill="#2FABF7"/>
<path d="M47.781 32.8857C48.4668 32.4286 48.9239 31.6666 49.0001 30.8286L47.9334 29.7619C48.0096 29.9905 48.0858 30.219 48.0858 30.5238C48.0858 30.9809 47.9334 31.3619 47.6287 31.6666C47.3239 31.9714 46.7906 32.2 46.0287 32.2H43.5906V31.0571H46.0287C46.2572 31.0571 46.4096 31.0571 46.562 30.9047C46.6382 30.8286 46.7144 30.6762 46.7144 30.5238C46.7144 30.3714 46.6382 30.219 46.562 30.1428C46.4858 30.0666 46.3334 29.9905 46.1049 29.9905C44.8858 29.9143 43.4382 29.9905 43.4382 28.3143C43.4382 27.5524 43.8953 26.8666 45.0382 26.7143L44.2001 25.8762C44.0477 25.9524 43.9715 26.0286 43.8953 26.0286V25.5714H40.3906C39.8572 25.5714 39.1715 25.7238 38.8668 26.0286V25.5714H32.6191V26.0286C32.162 25.6476 31.3239 25.5714 30.943 25.5714H26.8287V26.0286C26.4477 25.6476 25.5334 25.5714 25.0763 25.5714H20.5049L19.4382 26.7143L18.4477 25.5714H17.6096L19.8953 27.8571L21.0382 26.6381H25.0763C26.0668 26.6381 27.2096 26.9428 27.2096 28.3905C27.2096 29.9143 26.143 30.219 25.0001 30.219H23.4763V31.3619L24.6191 32.5047V31.3619H25.0001C25.5334 31.3619 26.2191 31.3619 26.7525 31.1333V33.1905H30.181V31.2095H30.3334C30.562 31.2095 30.562 31.2095 30.562 31.4381V33.1905H40.9239C41.6096 33.1905 42.2953 33.0381 42.6763 32.7333V33.1905H45.9525C46.562 33.2666 47.2477 33.1905 47.781 32.8857ZM32.6191 30.1428C32.7715 30.3714 32.8477 30.6762 32.8477 31.1333V32.2H31.5525V31.5143C31.5525 31.2095 31.5525 30.6762 31.3239 30.4476C31.1715 30.219 30.8668 30.219 30.4096 30.219H29.0382V32.2H27.743V26.7905H30.6382C31.2477 26.7905 31.781 26.7905 32.162 27.019C32.543 27.2476 32.8477 27.6286 32.8477 28.2381C32.8477 29.0762 32.3144 29.5333 31.9334 29.6857C32.3144 29.8381 32.543 29.9905 32.6191 30.1428ZM37.8763 27.9333H34.9049V28.9238H37.8001V29.9905H34.9049V31.0571H37.8763V32.2H33.6096V26.7905H37.8763V27.9333ZM41.0763 32.2H38.6382V31.0571H41.0763C41.3049 31.0571 41.4572 31.0571 41.6096 30.9047C41.6858 30.8286 41.762 30.6762 41.762 30.5238C41.762 30.3714 41.6858 30.219 41.6096 30.1428C41.5334 30.0666 41.3811 29.9905 41.1525 29.9905C39.9334 29.9143 38.4858 29.9905 38.4858 28.3143C38.4858 27.5524 38.943 26.7143 40.3144 26.7143H42.8287V28.0095H40.4668C40.2382 28.0095 40.0858 28.0095 39.9334 28.0857C39.781 28.1619 39.781 28.3143 39.781 28.4666C39.781 28.6952 39.9334 28.7714 40.0858 28.8476C40.2382 28.9238 40.3906 28.9238 40.543 28.9238H41.2287C41.9144 28.9238 42.3715 29.0762 42.6763 29.3809C42.9049 29.6095 43.0572 29.9905 43.0572 30.5238C43.0572 31.6666 42.3715 32.2 41.0763 32.2Z" fill="#228FE0"/>
<path d="M44.7334 28.4667C44.7334 28.6952 44.8096 28.7714 45.0382 28.8476C45.1905 28.9238 45.3429 28.9238 45.4953 28.9238H46.181C46.6382 28.9238 46.9429 29 47.2477 29.1524L46.1048 28.0095H45.4191C45.1905 28.0095 45.0382 28.0095 44.8858 28.0857C44.8096 28.1619 44.7334 28.3143 44.7334 28.4667Z" fill="#228FE0"/>
<path d="M42.0669 23.8951L42.2193 24.1237H42.2955L42.0669 23.8951Z" fill="#228FE0"/>
<path d="M37.8762 19.7047L39.1715 22.8285V21L37.8762 19.7047Z" fill="#228FE0"/>
<path d="M24.8477 22.219H25.0001C25.1525 22.219 25.1525 22.219 25.1525 22.4476V24.1238H30.6382V23.6666C31.0954 23.8952 31.7811 24.1238 32.6953 24.1238H34.9811L35.4382 22.9047H36.5049L36.962 24.1238H41.3811V23.3618L40.3144 22.2952V23.1333H37.7239L37.343 21.9142H34.6763L34.2192 23.1333H32.7715C32.162 23.1333 31.4001 22.9809 30.943 22.5238C30.4858 22.0666 30.2573 21.4571 30.2573 20.4666C30.2573 19.7047 30.4096 18.9428 30.943 18.3333C31.3239 17.8761 32.0096 17.7238 32.8477 17.7238H34.0668V18.8666H32.8477C32.3906 18.8666 32.162 18.9428 31.8573 19.1714C31.6287 19.3999 31.4763 19.8571 31.4763 20.3904C31.4763 20.9999 31.5525 21.3809 31.8573 21.6857C32.0858 21.9142 32.3906 21.9904 32.7715 21.9904H33.3049L35.0573 17.7999H35.8192L34.7525 16.7333H32.7715C31.9334 16.7333 31.2477 16.8857 30.6382 17.1904V16.7333H27.2858V17.1904C26.9049 16.8857 26.4477 16.7333 25.8382 16.7333H13.5715L12.7334 18.638L11.8953 16.7333H8.54297L9.60964 17.7999H11.1334L12.4287 20.619L12.8858 21.0761L14.2573 17.7238H16.3906V23.1333H15.0953V18.9428L13.8001 21.9904L16.0096 24.1999H24.7715L24.8477 22.219ZM28.3525 17.7238H29.6477V23.1333H28.3525V17.7238ZM21.6477 18.8666H18.6763V19.8571H21.5715V20.9238H18.6763V21.9904H21.6477V23.1333H17.3811V17.7238H21.6477V18.8666ZM23.7811 23.0571H22.4858V17.6476H25.3811C26.0668 17.6476 26.5239 17.6476 26.9049 17.8761C27.2858 18.1047 27.5144 18.4857 27.5144 19.0952C27.5144 19.9333 26.9811 20.3904 26.6001 20.5428C26.9049 20.619 27.1334 20.8476 27.2096 20.9999C27.362 21.3047 27.4382 21.5333 27.4382 21.9904V23.0571H26.143V22.3714C26.143 22.0666 26.143 21.6095 25.9144 21.3047C25.8382 21.1523 25.6096 21.1523 25.1525 21.1523H23.7811V23.0571Z" fill="#228FE0"/>
</svg>
