<svg width="24" height="24" viewBox="0 0 24 24" fill="none" xmlns="http://www.w3.org/2000/svg">
<path d="M17 11.07V16.93C16.9974 17.4799 16.777 18.0064 16.3873 18.3943C15.9975 18.7822 15.4699 19 14.92 19H9.08C8.53008 19 8.00253 18.7822 7.61274 18.3943C7.22295 18.0064 7.00264 17.4799 7 16.93V11.07C7.00264 10.5201 7.22295 9.99358 7.61274 9.60567C8.00253 9.21775 8.53008 8.99998 9.08 8.99999H14.92C15.4699 8.99998 15.9975 9.21775 16.3873 9.60567C16.777 9.99358 16.9974 10.5201 17 11.07V11.07ZM5 15.66V11.66C5 11.3948 4.89464 11.1404 4.70711 10.9529C4.51957 10.7653 4.26522 10.66 4 10.66C3.73478 10.66 3.48043 10.7653 3.29289 10.9529C3.10536 11.1404 3 11.3948 3 11.66V15.66C3 15.9252 3.10536 16.1796 3.29289 16.3671C3.48043 16.5546 3.73478 16.66 4 16.66C4.26522 16.66 4.51957 16.5546 4.70711 16.3671C4.89464 16.1796 5 15.9252 5 15.66ZM9.08 19V21C9.08 21.2652 9.18536 21.5196 9.37289 21.7071C9.56043 21.8946 9.81478 22 10.08 22C10.3452 22 10.5996 21.8946 10.7871 21.7071C10.9746 21.5196 11.08 21.2652 11.08 21V19H9.08ZM14.92 19H13V21C13 21.2652 13.1054 21.5196 13.2929 21.7071C13.4804 21.8946 13.7348 22 14 22C14.2652 22 14.5196 21.8946 14.7071 21.7071C14.8946 21.5196 15 21.2652 15 21V19H14.92ZM21 15.66V11.66C21 11.3948 20.8946 11.1404 20.7071 10.9529C20.5196 10.7653 20.2652 10.66 20 10.66C19.7348 10.66 19.4804 10.7653 19.2929 10.9529C19.1054 11.1404 19 11.3948 19 11.66V15.66C19 15.9252 19.1054 16.1796 19.2929 16.3671C19.4804 16.5546 19.7348 16.66 20 16.66C20.2652 16.66 20.5196 16.5546 20.7071 16.3671C20.8946 16.1796 21 15.9252 21 15.66ZM13.83 7.58999C14.3 7.59836 14.7548 7.42354 15.0982 7.10253C15.4417 6.78152 15.6467 6.3395 15.67 5.86999C15.6622 5.35302 15.5524 4.84268 15.3471 4.36819C15.1417 3.89371 14.8447 3.46442 14.4731 3.10491C14.1015 2.74541 13.6627 2.46275 13.1816 2.27315C12.7006 2.08355 12.1869 1.99072 11.67 1.99999C11.1531 1.99072 10.6394 2.08355 10.1584 2.27315C9.67735 2.46275 9.23848 2.74541 8.8669 3.10491C8.49532 3.46442 8.19832 3.89371 7.99294 4.36819C7.78755 4.84268 7.67781 5.35302 7.67 5.86999V5.86999C7.6933 6.3395 7.89835 6.78152 8.24176 7.10253C8.58516 7.42354 9.03999 7.59836 9.51 7.58999H13.83Z" fill="#04B440"/>
</svg>
