<svg width="24" height="24" viewBox="0 0 24 24" fill="none" xmlns="http://www.w3.org/2000/svg">
<path d="M19.3468 5.29906L7.20812 7.8297C6.52477 7.97118 5.91102 8.34398 5.47023 8.88532C5.02944 9.42666 4.78854 10.1035 4.78809 10.8017V19.654C4.78824 20.1054 4.88891 20.551 5.08278 20.9585C5.27665 21.366 5.55885 21.7251 5.90884 22.0098C6.25883 22.2944 6.66783 22.4974 7.10607 22.604C7.54432 22.7107 8.00081 22.7182 8.44233 22.6261L20.5799 20.0943C21.2632 19.9529 21.877 19.5801 22.3178 19.0387C22.7586 18.4974 22.9995 17.8206 22.9999 17.1223V8.2722C22.9999 7.82091 22.8993 7.37529 22.7056 6.96775C22.5119 6.56022 22.2298 6.20101 21.8799 5.91626C21.53 5.6315 21.1211 5.42835 20.683 5.32159C20.2448 5.21483 19.7883 5.20713 19.3468 5.29906Z" fill="#FBB03B"/>
<path d="M15.5532 1.37482L3.42003 3.90547C2.73669 4.04695 2.12294 4.41974 1.68215 4.96108C1.24136 5.50242 1.00045 6.17922 1 6.87751V15.7298C1.00019 16.181 1.10084 16.6265 1.29465 17.0339C1.48846 17.4413 1.77054 17.8004 2.12041 18.085C2.47027 18.3696 2.87911 18.5727 3.31722 18.6794C3.75533 18.7861 4.2117 18.7938 4.65314 18.7019L16.7918 16.1701C17.4751 16.0286 18.0889 15.6558 18.5297 15.1145C18.9705 14.5732 19.2114 13.8964 19.2118 13.1981V4.34797C19.212 3.8961 19.1113 3.44989 18.9173 3.04188C18.7232 2.63386 18.4406 2.27432 18.0901 1.98946C17.7396 1.7046 17.3299 1.50161 16.891 1.39528C16.4522 1.28895 15.9951 1.28196 15.5532 1.37482Z" fill="#5C47C4"/>
<path d="M7.56402 13.7341L8.18222 13.5998V15.9962L7.56402 16.1305V15.8476C7.47461 15.9813 7.35968 16.096 7.22585 16.1852C7.09201 16.2744 6.94189 16.3362 6.78411 16.3671C6.6426 16.4055 6.49388 16.409 6.35074 16.3772C6.20761 16.3453 6.07434 16.2792 5.9624 16.1844C5.84636 16.081 5.75529 15.9525 5.69603 15.8088C5.63677 15.665 5.61088 15.5097 5.6203 15.3544C5.62022 15.0006 5.74092 14.6572 5.9624 14.3814C6.16095 14.1047 6.4528 13.9092 6.78411 13.831C7.11961 13.7583 7.37922 13.8178 7.56402 14.0115V13.7341ZM6.42441 15.666C6.49165 15.7155 6.56929 15.7491 6.65143 15.7642C6.73358 15.7792 6.81807 15.7754 6.89851 15.7529C7.08861 15.7146 7.25916 15.6105 7.38032 15.459C7.50455 15.3117 7.5717 15.1245 7.56952 14.9317C7.57498 14.8486 7.56069 14.7654 7.5278 14.6888C7.49491 14.6123 7.44437 14.5447 7.38032 14.4914C7.31272 14.4417 7.23466 14.4081 7.15211 14.3933C7.06955 14.3784 6.98469 14.3826 6.90401 14.4056C6.71695 14.4459 6.54937 14.5492 6.42925 14.6982C6.30913 14.8473 6.24374 15.0331 6.244 15.2245C6.23791 15.3071 6.25103 15.3899 6.28233 15.4665C6.31364 15.5431 6.36227 15.6114 6.42441 15.666Z" fill="white"/>
<path d="M10.2071 13.754L9.66695 13.8728V14.8635C9.6628 14.8947 9.66624 14.9263 9.67696 14.9559C9.68769 14.9854 9.70539 15.0119 9.72855 15.033C9.78404 15.0643 9.84944 15.073 9.91115 15.0573C10.011 15.0408 10.1098 15.0183 10.2071 14.9901V15.5515C9.78355 15.6913 9.48325 15.7166 9.30944 15.6264C9.13564 15.5361 9.04874 15.327 9.04874 14.9978V14.0016L8.63184 14.0919V13.4975L9.04874 13.4072V12.9229L9.66695 12.6026V13.2729L10.2071 13.1552V13.754Z" fill="white"/>
<path d="M11.0454 12.6906C10.9999 12.7024 10.9523 12.7036 10.9063 12.6941C10.8603 12.6845 10.8171 12.6645 10.7801 12.6356C10.7438 12.6068 10.715 12.5699 10.6958 12.5278C10.6767 12.4857 10.6678 12.4396 10.67 12.3934C10.6766 12.2861 10.7167 12.1836 10.7846 12.1003C10.8526 12.0169 10.9449 11.957 11.0487 11.9289C11.095 11.9163 11.1437 11.9147 11.1908 11.9245C11.2378 11.9343 11.2819 11.955 11.3194 11.985C11.3556 12.0141 11.3845 12.0512 11.4036 12.0935C11.4227 12.1358 11.4316 12.182 11.4295 12.2283C11.4282 12.3351 11.3892 12.438 11.3194 12.5189C11.251 12.6064 11.154 12.6672 11.0454 12.6906ZM10.7393 15.4425V13.044L11.3569 12.9097V15.3038L10.7393 15.4425Z" fill="white"/>
<path d="M13.1571 14.9824C12.7963 15.0609 12.4952 15.0047 12.254 14.8139C12.1328 14.7153 12.0366 14.5894 11.9733 14.4465C11.91 14.3036 11.8814 14.1478 11.8899 13.9917C11.8902 13.6326 12.0181 13.2854 12.2507 13.012C12.4773 12.7257 12.7967 12.5276 13.1538 12.4517C13.3645 12.3999 13.5857 12.4102 13.7907 12.4814C13.9749 12.5439 14.1308 12.67 14.2307 12.837L13.6994 13.2641C13.6518 13.1766 13.5734 13.1099 13.4794 13.0769C13.3733 13.0396 13.2585 13.0342 13.1494 13.0615C12.9675 13.0997 12.8047 13.2006 12.6896 13.3466C12.5697 13.4896 12.505 13.6708 12.507 13.8574C12.5016 13.9381 12.5153 14.0189 12.5471 14.0933C12.5788 14.1678 12.6276 14.2336 12.6896 14.2856C12.7544 14.3344 12.8298 14.3673 12.9096 14.3818C12.9894 14.3964 13.0715 14.392 13.1494 14.3692C13.27 14.344 13.383 14.2908 13.4794 14.214C13.5754 14.1407 13.6511 14.0441 13.6994 13.9333L14.2362 14.1238C14.1307 14.3367 13.9806 14.5244 13.7962 14.6741C13.6104 14.8259 13.3914 14.9315 13.1571 14.9824Z" fill="white"/>
<path d="M16.4421 11.8056L17.0603 11.6713V14.0677L16.4421 14.2031V13.9202C16.3527 14.0539 16.2378 14.1686 16.104 14.2578C15.9701 14.347 15.82 14.4088 15.6622 14.4397C15.5203 14.4774 15.3713 14.48 15.2281 14.4472C15.085 14.4144 14.952 14.3472 14.8405 14.2515C14.7252 14.1486 14.6346 14.0211 14.5754 13.8784C14.5161 13.7356 14.4898 13.5814 14.4984 13.427C14.4983 13.0732 14.619 12.7299 14.8405 12.454C15.04 12.1793 15.3317 11.9859 15.6622 11.9091C15.9977 11.8364 16.2573 11.8959 16.4421 12.0896V11.8056ZM15.3003 13.7375C15.3676 13.787 15.4452 13.8206 15.5273 13.8357C15.6095 13.8507 15.694 13.8469 15.7744 13.8244C15.9626 13.7851 16.1311 13.6812 16.2507 13.5305C16.375 13.3832 16.4421 13.196 16.4399 13.0032C16.4454 12.9201 16.4311 12.8369 16.3982 12.7603C16.3653 12.6838 16.3148 12.6162 16.2507 12.5629C16.1831 12.5132 16.1051 12.4797 16.0225 12.4648C15.94 12.4499 15.8551 12.4541 15.7744 12.4771C15.5874 12.5174 15.4198 12.6207 15.2997 12.7697C15.1795 12.9188 15.1142 13.1046 15.1144 13.296C15.109 13.379 15.123 13.4621 15.1552 13.5387C15.1875 13.6154 15.2372 13.6834 15.3003 13.7375Z" fill="white"/>
</svg>
