<svg width="24" height="23" viewBox="0 0 24 23" fill="none" xmlns="http://www.w3.org/2000/svg">
<path d="M8.00109 0.000600036H15.1028L7.73048 21.8569C7.69278 21.9685 7.63792 22.0736 7.56787 22.1683C7.49796 22.2631 7.41366 22.3462 7.31795 22.4149C7.22225 22.4836 7.11664 22.537 7.00443 22.573C6.89223 22.609 6.77522 22.6276 6.65761 22.6276H1.13069C0.951274 22.6276 0.774264 22.585 0.614654 22.5028C0.454876 22.4209 0.316952 22.302 0.212331 22.156C0.107641 22.0101 0.0391539 21.8413 0.0125186 21.6637C-0.014183 21.4861 0.00201801 21.3046 0.0593214 21.1345L6.92793 0.770746C6.96543 0.659139 7.02034 0.554133 7.09054 0.459327C7.16044 0.364522 7.24505 0.281417 7.34045 0.212713C7.43616 0.144009 7.54177 0.0906054 7.65397 0.0546032C7.76618 0.0186011 7.88319 0 8.00079 0V0.000300018L8.00109 0.000600036Z" fill="url(#paint0_linear_24537_13864)"/>
<path d="M21.0925 22.6276H14.7156C14.6445 22.6276 14.5734 22.621 14.5032 22.6075C14.4333 22.5943 14.3646 22.5745 14.2983 22.5484C14.232 22.5223 14.1684 22.4899 14.1081 22.4521C14.0479 22.4141 13.9913 22.3705 13.9392 22.3219L6.70277 15.5637C6.62623 15.4922 6.57292 15.3994 6.54976 15.2973C6.52662 15.1951 6.53476 15.0884 6.57313 14.991C6.61149 14.8935 6.67831 14.8099 6.76487 14.7509C6.85158 14.6921 6.95388 14.6606 7.05859 14.6606H18.3201L21.0919 22.6279L21.0925 22.6276Z" fill="#0078D4"/>
<path d="M15.1283 0.000502349L10.157 14.6621L18.2796 14.6603L21.0659 22.6275H14.713C14.6473 22.6269 14.5816 22.6209 14.5168 22.6092C14.452 22.5975 14.3884 22.5804 14.3266 22.5576C14.2027 22.5125 14.0874 22.4464 13.9858 22.3623L9.1009 17.8033L7.73342 21.8361C7.69802 21.9369 7.64942 22.0326 7.58881 22.1205C7.46735 22.2974 7.3012 22.4389 7.10729 22.5306C7.01074 22.5763 6.90853 22.6089 6.80337 22.6275H1.13393C0.952719 22.6281 0.773909 22.5849 0.612799 22.5015C0.451665 22.4182 0.312963 22.2973 0.208418 22.1491C0.103873 22.0008 0.0365579 21.8296 0.0121636 21.6498C-0.0121424 21.47 0.00709824 21.2869 0.0682669 21.1161L6.92577 0.785949C6.96148 0.672242 7.01518 0.565136 7.08478 0.46853C7.15409 0.371924 7.23869 0.286719 7.3347 0.216515C7.4307 0.146311 7.53751 0.0917078 7.65062 0.0551056C7.76372 0.0185034 7.88223 -9.76865e-05 8.00134 0.000502349H15.1286H15.1283Z" fill="url(#paint1_linear_24537_13864)"/>
<path d="M23.9406 21.1343C23.9979 21.3045 24.014 21.4859 23.9877 21.6636C23.961 21.8411 23.8926 22.0099 23.7882 22.1559C23.6835 22.3018 23.5456 22.4206 23.3859 22.5026C23.2263 22.5847 23.0493 22.6275 22.8698 22.6275H14.9547C15.1341 22.6275 15.3112 22.5846 15.4711 22.5027C15.6307 22.4208 15.7687 22.3017 15.8734 22.1559C15.9781 22.0101 16.0465 21.8412 16.0732 21.6636C16.0999 21.486 16.0837 21.3045 16.0264 21.1343L9.15749 0.770034C9.08188 0.545706 8.93781 0.350744 8.74557 0.212601C8.65016 0.143897 8.54455 0.0907937 8.43265 0.0547915C8.32074 0.0187894 8.20373 0.000488281 8.08643 0.000488281H16.0012C16.1188 0.000488281 16.2355 0.0187894 16.3477 0.0547915C16.4596 0.0907937 16.5652 0.144197 16.6609 0.212601C16.7563 0.281305 16.8406 0.36441 16.9106 0.458916C16.9805 0.553421 17.0351 0.658427 17.0729 0.770034L23.9418 21.1343H23.9406Z" fill="url(#paint2_linear_24537_13864)"/>
<defs>
<linearGradient id="paint0_linear_24537_13864" x1="10.5929" y1="1.6777" x2="3.21251" y2="23.48" gradientUnits="userSpaceOnUse">
<stop stop-color="#114A8B"/>
<stop offset="1" stop-color="#0669BC"/>
</linearGradient>
<linearGradient id="paint1_linear_24537_13864" x1="12.894" y1="11.8362" x2="11.1869" y2="12.4152" gradientUnits="userSpaceOnUse">
<stop stop-opacity="0.3"/>
<stop offset="0.1" stop-opacity="0.2"/>
<stop offset="0.3" stop-opacity="0.1"/>
<stop offset="0.6" stop-opacity="0.1"/>
<stop offset="1" stop-opacity="0"/>
</linearGradient>
<linearGradient id="paint2_linear_24537_13864" x1="11.9522" y1="1.04155" x2="20.0526" y2="22.6218" gradientUnits="userSpaceOnUse">
<stop stop-color="#3CCBF4"/>
<stop offset="1" stop-color="#2892DF"/>
</linearGradient>
</defs>
</svg>
