<svg width="24" height="24" viewBox="0 0 24 24" fill="none" xmlns="http://www.w3.org/2000/svg">
<path d="M22.9999 12.0004C22.9999 18.0758 18.075 23.0008 11.9999 23.0008C5.92484 23.0008 1 18.0758 1 12.0004C1 5.92506 5.92484 1 11.9999 1C18.075 1 22.9999 5.92506 22.9999 12.0004Z" fill="white"/>
<path d="M15.3526 12.0004C15.3526 10.1485 13.8516 8.64729 11.9998 8.64729C10.1479 8.64729 8.64673 10.1485 8.64673 12.0004C8.64673 13.8522 10.1479 15.3535 11.9998 15.3535C13.8516 15.3535 15.3526 13.8522 15.3526 12.0004Z" fill="#ED1C24"/>
<path d="M12.0006 1.00006C10.9525 1.00006 9.94016 1.14972 8.97995 1.42348V7.36955C9.84839 6.80201 10.8854 6.47083 12.0003 6.47083C15.054 6.47083 17.5298 8.9465 17.5298 12.0004C17.5298 15.0543 15.054 17.53 12.0003 17.53C8.94642 17.53 6.47067 15.0543 6.47067 12.0004C6.47067 11.9022 6.47347 11.8046 6.47842 11.7076L6.47067 11.7137V2.49259C3.19994 4.39896 1.00012 7.94171 1.00012 12.0004C1.00012 18.0757 5.92526 23.0008 12.0006 23.0008C18.0758 23.0008 23 18.0757 23 12.0004C23 5.9252 18.0758 1.00006 12.0006 1.00006Z" fill="#ED1C24"/>
</svg>
