<svg width="24" height="24" viewBox="0 0 24 24" fill="none" xmlns="http://www.w3.org/2000/svg">
<g clip-path="url(#clip0_15000_4330)">
<path d="M4.67127 6.23962H7.80285L5.36794 12.1953C5.36794 12.1953 4.09509 12.1745 3.70589 11.0623C3.59688 10.7321 3.58772 10.377 3.67958 10.0416L4.67127 6.23962Z" fill="#D53127"/>
<path d="M16.8166 6.36704L12.8347 6.29778L13.7308 3.34211C13.8133 3.07154 13.8314 2.7854 13.7836 2.50659C13.7358 2.22778 13.6234 1.96402 13.4554 1.73641C13.2875 1.5088 13.0685 1.32366 12.8162 1.19579C12.5639 1.06792 12.2851 1.00087 12.0022 1L8.36789 1L4.21277 15.9238C4.21277 15.9238 2.72385 22.3061 8.36789 22.8837C8.36789 22.8837 17.2903 24.7078 20.1532 13.9266C20.1532 13.9266 21.6643 7.40582 16.8166 6.36704ZM14.095 13.7687C14.095 13.7687 13.9358 16.5222 11.8582 17.0055C11.5514 17.0827 11.2273 17.0493 10.9427 16.9114C10.6172 16.7452 10.2806 16.4003 10.2889 15.6773C10.2944 15.4683 10.3279 15.261 10.3887 15.0609L11.156 12.1953H13.2502C13.2502 12.1953 14.1989 12.5042 14.095 13.7687Z" fill="#F47320"/>
<path d="M20.3444 10.9211C19.9635 6.54017 16.8167 6.36704 16.8167 6.36704L12.8347 6.29779L11.1241 12.2299H13.2128C13.5964 12.2507 14.2959 12.8837 14.0687 14.0042" fill="url(#paint0_linear_15000_4330)"/>
</g>
<defs>
<linearGradient id="paint0_linear_15000_4330" x1="19.6131" y1="16.7812" x2="13.3374" y2="7.15098" gradientUnits="userSpaceOnUse">
<stop offset="0.41" stop-color="#F47320"/>
<stop offset="0.5" stop-color="#F16D21"/>
<stop offset="0.62" stop-color="#E95C22"/>
<stop offset="0.75" stop-color="#DC4125"/>
<stop offset="0.81" stop-color="#D53127"/>
</linearGradient>
<clipPath id="clip0_15000_4330">
<rect width="16.7562" height="22" fill="white" transform="translate(3.62 1)"/>
</clipPath>
</defs>
</svg>
