<svg width="24" height="24" viewBox="0 0 24 24" fill="none" xmlns="http://www.w3.org/2000/svg">
<path d="M11.3004 2.08962C11.4111 2.37092 11.4599 2.67299 11.4434 2.97506V5.78875L8.83521 3.28525L11.177 1.84485C11.2249 1.92282 11.2661 2.00469 11.3004 2.08962Z" fill="#08302F"/>
<path d="M11.4434 21.0788C11.4491 21.3641 11.3887 21.6468 11.2668 21.9045L9.73269 21.7274L9.66931 21.6789L11.0228 18.2307L11.4434 19.0897V21.0788Z" fill="#81D0CB"/>
<path d="M11.4434 18.44V19.0897L11.0227 18.2307L11.4434 18.44Z" fill="#51BAB6"/>
<path d="M11.4434 15.7988V18.4399L11.0227 18.2306L9.17175 16.2567L11.4434 15.7988Z" fill="#41B2B0"/>
<path d="M11.4434 14.4182V15.7988L9.17175 16.2568L9.18409 16.2252H9.18465L11.4434 14.4182Z" fill="#4FB6B3"/>
<path d="M11.4434 14.4114V14.4182L9.18469 16.2252L10.6268 12.5988L10.6341 12.6005L11.4434 14.4114Z" fill="#4AB4B2"/>
<path d="M11.4434 12.7584V14.4114L10.634 12.6005L11.4434 12.7584Z" fill="#1C9991"/>
<path d="M11.4435 12.1572V12.7584L10.6341 12.6005L10.6302 12.5909L10.6251 12.5751L11.4435 12.1572Z" fill="#1D898C"/>
<path d="M9.57901 9.30629L11.4434 9.94584V12.1572L10.6251 12.5751L9.53918 9.29952L9.54311 9.29388L9.57901 9.30629Z" fill="#157073"/>
<path d="M11.4434 7.52637V9.94584L9.57898 9.30629L11.4434 7.52637Z" fill="#115958"/>
<path d="M9.54309 9.2939L9.53636 9.29164L9.47803 9.28262L9.92507 6.21852L9.95704 6.21796L11.4434 6.48979V7.52639L9.57899 9.30631L9.54309 9.2939Z" fill="#125C5B"/>
<path d="M11.4434 5.78875V6.48978L9.95698 6.21794L9.925 6.2185L9.92893 6.18974L8.93221 3.65973L8.78357 3.28187L8.79254 3.27228L8.83517 3.28525L11.4434 5.78875Z" fill="#125A59"/>
<path d="M9.73267 21.7274L11.2667 21.9044C11.098 22.2632 10.8141 22.5545 10.4607 22.7312L9.73267 21.7274Z" fill="#54B8B8"/>
<path d="M11.177 1.84482L8.83528 3.28522L8.81116 3.24236L9.42815 1.00788C9.53057 0.999281 9.63346 0.997774 9.73608 1.00336C10.026 1.01604 10.3086 1.09921 10.5596 1.24577C10.8105 1.39232 11.0224 1.59788 11.177 1.84482Z" fill="#0E3C3A"/>
<path d="M9.17181 16.2568L11.0228 18.2307L8.12292 18.1021L9.17181 16.2568Z" fill="#55B9B9"/>
<path d="M11.0228 18.2307L9.66933 21.6789L7.20081 19.7901L11.0228 18.2307Z" fill="#1E989D"/>
<path d="M11.0227 18.2306L7.2007 19.79L7.15247 19.8098L8.12283 18.1021L11.0227 18.2306Z" fill="#55B9B9"/>
<path d="M10.6302 12.5909L10.6341 12.6005L10.6268 12.5988L10.6302 12.5909Z" fill="#0F494A"/>
<path d="M10.6251 12.5751L10.6301 12.5908L10.5925 12.5919L10.6251 12.5751Z" fill="#0F494A"/>
<path d="M10.6301 12.5909L10.6267 12.5988L10.5925 12.5921L10.6301 12.5909Z" fill="#0F494A"/>
<path d="M10.6268 12.5988L9.18471 16.2252H9.18415L9.17181 16.2568L6.03076 14.0009L7.18341 12.7026L10.592 12.592H10.5926L10.6268 12.5988Z" fill="#73C4C5"/>
<path d="M10.625 12.5751L10.5925 12.592H10.592L7.18335 12.7025L7.16541 12.6851L9.53914 9.2995L10.625 12.5751Z" fill="#28A4A4"/>
<path d="M9.73267 21.7274L10.4618 22.7312C10.2538 22.8363 10.0324 22.9122 9.8039 22.9568L9.73267 21.7274Z" fill="#1E8B85"/>
<path d="M8.93233 3.65973L9.92905 6.18974L9.92513 6.2185L7.61646 6.25121L8.93233 3.65973Z" fill="#136769"/>
<path d="M9.92507 6.21851L9.47803 9.2826L8.39661 8.37291L7.43298 6.61273L7.6164 6.25122L9.92507 6.21851Z" fill="#1E9997"/>
<path d="M9.73261 21.7274L9.80273 22.9591C9.73542 22.9738 9.66531 22.9856 9.59239 22.9963C9.59239 22.9963 8.80713 23.1091 7.96577 22.094C7.69975 22.1637 7.42713 22.2049 7.15247 22.2169V19.8098L7.2007 19.7901L9.66867 21.6789L9.73261 21.7274Z" fill="#0D5150"/>
<path d="M9.54311 9.29387L9.53918 9.29948L9.53638 9.29163L9.54311 9.29387Z" fill="#0F494A"/>
<path d="M9.53919 9.29952L7.16546 12.6851L5.58203 11.1246L9.53639 9.29163L9.53919 9.29952Z" fill="#56BAB8"/>
<path d="M9.5364 9.29164L5.58204 11.1246L5.32066 10.3536L4.71265 8.55847L9.47807 9.28262L9.5364 9.29164Z" fill="#56BAB8"/>
<path d="M9.47807 9.28258L4.71265 8.55843L4.73845 8.51049L4.73957 8.50823L5.92195 6.29292L5.92307 6.29236L8.39665 8.37288L9.47807 9.28258Z" fill="#76C6C5"/>
<path d="M9.42692 1.00787L8.81105 3.24179L8.03027 1.84482C8.1821 1.60552 8.38745 1.40523 8.62995 1.25991C8.87244 1.1146 9.14536 1.02829 9.42692 1.00787Z" fill="#0F4A48"/>
<path d="M9.17185 16.2568L8.12297 18.1021L7.2087 18.0615L7.08866 17.2759L7.09652 17.2719L7.08081 17.224V17.2234L9.17185 16.2568Z" fill="#65BFBF"/>
<path d="M9.17181 16.2568L7.08077 17.2234L6.03076 14.0009L9.17181 16.2568Z" fill="#67C1C1"/>
<path d="M8.78365 3.28186L8.93228 3.65973L7.61641 6.25121L5.97465 6.27433L5.92305 6.29238L5.92249 6.29182L5.9466 6.24613L8.78365 3.28186Z" fill="#1A7E7C"/>
<path d="M8.81111 3.24237L8.83523 3.285L8.7926 3.2721L8.80719 3.25695L8.81111 3.24237Z" fill="#0F494A"/>
<path d="M8.03033 1.84485L8.81111 3.24182L8.80718 3.25649L8.7926 3.27172L5.48328 2.26389C5.8444 2.10482 6.22698 2.00048 6.61854 1.95426C7.06666 1.89647 7.52039 1.89817 7.96807 1.95934C7.98651 1.91994 8.0073 1.88171 8.03033 1.84485Z" fill="#186263"/>
<path d="M8.79267 3.2723L8.78369 3.28188L5.94665 6.24616L5.92253 6.29184L4.64368 4.13744L5.4811 2.26447L8.79267 3.2723Z" fill="#209897"/>
<path d="M7.43304 6.61273L8.39667 8.37291L5.9231 6.29239L5.9747 6.27434L7.61646 6.25122L7.43304 6.61273Z" fill="#2FA7A6"/>
<path d="M8.12283 18.1021L7.15247 19.8099L7.20856 18.0615L8.12283 18.1021Z" fill="#65BFBF"/>
<path d="M7.08853 17.2759L7.20857 18.0615L6.57867 19.5025L4.62842 18.4563L7.08853 17.2759Z" fill="#177F80"/>
<path d="M7.20863 18.0615L7.15254 19.8099L6.57874 19.5025L7.20863 18.0615Z" fill="#1F7A7B"/>
<path d="M7.18341 12.7025L6.03075 14.0008L5.58203 11.1245L7.16546 12.685L7.15256 12.7037L7.18341 12.7025Z" fill="#45B3B4"/>
<path d="M7.18332 12.7024L7.15247 12.7036L7.16537 12.6851L7.18332 12.7024Z" fill="#0F494A"/>
<path d="M7.15255 19.8098V22.2169C6.97713 22.227 6.80128 22.227 6.62586 22.2169C5.77572 22.166 4.96575 21.8357 4.32056 21.2767L7.15255 19.8098Z" fill="#073832"/>
<path d="M7.15263 19.8098L4.32063 21.2762C4.27632 21.2378 4.23257 21.1984 4.18994 21.1578L4.62913 18.4563L6.57938 19.5025L7.15263 19.8098Z" fill="#0E3E3E"/>
<path d="M7.08081 17.224L7.09652 17.2717L7.08866 17.2756L7.08081 17.224Z" fill="#0F494A"/>
<path d="M7.08068 17.224L7.08853 17.2759L4.62842 18.4563L6.03067 14.0009L7.08068 17.2234V17.224Z" fill="#21A3A1"/>
<path d="M5.58203 11.1245L6.03075 14.0008L2.38489 12.4217L5.58203 11.1245Z" fill="#2CA7A5"/>
<path d="M6.03076 14.0009L4.62851 18.4563L3.05798 16.0876L6.03076 14.0009Z" fill="#12534F"/>
<path d="M6.03075 14.0009L3.05797 16.0876L2.38489 12.4218L6.03075 14.0009Z" fill="#177B7B"/>
<path d="M5.92281 6.29181L5.92363 6.29262L5.922 6.29344L5.92281 6.29181Z" fill="#0F494A"/>
<path d="M4.64357 4.13745L5.92186 6.29185L3.24524 7.22693L3.27889 7.15079C3.36135 7.11131 3.44716 7.07296 3.53466 7.038C3.53466 7.038 3.50213 6.94325 3.46343 6.77857L4.64357 4.13745Z" fill="#22A4A2"/>
<path d="M5.92194 6.29291L4.73956 8.50822L3.57289 8.03673L3.14099 7.46429L3.24532 7.22686L5.92194 6.29291Z" fill="#3FAFB0"/>
<path d="M5.32065 10.3536L5.58203 11.1246L2.38489 12.4217L4.37945 9.10608L5.32065 10.3536Z" fill="#1B9290"/>
<path d="M5.48098 2.26447L4.64355 4.13744L4.13538 3.28188C4.26899 3.11869 4.41671 2.96771 4.57681 2.8307C4.8492 2.59873 5.1538 2.40798 5.48098 2.26447Z" fill="#21A3A5"/>
<path d="M4.71269 8.55844L5.32071 10.3536L4.37952 9.10606L4.73849 8.5105L4.71269 8.55844Z" fill="#229E9C"/>
<path d="M4.73955 8.50823L4.73843 8.51049L4.37945 9.10605L3.57288 8.03674L4.73955 8.50823Z" fill="#157E81"/>
<path d="M4.64364 4.13741L3.46575 6.77627C3.32103 6.15984 3.0877 4.56265 4.13883 3.2796L4.64364 4.13741Z" fill="#5EBCBC"/>
<path d="M3.05791 16.0876L4.62843 18.4563L3.01921 18.7783C3.01159 18.6427 3.01515 18.5067 3.02986 18.3717C3.02986 18.3717 1.73081 18.0333 1.1615 16.0853L3.05791 16.0876Z" fill="#0F494A"/>
<path d="M4.62851 18.4563L4.18933 21.1578C3.70049 20.6967 3.34039 20.1149 3.14493 19.4703C3.07541 19.2456 3.03322 19.0133 3.01929 18.7783L4.62851 18.4563Z" fill="#0C4340"/>
<path d="M4.37945 9.10604L2.38489 12.4217L2.40957 9.13029L2.99234 7.80212L3.57288 8.03674L4.37945 9.10604Z" fill="#1B8D8D"/>
<path d="M3.14095 7.46429L3.57284 8.03673L2.99231 7.80212L3.14095 7.46429Z" fill="#31A5A4"/>
<path d="M3.27898 7.15076L3.24532 7.22689L3.02096 7.30529L3.01086 7.29175C3.09612 7.24269 3.18587 7.19588 3.27898 7.15076Z" fill="#61C0C6"/>
<path d="M3.24523 7.22693L3.14091 7.46436L3.02087 7.30532L3.24523 7.22693Z" fill="#61C0C6"/>
<path d="M3.02103 7.30518L3.14107 7.46422L2.99243 7.80261L2.52576 7.61424C2.65728 7.51234 2.79455 7.41819 2.9369 7.33225L3.02103 7.30518Z" fill="#61C0C6"/>
<path d="M2.38489 12.4216L3.05797 16.0875H1.16156C1.1481 16.0407 1.13464 15.9927 1.12174 15.9437C1.10884 15.8946 1.09762 15.8484 1.08752 15.7999L2.38489 12.4216Z" fill="#0B4340"/>
<path d="M3.01083 7.29169L3.02093 7.30515L2.93848 7.33375L3.01083 7.29169Z" fill="#61C0C6"/>
<path d="M2.99232 7.80208L2.40955 9.13025L2.4202 7.69774C2.45442 7.66954 2.48919 7.64134 2.52565 7.61371L2.99232 7.80208Z" fill="#2BA6A4"/>
<path d="M2.42022 7.6972L2.40956 9.12971L1.67254 10.8081L1.16772 9.66718C1.1868 9.58089 1.20867 9.49348 1.23391 9.40437C1.23503 9.40437 1.46388 8.48678 2.42022 7.6972Z" fill="#1A7E7C"/>
<path d="M2.40963 9.13031L2.38495 12.4217L1.67261 10.8081L2.40963 9.13031Z" fill="#0F6564"/>
<path d="M1.67248 10.8082L2.38482 12.4217L1.0869 15.7977C0.92853 15.1052 0.987312 14.3804 1.25517 13.7228C1.37603 13.4132 1.56113 13.1331 1.79812 12.9011C1.79812 12.9011 1.44812 12.5182 1.22993 11.8143L1.67248 10.8082Z" fill="#0C514E"/>
<path d="M1.16883 9.66724L1.67364 10.8082L1.22997 11.8143C1.06226 11.278 0.970273 10.5521 1.16883 9.66724Z" fill="#1E6965"/>
<path d="M12.6999 2.08962C12.5892 2.37092 12.5404 2.67299 12.5568 2.97506V5.78875L15.165 3.28525L12.821 1.84485C12.7739 1.92289 12.7334 2.00477 12.6999 2.08962Z" fill="#430B18"/>
<path d="M12.5568 21.0788C12.5511 21.3641 12.6116 21.6468 12.7335 21.9045L14.2675 21.7274L14.3309 21.6789L12.9774 18.2307L12.5568 19.0897V21.0788Z" fill="#FA531F"/>
<path d="M12.5563 18.44V19.0897L12.977 18.2307L12.5563 18.44Z" fill="#CD2B1E"/>
<path d="M12.5563 15.7988V18.4399L12.977 18.2306L14.8279 16.2567L12.5563 15.7988Z" fill="#EB6818"/>
<path d="M12.5563 14.4182V15.7988L14.8279 16.2568L14.8156 16.2252H14.815L12.5563 14.4182Z" fill="#D33F1B"/>
<path d="M12.5563 14.4114V14.4182L14.815 16.2252L13.3729 12.5988L13.3657 12.6005L12.5563 14.4114Z" fill="#D33D1C"/>
<path d="M12.5563 12.7584V14.4114L13.3657 12.6005L12.5563 12.7584Z" fill="#D43B1B"/>
<path d="M12.5563 12.1572V12.7584L13.3657 12.6005L13.3696 12.5909L13.3746 12.5751L12.5563 12.1572Z" fill="#D43B1B"/>
<path d="M14.4207 9.30629L12.5563 9.94584V12.1572L13.3746 12.5751L14.4605 9.29952L14.4566 9.29388L14.4207 9.30629Z" fill="#C72A1B"/>
<path d="M12.5563 7.52637V9.94584L14.4207 9.30629L12.5563 7.52637Z" fill="#C1220F"/>
<path d="M14.4566 9.2939L14.4633 9.29164L14.5217 9.28262L14.0746 6.21852L14.0427 6.21796L12.5563 6.48979V7.52639L14.4207 9.30631L14.4566 9.2939Z" fill="#BD1A15"/>
<path d="M12.5563 5.78875V6.48978L14.0427 6.21794L14.0746 6.2185L14.0707 6.18974L15.0674 3.65973L15.2161 3.28187L15.2071 3.27228L15.1645 3.28525L12.5563 5.78875Z" fill="#780D15"/>
<path d="M14.2676 21.7274L12.7335 21.9044C12.9022 22.2632 13.1861 22.5545 13.5395 22.7312L14.2676 21.7274Z" fill="#F28C38"/>
<path d="M12.821 1.84486L15.1628 3.28526L15.1869 3.2424L14.5733 1.00791C14.4705 0.999267 14.3672 0.997759 14.2642 1.0034C13.9739 1.01571 13.6909 1.09872 13.4395 1.24529C13.1881 1.39186 12.9759 1.59761 12.821 1.84486Z" fill="#7C1220"/>
<path d="M14.8279 16.2568L12.9769 18.2307L15.8768 18.1021L14.8279 16.2568Z" fill="#FCC44B"/>
<path d="M12.9769 18.2307L14.3304 21.6789L16.7989 19.7901L12.9769 18.2307Z" fill="#FC9316"/>
<path d="M12.9769 18.2306L16.7989 19.79L16.8472 19.8098L15.8768 18.1021L12.9769 18.2306Z" fill="#F9A038"/>
<path d="M13.3696 12.5909L13.3657 12.6005L13.373 12.5988L13.3696 12.5909Z" fill="#D43B1B"/>
<path d="M13.3746 12.5751L13.3695 12.5908L13.4071 12.5919L13.3746 12.5751Z" fill="#D43B1B"/>
<path d="M13.3695 12.5909L13.3729 12.5988L13.4071 12.5921L13.3695 12.5909Z" fill="#D43B1B"/>
<path d="M13.3729 12.5988L14.815 16.2252H14.8156L14.8279 16.2568L17.969 14.0009L16.8163 12.7026L13.4077 12.592H13.4071L13.3729 12.5988Z" fill="#FBB023"/>
<path d="M13.3746 12.5751L13.4072 12.592H13.4077L16.8163 12.7025L16.8343 12.6851L14.4605 9.2995L13.3746 12.5751Z" fill="#DE5C22"/>
<path d="M14.2676 21.7274L13.5385 22.7312C13.7465 22.8363 13.9679 22.9122 14.1964 22.9568L14.2676 21.7274Z" fill="#FD9319"/>
<path d="M15.0674 3.65973L14.0707 6.18974L14.0746 6.2185L16.3833 6.25121L15.0674 3.65973Z" fill="#AC1615"/>
<path d="M14.0747 6.21851L14.5217 9.2826L15.6032 8.37291L16.5668 6.61273L16.3834 6.25122L14.0747 6.21851Z" fill="#CB2D14"/>
<path d="M14.2675 21.7274L14.1974 22.9591C14.2647 22.9738 14.3348 22.9856 14.4077 22.9963C14.4077 22.9963 15.193 23.1091 16.0343 22.094C16.3004 22.1637 16.573 22.2049 16.8477 22.2169V19.8098L16.7994 19.7901L14.3314 21.6789L14.2675 21.7274Z" fill="#F4661C"/>
<path d="M14.4565 9.29387L14.4605 9.29948L14.4633 9.29163L14.4565 9.29387Z" fill="#0F494A"/>
<path d="M14.4606 9.29952L16.8343 12.6851L18.4177 11.1246L14.4634 9.29163L14.4606 9.29952Z" fill="#FEA621"/>
<path d="M14.4633 9.29164L18.4176 11.1246L18.679 10.3536L19.287 8.55847L14.5216 9.28262L14.4633 9.29164Z" fill="#FCB839"/>
<path d="M14.5216 9.28258L19.287 8.55843L19.2612 8.51049L19.2601 8.50823L18.0777 6.29292L18.0766 6.29236L15.603 8.37288L14.5216 9.28258Z" fill="#FEA128"/>
<path d="M14.5732 1.00787L15.1902 3.24236L15.971 1.84482C15.8191 1.60538 15.6135 1.40499 15.3708 1.25967C15.1281 1.11434 14.855 1.02812 14.5732 1.00787Z" fill="#AD161F"/>
<path d="M14.8279 16.2568L15.8768 18.1021L16.791 18.0615L16.9111 17.2759L16.9032 17.2719L16.9189 17.224V17.2234L14.8279 16.2568Z" fill="#FEB043"/>
<path d="M14.8279 16.2568L16.9189 17.2234L17.9689 14.0009L14.8279 16.2568Z" fill="#FDA237"/>
<path d="M15.2161 3.28186L15.0675 3.65973L16.3834 6.25121L18.0251 6.27433L18.0767 6.29238L18.0773 6.29182L18.0532 6.24613L15.2161 3.28186Z" fill="#BE1818"/>
<path d="M15.1885 3.24237L15.1644 3.285L15.2071 3.2721L15.1925 3.25695L15.1885 3.24237Z" fill="#0F494A"/>
<path d="M15.9699 1.84485L15.1891 3.24182L15.193 3.25649L15.2076 3.27172L18.5169 2.26389C18.1558 2.10482 17.7732 2.00048 17.3817 1.95426C16.9335 1.89647 16.4798 1.89817 16.0321 1.95934C16.0137 1.91994 15.9929 1.88171 15.9699 1.84485Z" fill="#E93224"/>
<path d="M15.2072 3.2723L15.2161 3.28188L18.0532 6.24616L18.0773 6.29184L19.3561 4.13744L18.5187 2.26447L15.2072 3.2723Z" fill="#EF4025"/>
<path d="M16.5667 6.61273L15.603 8.37291L18.0766 6.29239L18.025 6.27434L16.3832 6.25122L16.5667 6.61273Z" fill="#E03919"/>
<path d="M15.8768 18.1021L16.8472 19.8099L16.7911 18.0615L15.8768 18.1021Z" fill="#FCAB3F"/>
<path d="M16.911 17.2759L16.791 18.0615L17.4209 19.5025L19.3712 18.4563L16.911 17.2759Z" fill="#F99728"/>
<path d="M16.791 18.0615L16.8471 19.8099L17.4209 19.5025L16.791 18.0615Z" fill="#F99728"/>
<path d="M16.8163 12.7025L17.9689 14.0008L18.4177 11.1245L16.8342 12.685L16.8471 12.7037L16.8163 12.7025Z" fill="#FCA025"/>
<path d="M16.8163 12.7024L16.8471 12.7036L16.8342 12.6851L16.8163 12.7024Z" fill="#DE5C22"/>
<path d="M16.8477 19.8098V22.2169C17.0231 22.227 17.1989 22.227 17.3743 22.2169C18.2245 22.166 19.0345 21.8357 19.6796 21.2767L16.8477 19.8098Z" fill="#F03D1C"/>
<path d="M16.8477 19.8098L19.6796 21.2762C19.724 21.2378 19.7677 21.1984 19.8103 21.1578L19.3712 18.4563L17.4203 19.5025L16.8477 19.8098Z" fill="#F35319"/>
<path d="M16.9189 17.224L16.9032 17.2717L16.9111 17.2756L16.9189 17.224Z" fill="#0F494A"/>
<path d="M16.919 17.224L16.9111 17.2759L19.3712 18.4563L17.969 14.0009L16.919 17.2234V17.224Z" fill="#FB9032"/>
<path d="M18.4177 11.1245L17.969 14.0008L21.6149 12.4217L18.4177 11.1245Z" fill="#F9A624"/>
<path d="M17.969 14.0009L19.3712 18.4563L20.9418 16.0876L17.969 14.0009Z" fill="#F05E23"/>
<path d="M17.969 14.0009L20.9418 16.0876L21.6149 12.4218L17.969 14.0009Z" fill="#ED5019"/>
<path d="M18.0775 6.29181L18.0767 6.29262L18.0783 6.29344L18.0775 6.29181Z" fill="#0F494A"/>
<path d="M19.3566 4.13745L18.0778 6.29185L20.7544 7.2258L20.7207 7.14966C20.6383 7.11019 20.5525 7.07183 20.465 7.03687C20.465 7.03687 20.4975 6.94212 20.5362 6.77744L19.3566 4.13745Z" fill="#FA8118"/>
<path d="M18.0778 6.29291L19.2601 8.50822L20.4268 8.03673L20.8587 7.46429L20.7544 7.22686L18.0778 6.29291Z" fill="#FA7C18"/>
<path d="M18.6791 10.3536L18.4177 11.1246L21.6149 12.4217L19.6203 9.10608L18.6791 10.3536Z" fill="#FCB122"/>
<path d="M18.5192 2.26447L19.3566 4.13744L19.8648 3.28188C19.7312 3.11869 19.5834 2.96771 19.4233 2.8307C19.1509 2.59873 18.8463 2.40798 18.5192 2.26447Z" fill="#DD3518"/>
<path d="M19.2871 8.55844L18.6791 10.3536L19.6203 9.10606L19.2613 8.5105L19.2871 8.55844Z" fill="#FCB738"/>
<path d="M19.2601 8.50823L19.2613 8.51049L19.6202 9.10605L20.4268 8.03674L19.2601 8.50823Z" fill="#FAA622"/>
<path d="M19.3567 4.13741L20.5346 6.77627C20.6793 6.15984 20.9126 4.56265 19.8615 3.2796L19.3567 4.13741Z" fill="#F5731F"/>
<path d="M20.9422 16.0876L19.3717 18.4563L20.9809 18.7783C20.9886 18.6427 20.985 18.5067 20.9703 18.3717C20.9703 18.3717 22.2693 18.0333 22.8386 16.0853L20.9422 16.0876Z" fill="#C9283A"/>
<path d="M19.3717 18.4563L19.8109 21.1578C20.2997 20.6967 20.6598 20.1149 20.8553 19.4703C20.9248 19.2456 20.967 19.0133 20.9809 18.7783L19.3717 18.4563Z" fill="#BE1C31"/>
<path d="M19.6202 9.10604L21.6148 12.4217L21.5901 9.13029L21.0074 7.80212L20.4268 8.03674L19.6202 9.10604Z" fill="#F8871D"/>
<path d="M20.8587 7.46429L20.4268 8.03673L21.0073 7.80212L20.8587 7.46429Z" fill="#FA7C18"/>
<path d="M20.7213 7.15076L20.755 7.22689L20.9793 7.30529L20.9894 7.29175C20.9042 7.24269 20.8144 7.19588 20.7213 7.15076Z" fill="#F26F21"/>
<path d="M20.7544 7.22693L20.8587 7.46436L20.9788 7.30532L20.7544 7.22693Z" fill="#F26F21"/>
<path d="M20.9793 7.3053L20.8593 7.46434L21.0079 7.80273L21.4746 7.61436C21.343 7.51246 21.2058 7.41831 21.0634 7.33237L20.9793 7.3053Z" fill="#F26F21"/>
<path d="M21.6155 12.4218L20.9424 16.0876H22.8388C22.8523 16.0408 22.8657 15.9929 22.8786 15.9438C22.8915 15.8947 22.9027 15.8485 22.9128 15.8L21.6155 12.4218Z" fill="#DD3A29"/>
<path d="M20.9895 7.29175L20.9794 7.30521L21.0618 7.33382L20.9895 7.29175Z" fill="#F26F21"/>
<path d="M21.0101 7.80214L21.5929 9.13031L21.5823 7.6978C21.548 7.6696 21.5133 7.6414 21.4768 7.61377L21.0101 7.80214Z" fill="#F87817"/>
<path d="M21.5801 7.69727L21.5907 9.12977L22.3278 10.8076L22.8326 9.66668C22.8135 9.58039 22.7916 9.49297 22.7664 9.40387C22.7653 9.40443 22.5364 8.48684 21.5801 7.69727Z" fill="#F36630"/>
<path d="M21.5901 9.13031L21.6148 12.4217L22.3271 10.8081L21.5901 9.13031Z" fill="#F8982A"/>
<path d="M22.3277 10.8082L21.6154 12.4217L22.9133 15.7977C23.0716 15.1052 23.0129 14.3804 22.745 13.7228C22.6239 13.4133 22.4389 13.1333 22.2021 12.9011C22.2021 12.9011 22.5498 12.5182 22.768 11.816L22.3277 10.8082Z" fill="#E83F2A"/>
<path d="M22.8315 9.66724L22.3267 10.8082L22.7703 11.8143C22.938 11.278 23.0295 10.5521 22.8315 9.66724Z" fill="#E23026"/>
</svg>
