<svg width="24" height="24" viewBox="0 0 24 24" fill="none" xmlns="http://www.w3.org/2000/svg">
<g clip-path="url(#clip0_12171_1697)">
<path d="M22.8475 8.46845C22.3719 11.45 20.8542 14.1661 18.5643 16.1335C16.2744 18.101 13.3609 19.1923 10.3421 19.2132C9.73056 19.2367 9.11828 19.1995 8.51414 19.1022C7.25067 18.8875 6.099 18.2462 5.2512 17.2851C4.4034 16.324 3.91072 15.1013 3.85534 13.8209C3.86755 12.3928 4.44076 11.0268 5.45128 10.0176C6.46176 9.0085 7.82853 8.43724 9.25656 8.42715C10.6846 8.41707 12.0593 8.96896 13.0839 9.96369C14.1086 10.9585 14.7011 12.3162 14.7335 13.744C14.7563 14.6458 14.3657 15.4368 13.5629 15.4596C12.7052 15.4596 12.3031 14.8475 12.3031 14.0227V11.7306C12.3034 11.36 12.1572 11.0042 11.8962 10.741C11.6353 10.4777 11.2809 10.3284 10.9102 10.3254H8.98896C8.43011 10.3215 7.87921 10.4578 7.3866 10.7218C6.894 10.9857 6.47541 11.3689 6.1691 11.8364C5.86275 12.3038 5.67841 12.8405 5.63292 13.3975C5.58743 13.9545 5.68225 14.5141 5.9087 15.025C6.13515 15.5359 6.48602 15.982 6.92926 16.3224C7.3725 16.6628 7.89396 16.8867 8.44602 16.9737C8.99807 17.0605 9.56309 17.0077 10.0894 16.8199C10.6158 16.6321 11.0867 16.3155 11.4591 15.8988L11.5263 15.7986L11.5936 15.9098C11.8247 16.2238 12.1297 16.4758 12.4817 16.6434C12.8336 16.811 13.2215 16.889 13.6109 16.8706C14.305 16.8201 14.9518 16.5004 15.4134 15.9795C15.8749 15.4587 16.1145 14.7781 16.0811 14.083C16.0879 13.4865 16.021 12.8915 15.8821 12.3114C15.5258 10.6726 14.5755 9.22375 13.2144 8.2442C11.8533 7.26465 10.1778 6.82366 8.51087 7.00625C6.84393 7.18884 5.3036 7.98209 4.18686 9.23305C3.07003 10.4841 2.45581 12.1043 2.4626 13.7813C2.48403 15.5596 3.19387 17.2603 4.44297 18.5262C5.69196 19.792 7.38303 20.5244 9.16074 20.5694C9.16074 20.5694 9.66389 20.6151 10.2311 20.6021C12.9884 20.5846 15.6835 19.7805 17.9996 18.2842C18.0325 18.2613 18.0654 18.3071 18.0435 18.3404C16.916 19.5552 15.5371 20.5095 14.003 21.1368C12.469 21.7642 10.8166 22.0497 9.16096 21.9732C8.07859 21.9929 7.00345 21.793 6.00043 21.3858C4.9974 20.9786 4.08727 20.3723 3.32494 19.6037C2.56255 18.8351 1.96374 17.92 1.56464 16.9136C1.16553 15.9072 0.974391 14.8304 1.00275 13.7482C1.00327 12.4579 1.30471 11.1856 1.88312 10.0322C2.46152 8.87885 3.30095 7.87629 4.3347 7.10419C5.72393 6.08111 7.40279 5.52686 9.12808 5.52173H11.7067C12.714 5.52097 13.71 5.31046 14.6315 4.90359C15.553 4.49672 16.3796 3.90241 17.0587 3.15852C17.0731 3.14261 17.0921 3.13172 17.1131 3.12745C17.1341 3.12291 17.156 3.12508 17.1756 3.13366C17.1953 3.14224 17.2118 3.15679 17.2227 3.17524C17.2337 3.19377 17.2387 3.21525 17.2369 3.2368C17.1276 4.39582 16.7418 5.51169 16.1118 6.49068C16.1025 6.50768 16.0983 6.52703 16.0998 6.54637C16.1012 6.56571 16.1083 6.58421 16.1201 6.5996C16.1319 6.61497 16.1478 6.6266 16.166 6.63308C16.1842 6.63957 16.2039 6.64064 16.2228 6.63615C17.4131 6.36725 18.5237 5.82269 19.4651 5.04629C20.4066 4.26989 21.1527 3.28333 21.6433 2.16599C21.6558 2.14602 21.673 2.12945 21.6934 2.1177C21.714 2.1061 21.7372 2.10001 21.7608 2.10001C21.7844 2.10001 21.8076 2.1061 21.8282 2.1177C21.8486 2.12937 21.8659 2.14595 21.8782 2.16599C22.8888 4.102 23.2297 6.31824 22.8475 8.46845ZM9.15411 11.702C8.85749 11.7019 8.56456 11.7677 8.29641 11.8945C8.02826 12.0213 7.79157 12.2059 7.6034 12.4352C7.41522 12.6645 7.28025 12.9327 7.20819 13.2204C7.13614 13.5081 7.1288 13.8083 7.18671 14.0992C7.26411 14.4883 7.45514 14.8457 7.73564 15.1262C8.01614 15.4068 8.37353 15.5978 8.76262 15.6753C9.05352 15.7331 9.35363 15.7257 9.64133 15.6537C9.92904 15.5816 10.1972 15.4466 10.4264 15.2584C10.6557 15.0702 10.8403 14.8335 10.9671 14.5653C11.0938 14.2972 11.1596 14.0043 11.1595 13.7077V11.8351C11.1577 11.7993 11.1427 11.7654 11.1173 11.7401C11.0919 11.7147 11.0581 11.6997 11.0222 11.6979L9.15411 11.702Z" fill="#702AF7"/>
</g>
<defs>
<clipPath id="clip0_12171_1697">
<rect width="22" height="22" fill="white" transform="translate(1 1)"/>
</clipPath>
</defs>
</svg>
