<svg width="24" height="24" viewBox="0 0 24 24" fill="none" xmlns="http://www.w3.org/2000/svg">
<path fill-rule="evenodd" clip-rule="evenodd" d="M23 5.22393C23 2.89268 21.1481 1 18.8682 1H5.13178C2.85186 1 1 2.89268 1 5.22393V18.7761C1 21.1067 2.85186 23 5.1318 23H18.8682C21.1481 23 23 21.1067 23 18.7761L23 5.22393Z" fill="#0C3B7C"/>
<path fill-rule="evenodd" clip-rule="evenodd" d="M1 15H12V23H1.00001L1 15Z" fill="#0C3B7C"/>
<path d="M10.9168 15.7656L9.14489 15.7638V13.5974C9.14489 13.1345 9.3205 12.8936 9.70789 12.8385H10.9168C11.779 12.8385 12.3367 13.3943 12.3367 14.2939C12.3367 15.2179 11.7931 15.7647 10.9168 15.7656H10.9168ZM9.14489 9.92229V9.35203C9.14489 8.85306 9.35138 8.61575 9.80408 8.58508H10.7112C11.4887 8.58508 11.9546 9.06059 11.9546 9.85732C11.9546 10.4637 11.6351 11.172 10.7395 11.172H9.14489V9.92229ZM13.1794 12.0842L12.8591 11.9001L13.1388 11.6556C13.4644 11.3696 14.0098 10.7262 14.0098 9.6164C14.0098 7.91647 12.7205 6.82017 10.7253 6.82017H8.44864V6.81927H8.1892C7.59797 6.84183 7.1241 7.33358 7.11792 7.94174V17.5873H10.7703C12.9879 17.5873 14.4192 16.353 14.4192 14.441C14.4192 13.4115 13.9569 12.5317 13.1794 12.0842Z" fill="white"/>
<path d="M15.3705 16.2549C15.3705 15.518 15.9517 14.9219 16.6678 14.9219C17.3857 14.9219 17.9696 15.518 17.9696 16.2549C17.9696 16.9908 17.3857 17.5878 16.6678 17.5878C15.9517 17.5878 15.3705 16.9908 15.3705 16.2549Z" fill="#00BAFC"/>
</svg>
