<svg width="24" height="24" viewBox="0 0 24 24" fill="none" xmlns="http://www.w3.org/2000/svg">
<g clip-path="url(#clip0_12171_1671)">
<path fill-rule="evenodd" clip-rule="evenodd" d="M5.56947 3.00211C4.31418 3.00211 3.38532 4.10082 3.42692 5.29234C3.46684 6.43707 3.41497 7.91966 3.04175 9.12872C2.66719 10.3412 2.03417 11.1095 1 11.2081V12.3215C2.03417 12.4203 2.66719 13.1883 3.0417 14.4009C3.41497 15.61 3.46679 17.0925 3.42687 18.2373C3.38528 19.4286 4.31414 20.5275 5.56964 20.5275H18.4322C19.6875 20.5275 20.6162 19.4288 20.5746 18.2373C20.5347 17.0925 20.5865 15.61 20.9598 14.4009C21.3343 13.1883 21.9658 12.42 23 12.3215V11.2081C21.9658 11.1093 21.3344 10.3413 20.9598 9.12872C20.5865 7.91984 20.5347 6.43707 20.5746 5.29234C20.6162 4.10099 19.6875 3.00211 18.4322 3.00211H5.5693H5.56947ZM15.9153 13.7901C15.9153 15.4308 14.6915 16.4258 12.6606 16.4258H9.20338C9.10448 16.4258 9.00964 16.3866 8.93971 16.3166C8.86978 16.2467 8.8305 16.1519 8.8305 16.053V7.4767C8.8305 7.37781 8.86978 7.28296 8.93971 7.21303C9.00964 7.1431 9.10448 7.10382 9.20338 7.10382H12.6409C14.3343 7.10382 15.4457 8.02111 15.4457 9.42946C15.4457 10.418 14.6981 11.3029 13.7456 11.4579V11.5095C15.0422 11.6517 15.9153 12.5498 15.9153 13.7901ZM12.2836 8.28584H10.3124V11.0702H11.9726C13.2561 11.0702 13.9638 10.5534 13.9638 9.62961C13.9637 8.76387 13.3552 8.28584 12.2836 8.28584ZM10.3124 12.175V15.2434H12.3561C13.6925 15.2434 14.4003 14.7072 14.4003 13.6995C14.4003 12.6918 13.6726 12.1748 12.2702 12.1748H10.3124V12.175Z" fill="#7727ED"/>
</g>
<defs>
<clipPath id="clip0_12171_1671">
<rect width="22" height="18" fill="white" transform="translate(1 3)"/>
</clipPath>
</defs>
</svg>
