<svg width="24" height="24" viewBox="0 0 24 24" fill="none" xmlns="http://www.w3.org/2000/svg">
<g clip-path="url(#clip0_15000_4370)">
<path d="M14.6254 4.36141L9.38161 1.33475C9.12934 1.1891 8.84318 1.11243 8.55189 1.11243C8.26059 1.11243 7.97443 1.1891 7.72216 1.33475L2.47835 4.36141C2.22643 4.50731 2.0173 4.71689 1.87195 4.96914C1.72661 5.22139 1.65016 5.50742 1.65027 5.79854V11.8524C1.65016 12.1437 1.72679 12.4299 1.87244 12.6822C2.0181 12.9345 2.22765 13.144 2.47999 13.2895L4.77416 14.6147V18.9769L14.6254 13.2895C14.8778 13.144 15.0873 12.9345 15.233 12.6822C15.3786 12.4299 15.4553 12.1437 15.4551 11.8524V5.79854C15.4551 5.50726 15.3784 5.22112 15.2327 4.96886C15.0871 4.7166 14.8776 4.5071 14.6254 4.36141Z" fill="#EF4645"/>
<path d="M21.527 8.34671L16.523 5.4577C16.5374 5.57075 16.5447 5.68459 16.5449 5.79855V11.8524C16.5444 12.3348 16.4173 12.8087 16.1763 13.2266C15.9353 13.6445 15.5889 13.9919 15.1716 14.234L9.6427 17.4251L19.2323 22.9616V18.5995L21.5265 17.2748C21.7788 17.1291 21.9883 16.9195 22.1339 16.6672C22.2796 16.4148 22.3562 16.1285 22.3562 15.8372V9.78384C22.3563 9.49253 22.2797 9.20632 22.134 8.95403C21.9884 8.70174 21.7788 8.49228 21.5265 8.34671" fill="#EF4645"/>
</g>
<defs>
<clipPath id="clip0_15000_4370">
<rect width="20.7064" height="22" fill="white" transform="translate(1.65002 1)"/>
</clipPath>
</defs>
</svg>
