<svg width="24" height="24" viewBox="0 0 24 24" fill="none" xmlns="http://www.w3.org/2000/svg">
<path d="M18.0289 1.80457C17.4933 1.49392 16.9347 1.22493 16.3579 1C16.3579 1 14.9562 1.76267 14.2061 2.22048C13.3617 2.73695 11.9998 3.75105 11.9998 3.75105C11.9998 3.75105 10.6379 2.73695 9.78725 2.22048C9.03715 1.76267 7.63649 1 7.63649 1C7.0579 1.22469 6.49751 1.49368 5.9603 1.80457C5.34637 2.14986 4.77919 2.57235 4.27258 3.06171C4.27258 3.06171 6.80573 5.0899 8.1383 6.27267C9.47087 7.45543 11.9998 9.80524 11.9998 9.80524C11.9998 9.80524 14.5141 7.45962 15.8509 6.27581C17.1876 5.092 19.7155 3.06486 19.7155 3.06486C19.2096 2.57424 18.6428 2.15067 18.0289 1.80457Z" fill="#F42C27"/>
<path d="M5.96567 22.1891C6.50275 22.5006 7.06316 22.7699 7.64186 22.9948C7.64186 22.9948 9.04253 22.231 9.79262 21.7732C10.638 21.2578 12 20.2427 12 20.2427C12 20.2427 13.3619 21.2578 14.2094 21.7732C14.9563 22.231 16.3581 23 16.3581 23C16.9368 22.7752 17.4972 22.5058 18.0342 22.1944C18.6482 21.8497 19.2151 21.4271 19.7209 20.9372C19.7209 20.9372 17.1888 18.909 15.8562 17.7263C14.5237 16.5435 12 14.1895 12 14.1895C12 14.1895 9.47519 16.5351 8.14367 17.7179C6.81214 18.9007 4.27795 20.9288 4.27795 20.9288C4.78425 21.4186 5.35148 21.8411 5.96567 22.186V22.1891Z" fill="#1AD346"/>
<path d="M22.1891 18.0364C22.5005 17.4993 22.7699 16.9389 22.9947 16.3602C22.9947 16.3602 22.231 14.9585 21.7732 14.2084C21.2577 13.3629 20.2426 12 20.2426 12C20.2426 12 21.2577 10.6381 21.7732 9.79998C22.231 9.0457 22.9999 7.64399 22.9999 7.64399C22.7751 7.06528 22.5057 6.50487 22.1943 5.96779C21.8496 5.35381 21.4271 4.78691 20.9372 4.28113C20.9372 4.28113 18.909 6.81322 17.7262 8.14579C16.5435 9.47837 14.1895 12 14.1895 12C14.1895 12 16.5351 14.5216 17.7178 15.8542C18.9006 17.1867 20.9288 19.7199 20.9288 19.7199C21.4185 19.2136 21.841 18.6464 22.1859 18.0322L22.1891 18.0364Z" fill="#19A8F7"/>
<path d="M1.80445 5.97305C1.4938 6.50858 1.22481 7.06721 0.999878 7.64401C0.999878 7.64401 1.76254 9.04572 2.22035 9.80001C2.73683 10.6454 3.75093 12.0094 3.75093 12.0094C3.75093 12.0094 2.73683 13.3713 2.22035 14.2178C1.76254 14.9637 0.999878 16.3654 0.999878 16.3654C1.22457 16.944 1.49355 17.5044 1.80445 18.0416C2.14957 18.6553 2.57208 19.2222 3.06159 19.7283C3.06159 19.7283 5.08978 17.1962 6.27254 15.8636C7.45531 14.5311 9.80512 12 9.80512 12C9.80512 12 7.4595 9.48572 6.27569 8.15105C5.09188 6.81639 3.06473 4.28534 3.06473 4.28534C2.57426 4.79176 2.15072 5.35895 1.80445 5.97305Z" fill="#232323"/>
</svg>
