<svg width="24" height="24" viewBox="0 0 24 24" fill="none" xmlns="http://www.w3.org/2000/svg">
<g clip-path="url(#clip0_15000_4378)">
<path d="M8.89195 22.2931H1L15.0382 1.62H23L8.89195 22.2931Z" fill="#F06060"/>
<path d="M19.4706 22.3743L14.8299 22.2911C14.2483 21.7093 13.9146 20.9248 13.8988 20.1023C13.883 19.2797 14.1864 18.483 14.7453 17.8793L17.903 14.4686L21.0391 19.6108C21.7936 20.8289 20.9023 22.3994 19.4706 22.3743Z" fill="#363636"/>
<path d="M4.49441 1.61998L9.13656 1.70118C9.71837 2.28289 10.0523 3.06735 10.0681 3.88993C10.084 4.71252 9.78064 5.50927 9.2217 6.113L6.06344 9.52324L2.92783 4.38203C2.17186 3.16588 3.06268 1.59537 4.49441 1.61998Z" fill="#363636"/>
</g>
<defs>
<clipPath id="clip0_15000_4378">
<rect width="22" height="20.7548" fill="white" transform="translate(1 1.62)"/>
</clipPath>
</defs>
</svg>
