<svg width="24" height="24" viewBox="0 0 24 24" fill="none" xmlns="http://www.w3.org/2000/svg">
<path d="M12.0032 8.19494C11.2923 7.23267 10.1662 6.64777 8.95828 6.64777C6.86334 6.64777 5.15845 8.36475 5.15845 10.478C5.15216 13.9497 9.73838 18.2956 12.0032 18.2956C14.2617 18.2956 18.8542 13.9559 18.8542 10.4842C18.8542 8.36475 17.1493 6.65406 15.0544 6.65406C13.8339 6.64777 12.7141 7.23267 12.0032 8.19494Z" fill="black"/>
<path d="M18.0866 23H5.91335C3.20189 23 1 20.7987 1 18.0818V5.91195C1 3.20126 3.20189 1 5.91335 1H18.0866C20.8044 1 23 3.20126 23 5.91195V18.0818C23.0063 20.7987 20.8044 23 18.0866 23Z" fill="#7000E3"/>
<path d="M12.0032 8.23272C11.2923 7.27045 10.1662 6.68555 8.95827 6.68555C6.86334 6.68555 5.15845 8.40253 5.15845 10.5157C5.15845 13.9874 9.74466 18.3271 12.0095 18.3271C14.268 18.3271 18.8605 13.9874 18.8605 10.5157C18.8605 8.39624 17.1556 6.68555 15.0606 6.68555C13.8339 6.68555 12.7141 7.27045 12.0032 8.23272Z" fill="#FF661B"/>
</svg>
