<svg width="24" height="24" viewBox="0 0 24 24" fill="none" xmlns="http://www.w3.org/2000/svg">
<path d="M22.1934 7.87562H12.0004C9.72237 7.87339 7.8738 9.71831 7.87152 11.9964C7.87083 12.704 8.05215 13.3998 8.39808 14.017L3.30164 5.27238C7.01368 0.468029 13.9176 -0.417435 18.722 3.29461C20.2649 4.48673 21.463 6.06779 22.1934 7.87562Z" fill="#F44336"/>
<path d="M23 12.0004C22.9949 18.0732 18.0732 22.9949 12.0004 23C11.5405 23.0017 11.0811 22.9711 10.6255 22.9083L15.5753 14.0629C16.7097 12.0879 16.0335 9.56744 14.0628 8.42559C13.4389 8.06437 12.7305 7.87458 12.0096 7.87561H22.1933C22.7286 9.18482 23.0026 10.5861 23 12.0004Z" fill="#FFC107"/>
<path d="M15.5753 14.0629L10.6255 22.9084H10.6163C4.59287 22.1473 0.32685 16.6474 1.08788 10.6239C1.33421 8.6743 2.09864 6.82633 3.30163 5.27238L8.39807 14.017L8.42557 14.0629C9.56209 16.0372 12.0839 16.7164 14.0582 15.5799C14.6889 15.2169 15.2123 14.6935 15.5753 14.0629Z" fill="#4CAF50"/>
<path d="M15.5752 14.0629C14.4387 16.0372 11.9169 16.7164 9.94256 15.5799C9.31193 15.2169 8.78855 14.6935 8.42552 14.0629L8.39802 14.017C7.28427 12.0298 7.99246 9.51589 9.97972 8.40214C10.597 8.05622 11.2928 7.8749 12.0004 7.87558H12.0095C12.7305 7.87455 13.4389 8.06434 14.0628 8.42556C16.0335 9.56745 16.7097 12.0879 15.5752 14.0629Z" fill="#F44336"/>
<path d="M15.5752 14.0629C14.4387 16.0372 11.9169 16.7164 9.94256 15.5799C9.31193 15.2169 8.78855 14.6935 8.42552 14.0629L8.39802 14.017C7.28427 12.0298 7.99246 9.51589 9.97972 8.40214C10.597 8.05622 11.2928 7.8749 12.0004 7.87558H12.0095C12.7305 7.87455 13.4389 8.06434 14.0628 8.42556C16.0335 9.56745 16.7097 12.0879 15.5752 14.0629Z" fill="#2196F3"/>
<path d="M11.9849 16.5836C11.1858 16.5835 10.4008 16.373 9.70891 15.9731C9.01125 15.5696 8.43184 14.9899 8.02873 14.2921C6.76313 12.1 7.5142 9.29698 9.70629 8.03139C10.4038 7.6287 11.1951 7.41691 12.0005 7.41734C14.5317 7.41537 16.5853 9.46575 16.5872 11.9969C16.5878 12.8027 16.376 13.5943 15.9732 14.2921C15.1472 15.7121 13.6277 16.5852 11.9849 16.5836ZM12.0087 8.33396C10.6934 8.32696 9.4756 9.02702 8.81975 10.1672C7.80727 11.9229 8.40971 14.1669 10.1653 15.1794C11.921 16.1918 14.165 15.5894 15.1775 13.8338C16.19 12.0801 15.5891 9.83772 13.8355 8.8252C13.2802 8.50467 12.6507 8.33529 12.0096 8.334L12.0087 8.33396Z" fill="#FAFAFA"/>
</svg>
