<svg width="24" height="24" viewBox="0 0 24 24" fill="none" xmlns="http://www.w3.org/2000/svg">
<g clip-path="url(#clip0_24002_38245)">
<path d="M7.89812 9.4428C7.54866 8.71465 7.39286 7.90825 7.44584 7.1019C7.49883 6.29554 7.75879 5.51662 8.20051 4.84075C8.64223 4.16487 9.25069 3.615 9.96682 3.24451C10.683 2.87403 11.4824 2.69551 12.2877 2.72629C13.0929 2.75707 13.8765 2.9961 14.5625 3.42018C15.2484 3.84426 15.8134 4.43898 16.2025 5.14662C16.5916 5.85425 16.7917 6.65076 16.7833 7.45881C16.775 8.26687 16.5584 9.05904 16.1547 9.7584L12.383 16.32L13.5138 18.2844L17.8551 10.7436C18.7119 9.21728 18.9338 7.41363 18.4727 5.72421C18.0115 4.03479 16.9044 2.59597 15.3919 1.72013C13.8793 0.844292 12.0832 0.602121 10.3937 1.04619C8.70413 1.49027 7.25743 2.58474 6.36767 4.092C5.89513 4.90178 5.60089 5.80359 5.50471 6.73686C5.40853 7.67013 5.51264 8.61323 5.81005 9.5028C6.11252 9.46484 6.41703 9.4456 6.72186 9.4452L7.89812 9.4428Z" fill="url(#paint0_linear_24002_38245)"/>
<path d="M23.1128 13.2588C22.6441 12.4335 22.0026 11.7198 21.2325 11.167C20.4624 10.6141 19.582 10.235 18.6519 10.056C18.5338 10.339 18.3984 10.6143 18.2462 10.8804L17.6551 11.9064C18.4619 11.9561 19.242 12.2148 19.9193 12.6571C20.5966 13.0995 21.1479 13.7104 21.5194 14.4303C21.8909 15.1501 22.07 15.9543 22.039 16.7643C22.0081 17.5743 21.7682 18.3623 21.3428 19.0516C20.9174 19.7408 20.3211 20.3076 19.612 20.6967C18.9029 21.0858 18.1054 21.2838 17.2972 21.2714C16.489 21.2591 15.6978 21.0367 15.0009 20.6261C14.304 20.2155 13.7252 19.6307 13.321 18.9288L9.55531 12.3888H7.29492L11.6242 19.9104C11.7731 20.1671 11.9382 20.414 12.1184 20.6496L12.1543 20.6964C12.7709 21.4923 13.5618 22.1353 14.4659 22.5756C15.37 23.0159 16.3629 23.2418 17.3679 23.2356V23.2356C18.5321 23.2355 19.6757 22.928 20.6839 22.3442C21.692 21.7604 22.5292 20.9208 23.1113 19.9098C23.6934 18.8987 23.9998 17.7518 23.9999 16.5843C24 15.4168 23.6936 14.2699 23.1116 13.2588H23.1128Z" fill="url(#paint1_linear_24002_38245)"/>
<path d="M10.6276 19.1592C10.1897 19.8276 9.58857 20.3726 8.88132 20.7422C8.17408 21.1117 7.38428 21.2936 6.58711 21.2705C5.78995 21.2474 5.01194 21.0201 4.32715 20.6102C3.64236 20.2003 3.07358 19.6215 2.67495 18.9288C2.26485 18.2162 2.04895 17.408 2.04894 16.5852C2.04894 15.7625 2.26482 14.9542 2.67491 14.2417C3.085 13.5291 3.67485 12.9373 4.38522 12.5257C5.09558 12.1141 5.90145 11.8972 6.72186 11.8968H14.2688L15.396 9.9336H6.72186C5.84341 9.92177 4.97137 10.0851 4.15638 10.414C3.34138 10.7429 2.59967 11.2309 1.9743 11.8497C1.34893 12.4685 0.852368 13.2057 0.513447 14.0185C0.174527 14.8313 0 15.7036 0 16.5846C0 17.4656 0.174527 18.3379 0.513447 19.1507C0.852368 19.9635 1.34893 20.7007 1.9743 21.3195C2.59967 21.9382 3.34138 22.4263 4.15638 22.7552C4.97137 23.0841 5.84341 23.2474 6.72186 23.2356C7.672 23.2412 8.612 23.0395 9.47671 22.6446C10.3414 22.2497 11.1101 21.6709 11.7296 20.9484C11.5361 20.6977 11.3594 20.4343 11.2007 20.16L10.6276 19.1592Z" fill="url(#paint2_linear_24002_38245)"/>
</g>
<defs>
<linearGradient id="paint0_linear_24002_38245" x1="7.82034" y1="1.8012" x2="17.5374" y2="13.6554" gradientUnits="userSpaceOnUse">
<stop stop-color="#B03B83"/>
<stop offset="0.56" stop-color="#E72E6C"/>
<stop offset="1" stop-color="#FFC400"/>
</linearGradient>
<linearGradient id="paint1_linear_24002_38245" x1="12.1232" y1="10.8828" x2="22.5956" y2="22.2016" gradientUnits="userSpaceOnUse">
<stop stop-color="#D83B83"/>
<stop offset="1" stop-color="#6F4A9E"/>
</linearGradient>
<linearGradient id="paint2_linear_24002_38245" x1="1.17082" y1="19.0536" x2="15.141" y2="12.8754" gradientUnits="userSpaceOnUse">
<stop stop-color="#9C2383"/>
<stop offset="1" stop-color="#E72E6C"/>
</linearGradient>
<clipPath id="clip0_24002_38245">
<rect width="24" height="24" fill="white"/>
</clipPath>
</defs>
</svg>
