<svg width="24" height="24" viewBox="0 0 24 24" fill="none" xmlns="http://www.w3.org/2000/svg">
<g clip-path="url(#clip0_15000_4332)">
<path d="M7.07153 3.48714L7.20508 3.6433L11.7842 6.28516L11.9894 6.32421L12.1693 6.31588L16.7695 3.65812L16.9 3.48706L13.0939 1.29741C12.4499 0.981225 11.4939 0.981534 10.8501 1.29772L7.07153 3.48714Z" fill="#C1EAE2"/>
<path d="M2.14465 16.379C2.19328 17.0935 2.67034 17.9203 3.26519 18.3198L7.07142 20.5101L7.15757 20.3055V15.0257L7.07142 14.8359L6.93826 14.6575L2.31317 11.9883L2.15507 11.9985L2.14465 16.379Z" fill="#A5E0D3"/>
<path d="M21.8009 16.379C21.752 17.0935 21.275 17.9203 20.6801 18.3198L16.8999 20.5101L16.808 20.3188V15.0641L16.8999 14.8359L17.0443 14.6667L21.6139 12.0267L21.8117 11.9985L21.8009 16.379Z" fill="#68BDAB"/>
<path d="M16.8999 3.48714L11.9894 6.32421L12.0398 6.55239L16.5902 9.18159L16.8999 9.16159L16.9786 8.92168V3.67657L16.8999 3.48714Z" fill="#F14831"/>
<path d="M20.6941 5.67604L16.9 3.487V9.16153L17.1639 9.11846L21.3959 6.67661L21.4617 6.52925C21.2615 6.18204 20.9924 5.87597 20.6941 5.67604Z" fill="#E92023"/>
<path d="M21.8116 11.9985L21.8168 7.61798C21.7925 7.26089 21.6618 6.87546 21.4619 6.52917L16.8998 9.16146L17.0019 9.33861L21.5966 11.9927L21.8116 11.9985Z" fill="#C13722"/>
<path d="M16.8999 9.16144L21.8117 11.9986L16.8999 14.8357L16.744 14.59V9.42505L16.8999 9.16144Z" fill="#A9371E"/>
<path d="M7.07153 14.8357L7.33731 14.8207L11.8381 17.4225L11.9894 17.6787L11.8679 17.8426L7.26035 20.4952L7.07153 20.51V14.8357Z" fill="#F25257"/>
<path d="M10.8683 22.7005C11.1897 22.858 11.5896 22.9377 11.9894 22.9377L12.0414 22.8045V17.818L11.9894 17.6787L7.07153 20.51L10.8683 22.7006V22.7005Z" fill="#F57590"/>
<path d="M11.9893 17.6788V22.9375C12.3891 22.9375 12.7878 22.8578 13.1096 22.7L16.8998 20.5101L16.8023 20.3765L12.149 17.6939L11.9893 17.6788Z" fill="#F15051"/>
<path d="M16.8999 14.8358L16.7439 14.731L12.117 17.4096L11.9894 17.6788L16.8999 20.51V14.8358Z" fill="#EC402C"/>
<path d="M7.07151 9.16153L7.25423 9.16825L11.8741 6.50308L11.9894 6.32438L7.07143 3.487L6.96815 3.60541L6.95557 8.91976L7.07151 9.16153Z" fill="#F36375"/>
<path d="M3.27851 5.67604L7.07162 3.487V9.16153L6.81171 9.16894L2.65625 6.76917L2.51306 6.52933C2.71322 6.18212 2.98023 5.87604 3.27858 5.67612" fill="#F25749"/>
<path d="M2.51311 6.52924C2.31318 6.8756 2.18488 7.26103 2.16057 7.61804L2.1554 11.9986L2.46726 11.9756L6.95294 9.387L7.07174 9.16152L2.51311 6.52924Z" fill="#F14926"/>
<path d="M7.07157 9.16156L2.15515 11.9986L7.07157 14.8358L7.19616 14.6284V9.46362L7.07157 9.16156Z" fill="#EF3844"/>
<path d="M11.9892 11.9971L11.81 11.9917L7.23043 9.35105L7.07141 9.16162L11.9893 6.32416L12.0566 6.57056V11.8378L11.9892 11.9971Z" fill="#9B3940"/>
<path d="M7.07153 9.16156L11.9894 11.9971L11.8676 12.1743L7.29238 14.8078L7.07153 14.8358V9.16156Z" fill="#B62B22"/>
<path d="M11.9893 11.9971L12.0887 12.1839V17.4893L11.9894 17.6788L7.07141 14.8357L11.9893 11.9971Z" fill="#842921"/>
<path d="M11.9893 17.6787L16.8998 14.8358L16.7799 14.6624L12.2425 12.0396L11.9893 11.9972V17.6787Z" fill="#A01F20"/>
<path d="M16.8999 9.16144L16.5486 9.21377L12.0813 11.7934L11.9894 11.997L16.8999 14.8357V9.16144Z" fill="#7D2629"/>
<path d="M11.9893 11.9971L16.8998 9.16162L11.9893 6.32416L11.9893 11.9971Z" fill="#7C253B"/>
<path d="M11.9892 8.45203L8.91663 10.2253V13.772L11.9894 15.5455L15.0606 13.772V10.2253L11.9892 8.45218V8.45203Z" fill="#B6E6DB"/>
<path d="M11.9893 11.9971L8.91663 10.2252V13.7719L11.9894 15.5458L12.1238 15.2886V12.2127L11.9893 11.9971Z" fill="#A5E0D3"/>
<path d="M11.9893 11.9971L15.0605 10.2252V13.7719L11.9893 15.5458V11.9972L11.9893 11.9971Z" fill="#68BDAB"/>
</g>
<defs>
<clipPath id="clip0_15000_4332">
<rect width="19.7648" height="22" fill="white" transform="translate(2.12 1)"/>
</clipPath>
</defs>
</svg>
