<svg width="24" height="24" viewBox="0 0 24 24" fill="none" xmlns="http://www.w3.org/2000/svg">
<g clip-path="url(#clip0_12171_1718)">
<path d="M3.4482 21.7893C3.07164 21.7893 2.96216 21.57 2.96216 21.2415C2.96216 21.132 2.97591 21.0085 2.99284 20.8784C3.07533 20.3103 3.27671 19.9853 3.76274 19.9853C4.09147 19.9853 4.25175 20.1323 4.25175 20.3993V20.5295H4.57787C4.58149 20.5295 4.58149 20.4097 4.58149 20.3824C4.58149 19.9922 4.34524 19.6222 3.76325 19.6222C2.97243 19.6222 2.64725 20.0518 2.52742 20.894C2.51028 21.007 2.5 21.1125 2.5 21.2251C2.5 21.7215 2.6953 22.173 3.39357 22.173C3.9241 22.173 4.23923 21.9143 4.42396 21.5959L4.11238 21.3861C3.9105 21.7045 3.69125 21.7893 3.4482 21.7893ZM5.58786 20.2214C4.95443 20.2214 4.68077 20.5464 4.58836 21.1933C4.57752 21.2682 4.57171 21.3437 4.571 21.4194C4.571 21.8369 4.76615 22.1692 5.30689 22.1692C5.94033 22.1692 6.21768 21.8302 6.31008 21.1933C6.32036 21.1113 6.32723 21.0359 6.32723 20.9607C6.32738 20.5363 6.12549 20.2214 5.58786 20.2214ZM5.85147 21.1935C5.78294 21.6627 5.63591 21.8064 5.35841 21.8064C5.13605 21.8064 5.02657 21.714 5.02657 21.4367C5.02657 21.3682 5.03352 21.2861 5.04712 21.1935C5.11565 20.7281 5.25255 20.5843 5.53323 20.5843C5.75921 20.5843 5.87202 20.6767 5.87202 20.9574C5.87202 21.0258 5.86507 21.1046 5.85147 21.1935ZM7.9195 19.6562L7.81349 20.2846C7.80669 20.3393 7.81016 20.3211 7.83086 20.3725C7.73158 20.2972 7.55343 20.2474 7.43361 20.2474C6.8653 20.2474 6.54706 20.5047 6.44445 21.2236C6.43247 21.2995 6.42674 21.3762 6.42731 21.453C6.42731 21.977 6.73534 22.1723 7.14945 22.1723C7.32427 22.1723 7.49533 22.1759 7.62869 22.0631L7.66277 22.276H7.9915L8.37486 19.6562H7.9195ZM7.59432 21.707C7.44041 21.7992 7.2899 21.82 7.1975 21.82C6.94757 21.82 6.87912 21.6899 6.87912 21.4812C6.87912 21.4024 6.88939 21.3102 6.90321 21.2106C6.9818 20.6664 7.15647 20.5704 7.38245 20.5704C7.52948 20.5704 7.64236 20.5945 7.74873 20.6528L7.59432 21.707ZM9.37457 20.2214C8.74794 20.2214 8.4538 20.519 8.35438 21.1933C8.34396 21.2756 8.33709 21.3544 8.33709 21.4297C8.33709 21.8918 8.57341 22.1692 9.09353 22.1692C9.49751 22.1692 9.79904 22.0013 9.95982 21.6932L9.61401 21.5528C9.51488 21.7033 9.38138 21.8061 9.14512 21.8061C8.89187 21.8061 8.78912 21.7379 8.78912 21.5119C8.78912 21.4674 8.79259 21.4026 8.79946 21.4026H10.0351C10.0524 21.2279 10.0727 21.1045 10.0727 21.0021C10.0727 20.66 9.94274 20.2213 9.37457 20.2213V20.2214ZM9.61068 21.0535H8.85757C8.93304 20.8788 9.05945 20.6084 9.31973 20.6084C9.52161 20.6084 9.62103 20.7265 9.62103 20.9284C9.62081 20.9626 9.6177 21.0535 9.61068 21.0535ZM11.3901 20.1802L11.4311 19.8309H10.4656L10.4247 20.1802H10.678L10.4043 21.9267H10.1507L10.1099 22.276H11.0752L11.1164 21.9267H10.8629L11.1367 20.1802H11.3901ZM13.3517 20.7041L13.4751 20.3548H13.1431L12.9036 20.4043C12.77 20.3189 12.5886 20.2548 12.4176 20.2548C11.9278 20.2548 11.5104 20.4912 11.5104 21.0288C11.5104 21.1796 11.5651 21.3013 11.63 21.3836C11.5276 21.4382 11.4385 21.5297 11.4385 21.6532C11.4385 21.7079 11.4589 21.7639 11.5001 21.8151C11.2946 21.9386 11.1683 22.1431 11.1683 22.3826C11.1683 22.8449 11.6509 22.9436 12.0205 22.9436C12.486 22.9436 13.0407 22.8372 13.0407 22.2449C13.0407 22.043 12.9141 21.8853 12.5478 21.8169L11.8872 21.6934C11.8119 21.6796 11.7948 21.6556 11.7948 21.6214C11.7948 21.57 11.8259 21.5428 11.877 21.5428L11.9216 21.5496C12.0106 21.5701 12.1133 21.5805 12.2193 21.5805C12.6953 21.5805 13.1197 21.375 13.1197 20.841C13.1197 20.7656 13.1061 20.7146 13.0718 20.6323C13.13 20.6598 13.2054 20.7043 13.236 20.7043H13.3517V20.7041ZM12.4106 22.1211C12.5405 22.1452 12.5849 22.193 12.5849 22.2786C12.5849 22.556 12.2871 22.5902 12.0716 22.5902C11.7429 22.5902 11.6197 22.5116 11.6197 22.3368C11.6197 22.1827 11.6641 22.111 11.767 22.0013L12.4106 22.1211ZM12.27 21.2244C12.0714 21.2244 11.9619 21.1527 11.9619 20.9813C11.9619 20.7281 12.1091 20.5808 12.3658 20.5808C12.5713 20.5808 12.6706 20.6664 12.6706 20.8339C12.6706 21.0873 12.5267 21.2244 12.27 21.2244ZM14.5679 20.2214C14.3761 20.2214 14.2051 20.3155 13.9928 20.483L13.962 20.3548H13.5853L13.3218 22.276H13.7771L13.9757 20.8191C14.1093 20.737 14.2734 20.6177 14.4138 20.6177C14.5849 20.6177 14.6467 20.7003 14.6467 20.8577C14.6467 20.8954 14.6431 21.007 14.6362 21.048L14.4687 22.276H14.924L15.0915 21.038C15.0985 20.9802 15.1053 20.8847 15.1053 20.8301C15.1055 20.5045 14.9512 20.2214 14.5679 20.2214ZM15.9702 21.7947L15.9737 21.7477L16.1721 20.3548H15.4155L15.3678 20.7041H15.6997C15.6722 20.7041 15.6552 20.7347 15.6518 20.7623L15.5148 21.6899C15.508 21.7346 15.5047 21.8275 15.5047 21.8649C15.5047 22.1045 15.6347 22.276 15.9015 22.276H16.1344L16.1858 21.9267H16.0387C15.9871 21.9267 15.9702 21.8357 15.9702 21.7947ZM16.2645 19.6562H15.8195C15.7921 19.6562 15.7921 19.5554 15.7887 19.5896L15.7269 20.0818C15.7234 20.1128 15.7234 20.1802 15.7508 20.1802H16.196C16.2235 20.1802 16.2235 20.0605 16.2268 20.0294L16.2886 19.6495C16.2921 19.6153 16.2921 19.6562 16.2645 19.6562ZM17.1929 21.8064C17.0801 21.8064 17.0253 21.7584 17.0253 21.6558L17.0287 21.6488L17.1725 20.7041H17.6928L17.8502 20.3548H17.2204L17.3264 19.5862L16.8473 19.7393L16.7616 20.3548H16.4844L16.4366 20.7041H16.7583C16.7275 20.8788 16.6966 20.7655 16.6933 20.7998L16.57 21.6282C16.5632 21.666 16.5632 21.6933 16.5632 21.7274C16.5632 22.0527 16.8028 22.1744 17.0906 22.1744C17.3575 22.1744 17.5732 22.0964 17.7411 21.9559L17.5287 21.6946C17.4223 21.7595 17.3505 21.8064 17.1929 21.8064ZM18.8635 20.2214C18.2371 20.2214 17.9427 20.519 17.8434 21.1933C17.8331 21.2756 17.8262 21.3544 17.8262 21.4297C17.8262 21.8918 18.0624 22.1692 18.5827 22.1692C18.9867 22.1692 19.2882 22.0013 19.4488 21.6932L19.1031 21.5528C19.004 21.7033 18.8704 21.8061 18.634 21.8061C18.3809 21.8061 18.278 21.7379 18.278 21.5119C18.278 21.4674 18.2817 21.4026 18.2886 21.4026H19.5243C19.5414 21.2279 19.5619 21.1045 19.5619 21.0021C19.5619 20.66 19.4319 20.2213 18.8635 20.2213V20.2214ZM19.0998 21.0535H18.3467C18.422 20.8788 18.5484 20.6084 18.8089 20.6084C19.0107 20.6084 19.1102 20.7265 19.1102 20.9284C19.1099 20.9626 19.1066 21.0535 19.0998 21.0535ZM20.8218 20.2213C20.6574 20.2213 20.5034 20.3155 20.3492 20.4624L20.3219 20.3548H19.9455L19.6818 22.276H20.1406L20.3424 20.7883C20.4623 20.7166 20.5993 20.6553 20.7294 20.6553C20.8116 20.6553 20.8902 20.6422 20.9655 20.6524L21.024 20.2555C20.9552 20.2418 20.8867 20.2214 20.8218 20.2214V20.2213ZM9.19614 18.2801C8.15995 17.8322 7.19033 16.6939 7.18802 15.5291C7.1852 14.2592 7.98998 13.181 8.99093 12.4725C8.87059 12.9271 8.80496 13.343 9.10308 13.7496C9.38022 14.1277 9.86561 14.3114 10.3239 14.2117C11.3948 13.9773 11.444 12.8 10.8091 12.1141C10.1814 11.4349 9.57414 10.6676 9.81307 9.68262C9.93268 9.18884 10.2359 8.72632 10.62 8.39571C10.3247 9.17154 11.1637 9.93667 11.7164 10.3178C12.6752 10.979 13.7273 11.4787 14.6089 12.2538C15.5363 13.0685 16.2211 14.1699 16.0828 15.4474C15.9329 16.8321 14.8326 17.7951 13.5985 18.2813C16.2065 17.7057 18.9012 15.6816 18.9564 12.7892C19.0021 10.4097 17.3698 8.57841 15.3477 7.53L15.2421 7.47233C15.2976 7.60699 15.3157 7.72153 15.3136 7.82407C15.3324 7.7475 15.3437 7.6693 15.3475 7.59056C15.347 7.68581 15.3345 7.78062 15.3104 7.87277L15.3136 7.82407C15.2836 7.9504 15.233 8.07094 15.1639 8.18087L15.1936 8.14896C14.7902 8.81807 13.698 8.96337 13.1585 8.27052C12.2912 7.15605 13.1767 5.95445 13.3006 4.77426C13.4556 3.29517 12.5281 1.85927 11.378 1C12.0114 2.02468 11.1769 3.38033 10.5092 4.13823C9.86184 4.87289 9.0745 5.48628 8.35981 6.1538C7.59207 6.87073 6.85401 7.62595 6.22296 8.46741C4.96087 10.1517 4.18822 12.2699 4.75602 14.3711C5.32346 16.4708 7.14229 17.8074 9.19621 18.2801L9.19614 18.2801Z" fill="#EE4323"/>
</g>
<defs>
<clipPath id="clip0_12171_1718">
<rect width="19" height="22" fill="white" transform="translate(2.5 1)"/>
</clipPath>
</defs>
</svg>
