<svg width="24" height="24" viewBox="0 0 24 24" fill="none" xmlns="http://www.w3.org/2000/svg">
<g clip-path="url(#clip0_15000_4415)">
<path opacity="0.35" d="M18.4394 19.9293C17.3505 19.9293 16.2617 19.5018 15.4356 18.7244L5.26018 8.92933C3.94601 7.64664 3.49544 5.66431 4.13375 3.91519C4.80961 2.16608 6.42416 1 8.264 1H18.477C20.9176 1 22.8701 3.06007 22.8701 5.5477V15.3428C22.8701 17.1696 21.8187 18.8021 20.2417 19.5406C19.641 19.7739 19.0402 19.9293 18.4394 19.9293Z" fill="#7960ED"/>
<path d="M13.0326 23C11.8686 23 10.7422 22.5336 9.91612 21.6785L2.66942 14.2156C1.58053 13.0495 1.12996 11.417 1.54299 9.86222C1.91846 8.30745 3.08244 7.06363 4.5468 6.5972L14.8349 3.40992C16.3743 2.94349 18.064 3.37105 19.228 4.53713C20.3919 5.74208 20.805 7.45233 20.3168 9.08483L17.2379 19.735C16.7874 21.2898 15.5858 22.4559 14.0839 22.8446C13.746 22.9612 13.3705 23 13.0326 23Z" fill="#7960ED"/>
</g>
<defs>
<clipPath id="clip0_15000_4415">
<rect width="22" height="22" fill="white" transform="translate(1 1)"/>
</clipPath>
</defs>
</svg>
