<svg width="24" height="24" viewBox="0 0 24 24" fill="none" xmlns="http://www.w3.org/2000/svg">
<path opacity="0.35" d="M17.8998 23C17.2297 23.0003 16.5661 22.8684 15.947 22.612C15.3279 22.3556 14.7654 21.9796 14.2918 21.5057L2.49426 9.70772C1.78095 8.99429 1.29521 8.08538 1.09845 7.0959C0.901688 6.10642 1.00275 5.08082 1.38886 4.14878C1.77496 3.21674 2.42877 2.42011 3.26761 1.85964C4.10644 1.29916 5.09264 1.00001 6.10149 1L17.8986 1C20.7161 1 23.0001 3.28338 23.0001 6.10103V17.8986C23.0004 18.5686 22.8686 19.2319 22.6124 19.8509C22.3562 20.4699 21.9805 21.0323 21.5069 21.5061C21.0332 21.9798 20.4709 22.3556 19.852 22.6119C19.233 22.8682 18.5697 23.0001 17.8998 23Z" fill="#16D570"/>
<path d="M6.10135 23.0002C5.43139 23.001 4.76786 22.8695 4.14883 22.6133C3.52981 22.357 2.96748 21.9811 2.49412 21.507C0.502236 19.5145 0.501686 16.2837 2.49412 14.2925L14.2912 2.49455C16.2836 0.502118 19.5132 0.503548 21.5057 2.49334C23.4975 4.48588 23.4981 7.71658 21.5057 9.70791L9.70858 21.5055C9.23545 21.9801 8.6732 22.3564 8.05415 22.6129C7.43509 22.8694 6.77144 23.001 6.10135 23.0002Z" fill="#16D570"/>
</svg>
