<svg width="24" height="24" viewBox="0 0 24 24" fill="none" xmlns="http://www.w3.org/2000/svg">
<circle cx="12" cy="12" r="10.5" fill="#458AE0" stroke="#458AE0"/>
<path d="M9.11754 6.99906C10.0575 6.4564 10.984 6.16423 11.897 6.12257C12.8136 6.06755 13.658 6.26875 14.4302 6.72618C15.2059 7.17024 15.8529 7.84107 16.3711 8.73866C16.8894 9.63625 17.1444 10.5277 17.1362 11.4131C17.1365 12.2936 16.8836 13.117 16.3777 13.8833C15.8753 14.6363 15.1541 15.2841 14.2142 15.8267L11.3309 17.4914L6.23425 8.66373L9.11754 6.99906ZM13.5322 14.6455C14.5653 14.049 15.1957 13.3125 15.4234 12.4358C15.6512 11.5592 15.4717 10.6128 14.885 9.59666C14.2935 8.57206 13.5563 7.93074 12.6734 7.6727C11.7906 7.41467 10.8326 7.58388 9.79954 8.18032L8.36425 9.00899L12.0969 15.4742L13.5322 14.6455Z" fill="white"/>
</svg>
