<svg width="50" height="50" viewBox="0 0 50 50" fill="none" xmlns="http://www.w3.org/2000/svg">
<path d="M26.425 25.45C28.5789 25.45 30.325 23.7039 30.325 21.55C30.325 19.3961 28.5789 17.65 26.425 17.65C24.2711 17.65 22.525 19.3961 22.525 21.55C22.525 23.7039 24.2711 25.45 26.425 25.45Z" fill="#EF9122"/>
<path d="M22.525 21.55C22.525 19.375 24.25 17.65 26.425 17.65C28.6 17.65 30.325 19.375 30.325 21.55C30.325 23.725 28.6 25.45 26.425 25.45" fill="#F26E21"/>
<path d="M23.725 18.775C25.225 17.275 27.7 17.275 29.2 18.775C30.7 20.275 30.7 22.75 29.2 24.25" fill="#F44500"/>
<path d="M3.85 17.875H1.75V25.225H3.85C4.975 25.225 5.8 24.925 6.475 24.4C7.3 23.725 7.825 22.675 7.825 21.55C7.825 19.375 6.25 17.875 3.85 17.875ZM5.575 23.425C5.125 23.8 4.525 24.025 3.625 24.025H3.175V19.15H3.55C4.45 19.15 5.05 19.3 5.5 19.75C6.025 20.2 6.325 20.875 6.325 21.55C6.4 22.225 6.1 22.975 5.575 23.425ZM8.5 17.875H9.925V25.225H8.5V17.875ZM13.525 20.725C12.625 20.425 12.4 20.2 12.4 19.825C12.4 19.375 12.85 19 13.45 19C13.9 19 14.275 19.15 14.65 19.6L15.4 18.625C14.8 18.1 14.05 17.8 13.225 17.8C11.95 17.8 10.9 18.7 10.9 19.9C10.9 20.95 11.35 21.4 12.7 21.925C13.3 22.15 13.525 22.225 13.675 22.375C13.975 22.525 14.125 22.825 14.125 23.125C14.125 23.725 13.675 24.175 13 24.175C12.325 24.175 11.725 23.8 11.425 23.2L10.525 24.1C11.2 25.075 12.025 25.525 13.075 25.525C14.575 25.525 15.625 24.55 15.625 23.125C15.625 21.85 15.175 21.325 13.525 20.725Z" fill="#595A5B"/>
<path d="M16.075 21.55C16.075 23.725 17.8 25.375 19.975 25.375C20.575 25.375 21.1 25.225 21.775 24.925V23.2C21.175 23.8 20.65 24.025 20.05 24.025C18.625 24.025 17.575 22.975 17.575 21.475C17.575 20.05 18.625 18.925 19.975 18.925C20.65 18.925 21.175 19.15 21.775 19.75V18.025C21.175 17.725 20.65 17.575 19.975 17.575C17.875 17.725 16.075 19.45 16.075 21.55Z" fill="#3B3D3F"/>
<path d="M33.55 22.825L31.6 17.875H30.025L33.1 25.45H33.925L37.15 17.875H35.575L33.55 22.825ZM37.75 25.225H41.875V24.025H39.25V22H41.8V20.725H39.25V19.15H41.875V17.875H37.75V25.225Z" fill="black"/>
<path d="M45.925 22.15C47.05 21.925 47.65 21.175 47.65 20.05C47.65 18.7 46.675 17.875 45.025 17.875H42.85V25.225H44.275V22.3H44.5L46.525 25.225H48.25L45.925 22.15ZM44.725 21.25H44.275V19H44.725C45.625 19 46.15 19.375 46.15 20.125C46.15 20.875 45.625 21.25 44.725 21.25ZM3.85 17.875H1.75V25.225H3.85C4.975 25.225 5.8 24.925 6.475 24.4C7.3 23.725 7.825 22.675 7.825 21.55C7.825 19.375 6.25 17.875 3.85 17.875ZM5.575 23.425C5.125 23.8 4.525 24.025 3.625 24.025H3.175V19.15H3.55C4.45 19.15 5.05 19.3 5.5 19.75C6.025 20.2 6.325 20.875 6.325 21.55C6.4 22.225 6.1 22.975 5.575 23.425ZM8.5 17.875H9.925V25.225H8.5V17.875ZM13.525 20.725C12.625 20.425 12.4 20.2 12.4 19.825C12.4 19.375 12.85 19 13.45 19C13.9 19 14.275 19.15 14.65 19.6L15.4 18.625C14.8 18.1 14.05 17.8 13.225 17.8C11.95 17.8 10.9 18.7 10.9 19.9C10.9 20.95 11.35 21.4 12.7 21.925C13.3 22.15 13.525 22.225 13.675 22.375C13.975 22.525 14.125 22.825 14.125 23.125C14.125 23.725 13.675 24.175 13 24.175C12.325 24.175 11.725 23.8 11.425 23.2L10.525 24.1C11.2 25.075 12.025 25.525 13.075 25.525C14.575 25.525 15.625 24.55 15.625 23.125C15.625 21.85 15.175 21.325 13.525 20.725ZM20.05 25.375C20.65 25.375 21.175 25.225 21.85 24.925V23.2C21.25 23.8 20.725 24.025 20.125 24.025C18.7 24.025 17.65 22.975 17.65 21.475C17.65 20.725 17.95 20.125 18.4 19.6L17.425 18.625C16.675 19.3 16.15 20.35 16.15 21.475C16.075 23.725 17.8 25.375 20.05 25.375Z" fill="#595A5B"/>
<path d="M45.925 22.15C47.05 21.925 47.65 21.175 47.65 20.05C47.65 18.7 46.675 17.875 45.025 17.875H42.85V25.225H44.275V22.3H44.5L46.525 25.225H48.25L45.925 22.15ZM44.725 21.25H44.275V19H44.725C45.625 19 46.15 19.375 46.15 20.125C46.15 20.875 45.625 21.25 44.725 21.25Z" fill="black"/>
<path d="M12.325 32.05V27.925L15.175 30.85V28.15H15.775V32.275L12.925 29.35V32.05H12.325ZM18.775 28.75H17.2V29.65H18.7V30.25H17.2V31.525H18.775V32.05H16.6V28.15H18.775V28.75ZM20.65 28.75V32.05H20.05V28.75H19.15V28.225H21.55V28.75H20.65ZM22.45 28.225L23.425 30.85L24.475 28.075L25.4499 30.85L26.5 28.225H27.25L25.525 32.35L24.55 29.575L23.5 32.35L21.85 28.225H22.45ZM27.3249 30.1C27.3312 29.5649 27.5465 29.0535 27.9249 28.675C28.3034 28.2966 28.8148 28.0813 29.35 28.075C29.8851 28.0813 30.3965 28.2966 30.775 28.675C31.1534 29.0535 31.3687 29.5649 31.375 30.1C31.3687 30.6352 31.1534 31.1466 30.775 31.525C30.3965 31.9035 29.8851 32.1188 29.35 32.125C28.825 32.125 28.375 31.975 28 31.6C27.55 31.225 27.3249 30.775 27.3249 30.1ZM27.925 30.1C27.925 30.55 28.075 30.85 28.375 31.15C28.675 31.45 28.975 31.6 29.35 31.6C29.725 31.6 30.1 31.45 30.4 31.15C30.7 30.85 30.85 30.55 30.85 30.1C30.85 29.65 30.7 29.35 30.4 29.05C30.1 28.75 29.7999 28.6 29.35 28.6C28.975 28.6 28.6 28.75 28.3 29.05C28.075 29.35 27.925 29.725 27.925 30.1ZM33.475 30.4L34.675 32.05H33.925L32.8 30.475H32.725V32.05H32.125V28.15H32.8C33.325 28.15 33.7 28.225 33.925 28.45C34.15 28.675 34.3 28.975 34.3 29.275C34.3 29.575 34.2249 29.8 34.0749 29.95C33.9249 30.25 33.7 30.4 33.475 30.4ZM32.725 29.95H32.875C33.4 29.95 33.6999 29.725 33.6999 29.35C33.6999 28.975 33.4 28.75 32.875 28.75H32.65V29.95H32.725ZM35.8 29.725L37.3 28.15H38.05L36.3249 29.875L38.05 31.975H37.3L35.875 30.25L35.725 30.4V31.975H35.125V28.075H35.725V29.725H35.8Z" fill="#F26E21"/>
<path d="M40.6 24.025H39.25V22.675L37.75 21.175V25.225H41.8L40.6 24.025ZM35.2 18.625L33.55 22.825L31.6 17.875H30.025L33.1 25.45H33.925L36.325 19.75L35.2 18.625Z" fill="#3B3D3F"/>
</svg>
