<svg width="24" height="24" viewBox="0 0 24 24" fill="none" xmlns="http://www.w3.org/2000/svg">
<g clip-path="url(#clip0_15000_4396)">
<path d="M19.3578 1.00153H4.64151C3.40045 1.00153 2.39001 2.01189 2.39001 3.26391V18.1121C2.39001 19.3641 3.40037 20.3745 4.64144 20.3745H17.0955L16.5133 18.3427L17.9191 19.6496L19.248 20.8797L21.6092 22.9663V3.26391C21.6092 2.01189 20.5989 1.00153 19.3578 1.00153ZM15.1186 15.3446C15.1186 15.3446 14.7233 14.8723 14.3938 14.455C15.8325 14.0486 16.3816 13.1481 16.3816 13.1481C15.9313 13.4446 15.503 13.6533 15.1186 13.796C14.5695 14.0267 14.0423 14.1803 13.5262 14.2683C12.4718 14.4659 11.5054 14.411 10.6817 14.2573C10.0557 14.1364 9.51756 13.9607 9.06734 13.7851C8.81471 13.6862 8.54016 13.5654 8.26553 13.4116C8.23265 13.3897 8.19969 13.3787 8.16674 13.3567C8.14481 13.3457 8.13378 13.3348 8.12282 13.3238C7.92514 13.214 7.81531 13.1371 7.81531 13.1371C7.81531 13.1371 8.34249 14.0157 9.73723 14.433C9.4078 14.8504 9.00142 15.3445 9.00142 15.3445C6.57424 15.2677 5.6518 13.6752 5.6518 13.6752C5.6518 10.1389 7.23325 7.27247 7.23325 7.27247C8.81471 6.08636 10.3193 6.11931 10.3193 6.11931L10.4291 6.25115C8.45232 6.82209 7.54076 7.68981 7.54076 7.68981C7.54076 7.68981 7.78235 7.55805 8.18866 7.37134C9.36381 6.85512 10.2974 6.71241 10.6817 6.67945C10.7476 6.66841 10.8025 6.65745 10.8685 6.65745C11.6044 6.56158 12.3492 6.55422 13.0869 6.63553C14.1302 6.75632 15.2504 7.06383 16.3926 7.68981C16.3926 7.68981 15.525 6.86616 13.6579 6.29506L13.8117 6.11939C13.8117 6.11939 15.3163 6.08636 16.8977 7.27254C16.8977 7.27254 18.4793 10.1389 18.4793 13.6752C18.4793 13.6752 17.5457 15.2677 15.1186 15.3445V15.3446ZM10.0118 10.2158C9.3858 10.2158 8.89166 10.7649 8.89166 11.4348C8.89166 12.1047 9.39676 12.6538 10.0118 12.6538C10.6378 12.6538 11.132 12.1047 11.132 11.4348C11.143 10.7649 10.6378 10.2158 10.0118 10.2158ZM14.0204 10.2158C13.3944 10.2158 12.9001 10.7649 12.9001 11.4348C12.9001 12.1047 13.4054 12.6538 14.0204 12.6538C14.6464 12.6538 15.1405 12.1047 15.1405 11.4348C15.1405 10.7649 14.6464 10.2158 14.0204 10.2158Z" fill="#7289DA"/>
</g>
<defs>
<clipPath id="clip0_15000_4396">
<rect width="19.2192" height="22" fill="white" transform="translate(2.39001 1)"/>
</clipPath>
</defs>
</svg>
