<svg width="24" height="24" viewBox="0 0 24 24" fill="none" xmlns="http://www.w3.org/2000/svg">
<path d="M19.778 4.22234C17.7004 2.14426 14.9378 1.00012 11.9998 1.00012C9.06129 1.00012 6.29915 2.14426 4.22107 4.22234C2.45521 5.9882 1.33423 8.32499 1.06434 10.803C0.809149 13.1456 1.31821 15.5296 2.49973 17.5507L1.3534 21.8288C1.29148 22.0595 1.35739 22.3054 1.52618 22.4741C1.69496 22.6429 1.94083 22.7088 2.17149 22.647L6.44963 21.5006C8.12955 22.4826 10.0611 23.0001 12.0109 23.0001C12.4059 23.0001 12.8023 22.9787 13.1973 22.936C15.6753 22.6661 18.0122 21.5451 19.778 19.7792C21.8561 17.7012 23.0002 14.9391 23.0002 12.0006C23.0002 9.06251 21.8561 6.29994 19.778 4.22234Z" fill="#6EE1FF"/>
<path d="M12.6221 1.01801V22.9829C12.8139 22.9722 13.0058 22.9568 13.1973 22.936C15.6753 22.6661 18.0121 21.5452 19.778 19.7793C21.8561 17.7012 23.0002 14.9391 23.0002 12.0006C23.0002 9.06252 21.856 6.29995 19.778 4.22235C17.8478 2.2917 15.3262 1.16788 12.6221 1.01801Z" fill="#05CDFF"/>
<path d="M12.1849 5.77206H7.72419C7.35543 5.77206 7.05615 6.07134 7.05615 6.44011V17.5604C7.05615 17.9295 7.35543 18.2284 7.72419 18.2284H12.185C15.6196 18.2284 18.4133 15.4346 18.4133 12.0004C18.4133 8.56583 15.6196 5.77206 12.1849 5.77206ZM11.2439 9.95937H12.185C13.3104 9.95937 14.226 10.875 14.226 12.0004C14.226 13.1254 13.3104 14.0411 12.185 14.0411H11.2439V9.95937Z" fill="white"/>
<path d="M12.6221 5.78763V10.007C13.538 10.2078 14.2259 11.0251 14.2259 12.0005C14.2259 12.9754 13.538 13.7927 12.6221 13.9935V18.2129C15.8534 17.9877 18.4132 15.2877 18.4132 12.0005C18.4132 8.71284 15.8534 6.01279 12.6221 5.78763Z" fill="#DCE1EB"/>
</svg>
