<svg width="24" height="24" viewBox="0 0 24 24" fill="none" xmlns="http://www.w3.org/2000/svg">
<path d="M12.9473 23H11.181C11.1393 23 11.0982 22.993 11.057 22.9864C10.7229 22.9804 10.3843 23.0045 10.0542 22.9624C9.4097 22.88 8.93875 22.3294 8.91396 21.6698C8.8981 21.2682 8.88521 20.8621 8.88471 20.4586C8.88273 17.6877 8.88273 14.9167 8.88471 12.1456C8.88471 11.9016 8.88471 11.9046 8.64725 11.8986C7.9431 11.8755 7.25196 11.7003 6.62018 11.3846C5.87774 11.0247 5.22016 10.5077 4.69176 9.86867C4.19795 9.27786 3.81596 8.59992 3.56495 7.86885C3.43259 7.48636 3.34187 7.08981 3.23379 6.69928C3.22333 6.64617 3.21555 6.59256 3.2105 6.53865C3.37954 6.68924 3.51587 6.81373 3.65666 6.93219C4.11423 7.30916 4.64169 7.53454 5.20832 7.68915C6.08974 7.92758 6.98851 7.89445 7.8853 7.89295C9.49249 7.89094 11.0998 7.89094 12.7073 7.89295C12.7466 7.89563 12.7857 7.90083 12.8243 7.90851V18.9768C13.0722 18.9768 13.3072 18.9963 13.5387 18.9728C14.0809 18.9249 14.6153 18.8103 15.13 18.6314C15.8884 18.3639 16.5836 17.9396 17.1715 17.3856C17.8408 16.7543 18.3552 15.9734 18.6736 15.1051C18.978 14.2897 19.1226 13.4221 19.0994 12.5507C19.0711 11.1778 18.6954 9.91786 17.9017 8.79748C17.5442 8.30445 17.1124 7.87133 16.6222 7.51396C15.7884 6.88752 14.846 6.57178 13.8396 6.41818C13.5235 6.37304 13.2046 6.35089 12.8853 6.35192C10.8999 6.3459 8.91396 6.34088 6.92853 6.35192C5.90433 6.35744 4.96293 6.08136 4.08646 5.56635C2.79755 4.80839 1.91513 3.69905 1.39312 2.29506C1.23895 1.88697 1.13732 1.4598 1 1C1.28555 1.15059 1.51953 1.28461 1.76046 1.40157C2.55364 1.78908 3.39293 2.01898 4.25105 2.19266C4.96888 2.33773 5.69365 2.36684 6.42337 2.36333C8.46119 2.3553 10.499 2.35262 12.5368 2.3553C13.3338 2.34831 14.13 2.41095 14.9164 2.54253C16.7506 2.8668 18.3895 3.61472 19.78 4.89021C21.0154 6.02263 21.8572 7.41006 22.4074 8.99224C22.6768 9.7502 22.853 10.5389 22.9319 11.3404C22.9943 11.9688 23.0153 12.6006 22.9949 13.2318C22.939 14.7129 22.5819 16.1665 21.9459 17.5015C21.4297 18.6043 20.7101 19.5969 19.8256 20.4259C18.7713 21.4114 17.5014 22.1301 16.12 22.5231C15.6255 22.6738 15.1217 22.7912 14.612 22.8745C14.1162 22.9483 13.6101 22.9438 13.1084 22.9749C13.0543 22.9805 13.0005 22.9889 12.9473 23Z" fill="#C12026"/>
</svg>
