<svg width="24" height="24" viewBox="0 0 24 24" fill="none" xmlns="http://www.w3.org/2000/svg">
<g clip-path="url(#clip0_12171_1711)">
<path d="M10.7454 1H14.3405V17.4776C12.499 17.8259 11.1434 17.9629 9.67662 17.9629C5.28569 17.9583 3 15.9967 3 12.2292C3 8.59918 5.42449 6.24332 9.18154 6.24332C9.76455 6.24332 10.2087 6.28921 10.7454 6.42666V1ZM10.8714 9.3961C10.4503 9.25858 10.1034 9.21276 9.65915 9.21276C7.84081 9.21276 6.79052 10.3219 6.79052 12.2657C6.79052 14.1582 7.79459 15.2031 9.63607 15.2031C10.0339 15.2031 10.3578 15.1807 10.8714 15.112V9.3961Z" fill="#2BA977"/>
<path d="M20.2194 6.68571V14.9358C20.2194 17.7769 20.0066 19.1432 19.382 20.3212C18.7989 21.4537 18.0309 22.1678 16.4439 22.9566L13.1079 21.3845C14.6949 20.647 15.463 19.9953 15.9535 19.0007C16.467 17.9837 16.6289 16.8057 16.6289 13.7074V6.68577H20.2194V6.68571ZM16.2666 1H19.8617V4.65293H16.2666V1Z" fill="#2BA977"/>
</g>
<defs>
<clipPath id="clip0_12171_1711">
<rect width="18" height="22" fill="white" transform="translate(3 1)"/>
</clipPath>
</defs>
</svg>
