<svg width="24" height="24" viewBox="0 0 24 24" fill="none" xmlns="http://www.w3.org/2000/svg">
<path d="M12 1.73132C17.6718 1.73132 22.2609 6.32577 22.2609 11.9957C22.2609 17.6656 17.6718 22.2687 12 22.2687C6.32808 22.2687 1.73901 17.6742 1.73901 12.0043C1.73901 6.33437 6.32808 1.73132 12 1.73132Z" fill="#E74D89"/>
<path d="M12 23C5.93281 23 1 18.07 1 12.0043C1 5.93 5.93281 1 12 1C18.0672 1 23 5.93 23 11.9957C23 18.0614 18.0672 23 12 23ZM21.2727 13.5014C20.9547 13.3981 18.368 12.6324 15.4203 13.097C16.6492 16.4697 17.1477 19.2229 17.2422 19.7908C19.3563 18.3711 20.8602 16.1169 21.2727 13.5014ZM15.6695 20.6598C15.532 19.8338 14.982 16.9601 13.6672 13.5358C13.65 13.5444 13.6242 13.553 13.607 13.553C8.30469 15.4028 6.40547 19.0767 6.23359 19.4208C7.82344 20.6598 9.82578 21.3997 12 21.3997C13.2977 21.4083 14.5437 21.1416 15.6695 20.6598ZM5.02187 18.2937C5.23672 17.9323 7.81484 13.6648 12.6617 12.0903C12.782 12.0473 12.9109 12.0129 13.0312 11.9785C12.7992 11.4451 12.5414 10.9116 12.2664 10.3868C7.57422 11.7892 3.01953 11.729 2.60703 11.7204C2.60703 11.815 2.59844 11.9097 2.59844 12.0043C2.60703 14.422 3.51797 16.6246 5.02187 18.2937ZM2.80469 10.0856C3.22578 10.0943 7.09297 10.1115 11.493 8.94134C9.9375 6.1709 8.25312 3.84787 8.0125 3.51232C5.37422 4.75127 3.41484 7.17755 2.80469 10.0856ZM9.8 2.87564C10.0578 3.21979 11.768 5.54282 13.3062 8.37348C16.6492 7.11732 18.0586 5.22448 18.2305 4.98357C16.5719 3.51232 14.3891 2.61752 12 2.61752C11.2437 2.61752 10.5047 2.71216 9.8 2.87564ZM19.2703 6.06766C19.0727 6.33438 17.5 8.35628 14.0281 9.77591C14.243 10.2233 14.4578 10.6793 14.6555 11.1353C14.7242 11.2988 14.793 11.4623 14.8617 11.6171C17.9898 11.2214 21.0922 11.858 21.4016 11.9183C21.3758 9.70708 20.5852 7.66797 19.2703 6.06766Z" fill="#B2215A"/>
</svg>
