<svg width="24" height="24" viewBox="0 0 24 24" fill="none" xmlns="http://www.w3.org/2000/svg">
<path fill-rule="evenodd" clip-rule="evenodd" d="M5.18824 1H18.8144C21.126 1 22.9992 2.87334 22.9992 5.1869V18.8131C22.9992 21.1246 21.126 23 18.8123 23H5.18824C2.87459 22.9979 1.00134 21.1246 1.00134 18.811V5.1869C1.00134 2.87325 2.87468 1 5.18824 1Z" fill="#50C800"/>
<path fill-rule="evenodd" clip-rule="evenodd" d="M23 15.2105V8.8475C22.7519 8.24403 22.3877 7.69514 21.9281 7.23197C21.9689 6.54881 21.8163 5.85711 21.4619 5.24055C21.2299 4.83667 20.6692 4.77868 20.3556 5.12669L19.6445 5.91509C19.6402 5.91298 19.6359 5.91298 19.6316 5.91087C19.724 5.1911 19.6015 4.44792 19.2492 3.78411C19.0301 3.37161 18.5554 3.29857 18.2288 3.63365L14.8131 7.09453C14.7745 7.13105 14.7336 7.16967 14.695 7.20839C14.6928 7.2105 14.6885 7.21261 14.6864 7.21481C13.202 8.55959 10.8883 8.61546 9.47473 7.38024C9.38616 7.28343 9.29369 7.19026 9.19756 7.10095L5.77557 3.63585C5.44894 3.30069 4.97423 3.37381 4.75513 3.78631C4.40492 4.44792 4.28032 5.18687 4.3706 5.90224C4.36409 5.90436 4.35767 5.90436 4.35125 5.90656L3.64872 5.12669C3.33512 4.77868 2.77444 4.83667 2.54029 5.24055C2.19229 5.84417 2.03971 6.52091 2.07191 7.19114C1.61935 7.63785 1.25562 8.16634 1 8.74859V15.3114C1.77125 17.0709 3.52844 18.3018 5.57142 18.3018H5.79052C7.81635 18.3018 9.5607 17.0924 10.3405 15.3566C11.0903 15.3523 11.6337 15.3502 11.9711 15.3502C12.7014 15.348 13.2707 15.348 13.6789 15.348C14.4565 17.0881 16.2052 18.3018 18.2331 18.3018H18.3877C20.4695 18.3018 22.2524 17.0236 23 15.2105Z" fill="#8EE000"/>
<path fill-rule="evenodd" clip-rule="evenodd" d="M5.8808 7.5307C7.79699 7.5307 9.35233 9.08375 9.35233 11.0022V13.0581C9.35233 14.9743 7.7991 16.5296 5.8808 16.5296C3.96452 16.5296 2.40918 14.9765 2.40918 13.0581V11.0022C2.40918 9.08384 3.96452 7.5307 5.8808 7.5307ZM18.0763 7.5307C19.9925 7.5307 21.5479 9.08375 21.5479 11.0022V13.0581C21.5479 14.9743 19.9946 16.5296 18.0763 16.5296C16.1601 16.5296 14.6047 14.9765 14.6047 13.0581V11.0022C14.6047 9.08384 16.1579 7.5307 18.0763 7.5307Z" fill="white"/>
<path fill-rule="evenodd" clip-rule="evenodd" d="M6.41567 9.52417C7.32436 9.52417 8.06332 10.261 8.06332 11.1719V12.9313C8.06332 13.84 7.32647 14.5789 6.41567 14.5789C5.50699 14.5789 4.76794 13.8421 4.76794 12.9313V11.1719C4.76794 10.261 5.50699 9.52417 6.41567 9.52417Z" fill="#4B4B4B"/>
<path fill-rule="evenodd" clip-rule="evenodd" d="M12.0013 13.5182C13.0431 13.5182 13.8874 14.3625 13.8874 15.4043V16.0596C13.8874 17.1015 13.0431 17.9457 12.0013 17.9457C10.9594 17.9457 10.1151 17.1015 10.1151 16.0596V15.4043C10.1151 14.3625 10.9594 13.5182 12.0013 13.5182Z" fill="#F48000"/>
<path d="M9.39746 15.5848C9.62298 14.3819 10.7379 13.5139 12.072 13.5139C13.2857 13.5139 14.3835 14.4033 14.6047 15.5848V15.6815C14.6047 15.7567 14.5789 15.7867 14.5102 15.7782L12.0742 16.2121H11.9302L9.49196 15.776C9.42324 15.7846 9.39746 15.7545 9.39746 15.6794V15.5848Z" fill="#FFC200"/>
<path fill-rule="evenodd" clip-rule="evenodd" d="M11.6016 13.9306C11.729 13.8999 11.8595 13.884 11.9905 13.8834C12.1301 13.8834 12.272 13.9006 12.4116 13.9371C12.5493 13.9726 12.6713 14.0528 12.7584 14.1652C12.8455 14.2776 12.8927 14.4157 12.8927 14.5579C12.8928 14.6138 12.8818 14.6691 12.8604 14.7207C12.8391 14.7724 12.8078 14.8193 12.7683 14.8588C12.7287 14.8983 12.6818 14.9296 12.6302 14.951C12.5786 14.9723 12.5233 14.9833 12.4674 14.9833H11.5351C11.4792 14.9833 11.4239 14.9723 11.3723 14.951C11.3207 14.9296 11.2737 14.8983 11.2342 14.8588C11.1947 14.8193 11.1634 14.7724 11.142 14.7207C11.1207 14.6691 11.1097 14.6138 11.1098 14.5579C11.1076 14.2615 11.3117 14.0015 11.6016 13.9306Z" fill="#FFE747"/>
<path fill-rule="evenodd" clip-rule="evenodd" d="M17.5413 9.52417C18.4501 9.52417 19.189 10.261 19.189 11.1719V12.9313C19.189 13.84 18.4522 14.5789 17.5413 14.5789C16.6326 14.5789 15.8937 13.8421 15.8937 12.9313V11.1719C15.8958 10.261 16.6326 9.52417 17.5413 9.52417Z" fill="#4B4B4B"/>
<path d="M5.0237 11.522C5.61105 11.522 6.08708 11.0478 6.08708 10.4629C6.08708 9.87806 5.61105 9.40387 5.0237 9.40387C4.43645 9.40387 3.96033 9.87806 3.96033 10.4629C3.96033 11.0478 4.43645 11.522 5.0237 11.522ZM15.9883 11.522C16.5756 11.522 17.0517 11.0478 17.0517 10.4629C17.0517 9.87806 16.5756 9.40387 15.9883 9.40387C15.401 9.40387 14.925 9.87806 14.925 10.4629C14.925 11.0478 15.401 11.522 15.9883 11.522Z" fill="white"/>
</svg>
