<svg width="50" height="50" viewBox="0 0 50 50" fill="none" xmlns="http://www.w3.org/2000/svg">
<g clip-path="url(#clip0_21060_411)">
<path d="M6.9357 19.8276C1.23078 19.8276 1.00258 24.3155 1.07865 25.4565C1.07865 25.4565 0.774385 30.629 6.78357 30.629C11.956 30.629 12.1842 27.3581 12.1842 27.3581H9.8262C9.8262 27.3581 9.36981 29.1076 6.78357 29.0316C3.51275 29.0316 3.36062 25.7608 3.36062 25.7608H12.4885C12.5646 25.7608 13.2492 19.8276 6.9357 19.8276ZM3.43668 24.2394C3.43668 24.2394 3.58881 21.349 6.85964 21.349C10.1305 21.349 10.1305 24.2394 10.1305 24.2394H3.43668Z" fill="#FF6C6C"/>
<path d="M1.07862 24.7719C1.07862 24.7719 0.77436 30.629 6.78355 30.629C11.956 30.629 12.1842 27.3581 12.1842 27.3581H9.82617C9.82617 27.3581 9.36978 29.1076 6.78355 29.0316C3.51272 29.0316 3.36059 25.7608 3.36059 25.7608H12.4885C12.4885 25.7608 13.1731 19.8276 6.85961 19.8276M3.43666 24.2394C3.43666 24.2394 3.58879 21.349 6.85961 21.349C10.1304 21.349 10.1304 24.2394 10.1304 24.2394H3.43666Z" fill="#EE3B3F"/>
<path d="M19.1062 19.9037C16.2157 19.9037 15.1508 21.5771 15.1508 21.5771V15.8722H12.5646L12.6406 27.9666C12.6406 27.9666 12.6406 29.564 12.5646 30.3247H14.7705L14.8465 28.9555C14.8465 28.9555 15.9115 30.6289 18.9541 30.6289C21.9967 30.6289 24.4308 28.7273 24.5069 25.3043C24.5069 21.8814 21.9207 19.9037 19.1062 19.9037ZM18.4216 29.1076C14.8465 29.1837 14.8465 25.3043 14.8465 25.3043C14.8465 25.3043 14.6944 21.5771 18.4216 21.5011C22.0728 21.425 21.9967 25.3804 21.9967 25.3804C21.9967 25.3804 21.9967 29.0316 18.4216 29.1076Z" fill="#1992DD"/>
<path d="M19.1062 19.9037C16.2157 19.9037 15.1508 21.5771 15.1508 21.5771V15.8722L12.5646 18.2302V27.9666C12.5646 27.9666 12.5646 29.564 12.4885 30.3247H14.6944L14.7705 28.9555C14.7705 28.9555 15.8354 30.6289 18.878 30.6289C21.9207 30.6289 24.3548 28.7273 24.4308 25.3043C24.5069 21.8814 21.9207 19.9037 19.1062 19.9037ZM18.4216 29.1076C14.8466 29.1837 14.8466 25.3043 14.8466 25.3043C14.8466 25.3043 14.6944 21.5771 18.4216 21.5011C22.0728 21.425 21.9967 25.3804 21.9967 25.3804C21.9967 25.3804 21.9967 29.0316 18.4216 29.1076Z" fill="#0468B2"/>
<path d="M34.9279 27.8906C34.9279 26.2932 35.0039 24.924 34.9279 23.9351C34.8518 22.7942 35.004 19.9037 30.0597 19.6755C30.0597 19.6755 25.3436 19.5994 24.8112 22.642H27.2453C27.2453 22.642 27.3974 21.1207 29.9076 21.1968C32.2656 21.2728 32.6459 22.4138 32.6459 23.8591C32.6459 23.8591 30.6682 23.9351 29.9836 23.9351C28.7666 23.9351 24.583 24.0873 24.2026 26.6735C23.7462 29.7161 26.4085 30.6289 28.5384 30.6289C30.6682 30.6289 31.8853 30.0204 32.798 28.8794L32.8741 30.3247H35.004C35.004 30.2486 34.9279 29.4879 34.9279 27.8906ZM28.9187 29.1837C28.9187 29.1837 26.6367 29.1837 26.4846 27.3581C26.3325 25.3804 29.9836 25.5325 29.9836 25.5325H32.5698C32.6459 25.5325 33.1023 29.2597 28.9187 29.1837Z" fill="#FFCE00"/>
<path d="M25.0393 22.7181H27.2453C27.2453 22.7181 27.3974 21.1968 29.9076 21.2729C32.2656 21.3489 32.6459 22.4899 32.6459 23.9352C32.6459 23.9352 30.6682 24.0112 29.9836 24.0112C28.7666 24.0112 24.583 24.1634 24.2026 26.7496C23.7462 29.7922 26.4085 30.705 28.5384 30.705C30.6682 30.705 31.8853 30.0965 32.798 28.9555L32.8741 30.4008H35.004C35.004 30.4008 34.9279 29.6401 34.9279 28.0427C34.9279 26.4453 35.0039 25.0762 34.9279 24.0873C34.8518 22.9463 35.08 20.0558 30.1357 19.8276M28.9187 29.1837C28.9187 29.1837 26.6367 29.1837 26.4846 27.3581C26.3325 25.3804 29.9836 25.5326 29.9836 25.5326H32.5698C32.6459 25.5326 33.1023 29.2598 28.9187 29.1837Z" fill="#F7AB1B"/>
<path d="M33.7108 20.4362H36.3731L40.2525 28.1949L44.1318 20.4362H46.5659L39.4918 34.128H36.9056L38.9593 30.3247L33.7108 20.4362Z" fill="#85DD52"/>
<path d="M34.7758 22.4137L36.3731 20.436L40.2525 28.1187L44.1318 20.436H46.5659L39.4918 34.1279H36.9056L38.9594 30.2485L34.7758 22.4137Z" fill="#6BB745"/>
<path d="M47.4026 20.8164V20.5121H47.3265V20.4361H47.4026V20.2839H47.5547V20.4361H47.7069V20.5121H47.5547V20.8164C47.5547 20.8925 47.5547 20.8925 47.6308 20.8925H47.7069V20.9685C47.6308 20.9685 47.6308 20.9685 47.5547 20.9685C47.4787 21.0446 47.4026 20.9685 47.4026 20.8164Z" fill="#6BB745"/>
<path d="M47.9352 20.436H48.0873V20.5121C48.1634 20.436 48.1634 20.436 48.3155 20.436C48.3916 20.436 48.4676 20.436 48.5437 20.5121C48.6198 20.436 48.6958 20.436 48.7719 20.436C48.924 20.436 49.0001 20.5121 49.0001 20.6642V21.0446H48.848V20.7403C48.848 20.6642 48.7719 20.5882 48.6958 20.5882C48.6198 20.5882 48.5437 20.6642 48.5437 20.7403V21.0446H48.3916V20.7403C48.3916 20.6642 48.3155 20.5882 48.2394 20.5882C48.1634 20.5882 48.0873 20.6642 48.0873 20.7403V21.0446H47.9352V20.436Z" fill="#6BB745"/>
<path d="M9.90226 23.0223C10.2065 23.6309 10.2065 24.2394 10.2065 24.2394H3.43667C3.43667 24.2394 3.43667 22.566 4.95799 21.8053C3.43667 22.0335 2.14356 22.7942 1.1547 23.9351C1.00257 24.5437 1.00257 25.1522 1.00257 25.4564C1.00257 25.4564 0.69831 30.6289 6.7075 30.6289C11.1193 30.6289 11.956 28.2709 12.1082 27.5863C12.1082 27.5102 12.1082 27.4342 12.1082 27.3581H9.75012C9.75012 27.3581 9.29373 29.1076 6.7075 29.0315C3.51274 29.0315 3.36061 25.7607 3.36061 25.7607H11.8039C11.4236 25.0001 10.739 23.7069 9.90226 23.0223Z" fill="#C60C1E"/>
<path d="M23.8984 27.7384C23.8223 25.8367 22.7574 24.0872 21.3122 23.0223C21.9967 24.0872 21.9207 25.4564 21.9207 25.4564C21.9207 25.4564 21.9967 29.1836 18.3456 29.1836C14.7705 29.2597 14.7705 25.3804 14.7705 25.3804C14.7705 25.3804 14.6944 22.8702 16.6722 21.9574C14.9226 22.1856 13.4774 23.1744 12.4885 24.5436V28.1187C12.4885 28.1187 12.4885 29.7161 12.4125 30.4768H14.6184L14.6944 29.1076C14.6944 29.1076 15.7594 30.781 18.802 30.781C21.084 30.6289 23.0617 29.64 23.8984 27.7384Z" fill="#064C91"/>
<path d="M34.9279 27.8906C34.9279 26.5975 34.9279 25.4565 34.9279 24.5437C34.2433 23.5548 33.3305 22.7181 32.1895 22.2617C32.5699 22.7181 32.5699 23.2506 32.5699 23.9352C32.5699 23.9352 30.5922 24.0112 29.9076 24.0112C28.6905 24.0112 24.5069 24.1634 24.1266 26.7496C23.6702 29.7922 26.3325 30.705 28.4623 30.705C30.5922 30.705 31.8092 30.0965 32.722 28.9555L32.7981 30.4007H34.9279C35.004 30.2486 34.9279 29.488 34.9279 27.8906ZM28.9187 29.1837C28.9187 29.1837 26.6367 29.1837 26.4846 27.3581C26.3325 25.3804 29.9836 25.5325 29.9836 25.5325H32.5699C32.6459 25.5325 33.1023 29.2598 28.9187 29.1837Z" fill="#F48D1C"/>
<path d="M26.1042 22.7181H27.3213C27.3213 22.7181 27.4734 22.2617 27.8538 21.8813C27.1692 22.0335 26.5606 22.7181 26.1042 22.7181Z" fill="#F48D1C"/>
<path d="M39.4918 34.128L44.4361 24.5437C43.9797 23.9352 43.4472 23.4027 42.9148 22.9463L40.2525 28.0427L37.2099 22.1857C36.5253 22.4899 35.9167 22.9463 35.3843 23.4788L38.9594 30.3247L36.9056 34.128H39.4918Z" fill="#4A9E19"/>
</g>
<defs>
<clipPath id="clip0_21060_411">
<rect width="48" height="48" fill="white" transform="translate(1 1)"/>
</clipPath>
</defs>
</svg>
