<svg width="24" height="24" viewBox="0 0 24 24" fill="none" xmlns="http://www.w3.org/2000/svg">
<path d="M12 23C18.0751 23 23 18.0751 23 12C23 5.92487 18.0751 1 12 1C5.92487 1 1 5.92487 1 12C1 18.0751 5.92487 23 12 23Z" fill="#F68922"/>
<path d="M11.7197 7.53422C11.7197 7.53422 8.35662 8.02467 7.86618 11.738C7.86618 11.738 7.34631 15.8949 11.6223 17.0166C11.9185 17.0941 12.2234 17.1332 12.5296 17.1329H12.7398C12.9554 17.1329 13.169 17.1752 13.3682 17.2577C13.5675 17.3402 13.7485 17.4611 13.901 17.6135C14.0536 17.766 14.1745 17.947 14.2571 18.1462C14.3396 18.3454 14.3821 18.5589 14.3821 18.7745C14.3838 19.1883 14.2286 19.5873 13.9477 19.8911C13.6669 20.195 13.2813 20.3811 12.8687 20.4119C10.7668 20.5521 7.94535 19.5277 6.11459 17.0629C6.11459 17.0629 2.52943 11.9419 6.43688 7.23715C7.36109 6.11701 8.56333 5.2593 9.92325 4.74989C11.5291 4.15295 13.8811 3.769 15.9235 5.36225C15.9235 5.36225 18.656 7.46416 17.2547 10.8973C17.2547 10.8973 16.2738 13.6298 12.9108 13.84L12.4434 13.814C12.2225 13.8085 12.0053 13.7557 11.8064 13.6592C11.6076 13.5627 11.4317 13.4248 11.2906 13.2547C11.1495 13.0846 11.0464 12.8862 10.9883 12.6729C10.9303 12.4597 10.9185 12.2365 10.9539 12.0183C11.0116 11.6634 11.1911 11.3397 11.4615 11.1027C11.7319 10.8656 12.0763 10.7301 12.4357 10.7193L12.9108 10.6871C12.9108 10.6871 14.5222 10.617 14.3821 8.72531C14.3821 8.72531 14.242 7.04378 11.7197 7.53422Z" fill="#2A2460"/>
</svg>
