<svg width="24" height="24" viewBox="0 0 24 24" fill="none" xmlns="http://www.w3.org/2000/svg">
<g clip-path="url(#clip0_15000_4306)">
<path d="M4.64015 5.26105H6.70642C6.76301 5.26093 6.81723 5.2384 6.85726 5.19841C6.89728 5.15842 6.91985 5.1042 6.92002 5.04762C6.92002 5.04681 6.895 3.27681 6.895 2.78514V2.77913C6.895 2.37516 6.97963 2.02285 7.12777 1.72723L7.1981 1.59485C7.18909 1.59653 7.18084 1.60102 7.17455 1.60768L3.16253 5.58608C3.15518 5.59215 3.14994 5.60039 3.14758 5.60963C3.23058 5.56854 3.34412 5.51217 3.36004 5.50519C3.7091 5.34731 4.13288 5.26105 4.64015 5.26105Z" fill="#74BB44"/>
<path d="M20.7066 4.82784C20.5425 3.95007 20.0203 3.51736 19.5483 3.34713C19.0394 3.1631 18.0066 2.9724 16.7098 2.81972C15.666 2.6966 14.4392 2.70667 13.6982 2.72925C13.6093 2.12013 13.1821 1.56365 12.704 1.37101C11.4308 0.858702 9.46234 0.982473 8.95751 1.12395C8.55582 1.23635 8.11141 1.46619 7.86435 1.82045C7.69851 2.05743 7.59098 2.36053 7.59017 2.78431C7.59017 3.02406 7.59683 3.58882 7.603 4.0909C7.60885 4.5941 7.61584 5.04452 7.61584 5.04777C7.61553 5.26347 7.52969 5.47025 7.37713 5.62275C7.22458 5.77524 7.01777 5.861 6.80206 5.86122H4.73693C4.29658 5.86122 3.95986 5.93513 3.70274 6.05191C3.44528 6.16886 3.26288 6.32642 3.12432 6.51289C2.84868 6.8829 2.80076 7.33982 2.8019 7.80632C2.8019 7.80632 2.8058 8.18722 2.89757 8.92481C2.97408 9.49527 3.59293 13.4816 4.18077 14.694C4.40866 15.1654 4.56069 15.3624 5.00819 15.5703C6.00583 15.9975 8.2844 16.4728 9.3527 16.6089C10.4186 16.7453 11.0878 17.0319 11.4864 16.1958C11.4877 16.1932 11.5665 15.9882 11.6743 15.6851C12.0206 14.6365 12.0689 13.7056 12.0689 13.0323C12.0689 12.9636 12.1694 12.9607 12.1694 13.0323C12.1694 13.5079 12.0783 15.1907 13.3496 15.6418C13.8517 15.8195 14.8924 15.9783 15.9506 16.1024C16.9068 16.2127 17.6007 16.5886 17.6007 19.0427C17.6007 20.5355 17.2872 20.74 15.6482 20.74C14.3193 20.74 13.8127 20.7742 13.8127 19.7193C13.8127 18.8657 14.6567 18.9553 15.282 18.9553C15.5616 18.9553 15.3585 18.7478 15.3585 18.221C15.3585 17.6968 15.6867 17.3942 15.3764 17.3868C13.214 17.327 11.9413 17.3842 11.9413 20.0891C11.9413 22.5442 12.8808 23.0002 15.9506 23.0002C18.357 23.0002 19.2047 22.9216 20.1986 19.8383C20.3953 19.2297 20.8713 17.3725 21.1586 14.2535C21.3404 12.2819 20.9867 6.32983 20.7066 4.82784ZM16.5113 11.4063C16.2141 11.396 15.9282 11.4147 15.6616 11.4576C15.7368 10.8517 15.9868 10.1075 16.8732 10.1386C17.8544 10.1726 17.9915 11.0999 17.9949 11.7277C17.5814 11.5435 17.0693 11.4259 16.5113 11.4063Z" fill="#74BB44"/>
</g>
<defs>
<clipPath id="clip0_15000_4306">
<rect width="18.4096" height="22" fill="white" transform="translate(2.80005 1)"/>
</clipPath>
</defs>
</svg>
