<svg width="24" height="24" viewBox="0 0 24 24" fill="none" xmlns="http://www.w3.org/2000/svg">
<path d="M12 23C18.0751 23 23 18.0752 23 12C23 5.92491 18.0751 1.00005 12 1.00005C5.92487 1.00005 1 5.92491 1 12C1 18.0752 5.92487 23 12 23Z" fill="#3C5A9A"/>
<path d="M15.5767 4.37646H13.14C11.6939 4.37646 10.0855 4.98466 10.0855 7.08079C10.0925 7.81116 10.0855 8.51064 10.0855 9.29786H8.4126V11.9599H10.1373V19.6236H13.3064V11.9094H15.3982L15.5874 9.29039H13.2518C13.2518 9.29039 13.257 8.12536 13.2518 7.78703C13.2518 6.95869 14.1137 7.00612 14.1656 7.00612C14.5757 7.00612 15.3732 7.00732 15.5779 7.00612V4.37646H15.5767Z" fill="white"/>
</svg>
