<svg width="24" height="24" viewBox="0 0 24 24" fill="none" xmlns="http://www.w3.org/2000/svg">
<path d="M12 20.9288C7.06873 20.9288 3.07118 16.9313 3.07118 12C3.07118 7.06873 7.06874 3.07118 12.0001 3.07118C16.9313 3.07118 20.9288 7.06873 20.9288 12C20.9288 16.9313 16.9313 20.9288 12 20.9288ZM12 1C5.92491 1 1 5.92491 1 12C1 18.0751 5.92491 23 12 23C18.0751 23 23 18.0751 23 12C23 5.92491 18.0751 1 12 1ZM13.1109 11.0624C13.3806 10.3856 13.598 9.68304 13.9237 9.03464C14.2665 8.35204 14.7111 7.90774 15.5488 7.93344C16.3508 7.95802 16.9745 8.47158 17.2538 9.14584C17.6952 10.2117 18.0175 11.2683 18.3778 12.3663C18.6077 13.0672 18.8324 13.8312 19.5116 14.1902C20.1396 14.6079 19.8919 15.0023 19.729 15.2836C19.4133 15.6751 18.8967 15.5422 18.8514 15.5362C18.321 15.4666 17.5185 14.6133 17.2791 14.0081C16.7887 12.7692 16.6817 12.0563 16.2182 10.8066C16.1706 10.6784 16.0425 10.1985 15.9718 10.0618C15.8274 9.78238 15.4306 9.76648 15.2673 10.0351C15.2199 10.1132 15.1808 10.1874 15.1506 10.2651C14.8046 11.1566 14.0687 13.2924 13.9955 13.4524C13.0474 15.5221 11.6631 15.7741 10.0425 14.0396C9.76743 13.7453 9.51434 13.3476 9.24691 13.0483C8.76677 12.511 8.35041 12.4652 7.9208 13.0356C7.60327 13.4572 7.26991 13.8606 6.96896 14.2955C6.53214 14.9266 5.95705 15.4546 5.18026 15.5362C4.74026 15.5825 4.29115 15.3939 4.16998 14.9174C4.05628 14.4705 4.36153 14.0941 4.75779 13.9898C5.35703 13.832 5.44417 13.727 5.74229 13.2503C5.78234 13.1863 6.08174 12.7086 6.12119 12.6441C7.56279 10.285 9.33344 10.3103 10.9453 12.5334C11.0601 12.6919 11.2491 12.9542 11.4198 13.1916C11.5942 13.434 11.9627 13.4076 12.1005 13.1428C12.6441 12.4926 12.9097 11.5676 13.1109 11.0625" fill="#298EEA"/>
</svg>
