<svg width="24" height="24" viewBox="0 0 24 24" fill="none" xmlns="http://www.w3.org/2000/svg">
<path d="M20.25 1H3.75C2.23122 1 1 2.23122 1 3.75V20.25C1 21.7688 2.23122 23 3.75 23H20.25C21.7688 23 23 21.7688 23 20.25V3.75C23 2.23122 21.7688 1 20.25 1Z" fill="url(#paint0_linear_15000_4355)"/>
<path d="M12.672 8.75528C15.3296 8.54834 16.936 7.24054 17.4365 5.49756C13.9294 7.1675 9.55327 5.12459 8.72501 8.81449L8.30048 10.7816C9.03902 9.59729 10.0146 8.9623 12.672 8.75528ZM11.2902 9.09026C9.98416 9.28474 8.93641 9.91096 8.34852 11.0107C8.1592 11.3646 8.09268 11.7449 8.09268 11.7449L7.79216 13.1372C8.16865 12.4435 8.84197 11.5567 10.6066 11.1347C10.6462 10.9139 10.8872 9.64834 11.2902 9.09026ZM7.51793 14.4077L7.05894 16.5345C8.27512 14.1413 10.8924 13.6768 11.2157 13.6071C13.4948 13.1145 14.5922 11.945 15.0285 10.4251C13.0398 11.5873 8.39784 10.128 7.51793 14.4077ZM6.83782 17.5592L6.5 19.1245C9.19534 18.9677 9.49269 16.2907 9.93243 14.1642C9.09385 14.4667 7.24577 15.6521 6.83782 17.5592Z" fill="white"/>
<defs>
<linearGradient id="paint0_linear_15000_4355" x1="1" y1="6.852" x2="23" y2="2195.15" gradientUnits="userSpaceOnUse">
<stop stop-color="#9BCD98"/>
<stop offset="1" stop-color="#45B271"/>
</linearGradient>
</defs>
</svg>
