<svg width="24" height="24" viewBox="0 0 24 24" fill="none" xmlns="http://www.w3.org/2000/svg">
<g clip-path="url(#clip0_12752_27982)">
<path d="M17.877 1.10001H6.2775C4.68388 1.10001 4.20813 2.30813 4.20813 3.06814V21.5318C4.20813 22.4416 4.67013 22.7099 4.92313 22.8148C5.02213 22.8557 5.18713 22.8925 5.37825 22.8925C5.67388 22.8925 6.03275 22.8053 6.32288 22.5165C6.32288 22.5165 11.8325 16.0891 11.9219 15.9843C12.0113 15.8794 12.0553 15.8794 12.1158 15.8794H15.6C17.0891 15.8794 17.3724 14.8497 17.536 14.2245C17.6694 13.7029 19.2039 6.24575 19.6796 3.88944C20.0358 2.06977 19.5738 1.10001 17.877 1.10001Z" fill="#EC407A"/>
<path d="M15.0706 12.6241C15.0046 12.9401 14.7255 13.1553 14.3996 13.1553H12.1144C11.2124 13.1553 10.4204 13.5244 9.82363 14.2218L6.95813 17.5656V4.50508C6.95813 4.12916 7.26613 3.82407 7.64563 3.82407H16.0469C16.4814 3.82407 16.8086 4.21088 16.722 4.63311C16.5969 5.24875 16.4525 5.94883 16.3026 6.6816C16.2366 6.99895 15.9548 7.22914 15.6289 7.22914H11.7706C11.3911 7.22914 11.0831 7.53423 11.0831 7.91015V9.27218C11.0831 9.6481 11.3911 9.95319 11.7706 9.95319H14.7846C15.2205 9.95319 15.545 10.3536 15.457 10.7759C15.3071 11.4991 15.1724 12.1392 15.0706 12.6241Z" fill="#FAFAFA"/>
</g>
<defs>
<clipPath id="clip0_12752_27982">
<rect width="22" height="21.7925" fill="white" transform="translate(1 1.10001)"/>
</clipPath>
</defs>
</svg>
