<svg width="25" height="24" viewBox="0 0 25 24" fill="none" xmlns="http://www.w3.org/2000/svg">
<g clip-path="url(#clip0_16809_19713)">
<path d="M12.1114 23.6377C18.5387 23.6377 23.7491 18.4273 23.7491 12C23.7491 5.57272 18.5387 0.362366 12.1114 0.362366C5.68411 0.362366 0.473755 5.57272 0.473755 12C0.473755 18.4273 5.68411 23.6377 12.1114 23.6377Z" fill="#FF7B05"/>
<path d="M17.3181 1.59003C20.4077 3.68234 22.4385 7.22042 22.4385 11.2329C22.4385 17.6602 17.2281 22.8706 10.8008 22.8706C8.92907 22.8706 7.16094 22.428 5.59424 21.6429C7.45368 22.9021 9.69664 23.6377 12.1115 23.6377C18.5388 23.6377 23.7492 18.4274 23.7492 12C23.7492 7.44443 21.1312 3.50089 17.3181 1.59003Z" fill="#FF6500"/>
<path d="M20.7837 4.24016L4.34239 20.664C4.54634 20.847 4.75672 21.023 4.97333 21.1914L21.3106 4.87194C21.1423 4.65509 20.9665 4.44444 20.7837 4.24016ZM18.6976 2.40491L2.47925 18.5326C2.84904 19.0768 3.26375 19.5879 3.71801 20.0608L20.216 3.6493C19.7464 3.19349 19.2386 2.77695 18.6976 2.40491Z" fill="#FF9416"/>
<path d="M12.1114 20.069C16.5678 20.069 20.1805 16.4564 20.1805 12C20.1805 7.54355 16.5678 3.93091 12.1114 3.93091C7.655 3.93091 4.04236 7.54355 4.04236 12C4.04236 16.4564 7.655 20.069 12.1114 20.069Z" fill="#FFE92F"/>
<path d="M4.75756 12.7158C4.75756 8.25947 8.37017 4.64686 12.8265 4.64686C14.8743 4.64686 16.7434 5.41008 18.1662 6.66698C16.6876 4.98956 14.5233 3.93103 12.1114 3.93103C7.65509 3.93103 4.04248 7.54364 4.04248 12C4.04248 14.4086 5.0982 16.5704 6.77173 18.0488C5.51834 16.6269 4.75756 14.7603 4.75756 12.7158Z" fill="#FFF634"/>
<path d="M18.7621 7.42297C18.6054 7.19586 18.4374 6.97714 18.2588 6.7677L6.87781 18.1366C7.08701 18.3154 7.30549 18.4835 7.53242 18.6404L18.7621 7.42297Z" fill="#FFF80B"/>
<path d="M16.1076 4.98584L5.08044 15.9513C5.40613 16.53 5.80087 17.0645 6.25391 17.5435L17.6911 6.16629C17.2152 5.71132 16.6835 5.3142 16.1076 4.98584Z" fill="#FFF80B"/>
<path d="M12.7319 8.14964L13.4593 9.62348C13.5601 9.82767 13.7549 9.96919 13.9802 10.002L15.6067 10.2383C16.1742 10.3208 16.4008 11.0181 15.9901 11.4184L14.8132 12.5656C14.6501 12.7245 14.5757 12.9535 14.6142 13.178L14.892 14.7979C14.989 15.363 14.3958 15.794 13.8882 15.5272L12.4334 14.7624C12.2319 14.6565 11.9911 14.6565 11.7896 14.7624L10.3348 15.5272C9.82724 15.794 9.23404 15.363 9.33097 14.7979L9.6088 13.178C9.64728 12.9535 9.57289 12.7245 9.40982 12.5656L8.23288 11.4184C7.82225 11.0181 8.04885 10.3208 8.61632 10.2383L10.2428 10.002C10.4681 9.96919 10.6629 9.82767 10.7637 9.62348L11.4911 8.14964C11.7449 7.63542 12.4781 7.63542 12.7319 8.14964Z" fill="#FF7A00"/>
<path d="M20.5967 3.51473C18.3303 1.24819 15.3168 0 12.1115 0C8.90614 0 5.89264 1.24819 3.62618 3.51473C1.35973 5.78128 0.11145 8.79469 0.11145 12C0.11145 15.2053 1.35968 18.2188 3.62618 20.4853C5.89268 22.7518 8.90614 24 12.1115 24C12.8113 24 13.5128 23.9393 14.1965 23.8194C14.3936 23.7849 14.5254 23.5971 14.4908 23.4C14.4563 23.2029 14.2687 23.0711 14.0714 23.1057C13.4289 23.2183 12.7695 23.2754 12.1115 23.2754C9.09968 23.2754 6.26815 22.1025 4.13853 19.9729C2.0089 17.8433 0.836091 15.0118 0.836091 12C0.836091 8.98823 2.0089 6.15675 4.13853 4.02708C6.26815 1.89745 9.09968 0.724641 12.1115 0.724641C15.1232 0.724641 17.9547 1.8975 20.0844 4.02713C22.214 6.15675 23.3869 8.98828 23.3869 12C23.3869 14.4513 22.6139 16.7819 21.1515 18.7401C19.7373 20.6337 17.7229 22.0628 15.4793 22.764C15.2883 22.8237 15.1818 23.0269 15.2416 23.2179C15.3012 23.4089 15.5047 23.5152 15.6955 23.4556C18.0835 22.7092 20.2274 21.1886 21.7322 19.1737C23.2887 17.0893 24.1115 14.6087 24.1115 12C24.1115 8.79469 22.8632 5.78123 20.5967 3.51473Z" fill="black"/>
<path d="M7.19791 6.06257C7.35199 5.93493 7.37341 5.70651 7.24577 5.55243C7.11808 5.39835 6.88966 5.37693 6.73563 5.50457C4.79383 7.11341 3.68018 9.48088 3.68018 12C3.68018 16.649 7.46243 20.4313 12.1114 20.4313C16.7605 20.4313 20.5427 16.649 20.5427 12C20.5427 7.35098 16.7605 3.56873 12.1114 3.56873C10.6476 3.56873 9.20543 3.94982 7.94102 4.6708C7.76716 4.7699 7.7066 4.99119 7.80574 5.16501C7.90497 5.33891 8.12627 5.39938 8.29994 5.30029C9.45522 4.64155 10.7733 4.29337 12.1114 4.29337C16.3609 4.29337 19.8181 7.75054 19.8181 12C19.8181 16.2494 16.3609 19.7066 12.1114 19.7066C7.86199 19.7066 4.40482 16.2494 4.40482 12C4.40482 9.69735 5.42285 7.53327 7.19791 6.06257Z" fill="black"/>
<path d="M8.66837 10.5968L10.2948 10.3605C10.6383 10.3106 10.935 10.095 11.0886 9.7838L11.8159 8.30996C11.9 8.13952 12.0634 8.12625 12.1114 8.12625C12.1595 8.12625 12.3228 8.13952 12.4069 8.30996L13.1343 9.78375C13.2879 10.095 13.5846 10.3105 13.928 10.3605L14.0186 10.377C14.2168 10.4057 14.4005 10.2685 14.4293 10.0705C14.4581 9.87253 14.3209 9.68864 14.1229 9.65986L14.0322 9.64336C13.9248 9.62775 13.8321 9.56039 13.7841 9.46308L13.0567 7.98924C12.8778 7.6268 12.5156 7.40161 12.1114 7.40161C11.7072 7.40161 11.345 7.6268 11.1661 7.98924L10.4387 9.46308C10.3907 9.56035 10.2979 9.62771 10.1906 9.64336L8.56412 9.8797C8.16414 9.93778 7.83808 10.2127 7.71315 10.5971C7.58823 10.9815 7.69047 11.3956 7.97987 11.6778L9.15681 12.825C9.23448 12.9008 9.26987 13.0098 9.25159 13.1167L8.97376 14.7366C8.90542 15.135 9.06611 15.5301 9.39306 15.7676C9.72015 16.0052 10.1455 16.036 10.5032 15.8479L11.9581 15.083C12.054 15.0325 12.1686 15.0325 12.2647 15.0831L13.7194 15.8479C13.8751 15.9297 14.0434 15.9701 14.211 15.9701C14.4287 15.9701 14.6448 15.9019 14.8296 15.7676C15.1566 15.53 15.3173 15.135 15.249 14.7366L14.9711 13.1167C14.9528 13.0097 14.9882 12.9008 15.0659 12.825L16.2428 11.6778C16.5322 11.3956 16.6345 10.9815 16.5095 10.5971C16.3846 10.2127 16.0586 9.93783 15.6586 9.8797C15.4608 9.85074 15.2767 9.98813 15.2479 10.1862C15.2192 10.3842 15.3564 10.568 15.5544 10.5968C15.7425 10.6241 15.8055 10.7753 15.8204 10.821C15.8352 10.8668 15.8731 11.0262 15.737 11.1589L14.5601 12.3061C14.3116 12.5483 14.1983 12.8971 14.2569 13.2391L14.5348 14.8591C14.5669 15.0464 14.4425 15.1531 14.4037 15.1814C14.3649 15.2096 14.2248 15.2948 14.0567 15.2064L12.6019 14.4416C12.2948 14.2801 11.928 14.2801 11.6208 14.4416L10.1662 15.2065C9.99789 15.2949 9.85797 15.2096 9.81915 15.1814C9.78029 15.1531 9.65594 15.0465 9.68804 14.8591L9.96587 13.2392C10.0246 12.8971 9.91122 12.5483 9.66273 12.3061L8.48584 11.1589C8.34972 11.0262 8.38759 10.8668 8.40245 10.8211C8.41726 10.7754 8.48036 10.6242 8.66837 10.5968Z" fill="black"/>
</g>
<defs>
<clipPath id="clip0_16809_19713">
<rect width="24" height="24" fill="white" transform="translate(0.11145)"/>
</clipPath>
</defs>
</svg>
