<svg width="25" height="24" viewBox="0 0 25 24" fill="none" xmlns="http://www.w3.org/2000/svg">
<g clip-path="url(#clip0_16809_19714)">
<path d="M19.2368 2.83751C19.1083 2.65957 18.9022 2.5542 18.6828 2.5542H14.9194H9.20463H5.3072C5.08173 2.5542 4.87079 2.66543 4.74338 2.85148L0.467529 9.09698L11.9883 21.4018C12.0163 21.4318 12.0543 21.4462 12.0922 21.4456C12.0962 21.4455 12.1002 21.4448 12.1042 21.4444C12.1361 21.4411 12.1672 21.4274 12.1911 21.402L23.7554 9.09698L19.2368 2.83751Z" fill="#2B96F5"/>
<path d="M9.20463 2.5542H5.3072C5.08173 2.5542 4.87079 2.66543 4.74338 2.85148L0.467529 9.09698H7.38723L9.20463 2.5542Z" fill="#49D5FF"/>
<path d="M23.7554 9.09698L19.2368 2.83751C19.1083 2.65957 18.9022 2.5542 18.6828 2.5542H14.9194L16.8357 9.09698H23.7554Z" fill="#2B96F5"/>
<path d="M12.0588 21.4216L7.38723 9.09698H0.467529L11.9883 21.4018C12.0163 21.4318 12.0543 21.4462 12.0922 21.4456C12.0783 21.4449 12.0647 21.4371 12.0588 21.4216Z" fill="#2BB7FF"/>
<path d="M23.7554 9.09698H16.8357L12.1291 21.4217C12.1244 21.4339 12.1149 21.4415 12.1042 21.4444C12.1362 21.4411 12.1672 21.4274 12.1911 21.402L23.7554 9.09698Z" fill="#2B84E9"/>
<path d="M16.8357 9.09698L14.9194 2.5542H9.2046L7.38721 9.09698H16.8357Z" fill="#2BB7FF"/>
<path d="M12.129 21.4217L16.8357 9.09698H7.38721L12.0588 21.4216C12.0647 21.4371 12.0783 21.4449 12.0922 21.4456C12.0962 21.4455 12.1002 21.4448 12.1042 21.4444C12.1148 21.4414 12.1244 21.4339 12.129 21.4217Z" fill="#2B96F5"/>
<path d="M24.0937 9.20805C24.0975 9.19637 24.1006 9.18456 24.1033 9.17261C24.1041 9.169 24.1049 9.16544 24.1055 9.16183C24.1081 9.14767 24.1101 9.13342 24.111 9.11912C24.1111 9.11744 24.111 9.11575 24.1111 9.11411C24.1117 9.10136 24.1115 9.08861 24.1108 9.0759C24.1105 9.07178 24.1102 9.06766 24.1098 9.06348C24.1086 9.05125 24.1069 9.03911 24.1045 9.02706C24.1041 9.02495 24.1038 9.02279 24.1034 9.02069C24.1003 9.00648 24.0961 8.99247 24.0913 8.97864C24.0902 8.97578 24.0891 8.97297 24.088 8.97015C24.0835 8.95844 24.0785 8.94695 24.0727 8.9357C24.0714 8.93322 24.0703 8.93069 24.0689 8.9282C24.0618 8.91484 24.0538 8.90186 24.0448 8.88934C24.0446 8.88906 24.0445 8.88878 24.0443 8.8885L19.5257 2.62894C19.3308 2.35903 19.0157 2.19788 18.6828 2.19788H14.9194H11.8157C11.6188 2.19788 11.4594 2.35739 11.4594 2.55417C11.4594 2.75096 11.6189 2.91047 11.8157 2.91047H14.6525L16.3601 8.74065H10.4696C10.2728 8.74065 10.1133 8.90017 10.1133 9.09695C10.1133 9.29373 10.2729 9.45325 10.4696 9.45325H16.3185L12.1032 20.5082L7.90374 9.4533H8.74351C8.94034 9.4533 9.09981 9.29378 9.09981 9.097C9.09981 8.90022 8.94029 8.7407 8.74351 8.7407H7.85602L9.47547 2.91052H10.3983C10.5952 2.91052 10.7546 2.751 10.7546 2.55422C10.7546 2.35744 10.5951 2.19792 10.3983 2.19792H9.20462H5.30719C4.96397 2.19792 4.64335 2.367 4.44942 2.65022L0.1769 8.89079C0.176572 8.89126 0.176291 8.89173 0.175963 8.89215L0.173572 8.89567C0.172775 8.89684 0.172259 8.89806 0.171463 8.89923C0.164056 8.91034 0.1574 8.92178 0.151306 8.93345C0.149806 8.93636 0.148306 8.93931 0.146853 8.94226C0.140666 8.95511 0.135041 8.96819 0.130494 8.98159C0.130353 8.98206 0.130119 8.98248 0.129978 8.9829C0.125338 8.99669 0.121775 9.0107 0.118869 9.02486C0.118119 9.02851 0.117556 9.03217 0.1169 9.03587C0.114978 9.04698 0.113572 9.05814 0.112728 9.06939C0.112447 9.0729 0.112025 9.07642 0.111884 9.07994C0.111228 9.09409 0.111275 9.10825 0.112306 9.12236C0.112494 9.12484 0.112869 9.12728 0.113103 9.12972C0.114228 9.14186 0.116009 9.15395 0.118353 9.166C0.119056 9.16951 0.119759 9.17298 0.120556 9.17645C0.127119 9.20514 0.137197 9.23312 0.150978 9.25989C0.151541 9.26097 0.151869 9.26209 0.152431 9.26312C0.153322 9.26481 0.154494 9.26626 0.155384 9.2679C0.161197 9.27855 0.167619 9.28891 0.17465 9.29908C0.176619 9.30194 0.178494 9.30484 0.18051 9.30766C0.188806 9.31895 0.197666 9.32997 0.20751 9.34047L0.208963 9.34206L0.20915 9.34225L11.7282 21.6454C11.8214 21.7449 11.953 21.802 12.0893 21.8021C12.0893 21.8021 12.0896 21.8021 12.0897 21.8021C12.2259 21.8021 12.3575 21.7452 12.4507 21.646L22.0141 11.47C22.1489 11.3266 22.1419 11.1011 21.9985 10.9663C21.8551 10.8316 21.6296 10.8385 21.4949 10.982L13.087 19.9284L17.0812 9.45334H22.9316L22.4503 9.9655C22.3155 10.1089 22.3225 10.3344 22.4659 10.4692C22.5347 10.5338 22.6223 10.5658 22.7099 10.5658C22.8047 10.5658 22.8994 10.5281 22.9695 10.4535L24.0151 9.34103C24.0152 9.34084 24.0154 9.34066 24.0156 9.34047C24.0168 9.33916 24.0179 9.33766 24.0191 9.3363C24.028 9.3265 24.0361 9.31633 24.0437 9.30587C24.0461 9.30264 24.0483 9.29931 24.0505 9.29603C24.0576 9.28558 24.064 9.27494 24.0698 9.26397C24.0707 9.26233 24.0719 9.26092 24.0727 9.25928C24.073 9.25862 24.0732 9.25792 24.0735 9.25726C24.0803 9.24372 24.0862 9.22989 24.0912 9.21583C24.0921 9.2132 24.0928 9.21062 24.0937 9.20805ZM7.14146 9.4533L11.137 19.9713L1.28925 9.4533H7.14146ZM5.03743 3.05274C5.09841 2.96367 5.19924 2.91052 5.30714 2.91052H8.73582L7.11638 8.7407H1.14328L5.03743 3.05274ZM18.9479 3.04608L23.0587 8.7407H17.1027L15.395 2.91052H18.6828C18.7875 2.91052 18.8866 2.96119 18.9479 3.04608Z" fill="black"/>
</g>
<defs>
<clipPath id="clip0_16809_19714">
<rect width="24" height="24" fill="white" transform="translate(0.11145)"/>
</clipPath>
</defs>
</svg>
