<svg width="24" height="24" viewBox="0 0 24 24" fill="none" xmlns="http://www.w3.org/2000/svg">
<path d="M11.2009 1.5587C13.1991 1.39583 15.2426 1.83857 16.9977 2.8058C19.9905 4.41853 22.1111 7.56421 22.4122 10.9592C22.6388 13.0512 22.1922 15.207 21.1744 17.047C20.156 18.9005 18.5626 20.4354 16.666 21.3741C15.1776 22.1246 13.5023 22.5035 11.8352 22.4669C9.5517 22.4476 7.29083 21.6306 5.50327 20.2127C3.96493 18.9922 2.775 17.3383 2.12353 15.4842C1.10776 12.6331 1.40691 9.33714 2.95648 6.73258C3.99684 4.92708 5.60092 3.45794 7.4769 2.55386C8.6429 1.99612 9.91128 1.6511 11.2009 1.5587ZM9.34955 2.55386C7.54736 3.04047 5.86484 4.10077 4.79589 5.64968C4.07595 6.6681 3.6618 7.87399 3.44907 9.0945C3.34803 9.85633 3.30615 10.6873 3.68706 11.3833C3.86322 11.729 4.17101 11.9902 4.32258 12.3491C4.46683 12.6676 4.36446 13.0984 4.05401 13.2798C3.76284 13.4886 3.35135 13.4088 3.0881 13.1914C2.70852 12.8936 2.54765 12.4077 2.46655 11.949C2.30634 10.916 2.51441 9.87095 2.77766 8.8738C2.57158 8.95956 2.60149 9.24474 2.52372 9.42556C2.07367 11.1706 2.07699 13.0359 2.57025 14.7716C3.03625 16.4295 3.98753 17.9692 5.36094 19.0247C6.39532 19.8431 7.66303 20.3085 8.94603 20.5604C9.71982 20.6907 10.5614 20.7426 11.2867 20.3902C11.6463 20.2101 11.9155 19.8962 12.2678 19.7055C12.5644 19.5513 12.9506 19.6017 13.1825 19.8464C13.4505 20.1137 13.4552 20.5716 13.237 20.8708C13.0018 21.1912 12.6228 21.3694 12.2486 21.4724C11.423 21.6791 10.5594 21.5861 9.73312 21.4358C9.43065 21.388 9.14413 21.2537 8.83502 21.2544C9.00054 21.418 9.24318 21.4465 9.45657 21.5104C11.0779 21.9099 12.799 21.9125 14.423 21.5243C16.2917 21.0749 18.06 20.0233 19.1701 18.4298C19.8894 17.4407 20.2856 16.2587 20.5303 15.0714C20.6605 14.1946 20.7263 13.2034 20.1938 12.4389C19.9459 12.0739 19.5476 11.7229 19.6274 11.2357C19.6614 10.7803 20.1712 10.4924 20.59 10.6407C21.137 10.8182 21.393 11.4045 21.5048 11.9244C21.7174 13.0013 21.5061 14.1082 21.2215 15.1511C21.2959 15.1398 21.3418 15.098 21.359 15.0262C21.8497 13.4945 21.9347 11.8426 21.6515 10.2618C21.3265 8.40906 20.4702 6.60222 19.0457 5.34382C18.1908 4.56405 17.1371 4.01428 16.0229 3.71049C15.095 3.43461 14.0905 3.24375 13.1325 3.48114C12.6612 3.58418 12.2949 3.91457 11.9174 4.19178C11.5977 4.43841 11.0858 4.45503 10.7973 4.1499C10.5374 3.87335 10.5613 3.41599 10.7853 3.12483C11.0831 2.73261 11.5757 2.55113 12.045 2.46671C12.7942 2.35503 13.5601 2.42815 14.2993 2.57573C14.5924 2.62625 14.8663 2.7612 15.1648 2.78314C15.103 2.73128 15.0425 2.67345 14.964 2.64885C13.156 2.06525 11.1777 2.04332 9.34955 2.55386Z" fill="#FEFFFE"/>
<path d="M9.5969 6.25995C10.0011 6.04722 10.5176 5.9834 10.9298 6.2081C11.2595 6.39689 11.3884 6.80572 11.3559 7.16669C11.2974 7.88331 10.951 8.54409 10.5156 9.10382C10.0449 9.67286 9.46461 10.1768 8.76926 10.4467C8.82244 10.6687 8.98996 10.9053 9.24125 10.904C9.68132 10.92 10.0629 10.6421 10.3793 10.3656C10.6067 10.1927 10.6186 9.89024 10.725 9.64627C10.8799 9.2647 11.0906 8.85786 11.4749 8.66508C11.655 8.56935 11.9302 8.55074 12.0545 8.74285C12.1902 9.00211 12.0672 9.29926 11.9369 9.53393C11.7587 9.87429 11.4769 10.1409 11.2528 10.4473C11.1684 10.7318 11.1531 11.031 11.1478 11.3261C11.4589 11.1885 11.7381 10.9924 12.0313 10.8222C12.5412 10.4925 13.0703 10.1854 13.5436 9.80382C13.5981 9.61968 13.5237 9.41892 13.5323 9.22747C13.5031 8.30078 13.8235 7.35083 14.455 6.66546C14.8479 6.25131 15.4396 5.95947 16.0179 6.10506C16.365 6.16821 16.6369 6.45007 16.7345 6.78179C16.8582 7.28236 16.6866 7.80553 16.4233 8.23165C15.97 8.94095 15.3106 9.48274 14.6431 9.98132C14.7322 10.2033 14.8592 10.4553 15.0991 10.5377C15.4428 10.4719 15.7925 10.3782 16.1442 10.448C16.3795 10.4972 16.662 10.5676 16.7771 10.8023C16.8834 11.031 16.6801 11.265 16.4713 11.3361C16.0272 11.481 15.5572 11.3993 15.1038 11.3647C14.5641 11.4937 14.0947 11.8506 13.7583 12.2855C13.2359 12.9722 13.0744 13.8809 13.188 14.7232C13.2964 15.4218 13.6473 16.1258 14.2643 16.5054C14.9589 16.9501 15.9601 16.8558 16.5358 16.2555C17.0789 15.695 17.2504 14.8029 16.9479 14.0829C16.8196 13.7665 16.5437 13.4967 16.1981 13.4428C15.7946 13.3517 15.3152 13.6143 15.2568 14.043C15.1982 14.3728 15.4296 14.646 15.625 14.882C15.776 15.0383 15.7939 15.3267 15.6065 15.4617C15.316 15.6604 14.9131 15.5209 14.6818 15.2901C14.1107 14.7265 14.1287 13.7087 14.6758 13.133C15.3711 12.3353 16.7558 12.32 17.4671 13.1058C18.2276 13.948 18.3233 15.2981 17.7384 16.2634C17.2996 17.0212 16.5086 17.5684 15.639 17.692C14.6931 17.8322 13.6713 17.5325 13.0065 16.8311C11.7062 15.5069 11.7268 13.1782 12.9673 11.8215C13.2989 11.4246 13.7371 11.1421 14.1765 10.8801C14.0814 10.7518 13.9817 10.6269 13.8806 10.5026C13.027 11.1215 12.1343 11.6839 11.2156 12.2004C11.06 12.2575 11.088 12.445 11.0654 12.5773C10.9836 13.7081 10.8872 14.8866 10.3248 15.8971C9.94457 16.611 9.36955 17.2652 8.59842 17.5591C7.98683 17.7897 7.24694 17.8103 6.68588 17.4387C6.14875 17.1016 5.90478 16.429 5.94599 15.816C6.03108 15.0362 6.47448 14.3322 7.03821 13.8031C7.812 13.0964 8.74998 12.6079 9.67069 12.1226C9.85815 12.0182 10.0622 11.9391 10.2298 11.8042C10.2916 11.6353 10.3009 11.4538 10.3182 11.277C9.84087 11.5655 9.23792 11.7975 8.68882 11.5762C8.24011 11.4033 7.9609 10.9739 7.81798 10.5338C7.39452 10.4886 6.96841 10.3197 6.69851 9.97806C6.22785 9.41367 6.19794 8.55546 6.5383 7.91927C6.65198 7.68993 6.90725 7.56695 7.1572 7.58224C7.20573 7.68062 7.2968 7.77834 7.26356 7.898C7.18911 8.31082 7.04419 8.7396 7.18113 9.15774C7.24894 9.44359 7.48559 9.6716 7.77942 9.71082C7.84191 9.03409 7.97353 8.3547 8.29196 7.74643C8.59177 7.15472 9.00126 6.58103 9.5969 6.25995ZM9.99509 6.92206C9.59357 7.19528 9.34894 7.63203 9.13754 8.05681C8.91019 8.53611 8.72672 9.05131 8.70611 9.58578C8.85967 9.51797 9.00459 9.42956 9.1289 9.31588C9.63146 8.87847 10.0709 8.35729 10.3654 7.75634C10.4691 7.53896 10.5588 7.29233 10.4997 7.04903C10.4232 6.85159 10.1566 6.79974 9.99509 6.92206ZM15.1916 7.13079C14.7222 7.67723 14.4644 8.40183 14.4723 9.12177C15.0015 8.68502 15.4895 8.17315 15.8185 7.56622C15.9129 7.3721 16.0379 7.05501 15.7985 6.91341C15.5805 6.80107 15.3345 6.96593 15.1916 7.13079ZM8.07524 14.1142C7.61396 14.5283 7.16385 15.0109 6.99639 15.6231C6.91596 15.9515 6.89734 16.3664 7.17322 16.611C7.46439 16.8769 7.90313 16.7978 8.23951 16.6715C8.88832 16.4215 9.27987 15.7933 9.54378 15.1831C9.85157 14.4252 10.0424 13.6182 10.1201 12.8039C9.38351 13.1443 8.69547 13.5924 8.07524 14.1142Z" fill="#FEFFFE"/>
<path d="M11.2041 1.03072C13.3745 0.865189 15.5895 1.37241 17.4735 2.46196C18.9805 3.33081 20.2834 4.55664 21.2267 6.0198C22.3981 7.80868 23.0176 9.9499 22.9996 12.0878C22.9857 14.3221 22.2744 16.5484 20.9748 18.3679C19.6566 20.2339 17.74 21.6711 15.5769 22.4063C13.6558 23.0711 11.5504 23.1754 9.56806 22.7314C7.48933 22.2681 5.55818 21.1746 4.08107 19.6409C2.51554 18.0195 1.4559 15.9089 1.13216 13.6759C0.813737 11.6869 1.07698 9.6122 1.8541 7.75617C2.57537 6.02977 3.75001 4.49947 5.22048 3.34477C6.92494 2.00061 9.03757 1.18095 11.2041 1.03072ZM11.2014 1.55854C9.91174 1.65094 8.64337 1.99596 7.4773 2.5537C5.60133 3.45778 3.99724 4.92692 2.95688 6.73243C1.40737 9.33698 1.10823 12.6329 2.12399 15.4841C2.77547 17.3382 3.9654 18.9921 5.50367 20.2126C7.29123 21.6305 9.5521 22.4475 11.8356 22.4668C13.5028 22.5034 15.178 22.1245 16.6664 21.374C18.563 20.4353 20.1564 18.9004 21.1748 17.047C22.1927 15.2069 22.6392 13.0511 22.4126 10.9591C22.1115 7.56412 19.9908 4.41844 16.9981 2.80571C15.2432 1.83841 13.1996 1.39567 11.2014 1.55854Z" fill="#3A73B8"/>
<path d="M9.34966 2.55376C11.1778 2.04322 13.1561 2.06516 14.9643 2.64882C15.0427 2.67342 15.1032 2.73125 15.165 2.7831C14.8666 2.76117 14.5928 2.62622 14.2995 2.5757C13.5603 2.42812 12.7944 2.35499 12.0453 2.46667C11.576 2.5511 11.0834 2.73258 10.7856 3.12479C10.5615 3.41596 10.5376 3.87332 10.7975 4.14987C11.086 4.45499 11.5979 4.43837 11.9177 4.19175C12.2952 3.91454 12.6615 3.58415 13.1328 3.48111C14.0907 3.24379 15.0952 3.43458 16.0232 3.71045C17.1373 4.01425 18.191 4.56402 19.046 5.34379C20.4706 6.60219 21.3268 8.40903 21.6518 10.2617C21.935 11.8426 21.8499 13.4945 21.3593 15.0261C21.342 15.0979 21.2962 15.1398 21.2217 15.1511C21.5063 14.1081 21.7177 13.0012 21.505 11.9243C21.3933 11.4045 21.1373 10.8181 20.5902 10.6407C20.1714 10.4924 19.6615 10.7803 19.6277 11.2356C19.5479 11.7229 19.9461 12.0739 20.1941 12.4388C20.7266 13.2033 20.6607 14.1945 20.5305 15.0714C20.2858 16.2586 19.8896 17.4406 19.1703 18.4298C18.0602 20.0232 16.292 21.0749 14.4232 21.5243C12.7992 21.9125 11.0782 21.9099 9.45682 21.5103C9.24343 21.4465 9.0008 21.4179 8.83527 21.2544C9.14438 21.2537 9.4309 21.388 9.73337 21.4358C10.5597 21.5861 11.4232 21.6791 12.2488 21.4724C12.623 21.3693 13.002 21.1912 13.2373 20.8708C13.4553 20.5716 13.4507 20.1136 13.1828 19.8464C12.9508 19.6017 12.5646 19.5513 12.2681 19.7054C11.9158 19.8962 11.6465 20.21 11.2869 20.3902C10.5617 20.7425 9.72007 20.6907 8.94628 20.5604C7.66328 20.3084 6.39557 19.8431 5.36119 19.0247C3.98765 17.969 3.03637 16.4294 2.57037 14.7715C2.07711 13.0358 2.07379 11.1705 2.52383 9.42546C2.60161 9.24464 2.5717 8.95946 2.77778 8.8737C2.51453 9.87085 2.30646 10.9159 2.46666 11.9489C2.54777 12.4076 2.70864 12.8936 3.08822 13.1913C3.35147 13.4087 3.76296 13.4885 4.05413 13.2797C4.36458 13.0983 4.46695 12.6675 4.3227 12.349C4.17113 11.9901 3.86334 11.7288 3.68718 11.3832C3.30627 10.6872 3.34815 9.85623 3.44919 9.0944C3.66192 7.87389 4.07607 6.668 4.79601 5.64958C5.86496 4.10067 7.54748 3.04037 9.34966 2.55376ZM9.59696 6.25984C9.00133 6.58092 8.59183 7.15461 8.29202 7.74626C7.9736 8.35452 7.84197 9.03391 7.77948 9.71064C7.48566 9.67142 7.249 9.44341 7.18119 9.15756C7.04425 8.73942 7.18917 8.31064 7.26363 7.89782C7.29686 7.77817 7.20579 7.68045 7.15726 7.58206C6.90731 7.56677 6.65204 7.68975 6.53836 7.9191C6.198 8.55528 6.22792 9.41349 6.69857 9.97788C6.96853 10.3196 7.39458 10.4884 7.81804 10.5336C7.96097 10.9737 8.24017 11.4031 8.68889 11.576C9.23798 11.7973 9.84093 11.5653 10.3182 11.2768C10.3009 11.4537 10.2916 11.6351 10.2298 11.804C10.0623 11.9389 9.85821 12.0181 9.67075 12.1224C8.75004 12.6077 7.81206 13.0962 7.03827 13.803C6.47455 14.332 6.03115 15.036 5.94606 15.8158C5.90484 16.4288 6.14881 17.1015 6.68594 17.4385C7.24694 17.8101 7.98689 17.7895 8.59848 17.5589C9.36961 17.2651 9.94463 16.6109 10.3249 15.897C10.8873 14.8865 10.9837 13.7078 11.0654 12.5771C11.088 12.4448 11.0601 12.2574 11.2157 12.2002C12.1344 11.6836 13.0272 11.1213 13.8807 10.5024C13.9818 10.6267 14.0815 10.7517 14.1765 10.88C13.7371 11.1419 13.299 11.4244 12.9673 11.8213C11.7269 13.1781 11.7063 15.5067 13.0065 16.8309C13.6713 17.5323 14.6931 17.8321 15.6391 17.6918C16.5086 17.5682 17.2996 17.021 17.7384 16.2633C18.3234 15.2979 18.2276 13.9479 17.4672 13.1056C16.7558 12.3199 15.3711 12.3351 14.6758 13.1329C14.1287 13.7086 14.1108 14.7263 14.6818 15.29C14.9132 15.5207 15.316 15.6602 15.6065 15.4615C15.794 15.3266 15.776 15.0381 15.6251 14.8818C15.4297 14.6458 15.1983 14.3726 15.2569 14.0429C15.3153 13.6141 15.7947 13.3515 16.1982 13.4426C16.5438 13.4965 16.8197 13.7663 16.948 14.0828C17.2505 14.8027 17.079 15.6948 16.5359 16.2553C15.9602 16.8556 14.959 16.95 14.2644 16.5052C13.6474 16.1257 13.2964 15.4217 13.188 14.723C13.0744 13.8807 13.236 12.972 13.7584 12.2853C14.0948 11.8505 14.5642 11.4936 15.1039 11.3645C15.5573 11.3991 16.0273 11.4809 16.4713 11.3359C16.6801 11.2648 16.8834 11.0308 16.7771 10.8021C16.6622 10.5675 16.3796 10.497 16.1443 10.4478C15.7926 10.378 15.4429 10.4717 15.0992 10.5375C14.8593 10.4551 14.7322 10.2032 14.6432 9.98114C15.3106 9.48256 15.9701 8.94078 16.4234 8.23147C16.6867 7.80535 16.8582 7.28218 16.7346 6.78161C16.6368 6.44989 16.365 6.16803 16.0179 6.10488C15.4397 5.9593 14.848 6.25113 14.4551 6.66528C13.8235 7.35065 13.5031 8.30061 13.5324 9.22729C13.5237 9.41875 13.5981 9.6195 13.5437 9.80365C13.0704 10.1852 12.5412 10.4923 12.0313 10.8221C11.7382 10.9923 11.459 11.1884 11.1479 11.326C11.1532 11.0308 11.1685 10.7317 11.2529 10.4471C11.4769 10.1407 11.7588 9.87411 11.9369 9.53375C12.0672 9.29909 12.1902 9.00194 12.0546 8.74268C11.9303 8.55056 11.6551 8.56917 11.4749 8.6649C11.0907 8.85768 10.88 9.26452 10.7251 9.6461C10.6187 9.89007 10.6067 10.1925 10.3794 10.3654C10.063 10.6419 9.68138 10.9198 9.24131 10.9038C8.99003 10.9052 8.8225 10.6685 8.76932 10.4465C9.46467 10.1765 10.045 9.67262 10.5157 9.10365C10.9511 8.54391 11.2974 7.88313 11.3559 7.16651C11.3885 6.80554 11.2595 6.39671 10.9298 6.20792C10.5177 5.98329 10.0011 6.04711 9.59696 6.25984Z" fill="#3A73B8"/>
<path d="M9.99513 6.92199C10.1567 6.79967 10.4232 6.85153 10.4997 7.04896C10.5588 7.29227 10.4691 7.53889 10.3654 7.75627C10.0709 8.35722 9.6315 8.8784 9.12894 9.31582C9.00462 9.42949 8.85971 9.51791 8.70614 9.58571C8.72675 9.05124 8.91023 8.53605 9.13758 8.05675C9.34897 7.63196 9.59361 7.19521 9.99513 6.92199ZM15.1916 7.13073C15.3345 6.96587 15.5805 6.801 15.7985 6.91335C16.0379 7.05494 15.9129 7.37204 15.8185 7.56615C15.4895 8.17308 15.0016 8.68495 14.4723 9.12171C14.4644 8.40176 14.7222 7.67717 15.1916 7.13073ZM8.07528 14.1141C8.69551 13.5923 9.38354 13.1442 10.1201 12.8039C10.0423 13.6182 9.85154 14.4252 9.54375 15.1831C9.27984 15.7933 8.88829 16.4215 8.23948 16.6715C7.90311 16.7977 7.46436 16.8769 7.17319 16.611C6.89731 16.3663 6.91593 15.9515 6.99636 15.6231C7.16388 15.0109 7.61393 14.5283 8.07528 14.1141Z" fill="#3A73B8"/>
</svg>
