<svg width="24" height="24" viewBox="0 0 24 24" fill="none" xmlns="http://www.w3.org/2000/svg">
<path d="M11.9999 22.9903L16.0507 9.46848H7.94897L11.9998 22.9903H11.9999Z" fill="#E24329"/>
<path d="M12 22.9902L7.94903 9.46838H2.27197L12 22.9902Z" fill="#FC6D26"/>
<path d="M2.27203 9.46838L1.04106 13.5776C0.986322 13.7603 0.986315 13.9571 1.04103 14.1398C1.09575 14.3225 1.20239 14.4817 1.34566 14.5946L12 22.9903L2.27194 9.46848L2.27203 9.46838Z" fill="#FCA326"/>
<path d="M2.27197 9.46843H7.94904L5.50936 1.32428C5.38381 0.905206 4.8372 0.905299 4.71173 1.32428L2.27197 9.46843Z" fill="#E24329"/>
<path d="M12 22.9902L16.0508 9.46838H21.728L11.9999 22.9902H12Z" fill="#FC6D26"/>
<path d="M21.728 9.46838L22.959 13.5776C23.0137 13.7603 23.0137 13.9571 22.9589 14.1398C22.9042 14.3225 22.7976 14.4817 22.6543 14.5946L12 22.9903L21.728 9.46848V9.46838Z" fill="#FCA326"/>
<path d="M21.7281 9.46843H16.0509L18.4907 1.32428C18.6162 0.905206 19.1628 0.905299 19.2883 1.32428L21.7281 9.46843Z" fill="#E24329"/>
</svg>
