<svg width="24" height="24" viewBox="0 0 24 24" fill="none" xmlns="http://www.w3.org/2000/svg">
<g clip-path="url(#clip0_12171_1731)">
<path d="M2.65956 10.4039C2.617 10.4039 2.60636 10.3826 2.62764 10.3507L2.85105 10.0634C2.87232 10.0315 2.92551 10.0102 2.96807 10.0102H6.76594C6.80849 10.0102 6.81913 10.0422 6.79785 10.0741L6.617 10.3507C6.59573 10.3826 6.54253 10.4145 6.51062 10.4145L2.65956 10.4039ZM1.05317 11.3826C1.01062 11.3826 0.999982 11.3613 1.02126 11.3294L1.24466 11.0422C1.26594 11.0102 1.31913 10.989 1.36168 10.989H6.21275C6.2553 10.989 6.27658 11.0209 6.26594 11.0528L6.18083 11.3081C6.17019 11.3507 6.12764 11.372 6.08509 11.372L1.05317 11.3826ZM3.62764 12.3613C3.58509 12.3613 3.57445 12.3294 3.59573 12.2975L3.74466 12.0315C3.76594 11.9996 3.80849 11.9677 3.85105 11.9677H5.9787C6.02126 11.9677 6.04253 11.9996 6.04253 12.0422L6.02126 12.2975C6.02126 12.34 5.9787 12.372 5.94679 12.372L3.62764 12.3613ZM14.6702 10.2124C14 10.3826 13.5425 10.5102 12.883 10.6805C12.7234 10.723 12.7127 10.7337 12.5744 10.5741C12.4149 10.3932 12.2979 10.2762 12.0744 10.1698C11.4042 9.84004 10.7553 9.93578 10.1489 10.3294C9.42551 10.7975 9.05317 11.489 9.06381 12.3507C9.07445 13.2017 9.65956 13.9039 10.5 14.0209C11.2234 14.1166 11.8298 13.8613 12.3085 13.3188C12.4042 13.2017 12.4893 13.0741 12.5957 12.9251H10.5425C10.3191 12.9251 10.2659 12.7868 10.3404 12.606C10.4787 12.2762 10.734 11.723 10.883 11.4464C10.9149 11.3826 10.9893 11.2762 11.1489 11.2762H15.0213C15 11.5634 15 11.8507 14.9574 12.1379C14.8404 12.9039 14.5532 13.606 14.0851 14.223C13.3191 15.2337 12.3191 15.8613 11.0532 16.0315C10.0106 16.1698 9.04253 15.9677 8.19147 15.3294C7.40424 14.7337 6.95743 13.9464 6.84041 12.9677C6.70211 11.8081 7.04253 10.7656 7.74466 9.85067C8.49998 8.86131 9.49998 8.23365 10.7234 8.01025C11.7234 7.8294 12.6808 7.94642 13.5425 8.53153C14.1064 8.90387 14.5106 9.4145 14.7766 10.0315C14.8404 10.1273 14.7979 10.1805 14.6702 10.2124Z" fill="#00ACD7"/>
<path d="M18.1914 16.0954C17.2234 16.0741 16.3404 15.7975 15.5957 15.1592C14.968 14.6166 14.5744 13.9251 14.4468 13.106C14.2553 11.9039 14.5851 10.84 15.3085 9.89323C16.0851 8.87195 17.0212 8.34004 18.2872 8.11663C19.3723 7.92514 20.3936 8.03153 21.3191 8.65919C22.1595 9.23365 22.6808 10.0103 22.8191 11.0315C23 12.4677 22.5851 13.6379 21.5957 14.6379C20.8936 15.3507 20.0319 15.7975 19.0425 15.9996C18.7553 16.0528 18.468 16.0634 18.1914 16.0954ZM20.7234 11.7975C20.7127 11.6592 20.7127 11.5528 20.6914 11.4464C20.5 10.3932 19.5319 9.79748 18.5212 10.0315C17.5319 10.2549 16.8936 10.8826 16.6595 11.8826C16.468 12.7124 16.8723 13.5528 17.6383 13.8932C18.2234 14.1485 18.8085 14.1166 19.3723 13.8294C20.2127 13.3932 20.6702 12.7124 20.7234 11.7975Z" fill="#00ACD7"/>
</g>
<defs>
<clipPath id="clip0_12171_1731">
<rect width="22" height="8.4392" fill="white" transform="translate(1 7.78)"/>
</clipPath>
</defs>
</svg>
