<svg width="24" height="24" viewBox="0 0 24 24" fill="none" xmlns="http://www.w3.org/2000/svg">
<g clip-path="url(#clip0_15000_4290)">
<path d="M9.93408 15.1718C9.93408 15.1718 10.8731 17.184 10.7926 17.6401C10.7122 18.0962 11.3019 15.8035 11.7584 15.4937C12.5097 14.984 9.93408 15.1718 9.93408 15.1718Z" fill="#3458D0"/>
<path d="M9.87531 17.2306C9.79788 17.7562 9.5099 19.8297 9.65359 20.1241C9.79711 20.4187 9.99648 20.1542 10.0101 19.9988C10.0237 19.8432 10.2486 15.4778 10.2486 15.4778C10.2486 15.4778 9.95274 16.7049 9.87531 17.2306Z" fill="#3458D0"/>
<path d="M10.0444 18.5296C10.0444 18.5296 9.88651 19.606 10.0292 19.7812C10.1718 19.9564 10.4277 19.8474 10.4156 19.3139C10.4036 18.7802 10.2413 15.4576 10.2413 15.4576L10.0444 18.5296Z" fill="#FF686C"/>
<path d="M10.2986 17.0855C10.2986 17.0855 10.2853 19.2155 10.4703 19.4183C10.6552 19.6212 10.9095 19.4252 10.8204 19.0102C10.7546 18.704 10.3203 16.0654 10.3203 16.0654L10.3062 15.9796L10.2341 15.5378L10.2986 17.0855Z" fill="#F49CB1"/>
<path d="M10.5915 18.0136C10.5915 18.0136 10.6829 18.7526 10.7967 18.8878C10.9105 19.023 11.2266 19.0087 11.0832 18.495C10.94 17.9814 10.2319 15.5645 10.2319 15.5645L10.5915 18.0137V18.0136Z" fill="#009EE5"/>
<path d="M10.5532 16.6635C10.5532 16.6635 10.8532 18.1281 11.0346 18.3341C11.2161 18.5403 11.5363 18.3466 11.3141 18.014C11.092 17.6814 10.2463 15.5091 10.2463 15.5091L10.5532 16.6635Z" fill="#009EE5"/>
<path d="M11.1671 7.13074L10.4439 6.64863L12.0535 4.76205L12.0532 4.77992C12.5872 4.10377 13.4699 3.66205 14.4683 3.66205C15.8753 3.66205 17.0523 4.90152 17.348 5.86188C17.9873 5.80533 18.7204 5.78608 19.4585 5.86205C21.5438 6.07672 22.9732 6.40715 22.9732 6.40715C22.9732 6.40715 19.4473 6.21766 17.3789 6.60807C17.1764 7.45078 16.2384 8.56856 15.0406 8.85276C15.1544 9.40053 15.2402 10.1092 15.1658 10.8524C15.0049 12.462 15.1658 12.1669 14.1464 13.562C13.1268 14.9572 11.0216 16.1521 10.2739 15.6523C9.52629 15.1525 8.8937 11.5983 9.00868 11.0707C9.10992 10.6064 10.7704 7.79736 11.1671 7.13074Z" fill="#3458D0"/>
<path d="M11.7825 7.02519C11.7825 7.02519 6.04105 3.72519 3.11659 4.39593C2.51271 4.53446 2.43743 4.90872 2.69825 5.41549C2.82174 5.65526 3.37578 5.76165 3.6293 6.04988C3.84698 6.29721 3.74961 6.7214 4.03518 6.98944C4.25045 7.19156 4.81025 7.18435 5.0513 7.39137C5.34745 7.64557 5.33 8.11436 5.64642 8.3659C7.56326 9.89017 9.66305 11.2642 9.66305 11.2642L11.7825 7.02519Z" fill="#3458D0"/>
<path d="M4.76588 4.35676C4.16466 4.2826 3.60185 4.28457 3.11673 4.39586C2.51268 4.53439 2.4374 4.90874 2.69831 5.41543C2.82171 5.65528 3.37575 5.76175 3.62935 6.04982C3.84695 6.29732 3.74966 6.72142 4.03515 6.98946C4.25051 7.1915 4.8103 7.18436 5.05127 7.3913C5.34741 7.6455 5.33006 8.11438 5.64639 8.36592C7.13431 9.54911 8.60487 10.248 9.18856 10.5016C8.79377 9.96161 8.12775 9.18696 7.09513 8.36592C6.77888 8.11438 6.79623 7.6455 6.50009 7.39139C6.25895 7.18436 5.69924 7.1915 5.48388 6.98946C5.1984 6.72142 5.29577 6.29723 5.07809 6.04982C4.82457 5.76167 4.27045 5.65536 4.14704 5.41543C3.88622 4.90874 3.9615 4.53439 4.56555 4.39586C4.6319 4.38071 4.6987 4.36767 4.76588 4.35676Z" fill="#FF686C"/>
<path d="M5.69641 4.51657C5.29791 4.42255 4.91566 4.35698 4.56822 4.33275C3.94328 4.28909 3.88605 4.90862 4.14687 5.41539C4.27036 5.65524 4.8244 5.76172 5.078 6.04978C5.29559 6.29711 5.19831 6.72138 5.4838 6.98934C5.69907 7.19146 6.25895 7.18441 6.49992 7.39127C6.79606 7.64547 6.77862 8.11434 7.09504 8.36588C9.01188 9.89007 9.7463 9.77904 9.7463 9.77904L9.8196 9.52853C9.47645 9.16759 9.05502 8.77237 8.54377 8.36588C8.22752 8.11434 8.2448 7.64547 7.94866 7.39135C7.7076 7.18433 7.14789 7.19146 6.93253 6.98934C6.64705 6.72138 6.74433 6.29711 6.52673 6.04978C6.27322 5.76163 5.71909 5.65533 5.59569 5.41539C5.39081 5.0175 5.39331 4.70108 5.69641 4.51657Z" fill="#F49CB1"/>
<path d="M10.3689 10.4498C10.3689 10.4498 8.35126 11.6573 6.7951 11.7913C6.45075 11.821 6.14704 11.3861 5.61466 11.3352C5.27134 11.3023 4.59166 11.6084 4.21947 11.5498C3.7206 11.4713 3.61584 11.0984 3.14636 10.9863C2.71195 10.8825 2.24222 11.1067 1.90981 10.9863C1.40699 10.8043 1.06298 10.6098 1.00549 10.423C0.790818 9.72547 6.93475 7.79376 8.41038 7.79376C9.88593 7.79376 11.0396 8.11568 11.0396 8.11568L10.3689 10.4498Z" fill="#3458D0"/>
<path d="M1.36144 9.99225C1.10509 10.1583 0.970424 10.3052 1.00549 10.4193C1.06298 10.606 1.40699 10.8005 1.90981 10.9826C2.2423 11.1029 2.71195 10.8789 3.14636 10.9826C3.61584 11.0947 3.7206 11.4675 4.21955 11.5461C4.59166 11.6048 5.27134 11.2987 5.61466 11.3315C6.14704 11.3825 6.45074 11.8173 6.7951 11.7876C8.35125 11.6535 9.66584 11.2816 9.66584 11.2816L9.66085 11.2468C9.44936 11.1952 8.21109 10.9143 6.7951 11.0364C6.45074 11.066 6.14704 10.6312 5.61466 10.5802C5.27134 10.5474 4.59174 10.8535 4.21955 10.7949C3.7206 10.7164 3.61584 10.3435 3.14636 10.2313C2.71195 10.1276 2.2423 10.3517 1.90972 10.2313C1.69462 10.1535 1.50839 10.0732 1.36144 9.99242V9.99225Z" fill="#FF686C"/>
<path d="M1.3562 9.98944C1.50401 10.0712 1.69196 10.1525 1.90972 10.2313C2.24213 10.3517 2.71187 10.1275 3.14619 10.2313C3.61567 10.3434 3.72051 10.7162 4.21938 10.7948C4.59158 10.8535 5.27126 10.5473 5.61449 10.5802C6.14687 10.6311 6.45066 11.066 6.79501 11.0363C8.35108 10.9023 9.66576 11.2547 9.66576 11.2547L9.66352 11.2272C9.48477 11.0628 8.49529 10.2214 7.09012 10.3425C6.74577 10.3722 6.14687 9.87995 5.61458 9.82899C5.27117 9.79616 4.59158 10.1023 4.21938 10.0436C3.72051 9.96503 3.87065 9.83277 3.11938 9.61819C2.40584 9.41426 1.4503 9.9365 1.3562 9.98944Z" fill="#F49CB1"/>
<path d="M11.1391 7.11132L11.1681 7.13074C11.1667 7.1332 11.1653 7.13566 11.1638 7.13813C11.4334 7.42706 11.8161 7.71443 12.3231 7.82056C13.4765 8.06205 14.3887 8.51803 15.1935 10.154C15.1835 9.67235 15.119 9.2253 15.0416 8.85267C16.2396 8.56856 17.1776 7.45069 17.38 6.60799C19.4485 6.21766 22.9742 6.40706 22.9742 6.40706C22.9742 6.40706 21.5448 6.07672 19.4597 5.86205C18.7215 5.78608 17.9884 5.80533 17.349 5.86179C17.0534 4.90152 15.8763 3.66205 14.4693 3.66205C13.4709 3.66205 12.5883 4.10377 12.0542 4.77984L12.0548 4.76205L10.6584 6.39838L10.6597 6.39864C10.6597 6.39864 10.812 6.75185 11.1391 7.11132Z" fill="#3458D0"/>
<path d="M15.0585 4.68152C15.7697 4.68152 16.3463 5.25816 16.3463 5.96929C16.3463 6.6806 15.7697 7.25715 15.0585 7.25715C14.3473 7.25715 13.7708 6.6806 13.7708 5.96929C13.7708 5.25807 14.3474 4.68152 15.0585 4.68152Z" fill="black"/>
<path d="M16.3281 6.18669C16.2248 6.79444 15.6957 7.25713 15.0585 7.25713C14.3473 7.25713 13.7708 6.68049 13.7708 5.96935C13.7708 5.25813 14.3474 4.68158 15.0585 4.68158C15.7697 4.68158 16.3464 5.25813 16.3464 5.96935V5.98362C16.3395 5.44118 15.8978 5.0035 15.3536 5.0035C14.8054 5.0035 14.3611 5.44797 14.3611 5.99608C14.3611 6.54436 14.8054 6.98883 15.3536 6.98883C15.8368 6.98883 16.2391 6.64379 16.3281 6.18669Z" fill="white"/>
<path d="M15.6487 6.02301C15.7199 6.02301 15.7881 6.05128 15.8385 6.10161C15.8888 6.15193 15.9171 6.22018 15.9171 6.29135C15.9171 6.36252 15.8888 6.43077 15.8385 6.4811C15.7881 6.53142 15.7199 6.55969 15.6487 6.55969C15.5775 6.55969 15.5093 6.53142 15.459 6.4811C15.4086 6.43077 15.3804 6.36252 15.3804 6.29135C15.3804 6.22018 15.4086 6.15193 15.459 6.10161C15.5093 6.05128 15.5775 6.02301 15.6487 6.02301Z" fill="white"/>
</g>
<defs>
<clipPath id="clip0_15000_4290">
<rect width="22" height="16.676" fill="white" transform="translate(1 3.65997)"/>
</clipPath>
</defs>
</svg>
