<svg width="24" height="24" viewBox="0 0 24 24" fill="none" xmlns="http://www.w3.org/2000/svg">
<g clip-path="url(#clip0_15000_4362)">
<path d="M20.4775 16.4367H13.0452C12.9253 16.4367 12.809 16.477 12.7151 16.5521L7.17643 20.9557C7.03331 21.0693 7.11381 21.2983 7.29718 21.2983H20.5625C21.8738 21.2983 23.0527 20.1211 22.9606 18.7051C22.8765 17.4135 21.7763 16.4367 20.4775 16.4367Z" fill="#00C9DB"/>
<path d="M14.4647 11.8399C14.4647 11.8337 14.4638 11.8274 14.463 11.8203C14.4218 11.1566 14.1096 10.5116 13.5425 10.0689L4.91963 3.21348C3.86681 2.39055 2.3435 2.57571 1.51699 3.62584C0.690478 4.67687 0.874743 6.19482 1.92666 7.01775L8.17826 11.9875L1.92666 16.9573C0.874743 17.7794 0.690478 19.2982 1.51699 20.3483C2.3435 21.3985 3.86681 21.5836 4.91963 20.7607L13.5434 13.9044C14.1105 13.4617 14.4227 12.8167 14.4638 12.153C14.4647 12.1468 14.4647 12.1405 14.4656 12.1333C14.4683 12.0841 14.4692 12.0358 14.4692 11.9866C14.4692 11.9383 14.4674 11.8891 14.4647 11.8399Z" fill="#0D55FF"/>
<path d="M23 18.867C23 20.2097 21.9096 21.2974 20.5625 21.2974C19.2172 21.2974 18.1268 20.2088 18.1268 18.867C18.1268 17.5253 19.2172 16.4367 20.5625 16.4367C21.9096 16.4367 23 17.5253 23 18.867Z" fill="#7000F2"/>
</g>
<defs>
<clipPath id="clip0_15000_4362">
<rect width="22" height="18.5983" fill="white" transform="translate(1 2.70001)"/>
</clipPath>
</defs>
</svg>
