<svg width="24" height="24" viewBox="0 0 24 24" fill="none" xmlns="http://www.w3.org/2000/svg">
<path d="M8.58564 15.1929C8.15286 14.9005 7.85328 14.4735 7.6897 13.9091L8.69418 13.4951C8.78536 13.8425 8.94456 14.1117 9.17182 14.3027C9.39762 14.4938 9.67262 14.5879 9.99394 14.5879C10.3225 14.5879 10.6047 14.488 10.8406 14.2883C11.0766 14.0885 11.1953 13.8338 11.1953 13.5255C11.1953 13.21 11.0708 12.9523 10.8218 12.7526C10.5729 12.5529 10.2603 12.453 9.88682 12.453H9.30644V11.4586H9.82748C10.1488 11.4586 10.4195 11.3718 10.6395 11.1981C10.8595 11.0244 10.9695 10.7871 10.9695 10.4846C10.9695 10.2154 10.871 10.0011 10.6742 9.84052C10.4773 9.67986 10.2284 9.59882 9.92588 9.59882C9.6306 9.59882 9.39616 9.67698 9.22243 9.83476C9.04876 9.99255 8.92281 10.1865 8.84324 10.4151L7.8489 10.0012C7.9806 9.62774 8.22234 9.29774 8.57692 9.01264C8.93154 8.7275 9.38456 8.5842 9.93456 8.5842C10.3413 8.5842 10.7074 8.66236 11.0317 8.82014C11.3559 8.97792 11.6106 9.19646 11.7945 9.47434C11.9783 9.75368 12.0695 10.0663 12.0695 10.4137C12.0695 10.7683 11.9841 11.0679 11.8133 11.314C11.6425 11.56 11.4326 11.7482 11.1837 11.8799V11.9392C11.5122 12.0767 11.78 12.2866 11.9913 12.5689C12.2012 12.8511 12.3068 13.1883 12.3068 13.582C12.3068 13.9757 12.207 14.3274 12.0072 14.6357C11.8075 14.944 11.531 15.1872 11.1807 15.3637C10.829 15.5403 10.4339 15.63 9.99536 15.63C9.48734 15.6315 9.01842 15.4853 8.58564 15.1929Z" fill="#0085F7"/>
<path d="M14.7558 10.2082L13.6529 11.0057L13.1014 10.1691L15.08 8.74198H15.8384V15.4737H14.7558V10.2082Z" fill="#0085F7"/>
<path d="M17.7895 17.7895H6.21058L4.5531 20.2317L6.21058 23H17.7895L19.1589 20.0547L17.7895 17.7895Z" fill="#00A94B"/>
<path d="M17.7895 1H2.73684C1.77722 1 1 1.77722 1 2.73684V17.7895L3.60528 19.6416L6.21056 17.7895V6.21052H17.7895L19.572 3.60524L17.7895 1Z" fill="#0085F7"/>
<path d="M1 17.7895V21.2632C1 22.2228 1.77722 23 2.73684 23H6.21052V17.7895H1Z" fill="#00802E"/>
<path d="M22.9999 6.21052L20.3947 4.53414L17.7894 6.21052V17.7895L20.1325 19.0125L22.9999 17.7895V6.21052Z" fill="#FFBC00"/>
<path d="M22.9999 6.21052V2.73684C22.9999 1.77722 22.2227 1 21.2631 1H17.7894V6.21052H22.9999Z" fill="#0067D5"/>
<path d="M17.7894 23L22.9999 17.7895H17.7894V23Z" fill="#FF4131"/>
</svg>
