<svg width="24" height="24" viewBox="0 0 24 24" fill="none" xmlns="http://www.w3.org/2000/svg">
<path d="M22.9999 20.2469C23.009 21.7574 21.6605 22.9873 19.9893 22.9955C19.8651 22.9964 19.7399 22.9901 19.6167 22.9765C18.0658 22.7692 16.9297 21.5502 16.9677 20.1347V3.86058C16.9307 2.44331 18.0698 1.22425 19.6217 1.01881C21.2817 0.843233 22.7855 1.91659 22.9799 3.41621C22.9939 3.52663 23.0009 3.63704 22.9999 3.74836V20.2469Z" fill="#F9AB00"/>
<path d="M4.01661 17.55C5.68271 17.55 7.03322 18.7699 7.03322 20.275C7.03322 21.78 5.68271 23 4.01661 23C2.35051 23 1 21.78 1 20.275C1 18.7699 2.35051 17.55 4.01661 17.55ZM11.9534 9.29162C10.2793 9.37488 8.98084 10.6428 9.01991 12.1569V19.4758C9.01991 21.4624 9.98771 22.6679 11.4053 22.9249C13.0414 23.2244 14.6354 22.2696 14.967 20.7917C15.008 20.6107 15.0281 20.427 15.0271 20.2424V12.0302C15.0301 10.5197 13.6776 9.29343 12.0055 9.29071C11.9884 9.29071 11.9704 9.29071 11.9534 9.29162Z" fill="#E37400"/>
</svg>
