<svg width="24" height="24" viewBox="0 0 24 24" fill="none" xmlns="http://www.w3.org/2000/svg">
<path fill-rule="evenodd" clip-rule="evenodd" d="M22.9844 17.4129C22.9844 17.5377 22.9792 17.7926 22.974 17.9955C22.9584 18.4845 22.9168 19.1244 22.8596 19.4157C22.766 19.8527 22.636 20.2637 22.4644 20.607C22.2512 21.0128 21.9913 21.3769 21.6793 21.6891C21.3621 22.0012 20.9981 22.2665 20.5977 22.4746C20.2546 22.6463 19.8334 22.7867 19.3966 22.8751C19.1106 22.9376 18.4762 22.9688 17.9875 22.9896C17.7899 23 17.5247 23 17.4051 23H6.5689C6.4493 23 6.18932 22.9948 5.98653 22.9844C5.49776 22.9688 4.85819 22.9272 4.56701 22.8647C4.13023 22.7763 3.72465 22.6411 3.38147 22.4694C2.97589 22.2613 2.61711 21.996 2.29993 21.6839C1.98275 21.3717 1.72796 21.0128 1.51997 20.607C1.34318 20.2637 1.20799 19.8423 1.11959 19.4105C1.0676 19.1244 1.0208 18.4897 1.0104 17.9955C1.0052 17.7926 1 17.5325 1 17.4129L1.0052 6.57673C1.0052 6.45708 1.0052 6.19697 1.0104 5.99409C1.026 5.49988 1.0676 4.86001 1.12479 4.57389C1.21319 4.13171 1.34838 3.72594 1.51997 3.3826C1.72796 2.98203 1.99835 2.61267 2.31033 2.30054C2.62231 1.98841 2.98629 1.7231 3.38667 1.52022C3.72985 1.34334 4.14583 1.21329 4.593 1.12485C4.87379 1.06763 5.50815 1.03121 6.00213 1.0104C6.18932 1 6.4545 1 6.5741 1H17.4051C17.5299 1 17.7899 1.0052 17.9875 1.0104C18.4866 1.02601 19.121 1.06763 19.4122 1.13005C19.8438 1.21329 20.2598 1.34855 20.5977 1.52542C21.0085 1.73351 21.3725 1.99882 21.6845 2.31095C21.9965 2.62828 22.2564 2.99243 22.4696 3.3982C22.6464 3.74155 22.7816 4.15252 22.87 4.5895C22.9272 4.88082 22.9688 5.51029 22.9844 5.99929C22.9948 6.20738 23 6.46228 23 6.58193L22.9844 17.4129Z" fill="#289245"/>
<path d="M17.1868 10.3692V8.19464H17.6339V10.0622C17.5143 10.1246 17.3479 10.2391 17.1868 10.3692ZM16.412 11.0246C16.5524 10.8582 16.698 10.6917 16.8592 10.5564V8.19464H16.412V11.0246ZM11.2539 12.7465C11.2539 13.3344 11.4879 13.8806 11.9038 14.302C12.325 14.7182 12.871 14.9523 13.4534 14.9523C13.7029 14.9523 13.9577 14.895 14.1293 14.8118V14.3696C13.9161 14.4581 13.6665 14.5049 13.4534 14.5049C12.4966 14.5049 11.6958 13.7037 11.6958 12.7517V12.3512C11.6958 11.3992 12.4966 10.598 13.4534 10.598C13.9213 10.598 14.3737 10.7801 14.6961 11.1079C15.0289 11.4356 15.2057 11.8778 15.2057 12.3512V14.9523H15.658V12.2679C15.6268 11.7009 15.3824 11.1651 14.9717 10.7697C14.5505 10.3692 14.0201 10.1559 13.4534 10.1559C12.871 10.1559 12.3198 10.3848 11.9038 10.8009C11.4879 11.2223 11.2539 11.7685 11.2539 12.3512V12.7465ZM17.9251 11.6801C18.1227 11.4772 18.3879 11.3628 18.6427 11.3628C19.199 11.3628 19.6202 11.7893 19.6202 12.3408V12.7413C19.6202 13.2928 19.1938 13.7194 18.6427 13.7194C18.3775 13.7194 18.1175 13.5737 17.9199 13.3084C17.7431 13.0743 17.6235 12.7569 17.6079 12.476L17.2491 12.9182C17.3167 13.2512 17.4935 13.5685 17.7431 13.8026C18.0031 14.0367 18.3203 14.1667 18.6427 14.1667C19.4278 14.1667 20.0726 13.5269 20.0726 12.7361V12.3356C20.0726 11.961 19.9218 11.6073 19.6462 11.3316C19.3758 11.061 19.0171 10.9102 18.6427 10.9102C18.4087 10.9102 18.0343 10.9934 17.5871 11.394L17.5819 11.3992C17.4675 11.5188 17.1868 11.7945 17.01 11.9922C16.724 12.3044 16.308 12.783 15.9544 13.2564V13.9482C16.3496 13.4384 16.5784 13.1627 16.9476 12.7361C17.2803 12.3564 17.6911 11.883 17.9251 11.6801ZM7.39568 10.8425V10.3119C6.99531 10.0934 6.55333 9.9998 5.97096 9.9998C5.37819 9.9998 4.81142 10.2131 4.37985 10.6137C3.95347 11.009 3.71428 11.5344 3.71428 12.0859V12.2263C3.71428 13.3812 4.63463 14.3124 5.76817 14.3124C6.69372 14.3124 7.0733 14.0107 7.1669 13.917V12.5749H5.65898V13.0223H6.75092V13.6933H6.74572C6.60013 13.7506 6.30894 13.865 5.76297 13.865C5.3314 13.865 4.92582 13.6933 4.62423 13.3916C4.31745 13.0847 4.14586 12.6685 4.14586 12.2263V12.0859C4.14586 11.1911 4.97781 10.442 5.96056 10.442C6.64692 10.4472 7.0525 10.5616 7.39568 10.8425ZM10.6455 11.368C10.8119 11.368 10.9575 11.394 11.0719 11.446C11.1291 11.3107 11.1811 11.1963 11.2643 11.0558C11.1447 10.9674 10.8587 10.9154 10.6403 10.9154C9.82915 10.9154 9.21038 11.5292 9.21038 12.346V14.9471H9.65756V12.346C9.66276 11.7685 10.0631 11.368 10.6455 11.368ZM2.93433 12.0911V12.2315C2.93433 13.0067 3.23071 13.7194 3.76108 14.2604C4.28625 14.7962 4.99861 15.0875 5.76297 15.0875C6.37654 15.0875 6.91731 14.9523 7.36968 14.6713C7.74926 14.4529 7.92085 14.224 7.93125 14.2032V11.805H5.65898V12.2523H7.49448V14.0679C7.27609 14.2812 6.77172 14.6453 5.76817 14.6453C5.11821 14.6453 4.50984 14.4008 4.07306 13.9482C3.62589 13.4957 3.3815 12.887 3.3815 12.2367V12.0963C3.3815 11.472 3.66229 10.8582 4.14586 10.4004C4.63983 9.93217 5.2898 9.67726 5.97096 9.67726C6.60533 9.67726 7.0473 9.7761 7.39568 9.98939V9.48478C7.0265 9.32872 6.58453 9.25588 5.97096 9.25588C4.32785 9.25588 2.93433 10.5564 2.93433 12.0911ZM14.8781 14.9471V12.346C14.8781 11.5448 14.2541 10.9154 13.4534 10.9154C13.0842 10.9154 12.7254 11.0662 12.4498 11.3368C12.1794 11.6125 12.0286 11.9662 12.0286 12.3408V12.7413C12.0286 13.5165 12.6838 14.1719 13.4534 14.1719C13.6665 14.1719 13.9577 14.1147 14.1293 13.9691V13.5009C13.9525 13.6413 13.7029 13.7194 13.4534 13.7194C12.9074 13.7194 12.4706 13.2928 12.4706 12.7413V12.3408C12.4706 11.7841 12.9022 11.3628 13.4534 11.3628C14.0045 11.3628 14.4361 11.7893 14.4361 12.3408V14.9419H14.8781V14.9471ZM10.6455 10.5928C10.9471 10.5928 11.2071 10.6553 11.4463 10.7905C11.5555 10.6501 11.6751 10.5408 11.7582 10.4524C11.5087 10.2599 11.0823 10.1507 10.6507 10.1507C10.0319 10.1507 9.46517 10.3692 9.06999 10.7749C8.66961 11.1807 8.44603 11.7321 8.44603 12.3512V14.9523H8.8984V12.3512C8.8932 11.3107 9.61076 10.5928 10.6455 10.5928ZM20.1922 10.7957C19.7762 10.3744 19.2198 10.1507 18.6427 10.1507C18.2163 10.1507 17.7951 10.3015 17.5611 10.4576C17.0776 10.7801 16.672 11.1339 15.9596 12.0599V12.7257C16.5732 11.9298 17.1452 11.3107 17.5871 10.9622C17.8731 10.7333 18.2787 10.5876 18.6479 10.5876C19.5994 10.5876 20.4002 11.3888 20.4002 12.3408V12.7413C20.4002 13.2147 20.2182 13.6517 19.8802 13.9795C19.5474 14.3176 19.1106 14.4945 18.6427 14.4945C17.8627 14.4945 17.1712 13.9587 16.9892 13.2251L16.672 13.5997C16.9008 14.3748 17.7275 14.9419 18.6427 14.9419C19.225 14.9419 19.7762 14.713 20.1922 14.2916C20.6134 13.8754 20.8422 13.324 20.8422 12.7361V12.3356C20.8422 11.7633 20.6134 11.2171 20.1922 10.7957Z" fill="white"/>
</svg>
