<svg width="24" height="24" viewBox="0 0 24 24" fill="none" xmlns="http://www.w3.org/2000/svg">
<path d="M1 1H23V23H1V1Z" fill="#CF4547"/>
<path d="M8.61208 12.1466C8.60174 12.1616 8.58364 12.2086 8.55693 12.2883C8.53021 12.3681 8.49789 12.4676 8.45997 12.5874C8.42205 12.7072 8.38068 12.8416 8.33673 12.9899C8.29234 13.1381 8.24667 13.2898 8.20013 13.4441C8.15316 13.5988 8.10834 13.75 8.06525 13.8987C8.02216 14.0469 7.98338 14.1814 7.94934 14.3011C7.91529 14.4209 7.88685 14.5213 7.86402 14.6028C7.84118 14.6838 7.82739 14.7316 7.82222 14.7467C7.80972 14.7945 7.78947 14.848 7.76146 14.9066C7.73345 14.9652 7.7007 15.0203 7.66278 15.0729C7.62486 15.1255 7.58306 15.169 7.53738 15.2035C7.4917 15.238 7.44474 15.2552 7.3969 15.2552C7.31589 15.2552 7.25686 15.228 7.22023 15.1742C7.1836 15.1203 7.16507 15.0212 7.16507 14.8773V14.8144C7.16507 14.7933 7.16636 14.7708 7.16895 14.7471C7.17154 14.6993 7.1905 14.6093 7.22583 14.477C7.26117 14.3451 7.30383 14.196 7.35295 14.0292C7.40207 13.8625 7.45551 13.6905 7.51239 13.5117C7.56927 13.3333 7.62055 13.1734 7.66623 13.0325C7.53178 13.1825 7.38656 13.3316 7.22928 13.4802C7.07242 13.6289 6.91126 13.7621 6.74708 13.8806C6.58247 13.9991 6.41657 14.096 6.24938 14.1706C6.08218 14.2456 5.92145 14.283 5.76718 14.283C5.59008 14.283 5.43753 14.2438 5.30955 14.1663C5.18157 14.0883 5.076 13.9861 4.9924 13.8603C4.9088 13.7345 4.84675 13.5919 4.80624 13.4328C4.76574 13.2738 4.74548 13.1148 4.74548 12.9558V12.8972C4.74548 12.8791 4.74678 12.8615 4.74936 12.8434C4.76444 12.5555 4.80581 12.2599 4.8726 11.957C4.93983 11.654 5.02773 11.3524 5.13675 11.0529C5.24578 10.753 5.3716 10.46 5.51467 10.1734C5.65773 9.88684 5.81329 9.61622 5.98178 9.36155C6.15027 9.10688 6.3291 8.87203 6.51913 8.65744C6.70916 8.44284 6.90394 8.25841 7.10388 8.10414C7.30383 7.94987 7.50592 7.82922 7.70975 7.74217C7.91357 7.65512 8.11567 7.6116 8.31561 7.6116C8.54615 7.6116 8.76894 7.67452 8.98396 7.80034C9.19899 7.92617 9.40023 8.13043 9.58768 8.41224C9.63077 8.47516 9.65792 8.53893 9.66912 8.60357C9.68032 8.66821 9.68636 8.72897 9.68636 8.78585C9.68636 8.92073 9.65404 9.02716 9.5894 9.10516C9.52476 9.18315 9.44806 9.22194 9.35972 9.22194C9.27871 9.22194 9.2033 9.17928 9.13392 9.09352C9.06411 9.0082 8.98655 8.88582 8.90037 8.72681C8.81935 8.58289 8.73015 8.47861 8.63277 8.41397C8.53538 8.34933 8.42938 8.31744 8.31561 8.31744C8.13851 8.31744 7.94891 8.39113 7.74767 8.53807C7.54643 8.68501 7.34692 8.87936 7.14956 9.12067C6.9522 9.36198 6.7626 9.63777 6.58161 9.94846C6.40063 10.2587 6.24033 10.5767 6.10114 10.9021C5.96196 11.2274 5.85121 11.5485 5.76891 11.8647C5.6866 12.181 5.64566 12.4654 5.64566 12.7175C5.64566 12.8016 5.65127 12.8877 5.6629 12.9761C5.67454 13.0644 5.69565 13.145 5.72754 13.217C5.759 13.2889 5.80209 13.3484 5.85681 13.3945C5.91111 13.441 5.98005 13.4643 6.06365 13.4643C6.15716 13.4643 6.2636 13.4328 6.38253 13.3699C6.50146 13.307 6.62513 13.2247 6.75269 13.1226C6.88067 13.0205 7.00908 12.905 7.13835 12.7761C7.26763 12.6473 7.38785 12.5167 7.49903 12.3849C7.61021 12.253 7.70932 12.1263 7.79507 12.0048C7.88125 11.8833 7.94589 11.7777 7.98855 11.6876L8.3419 10.6306C8.38499 10.5168 8.44144 10.4358 8.51082 10.3876C8.58063 10.3397 8.65216 10.3156 8.72541 10.3156C8.76075 10.3156 8.79608 10.3216 8.83185 10.3337C8.86719 10.3458 8.89907 10.3643 8.92665 10.3902C8.95466 10.4156 8.97664 10.4488 8.99301 10.4893C9.00939 10.5298 9.01757 10.5772 9.01757 10.631C9.01757 10.775 9.00508 10.9098 8.97965 11.0361C8.95423 11.1624 8.92191 11.2852 8.8827 11.405C8.84349 11.5248 8.79996 11.6458 8.7517 11.7669C8.7043 11.8876 8.65733 12.0143 8.61208 12.1466ZM13.4013 13.0282C13.2897 13.1782 13.16 13.3243 13.0122 13.4669C12.8639 13.6095 12.7114 13.7362 12.5545 13.847C12.3977 13.9577 12.243 14.0469 12.0913 14.1146C11.9392 14.1822 11.8026 14.2158 11.6811 14.2158C11.5595 14.2158 11.4609 14.1753 11.3846 14.0943C11.3088 14.0133 11.2708 13.8754 11.2708 13.6802C11.2708 13.5423 11.2911 13.3816 11.3316 13.1989C11.2657 13.3161 11.1834 13.4346 11.0847 13.5544C10.986 13.6742 10.8731 13.7836 10.7464 13.8827C10.6197 13.9818 10.4779 14.062 10.3211 14.1232C10.1642 14.1848 9.99317 14.2154 9.8083 14.2154C9.72471 14.2154 9.64412 14.2051 9.56699 14.1839C9.48986 14.1628 9.4222 14.1271 9.36403 14.0762C9.30586 14.0254 9.25889 13.9573 9.22355 13.8715C9.18822 13.7862 9.17055 13.6789 9.17055 13.5501C9.17055 13.547 9.17572 13.5014 9.18563 13.413C9.19554 13.3247 9.22786 13.1851 9.28259 12.9946C9.33688 12.8041 9.42134 12.5577 9.5351 12.2547C9.6493 11.9518 9.81003 11.5846 10.0173 11.1524C10.0703 11.0387 10.1319 10.9568 10.2013 10.9072C10.2711 10.8577 10.3461 10.8331 10.4271 10.8331C10.4624 10.8331 10.4991 10.8383 10.5374 10.8486C10.5753 10.8594 10.6107 10.8758 10.6438 10.8982C10.6766 10.9206 10.7033 10.949 10.7236 10.9835C10.7438 11.018 10.7542 11.0576 10.7542 11.1029C10.7542 11.133 10.7503 11.1615 10.7425 11.1882C10.73 11.2395 10.7029 11.3058 10.6607 11.3886C10.6189 11.4713 10.5702 11.5657 10.5146 11.6721C10.459 11.7786 10.4 11.8932 10.3379 12.0164C10.2758 12.1392 10.2181 12.2668 10.1651 12.3987C10.1121 12.5305 10.0664 12.665 10.0285 12.8011C9.99058 12.9377 9.96904 13.0704 9.96386 13.1993C9.96386 13.2532 9.97636 13.3027 10.0018 13.348C10.0272 13.3928 10.069 13.4156 10.1272 13.4156C10.2918 13.4156 10.4486 13.3617 10.5982 13.2536C10.7477 13.1459 10.8856 13.0114 11.0123 12.8511C11.139 12.6908 11.2536 12.5184 11.3562 12.3336C11.4587 12.1491 11.5445 11.9807 11.6125 11.8277C11.6608 11.7256 11.703 11.6161 11.7397 11.4993C11.7763 11.3825 11.8164 11.2744 11.8595 11.1753C11.9026 11.0762 11.9517 10.9939 12.0077 10.9279C12.0633 10.862 12.1331 10.8288 12.2167 10.8288C12.3076 10.8288 12.38 10.8633 12.433 10.9322C12.486 11.0012 12.5127 11.0839 12.5127 11.1796C12.5127 11.2335 12.4959 11.308 12.4614 11.4024C12.427 11.4967 12.3843 11.6049 12.3322 11.7264C12.2805 11.8479 12.224 11.9776 12.1633 12.1155C12.1025 12.2534 12.046 12.3939 11.9943 12.5361C11.9422 12.6787 11.8995 12.8179 11.8651 12.9545C11.831 13.0911 11.8138 13.2178 11.8138 13.3346C11.8138 13.4428 11.8694 13.4966 11.981 13.4966C12.0594 13.4966 12.1568 13.4695 12.2736 13.4156C12.3903 13.3617 12.5123 13.2859 12.6403 13.1885C12.7683 13.0911 12.8958 12.9765 13.0238 12.8442C13.1518 12.7124 13.2651 12.5697 13.3638 12.4167L13.4013 13.0282Z" fill="white"/>
<path d="M13.5193 12.8032C13.4913 12.8721 13.4642 12.9523 13.4374 13.0441C13.4107 13.1354 13.3978 13.2173 13.3978 13.2892C13.3978 13.3341 13.4056 13.3703 13.4206 13.3974C13.4357 13.4246 13.465 13.4379 13.5081 13.4379C13.5611 13.4379 13.6275 13.4194 13.7076 13.3815C13.7873 13.344 13.8735 13.2944 13.9657 13.2328C14.0584 13.1716 14.1545 13.1009 14.2545 13.0212C14.3544 12.9419 14.454 12.8592 14.5526 12.7739C14.6513 12.6881 14.7457 12.6028 14.8358 12.5175C14.9258 12.4317 15.006 12.3533 15.0771 12.2813C15.0973 12.2602 15.1214 12.2451 15.149 12.2365C15.1766 12.2275 15.2007 12.2232 15.221 12.2232C15.2714 12.2232 15.3136 12.2443 15.3464 12.2861C15.3791 12.3279 15.3955 12.3835 15.3955 12.4524C15.3955 12.5153 15.3778 12.586 15.3425 12.664C15.3072 12.742 15.2451 12.8187 15.1564 12.8932C14.9943 13.0703 14.831 13.238 14.6664 13.397C14.5018 13.556 14.3381 13.696 14.1747 13.8176C14.0114 13.9391 13.8494 14.0356 13.6887 14.108C13.5279 14.18 13.3715 14.2157 13.2194 14.2157C13.1156 14.2157 13.0289 14.1993 12.9591 14.1662C12.8893 14.133 12.8337 14.0882 12.7919 14.0313C12.7501 13.9744 12.7204 13.9068 12.7027 13.8288C12.6851 13.7508 12.676 13.6685 12.676 13.5814C12.676 13.4345 12.6946 13.2836 12.7312 13.1294C12.7678 12.9751 12.8113 12.8333 12.8622 12.7045C12.9509 12.4705 13.0406 12.2382 13.1319 12.0073C13.2229 11.7763 13.3064 11.5647 13.3827 11.373L14.5333 8.47117C14.5789 8.35439 14.6401 8.27165 14.7177 8.22382C14.7948 8.17599 14.8728 8.15186 14.9512 8.15186C15.0297 8.15186 15.1012 8.17728 15.1658 8.22813C15.2305 8.27898 15.2628 8.36171 15.2628 8.47547C15.2628 8.52934 15.252 8.58665 15.2305 8.64655C15.2089 8.70645 15.1818 8.77108 15.149 8.84003C15.0857 8.98094 15.0103 9.15331 14.9232 9.35713C14.8358 9.56095 14.7422 9.78288 14.6423 10.0229C14.5423 10.2629 14.4397 10.5124 14.3346 10.7718C14.2295 11.0312 14.1269 11.2838 14.0269 11.5298C13.927 11.7759 13.8335 12.009 13.746 12.2292C13.6576 12.4498 13.5822 12.6411 13.5193 12.8032Z" fill="white"/>
<path d="M18.901 11.9888C18.9363 11.9647 18.9695 11.9453 18.9997 11.9302C19.0298 11.9151 19.0591 11.9078 19.0871 11.9078C19.1427 11.9078 19.1845 11.9328 19.2125 11.9819C19.2405 12.0315 19.2543 12.0922 19.2543 12.1642C19.2543 12.2422 19.2375 12.3215 19.2031 12.4025C19.169 12.4835 19.1177 12.5507 19.0492 12.605C18.7782 12.845 18.5364 13.0639 18.324 13.2617C18.1111 13.4595 17.9107 13.6297 17.722 13.7724C17.5333 13.915 17.3493 14.0249 17.1696 14.1029C16.9899 14.1809 16.7973 14.2196 16.5921 14.2196C16.3995 14.2196 16.2509 14.1774 16.1457 14.0938C16.0406 14.0098 15.988 13.8943 15.988 13.7474V13.7137C15.988 13.7034 15.9893 13.6905 15.9919 13.6754C16.0018 13.5853 16.0414 13.4819 16.1095 13.3651C16.178 13.2484 16.2603 13.1268 16.3564 13.0006C16.4525 12.8743 16.5551 12.7472 16.6641 12.6184C16.7731 12.4895 16.8735 12.3671 16.9662 12.2517C17.0584 12.1362 17.1351 12.0306 17.1959 11.9345C17.2566 11.8384 17.2872 11.7608 17.2872 11.7005C17.2872 11.6643 17.2743 11.6359 17.2493 11.6152C17.2239 11.5941 17.1821 11.5837 17.1239 11.5837C17.0226 11.5837 16.9183 11.61 16.8106 11.6626C16.7029 11.7152 16.5965 11.7854 16.4917 11.8737C16.3866 11.9621 16.284 12.0633 16.1841 12.1775C16.0841 12.2917 15.9906 12.4098 15.9031 12.533C15.8156 12.6563 15.7359 12.7795 15.664 12.9041C15.592 13.0286 15.5304 13.1432 15.48 13.2484C15.4649 13.2815 15.4433 13.3281 15.4153 13.388C15.3873 13.4479 15.3571 13.5155 15.3244 13.5905C15.2912 13.6655 15.2567 13.7426 15.2197 13.8219C15.1831 13.9016 15.1494 13.9766 15.1193 14.0468C15.0887 14.1175 15.0615 14.18 15.0374 14.236C15.0133 14.2916 14.996 14.3295 14.9861 14.3506C14.9732 14.3778 14.9525 14.4286 14.9232 14.5036C14.8939 14.5786 14.8607 14.6661 14.8224 14.7669C14.7845 14.8673 14.7444 14.9729 14.703 15.0841C14.6612 15.1952 14.622 15.3 14.5854 15.3991C14.5487 15.4982 14.5164 15.5848 14.4884 15.6598C14.4604 15.7347 14.4427 15.7856 14.435 15.8127C14.4096 15.8907 14.3798 15.964 14.3458 16.0334C14.3117 16.1023 14.2725 16.1631 14.2281 16.2156C14.1838 16.2682 14.1333 16.31 14.076 16.3415C14.0192 16.3729 13.9549 16.3884 13.8843 16.3884C13.7929 16.3884 13.7179 16.3665 13.658 16.3234C13.5986 16.2799 13.5688 16.1967 13.5688 16.0739C13.5688 16.014 13.5766 15.9524 13.5917 15.8894C13.6068 15.8265 13.6262 15.764 13.6486 15.7029C13.6714 15.6412 13.6947 15.5813 13.7188 15.5232C13.7429 15.4646 13.7649 15.4085 13.7852 15.3542C13.9218 15.0543 14.0614 14.7535 14.2032 14.4523C14.3449 14.1507 14.4811 13.8525 14.6112 13.5569C14.7418 13.2617 14.8625 12.9713 14.9741 12.6864C15.0852 12.4016 15.1779 12.1284 15.2511 11.8677C15.2714 11.8138 15.2994 11.7371 15.3347 11.638C15.3701 11.5389 15.4106 11.4415 15.4563 11.3454C15.5019 11.2493 15.5532 11.1662 15.6101 11.0959C15.667 11.0253 15.7286 10.9904 15.7941 10.9904C15.8954 10.9904 15.9686 11.0136 16.0143 11.0602C16.06 11.1067 16.0828 11.1748 16.0828 11.2649C16.0828 11.283 16.0802 11.3114 16.075 11.3502C16.0699 11.389 16.0634 11.4303 16.0561 11.4738C16.0483 11.5174 16.0401 11.5587 16.0315 11.5975C16.0225 11.6363 16.0143 11.6647 16.007 11.6828C16.1005 11.5807 16.2017 11.4799 16.3108 11.379C16.4198 11.2786 16.5322 11.1877 16.649 11.1067C16.7654 11.0257 16.8843 10.9598 17.0058 10.9085C17.1273 10.8576 17.2489 10.8322 17.3704 10.8322C17.454 10.8322 17.5367 10.8443 17.619 10.8684C17.7013 10.8925 17.7746 10.9274 17.8392 10.974C17.9038 11.0205 17.9564 11.0791 17.9969 11.1494C18.0374 11.22 18.0577 11.3015 18.0577 11.3946C18.0577 11.5178 18.0267 11.6488 17.9646 11.7884C17.9026 11.928 17.8246 12.0681 17.7311 12.209C17.6371 12.3499 17.5358 12.4874 17.4273 12.6205C17.3182 12.7541 17.2165 12.8756 17.1213 12.9851C17.0265 13.0945 16.9468 13.1876 16.8822 13.2639C16.8175 13.3406 16.7839 13.3923 16.7813 13.419C16.7813 13.4552 16.793 13.4841 16.8154 13.5069C16.8378 13.5297 16.8761 13.5405 16.9296 13.5405C16.9726 13.5405 17.036 13.5164 17.1196 13.4686C17.2032 13.4207 17.3204 13.3376 17.4708 13.2191C17.6212 13.1006 17.8125 12.9415 18.0443 12.742C18.2762 12.543 18.5619 12.2917 18.901 11.9888Z" fill="white"/>
</svg>
