<svg width="48" height="14" viewBox="0 0 48 14" fill="none" xmlns="http://www.w3.org/2000/svg">
<g clip-path="url(#clip0_23910_38308)">
<g clip-path="url(#clip1_23910_38308)">
<path d="M16.7314 3.01709H17.4891V10.6971H16.7314V7.10943H12.6171V10.6971H11.8628V3.01709H12.6205V6.38532H16.7348L16.7314 3.01709Z" fill="#3B3D3C"/>
<path d="M19.547 9.97298H23.2272V10.6971H18.7886V3.01709H23.1717V3.7412H19.547V6.46212H22.9029V7.18623H19.547V9.97298Z" fill="#3B3D3C"/>
<path d="M29.2882 10.6971H28.4221L26.365 7.41663L24.3078 10.6971H23.4438L25.933 6.7364L23.6057 3.01709H24.4608L26.3657 6.0452L28.2706 3.01709H29.1257L26.799 6.7364L29.2882 10.6971Z" fill="#3B3D3C"/>
<path d="M32.0359 9.49023H35.1216V10.6971H30.7886V3.01709H32.0331L32.0359 9.49023Z" fill="#3B3D3C"/>
<path d="M40.7594 10.6971L40.2287 9.15012H37.0058L36.473 10.6971H35.1201L37.8691 3.01709H39.3599L42.1027 10.6971H40.7594ZM37.4145 7.9652H39.8145L38.6159 4.49823L37.4145 7.9652Z" fill="#3B3D3C"/>
<path d="M46.9392 6.71452C47.2604 6.8801 47.53 7.13054 47.7188 7.43863C47.91 7.7602 48.0074 8.12883 48 8.50286C48.0074 8.79623 47.9523 9.08782 47.8385 9.3583C47.7246 9.62878 47.5546 9.87198 47.3396 10.0718C47.1251 10.2769 46.8722 10.4377 46.5955 10.545C46.3188 10.6523 46.0236 10.704 45.7268 10.6971H42.48V3.01714H45.4889C45.7789 3.01003 46.0675 3.06014 46.3381 3.16462C46.6087 3.26911 46.8561 3.42591 47.066 3.62606C47.2743 3.81905 47.4392 4.05406 47.5498 4.31554C47.6605 4.57702 47.7143 4.85901 47.7079 5.14286C47.7079 5.81029 47.4516 6.33417 46.9392 6.71452ZM45.4889 4.20206H43.7246V6.2208H45.4889C45.6183 6.22351 45.7467 6.19903 45.866 6.14895C45.9853 6.09887 46.0928 6.02429 46.1815 5.93006C46.3634 5.73442 46.4645 5.47719 46.4645 5.21006C46.4645 4.94293 46.3634 4.68569 46.1815 4.49006C46.0925 4.39646 45.9849 4.32249 45.8656 4.27289C45.7463 4.22329 45.618 4.19917 45.4889 4.20206V4.20206ZM45.7268 9.51223C45.8638 9.51464 45.9998 9.48802 46.1258 9.43413C46.2518 9.38024 46.3649 9.30029 46.4578 9.19954C46.6491 8.99169 46.7553 8.71952 46.7553 8.43703C46.7553 8.15454 46.6491 7.88237 46.4578 7.67452C46.3649 7.57377 46.2518 7.49382 46.1258 7.43993C45.9998 7.38604 45.8638 7.35942 45.7268 7.36183H43.7246V9.51223H45.7268Z" fill="#3B3D3C"/>
<path d="M2.05713 9.76111V6.69596L4.93713 5.09619L7.81713 6.69596V9.76111L4.93713 11.3609L2.05713 9.76111Z" fill="#FF480D"/>
<path d="M6.65143 3.69531V1.30286H7.54286V0H2.33143V1.30286H3.22286V3.69531L0 5.48571V10.9714L4.93714 13.7143L9.87429 10.9714V5.48571L6.65143 3.69531ZM2.74286 0.891429V0.411429H7.13143V0.891429H2.74286ZM9.46286 10.7294L4.93714 13.2439L0.411429 10.7294V5.72777L3.4224 4.05463L3.63429 3.93737V1.30286H6.24V3.93737L6.45189 4.05463L9.46286 5.72777V10.7294Z" fill="#3B3D3C"/>
<path d="M4.83435 4.04566C5.11839 4.04566 5.34864 3.81541 5.34864 3.53138C5.34864 3.24734 5.11839 3.01709 4.83435 3.01709C4.55032 3.01709 4.32007 3.24734 4.32007 3.53138C4.32007 3.81541 4.55032 4.04566 4.83435 4.04566Z" fill="#FF480D"/>
<path d="M4.28562 2.26289C4.45604 2.26289 4.59419 2.12474 4.59419 1.95432C4.59419 1.7839 4.45604 1.64575 4.28562 1.64575C4.1152 1.64575 3.97705 1.7839 3.97705 1.95432C3.97705 2.12474 4.1152 2.26289 4.28562 2.26289Z" fill="#FF480D"/>
<path d="M5.50292 2.26292C5.58813 2.26292 5.6572 2.19384 5.6572 2.10863C5.6572 2.02342 5.58813 1.95435 5.50292 1.95435C5.41771 1.95435 5.34863 2.02342 5.34863 2.10863C5.34863 2.19384 5.41771 2.26292 5.50292 2.26292Z" fill="#FF480D"/>
<path d="M6.23989 5.21148C6.35351 5.21148 6.44561 5.11938 6.44561 5.00576C6.44561 4.89215 6.35351 4.80005 6.23989 4.80005C6.12628 4.80005 6.03418 4.89215 6.03418 5.00576C6.03418 5.11938 6.12628 5.21148 6.23989 5.21148Z" fill="#FF480D"/>
<path d="M3.0856 5.75994C3.19921 5.75994 3.29131 5.66784 3.29131 5.55423C3.29131 5.44061 3.19921 5.34851 3.0856 5.34851C2.97198 5.34851 2.87988 5.44061 2.87988 5.55423C2.87988 5.66784 2.97198 5.75994 3.0856 5.75994Z" fill="#FF480D"/>
</g>
</g>
<defs>
<clipPath id="clip0_23910_38308">
<rect width="48" height="13.71" fill="white"/>
</clipPath>
<clipPath id="clip1_23910_38308">
<rect width="48" height="13.7143" fill="white"/>
</clipPath>
</defs>
</svg>
