<svg width="24" height="24" viewBox="0 0 24 24" fill="none" xmlns="http://www.w3.org/2000/svg">
<path d="M5.51171 6.19918H1.64453C1.28828 6.19918 1 5.91091 1 5.55465C1 5.1984 1.28828 4.91012 1.64453 4.91012H5.51171C5.86732 4.91012 6.15624 4.6212 6.15624 4.26559C6.15624 3.90998 5.86732 3.62106 5.51171 3.62106C5.15546 3.62106 4.86718 3.33278 4.86718 2.97653C4.86718 2.62028 5.15546 2.332 5.51171 2.332C6.57794 2.332 7.4453 3.19937 7.4453 4.26559C7.4453 5.33182 6.57794 6.19918 5.51171 6.19918Z" fill="#E1EEF1"/>
<path d="M21.0666 22.9999H17.1995C16.8432 22.9999 16.5549 22.7117 16.5549 22.3554C16.5549 21.9992 16.8432 21.7109 17.1995 21.7109H21.0666C21.4223 21.7109 21.7112 21.422 21.7112 21.0663C21.7112 20.7107 21.4223 20.4218 21.0666 20.4218C20.7104 20.4218 20.4221 20.1335 20.4221 19.7773C20.4221 19.421 20.7104 19.1328 21.0666 19.1328C22.1329 19.1328 23.0002 20.0001 23.0002 21.0663C23.0002 22.1326 22.1329 22.9999 21.0666 22.9999Z" fill="#C3DCE1"/>
<path d="M4.22265 8.77731H1.64453C1.28828 8.77731 1 8.48903 1 8.13278C1 7.77653 1.28828 7.48825 1.64453 7.48825H4.22265C4.57891 7.48825 4.86718 7.77653 4.86718 8.13278C4.86718 8.48903 4.57891 8.77731 4.22265 8.77731Z" fill="#E1EEF1"/>
<path d="M5.51171 11.3554H2.93359C2.57734 11.3554 2.28906 11.0672 2.28906 10.7109C2.28906 10.3547 2.57734 10.0664 2.93359 10.0664H5.51171C5.86797 10.0664 6.15624 10.3547 6.15624 10.7109C6.15624 11.0672 5.86797 11.3554 5.51171 11.3554Z" fill="#E1EEF1"/>
<path d="M18.4885 20.4218H15.9104C15.5541 20.4218 15.2659 20.1335 15.2659 19.7773C15.2659 19.421 15.5541 19.1328 15.9104 19.1328H18.4885C18.8448 19.1328 19.1331 19.421 19.1331 19.7773C19.1331 20.1335 18.8448 20.4218 18.4885 20.4218Z" fill="#C3DCE1"/>
<path d="M14.8733 18.308L17.5528 16.61L17.4919 15.1952L16.1697 16.0512L13.4902 17.7492L13.6161 19.1904L14.8733 18.308Z" fill="#C3DCE1"/>
<path d="M10.2807 16.4525L9.53335 13.37L9.31073 11.8897L8.15015 12.8112L8.89733 15.8936L9.10882 17.3694L10.2807 16.4525Z" fill="#E1EEF1"/>
<path d="M13.3343 13.5152L12.7368 13.2738L10.8052 18.0546L11.4027 18.296L12.0004 18.5375L13.9319 13.7567L13.3343 13.5152Z" fill="#E1EEF1"/>
<path d="M11.4036 18.3035L13.3372 13.5236L13.9346 13.7653L12.001 18.5452L11.4036 18.3035Z" fill="#C3DCE1"/>
<path d="M8.09436 5.83711C6.96433 8.63862 7.98316 10.6988 8.15018 12.8111L9.53338 13.3699L11.2008 14.0436L18.1629 1.56318C14.2089 -0.0342646 9.69309 1.88308 8.09436 5.83711Z" fill="#FF4A4A"/>
<path d="M18.1634 1.56329L14.502 15.3773L16.1702 16.0513L17.5533 16.6101C19.1515 15.1974 21.3049 14.4323 22.4372 11.6322C24.0346 7.67752 22.1168 3.16074 18.1634 1.56329Z" fill="#E70C6A"/>
<path d="M18.1631 1.56327C16.5128 0.896524 13.8779 3.56668 12.2778 7.52724C11.2694 10.023 10.9141 12.4337 11.201 14.0437L12.8513 14.7104L14.5016 15.3772C15.8264 14.4184 17.2454 12.4374 18.2538 9.94169C19.8539 5.98114 19.8133 2.23001 18.1631 1.56327Z" fill="#FFB725"/>
<path d="M18.254 9.94172C19.8542 5.98116 19.8136 2.23004 18.1633 1.56329L12.8516 14.7105L14.5019 15.3773C15.8266 14.4184 17.2457 12.4374 18.254 9.94172Z" fill="#FA8B28"/>
<path d="M11.8856 17.1008L8.89763 15.8936L7.20749 20.0768C7.07416 20.4068 7.23362 20.7825 7.56366 20.9158L9.95405 21.8816L12.3444 22.8474C12.6745 22.9807 13.0502 22.8212 13.1835 22.4912L14.8736 18.308L11.8856 17.1008Z" fill="#55696E"/>
<path d="M13.1835 22.4913L14.8737 18.3081L11.8857 17.1009L9.9541 21.8817L12.3445 22.8474C12.6745 22.9807 13.0502 22.8213 13.1835 22.4913Z" fill="#3F4A4A"/>
</svg>
