<svg width="24" height="24" viewBox="0 0 24 24" fill="none" xmlns="http://www.w3.org/2000/svg">
<path d="M1 1H23V23H1V1Z" fill="white"/>
<path d="M11.9688 1.07183C12.2944 1.06995 12.6188 0.996203 12.9419 1.06495C14.3726 1.19183 15.7831 1.58495 17.0557 2.25495C18.7019 3.09808 20.1182 4.37995 21.1456 5.9162C22.1938 7.4787 22.8143 9.3187 22.9543 11.1937C22.9313 11.69 22.9168 12.1893 22.9649 12.6843C22.8625 14.11 22.5056 15.5237 21.8694 16.8075C21.1438 18.2993 20.0693 19.6193 18.7612 20.6393C17.1313 21.9174 15.1313 22.7168 13.0675 22.9063C12.7532 22.9288 12.4393 22.9869 12.1232 22.9625C11.9138 22.9487 11.6994 23.0156 11.4982 22.9299C12.2689 20.7619 13.0388 18.5931 13.8163 16.4268C14.6625 16.4112 15.5094 16.4325 16.3556 16.4168C16.8957 16.3981 17.4294 16.0693 17.6069 15.5443C18.3226 13.5293 19.0563 11.52 19.7494 9.4962C19.8632 9.19058 19.9263 8.84995 19.8357 8.52995C19.7132 8.12433 19.342 7.83745 18.9432 7.72995C18.597 7.62245 18.2313 7.66183 17.8751 7.65558C16.7888 7.65245 15.7026 7.6612 14.6169 7.65058C14.5994 7.68683 14.5638 7.7587 14.5463 7.79433C12.7875 12.7343 11.0319 17.6756 9.26631 22.6131C7.45256 22.1424 5.76256 21.1999 4.41506 19.8974C2.79194 18.3443 1.66506 16.2787 1.24819 14.0706C1.11756 13.4075 1.07006 12.7325 1.03381 12.0593C1.06319 10.6575 1.29319 9.24933 1.82131 7.94558C3.10944 4.65245 6.09006 2.05933 9.55506 1.31808C7.78131 6.2362 6.04881 11.1693 4.27569 16.0881C4.38881 16.1225 4.50756 16.1093 4.62381 16.1105C5.27006 16.1074 5.91694 16.1118 6.56319 16.1093C6.65131 16.1086 6.64194 15.9861 6.67881 15.9299C7.45756 13.7311 8.24569 11.5355 9.02694 9.33801C9.07381 9.20176 9.11756 9.06426 9.18006 8.93489C9.58506 8.94176 9.99006 8.93301 10.3951 8.93926C9.54569 11.3211 8.70381 13.7068 7.84194 16.0842C7.93194 16.1205 8.03006 16.1092 8.12444 16.1111C8.80319 16.1048 9.48194 16.1155 10.1607 16.1061C10.9276 13.9418 11.7038 11.7811 12.4726 9.61801C12.6369 9.17552 12.6513 8.65239 12.3901 8.24426C12.162 7.88301 11.7289 7.71051 11.3158 7.69364C10.7508 7.67676 10.1851 7.69489 9.6195 7.68489C10.3969 5.4787 11.1976 3.28058 11.9688 1.07183Z" fill="#015294"/>
<path d="M16.472 8.96314C16.5394 8.88689 16.6595 8.93314 16.7494 8.92001C17.0632 8.92564 17.3768 8.91751 17.6907 8.92439C16.96 11.01 16.195 13.0838 15.4763 15.1738C15.07 15.2025 14.6607 15.185 14.2538 15.1825C14.9957 13.1106 15.73 11.0356 16.472 8.96314Z" fill="#015294"/>
</svg>
