<svg width="50" height="50" viewBox="0 0 50 50" fill="none" xmlns="http://www.w3.org/2000/svg">
<path d="M7.03871 24.613V21.9033C7.03871 21.5162 6.88387 21.1291 5.95484 21.1291V20.8969H9.36129V21.1291C8.43226 21.1291 8.27742 21.5162 8.27742 21.9033V28.0194C8.27742 28.4065 8.43226 28.7936 9.36129 28.7936V29.0259H5.95484V28.7936C6.88387 28.7936 7.03871 28.4065 7.03871 28.0194V25.0775H3.32258V28.0194C3.32258 28.4065 3.47742 28.7936 4.40645 28.7936V29.0259H1V28.7936C1.92903 28.7936 2.08387 28.4065 2.08387 28.0194V21.9033C2.08387 21.5162 1.92903 21.1291 1 21.1291V20.8969H4.40645V21.1291C3.47742 21.1291 3.32258 21.5162 3.32258 21.9033V24.613H7.03871Z" fill="#231F20"/>
<path d="M9.59351 26.5484H9.90318C10.2903 27.7097 11.1419 28.7161 12.458 28.7161C13.4645 28.7161 14.0838 27.8645 13.8516 26.9355C13.3871 25.2322 9.9806 25.1548 9.9806 22.8322C9.9806 21.5935 10.9096 20.8193 12.1483 20.8193C13.4645 20.8193 14.0064 21.7484 14.3161 20.8193H14.5483L14.7806 23.4516H14.4709C14.1612 22.2903 13.3871 21.3613 12.2258 21.3613C11.529 21.3613 10.9096 21.7484 10.9096 22.5226C10.9096 23.2193 11.6838 23.7613 12.2258 24.0709C13.8516 25.0774 15.0129 25.6193 15.0129 27.0903C15.0129 28.1742 14.0838 29.3355 12.458 29.3355C11.2193 29.3355 10.2903 28.4064 10.2129 29.3355H9.9806L9.59351 26.5484Z" fill="#231F20"/>
<path d="M19.1162 24.5356C20.3549 24.5356 21.0517 23.9936 21.0517 22.9872C21.0517 22.0581 20.4323 21.5936 19.5807 21.4388C18.4194 21.3614 18.0323 21.3614 18.0323 21.7485V24.5356H19.1162ZM18.1097 27.8646C18.1097 28.3291 18.1872 28.4839 19.1162 28.4839C20.3549 28.4839 21.3614 28.0969 21.3614 26.7033C21.3614 25.2323 19.8904 25.0001 18.7291 25.0001H18.1097V27.8646ZM16.871 21.9033C16.871 21.5162 16.7162 21.1291 15.7097 21.1291V20.8969H18.9614C20.8194 20.8969 22.2904 21.3614 22.2904 22.9872C22.2904 23.9936 21.5936 24.5356 20.6646 24.7678C21.7485 25.0001 22.6775 25.6194 22.6775 26.7807C22.6775 28.2517 21.4388 29.0259 19.5033 29.0259H15.6323V28.7936C16.6388 28.7936 16.7936 28.4065 16.7936 28.0194V21.9033H16.871Z" fill="#231F20"/>
<path d="M30.1097 23.4516H29.8C29.4129 22.1355 28.5613 21.2065 27.1677 21.2065C25.1548 21.2065 24.3032 22.8323 24.3032 25C24.3032 26.7033 25.2322 28.5613 27.1677 28.5613C28.329 28.5613 29.1806 28.1742 30.0322 27.3226L30.2645 27.5549C29.4903 28.4839 28.2516 29.1033 27.0903 29.1033C24.6903 29.1033 22.9097 27.5549 22.9097 24.9226C22.9097 22.5226 24.6129 20.6646 27.0903 20.6646C28.7935 20.6646 29.3355 21.671 29.8 20.6646H30.0322L30.1097 23.4516Z" fill="#231F20"/>
<path d="M44.8969 20.6646H36.6904V28.871H44.8969V20.6646Z" fill="white"/>
<path d="M44.8969 24.8452H36.6904V28.9484H44.8969V24.8452Z" fill="#DAEAE7"/>
<path d="M36.6904 20.6646H44.8969L40.7937 24.7678L36.6904 20.6646Z" fill="#EE3725"/>
<path d="M36.6904 28.871H44.8969L40.7937 24.7678L36.6904 28.871Z" fill="#EE3725"/>
<path d="M36.6904 20.6646V28.871L32.5872 24.7678L36.6904 20.6646Z" fill="#FF6700"/>
<path d="M36.6904 22.2129V28.871L32.5872 24.7677L36.6904 22.2129Z" fill="#EE3725"/>
<path d="M44.8967 20.6646V28.871L49 24.7678L44.8967 20.6646Z" fill="#FF6700"/>
<path d="M44.8967 22.2129V28.871L49 24.7677L44.8967 22.2129Z" fill="#EE3725"/>
<path d="M38.1614 22.1355H43.4259L44.8969 20.6646H36.6904L38.1614 22.1355Z" fill="#FF6700"/>
<path d="M44.8967 27.0129V28.871L46.7548 27.0129H44.8967Z" fill="#D60F05"/>
<path d="M36.6904 28.871H44.8969L43.0388 27.0129H38.5485L36.6904 28.871Z" fill="#D60F05"/>
<path d="M34.8323 27.0129L36.6903 28.871V27.0129H34.8323Z" fill="#D60F05"/>
<path d="M29.7226 20.6646C29.3355 21.671 28.7161 20.6646 27.0129 20.6646C24.6129 20.6646 22.9097 22.4452 22.8323 24.7678H24.2258C24.3032 22.6775 25.1549 21.1291 27.0903 21.1291C28.4839 21.1291 29.4129 22.0581 29.7226 23.3742H30.0323L29.9549 20.6646H29.7226Z" fill="#4D5655"/>
<path d="M18.9613 20.8969H15.7097V21.1291C16.7162 21.1291 16.871 21.5162 16.871 21.9033V24.7678H20.8194C20.742 24.7678 20.742 24.7678 20.6646 24.7678C21.5936 24.5356 22.2904 24.071 22.2904 22.9872C22.3678 21.4388 20.8968 20.8969 18.9613 20.8969ZM19.1162 24.5356H18.1097V21.7485C18.1097 21.2839 18.4968 21.3614 19.6581 21.4388C20.5097 21.5936 21.1291 22.1356 21.1291 22.9872C21.1291 23.9936 20.3549 24.5356 19.1162 24.5356Z" fill="#4D5655"/>
<path d="M14.3162 20.742C14.0065 21.671 13.4646 20.742 12.1485 20.742C10.9872 20.742 9.98071 21.5936 9.98071 22.7549C9.98071 23.6839 10.5226 24.3033 11.2968 24.7678H13.7743C13.3872 24.5355 12.9226 24.2258 12.3807 23.9162C11.8388 23.6065 11.0646 23.0646 11.0646 22.3678C11.0646 21.5936 11.6065 21.2065 12.3807 21.2065C13.542 21.2065 14.3162 22.1355 14.6259 23.2968H14.9356L14.7033 20.6646H14.3162V20.742Z" fill="#4D5655"/>
<path d="M5.95484 21.1291C6.88387 21.1291 7.03871 21.5162 7.03871 21.9033V24.613H3.32258V21.9033C3.32258 21.5162 3.47742 21.1291 4.40645 21.1291V20.8969H1V21.1291C1.92903 21.1291 2.08387 21.5162 2.08387 21.9033V24.7678H8.27742V21.9033C8.27742 21.5162 8.43226 21.1291 9.36129 21.1291V20.8969H5.95484V21.1291Z" fill="#4D5655"/>
</svg>
