<svg width="24" height="24" viewBox="0 0 24 24" fill="none" xmlns="http://www.w3.org/2000/svg">
<path d="M3.75184 20.8008L2 1H21.25L19.4962 20.7977L11.6132 23L3.75184 20.8008Z" fill="#E44D26"/>
<path d="M11.625 21.3167L17.9948 19.537L19.4936 2.61908H11.625V21.3167Z" fill="#F16529"/>
<path d="M11.6251 9.96274H8.43623L8.21595 7.47594H11.6251V5.04742H5.58215L5.6399 5.69895L6.23219 12.3912H11.6251V9.96274ZM11.6251 16.2697L11.6145 16.2726L8.9306 15.5423L8.75902 13.6055H6.3399L6.67757 17.4186L11.6141 18.7995L11.6251 18.7964V16.2697Z" fill="#EBEBEB"/>
<path d="M11.6167 9.96274V12.3912H14.5843L14.3045 15.5408L11.6167 16.2717V18.7983L16.5571 17.4186L16.5933 17.0082L17.1596 10.6149L17.2184 9.96274H16.5691H11.6167ZM11.6167 5.04742V7.47594H17.4378L17.486 6.93005L17.5958 5.69895L17.6535 5.04742H11.6167Z" fill="white"/>
</svg>
