<svg width="24" height="22" viewBox="0 0 24 22" fill="none" xmlns="http://www.w3.org/2000/svg">
<path d="M0 0.467773H12.3782C20.7797 0.467773 24 5.05573 24 10.8433C24 17.7832 19.503 21.2654 12.3782 21.2654H0V0.467773ZM1.2 1.66777V20.0662H12.3782C19.127 20.0662 22.7989 16.9215 22.7989 10.8433C22.7989 4.59679 18.8185 1.66741 12.3782 1.66741H1.2V1.66777Z" fill="black"/>
<path d="M2.69983 12.1963H6.27818V18.565H2.69983V12.1963Z" fill="black"/>
<path d="M4.48856 11.2112C5.71679 11.2112 6.71246 10.2156 6.71246 8.98733C6.71246 7.7591 5.71679 6.76343 4.48856 6.76343C3.26033 6.76343 2.26465 7.7591 2.26465 8.98733C2.26465 10.2156 3.26033 11.2112 4.48856 11.2112Z" fill="black"/>
<path d="M13.7823 10.0278V11.059H11.2326V6.92082H13.7009V7.9517H12.2635V8.43082H13.6227V9.46206H12.2635V10.0281L13.7823 10.0278ZM14.2284 11.0597L15.4761 6.91936H16.9428L18.1901 11.0597H17.1171L16.883 10.2589H15.5344L15.3 11.0597H14.2284ZM15.8367 9.22874H16.5829L16.2406 8.05919H16.1783L15.8367 9.22874ZM18.7085 6.91972H19.7401V10.0281H21.267C20.848 4.38802 16.412 3.16931 12.3787 3.16931H8.0802V6.92192H8.71634C9.87635 6.92192 10.5965 7.70847 10.5965 8.97414C10.5965 10.2802 9.89359 11.0597 8.71634 11.0597H8.0802V18.5679H12.3791C18.9334 18.5679 21.216 15.5237 21.2967 11.059H18.7085V6.91972ZM8.07947 7.9528V10.0281H8.71634C9.15767 10.0281 9.56562 9.90046 9.56562 8.97377C9.56562 8.06873 9.11181 7.9528 8.71634 7.9528H8.07947Z" fill="#D50072"/>
</svg>
