<svg width="24" height="24" viewBox="0 0 24 24" fill="none" xmlns="http://www.w3.org/2000/svg">
<g clip-path="url(#clip0_15000_4304)">
<path d="M8.36643 5.85776L8.09061 6.04078C5.81726 7.52768 4.61942 9.64347 4.59205 12.3525C4.55682 15.8171 6.99797 18.8306 10.3749 19.6059C14.7339 20.6068 19.0479 17.4468 19.3985 12.9962C19.6758 9.47599 17.2956 6.31355 13.9372 5.22034C13.4308 4.6557 12.9709 2.75801 13.7713 1.89364C17.0718 2.62708 19.5463 4.31239 21.1417 7.02672C24.6301 12.9617 21.4941 20.6979 14.868 22.5457C8.71281 24.2622 2.48494 20.2046 1.56442 13.8783C0.542916 7.9795 4.70792 2.73195 10.5843 1.84998C9.21334 3.08983 8.47991 4.7925 8.36643 5.85776Z" fill="#494949"/>
<path d="M16.2627 10.8801C16.7373 9.99577 16.7158 9.07087 16.4463 8.13513C16.3801 7.90487 16.2422 7.51004 16.1492 7.25191C17.7357 8.42435 19.0906 11.2435 18.4019 14.0451C17.7639 16.6408 15.2761 18.7315 12.7098 18.9733C9.40482 19.2845 6.83513 17.3041 5.86797 14.8965C4.83662 12.3297 5.66252 9.17284 7.43509 7.60118C6.56774 9.34744 6.83621 10.7337 7.19061 11.251C7.58454 11.826 8.2117 12.1241 8.82381 11.9538C9.46726 11.7749 9.96093 11.1991 9.94977 10.4651C9.94233 9.97501 9.8549 9.42229 9.66162 8.98072C8.51473 6.36083 9.47073 3.99808 11.3206 2.37092C11.8576 1.89866 12.4818 1.44543 13.2765 1.00006C12.4033 2.23991 12.255 3.75054 12.9184 5.1563C13.3075 5.92232 13.8059 6.72234 14.2457 7.4614C15.0361 8.78975 15.5209 10.1555 15.311 11.74C15.3086 11.7575 15.9397 11.4955 16.2627 10.8801Z" fill="#FB3239"/>
</g>
<defs>
<clipPath id="clip0_15000_4304">
<rect width="21.1728" height="22" fill="white" transform="translate(1.41003 1)"/>
</clipPath>
</defs>
</svg>
