<svg width="24" height="24" viewBox="0 0 24 24" fill="none" xmlns="http://www.w3.org/2000/svg">
<path d="M5.24058 16.1894C2.92242 16.1894 1 14.31 1 12C1 9.69 2.92242 7.81055 5.23241 7.81055C6.3056 7.81308 7.30698 8.22786 8.06104 8.97813L10.6366 11.543C10.8898 11.7948 10.8901 12.2048 10.6366 12.457L8.0604 15.0218C7.30698 15.7721 6.3056 16.1869 5.24058 16.1894Z" fill="#FF641A"/>
<path d="M18.7673 16.1894C17.0994 16.1894 16.395 15.4814 15.5793 14.6606C15.4503 14.5323 13.221 12.3157 13.3631 12.457C13.1098 12.205 13.1097 11.7952 13.3631 11.543C13.4921 11.4148 15.7208 9.19878 15.5787 9.34002C16.395 8.51927 17.1 7.81055 18.7673 7.81055C21.0773 7.81055 22.9997 9.69 22.9997 12C22.9997 14.31 21.0773 16.1894 18.7673 16.1894Z" fill="#97D325"/>
<path d="M12 1C9.69262 1 7.81055 2.92495 7.81055 5.23241C7.81055 6.89526 8.51953 7.60424 9.34453 8.41635C9.53793 8.62264 11.4199 10.5046 11.5489 10.6336C11.6648 10.7624 11.8324 10.8269 12 10.8269C12.1676 10.8269 12.3223 10.7624 12.4383 10.6465C12.4383 10.6465 13.9723 9.11248 14.6555 8.41635C15.4805 7.60424 16.1894 6.89526 16.1894 5.23241C16.1894 2.92495 14.3074 1 12 1V1Z" fill="#5ECEF4"/>
<path d="M14.6683 15.5965C14.6683 15.5836 12.5801 13.4953 12.4511 13.3664C12.3351 13.2375 12.1676 13.186 12 13.186C11.8324 13.186 11.6648 13.2375 11.5489 13.3664C11.3555 13.5726 9.47343 15.4547 9.34453 15.5836C8.51953 16.3957 7.81055 17.1047 7.81055 18.7676C7.81055 21.075 9.69262 23 12 23C14.3074 23 16.1894 21.075 16.1894 18.7676C16.1894 17.1176 15.4934 16.4086 14.6683 15.5965Z" fill="#FFDA2D"/>
<path d="M16.1894 18.7676C16.1894 21.0749 14.3074 23 12 23V13.1859C12.1676 13.1859 12.3352 13.2374 12.4511 13.3664C12.5801 13.4952 14.6684 15.5835 14.6684 15.5964C15.4934 16.4085 16.1894 17.1175 16.1894 18.7676Z" fill="#FDBF00"/>
<path d="M12.4383 10.6465C12.3223 10.7624 12.1676 10.8269 12 10.8269V1C14.3074 1 16.1894 2.92495 16.1894 5.23241C16.1894 6.89526 15.4805 7.60424 14.6555 8.41635C13.9723 9.11248 12.4383 10.6465 12.4383 10.6465Z" fill="#27B2EB"/>
</svg>
