<svg width="24" height="24" viewBox="0 0 24 24" fill="none" xmlns="http://www.w3.org/2000/svg">
<path d="M6.57863 22.9222C5.27028 22.8627 4.55954 22.645 4.08681 22.4606C3.46043 22.2167 3.01385 21.9264 2.54373 21.4569C2.07362 20.9875 1.78266 20.5409 1.54008 19.9145C1.35569 19.4418 1.13796 18.731 1.07846 17.4227C1.01308 16.0084 1 15.5841 1 12.001C1 8.4179 1.01438 7.9942 1.07781 6.57863C1.13731 5.27028 1.35635 4.56085 1.53942 4.08681C1.78331 3.46043 2.07427 3.01385 2.54308 2.54308C3.01254 2.07362 3.45912 1.782 4.08616 1.53942C4.55889 1.35504 5.26962 1.13731 6.57797 1.07781C7.9929 1.01308 8.4179 1 11.9997 1C15.5828 1 16.0065 1.01438 17.422 1.07781C18.7304 1.13731 19.4398 1.35635 19.9138 1.53942C20.5402 1.782 20.9868 2.07362 21.4569 2.54308C21.927 3.01254 22.2167 3.45977 22.4606 4.08616C22.645 4.55889 22.8627 5.26962 22.9222 6.57797C22.9869 7.99355 23 8.41724 23 12.0003C23 15.5821 22.9869 16.0071 22.9222 17.4227C22.8627 18.731 22.6437 19.4418 22.4606 19.9145C22.2167 20.5409 21.9264 20.9875 21.4569 21.4569C20.9875 21.9264 20.5402 22.2167 19.9138 22.4606C19.4411 22.645 18.7304 22.8627 17.422 22.9222C16.0078 22.9869 15.5828 23 11.9997 23C8.4179 23 7.9929 22.9876 6.57863 22.9222Z" fill="url(#paint0_radial_12139_882)"/>
<path d="M6.57863 22.9222C5.27028 22.8627 4.55954 22.645 4.08681 22.4606C3.46043 22.2167 3.01385 21.9264 2.54373 21.4569C2.07362 20.9875 1.78266 20.5409 1.54008 19.9145C1.35569 19.4418 1.13796 18.731 1.07846 17.4227C1.01308 16.0084 1 15.5841 1 12.001C1 8.4179 1.01438 7.9942 1.07781 6.57863C1.13731 5.27028 1.35635 4.56085 1.53942 4.08681C1.78331 3.46043 2.07427 3.01385 2.54308 2.54308C3.01254 2.07362 3.45912 1.782 4.08616 1.53942C4.55889 1.35504 5.26962 1.13731 6.57797 1.07781C7.9929 1.01308 8.4179 1 11.9997 1C15.5828 1 16.0065 1.01438 17.422 1.07781C18.7304 1.13731 19.4398 1.35635 19.9138 1.53942C20.5402 1.782 20.9868 2.07362 21.4569 2.54308C21.927 3.01254 22.2167 3.45977 22.4606 4.08616C22.645 4.55889 22.8627 5.26962 22.9222 6.57797C22.9869 7.99355 23 8.41724 23 12.0003C23 15.5821 22.9869 16.0071 22.9222 17.4227C22.8627 18.731 22.6437 19.4418 22.4606 19.9145C22.2167 20.5409 21.9264 20.9875 21.4569 21.4569C20.9875 21.9264 20.5402 22.2167 19.9138 22.4606C19.4411 22.645 18.7304 22.8627 17.422 22.9222C16.0078 22.9869 15.5828 23 11.9997 23C8.4179 23 7.9929 22.9876 6.57863 22.9222Z" fill="url(#paint1_radial_12139_882)"/>
<path d="M9.29902 12.0469C9.29902 10.5423 10.5184 9.32227 12.0229 9.32227C13.5275 9.32227 14.7475 10.5423 14.7475 12.0469C14.7475 13.5514 13.5275 14.7714 12.0229 14.7714C10.5184 14.7714 9.29902 13.5514 9.29902 12.0469ZM7.82616 12.0469C7.82616 14.3647 9.70506 16.2436 12.0229 16.2436C14.3408 16.2436 16.2197 14.3647 16.2197 12.0469C16.2197 9.72897 14.3408 7.85007 12.0229 7.85007C9.70506 7.85007 7.82623 9.72884 7.82623 12.0469H7.82616ZM15.4052 7.68367C15.4051 7.87765 15.4625 8.06729 15.5702 8.22862C15.6779 8.38995 15.8311 8.51572 16.0103 8.59002C16.1894 8.66433 16.3866 8.68383 16.5769 8.64606C16.7672 8.60829 16.942 8.51495 17.0792 8.37785C17.2164 8.24074 17.3099 8.06602 17.3478 7.87578C17.3857 7.68555 17.3664 7.48834 17.2922 7.3091C17.218 7.12985 17.0924 6.97663 16.9312 6.8688C16.7699 6.76096 16.5803 6.70337 16.3863 6.70329H16.3859C16.1259 6.70341 15.8766 6.80673 15.6927 6.99054C15.5088 7.17436 15.4054 7.42366 15.4052 7.68367ZM8.72102 18.6996C7.92417 18.6633 7.49106 18.5306 7.20324 18.4185C6.82165 18.2699 6.54939 18.093 6.26314 17.8071C5.97688 17.5213 5.79969 17.2493 5.65179 16.8677C5.53959 16.58 5.40686 16.1467 5.37064 15.3499C5.33101 14.4884 5.3231 14.2296 5.3231 12.047C5.3231 9.86438 5.33167 9.6063 5.37064 8.74408C5.40693 7.94723 5.54064 7.51484 5.65179 7.2263C5.80035 6.84472 5.97728 6.57245 6.26314 6.2862C6.549 5.99994 6.821 5.82275 7.20324 5.67485C7.49093 5.56265 7.92417 5.42992 8.72102 5.3937C9.58253 5.35407 9.84132 5.34616 12.0229 5.34616C14.2046 5.34616 14.4636 5.3546 15.3259 5.39383C16.1227 5.43012 16.5551 5.56383 16.8436 5.67498C17.2252 5.82288 17.4975 6.00047 17.7837 6.28633C18.07 6.57219 18.2465 6.84485 18.3951 7.22643C18.5073 7.51412 18.64 7.94736 18.6762 8.74421C18.7159 9.60644 18.7238 9.86451 18.7238 12.0471C18.7238 14.2297 18.7159 14.4878 18.6762 15.35C18.6399 16.1469 18.5066 16.58 18.3951 16.8678C18.2465 17.2494 18.0696 17.5216 17.7837 17.8072C17.4979 18.0928 17.2252 18.27 16.8436 18.4186C16.5559 18.5308 16.1227 18.6635 15.3259 18.6998C14.4643 18.7394 14.2056 18.7473 12.0229 18.7473C9.84034 18.7473 9.58226 18.7394 8.72102 18.6998V18.6996ZM8.65334 3.92326C7.78327 3.96288 7.18872 4.10085 6.6695 4.30288C6.13211 4.51153 5.67657 4.79144 5.22169 5.2456C4.76681 5.69976 4.48762 6.15536 4.27897 6.69342C4.07693 7.21296 3.93897 7.80718 3.89935 8.67725C3.85907 9.5487 3.84985 9.8273 3.84985 12.0469C3.84985 14.2664 3.85907 14.545 3.89935 15.4165C3.93897 16.2866 4.07693 16.8807 4.27897 17.4003C4.48762 17.9377 4.76687 18.3941 5.22169 18.8481C5.67651 19.3021 6.13145 19.5816 6.6695 19.7908C7.18971 19.9929 7.78327 20.1308 8.65334 20.1704C9.52525 20.2101 9.80339 20.2199 12.0229 20.2199C14.2425 20.2199 14.5211 20.2107 15.3925 20.1704C16.2627 20.1308 16.8568 19.9929 17.3764 19.7908C17.9138 19.5816 18.3693 19.3023 18.8242 18.8481C19.2791 18.3939 19.5577 17.9377 19.7669 17.4003C19.969 16.8807 20.1076 16.2865 20.1465 15.4165C20.1862 14.5444 20.1954 14.2664 20.1954 12.0469C20.1954 9.8273 20.1862 9.5487 20.1465 8.67725C20.1069 7.80711 19.969 7.21264 19.7669 6.69342C19.5577 6.15602 19.2784 5.70048 18.8242 5.2456C18.37 4.79072 17.9138 4.51153 17.377 4.30288C16.8568 4.10085 16.2626 3.96223 15.3932 3.92326C14.5216 3.88344 14.2431 3.87376 12.0239 3.87376C9.8047 3.87376 9.52558 3.88298 8.65367 3.92326" fill="white"/>
<defs>
<radialGradient id="paint0_radial_12139_882" cx="0" cy="0" r="1" gradientUnits="userSpaceOnUse" gradientTransform="translate(2.42382 22.518) scale(27.9318)">
<stop offset="0.09" stop-color="#FA8F21"/>
<stop offset="0.78" stop-color="#D82D7E"/>
</radialGradient>
<radialGradient id="paint1_radial_12139_882" cx="0" cy="0" r="1" gradientUnits="userSpaceOnUse" gradientTransform="translate(16.2386 21.8116) scale(24.5803)">
<stop offset="0.64" stop-color="#8C3AAA" stop-opacity="0"/>
<stop offset="1" stop-color="#8C3AAA"/>
</radialGradient>
</defs>
</svg>
