<svg width="24" height="24" viewBox="0 0 24 24" fill="none" xmlns="http://www.w3.org/2000/svg">
<g clip-path="url(#clip0_12141_974)">
<path d="M19.7073 23.5909C14.5854 24.1373 9.42002 24.1373 4.29818 23.5909C3.30357 23.4859 2.37501 23.0431 1.66731 22.3364C0.959605 21.6297 0.515522 20.7017 0.409094 19.7073C-0.137341 14.5854 -0.137341 9.42002 0.409094 4.29818C0.514126 3.30357 0.956907 2.37501 1.66362 1.66731C2.37033 0.959605 3.29827 0.515522 4.29273 0.409094C9.41456 -0.137341 14.58 -0.137341 19.7018 0.409094C20.6964 0.514126 21.625 0.956907 22.3327 1.66362C23.0404 2.37033 23.4845 3.29827 23.5909 4.29273C24.1373 9.41456 24.1373 14.58 23.5909 19.7018C23.4859 20.6964 23.0431 21.625 22.3364 22.3327C21.6297 23.0404 20.7017 23.4845 19.7073 23.5909V23.5909Z" fill="url(#paint0_linear_12141_974)"/>
<path d="M15.0314 4.5H8.96864C7.78392 4.50144 6.64815 4.97271 5.81043 5.81043C4.97271 6.64815 4.50144 7.78392 4.5 8.96864V15.0314C4.50144 16.2161 4.97271 17.3519 5.81043 18.1896C6.64815 19.0273 7.78392 19.4986 8.96864 19.5H15.0314C16.2161 19.4986 17.3519 19.0273 18.1896 18.1896C19.0273 17.3519 19.4986 16.2161 19.5 15.0314V8.96864C19.4986 7.78392 19.0273 6.64815 18.1896 5.81043C17.3519 4.97271 16.2161 4.50144 15.0314 4.5V4.5ZM17.9905 15.0314C17.9906 15.42 17.9142 15.8049 17.7656 16.164C17.6169 16.5231 17.399 16.8493 17.1242 17.1242C16.8493 17.399 16.5231 17.6169 16.164 17.7656C15.8049 17.9142 15.42 17.9906 15.0314 17.9905H8.96864C8.57999 17.9906 8.19512 17.9142 7.83603 17.7656C7.47693 17.6169 7.15066 17.399 6.87584 17.1242C6.60103 16.8493 6.38307 16.5231 6.23443 16.164C6.08578 15.8049 6.00937 15.42 6.00955 15.0314V8.96864C6.00955 8.18384 6.32131 7.43118 6.87624 6.87624C7.43118 6.32131 8.18384 6.00955 8.96864 6.00955H15.0314C15.8162 6.00955 16.5688 6.32131 17.1238 6.87624C17.6787 7.43118 17.9905 8.18384 17.9905 8.96864V15.0314Z" fill="white"/>
<path d="M12 8.12048C11.2327 8.12048 10.4827 8.34801 9.84467 8.7743C9.20668 9.20059 8.70943 9.8065 8.4158 10.5154C8.12216 11.2243 8.04534 12.0043 8.19503 12.7569C8.34472 13.5094 8.71421 14.2007 9.25678 14.7433C9.79934 15.2858 10.4906 15.6553 11.2432 15.805C11.9957 15.9547 12.7758 15.8779 13.4847 15.5843C14.1936 15.2906 14.7995 14.7934 15.2258 14.1554C15.652 13.5174 15.8796 12.7673 15.8796 12C15.8781 10.9716 15.4689 9.98561 14.7417 9.25837C14.0144 8.53113 13.0285 8.12193 12 8.12048V8.12048ZM12 14.3714C11.531 14.3714 11.0725 14.2323 10.6826 13.9717C10.2926 13.7112 9.98866 13.3408 9.80918 12.9075C9.62969 12.4742 9.58273 11.9974 9.67423 11.5374C9.76573 11.0774 9.99158 10.6549 10.3232 10.3232C10.6549 9.99158 11.0774 9.76573 11.5374 9.67423C11.9974 9.58273 12.4742 9.62969 12.9075 9.80918C13.3408 9.98866 13.7112 10.2926 13.9717 10.6826C14.2323 11.0725 14.3714 11.531 14.3714 12C14.371 12.6288 14.1211 13.2318 13.6764 13.6764C13.2318 14.1211 12.6288 14.371 12 14.3714V14.3714Z" fill="white"/>
<path d="M15.9014 9.07914C16.4308 9.07914 16.86 8.64994 16.86 8.1205C16.86 7.59106 16.4308 7.16187 15.9014 7.16187C15.3719 7.16187 14.9427 7.59106 14.9427 8.1205C14.9427 8.64994 15.3719 9.07914 15.9014 9.07914Z" fill="white"/>
</g>
<defs>
<linearGradient id="paint0_linear_12141_974" x1="1.78637" y1="22.2136" x2="21.8182" y2="2.18182" gradientUnits="userSpaceOnUse">
<stop stop-color="#E09B3D"/>
<stop offset="0.3" stop-color="#C74C4D"/>
<stop offset="0.6" stop-color="#C21975"/>
<stop offset="1" stop-color="#7024C4"/>
</linearGradient>
<clipPath id="clip0_12141_974">
<rect width="24" height="24" fill="white"/>
</clipPath>
</defs>
</svg>
