<svg width="24" height="24" viewBox="0 0 24 24" fill="none" xmlns="http://www.w3.org/2000/svg">
<path d="M21.0056 1H2.99435C1.89289 1 1 1.89289 1 2.99435V21.0056C1 22.1071 1.89289 23 2.99435 23H21.0056C22.1071 23 23 22.1071 23 21.0056V2.99435C23 1.89289 22.1071 1 21.0056 1Z" fill="#DC395F"/>
<path d="M8.35241 7.9219C9.08374 7.9219 9.69639 7.34869 9.69639 6.59743C9.69639 5.84668 9.08374 5.27356 8.35241 5.27356C7.62108 5.27356 7.00861 5.84668 7.00861 6.59743C7.00861 7.34861 7.62108 7.9219 8.35241 7.9219ZM5.5658 15.0135C5.48683 15.3495 5.44721 15.7123 5.44721 16.0083C5.44721 17.1745 6.07962 17.9487 7.4236 17.9487C8.53821 17.9487 9.44184 17.2869 10.0925 16.2181L9.69519 17.8125H11.9085L13.1735 12.7388C13.4898 11.4542 14.1024 10.7874 15.0314 10.7874C15.7626 10.7874 16.2172 11.2422 16.2172 11.9929C16.2172 12.2104 16.1974 12.4474 16.1183 12.7044L15.4661 15.0365C15.3672 15.3725 15.3279 15.7087 15.3279 16.0247C15.3279 17.1318 15.9799 17.9416 17.3436 17.9416C18.5097 17.9416 19.4385 17.191 19.9524 15.3924L19.0829 15.0567C18.6481 16.2616 18.2725 16.4795 17.976 16.4795C17.6796 16.4795 17.5214 16.282 17.5214 15.8869C17.5214 15.709 17.5611 15.5116 17.6203 15.2739L18.2528 13.0019C18.4109 12.4684 18.4703 11.9953 18.4703 11.5607C18.4703 9.86099 17.4424 8.97395 16.1974 8.97395C15.0314 8.97395 13.8455 10.0257 13.2527 11.1327L13.6873 9.14582H10.3079L9.83354 10.8959H11.4147L10.441 14.794C9.67645 16.4937 8.27197 16.5212 8.09572 16.4818C7.80628 16.4165 7.62117 16.3066 7.62117 15.9305C7.62117 15.7135 7.6607 15.4018 7.75953 15.026L9.24195 9.14582H5.48683L5.01245 10.8959H6.57368L5.56589 15.0135" fill="white"/>
</svg>
