<svg width="24" height="24" viewBox="0 0 24 24" fill="none" xmlns="http://www.w3.org/2000/svg">
<g clip-path="url(#clip0_15000_4309)">
<path d="M22.1324 11.3915L12.7781 2.03721L11.8717 1.1308L4.83002 8.1725L1.61001 11.3915C1.44917 11.5532 1.35889 11.772 1.35889 12C1.35889 12.2281 1.44917 12.4468 1.61001 12.6085L8.04323 19.0417L11.8717 22.8692L18.9124 15.8275L19.0221 15.7188L22.1324 12.6133C22.2131 12.5333 22.277 12.4382 22.3207 12.3333C22.3643 12.2285 22.3868 12.116 22.3868 12.0024C22.3868 11.8889 22.3643 11.7764 22.3207 11.6716C22.277 11.5667 22.2131 11.4715 22.1324 11.3915ZM11.8717 15.2142L8.65753 12L11.8717 8.78583L15.0849 12L11.8717 15.2142Z" fill="#2684FF"/>
<path d="M11.8717 8.78581C10.8608 7.77519 10.291 6.4056 10.2866 4.9762C10.2823 3.5468 10.8437 2.17376 11.8484 1.15698L4.81543 8.18704L8.64295 12.0146L11.8717 8.78581Z" fill="url(#paint0_linear_15000_4309)"/>
<path d="M15.0936 11.9913L11.8717 15.2142C12.8864 16.2291 13.4564 17.6056 13.4564 19.0407C13.4564 20.4759 12.8864 21.8523 11.8717 22.8673L18.9241 15.8188L15.0936 11.9913Z" fill="url(#paint1_linear_15000_4309)"/>
</g>
<defs>
<linearGradient id="paint0_linear_15000_4309" x1="11.2962" y1="5.53378" x2="6.8078" y2="10.0212" gradientUnits="userSpaceOnUse">
<stop offset="0.18" stop-color="#0052CC"/>
<stop offset="1" stop-color="#2684FF"/>
</linearGradient>
<linearGradient id="paint1_linear_15000_4309" x1="12.485" y1="18.4274" x2="16.9647" y2="13.9487" gradientUnits="userSpaceOnUse">
<stop offset="0.18" stop-color="#0052CC"/>
<stop offset="1" stop-color="#2684FF"/>
</linearGradient>
<clipPath id="clip0_15000_4309">
<rect width="20.7768" height="22" fill="white" transform="translate(1.60999 1)"/>
</clipPath>
</defs>
</svg>
