<svg width="24" height="24" viewBox="0 0 24 24" fill="none" xmlns="http://www.w3.org/2000/svg">
<path d="M16.4214 12.0576L20.2621 7.22864C21.5381 5.59183 21.2933 3.143 19.5662 1.80259C17.8521 0.487913 15.4418 0.835948 14.153 2.49853C14.0499 2.61457 11.0856 6.32648 10.6989 6.79047C10.686 6.81629 10.6731 6.82909 10.6731 6.82909V4.87007C10.6731 2.74341 8.93317 1.0035 6.80651 1.0035C4.67986 1.0035 2.93994 2.74341 2.93994 4.87007V19.1334C2.93994 21.26 4.67986 23 6.80651 23C8.93317 23 10.6731 21.26 10.6731 19.1334V17.213C10.7763 17.3419 14.14 21.4963 14.153 21.4963C15.4805 23.1847 17.8779 23.4941 19.5662 22.1794C21.3062 20.8261 21.5252 18.4503 20.2621 16.8006L16.4214 12.0576Z" fill="#7FE881"/>
<path d="M20.262 16.8006C21.5251 18.4503 21.3061 20.8261 19.5661 22.1794C17.8778 23.4941 15.4804 23.1847 14.1528 21.4963C14.14 21.4963 10.7762 17.3419 10.673 17.213V6.82909C10.673 6.82909 10.6859 6.81629 10.6988 6.79047C11.0855 6.32648 14.0498 2.61457 14.1528 2.49853C15.4417 0.835948 17.852 0.487913 19.5661 1.80259C21.2932 3.14296 21.538 5.59183 20.262 7.22864L16.4213 12.0576L20.262 16.8006Z" fill="#5BC980"/>
</svg>
