<svg width="24" height="24" viewBox="0 0 24 24" fill="none" xmlns="http://www.w3.org/2000/svg">
<g clip-path="url(#clip0_12171_1661)">
<path d="M22.2732 6.01945C22.281 6.0486 22.2851 6.07865 22.2852 6.10885V10.8024C22.2852 10.8626 22.2692 10.9218 22.239 10.9739C22.2087 11.026 22.1652 11.0693 22.1128 11.0992L18.1652 13.3673V17.8627C18.1652 17.9851 18.1001 18.098 17.9937 18.1596L9.75343 22.8933C9.73457 22.904 9.71399 22.9109 9.69342 22.9181C9.6857 22.9207 9.67842 22.9254 9.67027 22.9275C9.61267 22.9427 9.55212 22.9427 9.49452 22.9275C9.48509 22.925 9.47651 22.9198 9.46751 22.9164C9.44865 22.9096 9.42893 22.9036 9.41093 22.8933L1.17233 18.1596C1.11999 18.1296 1.0765 18.0864 1.04625 18.0342C1.01599 17.9821 1.00004 17.923 1 17.8627V3.7822C1 3.7514 1.00429 3.72146 1.012 3.69237C1.01457 3.68253 1.02058 3.67355 1.02401 3.66371C1.03044 3.64574 1.03644 3.62735 1.04587 3.61067C1.0523 3.59954 1.06173 3.59056 1.06944 3.58029C1.0793 3.56661 1.08831 3.55249 1.09988 3.54051C1.10974 3.53067 1.1226 3.5234 1.13374 3.51485C1.14618 3.50458 1.15732 3.49346 1.17147 3.48533H1.1719L5.29141 1.11847C5.34357 1.08852 5.4027 1.07275 5.46288 1.07275C5.52306 1.07275 5.58219 1.08852 5.63435 1.11847L9.75386 3.48533H9.75472C9.76844 3.49388 9.78001 3.50458 9.79244 3.51442C9.80359 3.52297 9.81602 3.53067 9.82588 3.54008C9.83788 3.55249 9.84645 3.56661 9.85674 3.58029C9.86403 3.59056 9.87389 3.59954 9.87989 3.61067C9.88975 3.62778 9.89532 3.64574 9.90218 3.66371C9.90561 3.67355 9.91161 3.68253 9.91418 3.6928C9.92208 3.72195 9.92611 3.75201 9.92619 3.7822V12.5768L13.359 10.6043V6.10842C13.359 6.07848 13.3633 6.04811 13.371 6.01945C13.374 6.00918 13.3795 6.0002 13.383 5.99036C13.3898 5.97239 13.3958 5.954 13.4053 5.93731C13.4117 5.92619 13.4211 5.91721 13.4284 5.90694C13.4387 5.89325 13.4473 5.87914 13.4593 5.86716C13.4691 5.85732 13.4816 5.85005 13.4927 5.84149C13.5056 5.83123 13.5167 5.82011 13.5304 5.81198H13.5309L17.6508 3.44512C17.703 3.41512 17.7621 3.39934 17.8223 3.39934C17.8825 3.39934 17.9416 3.41512 17.9937 3.44512L22.1133 5.81198C22.1278 5.82053 22.139 5.83123 22.1518 5.84107C22.1626 5.84962 22.175 5.85732 22.1848 5.86673C22.1969 5.87914 22.2054 5.89325 22.2157 5.90694C22.2234 5.91721 22.2329 5.92619 22.2389 5.93731C22.2487 5.954 22.2543 5.97239 22.2612 5.99036C22.265 6.0002 22.2706 6.00918 22.2732 6.01945ZM21.5984 10.6043V6.70131L20.1568 7.52948L18.1652 8.67377V12.5768L21.5989 10.6043H21.5984ZM17.4789 17.6647V13.7591L15.5199 14.8756L9.92576 18.0616V22.004L17.4789 17.6647ZM1.68673 4.37467V17.6647L9.23903 22.0035V18.0621L5.29355 15.8338L5.29227 15.8329L5.29055 15.8321C5.27727 15.8244 5.26612 15.8133 5.25369 15.8039C5.24297 15.7953 5.23054 15.7885 5.22111 15.779L5.22025 15.7778C5.20911 15.7671 5.20139 15.7538 5.19196 15.7418C5.18339 15.7303 5.1731 15.7204 5.16624 15.7085L5.16581 15.7072C5.15809 15.6943 5.15338 15.679 5.14781 15.6644C5.14223 15.6516 5.13495 15.6396 5.13152 15.6259V15.6255C5.12723 15.6092 5.12637 15.5921 5.12466 15.5754C5.12294 15.5626 5.11951 15.5498 5.11951 15.5369V6.34712L3.12834 5.2024L1.68673 4.37509V4.37467ZM5.46331 1.8106L2.03095 3.7822L5.46245 5.7538L8.89438 3.78177L5.46245 1.8106H5.46331ZM7.24829 14.115L9.23946 12.9712V4.37467L7.79784 5.20283L5.80624 6.34712V14.9436L7.24829 14.115ZM17.8223 4.13725L14.3904 6.10885L17.8223 8.08045L21.2538 6.10842L17.8223 4.13725ZM17.4789 8.67377L15.4873 7.52948L14.0457 6.70131V10.6043L16.0369 11.7482L17.4789 12.5768V8.67377ZM9.58197 17.4692L14.6158 14.6014L17.1321 13.1684L13.7028 11.198L9.75429 13.4665L6.15561 15.5339L9.58197 17.4692Z" fill="#FF2D20"/>
</g>
<defs>
<clipPath id="clip0_12171_1661">
<rect width="22" height="22" fill="white" transform="translate(1 1)"/>
</clipPath>
</defs>
</svg>
