<svg width="24" height="24" viewBox="0 0 24 24" fill="none" xmlns="http://www.w3.org/2000/svg">
<path d="M12 1C5.92482 1 1 5.92482 1 12C1 18.0751 5.92482 23 12 23C18.0751 23 23 18.0751 23 12C23 5.92482 18.075 1 12 1ZM9.06516 17.318H6.65001V9.51528H9.06516V17.318ZM7.84608 8.49346C7.05731 8.49346 6.41788 7.84881 6.41788 7.05373C6.41788 6.25856 7.0574 5.61396 7.84608 5.61396C8.63475 5.61396 9.27418 6.25856 9.27418 7.05373C9.27423 7.84886 8.6348 8.49346 7.84608 8.49346ZM18.116 17.318H15.7125V13.2222C15.7125 12.0989 15.2858 11.4718 14.3976 11.4718C13.4308 11.4718 12.9258 12.1249 12.9258 13.2222V17.318H10.6094V9.51528H12.9258V10.5662C12.9258 10.5662 13.6226 9.27728 15.2771 9.27728C16.9316 9.27728 18.116 10.2875 18.116 12.3774L18.116 17.318Z" fill="url(#paint0_linear_12139_865)"/>
<defs>
<linearGradient id="paint0_linear_12139_865" x1="4.22182" y1="4.22181" x2="19.7781" y2="19.7781" gradientUnits="userSpaceOnUse">
<stop stop-color="#2489BE"/>
<stop offset="1" stop-color="#0575B3"/>
</linearGradient>
</defs>
</svg>
