<svg width="24" height="24" viewBox="0 0 24 24" fill="none" xmlns="http://www.w3.org/2000/svg">
<g clip-path="url(#clip0_12140_3226)">
<path d="M19.7073 23.5909C14.5854 24.1373 9.42002 24.1373 4.29818 23.5909C3.30357 23.4859 2.37501 23.0431 1.66731 22.3364C0.959605 21.6297 0.515522 20.7017 0.409094 19.7073C-0.137341 14.5854 -0.137341 9.42002 0.409094 4.29818C0.514126 3.30357 0.956907 2.37501 1.66362 1.66731C2.37033 0.959605 3.29827 0.515522 4.29273 0.409094C9.41456 -0.137341 14.58 -0.137341 19.7018 0.409094C20.6964 0.514126 21.625 0.956907 22.3327 1.66362C23.0404 2.37033 23.4845 3.29827 23.5909 4.29273C24.1373 9.41456 24.1373 14.58 23.5909 19.7018C23.4859 20.6964 23.0431 21.625 22.3364 22.3327C21.6297 23.0404 20.7017 23.4845 19.7073 23.5909V23.5909Z" fill="#0B66C3"/>
<path d="M8.64535 6.54545C8.64535 6.95001 8.52539 7.34547 8.30063 7.68185C8.07587 8.01822 7.75642 8.28039 7.38266 8.43521C7.0089 8.59002 6.59763 8.63053 6.20085 8.55161C5.80407 8.47268 5.43961 8.27787 5.15354 7.99181C4.86748 7.70575 4.67267 7.34128 4.59375 6.9445C4.51482 6.54772 4.55533 6.13645 4.71015 5.76269C4.86496 5.38894 5.12713 5.06948 5.46351 4.84472C5.79988 4.61996 6.19535 4.5 6.5999 4.5C7.14239 4.5 7.66266 4.7155 8.04625 5.0991C8.42985 5.4827 8.64535 6.00297 8.64535 6.54545Z" fill="white"/>
<path d="M8.18179 9.95454V18.9914C8.18215 19.058 8.16933 19.1241 8.14406 19.1858C8.1188 19.2475 8.08159 19.3036 8.03458 19.3509C7.98757 19.3981 7.93167 19.4356 7.87011 19.4612C7.80856 19.4868 7.74255 19.5 7.67588 19.5H5.51997C5.4533 19.5002 5.38726 19.4872 5.32563 19.4617C5.26401 19.4363 5.20801 19.399 5.16087 19.3518C5.11373 19.3047 5.07637 19.2487 5.05094 19.1871C5.02552 19.1254 5.01252 19.0594 5.0127 18.9927V9.95454C5.0127 9.82 5.06614 9.69097 5.16127 9.59584C5.25641 9.50071 5.38543 9.44727 5.51997 9.44727H7.67588C7.81018 9.44763 7.93886 9.50123 8.03369 9.59632C8.12853 9.69142 8.18179 9.82024 8.18179 9.95454V9.95454Z" fill="white"/>
<path d="M19.4507 14.6591V19.0337C19.4509 19.095 19.439 19.1557 19.4156 19.2123C19.3922 19.269 19.3579 19.3205 19.3145 19.3638C19.2712 19.4072 19.2197 19.4415 19.1631 19.4649C19.1064 19.4883 19.0457 19.5002 18.9844 19.5H16.6662C16.6049 19.5002 16.5442 19.4883 16.4875 19.4649C16.4308 19.4415 16.3794 19.4072 16.336 19.3638C16.2927 19.3205 16.2583 19.269 16.235 19.2123C16.2116 19.1557 16.1997 19.095 16.1998 19.0337V14.7941C16.1998 14.1614 16.3853 12.0232 14.5457 12.0232C13.1207 12.0232 12.8303 13.4864 12.773 14.1437V19.0337C12.773 19.1562 12.7248 19.2738 12.6388 19.361C12.5528 19.4483 12.436 19.4982 12.3135 19.5H10.0744C10.0132 19.5 9.95262 19.488 9.89611 19.4645C9.83961 19.4411 9.78829 19.4067 9.74509 19.3634C9.70189 19.32 9.66767 19.2686 9.64438 19.212C9.62109 19.1555 9.6092 19.0948 9.60938 19.0337V9.91503C9.6092 9.85385 9.62109 9.79324 9.64438 9.73666C9.66767 9.68009 9.70189 9.62867 9.74509 9.58534C9.78829 9.54202 9.83961 9.50765 9.89611 9.48419C9.95262 9.46074 10.0132 9.44867 10.0744 9.44867H12.3135C12.4372 9.44867 12.5558 9.4978 12.6432 9.58526C12.7307 9.67272 12.7798 9.79134 12.7798 9.91503V10.7032C13.3089 9.90957 14.093 9.2973 15.7662 9.2973C19.4726 9.2973 19.4507 12.7582 19.4507 14.6591V14.6591Z" fill="white"/>
</g>
<defs>
<clipPath id="clip0_12140_3226">
<rect width="24" height="24" fill="white"/>
</clipPath>
</defs>
</svg>
