<svg width="24" height="24" viewBox="0 0 24 24" fill="none" xmlns="http://www.w3.org/2000/svg">
<path d="M6.24729 12.4171C6.09033 12.4086 5.93293 12.4198 5.77876 12.4504C4.66302 12.6758 4.03347 13.6253 4.15709 14.8584C4.26929 15.9742 5.39853 16.9154 6.44259 16.9434C6.54973 16.9458 6.65685 16.9381 6.76256 16.9206C7.89388 16.7274 8.18996 15.4994 8.0092 14.2933C7.79415 12.9314 6.87268 12.4514 6.24729 12.4171ZM7.35575 15.649C7.30993 15.7232 7.24433 15.7831 7.16633 15.822C7.08834 15.8609 7.00103 15.8772 6.91424 15.8693C6.67218 15.8506 6.40311 15.674 6.36675 15.2366C6.36403 15.0254 6.40286 14.8157 6.48103 14.6195C6.52993 14.4964 6.53493 14.3602 6.4952 14.2338C6.45547 14.1074 6.37343 13.9985 6.26287 13.9255C6.19732 13.8822 6.12374 13.8524 6.04648 13.8379C5.96921 13.8235 5.88984 13.8246 5.81304 13.8414C5.73811 13.8564 5.66692 13.8862 5.60361 13.929C5.5403 13.9718 5.48612 14.0268 5.44424 14.0907C5.38589 14.1901 5.3405 14.2966 5.30919 14.4076C5.30544 14.4228 5.30058 14.4377 5.29465 14.4522C5.24374 14.5904 5.16167 14.6309 5.10661 14.6226C5.08064 14.6226 5.04428 14.6018 5.02143 14.5385C4.9591 14.366 5.00896 13.8788 5.33309 13.5204C5.43966 13.4066 5.57167 13.3198 5.71829 13.2668C5.86492 13.2139 6.02199 13.1965 6.17664 13.216C6.34019 13.2384 6.49564 13.3009 6.62907 13.3981C6.76251 13.4953 6.86977 13.624 6.94125 13.7728C7.16252 14.1946 6.96514 14.6372 6.84775 14.901C6.83528 14.9301 6.82282 14.9561 6.81347 14.98C6.73971 15.1556 6.73555 15.3083 6.80204 15.4111C6.83026 15.4513 6.86798 15.4839 6.91184 15.506C6.9557 15.5281 7.00434 15.5391 7.05344 15.5379C7.09976 15.5375 7.14584 15.5312 7.19057 15.5192C7.24875 15.5057 7.309 15.4911 7.34536 15.5368C7.35891 15.5519 7.36723 15.571 7.3691 15.5912C7.37097 15.6114 7.36629 15.6317 7.35575 15.649Z" fill="black"/>
<path d="M21.9715 14.5509C21.8444 14.3941 21.6877 14.2639 21.5103 14.1676C21.4968 14.1208 21.4812 14.071 21.4656 14.019C21.45 13.9671 21.4282 13.9037 21.4095 13.8528C21.6112 13.4414 21.6812 12.9778 21.61 12.5251C21.5391 12.0671 21.3236 11.6438 20.995 11.3169C20.569 10.8702 19.8616 10.5835 19.2975 10.4142C19.2902 10.1462 19.2819 9.84176 19.2736 9.65269C19.2638 9.21281 19.1975 8.77601 19.0762 8.35307C18.9636 7.93995 18.7885 7.54651 18.5568 7.18643C19.4086 6.16107 19.8741 5.10247 19.8741 4.15711C19.8741 2.62582 18.6794 1.63682 16.8375 1.63682C15.9627 1.63682 14.9675 1.8581 13.9505 2.2778L13.8164 2.33494C13.5048 2.03263 13.1017 1.63371 13.0747 1.60774C12.5987 1.19934 11.9875 0.98303 11.3606 1.00104C10.5606 1.00104 9.64229 1.29712 8.63044 1.882C7.64844 2.46899 6.73816 3.16836 5.91797 3.96596C4.08333 5.71852 2.59568 7.81598 1.95159 9.57789C1.67525 10.3342 1.55578 11.0209 1.59837 11.6182C1.61259 11.954 1.6953 12.2833 1.84144 12.5859C1.98757 12.8886 2.19404 13.1581 2.44816 13.3781L2.75982 13.644C2.65975 14.0907 2.63343 14.5508 2.68191 15.006C2.79188 15.9426 3.25162 16.803 3.96906 17.4151C4.54445 17.9309 5.2572 18.2687 6.02081 18.3874C6.68354 19.7057 7.69454 20.8173 8.94417 21.6017C10.3626 22.4788 11.9901 22.9599 13.6575 22.9948C13.7676 22.9948 13.8788 23 13.9879 23C15.7664 23 17.4306 22.5626 18.8019 21.7367C20.2053 20.8948 21.3014 19.6247 21.9289 18.1132L21.9362 18.0966C22.0453 17.815 22.4026 16.824 22.4026 15.8931C22.4026 15.221 22.1679 14.7919 21.9715 14.5509ZM21.2609 17.8306C20.0444 20.7477 17.1398 22.3715 13.6772 22.2686C10.4516 22.1731 7.69962 20.4704 6.49557 17.6976C5.76837 17.6976 5.01727 17.3787 4.44694 16.8728C3.86701 16.3803 3.49387 15.6874 3.40184 14.9322C3.34354 14.4127 3.40794 13.8868 3.58987 13.3968L2.91461 12.8243C-0.176004 10.2137 9.49997 -0.543748 12.5958 2.15626C12.6114 2.16976 13.6481 3.18785 13.6513 3.19512L14.2268 2.95099C16.9413 1.82174 19.1468 2.36403 19.1468 4.15814C19.1468 5.09312 18.5537 6.17873 17.6021 7.17085C17.947 7.49082 18.2254 7.99155 18.3822 8.56292C18.4874 8.92967 18.544 9.30863 18.5505 9.69009C18.5672 10.0703 18.5859 10.9554 18.5879 10.972L18.9702 11.0759C19.6974 11.2837 20.2169 11.5528 20.4704 11.8187C20.699 12.0419 20.8483 12.3338 20.8953 12.6498C20.9541 13.0571 20.8524 13.4713 20.6116 13.805C20.674 13.9481 20.7284 14.0944 20.7747 14.2434C20.8547 14.5 20.9129 14.713 20.9212 14.7452C21.2163 14.7452 21.6786 15.0839 21.6786 15.9025C21.6786 16.7211 21.3409 17.6301 21.2609 17.8306Z" fill="black"/>
<path d="M20.7757 15.4028C20.6714 15.3451 20.5509 15.3232 20.4329 15.3405C20.3705 14.9579 20.2609 14.5846 20.1067 14.2289C19.4059 14.7558 18.6143 15.1495 17.7713 15.3904C16.7585 15.6754 15.7052 15.7895 14.6548 15.728C13.9774 15.6729 13.5297 15.4756 13.3614 16.023C14.9072 16.5892 16.5444 16.3461 16.5444 16.3461C16.5597 16.3447 16.575 16.3493 16.5868 16.3591C16.5987 16.3688 16.6062 16.3828 16.6078 16.3981C16.6091 16.4107 16.6064 16.4234 16.6001 16.4344C16.5938 16.4455 16.5841 16.4542 16.5725 16.4594C16.5725 16.4594 15.3144 17.0432 13.3177 16.4261C13.3728 16.8936 13.8289 17.1045 14.0449 17.1886C14.2317 17.2581 14.4243 17.3106 14.6205 17.3455C17.0961 17.7704 19.4096 16.3555 19.9301 15.995C19.9696 15.969 19.9956 15.995 19.9644 16.0417C19.9486 16.067 19.9313 16.0913 19.9124 16.1145C19.2756 16.9372 17.5615 17.8888 15.3311 17.8888C14.3587 17.8888 13.3863 17.546 13.03 17.0193C12.4763 16.2028 13.0019 15.0101 13.9244 15.1348L14.3286 15.1805C15.4827 15.3083 17.1522 15.1473 18.5276 14.5084C19.7867 13.9235 20.2625 13.2804 20.1898 12.76C20.1663 12.5983 20.09 12.4489 19.9727 12.3351C19.7473 12.1128 19.3878 11.9403 18.7832 11.771C18.5827 11.7149 18.4476 11.6785 18.3012 11.6307C18.0415 11.5455 17.9126 11.4759 17.8856 10.9877C17.8732 10.7737 17.8358 10.0298 17.8223 9.7213C17.7963 9.18732 17.7298 8.44973 17.2768 8.14534C17.1855 8.08649 17.0831 8.04692 16.9759 8.02906C16.8687 8.0112 16.759 8.01541 16.6535 8.04146C16.3928 8.08613 16.238 8.2243 16.0458 8.38532C15.8319 8.57777 15.5807 8.72412 15.3077 8.81527C15.0348 8.90642 14.7461 8.94042 14.4595 8.91514C14.1395 8.90164 13.7998 8.85177 13.4112 8.82891L13.1837 8.81541C12.2872 8.7697 11.3252 9.54261 11.1652 10.6438C10.9429 12.1751 12.0514 12.9667 12.3713 13.43C12.4209 13.4889 12.4517 13.5613 12.4596 13.6378C12.4511 13.7226 12.4106 13.801 12.3464 13.857C11.4312 14.7982 11.1382 16.2931 11.4831 17.5387C11.5257 17.6915 11.5799 17.8409 11.6452 17.9855C12.4544 19.8751 14.9643 20.7561 17.4161 19.9593C17.7383 19.8549 18.0511 19.7231 18.351 19.5656C18.8853 19.2996 19.3663 18.938 19.7701 18.4987C20.4014 17.8665 20.8167 17.0509 20.9565 16.1685C21.0313 15.6823 20.9222 15.4943 20.7757 15.4028ZM17.4742 12.2738C17.4742 12.4753 17.3496 12.6363 17.2021 12.6343C17.0545 12.6322 16.9392 12.466 16.9423 12.2644C16.9455 12.0629 17.068 11.9019 17.2145 11.9039C17.361 11.906 17.4773 12.0722 17.4742 12.2738ZM16.801 9.89167C17.0867 9.84492 17.2249 10.141 17.3267 10.6303C17.3953 10.9596 17.3828 11.2619 17.3059 11.4375C17.1645 11.4192 17.0214 11.4192 16.88 11.4375C16.7425 11.2414 16.6493 11.0177 16.6068 10.782C16.5039 10.2916 16.5154 9.9353 16.801 9.89167ZM15.8422 12.521C15.9066 12.3891 16.1061 12.3538 16.2868 12.4431C16.4676 12.5325 16.5611 12.7101 16.4946 12.842C16.4281 12.974 16.2307 13.0093 16.05 12.92C15.8692 12.8306 15.7767 12.653 15.8422 12.521ZM14.7212 12.3725C14.6922 12.4182 14.6288 12.4099 14.4948 12.3953C14.2058 12.3504 13.9102 12.3812 13.6367 12.4847C13.5744 12.5108 13.5092 12.5289 13.4424 12.5387C13.4263 12.5389 13.4107 12.533 13.3988 12.5221C13.3919 12.516 13.3864 12.5085 13.3828 12.5C13.3792 12.4916 13.3776 12.4824 13.378 12.4732C13.3848 12.4317 13.3998 12.392 13.4221 12.3563C13.4444 12.3207 13.4735 12.2898 13.5079 12.2655C13.653 12.1483 13.8292 12.0761 14.0148 12.0577C14.3826 12.0141 14.6506 12.1855 14.7129 12.2863C14.723 12.2981 14.7291 12.3126 14.7306 12.3281C14.7321 12.3435 14.7288 12.359 14.7212 12.3725ZM12.6747 11.8676C12.6269 11.8614 12.6061 11.8406 12.6009 11.8136C12.5822 11.7294 12.7121 11.5902 12.8482 11.4894C13.048 11.3438 13.2819 11.2519 13.5275 11.2224C13.773 11.1929 14.022 11.2269 14.2506 11.3211C14.4639 11.4098 14.6474 11.5576 14.7794 11.7471C14.8282 11.8271 14.8376 11.8884 14.8064 11.9216C14.7566 11.9736 14.6309 11.9133 14.4262 11.824C14.1806 11.7034 13.9091 11.6449 13.6356 11.6536C13.1817 11.6816 12.7879 11.8811 12.6747 11.8676Z" fill="black"/>
<path d="M15.7904 6.31797C15.8298 6.32731 15.8548 6.25979 15.8195 6.24005C15.2382 5.93819 14.5968 5.76995 13.9422 5.74763C13.936 5.74745 13.93 5.74559 13.9248 5.74226C13.9196 5.73892 13.9153 5.73423 13.9126 5.72869C13.9098 5.72315 13.9086 5.71696 13.9091 5.71079C13.9095 5.70461 13.9117 5.69867 13.9152 5.69361C14.0171 5.56041 14.1358 5.44098 14.2684 5.33832C14.2747 5.334 14.2793 5.32773 14.2816 5.32048C14.2839 5.31324 14.2838 5.30543 14.2812 5.2983C14.2785 5.29116 14.2736 5.2851 14.2672 5.28106C14.2607 5.27702 14.2531 5.27524 14.2456 5.27599C13.4425 5.32481 12.5263 5.70919 12.0006 6.06864C11.9948 6.07245 11.988 6.07446 11.981 6.07442C11.9741 6.07438 11.9673 6.07228 11.9615 6.0684C11.9557 6.06452 11.9512 6.05902 11.9486 6.05259C11.9459 6.04617 11.9452 6.0391 11.9466 6.03228C12.0015 5.82958 12.0821 5.63477 12.1866 5.45259C12.1901 5.44632 12.1916 5.43905 12.1906 5.43189C12.1897 5.42473 12.1865 5.41807 12.1814 5.4129C12.1764 5.40774 12.1698 5.40436 12.1627 5.40327C12.1555 5.40219 12.1482 5.40345 12.1419 5.40688C11.2942 5.83905 10.3498 6.61092 9.58212 7.49707C9.57742 7.50367 9.57513 7.51168 9.57563 7.51976C9.57613 7.52784 9.57939 7.53551 9.58487 7.54147C9.59035 7.54744 9.59771 7.55134 9.60572 7.55252C9.61373 7.55371 9.6219 7.5521 9.62887 7.54798C10.2917 7.06595 11.1996 6.613 12.3902 6.32731C13.5085 6.06885 14.6707 6.06566 15.7904 6.31797Z" fill="black"/>
<path d="M12.8721 3.57017C12.8721 3.57017 12.0295 2.59364 11.7761 2.52196C10.2126 2.09914 6.83106 4.42931 4.67335 7.50954C3.79966 8.75513 2.54991 10.9617 3.1483 12.0972C3.22102 12.2374 3.63864 12.5989 3.86199 12.7849C4.2623 12.2233 4.86488 11.839 5.54287 11.7128C6.42799 9.34001 7.90421 7.15217 9.85831 5.6479C10.8034 4.87278 11.8115 4.1778 12.8721 3.57017Z" fill="black"/>
</svg>
