<svg width="24" height="24" viewBox="0 0 24 24" fill="none" xmlns="http://www.w3.org/2000/svg">
<path d="M20.9887 20.9812C20.9189 21.051 20.8317 21.0858 20.7271 21.0858C20.6224 21.0858 20.5352 21.051 20.4655 20.9812C20.3957 20.9114 20.3608 20.8242 20.3608 20.7196C20.3608 20.6149 20.3957 20.519 20.4742 20.4493C20.544 20.3795 20.6312 20.3533 20.7271 20.3533C20.8317 20.3533 20.9189 20.3882 20.9887 20.458C21.0585 20.5277 21.0934 20.6149 21.0934 20.7196C21.1021 20.8242 21.0672 20.9114 20.9887 20.9812ZM20.5178 20.5016C20.4568 20.5626 20.4306 20.6324 20.4306 20.7109C20.4306 20.7981 20.4568 20.8678 20.5178 20.9289C20.5788 20.9899 20.6486 21.0161 20.7358 21.0161C20.823 21.0161 20.8928 20.9899 20.9538 20.9289C21.0149 20.8678 21.041 20.7981 21.041 20.7109C21.041 20.6324 21.0149 20.5539 20.9538 20.5016C20.8928 20.4405 20.823 20.4056 20.7358 20.4056C20.6486 20.4144 20.5788 20.4405 20.5178 20.5016ZM20.8492 20.9027C20.8143 20.9289 20.7794 20.9376 20.7445 20.9376C20.6922 20.9376 20.6399 20.9202 20.5963 20.8766C20.5527 20.833 20.5352 20.7806 20.5352 20.7196C20.5352 20.6585 20.5527 20.6062 20.5876 20.5626C20.6224 20.519 20.6748 20.5016 20.7358 20.5016C20.7707 20.5016 20.8056 20.5103 20.8405 20.5277C20.8841 20.5539 20.9189 20.5975 20.9277 20.6673H20.8317C20.823 20.6411 20.8143 20.6149 20.7969 20.6062C20.7794 20.5975 20.762 20.5888 20.7445 20.5888C20.7184 20.5888 20.6922 20.5975 20.6748 20.6237C20.6573 20.6498 20.6486 20.6847 20.6486 20.7283C20.6486 20.7719 20.6573 20.8068 20.6748 20.8242C20.6922 20.8417 20.7184 20.8591 20.7445 20.8591C20.7707 20.8591 20.7881 20.8504 20.8056 20.8417L20.8317 20.7893H20.9189C20.9102 20.8417 20.8841 20.8766 20.8492 20.9027ZM21.7735 17.0308C21.7735 16.9959 21.7648 16.9611 21.7648 16.9262C21.7648 16.9 21.7561 16.8826 21.7561 16.8651C21.7474 16.8128 21.7387 16.7692 21.7212 16.7169C21.6863 16.621 21.634 16.525 21.5643 16.4466C21.4945 16.3681 21.416 16.307 21.3375 16.2634C21.2503 16.2198 21.1631 16.1937 21.0934 16.1762C21.0672 16.1762 21.0497 16.1675 21.0323 16.1675C21.1282 15.7489 21.0061 15.4263 20.9277 15.278L20.9451 15.2606C21.0497 15.1559 21.137 15.06 21.2154 14.9641L21.2329 14.9466C21.2939 14.8594 21.3288 14.7722 21.355 14.6937C21.3724 14.624 21.3898 14.5629 21.3898 14.5019V14.4496V14.4147V14.3362C21.3811 14.2054 21.3637 14.0397 21.2765 13.8566C21.2329 13.7694 21.1718 13.6734 21.0934 13.5862C21.0149 13.499 20.9189 13.4206 20.8056 13.3595C20.7969 13.3508 20.7881 13.3508 20.7794 13.3421C20.544 13.002 20.2823 12.7316 20.0469 12.5311C19.9248 12.4264 19.8114 12.3392 19.7155 12.2695C19.6196 12.1997 19.5411 12.1474 19.4975 12.1125C19.3929 12.034 19.3144 11.9904 19.2795 11.973C19.1923 11.9206 19.1312 11.877 19.0964 11.8509C19.0702 11.8247 19.0528 11.816 19.044 11.8073C19.044 11.8073 19.044 11.7985 19.0353 11.7811C19.0266 11.7549 19.0266 11.7201 19.0266 11.659C19.0266 11.5718 19.0266 11.441 19.0353 11.2666C19.0528 10.9875 19.0789 10.6126 19.1138 10.0981C19.1225 9.93237 19.1225 9.7754 19.1225 9.63587C19.1138 9.40042 19.0789 9.19113 19.0353 8.99928C19.0266 8.95568 19.0092 8.91207 19.0004 8.86847C18.9917 8.83359 18.983 8.81615 18.9743 8.79871C18.9656 8.77255 18.9568 8.74638 18.9394 8.7115C18.9307 8.69406 18.9307 8.67662 18.9132 8.65918C18.8958 8.61558 18.8784 8.57198 18.8522 8.52837L18.8435 8.51965L18.8348 8.49349L18.826 8.47605C18.7824 8.39757 18.7301 8.3278 18.6778 8.26676C18.6516 8.14467 18.608 7.97026 18.5295 7.76969C18.4598 7.59528 18.3726 7.40343 18.2418 7.21158C18.1982 7.14182 18.1458 7.08078 18.0935 7.01973L18.111 7.00229C18.1371 6.97613 18.7475 6.33081 19.2359 5.49365C20.1341 3.93269 19.8376 2.98216 19.4277 2.45893L19.419 2.44149L19.4103 2.42405C19.0179 1.98802 18.4772 1.72641 17.8232 1.6392C16.4541 1.46479 14.9018 2.14499 14.492 2.33684L13.742 1.51712C13.6722 1.44735 13.6025 1.37759 13.524 1.32527C13.4455 1.27294 13.3583 1.22062 13.2711 1.17702C13.0967 1.09853 12.9048 1.04621 12.6955 1.02005C12.2857 0.967727 11.8148 1.02005 11.309 1.15086C10.5503 1.34271 9.70442 1.72641 8.81493 2.25836C7.92545 2.79031 7.00108 3.47922 6.10287 4.29895C5.00409 5.29308 4.09716 6.34826 3.43441 7.35983C3.10303 7.8569 2.83269 8.34524 2.63212 8.81615C2.43155 9.27833 2.30074 9.72308 2.24842 10.1242C2.21354 10.4207 2.21354 10.6998 2.27458 10.9527C2.30074 11.066 2.33563 11.1707 2.38795 11.2753C2.44899 11.4061 2.52748 11.5282 2.6234 11.6329L3.39952 12.4439L3.48673 12.5311L3.47801 12.5398L3.45185 12.5921C3.43441 12.6183 3.42569 12.6444 3.40824 12.6619L3.38208 12.7142C3.37336 12.7404 3.35592 12.7665 3.3472 12.7927L3.32104 12.845C3.31232 12.8712 3.29488 12.8973 3.28616 12.9235C3.27744 12.9409 3.26872 12.9584 3.26872 12.9758L3.24256 13.0543C3.23383 13.0717 3.23383 13.0892 3.22511 13.1066C3.21639 13.1328 3.20767 13.1589 3.19895 13.1938C3.19895 13.2025 3.19023 13.2113 3.19023 13.22C3.19023 13.2287 3.18151 13.2374 3.18151 13.2461C3.17279 13.2723 3.16407 13.3072 3.15535 13.3333C3.15535 13.3508 3.14663 13.3682 3.14663 13.3857C3.14663 13.3944 3.13791 13.4118 3.13791 13.4206C3.13791 13.438 3.12919 13.4554 3.12919 13.4729C3.12919 13.4903 3.12047 13.5078 3.12047 13.5252C3.11175 13.5601 3.11175 13.595 3.10303 13.6386C3.10303 13.6473 3.10303 13.656 3.09431 13.6734V13.6822C3.09431 13.7083 3.08559 13.7345 3.08559 13.7519C3.08559 13.7868 3.07687 13.8304 3.07687 13.8653V14.3013C3.07687 14.3188 3.07687 14.3362 3.08559 14.3536C3.08559 14.3711 3.08559 14.3972 3.09431 14.4234V14.4496C3.09431 14.467 3.10303 14.4932 3.10303 14.5106C3.10303 14.5281 3.11175 14.5455 3.11175 14.5717C3.11175 14.5804 3.11175 14.5891 3.12047 14.5978C3.12047 14.6065 3.12919 14.624 3.12919 14.6327V14.6501C3.12919 14.6676 3.13791 14.685 3.14663 14.7199C3.14663 14.7286 3.14663 14.7286 3.15535 14.7373C3.16407 14.7548 3.16407 14.7722 3.16407 14.7809L3.17279 14.7984C3.17279 14.8071 3.17279 14.8071 3.18151 14.8158L3.19023 14.8333V14.8594C3.19023 14.8682 3.19023 14.8682 3.19895 14.8769L3.20767 14.8943C3.20767 14.9118 3.21639 14.9205 3.21639 14.9379C3.22511 14.9554 3.22511 14.9728 3.23383 15.0077V14.999V15.0077C3.23383 15.0164 3.23383 15.0164 3.24256 15.0251C3.25128 15.0513 3.26 15.0687 3.26 15.0774C3.26872 15.0949 3.27744 15.1123 3.28616 15.1472L3.29488 15.1559C3.3036 15.1734 3.3036 15.1908 3.31232 15.1995L3.32104 15.217C3.32104 15.2257 3.32976 15.2344 3.32976 15.2431C3.32976 15.2519 3.33848 15.2693 3.3472 15.278L3.35592 15.2955C3.36464 15.3042 3.36464 15.3216 3.37336 15.3303C3.38208 15.3391 3.38208 15.3478 3.38208 15.3565C3.3908 15.3739 3.39952 15.3914 3.40824 15.4175L3.41696 15.4263C3.42569 15.435 3.42569 15.4437 3.43441 15.4524C3.44313 15.4611 3.44313 15.4786 3.45185 15.4873C3.46057 15.496 3.46929 15.5135 3.47801 15.5396L3.48673 15.5483C3.49545 15.5571 3.49545 15.5658 3.50417 15.5745C3.51289 15.592 3.52161 15.6007 3.52161 15.6094C3.53033 15.6181 3.53905 15.6356 3.54777 15.653V15.6617C3.55649 15.6704 3.55649 15.6792 3.56521 15.6879C3.57393 15.7053 3.58265 15.714 3.59137 15.7228C3.60009 15.7315 3.60882 15.7489 3.62626 15.7751C3.63498 15.7838 3.6437 15.7925 3.6437 15.8012C3.65242 15.8187 3.66114 15.8274 3.66986 15.8361C3.67858 15.8448 3.6873 15.8623 3.69602 15.8797C3.70474 15.8884 3.71346 15.9059 3.72218 15.9146C3.7309 15.932 3.73962 15.9408 3.75706 15.9495L3.78322 15.9757L3.79194 15.9844C3.80939 16.0018 3.81811 16.0193 3.83555 16.0367L3.85299 16.0541L3.87915 16.0803L3.93147 16.1326L3.94891 16.1501L3.97507 16.1762L3.9838 16.1849C4.00124 16.2024 4.0274 16.2198 4.04484 16.246L4.05356 16.2547C4.06228 16.2634 4.071 16.2634 4.07972 16.2809C4.10588 16.307 4.13204 16.3245 4.1582 16.3506L4.17565 16.3594L4.18437 16.3681L4.20181 16.3768C4.22797 16.3942 4.24541 16.4117 4.27157 16.4291L4.28029 16.4378C4.28901 16.4466 4.29773 16.4466 4.29773 16.4466L4.31517 16.464C4.33261 16.4814 4.35005 16.4902 4.3675 16.5076L4.38494 16.5163L4.40238 16.5338L4.4111 16.5425C4.42854 16.5512 4.4547 16.5686 4.47214 16.5774C4.48086 16.5861 4.48958 16.5948 4.50702 16.5948L4.52446 16.6035L4.53318 16.6122H4.54191C4.57679 16.6297 4.60295 16.6471 4.62911 16.6646L4.64655 16.6733L4.7512 16.7256H4.75992L4.77736 16.7343L4.82968 16.7605C4.8384 16.7605 4.84712 16.7692 4.85584 16.7692C4.86456 16.7779 4.87328 16.7779 4.89072 16.7867H4.89944C4.91689 16.7954 4.93433 16.8041 4.95177 16.8041H4.96049C4.97793 16.8128 4.99537 16.8215 5.02153 16.8303H5.03025L5.04769 16.839C5.05641 16.839 5.06513 16.8477 5.07385 16.8477H5.08257C5.10874 16.8564 5.1349 16.8651 5.16978 16.8739H5.1785C5.2221 16.8913 5.2657 16.9 5.30931 16.9087H5.31803C5.35291 16.9175 5.39651 16.9262 5.43139 16.9349H5.46627C5.50116 16.9436 5.53604 16.9523 5.57092 16.9523H5.6058C5.63196 16.9523 5.6494 16.9611 5.67557 16.9611C5.67557 16.9698 5.68429 16.9785 5.68429 16.9872C5.74533 17.1529 5.80637 17.3186 5.87614 17.4756C6.90515 20.3272 9.75674 22.5422 13.0095 22.952C16.2622 23.3532 19.7417 21.1905 21.1544 18.2691C21.2154 18.1558 21.2678 18.0511 21.3201 17.9378C21.4596 17.7895 21.573 17.6413 21.6427 17.4843C21.7561 17.3884 21.7823 17.1965 21.7735 17.0308ZM3.71346 15.8972H3.72218H3.71346Z" fill="#664F44"/>
<path d="M18.9919 2.76413C18.8349 2.58972 18.6518 2.45892 18.4512 2.36299C18.4163 2.34555 18.3814 2.33683 18.3378 2.32811C18.3204 2.31939 18.303 2.30195 18.2855 2.29323C18.1111 2.22346 17.928 2.17986 17.7361 2.1537C16.7943 2.03161 15.713 2.38043 15.1025 2.62461C15.0677 2.64205 15.0328 2.65077 14.9979 2.66821C14.9456 2.69437 14.8932 2.71181 14.8409 2.73797C14.7537 2.77285 14.6665 2.81646 14.5706 2.86006C14.5531 2.86878 14.5444 2.86878 14.527 2.8775L14.3613 2.68565L14.2828 2.59844L14.2131 2.51996L14.1869 2.48508L13.5503 1.75256L13.498 1.69152L13.4282 1.61303H13.4195L13.2364 1.65663L13.0271 1.70024C12.9137 1.64791 12.7742 1.61303 12.6172 1.58687C12.3033 1.54327 11.9021 1.58687 11.4487 1.70024C10.9952 1.8136 10.4807 2.01417 9.94002 2.28451C8.84996 2.82518 7.64654 3.65362 6.478 4.71752C6.06813 5.08378 5.69315 5.46748 5.34434 5.84246C5.00424 6.20872 4.69902 6.5837 4.41997 6.94124C3.85314 7.68248 3.42583 8.39756 3.14678 9.04287C2.96365 9.47017 2.85028 9.86259 2.80668 10.2027C2.7718 10.4469 2.78052 10.6649 2.82412 10.8393C2.84156 10.9003 2.859 10.9439 2.87644 10.9963C2.92005 11.1009 2.97237 11.1881 3.04213 11.2666L3.74849 12.0078L3.82697 12.0863L3.8357 12.0776C3.85314 12.0514 3.8793 12.0253 3.90546 12.0078L3.91418 11.9991L3.94034 11.9729C3.95778 11.9468 3.98394 11.9293 4.00138 11.9032C4.01882 11.8857 4.02755 11.877 4.04499 11.8683C4.06243 11.8596 4.07115 11.8421 4.08859 11.8334L4.10603 11.816C4.12347 11.8073 4.13219 11.7898 4.14963 11.7811C4.16707 11.7637 4.19323 11.7462 4.21068 11.7288C4.2194 11.7201 4.23684 11.7113 4.24556 11.7026H4.25428C4.28044 11.6852 4.29788 11.6677 4.32404 11.6503C4.34148 11.6416 4.3502 11.6328 4.36764 11.6154C4.39381 11.598 4.41125 11.5805 4.43741 11.5631C4.45485 11.5544 4.46357 11.5456 4.48101 11.5369C4.50717 11.5195 4.53333 11.502 4.55949 11.4933C4.57693 11.4846 4.58566 11.4759 4.6031 11.4672C4.62926 11.4497 4.65542 11.441 4.68158 11.4236C4.69902 11.4148 4.70774 11.4061 4.72518 11.3974L4.74262 11.3887C4.76878 11.38 4.78623 11.3625 4.81239 11.3538C4.82111 11.3451 4.83855 11.3451 4.84727 11.3364C4.86471 11.3276 4.88215 11.3189 4.90831 11.3102L4.96064 11.284L4.97808 11.2753L5.10888 11.223C5.12632 11.2143 5.13504 11.2143 5.15249 11.2055C5.16993 11.1968 5.17865 11.1968 5.19609 11.1881L5.21353 11.1794C5.22225 11.1794 5.23097 11.1707 5.23969 11.1707C5.25713 11.1619 5.27457 11.1619 5.30073 11.1532H5.31817C5.34434 11.1445 5.36178 11.1445 5.38794 11.1358C5.40538 11.1271 5.43154 11.1271 5.44898 11.1183C5.47514 11.1096 5.5013 11.1096 5.52747 11.1009C5.53619 11.1009 5.54491 11.0922 5.56235 11.0922C5.57107 11.0922 5.58851 11.0922 5.59723 11.0835C5.62339 11.0747 5.64955 11.0747 5.67571 11.0747C5.70187 11.0747 5.71932 11.066 5.74548 11.066C5.76292 11.066 5.78036 11.0573 5.7978 11.0573H5.86756C5.95477 11.0573 6.05941 11.0573 6.16406 11.066H6.1815C6.28615 11.0747 6.40823 11.0922 6.53032 11.1183C6.55648 11.1271 6.59136 11.1271 6.61752 11.1358C6.62624 11.1271 6.62624 11.1096 6.63496 11.1009C6.70473 10.9875 6.76577 10.8654 6.83554 10.7521C7.22796 10.098 7.64654 9.5225 8.07384 9.01671C8.22209 8.8423 8.37034 8.68533 8.51859 8.52836C9.13774 7.88305 9.75689 7.38598 10.315 7.00228C10.4371 6.91508 10.5679 6.83659 10.6813 6.75811C10.847 6.65346 11.0039 6.56626 11.1522 6.47905C11.2743 6.40929 11.3876 6.34825 11.501 6.29592C11.6841 6.2 11.8498 6.12151 11.9981 6.06047L12.1289 6.00815C12.1899 5.98199 12.2509 5.95582 12.3033 5.93838C12.2597 5.92966 12.2073 5.92966 12.1637 5.92966H11.9893C11.9457 5.92966 11.8934 5.92966 11.8498 5.93838C11.7626 5.9471 11.6667 5.95582 11.5707 5.96455C11.5359 5.97327 11.5097 5.97327 11.4748 5.98199C11.7103 5.8599 11.9457 5.7727 12.1637 5.70293C12.312 5.65933 12.4602 5.62445 12.5998 5.59829C12.7916 5.5634 12.9747 5.53724 13.1404 5.52852C13.2538 5.5198 13.3584 5.5198 13.4544 5.5198C13.5503 5.5198 13.6462 5.52852 13.7247 5.52852C14.0125 5.54596 14.1869 5.58957 14.1869 5.58957C14.1433 5.52852 14.091 5.48492 14.0386 5.44132C13.934 5.36283 13.8206 5.31051 13.716 5.26691C13.6724 5.24947 13.6375 5.24075 13.6026 5.22331C13.5765 5.21458 13.5503 5.20586 13.5329 5.20586C13.5852 5.19714 13.6288 5.18842 13.6724 5.18842C13.7247 5.1797 13.7683 5.1797 13.8206 5.17098C14.2305 5.1361 14.5968 5.17098 14.8671 5.21459C15.1897 5.27563 15.3903 5.35411 15.3903 5.35411C15.3467 5.26691 15.2769 5.18842 15.1985 5.11866C15.1461 5.07506 15.0851 5.03146 15.0328 4.99657C15.1461 5.02273 15.2421 5.0489 15.3467 5.08378C15.6083 5.16226 15.8263 5.25819 16.0007 5.33667L16.1577 5.41516C16.1752 5.42388 16.1839 5.4326 16.1926 5.4326C16.3496 5.5198 16.4368 5.58084 16.4368 5.58084C16.4106 5.48492 16.3583 5.39771 16.2885 5.31923C16.2711 5.30179 16.2536 5.27563 16.2362 5.25819H16.2449C16.2536 5.25819 16.2624 5.26691 16.2798 5.26691C16.2885 5.26691 16.306 5.27563 16.3234 5.28435C16.3932 5.31051 16.4978 5.35411 16.6199 5.41516C16.6286 5.41516 16.6286 5.42388 16.6373 5.42388L16.6897 5.45004C16.7333 5.4762 16.7769 5.49364 16.8205 5.52852L16.9513 5.60701C16.9774 5.62445 16.9949 5.63317 17.021 5.65061C17.0646 5.68549 17.117 5.72037 17.1606 5.76397C17.2129 5.80758 17.2565 5.85118 17.3001 5.89478L17.3263 5.92094C17.3611 5.95582 17.396 5.99071 17.4222 6.02559C17.4832 6.09535 17.5356 6.17384 17.5879 6.25232C17.6489 6.34825 17.6925 6.46161 17.7361 6.57498C17.7361 6.5837 17.7361 6.59242 17.7448 6.59242C17.771 6.56626 17.8233 6.51393 17.8844 6.44417C18.3902 5.85118 19.9075 3.93268 18.9919 2.76413Z" fill="#132134"/>
<path d="M21.2504 17.0919C21.2504 17.0919 21.2678 16.9611 21.1981 16.839C21.1981 16.8302 21.1893 16.8215 21.1893 16.8215L21.1806 16.8128L21.1545 16.7866C21.137 16.7692 21.1196 16.7518 21.0934 16.7343C21.0847 16.7256 21.0672 16.7169 21.0498 16.7082C21.0062 16.6907 20.9626 16.6733 20.9016 16.6646C20.858 16.6558 20.8144 16.6558 20.762 16.6558H20.6923V16.6733C20.6923 16.682 20.701 16.6907 20.701 16.7082C20.701 16.7169 20.701 16.7256 20.7097 16.7256C20.7184 16.7518 20.7271 16.7954 20.7359 16.8302C20.7359 16.8302 20.7359 16.839 20.7271 16.8564V16.8651C20.701 16.9262 20.6312 17.0657 20.4743 17.2401C20.4481 17.275 20.4219 17.3011 20.3871 17.336C19.951 17.7895 19.0092 18.4261 17.021 18.7836C16.3495 18.8796 15.7216 18.8883 15.1984 18.8185C14.4135 18.7226 13.8293 18.4697 13.5502 18.1296C13.524 18.1034 13.5066 18.0686 13.4804 18.0424C13.463 18.0162 13.4543 17.9988 13.4368 17.9726C13.4281 17.9639 13.4281 17.9552 13.4194 17.9465C13.306 17.7372 13.2537 17.5104 13.2537 17.2924C13.2537 17.0221 13.3409 16.7692 13.4804 16.5773C13.5938 16.4204 13.7421 16.2983 13.9252 16.246C14.0124 16.2198 14.1083 16.2024 14.2042 16.2111C14.2217 16.2111 14.2478 16.2111 14.2827 16.2198C14.3438 16.2285 14.4397 16.2373 14.5531 16.2547C14.5618 16.2547 14.5792 16.2547 14.5879 16.2634C14.9629 16.307 15.5559 16.3681 16.271 16.3245C17.5791 16.246 19.297 15.8361 20.858 14.4234V14.4147C20.8667 14.2926 20.8492 14.0833 20.701 13.9176C20.6748 13.8914 20.6487 13.8653 20.6138 13.8391C20.5963 13.8217 20.5702 13.813 20.5527 13.7955C20.5266 13.7868 20.5091 13.7694 20.4917 13.7606L20.4132 13.7083V13.6996C20.4045 13.6822 20.3958 13.6647 20.3783 13.6473C19.9772 13.0368 19.4191 12.6793 19.1923 12.5136C19.0877 12.4351 19.0179 12.4002 19.0179 12.4002C18.5383 12.1038 18.4685 12.0078 18.5121 11.2143C18.5296 10.9265 18.5558 10.5515 18.5906 10.037C18.5906 9.96724 18.5994 9.90619 18.5994 9.84515V9.80155V9.59226C18.5994 9.54865 18.5906 9.50505 18.5906 9.47017C18.5906 9.45273 18.5906 9.43529 18.5819 9.41785C18.5732 9.37424 18.5732 9.33064 18.5645 9.28704C18.5645 9.2696 18.5558 9.24344 18.5558 9.226C18.5558 9.19984 18.547 9.18239 18.5383 9.15623C18.5296 9.13879 18.5296 9.11263 18.5209 9.09519C18.5121 9.06903 18.5034 9.04287 18.5034 9.01671C18.5034 9.00798 18.4947 8.99926 18.4947 8.99054C18.4947 8.98182 18.486 8.9731 18.486 8.96438V8.95566L18.4773 8.9295C18.4685 8.91206 18.4598 8.89462 18.4598 8.87718V8.86846L18.4511 8.85102L18.4424 8.83358C18.4249 8.79869 18.4162 8.76381 18.3988 8.73765L18.3901 8.71149C18.3726 8.68533 18.3552 8.65045 18.3377 8.62428L18.329 8.61556L18.3203 8.60684C18.3029 8.5894 18.2941 8.57196 18.2767 8.55452L18.2593 8.52836C18.2418 8.5022 18.2244 8.48476 18.2069 8.46732V8.39755C18.1982 8.36267 18.1895 8.31907 18.1808 8.27547C18.1808 8.26675 18.1721 8.2493 18.1721 8.24058V8.23186C18.1721 8.21442 18.1633 8.2057 18.1633 8.18826C18.1546 8.15338 18.1459 8.1185 18.1284 8.08362C18.1284 8.0749 18.1197 8.05745 18.1197 8.04873L18.0936 7.97025C18.0848 7.95281 18.0848 7.93537 18.0761 7.92665C18.0674 7.90049 18.0587 7.87432 18.0412 7.84816L18.0151 7.79584C18.0064 7.76968 17.9889 7.74352 17.9802 7.71736L17.954 7.66503C17.9366 7.63887 17.9279 7.61271 17.9104 7.58655L17.8843 7.53423C17.8668 7.50806 17.8494 7.4819 17.832 7.44702C17.8232 7.42958 17.8145 7.42086 17.8058 7.40342C17.7971 7.3947 17.7884 7.37726 17.7796 7.36854C17.7535 7.34238 17.736 7.31621 17.7099 7.29005L17.6924 7.28133C17.6575 7.24645 17.6314 7.21157 17.5965 7.18541L17.5878 7.17669C17.5703 7.16797 17.5529 7.15053 17.5442 7.1418H17.5355C17.518 7.13308 17.5093 7.12436 17.4919 7.11564L17.4831 7.10692C17.4657 7.0982 17.4395 7.08076 17.4047 7.06332C17.3959 7.0546 17.3785 7.0546 17.361 7.04588C17.2826 7.01972 17.1866 6.98484 17.0646 6.94995C17.0558 6.94995 17.0471 6.94995 17.0384 6.94123C16.9425 6.91507 16.8291 6.88891 16.707 6.87147C16.6634 6.86275 16.6285 6.86275 16.5849 6.85403C16.5675 6.85403 16.55 6.85403 16.5239 6.84531H16.4977C16.4018 6.83659 16.3146 6.82787 16.2187 6.82787H16.2099C16.0879 6.82787 15.9658 6.83659 15.8524 6.86275C15.8786 6.81915 15.9571 6.76682 16.0268 6.72322C16.1227 6.6709 16.2099 6.63602 16.2099 6.63602C16.1576 6.63602 16.1053 6.64474 16.053 6.65346C16.0355 6.65346 16.0181 6.66218 16.0007 6.66218C15.9919 6.66218 15.9745 6.66218 15.9658 6.6709H15.9571C15.9483 6.6709 15.9396 6.6709 15.9309 6.67962C15.6606 6.74066 15.3989 6.83659 15.2507 6.89763L15.1984 6.92379H15.1897C15.1722 6.92379 15.1635 6.92379 15.146 6.93251C15.2507 6.73194 15.4077 6.6273 15.5297 6.57497C15.5472 6.56625 15.5734 6.55753 15.5908 6.54881C15.5995 6.54881 15.5995 6.54881 15.6082 6.54009C15.6257 6.53137 15.6431 6.53137 15.6518 6.52265C15.678 6.51393 15.6954 6.51393 15.6954 6.51393H15.5559C15.2594 6.54881 14.9891 6.64474 14.7623 6.77555C14.6054 6.86275 14.4659 6.95868 14.3438 7.0546C14.3089 7.06332 14.2827 7.07204 14.2478 7.07204C13.9165 7.1418 13.5415 7.22901 13.1491 7.3511C13.0008 7.3947 12.8526 7.44702 12.7043 7.49934C12.591 7.54295 12.4689 7.58655 12.3555 7.63015C12.2683 7.66503 12.1898 7.69992 12.1026 7.7348C11.5009 8.00513 10.8992 8.36267 10.4021 8.8423L10.3498 8.89462L10.219 9.02543L10.1667 9.07775C10.1492 9.10391 10.1231 9.13007 10.1056 9.14751C10.0097 9.25216 9.92249 9.36552 9.83529 9.48761C9.77424 9.57482 9.7132 9.67074 9.66088 9.76667L9.65216 9.77539C9.53879 9.97596 9.43414 10.1852 9.35566 10.4207C9.31206 10.5341 9.27718 10.6562 9.24229 10.7782C9.23357 10.8131 9.22485 10.8393 9.21613 10.8742L9.20741 10.8916C9.17253 11.0224 9.14637 11.1619 9.12893 11.3015C9.12893 11.3276 9.12021 11.3538 9.12021 11.3887C9.11149 11.4584 9.10277 11.5282 9.10277 11.6067C9.09405 11.6764 9.09405 11.7375 9.09405 11.8073V12.0776C9.09405 12.1561 9.09405 12.2346 9.10277 12.313V12.3218C9.10277 12.4002 9.11149 12.4787 9.12021 12.5659C9.12021 12.6008 9.12893 12.6357 9.12893 12.6706V12.6967C9.12893 12.7142 9.12893 12.7316 9.13765 12.7578C9.14637 12.845 9.16381 12.9409 9.17253 13.0368C9.17253 13.063 9.18125 13.0892 9.18125 13.1153C9.19869 13.1938 9.20741 13.281 9.22485 13.3595C9.22485 13.3595 9.20741 13.2549 9.21613 13.0979C9.21613 13.063 9.22485 13.0194 9.22485 12.9845C9.23357 12.8973 9.25101 12.7927 9.2859 12.6967L9.31206 12.6183C9.31206 12.6095 9.32078 12.6008 9.3295 12.5834C9.34694 12.5398 9.3731 12.4875 9.39926 12.4438C9.40798 12.4787 9.40798 12.5136 9.4167 12.5398V13.002C9.42542 13.2985 9.45158 13.656 9.51263 13.9612C9.51263 13.9612 9.52135 13.4118 9.61727 13.3421C9.61727 13.3421 9.78296 14.3711 9.93121 14.7548C9.94865 14.8071 9.97481 14.842 9.99225 14.8681V14.7635L9.97481 14.1967V14.1356C10.0882 14.3711 10.219 14.6065 10.3672 14.8594C10.4108 14.9292 10.4457 14.9989 10.4893 15.0687C10.2103 15.3129 9.94865 15.6704 9.7568 16.089C9.73064 16.1588 9.69576 16.2285 9.6696 16.2983C9.65216 16.3419 9.64344 16.3768 9.62599 16.4204C9.62599 16.4291 9.61727 16.4465 9.61727 16.4553C9.60855 16.4814 9.59983 16.5163 9.59111 16.5425C9.59111 16.5599 9.58239 16.5686 9.58239 16.5861C9.57367 16.6122 9.56495 16.6471 9.55623 16.6733C9.55623 16.6907 9.54751 16.6994 9.54751 16.7169L9.52135 16.8477C9.51263 16.8913 9.50391 16.9349 9.50391 16.9785C9.50391 16.9959 9.50391 17.0047 9.49519 17.0221C9.49519 17.057 9.48647 17.0831 9.48647 17.118C9.48647 17.1355 9.48647 17.1529 9.47775 17.1703C9.47775 17.2052 9.46903 17.2314 9.46903 17.2663V17.5715C9.46903 17.6064 9.46903 17.6412 9.47775 17.6848V17.711C9.47775 17.7546 9.48647 17.7982 9.49519 17.8505C9.49519 17.868 9.49519 17.8767 9.50391 17.8941C9.50391 17.929 9.51263 17.9552 9.52135 17.9901C9.52135 18.0075 9.53007 18.0249 9.53007 18.0424C9.53879 18.0686 9.53879 18.1034 9.54751 18.1296C9.54751 18.147 9.55623 18.1645 9.55623 18.1819C9.56495 18.2081 9.57367 18.2342 9.57367 18.2691C9.58239 18.2866 9.58239 18.304 9.59111 18.3302C9.59983 18.3563 9.60855 18.3912 9.61727 18.4174C9.62599 18.4348 9.62599 18.4523 9.63471 18.4697C9.64344 18.4959 9.65216 18.5307 9.66088 18.5569C9.6696 18.5743 9.6696 18.5918 9.67832 18.6092C9.68704 18.6441 9.70448 18.679 9.7132 18.7051C9.72192 18.7226 9.72192 18.7313 9.73064 18.7487L9.86145 19.0365C9.87017 19.054 9.87889 19.0627 9.88761 19.0801L9.93993 19.1848C9.94865 19.2022 9.95737 19.2197 9.97481 19.2371C9.99225 19.2633 10.0097 19.2981 10.0271 19.3243C10.0359 19.3417 10.0533 19.3592 10.062 19.3766C10.0795 19.4028 10.0969 19.4377 10.1231 19.4638C10.1405 19.4813 10.1492 19.4987 10.1667 19.5249C10.1841 19.551 10.2103 19.5859 10.2277 19.6121C10.2451 19.6295 10.2539 19.647 10.2713 19.6731C10.2975 19.6993 10.3149 19.7342 10.3411 19.7603C10.3585 19.7778 10.3672 19.7952 10.3847 19.8126C10.4108 19.8475 10.437 19.8737 10.4719 19.9086L10.5155 19.9522C10.5591 19.9958 10.6027 20.0481 10.6463 20.0917C10.6463 20.0917 10.6201 20.0568 10.5852 19.9871C10.5765 19.9783 10.5678 19.9609 10.5678 19.9435L10.5416 19.8911C10.5329 19.8737 10.5242 19.8562 10.5155 19.8301C10.4457 19.6731 10.3847 19.4464 10.3934 19.2022L10.4719 19.3069C10.498 19.3679 10.5416 19.4464 10.5852 19.5336C10.6027 19.5598 10.6201 19.5946 10.6288 19.6208C10.6986 19.7429 10.7684 19.8824 10.8556 20.0132C10.9602 20.1789 11.0649 20.3359 11.1782 20.4841C11.1782 20.4841 11.0474 20.2051 11.0038 20.0219C10.9951 19.9696 10.9864 19.926 10.9951 19.8998C11.0038 19.9086 11.0125 19.926 11.03 19.9347C11.0387 19.9434 11.0474 19.9609 11.0649 19.9696C11.0823 19.9958 11.1085 20.0307 11.1434 20.0743L11.1608 20.0917C11.1782 20.1091 11.187 20.1353 11.2044 20.1527C11.2218 20.1789 11.2393 20.2051 11.2654 20.2312C11.4486 20.4667 11.7015 20.7806 11.8759 20.9463C11.9369 20.9986 11.9892 21.0422 12.0241 21.0597L11.7712 20.6062C12.3468 21.0771 14.7362 21.6788 17.082 21.0073C17.3698 20.9289 17.6488 20.8242 17.9279 20.7021C18.0936 20.6324 18.2593 20.5452 18.4249 20.458L18.4511 20.4405C18.5645 20.3795 18.6778 20.3097 18.7912 20.2399C18.8784 20.1876 18.9656 20.1266 19.0441 20.0743C19.1836 19.9783 19.3232 19.8737 19.4627 19.7603C19.4714 19.7516 19.4801 19.7429 19.4888 19.7429C19.6196 19.6295 19.7505 19.5074 19.8638 19.3853C20.0208 19.2197 20.1603 19.054 20.2824 18.8883L20.2911 18.8796C20.326 18.836 20.3522 18.8011 20.3783 18.7575L20.3871 18.7487C20.3958 18.7313 20.4045 18.7226 20.4132 18.7051C20.4568 18.6441 20.4917 18.5918 20.5353 18.5307C20.544 18.5133 20.5527 18.5046 20.5615 18.4871C20.5789 18.4523 20.5963 18.4261 20.6225 18.3912C20.6399 18.365 20.6487 18.3476 20.6661 18.3214C20.6835 18.2953 20.701 18.2691 20.7097 18.243C20.7359 18.1994 20.762 18.147 20.7882 18.1034L20.8144 18.0511L20.8667 17.9465L20.8928 17.8941L20.9016 17.8767C20.919 17.8331 20.9452 17.7895 20.9626 17.7459V17.7372C21.0411 17.6674 21.0934 17.5976 21.1457 17.5366C21.1545 17.5279 21.1632 17.5192 21.1632 17.5104C21.2155 17.3448 21.2504 17.2139 21.2504 17.0919ZM7.21914 15.4001C7.21914 15.3914 7.21915 15.3826 7.21042 15.3652C7.18426 15.217 7.1581 15.06 7.14938 14.903V14.8681C7.12322 14.8769 7.09706 14.9117 7.06218 14.9553C7.05346 14.9728 7.03602 14.9902 7.02729 15.0164C6.94881 15.1646 6.87905 15.3739 6.87905 15.3739C6.88777 15.3042 6.89649 15.2344 6.89649 15.1646V15.1385C6.90521 15.0687 6.91393 14.9902 6.92265 14.9205V14.8943C6.93137 14.8071 6.94881 14.7286 6.96625 14.6501C6.96625 14.6414 6.96625 14.6327 6.97497 14.6152V14.6065C6.97497 14.5978 6.97497 14.5891 6.98369 14.5804C6.98369 14.5629 6.99241 14.5542 6.99241 14.5368C7.00113 14.4757 7.01857 14.4147 7.02729 14.3536C7.03602 14.3013 7.04474 14.249 7.05346 14.2054V14.1879C7.05346 14.1792 7.05346 14.1705 7.06218 14.1705V14.1531C7.06218 14.1443 7.0709 14.1269 7.0709 14.1182C7.0709 14.1095 7.0709 14.1007 7.07962 14.092C7.07962 14.0746 7.08834 14.0571 7.08834 14.0484C7.08834 14.0397 7.09706 14.0223 7.09706 14.0135C7.09706 13.9961 7.10578 13.9787 7.10578 13.9699C7.10578 13.9612 7.10578 13.9525 7.1145 13.9438C7.1145 13.935 7.1145 13.9263 7.12322 13.9263C7.12322 13.9089 7.13194 13.9002 7.13194 13.8914V13.8653L7.1145 13.8827C7.09706 13.8914 7.08834 13.9089 7.0709 13.9176L7.05346 13.935C7.03602 13.9525 7.01857 13.9699 7.00985 13.9874L7.00113 13.9961L6.94881 14.0746L6.94009 14.0833C6.94009 14.092 6.93137 14.092 6.93137 14.1007L6.90521 14.1531V14.1705C6.89649 14.1967 6.87905 14.2228 6.87033 14.249C6.84416 14.3187 6.818 14.3885 6.80056 14.4496C6.79184 14.467 6.79184 14.4932 6.78312 14.5019C6.7744 14.5368 6.76568 14.5716 6.76568 14.5804V14.5891V14.5804C6.76568 14.5542 6.76568 14.5368 6.7744 14.5106C6.7744 14.467 6.78312 14.4147 6.78312 14.3711C6.78312 14.3362 6.79184 14.2926 6.80056 14.2577C6.80056 14.249 6.80056 14.2315 6.80928 14.2228C6.80928 14.2054 6.818 14.1879 6.818 14.1705C6.818 14.1531 6.82672 14.1356 6.82672 14.1182V14.092C6.82672 14.0746 6.83544 14.0484 6.83544 14.031V13.9874V13.9699C6.83544 13.9612 6.83544 13.9525 6.84417 13.9438C6.85289 13.9176 6.86161 13.8827 6.86161 13.8566V13.8478C6.87033 13.8304 6.87033 13.8042 6.87905 13.7868V13.7781C6.88777 13.7345 6.90521 13.6909 6.91393 13.6473V13.6298C6.91393 13.6211 6.91393 13.6124 6.92265 13.6037C6.94009 13.5339 6.96625 13.4641 6.98369 13.4031V13.3944C7.00113 13.3421 7.02729 13.281 7.04474 13.2287V13.22C7.05346 13.1938 7.06218 13.1764 7.0709 13.1502C7.08834 13.1153 7.09706 13.0804 7.1145 13.0456C7.1145 13.0368 7.12322 13.0194 7.14066 12.9845C7.14938 12.9758 7.14938 12.9584 7.1581 12.9496C7.16682 12.9322 7.17554 12.9148 7.18426 12.8886L7.19298 12.8712L7.34123 12.6008C7.34995 12.5921 7.34995 12.5747 7.35867 12.5659V12.5572L7.36739 12.5398C7.38483 12.5136 7.40228 12.4787 7.41972 12.4526C7.44588 12.409 7.46332 12.3654 7.48948 12.3305C7.53308 12.252 7.56796 12.1822 7.59413 12.1474C7.60285 12.1212 7.61157 12.1125 7.62029 12.1038C7.61157 12.1038 7.56796 12.0689 7.4982 12.0253C7.411 11.9729 7.28891 11.9032 7.14066 11.8334C7.08834 11.8073 7.04474 11.7898 6.99241 11.7637C6.93137 11.7375 6.86161 11.7113 6.79184 11.6852C6.7744 11.6764 6.75696 11.6764 6.73952 11.6677C6.67848 11.6503 6.62615 11.6328 6.56511 11.6154C6.52151 11.6067 6.47791 11.598 6.44302 11.5892C6.40814 11.5805 6.37326 11.5805 6.33838 11.5718C6.32094 11.5718 6.3035 11.5718 6.28606 11.5631C6.26861 11.5631 6.25117 11.5631 6.23373 11.5544C6.19013 11.5544 6.13781 11.5456 6.0942 11.5456H6.02444C5.9198 11.5456 5.82387 11.5544 5.72795 11.5718H5.7105C5.53609 11.598 5.37041 11.6416 5.20472 11.7026C5.15239 11.7201 5.10007 11.7462 5.03903 11.7724C5.02159 11.7811 5.01287 11.7898 4.99543 11.7898L4.9431 11.816C4.78613 11.8945 4.63789 11.9991 4.49836 12.1125H4.48964C4.36755 12.2084 4.26291 12.3218 4.16698 12.4351L4.0885 12.5398C4.05362 12.5834 4.02745 12.627 4.00129 12.6706C3.94897 12.7491 3.89665 12.8363 3.85304 12.9235C3.8356 12.9584 3.81816 12.9845 3.80944 13.0194C3.80944 13.0281 3.80072 13.0281 3.80072 13.0368C3.71352 13.2461 3.64375 13.4641 3.61759 13.6996C3.60887 13.7432 3.60887 13.7868 3.60015 13.8391V13.8566C3.60015 13.8914 3.59143 13.9263 3.59143 13.9699V14.1269C3.59143 14.1618 3.59143 14.1967 3.60015 14.2315V14.2751C3.60015 14.3013 3.60887 14.3275 3.60887 14.3536V14.3624C3.60887 14.3798 3.60887 14.3885 3.61759 14.406C3.61759 14.4321 3.62631 14.4583 3.62631 14.4757C3.62631 14.4932 3.63503 14.5106 3.63503 14.528C3.64375 14.5542 3.64375 14.5716 3.65247 14.5978C3.65247 14.6152 3.66119 14.6327 3.66991 14.6501V14.6588L3.67864 14.6763V14.6937L3.68736 14.7112C3.69608 14.7286 3.69608 14.7461 3.7048 14.7635C3.71352 14.7809 3.71352 14.8071 3.72224 14.8245C3.73096 14.842 3.73968 14.8594 3.73968 14.8856L3.7484 14.903C3.75712 14.9205 3.75712 14.9292 3.76584 14.9466C3.77456 14.9641 3.78328 14.9815 3.792 15.0077L3.81816 15.06C3.82688 15.0687 3.82688 15.0774 3.8356 15.0862C3.84432 15.0949 3.84432 15.1036 3.85304 15.1123L3.87921 15.1646C3.88793 15.1821 3.89665 15.2082 3.91409 15.2257C3.92281 15.2431 3.93153 15.2606 3.94025 15.2693C3.94897 15.2867 3.96641 15.3129 3.97513 15.3303C3.98385 15.3478 3.99257 15.3565 4.00129 15.3739C4.01001 15.3914 4.02745 15.4175 4.04489 15.435C4.05362 15.4524 4.06234 15.4611 4.07106 15.4699C4.0885 15.4873 4.09722 15.5135 4.11466 15.5309C4.12338 15.5396 4.1321 15.5571 4.14082 15.5658C4.15826 15.5832 4.1757 15.6094 4.19314 15.6268C4.20186 15.6355 4.21058 15.6443 4.2193 15.6617C4.23675 15.6791 4.25419 15.7053 4.27163 15.7227L4.29779 15.7489C4.31523 15.7663 4.33267 15.7925 4.35883 15.8099L4.38499 15.8361L4.44604 15.8972C4.45476 15.9059 4.46348 15.9146 4.4722 15.9146C4.48964 15.932 4.5158 15.9495 4.54196 15.9756C4.55068 15.9844 4.5594 15.9844 4.56812 15.9931C4.59428 16.0105 4.61173 16.028 4.63789 16.0454C4.64661 16.0541 4.65533 16.0541 4.65533 16.0628L4.73381 16.1152L4.75125 16.1239L4.82974 16.1762L4.84718 16.1849C4.87334 16.2024 4.90822 16.2198 4.93438 16.2373L4.95182 16.246C4.97799 16.2634 5.01287 16.2809 5.03903 16.2896L5.05647 16.2983C5.09135 16.3157 5.11751 16.3245 5.15239 16.3419L5.16111 16.3506C5.196 16.3681 5.23088 16.3768 5.25704 16.3942H5.26576C5.30064 16.4029 5.33552 16.4204 5.37041 16.4291H5.37913C5.39657 16.4378 5.41401 16.4378 5.43145 16.4465C5.44889 16.4553 5.46633 16.4553 5.49249 16.464H5.50121C5.53609 16.4727 5.5797 16.4814 5.61458 16.4901C5.64946 16.4989 5.69306 16.5076 5.72795 16.5076C5.85003 16.525 5.97212 16.5337 6.0942 16.5425H6.18141C6.22501 16.5425 6.25989 16.5425 6.3035 16.5337C6.35582 16.525 6.41686 16.525 6.47791 16.5163C6.53023 16.5076 6.58255 16.4989 6.62615 16.4901C6.70464 16.4727 6.78312 16.4553 6.85289 16.4291C7.07962 16.3681 7.27147 16.2809 7.39355 16.1849C7.39355 16.1849 7.31507 15.8361 7.25403 15.4873C7.23659 15.4699 7.22787 15.435 7.21914 15.4001Z" fill="#90694C"/>
<path d="M12.8176 2.44148L12.7914 2.09267L12.9658 1.70896L13.0356 1.69152C12.9222 1.6392 12.7827 1.60432 12.6257 1.57816C12.3118 1.53456 11.9107 1.57816 11.4572 1.69152C11.0037 1.80489 10.4892 2.00546 9.94857 2.2758C8.85851 2.81646 7.65508 3.64491 6.48654 4.70881C6.07668 5.07507 5.7017 5.45877 5.35288 5.83375C5.01278 6.20001 4.70757 6.57499 4.42851 6.93252C3.86168 7.67376 3.43438 8.38884 3.15532 9.03416C2.97219 9.46146 2.85883 9.85388 2.81522 10.194C2.78034 10.4382 2.78906 10.6562 2.83267 10.8306C2.85011 10.8916 2.86755 10.9352 2.88499 10.9875C2.92859 11.0922 2.98091 11.1794 3.05068 11.2579L3.75704 11.9991L3.83552 12.0776L3.84424 12.0689C3.86168 12.0427 3.88784 12.0166 3.914 11.9991L3.92272 11.9904L3.94889 11.9642C3.96633 11.9381 3.99249 11.9206 4.00993 11.8945C4.02737 11.877 4.03609 11.8683 4.05353 11.8596C4.07097 11.8509 4.07969 11.8334 4.09713 11.8247L4.11457 11.8073C4.13202 11.7985 4.14074 11.7811 4.15818 11.7724C4.17562 11.7549 4.20178 11.7375 4.21922 11.7201C4.22794 11.7113 4.24538 11.7026 4.2541 11.6939H4.26282C4.28898 11.6765 4.30642 11.659 4.33259 11.6416C4.35003 11.6329 4.35875 11.6241 4.37619 11.6067C4.40235 11.5893 4.41979 11.5718 4.44595 11.5544C4.46339 11.5457 4.47211 11.5369 4.48955 11.5282C4.51572 11.5108 4.54188 11.4933 4.56804 11.4846C4.58548 11.4759 4.5942 11.4672 4.61164 11.4584C4.6378 11.441 4.66396 11.4323 4.69013 11.4148C4.70757 11.4061 4.71629 11.3974 4.73373 11.3887L4.75117 11.38C4.91686 10.9178 5.16975 10.4033 5.50113 9.88004C5.90227 9.23473 6.41678 8.55453 7.02721 7.87434C7.41091 7.44703 7.82949 7.01973 8.28296 6.60987C8.86723 6.07792 9.46894 5.59829 10.0619 5.17971C10.4631 4.90066 10.8555 4.64776 11.2392 4.42975C11.2741 4.41231 11.309 4.38615 11.3526 4.36871C11.4572 4.30766 11.5531 4.25534 11.6578 4.20302C11.8758 4.08965 12.0938 3.98501 12.3031 3.8978L12.1984 3.77572L12.181 3.75827L12.0502 3.61003L11.3264 2.73798L11.3351 2.11011L11.3264 2.10139L11.8409 1.94442L12.8176 2.44148Z" fill="#2F83C1"/>
<path d="M21.2504 17.0919C21.2504 17.0919 21.2679 16.9611 21.1981 16.839C21.1981 16.8302 21.1894 16.8215 21.1894 16.8215L21.1807 16.8128L21.1545 16.7866C21.1371 16.7692 21.1196 16.7518 21.0935 16.7343C21.0848 16.7256 21.0673 16.7169 21.0499 16.7082C21.0063 16.6907 20.9627 16.6733 20.9016 16.6646C20.858 16.6558 20.8144 16.6558 20.7621 16.6558H20.6923V16.6733C20.6923 16.682 20.7011 16.6907 20.7011 16.7082C20.7011 16.7169 20.701 16.7256 20.7098 16.7256C20.7185 16.7518 20.7272 16.7954 20.7359 16.8302C20.7359 16.8302 20.7359 16.839 20.7272 16.8564V16.8651C20.7011 16.9262 20.6313 17.0657 20.4743 17.2401C20.4482 17.275 20.422 17.3012 20.3871 17.336C19.9511 17.7895 19.0093 18.4261 17.021 18.7836C16.3495 18.8796 15.7217 18.8883 15.1984 18.8185C14.4136 18.7226 13.8293 18.4697 13.5503 18.1296C13.5241 18.1034 13.5067 18.0686 13.4805 18.0424C13.4631 18.0162 13.4543 17.9988 13.4369 17.9726C13.4282 17.9639 13.4282 17.9552 13.4195 17.9465C13.3061 17.7372 13.2538 17.5104 13.2538 17.2924C13.2538 17.0221 13.341 16.7692 13.4805 16.5774C13.5939 16.4204 13.7421 16.2983 13.9252 16.246C14.0125 16.2198 14.1084 16.2024 14.2043 16.2111C14.2217 16.2111 14.2479 16.2111 14.2828 16.2198C14.3438 16.2285 14.4398 16.2373 14.5531 16.2547C14.5618 16.2547 14.5793 16.2547 14.588 16.2634C14.963 16.307 15.556 16.3681 16.2711 16.3245C17.5791 16.246 19.2971 15.8361 20.858 14.4234V14.4147C20.8667 14.2926 20.8493 14.0833 20.7011 13.9176C20.6749 13.8914 20.6487 13.8653 20.6138 13.8391C20.5964 13.8217 20.5702 13.813 20.5528 13.7955C20.5266 13.7868 20.5092 13.7694 20.4918 13.7606L20.4133 13.7083V13.6996C20.4046 13.6822 20.3958 13.6647 20.3784 13.6473C19.9773 13.0368 19.4191 12.6793 19.1924 12.5136C19.0878 12.4351 19.018 12.4002 19.018 12.4002C18.5384 12.1038 18.4686 12.0078 18.5122 11.2143C18.5297 10.9265 18.5558 10.5515 18.5907 10.037C18.5907 9.96724 18.5994 9.90619 18.5994 9.84515V9.80155V9.59226C18.5994 9.54866 18.5907 9.50505 18.5907 9.47017C18.5907 9.45273 18.5907 9.43529 18.582 9.41785C18.5733 9.37425 18.5733 9.33064 18.5645 9.28704C18.5645 9.2696 18.5558 9.24344 18.5558 9.226C18.5558 9.19984 18.5471 9.1824 18.5384 9.15623C18.5297 9.13879 18.5297 9.11263 18.5209 9.09519C18.5122 9.06903 18.5035 9.04287 18.5035 9.01671C18.5035 9.00799 18.4948 8.99927 18.4948 8.99054C18.4948 8.98182 18.4861 8.9731 18.4861 8.96438V8.95566L18.4773 8.9295C18.4686 8.91206 18.4599 8.89462 18.4599 8.87718V8.86846L18.4512 8.85102L18.4424 8.83358C18.425 8.7987 18.4163 8.76381 18.3988 8.73765L18.3901 8.71149C18.3727 8.68533 18.3552 8.65045 18.3378 8.62429L18.3291 8.61557L18.3204 8.60684C18.3029 8.5894 18.2942 8.57196 18.2768 8.55452L18.2593 8.52836C18.2419 8.5022 18.2244 8.48476 18.207 8.46732L18.1372 8.39755C18.1111 8.38011 18.0849 8.36267 18.0587 8.35395C18.05 8.34523 18.0413 8.34523 18.0326 8.34523L17.9803 8.31907C17.9715 8.31907 17.9628 8.31035 17.9541 8.31035C17.9367 8.30163 17.9192 8.30163 17.9105 8.29291C17.9018 8.29291 17.8931 8.28419 17.8756 8.28419C17.8582 8.28419 17.8495 8.27547 17.832 8.27547H17.6402C17.6314 8.27547 17.6227 8.27547 17.614 8.28419C17.6053 8.28419 17.5966 8.28419 17.5878 8.29291C17.5704 8.29291 17.553 8.30163 17.5268 8.31035H17.5094C17.457 8.32779 17.4134 8.34523 17.3611 8.36267L17.3437 8.37139C17.3262 8.38011 17.3088 8.38883 17.2826 8.39755L17.2565 8.40627L17.2041 8.43244L17.178 8.44988L17.1257 8.47604L17.0995 8.49348C17.0821 8.5022 17.0646 8.51964 17.0472 8.52836L17.0297 8.53708C17.0123 8.55452 16.9861 8.56324 16.9687 8.58068L16.96 8.5894C16.9338 8.60684 16.9164 8.62429 16.8902 8.63301C16.8466 8.65917 16.803 8.69405 16.7594 8.72021C16.7245 8.74637 16.6896 8.77253 16.646 8.79869L16.6286 8.80742C16.5937 8.83358 16.5501 8.85974 16.5152 8.87718L16.4978 8.8859C16.4629 8.91206 16.4193 8.9295 16.3844 8.95566L16.367 8.96438C16.3321 8.99055 16.2885 9.00799 16.2449 9.02543L16.2275 9.03415C16.1838 9.05159 16.149 9.06903 16.1054 9.08647L16.0879 9.09519C16.0443 9.11263 16.0007 9.12135 15.9571 9.13879H15.9484C15.9048 9.14751 15.8525 9.15623 15.8089 9.16495C15.7304 9.17367 15.6432 9.1824 15.5647 9.1824C15.4339 9.1824 15.3031 9.17367 15.1636 9.15623L15.0327 9.13007C15.0153 9.13007 14.9979 9.12135 14.9891 9.12135C14.8758 9.09519 14.7537 9.06903 14.6403 9.04287C14.588 9.03415 14.5444 9.01671 14.4921 9.00799C14.4136 8.99055 14.3351 8.9731 14.2479 8.95566C14.2305 8.95566 14.213 8.94694 14.2043 8.94694C14.1956 8.94694 14.1781 8.93822 14.1694 8.93822C14.152 8.93822 14.1345 8.9295 14.1171 8.9295C14.0997 8.9295 14.0822 8.92078 14.0648 8.92078H14.0473C14.0299 8.92078 14.0125 8.91206 14.0037 8.91206C13.9689 8.90334 13.934 8.89462 13.8904 8.89462C13.8816 8.89462 13.8642 8.89462 13.8555 8.8859C13.8293 8.8859 13.8032 8.87718 13.777 8.87718C13.7596 8.87718 13.7508 8.87718 13.7334 8.86846C13.7072 8.86846 13.6898 8.85974 13.6636 8.85974H13.2625C13.2189 8.85974 13.184 8.86846 13.1404 8.86846H13.1055C13.0794 8.86846 13.0532 8.87718 13.027 8.87718H13.0183C13.0009 8.87718 12.9922 8.8859 12.9747 8.8859C12.9486 8.89462 12.9224 8.89462 12.8962 8.90334C12.8788 8.90334 12.8614 8.91206 12.8526 8.91206C12.8265 8.92078 12.8003 8.9295 12.7741 8.9295C12.7567 8.9295 12.748 8.93822 12.7305 8.94694C12.7044 8.95566 12.6695 8.96438 12.6433 8.9731C12.6259 8.98182 12.6172 8.98182 12.6085 8.99054C12.5649 9.00799 12.5213 9.02543 12.4864 9.04287C12.155 9.23472 11.8672 9.49633 11.6492 9.79283C11.5707 9.89747 11.501 10.0021 11.4399 10.1068C11.3702 10.2201 11.3178 10.3422 11.2655 10.4643C11.2481 10.4992 11.2393 10.5341 11.2219 10.569C11.2045 10.63 11.1783 10.691 11.1609 10.7521C11.1609 10.7608 11.1609 10.7695 11.1521 10.7695C11.1347 10.8393 11.1173 10.909 11.0998 10.9875C11.0824 11.066 11.0737 11.1358 11.0649 11.2143C11.0562 11.2579 11.0562 11.2927 11.0562 11.3364C11.0475 11.4497 11.0475 11.5544 11.0562 11.6677V11.6939C11.0562 11.7201 11.0562 11.7462 11.0649 11.7811C11.0737 11.8596 11.0824 11.9381 11.0998 12.0165C11.1085 12.0427 11.1173 12.0689 11.1173 12.1038C11.126 12.1299 11.126 12.1561 11.1347 12.1822C11.187 12.3828 11.2655 12.5659 11.3614 12.7229C11.719 13.3421 12.312 13.717 12.748 13.9176C12.9137 13.9874 13.0881 14.0571 13.2712 14.1182L13.2538 14.1356C13.2189 14.1443 13.184 14.1531 13.1404 14.1618C13.0794 14.1792 13.0009 14.2054 12.9224 14.2315C12.8352 14.2577 12.7305 14.3013 12.6259 14.3449C12.3468 14.4583 12.0329 14.624 11.7539 14.8507C11.719 14.8769 11.6841 14.9117 11.6492 14.9379C11.5882 14.9902 11.5358 15.0425 11.4835 15.1036L11.4661 15.121L11.4399 15.1472C11.4225 15.1734 11.3963 15.1908 11.3789 15.217L11.3527 15.2431C11.3265 15.278 11.3004 15.3129 11.2829 15.3478C11.2568 15.3826 11.2393 15.4175 11.2132 15.4524C11.0475 15.7402 10.9516 16.089 10.9777 16.5076V16.4901C10.9777 16.4814 10.9777 16.4727 10.9865 16.464V16.4553C10.9865 16.4465 10.9952 16.4378 10.9952 16.4204V16.4117C10.9952 16.4029 11.0039 16.3855 11.0039 16.3681C11.0039 16.3506 11.0126 16.3419 11.0213 16.3245V16.3157C11.0301 16.2983 11.0301 16.2809 11.0388 16.2634V16.2547C11.0475 16.2373 11.0475 16.2198 11.0562 16.2024V16.1937C11.0649 16.1762 11.0737 16.1588 11.0824 16.1326L11.0911 16.1239C11.0998 16.1064 11.1085 16.0803 11.126 16.0628C11.1434 16.028 11.1609 16.0018 11.1783 15.9669C11.187 15.9582 11.1957 15.9408 11.2045 15.932L11.2132 15.9233L11.2655 15.8448C11.2829 15.8274 11.3004 15.8012 11.3178 15.7838L11.3353 15.7663C11.3527 15.7489 11.3614 15.7315 11.3789 15.7227L11.3963 15.7053C11.4138 15.6879 11.4399 15.6704 11.4574 15.6443C11.4574 15.6443 11.0824 16.4989 11.2481 17.1703V17.1616V17.1442V17.118V17.0831V17.0395C11.2481 17.0221 11.2481 17.0047 11.2568 16.9872C11.2568 16.9698 11.2568 16.9523 11.2655 16.9349V16.9262C11.2655 16.9087 11.2742 16.8826 11.2742 16.8651V16.8477C11.2829 16.8215 11.2829 16.8041 11.2917 16.7779V16.7692C11.3004 16.743 11.3091 16.7169 11.3091 16.6994C11.3091 16.6907 11.3178 16.682 11.3178 16.6733L11.3265 16.6558C11.3353 16.6384 11.344 16.6122 11.3527 16.5948C11.3614 16.5686 11.3789 16.5425 11.3963 16.5163C11.3963 16.5076 11.405 16.4989 11.405 16.4989L11.4574 16.4204C11.4574 16.4204 11.4399 16.6297 11.4399 16.8826C11.4399 16.9262 11.4399 16.9611 11.4486 17.0047C11.4486 17.0308 11.4486 17.057 11.4574 17.0831C11.4748 16.8128 11.5271 16.5599 11.5969 16.3245C11.5271 16.5599 11.4748 16.8128 11.4574 17.0831C11.4486 17.2575 11.4486 17.432 11.4661 17.6151C11.4922 17.9203 11.5707 18.2517 11.7015 18.5918C11.7015 18.5918 11.5794 18.1994 11.7539 17.8069L11.8062 17.9116C11.8236 18.0249 11.8411 18.1906 11.8759 18.3738C11.9108 18.679 12.0503 19.5946 12.6782 20.2312C12.6782 20.2312 12.4428 19.926 12.4777 19.5336C12.5038 19.5859 12.53 19.6295 12.5474 19.6731C12.6521 19.8737 12.8614 20.2399 13.0968 20.5016C13.0968 20.5016 12.9137 20.144 12.9573 20.0655C12.9573 20.0655 13.5677 20.8242 13.7596 20.894L13.5067 20.4754L13.4979 20.4667C14.3787 21.112 15.5996 21.3474 17.0995 20.9289C17.3611 20.8591 17.6227 20.7632 17.9018 20.6498C18.0675 20.58 18.2332 20.4928 18.3988 20.4056L18.425 20.3882C18.5384 20.3272 18.6517 20.2574 18.7651 20.1876C18.8523 20.1353 18.9395 20.0743 19.018 20.0219C19.1575 19.926 19.2971 19.8214 19.4366 19.708C19.4453 19.6993 19.454 19.6906 19.4627 19.6906C19.5936 19.5772 19.7244 19.4551 19.8377 19.333C19.9947 19.1673 20.1342 19.0016 20.2563 18.836L20.265 18.8272C20.2999 18.7836 20.3261 18.7487 20.3522 18.7051L20.361 18.6964C20.3697 18.679 20.3784 18.6703 20.3871 18.6528C20.4307 18.5918 20.4656 18.5395 20.5092 18.4784C20.5179 18.461 20.5266 18.4523 20.5354 18.4348C20.5528 18.3999 20.5702 18.3738 20.5964 18.3389C20.6138 18.3127 20.6226 18.2953 20.64 18.2691C20.6574 18.243 20.6749 18.2168 20.6836 18.1906C20.7098 18.147 20.7359 18.0947 20.7621 18.0511L20.7883 17.9988L20.8406 17.8941L20.8667 17.8418L20.8755 17.8244C20.8929 17.7808 20.9191 17.7372 20.9365 17.6936V17.6849C21.015 17.6151 21.0673 17.5453 21.1196 17.4843C21.1284 17.4756 21.1371 17.4668 21.1371 17.4581C21.2156 17.3448 21.2504 17.2139 21.2504 17.0919ZM7.14945 14.8681C7.12328 14.8769 7.09712 14.9117 7.06224 14.9553C7.05352 14.9728 7.03608 14.9902 7.02736 15.0164C6.94887 15.1646 6.87911 15.3739 6.87911 15.3739C6.88783 15.3042 6.89655 15.2344 6.89655 15.1646V15.1385C6.90527 15.0687 6.91399 14.9902 6.92271 14.9205V14.8943C6.93143 14.8071 6.94887 14.7286 6.96632 14.6501C6.96632 14.6414 6.96632 14.6327 6.97504 14.6152V14.6065C6.97504 14.5978 6.97504 14.5891 6.98376 14.5804C6.98376 14.5629 6.99248 14.5542 6.99248 14.5368C7.0012 14.4757 7.01864 14.4147 7.02736 14.3536C7.03608 14.3013 7.0448 14.249 7.05352 14.2054V14.1879C7.05352 14.1792 7.05352 14.1705 7.06224 14.1705V14.1531C7.06224 14.1443 7.07096 14.1269 7.07096 14.1182C7.07096 14.1095 7.07096 14.1007 7.07968 14.092C7.07968 14.0746 7.0884 14.0571 7.0884 14.0484C7.0884 14.0397 7.09712 14.0223 7.09712 14.0135C7.09712 13.9961 7.10584 13.9787 7.10584 13.9699C7.10584 13.9612 7.10584 13.9525 7.11456 13.9438C7.11456 13.9351 7.11456 13.9263 7.12328 13.9263C7.12328 13.9089 7.132 13.9002 7.132 13.8914V13.8653L7.11456 13.8827C7.09712 13.8914 7.0884 13.9089 7.07096 13.9176L7.05352 13.935C7.03608 13.9525 7.01864 13.9699 7.00992 13.9874L7.0012 13.9961L6.94887 14.0746L6.94015 14.0833C6.94015 14.092 6.93143 14.092 6.93143 14.1007L6.90527 14.1531V14.1705C6.89655 14.1967 6.87911 14.2228 6.87039 14.249C6.84423 14.3188 6.81807 14.3885 6.80063 14.4496C6.79191 14.467 6.79191 14.4932 6.78319 14.5019C6.77447 14.5368 6.76574 14.5716 6.76574 14.5804V14.5891V14.5804C6.76574 14.5542 6.76574 14.5368 6.77447 14.5106C6.77447 14.467 6.78319 14.4147 6.78319 14.3711C6.78319 14.3362 6.79191 14.2926 6.80063 14.2577C6.80063 14.249 6.80063 14.2315 6.80935 14.2228C6.80935 14.2054 6.81807 14.1879 6.81807 14.1705C6.81807 14.1531 6.82679 14.1356 6.82679 14.1182V14.092C6.82679 14.0746 6.83551 14.0484 6.83551 14.031V13.9874V13.9699C6.83551 13.9612 6.83551 13.9525 6.84423 13.9438C6.85295 13.9176 6.86167 13.8827 6.86167 13.8566V13.8478C6.87039 13.8304 6.87039 13.8042 6.87911 13.7868V13.7781C6.88783 13.7345 6.90527 13.6909 6.91399 13.6473V13.6298C6.91399 13.6211 6.91399 13.6124 6.92271 13.6037C6.94015 13.5339 6.96632 13.4641 6.98376 13.4031V13.3944C7.0012 13.3421 7.02736 13.281 7.0448 13.2287V13.22C7.05352 13.1938 7.06224 13.1764 7.07096 13.1502C7.0884 13.1153 7.09712 13.0804 7.11456 13.0456C7.11456 13.0368 7.12328 13.0194 7.14072 12.9845C7.14945 12.9758 7.14945 12.9584 7.15817 12.9496C7.16689 12.9322 7.17561 12.9148 7.18433 12.8886L7.19305 12.8712C7.18433 12.8624 7.16689 12.8624 7.15817 12.8537H7.14945L7.132 12.845C7.05352 12.8101 6.96632 12.7752 6.87911 12.7491H6.86167C6.80063 12.7316 6.7483 12.7229 6.68726 12.7142C6.65238 12.7142 6.6175 12.7055 6.58262 12.7055H6.49541C6.45181 12.7055 6.40821 12.7142 6.3646 12.7142C6.34716 12.7142 6.33844 12.7142 6.321 12.7229C6.30356 12.7229 6.2774 12.7316 6.25996 12.7316C6.25124 12.7316 6.24252 12.7316 6.2338 12.7403C6.21636 12.7403 6.20764 12.7491 6.19019 12.7491C6.16403 12.7578 6.12915 12.7665 6.10299 12.7752C6.09427 12.7752 6.07683 12.7839 6.06811 12.7839C6.03323 12.8014 5.98962 12.8101 5.95474 12.8276C5.9373 12.8363 5.92858 12.845 5.91114 12.845L5.85882 12.8712L5.84138 12.8799C5.82393 12.8886 5.80649 12.8973 5.78905 12.9148C5.77161 12.9235 5.75417 12.9322 5.73673 12.9496C5.71929 12.9584 5.70185 12.9758 5.68441 12.9845C5.67569 12.9932 5.65825 13.002 5.64953 13.0107C5.62336 13.0368 5.58848 13.063 5.56232 13.0892L5.51872 13.1328C5.49256 13.1589 5.47512 13.1851 5.44895 13.2113L5.44023 13.22C5.43151 13.2374 5.41407 13.2461 5.40535 13.2636L5.37919 13.2897C5.33559 13.3508 5.29199 13.4205 5.2571 13.4903C5.24838 13.499 5.24838 13.5077 5.23966 13.5165C5.22222 13.5514 5.2135 13.5862 5.19606 13.6211C5.18734 13.6386 5.18734 13.6473 5.17862 13.6647C5.1699 13.6996 5.15246 13.7345 5.14374 13.7781V13.813C5.13502 13.8391 5.13502 13.8653 5.1263 13.8914C5.1263 13.9089 5.1263 13.9176 5.11758 13.935C5.11758 13.9525 5.11758 13.9612 5.10886 13.9787V14.0135C5.10886 14.0571 5.10014 14.1007 5.10886 14.1443C5.10886 14.1792 5.10886 14.2141 5.11758 14.249V14.2664C5.11758 14.2839 5.1263 14.3013 5.1263 14.3188C5.13502 14.3885 5.15246 14.4496 5.1699 14.5193C5.18734 14.5716 5.20478 14.6152 5.22222 14.6588C5.2571 14.7461 5.30071 14.8245 5.35303 14.903C5.45767 15.06 5.5972 15.1995 5.76289 15.3042C5.8501 15.3652 5.95474 15.4088 6.05939 15.4437C6.15531 15.4786 6.25996 15.5047 6.37332 15.5135C6.39949 15.5135 6.42565 15.5222 6.44309 15.5222H6.55645C6.59134 15.5222 6.62622 15.5135 6.6611 15.5135C6.67854 15.5135 6.7047 15.5135 6.72214 15.5047C6.77447 15.496 6.81807 15.4873 6.87039 15.4786H6.87911C6.89655 15.4699 6.91399 15.4699 6.94015 15.4611C7.0012 15.4437 7.06224 15.4175 7.11456 15.3914L7.12328 15.3826C7.14072 15.3739 7.15817 15.3652 7.16689 15.3652C7.14072 15.217 7.11456 15.06 7.10584 14.903C7.14945 14.8856 7.14945 14.8769 7.14945 14.8681Z" fill="#FCE9CD"/>
<path d="M13.0358 2.54613L13.0619 2.56357L13.0358 2.54613Z" fill="#4D9ED7"/>
<path d="M20.7185 16.7343C20.7185 16.7256 20.7185 16.7169 20.7097 16.7169C20.701 16.6994 20.701 16.6907 20.701 16.682C20.6574 16.5425 20.6051 16.4378 20.5528 16.3593C20.4917 16.2634 20.4394 16.2111 20.4394 16.2111L20.4656 16.1065C20.4743 16.0628 20.483 16.0192 20.483 15.9756C20.5179 15.6617 20.4394 15.4175 20.3696 15.278C20.3609 15.2518 20.3522 15.2344 20.3435 15.217C20.2911 15.2518 20.2475 15.2867 20.1952 15.3216C19.2534 15.9582 18.1982 16.3681 17.0559 16.5425C16.271 16.6646 15.4426 16.6733 14.5792 16.5686L14.5967 16.5774C14.5967 16.5774 14.0735 16.6471 13.9339 17.1442L13.9427 17.1529L13.899 17.4843C13.9165 17.9378 14.1171 18.2168 14.3525 18.3651C14.5967 18.461 14.8932 18.5307 15.2246 18.5743C15.7914 18.6441 16.4541 18.6267 17.1169 18.522C18.0064 18.3999 19.2621 17.929 20.1603 17.3186C20.3609 17.1791 20.5528 17.0308 20.7097 16.8826L20.7185 16.8739L20.7272 16.8651C20.7272 16.8041 20.7185 16.7692 20.7185 16.7343Z" fill="white"/>
<path d="M19.0179 12.4264C18.5383 12.1299 18.4685 12.034 18.5121 11.2404C18.5296 10.9526 18.5557 10.5777 18.5906 10.0632C18.5906 9.9934 18.5993 9.93235 18.5993 9.87131V9.82771V9.61842C18.5993 9.57481 18.5906 9.53121 18.5906 9.49633C18.5906 9.47889 18.5906 9.46145 18.5819 9.44401C18.5732 9.4004 18.5732 9.3568 18.5644 9.3132C18.5644 9.29576 18.5557 9.2696 18.5557 9.25216C18.5557 9.226 18.547 9.20855 18.5383 9.18239C18.5296 9.16495 18.5296 9.13879 18.5208 9.12135C18.4511 9.0167 18.3726 8.9295 18.2767 8.85102L18.2592 8.83357L18.2418 8.82485H18.2331C18.2156 8.81613 18.2069 8.80741 18.1895 8.79869C18.172 8.78997 18.1546 8.78125 18.1459 8.77253C18.0063 8.68533 17.8406 8.633 17.6749 8.60684C17.579 8.5894 17.4831 8.5894 17.3872 8.5894C17.3436 8.5894 17.2912 8.59812 17.2476 8.59812C17.1256 8.61556 17.0035 8.64172 16.8727 8.67661C16.8291 8.70277 16.7855 8.73765 16.7419 8.76381C16.707 8.78997 16.6721 8.81613 16.6285 8.84229L16.6111 8.85102C16.5762 8.87718 16.5326 8.90334 16.4977 8.92078L16.4802 8.9295C16.4454 8.95566 16.4018 8.9731 16.3669 8.99926L16.3494 9.00798C16.3146 9.03415 16.271 9.05159 16.2274 9.06903L16.2099 9.07775C16.1663 9.09519 16.1314 9.11263 16.0878 9.13007L16.0704 9.13879C16.0268 9.15623 15.9832 9.16495 15.9396 9.18239H15.9309C15.8873 9.19111 15.8349 9.19983 15.7913 9.20855C15.7128 9.21727 15.6256 9.226 15.5472 9.226C15.4163 9.226 15.2855 9.21727 15.146 9.19983L15.0152 9.17367C14.9978 9.17367 14.9803 9.16495 14.9716 9.16495C14.8582 9.13879 14.7362 9.11263 14.6228 9.08647C14.5705 9.07775 14.5269 9.06031 14.4745 9.05159C14.3961 9.03415 14.3176 9.0167 14.2304 8.99926C14.2129 8.99926 14.1955 8.99054 14.1868 8.99054C14.117 8.99054 14.0472 8.99926 13.9862 9.00798H13.9688C13.7682 9.03415 13.5763 9.07775 13.3758 9.14751C13.367 9.14751 13.3583 9.15623 13.3409 9.15623C13.306 9.16495 13.2798 9.18239 13.245 9.19111C13.2013 9.20855 13.1665 9.226 13.1229 9.24344C12.8351 9.36552 12.5648 9.53993 12.3031 9.75794C12.1985 9.84515 12.1026 9.94107 12.0066 10.037C11.8671 10.1852 11.745 10.3422 11.6317 10.5079C11.6229 10.5166 11.6229 10.5253 11.6142 10.5341C11.5532 10.6213 11.5009 10.7172 11.4573 10.8044C11.4398 10.8393 11.4224 10.8742 11.4049 10.9003V10.909C11.3526 11.0224 11.309 11.1271 11.2741 11.2404C11.2741 11.2491 11.2741 11.2579 11.2654 11.2579C11.2567 11.2753 11.2567 11.2927 11.248 11.3102C11.2305 11.3625 11.2131 11.4148 11.2044 11.4672C11.1869 11.5195 11.1782 11.5718 11.1695 11.6328C11.1695 11.6416 11.1608 11.659 11.1608 11.6677C11.152 11.7026 11.152 11.7375 11.1433 11.7637C11.1259 11.8857 11.1172 12.0078 11.1084 12.1299V12.2171C11.1608 12.4177 11.2392 12.6008 11.3352 12.7578C11.6927 13.3769 12.2857 13.7519 12.7217 13.9525C12.8874 14.0223 13.0618 14.092 13.245 14.1531L13.2537 14.1618L13.2624 14.1531C13.2886 14.1356 13.306 14.1182 13.3322 14.1007C13.3409 14.092 13.3496 14.092 13.3583 14.0833L13.4368 14.031C13.4455 14.0223 13.4542 14.0223 13.463 14.0135L13.5414 13.9612C13.5502 13.9525 13.5589 13.9525 13.5676 13.9438C13.5938 13.9263 13.6199 13.9089 13.6548 13.8914C13.6635 13.8827 13.6723 13.8827 13.681 13.874C13.7071 13.8566 13.742 13.8391 13.7682 13.8217C13.7769 13.813 13.7856 13.813 13.7943 13.8042C13.8205 13.7868 13.8554 13.7694 13.8815 13.7519C13.8903 13.7432 13.9077 13.7432 13.9164 13.7345C13.9426 13.717 13.9775 13.6996 14.0036 13.6822C14.0124 13.6734 14.0298 13.6647 14.0385 13.6647C14.0647 13.6473 14.0996 13.6298 14.1344 13.6124C14.1519 13.6037 14.1606 13.5949 14.178 13.5949C14.2129 13.5775 14.2391 13.5601 14.274 13.5513C14.2914 13.5426 14.3001 13.5339 14.3176 13.5339C14.3525 13.5165 14.3786 13.5077 14.4135 13.4903L14.4658 13.4641C14.5007 13.4467 14.5269 13.438 14.5617 13.4205C14.5792 13.4118 14.5966 13.4031 14.6228 13.3944C14.6577 13.3857 14.6838 13.3682 14.7187 13.3595C14.7362 13.3508 14.7623 13.3421 14.7798 13.3333C14.8146 13.3246 14.8408 13.3072 14.8757 13.2985C14.9018 13.2897 14.9193 13.281 14.9454 13.2723C14.9803 13.2636 15.0065 13.2461 15.0414 13.2374L15.1199 13.2112C15.146 13.2025 15.1809 13.1938 15.2071 13.1764C15.2332 13.1676 15.2681 13.1589 15.2943 13.1502C15.3204 13.1415 15.3553 13.1328 15.3815 13.124C15.4163 13.1153 15.4512 13.1066 15.4774 13.0979C15.5036 13.0892 15.5297 13.0804 15.5646 13.0717C15.5995 13.063 15.6344 13.0543 15.678 13.0368C15.6954 13.0281 15.7128 13.0281 15.7303 13.0194C15.8698 12.6619 16.2971 11.7724 17.0209 11.6764C17.0994 11.6677 17.1692 11.659 17.2389 11.659H17.2912C17.2825 11.6067 17.2738 11.5544 17.2738 11.4933C17.2476 11.1096 17.3697 10.787 17.5354 10.7782C17.6662 10.7695 17.7709 10.9614 17.7883 11.0224C17.8406 11.1358 17.8755 11.284 17.8842 11.4497C17.893 11.598 17.8755 11.7375 17.8494 11.8596C17.8668 11.877 17.8755 11.8945 17.893 11.9032C18.0586 12.1125 18.0848 12.3915 18.0761 12.6008C18.1371 12.5921 18.2069 12.5921 18.2767 12.5834C18.2941 12.5834 18.3115 12.5834 18.329 12.5747H18.3639C18.4423 12.5659 18.5296 12.5572 18.6168 12.5572C18.8086 12.5398 19.0005 12.5311 19.201 12.5223C19.0877 12.4613 19.0179 12.4264 19.0179 12.4264ZM20.8405 17.7982C20.5265 18.0773 20.1952 18.304 19.8638 18.4871C19.6981 18.5743 19.5324 18.6528 19.3754 18.7226C19.0179 18.8796 18.6778 18.9842 18.3726 19.0627C17.7011 19.2284 17.2389 19.2284 17.2389 19.2284C17.6052 19.4289 18.0674 19.4289 18.3813 19.4028C18.5993 19.3853 18.7476 19.3417 18.7476 19.3417C18.7388 19.4725 18.7214 19.5946 18.704 19.7167C18.6778 19.8475 18.6429 19.9609 18.5993 20.0655V20.0743C18.547 20.2051 18.4772 20.3184 18.4075 20.4231C18.3987 20.4318 18.39 20.4492 18.3813 20.458L18.4075 20.4405C18.5208 20.3795 18.6342 20.3097 18.7476 20.2399C18.8348 20.1876 18.922 20.1266 19.0005 20.0743C19.14 19.9783 19.2795 19.8737 19.419 19.7603C19.4278 19.7516 19.4365 19.7429 19.4452 19.7429C19.576 19.6295 19.7068 19.5074 19.8202 19.3853C19.9772 19.2196 20.1167 19.054 20.2388 18.8883L20.2475 18.8796C20.2824 18.8359 20.3085 18.8011 20.3347 18.7575L20.3434 18.7487C20.3521 18.7313 20.3609 18.7226 20.3696 18.7051C20.4132 18.6441 20.4481 18.5918 20.4917 18.5307C20.5004 18.5133 20.5091 18.5046 20.5178 18.4871C20.5353 18.4522 20.5527 18.4261 20.5789 18.3912C20.5963 18.365 20.605 18.3476 20.6225 18.3214C20.6399 18.2953 20.6573 18.2691 20.6661 18.243C20.6922 18.1994 20.7184 18.147 20.7446 18.1034L20.7707 18.0511L20.823 17.9465L20.8492 17.8941L20.8579 17.8767C20.8754 17.8331 20.9015 17.7895 20.919 17.7459C20.8841 17.7546 20.8666 17.7721 20.8405 17.7982ZM12.8874 14.2839C12.8002 14.31 12.6956 14.3536 12.5909 14.3972C12.3119 14.5106 11.9979 14.6763 11.7189 14.903C11.684 14.9292 11.6491 14.9641 11.6142 14.9902C11.5532 15.0425 11.5009 15.0949 11.4485 15.1559L11.4311 15.1734L11.4049 15.1995C11.3875 15.2257 11.3613 15.2431 11.3439 15.2693L11.3177 15.2954C11.2916 15.3303 11.2654 15.3652 11.248 15.4001C11.2218 15.435 11.2044 15.4698 11.1782 15.5047C11.0125 15.7925 10.9166 16.1413 10.9427 16.5599V16.5425C10.9427 16.5337 10.9427 16.525 10.9515 16.5163V16.5076C10.9515 16.4989 10.9602 16.4901 10.9602 16.4727V16.464C10.9602 16.4553 10.9689 16.4378 10.9689 16.4204C10.9689 16.4029 10.9776 16.3942 10.9864 16.3768V16.3681C10.9951 16.3506 10.9951 16.3332 11.0038 16.3157V16.307C11.0125 16.2896 11.0125 16.2721 11.0212 16.2547V16.246C11.03 16.2285 11.0387 16.2111 11.0474 16.1849L11.0561 16.1762C11.0648 16.1588 11.0736 16.1326 11.091 16.1152C11.1084 16.0803 11.1259 16.0541 11.1433 16.0192C11.152 16.0105 11.1608 15.9931 11.1695 15.9844L11.1782 15.9756L11.2305 15.8972C11.248 15.8797 11.2654 15.8535 11.2828 15.8361L11.3003 15.8187C11.3177 15.8012 11.3264 15.7838 11.3439 15.7751L11.3613 15.7576C11.3788 15.7402 11.4049 15.7227 11.4224 15.6966C11.4224 15.6966 11.0474 16.5512 11.2131 17.2227V17.2139V17.1965V17.1703V17.1355V17.0919C11.2131 17.0744 11.2131 17.057 11.2218 17.0395C11.2218 17.0221 11.2218 17.0047 11.2305 16.9872V16.9785C11.2305 16.961 11.2392 16.9349 11.2392 16.9174V16.9C11.248 16.8738 11.248 16.8564 11.2567 16.8302V16.8215C11.2654 16.7954 11.2741 16.7692 11.2741 16.7518C11.2741 16.743 11.2828 16.7343 11.2828 16.7256L11.2916 16.7082C11.3003 16.6907 11.309 16.6646 11.3177 16.6471C11.3264 16.621 11.3439 16.5948 11.3613 16.5686C11.3613 16.5599 11.3701 16.5512 11.3701 16.5512L11.4224 16.4727C11.4224 16.4727 11.4049 16.682 11.4049 16.9349C11.4049 16.9785 11.4049 17.0134 11.4137 17.057C11.4137 17.0831 11.4137 17.1093 11.4224 17.1355C11.4398 16.8651 11.4921 16.6122 11.5619 16.3768C11.5793 16.3157 11.6055 16.246 11.6229 16.1849C11.6229 16.1762 11.6317 16.1675 11.6317 16.1588C11.6578 16.0977 11.6753 16.0454 11.7014 15.9844C11.7101 15.9756 11.7101 15.9669 11.7189 15.9495C11.745 15.8972 11.7712 15.8361 11.7974 15.7838C11.8061 15.7751 11.8061 15.7663 11.8061 15.7576C11.8671 15.6443 11.9282 15.5396 11.9892 15.4437C11.9979 15.435 11.9979 15.4262 12.0066 15.4175C12.0328 15.3826 12.059 15.3478 12.0851 15.3042C12.0938 15.2954 12.0938 15.2867 12.1026 15.278C12.1113 15.2693 12.1113 15.2606 12.12 15.2518C12.1549 15.2082 12.1811 15.1646 12.2159 15.121C12.2247 15.1123 12.2247 15.1036 12.2334 15.1036C12.2683 15.06 12.3031 15.0164 12.338 14.9815C12.3816 14.9292 12.4252 14.8856 12.4688 14.8333C12.5037 14.7984 12.5299 14.7635 12.5648 14.7373L12.5996 14.7024C12.6694 14.6327 12.7392 14.5629 12.8089 14.5019C13.0008 14.3275 13.1577 14.2141 13.2101 14.1792C13.1752 14.1879 13.1403 14.1967 13.0967 14.2054C13.0444 14.2315 12.9746 14.2577 12.8874 14.2839Z" fill="#F2D2AC"/>
<path d="M17.9104 12.3915C17.9104 12.3915 17.9104 12.3741 17.9017 12.3392C17.8668 12.2171 17.7447 11.9206 17.2651 11.9642C16.7593 12.0165 16.5849 12.4264 16.5413 12.5659C16.5326 12.5921 16.5326 12.6095 16.5326 12.6095L16.55 12.6183C16.6111 12.5659 16.7332 12.5659 16.8465 12.6444C16.8988 12.6793 16.9337 12.7142 16.9686 12.7578C17.0122 12.8275 17.0209 12.8973 16.9948 12.9496L16.9686 12.9758C16.9686 12.9758 16.986 12.9845 17.0209 12.9932C17.1605 13.0368 17.5529 13.1153 17.7622 12.845C17.7709 12.8275 17.7796 12.8188 17.7883 12.8014C17.7447 12.7839 17.7273 12.7229 17.7273 12.6444C17.7273 12.6095 17.736 12.5747 17.7447 12.5311C17.7709 12.4264 17.8494 12.3654 17.9104 12.3915ZM15.3902 16.1239C15.0588 16.1936 14.771 16.246 14.553 16.2809C14.5618 16.2809 14.5792 16.2809 14.5879 16.2896C14.9629 16.3332 15.5559 16.3942 16.271 16.3506C17.579 16.2721 19.297 15.8623 20.8579 14.4496V14.4408C20.8667 14.3187 20.8492 14.1095 20.701 13.9438C20.6748 13.9176 20.6486 13.8914 20.6138 13.8653C20.605 13.8653 20.605 13.8566 20.5963 13.8566C20.5527 13.8304 20.5178 13.813 20.483 13.7868L20.4045 13.7345V13.7258C20.3085 13.8653 20.1952 13.9961 20.0731 14.1182C20.0295 14.1618 19.9859 14.2054 19.9336 14.249C19.5063 14.6327 18.9482 14.9641 18.3464 15.2257C17.3523 15.6617 16.2361 15.9495 15.3902 16.1239ZM7.1232 13.8478C7.10576 13.8566 7.09704 13.874 7.0796 13.8827L7.06216 13.9002C7.04472 13.9176 7.02727 13.935 7.01855 13.9525L7.00983 13.9612L6.95751 14.0397L6.94879 14.0484C6.94879 14.0571 6.94007 14.0571 6.94007 14.0659L6.91391 14.1182V14.1356C6.90519 14.1618 6.88775 14.1879 6.87903 14.2141C6.85286 14.2839 6.8267 14.3536 6.80926 14.4147C6.80054 14.4321 6.80054 14.4583 6.79182 14.467C6.7831 14.5019 6.77438 14.5368 6.77438 14.5455V14.5542V14.5455C6.77438 14.5193 6.77438 14.5019 6.7831 14.4757C6.7831 14.4321 6.79182 14.3798 6.79182 14.3362C6.79182 14.3013 6.80054 14.2577 6.80926 14.2228C6.80926 14.2141 6.80926 14.1967 6.81798 14.1879C6.81798 14.1705 6.8267 14.1531 6.8267 14.1356C6.8267 14.1182 6.83542 14.1007 6.83542 14.0833V14.0571C6.83542 14.0397 6.84414 14.0135 6.84414 13.9961V13.9525V13.935C6.84414 13.9263 6.84414 13.9176 6.85286 13.9089C6.86159 13.8827 6.87031 13.8478 6.87031 13.8217V13.813C6.87903 13.7955 6.87903 13.7694 6.88775 13.7519V13.7432C6.89647 13.6996 6.91391 13.656 6.92263 13.6124V13.595C6.92263 13.5862 6.92263 13.5775 6.93135 13.5688C6.94879 13.499 6.97495 13.4293 6.99239 13.3682V13.3595C7.00983 13.3072 7.03599 13.2461 7.05344 13.1938V13.1851C7.06216 13.1589 7.07088 13.1415 7.0796 13.1153C7.09704 13.0804 7.10576 13.0456 7.1232 13.0107C7.1232 13.002 7.13192 12.9845 7.14936 12.9496C7.15808 12.9409 7.15808 12.9235 7.1668 12.9148C7.17552 12.8973 7.18424 12.8799 7.19296 12.8537L7.20168 12.8363C7.19296 12.8275 7.17552 12.8276 7.1668 12.8188H7.15808L7.14064 12.8101C7.06216 12.7752 6.97495 12.7403 6.88775 12.7142H6.87031C6.80926 12.6967 6.75694 12.688 6.6959 12.6793C6.66101 12.6793 6.62613 12.6706 6.59125 12.6706H6.50405C6.46044 12.6706 6.41684 12.6793 6.37324 12.6793C6.3558 12.6793 6.34708 12.6793 6.32964 12.688C6.3122 12.688 6.28603 12.6967 6.26859 12.6967C6.25987 12.6967 6.25115 12.6967 6.24243 12.7055C6.22499 12.7055 6.21627 12.7142 6.19883 12.7142C6.17267 12.7229 6.13779 12.7316 6.11163 12.7403C6.1029 12.7403 6.08546 12.7491 6.07674 12.7491C6.04186 12.7665 5.99826 12.7752 5.96338 12.7927C5.94594 12.8014 5.93722 12.8101 5.91977 12.8101L5.86745 12.8363L5.85001 12.845C5.83257 12.8537 5.81513 12.8624 5.79769 12.8799C5.78025 12.8886 5.76281 12.8973 5.74537 12.9148C5.72792 12.9235 5.71048 12.9409 5.69304 12.9496C5.68432 12.9584 5.66688 12.9671 5.65816 12.9758C5.632 13.002 5.59712 13.0281 5.57096 13.0543L5.52735 13.0979C5.50119 13.124 5.48375 13.1502 5.45759 13.1764L5.44887 13.1851C5.44015 13.2025 5.42271 13.2113 5.41399 13.2287L5.38783 13.2549C5.34422 13.3159 5.30062 13.3857 5.26574 13.4554C5.25702 13.4641 5.25702 13.4729 5.2483 13.4816C5.23086 13.5165 5.22214 13.5513 5.2047 13.5862C5.19598 13.6037 5.19598 13.6124 5.18726 13.6298C5.18726 13.6386 5.19598 13.6473 5.19598 13.656C5.2047 13.6909 5.21342 13.717 5.22214 13.7519V13.7694C5.23086 13.7955 5.2483 13.8304 5.25702 13.8566C5.2919 13.9438 5.32678 14.0223 5.37039 14.092C5.37911 14.1007 5.37911 14.1095 5.38783 14.1182V14.1269L5.39655 14.1356C5.42271 14.1879 5.44887 14.2315 5.47503 14.2664C5.51863 14.3275 5.55352 14.3711 5.57968 14.406L5.59712 14.4234C5.59712 14.4321 5.60584 14.4321 5.60584 14.4321L5.62328 14.4496C5.62328 14.4321 5.61456 14.4147 5.61456 14.406C5.5884 14.2926 5.57968 14.1879 5.57968 14.0746V14.0571C5.57968 13.9874 5.57968 13.9176 5.5884 13.8566L5.61456 13.935C5.62328 13.9699 5.64072 14.0048 5.64944 14.0397V14.0571C5.70176 14.2054 5.76281 14.3275 5.82385 14.4234C5.89361 14.5455 5.95466 14.624 5.99826 14.6763C6.00698 14.685 6.0157 14.6937 6.0157 14.7024L6.03314 14.7199C6.00698 14.5978 5.98954 14.4844 5.98954 14.3711V14.2577C5.98954 14.2054 5.98954 14.1618 5.99826 14.1182C6.0157 14.1967 6.04186 14.2751 6.06802 14.3449V14.3536C6.16395 14.6065 6.27731 14.7897 6.3558 14.903L6.36452 14.9117C6.38196 14.9292 6.39068 14.9466 6.3994 14.9641C6.40812 14.9728 6.41684 14.9815 6.41684 14.9902L6.43428 15.0077L6.443 15.0164V14.9989C6.443 14.9815 6.43428 14.9641 6.43428 14.9466C6.42556 14.8856 6.41684 14.8245 6.40812 14.7722C6.40812 14.7373 6.3994 14.6937 6.3994 14.6588V14.5542V14.5368V14.467C6.3994 14.4234 6.40812 14.3711 6.40812 14.3275C6.41684 14.3536 6.42556 14.3885 6.43428 14.4147C6.443 14.4321 6.45172 14.4583 6.46044 14.4757V14.4844L6.46916 14.4932C6.47788 14.5193 6.48661 14.5455 6.49533 14.5629C6.51277 14.6065 6.53021 14.6501 6.55637 14.685C6.58253 14.7373 6.59997 14.7809 6.62613 14.8158C6.64357 14.842 6.65229 14.8594 6.66101 14.8769C6.67846 14.903 6.6959 14.9292 6.70462 14.9466C6.72206 14.9641 6.73078 14.9815 6.7395 14.9989L6.74822 15.0077C6.75694 15.0251 6.77438 15.0338 6.7831 15.0513C6.79182 15.06 6.80054 15.0687 6.80054 15.0774C6.81798 15.0949 6.8267 15.1123 6.83542 15.1123L6.84414 15.121V15.0949C6.85286 15.0251 6.86159 14.9466 6.87031 14.8769V14.8507C6.87903 14.7635 6.89647 14.685 6.91391 14.6065C6.91391 14.5978 6.91391 14.5891 6.92263 14.5716V14.5629C6.92263 14.5542 6.92263 14.5455 6.93135 14.5368C6.93135 14.5193 6.94007 14.5106 6.94007 14.4932C6.94879 14.4321 6.96623 14.3711 6.97495 14.31C6.98367 14.2577 6.99239 14.2054 7.00111 14.1618V14.1443C7.00111 14.1356 7.00111 14.1269 7.00983 14.1269V14.1095C7.00983 14.1007 7.01855 14.0833 7.01855 14.0746C7.01855 14.0659 7.01855 14.0571 7.02727 14.0484C7.02727 14.031 7.03599 14.0135 7.03599 14.0048C7.03599 13.9961 7.04472 13.9787 7.04472 13.9699C7.04472 13.9525 7.05344 13.935 7.05344 13.9263C7.05344 13.9176 7.05344 13.9089 7.06216 13.9002C7.06216 13.8914 7.06216 13.8827 7.07088 13.8827C7.07088 13.8653 7.0796 13.8566 7.0796 13.8478V13.8217L7.1232 13.8478ZM17.6924 17.493C17.8145 17.4494 17.9191 17.4145 18.0063 17.3796C18.172 17.3099 18.2592 17.2575 18.2592 17.2401C18.2505 17.2227 18.1546 17.2314 17.9802 17.275C17.893 17.2924 17.7883 17.3099 17.6575 17.3448C17.5965 17.3622 17.5267 17.3709 17.457 17.3796C17.3872 17.3884 17.3087 17.4058 17.2302 17.4145C17.0733 17.4407 16.8988 17.4581 16.707 17.4756L16.4192 17.5017C16.3233 17.5104 16.2186 17.5104 16.114 17.5192C15.6954 17.5279 15.2332 17.5104 14.7623 17.4232C14.5182 17.3796 14.1781 17.2663 13.9426 17.1355L13.9339 17.1267C14.0734 16.6297 14.5966 16.5599 14.5966 16.5599L14.5792 16.5512H14.553C14.4746 16.5425 14.4135 16.5337 14.3525 16.525C14.3089 16.5163 14.274 16.5163 14.2478 16.5076C14.2217 16.5076 14.1955 16.4989 14.1868 16.4989C13.8728 16.4814 13.6984 16.743 13.6461 16.8564L13.6199 16.9087C13.5763 17.0134 13.5415 17.1267 13.5327 17.2575C13.5153 17.493 13.5763 17.7459 13.7595 17.9639C13.8816 18.1122 14.0909 18.243 14.3612 18.3476C14.1257 18.1994 13.9164 17.9116 13.9077 17.4668C14.1781 17.5802 14.4833 17.65 14.7187 17.6936C15.2158 17.7895 15.7041 17.7982 16.1314 17.7721C16.2361 17.7633 16.3495 17.7546 16.4454 17.7459C16.55 17.7285 16.6459 17.7197 16.7419 17.711C16.9337 17.6761 17.0994 17.65 17.2651 17.6151C17.3436 17.5976 17.4221 17.5802 17.4918 17.554C17.5703 17.5366 17.6314 17.5192 17.6924 17.493Z" fill="#F2D2AC"/>
<path d="M17.2825 11.6677C17.5441 11.6765 17.7185 11.7549 17.8406 11.877C17.8668 11.7637 17.8842 11.6241 17.8755 11.4672C17.8668 11.3015 17.8319 11.1532 17.7796 11.0399C17.7621 10.9701 17.6575 10.787 17.5267 10.7957C17.361 10.8044 17.2389 11.1271 17.2651 11.5108C17.2651 11.5631 17.2738 11.6154 17.2825 11.6677ZM17.7185 12.6532C17.7185 12.7229 17.7447 12.784 17.7796 12.8101C17.8406 12.845 17.9191 12.7752 17.954 12.6619C17.954 12.6532 17.9627 12.6444 17.9627 12.6357C17.9889 12.5311 17.9627 12.4264 17.9017 12.4003C17.8406 12.3654 17.7621 12.4351 17.7273 12.5485C17.7273 12.5834 17.7185 12.6183 17.7185 12.6532ZM16.5326 12.845C16.5587 12.8886 16.6023 12.9322 16.6546 12.9671C16.768 13.0369 16.8901 13.0456 16.9599 12.9845L16.986 12.9584C17.0122 12.906 17.0035 12.8363 16.9599 12.7665C16.9337 12.7229 16.8901 12.6793 16.8378 12.6532C16.7244 12.5834 16.6023 12.5747 16.5413 12.627C16.5326 12.6357 16.5238 12.6444 16.5151 12.6619C16.489 12.7055 16.4977 12.7752 16.5326 12.845ZM20.8666 14.4409C20.8579 14.4409 20.8579 14.4409 20.8666 14.4409V14.4409ZM20.7271 16.8564C20.5614 17.0134 20.3783 17.1616 20.169 17.3012C19.2708 17.9116 18.015 18.3912 17.1255 18.5046C16.4541 18.6092 15.8 18.6267 15.2332 18.5569C14.9018 18.5133 14.6141 18.4435 14.3612 18.3476C14.0908 18.243 13.8815 18.1122 13.7594 17.9639C13.5763 17.7459 13.524 17.4843 13.5327 17.2576C13.5414 17.1355 13.5676 17.0134 13.6199 16.9087L13.6461 16.8564C13.7071 16.7431 13.8728 16.4727 14.1868 16.4989C14.1955 16.4989 14.2216 16.4989 14.2478 16.5076C14.274 16.5076 14.3176 16.5163 14.3524 16.525C14.4135 16.5338 14.4745 16.5425 14.553 16.5512H14.5792C15.4425 16.6558 16.2709 16.6471 17.0558 16.525C18.1982 16.3506 19.2533 15.9408 20.1952 15.3042C20.2475 15.2693 20.2911 15.2344 20.3434 15.1995L20.8579 14.4321C19.2969 15.8536 17.579 16.2634 16.2709 16.3419C15.5559 16.3855 14.9629 16.3332 14.5879 16.2809C14.5705 16.2809 14.5617 16.2809 14.553 16.2721C14.4396 16.2547 14.3524 16.246 14.2827 16.2373C14.2478 16.2373 14.2216 16.2285 14.2042 16.2285C14.1083 16.2198 14.0123 16.2373 13.9251 16.2634C13.7507 16.3158 13.5938 16.4378 13.4804 16.5948C13.3409 16.7867 13.2537 17.0483 13.2537 17.3099C13.2537 17.5279 13.306 17.7546 13.4194 17.9639C13.4281 17.9726 13.4281 17.9814 13.4368 17.9901C13.4542 18.0162 13.463 18.0337 13.4804 18.0598C13.4978 18.086 13.524 18.1209 13.5502 18.147C13.8205 18.4871 14.4135 18.7313 15.1983 18.836C15.7303 18.9057 16.3494 18.897 17.0209 18.8011C19.0092 18.4435 19.951 17.7982 20.387 17.3535C20.4219 17.3186 20.448 17.2924 20.4742 17.2576C20.6312 17.0744 20.7009 16.9349 20.7271 16.8826V16.8739C20.7358 16.8564 20.7358 16.8477 20.7358 16.8477L20.7271 16.8564Z" fill="#664F44"/>
<path d="M14.4048 9.96725C14.3438 9.93237 14.274 9.90621 14.2043 9.88876C14.1607 9.88004 14.1171 9.87132 14.0647 9.8626C14.0473 9.8626 14.0299 9.8626 14.0124 9.85388C13.777 9.83644 13.5764 9.87132 13.5764 9.87132C13.5328 9.88004 13.4892 9.88876 13.4543 9.90621C13.1404 10.0021 12.9224 10.1678 12.7654 10.3597C12.6433 10.5166 12.5561 10.6823 12.5125 10.848C12.5038 10.8655 12.5038 10.8742 12.5038 10.8916C12.4951 10.9352 12.4776 10.9788 12.4689 11.0137C12.4427 11.1532 12.4253 11.2753 12.4253 11.38C12.4253 11.5195 12.434 11.6067 12.434 11.6067C12.4863 11.4846 12.5474 11.38 12.6084 11.2753C12.7567 11.0224 12.9136 10.8131 13.0793 10.6474C13.3933 10.3248 13.7159 10.1504 13.9601 10.0632C14.2217 9.97597 14.4048 9.96725 14.4048 9.96725ZM18.1808 9.52251L18.1721 9.50506C18.1372 9.46146 18.0936 9.41786 18.0413 9.38298C17.9192 9.30449 17.7535 9.26089 17.5268 9.30449C17.5268 9.30449 17.2564 9.36554 17.0995 9.54867C17.0995 9.54867 17.5704 9.3481 18.0762 9.70563C18.1198 9.74052 18.1721 9.7754 18.2157 9.819C18.2593 9.8626 18.3116 9.90621 18.3552 9.96725C18.3552 9.96725 18.3378 9.74924 18.207 9.55739C18.1982 9.53995 18.1895 9.53123 18.1808 9.52251Z" fill="#E9B784"/>
<path d="M14.4658 12.9933C14.6489 12.9409 14.8408 12.8886 15.0588 12.8363C15.0937 12.6706 15.1024 12.47 15.0762 12.252C15.0152 11.7462 14.7885 11.3538 14.5617 11.38C14.335 11.4061 14.2042 11.8422 14.2652 12.3479C14.3001 12.6096 14.3699 12.8363 14.4658 12.9933Z" fill="#664F44"/>
<path d="M13.4281 1.5956L12.9572 1.70024L13.0532 2.55485L11.8061 1.91825L11.2916 2.07522L11.3003 2.08394L12.8177 3.8106L12.8351 3.80187L12.8526 3.79315C12.8962 3.76699 12.9485 3.73211 12.9921 3.70595C13.0096 3.69723 13.027 3.68851 13.0444 3.67107C13.1142 3.62747 13.184 3.58386 13.2537 3.54898L12.6084 2.80774L13.6462 3.31353C13.681 3.29609 13.7072 3.27865 13.7421 3.26121L13.6462 2.51997L14.1171 3.06936H14.1258C14.1694 3.05191 14.2043 3.02575 14.2479 3.00831L14.2653 2.99959L14.2827 2.99087C14.2915 2.99087 14.3002 2.98215 14.3002 2.98215L14.3525 2.95599C14.3525 2.95599 14.3612 2.95599 14.3612 2.94727C14.4136 2.92111 14.4746 2.89495 14.5269 2.86878L13.4281 1.5956Z" fill="#FFD250"/>
<path d="M12.9659 1.7264V1.70024V1.7264ZM12.9659 1.70024L13.0356 1.6828C12.9223 1.63047 12.7827 1.59559 12.6258 1.56943C12.3118 1.52583 11.9107 1.56943 11.4572 1.6828C11.0038 1.79616 10.4893 1.99673 9.94859 2.26707C8.85853 2.80774 7.65511 3.63618 6.48657 4.70008C6.0767 5.06634 5.70172 5.45004 5.35291 5.82502L6.76562 7.56911C7.14932 7.15053 7.55918 6.73195 8.01265 6.32208C8.61436 5.7727 9.22479 5.28435 9.8265 4.86577C10.4108 4.4559 10.995 4.10709 11.5444 3.82803L11.3003 2.71181L11.309 2.08394L11.3003 2.07522L11.8148 1.91825L12.8176 2.43276L12.7915 2.08394L12.9659 1.70024Z" fill="#4D9ED7"/>
<path d="M12.9659 1.70024L12.7915 2.08394L12.8177 2.44148L13.0619 2.56357L12.9659 1.70024ZM12.6084 2.80774L13.6549 3.32225L13.2537 3.54898L12.6084 2.80774ZM13.6549 2.51996L13.7508 3.2612L14.1258 3.06935L13.6549 2.51996Z" fill="#132134"/>
<path d="M17.5966 2.24964H17.7884C17.9628 2.24964 18.1285 2.2758 18.2855 2.31068C18.2942 2.31068 18.3029 2.31068 18.3117 2.3194H18.3204L18.3378 2.32812H18.3553C18.3378 2.3194 18.3204 2.30196 18.3029 2.29324C18.1285 2.22347 17.9454 2.17987 17.7535 2.15371C16.8117 2.03162 15.7304 2.38044 15.12 2.62462C15.0851 2.64206 15.0502 2.65078 15.0153 2.66822C14.963 2.69438 14.9107 2.71182 14.8584 2.73798C14.7711 2.77286 14.6839 2.81647 14.588 2.86007C14.5706 2.86879 14.5619 2.86879 14.5444 2.87751C14.4921 2.90367 14.431 2.92983 14.3787 2.95599C14.3787 2.95599 14.37 2.95599 14.37 2.96471L14.3177 2.99088C14.309 2.99088 14.3002 2.9996 14.3002 2.9996H14.2654L14.2566 3.00832C14.213 3.02576 14.1782 3.0432 14.1346 3.06936H14.1258C14.1171 3.07808 14.1084 3.07808 14.0997 3.0868H14.091C14.0822 3.0868 14.0735 3.09552 14.0735 3.09552C14.0125 3.1304 13.9514 3.15656 13.8904 3.19145C13.8468 3.21761 13.8032 3.23505 13.7596 3.26121H13.7509C13.716 3.27865 13.6898 3.29609 13.6549 3.31353C13.5503 3.36586 13.4544 3.4269 13.3497 3.48794C13.341 3.49666 13.3323 3.49666 13.3148 3.50538C13.3061 3.5141 13.2974 3.5141 13.2887 3.52282C13.2799 3.53154 13.2712 3.53154 13.2625 3.54027L13.2538 3.54899C13.184 3.59259 13.1143 3.62747 13.0445 3.67107C13.0271 3.67979 13.0096 3.68851 12.9922 3.70595C12.9486 3.73212 12.8962 3.767 12.8526 3.79316L12.8352 3.80188L12.8178 3.8106L12.4253 4.07221C12.2073 4.22046 11.998 4.36871 11.7887 4.52568C11.7626 4.54312 11.7364 4.56928 11.7103 4.58672C11.1609 4.99658 10.6376 5.44133 10.1319 5.89479C9.59991 6.38314 9.0854 6.8802 8.60578 7.38599C8.34416 7.64761 8.11743 7.88306 7.94302 8.07491C7.57676 8.46733 7.37619 8.7115 7.38491 8.72022C7.38491 8.72022 7.41979 8.69406 7.48084 8.63302C7.43723 8.68534 7.38491 8.74638 7.34131 8.79871C8.14359 7.9441 9.02436 7.07205 9.97489 6.25233C10.5504 5.75526 11.1522 5.27564 11.7713 4.83089C12.0416 4.63904 12.3207 4.44719 12.5998 4.26406C12.687 4.20302 12.7829 4.1507 12.8701 4.08965C12.9137 4.06349 12.9573 4.03733 13.0096 4.01117C13.0358 3.99373 13.0619 3.97629 13.0881 3.96757C13.1404 3.94141 13.184 3.90652 13.2363 3.88036C13.2799 3.8542 13.3323 3.82804 13.3759 3.79316C13.402 3.77572 13.4282 3.767 13.4544 3.74956L13.6375 3.64491C13.6724 3.62747 13.7072 3.60131 13.7421 3.58387C13.8555 3.52282 13.9689 3.46178 14.091 3.40074C14.0997 3.39202 14.1084 3.39202 14.1171 3.3833L14.1694 3.35714C14.1956 3.34842 14.213 3.33097 14.2392 3.32225C14.2479 3.31353 14.2566 3.31353 14.2654 3.30481L14.3177 3.27865C14.3177 3.27865 14.3264 3.27865 14.3264 3.26993H14.3351C14.3874 3.24377 14.4398 3.21761 14.4834 3.20017C14.4921 3.20017 14.5008 3.19145 14.5095 3.18273L14.5619 3.15656C14.6229 3.1304 14.6752 3.10424 14.7363 3.07808C14.7537 3.06936 14.7711 3.06064 14.7799 3.05192C14.7886 3.05192 14.7973 3.0432 14.806 3.0432C14.8235 3.03448 14.8409 3.02576 14.8584 3.02576C14.9281 2.9996 14.9892 2.96471 15.0589 2.93855C15.12 2.91239 15.1723 2.88623 15.2333 2.86007C15.5647 2.72054 15.8699 2.60718 16.1577 2.51125C16.6984 2.363 17.178 2.26708 17.5966 2.24964Z" fill="white"/>
</svg>
