<svg width="24" height="24" viewBox="0 0 24 24" fill="none" xmlns="http://www.w3.org/2000/svg">
<path d="M11.9606 18.5141C10.9918 18.4904 10.1924 18.0629 9.68202 17.1706C9.15885 16.2482 9.18164 15.304 9.73944 14.4044C11.0674 12.2634 12.4127 10.1343 13.7498 7.99967C14.0232 7.56309 14.2903 7.12013 14.5765 6.69175C14.9564 6.10583 15.55 5.69138 16.231 5.53663C16.9119 5.38189 17.6264 5.49908 18.2222 5.86325C19.4809 6.63888 19.902 8.25214 19.1182 9.5236C17.5159 12.1334 15.8908 14.7304 14.2429 17.3146C13.7352 18.1139 12.965 18.4995 11.9606 18.5141Z" fill="#FFCB00"/>
<path d="M3.63921 18.5141C2.66123 18.4904 1.86646 18.0438 1.36608 17.1551C0.850199 16.2327 0.883011 15.2866 1.44264 14.3871C2.87117 12.0951 4.30608 9.80645 5.74738 7.52116C5.92967 7.22585 6.11195 6.92325 6.307 6.63706C6.70252 6.06387 7.30559 5.6671 7.98852 5.53077C8.67146 5.39443 9.38064 5.52923 9.96592 5.90663C10.5512 6.28403 10.9666 6.87439 11.1243 7.55272C11.2819 8.23106 11.1693 8.94411 10.8104 9.54091C9.21359 12.1194 7.59487 14.6887 5.97524 17.2554C5.44934 18.0875 4.67552 18.4995 3.63921 18.5141Z" fill="#FF3D57"/>
<path d="M20.3358 13.2879C21.8096 13.2951 23.0027 14.4664 23 15.9028C23 17.3611 21.775 18.5369 20.2875 18.5186C18.8001 18.5004 17.6279 17.342 17.6298 15.8991C17.6316 14.4354 18.8292 13.2787 20.3358 13.2879Z" fill="#00D647"/>
</svg>
