<svg width="24" height="24" viewBox="0 0 24 24" fill="none" xmlns="http://www.w3.org/2000/svg">
<path d="M22.997 11.7795C22.9992 11.8542 23 11.9275 23 12.0017C23.0028 13.7628 22.5807 15.4986 21.7694 17.0617L15.7717 19.4821L15.7839 19.4548L22.997 11.7795Z" fill="#0F6089"/>
<path d="M22.997 11.777L15.7852 19.4548L22.4845 8.66486C22.8047 9.67203 22.9774 10.7203 22.997 11.777Z" fill="#078FA4"/>
<path d="M22.4844 8.66485L15.785 19.4548L15.7668 19.4839L14.9636 5.52063L21.699 8.04086L22.4844 8.66485Z" fill="#00AAA6"/>
<path d="M22.4845 8.66488L21.6991 8.04089L22.3561 8.28606C22.4021 8.41147 22.4454 8.53817 22.4845 8.66488Z" fill="#00AAA6"/>
<path d="M22.356 8.28601L15.8645 1.69904C17.3592 2.26099 18.7139 3.14112 19.8348 4.27848C20.9557 5.41584 21.8159 6.78325 22.356 8.28601ZM15.8645 1.69904L22.356 8.28601L21.699 8.04085L15.5251 3.13663L15.8636 1.69904H15.8645Z" fill="#1EAAE2"/>
<path d="M15.7717 19.4822L21.7685 17.06C21.0186 18.5066 19.9569 19.7687 18.6601 20.7552C17.3633 21.7417 15.8636 22.4281 14.2694 22.7648L15.7087 19.6215L15.7717 19.4822Z" fill="#0C7392"/>
<path d="M21.699 8.04087L14.9636 5.52064L15.5251 3.13666L21.699 8.04087Z" fill="#1EAAE2"/>
<path d="M15.8636 1.69906L15.5247 3.13665L12.8778 1.03516C13.8994 1.11438 14.9047 1.3379 15.8636 1.69906Z" fill="#ABCF3A"/>
<path d="M15.7668 19.4839L15.7851 19.4548L15.7729 19.4822L15.7668 19.4839Z" fill="#CD1685"/>
<path d="M15.773 19.4822L15.7088 19.6214L7.93152 13.9479L8.03219 13.8585L14.9637 5.52063L15.7669 19.4839L15.773 19.4822Z" fill="#8F9990"/>
<path d="M15.7088 19.6215L14.2694 22.7648C13.5236 22.922 12.7635 23.0008 12.0013 23C11.6976 23 11.4003 22.9879 11.1053 22.964L4.2627 17.0149L4.46187 17.0583L15.7088 19.6215Z" fill="#CD1685"/>
<path d="M15.7087 19.6214L4.46179 17.06L7.93145 13.9479L15.7087 19.6214Z" fill="#EC1076"/>
<path d="M15.5252 3.13665L14.9637 5.52064L12.8778 1.03516L15.5252 3.13665Z" fill="#ABCF3A"/>
<path d="M12.8778 1.03516L14.9632 5.52064L7.30359 2.04925C8.77191 1.35569 10.3761 0.997299 12 1.00002C12.2955 1.00002 12.5875 1.01217 12.8778 1.03516Z" fill="#E0E224"/>
<path d="M14.9637 5.52063L8.03223 13.8585L5.01819 10.1415L14.9637 5.52063Z" fill="#F9A516"/>
<path d="M14.9637 5.52063L5.01819 10.1415L7.30367 2.05096L14.9637 5.52063Z" fill="#FDCD11"/>
<path d="M11.146 23L11.0718 22.9609L11.1039 22.964L11.146 23Z" fill="#CD1685"/>
<path d="M4.26264 17.0148L11.1039 22.9639L11.0718 22.9609L3.46118 18.9345L4.21448 16.9723L4.26264 17.0148ZM3.46118 18.9345L11.0718 22.9609C9.59732 22.8374 8.16304 22.4171 6.85517 21.7252C5.54729 21.0332 4.39283 20.084 3.46118 18.9345Z" fill="#B9204A"/>
<path d="M5.01814 10.1415L8.03218 13.8585L7.93151 13.9479L2.59814 13.8355L5.01814 10.1415Z" fill="#F05B28"/>
<path d="M7.93151 13.9478L4.46185 17.0599L2.59814 13.8354L7.93151 13.9478Z" fill="#F05B28"/>
<path d="M7.30359 2.05054L5.01811 10.1415L2.59811 13.8355L2.60722 13.7578L1.01819 11.3981C1.23906 7.25937 3.74844 3.73026 7.30359 2.05054Z" fill="#FDCD11"/>
<path d="M2.59813 13.8354L4.46183 17.0599L4.26266 17.0148L2.59813 13.8354ZM4.26266 17.0148L4.21449 16.9714L3.4612 18.9345C2.98815 18.3532 2.5758 17.7251 2.23059 17.0599L2.59813 13.8363L4.26266 17.0148Z" fill="#AB1F25"/>
<path d="M1.01599 11.3981L2.60719 13.7578L2.59808 13.8355L2.23055 17.0591L1.01599 11.3981Z" fill="#CB0010"/>
<path d="M1.01823 11.3981L2.23322 17.0591C1.42113 15.4965 0.998085 13.761 1.00001 12C1.00001 11.7982 1.00478 11.5982 1.01823 11.3981Z" fill="#CB0010"/>
<path d="M18.1782 13.8585L18.6789 11.7488C18.8855 11.1774 18.9884 10.5737 18.9827 9.96622C18.9826 9.56299 18.8301 9.1747 18.5557 8.87923L18.4811 8.79896C17.9682 8.24614 17.0491 7.93111 16.2932 7.93111H16.029C15.3443 7.93068 14.6848 8.18942 14.1831 8.65533L13.5586 9.23722L13.4519 8.99249C13.3963 8.86361 13.3176 8.74597 13.2197 8.64535C12.9652 8.38713 12.6618 8.18214 12.3272 8.04231C11.9926 7.90248 11.6336 7.8306 11.271 7.83087C10.7305 7.83079 10.202 7.99068 9.75225 8.2904L9.13694 8.73517V8.69178C9.13683 8.48977 9.0565 8.29607 8.91361 8.15326C8.77073 8.01046 8.57698 7.93024 8.37497 7.93024H1.70294L1.10022 10.1415L6.62538 10.2422L5.81351 14.6057C5.67552 15.1998 6.05173 15.7851 6.65923 15.8585C6.89447 15.8878 7.13247 15.8328 7.33104 15.7033C7.52962 15.5738 7.67593 15.3782 7.74404 15.1512L9.2554 10.4822C9.41856 9.93758 10.1536 9.59131 10.7177 9.66507C10.883 9.68662 11.0417 9.74352 11.1829 9.83191C11.3242 9.92029 11.4448 10.0381 11.5365 10.1773C11.6281 10.3164 11.6887 10.4737 11.7141 10.6385C11.7395 10.8032 11.7291 10.9714 11.6836 11.1317L10.8878 14.6001C10.8357 14.7836 10.8269 14.9766 10.8621 15.1641C10.8972 15.3516 10.9754 15.5283 11.0904 15.6805C11.2054 15.8326 11.3542 15.956 11.525 16.041C11.6957 16.1259 11.8839 16.1701 12.0746 16.17C12.601 16.17 12.8687 15.8364 13.0401 15.3386L14.5567 10.8306C14.7328 10.3199 15.3577 10.0157 15.8888 10.1168C16.0383 10.1453 16.1802 10.205 16.3052 10.2918C16.4302 10.3787 16.5356 10.4908 16.6145 10.621C16.6935 10.7511 16.7442 10.8964 16.7635 11.0474C16.7827 11.1984 16.7701 11.3517 16.7263 11.4975L15.9218 14.4573C15.8613 14.6553 15.848 14.8648 15.8831 15.0688C15.9182 15.2729 16.0006 15.4658 16.1238 15.6322C16.247 15.7987 16.4074 15.9339 16.5923 16.0271C16.7772 16.1202 16.9814 16.1688 17.1884 16.1687L22.3834 16.0685L22.9861 13.8585H18.1782Z" fill="white"/>
</svg>
