<svg width="51" height="18" viewBox="0 0 51 18" fill="none" xmlns="http://www.w3.org/2000/svg">
<path fill-rule="evenodd" clip-rule="evenodd" d="M6.90474 0.799929C3.65113 4.62089 0.531536 9.35922 0.500254 12.901C0.488071 14.2335 0.9135 15.3969 1.93394 16.278C3.40252 17.5471 5.0206 17.9946 6.63078 17.9972C8.98381 18.0005 11.3204 17.0512 13.1499 16.3192C16.2309 15.087 50.2893 0.29679 50.2893 0.29679C50.6179 0.13215 50.5564 -0.0729902 50.1451 0.0294157C49.9791 0.0709049 13.0672 10.0741 13.0672 10.0741C12.368 10.2718 11.6456 10.3753 10.919 10.3816C8.08224 10.3984 5.55799 8.82381 5.5784 5.50566C5.58631 4.20731 5.98375 2.64159 6.90474 0.799929Z" fill="white"/>
</svg>
