<svg width="24" height="24" viewBox="0 0 24 24" fill="none" xmlns="http://www.w3.org/2000/svg">
<g clip-path="url(#clip0_12171_1737)">
<path d="M11.0989 1.27929C11.6421 0.968398 12.3495 0.966994 12.8922 1.27929C15.6223 2.82194 18.3532 4.36217 21.0829 5.90576C21.5963 6.19496 21.9397 6.76634 21.9345 7.35792V16.6391C21.9383 17.2552 21.5609 17.8402 21.0193 18.1229C18.2982 19.657 15.5784 21.193 12.8578 22.7272C12.3034 23.0442 11.5818 23.0197 11.0447 22.6768C10.2289 22.2039 9.41171 21.7333 8.59584 21.2608C8.42912 21.1614 8.24118 21.0823 8.12346 20.9207C8.22753 20.7804 8.4136 20.7629 8.56479 20.7017C8.90532 20.5934 9.21808 20.4196 9.53091 20.2509C9.61002 20.1968 9.7066 20.2176 9.78243 20.266C10.48 20.666 11.1715 21.0776 11.8714 21.4737C12.0207 21.5599 12.1719 21.4455 12.2996 21.3743C14.9698 19.8652 17.6434 18.3617 20.3132 16.852C20.4121 16.8044 20.4668 16.6994 20.4588 16.5911C20.4606 13.5294 20.4592 10.4672 20.4597 7.40551C20.471 7.28256 20.3999 7.16952 20.2887 7.1192C17.577 5.59207 14.8667 4.0626 12.1555 2.53508C12.1085 2.50279 12.0529 2.48546 11.9958 2.48538C11.9388 2.48529 11.8831 2.50246 11.8361 2.53461C9.12485 4.0626 6.41503 5.59347 3.7038 7.12052C3.59302 7.17092 3.51867 7.28209 3.53185 7.40551C3.53232 10.4672 3.53185 13.5294 3.53185 16.5915C3.52715 16.6444 3.53877 16.6974 3.56513 16.7435C3.59149 16.7896 3.63134 16.8265 3.6793 16.8492C4.40281 17.2595 5.12725 17.6669 5.85122 18.0757C6.25908 18.2953 6.75985 18.4257 7.20921 18.2575C7.60576 18.1153 7.88372 17.7106 7.87615 17.2896C7.8799 14.2458 7.87428 11.2015 7.87896 8.15819C7.86906 8.02307 7.99723 7.91143 8.12861 7.92415C8.47624 7.92181 8.82434 7.91947 9.17197 7.92508C9.31708 7.92181 9.41694 8.0673 9.39899 8.20344C9.39759 11.2665 9.40274 14.3297 9.39665 17.3927C9.39759 18.2091 9.06221 19.0973 8.30711 19.4968C7.37686 19.9787 6.22709 19.8765 5.30808 19.4144C4.51249 19.0173 3.75326 18.5487 2.97179 18.1233C2.42873 17.8422 2.05325 17.2548 2.05707 16.6392V7.35792C2.05138 6.75409 2.40845 6.17234 2.93785 5.88735C5.65852 4.35195 8.37872 2.81539 11.0989 1.27929Z" fill="#8CC84B"/>
<path d="M13.4724 7.70844C14.659 7.63207 15.9293 7.6632 16.9971 8.24776C17.8238 8.69571 18.2822 9.63586 18.2968 10.5543C18.2737 10.6782 18.1442 10.7465 18.0259 10.738C17.6816 10.7376 17.3373 10.7427 16.993 10.7357C16.8469 10.7413 16.7621 10.6067 16.7437 10.4776C16.6448 10.0381 16.4051 9.60286 15.9915 9.3909C15.3566 9.07299 14.6203 9.08898 13.928 9.09561C13.4225 9.12245 12.879 9.16622 12.4508 9.46345C12.122 9.6886 12.0221 10.1431 12.1395 10.5092C12.2501 10.772 12.5535 10.8568 12.8017 10.935C14.2317 11.309 15.7471 11.2717 17.1498 11.7639C17.7305 11.9646 18.2986 12.3547 18.4974 12.9627C18.7574 13.7776 18.6434 14.7517 18.0636 15.4059C17.5935 15.9443 16.9086 16.2373 16.2256 16.3965C15.317 16.5991 14.374 16.6042 13.4513 16.5143C12.5836 16.4154 11.6807 16.1874 11.0109 15.5962C10.4381 15.0989 10.1583 14.324 10.1861 13.576C10.1927 13.4497 10.3185 13.3617 10.4395 13.372C10.7862 13.3692 11.1329 13.3683 11.4796 13.3725C11.618 13.3626 11.7207 13.4823 11.7278 13.6128C11.7918 14.0315 11.9491 14.4709 12.3142 14.7192C13.0189 15.1738 13.903 15.1426 14.7098 15.1554C15.3782 15.1257 16.1286 15.1167 16.6741 14.6749C16.9619 14.423 17.0471 14.0014 16.9693 13.6387C16.8851 13.3325 16.5648 13.1898 16.2897 13.0965C14.878 12.6499 13.3457 12.812 11.9477 12.307C11.3802 12.1064 10.8313 11.7272 10.6133 11.1441C10.309 10.3189 10.4484 9.29814 11.089 8.66599C11.7136 8.0372 12.6152 7.79504 13.4724 7.70837V7.70844Z" fill="#8CC84B"/>
</g>
<defs>
<clipPath id="clip0_12171_1737">
<rect width="19.976" height="22" fill="white" transform="translate(2.01001 1)"/>
</clipPath>
</defs>
</svg>
