<svg width="24" height="24" viewBox="0 0 24 24" fill="none" xmlns="http://www.w3.org/2000/svg">
<g clip-path="url(#clip0_15000_4359)">
<path d="M7.35683 18.3152C6.7326 18.3152 6.22363 18.8012 6.22363 19.4044C6.22363 19.8143 6.4599 20.1656 6.81143 20.3531L11.1925 22.7011C11.54 22.897 11.9323 22.9998 12.3312 22.9997C12.598 22.9997 12.8526 22.9529 13.0888 22.8709L14.5855 22.4552V18.3094C14.5916 18.3152 7.36279 18.3152 7.35683 18.3152Z" fill="url(#paint0_linear_15000_4359)"/>
<path d="M7.35683 18.3152C6.7326 18.3152 6.22363 18.8012 6.22363 19.4044C6.22363 19.8143 6.4599 20.1656 6.81143 20.3531L11.1925 22.7011C11.54 22.897 11.9323 22.9998 12.3312 22.9997C12.598 22.9997 12.8526 22.9529 13.0888 22.8709L14.5855 22.4552V18.3094C14.5916 18.3152 7.36279 18.3152 7.35683 18.3152Z" fill="url(#paint1_linear_15000_4359)"/>
<path d="M12.9925 1.08834C12.7856 1.02925 12.5714 0.999701 12.3562 1.00057C11.9987 1.00057 11.6412 1.07092 11.3199 1.23477C11.2534 1.2641 4.19392 5.09933 4.19392 5.09933C4.09699 5.14631 4.00601 5.20474 3.92122 5.26341C3.90931 5.26914 3.90312 5.27509 3.89097 5.28105C3.83643 5.32184 3.78785 5.36286 3.73354 5.40388C3.70925 5.42153 3.68496 5.44513 3.66686 5.46255C3.63661 5.49165 3.60613 5.52098 3.58207 5.55032C3.49728 5.63808 3.35176 5.82531 3.35176 5.82531C3.10211 6.18023 2.96871 6.60386 2.96998 7.0378V17.2263C2.96998 17.8296 3.47894 18.3157 4.10318 18.3157C4.26061 18.3157 4.40613 18.2864 4.5395 18.2277L6.55725 17.1328C6.9207 16.9572 7.21174 16.6584 7.36321 16.2895C7.39942 16.2134 7.42967 16.1199 7.448 16.0259C7.45396 16.0025 7.46015 15.9732 7.46015 15.9498C7.46015 15.9384 7.4661 15.9207 7.4661 15.909C7.47229 15.8678 7.47825 15.8211 7.47825 15.7803C7.47825 15.745 7.48444 15.7156 7.48444 15.6806V10.2582V8.56584C7.48444 8.09147 7.69641 7.66409 8.02984 7.36549C8.18727 7.22502 8.39329 7.10196 8.63574 7.02015C8.87796 6.93215 14.6104 4.92975 14.6104 4.92975V1.55101L12.9925 1.08834Z" fill="url(#paint2_linear_15000_4359)"/>
<path d="M12.9925 1.08834C12.7856 1.02925 12.5714 0.999701 12.3562 1.00057C11.9987 1.00057 11.6412 1.07092 11.3199 1.23477C11.2534 1.2641 4.19392 5.09933 4.19392 5.09933C4.09699 5.14631 4.00601 5.20474 3.92122 5.26341C3.90931 5.26914 3.90312 5.27509 3.89097 5.28105C3.83643 5.32184 3.78785 5.36286 3.73354 5.40388C3.70925 5.42153 3.68496 5.44513 3.66686 5.46255C3.63661 5.49165 3.60613 5.52098 3.58207 5.55032C3.49728 5.63808 3.35176 5.82531 3.35176 5.82531C3.10211 6.18023 2.96871 6.60386 2.96998 7.0378V17.2263C2.96998 17.8296 3.47894 18.3157 4.10318 18.3157C4.26061 18.3157 4.40613 18.2864 4.5395 18.2277L6.55725 17.1328C6.9207 16.9572 7.21174 16.6584 7.36321 16.2895C7.39942 16.2134 7.42967 16.1199 7.448 16.0259C7.45396 16.0025 7.46015 15.9732 7.46015 15.9498C7.46015 15.9384 7.4661 15.9207 7.4661 15.909C7.47229 15.8678 7.47825 15.8211 7.47825 15.7803C7.47825 15.745 7.48444 15.7156 7.48444 15.6806V10.2582V8.56584C7.48444 8.09147 7.69641 7.66409 8.02984 7.36549C8.18727 7.22502 8.39329 7.10196 8.63574 7.02015C8.87796 6.93215 14.6104 4.92975 14.6104 4.92975V1.55101L12.9925 1.08834Z" fill="url(#paint3_linear_15000_4359)"/>
<path d="M19.446 2.91382L13.0896 1.11652C14.0106 1.46209 14.586 2.24078 14.586 3.1895C14.586 3.1895 14.5803 20.4224 14.586 20.838C14.5922 21.7749 13.9742 22.5771 13.0896 22.8757C13.2835 22.823 19.446 21.1073 19.446 21.1073C20.3609 20.8264 21.0215 20.0064 21.0215 19.0288V4.9923C21.0275 4.02066 20.3609 3.19477 19.446 2.91382Z" fill="url(#paint4_linear_15000_4359)"/>
</g>
<defs>
<linearGradient id="paint0_linear_15000_4359" x1="6.85245" y1="20.1031" x2="22.6024" y2="21.5292" gradientUnits="userSpaceOnUse">
<stop stop-color="#F32B44"/>
<stop offset="0.6" stop-color="#A4070A"/>
</linearGradient>
<linearGradient id="paint1_linear_15000_4359" x1="17.5251" y1="21.0055" x2="10.533" y2="20.3723" gradientUnits="userSpaceOnUse">
<stop stop-opacity="0.4"/>
<stop offset="1" stop-opacity="0"/>
</linearGradient>
<linearGradient id="paint2_linear_15000_4359" x1="13.2222" y1="0.241589" x2="1.61771" y2="17.3917" gradientUnits="userSpaceOnUse">
<stop stop-color="#800600"/>
<stop offset="0.6" stop-color="#C72127"/>
<stop offset="0.728" stop-color="#C13959"/>
<stop offset="0.847" stop-color="#BC4B81"/>
<stop offset="0.942" stop-color="#B95799"/>
<stop offset="1" stop-color="#B85BA2"/>
</linearGradient>
<linearGradient id="paint3_linear_15000_4359" x1="13.4708" y1="-0.101693" x2="11.0133" y2="3.53027" gradientUnits="userSpaceOnUse">
<stop stop-opacity="0.4"/>
<stop offset="1" stop-opacity="0"/>
</linearGradient>
<linearGradient id="paint4_linear_15000_4359" x1="17.06" y1="-0.119574" x2="17.06" y2="21.3454" gradientUnits="userSpaceOnUse">
<stop stop-color="#FFB900"/>
<stop offset="0.166" stop-color="#EF8400"/>
<stop offset="0.313" stop-color="#E25C01"/>
<stop offset="0.429" stop-color="#DB4401"/>
<stop offset="0.5" stop-color="#D83B01"/>
</linearGradient>
<clipPath id="clip0_15000_4359">
<rect width="18.0576" height="22" fill="white" transform="translate(2.96997 1)"/>
</clipPath>
</defs>
</svg>
