<svg width="25" height="25" viewBox="0 0 25 25" fill="none" xmlns="http://www.w3.org/2000/svg">
<g clip-path="url(#clip0_16809_19731)">
<path d="M18.8698 3.55304C15.6432 0.590581 12.2029 0.872629 12.1236 0.872535C12.1196 0.872535 12.1157 0.872394 12.1118 0.872394C12.1116 0.872394 12.1116 0.872394 12.1114 0.872394C12.1113 0.872394 12.1112 0.872394 12.111 0.872394C11.9985 0.872441 11.6142 0.884816 11.6142 0.884816C9.2878 0.999988 7.05176 1.95371 5.35306 3.55304C4.47888 4.48215 2.24988 7.00638 2.24988 10.7339C2.24988 13.5646 3.4429 16.1163 5.3531 17.9148C6.23829 17.0814 7.27751 16.4098 8.42352 15.9473C9.56272 15.4874 10.8074 15.2342 12.1114 15.2342C13.4154 15.2342 14.6601 15.4875 15.7993 15.9473C16.9453 16.4098 17.9845 17.0814 18.8697 17.9148C20.7799 16.1163 21.9729 13.5646 21.9729 10.7339C21.973 7.00623 19.593 4.17507 18.8698 3.55304Z" fill="#49D5FF"/>
<path d="M7.76722 10.7339H2.24988C2.24988 13.5646 3.4429 16.1163 5.3531 17.9148C6.23829 17.0814 7.27751 16.4099 8.42352 15.9473C8.00773 14.4347 7.76722 12.6482 7.76722 10.7339Z" fill="#2BB7FF"/>
<path d="M8.42361 5.52057C7.27761 5.05801 6.23839 4.38643 5.3532 3.55304C4.47888 4.48215 2.24988 7.00637 2.24988 10.7339H7.76717C7.76722 8.81964 8.00773 7.03314 8.42361 5.52057Z" fill="#49D5FF"/>
<path d="M21.9731 10.7339H16.4558C16.4558 12.6482 16.2152 14.4347 15.7994 15.9473C16.9454 16.4099 17.9846 17.0814 18.8698 17.9148C20.78 16.1164 21.9731 13.5646 21.9731 10.7339Z" fill="#2B84E9"/>
<path d="M15.7994 5.52057C16.2152 7.03314 16.4558 8.81964 16.4558 10.7339H21.9731C21.9731 7.00623 19.593 4.17507 18.8698 3.55304C17.9846 4.38648 16.9454 5.05801 15.7994 5.52057Z" fill="#2B96F5"/>
<path d="M15.7994 5.52058C16.9454 5.05801 17.9846 4.38643 18.8698 3.55304C15.6432 0.590581 12.2029 0.872629 12.1236 0.872535C12.1196 0.872535 12.1158 0.872394 12.1118 0.872394C13.6677 0.872675 15.0322 2.72991 15.7994 5.52058Z" fill="#2BB7FF"/>
<path d="M11.6143 0.884818C9.28789 0.99999 7.05186 1.95371 5.35315 3.55304C6.24368 4.3915 7.28923 5.0627 8.42356 5.52058C8.93502 3.6602 10.6501 0.90985 11.981 0.876709" fill="#5FE8FF"/>
<path d="M8.4236 15.9473C9.56281 15.4875 10.8075 15.2342 12.1115 15.2342C13.4155 15.2342 14.6602 15.4875 15.7994 15.9473C16.2152 14.4347 16.4558 12.6482 16.4558 10.7339H7.76721C7.76721 12.6482 8.00773 14.4347 8.4236 15.9473Z" fill="#2B96F5"/>
<path d="M12.1115 6.23374C10.8075 6.23374 9.56281 5.98043 8.4236 5.52063C8.00777 7.0332 7.76721 8.8197 7.76721 10.734H16.4558C16.4558 8.8197 16.2153 7.0332 15.7994 5.52063C14.6602 5.98043 13.4155 6.23374 12.1115 6.23374Z" fill="#2BB7FF"/>
<path d="M15.7994 5.5206C15.0321 2.72994 13.6677 0.872657 12.1118 0.872375C12.1116 0.872375 12.1115 0.872375 12.1114 0.872375C12.1113 0.872375 12.1112 0.872375 12.111 0.872375C10.5552 0.872657 9.19067 2.72994 8.42346 5.5206C9.56267 5.98045 10.8074 6.23371 12.1114 6.23371C13.4153 6.23371 14.6601 5.98045 15.7994 5.5206Z" fill="#49D5FF"/>
<path d="M14.7686 13.8196H9.45428L9.83664 14.9583L11.8298 16.0818L14.2266 15.3326L14.7686 13.8196Z" fill="#363C44"/>
<path d="M12.1115 20.772H14.7683C15.2843 20.772 15.7722 21.0068 16.0942 21.4101L18.209 24.0588C18.2704 24.1357 18.3785 24.1565 18.4641 24.1079C19.6442 23.4377 20.2294 22.0603 19.8925 20.7456L18.6562 15.921C18.4262 15.0233 17.7717 14.2949 16.9038 13.9704L15.8645 13.5818C15.4841 13.4396 15.0557 13.5326 14.7686 13.8197L13.7324 14.8559C13.5434 15.045 13.287 15.1512 13.0196 15.1512H12.1115H11.2034C10.936 15.1512 10.6796 15.045 10.4905 14.8559L9.45431 13.8197C9.16715 13.5326 8.7388 13.4396 8.35846 13.5818L7.31915 13.9704C6.45121 14.2949 5.79678 15.0234 5.56677 15.921L4.33044 20.7456C3.99354 22.0603 4.57873 23.4377 5.75886 24.1079C5.84441 24.1565 5.95255 24.1357 6.01391 24.0588L8.12877 21.4101C8.45071 21.0068 8.93868 20.772 9.45468 20.772H12.1115Z" fill="#555E6B"/>
<path d="M6.65669 21.41L4.99567 23.4904C5.21017 23.7319 5.46615 23.9417 5.75889 24.1079C5.84443 24.1564 5.95257 24.1356 6.01393 24.0588L8.1288 21.41C8.45078 21.0068 8.93871 20.772 9.45471 20.772H7.98259C7.46659 20.772 6.97867 21.0068 6.65669 21.41Z" fill="#414954"/>
<path d="M19.8925 20.7456L18.6562 15.921C18.4262 15.0233 17.7717 14.2949 16.9038 13.9704L15.8645 13.5818C15.5165 13.4516 15.1287 13.519 14.8453 13.7511L15.4317 13.9704C16.2996 14.2949 16.954 15.0234 17.1841 15.921L18.4203 20.7456C18.6737 21.7342 18.4055 22.7582 17.7551 23.4904L18.209 24.0588C18.2703 24.1357 18.3785 24.1565 18.464 24.1079C19.6442 23.4377 20.2294 22.0603 19.8925 20.7456Z" fill="#414954"/>
<path d="M8.17398 17.0137C8.67184 17.0137 9.07543 16.6101 9.07543 16.1122C9.07543 15.6143 8.67184 15.2108 8.17398 15.2108C7.67612 15.2108 7.27252 15.6143 7.27252 16.1122C7.27252 16.6101 7.67612 17.0137 8.17398 17.0137Z" fill="#414954"/>
<path d="M14.3985 19.5046C14.8963 19.5046 15.2999 19.101 15.2999 18.6032C15.2999 18.1053 14.8963 17.7017 14.3985 17.7017C13.9006 17.7017 13.497 18.1053 13.497 18.6032C13.497 19.101 13.9006 19.5046 14.3985 19.5046Z" fill="#414954"/>
<path d="M14.2944 18.9688C14.5885 18.9688 14.8269 18.7304 14.8269 18.4363C14.8269 18.1422 14.5885 17.9038 14.2944 17.9038C14.0003 17.9038 13.7619 18.1422 13.7619 18.4363C13.7619 18.7304 14.0003 18.9688 14.2944 18.9688Z" fill="#414954"/>
<path d="M16.2205 15.6922C16.4294 15.6922 16.5988 15.5229 16.5988 15.314C16.5988 15.105 16.4294 14.9357 16.2205 14.9357C16.0116 14.9357 15.8422 15.105 15.8422 15.314C15.8422 15.5229 16.0116 15.6922 16.2205 15.6922Z" fill="#414954"/>
<path d="M16.2205 17.7018C16.4294 17.7018 16.5988 17.5324 16.5988 17.3235C16.5988 17.1146 16.4294 16.9452 16.2205 16.9452C16.0116 16.9452 15.8422 17.1146 15.8422 17.3235C15.8422 17.5324 16.0116 17.7018 16.2205 17.7018Z" fill="#414954"/>
<path d="M15.1396 16.7123C15.3485 16.7123 15.5179 16.5429 15.5179 16.334C15.5179 16.1251 15.3485 15.9557 15.1396 15.9557C14.9307 15.9557 14.7613 16.1251 14.7613 16.334C14.7613 16.5429 14.9307 16.7123 15.1396 16.7123Z" fill="#414954"/>
<path d="M17.3014 16.7123C17.5104 16.7123 17.6797 16.5429 17.6797 16.334C17.6797 16.1251 17.5104 15.9557 17.3014 15.9557C17.0925 15.9557 16.9232 16.1251 16.9232 16.334C16.9232 16.5429 17.0925 16.7123 17.3014 16.7123Z" fill="#414954"/>
<path d="M11.0714 18.225H10.5484V17.702C10.5484 17.493 10.3789 17.3235 10.17 17.3235C9.96098 17.3235 9.79153 17.493 9.79153 17.702V18.225H9.2685C9.05948 18.225 8.89008 18.3945 8.89008 18.6034C8.89008 18.8124 9.05953 18.9818 9.2685 18.9818H9.79153V19.5048C9.79153 19.7138 9.96098 19.8833 10.17 19.8833C10.3789 19.8833 10.5484 19.7138 10.5484 19.5048V18.9818H11.0714C11.2804 18.9818 11.4498 18.8124 11.4498 18.6034C11.4498 18.3944 11.2804 18.225 11.0714 18.225Z" fill="#414954"/>
<path d="M8.17404 16.7615C8.6719 16.7615 9.07549 16.3579 9.07549 15.86C9.07549 15.3622 8.6719 14.9586 8.17404 14.9586C7.67618 14.9586 7.27258 15.3622 7.27258 15.86C7.27258 16.3579 7.67618 16.7615 8.17404 16.7615Z" fill="#FFD82F"/>
<path d="M14.3985 19.2524C14.8964 19.2524 15.3 18.8488 15.3 18.351C15.3 17.8531 14.8964 17.4495 14.3985 17.4495C13.9007 17.4495 13.4971 17.8531 13.4971 18.351C13.4971 18.8488 13.9007 19.2524 14.3985 19.2524Z" fill="#2E343A"/>
<path d="M14.2945 18.7166C14.5886 18.7166 14.827 18.4782 14.827 18.1841C14.827 17.89 14.5886 17.6516 14.2945 17.6516C14.0004 17.6516 13.762 17.89 13.762 18.1841C13.762 18.4782 14.0004 18.7166 14.2945 18.7166Z" fill="#6E7A89"/>
<path d="M11.0714 17.9726H10.5484V17.4496C10.5484 17.2406 10.3789 17.0712 10.17 17.0712C9.96098 17.0712 9.79153 17.2406 9.79153 17.4496V17.9726H9.2685C9.05948 17.9726 8.89008 18.1421 8.89008 18.351C8.89008 18.5601 9.05953 18.7295 9.2685 18.7295H9.79153V19.2525C9.79153 19.4615 9.96098 19.6309 10.17 19.6309C10.3789 19.6309 10.5484 19.4614 10.5484 19.2525V18.7295H11.0714C11.2804 18.7295 11.4498 18.56 11.4498 18.351C11.4498 18.1421 11.2804 17.9726 11.0714 17.9726Z" fill="#49BC6E"/>
<path d="M19.1582 3.32188C19.1511 3.31288 19.1438 3.30402 19.1358 3.29558C19.1166 3.27524 19.0956 3.25785 19.0733 3.24294C17.2463 1.54217 14.7985 0.5 12.1114 0.5C9.42443 0.5 6.97656 1.54217 5.14956 3.2429C5.12734 3.25785 5.10625 3.27524 5.08712 3.29554C5.07915 3.30402 5.07179 3.31283 5.06481 3.32179C3.10674 5.18601 1.88452 7.8164 1.88452 10.7269C1.88452 12.8183 2.51157 14.8292 3.69784 16.5423C3.76876 16.6448 3.88271 16.6998 3.99854 16.6998C4.07026 16.6998 4.14278 16.6786 4.2062 16.6347C4.37209 16.5198 4.41343 16.2923 4.29859 16.1264C3.26659 14.636 2.69054 12.9026 2.62215 11.0923H7.40486C7.4177 11.9057 7.47405 12.708 7.57188 13.4857L7.19111 13.6281C6.21184 13.9943 5.47229 14.8175 5.21279 15.8303L3.97651 20.6549C3.59968 22.1254 4.25842 23.6759 5.57842 24.4255C5.66687 24.4758 5.76325 24.5 5.8585 24.5C6.02519 24.5 6.18836 24.4258 6.2994 24.2866L8.41427 21.6379C8.66833 21.3198 9.04755 21.1373 9.45466 21.1373H12.1114H14.7682C15.1754 21.1373 15.5546 21.3198 15.8087 21.6379L17.9235 24.2866C18.0346 24.4257 18.1978 24.5 18.3644 24.5C18.4596 24.5 18.5561 24.4757 18.6445 24.4255C19.9645 23.6759 20.6232 22.1254 20.2464 20.6549L19.0101 15.8303C18.7506 14.8176 18.011 13.9944 17.0317 13.6281L16.6509 13.4857C16.7488 12.7081 16.8052 11.9057 16.818 11.0923H21.6007C21.5324 12.9017 20.9568 14.6344 19.9258 16.1243C19.8109 16.2902 19.8524 16.5177 20.0182 16.6326C20.1841 16.7474 20.4118 16.706 20.5266 16.54C21.7118 14.8274 22.3383 12.8173 22.3383 10.727C22.3384 7.81645 21.1162 5.18606 19.1582 3.32188ZM21.6 10.3616H16.8179C16.792 8.71252 16.5909 7.13086 16.2345 5.72629C17.181 5.30901 18.0654 4.74637 18.8573 4.05027C20.4766 5.68617 21.5065 7.90589 21.6 10.3616ZM9.53229 5.50687C9.30949 5.4441 9.08941 5.37201 8.87186 5.29284C9.60049 2.85491 10.7935 1.23069 12.1114 1.23069C13.4297 1.23069 14.6228 2.85533 15.3513 5.29373C14.324 5.66629 13.2303 5.86129 12.1114 5.86129C11.8144 5.86129 11.5149 5.84746 11.221 5.82009C11.0199 5.80195 10.842 5.94904 10.8233 6.15004C10.8046 6.35095 10.9524 6.52893 11.1533 6.54764C11.4696 6.57703 11.7919 6.59198 12.1114 6.59198C13.2957 6.59198 14.4539 6.38892 15.5438 6.00093C15.8652 7.3019 16.0606 8.78986 16.087 10.3615H8.13592C8.16231 8.78963 8.35778 7.30139 8.6793 6.00028C8.89525 6.07739 9.1135 6.14798 9.33419 6.21014C9.36733 6.21946 9.40061 6.22392 9.43343 6.22392C9.59294 6.22392 9.73952 6.11859 9.7849 5.95753C9.8396 5.76332 9.72654 5.56153 9.53229 5.50687ZM8.1873 5.01379C7.36239 4.63813 6.59055 4.14313 5.9019 3.54782C7.08241 2.52538 8.51693 1.78921 10.0964 1.44655C9.57874 1.96653 9.10783 2.69244 8.70522 3.60641C8.51224 4.0446 8.33946 4.51579 8.1873 5.01379ZM15.5177 3.60646C15.1151 2.69249 14.6442 1.96653 14.1265 1.4466C15.7062 1.7893 17.141 2.52561 18.3216 3.54833C17.627 4.14974 16.8575 4.64184 16.0361 5.01496C15.8838 4.51654 15.7108 4.04493 15.5177 3.60646ZM5.36556 4.05023C6.15011 4.73887 7.03811 5.30437 7.98878 5.7246C7.63216 7.12964 7.43092 8.71191 7.405 10.3616H2.62294C2.71637 7.90589 3.74631 5.68617 5.36556 4.05023ZM18.3022 16.0116L19.5386 20.8362C19.8221 21.9425 19.3574 23.1067 18.4041 23.7175L16.3796 21.182C15.9861 20.6892 15.3988 20.4066 14.7682 20.4066H12.1114H9.45466C8.8241 20.4066 8.23675 20.6892 7.84324 21.182L5.81879 23.7175C4.86554 23.1068 4.40082 21.9426 4.68432 20.8362L5.92061 16.0116C6.12086 15.2303 6.69147 14.5951 7.44705 14.3125L8.48636 13.9239C8.73199 13.832 9.01052 13.8925 9.19596 14.078L10.2321 15.1142C10.4915 15.3736 10.8364 15.5165 11.2033 15.5165H12.1114H13.0196C13.3864 15.5165 13.7314 15.3736 13.9907 15.1142L15.0269 14.078C15.2124 13.8924 15.4909 13.8319 15.7365 13.9239L16.7758 14.3124C17.5314 14.5951 18.102 15.2303 18.3022 16.0116ZM15.9471 13.2244C15.4967 13.0735 15.0007 13.1626 14.6318 13.4543H12.4483C12.2465 13.4543 12.083 13.6179 12.083 13.8197C12.083 14.0214 12.2466 14.185 12.4483 14.185H13.8865L13.474 14.5975C13.3526 14.719 13.1912 14.7858 13.0195 14.7858H12.1114H11.2033C11.0316 14.7858 10.8702 14.719 10.7488 14.5975L10.3363 14.185H10.8084C11.0102 14.185 11.1737 14.0214 11.1737 13.8197C11.1737 13.6179 11.0101 13.4543 10.8084 13.4543H9.59107C9.22221 13.1626 8.72627 13.0734 8.27589 13.2243C8.19461 12.53 8.14731 11.8159 8.1355 11.0923H16.0874C16.0756 11.8158 16.0285 12.5301 15.9471 13.2244Z" fill="black"/>
<path d="M9.44058 15.8598C9.44058 15.1613 8.87231 14.593 8.17378 14.593C7.47525 14.593 6.90698 15.1613 6.90698 15.8598C6.90698 16.5583 7.47525 17.1267 8.17378 17.1267C8.87231 17.1267 9.44058 16.5583 9.44058 15.8598ZM8.17374 16.3959C7.87814 16.3959 7.63762 16.1554 7.63762 15.8598C7.63762 15.5642 7.87814 15.3238 8.17374 15.3238C8.46933 15.3238 8.70985 15.5642 8.70985 15.8598C8.70985 16.1554 8.46933 16.3959 8.17374 16.3959Z" fill="black"/>
<path d="M14.3983 17.0843C13.6997 17.0843 13.1315 17.6526 13.1315 18.3511C13.1315 19.0496 13.6997 19.6179 14.3983 19.6179C15.0968 19.6179 15.6651 19.0497 15.6651 18.3511C15.6651 17.6526 15.0968 17.0843 14.3983 17.0843ZM14.3983 18.8872C14.1027 18.8872 13.8622 18.6467 13.8622 18.3511C13.8622 18.0555 14.1027 17.815 14.3983 17.815C14.6939 17.815 14.9344 18.0555 14.9344 18.3511C14.9344 18.6467 14.6939 18.8872 14.3983 18.8872Z" fill="black"/>
<path d="M16.2206 15.4395C16.4295 15.4395 16.5988 15.2702 16.5988 15.0613C16.5988 14.8523 16.4295 14.683 16.2206 14.683C16.0116 14.683 15.8423 14.8523 15.8423 15.0613C15.8423 15.2702 16.0116 15.4395 16.2206 15.4395Z" fill="black"/>
<path d="M16.2206 17.4496C16.4295 17.4496 16.5988 17.2802 16.5988 17.0713C16.5988 16.8624 16.4295 16.693 16.2206 16.693C16.0116 16.693 15.8423 16.8624 15.8423 17.0713C15.8423 17.2802 16.0116 17.4496 16.2206 17.4496Z" fill="black"/>
<path d="M15.1396 16.4601C15.3486 16.4601 15.5179 16.2907 15.5179 16.0818C15.5179 15.8729 15.3486 15.7035 15.1396 15.7035C14.9307 15.7035 14.7614 15.8729 14.7614 16.0818C14.7614 16.2907 14.9307 16.4601 15.1396 16.4601Z" fill="black"/>
<path d="M17.3015 16.4601C17.5104 16.4601 17.6798 16.2907 17.6798 16.0818C17.6798 15.8729 17.5104 15.7035 17.3015 15.7035C17.0926 15.7035 16.9232 15.8729 16.9232 16.0818C16.9232 16.2907 17.0926 16.4601 17.3015 16.4601Z" fill="black"/>
<path d="M11.0714 17.9857H10.5353V17.4496C10.5353 17.2478 10.3717 17.0843 10.1699 17.0843C9.96819 17.0843 9.80459 17.2478 9.80459 17.4496V17.9857H9.26848C9.06668 17.9857 8.90314 18.1493 8.90314 18.3511C8.90314 18.5529 9.06673 18.7164 9.26848 18.7164H9.80459V19.2525C9.80459 19.4543 9.96819 19.6178 10.1699 19.6178C10.3717 19.6178 10.5353 19.4543 10.5353 19.2525V18.7164H11.0714C11.2732 18.7164 11.4367 18.5529 11.4367 18.3511C11.4367 18.1493 11.2732 17.9857 11.0714 17.9857Z" fill="black"/>
</g>
<defs>
<clipPath id="clip0_16809_19731">
<rect width="24" height="24" fill="white" transform="translate(0.11145 0.5)"/>
</clipPath>
</defs>
</svg>
