<svg width="48" height="16" viewBox="0 0 48 16" fill="none" xmlns="http://www.w3.org/2000/svg">
<path d="M13.4997 5.31403C12.0773 4.42836 10.0912 3.87817 7.91733 3.87817C3.54267 3.87817 0 6.0655 0 8.76276C0 11.2319 2.95222 13.2582 6.77669 13.6071V12.1847C4.20021 11.8626 2.26784 10.4536 2.26784 8.76276C2.26784 6.84381 4.79065 5.27377 7.91733 5.27377C9.47395 5.27377 10.883 5.66293 11.9028 6.29363L10.4536 7.19271H14.9758V4.40152L13.4997 5.31403Z" fill="#CCCCCC"/>
<path d="M6.77661 1.46269V12.1846V13.6071L9.04445 12.1846V0L6.77661 1.46269Z" fill="#FF6200"/>
<path d="M16.5764 7.99638C16.7197 7.49475 16.9526 7.06478 17.2572 6.68855C17.5797 6.31233 17.9559 6.00777 18.4217 5.79278C18.8875 5.55988 19.425 5.45239 20.0341 5.45239C20.6611 5.45239 21.1986 5.55988 21.6644 5.79278C22.1123 6.00777 22.5064 6.31233 22.811 6.68855C23.1155 7.06478 23.3484 7.49475 23.4917 7.99638C23.653 8.48009 23.7246 8.99964 23.7246 9.5371C23.7246 10.0746 23.653 10.5941 23.4917 11.0957C23.3484 11.5795 23.1155 12.0094 22.811 12.3856C22.5064 12.7619 22.1123 13.0664 21.6644 13.2814C21.1986 13.5143 20.6611 13.6218 20.0341 13.6218C19.425 13.6218 18.8875 13.5143 18.4217 13.2814C17.9559 13.0664 17.5797 12.7619 17.2572 12.3856C16.9526 12.0094 16.7197 11.5795 16.5764 11.0957C16.4152 10.5941 16.3435 10.0746 16.3435 9.5371C16.3435 8.99964 16.4152 8.48009 16.5764 7.99638ZM17.2572 10.8091C17.3647 11.2211 17.5438 11.5795 17.7947 11.9198C18.0276 12.2423 18.3321 12.4931 18.7083 12.7081C19.0846 12.9052 19.5145 12.9948 20.0341 12.9948C20.5536 12.9948 21.0015 12.9052 21.3777 12.7081C21.754 12.4931 22.0406 12.2423 22.2914 11.9198C22.5243 11.5795 22.7035 11.2211 22.811 10.8091C22.9185 10.397 22.9901 9.96707 22.9901 9.5371C22.9901 9.10713 22.9185 8.69508 22.811 8.28302C22.7035 7.87097 22.5243 7.49475 22.2914 7.17227C22.0406 6.84979 21.754 6.58106 21.3777 6.38399C21.0015 6.18692 20.5536 6.09735 20.0341 6.09735C19.5145 6.09735 19.0846 6.18692 18.7083 6.38399C18.3321 6.58106 18.0276 6.84979 17.7947 7.17227C17.5438 7.49475 17.3647 7.87097 17.2572 8.28302C17.1497 8.69508 17.096 9.10713 17.096 9.5371C17.096 9.96707 17.1497 10.397 17.2572 10.8091Z" fill="#FF6200"/>
<path d="M24.8354 7.7993V8.87422H24.8533C25.0145 8.48008 25.2833 8.17552 25.6416 7.96054C25.9999 7.74555 26.4119 7.63806 26.8777 7.63806C27.3077 7.63806 27.6839 7.70972 28.0064 7.87096C28.3289 8.0322 28.5976 8.24718 28.8126 8.53383C29.0097 8.80256 29.1709 9.12504 29.2784 9.48335C29.3859 9.84165 29.4396 10.2358 29.4396 10.6299C29.4396 11.042 29.3859 11.4182 29.2784 11.7765C29.1709 12.1348 29.0097 12.4573 28.8126 12.726C28.5976 13.0127 28.3289 13.2277 28.0064 13.3889C27.6839 13.5322 27.3077 13.6218 26.8777 13.6218C26.6628 13.6218 26.4657 13.586 26.2507 13.5501C26.0536 13.4964 25.8566 13.4068 25.6953 13.3172C25.5162 13.2097 25.3549 13.0843 25.2116 12.9231C25.0862 12.7798 24.9787 12.6006 24.907 12.3856H24.8891V15.5387H24.1904V7.7993H24.8354ZM28.6334 9.76999C28.5618 9.46543 28.4543 9.21462 28.311 8.98172C28.1497 8.76673 27.9527 8.56966 27.7198 8.42634C27.4869 8.28302 27.2181 8.22927 26.8777 8.22927C26.5015 8.22927 26.179 8.28302 25.9282 8.42634C25.6595 8.55175 25.4624 8.7309 25.3012 8.94588C25.1579 9.16087 25.0504 9.4296 24.9787 9.71625C24.925 10.0029 24.8891 10.3075 24.8891 10.6299C24.8891 10.9345 24.925 11.2211 24.9966 11.5078C25.0683 11.7944 25.1758 12.0632 25.337 12.2781C25.4983 12.511 25.6953 12.6902 25.9461 12.8335C26.197 12.9768 26.5194 13.0485 26.8777 13.0485C27.2181 13.0485 27.4869 12.9768 27.7198 12.8335C27.9527 12.6902 28.1497 12.511 28.311 12.2781C28.4543 12.0632 28.5618 11.7944 28.6334 11.5078C28.7051 11.2211 28.7409 10.9345 28.7409 10.6299C28.7409 10.3433 28.7051 10.0566 28.6334 9.76999Z" fill="#FF6200"/>
<path d="M30.6042 11.5974C30.6759 11.8661 30.7833 12.099 30.9446 12.314C31.0879 12.529 31.285 12.7081 31.5179 12.8335C31.7508 12.9768 32.0374 13.0485 32.3599 13.0485C32.8615 13.0485 33.2557 12.9231 33.5423 12.6544C33.829 12.3856 34.026 12.0452 34.1335 11.5974H34.8322C34.6889 12.2423 34.4202 12.7439 34.026 13.0843C33.6319 13.4426 33.0765 13.6218 32.3599 13.6218C31.912 13.6218 31.5358 13.5322 31.2133 13.3889C30.8729 13.2277 30.6221 13.0127 30.4071 12.726C30.2101 12.4573 30.0488 12.1348 29.9592 11.7765C29.8517 11.4182 29.8159 11.042 29.8159 10.6299C29.8159 10.2537 29.8517 9.8954 29.9592 9.53709C30.0488 9.17878 30.2101 8.85631 30.4071 8.56966C30.6221 8.28302 30.8729 8.06803 31.2133 7.88888C31.5358 7.72764 31.912 7.63806 32.3599 7.63806C32.8078 7.63806 33.2019 7.72764 33.5244 7.90679C33.8469 8.08595 34.1156 8.33676 34.3127 8.62341C34.5098 8.92797 34.6531 9.26836 34.7427 9.64458C34.8322 10.0208 34.8681 10.4149 34.8501 10.8091H30.4967C30.4967 11.0599 30.5325 11.3286 30.6042 11.5974ZM34.026 9.48335C33.9365 9.23253 33.8111 9.01755 33.6677 8.83839C33.5065 8.65924 33.3273 8.498 33.1123 8.39051C32.8794 8.28302 32.6465 8.22927 32.3599 8.22927C32.0733 8.22927 31.8224 8.28302 31.6075 8.39051C31.3925 8.498 31.1954 8.65924 31.0521 8.83839C30.8908 9.01755 30.7654 9.23253 30.6759 9.48335C30.5863 9.71625 30.5325 9.96706 30.4967 10.2358H34.1514C34.1514 9.96706 34.0977 9.71625 34.026 9.48335Z" fill="#FF6200"/>
<path d="M35.8893 7.7993V8.76673H35.9072C36.0505 8.42634 36.2834 8.15761 36.6238 7.94262C36.9463 7.74555 37.3225 7.63806 37.7346 7.63806C38.1287 7.63806 38.4512 7.69181 38.7199 7.78138C38.9886 7.88888 39.2036 8.0322 39.3649 8.22927C39.5261 8.40842 39.6336 8.64132 39.7053 8.91005C39.7769 9.17878 39.7948 9.48335 39.7948 9.82374V13.4606H39.1141V9.93123C39.1141 9.68042 39.0961 9.46543 39.0424 9.25045C39.0066 9.05338 38.917 8.87422 38.8095 8.71298C38.702 8.55175 38.5587 8.44425 38.3616 8.35468C38.1825 8.2651 37.9496 8.22927 37.6808 8.22927C37.3942 8.22927 37.1434 8.2651 36.9284 8.37259C36.7134 8.46217 36.5342 8.60549 36.3909 8.76673C36.2297 8.94588 36.1222 9.14295 36.0326 9.39377C35.943 9.62667 35.9072 9.87749 35.8893 10.1641V13.4606H35.2085V7.7993H35.8893Z" fill="#FF6200"/>
<path d="M41.1205 5.63159V13.4606H40.386V5.63159H41.1205Z" fill="#FF6200"/>
<path d="M44.3991 5.63159C45.5994 5.64951 46.4952 5.9899 47.1043 6.63485C47.6955 7.27981 48.0001 8.24724 48.0001 9.53715C48.0001 10.845 47.6955 11.8124 47.1043 12.4574C46.4952 13.1023 45.5994 13.4248 44.3991 13.4606H41.6938V5.63159H44.3991ZM44.0408 12.8157C44.5961 12.8157 45.0799 12.7619 45.4919 12.6365C45.886 12.5111 46.2264 12.3319 46.4952 12.0632C46.746 11.7945 46.9431 11.4541 47.0685 11.042C47.1939 10.63 47.2476 10.1284 47.2476 9.53715C47.2476 8.96385 47.1939 8.46222 47.0685 8.05017C46.9431 7.6202 46.746 7.27981 46.4952 7.02899C46.2264 6.76026 45.886 6.56319 45.4919 6.4557C45.0799 6.33029 44.5961 6.25863 44.0408 6.25863H42.4463V12.8157H44.0408Z" fill="#FF6200"/>
</svg>
