<svg width="24" height="24" viewBox="0 0 24 24" fill="none" xmlns="http://www.w3.org/2000/svg">
<g clip-path="url(#clip0_15000_4293)">
<path d="M12 23C18.0751 23 23 18.0751 23 12C23 5.92487 18.0751 1 12 1C5.92487 1 1 5.92487 1 12C1 18.0751 5.92487 23 12 23Z" fill="#FCEE21" stroke="black" stroke-width="91.8807" stroke-miterlimit="10"/>
<path d="M6.83557 18.1002V8.28205C6.83557 7.20482 7.12488 6.13375 7.74044 5.25351C8.51604 4.13935 9.93182 3.06213 12.4987 3.17908C17.6386 3.41299 18.0079 7.21713 18.0079 7.21713H15.3857C15.3857 7.21713 14.3638 5.4628 12.2094 5.77673C12.0986 5.7952 11.9878 5.81366 11.8831 5.83829C10.6089 6.1276 9.71638 7.28484 9.71638 8.59598L9.69175 15.6872C9.69175 15.6872 9.40244 18.1802 6.83557 18.1002Z" fill="black"/>
<path d="M10.3505 10.2149V13.4835C10.3505 13.4835 12.8681 14.9547 15.675 13.2188C15.675 13.2188 17.7987 11.7784 18.008 9.72858H15.435C15.435 9.72858 14.2285 11.5937 12.2895 11.3536C12.2895 11.3598 10.769 11.089 10.3505 10.2149Z" fill="black"/>
</g>
<defs>
<clipPath id="clip0_15000_4293">
<rect width="24" height="24" fill="white"/>
</clipPath>
</defs>
</svg>
