<svg width="24" height="24" viewBox="0 0 24 24" fill="none" xmlns="http://www.w3.org/2000/svg">
<path d="M7.57432 19.6918C6.73643 19.0302 5.84242 18.3962 5.23166 17.5027C3.94595 15.9272 2.9563 14.1035 2.27971 12.1867C1.87065 10.9402 1.73057 9.60386 1.20291 8.40574C0.651712 7.53525 1.29788 6.58436 2.24766 6.3078C2.67021 6.22602 3.41366 5.82558 2.51621 6.11215C1.71149 6.70444 1.63398 5.57386 2.45898 5.50226C3.02204 5.4273 3.22932 4.96484 3.03656 4.54853C2.43191 4.15258 4.50222 3.71815 3.4604 3.1275C2.37587 1.95258 4.97806 1.7264 4.33594 3.06099C4.18245 4.0871 6.15489 2.8725 5.69684 4.05768C6.16219 4.62694 7.43896 4.18751 7.40691 4.98563C8.08461 5.03238 8.31725 5.6044 8.95275 5.64839C9.61249 5.94739 10.8073 6.18254 11.0314 6.92829C10.3774 7.44786 8.86346 5.85491 8.79033 7.29336C8.98816 9.41874 8.93771 11.608 9.7121 13.6319C10.0784 14.8572 10.9668 15.8217 11.7687 16.7762C12.5363 17.7108 13.5759 18.3692 14.6358 18.9231C15.5652 19.363 16.5672 19.6546 17.5804 19.838C17.9912 19.5226 18.7166 18.3499 19.3572 18.844C19.3881 19.4004 18.0857 20.0061 19.2961 19.9446C20.0075 19.7291 20.5003 20.4962 21.0858 19.8041C21.6253 20.4455 23.3279 19.3946 22.9442 20.7055C22.425 21.0418 21.6681 20.8386 21.1483 21.3013C20.2913 20.8714 19.609 21.6854 18.6599 21.5827C17.6063 21.7722 16.534 21.8484 15.4659 21.85C13.7131 21.7112 11.9234 21.6526 10.256 21.04C9.31644 20.766 8.39992 20.2289 7.57432 19.6918ZM9.0545 20.3361C9.97163 20.7337 10.8686 21.1534 11.8739 21.2803C13.4687 21.5026 15.1157 21.8455 16.7161 21.5331C15.9918 21.2048 15.2427 21.6606 14.5212 21.2984C13.6558 21.4851 12.727 21.2505 11.8468 21.1348C10.8465 20.6876 9.76658 20.3801 8.82978 19.799C7.65862 19.3698 9.43503 20.3496 9.75137 20.4292C10.483 20.8459 8.94656 20.2153 8.72957 20.0422C8.11667 19.6969 8.03864 19.7691 8.66907 20.1194C8.796 20.194 8.92138 20.2724 9.0545 20.3361ZM7.30911 19.0979C8.19814 19.4285 7.30516 18.4706 6.89833 18.526C6.71786 18.2117 6.20886 18.0131 6.5679 17.8445C5.92225 18.0696 5.89132 16.9888 5.58796 17.1434C4.90458 16.9268 5.32207 16.1596 4.50781 15.6882C4.43356 15.1916 3.69914 14.7612 3.46539 14.0126C3.36201 13.6291 2.63541 12.5286 3.08159 13.5529C3.46144 14.5389 4.1296 15.384 4.68596 16.2273C5.11754 17.0304 5.62783 17.8705 6.41399 18.3714C6.67928 18.6269 6.93494 19.0178 7.30911 19.0979ZM4.74895 16.2758C4.77972 16.141 4.91137 16.5674 4.74895 16.2758V16.2758ZM8.37405 19.4939C8.0908 19.3822 8.57067 19.4054 8.37405 19.4939V19.4939ZM8.85616 19.6705C8.6359 19.807 8.80623 19.4268 8.85616 19.6705V19.6705ZM9.4603 19.9233C9.01686 19.7499 9.74742 19.6484 9.4603 19.9233V19.9233ZM10.4954 20.5024C9.93622 20.4049 10.6701 20.2435 10.4954 20.5024V20.5024ZM8.50785 19.1115C7.9307 19.1075 8.95387 18.8215 8.50785 19.1115V19.1115ZM8.96074 19.3382C8.79944 19.407 8.94777 19.1853 8.96074 19.3382V19.3382ZM11.2248 20.7569C11.5889 20.9876 13.3507 21.2623 12.2476 20.8516C12.0626 20.8906 10.202 20.323 11.2248 20.7569ZM7.63061 17.9466C7.06514 17.7769 7.5952 17.7933 7.63061 17.9466V17.9466ZM8.6842 18.5639C8.11495 18.4155 8.95894 18.3715 8.6842 18.5639V18.5639ZM9.5709 19.1093C8.93264 18.9598 9.96484 18.9604 9.5709 19.1093V19.1093ZM7.20126 17.4779C7.62837 17.8066 8.92431 17.5201 7.85533 17.2816C7.36927 17.0215 6.27348 16.8434 7.02045 17.4384L7.20126 17.4779ZM10.1718 19.2976C9.42541 19.1238 10.3498 18.9935 10.1718 19.2976V19.2976ZM9.26917 18.5777C10.3133 18.874 8.39089 17.9144 9.01136 18.4684L9.14912 18.531L9.26917 18.5777ZM11.0788 19.6276C10.1853 19.4906 12.0678 19.6371 11.0788 19.6276V19.6276ZM6.8209 16.9035C6.57701 16.9189 6.78206 16.7186 6.8209 16.9035V16.9035ZM12.7517 20.5696C12.4291 20.8184 12.7781 20.2357 12.7517 20.5696V20.5696ZM8.50897 17.9409C8.19994 17.9336 8.44882 17.765 8.50897 17.9409V17.9409ZM6.91466 16.7874C6.13693 16.5364 7.48236 16.7531 6.91466 16.7874V16.7874ZM5.02593 15.5621C4.40838 15.0709 4.9552 15.2887 5.02593 15.5621V15.5621ZM9.98409 18.7206C9.8801 18.6015 9.9351 18.7465 9.98409 18.7206V18.7206ZM13.0697 20.6216C12.9017 20.6903 13.0602 20.4393 13.0697 20.6216V20.6216ZM9.71098 18.4374C9.22663 18.3662 9.76667 18.2027 9.71098 18.4374V18.4374ZM7.41198 16.9747C6.73479 16.6881 7.83462 16.9295 7.41198 16.9747V16.9747ZM11.3008 19.4004C10.659 19.2728 11.9594 19.1385 11.3008 19.4004V19.4004ZM9.27828 18.0223C10.0369 18.1203 8.37525 17.5038 9.11139 17.9669L9.27828 18.0223ZM11.9148 19.6496C12.6236 19.2249 12.3898 20.6452 13.117 19.7697C13.834 19.244 12.4977 20.4196 13.3811 19.8634C14.0206 19.4341 14.9646 20.067 15.5609 20.2729C15.9896 20.252 16.4066 20.6452 16.8465 20.4059C17.6928 20.1769 15.1911 20.0665 15.8468 19.6608C15.0725 19.8871 14.5005 19.3912 14.1195 18.8931C13.2507 18.6917 12.2465 18.2461 11.8127 17.4739C11.6356 17.1846 12.0679 17.5151 11.6599 17.0413C11.1367 16.5742 10.8754 16.0433 10.5241 15.4753C10.1043 15.2508 10.0549 14.5891 10.0127 15.4534C10.0161 14.9079 9.50585 14.5407 9.38106 14.693C9.37883 14.1677 9.92737 14.4312 9.54349 14.0426C9.46099 13.4982 9.18891 12.9308 9.10735 12.3159C8.98051 12.0198 9.08931 11.3852 8.67363 12.0558C8.52238 12.7649 8.62361 11.1849 8.85908 11.7056C9.16811 11.1742 8.74771 11.2368 8.73086 11.3102C8.93213 10.8618 8.85848 10.2254 8.6781 10.468C8.78543 9.99239 8.84782 8.71819 8.51799 8.94437C8.71797 8.44689 8.89732 6.66873 8.02841 7.34693C7.67667 7.35194 7.06703 7.47504 6.77931 7.61884C7.68234 8.11865 6.68821 7.7993 6.32014 7.71977C6.27236 8.18231 5.90825 7.98261 5.45304 7.9871C6.18024 8.07733 5.09897 8.73328 4.68269 8.47846C4.14094 8.73794 5.14968 9.38665 4.69335 9.58738C4.74964 9.88922 3.86388 9.47809 3.93306 10.1764C3.40755 9.95401 3.86113 11.0044 4.1241 10.6491C5.01819 10.8922 4.75351 11.4456 4.77593 11.9718C4.63036 12.278 4.05664 11.2515 4.64832 11.2989C4.18133 10.5378 4.13201 11.0236 3.74417 11.3773C3.65428 11.4027 4.73322 11.8804 4.05612 12.1162C4.65176 12.2088 4.6692 12.7322 4.79063 13.0634C5.14856 13.4378 5.07483 12.6498 5.50374 13.1001C5.23218 12.6989 4.06729 11.97 5.0053 12.2038C5.00015 11.8004 4.83549 11.4748 5.12321 11.4827C5.40818 10.9655 4.82483 12.7587 5.46661 12.101C5.64407 12.0232 5.68859 11.5832 6.00776 12.1428C6.47131 12.6008 6.17525 12.9324 5.5211 12.5128C5.63797 12.9116 6.39603 13.0536 6.25329 13.6771C6.40436 14.2254 6.61577 14.0233 6.80002 13.9918C6.94439 14.5243 7.02664 14.1328 7.03334 13.8789C7.69471 14.0213 7.5396 14.4138 7.74688 14.6879C8.2026 14.8943 7.09453 13.2884 7.87682 14.205C8.69992 14.9513 8.18585 15.2626 7.44696 15.1431C7.91446 15.1052 8.06493 15.7778 8.65008 15.7541C9.18332 16.009 9.54469 16.9871 8.62533 16.5798C8.30667 16.291 7.17763 15.935 8.09991 16.4839C8.95069 16.8799 9.62728 17.1163 10.4482 17.6133C11.0355 18.0341 11.2894 18.5162 11.512 18.6117C11.0181 18.8485 10.024 18.4227 10.7623 18.2925C10.3015 18.2084 9.78351 17.9743 10.2245 18.5502C10.5999 18.865 11.5536 18.8316 11.725 18.8672C11.58 19.1876 11.3312 19.2131 11.7306 19.2378C11.2849 19.4764 11.8739 19.5137 11.9148 19.6496ZM11.0034 17.0655C10.732 16.7807 10.6618 16.2477 10.9551 16.7112C11.1057 16.7721 11.4368 17.5829 11.0034 17.0655ZM13.9723 18.9586C13.9773 19.0876 14.1414 18.9474 13.9723 18.9586V18.9586ZM10.5753 16.3672C10.5645 15.9368 10.673 16.6993 10.5753 16.3672V16.3672ZM10.2802 15.9689C9.93863 15.3073 10.7101 16.1562 10.2802 15.9689V15.9689ZM6.70394 13.4915C6.80286 13.8355 6.90461 13.4378 6.70394 13.4915V13.4915ZM9.55027 15.0399C9.67334 14.5756 9.69474 15.4292 9.55027 15.0399V15.0399ZM7.5396 13.6364C7.39806 13.3803 7.83582 13.8768 7.5396 13.6364V13.6364ZM9.26479 14.1915C8.94167 13.465 9.49407 13.7943 9.33672 14.3105L9.26479 14.1915ZM6.28929 12.1996C6.14492 11.9611 5.90601 11.2616 5.98301 11.0479C6.05211 11.3959 6.71975 12.5449 6.31 11.524C5.85772 10.6683 6.85124 11.8014 6.9535 12.0153C7.00129 12.2274 6.67421 11.9572 6.89558 12.4552C6.49159 11.8883 6.65728 12.7684 6.28929 12.1996ZM5.36993 11.5634C5.40758 11.0089 5.58014 11.9436 5.36993 11.5634V11.5634ZM5.78355 11.7066C5.98078 11.2883 6.11785 12.29 5.78355 11.7066V11.7066ZM4.78831 10.934C4.44602 10.592 4.19818 10.2773 4.80455 10.7218C5.03779 10.7308 4.2854 10.006 4.86084 10.4916C5.46541 10.6023 5.15913 11.4873 4.78831 10.934ZM5.3109 10.9204C5.4166 11.115 5.50993 10.7224 5.3109 10.9204V10.9204ZM5.6329 11.0236C5.33109 10.4567 5.99874 11.2617 5.6329 11.0236V11.0236ZM4.99344 10.4105C3.99829 9.52079 6.24375 10.8752 5.15586 10.5751L4.99344 10.4105ZM7.84528 12.0733C7.4143 11.8144 7.73064 10.2486 7.87793 11.3192C8.29662 11.1832 7.85473 11.8726 8.16668 11.8658C8.11787 12.3006 7.97796 12.457 7.84528 12.0733ZM8.90007 12.6994C8.94218 12.2274 8.98885 13.0222 8.90007 12.6994V12.6994ZM8.71694 12.5173C8.72141 12.7547 8.76412 12.3159 8.71694 12.5173V12.5173ZM5.18835 10.1183C4.54897 9.23258 7.04675 11.0139 5.5981 10.3428C5.44685 10.3028 5.26432 10.2886 5.18835 10.1183ZM7.21982 11.1991C7.15924 10.4534 7.35475 11.3225 7.21982 11.1991V11.1991ZM8.7618 12.1923C8.77091 12.4733 8.88091 11.7676 8.7618 12.1923V12.1923ZM5.28675 9.78036C5.66668 9.69858 6.86129 10.4499 5.76439 9.99472C5.64253 9.85929 5.38231 9.92088 5.28675 9.78036ZM8.54988 11.4128C8.59053 10.6502 8.7771 10.9576 8.5516 11.5223L8.54988 11.4128ZM5.5694 9.51475C5.72443 9.28675 5.15793 8.48415 5.65078 9.22697C5.8639 9.39674 6.26721 9.5113 5.911 9.5829C6.47122 10.0788 5.77453 9.71721 5.5694 9.51475ZM8.38857 11.1748C8.4831 11.6836 8.49548 10.3061 8.38857 11.1748V11.1748ZM5.24567 8.71258C5.30858 8.87096 5.36426 8.66168 5.24567 8.71258V8.71258ZM5.98129 9.15201C6.17053 8.75312 6.3302 9.59644 5.98129 9.15201V9.15201ZM8.05539 10.31C8.05367 10.1572 8.09467 10.5328 8.05539 10.31V10.31ZM7.93508 10.0433C7.64736 9.33023 8.20321 10.4206 7.93508 10.0433V10.0433ZM7.75857 9.57557C7.71044 9.28106 7.92271 9.94564 7.75857 9.57557V9.57557ZM8.04628 9.10629C7.84854 8.75701 8.29593 7.5663 8.34595 8.30472C8.13738 8.8801 8.28579 9.2017 8.43068 8.42998C8.69941 7.82303 8.37285 9.6287 8.04628 9.10629ZM8.34191 7.33563C8.36107 7.46356 8.42802 7.22953 8.34191 7.33563V7.33563ZM7.84811 17.1016C7.73115 16.9989 7.86315 17.1665 7.84811 17.1016V17.1016ZM8.86518 17.6178C9.43099 17.7639 9.42824 17.5297 8.91674 17.4598C8.642 17.2032 7.77378 16.9307 8.55099 17.4282C8.60221 17.5591 8.76464 17.5557 8.86518 17.6178ZM6.85682 16.2785C7.16809 16.5122 8.03064 16.9397 7.30069 16.3678C7.54682 16.0806 6.82975 15.9278 7.06754 15.7355C6.46229 15.3636 6.58973 15.3969 7.01418 15.4088C6.28697 15.0821 7.11919 15.107 7.07992 14.9396C6.7995 14.8842 5.68679 14.443 6.34146 14.9756C5.67613 14.6354 6.1829 15.1025 5.98181 15.0534C5.30118 14.8673 6.58767 15.5736 5.87387 15.3981C6.26394 15.7083 6.9242 16.1935 6.03853 15.7264C5.92225 15.895 6.67257 16.1506 6.85682 16.2785ZM7.92047 16.8923C7.286 16.3807 9.21357 17.3103 7.92047 16.8923V16.8923ZM13.3658 20.2035C13.1893 20.4234 13.3827 19.9457 13.3658 20.2035V20.2035ZM13.9255 20.4398C14.2239 20.15 13.9379 20.9024 14.42 20.3688C14.425 19.9869 14.4054 19.7614 13.866 20.2255C13.717 20.3085 13.6508 20.6597 13.9255 20.4398ZM5.04114 14.8392C4.39876 14.4792 4.94944 14.4776 5.04114 14.8392V14.8392ZM5.6384 15.2322C4.84658 14.8978 5.41643 14.8629 5.6384 15.2322V15.2322ZM9.03878 17.2906C9.37101 17.5868 10.5634 17.5078 9.44182 17.3273C9.27596 17.0808 8.38754 17.1401 9.03878 17.2906ZM13.7125 20.1885C13.2175 20.3802 14.2233 19.758 13.7125 20.1885V20.1885ZM14.7752 20.9211C14.5549 20.9815 14.7785 20.7829 14.7752 20.9211V20.9211ZM14.7769 20.7276C14.229 20.7632 15.3427 20.1264 14.7769 20.7276V20.7276ZM3.57101 13.6038C3.0889 12.9133 3.27151 12.603 2.80625 12.0389C2.71791 11.6074 2.00832 10.6293 2.4393 11.6655C2.83375 12.2719 2.95054 13.2105 3.57101 13.6038ZM14.5993 20.5364C14.1722 20.2425 15.6407 19.8611 14.5993 20.5364V20.5364ZM15.3939 20.8488C15.064 20.7551 15.9154 20.3997 15.3939 20.8488V20.8488ZM4.86402 14.0758C4.47859 14.0471 5.01304 13.853 4.86402 14.0758V14.0758ZM15.2281 20.6356C15.7327 20.3091 15.1118 20.3592 15.1366 20.6654L15.2281 20.6356ZM8.37903 16.3023C8.1122 16.3209 8.36167 16.0812 8.37903 16.3023V16.3023ZM8.80219 16.5466C8.59542 16.5894 8.66735 16.2735 8.80219 16.5466V16.5466ZM16.0379 20.8562C16.6846 20.3879 15.6462 20.7664 15.9024 20.9453L16.0379 20.8562ZM15.7901 20.7361C15.2343 20.9323 16.3172 20.2932 15.7901 20.7361V20.7361ZM17.0554 21.5815C16.6257 21.5049 17.4091 21.3441 17.0554 21.5815V21.5815ZM5.18835 13.9151C5.66204 14.0216 7.08258 15.0866 6.24478 13.989C5.81552 13.8615 6.0729 12.8083 5.63514 12.9945C5.92904 13.4875 5.87662 13.6967 5.25959 13.3865C4.48478 13.0063 4.82415 13.5744 4.976 13.7313C4.76906 13.7786 5.24902 13.9112 5.18826 13.915L5.18835 13.9151ZM3.02874 12.2032C3.11356 11.8505 2.24705 10.2649 2.61968 11.4083C2.75391 11.6481 2.73999 12.1021 3.02874 12.2032ZM6.99269 14.6563C6.74829 14.4516 6.98092 14.6269 6.99269 14.6563V14.6563ZM7.59339 14.7969C6.92927 14.645 7.59339 14.4233 7.59339 14.7969V14.7969ZM12.8027 18.0928C12.41 18.0871 12.7033 17.8377 12.8027 18.0928V18.0928ZM13.0528 18.276C12.9083 18.3037 13.0156 18.1333 13.0528 18.276V18.276ZM15.1174 19.5819C14.8695 19.5628 15.3158 19.4347 15.1174 19.5819V19.5819ZM4.10717 12.4796C3.49848 12.3221 4.67522 12.2589 4.10717 12.4796V12.4796ZM12.3441 17.6882C11.9817 17.7802 12.3375 17.3193 12.3441 17.6882V17.6882ZM3.88287 11.9543C3.54514 11.8732 4.24759 11.8309 3.88287 11.9543V11.9543ZM4.94162 12.4693C4.82982 12.5156 4.93535 12.3481 4.94162 12.4693V12.4693ZM17.858 20.4201C18.3272 20.3248 19.3966 20.6599 19.5691 20.2955C18.9994 20.2814 17.5984 19.8915 17.5321 20.3879L17.6568 20.4077L17.858 20.4201ZM5.27815 12.5545C4.98768 12.5405 5.28675 12.1805 5.27815 12.5545V12.5545ZM2.49447 10.6157C2.01339 10.5079 2.36805 9.9032 2.49447 10.6157V10.6157ZM3.15808 10.7833C2.5505 10.5773 3.16658 10.5542 3.15808 10.7833V10.7833ZM3.53741 10.9705C3.42783 10.8813 3.45198 11.0827 3.53741 10.9705V10.9705ZM5.92509 12.5077C5.65877 12.431 6.03758 12.4038 5.92509 12.5077V12.5077ZM3.28509 10.5486C2.51578 10.468 3.22055 10.0105 3.28509 10.5486V10.5486ZM1.92341 9.66183C1.79073 9.75543 1.90425 9.41365 1.92341 9.66183V9.66183ZM2.12623 9.50854C1.95203 9.54563 2.09314 9.21395 2.12623 9.50854V9.50854ZM3.2447 10.1786C3.71787 9.99239 2.38309 9.79269 3.14802 10.1436L3.2447 10.1786ZM18.2172 19.4623C17.8328 19.376 18.5201 19.1837 18.2172 19.4623V19.4623ZM20.0261 20.4032C19.7204 20.4506 20.1476 20.0434 20.0261 20.4032V20.4032ZM3.359 9.59023C2.98371 9.65959 3.4091 9.24172 3.359 9.59023V9.59023ZM1.76718 8.51969C1.68176 8.02782 1.69353 7.16414 2.51123 7.4558C1.41982 7.67353 3.26705 8.81791 3.03381 7.91429C3.49289 7.93698 3.93186 7.64196 3.69072 8.08915C4.59547 7.98934 5.22212 7.20192 6.09585 7.31251C6.7763 7.22176 7.52035 7.15344 8.25374 6.87817C8.85667 6.8347 9.4371 6.18315 9.10684 5.79677C8.28467 5.72689 7.42367 5.83007 6.51505 6.01174C5.50812 6.22153 4.59332 6.62085 3.57719 6.79243C2.58642 6.92614 3.77614 7.16017 3.49229 7.21262C2.9758 7.39257 4.1088 7.51385 3.42543 7.70389C3.00348 7.62332 2.56399 7.4778 2.74437 7.03103C1.7958 7.15508 0.96186 7.54991 1.71158 8.519L1.76727 8.51952L1.76718 8.51969ZM4.0538 7.35082C4.27578 6.52846 5.24507 8.02782 4.41792 7.46028C4.31952 7.38575 4.1565 7.32537 4.0538 7.35082ZM4.09694 6.95193C4.26727 7.08685 4.41792 6.71229 4.09694 6.95193V6.95193ZM4.50437 6.95883C4.53376 6.5803 5.43791 7.15905 4.65339 7.09478L4.50437 6.95883ZM5.06185 6.73377C5.12097 6.94581 5.26586 6.49447 5.06185 6.73377V6.73377ZM5.20468 6.63793C5.54404 6.22895 7.12478 6.37664 5.96772 6.59773C5.65748 6.36309 5.41986 6.73593 5.20468 6.63793ZM7.26803 6.31858C7.21699 5.20103 8.29361 6.71514 7.26803 6.31858V6.31858ZM7.8537 6.31513C8.06768 5.75226 8.68471 6.08903 7.95313 6.20178C7.96877 6.26216 7.93121 6.49292 7.8537 6.31513ZM3.12826 9.30142C2.44935 8.96024 3.76763 8.90823 3.12826 9.30142V9.30142ZM3.60134 9.43289C3.11356 9.33584 3.82564 9.19376 3.60134 9.43289V9.43289ZM2.20778 8.44068C1.77509 8.33354 2.57302 8.15859 2.20778 8.44068V8.44068ZM21.0937 20.3005C20.8144 20.4477 21.1044 19.9733 21.0937 20.3005V20.3005ZM19.1747 18.9856C18.928 19.0184 19.2291 18.6095 19.1747 18.9856V18.9856ZM21.6214 20.4275C22.1323 20.4292 23.1695 20.2677 22.058 20.2683C21.8832 20.2955 21.0415 20.2899 21.6214 20.4275ZM4.01728 9.20204C4.4309 9.17383 4.66404 8.7445 3.93684 8.76882C2.8102 8.65211 4.93088 9.15641 3.79247 9.012C3.63967 9.11353 4.00817 9.23025 4.01728 9.20204ZM4.3814 9.38717C4.25318 9.52864 4.33808 9.12087 4.3814 9.38717V9.38717ZM4.81349 8.23071C4.56513 8.17093 4.99276 8.00728 4.81349 8.23071V8.23071ZM3.4378 5.92315C4.17626 5.6716 5.18551 5.38839 5.53399 6.04737C5.17933 5.61924 5.39073 5.19723 5.72563 5.82394C6.19932 6.45746 6.43633 5.53573 6.12842 5.32301C6.47973 5.76071 6.87865 5.96783 6.36329 5.35078C6.9236 4.67439 5.24223 5.43929 4.86015 5.43135C4.67642 5.51417 2.9618 5.87018 3.4378 5.92315ZM3.8705 5.09182C4.29151 4.77316 5.32654 5.28186 4.66233 4.77471C4.59719 4.71726 3.20809 5.15945 3.8705 5.09182ZM5.40526 5.15548C5.8975 5.1679 5.1929 4.49099 5.77951 4.79783C5.68343 4.48202 5.09622 4.42275 4.80911 4.29646C4.64669 4.58528 5.13936 5.15945 5.40526 5.15548ZM4.13965 3.75705C3.84076 3.87498 4.30998 3.52526 4.13965 3.75705V3.75705ZM4.767 3.90759C5.56089 3.80217 4.56453 3.56469 4.60664 3.89922L4.767 3.90759ZM3.59567 2.98818C3.03648 2.25546 4.64711 3.1112 4.0789 2.34396C3.60074 1.96216 3.14166 2.77442 3.59567 2.98818ZM10.7689 6.86636C11.0253 6.41045 9.71081 6.25147 10.5964 6.70487C10.6779 6.73204 10.6595 6.89784 10.7689 6.86636Z" fill="#464646"/>
</svg>
