<svg width="24" height="24" viewBox="0 0 24 24" fill="none" xmlns="http://www.w3.org/2000/svg">
<g clip-path="url(#clip0_15000_4407)">
<path d="M7.83023 5.99799V7.46892C7.83023 8.40264 7.07558 9.15089 6.14826 9.15089H2.89302C1.85058 9.1445 1 10.0015 1 11.0439V13.8195C1 14.8619 1.85058 15.7125 2.89302 15.7125H6.14826C7.08198 15.7125 7.83023 16.4736 7.83023 17.3945V20.6497C7.83023 21.6922 8.68081 22.5428 9.72325 22.5428H12.4988C13.5413 22.5428 14.3919 21.6922 14.3919 20.6497V17.3945C14.3919 16.4608 15.1465 15.7125 16.0738 15.7125H17.5448C12.1983 15.7125 7.83023 11.3445 7.83023 5.99799Z" fill="black"/>
<path d="M21.2222 13.8195V11.0439C21.2222 10.0015 20.3716 9.15091 19.3292 9.15091H16.0739C15.1402 9.15091 14.3919 8.39626 14.3919 7.46893V4.2137C14.3919 3.17126 13.5414 2.32068 12.4989 2.32068H9.72334C8.6809 2.32068 7.83032 3.17126 7.83032 4.2137V5.998C7.83032 11.3445 12.2047 15.7125 17.5449 15.7125H19.3292C20.3716 15.7125 21.2222 14.862 21.2222 13.8195Z" fill="#DB0029"/>
<path d="M16.368 6.70148C16.368 6.70148 15.7348 0.0950892 22.9999 1.70672C22.8656 3.6509 23.0447 8.43462 16.368 6.70148Z" fill="#DB0029"/>
</g>
<defs>
<clipPath id="clip0_15000_4407">
<rect width="22" height="21.0936" fill="white" transform="translate(1 1.45001)"/>
</clipPath>
</defs>
</svg>
