<svg width="50" height="15" viewBox="0 0 50 15" fill="none" xmlns="http://www.w3.org/2000/svg">
<path d="M39.0343 2.7773C37.8068 2.7773 36.8248 3.10463 36.0065 3.2683L35.761 5.15046C36.1701 4.98679 37.3158 4.65946 38.2978 4.57762C39.2798 4.57762 39.8526 4.74129 39.689 5.64145C36.743 5.64145 34.779 6.21428 34.3698 8.17827C33.797 11.4516 37.3976 11.5334 38.7888 10.0604L38.6251 10.9606H41.2438L42.3894 5.64145C42.7986 3.43196 40.8346 2.69547 39.0343 2.7773ZM39.198 8.26011C39.0343 8.91477 38.4615 9.16027 37.8068 9.2421C37.234 9.2421 36.743 8.91477 37.0703 8.26011C37.3976 7.76911 38.1341 7.76911 38.707 7.76911C38.8706 7.76911 39.1161 7.76911 39.3616 7.76911C39.2798 7.68728 39.198 8.01461 39.198 8.26011Z" fill="#32A6CE"/>
<path d="M35.761 5.15058C36.1701 4.98691 37.3158 4.65958 38.2978 4.57775C39.2798 4.57775 39.8526 4.74141 39.6889 5.64157C36.743 5.64157 34.779 6.2144 34.3698 8.1784C33.797 11.4517 37.3976 11.5335 38.7888 10.0606L38.6251 10.9607H41.2438L42.3894 5.64157C42.8804 3.43208 40.8346 2.85925 39.0343 2.85925M39.198 8.26023C39.0343 8.91489 38.4615 9.16039 37.8068 9.24223C37.234 9.24223 36.743 8.91489 37.0703 8.26023C37.3976 7.76923 38.1341 7.76923 38.707 7.76923C38.8706 7.76923 39.1161 7.76923 39.3616 7.76923C39.2798 7.6874 39.198 8.01473 39.198 8.26023Z" fill="#1A80AD"/>
<path d="M44.599 0.322388L42.4713 10.9607H45.09L47.2995 0.322388H44.599Z" fill="#32A6CE"/>
<path d="M46.4811 0.322388L42.4713 10.9607H45.09L47.2995 0.322388H44.599H46.4811Z" fill="#1A80AD"/>
<path d="M32.4059 0.322388H27.5777L25.4501 10.9607H28.3142L29.0507 7.68736H31.0965C33.0605 7.68736 34.6972 6.54169 35.1064 4.49587C35.5155 2.12271 33.797 0.322388 32.4059 0.322388ZM32.324 4.00487C32.1604 4.74137 31.4239 5.23237 30.6874 5.23237H29.3781L29.9509 2.77738H31.342C32.0785 2.77738 32.4877 3.26838 32.324 4.00487Z" fill="#32A6CE"/>
<path d="M32.4058 0.322388H29.1325L25.3682 10.9607H28.2323L28.9688 7.68736H31.0146C32.9786 7.68736 34.6153 6.54169 35.0245 4.49587C35.5155 2.12271 33.797 0.322388 32.4058 0.322388ZM32.324 4.00487C32.1603 4.74137 31.4238 5.23237 30.6873 5.23237H29.378L29.9508 2.77738H31.342C32.0785 2.77738 32.4876 3.26838 32.324 4.00487Z" fill="#1A80AD"/>
<path d="M13.5024 2.7773C12.2749 2.7773 11.2929 3.10463 10.5564 3.2683L10.3109 5.15046C10.6382 4.98679 11.8657 4.65946 12.8477 4.57762C13.8297 4.57762 14.4025 4.74129 14.2389 5.64145C11.3747 5.64145 9.41072 6.21428 9.00156 8.17827C8.42873 11.4516 11.9475 11.5334 13.3387 10.0604L13.175 10.9606H15.7937L16.9394 5.64145C17.3485 3.43196 15.3027 2.69547 13.5024 2.7773ZM13.7479 8.26011C13.5842 8.91477 13.0114 9.16027 12.3567 9.2421C11.7839 9.2421 11.2929 8.91477 11.702 8.26011C12.0294 7.76911 12.7659 7.76911 13.2569 7.76911C13.5024 7.76911 13.666 7.76911 13.9115 7.76911C13.8297 7.68728 13.7479 8.01461 13.7479 8.26011Z" fill="#21789E"/>
<path d="M10.3928 5.15058C10.7201 4.98691 11.9476 4.65958 12.9296 4.57775C13.9116 4.57775 14.4844 4.74141 14.3208 5.64157C11.4566 5.64157 9.49263 6.2144 9.08347 8.1784C8.51064 11.4517 12.0295 11.5335 13.4206 10.0606L13.1751 10.9607H15.7938L16.9394 5.64157C17.4304 3.43208 15.3846 2.85925 13.5843 2.85925M13.7479 8.26023C13.5843 8.91489 13.0115 9.16039 12.3568 9.24223C11.784 9.24223 11.293 8.91489 11.7021 8.26023C12.0295 7.76923 12.766 7.76923 13.2569 7.76923C13.5024 7.76923 13.6661 7.76923 13.9116 7.76923C13.8298 7.6874 13.7479 8.01473 13.7479 8.26023Z" fill="#1A5B80"/>
<path d="M18.0033 2.77734H20.6219L21.0311 7.35999L23.6497 2.77734H26.3502L20.1309 14.234H17.1849L19.0671 10.797L18.0033 2.77734Z" fill="#21789E"/>
<path d="M20.6219 2.94101L21.0311 7.44182L23.6497 2.77734H26.3502L20.1309 14.234H17.1849L19.0671 10.8788" fill="#1A5B80"/>
<path d="M7.03764 0.322388H2.12766L0 10.9607H2.86415L3.60065 7.68736H5.64647C7.61047 7.68736 9.24713 6.54169 9.65629 4.49587C10.1473 2.12271 8.4288 0.322388 7.03764 0.322388ZM6.9558 4.00487C6.79214 4.74137 6.05564 5.23237 5.31914 5.23237H4.00982L4.58265 2.77738H5.97381C6.7103 2.77738 7.11947 3.26838 6.9558 4.00487Z" fill="#21789E"/>
<path d="M7.03764 0.322388H4.82815L0 10.9607H2.86415L3.60065 7.68736H5.64647C7.61047 7.68736 9.24713 6.54169 9.65629 4.49587C10.1473 2.12271 8.4288 0.322388 7.03764 0.322388ZM6.9558 4.00487C6.79214 4.74137 6.05564 5.23237 5.31914 5.23237H4.00982L4.58265 2.77738H5.97381C6.7103 2.77738 7.11947 3.26838 6.9558 4.00487Z" fill="#1A5B80"/>
<path d="M13.0115 5.6416C10.802 5.80527 9.32901 6.45993 9.00168 8.09659C8.42885 11.3699 11.9477 11.4517 13.3388 9.97875L13.1752 10.9607H15.7938L16.203 8.99676L13.0115 5.6416ZM13.748 8.26026C13.5843 8.91492 13.0115 9.16042 12.3568 9.24225C11.784 9.24225 11.293 8.91492 11.7022 8.26026C12.0295 7.76926 12.766 7.76926 13.257 7.76926C13.5025 7.76926 13.6662 7.76926 13.9117 7.76926C13.8298 7.68743 13.748 8.01476 13.748 8.26026Z" fill="#06435E"/>
<path d="M21.1948 7.27816L21.0311 7.52366L22.7496 9.16032L26.3503 2.77734H23.6498L21.1948 7.27816Z" fill="#06435E"/>
<path d="M2.86414 10.9607L3.60064 7.68738L0.245483 10.9607H2.86414Z" fill="#06435E"/>
<path d="M28.2324 10.9608L28.9689 7.5238V7.60564L25.6138 10.9608H28.2324Z" fill="#2273AA"/>
<path d="M38.4615 5.6416C36.252 5.80527 34.779 6.45993 34.4517 8.09659C33.8789 11.3699 37.4795 11.4517 38.8707 9.97875L38.6252 10.9607H41.2439L41.653 8.99676L38.4615 5.6416ZM39.198 8.26026C39.0344 8.91492 38.4615 9.16042 37.8069 9.24225C37.234 9.24225 36.743 8.91492 37.0704 8.26026C37.3977 7.76926 38.1342 7.76926 38.707 7.76926C38.8707 7.76926 39.1162 7.76926 39.3617 7.76926C39.2799 7.68743 39.198 8.01476 39.198 8.26026Z" fill="#2273AA"/>
<path d="M44.3536 6.13257L42.4714 10.9607H45.0901L45.8266 7.68739L44.3536 6.13257Z" fill="#2273AA"/>
<path d="M47.8723 2.04102V0.895356H47.4631V0.731689H48.527V0.895356H48.1178V2.04102H47.8723Z" fill="#32A6CE"/>
<path d="M48.6907 2.04094V0.731612H48.9362L49.2635 1.63178C49.2635 1.71361 49.3453 1.79544 49.3453 1.79544C49.3453 1.71361 49.3453 1.71361 49.4272 1.54994L49.7545 0.64978H50V1.95911H49.8363V0.813445L49.4272 1.95911H49.1817L48.7725 0.813445V1.95911H48.6907V2.04094Z" fill="#32A6CE"/>
</svg>
