<svg width="24" height="24" viewBox="0 0 24 24" fill="none" xmlns="http://www.w3.org/2000/svg">
<g clip-path="url(#clip0_15000_4353)">
<path d="M4.59192 18.0598H4.48531V22.9993H1.67004V6.27749H4.43003V7.05534H4.53664C5.48428 6.14324 6.72805 6.1156 7.40719 6.1156C10.2777 6.1156 12.173 8.82426 12.173 12.449V12.9307C12.173 16.7173 9.9816 18.9442 7.37955 18.9442C6.10814 18.9442 5.21578 18.6757 4.59192 18.0598ZM9.54726 13.1478V12.3147C9.54726 9.95353 8.65491 8.37018 7.02813 8.37018C5.26711 8.37018 4.34711 10.1944 4.34711 12.3147V13.1202C4.34711 15.1339 5.26711 16.662 7.07946 16.662C8.49302 16.6896 9.54726 15.592 9.54726 13.1478Z" fill="black"/>
<path d="M17.0617 6.19922H14.2465V18.7909H17.0617V6.19922Z" fill="black"/>
<path d="M17.0617 1.00153H14.2465V4.00632H17.0617V1.00153Z" fill="#FF0005"/>
<path d="M22.3305 16.3398H19.5153V19.3446H22.3305V16.3398Z" fill="#00BFFF"/>
</g>
<defs>
<clipPath id="clip0_15000_4353">
<rect width="20.6624" height="22" fill="white" transform="translate(1.67004 1)"/>
</clipPath>
</defs>
</svg>
