<svg width="24" height="24" viewBox="0 0 24 24" fill="none" xmlns="http://www.w3.org/2000/svg">
<path d="M12 23C18.0751 23 23 18.0751 23 12C23 5.92487 18.0751 1 12 1C5.92487 1 1 5.92487 1 12C1 18.0751 5.92487 23 12 23Z" fill="#CA3737"/>
<path d="M11.9998 6.54587C8.97482 6.54587 6.54565 8.97504 6.54565 12C6.54565 14.2459 7.87482 16.125 9.79982 16.9959C9.79982 16.6292 9.79982 16.1709 9.8915 15.7584C9.98316 15.3001 10.579 12.7792 10.579 12.7792C10.579 12.7792 10.3957 12.4126 10.3957 11.9084C10.3957 11.0834 10.854 10.4875 11.4498 10.4875C11.954 10.4875 12.1832 10.8542 12.1832 11.3126C12.1832 11.8167 11.8623 12.5501 11.7248 13.2376C11.5873 13.8334 12.0457 14.2917 12.5957 14.2917C13.6498 14.2917 14.3373 12.9626 14.3373 11.4042C14.3373 10.2126 13.5123 9.34172 12.0915 9.34172C10.4415 9.34172 9.43315 10.5792 9.43315 11.9542C9.43315 12.4126 9.57065 12.7792 9.79982 13.0084C9.89149 13.1459 9.93732 13.1917 9.89149 13.3292C9.84566 13.4209 9.79982 13.6501 9.79982 13.7876C9.75399 13.9251 9.66232 13.9709 9.52482 13.9251C8.74565 13.6042 8.42482 12.7792 8.42482 11.8626C8.42482 10.3042 9.70815 8.47088 12.3207 8.47088C14.3832 8.47088 15.7582 9.98339 15.7582 11.5876C15.7582 13.7417 14.5665 15.3001 12.8248 15.3001C12.229 15.3001 11.679 14.9792 11.4957 14.6126C11.4957 14.6126 11.1748 15.8501 11.129 16.1251C10.9915 16.5376 10.8082 16.9501 10.579 17.2709C11.0832 17.4084 11.5873 17.5001 12.1373 17.5001C15.1623 17.5001 17.5915 15.0709 17.5915 12.0459C17.454 8.97505 15.0248 6.54587 11.9998 6.54587Z" fill="white"/>
</svg>
