<svg width="24" height="24" viewBox="0 0 24 24" fill="none" xmlns="http://www.w3.org/2000/svg">
<g clip-path="url(#clip0_15000_4302)">
<path d="M9.63449 10.3216L11.7003 9.13879C11.7923 9.08613 11.8964 9.05843 12.0023 9.05843C12.1083 9.05843 12.2124 9.08613 12.3044 9.13879L14.3703 10.3216C14.4445 10.3641 14.5089 10.4218 14.5594 10.4909C14.6098 10.56 14.645 10.6389 14.6628 10.7226L14.5968 10.818L12.0022 12.1186L9.38717 10.7226L9.36524 10.6414C9.41438 10.5064 9.50977 10.3931 9.63449 10.3216ZM20.753 5.72315L13.1186 1.35203C12.7788 1.15747 12.394 1.05511 12.0025 1.05511C11.6109 1.05511 11.2261 1.15747 10.8863 1.35203L3.25195 5.72315C2.82811 5.96595 2.49499 6.34032 2.30309 6.7895L2.30139 6.83458L3.98713 7.77108L4.03098 7.75356C4.18658 7.37396 4.46437 7.05711 4.82035 6.85318L11.0863 3.26556C11.3652 3.10589 11.681 3.02189 12.0024 3.02189C12.3238 3.02189 12.6396 3.10589 12.9185 3.26556L19.1844 6.85318C19.6052 7.09425 19.914 7.49136 20.0441 7.95851L20.1556 8.03107L21.7607 7.21344L21.7965 7.05728C21.636 6.49341 21.2615 6.01461 20.7528 5.72315H20.753ZM8.01367 9.15384L11.4936 7.16134C11.6485 7.07268 11.8239 7.02604 12.0024 7.02604C12.1809 7.02604 12.3563 7.07268 12.5112 7.16134L15.9911 9.15384C16.1114 9.22279 16.2164 9.31547 16.2998 9.42624C16.3832 9.53701 16.4433 9.66358 16.4763 9.79825L16.5041 9.82851L18.218 8.95978L18.2366 8.90513C18.1892 8.72024 18.1053 8.54673 17.9897 8.39486C17.8741 8.24299 17.7292 8.11585 17.5636 8.02096L12.7117 5.24301C12.4958 5.11934 12.2512 5.05428 12.0024 5.05428C11.7535 5.05428 11.509 5.11934 11.2931 5.24301L6.44125 8.02096C6.15957 8.18221 5.94065 8.44629 5.82232 8.73754L5.84401 8.78918L7.51346 9.73117L7.55399 9.70994C7.63467 9.47494 7.79805 9.27729 8.01367 9.15384Z" fill="#FF4300"/>
<path d="M20.0441 7.95849C20.0884 8.11751 20.112 8.28363 20.112 8.45315V15.6019C20.112 15.9267 20.0262 16.2457 19.8633 16.5266C19.7004 16.8076 19.4662 17.0405 19.1844 17.2019L12.9184 20.7895C12.6385 20.9493 12.3217 21.0332 11.9994 21.0331L11.9596 21.0779L11.9558 22.9341L12.0022 23C12.3939 23.0001 12.7787 22.8977 13.1185 22.7031L20.7529 18.332C21.0963 18.1354 21.3817 17.8515 21.5801 17.5092C21.7786 17.1669 21.8831 16.7782 21.8831 16.3825V7.67257C21.8829 7.46442 21.8537 7.2573 21.7964 7.05719L20.0441 7.95849H20.0441ZM18.2366 8.90511L16.4763 9.79824C16.4956 9.8772 16.5063 9.95903 16.5063 10.0424V14.0127C16.5063 14.3798 16.3097 14.7188 15.9911 14.9012L12.5112 16.8937C12.3534 16.984 12.1745 17.0306 11.9927 17.0288L11.9408 17.1056L11.9589 18.9226L11.9927 19.0006C12.2448 19.0024 12.4929 18.9374 12.7117 18.8122L17.5636 16.0342C17.7818 15.9092 17.9632 15.7288 18.0893 15.5113C18.2154 15.2937 18.2818 15.0467 18.2818 14.7952V9.25981C18.2818 9.13862 18.266 9.01959 18.2366 8.90511ZM14.6628 10.7225C14.6696 10.7588 14.6761 10.8113 14.6761 10.8491V13.206C14.6761 13.313 14.6478 13.4182 14.5941 13.5108C14.5404 13.6034 14.4633 13.6802 14.3704 13.7335L12.3045 14.9163C12.2124 14.969 12.1082 14.9967 12.0022 14.9966L11.9518 14.9154L11.9609 12.0744L12.0023 12.0352L14.6628 10.7225Z" fill="#FF5B00"/>
<path d="M12.0023 12.0352V14.9966C11.8981 14.9966 11.7939 14.9699 11.7004 14.9164L9.63459 13.7335C9.54167 13.6803 9.46444 13.6035 9.41074 13.5109C9.35703 13.4182 9.32875 13.3131 9.32875 13.206V10.8491C9.32875 10.7773 9.34141 10.7073 9.36518 10.6417L12.0023 12.0352ZM11.9928 17.0291C11.8175 17.0275 11.6457 16.9809 11.4936 16.8937L9.34311 15.6624V19.5728L7.48561 18.5758L7.4985 10.0425C7.4985 9.93039 7.5195 9.81306 7.55408 9.70993L5.82234 8.73753C5.76097 8.89778 5.72291 9.08282 5.72291 9.25982L5.69636 17.647L4.80864 17.1416C4.23494 16.8132 3.89274 16.263 3.89274 15.6019V8.453C3.89274 8.20907 3.94137 7.97209 4.031 7.75355L2.30311 6.78949C2.18349 7.06854 2.12178 7.36897 2.1217 7.67258L2.1217 16.3826C2.1217 16.7783 2.22622 17.1669 2.42468 17.5092C2.62314 17.8516 2.9085 18.1354 3.25189 18.332L10.8863 22.7031C11.226 22.8977 11.6107 23.0001 12.0022 23L11.9928 17.0291Z" fill="#DC2F03"/>
</g>
<defs>
<clipPath id="clip0_15000_4302">
<rect width="19.7648" height="22" fill="white" transform="translate(2.12 1)"/>
</clipPath>
</defs>
</svg>
