<svg width="24" height="24" viewBox="0 0 24 24" fill="none" xmlns="http://www.w3.org/2000/svg">
<path d="M8.33109 23C5.57344 23 3.32996 20.7565 3.32996 17.9989V9.43425C3.32996 4.78357 7.11348 1 11.7642 1H12.2479C16.8986 1 20.6822 4.78357 20.6822 9.43425C20.6822 13.702 17.5006 17.2644 13.3322 17.7991V17.9989C13.3322 20.7565 11.0887 23 8.33109 23Z" fill="#FF3C3C"/>
<path d="M12.248 1H12.0061V21.387C12.8288 20.4954 13.3322 19.3049 13.3322 17.9989V17.7991C17.5006 17.2644 20.6823 13.702 20.6823 9.43425C20.6822 4.78357 16.8987 1 12.248 1Z" fill="#DA0806"/>
<path d="M12.2482 3.57166H11.7644C8.53176 3.57166 5.90173 6.20173 5.90173 9.43431V17.9988C5.90173 19.3386 6.99151 20.4284 8.33136 20.4284C9.67078 20.4284 10.7606 19.3386 10.7606 17.9988V15.297H12.2481C15.4808 15.297 18.1108 12.6669 18.1108 9.43435C18.1108 6.20177 15.4808 3.57166 12.2482 3.57166ZM12.2482 11.7335H10.1127C9.75504 11.7335 9.46474 11.4437 9.46474 11.0856V9.43431C9.46474 8.16613 10.4962 7.13467 11.7644 7.13467H12.2482C13.5164 7.13467 14.5478 8.16613 14.5478 9.43431C14.5478 10.7021 13.5164 11.7335 12.2482 11.7335Z" fill="white"/>
<path d="M12.248 3.57166H12.0061V7.13471H12.248C13.5162 7.13471 14.5476 8.16617 14.5476 9.43435C14.5476 10.7021 13.5162 11.7336 12.248 11.7336H12.0061V15.2971H12.248C15.4806 15.2971 18.1106 12.667 18.1106 9.4344C18.1106 6.20182 15.4806 3.57166 12.248 3.57166Z" fill="#DCE1EB"/>
</svg>
