<svg width="24" height="24" viewBox="0 0 24 24" fill="none" xmlns="http://www.w3.org/2000/svg">
<g clip-path="url(#clip0_15000_4289)">
<path fill-rule="evenodd" clip-rule="evenodd" d="M4.1084 19.3423V8.9216C4.1084 4.5466 7.655 1 12.03 1C16.405 1 19.9516 4.5466 19.9516 8.9216C19.9516 13.239 16.4976 16.7497 12.2022 16.8413V16.8432C10.9657 16.8432 9.96349 15.8409 9.96349 14.6045C9.96349 13.3796 10.9472 12.3844 12.1678 12.366V12.3631C14.0061 12.2908 15.4742 10.7776 15.4742 8.9216C15.4742 7.01945 13.9321 5.47742 12.03 5.47742C10.1278 5.47742 8.58582 7.01945 8.58582 8.9216V20.4596C8.58582 21.696 7.58357 22.6983 6.34711 22.6983C5.88655 22.699 5.43707 22.557 5.06051 22.2919C5.70443 22.1037 6.1749 21.5088 6.1749 20.804C6.1749 19.948 5.48097 19.2541 4.62502 19.2541C4.44386 19.2541 4.27 19.2852 4.1084 19.3423ZM12.2022 16.1544C13.0582 16.1544 13.7521 15.4604 13.7521 14.6045C13.7521 13.7485 13.0582 13.0546 12.2022 13.0546C11.3463 13.0546 10.6523 13.7485 10.6523 14.6045C10.6523 15.4604 11.3463 16.1544 12.2022 16.1544Z" fill="url(#paint0_linear_15000_4289)"/>
</g>
<defs>
<linearGradient id="paint0_linear_15000_4289" x1="1826.08" y1="1" x2="1826.08" y2="4340.43" gradientUnits="userSpaceOnUse">
<stop stop-color="#D378E5"/>
<stop offset="1" stop-color="#7526C2"/>
</linearGradient>
<clipPath id="clip0_15000_4289">
<rect width="16" height="22" fill="white" transform="translate(4 1)"/>
</clipPath>
</defs>
</svg>
