<svg width="24" height="24" viewBox="0 0 24 24" fill="none" xmlns="http://www.w3.org/2000/svg">
<g clip-path="url(#clip0_15000_4418)">
<path d="M21.3975 11.7115L12.0035 5.94305L2.70542 11.7115C2.70542 11.722 2.70278 11.7387 2.6975 11.7599C2.69222 11.7819 2.68958 11.7968 2.68958 11.8083V19.6112C2.68958 19.8928 2.79254 20.1375 2.99846 20.3425C3.20438 20.5484 3.44814 20.6514 3.72974 20.6514H9.9707H11.039L8.4263 17.5767C6.7631 15.6187 7.00245 12.6724 8.96045 11.0083C10.9185 9.34513 13.8647 9.58449 15.5288 11.5425C17.192 13.4996 16.9526 16.4467 14.9946 18.1099L13.98 18.9723L12.2552 16.9431L13.2698 16.0807C14.1093 15.3679 14.2123 14.1059 13.4986 13.2664C12.7858 12.4269 11.523 12.3239 10.6835 13.0367C9.84398 13.7495 9.7419 15.0123 10.4547 15.8519L14.5317 20.6505H20.3723C20.6539 20.6505 20.8977 20.5475 21.1036 20.3407C21.3095 20.1357 21.4125 19.8911 21.4125 19.6095V11.8091C21.4142 11.766 21.4081 11.7335 21.3975 11.7115Z" fill="#17A69A"/>
<path d="M22.8557 9.46483L19.8874 7.74267L19.8804 3.80819C19.8804 3.68147 19.832 3.58555 19.737 3.52131C19.641 3.42627 19.5293 3.37787 19.4017 3.37875L17.5097 3.38227C17.3821 3.38227 17.2703 3.43067 17.1753 3.52659C17.0802 3.59083 17.0318 3.68675 17.0318 3.81347L17.0354 6.14459L13.041 3.72107C12.7216 3.46675 12.3714 3.33915 11.9886 3.34003C11.6058 3.34091 11.2546 3.46851 10.937 3.72371L1.14344 9.49299C1.04752 9.52467 1 9.62059 1 9.77987C1 9.94003 1.03168 10.0509 1.09592 10.1143L1.90992 11.1175C2.00584 11.2125 2.10176 11.2609 2.1968 11.2609C2.35608 11.2609 2.46696 11.2292 2.5312 11.165L11.9912 5.33675L21.4706 11.1395C21.5339 11.2037 21.6298 11.2345 21.7574 11.2345H21.805C21.9009 11.2345 21.9959 11.1861 22.0918 11.0911L22.9041 10.0861C22.9674 10.0228 22.9991 9.91099 22.9991 9.75083C22.9991 9.59243 22.9516 9.49651 22.8557 9.46483Z" fill="#EA723C"/>
</g>
<defs>
<clipPath id="clip0_15000_4418">
<rect width="22" height="17.3114" fill="white" transform="translate(1 3.34003)"/>
</clipPath>
</defs>
</svg>
