<svg width="24" height="24" viewBox="0 0 24 24" fill="none" xmlns="http://www.w3.org/2000/svg">
<path d="M12 23C18.0751 23 23 18.0751 23 12C23 5.92491 18.0751 1 12 1C5.92491 1 1 5.92491 1 12C1 18.0751 5.92491 23 12 23Z" fill="#2CA01C"/>
<path d="M4.05559 12C4.05559 13.1345 4.50629 14.2226 5.30853 15.0248C6.11077 15.8271 7.19885 16.2778 8.33339 16.2778H8.9444V14.6888H8.33339C7.97847 14.6916 7.6265 14.6242 7.29778 14.4903C6.96905 14.3564 6.67008 14.1588 6.41811 13.9089C6.16613 13.6589 5.96614 13.3615 5.82965 13.0339C5.69317 12.7062 5.62291 12.3548 5.62291 11.9999C5.62291 11.6449 5.69317 11.2935 5.82965 10.9659C5.96614 10.6382 6.16613 10.3409 6.41811 10.0909C6.67008 9.84092 6.96905 9.6433 7.29778 9.50945C7.6265 9.37559 7.97847 9.30813 8.33339 9.31097H9.8V17.6222C9.80013 18.0435 9.96757 18.4476 10.2655 18.7455C10.5634 19.0435 10.9675 19.211 11.3888 19.2111V7.72216H8.33339C7.77161 7.72214 7.21532 7.83277 6.69629 8.04774C6.17727 8.26271 5.70567 8.5778 5.30842 8.97504C4.91117 9.37227 4.59605 9.84386 4.38106 10.3629C4.16607 10.8819 4.05559 11.4382 4.05559 12ZM15.6666 7.72216H15.0556V9.31114H15.6666C16.3745 9.31915 17.0506 9.60596 17.5483 10.1093C18.046 10.6127 18.3252 11.2921 18.3252 12C18.3252 12.7079 18.046 13.3872 17.5483 13.8906C17.0506 14.394 16.3745 14.6808 15.6666 14.6888H14.2V6.37792C14.2 6.16926 14.1589 5.96264 14.0791 5.76986C13.9993 5.57708 13.8822 5.40191 13.7347 5.25435C13.5872 5.1068 13.412 4.98975 13.2192 4.9099C13.0265 4.83004 12.8198 4.78894 12.6112 4.78894V16.2779H15.6666C16.8011 16.2779 17.8892 15.8272 18.6915 15.025C19.4937 14.2227 19.9444 13.1347 19.9444 12.0001C19.9444 10.8656 19.4937 9.77751 18.6915 8.97527C17.8892 8.17303 16.8011 7.72216 15.6666 7.72216Z" fill="white"/>
</svg>
