<svg width="24" height="24" viewBox="0 0 24 24" fill="none" xmlns="http://www.w3.org/2000/svg">
<rect x="1" y="1" width="22" height="22" rx="11" fill="#A6B0BE"/>
<g clip-path="url(#clip0_12994_31036)">
<path d="M4.15369 16.1683H9.94938C9.94938 16.1683 8.8416 11.1287 12.5098 9.08795C13.3094 8.70028 15.8551 7.25202 20.0221 10.3241C20.1542 10.2144 20.2789 10.1266 20.2789 10.1266C20.2789 10.1266 16.464 6.3304 12.2163 6.75464C10.0814 6.94482 7.45503 8.88314 5.9144 11.4432C4.37378 14.0033 4.15369 16.1683 4.15369 16.1683Z" fill="white"/>
<path d="M4.15369 16.1683H9.94938C9.94938 16.1683 8.8416 11.1287 12.5098 9.08795C13.3094 8.70028 15.8551 7.25202 20.0221 10.3241C20.1542 10.2144 20.2789 10.1266 20.2789 10.1266C20.2789 10.1266 16.464 6.3304 12.2163 6.75464C10.0814 6.94482 7.45503 8.88314 5.9144 11.4432C4.37378 14.0033 4.15369 16.1683 4.15369 16.1683Z" fill="white"/>
<path d="M4.15369 16.1683H9.94938C9.94938 16.1683 8.8416 11.1287 12.5098 9.08792C13.3094 8.70026 15.8551 7.252 20.0221 10.3241C20.1542 10.2143 20.2789 10.1266 20.2789 10.1266C20.2789 10.1266 16.464 6.33038 12.2163 6.75462C10.0741 6.94479 7.44769 8.88312 5.90707 11.4432C4.36644 14.0032 4.15369 16.1683 4.15369 16.1683ZM16.2293 7.16423L16.2586 6.67416C16.1926 6.63759 16.0092 6.54981 15.547 6.41815L15.5176 6.90091C15.7597 6.98136 15.9945 7.06914 16.2293 7.16423Z" fill="white"/>
<path d="M15.5323 8.71495L15.503 9.17576C15.7451 9.18308 15.9872 9.21233 16.2293 9.26353L16.2586 8.81004C16.0092 8.75884 15.7671 8.72958 15.5323 8.71495ZM12.8179 6.43284H12.8912L12.7445 5.98666C12.5171 5.98666 12.2823 6.00129 12.0402 6.03055L12.1796 6.4621C12.3924 6.44016 12.6051 6.43284 12.8179 6.43284ZM13.17 9.12456L13.3388 9.62926C13.5515 9.52685 13.7643 9.43908 13.977 9.37325L13.8156 8.8905C13.5662 8.96364 13.3534 9.0441 13.17 9.12456ZM9.83934 7.20086L9.5092 6.69616C9.32579 6.79125 9.13505 6.89365 8.93697 7.01069L9.27444 7.5227C9.46518 7.40567 9.64859 7.29595 9.83934 7.20086ZM11.3433 10.4924L11.6954 11.019C11.8201 10.8361 11.9669 10.6679 12.1283 10.4997L11.7981 10.0023C11.6294 10.1559 11.4753 10.3241 11.3433 10.4924ZM10.2795 12.8476L10.8738 13.3157C10.9031 13.0305 10.9545 12.7452 11.0278 12.4599L10.4996 12.043C10.4042 12.3137 10.3382 12.5843 10.2795 12.8476ZM7.0662 9.37325L6.54532 8.91976C6.35458 9.10262 6.17117 9.28548 6.00243 9.46834L6.56733 9.95109C6.7214 9.7536 6.89013 9.55611 7.0662 9.37325ZM4.85063 12.6428L4.00695 12.3356C3.86756 12.6501 3.7135 13.0158 3.64014 13.2133L4.48381 13.5205C4.57919 13.2719 4.73325 12.9134 4.85063 12.6428ZM10.1695 14.7055C10.1841 15.0931 10.2208 15.4077 10.2575 15.6271L11.1379 15.9416C11.0718 15.6564 11.0058 15.3345 10.9618 14.9907L10.1695 14.7055Z" fill="white"/>
</g>
<defs>
<clipPath id="clip0_12994_31036">
<rect width="16.72" height="10.12" fill="white" transform="translate(3.64001 5.98666)"/>
</clipPath>
</defs>
</svg>
