<svg width="24" height="24" viewBox="0 0 24 24" fill="none" xmlns="http://www.w3.org/2000/svg">
<rect x="1" y="1" width="22" height="22" rx="11" fill="#CC0000"/>
<g clip-path="url(#clip0_12171_1705)">
<path d="M4.15369 16.1683H9.94938C9.94938 16.1683 8.8416 11.1287 12.5098 9.08795C13.3094 8.70028 15.8551 7.25202 20.0221 10.3241C20.1542 10.2144 20.2789 10.1266 20.2789 10.1266C20.2789 10.1266 16.464 6.3304 12.2163 6.75464C10.0814 6.94482 7.45503 8.88314 5.9144 11.4432C4.37378 14.0033 4.15369 16.1683 4.15369 16.1683Z" fill="white"/>
<path d="M4.15369 16.1683H9.94938C9.94938 16.1683 8.8416 11.1287 12.5098 9.08795C13.3094 8.70028 15.8551 7.25202 20.0221 10.3241C20.1542 10.2144 20.2789 10.1266 20.2789 10.1266C20.2789 10.1266 16.464 6.3304 12.2163 6.75464C10.0814 6.94482 7.45503 8.88314 5.9144 11.4432C4.37378 14.0033 4.15369 16.1683 4.15369 16.1683Z" fill="white"/>
<path d="M4.15369 16.1683H9.94938C9.94938 16.1683 8.8416 11.1287 12.5098 9.08792C13.3094 8.70026 15.8551 7.252 20.0221 10.3241C20.1542 10.2143 20.2789 10.1266 20.2789 10.1266C20.2789 10.1266 16.464 6.33038 12.2163 6.75462C10.0741 6.94479 7.44769 8.88312 5.90707 11.4432C4.36644 14.0032 4.15369 16.1683 4.15369 16.1683ZM16.2293 7.16423L16.2586 6.67416C16.1926 6.63759 16.0092 6.54981 15.547 6.41815L15.5176 6.90091C15.7597 6.98136 15.9945 7.06914 16.2293 7.16423Z" fill="white"/>
<path d="M15.5326 8.71495L15.5032 9.17576C15.7453 9.18308 15.9874 9.21233 16.2295 9.26353L16.2589 8.81004C16.0094 8.75884 15.7673 8.72958 15.5326 8.71495ZM12.8181 6.43284H12.8915L12.7448 5.98666C12.5173 5.98666 12.2826 6.00129 12.0405 6.03055L12.1799 6.4621C12.3926 6.44016 12.6054 6.43284 12.8181 6.43284ZM13.1703 9.12456L13.339 9.62926C13.5518 9.52685 13.7645 9.43908 13.9773 9.37325L13.8159 8.8905C13.5664 8.96364 13.3537 9.0441 13.1703 9.12456ZM9.83958 7.20086L9.50944 6.69616C9.32604 6.79125 9.13529 6.89365 8.93721 7.01069L9.27468 7.5227C9.46543 7.40567 9.64883 7.29595 9.83958 7.20086ZM11.3435 10.4924L11.6957 11.019C11.8204 10.8361 11.9671 10.6679 12.1285 10.4997L11.7984 10.0023C11.6296 10.1559 11.4756 10.3241 11.3435 10.4924ZM10.2798 12.8476L10.874 13.3157C10.9033 13.0305 10.9547 12.7452 11.0281 12.4599L10.4998 12.043C10.4045 12.3137 10.3384 12.5843 10.2798 12.8476ZM7.06645 9.37325L6.54557 8.91976C6.35482 9.10262 6.17141 9.28548 6.00268 9.46834L6.56758 9.95109C6.72164 9.7536 6.89037 9.55611 7.06645 9.37325ZM4.85088 12.6428L4.0072 12.3356C3.86781 12.6501 3.71374 13.0158 3.64038 13.2133L4.48406 13.5205C4.57943 13.2718 4.73349 12.9134 4.85088 12.6428ZM10.1697 14.7055C10.1844 15.0931 10.2211 15.4077 10.2578 15.6271L11.1381 15.9416C11.0721 15.6564 11.0061 15.3345 10.962 14.9907L10.1697 14.7055Z" fill="white"/>
</g>
<defs>
<clipPath id="clip0_12171_1705">
<rect width="16.72" height="10.12" fill="white" transform="translate(3.64001 5.98666)"/>
</clipPath>
</defs>
</svg>
