<svg width="24" height="24" viewBox="0 0 24 24" fill="none" xmlns="http://www.w3.org/2000/svg">
<path d="M23 11.7166C23 10.197 21.1749 8.75684 18.3767 7.86376C19.0224 4.88996 18.7354 2.524 17.4709 1.76652C17.1794 1.58884 16.8386 1.50468 16.4664 1.50468V2.54738C16.6726 2.54738 16.8386 2.58946 16.9776 2.66895C17.5874 3.03366 17.852 4.42237 17.6457 6.20853C17.5964 6.64806 17.5157 7.11096 17.417 7.58322C16.5381 7.35878 15.5785 7.18577 14.5695 7.07355C13.9641 6.20853 13.3363 5.423 12.704 4.73565C14.1659 3.31889 15.5381 2.5427 16.4709 2.5427V1.5C15.2377 1.5 13.6233 2.41646 11.991 4.00623C10.3587 2.42581 8.74439 1.5187 7.51121 1.5187V2.56141C8.43946 2.56141 9.81614 3.33291 11.278 4.74033C10.6502 5.42767 10.0224 6.20853 9.42601 7.07355C8.41256 7.18577 7.45292 7.35878 6.57399 7.58789C6.47085 7.12031 6.39462 6.66676 6.34081 6.23191C6.13004 4.44575 6.39013 3.05704 6.99552 2.68765C7.13004 2.60349 7.30493 2.56608 7.51121 2.56608V1.52338C7.13453 1.52338 6.79372 1.60754 6.49776 1.78522C5.23767 2.5427 4.95516 4.90398 5.60538 7.86844C2.81614 8.76619 1 10.2017 1 11.7166C1 13.2363 2.82511 14.6764 5.62332 15.5695C4.97758 18.5433 5.26457 20.9092 6.52915 21.6667C6.82063 21.8444 7.16144 21.9286 7.53812 21.9286C8.7713 21.9286 10.3857 21.0121 12.0179 19.4223C13.6502 21.0028 15.2646 21.9099 16.4978 21.9099C16.8744 21.9099 17.2152 21.8257 17.5112 21.648C18.7713 20.8905 19.0538 18.5293 18.4036 15.5648C21.1839 14.6717 23 13.2316 23 11.7166ZM17.1614 8.59786C16.9955 9.20104 16.7892 9.82292 16.5561 10.4448C16.3722 10.0707 16.1794 9.69668 15.9686 9.32261C15.7623 8.94855 15.5426 8.58384 15.3229 8.22848C15.9596 8.32667 16.574 8.44824 17.1614 8.59786ZM15.1076 13.5776C14.7578 14.2088 14.3991 14.8073 14.0269 15.3637C13.3587 15.4245 12.6816 15.4573 12 15.4573C11.3229 15.4573 10.6457 15.4245 9.98206 15.3684C9.60987 14.812 9.24664 14.2182 8.89686 13.5916C8.55605 12.9791 8.24664 12.3572 7.96413 11.7306C8.24215 11.1041 8.55606 10.4775 8.89238 9.86501C9.24215 9.23377 9.6009 8.63527 9.97309 8.07885C10.6413 8.01806 11.3184 7.98533 12 7.98533C12.6771 7.98533 13.3543 8.01807 14.0179 8.07417C14.3901 8.6306 14.7534 9.22442 15.1031 9.85098C15.4439 10.4635 15.7534 11.0854 16.0359 11.7119C15.7534 12.3385 15.4439 12.9651 15.1076 13.5776ZM16.5561 12.9697C16.7982 13.5963 17.0045 14.2229 17.1749 14.8307C16.5874 14.9803 15.9686 15.1066 15.3274 15.2048C15.5471 14.8447 15.7668 14.4753 15.9731 14.0966C16.1794 13.7225 16.3722 13.3438 16.5561 12.9697ZM12.009 17.9588C11.5919 17.5099 11.1749 17.0096 10.7623 16.4626C11.1659 16.4813 11.5785 16.4953 11.9955 16.4953C12.417 16.4953 12.8341 16.4859 13.2422 16.4626C12.8386 17.0096 12.4215 17.5099 12.009 17.9588ZM8.67265 15.2048C8.03587 15.1066 7.42152 14.985 6.83408 14.8354C7 14.2322 7.20628 13.6103 7.43946 12.9884C7.62332 13.3625 7.81614 13.7366 8.02691 14.1106C8.23767 14.4847 8.45291 14.8494 8.67265 15.2048ZM11.9865 5.47443C12.4036 5.92331 12.8206 6.42362 13.2332 6.97069C12.8296 6.95198 12.417 6.93796 12 6.93796C11.5785 6.93796 11.1614 6.94731 10.7534 6.97069C11.157 6.42362 11.574 5.92331 11.9865 5.47443ZM8.66816 8.22848C8.44843 8.58851 8.2287 8.9579 8.02242 9.33664C7.81614 9.7107 7.62332 10.0848 7.43946 10.4588C7.19731 9.83228 6.99103 9.20572 6.82063 8.59786C7.40807 8.45291 8.02691 8.32667 8.66816 8.22848ZM4.60987 14.0826C3.02242 13.3765 1.99552 12.4507 1.99552 11.7166C1.99552 10.9825 3.02242 10.052 4.60987 9.35067C4.99552 9.17766 5.41704 9.02336 5.85202 8.87841C6.10762 9.79487 6.44395 10.7487 6.86099 11.726C6.44843 12.6985 6.11659 13.6477 5.86547 14.5595C5.42153 14.4146 5 14.2556 4.60987 14.0826ZM7.02242 20.7643C6.41256 20.3996 6.14798 19.0109 6.35426 17.2247C6.40359 16.7852 6.48431 16.3223 6.58296 15.85C7.46188 16.0745 8.42153 16.2475 9.43049 16.3597C10.0359 17.2247 10.6637 18.0103 11.296 18.6976C9.83408 20.1144 8.46188 20.8905 7.52915 20.8905C7.32735 20.8859 7.15695 20.8438 7.02242 20.7643ZM17.6592 17.2013C17.87 18.9875 17.6099 20.3762 17.0045 20.7456C16.87 20.8298 16.6951 20.8672 16.4888 20.8672C15.5605 20.8672 14.1839 20.0957 12.722 18.6882C13.3498 18.0009 13.9776 17.22 14.574 16.355C15.5874 16.2428 16.5471 16.0698 17.426 15.8407C17.5291 16.3129 17.6099 16.7665 17.6592 17.2013ZM19.3857 14.0826C19 14.2556 18.5785 14.4099 18.1435 14.5548C17.8879 13.6384 17.5516 12.6845 17.1345 11.7073C17.5471 10.7347 17.8789 9.78552 18.13 8.87374C18.574 9.01869 18.9955 9.17766 19.3901 9.35067C20.9776 10.0567 22.0045 10.9825 22.0045 11.7166C22 12.4507 20.9731 13.3812 19.3857 14.0826Z" fill="#61DAFB"/>
<path d="M11.9955 13.8535C13.1273 13.8535 14.0448 12.8968 14.0448 11.7167C14.0448 10.5365 13.1273 9.57983 11.9955 9.57983C10.8637 9.57983 9.94617 10.5365 9.94617 11.7167C9.94617 12.8968 10.8637 13.8535 11.9955 13.8535Z" fill="#61DAFB"/>
</svg>
