<svg width="24" height="24" viewBox="0 0 24 24" fill="none" xmlns="http://www.w3.org/2000/svg">
<path d="M7.7607 14.4606C7.36109 14.6789 6.75902 15.0326 6.29323 15.4173C5.52856 16.0482 5.36855 16.9232 5.77194 17.1277C6.14508 17.3166 7.01623 17.0918 7.6397 16.4976C8.29403 15.8739 8.56388 15.0832 8.28518 14.1856C8.25244 14.2027 8.2203 14.2198 8.18876 14.2357L8.18945 14.237L8.14716 14.2578C7.98448 14.3427 7.85154 14.4127 7.7607 14.4605V14.4606ZM18.9902 14.1774C18.7639 14.6072 18.7525 14.7454 18.8213 14.7885C19.1497 14.6854 19.6931 14.437 19.6974 13.7712C19.6981 13.6715 19.6729 13.5646 19.6325 13.4527C19.2814 13.7244 19.079 14.0087 18.9902 14.1774ZM22.5145 12.8781C21.6371 12.7888 20.9525 12.8963 20.4211 13.0897C20.5195 13.3134 20.5951 13.5464 20.6058 13.7811C20.6304 14.2964 20.2245 14.6777 19.8014 14.95C19.5543 15.1087 19.2915 15.2145 19.0708 15.2783C18.8943 15.3433 18.6598 15.4105 18.4934 15.3808C18.1264 15.3157 17.9311 15.031 18.1807 14.4027C18.3155 14.0628 18.7045 13.5454 19.3324 13.0996C19.1893 12.8422 19.0298 12.5801 18.9485 12.3391C18.7883 11.8642 18.7399 11.5771 18.7399 11.5771C18.7399 11.5771 18.2224 12.5145 17.5547 13.3669C17.5162 13.4164 17.4778 13.4649 17.4393 13.5133C17.5705 13.7796 17.6738 14.0611 17.6878 14.3449C17.7124 14.8602 17.457 15.2497 17.0334 15.5214C16.804 15.6691 16.5593 15.7711 16.3494 15.8361C16.2151 15.8872 15.9421 15.9715 15.5539 15.9942C15.3415 16.0069 15.1372 15.9954 15.0232 15.9199C14.8662 15.8163 14.8473 15.6883 14.9286 15.5137C14.9973 15.3654 15.5117 14.8524 15.9429 14.4033C16.0578 14.2831 16.1692 14.1604 16.2769 14.0352L16.2744 14.0303C16.2744 14.0303 16.3526 13.9422 16.4793 13.7885C16.3217 13.4919 16.1219 13.1834 16.028 12.9035C15.8678 12.4285 15.8193 12.1414 15.8193 12.1414C15.8193 12.1414 15.2948 13.3163 14.7483 14.254C14.3254 14.9804 14.0429 15.4205 13.9156 15.6135L13.9143 15.6212C13.9143 15.6212 13.8954 15.6494 13.8626 15.6934L13.8381 15.7292L13.8374 15.7259C13.6955 15.9089 13.3772 16.2675 13.0608 16.2675C12.1922 16.2675 12.5111 14.7262 12.5111 14.7262C12.5111 14.7262 12.2571 15.2972 11.9709 15.787C11.7377 16.1864 11.5253 16.5249 11.0607 16.5249C10.9271 16.5249 10.7152 16.5216 10.5393 16.3755C10.1403 16.0443 9.83523 15.2034 9.89505 14.5521C9.94609 13.9984 10.0438 13.6148 10.1774 13.2948C9.91035 13.4217 9.64558 13.5524 9.3832 13.6866L8.95197 13.9086L8.96589 13.9307C9.32262 14.5335 9.41784 15.8543 8.63993 16.8681C7.86211 17.8825 6.41415 18.4997 5.0034 18.157C4.54819 18.0463 3.86052 17.2236 4.45366 16.0769C4.97684 15.0657 7.06779 14.1097 7.61882 13.8711L7.77007 13.7983C6.67145 12.9586 3.92798 11.8257 3.54349 10.0856C3.43504 9.59569 3.69792 8.42414 5.3444 7.07752C6.72928 5.94509 8.65574 5.07775 10.4353 4.52505C13.4251 3.59667 16.584 4.14427 17.07 5.80958C17.5478 7.44727 15.9215 9.4062 13.8387 10.1104C11.9791 10.7391 10.4416 10.6394 9.80997 10.4581C9.09196 10.2521 8.67087 9.83818 8.56817 9.60455C8.52778 9.51303 8.45834 9.35935 8.56817 9.3065C8.63555 9.27392 8.66262 9.28172 8.84291 9.45582C9.01445 9.62114 9.70401 10.0647 11.014 9.9363C14.4515 9.59967 16.5221 7.26483 15.8678 6.00845C15.4096 5.1291 12.7601 4.73233 9.44998 6.17437C5.40928 7.93428 5.18997 9.38518 5.15534 9.93623C5.06072 11.4521 7.29535 12.2495 8.50449 13.3768L8.55107 13.4215C8.77734 13.3124 9.01634 13.1973 9.25077 13.0849C9.7346 12.8527 10.2187 12.621 10.7032 12.3898C11.1288 11.8495 11.9923 11.2532 12.6157 11.2532C13.6124 11.2532 13.2701 12.5045 13.2701 12.5045C13.2701 12.5045 13.2903 12.4473 13.3173 12.4467C13.3457 12.4461 13.4554 12.2819 13.7631 12.3799C14.0795 12.4814 14.0076 12.6754 14.0096 12.6952C14.0133 12.7337 13.6357 13.8462 13.4788 14.5599C13.4037 14.9004 13.4472 15.1485 13.4694 15.1485C13.5002 15.1485 13.5633 15.0618 13.6219 14.9688L13.6206 14.966C13.6206 14.966 13.6647 14.8955 13.7385 14.7688L13.753 14.7423L13.7536 14.7435C13.8758 14.5329 13.9927 14.32 14.1041 14.1048C14.3808 13.572 15.4366 11.5149 15.5262 11.2874C15.6156 11.0599 15.6623 10.8245 15.7065 10.7236C15.75 10.6228 16.1232 10.5467 16.5593 10.5495C16.9955 10.5523 17.0398 10.7149 17.0428 10.7485C17.046 10.782 16.8354 11.2334 16.7869 11.5524C16.739 11.8715 16.7851 12.0307 16.8248 12.2985C16.8507 12.4737 16.976 12.6958 17.1243 12.9476C17.5756 12.3028 18.3698 11.0697 18.4461 10.7242C18.4983 10.4879 18.5822 10.2614 18.6264 10.1604C18.6705 10.0596 19.0431 9.9836 19.4792 9.9863C19.9154 9.98916 19.9595 10.1517 19.9627 10.1853C19.9659 10.2189 19.7547 10.6702 19.7068 10.9893C19.6588 11.3078 19.705 11.4675 19.7446 11.7354C19.7787 11.9645 19.9816 12.2726 20.1828 12.6229C20.7318 12.3866 21.3779 12.228 22.1344 12.2247C22.4477 12.223 22.8115 12.2505 22.9993 12.3017V7.03015C22.9993 6.65823 22.7811 6.31544 22.4124 6.12978L12.5686 1.15928C12.3882 1.06804 12.1835 1.01999 11.9751 1.01999C11.7667 1.01999 11.5619 1.06804 11.3816 1.15928L1.56487 6.12737C1.19671 6.31311 1 6.65635 1 7.02767V16.9729C1 17.3442 1.19791 17.6875 1.56547 17.8732L11.398 22.845C11.5774 22.9365 11.7815 22.9847 11.9893 22.9847C12.197 22.9847 12.4011 22.9365 12.5805 22.845L22.4175 17.8731C22.7856 17.6869 23 17.344 23 16.9728V12.9536C22.8751 12.9214 22.6923 12.8961 22.5145 12.878V12.8781ZM11.9243 12.3572C11.7131 12.5639 11.3532 13.0967 11.1849 13.5427C10.8502 14.428 10.9951 15.328 11.2321 15.382C11.5089 15.4453 11.9628 14.2618 12.1801 13.7988C12.3163 13.5089 12.8459 12.2223 12.7299 12.0505C12.6393 11.916 12.2641 12.0246 11.9243 12.3573V12.3572ZM15.7539 15.3416C15.7539 15.3416 15.6871 15.3969 15.716 15.4122C15.7551 15.4326 15.8396 15.4062 15.9316 15.3642C16.192 15.2211 16.7763 14.864 16.7776 14.3355C16.7776 14.3201 16.7769 14.3052 16.7757 14.2892C16.655 14.4276 16.5322 14.5646 16.4076 14.7003C16.2235 14.9003 15.7539 15.3416 15.7539 15.3416Z" fill="#CF649B"/>
</svg>
