<svg width="24" height="24" viewBox="0 0 24 24" fill="none" xmlns="http://www.w3.org/2000/svg">
<path fill-rule="evenodd" clip-rule="evenodd" d="M1 1H23V23H1V1Z" fill="white"/>
<path fill-rule="evenodd" clip-rule="evenodd" d="M7.03591 17.1658L6.66829 14.1883C5.69495 13.4962 4.94509 12.9265 4.04389 12.2705C3.6184 9.1341 4.40433 7.43259 5.55788 5.81759C6.99266 3.9935 9.29976 2.63086 12.0611 2.63086C14.8226 2.65962 17.1369 4.05114 18.4996 5.87523C19.7757 7.60561 20.4607 9.78295 19.9631 12.357L17.4757 14.1883L17.1079 17.1658H13.1643C12.9192 17.3606 12.5876 17.5407 12.0611 17.5552C11.542 17.5407 11.2176 17.3606 10.9508 17.1658H7.03591Z" fill="#CC2229"/>
<path fill-rule="evenodd" clip-rule="evenodd" d="M12.0612 13.0346C11.8521 10.2588 11.7945 6.83409 11.6215 4.08723C11.3258 4.01509 10.9077 4.03678 10.5616 4.09442C10.2156 4.20262 9.9632 4.29632 9.6676 4.46216C10.2084 7.10093 10.8356 10.4607 11.3692 13.0779C10.641 10.5328 9.66759 7.34609 8.94673 4.80821C8.60067 4.88034 8.26181 5.07494 8.01676 5.27684C7.75722 5.47875 7.60577 5.6302 7.3678 5.99064C8.41315 8.22572 9.66759 11.0736 10.7204 13.2942C9.50176 11.2754 8.02372 8.61503 6.79804 6.61073C6.56018 6.81982 6.37985 6.97128 6.14188 7.37497C5.93998 7.69945 5.83909 8.08157 5.79583 8.44931C7.1369 10.086 8.7374 12.047 10.0857 13.6763C8.67988 12.3208 6.94938 10.5761 5.55797 9.22063C5.42101 9.49455 5.3345 9.72533 5.29124 10.1795C5.2408 10.6192 5.32731 11.1455 5.42101 11.4628L8.13911 13.4816L8.42753 15.7239L11.4197 15.7454C11.6359 15.9978 11.708 16.1276 12.0613 16.1491C12.4001 16.1276 12.5949 15.9185 12.6814 15.7454H15.6661L15.9688 13.496L18.6655 11.4915C18.7662 11.16 18.8311 10.648 18.7952 10.2082C18.752 9.7324 18.6655 9.49443 18.5501 9.24208C17.1515 10.5903 15.4138 12.3352 14.0224 13.6906C15.3777 12.0756 16.9639 10.1072 18.3193 8.45627C18.2473 8.08865 18.1608 7.7136 17.9444 7.38923C17.692 6.98543 17.5477 6.83409 17.3171 6.6178C16.0843 8.61492 14.5846 11.2971 13.3661 13.3013C14.4478 11.0735 15.6733 8.22561 16.7333 6.01951C16.5026 5.66615 16.3367 5.48594 16.106 5.29853C15.8321 5.08944 15.4932 4.89484 15.1615 4.81551C14.4045 7.34609 13.4745 10.5617 12.7391 13.0851C13.2508 10.4679 13.8926 7.137 14.4045 4.50553C14.1451 4.31801 13.8927 4.2243 13.5536 4.12341C13.1644 4.05127 12.7823 4.03689 12.4794 4.08734C12.2776 6.85577 12.2702 10.2733 12.0612 13.0346Z" fill="#F6D330"/>
<path fill-rule="evenodd" clip-rule="evenodd" d="M3.79883 20.3382H5.19754C5.17597 20.6483 5.32742 20.7203 5.39956 20.7709C5.47877 20.7997 6.0629 20.8284 6.35121 20.778C6.46659 20.7564 6.57468 20.7132 6.57468 20.3598C6.57468 20.2085 6.53861 20.0426 6.36559 20.0064C5.75269 19.9561 5.15428 20.0209 4.5415 19.9632C3.9286 19.8263 3.83501 19.6676 3.79883 19.1846C3.84208 18.514 4.08005 18.3194 4.76497 18.2977C5.4786 18.2762 6.19272 18.2762 6.90635 18.2977C7.63453 18.2977 7.858 18.5791 7.858 19.1919H6.57468C6.57468 18.8889 6.51704 18.7737 6.36559 18.7592C6.05354 18.7376 5.74037 18.7376 5.42832 18.7592C5.31293 18.7592 5.16159 18.8169 5.16159 19.0909C5.16159 19.3503 5.22642 19.4152 5.39956 19.437C5.92583 19.4585 6.4594 19.4658 6.97849 19.5016C7.84362 19.5522 7.8725 19.9343 7.90126 20.338C7.91564 20.9149 7.70655 21.1166 7.5552 21.2105C7.41105 21.2754 6.71164 21.3548 6.57468 21.3548H5.19046C4.88036 21.3548 4.49105 21.3187 4.15219 21.2177C3.83489 21.1313 3.79883 20.706 3.79883 20.3382ZM16.9425 21.3692H18.1681V18.3123H16.9425V21.3692ZM18.9899 21.3692H20.2012V18.3123H18.9899V21.3692ZM16.2287 19.7686C16.2064 19.673 16.1774 19.579 16.142 19.4875C15.9329 19.1486 15.212 19.1486 14.5127 19.1341C13.9864 19.1341 13.2006 19.1486 12.9698 19.372C12.876 19.473 12.8256 19.6171 12.7968 19.7686C12.7607 19.9489 12.7678 20.1362 12.7678 20.2228C12.7678 20.3814 12.7823 20.9942 13.0779 21.1528C13.3518 21.3331 14.1809 21.3548 14.4981 21.3548C14.837 21.3548 15.7743 21.3187 15.9114 21.16C16.1563 21.0735 16.2141 20.7708 16.2645 20.5329H15.0605C15.0605 20.7708 14.873 20.9151 14.4981 20.8931C14.1592 20.9149 13.9646 20.8356 13.9646 20.4104L16.2644 20.4174C16.2645 20.2085 16.272 19.9849 16.2287 19.7686ZM15.0605 19.9777H13.9646C13.9646 19.8912 13.9791 19.8189 14.0007 19.7686C14.0798 19.574 14.2818 19.5668 14.498 19.5523C14.8296 19.5523 14.9739 19.6316 15.0317 19.7686C15.0605 19.8263 15.0677 19.8983 15.0605 19.9777ZM8.62224 21.3692H9.81905V20.0714C9.84793 19.8913 9.89118 19.747 10.3309 19.747C10.749 19.7399 10.8644 19.8551 10.8644 20.0714V21.3692H12.0612V20.0714C12.0612 19.646 12.0541 19.4153 11.7801 19.293C11.5349 19.1342 11.1816 19.1559 10.85 19.1559C10.504 19.1559 10.1147 19.1992 9.81905 19.3434V18.3125H8.62224V21.3692Z" fill="#CC2229"/>
</svg>
