<svg width="24" height="24" viewBox="0 0 24 24" fill="none" xmlns="http://www.w3.org/2000/svg">
<path fill-rule="evenodd" clip-rule="evenodd" d="M9.06617 1C7.85004 1.0009 6.86581 1.98585 6.86671 3.19955C6.86581 4.41324 7.85094 5.39819 9.06706 5.39909H11.2674V3.20044C11.2683 1.98675 10.2832 1.00179 9.06617 1C9.06706 1 9.06706 1 9.06617 1V1ZM9.06617 6.86665H3.20036C1.98423 6.86755 0.999104 7.8525 1 9.0662C0.998205 10.2799 1.98333 11.2648 3.19946 11.2666H9.06617C10.2823 11.2657 11.2674 10.2808 11.2665 9.06709C11.2674 7.8525 10.2823 6.86755 9.06617 6.86665Z" fill="#36C5F0"/>
<path fill-rule="evenodd" clip-rule="evenodd" d="M23.0002 9.0662C23.0011 7.8525 22.0159 6.86755 20.7998 6.86665C19.5837 6.86755 18.5986 7.8525 18.5995 9.0662V11.2666H20.7998C22.0159 11.2657 23.0011 10.2808 23.0002 9.0662ZM17.1335 9.0662V3.19955C17.1344 1.98675 16.1501 1.00179 14.934 1C13.7179 1.0009 12.7327 1.98585 12.7336 3.19955V9.0662C12.7318 10.2799 13.717 11.2648 14.9331 11.2666C16.1492 11.2657 17.1344 10.2808 17.1335 9.0662Z" fill="#2EB67D"/>
<path fill-rule="evenodd" clip-rule="evenodd" d="M14.933 23.0001C16.1491 22.9992 17.1343 22.0142 17.1334 20.8005C17.1343 19.5868 16.1491 18.6019 14.933 18.601H12.7327V20.8005C12.7318 22.0133 13.7169 22.9983 14.933 23.0001ZM14.933 17.1325H20.7997C22.0159 17.1316 23.001 16.1467 23.0001 14.933C23.0019 13.7193 22.0168 12.7343 20.8006 12.7325H14.9339C13.7178 12.7334 12.7327 13.7184 12.7336 14.9321C12.7327 16.1467 13.7169 17.1316 14.933 17.1325Z" fill="#ECB22E"/>
<path fill-rule="evenodd" clip-rule="evenodd" d="M1.00024 14.9329C0.999346 16.1466 1.98447 17.1315 3.2006 17.1324C4.41673 17.1315 5.40185 16.1466 5.40095 14.9329V12.7333H3.2006C1.98447 12.7342 0.999346 13.7192 1.00024 14.9329ZM6.86696 14.9329V20.7995C6.86516 22.0132 7.85028 22.9982 9.06641 23C10.2825 22.9991 11.2677 22.0141 11.2668 20.8004V14.9347C11.2686 13.721 10.2834 12.736 9.06731 12.7342C7.85028 12.7342 6.86606 13.7192 6.86696 14.9329C6.86696 14.9338 6.86696 14.9329 6.86696 14.9329Z" fill="#E01E5A"/>
</svg>
