<svg width="24" height="24" viewBox="0 0 24 24" fill="none" xmlns="http://www.w3.org/2000/svg">
<path d="M7.92095 1.96991C7.92095 1.96991 2.01436 8.86909 9.26286 16.5545C9.26286 16.5545 2.9004 14.4435 2.20818 9.51719C2.20818 9.51719 1.18469 4.4952 7.92095 1.96991Z" fill="#6BB94F" stroke="#6BB94E" stroke-miterlimit="10"/>
<path d="M7.32562 12.0425C7.32562 12.0425 8.15529 1.96994 18.765 3.2533C18.765 3.2533 14.1588 -0.513928 9.91254 1.69373C9.89869 1.69373 3.8675 4.96379 7.32562 12.0425Z" fill="#EE7541" stroke="#ED7540" stroke-miterlimit="10"/>
<path d="M9.81567 7.58577C9.81567 7.58577 12.4026 3.26712 18.945 4.17761C18.945 4.17761 23.6897 5.59908 22.9144 13.8359C22.9006 13.8359 20.2721 3.85998 9.81567 7.58577Z" fill="#E9555F" stroke="#E9565F" stroke-miterlimit="10"/>
<path d="M15.1547 7.35095C15.1547 7.35095 23.219 15.2159 15.1547 22.8046C15.1547 22.8046 20.0931 21.4936 21.9601 16.9402C21.9601 16.9402 23.8687 10.1663 15.1547 7.35095Z" fill="#EA589F" stroke="#E9589F" stroke-miterlimit="10"/>
<path d="M17.7415 12.732C17.7415 12.732 14.1449 22.9427 4.46277 19.9754C4.46277 19.9754 7.35327 23.9074 12.4994 22.8036C12.4984 22.8046 19.0409 22.3084 17.7415 12.732Z" fill="#32B7E9"/>
<path d="M1.35081 9.83484C1.35081 9.83484 3.59161 19.0798 14.3526 16.9412C14.3526 16.9412 10.5484 21.5637 4.46282 19.2179C4.46282 19.2169 -0.309524 16.8031 1.35081 9.83484Z" fill="#118E9B"/>
</svg>
