<svg width="24" height="24" viewBox="0 0 24 24" fill="none" xmlns="http://www.w3.org/2000/svg">
<path d="M12 1C5.92467 1 1 5.92467 1 12C1 18.0753 5.92467 23 12 23C18.0753 23 23 18.0753 23 12C23 5.92542 18.0753 1.00075 12 1ZM17.0448 16.8646C16.8474 17.1889 16.4248 17.2902 16.102 17.0928C13.5192 15.5143 10.2676 15.1578 6.43883 16.0322C6.06953 16.117 5.70174 15.8858 5.61767 15.5165C5.53286 15.1473 5.76329 14.7795 6.13333 14.6954C10.3232 13.7384 13.9178 14.1505 16.8173 15.9219C17.1401 16.1208 17.2429 16.5419 17.0448 16.8646ZM18.3906 13.8705C18.1421 14.2743 17.6137 14.4004 17.2106 14.1527C14.2548 12.3355 9.74671 11.8093 6.24968 12.8707C5.79632 13.0081 5.31743 12.7521 5.17932 12.2995C5.04272 11.8461 5.29867 11.368 5.75128 11.2299C9.74596 10.0177 14.7127 10.6046 18.1076 12.6913C18.5114 12.9397 18.639 13.4674 18.3906 13.8705ZM18.5062 10.751C14.9604 8.64558 9.1117 8.45193 5.72651 9.47874C5.18308 9.64388 4.60812 9.33688 4.44374 8.79345C4.27936 8.25002 4.5856 7.67506 5.12979 7.50993C9.01563 6.33074 15.4745 6.55817 19.5563 8.9811C20.0449 9.27158 20.2055 9.90283 19.9158 10.3907C19.6268 10.8801 18.9941 11.0415 18.5062 10.751Z" fill="#1ED760"/>
</svg>
