<svg width="24" height="24" viewBox="0 0 24 24" fill="none" xmlns="http://www.w3.org/2000/svg">
<g clip-path="url(#clip0_12171_1690)">
<path d="M21.0086 2.14723C20.6991 2.88619 20.3066 3.58792 19.8338 4.23236C17.765 2.16442 14.957 1.00156 12.0315 1.00156C5.97994 1.00156 1 5.98524 1 12.043C1 15.0647 2.23782 17.9575 4.42693 20.0427L4.83381 20.4036C6.82235 22.0791 9.34097 23.0014 11.9398 23.0014C17.6934 23.0014 22.5301 18.4931 22.9398 12.7476C23.2407 9.93495 22.4155 6.37763 21.0086 2.14723ZM5.99427 20.1057C5.81662 20.3262 5.54441 20.4551 5.26075 20.4551C4.74212 20.4551 4.31805 20.0283 4.31805 19.5099C4.31805 18.9915 4.74499 18.5647 5.26075 18.5647C5.47564 18.5647 5.68768 18.6392 5.85387 18.7767C6.25788 19.1032 6.32092 19.7018 5.99427 20.1057ZM20.9628 16.8004C18.2407 20.4293 12.4269 19.2063 8.69914 19.381C8.69914 19.381 8.03725 19.4211 7.37249 19.53C7.37249 19.53 7.62178 19.424 7.94556 19.3008C10.5616 18.39 11.7994 18.2125 13.3897 17.3962C16.384 15.8724 19.3438 12.5385 19.9599 9.06997C18.8195 12.4067 15.3639 15.2738 12.2149 16.4395C10.0573 17.2358 6.16046 18.0091 6.16046 18.0091L6.00287 17.926C3.34957 16.6343 3.26934 10.8859 8.09169 9.02987C10.2034 8.21644 12.2235 8.66326 14.5043 8.11906C16.9398 7.54049 19.7564 5.71314 20.9026 3.33014C22.1862 7.14237 23.7307 13.1113 20.9628 16.8004Z" fill="#77BC1F"/>
</g>
<defs>
<clipPath id="clip0_12171_1690">
<rect width="22" height="22" fill="white" transform="translate(1 1)"/>
</clipPath>
</defs>
</svg>
