<svg width="50" height="50" viewBox="0 0 50 50" fill="none" xmlns="http://www.w3.org/2000/svg">
<g clip-path="url(#clip0_21059_246)">
<path fill-rule="evenodd" clip-rule="evenodd" d="M49 25.3334C49 21.9201 47.3467 19.2268 44.1867 19.2268C41.0134 19.2268 39.0934 21.9201 39.0934 25.3068C39.0934 29.3202 41.3601 31.3468 44.6134 31.3468C46.2 31.3468 47.4001 30.9868 48.3067 30.4801V27.8134C47.4 28.2668 46.36 28.5468 45.04 28.5468C43.7467 28.5468 42.6 28.0934 42.4533 26.5201H48.9733C48.9734 26.3467 49 25.6534 49 25.3334ZM42.4134 24.0667C42.4134 22.5601 43.3334 21.9334 44.1734 21.9334C44.9867 21.9334 45.8534 22.5601 45.8534 24.0667H42.4134Z" fill="#635BFF"/>
<path fill-rule="evenodd" clip-rule="evenodd" d="M33.9467 19.2268C32.6401 19.2268 31.8 19.8401 31.3333 20.2668L31.16 19.4402H28.2267V34.9869L31.56 34.2802L31.5733 30.5069C32.0533 30.8536 32.76 31.3469 33.9333 31.3469C36.32 31.3469 38.4933 29.4269 38.4933 25.2002C38.4801 21.3335 36.2801 19.2268 33.9467 19.2268ZM33.1467 28.4135C32.36 28.4135 31.8934 28.1335 31.5733 27.7868L31.56 22.8401C31.9067 22.4534 32.3867 22.1868 33.1467 22.1868C34.36 22.1868 35.2 23.5467 35.2 25.2934C35.2001 27.0801 34.3734 28.4135 33.1467 28.4135Z" fill="#635BFF"/>
<path fill-rule="evenodd" clip-rule="evenodd" d="M23.64 18.44L26.9867 17.7201V15.0134L23.64 15.7201V18.44Z" fill="#635BFF"/>
<path d="M26.9867 19.4534H23.64V31.12H26.9867V19.4534Z" fill="#635BFF"/>
<path fill-rule="evenodd" clip-rule="evenodd" d="M20.0534 20.44L19.8401 19.4533H16.9601V31.12H20.2934V23.2133C21.08 22.1866 22.4134 22.3733 22.8267 22.52V19.4533C22.4001 19.2934 20.8401 19.0001 20.0534 20.44Z" fill="#635BFF"/>
<path fill-rule="evenodd" clip-rule="evenodd" d="M13.3867 16.5601L10.1333 17.2534L10.12 27.9334C10.12 29.9067 11.6 31.3601 13.5733 31.3601C14.6667 31.3601 15.4666 31.16 15.9067 30.92V28.2134C15.48 28.3867 13.3734 29 13.3734 27.0267V22.2934H15.9067V19.4534H13.3734L13.3867 16.5601Z" fill="#635BFF"/>
<path fill-rule="evenodd" clip-rule="evenodd" d="M4.37337 22.8401C4.37337 22.3201 4.80001 22.1201 5.50667 22.1201C6.51997 22.1201 7.79999 22.4267 8.81338 22.9735V19.8401C7.70671 19.4001 6.61334 19.2268 5.50667 19.2268C2.80002 19.2268 1 20.6401 1 23.0001C1 26.6801 6.06671 26.0934 6.06671 27.6801C6.06671 28.2935 5.53339 28.4934 4.7867 28.4934C3.68002 28.4934 2.2667 28.0401 1.14671 27.4268V30.6001C2.3867 31.1334 3.64008 31.3601 4.7867 31.3601C7.55999 31.3601 9.4667 29.9867 9.4667 27.6001C9.45339 23.6268 4.37337 24.3335 4.37337 22.8401Z" fill="#635BFF"/>
</g>
<defs>
<clipPath id="clip0_21059_246">
<rect width="48" height="48" fill="white" transform="translate(1 1)"/>
</clipPath>
</defs>
</svg>
