<svg width="24" height="24" viewBox="0 0 24 24" fill="none" xmlns="http://www.w3.org/2000/svg">
<g clip-path="url(#clip0_12171_1723)">
<path d="M11.956 22.9828C18.0068 22.9828 22.912 18.0776 22.912 12.0268C22.912 5.97597 18.0068 1.0708 11.956 1.0708C5.90517 1.0708 1 5.97597 1 12.0268C1 18.0776 5.90517 22.9828 11.956 22.9828Z" fill="#1A171B"/>
<path d="M16.7241 5.1191C15.6126 5.15787 14.6424 5.77047 13.9203 6.61785C13.1207 7.54697 12.5887 8.64898 12.2054 9.77386C11.5198 9.21193 10.9908 8.48447 9.89087 8.16726C9.04066 7.92315 8.14767 8.02398 7.32648 8.6358C6.93746 8.92639 6.66946 9.36566 6.54201 9.77857C6.21205 10.8517 6.88892 11.8066 7.19638 12.1495L7.86854 12.8699C8.00712 13.0111 8.34085 13.3796 8.17771 13.9079C8.00139 14.4822 7.30893 14.8541 6.59868 14.635C6.28147 14.5383 5.82576 14.3019 5.92779 13.9692C5.96999 13.8331 6.06739 13.7312 6.11961 13.6135C6.16754 13.5124 6.19039 13.4366 6.20494 13.3921C6.3347 12.9684 6.15744 12.4172 5.70362 12.2772C5.28027 12.1475 4.84708 12.2503 4.67915 12.7954C4.4887 13.4147 4.78503 14.5386 6.37245 15.028C8.23232 15.5995 9.80562 14.5868 10.0288 13.266C10.1693 12.4387 9.79577 11.8242 9.11145 11.0337L8.55389 10.4171C8.21614 10.0797 8.10016 9.50458 8.44973 9.06257C8.74468 8.68973 9.16478 8.53061 9.85278 8.71772C10.857 8.99042 11.3047 9.68724 12.0517 10.2492C11.7433 11.2609 11.5417 12.2763 11.3592 13.1868L11.248 13.8657C10.7141 16.6664 10.3065 18.2042 9.24729 19.0871C9.0339 19.2389 8.72885 19.4661 8.26904 19.4819C8.02801 19.4893 7.95012 19.3236 7.94678 19.2513C7.94104 19.0821 8.08364 19.0045 8.17839 18.9284C8.31997 18.8512 8.53404 18.7231 8.51948 18.3129C8.50408 17.8281 8.10247 17.4077 7.52197 17.427C7.08716 17.4418 6.42441 17.851 6.44931 18.6C6.47525 19.3737 7.19638 19.9535 8.28359 19.9168C8.86477 19.8969 10.1625 19.6603 11.4416 18.1399C12.9302 16.397 13.3465 14.399 13.6597 12.9366L14.0093 11.006C14.2035 11.0293 14.4112 11.0448 14.637 11.0501C16.4911 11.0893 17.4185 10.1289 17.4323 9.43037C17.4414 9.00762 17.1549 8.59164 16.7537 8.60105C16.4665 8.60918 16.1057 8.80031 16.0191 9.19747C15.9346 9.58709 16.6091 9.93871 16.0819 10.2802C15.7073 10.5226 15.0358 10.6935 14.0902 10.5546L14.2621 9.6043C14.6131 7.80212 15.0459 5.58533 16.688 5.5314C16.8076 5.52533 17.2455 5.5368 17.2557 5.82636C17.2587 5.92308 17.2347 5.94773 17.1215 6.16916C17.0062 6.34181 16.9627 6.48877 16.9681 6.65765C16.9839 7.1178 17.3338 7.4202 17.8399 7.40197C18.5174 7.38006 18.7123 6.72039 18.7012 6.38161C18.6738 5.58558 17.8348 5.08272 16.724 5.1191H16.7241Z" fill="white"/>
</g>
<defs>
<clipPath id="clip0_12171_1723">
<rect width="22" height="22" fill="white" transform="translate(1 1)"/>
</clipPath>
</defs>
</svg>
