<svg width="24" height="24" viewBox="0 0 24 24" fill="none" xmlns="http://www.w3.org/2000/svg">
<path d="M15.0458 10.7412L15.3784 9.05944L12.2627 9.06462L12.7026 6.84697H11.6969C10.9769 7.95449 9.91891 8.81091 8.67356 9.29415L8.39111 10.7447H9.75319C9.75319 10.7447 9.29212 12.8286 9.13726 13.5974C8.75099 15.5545 9.71887 16.9429 11.2068 16.9429H13.7233L14.1632 15.0842H12.0585C11.1232 15.0842 11.1725 14.5734 11.3546 13.6656L11.9336 10.7369L15.0458 10.7412ZM21.9882 7.02559C22.6841 7.58992 23.1232 8.75743 22.9692 9.61429L21.4734 17.8904C21.3168 18.7533 20.4923 19.7024 19.6423 20.0001L11.4822 22.8658C10.6322 23.1644 9.37044 22.9478 8.67444 22.3835L2.01098 16.9757C1.31498 16.4113 0.875035 15.2499 1.03166 14.387L2.52748 6.11092C2.6841 5.24802 3.50856 4.29883 4.35854 4.00113L12.5205 1.13458C13.3704 0.835149 14.6322 1.0526 15.3282 1.61607L21.9882 7.02559Z" fill="#14C8FF"/>
</svg>
