<svg width="24" height="24" viewBox="0 0 24 24" fill="none" xmlns="http://www.w3.org/2000/svg">
<path d="M12.8892 17.875L8.58374 22.1676C8.45487 22.2449 8.2873 22.4383 7.93921 22.3352C7.75878 22.2707 7.5396 22.0644 7.50097 21.8324V21.8195L6.26343 14.4203L7.26894 13.6598C7.39913 13.7362 9.88376 15.1931 9.731 15.1036L12.8892 16.9598C13.1342 17.2176 13.1342 17.6172 12.8892 17.875Z" fill="#009AE4"/>
<path d="M22.9874 2.42377L19.0769 21.8453C19.0383 22.0515 18.8836 22.232 18.6773 22.3094C18.6 22.348 18.5226 22.3609 18.4453 22.3609C18.3164 22.3609 18.1875 22.3222 18.0715 22.2449C17.9418 22.1523 8.44386 15.368 9.04804 15.7996C3.29711 12.9508 6.29688 14.4481 1.36094 11.984C1.12891 11.868 1 11.6359 1 11.391C1.01289 11.1332 1.15469 10.914 1.38672 10.8109L22.098 1.7019C22.3171 1.61166 22.5749 1.63744 22.7554 1.79213C22.7812 1.81791 22.8199 1.85658 22.8456 1.88236C22.9745 2.03705 23.0261 2.23041 22.9874 2.42377Z" fill="#25D9F8"/>
<path d="M22.8459 1.88239L9.73149 15.1035L9.04833 15.7996L7.9397 22.3351C7.75927 22.2707 7.54009 22.0644 7.50146 21.8324V21.8195L6.26392 14.4203L7.26943 13.6598L22.8459 1.88239Z" fill="#00C0F1"/>
</svg>
