<svg width="24" height="24" viewBox="0 0 24 24" fill="none" xmlns="http://www.w3.org/2000/svg">
<path d="M11.9986 23C18.0689 23 22.9971 18.0718 22.9971 12.0014C22.9971 5.93108 18.0718 1 11.9986 1C5.92533 1 1 5.92821 1 11.9986C1 18.0689 5.92821 23 11.9986 23Z" fill="#A6E000"/>
<path d="M13.6154 20.1001C12.4589 20.1001 11.616 19.8297 11.0866 19.2715C10.5572 18.7134 10.3012 18.1294 10.3012 17.4849C10.3012 17.2577 10.3444 17.0563 10.445 16.898C10.5314 16.7398 10.6579 16.6132 10.8162 16.5269C10.9744 16.4406 11.1729 16.3831 11.4031 16.3831C11.6332 16.3831 11.8317 16.4262 11.99 16.5269C12.1482 16.6132 12.2748 16.7398 12.3611 16.898C12.4474 17.0563 12.5049 17.2548 12.5049 17.4849C12.5049 17.7698 12.433 17.9999 12.3036 18.1697C12.1741 18.3423 12.0044 18.4689 11.8173 18.5264C11.9756 18.7393 12.2316 18.8975 12.574 18.9982C12.9163 19.0989 13.2587 19.1421 13.6039 19.1421C14.0901 19.1421 14.5188 19.0126 14.9043 18.7566C15.2898 18.5005 15.5746 18.115 15.7616 17.6144C15.9486 17.1138 16.0321 16.5442 16.0321 15.8997C16.0321 15.2006 15.9314 14.6138 15.7329 14.1275C15.5315 13.627 15.2467 13.2558 14.8612 13.0286C14.4756 12.7869 14.0614 12.6718 13.6039 12.6718C13.3047 12.6718 12.948 12.8013 12.5049 13.0429L11.6994 13.4284V13.0286L15.3416 8.17227H10.3012V13.2156C10.3012 13.6298 10.3875 13.9722 10.5716 14.2455C10.7586 14.5159 11.0435 14.6454 11.4146 14.6454C11.7138 14.6454 11.9871 14.5447 12.2575 14.3462C12.528 14.1448 12.7581 13.9031 12.9566 13.6327C12.9854 13.5752 13.0142 13.532 13.0429 13.5176C13.0861 13.4889 13.1149 13.4745 13.158 13.4745C13.2299 13.4745 13.3019 13.5033 13.3997 13.5752C13.486 13.6759 13.5291 13.7881 13.5291 13.9175C13.5291 13.9751 13.5004 14.0614 13.486 14.1736C13.2846 14.6454 12.9998 15.0021 12.6286 15.2438C12.2575 15.4855 11.8576 15.6149 11.4146 15.6149C10.3156 15.6149 9.57045 15.402 9.14179 14.9734C8.72751 14.5447 8.51462 13.9578 8.51462 13.2299V8.17227H5.94263V7.22863H8.529V5.08531L7.9421 4.49841V4.01221H9.65676L10.2983 4.34018V7.21425L16.97 7.19986L17.6259 7.85581L13.5435 11.9583C13.7852 11.8576 14.0441 11.8001 14.3145 11.7713C14.7576 11.7713 15.2582 11.9152 15.799 12.2C16.3572 12.4704 16.7858 12.8559 17.085 13.3421C17.3842 13.8283 17.5856 14.2858 17.6719 14.7288C17.7582 15.1719 17.8158 15.5574 17.8158 15.9141C17.8158 16.6995 17.6432 17.4274 17.3152 18.1006C16.9872 18.7709 16.4866 19.2859 15.8019 19.6139C15.1287 19.9419 14.4008 20.1001 13.6154 20.1001Z" fill="black"/>
</svg>
