<svg width="24" height="24" viewBox="0 0 24 24" fill="none" xmlns="http://www.w3.org/2000/svg">
<path d="M14.0442 21.9376C12.3834 21.9461 10.7528 21.4929 9.33386 20.6284C7.91487 19.7638 6.76313 18.5219 6.00674 17.0408C5.27106 15.5723 4.97037 13.9235 5.1402 12.2893C5.31003 10.655 5.94328 9.10365 6.96514 7.81843C6.62567 7.67127 6.27166 7.56036 5.90898 7.48753C5.37507 7.3726 4.82359 7.3659 4.28705 7.46784C3.75051 7.56978 3.23978 7.77829 2.78495 8.08108C2.33637 8.37847 1.95384 8.76533 1.66125 9.2175C1.36866 9.66967 1.1723 10.1774 1.08443 10.709C1.02888 11.1476 1.00068 11.5891 1 12.0312C1.00722 13.8899 1.48836 15.7161 2.39777 17.3363C3.30718 18.9565 4.61472 20.3172 6.19635 21.2891C7.79773 22.2804 9.61862 22.8605 11.4974 22.9777C13.3763 23.095 15.2549 22.7459 16.9668 21.9613C17.0525 21.931 17.1269 21.875 17.1799 21.801C17.2328 21.7269 17.2619 21.6384 17.263 21.5473C17.263 21.4801 17.2467 21.414 17.2156 21.3544C16.2018 21.7371 15.1276 21.9346 14.0442 21.9376Z" fill="url(#paint0_linear_15000_4285)"/>
<path d="M16.9846 21.1288C15.4856 21.4636 13.9177 21.2812 12.5352 20.6114C11.1526 19.9415 10.0365 18.8234 9.36785 17.4384C8.82883 16.289 8.63836 15.0063 8.82004 13.7495C9.00172 12.4926 9.54757 11.3168 10.3899 10.3677C10.2418 10.2045 10.0937 10.0368 9.92333 9.8721C9.07824 8.97961 8.0573 8.27269 6.92521 7.79614C5.61764 9.28778 4.86501 11.1864 4.79482 13.1702C4.72463 15.1541 5.3412 17.1013 6.54008 18.6819C9.01382 21.9568 13.468 23.1336 17.2868 21.5117C17.2791 21.4253 17.2464 21.3431 17.1928 21.2751C17.1391 21.2071 17.0667 21.1562 16.9846 21.1288Z" fill="url(#paint1_linear_15000_4285)"/>
<path d="M7.17098 7.90447C7.08507 7.86292 7.0036 7.8273 6.92212 7.79614C5.60727 9.30212 4.85725 11.2199 4.80102 13.2199C4.74479 15.2198 5.38586 17.1769 6.61402 18.7546C5.44552 17.1573 4.86361 15.2047 4.96672 13.2271C5.06983 11.2494 5.85162 9.3682 7.17987 7.9015L7.17098 7.90447Z" fill="url(#paint2_linear_15000_4285)"/>
<path d="M16.8349 21.1022C15.9383 21.1064 15.0586 20.8582 14.296 20.386C13.5333 19.9137 12.9185 19.2364 12.5214 18.4312C12.1334 17.6343 11.9844 16.7419 12.0924 15.862C12.2005 14.982 12.561 14.1524 13.1302 13.4735C12.231 12.4897 11.3689 11.4213 10.378 10.3484C9.32811 11.3852 8.66248 12.7495 8.49094 14.2163C8.31939 15.683 8.65218 17.1646 9.43438 18.4163C10.2363 19.6801 11.4303 20.6451 12.8327 21.1633C14.2352 21.6815 15.7688 21.7241 17.1978 21.2847C17.1555 21.2282 17.1007 21.1824 17.0377 21.1507C16.9748 21.1191 16.9053 21.1024 16.8349 21.1022Z" fill="url(#paint3_linear_15000_4285)"/>
<path d="M8.6701 15.0969C8.67194 13.3908 9.34276 11.7537 10.538 10.5384L10.378 10.3618C9.6447 11.0907 9.0953 11.9841 8.77536 12.968C8.45542 13.952 8.37414 14.9982 8.53827 16.0199C8.70911 17.0459 9.11896 18.0171 9.73458 18.8547C10.3502 19.6924 11.1542 20.3729 12.0815 20.841C11.0525 20.2761 10.1934 19.4454 9.59347 18.4352C8.99354 17.425 8.6747 16.2723 8.6701 15.0969Z" fill="url(#paint4_linear_15000_4285)"/>
<path opacity="0.2" d="M13.1332 13.478C12.0844 12.3428 11.1038 11.0904 9.92322 9.87214C7.91756 7.79471 5.90893 7.48161 5.90893 7.48161C4.86467 7.25566 3.77361 7.44678 2.86786 8.01432C2.42578 8.29093 2.04306 8.65287 1.74196 9.07907C1.44086 9.50528 1.2274 9.98722 1.11401 10.4969C1.61843 9.88209 2.28848 9.42536 3.04448 9.18099C3.80049 8.93661 4.61065 8.91486 5.37863 9.11833C7.09989 9.56349 8.48933 10.7224 9.65955 11.9837C10.5587 12.9557 11.3882 13.9795 12.2814 14.9515C12.4684 14.4137 12.7554 13.9162 13.1272 13.4854L13.1332 13.478Z" fill="url(#paint5_linear_15000_4285)"/>
<path d="M13.1331 13.478C13.6687 14.0761 14.3232 14.5554 15.0545 14.8853C15.7858 15.2152 16.5779 15.3884 17.38 15.3937C18.3245 15.3956 19.2545 15.1608 20.0852 14.7106C20.916 14.2604 21.6211 13.6092 22.1364 12.8162C22.642 12.0334 22.9365 11.1328 22.9913 10.202C23.0461 9.2713 22.8592 8.34223 22.4489 7.50536C20.384 2.97358 15.4691 0.360463 10.4609 1.13505C5.45266 1.90964 1.59984 5.87754 1.06213 10.8115C1.13538 10.2669 1.32212 9.74387 1.61023 9.2763C1.89835 8.80873 2.28139 8.40709 2.7345 8.09743C3.19344 7.7826 3.71165 7.56483 4.25745 7.45742C4.80325 7.35001 5.36518 7.35521 5.9089 7.47271C5.9089 7.47271 7.91752 7.79027 9.92318 9.86325C11.1097 11.0904 12.0844 12.3428 13.1331 13.478Z" fill="url(#paint6_linear_15000_4285)"/>
<path d="M17.5904 15.0494C16.7875 15.0621 15.9909 14.907 15.2513 14.594C14.5116 14.281 13.8453 13.8171 13.2946 13.2317C12.2192 12.1158 11.209 10.8842 9.99433 9.7104C7.94127 7.67748 5.92821 7.41187 5.92821 7.41187C5.64484 7.35608 5.35629 7.3312 5.06758 7.33767C4.34567 7.35358 3.64106 7.56205 3.02637 7.94161C3.64086 7.58722 4.33779 7.40142 5.04684 7.40296C5.33561 7.40258 5.62361 7.43292 5.90599 7.49348C5.90599 7.49348 7.91461 7.80955 9.92027 9.88401C11.1053 11.1038 12.0815 12.3547 13.1302 13.4899C13.6671 14.0863 14.3225 14.5637 15.0543 14.8916C15.7862 15.2195 16.5783 15.3905 17.38 15.3937C20.1011 15.3937 22.4297 13.478 22.9037 10.8545C22.5974 12.0393 21.912 13.0909 20.9524 13.8485C19.9928 14.6061 18.8119 15.0279 17.5904 15.0494Z" fill="url(#paint7_linear_15000_4285)"/>
<defs>
<linearGradient id="paint0_linear_15000_4285" x1="9.35445" y1="2.97167" x2="9.35445" y2="23.0778" gradientUnits="userSpaceOnUse">
<stop stop-color="#1631B0"/>
<stop offset="1" stop-color="#D9BDFF"/>
</linearGradient>
<linearGradient id="paint1_linear_15000_4285" x1="10.7992" y1="3.72836" x2="10.7992" y2="24.9339" gradientUnits="userSpaceOnUse">
<stop stop-color="#1631B0"/>
<stop offset="1" stop-color="#D9BDFF"/>
</linearGradient>
<linearGradient id="paint2_linear_15000_4285" x1="6.01724" y1="1.41544" x2="6.01724" y2="19.0588" gradientUnits="userSpaceOnUse">
<stop stop-color="#1631B0"/>
<stop offset="1" stop-color="#D9BDFF"/>
</linearGradient>
<linearGradient id="paint3_linear_15000_4285" x1="12.7119" y1="7.3628" x2="12.7119" y2="25.1415" gradientUnits="userSpaceOnUse">
<stop stop-color="#1631B0"/>
<stop offset="1" stop-color="#D9BDFF"/>
</linearGradient>
<linearGradient id="paint4_linear_15000_4285" x1="10.6393" y1="3.48985" x2="10.6393" y2="20.8543" gradientUnits="userSpaceOnUse">
<stop stop-color="#1631B0"/>
<stop offset="1" stop-color="#D9BDFF"/>
</linearGradient>
<linearGradient id="paint5_linear_15000_4285" x1="3.18032" y1="9.44949" x2="11.534" y2="16.4751" gradientUnits="userSpaceOnUse">
<stop stop-color="#0000CD" stop-opacity="0"/>
<stop offset="0.3" stop-color="#0000CD"/>
<stop offset="0.7" stop-color="#0000CD"/>
<stop offset="1" stop-color="#0000CD" stop-opacity="0"/>
</linearGradient>
<linearGradient id="paint6_linear_15000_4285" x1="20.116" y1="14.3984" x2="11.1746" y2="-0.378842" gradientUnits="userSpaceOnUse">
<stop stop-color="#72FFC9"/>
<stop offset="1" stop-color="#6EAFFC"/>
</linearGradient>
<linearGradient id="paint7_linear_15000_4285" x1="20.0564" y1="14.6096" x2="17.079" y2="1.83268" gradientUnits="userSpaceOnUse">
<stop stop-color="#A6FFD2"/>
<stop offset="1" stop-color="#80F0FF"/>
</linearGradient>
</defs>
</svg>
