<svg width="24" height="24" viewBox="0 0 24 24" fill="none" xmlns="http://www.w3.org/2000/svg">
<g clip-path="url(#clip0_26237_39661)">
<path d="M19.7073 23.5909C14.5854 24.1373 9.42002 24.1373 4.29818 23.5909C3.30357 23.4859 2.37501 23.0431 1.66731 22.3364C0.959605 21.6297 0.515522 20.7017 0.409094 19.7073C-0.137341 14.5854 -0.137341 9.42001 0.409094 4.29818C0.514126 3.30357 0.956907 2.37501 1.66362 1.66731C2.37033 0.959601 3.29827 0.515518 4.29273 0.40909C9.41456 -0.137345 14.58 -0.137345 19.7018 0.40909C20.6964 0.514122 21.625 0.956903 22.3327 1.66361C23.0404 2.37032 23.4845 3.29826 23.5909 4.29273C24.1373 9.41456 24.1373 14.58 23.5909 19.7018C23.4859 20.6964 23.0431 21.625 22.3364 22.3327C21.6297 23.0404 20.7017 23.4845 19.7073 23.5909V23.5909Z" fill="white"/>
<path d="M10.1904 19.5C8.92099 19.5 7.70356 18.9957 6.80595 18.0981C5.90833 17.2005 5.40405 15.9831 5.40405 14.7136C5.40405 13.4442 5.90833 12.2268 6.80595 11.3292C7.70356 10.4315 8.92099 9.92727 10.1904 9.92727H11.3591V12.2632H10.1904C9.70495 12.2632 9.23039 12.4071 8.82674 12.6768C8.4231 12.9466 8.10849 13.3299 7.92271 13.7784C7.73693 14.2269 7.68833 14.7205 7.78303 15.1966C7.87774 15.6727 8.11152 16.1101 8.45479 16.4534C8.79807 16.7966 9.23542 17.0304 9.71156 17.1251C10.1877 17.2198 10.6812 17.1712 11.1297 16.9854C11.5782 16.7997 11.9616 16.485 12.2313 16.0814C12.501 15.6778 12.645 15.2032 12.645 14.7177V4.5H14.9809V5.66727C14.9809 6.31826 15.2395 6.94258 15.6998 7.4029C16.1601 7.86322 16.7844 8.12182 17.4354 8.12182H18.6041V10.4536H17.4272C16.5621 10.4549 15.7132 10.2191 14.9727 9.77182V14.7136C14.9716 15.982 14.4675 17.1982 13.571 18.0955C12.6745 18.9927 11.4588 19.4978 10.1904 19.5V19.5Z" fill="black"/>
</g>
<defs>
<clipPath id="clip0_26237_39661">
<rect width="24" height="24" fill="white"/>
</clipPath>
</defs>
</svg>
