<svg width="24" height="24" viewBox="0 0 24 24" fill="none" xmlns="http://www.w3.org/2000/svg">
<path d="M9.85267 9.66418V8.80686C9.55507 8.75974 9.25449 8.73392 8.95322 8.72961C6.03646 8.72338 3.45419 10.6135 2.57829 13.3956C1.70239 16.1777 2.73629 19.2063 5.1304 20.8721C4.25247 19.9325 3.66526 18.7589 3.43964 17.4929C3.21402 16.227 3.35963 14.9228 3.85891 13.7377C4.35818 12.5527 5.18978 11.5375 6.25332 10.8147C7.31685 10.0919 8.56687 9.69232 9.85247 9.66427L9.85267 9.66418Z" fill="#25F4EE"/>
<path d="M10.0144 19.3754C11.6452 19.3731 12.9857 18.0884 13.0571 16.4592V1.92056H15.7131C15.6589 1.61676 15.633 1.30858 15.6358 1L12.0029 1V15.5246C11.9425 17.1621 10.5988 18.4592 8.96029 18.4618C8.47062 18.4577 7.98895 18.3373 7.55493 18.1105C7.83622 18.5002 8.20564 18.8179 8.63306 19.0378C9.06048 19.2576 9.5338 19.3733 10.0144 19.3754ZM20.6741 6.85336V6.04527C19.6966 6.04566 18.7408 5.75721 17.9266 5.21616C18.6403 6.04585 19.6048 6.62056 20.6741 6.85336Z" fill="#25F4EE"/>
<path d="M17.9266 5.21616C17.1245 4.30291 16.6824 3.12889 16.6828 1.91345H15.713C15.8383 2.58545 16.0992 3.22489 16.4797 3.79272C16.8603 4.36056 17.3526 4.84489 17.9266 5.21616ZM8.95321 12.3625C8.27306 12.366 7.61358 12.5967 7.07963 13.018C6.54567 13.4394 6.16789 14.0271 6.00634 14.6878C5.84479 15.3485 5.90875 16.0442 6.18804 16.6644C6.46734 17.2846 6.94594 17.7936 7.54776 18.1105C7.21872 17.6562 7.02167 17.1198 6.9784 16.5605C6.93512 16.0012 7.04729 15.4408 7.30252 14.9413C7.55775 14.4418 7.94611 14.0225 8.42468 13.7299C8.90324 13.4372 9.4534 13.2825 10.0144 13.283C10.3193 13.287 10.6221 13.3344 10.9137 13.4239V9.7274C10.616 9.68277 10.3154 9.65929 10.0144 9.65716H9.85266V12.4679C9.55955 12.3893 9.25655 12.3538 8.95321 12.3625Z" fill="#FE2C55"/>
<path d="M20.6741 6.85336V9.66417C18.8645 9.66065 17.1019 9.08784 15.6359 8.02688V15.4122C15.6281 19.0973 12.6385 22.0807 8.95331 22.0807C7.58466 22.0832 6.24897 21.6609 5.13049 20.8721C6.04254 21.8531 7.22888 22.5367 8.53497 22.8338C9.84107 23.131 11.2064 23.0279 12.4531 22.5381C13.6998 22.0482 14.77 21.1943 15.5245 20.0875C16.2789 18.9807 16.6826 17.6724 16.6829 16.3329V8.96855C18.1538 10.0225 19.9186 10.5879 21.7282 10.5847V6.96554C21.3739 6.96448 21.0207 6.92689 20.6741 6.85336Z" fill="#FE2C55"/>
<path d="M15.6358 15.4122V8.02687C17.1063 9.08179 18.8714 9.64723 20.6811 9.64305V6.83234C19.612 6.60656 18.6452 6.03932 17.9266 5.21616C17.3526 4.84489 16.8604 4.36056 16.4798 3.79272C16.0992 3.22489 15.8383 2.58545 15.7131 1.91345H13.057V16.4594C13.0312 17.0925 12.8087 17.7019 12.4206 18.2028C12.0325 18.7038 11.4979 19.0713 10.8913 19.2545C10.2847 19.4376 9.63603 19.4272 9.03555 19.2247C8.43508 19.0223 7.9126 18.6378 7.5407 18.1247C6.93878 17.8078 6.46007 17.2988 6.18071 16.6786C5.90134 16.0584 5.83735 15.3626 5.99891 14.7018C6.16047 14.0411 6.5383 13.4533 7.07233 13.0319C7.60636 12.6106 8.26593 12.3799 8.94615 12.3765C9.25122 12.3792 9.55425 12.4266 9.8456 12.5171V9.70629C8.55308 9.72821 7.29486 10.1257 6.22435 10.8504C5.15384 11.575 4.3173 12.5955 3.81672 13.7873C3.31614 14.9792 3.17316 16.2909 3.4052 17.5626C3.63724 18.8343 4.23428 20.0111 5.12353 20.9493C6.253 21.7121 7.59059 22.1073 8.95326 22.0807C12.6384 22.0807 15.628 19.0973 15.6358 15.4122Z" fill="black"/>
</svg>
