<svg width="24" height="24" viewBox="0 0 24 24" fill="none" xmlns="http://www.w3.org/2000/svg">
<path d="M20.381 1H3.61905C2.1749 1 1 2.1749 1 3.61905V20.381C1 21.8251 2.1749 23 3.61905 23H20.381C21.8251 23 23 21.8251 23 20.381V3.61905C23 2.1749 21.8251 1 20.381 1ZM18.2889 10.5978C18.1687 10.6094 18.0481 10.6156 17.9274 10.6161C17.2758 10.6162 16.6343 10.454 16.061 10.1442C15.4878 9.83434 15.0006 9.38662 14.6437 8.84143V14.8846C14.6437 15.768 14.3817 16.6316 13.8909 17.3661C13.4001 18.1006 12.7026 18.6731 11.8864 19.0112C11.0703 19.3492 10.1722 19.4377 9.30577 19.2653C8.43935 19.093 7.64349 18.6676 7.01883 18.0429C6.39418 17.4183 5.96878 16.6224 5.79644 15.756C5.6241 14.8896 5.71255 13.9915 6.05061 13.1754C6.38867 12.3592 6.96116 11.6616 7.69568 11.1708C8.43019 10.6801 9.29375 10.4181 10.1771 10.4181C10.2704 10.4181 10.3615 10.4265 10.4532 10.4322V12.6333C10.3615 12.6223 10.2714 12.6055 10.1771 12.6055C9.57255 12.6055 8.99272 12.8457 8.56521 13.2732C8.1377 13.7007 7.89752 14.2806 7.89752 14.8851C7.89752 15.4897 8.1377 16.0696 8.56521 16.4971C8.99272 16.9246 9.57255 17.1648 10.1771 17.1648C11.4364 17.1648 12.5484 16.1727 12.5484 14.9134L12.5704 4.64991H14.6761C14.7724 5.56484 15.1871 6.41684 15.8479 7.05694C16.5087 7.69704 17.3734 8.0845 18.291 8.15157V10.5978" fill="black"/>
</svg>
