<svg width="24" height="24" viewBox="0 0 24 24" fill="none" xmlns="http://www.w3.org/2000/svg">
<rect x="1" y="1" width="22" height="22" rx="11" fill="#5DA8DC"/>
<path d="M9.83808 17.8412C14.9689 17.8412 17.7748 13.6096 17.7748 9.94014C17.7748 9.81996 17.7723 9.70034 17.7669 9.58121C18.3128 9.18793 18.784 8.701 19.1583 8.14323C18.6585 8.36444 18.1207 8.51333 17.5564 8.58045C18.1324 8.23668 18.5745 7.69281 18.7831 7.04452C18.2355 7.3679 17.6365 7.59585 17.0118 7.71858C16.5028 7.17881 15.7781 6.84122 14.9756 6.84122C13.4352 6.84122 12.186 8.08482 12.186 9.61775C12.186 9.83569 12.2105 10.0476 12.2584 10.2509C9.94 10.1348 7.88423 9.0298 6.5084 7.34958C6.2606 7.77337 6.13026 8.25501 6.13069 8.74532C6.13069 9.70875 6.62314 10.5592 7.37203 11.0568C6.92905 11.0434 6.4958 10.9242 6.1087 10.7095C6.10828 10.7212 6.10828 10.7325 6.10828 10.745C6.10828 12.0898 7.06979 13.2127 8.34616 13.4671C8.10644 13.5321 7.85908 13.5649 7.61062 13.5648C7.43119 13.5648 7.25632 13.5472 7.08637 13.5148C7.4415 14.6181 8.47126 15.421 9.69217 15.4435C8.73744 16.1884 7.53476 16.6321 6.22763 16.6321C6.00527 16.6323 5.7831 16.6195 5.56226 16.5937C6.79679 17.3814 8.26268 17.841 9.83822 17.841" fill="white"/>
</svg>
