<svg width="24" height="24" viewBox="0 0 24 24" fill="none" xmlns="http://www.w3.org/2000/svg">
<g clip-path="url(#clip0_12752_27975)">
<path d="M23 5.2392C22.1819 5.59469 21.3101 5.83032 20.4012 5.94473C21.3363 5.39174 22.0499 4.52277 22.3854 3.47537C21.5136 3.99022 20.5511 4.35388 19.5254 4.55682C18.6976 3.68376 17.5179 3.14304 16.2309 3.14304C13.7339 3.14304 11.7236 5.15067 11.7236 7.61185C11.7236 7.96598 11.7539 8.30648 11.8281 8.63065C8.0785 8.4495 4.76063 6.66933 2.53175 3.95753C2.14262 4.62628 1.91438 5.39174 1.91438 6.21577C1.91438 7.76304 2.71875 9.1346 3.91775 9.92866C3.19313 9.91504 2.48225 9.70665 1.88 9.3784C1.88 9.39202 1.88 9.40973 1.88 9.42743C1.88 11.5985 3.44337 13.4018 5.4935 13.8173C5.12637 13.9167 4.72625 13.9643 4.311 13.9643C4.02225 13.9643 3.73075 13.948 3.45712 13.8881C4.0415 15.6574 5.69975 16.9581 7.6715 17.0003C6.137 18.1894 4.18863 18.9058 2.07938 18.9058C1.7095 18.9058 1.35475 18.8894 1 18.8445C2.99787 20.1207 5.36562 20.8494 7.919 20.8494C16.2185 20.8494 20.756 14.0393 20.756 8.13623C20.756 7.93874 20.7491 7.74805 20.7395 7.55873C21.6346 6.92947 22.3867 6.14358 23 5.2392Z" fill="#03A9F4"/>
</g>
<defs>
<clipPath id="clip0_12752_27975">
<rect width="22" height="21.7925" fill="white" transform="translate(1 1.10001)"/>
</clipPath>
</defs>
</svg>
