<svg width="24" height="24" viewBox="0 0 24 24" fill="none" xmlns="http://www.w3.org/2000/svg">
<g clip-path="url(#clip0_15000_4417)">
<path d="M12.8267 9.96664C13.9308 9.03158 15.3448 8.54337 16.7907 8.59801C18.2365 8.65264 19.6097 9.24616 20.6401 10.2619C22.8566 12.4657 23.0211 15.8357 20.5452 18.2272L18.0694 20.6566C17.6752 21.043 17.1452 21.2595 16.5931 21.2595C16.0411 21.2595 15.5111 21.043 15.1169 20.6566C14.9247 20.4677 14.7723 20.2423 14.6686 19.9935C14.5649 19.7448 14.5121 19.4778 14.5133 19.2083C14.5145 18.9388 14.5696 18.6723 14.6755 18.4245C14.7813 18.1767 14.9357 17.9525 15.1296 17.7653L17.6139 15.3232C18.2956 14.67 18.69 13.7729 18.7106 12.829C18.7312 11.885 18.3761 10.9716 17.7235 10.2893C17.0894 9.64339 16.2398 9.2535 15.3366 9.19399C14.4335 9.13448 13.54 9.40951 12.8267 9.96664Z" fill="url(#paint0_linear_15000_4417)"/>
<g opacity="0.2">
<path d="M12.9491 9.98777L12.8584 10.0637L12.9617 9.98566L12.9491 9.98777Z" fill="url(#paint1_linear_15000_4417)"/>
<path d="M14.3346 9.34033C14.8428 9.23275 15.368 9.23275 15.8762 9.34033C16.8759 9.46912 17.8064 9.91995 18.5271 10.6246C20.4799 12.5501 20.1931 15.8842 17.9661 18.0501L15.4966 20.4458C15.4128 20.5293 15.3225 20.6062 15.2267 20.6756C15.6242 21.0285 16.1402 21.2182 16.6716 21.2069C17.203 21.1955 17.7106 20.984 18.0926 20.6145L20.5601 18.2103C21.0928 17.7044 21.5188 17.0968 21.8127 16.4234C22.1067 15.75 22.2627 15.0246 22.2716 14.2899C22.2804 13.5552 22.1419 12.8262 21.8643 12.146C21.5866 11.4657 21.1754 10.848 20.655 10.3294C19.7365 9.43339 18.5476 8.86611 17.2733 8.71583C15.999 8.56556 14.7108 8.84072 13.6091 9.49849C13.8473 9.43004 14.0896 9.37721 14.3346 9.34033Z" fill="url(#paint2_linear_15000_4417)"/>
</g>
<path d="M20.5916 10.2661C19.5723 9.28802 18.2279 8.72049 16.8161 8.67223C15.4043 8.62398 14.0243 9.0984 12.9405 10.0046C12.838 10.084 12.7402 10.1692 12.6474 10.2598L10.1484 12.685C9.77151 13.0472 9.2724 13.2547 8.74984 13.2664C8.22728 13.2781 7.71937 13.0932 7.32666 12.7482L7.39204 12.8178C7.78117 13.1911 8.29952 13.3995 8.83874 13.3995C9.37795 13.3995 9.8963 13.1911 10.2854 12.8178L12.7824 10.3968C12.8758 10.3062 12.9744 10.221 13.0776 10.1417C14.1491 9.24723 15.5099 8.77415 16.9051 8.81103C18.3004 8.84791 19.6343 9.39222 20.657 10.342C20.6383 10.3142 20.6163 10.2887 20.5916 10.2661Z" fill="url(#paint3_linear_15000_4417)"/>
<path d="M7.18334 12.9064C6.99339 12.7175 6.84265 12.4929 6.73979 12.2455C6.63694 11.9982 6.58398 11.7329 6.58398 11.465C6.58398 11.1971 6.63694 10.9318 6.73979 10.6845C6.84265 10.4371 6.99339 10.2125 7.18334 10.0236L9.67395 7.53506C11.109 6.11572 13.0472 5.32168 15.0656 5.32625C17.084 5.33082 19.0186 6.13362 20.4472 7.55944C21.8758 8.98526 22.6824 10.9183 22.6909 12.9367C22.6994 14.955 21.9091 16.8948 20.4926 18.3326C21.5271 17.3081 22.1217 15.9209 22.1501 14.4652C22.1786 13.0095 21.6387 11.6001 20.6451 10.5359C19.6515 9.47176 18.2823 8.83667 16.8281 8.76542C15.3739 8.69418 13.9492 9.19238 12.8563 10.1543C12.7541 10.2364 12.6563 10.3237 12.5631 10.4158L10.0683 12.9064C9.87871 13.0963 9.65352 13.247 9.40565 13.3497C9.15777 13.4525 8.89206 13.5054 8.62372 13.5054C8.35537 13.5054 8.08966 13.4525 7.84178 13.3497C7.59391 13.247 7.36872 13.0963 7.17912 12.9064H7.18334Z" fill="url(#paint4_linear_15000_4417)"/>
<g opacity="0.2">
<path d="M20.7307 10.3104C19.7097 9.30568 18.3489 8.72069 16.9173 8.6711C15.4857 8.6215 14.0876 9.11091 12.9995 10.0425C12.8955 10.124 12.7962 10.2113 12.7022 10.304L10.1715 12.7968C9.88473 13.0802 9.52175 13.2742 9.12673 13.3551C8.7317 13.436 8.32169 13.4002 7.9466 13.2523C7.57165 13.1054 7.24858 12.8507 7.01815 12.5205C6.78771 12.1902 6.66022 11.7991 6.65174 11.3965C6.64163 11.8066 6.75561 12.2103 6.97875 12.5546C7.20189 12.8989 7.5238 13.1678 7.90232 13.3261C8.28254 13.4869 8.70193 13.5313 9.10739 13.4536C9.51284 13.3758 9.88611 13.1796 10.1799 12.8896L12.7106 10.3968C12.8024 10.3035 12.8988 10.2148 12.9995 10.1311C13.8225 9.42817 14.8278 8.9727 15.8989 8.81743C16.9701 8.66217 18.0633 8.81347 19.052 9.25382C20.0355 9.68843 20.8732 10.3966 21.4655 11.294C22.0578 12.1913 22.3796 13.2401 22.3925 14.3152C22.398 13.5703 22.2537 12.832 21.9682 12.1441C21.6827 11.4561 21.2619 10.8325 20.7307 10.3104Z" fill="#F7F7F7"/>
<path d="M21.6671 17.139C21.4141 17.5765 21.1035 17.978 20.7434 18.3326C21.4659 17.6199 22.0379 16.7694 22.4255 15.8316C22.8132 14.8937 23.0085 13.8875 22.9999 12.8727C22.9938 14.3963 22.5294 15.8828 21.6671 17.139Z" fill="#F7F7F7"/>
</g>
<path d="M7.18546 12.548C7.57179 12.9266 8.09119 13.1387 8.63216 13.1387C9.17313 13.1387 9.69253 12.9266 10.0789 12.548L12.5737 10.0869C12.6671 9.99557 12.7657 9.90967 12.8689 9.82959C13.8128 9.02534 14.9939 8.55222 16.232 8.48253C17.47 8.41284 18.6968 8.75041 19.725 9.44366C19.6325 8.10038 19.1543 6.81232 18.3478 5.73411C16.9209 5.07597 15.3276 4.86713 13.7793 5.1353C12.2309 5.40346 10.8007 6.13596 9.67817 7.23565L7.18546 9.69673C6.99517 9.8822 6.84394 10.1039 6.74068 10.3487C6.63743 10.5936 6.58423 10.8566 6.58423 11.1223C6.58423 11.3881 6.63743 11.6511 6.74068 11.8959C6.84394 12.1408 6.99517 12.3625 7.18546 12.548Z" fill="url(#paint5_linear_15000_4417)"/>
<path opacity="0.2" d="M7.1855 12.5501C7.57448 12.9286 8.0958 13.1403 8.63853 13.1403C9.18126 13.1403 9.70258 12.9286 10.0916 12.5501L12.599 10.089C12.6925 9.99769 12.7911 9.91179 12.8943 9.8317C13.9161 8.96636 15.2093 8.48727 16.5483 8.47802C17.8872 8.46877 19.1869 8.92995 20.2206 9.78109C21.2451 10.6195 21.9303 11.8014 22.1487 13.1072C22.3671 14.4129 22.1038 15.7535 21.4079 16.8796C21.3889 16.9324 21.3678 16.9851 21.3467 17.0378C21.5154 16.8099 21.671 16.5726 21.8128 16.3271C22.4606 14.7083 22.5221 12.914 21.9868 11.2545C21.4515 9.59514 20.3531 8.17502 18.8814 7.23987C17.3997 6.28628 15.6388 5.86228 13.8854 6.03689C12.132 6.2115 10.4894 6.97444 9.2248 8.20152L6.711 10.6626C6.67726 10.6963 6.64773 10.7301 6.61821 10.7659C6.55923 11.087 6.58012 11.4177 6.67905 11.7289C6.77797 12.04 6.9519 12.322 7.1855 12.5501Z" fill="url(#paint6_linear_15000_4417)"/>
<path d="M7.18334 12.8727C7.37272 13.0622 7.59759 13.2125 7.8451 13.3151C8.09261 13.4177 8.3579 13.4705 8.62582 13.4705C8.89374 13.4705 9.15904 13.4177 9.40654 13.3151C9.65405 13.2125 9.87892 13.0622 10.0683 12.8727L12.5568 10.3947C12.6485 10.302 12.745 10.214 12.8457 10.1311C13.9306 9.19198 15.3349 8.70575 16.7683 8.77299C16.2056 7.67229 15.4717 6.6679 14.594 5.79734C14.4365 5.64409 14.2763 5.49436 14.1132 5.34814C12.4312 5.55557 10.8667 6.31854 9.66762 7.51609L7.18334 9.99404C6.99345 10.1819 6.84271 10.4056 6.73983 10.6521C6.63696 10.8986 6.58398 11.1631 6.58398 11.4302C6.58398 11.6973 6.63696 11.9618 6.73983 12.2083C6.84271 12.4548 6.99345 12.6785 7.18334 12.8664V12.8727Z" fill="url(#paint7_linear_15000_4417)"/>
<path d="M18.5313 13.8301L18.487 13.788C18.3058 14.3614 17.9872 14.8819 17.5591 15.3043L15.077 17.7548C14.8847 17.9442 14.732 18.1699 14.6278 18.4188C14.5236 18.6677 14.47 18.9348 14.47 19.2047C14.47 19.4745 14.5236 19.7417 14.6278 19.9906C14.732 20.2395 14.8847 20.4652 15.077 20.6545C15.4683 21.0399 15.9955 21.2559 16.5448 21.2559C17.094 21.2559 17.6212 21.0399 18.0125 20.6545L19.9506 18.7397C20.2775 16.9197 19.8199 15.0997 18.5313 13.8301Z" fill="url(#paint8_linear_15000_4417)"/>
<path d="M15.0411 17.8075C14.674 18.1926 14.4692 18.7042 14.4692 19.2363C14.4692 19.7683 14.674 20.2799 15.0411 20.665C15.2147 20.8486 15.4232 20.9956 15.6544 21.0974C15.8855 21.1993 16.1347 21.254 16.3873 21.2584C16.6399 21.2627 16.8908 21.2165 17.1253 21.1226C17.3599 21.0287 17.5733 20.8889 17.7531 20.7114C17.3817 21.0116 16.9108 21.1607 16.4343 21.129C15.9578 21.0974 15.5108 20.8873 15.1823 20.5406C14.8145 20.1563 14.6091 19.6449 14.6091 19.1129C14.6091 18.5809 14.8145 18.0695 15.1823 17.6852" fill="url(#paint9_linear_15000_4417)"/>
<path d="M11.1838 14.0389C10.0803 14.9712 8.66826 15.4575 7.22471 15.4025C5.78117 15.3474 4.41026 14.7551 3.38088 13.7416C1.15389 11.5378 0.999941 8.16776 3.46313 5.77628L5.93687 3.34894C6.33108 2.96253 6.86108 2.74609 7.41309 2.74609C7.9651 2.74609 8.49511 2.96253 8.88932 3.34894C9.08281 3.5365 9.23665 3.76102 9.34171 4.00917C9.44677 4.25732 9.50091 4.52405 9.50091 4.79353C9.50091 5.06301 9.44677 5.32974 9.34171 5.57789C9.23665 5.82604 9.08281 6.05056 8.88932 6.23812L6.3945 8.68655C6.05644 9.00919 5.78534 9.39535 5.59672 9.82291C5.4081 10.2505 5.30567 10.711 5.29529 11.1782C5.28491 11.6454 5.36678 12.1101 5.53622 12.5456C5.70566 12.9811 5.95933 13.3789 6.28272 13.7163C6.91726 14.3629 7.76769 14.7532 8.6717 14.8127C9.5757 14.8723 10.47 14.5968 11.1838 14.0389Z" fill="url(#paint10_linear_15000_4417)"/>
<g opacity="0.2">
<path d="M11.0931 14.0748L11.1837 13.9988L11.0825 14.0748H11.0931Z" fill="url(#paint11_linear_15000_4417)"/>
<path d="M9.66539 14.6927C9.15726 14.8012 8.63192 14.8012 8.12379 14.6927C7.12311 14.5637 6.19173 14.1121 5.4708 13.4062C3.52007 11.466 3.80477 8.10868 6.03809 5.92808L8.50128 3.50918C8.5856 3.4266 8.6766 3.35113 8.77333 3.28353C8.37544 2.93035 7.85876 2.74061 7.32687 2.75234C6.79497 2.76408 6.28716 2.97641 5.90523 3.34679L3.43783 5.7657C2.90324 6.27784 2.47612 6.89142 2.18144 7.57056C1.88675 8.2497 1.73042 8.98078 1.72159 9.72105C1.71275 10.4613 1.85159 11.1959 2.12997 11.8819C2.40836 12.5679 2.82071 13.1915 3.34293 13.7162C4.2591 14.6169 5.44878 15.1874 6.7247 15.3378C8.00062 15.4882 9.29034 15.2101 10.3909 14.5471C10.1524 14.6113 9.91011 14.6599 9.66539 14.6927Z" fill="url(#paint12_linear_15000_4417)"/>
</g>
<path d="M3.41035 13.7416C4.43134 14.7393 5.78825 15.3197 7.21497 15.3689C8.6417 15.418 10.0353 14.9324 11.1226 14.0073C11.227 13.9271 11.3263 13.8405 11.4199 13.7479L13.9253 11.2763C14.303 10.9076 14.8066 10.6961 15.3342 10.6843C15.8619 10.6726 16.3743 10.8615 16.7681 11.213C16.7449 11.1898 16.7259 11.1645 16.7027 11.1413C16.3133 10.7603 15.7902 10.5469 15.2455 10.5469C14.7007 10.5469 14.1776 10.7603 13.7882 11.1413L11.2744 13.6108C11.1798 13.703 11.0806 13.7903 10.9771 13.8723C9.90326 14.7838 8.53117 15.2675 7.12316 15.2309C5.71514 15.1944 4.37001 14.6401 3.34497 13.6741L3.41035 13.7416Z" fill="url(#paint13_linear_15000_4417)"/>
<path d="M16.4961 11.4239C16.6867 11.6127 16.8379 11.8374 16.9411 12.085C17.0443 12.3326 17.0974 12.5982 17.0974 12.8664C17.0974 13.1346 17.0443 13.4002 16.9411 13.6478C16.8379 13.8954 16.6867 14.1201 16.4961 14.3089L14.0055 16.7953C12.5702 18.2143 10.6318 19.0079 8.6135 19.0029C6.59516 18.9979 4.66074 18.1947 3.23244 16.7686C1.80415 15.3426 0.997947 13.4094 0.989808 11.3911C0.98167 9.37275 1.77225 7.43315 3.189 5.99561C2.16637 7.02284 1.58195 8.40662 1.55866 9.8559C1.53537 11.3052 2.07502 12.707 3.06411 13.7666C4.0532 14.8262 5.41464 15.4609 6.86211 15.5372C8.30957 15.6136 9.73024 15.1256 10.8253 14.176C10.9289 14.0933 11.0282 14.0053 11.1227 13.9124L13.6133 11.4239C13.9964 11.0416 14.5155 10.8268 15.0568 10.8268C15.5981 10.8268 16.1172 11.0416 16.5004 11.4239H16.4961Z" fill="url(#paint14_linear_15000_4417)"/>
<g opacity="0.2">
<path d="M3.34924 14.0537C4.36176 15.0579 5.71571 15.6435 7.14093 15.6936C8.56615 15.7436 9.95783 15.2544 11.0383 14.3236C11.1416 14.2414 11.2401 14.1533 11.3335 14.06L13.8431 11.5673C14.1281 11.2832 14.4901 11.0887 14.8843 11.0077C15.2785 10.9268 15.6878 10.963 16.0617 11.1118C16.4346 11.2596 16.7558 11.5141 16.9849 11.8434C17.2141 12.1727 17.3411 12.5623 17.3502 12.9634C17.3585 12.5535 17.244 12.1506 17.0214 11.8063C16.7988 11.4621 16.4783 11.1924 16.1012 11.0318C15.724 10.8712 15.3074 10.8272 14.905 10.9053C14.5026 10.9834 14.1328 11.1802 13.8431 11.4703L11.3335 13.963C11.2406 14.0562 11.142 14.1435 11.0383 14.2245C10.2225 14.9283 9.223 15.3848 8.15694 15.5406C7.09087 15.6964 6.00249 15.5449 5.01949 15.1039C4.03929 14.6669 3.20519 13.9576 2.61637 13.0604C2.02756 12.1631 1.70879 11.1157 1.69798 10.0425C1.69129 10.7875 1.83396 11.5263 2.11757 12.2153C2.40119 12.9042 2.81999 13.5293 3.34924 14.0537Z" fill="#F7F7F7"/>
<path d="M2.43186 7.22718C2.68233 6.78778 2.9909 6.38416 3.34923 6.02722C2.62793 6.74121 2.05671 7.59226 1.66918 8.53028C1.28166 9.46831 1.08566 10.4744 1.09271 11.4893C1.10153 9.96641 1.56812 8.48141 2.43186 7.22718Z" fill="#F7F7F7"/>
</g>
<path d="M16.8167 11.4576C16.4304 11.0789 15.911 10.8668 15.37 10.8668C14.829 10.8668 14.3096 11.0789 13.9233 11.4576L11.4369 13.9271C11.342 14.0178 11.245 14.1043 11.1417 14.1865C10.1964 14.9889 9.0145 15.4597 7.77648 15.5271C6.53846 15.5945 5.31241 15.2548 4.28564 14.5598C4.37663 15.904 4.85493 17.1932 5.66275 18.2714C7.08899 18.9295 8.68164 19.1384 10.2293 18.8702C11.777 18.602 13.2065 17.8695 14.3282 16.7699L16.8167 14.3088C17.0062 14.1229 17.1567 13.9011 17.2595 13.6563C17.3623 13.4115 17.4152 13.1487 17.4152 12.8832C17.4152 12.6177 17.3623 12.3549 17.2595 12.1101C17.1567 11.8654 17.0062 11.6435 16.8167 11.4576Z" fill="url(#paint15_linear_15000_4417)"/>
<path opacity="0.2" d="M16.8167 11.1287C16.4278 10.7502 15.9064 10.5384 15.3637 10.5384C14.821 10.5384 14.2997 10.7502 13.9107 11.1287L11.4116 13.5876C11.3167 13.6783 11.2197 13.7648 11.1164 13.847C10.0939 14.7104 8.80096 15.188 7.4627 15.1964C6.12443 15.2049 4.82557 14.7438 3.7922 13.8934C2.76867 13.0562 2.08405 11.8757 1.86565 10.5716C1.64726 9.2674 1.90996 7.9283 2.60489 6.80331C2.62387 6.75059 2.64285 6.69786 2.66394 6.64514C2.49478 6.8727 2.33916 7.11001 2.19787 7.35584C1.54866 8.97428 1.48613 10.7689 2.02113 12.4285C2.55613 14.0882 3.65494 15.5085 5.12713 16.4431C6.61036 17.398 8.37339 17.8222 10.1286 17.6464C11.8839 17.4706 13.5278 16.7052 14.7922 15.4751L17.2997 13.0161C17.3313 12.9824 17.3629 12.9486 17.3925 12.9128C17.4506 12.591 17.4284 12.2598 17.328 11.9486C17.2276 11.6374 17.052 11.3558 16.8167 11.1287Z" fill="url(#paint16_linear_15000_4417)"/>
<path d="M16.4984 11.4619C16.1155 11.0808 15.5972 10.8669 15.057 10.8669C14.5167 10.8669 13.9985 11.0808 13.6155 11.4619L11.1228 13.9419C11.0294 14.0346 10.9308 14.1219 10.8276 14.2034C9.74314 15.1433 8.33848 15.6297 6.90503 15.5616C7.46924 16.6623 8.20614 17.6654 9.08774 18.533C9.24661 18.6862 9.40688 18.836 9.56856 18.9822C11.2489 18.7734 12.8116 18.0106 14.0099 16.8142L16.4963 14.3363C16.6865 14.1484 16.8375 13.9246 16.9406 13.6779C17.0436 13.4312 17.0967 13.1665 17.0967 12.8991C17.0967 12.6317 17.0436 12.367 16.9406 12.1203C16.8375 11.8736 16.6865 11.6498 16.4963 11.4619H16.4984Z" fill="url(#paint17_linear_15000_4417)"/>
<path d="M5.48137 10.1754C5.49402 10.1902 5.51089 10.2028 5.52565 10.2176C5.70578 9.64536 6.0237 9.12613 6.45146 8.70552L8.93152 6.25076C9.12454 6.06184 9.27789 5.83629 9.38259 5.58732C9.48728 5.33835 9.54121 5.07098 9.54121 4.8009C9.54121 4.53081 9.48728 4.26344 9.38259 4.01447C9.27789 3.76551 9.12454 3.53995 8.93152 3.35103C8.54016 2.96568 8.01296 2.74969 7.46373 2.74969C6.9145 2.74969 6.3873 2.96568 5.99594 3.35103L4.05786 5.2638C3.74153 7.08588 4.19283 8.90375 5.48137 10.1754Z" fill="url(#paint18_linear_15000_4417)"/>
<path d="M8.6384 6.19805C9.00642 5.81341 9.21182 5.3016 9.21182 4.76927C9.21182 4.23693 9.00642 3.72513 8.6384 3.34049C8.46481 3.1573 8.25642 3.01056 8.02544 2.90888C7.79446 2.80719 7.54551 2.75258 7.29317 2.74826C7.04084 2.74394 6.79017 2.78999 6.55584 2.88371C6.32151 2.97744 6.10823 3.11695 5.92847 3.2941C6.29988 2.99395 6.77078 2.84485 7.24726 2.87651C7.72374 2.90817 8.17077 3.11827 8.49921 3.46492C8.86613 3.84969 9.07082 4.36096 9.07082 4.89264C9.07082 5.42432 8.86613 5.93558 8.49921 6.32036" fill="url(#paint19_linear_15000_4417)"/>
</g>
<defs>
<linearGradient id="paint0_linear_15000_4417" x1="14.2877" y1="19.5818" x2="21.357" y2="11.1825" gradientUnits="userSpaceOnUse">
<stop stop-color="#23C4FE"/>
<stop offset="1" stop-color="#4F3EFB"/>
</linearGradient>
<linearGradient id="paint1_linear_15000_4417" x1="14.6479" y1="5.48883" x2="11.7159" y2="12.1004" gradientUnits="userSpaceOnUse">
<stop stop-color="white" stop-opacity="0.5"/>
<stop offset="1" stop-color="white" stop-opacity="0"/>
</linearGradient>
<linearGradient id="paint2_linear_15000_4417" x1="14.6495" y1="-0.308631" x2="10.8187" y2="-7.46123" gradientUnits="userSpaceOnUse">
<stop stop-color="white" stop-opacity="0.5"/>
<stop offset="1" stop-color="white" stop-opacity="0"/>
</linearGradient>
<linearGradient id="paint3_linear_15000_4417" x1="-615.371" y1="-119.254" x2="-612.149" y2="-113.936" gradientUnits="userSpaceOnUse">
<stop stop-color="#23C4FE"/>
<stop offset="1" stop-color="#0058FB"/>
</linearGradient>
<linearGradient id="paint4_linear_15000_4417" x1="21.5515" y1="18.088" x2="13.4158" y2="5.55414" gradientUnits="userSpaceOnUse">
<stop stop-color="#23C4FE"/>
<stop offset="1" stop-color="#4F3EFB"/>
</linearGradient>
<linearGradient id="paint5_linear_15000_4417" x1="18.2277" y1="5.38564" x2="14.0382" y2="16.1715" gradientUnits="userSpaceOnUse">
<stop stop-color="white" stop-opacity="0.05"/>
<stop offset="1" stop-color="white" stop-opacity="0"/>
</linearGradient>
<linearGradient id="paint6_linear_15000_4417" x1="-128.483" y1="11.8361" x2="-113.539" y2="11.8361" gradientUnits="userSpaceOnUse">
<stop stop-color="white" stop-opacity="0.5"/>
<stop offset="1" stop-color="white" stop-opacity="0"/>
</linearGradient>
<linearGradient id="paint7_linear_15000_4417" x1="11.999" y1="72.9004" x2="11.999" y2="62.6839" gradientUnits="userSpaceOnUse">
<stop stop-color="white" stop-opacity="0.05"/>
<stop offset="1" stop-color="white" stop-opacity="0"/>
</linearGradient>
<linearGradient id="paint8_linear_15000_4417" x1="14.4369" y1="4.22729" x2="11.6506" y2="-1.92167" gradientUnits="userSpaceOnUse">
<stop stop-color="white" stop-opacity="0.05"/>
<stop offset="1" stop-color="white" stop-opacity="0"/>
</linearGradient>
<linearGradient id="paint9_linear_15000_4417" x1="16.5958" y1="21.7177" x2="14.1716" y2="17.717" gradientUnits="userSpaceOnUse">
<stop stop-color="#23C4FE"/>
<stop offset="1" stop-color="#0058FB"/>
</linearGradient>
<linearGradient id="paint10_linear_15000_4417" x1="10.0815" y1="3.63317" x2="3.0123" y2="12.0325" gradientUnits="userSpaceOnUse">
<stop stop-color="#23C4FE"/>
<stop offset="1" stop-color="#4F3EFB"/>
</linearGradient>
<linearGradient id="paint11_linear_15000_4417" x1="10.2008" y1="15.1825" x2="13.1332" y2="8.5705" gradientUnits="userSpaceOnUse">
<stop stop-color="white" stop-opacity="0.5"/>
<stop offset="1" stop-color="white" stop-opacity="0"/>
</linearGradient>
<linearGradient id="paint12_linear_15000_4417" x1="4.72159" y1="14.9286" x2="10.9524" y2="10.1252" gradientUnits="userSpaceOnUse">
<stop stop-color="white" stop-opacity="0.5"/>
<stop offset="1" stop-color="white" stop-opacity="0"/>
</linearGradient>
<linearGradient id="paint13_linear_15000_4417" x1="642.603" y1="145.805" x2="639.303" y2="140.422" gradientUnits="userSpaceOnUse">
<stop stop-color="#23C4FE"/>
<stop offset="1" stop-color="#0058FB"/>
</linearGradient>
<linearGradient id="paint14_linear_15000_4417" x1="2.85552" y1="7.14902" x2="10.9912" y2="19.6829" gradientUnits="userSpaceOnUse">
<stop stop-color="#23C4FE"/>
<stop offset="1" stop-color="#4F3EFB"/>
</linearGradient>
<linearGradient id="paint15_linear_15000_4417" x1="6.50095" y1="18.9034" x2="10.6849" y2="8.08479" gradientUnits="userSpaceOnUse">
<stop stop-color="white" stop-opacity="0.05"/>
<stop offset="1" stop-color="white" stop-opacity="0"/>
</linearGradient>
<linearGradient id="paint16_linear_15000_4417" x1="2.67862" y1="6.54634" x2="8.93298" y2="19.0566" gradientUnits="userSpaceOnUse">
<stop stop-color="white" stop-opacity="0.5"/>
<stop offset="1" stop-color="white" stop-opacity="0"/>
</linearGradient>
<linearGradient id="paint17_linear_15000_4417" x1="8.94062" y1="18.1675" x2="14.321" y2="9.74094" gradientUnits="userSpaceOnUse">
<stop stop-color="white" stop-opacity="0.05"/>
<stop offset="1" stop-color="white" stop-opacity="0"/>
</linearGradient>
<linearGradient id="paint18_linear_15000_4417" x1="6.065" y1="7.23751" x2="10.9078" y2="2.77379" gradientUnits="userSpaceOnUse">
<stop stop-color="white" stop-opacity="0.05"/>
<stop offset="1" stop-color="white" stop-opacity="0"/>
</linearGradient>
<linearGradient id="paint19_linear_15000_4417" x1="5.96196" y1="1.19602" x2="8.38678" y2="5.21416" gradientUnits="userSpaceOnUse">
<stop stop-color="#23C4FE"/>
<stop offset="1" stop-color="#0058FB"/>
</linearGradient>
<clipPath id="clip0_15000_4417">
<rect width="22" height="18.5056" fill="white" transform="translate(1 2.75)"/>
</clipPath>
</defs>
</svg>
