<svg width="14" height="14" viewBox="0 0 14 14" fill="none" xmlns="http://www.w3.org/2000/svg">
<path d="M7.00016 13.4173C6.45311 13.1808 3.89532 12.0423 3.06736 11.3622C2.10634 10.5786 1.58887 9.44017 1.58887 8.09474V1.81113C3.1265 0.983178 4.9007 0.583984 7.00016 0.583984C9.09962 0.583984 10.8738 0.983178 12.4114 1.81113V8.07995C12.4114 9.42538 11.9088 10.5638 10.933 11.3474C10.105 12.0423 7.5472 13.1808 7.00016 13.4173Z" fill="#150400"/>
<path d="M11.7611 2.06279C11.1106 2.00365 10.4452 1.9593 9.75034 1.9593C7.22211 1.9593 4.50168 2.50634 2.25437 4.56145V8.08027C2.25437 9.23349 2.68313 10.1797 3.48152 10.8451C4.1912 11.4217 6.37937 12.4123 7.00034 12.6932C7.60652 12.427 9.79469 11.4512 10.5192 10.8451C11.3323 10.1797 11.7463 9.24828 11.7463 8.08027V2.06279M2.72749 7.72543V4.85715H3.64415V7.755C3.64415 8.00634 3.70329 8.39075 4.11727 8.39075C4.29469 8.39075 4.44254 8.3464 4.54603 8.27247V4.85715H5.44792V8.80473C5.09308 9.04129 4.63474 9.17435 4.07292 9.17435C3.17103 9.17435 2.72749 8.68645 2.72749 7.72543ZM6.82292 11.0225H5.90625V5.09371C6.23152 4.88672 6.63071 4.76844 7.1334 4.76844C8.22749 4.76844 8.81888 5.5964 8.81888 6.91226C8.81888 8.2429 8.24227 9.14478 7.22211 9.14478C7.02991 9.14478 6.89684 9.11521 6.80813 9.10043L6.82292 11.0225ZM6.82292 8.36118C6.88206 8.39075 7.00034 8.42032 7.11862 8.42032C7.63609 8.42032 7.88743 7.93242 7.88743 6.94183C7.88743 5.92166 7.66566 5.50769 7.1334 5.50769C7.01512 5.50769 6.88206 5.53726 6.80813 5.56683L6.82292 8.36118ZM9.02587 5.95123C9.02587 5.21199 9.64684 4.78322 10.253 4.76844C10.7557 4.75365 11.0958 4.94586 11.2584 5.06414V5.86252C11.0662 5.67032 10.7557 5.4929 10.4452 5.4929C10.1939 5.4929 9.91297 5.61118 9.91297 5.92166C9.89818 6.24693 10.1791 6.38 10.5044 6.58699C11.2584 7.03054 11.4062 7.42973 11.3915 7.96199C11.3767 8.5386 10.9775 9.17435 10.0756 9.17435C9.72077 9.17435 9.36593 9.05607 9.07023 8.89344V8.0507C9.30679 8.25769 9.64684 8.42032 9.94254 8.42032C10.2826 8.42032 10.4896 8.22812 10.4896 7.91763C10.4896 7.63672 10.3269 7.47408 9.92775 7.23752C9.17372 6.79398 9.04066 6.43914 9.02587 5.95123ZM3.18582 11.2147C2.26915 10.4606 1.78125 9.38134 1.78125 8.08027V1.92973C3.23017 1.16091 4.98958 0.761719 7.01512 0.761719C9.04066 0.761719 10.8001 1.14613 12.249 1.92973V8.09505C12.249 9.39613 11.7611 10.4754 10.8444 11.2295C10.0017 11.9244 7.3256 13.0924 7.01512 13.2254C6.70464 13.0776 4.02856 11.9096 3.18582 11.2147ZM10.3417 12.5158V13.048H10.4452V12.8262H10.46C10.46 12.841 10.6079 13.048 10.6079 13.048H10.7261C10.7261 13.048 10.5783 12.841 10.5635 12.8114C10.6374 12.7967 10.6818 12.7375 10.6818 12.6636C10.6818 12.5897 10.6374 12.501 10.5044 12.501L10.3417 12.5158ZM10.4896 12.5897C10.5783 12.5897 10.5783 12.634 10.5783 12.6636C10.5783 12.708 10.5635 12.7523 10.46 12.7523H10.4452V12.5897H10.4896ZM10.8592 12.7819C10.8592 12.9741 10.6966 13.1367 10.5044 13.1367C10.3122 13.1367 10.1495 12.9741 10.1495 12.7819C10.1495 12.5897 10.3122 12.4123 10.5044 12.4123C10.6966 12.4123 10.8592 12.5749 10.8592 12.7819ZM10.5044 12.3383C10.2678 12.3383 10.0608 12.5305 10.0608 12.7819C10.0608 13.0184 10.253 13.2254 10.5044 13.2254C10.7409 13.2254 10.9479 13.0332 10.9479 12.7819C10.9331 12.5305 10.7409 12.3383 10.5044 12.3383Z" fill="#F7BE00"/>
</svg>
