<svg width="24" height="24" viewBox="0 0 24 24" fill="none" xmlns="http://www.w3.org/2000/svg">
<path d="M22.7944 7.91114C22.5799 8.86165 22.2151 9.79806 21.7111 10.6942C20.3133 13.1782 17.0361 18.4172 13.2306 20.5221C12.4151 20.9737 11.5746 21.2812 10.7233 21.3864L10.683 21.3913H10.6345C10.4415 21.3913 9.74697 21.3159 8.92284 20.3448C7.96645 19.2179 7.14198 17.2756 6.47177 14.5716L6.47059 14.5658C6.46187 14.5306 5.62146 11.0252 4.35203 8.53449L4.34297 8.51564C4.34079 8.51105 4.10748 8.02637 3.56013 8.02637C3.24609 8.02637 2.88908 8.17963 2.49867 8.4822C2.10355 8.78888 1.5406 8.73347 1.21715 8.35681C0.907477 7.99572 0.931479 7.47285 1.27338 7.14061C2.24387 6.19715 4.26324 4.23434 5.82875 3.45971C5.94977 3.39972 6.07834 3.34743 6.22168 3.30006H6.22218C7.03305 3.0324 7.89914 3.09485 8.66116 3.47528C9.41882 3.85358 9.97356 4.49791 10.224 5.28975C10.3695 5.74968 10.4848 6.27714 10.5677 6.85819L10.5689 6.86704C10.6963 7.86754 10.9756 9.79855 11.4159 11.4898C12.0985 14.1108 12.7179 14.4686 12.835 14.5134L12.8458 14.518C12.8471 14.5185 12.8797 14.5314 12.9406 14.5314C13.0285 14.5314 13.1251 14.5155 13.2306 14.4773C13.8896 14.2403 14.8965 13.1439 16.2848 9.70627L16.2875 9.70054C16.2913 9.69168 16.2908 9.69168 16.3059 9.65481L16.3363 9.57695C16.4118 9.38714 16.4538 9.1957 16.4615 9.00786C16.4728 8.73052 16.435 8.33501 16.1913 8.0267C15.9078 7.66856 15.4323 7.51137 14.7382 7.54874C14.4109 7.56628 14.1058 7.41712 13.923 7.15028C13.7402 6.88344 13.7159 6.55152 13.8574 6.26206C14.2946 5.36892 15.0479 4.49332 15.9244 3.85981C17.0644 3.03568 18.4196 2.60001 19.8435 2.60001H19.8483C19.9131 2.60083 21.4417 2.62721 22.3899 4.00766C23.032 4.94325 23.168 6.25665 22.7944 7.91114Z" fill="#6AA9FF"/>
<path d="M22.794 7.91114C22.5795 8.86165 22.2147 9.79806 21.7107 10.6942C20.3129 13.1782 17.0357 18.4172 13.2302 20.5221V14.4773C13.8892 14.2403 14.8961 13.1439 16.2844 9.70627L16.2871 9.70054C16.2909 9.69168 16.2904 9.69168 16.3055 9.65481L16.3359 9.57695C16.4114 9.38714 16.4534 9.1957 16.4611 9.00786C16.4724 8.73052 16.4346 8.33501 16.1909 8.0267C15.9074 7.66856 15.4319 7.51137 14.7378 7.54874C14.4105 7.56628 14.1054 7.41712 13.9226 7.15028C13.7398 6.88344 13.7155 6.55152 13.857 6.26206C14.2942 5.36892 15.0475 4.49332 15.924 3.85981C17.064 3.03568 18.4192 2.60001 19.8431 2.60001H19.8479C19.9127 2.60083 21.4413 2.62721 22.3895 4.00766C23.0316 4.94325 23.1676 6.25665 22.794 7.91114Z" fill="#2682FF"/>
</svg>
