<svg width="50" height="16" viewBox="0 0 50 16" fill="none" xmlns="http://www.w3.org/2000/svg">
<path d="M18.3333 15.4857L20.8729 1.19995H24.8412L22.3809 15.4857H18.3333Z" fill="#3C58BF"/>
<path d="M18.3333 15.4857L21.5872 1.19995H24.8412L22.3809 15.4857H18.3333Z" fill="#293688"/>
<path d="M36.746 1.35867C35.9524 1.04121 34.6825 0.723755 33.0952 0.723755C29.127 0.723755 26.2698 2.70788 26.2698 5.56502C26.2698 7.70788 28.2539 8.81899 29.8412 9.53328C31.4285 10.2476 31.9047 10.7238 31.9047 11.3587C31.9047 12.3111 30.6349 12.7872 29.5238 12.7872C27.9365 12.7872 27.0635 12.5491 25.7143 11.9936L25.1587 11.7555L24.6031 15.0095C25.5555 15.4063 27.3016 15.8031 29.127 15.8031C33.3333 15.8031 36.1111 13.819 36.1111 10.8031C36.1111 9.13645 35.0793 7.86661 32.6984 6.83486C31.2698 6.12058 30.3968 5.72375 30.3968 5.00947C30.3968 4.37455 31.1111 3.73963 32.6984 3.73963C34.0476 3.73963 35 3.97772 35.7143 4.29518L36.1111 4.45391L36.746 1.35867Z" fill="#3C58BF"/>
<path d="M36.746 1.35867C35.9524 1.04121 34.6825 0.723755 33.0952 0.723755C29.127 0.723755 26.9841 2.70788 26.9841 5.56502C26.9841 7.70788 28.2539 8.81899 29.8412 9.53328C31.4285 10.2476 31.9047 10.7238 31.9047 11.3587C31.9047 12.3111 30.6349 12.7872 29.5238 12.7872C27.9365 12.7872 27.0635 12.5491 25.7143 11.9936L25.1587 11.7555L24.6031 15.0095C25.5555 15.4063 27.3016 15.8031 29.127 15.8031C33.3333 15.8031 36.1111 13.819 36.1111 10.8031C36.1111 9.13645 35.0793 7.86661 32.6984 6.83486C31.2698 6.12058 30.3968 5.72375 30.3968 5.00947C30.3968 4.37455 31.1111 3.73963 32.6984 3.73963C34.0476 3.73963 35 3.97772 35.7143 4.29518L36.1111 4.45391L36.746 1.35867Z" fill="#293688"/>
<path d="M43.5714 1.19995C42.619 1.19995 41.9047 1.27932 41.5079 2.2317L35.5555 15.4857H39.8413L40.6349 13.1047H45.7143L46.1905 15.4857H50L46.6666 1.19995H43.5714ZM41.746 10.7238C41.9841 10.0095 43.3333 6.51741 43.3333 6.51741C43.3333 6.51741 43.6508 5.6444 43.8889 5.08884L44.127 6.43805C44.127 6.43805 44.9206 10.0095 45.0793 10.8031H41.746V10.7238Z" fill="#3C58BF"/>
<path d="M44.5238 1.19995C43.5714 1.19995 42.8571 1.27932 42.4603 2.2317L35.5555 15.4857H39.8413L40.6349 13.1047H45.7143L46.1905 15.4857H50L46.6666 1.19995H44.5238ZM41.746 10.7238C42.0635 9.93011 43.3333 6.51741 43.3333 6.51741C43.3333 6.51741 43.6508 5.6444 43.8889 5.08884L44.127 6.43805C44.127 6.43805 44.9206 10.0095 45.0793 10.8031H41.746V10.7238Z" fill="#293688"/>
<path d="M11.0317 11.2001L10.6349 9.13656C9.92061 6.75561 7.61903 4.13656 5.07935 2.86672L8.65077 15.5651H12.9365L19.3651 1.27942H15.0793L11.0317 11.2001Z" fill="#3C58BF"/>
<path d="M11.0317 11.2001L10.6349 9.13656C9.92061 6.75561 7.61903 4.13656 5.07935 2.86672L8.65077 15.5651H12.9365L19.3651 1.27942H15.873L11.0317 11.2001Z" fill="#293688"/>
<path d="M0 1.19995L0.714285 1.35868C5.79365 2.54916 9.28571 5.56503 10.6349 9.13646L9.20635 2.39043C8.96825 1.43805 8.25397 1.19995 7.38095 1.19995H0Z" fill="#FFBC00"/>
<path d="M0 1.19995C5.07936 2.39043 9.28571 5.48567 10.6349 9.05709L9.28571 3.42217C9.04762 2.46979 8.25397 1.91424 7.38095 1.91424L0 1.19995Z" fill="#F7981D"/>
<path d="M0 1.19995C5.07936 2.39043 9.28571 5.48567 10.6349 9.05709L9.68254 5.96185C9.44444 5.00947 9.12698 4.05709 8.01587 3.66027L0 1.19995Z" fill="#ED7C00"/>
<path d="M15 10.7237L12.3015 8.02533L11.0317 11.0412L10.7142 9.05707C9.99996 6.67612 7.69837 4.05707 5.15869 2.78723L8.73012 15.4856H13.0158L15 10.7237Z" fill="#051244"/>
<path d="M22.3809 15.4857L18.9682 11.9937L18.3333 15.4857H22.3809Z" fill="#051244"/>
<path d="M31.5079 10.5651C31.8254 10.8825 31.9841 11.1206 31.9047 11.4381C31.9047 12.3905 30.6349 12.8667 29.5238 12.8667C27.9365 12.8667 27.0635 12.6286 25.7143 12.073L25.1587 11.8349L24.6031 15.0889C25.5555 15.4857 27.3016 15.8825 29.127 15.8825C31.6666 15.8825 33.7301 15.1682 34.9206 13.8984L31.5079 10.5651Z" fill="#051244"/>
<path d="M36.1111 15.4856H39.8412L40.6349 13.1046H45.7143L46.1904 15.4856H50L48.6508 9.69192L43.8889 5.08875L44.127 6.35858C44.127 6.35858 44.9206 9.93001 45.0793 10.7237H41.746C42.0635 9.93001 43.3333 6.51732 43.3333 6.51732C43.3333 6.51732 43.6508 5.6443 43.8889 5.08875" fill="#051244"/>
</svg>
