<svg width="24" height="24" viewBox="0 0 24 24" fill="none" xmlns="http://www.w3.org/2000/svg">
<g clip-path="url(#clip0_15000_4325)">
<path d="M9.73278 19.1215L11.9988 22.9977L21.4676 6.55825H19.3466C19.3466 6.55825 18.6899 6.50345 18.7253 5.97521C18.7407 5.80178 18.8215 5.64071 18.9514 5.52474L20.6312 4.04398C20.6597 4.01752 20.6824 3.98528 20.6975 3.94941C20.7127 3.91353 20.7201 3.87484 20.7192 3.8359C20.7183 3.79697 20.7091 3.75867 20.6922 3.72354C20.6754 3.68842 20.6513 3.65728 20.6215 3.63219C20.5936 3.60885 20.5613 3.59129 20.5266 3.58051C20.4919 3.56974 20.4553 3.56597 20.4191 3.56941C20.3829 3.57286 20.3478 3.58346 20.3157 3.6006C20.2836 3.61774 20.2553 3.64108 20.2323 3.66926L18.467 5.73507C18.4434 5.76369 18.4144 5.78736 18.3816 5.80474C18.3488 5.82212 18.3129 5.83286 18.276 5.83634C18.239 5.83982 18.2018 5.83597 18.1663 5.82503C18.1309 5.81408 18.0979 5.79624 18.0694 5.77254C18.0394 5.74746 18.0149 5.71641 17.9975 5.68137C17.9802 5.64633 17.9703 5.60806 17.9685 5.569C17.9667 5.52993 17.9731 5.49092 17.9872 5.45445C18.0013 5.41797 18.0228 5.38483 18.0504 5.35712L18.7837 4.62379C18.7981 4.60946 18.8095 4.59244 18.8172 4.5737C18.825 4.55497 18.829 4.53488 18.829 4.5146C18.829 4.49432 18.825 4.47423 18.8172 4.4555C18.8095 4.43676 18.7981 4.41974 18.7837 4.40541C18.7687 4.39035 18.7506 4.37857 18.7308 4.3708C18.7109 4.36304 18.6897 4.35946 18.6684 4.3603C18.6471 4.36113 18.6262 4.36635 18.607 4.37564C18.5878 4.38493 18.5708 4.39808 18.5569 4.41427L17.3014 5.8777C17.3014 5.8777 16.9226 6.33221 17.3014 6.71096C17.3014 6.71096 17.5625 7.03773 17.2965 7.32663C17.2263 7.39827 17.18 7.48991 17.164 7.58894C17.1378 7.7904 17.2228 8.07447 17.9074 8.07447H18.8921L11.9988 20.0434L10.1051 16.7104C10.1051 16.7104 9.80208 16.106 10.3323 15.6499L10.5435 15.3908C10.5891 15.3376 10.6129 15.2692 10.6102 15.1992C10.6075 15.1292 10.5785 15.0628 10.529 15.0133C10.5032 14.9875 10.4726 14.967 10.439 14.953C10.4053 14.9391 10.3692 14.9319 10.3327 14.9319C10.2963 14.9319 10.2602 14.9391 10.2265 14.953C10.1928 14.967 10.1623 14.9875 10.1365 15.0133L9.84036 15.3119C9.81683 15.3356 9.78854 15.3541 9.75736 15.3661C9.72618 15.3781 9.6928 15.3834 9.65943 15.3816C9.62606 15.3798 9.59344 15.371 9.56372 15.3557C9.534 15.3404 9.50785 15.319 9.48699 15.2929L9.48296 15.2885C9.44483 15.2419 9.42547 15.1827 9.42867 15.1225C9.43188 15.0624 9.45742 15.0056 9.50029 14.9633C9.90644 14.5604 11.0032 13.4632 11.4746 12.9914C11.5027 12.9634 11.5246 12.9298 11.5389 12.8929C11.5532 12.8559 11.5597 12.8164 11.5579 12.7768C11.556 12.7372 11.546 12.6984 11.5283 12.6629C11.5107 12.6275 11.4858 12.5961 11.4553 12.5707C11.398 12.523 11.3244 12.4995 11.25 12.5054C11.1757 12.5113 11.1066 12.546 11.0576 12.6022L8.81572 15.1954C8.81572 15.1954 8.21132 15.7998 8.58846 16.8619L8.63238 16.9622C8.95678 17.7028 9.3242 18.4238 9.73278 19.1215Z" fill="url(#paint0_linear_15000_4325)"/>
<path d="M11.1688 13.9947L10.9783 14.2235C10.9644 14.2401 10.9545 14.2595 10.9493 14.2805C10.9441 14.3014 10.9437 14.3232 10.9481 14.3443C10.9525 14.3654 10.9617 14.3852 10.9748 14.4022C10.988 14.4193 11.0049 14.4331 11.0242 14.4427L11.0645 14.4629C11.0933 14.4774 11.1261 14.4817 11.1577 14.4752C11.1892 14.4686 11.2176 14.4515 11.2382 14.4266L11.4287 14.1978C11.4426 14.1812 11.4525 14.1618 11.4577 14.1409C11.4629 14.12 11.4633 14.0981 11.4589 14.077C11.4545 14.0559 11.4453 14.0361 11.4322 14.0191C11.419 14.002 11.4021 13.9882 11.3828 13.9786L11.3425 13.9584C11.3137 13.944 11.2809 13.9398 11.2494 13.9464C11.2179 13.953 11.1895 13.97 11.1688 13.9947Z" fill="#8A02E4"/>
<path d="M13.127 8.69819L12.8756 8.99998C12.8573 9.02179 12.8442 9.04746 12.8373 9.07505C12.8304 9.10264 12.8298 9.13145 12.8356 9.15929C12.8415 9.18714 12.8535 9.2133 12.8709 9.23582C12.8883 9.25833 12.9106 9.27661 12.936 9.28928L12.9888 9.31588C13.0268 9.3349 13.0702 9.34052 13.1118 9.33182C13.1534 9.32311 13.1909 9.3006 13.2181 9.26793L13.4695 8.96614C13.4878 8.94433 13.5009 8.91866 13.5078 8.89107C13.5147 8.86348 13.5153 8.83467 13.5094 8.80683C13.5036 8.77898 13.4916 8.75282 13.4742 8.7303C13.4568 8.70779 13.4345 8.68951 13.4091 8.67683L13.3563 8.65024C13.3183 8.63122 13.2749 8.6256 13.2333 8.6343C13.1917 8.64301 13.1542 8.66552 13.127 8.69819Z" fill="#FF6C11"/>
<path d="M16.1638 4.04277L15.9475 4.30186C15.9317 4.32056 15.9203 4.34262 15.9143 4.36635C15.9083 4.39008 15.9078 4.41487 15.9128 4.43883C15.9178 4.4628 15.9282 4.4853 15.9433 4.50464C15.9583 4.52399 15.9775 4.53966 15.9994 4.55046L16.045 4.57343C16.0775 4.58994 16.1146 4.59495 16.1503 4.58763C16.186 4.58031 16.2182 4.5611 16.2416 4.53314L16.4576 4.27406C16.4736 4.25537 16.4852 4.23325 16.4913 4.2094C16.4975 4.18555 16.4981 4.16061 16.4931 4.13648C16.4881 4.11236 16.4777 4.0897 16.4626 4.07024C16.4475 4.05078 16.4281 4.03505 16.406 4.02424L16.3605 4.00168C16.3279 3.98526 16.2907 3.98038 16.255 3.98785C16.2192 3.99531 16.1871 4.01468 16.1638 4.04277Z" fill="#FF4029"/>
<path d="M2.53003 6.6356H11.9988C11.9988 6.6356 13.0593 6.71135 14.1198 5.95385L14.7198 5.47678C14.7647 5.44061 14.8205 5.42088 14.8782 5.42088C14.9358 5.42088 14.9917 5.44061 15.0365 5.47678C15.0642 5.49888 15.0869 5.52659 15.1032 5.55809C15.1194 5.58958 15.1288 5.62416 15.1307 5.65954C15.1327 5.69492 15.1271 5.73031 15.1144 5.7634C15.1017 5.79648 15.0822 5.82651 15.0571 5.8515L14.9116 5.99736C14.8882 6.02069 14.87 6.04869 14.8582 6.07954C14.8464 6.11039 14.8412 6.14338 14.8431 6.17636C14.8449 6.20934 14.8537 6.24157 14.8688 6.27092C14.8839 6.30028 14.9051 6.3261 14.9309 6.3467C14.9779 6.38436 15.0375 6.40255 15.0975 6.39752C15.1575 6.3925 15.2132 6.36465 15.2533 6.31971L19.8765 1.13403C19.9396 1.06311 20.0263 1.0174 20.1204 1.00533C20.2146 0.993261 20.31 1.01564 20.389 1.06835C20.4373 1.10056 20.4779 1.14304 20.5078 1.19275C20.5378 1.24247 20.5564 1.29819 20.5623 1.35593C20.5683 1.41368 20.5614 1.47202 20.5421 1.52678C20.5229 1.58155 20.4918 1.63139 20.451 1.67274L15.4833 6.71135L14.7258 7.39311C14.7258 7.39311 14.2713 7.92336 13.8926 7.39311C13.8926 7.39311 13.5896 7.0901 13.2108 7.62036C13.2108 7.62036 12.9078 8.07486 11.7716 8.07486H5.10554L7.75681 12.5441C7.75681 12.5441 8.21131 13.0744 8.74156 12.5441L9.19607 12.0139C9.19607 12.0139 9.34757 11.8624 9.49907 12.0139C9.49907 12.0139 9.65057 12.3169 9.95357 12.1654L10.2195 11.9752C10.3947 11.8504 10.5495 11.6993 10.6784 11.5271L11.5959 10.2805C11.6432 10.2174 11.7133 10.1753 11.7913 10.1632C11.8692 10.1512 11.9488 10.1701 12.0129 10.216C12.0487 10.2415 12.0784 10.2745 12.1001 10.3126C12.1217 10.3508 12.1348 10.3932 12.1384 10.4369C12.142 10.4806 12.1361 10.5246 12.1209 10.5658C12.1058 10.607 12.0819 10.6444 12.0508 10.6754L11.4698 11.2564L9.04577 13.8319C9.04577 13.8319 8.25563 14.6212 7.33494 14.2703C7.03308 14.1506 6.78117 13.9314 6.62095 13.649L2.53003 6.6356Z" fill="url(#paint1_linear_15000_4325)"/>
</g>
<defs>
<linearGradient id="paint0_linear_15000_4325" x1="5.89006" y1="13.2831" x2="19.6496" y2="13.2831" gradientUnits="userSpaceOnUse">
<stop stop-color="#8A02E4"/>
<stop offset="0.33" stop-color="#7900F4"/>
<stop offset="0.68" stop-color="#AF00BB"/>
<stop offset="1" stop-color="#E30084"/>
</linearGradient>
<linearGradient id="paint1_linear_15000_4325" x1="4.97782" y1="8.68932" x2="24.7422" y2="6.48652" gradientUnits="userSpaceOnUse">
<stop stop-color="#FF8802"/>
<stop offset="0.18" stop-color="#FF6A12"/>
<stop offset="0.61" stop-color="#FF4029"/>
<stop offset="1" stop-color="#FF0649"/>
</linearGradient>
<clipPath id="clip0_15000_4325">
<rect width="18.9376" height="22" fill="white" transform="translate(2.53003 1)"/>
</clipPath>
</defs>
</svg>
