<svg width="24" height="24" viewBox="0 0 24 24" fill="none" xmlns="http://www.w3.org/2000/svg">
<path d="M6.55612 21.6717C5.64553 21.1943 4.81417 20.5936 4.07605 19.8977V16.7043L7.34598 13.8081V16.6969L20.479 5.06329C21.1971 5.92505 21.7777 6.89849 22.2039 7.94939L6.55612 21.6717Z" fill="#FF4B19"/>
<path d="M13.445 18.8048L22.884 10.5009C22.9523 10.9912 23 11.488 23 11.9968C23 13.0927 22.8313 14.1491 22.5263 15.1478L13.6609 22.8024C13.0602 22.9002 12.4476 22.9636 11.8186 22.9636C11.2586 22.9636 10.7128 22.9101 10.175 22.8321V1.16152C10.7128 1.08355 11.2586 1.03003 11.8186 1.03003C12.3725 1.03003 12.9126 1.08262 13.445 1.15891V18.8048Z" fill="#00D2FF"/>
<path d="M10.175 10.8768L18.6896 3.35721C17.7886 2.66681 16.7775 2.11313 15.6855 1.71765L1 14.7247C1.2832 15.8099 1.73539 16.8458 2.34063 17.7958L10.175 10.8768Z" fill="#556991"/>
<path d="M4.07605 16.2631V17.0366L7.34598 14.1404V1.94867C6.12601 2.47184 5.02257 3.20354 4.07605 4.0959V16.2631Z" fill="#FF4B19"/>
</svg>
