<svg width="24" height="24" viewBox="0 0 24 24" fill="none" xmlns="http://www.w3.org/2000/svg">
<path d="M21.3055 17.9564L12.389 23V19.0717L17.9445 16.0157L21.3055 17.9564ZM21.9154 17.404V6.85614L18.6525 8.73924V15.5188L21.9154 17.404ZM2.68988 17.9564L11.6063 23V19.0717L6.05088 16.0157L2.68988 17.9564ZM2.07996 17.404V6.85614L5.34285 8.73924V15.5188L2.07996 17.404ZM2.46169 6.17371L11.6063 1V4.79818L5.74805 8.02055L5.70326 8.04614L2.46169 6.17371ZM21.5336 6.17371L12.389 1V4.79818L18.2473 8.02055L18.2921 8.04614L21.5336 6.17371Z" fill="#8ED6FB"/>
<path d="M11.6064 18.1782L6.12561 15.1648V9.19352L11.6064 12.3583V18.1782ZM12.3891 18.1782L17.8699 15.1648V9.19352L12.3891 12.3583V18.1782ZM6.49669 8.50256L11.9988 5.47638L17.501 8.50256L11.9988 11.6801L6.49669 8.50256Z" fill="#1C78C0"/>
</svg>
