<svg width="24" height="24" viewBox="0 0 24 24" fill="none" xmlns="http://www.w3.org/2000/svg">
<path d="M13.21 17.8787C13.21 20.6889 10.994 22.9672 8.26022 22.9672C5.52613 22.9672 3.31006 20.6889 3.31006 17.8787C3.31006 15.0685 5.52604 12.7902 8.26022 12.7902C10.994 12.7902 13.21 15.0685 13.21 17.8787Z" fill="#FF6600"/>
<path d="M23 10.7549C23 13.5647 20.7841 15.8434 18.0503 15.8434C15.3162 15.8434 13.1002 13.5647 13.1002 10.7549C13.1002 7.94461 15.3161 5.66595 18.0503 5.66595C20.7841 5.66595 23 7.94461 23 10.7549Z" fill="#FFCC00"/>
<path d="M10.8998 10.6419C10.8998 13.4518 8.68392 15.7305 5.94974 15.7305C3.21633 15.7305 1 13.4518 1 10.642C1 7.83178 3.21633 5.55304 5.94974 5.55304C8.68383 5.55304 10.8998 7.8316 10.8998 10.6419Z" fill="#0089CC"/>
<path d="M20.8001 17.8787C20.8001 20.6889 18.5842 22.9672 15.8496 22.9672C13.1162 22.9672 10.8999 20.6889 10.8999 17.8787C10.8999 15.0685 13.1162 12.7902 15.8496 12.7902C18.5842 12.7902 20.8001 15.0685 20.8001 17.8787Z" fill="#009939"/>
<path d="M16.9501 6.11852C16.9501 8.92871 14.7338 11.2071 12 11.2071C9.26626 11.2071 7.04993 8.92871 7.04993 6.11852C7.04993 3.30833 9.26626 1.03003 12 1.03003C14.7338 1.03003 16.9501 3.30833 16.9501 6.11852Z" fill="#BF0000"/>
<path d="M13.1001 10.7549C13.1001 10.8619 13.1091 10.9667 13.1157 11.0722C15.3114 10.5516 16.9499 8.53357 16.9499 6.11841C16.9499 6.01132 16.9409 5.90618 16.9345 5.8006C14.7388 6.32171 13.1001 8.33963 13.1001 10.7549Z" fill="#FC0007"/>
<path d="M13.7532 13.2745C14.6062 14.8074 16.2093 15.8433 18.0505 15.8433C18.8008 15.8433 19.5096 15.6666 20.1471 15.3591C19.2944 13.8261 17.6913 12.7903 15.8498 12.7903C15.0994 12.7903 14.3907 12.9671 13.7532 13.2745Z" fill="#1CD306"/>
<path d="M10.8999 17.8787C10.8999 19.1218 11.3346 20.2596 12.0553 21.1432C12.7752 20.2596 13.2099 19.1219 13.2099 17.8787C13.2099 16.6355 12.7752 15.4978 12.0553 14.6142C11.3346 15.4977 10.8999 16.6355 10.8999 17.8787Z" fill="#0F7504"/>
<path d="M3.98999 15.3137C4.60864 15.589 5.27566 15.7307 5.94976 15.7303C7.77277 15.7303 9.36097 14.7147 10.2202 13.2067C9.60154 12.9316 8.93454 12.7899 8.26046 12.7903C6.43744 12.7903 4.8489 13.8061 3.98999 15.3137Z" fill="#0C5E87"/>
<path d="M7.07117 5.68927C7.05948 5.83099 7.04968 5.97351 7.04968 6.11858C7.04968 8.53189 8.68584 10.5479 10.879 11.0709C10.8901 10.9292 10.9 10.7867 10.9 10.642C10.9 8.22865 9.26421 6.21188 7.07117 5.68927Z" fill="#6B0001"/>
<path d="M7.53315 17.249H6.75882C6.07525 17.249 5.51941 16.6794 5.51941 15.9786V8.77369C5.51941 8.07278 6.07525 7.50281 6.75882 7.50281H16.4686C17.1523 7.50281 17.7078 8.07278 17.7078 8.77369V15.9786C17.7078 16.6794 17.1523 17.2491 16.4686 17.2491H13.1609L6.52409 20.5933L7.53315 17.249Z" fill="white"/>
</svg>
