<svg width="24" height="24" viewBox="0 0 24 24" fill="none" xmlns="http://www.w3.org/2000/svg">
<path fill-rule="evenodd" clip-rule="evenodd" d="M19.7097 4.19708C17.6509 2.13652 14.9128 1.00116 11.9956 1C5.98494 1 1.09299 5.89009 1.09058 11.9008C1.08978 13.8222 1.59195 15.6977 2.54619 17.3508L0.999146 23L6.78007 21.4841C8.37282 22.3525 10.1661 22.8102 11.9913 22.811H11.9958C18.0058 22.811 22.8982 17.9203 22.9007 11.9095C22.9018 8.99663 21.7686 6.25765 19.7097 4.19708ZM11.9958 20.9698H11.992C10.3657 20.9691 8.77046 20.5324 7.37887 19.7068L7.04788 19.5104L3.61744 20.41L4.5331 17.0664L4.31757 16.7236C3.41027 15.2809 2.93106 13.6135 2.93177 11.9015C2.93376 6.90563 6.9998 2.84119 11.9993 2.84119C14.4202 2.84211 16.696 3.78584 18.4073 5.49851C20.1185 7.21118 21.0604 9.48772 21.0595 11.9088C21.0574 16.905 16.9914 20.9698 11.9958 20.9698ZM16.9674 14.1837C16.6949 14.0473 15.3553 13.3883 15.1055 13.2974C14.8558 13.2065 14.6741 13.1611 14.4925 13.4338C14.3108 13.7065 13.7887 14.32 13.6297 14.5018C13.4708 14.6836 13.3118 14.7063 13.0393 14.57C12.7669 14.4336 11.8889 14.146 10.8481 13.218C10.0381 12.4958 9.49125 11.6037 9.33232 11.331C9.17338 11.0583 9.31542 10.9109 9.45182 10.7751C9.57438 10.653 9.72428 10.457 9.86053 10.2979C9.99675 10.1388 10.0422 10.0252 10.133 9.84343C10.2238 9.66163 10.1784 9.50254 10.1103 9.3662C10.0422 9.22987 9.49725 7.88912 9.27016 7.34374C9.04901 6.81259 8.82436 6.88445 8.65711 6.87614C8.49835 6.86824 8.31652 6.86655 8.13489 6.86655C7.95324 6.86655 7.65805 6.93473 7.40827 7.2074C7.15852 7.48011 6.45465 8.13911 6.45465 9.47982C6.45465 10.8205 7.43099 12.1158 7.56724 12.2976C7.70346 12.4794 9.48858 15.2308 12.2219 16.4106C12.872 16.6913 13.3796 16.8588 13.7753 16.9845C14.428 17.1917 15.022 17.1625 15.4915 17.0924C16.015 17.0142 17.1036 16.4334 17.3307 15.7971C17.5578 15.1608 17.5578 14.6154 17.4896 14.5018C17.4215 14.3882 17.2399 14.32 16.9674 14.1837Z" fill="black"/>
</svg>
