<svg width="24" height="24" viewBox="0 0 24 24" fill="none" xmlns="http://www.w3.org/2000/svg">
<g clip-path="url(#clip0_15000_4288)">
<path d="M4.20658 5.34508C4.01562 5.34508 3.85491 5.41218 3.77384 5.54341C3.69024 5.67882 3.70289 5.85339 3.7921 6.03005L5.93743 9.74376C5.94106 9.7508 5.94106 9.75531 5.93743 9.7618L2.56615 15.711C2.47826 15.8862 2.48255 16.0621 2.56615 16.1978C2.64711 16.3284 2.78978 16.4141 2.98096 16.4141H6.1538C6.62812 16.4141 6.85703 16.094 7.01917 15.8014C7.01917 15.8014 10.3162 9.97025 10.4446 9.74387C10.4316 9.72297 8.26327 5.94007 8.26327 5.94007C8.10498 5.6588 7.86661 5.34497 7.37997 5.34497H4.20658V5.34508Z" fill="#005A5F"/>
<path d="M17.5364 1.00021C17.0624 1.00021 16.8571 1.29875 16.6869 1.60455C16.6869 1.60455 9.8515 13.7265 9.62622 14.1245C9.63777 14.1461 14.1345 22.3955 14.1345 22.3955C14.292 22.6769 14.535 22.9999 15.0211 22.9999H18.1902C18.3813 22.9999 18.5307 22.9279 18.6112 22.7971C18.6959 22.6618 18.6935 22.4829 18.6048 22.3068L14.1317 14.1343C14.1296 14.1313 14.1285 14.1276 14.1285 14.1239C14.1285 14.1202 14.1296 14.1166 14.1317 14.1135L21.1566 1.69233C21.245 1.51699 21.2468 1.33813 21.1634 1.20261C21.0824 1.07193 20.9326 0.999878 20.7414 0.999878H17.5361V1.0001L17.5364 1.00021Z" fill="#D4D600"/>
</g>
<defs>
<clipPath id="clip0_15000_4288">
<rect width="19" height="22.0001" fill="white" transform="translate(2.5 1)"/>
</clipPath>
</defs>
</svg>
