<svg width="24" height="24" viewBox="0 0 24 24" fill="none" xmlns="http://www.w3.org/2000/svg">
<path d="M12.0037 1C18.0146 1.01181 22.8397 5.7942 22.994 11.7016C23.1575 18.0466 17.9883 23.1414 11.7467 22.997C5.91109 22.8644 1.26854 18.2073 1.01158 12.5097C0.72556 6.19553 5.77671 0.995463 12.0037 1Z" fill="#3398C2"/>
<path d="M7.95238 8.70339C8.02411 8.42464 8.12762 8.15497 8.26019 7.898C8.39003 7.65012 8.57526 7.46489 8.84402 7.37591C9.03652 7.31326 9.19723 7.20248 9.3416 7.0563C9.85099 6.54419 10.4693 6.24637 11.1885 6.16646C11.3065 6.15466 11.3664 6.11108 11.4118 6.0003C11.5199 5.73789 11.6543 5.48547 11.8322 5.2621C12.0674 4.9661 12.3489 4.74546 12.7556 4.76906C13.0126 4.78359 13.2269 4.89164 13.3831 5.09867C13.5583 5.3293 13.6882 5.58717 13.8135 5.84685C13.8543 5.93129 13.8879 5.96217 13.9914 5.94037C14.371 5.85593 14.6788 6.02209 14.8422 6.3753C15.032 6.78844 15.1237 7.22609 15.1691 7.67373C15.2653 8.60442 15.2027 9.52058 14.8876 10.4122C14.7024 10.9361 14.4427 11.4219 14.1258 11.8786C14.0877 11.934 14.0777 11.9703 14.1303 12.0275C14.9793 12.98 15.3952 14.0905 15.3471 15.3699V15.4616C15.407 15.4643 15.4533 15.428 15.4987 15.4035C15.8737 15.211 16.2151 14.9658 16.5928 14.776C17.124 14.5091 17.6797 14.322 18.2826 14.3266C19.1742 14.3338 19.7472 15.2019 19.374 15.9755C19.2269 16.2806 18.9872 16.4976 18.6576 16.5693C18.0565 16.7037 17.5226 16.9761 17.0132 17.3102C16.1742 17.8678 15.2554 18.2818 14.2938 18.5987C14.2293 18.6205 14.1685 18.6468 14.1131 18.6904C13.8561 18.8829 13.5556 18.9619 13.2423 19.0055C12.2926 19.138 11.3383 19.1952 10.3813 19.2361C9.98718 19.2533 9.59493 19.1998 9.24626 18.9909C9.15274 18.9328 9.07102 18.8248 8.97477 18.8084C8.88125 18.7939 8.77502 18.8802 8.67151 18.9047C8.05861 19.0418 7.48385 18.9265 6.95268 18.6041C6.6376 18.4144 6.48869 18.1138 6.50504 17.7434C6.50958 17.6444 6.48143 17.5727 6.42332 17.4937C6.16817 17.1377 6.04378 16.7319 5.97386 16.3033C5.83676 15.4598 6.1373 14.7624 6.69481 14.1513C6.74747 14.0932 6.76654 14.036 6.76654 13.9588C6.76654 13.1153 6.92725 12.3118 7.36037 11.5763C7.6028 11.165 7.91606 10.8117 8.26472 10.4921C8.33192 10.4322 8.33918 10.3913 8.29378 10.3142C8.14669 10.069 8.05589 9.79934 7.97598 9.52513C7.90879 9.477 7.95238 9.40255 7.92514 9.34262C7.9206 9.29722 7.92514 9.25091 7.91061 9.20551V8.90497C7.92241 8.86138 7.92241 8.81598 7.92241 8.77058C7.93331 8.74879 7.92877 8.71974 7.95238 8.70339Z" fill="#FEFEFE"/>
<path d="M7.94499 9.3408C7.96406 9.40073 7.94045 9.46792 7.97586 9.52603C7.96587 9.5333 7.96587 9.58142 7.95225 9.54783C7.92592 9.48336 7.90686 9.41072 7.90686 9.3408C7.90232 9.11018 7.88052 8.87682 7.94499 8.64801C7.94771 8.66708 7.94953 8.68615 7.95498 8.7034C7.95225 8.72519 7.95044 8.74698 7.94771 8.76605C7.92592 8.80691 7.95044 8.85503 7.92865 8.89589V9.21096C7.94499 9.25182 7.92411 9.29995 7.94499 9.3408Z" fill="#3298C3"/>
<path d="M14.7014 15.4951C14.7014 15.7166 14.6505 15.9327 14.6224 16.1489C14.5988 16.3386 14.6179 16.3604 14.8104 16.3268C15.2435 16.2524 15.6348 16.0699 16.0125 15.8556C16.4166 15.6249 16.8016 15.3625 17.2338 15.19C17.5679 15.0556 17.9093 14.9666 18.2725 14.9666C18.5876 14.9666 18.8064 15.1373 18.8446 15.407C18.8809 15.6567 18.7438 15.8955 18.4932 15.9482C17.7768 16.0998 17.1584 16.453 16.5555 16.8453C15.7474 17.3674 14.8676 17.7442 13.9514 18.0329C13.9178 18.0429 13.8742 18.0502 13.8524 18.0711C13.6363 18.2999 13.3503 18.338 13.0616 18.3762C12.2516 18.4824 11.4363 18.5296 10.6191 18.5777C10.3839 18.5923 10.1478 18.5995 9.91265 18.5541C9.53765 18.4797 9.37875 18.3398 9.32154 18.032C9.2707 17.7551 9.40054 17.4936 9.67748 17.3129C9.70653 17.2938 9.7374 17.2748 9.78371 17.2457C9.6348 17.154 9.51222 17.0459 9.4187 16.9116C9.3733 16.8489 9.34878 16.888 9.33426 16.9406C9.28886 17.114 9.24255 17.2893 9.19715 17.4627C9.16628 17.578 9.12723 17.6915 9.07911 17.8014C8.93928 18.121 8.68504 18.2754 8.34818 18.3062C8.00405 18.3371 7.6799 18.2608 7.37209 18.1092C7.16052 18.0057 7.09787 17.8495 7.16779 17.6207C7.20411 17.4981 7.27402 17.3919 7.35756 17.262C7.067 17.3202 6.93897 17.1513 6.83819 16.947C6.6121 16.4993 6.53492 16.0263 6.62663 15.536C6.70108 15.1464 6.92989 14.8295 7.20411 14.5553C7.36482 14.3946 7.41295 14.2403 7.40841 14.0142C7.37209 12.7085 7.86513 11.6361 8.88026 10.8071C8.96924 10.7327 9.05823 10.6555 9.15175 10.5883C9.20986 10.5475 9.21622 10.5211 9.169 10.4612C8.90659 10.1316 8.70229 9.77384 8.60877 9.35798C8.50254 8.88946 8.66143 8.48268 8.89751 8.09315C8.93111 8.04049 8.98377 8.01416 9.04188 7.99236C9.33789 7.88613 9.58759 7.72541 9.81368 7.49932C10.3231 6.98994 10.9532 6.75659 11.6741 6.78746C11.7659 6.792 11.8067 6.76567 11.8349 6.67941C11.9429 6.36434 12.0773 6.06107 12.258 5.7805C12.3252 5.67426 12.3996 5.5762 12.4959 5.4972C12.6738 5.35011 12.8255 5.3719 12.9453 5.56712C13.1669 5.92033 13.3376 6.30078 13.5101 6.68032C13.5537 6.77656 13.5873 6.81016 13.6881 6.74478C13.8061 6.67033 13.9378 6.61766 14.0703 6.57136C14.1766 6.53504 14.2383 6.55955 14.2846 6.67033C14.419 6.99448 14.4916 7.33407 14.5325 7.68274C14.5443 7.77899 14.5661 7.87251 14.5543 7.96876C14.547 8.17759 14.557 8.38734 14.5588 8.5989C14.5588 8.69243 14.5252 8.78686 14.5543 8.8822C14.5325 9.45423 14.3809 9.99539 14.1602 10.5193C13.9532 11.0096 13.6527 11.4445 13.3521 11.8804C13.2341 12.0484 13.2368 12.0511 13.3903 12.1882C14.1403 12.8637 14.5543 13.7127 14.6932 14.7033C14.6978 14.7415 14.6959 14.7823 14.6959 14.8232C14.6651 14.9149 14.6987 15.0039 14.7005 15.0929C14.7087 15.2281 14.6778 15.3634 14.7014 15.4951Z" fill="#3398C2"/>
<path d="M14.557 8.88406C14.528 8.86046 14.5352 8.82595 14.5352 8.79508V8.06143C14.5352 8.03055 14.528 7.99696 14.557 7.97244C14.5888 8.27571 14.5906 8.5808 14.557 8.88406Z" fill="#2B95C1"/>
<path d="M14.7013 15.4951C14.6532 15.3099 14.6913 15.1228 14.6795 14.9376C14.6768 14.8995 14.665 14.8559 14.7013 14.825C14.7322 15.0484 14.7277 15.2717 14.7013 15.4951Z" fill="#2693BF"/>
<path d="M7.92613 8.89587C7.92885 8.85228 7.90706 8.80416 7.9452 8.76602C7.9452 8.8087 7.94792 8.85501 7.92613 8.89587ZM7.9452 9.34079C7.90888 9.30266 7.92794 9.25453 7.92613 9.21095C7.95064 9.25181 7.9452 9.29721 7.9452 9.34079Z" fill="#3398C2"/>
</svg>
