<svg width="24" height="24" viewBox="0 0 24 24" fill="none" xmlns="http://www.w3.org/2000/svg">
<g clip-path="url(#clip0_12171_1750)">
<path d="M19.3121 1.00034C20.8056 1.76134 22.0883 3.75837 22.024 6.46822C21.8288 9.80716 19.4079 12.6847 16.774 15.336C16.6265 12.1027 15.9234 10.0422 14.8257 7.1446C13.7893 4.22462 16.8193 1.0938 19.3121 1.00034Z" fill="url(#paint0_linear_12171_1750)"/>
<path d="M11.2338 15.2223C12.0357 14.2247 12.6041 13.3364 13.0007 12.5338C15.7178 13.9544 15.0767 13.6891 16.3871 15.2027C16.3916 15.2498 16.3957 15.2968 16.3997 15.3436C16.5084 17.4423 14.9775 22.294 8.94913 22.9589C8.53185 19.6988 9.88847 16.918 11.2338 15.2223Z" fill="url(#paint1_linear_12171_1750)"/>
<path d="M1.53242 3.02714C5.82764 1.32744 10.4503 3.06857 13.119 6.69624C13.3773 7.04712 13.6221 7.41164 13.853 7.78677C14.27 10.4488 13.952 11.9273 13.1403 12.711C12.6066 12.4417 12.0372 12.2029 11.4293 11.9821C10.0162 11.4687 8.71181 11.1289 6.84911 10.5774C2.42599 9.37029 1.33522 5.57761 1.53242 3.02714Z" fill="url(#paint2_linear_12171_1750)"/>
<path d="M13.6888 7.52612C13.717 7.56988 13.7449 7.61332 13.7723 7.6574L13.8062 7.71176C13.8751 7.82248 13.9427 7.93385 14.0093 8.04658L14.0206 8.06536L14.0385 8.09587L14.0548 8.12406L14.1025 8.20596L14.1058 8.2119L14.1704 8.32527L14.1724 8.32856C14.2191 8.4111 14.2652 8.49396 14.3106 8.57747L14.3162 8.58806L14.3666 8.68152L14.368 8.68393L14.4233 8.78791L14.4392 8.81842L14.4701 8.87784L14.5078 8.95098L14.5443 9.02196C14.5814 9.09551 14.6182 9.16914 14.6543 9.24268L14.6636 9.26091C14.7288 9.39426 14.7923 9.52838 14.8542 9.66325L14.9013 9.76635L14.9059 9.77663L14.9361 9.84359L14.9712 9.92284L14.9911 9.9686L15.0229 10.0418L15.0457 10.0945L15.0938 10.2079L15.0971 10.2158L15.1485 10.3391L15.1548 10.354C15.2095 10.4873 15.2625 10.6206 15.3139 10.7547L15.3189 10.767L15.3613 10.8794L15.3639 10.8856L15.3885 10.9519C15.4157 11.0255 15.4425 11.0992 15.469 11.173L15.4793 11.2019C15.5085 11.2843 15.5373 11.3673 15.5652 11.4498L15.5741 11.4759C15.6002 11.5535 15.6255 11.6311 15.6507 11.7086L15.663 11.7468L15.6659 11.7557L15.7057 11.8813L15.7073 11.8869L15.7441 12.0069L15.7809 12.1305L15.7819 12.1332L15.8125 12.2376L15.8221 12.2715L15.8406 12.3361C15.8614 12.4106 15.882 12.4849 15.9019 12.5595L15.9168 12.6151L15.9457 12.7251L15.9469 12.7305C15.9821 12.8657 16.0152 13.0009 16.0467 13.1358L16.0497 13.1498L16.053 13.164C16.0941 13.342 16.1319 13.5194 16.1667 13.696L16.1701 13.7136C16.2233 13.9852 16.2692 14.2582 16.3079 14.5322L16.3086 14.5359C16.3205 14.6194 16.3315 14.7025 16.3417 14.7858L16.346 14.8215L16.36 14.9405V14.9408L16.3718 15.0509L16.3759 15.0874L16.3845 15.1746L16.3878 15.2097L16.3891 15.224L16.3997 15.3436C15.4508 14.1215 14.3173 13.2793 12.957 12.6204C14.0548 10.4501 13.9006 8.90369 13.6888 7.52612Z" fill="url(#paint3_linear_12171_1750)"/>
</g>
<defs>
<linearGradient id="paint0_linear_12171_1750" x1="18.3216" y1="1.00034" x2="18.3216" y2="15.336" gradientUnits="userSpaceOnUse">
<stop stop-color="#73B723"/>
<stop offset="1" stop-color="#D8EE61"/>
</linearGradient>
<linearGradient id="paint1_linear_12171_1750" x1="15.2644" y1="15.2705" x2="8.13337" y2="20.6019" gradientUnits="userSpaceOnUse">
<stop stop-color="#98C9EA"/>
<stop offset="0.68865" stop-color="#026FB2"/>
<stop offset="1" stop-color="#086EB6"/>
</linearGradient>
<linearGradient id="paint2_linear_12171_1750" x1="1.51062" y1="3.02523" x2="10.7392" y2="11.3065" gradientUnits="userSpaceOnUse">
<stop stop-color="#D73721"/>
<stop offset="1" stop-color="#F7D768"/>
</linearGradient>
<linearGradient id="paint3_linear_12171_1750" x1="14.0229" y1="9.94899" x2="17.048" y2="11.1605" gradientUnits="userSpaceOnUse">
<stop stop-color="#D4C883"/>
<stop offset="1" stop-color="#A1D1A7"/>
</linearGradient>
<clipPath id="clip0_12171_1750">
<rect width="21" height="22" fill="white" transform="translate(1.5 1)"/>
</clipPath>
</defs>
</svg>
