<svg width="24" height="24" viewBox="0 0 24 24" fill="none" xmlns="http://www.w3.org/2000/svg">
<path d="M12.4874 19.6212L7.97385 19.5383C6.51246 19.5094 5.04744 19.5671 3.61471 19.2676C1.43519 18.8202 1.28079 16.6266 1.11922 14.7866C0.896594 12.1997 0.982778 9.56588 1.4029 7.00061C1.64007 5.56122 2.57344 4.70233 4.01686 4.60886C8.88948 4.26967 13.7945 4.30987 18.6563 4.46811C19.1698 4.48262 19.6868 4.56191 20.1931 4.65216C22.6923 5.09235 22.7533 7.57822 22.9153 9.67086C23.0768 11.7851 23.0086 13.9102 22.6998 16.01C22.4521 17.7486 21.978 19.2066 19.9776 19.3474C17.4712 19.5314 15.0223 19.6796 12.5089 19.6324C12.509 19.6212 12.4946 19.6212 12.4874 19.6212ZM9.83387 15.2196C11.7226 14.1299 13.5754 13.0584 15.4534 11.976C13.5611 10.8863 11.7118 9.81482 9.83387 8.73246V15.2196Z" fill="#FF0000"/>
</svg>
