<svg width="24" height="24" viewBox="0 0 24 24" fill="none" xmlns="http://www.w3.org/2000/svg">
<g clip-path="url(#clip0_12141_934)">
<path d="M19.7073 23.5909C14.5854 24.1373 9.42002 24.1373 4.29818 23.5909C3.30357 23.4859 2.37501 23.0431 1.66731 22.3364C0.959605 21.6297 0.515522 20.7017 0.409094 19.7073C-0.137341 14.5854 -0.137341 9.42002 0.409094 4.29818C0.514126 3.30357 0.956907 2.37501 1.66362 1.66731C2.37033 0.959605 3.29827 0.515522 4.29273 0.409094C9.41456 -0.137341 14.58 -0.137341 19.7018 0.409094C20.6964 0.514126 21.625 0.956907 22.3327 1.66362C23.0404 2.37033 23.4845 3.29827 23.5909 4.29273C24.1373 9.41456 24.1373 14.58 23.5909 19.7018C23.4859 20.6964 23.0431 21.625 22.3364 22.3327C21.6297 23.0404 20.7017 23.4845 19.7073 23.5909V23.5909Z" fill="#E60000"/>
<path d="M19.1496 8.39181C18.8496 7.46863 17.8569 6.90953 16.9433 6.78135C13.6571 6.43226 10.3431 6.43226 7.05691 6.78135C6.14327 6.90953 5.14782 7.46317 4.85055 8.39181C4.38283 10.775 4.38283 13.2264 4.85055 15.6095C5.15055 16.5314 6.14327 17.0918 7.05691 17.22C10.3431 17.5691 13.6571 17.5691 16.9433 17.22C17.8569 17.0918 18.8524 16.5382 19.1496 15.6095C19.6174 13.2264 19.6174 10.775 19.1496 8.39181V8.39181ZM10.2055 14.8745V9.12544L14.8855 12C13.3078 12.9695 11.7765 13.9091 10.2055 14.8745Z" fill="white"/>
</g>
<defs>
<clipPath id="clip0_12141_934">
<rect width="24" height="24" fill="white"/>
</clipPath>
</defs>
</svg>
